<svg width="16" height="16" viewBox="0 0 16 16" fill="none" xmlns="http://www.w3.org/2000/svg">
<path d="M11.3335 2.99998C11.3335 3.92045 10.5873 4.66665 9.66683 4.66665C8.74635 4.66665 8.00016 3.92045 8.00016 2.99998M11.3335 2.99998C11.3335 2.07951 10.5873 1.33331 9.66683 1.33331C8.74635 1.33331 8.00016 2.07951 8.00016 2.99998M11.3335 2.99998H14.6668M8.00016 2.99998H1.3335M6.3335 7.99998C6.3335 8.92045 5.5873 9.66665 4.66683 9.66665C3.74635 9.66665 3.00016 8.92045 3.00016 7.99998M6.3335 7.99998C6.3335 7.0795 5.5873 6.33331 4.66683 6.33331C3.74635 6.33331 3.00016 7.0795 3.00016 7.99998M6.3335 7.99998H14.6668M3.00016 7.99998H1.3335M13.8335 13C13.8335 13.9205 13.0873 14.6666 12.1668 14.6666C11.2464 14.6666 10.5002 13.9205 10.5002 13M13.8335 13C13.8335 12.0795 13.0873 11.3333 12.1668 11.3333C11.2464 11.3333 10.5002 12.0795 10.5002 13M13.8335 13H14.6668M10.5002 13H1.3335" stroke="white" stroke-width="1.5" stroke-linecap="round" stroke-linejoin="round"/>
</svg>
