<?xml version="1.0" standalone="no"?>
<!DOCTYPE svg PUBLIC "-//W3C//DTD SVG 1.1//EN" "http://www.w3.org/Graphics/SVG/1.1/DTD/svg11.dtd" >
<svg xmlns="http://www.w3.org/2000/svg" xmlns:xlink="http://www.w3.org/1999/xlink" version="1.1">
<metadata>
Created by FontForge 20170731 at Fri Sep  2 19:16:37 2022
 By Aleksey,,,
[c] Copyright 2003-2004, The Font Bureau, Inc. Designed by David Berlow. All rights reserved.
</metadata>
<defs>
<font id="TitlingGothicFBNarrow-Standard" horiz-adv-x="843" >
  <font-face 
    font-family="TitlingGothicFBNar Standard"
    font-weight="450"
    font-stretch="semi-condensed"
    units-per-em="2048"
    panose-1="0 0 0 0 0 0 0 0 0 0"
    ascent="1638"
    descent="-410"
    x-height="1126"
    cap-height="1622"
    bbox="-219 -410 2572 2013"
    underline-thickness="40"
    underline-position="-312"
    unicode-range="U+0020-FB04"
  />
<missing-glyph horiz-adv-x="1024" 
d="M102 -410v2048h820v-2048h-820zM205 -307h614v1843h-614v-1843z" />
    <glyph glyph-name="f_f" unicode="ff" horiz-adv-x="1341" 
d="M807 905h-369v-905h-252v905h-161v221h161v220q0 137 75 218t237 81q100 0 207 -13v-213q-80 8 -127 8q-142 0 -142 -122v-183h371v193q0 67 17.5 124.5t53 104.5t96.5 74t142 27q104 0 205 -13v-213q-92 8 -127 8q-139 0 -139 -116v-189h264v-217h-260v-905h-252v905z
" />
    <glyph glyph-name="f_f_i" unicode="ffi" horiz-adv-x="1830" 
d="M1432 102v805h-373v-907h-252v909h-369v-909h-252v905h-161v221h161v220q0 137 75 218t237 81q100 0 207 -13v-213q-80 8 -127 8q-142 0 -142 -122v-183h371v193q0 67 17.5 124.5t53 104.5t96.5 74t142 27q104 0 205 -13v-213q-92 8 -127 8q-139 0 -139 -116v-189h631
v-1013q0 -97 16 -109h-250q-20 7 -20 102z" />
    <glyph glyph-name="f_f_l" unicode="ffl" horiz-adv-x="1832" 
d="M807 907h-369v-907h-252v905h-161v221h161v220q0 137 75 218t237 81q100 0 207 -13v-213q-80 8 -127 8q-142 0 -142 -122v-183h371v193q0 67 17.5 124.5t53 104.5t96.5 74t142 27q114 0 215 -13v-213q-92 8 -137 8q-139 0 -139 -116v-189h268v-217h-264v-905h-252v907z
M1686 100q0 -91 14 -100h-250q-14 6 -14 80v1438q0 90 -6 114h249q7 -42 7 -94v-1438z" />
    <glyph glyph-name="f_i" unicode="fi" horiz-adv-x="1212" 
d="M817 102v807h-375v-909h-252v905h-165v221h165v220q0 137 78.5 218t245.5 81q98 0 205 -13v-213q-46 11 -129 11q-150 0 -150 -132v-176h631v-1013q0 -97 12 -109h-252q-14 18 -14 102z" />
    <glyph glyph-name="f_l" unicode="fl" horiz-adv-x="1214" 
d="M186 905h-161v221h161v220q0 136 76 217.5t236 81.5q114 0 215 -13v-213q-42 11 -138 11q-139 0 -139 -117v-191h269v-217h-265v-905h-254v905zM1067 100q0 -91 14 -100h-250q-14 6 -14 80v1438q0 66 -6 114h250q6 -36 6 -94v-1438z" />
    <glyph glyph-name=".notdef" horiz-adv-x="1024" 
d="M102 -410v2048h820v-2048h-820zM205 -307h614v1843h-614v-1843z" />
    <glyph glyph-name=".null" horiz-adv-x="0" 
 />
    <glyph glyph-name="nonmarkingreturn" horiz-adv-x="682" 
 />
    <glyph glyph-name="space" unicode=" " horiz-adv-x="491" 
 />
    <glyph glyph-name="exclam" unicode="!" horiz-adv-x="544" 
d="M123 1622h299l-33 -1184h-235zM408 328v-328h-269v328h269z" />
    <glyph glyph-name="quotedbl" unicode="&#x22;" horiz-adv-x="829" 
d="M494 1622h260l-13 -690h-235zM74 1622h258l-15 -690h-229z" />
    <glyph glyph-name="numbersign" unicode="#" horiz-adv-x="1052" 
d="M817 1081h205l-25 -186h-204l-37 -219h221l-25 -184h-223l-67 -529h-146l68 529h-209l-68 -529h-145l67 529h-202l26 184h201q29 188 35 219h-215l24 186h219l64 492h145l-63 -492h209l63 492h148q-58 -451 -66 -492zM610 676q27 188 33 219h-207l-33 -219h207z" />
    <glyph glyph-name="dollar" unicode="$" horiz-adv-x="1218" 
d="M676 1659v-55q89 -7 159 -26.5t116.5 -47t80.5 -67t53.5 -81.5t32.5 -96q12 -52 12 -151h-251q3 62 -13 120q-13 57 -56.5 94t-133.5 48v-455q36 -11 59 -20q239 -96 331.5 -204.5t92.5 -287.5q0 -193 -131 -302.5t-352 -123.5v-139h-141v139q-417 24 -476 313
q-12 67 -12 150h254q0 -69 12 -121q30 -122 222 -137v536q-38 19 -68 31q-232 95 -321 194t-89 259q0 167 119 269.5t359 109.5v51h141zM535 999v404q-228 -17 -228 -172q0 -76 52 -128.5t176 -103.5zM676 686v-477q229 27 229 211q0 98 -46 151t-183 115z" />
    <glyph glyph-name="percent" unicode="%" horiz-adv-x="1798" 
d="M856 1290v-129q0 -152 -105.5 -255t-285.5 -103q-184 0 -288.5 102.5t-104.5 255.5v129q0 74 23.5 137.5t70 114t123 79t176.5 28.5q81 0 147.5 -20.5t111 -55.5t75 -81.5t44 -97t13.5 -104.5zM1251 1587h154l-885 -1587h-158zM467 981q89 0 138.5 55t49.5 129v123
q0 70 -53 123t-137 53q-91 0 -143 -48.5t-52 -127.5v-121q0 -79 53.5 -132.5t143.5 -53.5zM1724 471v-131q0 -159 -100 -258.5t-299 -99.5q-181 0 -284 104.5t-103 253.5v131q0 69 24 131.5t70.5 114t124 82t174.5 30.5t174.5 -32t124 -85t70.5 -115t24 -126zM1331 162
q99 0 146 54t47 132v121q0 71 -53 123.5t-140 52.5q-95 0 -143.5 -51t-48.5 -125v-121q0 -73 50.5 -129.5t141.5 -56.5z" />
    <glyph glyph-name="ampersand" unicode="&#x26;" horiz-adv-x="1488" 
d="M999 1229q-3 -91 -45 -175t-105.5 -149t-158.5 -135q177 -206 328 -346q105 130 108 324h244q-3 -296 -168 -494q26 -30 275 -254h-361q-99 89 -104 94q-168 -110 -412 -110q-131 0 -230.5 19t-175 60t-117 111t-46.5 168v94q3 116 90 216t225 167q-142 211 -145 391v88
q3 144 116 241t301 97q177 0 273.5 -93t107.5 -236q1 -6 1 -22t-0.5 -35t-0.5 -21zM446 1200q6 -112 107 -262q194 130 197 279v55q-7 137 -146 137q-74 0 -113 -37.5t-45 -103.5q-2 -9 -2 -34t2 -34zM825 268q-171 164 -340 373q-90 -50 -141 -114.5t-51 -129.5
q0 -102 70 -147t204 -47q172 0 258 65z" />
    <glyph glyph-name="quotesingle" unicode="'" horiz-adv-x="540" 
d="M135 1622h271l-15 -711h-241z" />
    <glyph glyph-name="parenleft" unicode="(" horiz-adv-x="638" 
d="M336 737q0 -254 85 -492t200 -386h-267q-50 60 -97.5 144.5t-93.5 196.5t-74 254t-28 287q0 136 28.5 277.5t74 255.5t94.5 203t96 145h267q-109 -144 -197 -394t-88 -491z" />
    <glyph glyph-name="parenright" unicode=")" horiz-adv-x="638" 
d="M297 1622q48 -56 97.5 -145t94 -203t73 -255.5t28.5 -277.5q0 -143 -28 -284t-73.5 -253t-93.5 -197.5t-98 -147.5h-268q115 145 200.5 384t85.5 494q0 242 -87.5 493t-198.5 392h268z" />
    <glyph glyph-name="asterisk" unicode="*" horiz-adv-x="1058" 
d="M621 1640l-13 -311l269 125l65 -186l-289 -103l215 -237l-153 -125l-191 262l-186 -258l-156 123l211 235l-293 103l66 186l274 -125l-12 311h193z" />
    <glyph glyph-name="plus" unicode="+" horiz-adv-x="1058" 
d="M989 897v-233h-344v-332h-231v332h-348v233h348v328h233v-328h342z" />
    <glyph glyph-name="comma" unicode="," horiz-adv-x="579" 
d="M430 346v-352l-145 -215l-158 33l94 190l-16 -2h-62v346h287z" />
    <glyph glyph-name="hyphen" unicode="-" horiz-adv-x="831" 
d="M801 895v-254h-768v254h768z" />
    <glyph glyph-name="period" unicode="." horiz-adv-x="579" 
d="M438 346v-346h-297v346h297z" />
    <glyph glyph-name="slash" unicode="/" horiz-adv-x="550" 
d="M432 1632h152l-500 -1960h-150z" />
    <glyph glyph-name="zero" unicode="0" horiz-adv-x="1230" 
d="M88 1253q34 181 165.5 284t364.5 103q228 0 365.5 -106t163.5 -279q22 -145 22 -444q0 -295 -32 -440q-84 -389 -521 -389q-226 0 -350.5 92.5t-169.5 298.5q-33 140 -33 440q0 251 11 351q6 47 14 89zM874 416q21 108 21 399q0 288 -14 381q-14 98 -82 152.5t-183 54.5
q-116 0 -183 -55t-79 -152q-18 -130 -18 -385q0 -279 22 -395q38 -203 260 -203q218 0 256 203z" />
    <glyph glyph-name="one" unicode="1" horiz-adv-x="835" 
d="M666 1628v-1628h-263v1309l-340 -45v211q197 26 286 64t114 89h203z" />
    <glyph glyph-name="two" unicode="2" horiz-adv-x="1171" 
d="M1135 233v-233h-1084v229q128 91 200 144.5t174.5 135.5t159.5 145.5t115 143t84.5 160.5t28.5 168v74q0 96 -60.5 147.5t-181.5 51.5q-112 0 -172.5 -49.5t-68.5 -132.5q-2 -20 -2 -125h-267q0 123 5 172q8 77 42.5 142.5t96.5 119t162 84t227 30.5q133 0 231.5 -31
t155.5 -86.5t85.5 -122t33.5 -147.5q2 -19 2 -65t-2 -68q-5 -105 -45.5 -208.5t-104 -192t-154.5 -177.5t-184 -161.5t-206 -147.5h729z" />
    <glyph glyph-name="three" unicode="3" horiz-adv-x="1193" 
d="M1069 1083q-59 -188 -250 -215q115 -9 201.5 -78t109.5 -174q13 -63 15.5 -143.5t-10.5 -157.5q-32 -162 -170.5 -247.5t-374.5 -85.5q-223 0 -342.5 68.5t-165.5 207.5q-31 90 -31 246h268q0 -126 21 -180q48 -121 254 -121q213 0 254 153q12 49 12 117.5t-14 116.5
q-22 75 -82.5 106.5t-171.5 34.5h-260v215h252q99 3 143 29.5t72 87.5q17 37 19.5 112t-9.5 109q-20 61 -70.5 92t-148.5 31q-112 0 -165.5 -37.5t-66.5 -107.5q-8 -52 -8 -132h-254q0 140 17 207q34 141 156.5 222t334.5 81q204 0 323.5 -74t147.5 -210q13 -61 12 -141.5
t-18 -131.5z" />
    <glyph glyph-name="four" unicode="4" horiz-adv-x="1185" 
d="M1176 594v-238h-205v-356h-254v356h-688v256l667 1020h275v-1038h205zM276 594h441v655z" />
    <glyph glyph-name="five" unicode="5" horiz-adv-x="1193" 
d="M1135 756q10 -75 11 -199.5t-9 -208.5q-25 -173 -162 -269.5t-367 -96.5q-248 0 -382.5 91.5t-153.5 264.5q-6 49 -6 156h262q0 -61 8 -111q28 -166 254 -166q117 0 181 43.5t79 134.5q7 48 6.5 145.5t-6.5 149.5q-23 176 -246 176q-96 0 -160.5 -36.5t-85.5 -108.5h-258
v901h967v-242h-725l-2 -436q39 78 137.5 118t214.5 40q193 0 306.5 -90t136.5 -256z" />
    <glyph glyph-name="six" unicode="6" horiz-adv-x="1204" 
d="M1122 760q22 -84 24.5 -239.5t-24.5 -244.5q-107 -294 -495 -294q-200 0 -330.5 79t-185.5 256q-45 150 -45 496q0 284 26 434q31 180 160 286.5t352 106.5q111 0 197.5 -22t143 -61.5t90.5 -89.5t50 -113q19 -82 19 -158h-250q0 44 -8 68q-19 72 -75.5 106.5
t-168.5 34.5q-116 0 -181 -61.5t-77 -172.5q-12 -136 -12 -276q50 58 153.5 96.5t233.5 38.5q162 0 265.5 -69.5t137.5 -200.5zM623 205q99 0 161 38.5t80 106.5q17 71 17 172t-15 154q-42 135 -241 135q-116 0 -195 -45t-96 -92q5 -211 16 -268q19 -103 91 -152t182 -49z
" />
    <glyph glyph-name="seven" unicode="7" horiz-adv-x="1017" 
d="M1006 1622v-225l-560 -1397h-286l571 1380h-723v242h998z" />
    <glyph glyph-name="eight" unicode="8" horiz-adv-x="1189" 
d="M1116 664q24 -72 25.5 -184.5t-25.5 -200.5q-45 -144 -176 -220.5t-346 -76.5q-219 0 -350.5 79t-173.5 226q-26 92 -24.5 198t26.5 181q29 92 109.5 151.5t164.5 65.5q-72 6 -134.5 68.5t-78.5 129.5q-17 71 -19.5 152.5t17.5 157.5q35 112 150 181.5t313 69.5
q188 0 306 -68.5t155 -180.5q20 -63 19.5 -154.5t-19.5 -157.5q-22 -71 -77.5 -129t-137.5 -69q98 -7 171 -65t105 -154zM594 977q170 0 213 94q21 44 20 122.5t-24 125.5q-25 50 -83 75t-128 25q-161 0 -211 -100q-25 -49 -25 -122t23 -124q23 -50 74.5 -73t140.5 -23z
M592 197q101 0 172 32.5t98 96.5q27 68 27 161t-27 152q-57 131 -268 131q-212 0 -270 -131q-24 -56 -24 -157t24 -154q28 -63 98.5 -97t169.5 -34z" />
    <glyph glyph-name="nine" unicode="9" horiz-adv-x="1200" 
d="M1137 819q0 -324 -29 -450q-37 -178 -166 -282.5t-348 -104.5q-419 0 -483 297q-15 74 -15 145h250q0 -38 8 -74q30 -135 242 -135q115 0 183 58t77 161q12 144 12 287q-53 -58 -149 -94.5t-223 -36.5q-162 0 -267 71t-137 189q-24 91 -26.5 241t24.5 244q46 143 173 224
t327 81q193 0 318 -77.5t179 -249.5q50 -158 50 -494zM586 803q60 0 112.5 15t85.5 38t53 44t29 40q-4 160 -18 274q-14 98 -80 151.5t-176 53.5q-100 0 -166 -44.5t-84 -114.5q-12 -47 -12.5 -151t10.5 -151q39 -155 246 -155z" />
    <glyph glyph-name="colon" unicode=":" horiz-adv-x="571" 
d="M426 1104v-320h-270v320h270zM426 317v-317h-270v317h270z" />
    <glyph glyph-name="semicolon" unicode=";" horiz-adv-x="571" 
d="M426 1104v-320h-270v320h270zM426 322v-326l-166 -223l-119 80l88 153l-22 -6h-51v322h270z" />
    <glyph glyph-name="less" unicode="&#x3c;" horiz-adv-x="1095" 
d="M356 752l645 -220v-251l-925 354v233l925 355v-254z" />
    <glyph glyph-name="equal" unicode="=" horiz-adv-x="1040" 
d="M989 1075v-229h-934v229h934zM989 694v-227h-934v227h934z" />
    <glyph glyph-name="greater" unicode="&#x3e;" horiz-adv-x="1095" 
d="M1008 633l-924 -352v249l641 220l-641 219v252l924 -353v-235z" />
    <glyph glyph-name="question" unicode="?" horiz-adv-x="1093" 
d="M1057 1329q6 -65 -2 -168q-7 -66 -35.5 -122t-68 -96.5t-86.5 -79.5t-92 -80t-81.5 -87.5t-58.5 -113t-21 -146.5h-233q-2 99 17 182t52.5 139.5t74.5 103.5t83 83.5t78 69.5t60 70.5t28 78.5q6 76 0 111q-9 75 -63 111t-174 36q-101 0 -160 -37t-68 -100
q-10 -58 -10 -121h-254q0 121 18 191q70 288 502 288q243 0 360.5 -80t133.5 -233zM633 328v-328h-273v328h273z" />
    <glyph glyph-name="at" unicode="@" horiz-adv-x="1794" 
d="M981 1583q155 0 283.5 -40t218.5 -111.5t150.5 -168.5t86 -211.5t17.5 -240.5q-13 -249 -129.5 -392t-302.5 -143q-94 0 -149.5 53t-55.5 138q-41 -83 -130.5 -134.5t-207.5 -51.5q-154 0 -248 105t-80 296q8 104 43 194.5t94 159t144.5 107.5t187.5 39q88 0 151.5 -41.5
t86.5 -106.5l28 115h195q-10 -49 -104 -494q-24 -100 0 -159.5t98 -59.5q107 0 168.5 100.5t72.5 278.5q9 147 -25.5 267.5t-110.5 210t-201.5 139t-290.5 49.5q-340 0 -551.5 -206.5t-226.5 -547.5q-7 -163 24.5 -294.5t92 -220t148.5 -147.5t189 -85.5t217 -26.5
q334 0 539 178l59 -86q-109 -87 -251.5 -138.5t-350.5 -51.5q-140 0 -261.5 33t-222.5 102t-172 170.5t-107.5 245t-30.5 317.5q9 256 126 451.5t321.5 302t467.5 106.5zM1057 657q38 174 41 197q7 57 -40 113.5t-130 56.5q-109 0 -192 -88t-101 -236q-14 -125 29.5 -190.5
t142.5 -65.5q106 0 166.5 59t83.5 154z" />
    <glyph glyph-name="A" unicode="A" horiz-adv-x="1337" 
d="M944 393h-551l-119 -393h-274l512 1622h344l479 -1622h-278zM467 627h407q-161 586 -165 598l-31 145q-27 -129 -31 -145z" />
    <glyph glyph-name="B" unicode="B" horiz-adv-x="1390" 
d="M1323 436q0 -90 -25 -171.5t-69 -133.5q-114 -131 -342 -131h-752v1622h696q227 0 338 -121q39 -42 62.5 -116.5t23.5 -167.5q0 -200 -79 -291q-64 -71 -142 -86q58 -7 113.5 -39t93.5 -78q39 -46 60.5 -123t21.5 -164zM926 979q51 57 51 186q0 107 -51 168
q-47 58 -156 58h-371v-465h394q88 0 133 53zM811 233q119 0 174 52q53 50 53 176q0 121 -55 184q-52 55 -164 55h-420v-467h412z" />
    <glyph glyph-name="C" unicode="C" horiz-adv-x="1372" 
d="M1047 580h272q-4 -181 -92 -340q-143 -260 -514 -260q-340 0 -492 198q-153 200 -153 639q0 402 137 600q153 223 508 223q417 0 542 -303q59 -144 62 -305h-273q-6 142 -57 230q-73 131 -280 131q-187 0 -271 -119q-88 -129 -88 -459q0 -329 90 -471q79 -127 277 -127
q183 0 262 121q63 96 70 242z" />
    <glyph glyph-name="D" unicode="D" horiz-adv-x="1363" 
d="M1290 838q0 -257 -22 -416.5t-76 -237.5q-66 -93 -163 -138.5t-255 -45.5h-639v1622h617q161 0 264.5 -42t167.5 -128q59 -81 82.5 -231t23.5 -383zM727 238q91 0 147.5 23t94.5 75q59 83 59 502q0 144 -16 271t-49 171q-41 55 -94.5 77.5t-143.5 22.5h-322v-1142h324z
" />
    <glyph glyph-name="E" unicode="E" horiz-adv-x="1214" 
d="M1141 246v-246h-1006v1622h998v-246h-732v-438h699v-248h-699v-444h740z" />
    <glyph glyph-name="F" unicode="F" horiz-adv-x="1171" 
d="M1124 1622v-246h-718v-436h677v-250h-677v-690h-271v1622h989z" />
    <glyph glyph-name="G" unicode="G" horiz-adv-x="1353" 
d="M1278 418v-117t0.5 -113t1 -93.5t0.5 -68v-26.5h-213l-12 139q-47 -69 -144.5 -114t-251.5 -45q-325 0 -469 225q-122 192 -122 604q0 202 26 344.5t90 243.5q158 245 508 245q379 0 508 -253q34 -67 52 -158t18 -154h-262q0 44 -18.5 107t-49.5 110q-70 105 -242 105
q-188 0 -266 -117q-86 -133 -86 -477q0 -188 18 -298t66 -179q80 -117 287 -117q126 0 207 59t102 154q2 9 2.5 72.5t-0.5 122.5v59h-395v231h645v-491z" />
    <glyph glyph-name="H" unicode="H" horiz-adv-x="1400" 
d="M1264 1622v-1622h-269v686h-589v-686h-271v1622h271v-682h589v682h269z" />
    <glyph glyph-name="I" unicode="I" horiz-adv-x="546" 
d="M412 1622v-1622h-277v1622h277z" />
    <glyph glyph-name="J" unicode="J" horiz-adv-x="886" 
d="M768 1622v-1214q0 -208 -117.5 -313t-331.5 -105q-189 0 -294 22v234q108 -17 235 -17q122 0 180 64.5t58 171.5v1157h270z" />
    <glyph glyph-name="K" unicode="K" horiz-adv-x="1304" 
d="M711 922l596 -922h-320l-463 719l-118 -139v-580h-271v1622h271v-690l585 690h303z" />
    <glyph glyph-name="L" unicode="L" horiz-adv-x="1120" 
d="M1094 246v-246h-959v1622h273v-1376h686z" />
    <glyph glyph-name="M" unicode="M" horiz-adv-x="1712" 
d="M1579 1622v-1622h-254v1116l-340 -1116h-264l-334 1112v-1112h-252v1622h371l358 -1206l365 1206h350z" />
    <glyph glyph-name="N" unicode="N" horiz-adv-x="1378" 
d="M1249 1622v-1622h-288l-570 1135v-1135h-256v1622h305l553 -1106v1106h256z" />
    <glyph glyph-name="O" unicode="O" horiz-adv-x="1406" 
d="M176 1382q155 258 526 258q391 0 531 -249q106 -186 106 -572q0 -399 -122 -602q-139 -237 -515 -237q-369 0 -514 231q-120 191 -120 606q0 388 108 565zM444 330q84 -113 263 -113q172 0 268 119q46 56 70 191t24 286q0 335 -86 463q-44 64 -108.5 95.5t-169.5 31.5
q-108 0 -171.5 -32.5t-105.5 -98.5q-84 -127 -84 -463q0 -342 100 -479z" />
    <glyph glyph-name="P" unicode="P" horiz-adv-x="1318" 
d="M1171 1485q86 -122 86 -379q0 -268 -79 -373q-101 -139 -357 -145h-413v-588h-273v1622h688q248 0 348 -137zM961 920q22 45 22 182q0 144 -25 192q-44 84 -190 84h-362v-547h356q152 0 199 89z" />
    <glyph glyph-name="Q" unicode="Q" horiz-adv-x="1406" 
d="M1221 238q-48 -72 -118 -126.5t-128 -68.5q12 -10 92 -63q82 -50 115 -58l-152 -196q-64 18 -207 116q-53 35 -102.5 77.5t-71.5 68.5q-63 0 -131 12q-103 18 -191.5 76t-144.5 155q-114 204 -114 586q0 179 28 331t82 230q143 264 524 264q198 0 325.5 -63t201.5 -188
q54 -91 82 -241.5t28 -330.5t-32.5 -340.5t-85.5 -240.5zM440 326q83 -115 267 -115t270 115q46 58 69 196.5t23 288.5q0 141 -20.5 273t-65.5 194q-44 61 -108.5 94t-169.5 33q-97 0 -158.5 -30.5t-108.5 -88.5q-48 -58 -71 -193.5t-23 -283.5q0 -152 23 -283.5t73 -199.5z
" />
    <glyph glyph-name="R" unicode="R" horiz-adv-x="1363" 
d="M1186 1442q30 -57 41.5 -122.5t11.5 -166.5q0 -182 -47 -274q-31 -58 -77.5 -95.5t-100.5 -48.5l319 -735h-297l-282 676h-353v-676h-266v1622h707q255 0 344 -180zM948 979q23 57 23 149q0 118 -15 158q-35 94 -172 94h-381v-473h402q112 3 143 72z" />
    <glyph glyph-name="S" unicode="S" horiz-adv-x="1310" 
d="M848 903q198 -69 295.5 -179.5t97.5 -293.5q0 -208 -144 -329t-421 -121q-506 0 -588 317q-18 71 -18 178h272q0 -65 18 -123q46 -141 310 -141q295 0 295 197q0 103 -60 162t-223 116q-16 6 -91.5 33.5t-113.5 40.5q-401 131 -401 463q0 194 142 305.5t421 111.5
q462 0 555 -327q25 -87 25 -160h-275q0 47 -18 102q-27 77 -95.5 113.5t-197.5 36.5q-150 0 -215.5 -44t-65.5 -130q0 -91 69.5 -147.5t227.5 -108.5q34 -11 115 -41t84 -31z" />
    <glyph glyph-name="T" unicode="T" horiz-adv-x="1165" 
d="M1157 1622v-244h-438v-1378h-275v1378h-436v244h1149z" />
    <glyph glyph-name="U" unicode="U" horiz-adv-x="1376" 
d="M1257 1622v-1198q0 -213 -155 -328.5t-414 -115.5q-127 0 -229.5 27t-180 81t-119.5 142.5t-42 205.5v1186h268v-1159q0 -118 79.5 -182t227.5 -64q133 0 214 64.5t81 179.5v1161h270z" />
    <glyph glyph-name="V" unicode="V" horiz-adv-x="1339" 
d="M1061 1622h276l-508 -1622h-323l-506 1622h285l389 -1294z" />
    <glyph glyph-name="W" unicode="W" horiz-adv-x="1906" 
d="M1642 1622h265l-385 -1622h-308q-254 1200 -256 1253q0 -24 -66 -337t-132 -614l-66 -302h-305l-389 1622h285q276 -1202 276 -1251q0 22 63 334.5t126 614.5l63 302h299q254 -1202 254 -1251q0 22 69 334.5t138 614.5z" />
    <glyph glyph-name="X" unicode="X" horiz-adv-x="1275" 
d="M977 0l-340 588l-344 -588h-289l496 825l-463 797h297l317 -547l324 547h285l-474 -788l486 -834h-295z" />
    <glyph glyph-name="Y" unicode="Y" horiz-adv-x="1343" 
d="M1067 1622h276l-544 -1061v-561h-273v559l-522 1063h285l377 -793z" />
    <glyph glyph-name="Z" unicode="Z" horiz-adv-x="1189" 
d="M1155 244v-244h-1110v215l770 1161h-729v246h1049v-209l-777 -1169h797z" />
    <glyph glyph-name="bracketleft" unicode="[" horiz-adv-x="714" 
d="M651 -158v-192h-528v1972h528v-195h-289v-1585h289z" />
    <glyph glyph-name="backslash" unicode="\" horiz-adv-x="550" 
d="M467 -328l-500 1960h150l499 -1960h-149z" />
    <glyph glyph-name="bracketright" unicode="]" horiz-adv-x="724" 
d="M600 -350h-526v192h288v1588h-288v192h526v-1972z" />
    <glyph glyph-name="asciicircum" unicode="^" horiz-adv-x="1136" 
d="M940 1077l-367 363l-366 -363l-158 150l408 407h237l406 -407z" />
    <glyph glyph-name="underscore" unicode="_" horiz-adv-x="845" 
d="M844 -135v-219h-844v219h844z" />
    <glyph glyph-name="grave" unicode="`" 
d="M428 1507l176 -295h-235l-209 295h268z" />
    <glyph glyph-name="a" unicode="a" horiz-adv-x="1138" 
d="M1036 217q0 -66 6 -132.5t15 -84.5h-230q-5 0 -10.5 13t-9 40t-2.5 60q-113 -123 -365 -123q-162 0 -263.5 70.5t-113.5 199.5q-3 43 0 96q9 159 153.5 249.5t430.5 90.5q60 0 150 -8q0 104 -2 123q-15 127 -207 127q-59 0 -102 -10.5t-69 -27.5t-41 -43.5t-20.5 -54
t-5.5 -63.5h-237q0 205 121.5 308.5t355.5 103.5q411 0 440 -287q13 -117 8 -332q0 -41 -1 -158t-1 -157zM510 180q86 0 145 22.5t90.5 68t44.5 102.5t13 137q-106 8 -152 8q-167 0 -252.5 -42.5t-85.5 -135.5q0 -83 47 -121.5t150 -38.5z" />
    <glyph glyph-name="b" unicode="b" horiz-adv-x="1204" 
d="M356 979q28 70 121.5 120t222.5 50q233 0 344 -164q105 -150 105 -403q0 -268 -107 -424q-55 -79 -145.5 -122.5t-198.5 -43.5q-118 0 -208.5 34t-135.5 105l-22 -131h-226v1632h250v-653zM852 803q-64 112 -225 112q-196 0 -250 -141q-31 -91 -31 -213q0 -156 35 -227
q60 -123 242 -123q169 0 231 108q45 76 45 248q0 153 -47 236z" />
    <glyph glyph-name="c" unicode="c" horiz-adv-x="1128" 
d="M1036 909q20 -42 30.5 -104.5t10.5 -110.5h-243q0 75 -35 131q-63 99 -219 99q-148 0 -211 -90q-60 -87 -60 -269q0 -198 62 -278q66 -88 217 -88q156 0 213 86q39 61 39 135h235q0 -69 -24 -144.5t-66 -132.5q-120 -159 -403 -159q-265 0 -394 141q-131 146 -131 442
q0 265 115 416q131 168 401 168q356 0 463 -242z" />
    <glyph glyph-name="d" unicode="d" horiz-adv-x="1189" 
d="M166 975q56 75 147 119.5t191 44.5q114 0 203 -35t135 -103v625h250v-1489l8 -137h-228l-28 141q-36 -71 -127.5 -115t-214.5 -44q-228 0 -338 157q-105 145 -105 410q0 278 107 426zM793 821q-28 41 -82.5 63.5t-124.5 22.5q-157 0 -217 -90q-58 -85 -58 -260
q0 -179 43 -250q63 -104 226 -104q147 0 213 100q55 82 55 252q0 100 -12 159.5t-43 106.5z" />
    <glyph glyph-name="e" unicode="e" horiz-adv-x="1126" 
d="M840 360h241q-10 -68 -45.5 -138t-93.5 -124q-128 -116 -360 -116q-314 0 -441 208q-84 133 -84 375q0 231 84 367q138 219 439 219q305 0 430 -207q96 -156 77 -475h-784q3 -100 59 -186q29 -41 87.5 -64.5t132.5 -23.5q130 0 192 53q62 51 66 112zM299 664h543
q0 44 -12.5 98.5t-36.5 83.5q-71 88 -215 88q-145 0 -218 -82q-58 -64 -61 -188z" />
    <glyph glyph-name="f" unicode="f" horiz-adv-x="724" 
d="M715 1122v-217h-273v-905h-252v905h-165v221h165v220q0 137 75 218t237 81q136 0 221 -11v-215q-116 8 -135 8q-148 0 -148 -120v-185h275z" />
    <glyph glyph-name="g" unicode="g" horiz-adv-x="1114" 
d="M82 834q3 62 33 118.5t84 102.5t141.5 73t196.5 27q222 0 335 -92q34 41 114 60t149 12v-183h-16.5h-26t-30 -0.5t-33 -2t-29 -3.5t-23.5 -6t-12 -10q13 -14 26.5 -55t14.5 -84q4 -51 -5 -127q-14 -130 -129 -211.5t-307 -81.5q-159 0 -243 45q-18 -5 -33 -21.5
t-15 -40.5q0 -40 55 -49t271 -12q195 -2 308 -34t160.5 -94t47.5 -165q0 -165 -135 -247.5t-426 -82.5q-279 0 -405.5 64t-126.5 196q0 156 165 205q-58 10 -92.5 60t-34.5 110q0 57 36 107.5t93 70.5q-44 22 -74.5 79t-35.5 126q-3 54 2 146zM762 807q-6 61 -60.5 98
t-158.5 37q-98 0 -158 -42t-63 -101q-4 -51 0 -103q5 -60 60.5 -98.5t158.5 -38.5q108 0 163 39t60 96q3 39 -2 113zM240 -16q0 -61 70.5 -94t236.5 -33q170 0 247.5 32t77.5 95q0 59 -56 78.5t-234 27.5q-35 2 -88.5 2.5t-91 1t-48.5 2.5q-114 -28 -114 -112z" />
    <glyph glyph-name="h" unicode="h" horiz-adv-x="1142" 
d="M1044 795q0 -793 11 -795h-256q-5 0 -5.5 46.5t-0.5 335.5v347q0 182 -203 182q-100 0 -166 -56.5t-66 -149.5v-705h-252v1632h248v-653q34 79 124.5 124.5t221.5 45.5q168 0 256 -89t88 -265z" />
    <glyph glyph-name="i" unicode="i" horiz-adv-x="479" 
d="M373 1497v-258h-267v258h267zM367 109q0 -99 10 -109h-252q-12 5 -12 102v1024h254v-1017z" />
    <glyph glyph-name="j" unicode="j" horiz-adv-x="489" 
d="M385 1497v-258h-264v258h264zM381 1126v-1216q0 -144 -80 -221.5t-219 -77.5q-41 0 -99 4.5t-75 9.5v207q46 -4 78 -4q77 0 109 32t32 111v1155h254z" />
    <glyph glyph-name="k" unicode="k" horiz-adv-x="1079" 
d="M707 731l380 -731h-278l-279 541l-172 -183v-358h-252v1632h252v-966l412 460h287z" />
    <glyph glyph-name="l" unicode="l" horiz-adv-x="466" 
d="M362 100q0 -88 7 -100h-252q-8 5 -8 80v1438q0 69 -5 114h250q8 -24 8 -94v-1438z" />
    <glyph glyph-name="m" unicode="m" horiz-adv-x="1705" 
d="M1606 0h-232q-8 0 -8 737q0 80 -40.5 128t-143.5 48q-87 0 -143 -50.5t-56 -135.5v-727h-240v750q0 76 -47.5 119.5t-132.5 43.5q-92 0 -148.5 -57.5t-56.5 -136.5v-719h-252v1126h246v-157q29 82 117.5 130t202.5 48q107 0 181 -46.5t103 -133.5q29 88 112.5 134
t203.5 46q325 0 325 -320q0 -815 9 -827z" />
    <glyph glyph-name="n" unicode="n" horiz-adv-x="1142" 
d="M1044 793q0 -793 7 -793h-246q-9 0 -10.5 95.5t-1.5 625.5q0 190 -197 190q-101 0 -169.5 -55t-68.5 -158v-698h-252v1126h244v-151q36 86 130 130t212 44q182 0 267 -90t85 -266z" />
    <glyph glyph-name="o" unicode="o" horiz-adv-x="1173" 
d="M1008 971q108 -144 108 -404q0 -250 -108 -399q-129 -184 -420 -184q-287 0 -422 180q-51 68 -80 173.5t-29 229.5q0 253 111 400q138 184 422 184q289 0 418 -180zM815 307q57 93 57 258q0 190 -55 266q-66 93 -227 93q-162 0 -228 -105q-55 -83 -55 -254
q0 -175 53 -258q62 -100 230 -100q161 0 225 100z" />
    <glyph glyph-name="p" unicode="p" horiz-adv-x="1196" 
d="M1038 995q105 -143 105 -413q0 -289 -105 -432q-54 -73 -146 -115.5t-196 -42.5q-119 0 -207.5 33.5t-130.5 99.5v-473h-252v1474h244l6 -143q33 73 126.5 119.5t213.5 46.5q231 0 342 -154zM838 309q51 80 51 258q0 185 -68 271q-63 82 -205 82q-128 0 -192 -80
q-72 -84 -72 -273q0 -196 62 -272q64 -84 204 -84q162 0 220 98z" />
    <glyph glyph-name="q" unicode="q" horiz-adv-x="1189" 
d="M1085 -195q0 -131 9 -153h-240l-10 12v477q-31 -68 -120.5 -113.5t-215.5 -45.5q-230 0 -346 163q-103 145 -103 406q0 151 26.5 245.5t82.5 174.5q53 78 145 124t207 46q247 0 332 -152v137h233v-1321zM795 299q53 78 53 262q0 186 -55 262q-60 88 -207 88
q-157 0 -215 -98q-60 -100 -60 -254q0 -174 51 -258q59 -100 220 -100q74 0 129 26.5t84 71.5z" />
    <glyph glyph-name="r" unicode="r" horiz-adv-x="841" 
d="M664 1151q93 0 163 -18v-256q-93 26 -211 26q-114 0 -185 -76.5t-71 -214.5v-612h-254v1126h248v-172q20 83 111 140t199 57z" />
    <glyph glyph-name="s" unicode="s" horiz-adv-x="1081" 
d="M705 649q167 -43 243 -118.5t76 -213.5q0 -335 -463 -335q-230 0 -347 56t-142 181q-11 62 -11 127h246q0 -47 6 -80q10 -44 70.5 -63t177.5 -19q118 0 168.5 30.5t50.5 94.5q0 56 -44.5 83t-164.5 59q-131 37 -198 53q-152 40 -224.5 117.5t-72.5 220.5q0 140 114 224.5
t330 84.5q390 0 453 -221q14 -45 14 -148h-239q0 59 -11 84q-16 35 -63.5 53.5t-147.5 18.5q-110 0 -157 -26t-47 -81q0 -49 36.5 -76t139.5 -53q28 -7 103.5 -26.5t103.5 -26.5z" />
    <glyph glyph-name="t" unicode="t" horiz-adv-x="716" 
d="M684 1126v-221h-272v-567q0 -75 31.5 -102t105.5 -27q63 0 125 12v-213q-75 -20 -221 -20q-62 0 -112.5 14t-93 45t-66 86t-23.5 131v641h-154v221h150q3 8 5.5 64.5t3.5 109.5l1 52l244 4v-230h276z" />
    <glyph glyph-name="u" unicode="u" horiz-adv-x="1140" 
d="M1042 0h-241l-6 135q-47 -78 -138.5 -114.5t-203.5 -36.5q-162 0 -257.5 78t-95.5 235q0 821 -8 829h254q6 0 6 -757q0 -93 53 -136t146 -43q110 0 173.5 53.5t63.5 145.5v737h248v-958q0 -132 6 -168z" />
    <glyph glyph-name="v" unicode="v" horiz-adv-x="1124" 
d="M858 1126h254l-395 -1126h-307l-398 1126h267l286 -880z" />
    <glyph glyph-name="w" unicode="w" horiz-adv-x="1724" 
d="M1477 1126h243l-344 -1126h-291q-192 711 -206 774l-15 160q-8 -135 -12 -158q-4 -29 -55.5 -223t-100.5 -373l-49 -180h-293l-342 1126h258l244 -872l221 872h277l227 -872z" />
    <glyph glyph-name="x" unicode="x" horiz-adv-x="1069" 
d="M313 1126l234 -356l235 356h273l-371 -546l381 -580h-285l-252 389l-249 -389h-273l387 575l-364 551h284z" />
    <glyph glyph-name="y" unicode="y" horiz-adv-x="1124" 
d="M856 1126h258l-553 -1474h-264l135 360l-420 1114h267q276 -762 290 -819q6 26 78 231t141 396z" />
    <glyph glyph-name="z" unicode="z" horiz-adv-x="985" 
d="M948 219v-219h-899v188l569 717h-552v221h860v-206l-557 -701h579z" />
    <glyph glyph-name="braceleft" unicode="{" horiz-adv-x="829" 
d="M764 -135v-203h-195q-153 0 -227 78t-74 197q0 72 18.5 232.5t18.5 229.5q0 108 -53 168t-176 60v198q125 1 177 56.5t52 156.5q0 55 -18.5 153.5t-18.5 168.5q0 111 77.5 186.5t217.5 75.5h201v-199q-149 10 -210 -31.5t-56 -138.5q1 -28 15.5 -126t14.5 -144
q0 -65 -18.5 -116.5t-65 -88.5t-116.5 -45q55 -4 95 -28t62.5 -62.5t32.5 -82t10 -93.5q0 -67 -14 -218.5t-16 -215.5q-3 -96 56.5 -137t209.5 -31z" />
    <glyph glyph-name="bar" unicode="|" horiz-adv-x="591" 
d="M397 1638v-2048h-198v2048h198z" />
    <glyph glyph-name="braceright" unicode="}" horiz-adv-x="829" 
d="M260 -338h-194v203q150 -10 209.5 31t56.5 137q-2 65 -17.5 216t-15.5 218q0 50 10.5 93.5t33 82t63 62.5t96.5 28q-104 11 -153.5 80.5t-49.5 169.5q0 46 15 144t16 126q5 97 -54.5 138.5t-209.5 31.5v199h198q141 0 219 -75.5t78 -186.5q0 -70 -18.5 -168.5
t-18.5 -153.5q0 -101 52.5 -156.5t177.5 -56.5v-198q-123 0 -175.5 -60t-52.5 -168q0 -69 16.5 -229.5t16.5 -232.5q0 -57 -16.5 -104.5t-50.5 -87t-93.5 -61.5t-138.5 -22z" />
    <glyph glyph-name="asciitilde" unicode="~" horiz-adv-x="1134" 
d="M813 516q-82 0 -141 28.5t-121 96.5q-15 17 -40.5 49t-41 49t-38 37.5t-46 29.5t-49.5 9q-35 0 -61 -21t-40 -56t-20.5 -72t-7.5 -78l-193 18q6 213 88 320.5t226 107.5q83 0 146.5 -35t125.5 -110q7 -9 29 -37.5t31.5 -40t30 -32t35 -29.5t35.5 -17t42 -8q60 0 97 55.5
t40 153.5l176 -23q-7 -192 -85 -293.5t-218 -101.5z" />
    <glyph glyph-name="exclamdown" unicode="&#xa1;" horiz-adv-x="544" 
d="M137 1300v326h271v-326h-271zM422 -10h-299l33 1198h235z" />
    <glyph glyph-name="cent" unicode="&#xa2;" horiz-adv-x="1128" 
d="M668 1190v-772q113 22 159 110q24 47 29 134h240q-11 -155 -56 -232q-106 -182 -372 -203v-172h-160v174q-271 27 -373 211q-72 134 -72 367q0 219 80 367q101 181 365 204v127h160v-125q287 -19 387 -227q33 -68 41 -221h-240q-6 93 -16 123q-36 108 -172 135zM508 422
v762q-97 -26 -133 -103q-49 -137 -49 -276q0 -161 36 -254q39 -97 146 -129z" />
    <glyph glyph-name="sterling" unicode="&#xa3;" horiz-adv-x="1222" 
d="M100 819h129q-99 194 -108 352q-4 72 0 144q6 64 35 119.5t85 103t151 75t220 27.5q107 0 192 -21t141 -55.5t94 -83t55.5 -99.5t21.5 -109q2 -23 2 -230h-268q0 8 0.5 59t0.5 92t-1 52q-5 77 -62.5 121.5t-162.5 44.5q-104 0 -159 -46.5t-58 -113.5q0 -4 -0.5 -27
t-0.5 -45.5t1 -37.5q2 -63 18 -127t27.5 -92.5t44.5 -102.5h495v-211h-438q20 -73 18 -123q-4 -107 -47.5 -173t-128.5 -97h738v-215h-1047v221q106 40 160 103.5t63 160.5q5 45 -16 123h-195v211z" />
    <glyph glyph-name="yen" unicode="&#xa5;" horiz-adv-x="1382" 
d="M549 311v60h-463v153h463v66l-545 1032h291q387 -723 389 -780q0 26 101.5 221t202.5 377l102 182h288l-565 -1026v-72h467v-153h-467v-60h467v-155h-465v-156h-268v156h-461v155h463z" />
    <glyph glyph-name="brokenbar" unicode="&#xa6;" horiz-adv-x="591" 
d="M395 1638v-909h-198v909h198zM395 469v-879h-198v879h198z" />
    <glyph glyph-name="section" unicode="&#xa7;" horiz-adv-x="991" 
d="M70 817q-13 99 8 164q32 94 129 135q-87 59 -96 195v86q9 115 106 175t270 60q175 0 268 -55.5t107 -194.5q4 -40 4 -106h-190q0 68 -2 78q-6 63 -49 85.5t-127 22.5q-86 0 -130 -19.5t-51 -68.5v-49q4 -56 39.5 -79t143.5 -58q112 -36 213 -74q85 -31 125 -79t57 -117
q9 -36 2.5 -93.5t-25.5 -93.5q-39 -80 -131 -110q189 -70 207 -256q2 -12 2 -51t-2 -52q-17 -285 -430 -285q-209 0 -321 64.5t-136 218.5q-1 10 -2 52.5t-2 54.5h244q0 -70 2 -80q7 -73 56 -101t165 -28q106 0 149 30.5t48 90.5v61q-6 64 -49.5 102.5t-141.5 71.5
q-46 15 -292 109q-71 28 -115 79t-53 115zM270 946q-6 -41 4.5 -77t38.5 -54q103 -61 318 -125q29 3 51.5 28t28.5 60q8 39 -4.5 77.5t-38.5 53.5q-105 62 -318 129q-29 -5 -51 -29.5t-29 -62.5z" />
    <glyph glyph-name="dieresis" unicode="&#xa8;" 
d="M719 1468v-256h-221v256h221zM348 1468v-256h-221v256h221z" />
    <glyph glyph-name="copyright" unicode="&#xa9;" horiz-adv-x="1341" 
d="M1282 1147q7 -101 0 -229q-11 -232 -171 -368t-435 -136q-280 0 -442.5 138t-170.5 366q-6 123 0 231q15 229 178.5 360t432.5 131q264 0 426.5 -129.5t181.5 -363.5zM674 500q244 0 378 114t142 328q4 108 0 195q-10 200 -148 306.5t-372 106.5q-114 0 -206.5 -24.5
t-162 -74t-110 -127.5t-45.5 -181q-1 -26 -1 -67.5t0.5 -84.5t0.5 -49q6 -213 145.5 -327.5t378.5 -114.5zM848 940h192q-7 -89 -12 -109q-21 -88 -113.5 -141t-240.5 -53q-150 0 -240 53.5t-115 151.5q-18 71 -18 174q0 116 18 178q27 96 122 151.5t241 55.5
q154 0 241.5 -58.5t106.5 -150.5q10 -45 10 -96h-194q-6 52 -6 53q-26 80 -158 80q-146 0 -172 -115q-8 -46 -8 -98q0 -38 6 -92q9 -63 51 -91t123 -28q73 0 110.5 17.5t47.5 60.5q4 14 8 57z" />
    <glyph glyph-name="ordfeminine" unicode="&#xaa;" horiz-adv-x="1009" 
d="M922 762q0 -180 20 -219h-235q-2 11 -4.5 29t-6 53t-2.5 47q-90 -137 -327 -137q-146 0 -235 60.5t-95 176.5q-2 16 -1.5 54.5t3.5 64.5q11 119 112 196t298 95q127 10 239 10q0 100 -2 133q-3 64 -47.5 92.5t-138.5 28.5q-111 0 -156 -66q-33 -47 -33 -116h-229
q0 121 41 202q42 86 139.5 136.5t245.5 50.5q207 0 304 -69.5t108 -199.5q9 -105 4 -325q0 -37 -1 -146t-1 -151zM688 928v98q-86 9 -158 6q-151 -6 -208 -53q-40 -30 -43 -98q-4 -75 20 -111q35 -54 154 -57q123 -3 186 67q46 52 49 148zM965 475v-184h-916v184h916z" />
    <glyph glyph-name="guillemotleft" unicode="&#xab;" horiz-adv-x="1128" 
d="M1063 457v-269l-504 414v170l504 418v-268l-293 -234zM582 457v-269l-506 414v170l506 418v-268l-293 -234z" />
    <glyph glyph-name="registered" unicode="&#xae;" horiz-adv-x="1341" 
d="M1282 1147q7 -101 0 -229q-11 -232 -171 -368t-435 -136q-280 0 -442.5 138t-170.5 366q-6 123 0 231q15 229 178.5 360t432.5 131q264 0 426.5 -129.5t181.5 -363.5zM674 500q244 0 378 114.5t142 327.5q4 108 0 195q-10 200 -148 306.5t-372 106.5q-114 0 -206.5 -24.5
t-162 -74t-110 -127.5t-45.5 -181q-1 -26 -1 -67.5t0.5 -84.5t0.5 -49q6 -213 145.5 -327.5t378.5 -114.5zM858 952l154 -290h-201l-133 264h-123v-264h-193v708h377q135 0 209 -61q30 -23 47 -66t17 -82q0 -41 -12.5 -83.5t-34.5 -67.5q-39 -48 -107 -58zM729 1059
q44 0 67 24t23 54q0 35 -26.5 57.5t-71.5 22.5h-166v-158h174z" />
    <glyph glyph-name="macron" unicode="&#xaf;" 
d="M721 1405v-156h-596v156h596z" />
    <glyph glyph-name="degree" unicode="&#xb0;" horiz-adv-x="622" 
d="M49 1292q0 110 77.5 189.5t184.5 79.5q110 0 187 -79t77 -190q0 -109 -77 -186.5t-187 -77.5q-107 0 -184.5 77.5t-77.5 186.5zM426 1292q0 48 -33 82.5t-82 34.5q-47 0 -81.5 -35t-34.5 -82t34.5 -80.5t81.5 -33.5q49 0 82 33t33 81z" />
    <glyph glyph-name="twosuperior" unicode="&#xb2;" horiz-adv-x="854" 
d="M772 944v-149h-678v133q56 43 133.5 93.5t131 84t104 73.5t76.5 83t26 92v41q0 49 -32.5 73.5t-110.5 24.5q-57 0 -85 -18t-46 -62q-8 -25 -8 -76h-183q0 71 11 111q28 88 105.5 135t223.5 47q312 0 320 -217v-67q-1 -31 -11 -61t-24.5 -54.5t-41 -52t-50 -47.5
t-61.5 -47.5t-65.5 -45t-72.5 -47t-72 -47.5h410z" />
    <glyph glyph-name="threesuperior" unicode="&#xb3;" horiz-adv-x="876" 
d="M768 1395q-3 -75 -44 -117.5t-142 -56.5q113 -4 164.5 -47t54.5 -107q3 -27 0 -68q-13 -215 -361 -215q-166 0 -253.5 48.5t-96.5 130.5q-6 59 -6 92h186v-82q1 -37 42.5 -51.5t125.5 -14.5q87 0 126.5 22.5t41.5 69.5q0 5 1 27.5t-1 26.5q-2 46 -37.5 66t-130.5 20
l-166 2v131h168q77 6 110 28.5t34 69.5v51q-5 41 -38 61.5t-106 20.5q-137 0 -147 -76q0 -15 -1 -38.5t-1 -24.5h-178q0 37 10 92q14 83 96 129.5t232 46.5q295 0 317 -178v-59z" />
    <glyph glyph-name="acute" unicode="&#xb4;" 
d="M489 1212h-233l174 295h268z" />
    <glyph glyph-name="paragraph" unicode="&#xb6;" horiz-adv-x="1024" 
d="M702 1630h242v-1853h-96v1665h-72v-1665h-98v749q-32 -43 -101.5 -69.5t-146.5 -26.5q-271 0 -342 219q-41 127 -41 385q0 257 53 393q38 96 123 152.5t205 56.5q78 0 150 -24.5t102 -63.5zM676 756q2 25 2 293v270q-3 44 -50 70t-102 26q-62 0 -103 -21.5t-63 -76.5
q-43 -103 -43 -285q0 -71 10 -157.5t29 -137.5q17 -44 59.5 -70t96.5 -26q62 0 111.5 34.5t52.5 80.5z" />
    <glyph glyph-name="periodcentered" unicode="&#xb7;" horiz-adv-x="577" 
d="M446 981v-348h-313v348h313z" />
    <glyph glyph-name="cedilla" unicode="&#xb8;" 
d="M256 -238q98 -41 165.5 -29t67.5 68q0 30 -26 48.5t-61 35t-48 37.5q-18 27 -18 78h149q0 -34 19 -51q8 -7 30.5 -16.5t46 -20.5t46.5 -28t38 -46.5t15 -68.5q0 -66 -54.5 -111.5t-148.5 -53.5t-221 36v122z" />
    <glyph glyph-name="onesuperior" unicode="&#xb9;" horiz-adv-x="710" 
d="M502 1626v-831h-180v618l-265 -47v143q61 0 174.5 42.5t133.5 74.5h137z" />
    <glyph glyph-name="ordmasculine" unicode="&#xba;" horiz-adv-x="1056" 
d="M918 1460q86 -140 86 -368q0 -219 -93 -373q-53 -89 -151.5 -140t-235.5 -51q-265 0 -385 191q-92 147 -92 373q0 223 96 374q118 183 383 183q275 0 392 -189zM698 801q64 97 64 291q0 204 -53 278q-52 76 -185 76q-124 0 -178 -78q-59 -80 -59 -276q0 -201 65 -293
q49 -72 174 -72q122 0 172 74zM1001 475v-184h-952v184h952z" />
    <glyph glyph-name="guillemotright" unicode="&#xbb;" horiz-adv-x="1128" 
d="M1055 635l-506 -412v266l289 236l-289 231v265l506 -414v-172zM573 635l-505 -412v266l286 236l-286 231v265l505 -414v-172z" />
    <glyph glyph-name="onequarter" unicode="&#xbc;" horiz-adv-x="1443" 
d="M467 1626v-831h-182v618l-262 -47v143q61 0 173 42.5t134 74.5h137zM938 1622h145q-217 -500 -356 -825l-338 -797h-143q223 521 368 858zM1401 336v-146h-133v-190h-174v193h-445v151l436 483h183v-491h133zM827 336h267v293z" />
    <glyph glyph-name="onehalf" unicode="&#xbd;" horiz-adv-x="1425" 
d="M461 1626v-831h-182v618l-265 -47v143q62 0 175 42.5t133 74.5h139zM897 1622h145q-219 -500 -358 -825l-338 -797h-143q225 521 370 858zM1380 150v-150h-678v133q56 43 134 93t131 84t104 74t77 83t26 92v41q0 48 -33 73t-111 25q-56 0 -84.5 -18t-46.5 -62
q-8 -25 -8 -75h-182q0 74 10 110q54 183 330 183q310 0 321 -218q0 -6 -1 -32t-1 -35q-1 -35 -12 -68t-35.5 -64t-48 -55t-66 -55.5t-71 -50.5t-82.5 -54t-82 -54h409z" />
    <glyph glyph-name="threequarters" unicode="&#xbe;" horiz-adv-x="1630" 
d="M711 1395q-3 -74 -44.5 -117t-144.5 -57q114 -4 167 -47.5t56 -106.5q3 -27 0 -68q-13 -215 -362 -215q-166 0 -252.5 48.5t-95.5 130.5q-8 78 -8 92h186v-82q1 -37 43 -51.5t125 -14.5q88 0 126.5 22.5t41.5 69.5q2 28 0 54q-3 46 -38 66t-128 20l-168 2v131h170
q75 6 107.5 28.5t33.5 69.5q0 6 1 28t-1 23q-5 41 -38 61.5t-105 20.5q-135 0 -145 -76l-5 -63h-178q0 48 8 92q14 82 96.5 129t233.5 47q159 0 234.5 -49t83.5 -129q3 -25 0 -59zM1128 1622h144q-216 -500 -357 -825l-337 -797h-142q224 521 369 858zM1597 336v-146h-131
v-190h-176v193h-444v151l438 483h182v-491h131zM1026 336h264v297z" />
    <glyph glyph-name="questiondown" unicode="&#xbf;" horiz-adv-x="1093" 
d="M473 1296v326h270v-326h-270zM47 295q-7 75 0 168q7 66 35.5 122t68.5 96.5t87 79t92.5 79.5t82.5 87.5t59 113t20 147.5h235q2 -99 -17 -182t-52.5 -140t-74.5 -104t-83.5 -83.5t-78.5 -69t-60.5 -70.5t-28.5 -78q-6 -69 0 -107q9 -75 64 -112t175 -37q100 0 158.5 36.5
t67.5 98.5q10 38 10 119h256q0 -117 -19 -191q-67 -288 -503 -288q-242 0 -358.5 79t-135.5 236z" />
    <glyph glyph-name="Agrave" unicode="&#xc0;" horiz-adv-x="1337" 
d="M633 2007l176 -295h-236l-208 295h268zM944 393h-551l-119 -393h-274l512 1622h344l479 -1622h-278zM467 627h407q-161 586 -165 598l-31 145q-27 -129 -31 -145z" />
    <glyph glyph-name="Aacute" unicode="&#xc1;" horiz-adv-x="1337" 
d="M784 1712h-233l174 295h268zM944 393h-551l-119 -393h-274l512 1622h344l479 -1622h-278zM467 627h407q-161 586 -165 598l-31 145q-27 -129 -31 -145z" />
    <glyph glyph-name="Acircumflex" unicode="&#xc2;" horiz-adv-x="1337" 
d="M807 2009l201 -291h-205l-127 156l-129 -156h-199l199 291h260zM944 393h-551l-119 -393h-274l512 1622h344l479 -1622h-278zM467 627h407q-161 586 -165 598l-31 145q-27 -129 -31 -145z" />
    <glyph glyph-name="Atilde" unicode="&#xc3;" horiz-adv-x="1337" 
d="M813 1712q-46 0 -76 9.5t-67 41.5q-34 32 -57.5 45t-53.5 9q-31 -3 -46.5 -22.5t-18.5 -72.5h-164q3 132 53 202.5t143 70.5q45 0 79 -12t71 -46q22 -21 34 -30.5t30.5 -17t37.5 -5.5q32 3 48 24.5t20 76.5l164 -3q-9 -270 -197 -270zM944 393h-551l-119 -393h-274
l512 1622h344l479 -1622h-278zM467 627h407q-161 586 -165 598l-31 145q-27 -129 -31 -145z" />
    <glyph glyph-name="Adieresis" unicode="&#xc4;" horiz-adv-x="1337" 
d="M975 1968v-256h-221v256h221zM604 1968v-256h-221v256h221zM944 393h-551l-119 -393h-274l512 1622h344l479 -1622h-278zM467 627h407q-161 586 -165 598l-31 145q-27 -129 -31 -145z" />
    <glyph glyph-name="Aring" unicode="&#xc5;" horiz-adv-x="1337" 
d="M0 0l500 1583q-49 62 -49 143q0 99 67.5 168.5t163.5 69.5q98 0 168 -70t70 -168q0 -80 -52 -145l467 -1581h-278l-113 393h-551l-119 -393h-274zM764 1726q0 37 -24 63t-58 26t-57 -26t-23 -63q0 -33 23.5 -60.5t56.5 -27.5t57.5 27.5t24.5 60.5zM467 627h407
q-161 586 -165 598l-31 145q-27 -129 -31 -145z" />
    <glyph glyph-name="AE" unicode="&#xc6;" horiz-adv-x="1832" 
d="M713 1622h1073v-246h-696v-438h659v-248h-659v-444h700v-246h-963v367h-411l-154 -367h-282zM827 592v764q-39 -138 -59 -185l-254 -579h313z" />
    <glyph glyph-name="Ccedilla" unicode="&#xc7;" horiz-adv-x="1372" 
d="M631 -78q-19 27 -19 62q-264 27 -391 194q-153 200 -153 639q0 402 137 600q153 223 508 223q417 0 542 -303q59 -144 62 -305h-273q-6 142 -57 230q-73 131 -280 131q-187 0 -271 -119q-88 -129 -88 -459q0 -329 90 -471q79 -127 277 -127q183 0 262 121q63 96 70 242
h272q-4 -181 -92 -340q-133 -244 -465 -258q3 -21 18 -33q8 -7 30.5 -16.5t46 -20.5t46.5 -28t38 -46.5t15 -68.5q0 -66 -54.5 -111.5t-148.5 -53.5t-221 36v122q98 -41 166 -29t68 68q0 30 -26 48.5t-61 35t-48 37.5z" />
    <glyph glyph-name="Egrave" unicode="&#xc8;" horiz-adv-x="1214" 
d="M633 2007l176 -295h-236l-208 295h268zM1141 246v-246h-1006v1622h998v-246h-732v-438h699v-248h-699v-444h740z" />
    <glyph glyph-name="Eacute" unicode="&#xc9;" horiz-adv-x="1214" 
d="M733 1714h-233l174 295h268zM1141 246v-246h-1006v1622h998v-246h-732v-438h699v-248h-699v-444h740z" />
    <glyph glyph-name="Ecircumflex" unicode="&#xca;" horiz-adv-x="1214" 
d="M780 2009l201 -291h-205l-127 156l-129 -156h-198l198 291h260zM1141 246v-246h-1006v1622h998v-246h-732v-438h699v-248h-699v-444h740z" />
    <glyph glyph-name="Edieresis" unicode="&#xcb;" horiz-adv-x="1214" 
d="M946 1968v-256h-221v256h221zM575 1968v-256h-221v256h221zM1141 246v-246h-1006v1622h998v-246h-732v-438h699v-248h-699v-444h740z" />
    <glyph glyph-name="Igrave" unicode="&#xcc;" horiz-adv-x="546" 
d="M238 2005l176 -295h-236l-209 295h269zM412 1622v-1622h-277v1622h277z" />
    <glyph glyph-name="Iacute" unicode="&#xcd;" horiz-adv-x="546" 
d="M379 1712h-234l174 295h269zM412 1622v-1622h-277v1622h277z" />
    <glyph glyph-name="Icircumflex" unicode="&#xce;" horiz-adv-x="546" 
d="M401 2009l201 -291h-205l-127 156l-129 -156h-198l198 291h260zM412 1622v-1622h-277v1622h277z" />
    <glyph glyph-name="Idieresis" unicode="&#xcf;" horiz-adv-x="546" 
d="M569 1966v-256h-221v256h221zM199 1966v-256h-222v256h222zM412 1622v-1622h-277v1622h277z" />
    <glyph glyph-name="Eth" unicode="&#xd0;" horiz-adv-x="1359" 
d="M137 0v684h-100v248h100v690h617q160 0 263.5 -42.5t166.5 -127.5q60 -81 84 -231t24 -383q0 -256 -22 -412t-78 -240q-63 -93 -160.5 -139.5t-255.5 -46.5h-639zM406 1380v-448h294v-248h-294v-446h323q92 0 148 22t94 74q59 83 59 504q0 144 -16 271t-49 171
q-42 54 -96 77t-144 23h-319z" />
    <glyph glyph-name="Ntilde" unicode="&#xd1;" horiz-adv-x="1378" 
d="M866 1712q-46 0 -76 9.5t-67 41.5q-34 32 -57.5 45t-53.5 9q-31 -3 -46.5 -22.5t-18.5 -72.5h-164q3 131 53.5 202t143.5 71q45 0 78.5 -11.5t70.5 -46.5q22 -21 34 -30.5t30.5 -17t37.5 -5.5q32 3 48 24.5t20 76.5l164 -3q-9 -270 -197 -270zM1249 1622v-1622h-288
l-570 1135v-1135h-256v1622h305l553 -1106v1106h256z" />
    <glyph glyph-name="Ograve" unicode="&#xd2;" horiz-adv-x="1406" 
d="M686 2007l176 -295h-235l-209 295h268zM176 1382q155 258 526 258q391 0 531 -249q106 -186 106 -572q0 -399 -122 -602q-139 -237 -515 -237q-369 0 -514 231q-120 191 -120 606q0 388 108 565zM444 330q84 -113 263 -113q172 0 268 119q46 56 70 191t24 286
q0 335 -86 463q-44 64 -108.5 95.5t-169.5 31.5q-108 0 -171.5 -32.5t-105.5 -98.5q-84 -127 -84 -463q0 -342 100 -479z" />
    <glyph glyph-name="Oacute" unicode="&#xd3;" horiz-adv-x="1406" 
d="M805 1712h-234l174 295h269zM176 1382q155 258 526 258q391 0 531 -249q106 -186 106 -572q0 -399 -122 -602q-139 -237 -515 -237q-369 0 -514 231q-120 191 -120 606q0 388 108 565zM444 330q84 -113 263 -113q172 0 268 119q46 56 70 191t24 286q0 335 -86 463
q-44 64 -108.5 95.5t-169.5 31.5q-108 0 -171.5 -32.5t-105.5 -98.5q-84 -127 -84 -463q0 -342 100 -479z" />
    <glyph glyph-name="Ocircumflex" unicode="&#xd4;" horiz-adv-x="1406" 
d="M840 2009l200 -291h-204l-127 156l-129 -156h-199l199 291h260zM176 1382q155 258 526 258q391 0 531 -249q106 -186 106 -572q0 -399 -122 -602q-139 -237 -515 -237q-369 0 -514 231q-120 191 -120 606q0 388 108 565zM444 330q84 -113 263 -113q172 0 268 119
q46 56 70 191t24 286q0 335 -86 463q-44 64 -108.5 95.5t-169.5 31.5q-108 0 -171.5 -32.5t-105.5 -98.5q-84 -127 -84 -463q0 -342 100 -479z" />
    <glyph glyph-name="Otilde" unicode="&#xd5;" horiz-adv-x="1406" 
d="M846 1712q-46 0 -76.5 9.5t-67.5 41.5q-34 32 -57 45t-53 9q-31 -3 -47 -22.5t-19 -72.5h-164q3 131 53.5 202t143.5 71q45 0 79 -12t71 -46q22 -21 34 -30.5t30.5 -17t37.5 -5.5q32 3 48 24.5t20 76.5l163 -3q-9 -270 -196 -270zM176 1382q155 258 526 258
q391 0 531 -249q106 -186 106 -572q0 -399 -122 -602q-139 -237 -515 -237q-369 0 -514 231q-120 191 -120 606q0 388 108 565zM444 330q84 -113 263 -113q172 0 268 119q46 56 70 191t24 286q0 335 -86 463q-44 64 -108.5 95.5t-169.5 31.5q-108 0 -171.5 -32.5
t-105.5 -98.5q-84 -127 -84 -463q0 -342 100 -479z" />
    <glyph glyph-name="Odieresis" unicode="&#xd6;" horiz-adv-x="1406" 
d="M999 1968v-256h-221v256h221zM629 1968v-256h-221v256h221zM176 1382q155 258 526 258q391 0 531 -249q106 -186 106 -572q0 -399 -122 -602q-139 -237 -515 -237q-369 0 -514 231q-120 191 -120 606q0 388 108 565zM444 330q84 -113 263 -113q172 0 268 119
q46 56 70 191t24 286q0 335 -86 463q-44 64 -108.5 95.5t-169.5 31.5q-108 0 -171.5 -32.5t-105.5 -98.5q-84 -127 -84 -463q0 -342 100 -479z" />
    <glyph glyph-name="multiply" unicode="&#xd7;" horiz-adv-x="1003" 
d="M719 1126l129 -137l-217 -213l219 -219l-131 -133l-217 217l-215 -217l-131 135l217 217l-217 213l131 135l215 -213z" />
    <glyph glyph-name="Oslash" unicode="&#xd8;" horiz-adv-x="1406" 
d="M1253 1651q-76 -121 -92 -162q43 -46 78 -111q100 -187 100 -559q0 -387 -125 -600q-143 -239 -512 -239q-198 0 -337 71q-6 -15 -25.5 -48.5t-35.5 -60.5l-17 -26h-168q92 168 127 221q-40 46 -66 92q-112 194 -112 588q0 383 110 563q157 260 524 260q210 0 342 -69
l48 80h161zM344 809q0 -237 55 -389l521 923q-78 60 -215 60q-108 0 -171.5 -32.5t-105.5 -98.5q-84 -127 -84 -463zM1069 813q0 269 -57 399q0 1 -130 -232l-260 -466l-130 -233q83 -64 215 -64q172 0 268 119q46 56 70 191t24 286z" />
    <glyph glyph-name="Ugrave" unicode="&#xd9;" horiz-adv-x="1376" 
d="M666 2007l176 -295h-236l-209 295h269zM1257 1622v-1198q0 -213 -155 -328.5t-414 -115.5q-127 0 -229.5 27t-180 81t-119.5 142.5t-42 205.5v1186h268v-1159q0 -118 79.5 -182t227.5 -64q133 0 214 64.5t81 179.5v1161h270z" />
    <glyph glyph-name="Uacute" unicode="&#xda;" horiz-adv-x="1376" 
d="M780 1712h-233l174 295h268zM1257 1622v-1198q0 -213 -155 -328.5t-414 -115.5q-127 0 -229.5 27t-180 81t-119.5 142.5t-42 205.5v1186h268v-1159q0 -118 79.5 -182t227.5 -64q133 0 214 64.5t81 179.5v1161h270z" />
    <glyph glyph-name="Ucircumflex" unicode="&#xdb;" horiz-adv-x="1376" 
d="M827 2009l201 -291h-205l-127 156l-129 -156h-198l198 291h260zM1257 1622v-1198q0 -213 -155 -328.5t-414 -115.5q-127 0 -229.5 27t-180 81t-119.5 142.5t-42 205.5v1186h268v-1159q0 -118 79.5 -182t227.5 -64q133 0 214 64.5t81 179.5v1161h270z" />
    <glyph glyph-name="Udieresis" unicode="&#xdc;" horiz-adv-x="1376" 
d="M987 1968v-256h-221v256h221zM616 1968v-256h-221v256h221zM1257 1622v-1198q0 -213 -155 -328.5t-414 -115.5q-127 0 -229.5 27t-180 81t-119.5 142.5t-42 205.5v1186h268v-1159q0 -118 79.5 -182t227.5 -64q133 0 214 64.5t81 179.5v1161h270z" />
    <glyph glyph-name="Yacute" unicode="&#xdd;" horiz-adv-x="1343" 
d="M756 1712h-234l174 295h269zM1067 1622h276l-544 -1061v-561h-273v559l-522 1063h285l377 -793z" />
    <glyph glyph-name="Thorn" unicode="&#xde;" horiz-adv-x="1318" 
d="M135 1622h279l2 -258h407q282 0 363 -182q76 -112 76 -336q0 -208 -70 -332q-101 -175 -369 -184l-413 2v-332h-275v1622zM969 690q18 52 18 152q0 102 -16 143q-18 72 -65.5 103.5t-133.5 31.5h-362v-553h356q86 0 134 31t69 92z" />
    <glyph glyph-name="germandbls" unicode="&#xdf;" horiz-adv-x="1585" 
d="M754 1282q0 65 -34.5 105t-111.5 40q-91 -1 -126.5 -41t-35.5 -120v-1266h-256v905h-165v221h165v179q0 163 112 251.5t325 88.5q170 0 280.5 -82.5t110.5 -221.5q0 -57 -20 -104.5t-48 -81t-56.5 -66t-48.5 -74t-20 -89.5q0 -38 11.5 -64.5t46 -46t54 -27t78.5 -25.5
q10 -3 15 -5q15 -4 95 -28.5t104 -31.5q164 -48 244.5 -137t80.5 -229q0 -165 -117.5 -257.5t-361.5 -92.5q-227 0 -347.5 62.5t-145.5 188.5q-5 21 -11 146h258q0 -58 7 -92q24 -117 237 -117q123 0 175 34t52 111q0 71 -44 110.5t-160 76.5q-68 22 -162 49
q-68 21 -114.5 39t-96 46.5t-78.5 61.5t-48 81t-19 108q0 55 18 102t44 79.5t52 63t44 69t18 81.5z" />
    <glyph glyph-name="agrave" unicode="&#xe0;" horiz-adv-x="1138" 
d="M559 1507l176 -295h-235l-209 295h268zM1036 217q0 -66 6 -132.5t15 -84.5h-230q-5 0 -10.5 13t-9 40t-2.5 60q-113 -123 -365 -123q-162 0 -263.5 70.5t-113.5 199.5q-3 43 0 96q9 159 153.5 249.5t430.5 90.5q60 0 150 -8q0 104 -2 123q-15 127 -207 127
q-59 0 -102 -10.5t-69 -27.5t-41 -43.5t-20.5 -54t-5.5 -63.5h-237q0 205 121.5 308.5t355.5 103.5q411 0 440 -287q13 -117 8 -332q0 -41 -1 -158t-1 -157zM510 180q86 0 145 22.5t90.5 68t44.5 102.5t13 137q-106 8 -152 8q-167 0 -252.5 -42.5t-85.5 -135.5
q0 -83 47 -121.5t150 -38.5z" />
    <glyph glyph-name="aacute" unicode="&#xe1;" horiz-adv-x="1138" 
d="M670 1212h-234l174 295h269zM1036 217q0 -66 6 -132.5t15 -84.5h-230q-5 0 -10.5 13t-9 40t-2.5 60q-113 -123 -365 -123q-162 0 -263.5 70.5t-113.5 199.5q-3 43 0 96q9 159 153.5 249.5t430.5 90.5q60 0 150 -8q0 104 -2 123q-15 127 -207 127q-59 0 -102 -10.5
t-69 -27.5t-41 -43.5t-20.5 -54t-5.5 -63.5h-237q0 205 121.5 308.5t355.5 103.5q411 0 440 -287q13 -117 8 -332q0 -41 -1 -158t-1 -157zM510 180q86 0 145 22.5t90.5 68t44.5 102.5t13 137q-106 8 -152 8q-167 0 -252.5 -42.5t-85.5 -135.5q0 -83 47 -121.5t150 -38.5z
" />
    <glyph glyph-name="acircumflex" unicode="&#xe2;" horiz-adv-x="1138" 
d="M719 1509l201 -290h-205l-127 155l-129 -155h-199l199 290h260zM1036 217q0 -66 6 -132.5t15 -84.5h-230q-5 0 -10.5 13t-9 40t-2.5 60q-113 -123 -365 -123q-162 0 -263.5 70.5t-113.5 199.5q-3 43 0 96q9 159 153.5 249.5t430.5 90.5q60 0 150 -8q0 104 -2 123
q-15 127 -207 127q-59 0 -102 -10.5t-69 -27.5t-41 -43.5t-20.5 -54t-5.5 -63.5h-237q0 205 121.5 308.5t355.5 103.5q411 0 440 -287q13 -117 8 -332q0 -41 -1 -158t-1 -157zM510 180q86 0 145 22.5t90.5 68t44.5 102.5t13 137q-106 8 -152 8q-167 0 -252.5 -42.5
t-85.5 -135.5q0 -83 47 -121.5t150 -38.5z" />
    <glyph glyph-name="atilde" unicode="&#xe3;" horiz-adv-x="1138" 
d="M731 1212q-45 0 -75.5 9.5t-67.5 42.5q-33 31 -57 44t-54 9q-31 -3 -46.5 -22t-18.5 -72h-164q3 131 53 201.5t143 70.5q46 0 79.5 -11.5t70.5 -45.5q23 -21 34 -30.5t30 -17.5t38 -6q32 3 48 24.5t20 76.5l164 -2q-9 -271 -197 -271zM1036 217q0 -66 6 -132.5t15 -84.5
h-230q-5 0 -10.5 13t-9 40t-2.5 60q-113 -123 -365 -123q-162 0 -263.5 70.5t-113.5 199.5q-3 43 0 96q9 159 153.5 249.5t430.5 90.5q60 0 150 -8q0 104 -2 123q-15 127 -207 127q-59 0 -102 -10.5t-69 -27.5t-41 -43.5t-20.5 -54t-5.5 -63.5h-237q0 205 121.5 308.5
t355.5 103.5q411 0 440 -287q13 -117 8 -332q0 -41 -1 -158t-1 -157zM510 180q86 0 145 22.5t90.5 68t44.5 102.5t13 137q-106 8 -152 8q-167 0 -252.5 -42.5t-85.5 -135.5q0 -83 47 -121.5t150 -38.5z" />
    <glyph glyph-name="adieresis" unicode="&#xe4;" horiz-adv-x="1138" 
d="M879 1468v-256h-222v256h222zM508 1468v-256h-221v256h221zM1036 217q0 -66 6 -132.5t15 -84.5h-230q-5 0 -10.5 13t-9 40t-2.5 60q-113 -123 -365 -123q-162 0 -263.5 70.5t-113.5 199.5q-3 43 0 96q9 159 153.5 249.5t430.5 90.5q60 0 150 -8q0 104 -2 123
q-15 127 -207 127q-59 0 -102 -10.5t-69 -27.5t-41 -43.5t-20.5 -54t-5.5 -63.5h-237q0 205 121.5 308.5t355.5 103.5q411 0 440 -287q13 -117 8 -332q0 -41 -1 -158t-1 -157zM510 180q86 0 145 22.5t90.5 68t44.5 102.5t13 137q-106 8 -152 8q-167 0 -252.5 -42.5
t-85.5 -135.5q0 -83 47 -121.5t150 -38.5z" />
    <glyph glyph-name="aring" unicode="&#xe5;" horiz-adv-x="1138" 
d="M360 1405q0 98 67.5 167.5t164.5 69.5q98 0 167.5 -69.5t69.5 -167.5q0 -97 -69.5 -164t-167.5 -67q-97 0 -164.5 67t-67.5 164zM682 1405q0 40 -26.5 68t-63.5 28t-62.5 -28t-25.5 -68q0 -36 26 -66t62 -30t63 30t27 66zM1036 217q0 -66 6 -132.5t15 -84.5h-230
q-5 0 -10.5 13t-9 40t-2.5 60q-113 -123 -365 -123q-162 0 -263.5 70.5t-113.5 199.5q-3 43 0 96q9 159 153.5 249.5t430.5 90.5q60 0 150 -8q0 104 -2 123q-15 127 -207 127q-59 0 -102 -10.5t-69 -27.5t-41 -43.5t-20.5 -54t-5.5 -63.5h-237q0 205 121.5 308.5
t355.5 103.5q411 0 440 -287q13 -117 8 -332q0 -41 -1 -158t-1 -157zM510 180q86 0 145 22.5t90.5 68t44.5 102.5t13 137q-106 8 -152 8q-167 0 -252.5 -42.5t-85.5 -135.5q0 -83 47 -121.5t150 -38.5z" />
    <glyph glyph-name="ae" unicode="&#xe6;" horiz-adv-x="1863" 
d="M1317 -18q-154 0 -261 48.5t-151 131.5q-70 -92 -181 -132t-275 -40q-172 0 -273 65t-113 193q-4 48 0 108q5 63 32.5 117t81 101t146 77t216.5 37q128 9 258 -2q0 86 -4 125q-12 123 -215 123q-139 0 -191 -64q-39 -50 -39 -131h-235q0 138 53 224q115 188 424 188
q284 0 358 -172q30 69 127 120.5t250 51.5q149 0 255.5 -55.5t164.5 -151.5q95 -158 80 -467h-785q0 -115 56 -194q27 -41 86 -63.5t135 -22.5q132 0 192 51q62 51 66 112h242q-8 -67 -43.5 -138t-94.5 -124q-125 -116 -362 -116zM1036 653h543q0 46 -12.5 105t-36.5 88
q-71 88 -215 88q-147 0 -217 -82q-29 -32 -45.5 -86t-16.5 -113zM803 446q2 6 2 21.5t-1 32.5t-1 18q-210 7 -291 -12q-116 -24 -162 -84q-35 -47 -26 -109q5 -33 19 -54.5t50 -37.5q60 -40 205 -20q119 14 170 96q35 53 35 149z" />
    <glyph glyph-name="ccedilla" unicode="&#xe7;" horiz-adv-x="1128" 
d="M512 -74q-13 19 -18 62q-199 21 -306 137q-131 146 -131 442q0 265 115 416q131 168 401 168q356 0 463 -242q20 -42 30.5 -104.5t10.5 -110.5h-243q0 75 -35 131q-63 99 -219 99q-148 0 -211 -90q-60 -87 -60 -269q0 -198 62 -278q66 -88 217 -88q156 0 213 86
q39 61 39 135h235q0 -69 -24 -144.5t-66 -132.5q-109 -142 -342 -157q4 -21 19 -33q8 -7 30.5 -16.5t46 -20.5t46.5 -28t38 -46.5t15 -68.5q0 -66 -54.5 -111.5t-148.5 -53.5t-221 36v123q98 -41 165.5 -29.5t67.5 67.5q0 30 -26 48.5t-61 35t-48 37.5z" />
    <glyph glyph-name="egrave" unicode="&#xe8;" horiz-adv-x="1126" 
d="M535 1507l176 -295h-236l-209 295h269zM840 360h241q-10 -68 -45.5 -138t-93.5 -124q-128 -116 -360 -116q-314 0 -441 208q-84 133 -84 375q0 231 84 367q138 219 439 219q305 0 430 -207q96 -156 77 -475h-784q3 -100 59 -186q29 -41 87.5 -64.5t132.5 -23.5
q130 0 192 53q62 51 66 112zM299 664h543q0 44 -12.5 98.5t-36.5 83.5q-71 88 -215 88q-145 0 -218 -82q-58 -64 -61 -188z" />
    <glyph glyph-name="eacute" unicode="&#xe9;" horiz-adv-x="1126" 
d="M676 1212h-234l174 295h269zM840 360h241q-10 -68 -45.5 -138t-93.5 -124q-128 -116 -360 -116q-314 0 -441 208q-84 133 -84 375q0 231 84 367q138 219 439 219q305 0 430 -207q96 -156 77 -475h-784q3 -100 59 -186q29 -41 87.5 -64.5t132.5 -23.5q130 0 192 53
q62 51 66 112zM299 664h543q0 44 -12.5 98.5t-36.5 83.5q-71 88 -215 88q-145 0 -218 -82q-58 -64 -61 -188z" />
    <glyph glyph-name="ecircumflex" unicode="&#xea;" horiz-adv-x="1126" 
d="M711 1509l200 -290h-204l-127 155l-129 -155h-199l199 290h260zM840 360h241q-10 -68 -45.5 -138t-93.5 -124q-128 -116 -360 -116q-314 0 -441 208q-84 133 -84 375q0 231 84 367q138 219 439 219q305 0 430 -207q96 -156 77 -475h-784q3 -100 59 -186
q29 -41 87.5 -64.5t132.5 -23.5q130 0 192 53q62 51 66 112zM299 664h543q0 44 -12.5 98.5t-36.5 83.5q-71 88 -215 88q-145 0 -218 -82q-58 -64 -61 -188z" />
    <glyph glyph-name="edieresis" unicode="&#xeb;" horiz-adv-x="1126" 
d="M874 1468v-256h-221v256h221zM504 1468v-256h-221v256h221zM840 360h241q-10 -68 -45.5 -138t-93.5 -124q-128 -116 -360 -116q-314 0 -441 208q-84 133 -84 375q0 231 84 367q138 219 439 219q305 0 430 -207q96 -156 77 -475h-784q3 -100 59 -186q29 -41 87.5 -64.5
t132.5 -23.5q130 0 192 53q62 51 66 112zM299 664h543q0 44 -12.5 98.5t-36.5 83.5q-71 88 -215 88q-145 0 -218 -82q-58 -64 -61 -188z" />
    <glyph glyph-name="igrave" unicode="&#xec;" horiz-adv-x="479" 
d="M195 1507l176 -295h-236l-209 295h269zM367 109q0 -99 10 -109h-252q-12 6 -12 102v1024h254v-1017z" />
    <glyph glyph-name="iacute" unicode="&#xed;" horiz-adv-x="479" 
d="M352 1212h-233l174 295h268zM367 109q0 -99 10 -109h-252q-12 6 -12 102v1024h254v-1017z" />
    <glyph glyph-name="icircumflex" unicode="&#xee;" horiz-adv-x="479" 
d="M379 1509l201 -290h-205l-127 155l-129 -155h-199l199 290h260zM367 109q0 -99 10 -109h-252q-12 6 -12 102v1024h254v-1017z" />
    <glyph glyph-name="idieresis" unicode="&#xef;" horiz-adv-x="479" 
d="M537 1468v-256h-222v256h222zM166 1468v-256h-221v256h221zM367 109q0 -99 10 -109h-252q-12 6 -12 102v1024h254v-1017z" />
    <glyph glyph-name="eth" unicode="&#xf0;" horiz-adv-x="1183" 
d="M866 897q0 137 -24 246q-57 -31 -97 -31q-63 0 -106 40t-55 116l84 28q9 -50 27.5 -70t52.5 -20q41 0 81 31q-9 50 -18 74q-24 63 -81 99t-144 36q-90 0 -138 -24.5t-67 -75.5q-6 -18 -6 -46h-248q0 46 14 95q79 247 457 247q168 0 276.5 -68t157.5 -181
q5 -13 12.5 -28.5t12.5 -27.5q46 31 94 31q65 -1 109.5 -46t56.5 -118l-82 -33q-4 21 -8.5 36t-13.5 31.5t-25.5 25t-38.5 8.5q-12 0 -21 -2.5t-13.5 -4.5t-15.5 -10t-16 -12q17 -75 32 -192.5t15 -204.5q0 -130 -11 -280.5t-34 -231.5q-52 -175 -174.5 -263.5t-324.5 -88.5
q-89 0 -162 13.5t-138 44t-114 84.5t-78 130q-41 109 -38.5 281.5t46.5 273.5q53 117 148.5 173t261.5 56q227 0 354 -141zM358 725q-26 -54 -30.5 -193t18.5 -198q56 -135 240 -135q110 0 176 50.5t84 141.5q17 86 22 299q-11 22 -29.5 44t-50.5 48t-83 42t-113 16
q-175 0 -234 -115z" />
    <glyph glyph-name="ntilde" unicode="&#xf1;" horiz-adv-x="1142" 
d="M743 1212q-45 0 -75.5 9.5t-67.5 42.5q-33 31 -57 44t-54 9q-31 -3 -46.5 -22t-18.5 -72h-164q3 131 53.5 201.5t143.5 70.5q46 0 79 -11.5t70 -45.5q22 -21 34 -30.5t31 -17.5t38 -6q31 3 47 24t20 77l164 -2q-9 -271 -197 -271zM1044 793q0 -793 7 -793h-246
q-9 0 -10.5 95.5t-1.5 625.5q0 190 -197 190q-101 0 -169.5 -55t-68.5 -158v-698h-252v1126h244v-151q36 86 130 130t212 44q182 0 267 -90t85 -266z" />
    <glyph glyph-name="ograve" unicode="&#xf2;" horiz-adv-x="1173" 
d="M555 1507l176 -295h-235l-209 295h268zM1008 971q108 -144 108 -404q0 -250 -108 -399q-129 -184 -420 -184q-287 0 -422 180q-51 68 -80 173.5t-29 229.5q0 253 111 400q138 184 422 184q289 0 418 -180zM815 307q57 93 57 258q0 190 -55 266q-66 93 -227 93
q-162 0 -228 -105q-55 -83 -55 -254q0 -175 53 -258q62 -100 230 -100q161 0 225 100z" />
    <glyph glyph-name="oacute" unicode="&#xf3;" horiz-adv-x="1173" 
d="M682 1212h-233l174 295h268zM1008 971q108 -144 108 -404q0 -250 -108 -399q-129 -184 -420 -184q-287 0 -422 180q-51 68 -80 173.5t-29 229.5q0 253 111 400q138 184 422 184q289 0 418 -180zM815 307q57 93 57 258q0 190 -55 266q-66 93 -227 93q-162 0 -228 -105
q-55 -83 -55 -254q0 -175 53 -258q62 -100 230 -100q161 0 225 100z" />
    <glyph glyph-name="ocircumflex" unicode="&#xf4;" horiz-adv-x="1173" 
d="M723 1509l201 -290h-205l-127 155l-129 -155h-199l199 290h260zM1008 971q108 -144 108 -404q0 -250 -108 -399q-129 -184 -420 -184q-287 0 -422 180q-51 68 -80 173.5t-29 229.5q0 253 111 400q138 184 422 184q289 0 418 -180zM815 307q57 93 57 258q0 190 -55 266
q-66 93 -227 93q-162 0 -228 -105q-55 -83 -55 -254q0 -175 53 -258q62 -100 230 -100q161 0 225 100z" />
    <glyph glyph-name="otilde" unicode="&#xf5;" horiz-adv-x="1173" 
d="M735 1212q-45 0 -75.5 9.5t-67.5 42.5q-33 31 -57 44t-54 9q-31 -3 -46.5 -22t-18.5 -72h-164q3 131 53.5 201.5t143.5 70.5q46 0 79 -11.5t70 -45.5q23 -21 34 -30.5t30 -17.5t38 -6q32 3 48 24.5t20 76.5l164 -2q-9 -271 -197 -271zM1008 971q108 -144 108 -404
q0 -250 -108 -399q-129 -184 -420 -184q-287 0 -422 180q-51 68 -80 173.5t-29 229.5q0 253 111 400q138 184 422 184q289 0 418 -180zM815 307q57 93 57 258q0 190 -55 266q-66 93 -227 93q-162 0 -228 -105q-55 -83 -55 -254q0 -175 53 -258q62 -100 230 -100
q161 0 225 100z" />
    <glyph glyph-name="odieresis" unicode="&#xf6;" horiz-adv-x="1173" 
d="M887 1468v-256h-221v256h221zM516 1468v-256h-221v256h221zM1008 971q108 -144 108 -404q0 -250 -108 -399q-129 -184 -420 -184q-287 0 -422 180q-51 68 -80 173.5t-29 229.5q0 253 111 400q138 184 422 184q289 0 418 -180zM815 307q57 93 57 258q0 190 -55 266
q-66 93 -227 93q-162 0 -228 -105q-55 -83 -55 -254q0 -175 53 -258q62 -100 230 -100q161 0 225 100z" />
    <glyph glyph-name="oslash" unicode="&#xf8;" horiz-adv-x="1173" 
d="M111 -49l102 153q-25 28 -55 72q-47 71 -74 173t-27 218q0 253 111 400q138 184 422 184q150 0 266 -53l51 78h148l-97 -144q42 -44 58 -69q100 -152 100 -396q0 -250 -108 -399q-62 -89 -169.5 -136.5t-250.5 -47.5q-168 0 -279 57l-61 -90h-137zM305 565
q0 -152 47 -241l377 575q-51 25 -139 25q-162 0 -228 -105q-28 -42 -42.5 -112t-14.5 -142zM874 565q0 71 -14.5 142t-38.5 110l-385 -581q55 -31 154 -31q161 0 225 100q59 91 59 260z" />
    <glyph glyph-name="ugrave" unicode="&#xf9;" horiz-adv-x="1140" 
d="M545 1507l176 -295h-236l-209 295h269zM1042 0h-241l-6 135q-47 -78 -138.5 -114.5t-203.5 -36.5q-162 0 -257.5 78t-95.5 235q0 821 -8 829h254q6 0 6 -757q0 -93 53 -136t146 -43q110 0 173.5 53.5t63.5 145.5v737h248v-958q0 -132 6 -168z" />
    <glyph glyph-name="uacute" unicode="&#xfa;" horiz-adv-x="1140" 
d="M659 1212h-233l174 295h268zM1042 0h-241l-6 135q-47 -78 -138.5 -114.5t-203.5 -36.5q-162 0 -257.5 78t-95.5 235q0 821 -8 829h254q6 0 6 -757q0 -93 53 -136t146 -43q110 0 173.5 53.5t63.5 145.5v737h248v-958q0 -132 6 -168z" />
    <glyph glyph-name="ucircumflex" unicode="&#xfb;" horiz-adv-x="1140" 
d="M698 1509l201 -290h-205l-127 155l-129 -155h-198l198 290h260zM1042 0h-241l-6 135q-47 -78 -138.5 -114.5t-203.5 -36.5q-162 0 -257.5 78t-95.5 235q0 821 -8 829h254q6 0 6 -757q0 -93 53 -136t146 -43q110 0 173.5 53.5t63.5 145.5v737h248v-958q0 -132 6 -168z" />
    <glyph glyph-name="udieresis" unicode="&#xfc;" horiz-adv-x="1140" 
d="M862 1468v-256h-221v256h221zM492 1468v-256h-222v256h222zM1042 0h-241l-6 135q-47 -78 -138.5 -114.5t-203.5 -36.5q-162 0 -257.5 78t-95.5 235q0 821 -8 829h254q6 0 6 -757q0 -93 53 -136t146 -43q110 0 173.5 53.5t63.5 145.5v737h248v-958q0 -132 6 -168z" />
    <glyph glyph-name="yacute" unicode="&#xfd;" horiz-adv-x="1124" 
d="M643 1212h-233l174 295h268zM856 1126h258l-553 -1474h-264l135 360l-420 1114h267q276 -762 290 -819q6 26 78 231t141 396z" />
    <glyph glyph-name="thorn" unicode="&#xfe;" horiz-adv-x="1183" 
d="M1038 987q103 -142 103 -405q0 -282 -103 -426q-54 -75 -145 -119.5t-199 -44.5q-118 0 -206.5 33.5t-131.5 99.5l2 -473h-249v1980h245v-651q29 72 122.5 120t221.5 48q121 0 202 -40t138 -122zM838 309q49 85 49 258q0 198 -66 277q-62 78 -207 78q-120 0 -188 -78
q-76 -106 -76 -277q0 -106 15.5 -170t48.5 -110q68 -78 202 -78q162 0 222 100z" />
    <glyph glyph-name="ydieresis" unicode="&#xff;" horiz-adv-x="1124" 
d="M866 1468v-256h-221v256h221zM496 1468v-256h-222v256h222zM856 1126h258l-553 -1474h-264l135 360l-420 1114h267q276 -762 290 -819q6 26 78 231t141 396z" />
    <glyph glyph-name="dotlessi" unicode="&#x131;" horiz-adv-x="479" 
d="M367 109q0 -99 10 -109h-252q-12 6 -12 102v1024h254v-1017z" />
    <glyph glyph-name="Lslash" unicode="&#x141;" horiz-adv-x="1122" 
d="M786 760l-378 -119v-399h686v-242h-959v557l-84 -31v189l84 28v879h273v-795l378 121v-188z" />
    <glyph glyph-name="lslash" unicode="&#x142;" horiz-adv-x="495" 
d="M477 629l-106 -37v-492q0 -87 8 -100h-250q-8 5 -8 80v428l-103 -35v199l103 35v811q0 87 -6 114h250q6 -18 6 -94v-747l106 36v-198z" />
    <glyph glyph-name="OE" unicode="&#x152;" horiz-adv-x="2013" 
d="M1008 1536v86h952v-244h-715v-440h682v-246h-682v-448h723v-244h-954v76q-105 -96 -330 -96q-184 0 -324.5 77t-207.5 228q-36 81 -61 232t-25 300q0 156 22.5 295t65.5 227q76 156 203.5 228.5t318.5 72.5q118 0 203 -29.5t129 -74.5zM410 383q91 -166 299 -166
q110 0 179.5 25t90.5 67q8 27 8 506q0 428 -10 459q-65 127 -270 127q-217 0 -297 -160q-29 -56 -47.5 -182.5t-18.5 -249.5q0 -120 18 -245.5t48 -180.5z" />
    <glyph glyph-name="oe" unicode="&#x153;" horiz-adv-x="1939" 
d="M1751 98q-125 -116 -362 -116q-152 0 -260.5 50t-143.5 136q-42 -85 -145.5 -134.5t-251.5 -49.5q-287 0 -422 180q-51 68 -80 173.5t-29 229.5q0 253 111 400q138 184 422 184q152 0 256.5 -51t148.5 -139q39 91 139 140.5t252 49.5q156 0 264 -55.5t167 -151.5
q96 -154 77 -471h-782q0 -106 53 -192q31 -40 90.5 -63t133.5 -23q132 0 192 51q31 26 47.5 57.5t18.5 56.5h241q-10 -69 -44.5 -139.5t-92.5 -122.5zM1108 655h541q0 46 -13 105t-37 88q-71 88 -213 88q-147 0 -217 -82q-29 -32 -45 -85.5t-16 -113.5zM815 305
q57 88 57 260q0 190 -55 266q-66 93 -227 93q-162 0 -228 -105q-55 -83 -55 -254q0 -176 53 -262q60 -98 230 -98q161 0 225 100z" />
    <glyph glyph-name="Scaron" unicode="&#x160;" horiz-adv-x="1310" 
d="M524 1720l-198 293h200l129 -158l127 158h203l-199 -293h-262zM848 903q198 -69 295.5 -179.5t97.5 -293.5q0 -208 -144 -329t-421 -121q-506 0 -588 317q-18 71 -18 178h272q0 -65 18 -123q46 -141 310 -141q295 0 295 197q0 103 -60 162t-223 116q-16 6 -91.5 33.5
t-113.5 40.5q-401 131 -401 463q0 194 142 305.5t421 111.5q462 0 555 -327q25 -87 25 -160h-275q0 47 -18 102q-27 77 -95.5 113.5t-197.5 36.5q-150 0 -215.5 -44t-65.5 -130q0 -91 69.5 -147.5t227.5 -108.5q34 -11 115 -41t84 -31z" />
    <glyph glyph-name="scaron" unicode="&#x161;" horiz-adv-x="1081" 
d="M403 1221l-198 292h201l129 -157l127 157h202l-198 -292h-263zM705 649q167 -43 243 -118.5t76 -213.5q0 -335 -463 -335q-230 0 -347 56t-142 181q-11 62 -11 127h246q0 -47 6 -80q10 -44 70.5 -63t177.5 -19q118 0 168.5 30.5t50.5 94.5q0 56 -44.5 83t-164.5 59
q-131 37 -198 53q-152 40 -224.5 117.5t-72.5 220.5q0 140 114 224.5t330 84.5q390 0 453 -221q14 -45 14 -148h-239q0 59 -11 84q-16 35 -63.5 53.5t-147.5 18.5q-110 0 -157 -26t-47 -81q0 -49 36.5 -76t139.5 -53q28 -7 103.5 -26.5t103.5 -26.5z" />
    <glyph glyph-name="Ydieresis" unicode="&#x178;" horiz-adv-x="1343" 
d="M987 1968v-256h-221v256h221zM616 1968v-256h-221v256h221zM1067 1622h276l-544 -1061v-561h-273v559l-522 1063h285l377 -793z" />
    <glyph glyph-name="Zcaron" unicode="&#x17d;" horiz-adv-x="1189" 
d="M463 1720l-199 293h201l129 -158l127 158h203l-199 -293h-262zM1155 244v-244h-1110v215l770 1161h-729v246h1049v-209l-777 -1169h797z" />
    <glyph glyph-name="zcaron" unicode="&#x17e;" horiz-adv-x="985" 
d="M360 1221l-198 292h200l130 -157l126 157h203l-198 -292h-263zM948 219v-219h-899v188l569 717h-552v221h860v-206l-557 -701h579z" />
    <glyph glyph-name="florin" unicode="&#x192;" horiz-adv-x="847" 
d="M500 913q-1 -24 -43.5 -487.5t-42.5 -468.5q-15 -141 -99 -219t-231 -78q-84 0 -195 12v224q44 -9 125 -9q65 1 101.5 35t42.5 92q0 2 20 215t41 437t23 247h-158v222h184l21 231q11 135 99 210t263 75q47 0 85.5 -3.5t70.5 -9t45 -6.5l-4 -213q-78 15 -141 15
q-154 -3 -164 -119l-19 -182h267v-220h-291z" />
    <glyph glyph-name="circumflex" unicode="&#x2c6;" 
d="M553 1509l201 -290h-205l-127 155l-129 -155h-199l199 290h260z" />
    <glyph glyph-name="caron" unicode="&#x2c7;" 
d="M291 1221l-199 292h201l129 -157l127 157h203l-199 -292h-262z" />
    <glyph glyph-name="breve" unicode="&#x2d8;" 
d="M553 1485h188q0 -118 -84 -197.5t-233 -79.5q-147 0 -233.5 80t-86.5 197h187q0 -59 35 -96t96 -37q63 0 97 36.5t34 96.5z" />
    <glyph glyph-name="dotaccent" unicode="&#x2d9;" 
d="M528 1462v-243h-211v243h211z" />
    <glyph glyph-name="ring" unicode="&#x2da;" 
d="M190 1405q0 98 67.5 167.5t164.5 69.5q98 0 167.5 -69.5t69.5 -167.5q0 -97 -69.5 -164t-167.5 -67q-97 0 -164.5 67t-67.5 164zM512 1405q0 40 -26.5 68t-63.5 28t-62.5 -28t-25.5 -68q0 -36 26 -66t62 -30t63 30t27 66z" />
    <glyph glyph-name="ogonek" unicode="&#x2db;" horiz-adv-x="884" 
d="M528 -78q-122 -27 -122 -106q0 -34 39.5 -61t111.5 -34v-102q-160 15 -237.5 66t-77.5 131q0 76 65.5 125t200.5 59z" />
    <glyph glyph-name="tilde" unicode="&#x2dc;" 
d="M565 1212q-45 0 -75.5 9.5t-67.5 42.5q-33 31 -57 44t-54 9q-31 -3 -46.5 -22t-18.5 -72h-164q3 131 53.5 201.5t143.5 70.5q46 0 79 -11.5t70 -45.5q23 -21 34 -30.5t30 -17.5t38 -6q32 3 48 24.5t20 76.5l164 -2q-9 -271 -197 -271z" />
    <glyph glyph-name="hungarumlaut" unicode="&#x2dd;" 
d="M631 1212h-176l145 295h209zM346 1212h-178l147 295h211z" />
    <glyph glyph-name="endash" unicode="&#x2013;" horiz-adv-x="909" 
d="M866 823v-248h-821v248h821z" />
    <glyph glyph-name="emdash" unicode="&#x2014;" horiz-adv-x="1280" 
d="M1184 825v-250h-1090v250h1090z" />
    <glyph glyph-name="quoteleft" unicode="&#x2018;" horiz-adv-x="436" 
d="M311 1409h62v-342h-299v350l184 225l125 -83l-82 -144z" />
    <glyph glyph-name="quoteright" unicode="&#x2019;" horiz-adv-x="436" 
d="M129 1282h-61v344h301v-352l-187 -223l-125 82l84 143z" />
    <glyph glyph-name="quotesinglbase" unicode="&#x201a;" horiz-adv-x="436" 
d="M129 0h-61v342h301v-346l-187 -229l-125 81l84 148z" />
    <glyph glyph-name="quotedblleft" unicode="&#x201c;" horiz-adv-x="827" 
d="M696 1399h60v-332h-285v338l184 237l125 -83l-92 -154zM301 1399h61v-332h-286v338l186 237l123 -83l-92 -154z" />
    <glyph glyph-name="quotedblright" unicode="&#x201d;" horiz-adv-x="827" 
d="M535 1294h-60v332h287v-340l-187 -235l-122 82l94 155zM141 1294h-61v332h289v-340l-189 -235l-123 82l95 155z" />
    <glyph glyph-name="quotedblbase" unicode="&#x201e;" horiz-adv-x="827" 
d="M535 0h-60v332h287v-338l-187 -238l-122 82l94 158zM141 0h-61v332h289v-338l-189 -238l-123 82l95 158z" />
    <glyph glyph-name="dagger" unicode="&#x2020;" horiz-adv-x="772" 
d="M743 1077v-231h-227v-848l-133 -221l-125 221v848h-231v231h233q-3 61 -3 183t3 244l2 122h248q1 -51 2.5 -122t3.5 -244.5t-2 -182.5h229z" />
    <glyph glyph-name="daggerdbl" unicode="&#x2021;" horiz-adv-x="772" 
d="M516 940v-217h215v-203h-213v-522l-131 -221l-123 221v522h-223v203h223v217h-223v205h223l-2 481h256v-481h213v-205h-215z" />
    <glyph glyph-name="bullet" unicode="&#x2022;" horiz-adv-x="778" 
d="M592 743q0 -82 -59 -140t-142 -58q-82 0 -140 58t-58 140q0 86 58 144.5t140 58.5q84 0 142.5 -58.5t58.5 -144.5z" />
    <glyph glyph-name="ellipsis" unicode="&#x2026;" horiz-adv-x="1740" 
d="M1599 348v-348h-303v348h303zM1020 348v-348h-303v348h303zM440 348v-348h-301v348h301z" />
    <glyph glyph-name="perthousand" unicode="&#x2030;" horiz-adv-x="2625" 
d="M856 1290v-129q0 -152 -105.5 -255t-285.5 -103q-184 0 -288.5 102.5t-104.5 255.5v129q0 74 23.5 137.5t70 114t123 79t176.5 28.5q81 0 147.5 -20.5t111 -55.5t75 -81.5t44 -97t13.5 -104.5zM1251 1587h154l-885 -1587h-158zM467 985q89 0 138.5 55t49.5 129v115
q0 70 -53 123t-137 53q-91 0 -143 -48.5t-52 -127.5v-113q0 -79 53.5 -132.5t143.5 -53.5zM2572 471v-131q0 -159 -100 -258.5t-297 -99.5q-181 0 -285 104.5t-104 253.5v131q0 69 24 131.5t70.5 114t124 82t174.5 30.5t174.5 -32t124 -85t70.5 -115t24 -126zM1724 471v-131
q0 -159 -100 -258.5t-299 -99.5q-181 0 -284 104.5t-103 253.5v131q0 69 24 131.5t70.5 114t124 82t174.5 30.5t174.5 -32t124 -85t70.5 -115t24 -126zM2179 166q99 0 146 54t47 132v113q0 68 -51.5 122t-141.5 54q-95 0 -143.5 -51t-48.5 -125v-113q0 -73 50.5 -129.5
t141.5 -56.5zM1331 166q99 0 146 54t47 132v113q0 68 -52 122t-141 54q-95 0 -143.5 -51t-48.5 -125v-113q0 -73 50.5 -129.5t141.5 -56.5z" />
    <glyph glyph-name="guilsinglleft" unicode="&#x2039;" horiz-adv-x="583" 
d="M547 489v-266l-504 412v172l504 414v-265l-301 -231z" />
    <glyph glyph-name="guilsinglright" unicode="&#x203a;" horiz-adv-x="583" 
d="M545 635l-506 -412v266l303 236l-303 231v265l506 -414v-172z" />
    <glyph glyph-name="fraction" unicode="&#x2044;" horiz-adv-x="380" 
d="M477 1622h125l-700 -1622h-121z" />
    <glyph glyph-name="Euro" unicode="&#x20ac;" horiz-adv-x="1325" 
d="M1241 371q-43 -197 -172 -293t-348 -96q-226 0 -350.5 92.5t-169.5 298.5q-18 78 -29 252h-145v155h141v60h-141v153h143q4 158 23 260q34 181 165.5 284t364.5 103q227 0 364 -105.5t164 -279.5q14 -97 17 -200h-273q-4 109 -10 145q-14 98 -81.5 152.5t-182.5 54.5
q-116 0 -183 -55t-79 -152q-8 -58 -15 -207h449v-153h-453v-60h453v-155h-449q7 -153 19 -213q37 -201 260 -201q114 0 174.5 49t81.5 152q6 31 14 135h269q-7 -111 -21 -176z" />
    <glyph glyph-name="uni2117" unicode="&#x2117;" horiz-adv-x="1341" 
d="M1282 1147q7 -101 0 -229q-11 -232 -171 -368t-435 -136q-280 0 -442.5 138t-170.5 366q-6 123 0 231q15 229 178.5 360t432.5 131q264 0 426.5 -129.5t181.5 -363.5zM674 500q244 0 378 114.5t142 327.5q4 108 0 195q-10 200 -148 306.5t-372 106.5q-114 0 -206.5 -24.5
t-162 -74t-110 -127.5t-45.5 -181q-1 -26 -1 -67.5t0.5 -84.5t0.5 -49q6 -213 145.5 -327.5t378.5 -114.5zM786 905h-227v-243h-192v708h385q133 0 202 -59q37 -30 54.5 -77t17.5 -93q0 -45 -14.5 -92.5t-42.5 -77.5q-28 -31 -79 -48.5t-104 -17.5zM733 1044q34 0 51.5 5.5
t30.5 23.5q16 16 16 57q0 37 -20 60q-14 18 -30.5 22.5t-49.5 4.5h-172v-173h174z" />
    <glyph glyph-name="trademark" unicode="&#x2122;" horiz-adv-x="1642" 
d="M1589 1040h-203v332q0 84 -81 84q-40 0 -65.5 -30t-25.5 -76v-310h-196v340q0 36 -22 56t-58 20q-41 0 -68.5 -32.5t-27.5 -77.5v-306h-197v592h195v-94q18 50 72 77t120 27q68 0 108.5 -29t53.5 -79q19 56 74 82t121 26q100 0 150 -53t50 -129v-420zM592 1632v-176h-211
v-172q0 -80 90 -80h86v-162q-40 -8 -158 -8q-92 0 -146 46.5t-54 127.5v248h-185v176h578z" />
    <glyph glyph-name="minus" unicode="&#x2212;" horiz-adv-x="1058" 
d="M989 885v-211h-923v211h923z" />
    <glyph glyph-name="radical" unicode="&#x221a;" horiz-adv-x="1355" 
d="M1067 1626h272l-637 -1665h-321l-358 698h270l239 -475z" />
    <glyph glyph-name="apple" unicode="&#xf8ff;" horiz-adv-x="1001" 
d="M260 825q0 90 60 158t147 82l2 369h-459v194h981v-194h-461l5 -369q87 -14 146.5 -82t59.5 -158q0 -92 -60.5 -160t-148.5 -79l-4 -363h463v-213h-981v213h457l-2 363q-87 12 -146 80t-59 159zM809 1063q-32 -5 -104 -27q6 8 30.5 38.5t32.5 43.5q22 31 48 7
q21 -19 16 -43q-5 -15 -23 -19zM233 1110q8 -13 32.5 -43t31.5 -39q-72 22 -104 27q-29 5 -23 35q5 26 27 35q20 7 36 -15zM676 825q0 64 -42 113t-104 61v-96l-32 -69l-29 69v96q-62 -12 -103.5 -61t-41.5 -113t40.5 -112t102.5 -60v97l31 67l30 -67v-97q62 11 105 59.5
t43 112.5zM770 547q-8 13 -32.5 43.5t-30.5 38.5q72 -22 104 -27q29 -5 23 -35q-6 -26 -27 -34q-21 -9 -37 14zM178 590q41 7 105 26q-8 -10 -32 -39t-32 -42q-22 -31 -48 -7q-21 19 -16 43q5 15 23 19z" />
    <glyph glyph-name="nbspace" horiz-adv-x="245" 
 />
    </font>
</defs>
</svg>
