<?xml version="1.0" standalone="no"?>
<!DOCTYPE svg PUBLIC "-//W3C//DTD SVG 1.1//EN" "http://www.w3.org/Graphics/SVG/1.1/DTD/svg11.dtd" >
<svg xmlns="http://www.w3.org/2000/svg" xmlns:xlink="http://www.w3.org/1999/xlink" version="1.1">
<metadata>
Created by FontForge 20170731 at Fri Sep  2 19:16:37 2022
 By Aleksey,,,
[c] Copyright 2003-2004, The Font Bureau, Inc. Designed by David Berlow. All rights reserved.
</metadata>
<defs>
<font id="TitlingGothicFBCompressed-Medium" horiz-adv-x="813" >
  <font-face 
    font-family="TitlingGothicFBComp Medium"
    font-weight="500"
    font-stretch="extra-condensed"
    units-per-em="2048"
    panose-1="0 0 0 0 0 0 0 0 0 0"
    ascent="1638"
    descent="-410"
    x-height="1126"
    cap-height="1634"
    bbox="-182 -410 1870 2048"
    underline-thickness="40"
    underline-position="-312"
    unicode-range="U+0020-FB04"
  />
<missing-glyph horiz-adv-x="1024" 
d="M102 -410v2048h820v-2048h-820zM205 -307h614v1843h-614v-1843z" />
    <glyph glyph-name="f_f" unicode="ff" horiz-adv-x="964" 
d="M561 887h-184v-887h-273v887h-94v239h94v242q0 126 64.5 200t208.5 74q85 0 131 -6v-221q-4 0 -30 2t-32 2q-71 0 -71 -86v-207h186v232q0 129 65 206.5t208 77.5q80 0 127 -6v-221q-7 0 -29.5 2t-34.5 2q-66 0 -66 -71v-222h125v-239h-125v-887h-270v887z" />
    <glyph glyph-name="f_f_i" unicode="ffi" horiz-adv-x="1372" 
d="M1022 78v815h-191v-893h-270v893h-184v-893h-273v887h-94v239h94v242q0 126 64.5 200t208.5 74q85 0 131 -6v-221q-4 0 -30 2t-32 2q-71 0 -71 -86v-207h186v232q0 129 65 206.5t208 77.5q80 0 127 -6v-221q-7 0 -29.5 2t-34.5 2q-66 0 -66 -71v-222h472v-1044
q0 -19 2.5 -38.5t6 -31t5.5 -12.5h-277q-7 1 -12.5 24t-5.5 54z" />
    <glyph glyph-name="f_f_l" unicode="ffl" horiz-adv-x="1370" 
d="M561 887h-184v-887h-273v887h-94v239h94v242q0 126 64.5 200t208.5 74q85 0 131 -6v-221q-4 0 -30 2t-32 2q-71 0 -71 -86v-207h186v232q0 129 65 206.5t208 77.5q84 0 127 -6v-221q-28 4 -64 4q-66 0 -66 -71v-222h123v-239h-123v-887h-270v887zM1298 84q0 -74 13 -84
q-273 -2 -273 0q-12 9 -12 78v1460q0 80 -6 98h274q0 -1 1 -10.5t2 -26t1 -32.5v-1483z" />
    <glyph glyph-name="f_i" unicode="fi" horiz-adv-x="923" 
d="M575 78v815h-190v-893h-274v887h-101v239h101v242q0 126 71.5 200t223.5 74q82 0 131 -6v-221q-32 4 -66 4q-42 0 -64 -26t-22 -72v-195h471v-1044q0 -19 2.5 -38.5t5.5 -31t4 -12.5h-276q-17 7 -17 78z" />
    <glyph glyph-name="f_l" unicode="fl" horiz-adv-x="917" 
d="M104 887h-94v239h94v242q0 126 65.5 200t209.5 74q83 0 127 -6v-221q-28 4 -64 4q-65 0 -65 -71v-222h123v-239h-121v-887h-275v887zM844 84q0 -75 12 -84q-270 -2 -270 0q-15 9 -15 78v1460q0 74 -4 98h273q0 -1 1 -10.5t2 -26t1 -32.5v-1483z" />
    <glyph glyph-name=".notdef" horiz-adv-x="1024" 
d="M102 -410v2048h820v-2048h-820zM205 -307h614v1843h-614v-1843z" />
    <glyph glyph-name=".null" horiz-adv-x="0" 
 />
    <glyph glyph-name="nonmarkingreturn" horiz-adv-x="682" 
 />
    <glyph glyph-name="space" unicode=" " horiz-adv-x="311" 
 />
    <glyph glyph-name="exclam" unicode="!" horiz-adv-x="432" 
d="M63 1632h306l-33 -1188h-242zM356 356v-356h-280v356h280z" />
    <glyph glyph-name="quotedbl" unicode="&#x22;" horiz-adv-x="681" 
d="M379 1634h272l-10 -641h-252zM29 1634h266l-12 -641h-242z" />
    <glyph glyph-name="numbersign" unicode="#" horiz-adv-x="817" 
d="M659 1081h142l-21 -207h-141l-18 -163h149l-20 -205h-150l-51 -524h-168l51 524h-113l-51 -524h-168l52 524h-142l23 205h139q14 153 16 163h-147l22 207h148l49 500h168l-49 -500h115l47 500h168q-46 -486 -50 -500zM453 711q16 153 18 163h-113l-18 -163h113z" />
    <glyph glyph-name="dollar" unicode="$" horiz-adv-x="851" 
d="M27 1253q0 154 82.5 253.5t242.5 117.5v43h154v-45q276 -36 307 -326q6 -47 6 -159h-276q0 81 -6 133q-11 108 -113 108q-117 0 -117 -127q0 -88 49 -153.5t201 -184.5q110 -86 164.5 -152t80 -151t25.5 -215q0 -166 -82.5 -265.5t-238.5 -119.5v-110h-154v108
q-153 13 -236 88.5t-91 206.5q-2 25 -2 164h278q0 -86 4 -129q5 -46 37 -72t88 -26q111 0 111 135q0 52 -4 83.5t-17 67t-42 67t-74 69t-117 88.5q-109 95 -160.5 160.5t-75.5 144t-24 198.5z" />
    <glyph glyph-name="percent" unicode="%" horiz-adv-x="1284" 
d="M616 1350v-222q0 -141 -75 -224t-215 -83t-211.5 82.5t-71.5 224.5v222q0 134 73 220.5t216 86.5q76 0 133 -26t89 -70.5t47 -97t15 -113.5zM909 1595h148l-701 -1595h-149zM332 1022q84 0 84 117v209q0 44 -23 73t-61 29q-42 0 -64 -27.5t-22 -74.5v-207q0 -119 86 -119
zM1239 512v-223q0 -142 -73.5 -223.5t-219.5 -81.5q-140 0 -211 82.5t-71 222.5v223q0 131 73.5 219t214.5 88q75 0 132.5 -26t90 -71t48.5 -97.5t16 -112.5zM952 184q86 0 86 117v209q0 44 -22.5 73t-63.5 29q-44 0 -65 -28t-21 -74v-209q0 -117 86 -117z" />
    <glyph glyph-name="ampersand" unicode="&#x26;" horiz-adv-x="1077" 
d="M752 1243q-2 -64 -20 -125t-54 -121t-66 -101t-80 -103q70 -134 164 -289q39 106 39 252h248q0 -298 -100 -490q8 -11 192 -266h-319q-8 15 -25.5 43.5t-25.5 42.5q-108 -98 -279 -98q-181 0 -290 78.5t-118 240.5q-2 26 -2 78.5t2 77.5q1 55 17.5 106.5t47.5 100
t61 85.5t75 85q-110 219 -110 372v131q5 127 90 213t245 86q141 0 221.5 -83.5t86.5 -210.5v-105zM362 1206q0 -77 46 -194q96 132 98 231v64q-3 82 -68 82q-73 0 -76 -91q-2 -13 -2.5 -46t2.5 -46zM549 270q-68 115 -189 346q-75 -110 -75 -219q0 -94 34.5 -131t108.5 -39
q77 -4 121 43z" />
    <glyph glyph-name="quotesingle" unicode="'" horiz-adv-x="378" 
d="M53 1634h273l-13 -678h-250z" />
    <glyph glyph-name="parenleft" unicode="(" horiz-adv-x="501" 
d="M330 743q0 -233 49 -477t115 -409h-295q-67 154 -116.5 398t-49.5 493q0 240 52 486.5t114 399.5h295q-62 -169 -113 -418t-51 -473z" />
    <glyph glyph-name="parenright" unicode=")" horiz-adv-x="501" 
d="M309 1634q62 -153 114 -399.5t52 -486.5q0 -247 -49.5 -491t-116.5 -400h-297q67 163 115.5 407.5t48.5 478.5q0 226 -51 476t-113 415h297z" />
    <glyph glyph-name="asterisk" unicode="*" horiz-adv-x="860" 
d="M518 1649l-4 -250l213 92l59 -174l-225 -86l160 -189l-143 -112l-150 192l-149 -190l-144 112l160 185l-225 88l57 174l217 -92l-4 250h178z" />
    <glyph glyph-name="plus" unicode="+" horiz-adv-x="743" 
d="M717 924v-240h-225v-254h-240v254h-227v240h227v252h242v-252h223z" />
    <glyph glyph-name="comma" unicode="," horiz-adv-x="440" 
d="M369 369v-377l-174 -217l-140 65l84 154l-4 6h-65v369h299z" />
    <glyph glyph-name="hyphen" unicode="-" horiz-adv-x="614" 
d="M596 946v-289h-578v289h578z" />
    <glyph glyph-name="period" unicode="." horiz-adv-x="440" 
d="M373 369v-369h-305v369h305z" />
    <glyph glyph-name="slash" unicode="/" horiz-adv-x="411" 
d="M248 1636h170l-291 -1966h-168z" />
    <glyph glyph-name="zero" unicode="0" horiz-adv-x="874" 
d="M55 1335q50 316 383 316q173 0 271.5 -90t109.5 -224q21 -243 21 -518q0 -109 -7.5 -261t-19.5 -239q-45 -335 -375 -335q-174 0 -262.5 83.5t-114.5 251.5q-11 78 -18.5 233.5t-7.5 266.5q0 377 20 516zM539 350q6 99 6 473q0 301 -4 445q-6 123 -105 123
q-52 0 -78 -32.5t-26 -92.5q0 -81 -3 -240.5t-3 -208.5q0 -287 10 -467q9 -119 102 -119q95 0 101 119z" />
    <glyph glyph-name="one" unicode="1" horiz-adv-x="604" 
d="M532 1636v-1636h-286v1253l-226 -10v236q224 15 291 157h221z" />
    <glyph glyph-name="two" unicode="2" horiz-adv-x="851" 
d="M819 264v-264h-786v254q25 56 73.5 128.5t99.5 137.5t106 145.5t98 155t72.5 163.5t31.5 173v117q0 68 -24 92.5t-72 24.5q-93 0 -96 -105v-192h-287q0 200 2 233q2 62 28 119t74 103.5t125.5 74t173.5 27.5q358 0 383 -316q1 -22 0.5 -98t-2.5 -104q-6 -99 -48.5 -209
t-103.5 -207t-121 -180t-117 -159t-77 -114h467z" />
    <glyph glyph-name="three" unicode="3" horiz-adv-x="849" 
d="M784 1155q-7 -113 -67.5 -190.5t-181.5 -90.5q126 -9 199.5 -75t84.5 -176q6 -62 6 -160t-6 -164q-14 -147 -119 -231t-284 -84q-176 0 -273.5 72t-109.5 206q-13 155 -13 258h287q0 -29 -0.5 -68.5t-0.5 -55t1.5 -41t5.5 -56.5q9 -76 97 -76q100 0 106 105q8 138 0 254
q-6 68 -41 98.5t-113 34.5l-149 2v256h158q66 6 93.5 34.5t35.5 90.5q4 38 5.5 114t-1.5 99q-4 45 -25.5 64.5t-62.5 19.5q-85 0 -92 -92q-5 -113 -5 -175h-268q0 191 6 238q13 121 108.5 203t256.5 82q172 0 263.5 -80t100.5 -217q4 -86 -2 -199z" />
    <glyph glyph-name="four" unicode="4" horiz-adv-x="888" 
d="M883 586v-252h-133v-334h-277v334h-459v268l422 1034h314v-1050h133zM262 586h211v516z" />
    <glyph glyph-name="five" unicode="5" horiz-adv-x="839" 
d="M801 852q6 -80 6 -273.5t-6 -291.5q-4 -61 -28 -113.5t-69.5 -96t-121.5 -68.5t-174 -25q-359 0 -375 309q-2 34 -2.5 100.5t-1.5 89.5h286q0 -92 4 -149q3 -55 23.5 -82t65.5 -27t65 26t23 81q2 40 1.5 195.5t-3.5 215.5q-1 52 -20 74.5t-60 22.5q-46 0 -68 -29.5
t-22 -93.5h-277v917h713v-270h-449v-350q25 50 74.5 73t136.5 23q119 0 194.5 -69.5t84.5 -188.5z" />
    <glyph glyph-name="six" unicode="6" horiz-adv-x="868" 
d="M807 840q24 -90 22 -314t-28 -303q-77 -239 -355 -239q-283 0 -362 241q-47 143 -47 594q0 335 22 498q23 154 116.5 244t262.5 90q319 0 363 -281q6 -37 6 -199h-270q0 83 -2 99q-6 64 -28 92.5t-73 28.5t-76 -35.5t-28 -110.5q-6 -189 -6 -309q33 41 92 62.5t129 21.5
q104 0 172 -47.5t90 -132.5zM438 227q89 0 97 97q3 38 3 180.5t-3 179.5q-3 48 -24.5 72t-66.5 24q-47 0 -79.5 -32.5t-40.5 -73.5q0 -62 3.5 -185.5t6.5 -154.5q8 -107 104 -107z" />
    <glyph glyph-name="seven" unicode="7" horiz-adv-x="741" 
d="M735 1634v-239l-336 -1395h-311l346 1364h-428v270h729z" />
    <glyph glyph-name="eight" unicode="8" horiz-adv-x="876" 
d="M842 672q7 -62 7 -177t-5 -198q-9 -150 -114 -231.5t-296 -81.5q-104 0 -177.5 19.5t-120 60t-71 97t-34.5 136.5q-7 44 -5 177.5t13 209.5q12 86 62.5 138t107.5 69q-55 13 -95.5 67t-47.5 140q-4 38 -5.5 137.5t2.5 146.5q6 56 28 101.5t63 84.5t112.5 61t167.5 22
q94 0 167 -23t116 -62t66 -85t28 -99q11 -128 -2 -276q-8 -79 -50 -138.5t-104 -78.5q68 -12 122.5 -73t64.5 -144zM434 995q85 0 90 70q4 51 4 147.5t-4 116.5q-14 76 -90 76q-33 0 -57.5 -19t-30.5 -57q-3 -18 -2.5 -129t4.5 -133q8 -42 28.5 -57t57.5 -15zM434 227
q45 0 74 24t35 66q6 54 6 180t-6 169q-14 88 -109 88t-106 -90q-6 -41 -6 -172.5t6 -172.5q6 -43 34.5 -67.5t71.5 -24.5z" />
    <glyph glyph-name="nine" unicode="9" horiz-adv-x="858" 
d="M825 840q0 -134 -6.5 -301.5t-17.5 -237.5q-51 -317 -381 -317q-154 0 -245.5 70.5t-111.5 203.5q-10 71 -10 191h273q0 -95 2 -113q4 -58 28 -80.5t72 -22.5q45 0 72 29.5t30 85.5q5 185 5 332q-69 -78 -209 -78q-102 0 -171.5 44.5t-93.5 131.5q-25 86 -23 314.5
t28 320.5q32 109 125.5 173.5t238.5 64.5q271 0 346 -226q49 -149 49 -585zM430 836q43 0 69.5 22.5t35.5 50.5q3 29 -0.5 187.5t-6.5 195.5q-9 103 -102 103q-40 0 -67 -25.5t-31 -69.5q-3 -42 -3.5 -186t3.5 -186q5 -42 31.5 -67t70.5 -25z" />
    <glyph glyph-name="colon" unicode=":" horiz-adv-x="421" 
d="M354 1102v-350h-278v350h278zM354 350v-350h-278v350h278z" />
    <glyph glyph-name="semicolon" unicode=";" horiz-adv-x="421" 
d="M354 1102v-350h-272v350h272zM354 350v-354l-168 -225l-125 79l78 144l-6 6h-51v350h272z" />
    <glyph glyph-name="less" unicode="&#x3c;" horiz-adv-x="763" 
d="M268 764l449 -164v-248l-686 273v278l686 273v-252z" />
    <glyph glyph-name="equal" unicode="=" horiz-adv-x="733" 
d="M709 1081v-229h-680v229h680zM709 739v-229h-680v229h680z" />
    <glyph glyph-name="greater" unicode="&#x3e;" horiz-adv-x="763" 
d="M727 625l-686 -273v248l448 164l-448 160v252l686 -273v-278z" />
    <glyph glyph-name="question" unicode="?" horiz-adv-x="800" 
d="M768 1380q5 -62 0 -192q-3 -61 -27 -120.5t-58 -105.5t-72.5 -103t-70 -112t-51 -134.5t-16.5 -168.5h-235q-6 129 15.5 233t57.5 170t72.5 121t64 113.5t29.5 118.5v119q-2 49 -23 73.5t-69 24.5q-42 0 -66 -24t-26 -66q-2 -20 -2 -149h-262q0 115 6 208
q11 122 108.5 192.5t262.5 70.5q170 0 261.5 -68.5t100.5 -200.5zM502 356v-356h-285v356h285z" />
    <glyph glyph-name="at" unicode="@" horiz-adv-x="1452" 
d="M805 1561q124 0 228 -36.5t177 -101.5t122 -153.5t69.5 -194t13.5 -221.5q-12 -221 -105.5 -354t-246.5 -133q-79 0 -129 38.5t-57 118.5q-36 -74 -109 -114.5t-166 -40.5q-137 0 -207.5 91.5t-58.5 262.5q8 130 54 235t131 170.5t196 65.5q73 0 121.5 -32.5t66.5 -86.5
l21 90l186 2q-7 -53 -22.5 -138.5t-37.5 -200.5t-24 -123q-28 -152 78 -152q78 0 119 81.5t49 223.5q18 273 -107 437.5t-370 164.5q-125 0 -237.5 -46.5t-198.5 -132t-140.5 -215t-62.5 -286.5q-7 -147 16.5 -265t71.5 -198.5t118.5 -134.5t154.5 -78t183 -24
q224 0 396 135l55 -94q-92 -67 -196 -106.5t-261 -39.5q-119 0 -221 29t-186.5 92t-142 156t-86 227.5t-21.5 300.5q7 172 67.5 318t161 247.5t239 158.5t298.5 57zM817 725q27 119 31 156q2 25 -7 52t-35.5 49t-64.5 22q-69 0 -122 -66t-66 -182q-7 -62 -3.5 -106
t28.5 -67.5t73 -23.5q67 0 108 47t58 119z" />
    <glyph glyph-name="A" unicode="A" horiz-adv-x="935" 
d="M580 395h-224l-57 -395h-299l272 1634h420l244 -1634h-303zM385 637h168q-61 475 -61 483q-4 38 -8 100t-6 105l-1 43q-4 -160 -18 -248z" />
    <glyph glyph-name="B" unicode="B" horiz-adv-x="974" 
d="M938 446q0 -232 -72 -331q-50 -67 -122.5 -91t-194.5 -24h-486v1634h517q208 0 278 -123q51 -89 51 -268q0 -200 -45 -295q-23 -46 -57 -70.5t-86 -33.5q115 -14 168 -111q49 -87 49 -287zM578 989q22 49 22 180q0 97 -25 162q-24 60 -81 60h-138v-457h158q39 0 64 55z
M502 244q71 0 96 57q20 44 20 178q0 45 -6 97t-16 71q-32 58 -88 58h-152v-461h146z" />
    <glyph glyph-name="C" unicode="C" horiz-adv-x="940" 
d="M621 590h290q0 -195 -18 -299q-28 -153 -127.5 -231t-284.5 -78q-313 0 -387 251q-57 182 -57 592q0 169 10 284.5t37 242.5q31 148 132.5 221.5t281.5 73.5q184 0 278.5 -86t116.5 -254q16 -125 16 -273h-291q0 129 -20 246q-6 39 -34 62.5t-72 23.5q-97 0 -119 -90
q-23 -97 -23 -449q0 -339 23 -469q10 -52 42 -77t77 -25q103 0 116 109t13 225z" />
    <glyph glyph-name="D" unicode="D" horiz-adv-x="933" 
d="M897 852q0 -285 -15 -452.5t-59 -243.5t-113.5 -116t-187.5 -40h-459v1634h422q129 0 206.5 -34.5t131.5 -114.5q74 -108 74 -633zM489 236q83 0 103 83q9 43 13.5 229.5t4.5 303.5q0 93 -5.5 244.5t-14.5 187.5q-23 96 -113 96h-119v-1144h131z" />
    <glyph glyph-name="E" unicode="E" 
d="M788 276v-276h-725v1634h721v-280h-422v-398h394v-266h-394v-414h426z" />
    <glyph glyph-name="F" unicode="F" horiz-adv-x="800" 
d="M786 1634v-280h-424v-398h392v-274h-392v-682h-299v1634h723z" />
    <glyph glyph-name="G" unicode="G" horiz-adv-x="940" 
d="M903 381v-80t0.5 -78t1 -70t1 -61.5t1 -48t0.5 -31.5v-12h-221l-14 74q-68 -88 -250 -88q-131 0 -221.5 70.5t-122.5 203.5q-41 172 -41 553q0 403 41 559q14 53 42 99t74 88t119.5 66t165.5 24q185 0 281 -75.5t117 -197.5q18 -111 18 -301h-293q0 125 -8 209
q-4 49 -32.5 74.5t-76.5 25.5q-45 0 -75 -25t-37 -75q-23 -162 -23 -471q0 -338 25 -467q11 -56 38.5 -82t78.5 -26q58 0 92 32.5t37 94.5v301h-166v258h448v-543z" />
    <glyph glyph-name="H" unicode="H" horiz-adv-x="960" 
d="M897 1634v-1634h-299v686h-238v-686h-297v1634h297v-682h238v682h299z" />
    <glyph glyph-name="I" unicode="I" horiz-adv-x="436" 
d="M375 1634v-1634h-312v1634h312z" />
    <glyph glyph-name="J" unicode="J" horiz-adv-x="610" 
d="M553 1634v-1296q0 -186 -90 -267t-283 -81q-84 0 -164 12v256q62 -7 127 -4q59 3 86 38t27 89v1253h297z" />
    <glyph glyph-name="K" unicode="K" horiz-adv-x="972" 
d="M625 936l348 -936h-311l-236 662l-66 -125v-537h-297v1634h297v-649l320 649h291z" />
    <glyph glyph-name="L" unicode="L" horiz-adv-x="806" 
d="M795 276v-276h-732v1634h299v-1358h433z" />
    <glyph glyph-name="M" unicode="M" horiz-adv-x="1292" 
d="M1231 1634v-1634h-273l3 1008l-181 -1008h-264l-180 1006l2 -1006h-275v1634h400l186 -1030l197 1030h385z" />
    <glyph glyph-name="N" unicode="N" horiz-adv-x="946" 
d="M883 1634v-1634h-283l-258 815v-815h-279v1634h285l256 -798v798h279z" />
    <glyph glyph-name="O" unicode="O" horiz-adv-x="960" 
d="M63 1319q72 328 416 328q184 0 282.5 -76.5t133.5 -233.5q29 -139 29 -506q0 -198 -7 -305.5t-26 -218.5q-56 -325 -412 -325q-180 0 -276.5 78t-130.5 225q-35 149 -35 536q0 376 26 498zM371 336q13 -46 38 -69t74 -23q87 0 115 94q27 89 27 479q0 302 -25 455
q-9 60 -36 85t-81 25q-55 0 -79 -25.5t-39 -86.5q-23 -104 -23 -457q0 -373 29 -477z" />
    <glyph glyph-name="P" unicode="P" horiz-adv-x="933" 
d="M821 1518q82 -105 82 -392t-86 -391q-81 -102 -272 -114l-180 -3v-618h-302v1634h486q184 0 272 -116zM590 950q12 66 12 164q0 124 -20 182q-9 27 -35 44.5t-60 17.5h-122v-484h114q100 0 111 76z" />
    <glyph glyph-name="Q" unicode="Q" horiz-adv-x="960" 
d="M891 311q-31 -180 -154 -262q4 -4 21.5 -18.5t27.5 -24.5q62 -46 72 -49l-164 -217q-16 9 -67 48t-95 77q-86 75 -129 125q-143 17 -221.5 92.5t-109.5 206.5q-35 149 -35 532q0 376 26 498q72 328 416 328q184 0 282.5 -76.5t133.5 -233.5q29 -139 29 -506
q0 -197 -7 -303t-26 -217zM371 328q13 -46 38 -69t74 -23q87 0 115 94q27 89 27 483q0 306 -25 459q-9 60 -36 85t-81 25q-55 0 -79 -25.5t-39 -86.5q-23 -104 -23 -461q0 -377 29 -481z" />
    <glyph glyph-name="R" unicode="R" horiz-adv-x="952" 
d="M834 1487q57 -111 57 -326q0 -184 -39 -276q-18 -46 -48.5 -79t-62.5 -44l199 -762h-309l-164 680h-107v-680h-297v1634h492q96 0 170 -38t109 -109zM573 985q17 41 17 148q0 111 -8 151q-17 78 -86 78h-136v-430q134 0 144 2q57 6 69 51z" />
    <glyph glyph-name="S" unicode="S" horiz-adv-x="880" 
d="M627 854q120 -113 172.5 -214.5t52.5 -256.5q0 -188 -111.5 -294.5t-298.5 -106.5q-191 0 -295.5 75t-115.5 213q-4 51 -4 195h284q0 -122 4 -146q14 -90 119 -90q60 0 91.5 32.5t31.5 94.5q0 101 -35 168t-127 150q-114 103 -147 131q-60 53 -98 95.5t-69 96.5
t-44.5 118t-13.5 145q0 180 110.5 285.5t302.5 105.5q95 0 167.5 -25.5t118.5 -72t72.5 -105t36.5 -131.5q13 -114 13 -168h-287q0 62 -8 133q-6 53 -32.5 80t-82.5 27q-61 0 -90 -29.5t-29 -93.5q0 -78 41 -141t121 -136q14 -13 47.5 -43t61 -54.5t41.5 -37.5z" />
    <glyph glyph-name="T" unicode="T" 
d="M809 1634v-280h-252v-1354h-303v1354h-248v280h803z" />
    <glyph glyph-name="U" unicode="U" horiz-adv-x="944" 
d="M889 1634v-1265q0 -181 -110.5 -283t-301.5 -102q-192 0 -308 99t-116 290v1261h297v-1253q0 -137 123 -137q56 0 86.5 35.5t30.5 99.5v1255h299z" />
    <glyph glyph-name="V" unicode="V" horiz-adv-x="933" 
d="M629 1634h301l-283 -1634h-375l-270 1634h305l162 -1216z" />
    <glyph glyph-name="W" unicode="W" horiz-adv-x="1409" 
d="M1110 1634h297l-223 -1634h-355q-119 848 -127 1018q-1 -76 -32.5 -330.5t-63.5 -471.5l-31 -216h-346l-229 1634h305q119 -1030 119 -1192q0 72 33 370t67 560l33 262h297q141 -1030 141 -1192q0 72 28.5 370t57.5 560z" />
    <glyph glyph-name="X" unicode="X" horiz-adv-x="962" 
d="M655 0l-182 479l-186 -479h-283l340 825l-317 809h301l164 -438l174 438h282l-321 -786l329 -848h-301z" />
    <glyph glyph-name="Y" unicode="Y" horiz-adv-x="985" 
d="M690 1634h295l-352 -1022v-612h-299v606l-334 1028h305q160 -598 178 -682z" />
    <glyph glyph-name="Z" unicode="Z" horiz-adv-x="837" 
d="M825 276v-276h-807v248l463 1106h-430v280h764v-243l-467 -1115h477z" />
    <glyph glyph-name="bracketleft" unicode="[" horiz-adv-x="479" 
d="M455 -119v-217h-400v1970h400v-227h-136v-1526h136z" />
    <glyph glyph-name="backslash" unicode="\" horiz-adv-x="411" 
d="M287 -330l-293 1966h170l291 -1966h-168z" />
    <glyph glyph-name="bracketright" unicode="]" horiz-adv-x="481" 
d="M424 -336h-397v217h133v1530h-133v223h397v-1970z" />
    <glyph glyph-name="asciicircum" unicode="^" horiz-adv-x="929" 
d="M741 1106l-276 313l-277 -313l-165 162l327 377h232l327 -377z" />
    <glyph glyph-name="underscore" unicode="_" horiz-adv-x="675" 
d="M676 -82v-244h-676v244h676z" />
    <glyph glyph-name="grave" unicode="`" horiz-adv-x="768" 
d="M422 1499l141 -299h-258l-176 299h293z" />
    <glyph glyph-name="a" unicode="a" horiz-adv-x="806" 
d="M756 201q0 -181 14 -201h-260q-3 0 -6.5 30t-3.5 52q-73 -90 -228 -90q-98 0 -168.5 50t-76.5 163q-7 83 0 180q7 120 93.5 197t231.5 104q89 14 144 14q0 101 -2 136q-3 77 -80 77q-51 0 -73 -28t-22 -88v-64h-253v84q0 162 84 243t268 81q330 0 340 -258q5 -119 0 -373
q0 -45 -1 -156.5t-1 -152.5zM496 430q1 10 1 27t-0.5 35t-0.5 22q-41 0 -66 -4q-65 -13 -94 -39q-24 -21 -30.5 -45t-6.5 -66q0 -69 4 -102q8 -53 80 -53q36 0 65.5 20t36.5 60q4 26 6 48t3 50t2 47z" />
    <glyph glyph-name="b" unicode="b" horiz-adv-x="835" 
d="M319 1034q21 48 76.5 77.5t132.5 29.5q192 0 246 -187q31 -107 31 -372q0 -186 -31 -357q-19 -102 -88.5 -165.5t-167.5 -63.5q-140 0 -209 80l-30 -76h-226v1636h266v-602zM518 821q-12 86 -90 86q-42 0 -69.5 -29.5t-30.5 -72.5q-11 -154 -11 -238q0 -188 13 -282
q12 -86 96 -86q39 0 62 23.5t28 62.5q12 94 12 282q0 193 -10 254z" />
    <glyph glyph-name="c" unicode="c" horiz-adv-x="782" 
d="M735 936q21 -74 21 -268h-256q0 66 -13 159q-11 82 -84 82q-74 0 -86 -84q-16 -107 -16 -264q0 -152 16 -264q6 -43 27.5 -62.5t61.5 -19.5q38 0 60.5 23.5t27.5 60.5q8 59 8 154h254q0 -123 -6.5 -176t-34.5 -123q-29 -74 -109.5 -121t-199.5 -47q-120 0 -201 43
t-115 121q-25 56 -41 171t-16 242q0 125 11.5 209.5t41.5 175.5q31 91 113.5 142t201.5 51q148 0 225.5 -54t108.5 -151z" />
    <glyph glyph-name="d" unicode="d" horiz-adv-x="821" 
d="M76 961q22 83 87 129.5t156 46.5q65 0 116.5 -24.5t74.5 -68.5v592h268v-1478l8 -158h-229l-33 82q-58 -90 -205 -90q-170 0 -229 147q-57 139 -57 420q0 242 43 402zM492 842q-13 61 -84 61q-37 0 -60 -20t-29 -52q-18 -105 -18 -274q0 -160 14 -278q10 -70 91 -70
q74 0 88 76q18 93 18 272q0 183 -20 285z" />
    <glyph glyph-name="e" unicode="e" horiz-adv-x="790" 
d="M508 367h250q0 -41 -12.5 -112t-40.5 -120q-83 -149 -293 -149q-250 0 -318 159q-61 141 -61 412q0 125 14.5 231.5t38.5 163.5q77 189 322 189q116 0 196.5 -49.5t116.5 -137.5q28 -70 39.5 -203t3.5 -282h-465q0 -116 8 -184q4 -39 32 -59.5t62 -20.5t61 15.5t34 47.5
q12 53 12 99zM295 670h211q0 137 -14 184q-16 61 -89 61q-71 0 -92 -59q-16 -40 -16 -186z" />
    <glyph glyph-name="f" unicode="f" horiz-adv-x="538" 
d="M532 1126v-239h-147v-887h-274v887h-101v239h101v244q0 125 65 200t209 75q108 0 162 -7v-223q-41 6 -82 6q-38 0 -59 -26t-21 -60v-209h147z" />
    <glyph glyph-name="g" unicode="g" horiz-adv-x="860" 
d="M63 872q3 112 95.5 192.5t261.5 80.5q182 0 254 -80q60 72 194 68v-162q-114 0 -120 -6q11 -21 19.5 -62.5t8.5 -79.5q0 -178 -8 -235q-19 -112 -106 -176t-226 -64q-81 0 -149 35q-47 -6 -47 -47q0 -12 3.5 -20t14.5 -14t25.5 -9t43.5 -5t59.5 -2.5t82.5 -0.5
q114 0 193 -20t121.5 -59t60.5 -87t18 -113q0 -141 -109.5 -216t-314.5 -75q-428 0 -428 226q0 69 36.5 107.5t107.5 66.5q-66 9 -100 52t-34 107q0 59 38 106t96 66q-32 21 -58 68t-30 107q-3 35 -4 130t1 121zM512 848q-6 72 -90 72q-87 0 -90 -86q0 -4 -0.5 -56t-0.5 -97
t1 -60q2 -38 24.5 -60t65.5 -22q87 0 90 82q2 20 2 108t-2 119zM242 -6q0 -42 45 -61t145 -19q97 0 143 20t46 64q0 39 -41 54.5t-148 21.5q-24 1 -69 1t-58 1q-27 -14 -37 -21t-18 -22t-8 -39z" />
    <glyph glyph-name="h" unicode="h" 
d="M766 866q0 -866 4 -866h-274q-2 0 -2 817q0 84 -78 84q-41 0 -66.5 -30t-25.5 -87v-784h-271v1636h271v-614q49 119 206 119q110 0 173 -66.5t63 -208.5z" />
    <glyph glyph-name="i" unicode="i" horiz-adv-x="391" 
d="M340 1462v-276h-289v276h289zM336 82q0 -76 6 -82h-276q-11 0 -11 78v1048h281v-1044z" />
    <glyph glyph-name="j" unicode="j" horiz-adv-x="393" 
d="M340 1462v-276h-287v276h287zM336 1126v-1237q0 -121 -74 -184t-201 -63q-126 0 -155 10v229h55q51 0 74.5 18.5t23.5 63.5v1163h277z" />
    <glyph glyph-name="k" unicode="k" horiz-adv-x="817" 
d="M596 717l223 -717h-274l-142 467l-79 -129v-338h-271v1636h271v-942l219 432h266z" />
    <glyph glyph-name="l" unicode="l" horiz-adv-x="370" 
d="M324 84q0 -76 10 -84q-275 -2 -275 0q-12 9 -12 78v1460q0 84 -6 98h276q7 -14 7 -69v-1483z" />
    <glyph glyph-name="m" unicode="m" horiz-adv-x="1214" 
d="M1165 0h-262q-2 0 -2 821q0 84 -72 84q-38 0 -61 -29t-23 -69v-807h-264v825q0 80 -69 80q-40 0 -64 -31.5t-24 -74.5v-799h-271v1126h264v-106q21 55 77.5 89t142.5 34q143 0 190 -131q26 64 83 97.5t136 33.5q112 0 164.5 -63t52.5 -175q0 -258 0.5 -428t1 -329.5
t0.5 -101.5q1 -46 0 -46z" />
    <glyph glyph-name="n" unicode="n" horiz-adv-x="815" 
d="M766 879q0 -879 6 -879h-270q-3 0 -4 14t-2 91t-1.5 240.5t-0.5 463.5q0 92 -74 92q-43 0 -69.5 -31t-26.5 -98v-772h-271v1126h264v-110q20 60 78 92.5t137 32.5q234 0 234 -262z" />
    <glyph glyph-name="o" unicode="o" horiz-adv-x="817" 
d="M748 911q34 -114 34 -346q0 -223 -37 -344q-67 -235 -339 -235q-135 0 -222.5 63t-117.5 172q-14 53 -24.5 153t-10.5 191q0 211 43 353q28 96 111.5 159.5t224.5 63.5q272 0 338 -230zM504 289q12 84 12 272q0 209 -12 273q-9 40 -32 57.5t-64 17.5q-76 0 -95 -80
q-12 -56 -12 -268q0 -210 12 -274q6 -37 31.5 -57.5t63.5 -20.5q37 0 64 23.5t32 56.5z" />
    <glyph glyph-name="p" unicode="p" horiz-adv-x="835" 
d="M756 983q49 -131 49 -401q0 -274 -39 -396q-61 -188 -250 -188q-129 0 -194 65v-397h-269v1460h260l2 -86q24 47 79 74t132 27q89 0 145 -38t85 -120zM512 297q16 93 16 276q0 197 -20 273q-16 61 -84 61q-64 0 -82 -73q-23 -97 -23 -261q0 -170 17 -278q12 -78 86 -78
q37 0 60 23t30 57z" />
    <glyph glyph-name="q" unicode="q" horiz-adv-x="827" 
d="M780 -184q0 -20 1 -42.5t3 -40.5t3.5 -33t2.5 -24t1 -10h-265l-14 23v389q-52 -86 -190 -86q-184 0 -244 176q-45 136 -45 391q0 156 9.5 229t33.5 152q57 197 252 197q133 0 190 -95v86h262v-1312zM498 295q16 70 16 276q0 197 -16 265q-16 67 -82 67q-85 0 -97 -84
q-18 -126 -18 -252q0 -198 14 -274q14 -78 93 -78q72 0 90 80z" />
    <glyph glyph-name="r" unicode="r" horiz-adv-x="618" 
d="M524 1141q67 0 99 -11v-258q-69 21 -144 21q-77 0 -114 -47.5t-37 -177.5v-668h-275v1126h271v-133q9 63 68.5 105.5t131.5 42.5z" />
    <glyph glyph-name="s" unicode="s" horiz-adv-x="745" 
d="M524 637q108 -54 152.5 -129t44.5 -203q0 -156 -93.5 -238.5t-250.5 -82.5q-169 0 -252.5 55.5t-97.5 171.5q-7 65 -7 143h254q0 -6 1 -18.5t2 -32.5t2 -33q6 -67 92 -67q40 0 65 24t25 70q0 53 -23.5 84.5t-81.5 54.5q-19 8 -67 30.5t-64 29.5q-107 51 -151.5 131.5
t-44.5 210.5q0 138 84.5 221.5t242.5 83.5q286 0 330 -203q4 -22 8 -87t4 -87h-247q0 64 -5 84q-8 68 -79 68q-84 0 -84 -87q0 -42 19.5 -69.5t68.5 -50.5q13 -6 68 -32t85 -42z" />
    <glyph glyph-name="t" unicode="t" horiz-adv-x="559" 
d="M539 1126v-239h-160v-592q0 -44 20.5 -60t57.5 -16q39 0 69 6v-219q-60 -14 -159 -14q-267 0 -267 254v641h-96v239h100l11 211l266 6v-217h158z" />
    <glyph glyph-name="u" unicode="u" 
d="M762 135q0 -103 4 -135h-260l-8 70q-29 -37 -81.5 -57.5t-115.5 -20.5q-254 0 -254 291q0 841 -2 843h274q3 0 3 -817q0 -50 19 -71t60 -21q88 0 88 125v784h273v-991z" />
    <glyph glyph-name="v" unicode="v" horiz-adv-x="827" 
d="M559 1126h266l-235 -1126h-346l-242 1126h274l142 -807z" />
    <glyph glyph-name="w" unicode="w" horiz-adv-x="1253" 
d="M979 1126h272l-196 -1126h-324q-69 403 -92 532l-8 117q-2 -105 -4 -117l-95 -532h-327l-203 1126h279l104 -827l104 827h281l119 -827z" />
    <glyph glyph-name="x" unicode="x" horiz-adv-x="784" 
d="M281 1126l112 -270l113 270h260l-246 -551l256 -575h-266l-123 293l-125 -293h-260l260 573l-248 553h267z" />
    <glyph glyph-name="y" unicode="y" horiz-adv-x="829" 
d="M555 1126h272l-368 -1460h-281l92 365l-268 1095h279q2 -13 69 -362.5t68 -362.5q1 7 35.5 183.5t67.5 351.5t34 190z" />
    <glyph glyph-name="z" unicode="z" horiz-adv-x="704" 
d="M686 238v-238h-663v227l370 660h-360v239h647v-231l-371 -657h377z" />
    <glyph glyph-name="braceleft" unicode="{" horiz-adv-x="616" 
d="M584 -109v-225h-150q-140 0 -209 72.5t-69 189.5q0 87 21.5 254.5t21.5 237.5q0 95 -37.5 148t-128.5 53v237q50 1 84 15t51.5 40.5t25 56.5t7.5 70q0 60 -22.5 165t-22.5 181q0 108 72 178t196 70h160v-223q-106 3 -144 -27.5t-34 -119.5q1 -24 19.5 -129.5t18.5 -161.5
q0 -94 -43 -157.5t-137 -76.5q51 -5 88 -30.5t56 -64.5t27.5 -79.5t8.5 -85.5q0 -72 -18 -225.5t-20 -220.5q-3 -85 34.5 -114.5t143.5 -27.5z" />
    <glyph glyph-name="bar" unicode="|" horiz-adv-x="512" 
d="M365 1638v-2048h-215v2048h215z" />
    <glyph glyph-name="braceright" unicode="}" horiz-adv-x="616" 
d="M178 -334h-149v225q106 -2 144.5 27.5t35.5 114.5q-3 64 -22 218t-19 228q0 45 8.5 85.5t27.5 79.5t56 64.5t88 30.5q-93 13 -136.5 76.5t-43.5 157.5q0 54 19 158.5t20 132.5q4 89 -34 119.5t-144 27.5v223h159q124 0 196.5 -70.5t72.5 -177.5q0 -76 -21.5 -181
t-21.5 -165q0 -40 7 -70t24.5 -56.5t51 -40.5t83.5 -15v-237q-91 0 -127.5 -53t-36.5 -148q0 -70 20.5 -237.5t20.5 -254.5q0 -117 -68.5 -189.5t-210.5 -72.5z" />
    <glyph glyph-name="asciitilde" unicode="~" horiz-adv-x="929" 
d="M649 569q-61 0 -108 21t-105 74l-28.5 28.5t-28.5 28t-24.5 19.5t-30 15.5t-31.5 4.5q-77 0 -105 -135l-184 73q69 287 291 287q62 0 111.5 -24t103.5 -78q4 -4 21.5 -22t23 -23t20 -17t24 -16t23.5 -8t29 -4q42 0 69.5 36t37.5 91l162 -95q-29 -124 -99 -190t-172 -66z
" />
    <glyph glyph-name="exclamdown" unicode="&#xa1;" horiz-adv-x="432" 
d="M78 1280v356h278v-356h-278zM369 0h-303l32 1190h242z" />
    <glyph glyph-name="cent" unicode="&#xa2;" horiz-adv-x="815" 
d="M86 1174q56 166 250 200v131h160v-129q227 -25 268 -194q29 -118 29 -271h-261q0 107 -4 144q-9 98 -90 98q-82 0 -92 -84q-12 -98 -12 -260q0 -198 8 -274q6 -56 28 -81.5t66 -25.5q39 0 60 23t28 79q8 62 8 166h261q0 -164 -37 -276q-25 -77 -92 -127.5t-168 -63.5
v-143h-160v145q-191 28 -252 189q-47 123 -47 389q0 225 49 365z" />
    <glyph glyph-name="sterling" unicode="&#xa3;" horiz-adv-x="845" 
d="M55 827h109q-31 66 -47.5 104.5t-35.5 109.5t-24 139q-4 89 0 178q2 55 25.5 105.5t68 93.5t119 68.5t170.5 25.5q348 0 361 -310v-337h-269v288q-3 67 -26 94t-70 27q-85 0 -94 -100q-7 -84 0 -160q17 -186 84 -326h334v-229h-277q14 -64 11 -123q-7 -92 -52.5 -151.5
t-111.5 -77.5h469v-246h-762v256q90 28 140 80t65 137q11 59 -11 125h-176v229z" />
    <glyph glyph-name="yen" unicode="&#xa5;" horiz-adv-x="995" 
d="M346 346v62h-299v172h291v61l-338 993h307q176 -567 182 -655q3 39 52 203t97 308l48 144h311l-356 -985v-69h303v-172h-311v-62h311v-172h-303v-174h-303v174h-291v172h299z" />
    <glyph glyph-name="brokenbar" unicode="&#xa6;" horiz-adv-x="512" 
d="M365 1638v-907h-218v907h218zM365 455v-865h-218v865h218z" />
    <glyph glyph-name="section" unicode="&#xa7;" horiz-adv-x="708" 
d="M45 788q-16 106 0 175q27 114 127 165q-82 65 -88 187q-2 13 -2 51t2 53q7 104 82 160.5t192 56.5q58 0 103.5 -10.5t85 -35.5t63 -71.5t27.5 -113.5q2 -16 2 -113h-186q0 88 -2 92q-3 89 -76 89q-72 0 -80 -70v-74q2 -47 19.5 -75t74.5 -58q11 -7 109 -57
q127 -66 155 -183q10 -41 8.5 -98t-12.5 -98q-35 -115 -143 -150q161 -95 172 -250q2 -17 2 -59t-2 -59q-6 -130 -84.5 -195t-220.5 -65q-66 0 -118.5 12t-97.5 40.5t-73 81t-35 126.5q-2 18 -2 118h229v-98q3 -98 95 -98q90 0 90 94v84q-3 49 -26.5 81t-80.5 64
q-14 8 -178 109q-109 63 -131 192zM254 922q-7 -24 -4 -56t14 -51q8 -19 30.5 -38t42.5 -31t54 -29q24 1 42 27t26 65q3 20 0 53.5t-10 46.5q-25 54 -132 101q-22 -2 -40.5 -27t-22.5 -61z" />
    <glyph glyph-name="dieresis" unicode="&#xa8;" horiz-adv-x="768" 
d="M659 1458v-258h-219v258h219zM328 1458v-258h-217v258h217z" />
    <glyph glyph-name="copyright" unicode="&#xa9;" horiz-adv-x="1060" 
d="M1024 1204q3 -129 0 -293q-3 -230 -127.5 -350.5t-361.5 -120.5q-238 0 -366.5 121.5t-131.5 349.5q-3 104 0 293q4 219 134 330t359 111q227 0 358.5 -110t135.5 -331zM530 547q203 0 292.5 95t92.5 302v262q-3 159 -99 241.5t-286 82.5q-187 0 -284.5 -82.5
t-100.5 -239.5v-264q3 -397 385 -397zM625 973h155q-1 -12 -2 -62.5t-2 -62.5q-4 -76 -72 -121t-172 -45q-109 0 -171 44t-68 120q-6 63 -6 174q0 83 6 182q7 76 80 123t174 47q105 0 164.5 -51.5t64.5 -126.5q2 -29 2 -104h-157v77q-9 64 -78 64q-44 0 -67 -21.5t-25 -58.5
q-2 -23 -2 -127q0 -23 1 -72t1 -55q3 -44 23.5 -63t66.5 -19q40 0 60.5 17.5t21.5 58.5q2 31 2 82z" />
    <glyph glyph-name="ordfeminine" unicode="&#xaa;" horiz-adv-x="784" 
d="M725 743q0 -180 14 -200h-264l-6 86q-63 -97 -213 -97q-42 0 -79 10t-71.5 32t-56 64t-24.5 101q-7 96 0 166q9 113 84.5 188t218.5 101q60 11 137 18q0 16 1 67t1 69q-2 39 -19.5 57t-58.5 18q-56 0 -67 -65q-9 -74 -9 -107h-254q-3 93 17 179q20 92 103 150t220 58
q321 0 328 -258q3 -172 0 -350q-2 -86 -2 -287zM465 920v116q-10 2 -28 1.5t-27 0.5q-46 0 -78 -32q-34 -31 -37 -95q-4 -48 2 -88q12 -62 63 -73q80 -8 99 49q4 13 5 30.5t0.5 45.5t0.5 45zM752 489v-219h-723v219h723z" />
    <glyph glyph-name="guillemotleft" unicode="&#xab;" horiz-adv-x="845" 
d="M811 526v-297l-381 379v201l381 377v-293l-168 -184zM416 526v-297l-383 379v201l383 377v-293l-168 -184z" />
    <glyph glyph-name="registered" unicode="&#xae;" horiz-adv-x="1060" 
d="M1024 1204q3 -129 0 -293q-3 -230 -127.5 -350.5t-361.5 -120.5q-238 0 -366.5 121.5t-131.5 349.5q-3 104 0 293q4 219 134 330t359 111q227 0 358.5 -110t135.5 -331zM530 547q202 0 292 95.5t93 301.5v262q-3 159 -99 241.5t-286 82.5q-187 0 -284.5 -82.5
t-100.5 -239.5v-264q1 -199 99 -298t286 -99zM690 965l119 -263h-184l-99 232h-67v-232h-189v652h291q116 0 187 -60q61 -56 61 -139q0 -31 -9 -70t-26 -63q-29 -39 -84 -57zM604 1073q17 24 17 57q0 42 -19 58q-25 29 -143 29v-173q116 0 145 29z" />
    <glyph glyph-name="macron" unicode="&#xaf;" horiz-adv-x="768" 
d="M662 1407v-180h-558v180h558z" />
    <glyph glyph-name="degree" unicode="&#xb0;" horiz-adv-x="534" 
d="M27 1311q0 103 70.5 175.5t168.5 72.5q100 0 171 -72.5t71 -175.5t-71 -175.5t-171 -72.5q-98 0 -168.5 72.5t-70.5 175.5zM358 1311q0 38 -27 65t-65 27t-65 -27t-27 -65q0 -39 26.5 -65.5t65.5 -26.5t65.5 26.5t26.5 65.5z" />
    <glyph glyph-name="twosuperior" unicode="&#xb2;" horiz-adv-x="663" 
d="M592 946v-151h-524v135q19 38 61 85t85.5 89t85.5 87t68.5 94t26.5 95v50q0 40 -17 56.5t-54 16.5q-30 0 -44.5 -14.5t-17.5 -50.5q-2 -16 -2 -101h-190q0 90 2 113q6 83 74.5 135.5t193.5 52.5q242 0 256 -188q0 -7 -1 -42.5t-1 -43.5q-3 -56 -34.5 -114.5t-70.5 -101.5
t-89 -101t-76 -101h268z" />
    <glyph glyph-name="threesuperior" unicode="&#xb3;" horiz-adv-x="677" 
d="M596 1401q-2 -74 -43 -121t-143 -57q60 -1 102 -15.5t63 -37t30 -44t11 -45.5q2 -27 -2 -106q-15 -193 -276 -193q-121 0 -193 43t-75 123l-2 107h192v-99q0 -28 19.5 -38.5t58.5 -10.5q41 0 57.5 16.5t16.5 51.5v84q0 41 -22 57t-91 19l-100 2v143q104 2 108 2
q56 6 75 23t19 65v78q0 29 -15 41t-48 12q-66 0 -66 -53q0 -14 -0.5 -33t-1.5 -33v-14h-184q0 6 6 111q6 71 71.5 116t180.5 45q126 0 187.5 -47.5t64.5 -124.5v-67z" />
    <glyph glyph-name="acute" unicode="&#xb4;" horiz-adv-x="768" 
d="M475 1200h-254l139 299h291z" />
    <glyph glyph-name="paragraph" unicode="&#xb6;" horiz-adv-x="817" 
d="M532 1634h238v-1845h-100v1638h-52v-1638h-104v729q-30 -42 -85.5 -65t-119.5 -23q-105 0 -174 53t-84 146q-22 129 -22 407q0 293 24 408q19 88 86.5 143t163.5 55q70 0 129.5 -24.5t83.5 -69.5zM512 745q2 33 2 308v270q0 46 -21.5 68t-54.5 22q-38 0 -56.5 -18
t-25.5 -68q-16 -115 -16 -293q0 -203 14 -307q12 -70 78 -70q77 0 80 88z" />
    <glyph glyph-name="periodcentered" unicode="&#xb7;" horiz-adv-x="440" 
d="M375 995v-368h-312v368h312z" />
    <glyph glyph-name="cedilla" unicode="&#xb8;" horiz-adv-x="768" 
d="M231 -256q65 -8 105 -6.5t62 16.5t29 30t7 34q0 78 -110 78v104h149v-49q74 -6 119 -49.5t45 -114.5q0 -110 -105 -159.5t-301 -18.5v135z" />
    <glyph glyph-name="onesuperior" unicode="&#xb9;" horiz-adv-x="587" 
d="M424 1634v-839h-191v610l-165 -10v135q87 1 141.5 34t71.5 70h143z" />
    <glyph glyph-name="ordmasculine" unicode="&#xba;" horiz-adv-x="786" 
d="M715 1405q33 -109 33 -311q0 -175 -35 -322q-27 -107 -108 -172t-220 -65q-144 0 -223 66t-103 171q-30 128 -30 322q0 86 11.5 177.5t27.5 145.5q13 45 36.5 82.5t61 70.5t94.5 51.5t129 18.5q144 0 225 -64.5t101 -170.5zM467 825q14 93 14 265q0 188 -12 256
q-7 37 -27 53t-55 16q-67 0 -76 -69q-16 -56 -16 -256q0 -179 16 -267q12 -69 78 -69q65 0 78 71zM760 489v-231h-731v231h731z" />
    <glyph glyph-name="guillemotright" unicode="&#xbb;" horiz-adv-x="845" 
d="M817 618l-383 -376v297l164 182l-164 182v295l383 -377v-203zM422 618l-383 -376v297l164 182l-164 182v295l383 -377v-203z" />
    <glyph glyph-name="onequarter" unicode="&#xbc;" horiz-adv-x="1155" 
d="M369 1634v-839h-191v610l-168 -10v135q87 1 142.5 34t70.5 70h146zM698 1634h103q-146 -510 -238 -837l-221 -797h-102q149 525 245 864zM1120 334v-144h-88v-190h-188v193h-312v147l293 496h207v-502h88zM711 334h133v239z" />
    <glyph glyph-name="onehalf" unicode="&#xbd;" horiz-adv-x="1150" 
d="M367 1634v-839h-191v610l-168 -10v135q87 1 142.5 34t72.5 70h144zM666 1634h102q-148 -510 -240 -837l-219 -797h-102q150 525 246 864zM1100 150v-150h-525v135q20 38 62 85t86 89.5t85.5 87.5t68 94t26.5 95v49q0 40 -17.5 57t-54.5 17q-28 0 -42.5 -15t-18.5 -51
q-2 -16 -2 -100h-188q0 89 2 112q6 83 74 136t194 53q239 0 254 -189q0 -7 -1 -42.5t-1 -43.5q-3 -56 -35 -115t-71 -101.5t-89 -101t-76 -101.5h269z" />
    <glyph glyph-name="threequarters" unicode="&#xbe;" horiz-adv-x="1288" 
d="M553 1401q-2 -74 -43 -121t-143 -57q60 -1 102 -15.5t63 -37t30 -44t11 -45.5q2 -27 -2 -106q-15 -193 -276 -193q-122 0 -193.5 43t-74.5 123l-2 107h192v-99q0 -28 19 -38.5t57 -10.5q43 0 59.5 16.5t16.5 51.5v84q0 41 -22 57t-91 19l-100 2v143q104 2 108 2
q56 6 75 23t19 65v78q0 53 -63 53t-66 -53q0 -14 -0.5 -33t-0.5 -33l-1 -14h-184q0 1 1 21.5t2 47.5t1 42q8 71 73.5 116t180.5 45q125 0 186 -47.5t64 -124.5q0 -13 1 -32t1 -35zM836 1634h102q-146 -510 -238 -837l-221 -797h-102q150 525 246 864zM1257 334v-144h-90
v-190h-188v193h-309v147l293 496h204v-502h90zM848 334h131v241z" />
    <glyph glyph-name="questiondown" unicode="&#xbf;" horiz-adv-x="800" 
d="M303 1278v356h283v-356h-283zM35 254q-5 62 0 192q3 61 27 120.5t58 105.5t72.5 103t70 112t51 134.5t16.5 168.5h237q5 -94 -5.5 -175t-30.5 -138.5t-45.5 -107t-52.5 -90t-50 -77.5t-39 -80t-18 -88q-4 -68 0 -119q3 -98 92 -98q43 0 66.5 24t25.5 66q2 18 2 150h264
q0 -116 -6 -209q-11 -122 -109 -192t-262 -70q-342 0 -364 268z" />
    <glyph glyph-name="Agrave" unicode="&#xc0;" horiz-adv-x="935" 
d="M487 1995l142 -299h-258l-176 299h292zM580 395h-224l-57 -395h-299l272 1634h420l244 -1634h-303zM385 637h168q-61 475 -61 483q-4 38 -8 100t-6 105l-1 43q-4 -160 -18 -248z" />
    <glyph glyph-name="Aacute" unicode="&#xc1;" horiz-adv-x="935" 
d="M582 1696h-254l139 299h291zM580 395h-224l-57 -395h-299l272 1634h420l244 -1634h-303zM385 637h168q-61 475 -61 483q-4 38 -8 100t-6 105l-1 43q-4 -160 -18 -248z" />
    <glyph glyph-name="Acircumflex" unicode="&#xc2;" horiz-adv-x="935" 
d="M610 1997l156 -299h-225l-74 135l-76 -135h-219l156 299h282zM580 395h-224l-57 -395h-299l272 1634h420l244 -1634h-303zM385 637h168q-61 475 -61 483q-4 38 -8 100t-6 105l-1 43q-4 -160 -18 -248z" />
    <glyph glyph-name="Atilde" unicode="&#xc3;" horiz-adv-x="935" 
d="M594 1694q-40 0 -66.5 8.5t-56.5 38.5q-43 41 -59 48q-15 6 -31 5q-43 0 -49 -88h-178q5 130 55 205.5t133 75.5q84 0 141 -62q38 -44 74 -41q25 1 36.5 22.5t14.5 71.5h174q-4 -137 -54.5 -210.5t-133.5 -73.5zM580 395h-224l-57 -395h-299l272 1634h420l244 -1634h-303
zM385 637h168q-61 475 -61 483q-4 38 -8 100t-6 105l-1 43q-4 -160 -18 -248z" />
    <glyph glyph-name="Adieresis" unicode="&#xc4;" horiz-adv-x="935" 
d="M756 1956v-258h-219v258h219zM424 1956v-258h-217v258h217zM580 395h-224l-57 -395h-299l272 1634h420l244 -1634h-303zM385 637h168q-61 475 -61 483q-4 38 -8 100t-6 105l-1 43q-4 -160 -18 -248z" />
    <glyph glyph-name="Aring" unicode="&#xc5;" horiz-adv-x="935" 
d="M272 1634h33q-63 69 -63 170q0 103 69.5 173.5t169.5 70.5t171 -71t71 -173q0 -101 -66 -170h35l244 -1634h-303l-53 395h-224l-57 -395h-299zM563 1804q0 34 -24.5 60t-57.5 26q-32 0 -53.5 -25.5t-21.5 -60.5q0 -36 21.5 -61t53.5 -25q34 0 58 25.5t24 60.5zM385 637
h168q-61 475 -61 483q-4 38 -8 100t-6 105l-1 43q-4 -160 -18 -248z" />
    <glyph glyph-name="AE" unicode="&#xc6;" horiz-adv-x="1214" 
d="M332 1634h866v-280h-373v-398h340v-266h-340v-414h375v-276h-668v373h-174l-61 -373h-299zM530 625v733q-20 -176 -24 -199l-109 -534h133z" />
    <glyph glyph-name="Ccedilla" unicode="&#xc7;" horiz-adv-x="940" 
d="M414 -104v90q-252 22 -320 247q-57 182 -57 592q0 169 10 284.5t37 242.5q31 148 132.5 221.5t281.5 73.5q184 0 278.5 -86t116.5 -254q16 -125 16 -273h-291q0 129 -20 246q-6 39 -34 62.5t-72 23.5q-97 0 -119 -90q-23 -97 -23 -449q0 -339 23 -469q10 -52 42 -77
t77 -25q103 0 116 109t13 225h290q0 -195 -18 -299q-25 -135 -105 -211.5t-225 -93.5v-35q74 -6 119 -49.5t45 -114.5q0 -110 -104.5 -159.5t-300.5 -18.5v135q65 -8 105 -6.5t61.5 16.5t28.5 30t7 34q0 78 -110 78z" />
    <glyph glyph-name="Egrave" unicode="&#xc8;" 
d="M446 1995l142 -299h-258l-176 299h292zM788 276v-276h-725v1634h721v-280h-422v-398h394v-266h-394v-414h426z" />
    <glyph glyph-name="Eacute" unicode="&#xc9;" 
d="M545 1698h-254l139 299h291zM788 276v-276h-725v1634h721v-280h-422v-398h394v-266h-394v-414h426z" />
    <glyph glyph-name="Ecircumflex" unicode="&#xca;" 
d="M569 1997l156 -299h-225l-74 135l-76 -135h-219l156 299h282zM788 276v-276h-725v1634h721v-280h-422v-398h394v-266h-394v-414h426z" />
    <glyph glyph-name="Edieresis" unicode="&#xcb;" 
d="M702 1956v-258h-219v258h219zM371 1956v-258h-217v258h217zM788 276v-276h-725v1634h721v-280h-422v-398h394v-266h-394v-414h426z" />
    <glyph glyph-name="Igrave" unicode="&#xcc;" horiz-adv-x="436" 
d="M227 1995l142 -299h-258l-177 299h293zM375 1634v-1634h-312v1634h312z" />
    <glyph glyph-name="Iacute" unicode="&#xcd;" horiz-adv-x="436" 
d="M336 1698h-254l139 299h291zM375 1634v-1634h-312v1634h312z" />
    <glyph glyph-name="Icircumflex" unicode="&#xce;" horiz-adv-x="436" 
d="M360 1997l156 -299h-225l-74 135l-76 -135h-219l156 299h282zM375 1634v-1634h-312v1634h312z" />
    <glyph glyph-name="Idieresis" unicode="&#xcf;" horiz-adv-x="436" 
d="M494 1954v-258h-220v258h220zM162 1954v-258h-217v258h217zM375 1634v-1634h-312v1634h312z" />
    <glyph glyph-name="Eth" unicode="&#xd0;" horiz-adv-x="942" 
d="M70 0v670h-52v286h52v678h426q255 0 333 -151q76 -113 76 -631q0 -285 -15 -452t-59 -244q-44 -75 -113 -115.5t-186 -40.5h-462zM369 1378v-422h114v-286h-114v-434h131q85 0 102 81q19 81 19 535q0 81 -6.5 238t-14.5 192q-22 96 -113 96h-118z" />
    <glyph glyph-name="Ntilde" unicode="&#xd1;" horiz-adv-x="946" 
d="M627 1694q-40 0 -66.5 8.5t-56.5 38.5q-43 41 -59 48q-15 6 -31 5q-43 0 -49 -88h-179q5 129 55.5 205t133.5 76q84 0 141 -62q38 -44 74 -41q25 1 36.5 22.5t14.5 71.5h174q-4 -137 -54.5 -210.5t-133.5 -73.5zM883 1634v-1634h-283l-258 815v-815h-279v1634h285
l256 -798v798h279z" />
    <glyph glyph-name="Ograve" unicode="&#xd2;" horiz-adv-x="960" 
d="M481 1997l142 -299h-258l-177 299h293zM63 1319q72 328 416 328q184 0 282.5 -76.5t133.5 -233.5q29 -139 29 -506q0 -198 -7 -305.5t-26 -218.5q-56 -325 -412 -325q-180 0 -276.5 78t-130.5 225q-35 149 -35 536q0 376 26 498zM371 336q13 -46 38 -69t74 -23
q87 0 115 94q27 89 27 479q0 302 -25 455q-9 60 -36 85t-81 25q-55 0 -79 -25.5t-39 -86.5q-23 -104 -23 -457q0 -373 29 -477z" />
    <glyph glyph-name="Oacute" unicode="&#xd3;" horiz-adv-x="960" 
d="M608 1698h-254l140 299h290zM63 1319q72 328 416 328q184 0 282.5 -76.5t133.5 -233.5q29 -139 29 -506q0 -198 -7 -305.5t-26 -218.5q-56 -325 -412 -325q-180 0 -276.5 78t-130.5 225q-35 149 -35 536q0 376 26 498zM371 336q13 -46 38 -69t74 -23q87 0 115 94
q27 89 27 479q0 302 -25 455q-9 60 -36 85t-81 25q-55 0 -79 -25.5t-39 -86.5q-23 -104 -23 -457q0 -373 29 -477z" />
    <glyph glyph-name="Ocircumflex" unicode="&#xd4;" horiz-adv-x="960" 
d="M623 1997l155 -299h-225l-74 135l-76 -135h-219l156 299h283zM63 1319q72 328 416 328q184 0 282.5 -76.5t133.5 -233.5q29 -139 29 -506q0 -198 -7 -305.5t-26 -218.5q-56 -325 -412 -325q-180 0 -276.5 78t-130.5 225q-35 149 -35 536q0 376 26 498zM371 336
q13 -46 38 -69t74 -23q87 0 115 94q27 89 27 479q0 302 -25 455q-9 60 -36 85t-81 25q-55 0 -79 -25.5t-39 -86.5q-23 -104 -23 -457q0 -373 29 -477z" />
    <glyph glyph-name="Otilde" unicode="&#xd5;" horiz-adv-x="960" 
d="M610 1694q-40 0 -66.5 8.5t-56.5 38.5q-43 41 -59 48q-15 6 -31 5q-43 0 -49 -88h-178q5 130 55 205.5t133 75.5q85 0 142 -62q38 -44 73 -41q25 2 37 23.5t15 70.5h174q-4 -137 -55 -210.5t-134 -73.5zM63 1319q72 328 416 328q184 0 282.5 -76.5t133.5 -233.5
q29 -139 29 -506q0 -198 -7 -305.5t-26 -218.5q-56 -325 -412 -325q-180 0 -276.5 78t-130.5 225q-35 149 -35 536q0 376 26 498zM371 336q13 -46 38 -69t74 -23q87 0 115 94q27 89 27 479q0 302 -25 455q-9 60 -36 85t-81 25q-55 0 -79 -25.5t-39 -86.5q-23 -104 -23 -457
q0 -373 29 -477z" />
    <glyph glyph-name="Odieresis" unicode="&#xd6;" horiz-adv-x="960" 
d="M762 1956v-258h-219v258h219zM430 1956v-258h-217v258h217zM63 1319q72 328 416 328q184 0 282.5 -76.5t133.5 -233.5q29 -139 29 -506q0 -198 -7 -305.5t-26 -218.5q-56 -325 -412 -325q-180 0 -276.5 78t-130.5 225q-35 149 -35 536q0 376 26 498zM371 336
q13 -46 38 -69t74 -23q87 0 115 94q27 89 27 479q0 302 -25 455q-9 60 -36 85t-81 25q-55 0 -79 -25.5t-39 -86.5q-23 -104 -23 -457q0 -373 29 -477z" />
    <glyph glyph-name="multiply" unicode="&#xd7;" horiz-adv-x="681" 
d="M487 1057l140 -148l-146 -141l146 -145l-140 -146l-145 146l-143 -146l-142 146l146 145l-146 141l142 148l143 -144z" />
    <glyph glyph-name="Oslash" unicode="&#xd8;" horiz-adv-x="960" 
d="M817 1659l-35 -107q82 -71 113 -215q29 -139 29 -506q0 -198 -7 -305.5t-26 -218.5q-56 -325 -412 -325q-126 0 -205 36l-34 -104h-107q3 10 8.5 26.5t17.5 51.5t19.5 58t7.5 22q-83 77 -114 213q-35 149 -35 536q0 376 26 498q72 328 416 328q131 0 215 -37l17 49h106z
M342 813q0 -161 6 -278q16 47 42 125t80.5 242.5t91 273.5t36.5 108q-10 54 -37 76t-78 22q-55 0 -79 -25.5t-39 -86.5q-23 -104 -23 -457zM625 817q0 139 -7 262l-247 -743q13 -46 38 -69t74 -23q87 0 115 94q27 89 27 479z" />
    <glyph glyph-name="Ugrave" unicode="&#xd9;" horiz-adv-x="944" 
d="M471 1997l141 -299h-258l-176 299h293zM889 1634v-1265q0 -181 -110.5 -283t-301.5 -102q-192 0 -308 99t-116 290v1261h297v-1253q0 -137 123 -137q56 0 86.5 35.5t30.5 99.5v1255h299z" />
    <glyph glyph-name="Uacute" unicode="&#xda;" horiz-adv-x="944" 
d="M594 1698h-254l139 299h291zM889 1634v-1265q0 -181 -110.5 -283t-301.5 -102q-192 0 -308 99t-116 290v1261h297v-1253q0 -137 123 -137q56 0 86.5 35.5t30.5 99.5v1255h299z" />
    <glyph glyph-name="Ucircumflex" unicode="&#xdb;" horiz-adv-x="944" 
d="M616 1997l156 -299h-225l-74 135l-76 -135h-219l156 299h282zM889 1634v-1265q0 -181 -110.5 -283t-301.5 -102q-192 0 -308 99t-116 290v1261h297v-1253q0 -137 123 -137q56 0 86.5 35.5t30.5 99.5v1255h299z" />
    <glyph glyph-name="Udieresis" unicode="&#xdc;" horiz-adv-x="944" 
d="M750 1954v-258h-220v258h220zM418 1954v-258h-217v258h217zM889 1634v-1265q0 -181 -110.5 -283t-301.5 -102q-192 0 -308 99t-116 290v1261h297v-1253q0 -137 123 -137q56 0 86.5 35.5t30.5 99.5v1255h299z" />
    <glyph glyph-name="Yacute" unicode="&#xdd;" horiz-adv-x="985" 
d="M588 1696h-254l139 299h291zM690 1634h295l-352 -1022v-612h-299v606l-334 1028h305q160 -598 178 -682z" />
    <glyph glyph-name="Thorn" unicode="&#xde;" horiz-adv-x="933" 
d="M61 1634h314v-288h170q230 0 297 -183q65 -109 65 -327q0 -224 -69 -330q-71 -170 -289 -176l-180 -2v-328h-308v1634zM594 721q6 30 6 102q0 63 -6 90q-4 89 -29 121.5t-76 32.5h-120v-485h116q54 0 79 34t30 105z" />
    <glyph glyph-name="germandbls" unicode="&#xdf;" horiz-adv-x="1220" 
d="M569 1298q0 61 -18.5 91t-65.5 30q-53 0 -74.5 -30t-21.5 -91v-1298h-278v891h-101v235h101v209q0 145 105 227.5t288 82.5q153 0 250.5 -80.5t97.5 -214.5q0 -51 -16.5 -98.5t-39.5 -84t-46 -72t-39.5 -77.5t-16.5 -86q0 -82 27.5 -118.5t103.5 -74.5q15 -7 66.5 -34
t85.5 -43q118 -57 169.5 -141t51.5 -214q0 -149 -92 -236t-275 -87q-179 0 -268.5 56t-101.5 177q-1 11 -8 160h280q0 -21 4 -115q2 -36 25 -56t65 -20q93 0 93 111q0 72 -21 108.5t-84 71.5q-108 60 -131 74q-59 35 -88.5 54.5t-63.5 50t-48.5 62t-24.5 78t-10 109.5
q0 66 18.5 125t41.5 95t41.5 82.5t18.5 90.5z" />
    <glyph glyph-name="agrave" unicode="&#xe0;" horiz-adv-x="806" 
d="M422 1499l141 -299h-258l-176 299h293zM756 201q0 -181 14 -201h-260q-3 0 -6.5 30t-3.5 52q-73 -90 -228 -90q-98 0 -168.5 50t-76.5 163q-7 83 0 180q7 120 93.5 197t231.5 104q89 14 144 14q0 101 -2 136q-3 77 -80 77q-51 0 -73 -28t-22 -88v-64h-253v84
q0 162 84 243t268 81q330 0 340 -258q5 -119 0 -373q0 -45 -1 -156.5t-1 -152.5zM496 430q1 10 1 27t-0.5 35t-0.5 22q-41 0 -66 -4q-65 -13 -94 -39q-24 -21 -30.5 -45t-6.5 -66q0 -69 4 -102q8 -53 80 -53q36 0 65.5 20t36.5 60q4 26 6 48t3 50t2 47z" />
    <glyph glyph-name="aacute" unicode="&#xe1;" horiz-adv-x="806" 
d="M518 1200h-254l139 299h291zM756 201q0 -181 14 -201h-260q-3 0 -6.5 30t-3.5 52q-73 -90 -228 -90q-98 0 -168.5 50t-76.5 163q-7 83 0 180q7 120 93.5 197t231.5 104q89 14 144 14q0 101 -2 136q-3 77 -80 77q-51 0 -73 -28t-22 -88v-64h-253v84q0 162 84 243t268 81
q330 0 340 -258q5 -119 0 -373q0 -45 -1 -156.5t-1 -152.5zM496 430q1 10 1 27t-0.5 35t-0.5 22q-41 0 -66 -4q-65 -13 -94 -39q-24 -21 -30.5 -45t-6.5 -66q0 -69 4 -102q8 -53 80 -53q36 0 65.5 20t36.5 60q4 26 6 48t3 50t2 47z" />
    <glyph glyph-name="acircumflex" unicode="&#xe2;" horiz-adv-x="806" 
d="M563 1501l156 -299h-225l-74 135l-76 -135h-219l156 299h282zM756 201q0 -181 14 -201h-260q-3 0 -6.5 30t-3.5 52q-73 -90 -228 -90q-98 0 -168.5 50t-76.5 163q-7 83 0 180q7 120 93.5 197t231.5 104q89 14 144 14q0 101 -2 136q-3 77 -80 77q-51 0 -73 -28t-22 -88
v-64h-253v84q0 162 84 243t268 81q330 0 340 -258q5 -119 0 -373q0 -45 -1 -156.5t-1 -152.5zM496 430q1 10 1 27t-0.5 35t-0.5 22q-41 0 -66 -4q-65 -13 -94 -39q-24 -21 -30.5 -45t-6.5 -66q0 -69 4 -102q8 -53 80 -53q36 0 65.5 20t36.5 60q4 26 6 48t3 50t2 47z" />
    <glyph glyph-name="atilde" unicode="&#xe3;" horiz-adv-x="806" 
d="M535 1196q-40 0 -66.5 8.5t-56.5 38.5q-43 41 -59 48q-15 6 -31 5q-44 0 -50 -88h-178q5 129 55.5 205t133.5 76q84 0 141 -62q38 -44 74 -41q25 1 36.5 23t14.5 72h174q-4 -137 -54.5 -211t-133.5 -74zM756 201q0 -181 14 -201h-260q-3 0 -6.5 30t-3.5 52
q-73 -90 -228 -90q-98 0 -168.5 50t-76.5 163q-7 83 0 180q7 120 93.5 197t231.5 104q89 14 144 14q0 101 -2 136q-3 77 -80 77q-51 0 -73 -28t-22 -88v-64h-253v84q0 162 84 243t268 81q330 0 340 -258q5 -119 0 -373q0 -45 -1 -156.5t-1 -152.5zM496 430q1 10 1 27
t-0.5 35t-0.5 22q-41 0 -66 -4q-65 -13 -94 -39q-24 -21 -30.5 -45t-6.5 -66q0 -69 4 -102q8 -53 80 -53q36 0 65.5 20t36.5 60q4 26 6 48t3 50t2 47z" />
    <glyph glyph-name="adieresis" unicode="&#xe4;" horiz-adv-x="806" 
d="M686 1458v-258h-219v258h219zM354 1458v-258h-217v258h217zM756 201q0 -181 14 -201h-260q-3 0 -6.5 30t-3.5 52q-73 -90 -228 -90q-98 0 -168.5 50t-76.5 163q-7 83 0 180q7 120 93.5 197t231.5 104q89 14 144 14q0 101 -2 136q-3 77 -80 77q-51 0 -73 -28t-22 -88v-64
h-253v84q0 162 84 243t268 81q330 0 340 -258q5 -119 0 -373q0 -45 -1 -156.5t-1 -152.5zM496 430q1 10 1 27t-0.5 35t-0.5 22q-41 0 -66 -4q-65 -13 -94 -39q-24 -21 -30.5 -45t-6.5 -66q0 -69 4 -102q8 -53 80 -53q36 0 65.5 20t36.5 60q4 26 6 48t3 50t2 47z" />
    <glyph glyph-name="aring" unicode="&#xe5;" horiz-adv-x="806" 
d="M233 1376q0 85 57 143t140 58t141 -58t58 -143q0 -86 -58 -145.5t-141 -59.5t-140 59.5t-57 145.5zM498 1376q0 28 -20 49t-48 21q-26 0 -44.5 -21t-18.5 -49q0 -29 18.5 -50t44.5 -21q28 0 48 21t20 50zM756 201q0 -181 14 -201h-260q-3 0 -6.5 30t-3.5 52
q-73 -90 -228 -90q-98 0 -168.5 50t-76.5 163q-7 83 0 180q7 120 93.5 197t231.5 104q89 14 144 14q0 101 -2 136q-3 77 -80 77q-51 0 -73 -28t-22 -88v-64h-253v84q0 162 84 243t268 81q330 0 340 -258q5 -119 0 -373q0 -45 -1 -156.5t-1 -152.5zM496 430q1 10 1 27
t-0.5 35t-0.5 22q-41 0 -66 -4q-65 -13 -94 -39q-24 -21 -30.5 -45t-6.5 -66q0 -69 4 -102q8 -53 80 -53q36 0 65.5 20t36.5 60q4 26 6 48t3 50t2 47z" />
    <glyph glyph-name="ae" unicode="&#xe6;" horiz-adv-x="1249" 
d="M651 1063q24 37 85.5 57.5t131.5 20.5q116 0 197 -49.5t117 -137.5q28 -70 39.5 -203t3.5 -282h-465q0 -116 8 -184q4 -39 32 -59.5t62 -20.5t60.5 15.5t33.5 47.5q13 57 13 99h250q0 -40 -13 -111.5t-41 -120.5q-83 -149 -293 -149q-249 0 -317 159q-50 -153 -272 -153
q-46 0 -87.5 10.5t-79.5 34t-62 66.5t-27 102q-7 83 0 180q7 120 93.5 197t231.5 104q89 14 144 14q0 101 -2 136q-3 77 -80 77q-73 0 -84 -63q-11 -51 -11 -117h-256q0 157 46 252q75 156 309 156q158 0 233 -78zM756 670h211q0 133 -15 184q-16 61 -88 61q-71 0 -92 -59
q-16 -40 -16 -186zM496 430q1 10 1 27t-0.5 35t-0.5 22q-41 0 -66 -4q-65 -13 -94 -39q-24 -21 -30.5 -45t-6.5 -66q0 -69 4 -102q8 -53 80 -53q36 0 65.5 20t36.5 60q4 26 6 48t3 50t2 47z" />
    <glyph glyph-name="ccedilla" unicode="&#xe7;" horiz-adv-x="782" 
d="M319 -98v90q-171 27 -229 158q-25 56 -41 171t-16 242q0 125 11.5 209.5t41.5 175.5q31 91 113.5 142t201.5 51q148 0 225.5 -54t108.5 -151q21 -74 21 -268h-256q0 66 -13 159q-11 82 -84 82q-74 0 -86 -84q-16 -107 -16 -264q0 -152 16 -264q6 -43 27.5 -62.5
t61.5 -19.5q38 0 60.5 23.5t27.5 60.5q8 59 8 154h254q0 -123 -6.5 -176t-34.5 -123q-26 -64 -89.5 -108t-156.5 -56v-33q74 -6 119 -49.5t45 -114.5q0 -110 -105 -159.5t-301 -18.5v135q65 -8 105 -6.5t62 16.5t29 30t7 34q0 78 -111 78z" />
    <glyph glyph-name="egrave" unicode="&#xe8;" horiz-adv-x="790" 
d="M416 1499l141 -299h-258l-176 299h293zM508 367h250q0 -41 -12.5 -112t-40.5 -120q-83 -149 -293 -149q-250 0 -318 159q-61 141 -61 412q0 125 14.5 231.5t38.5 163.5q77 189 322 189q116 0 196.5 -49.5t116.5 -137.5q28 -70 39.5 -203t3.5 -282h-465q0 -116 8 -184
q4 -39 32 -59.5t62 -20.5t61 15.5t34 47.5q12 53 12 99zM295 670h211q0 137 -14 184q-16 61 -89 61q-71 0 -92 -59q-16 -40 -16 -186z" />
    <glyph glyph-name="eacute" unicode="&#xe9;" horiz-adv-x="790" 
d="M508 1200h-254l139 299h291zM508 367h250q0 -41 -12.5 -112t-40.5 -120q-83 -149 -293 -149q-250 0 -318 159q-61 141 -61 412q0 125 14.5 231.5t38.5 163.5q77 189 322 189q116 0 196.5 -49.5t116.5 -137.5q28 -70 39.5 -203t3.5 -282h-465q0 -116 8 -184
q4 -39 32 -59.5t62 -20.5t61 15.5t34 47.5q12 53 12 99zM295 670h211q0 137 -14 184q-16 61 -89 61q-71 0 -92 -59q-16 -40 -16 -186z" />
    <glyph glyph-name="ecircumflex" unicode="&#xea;" horiz-adv-x="790" 
d="M553 1501l156 -299h-226l-73 135l-76 -135h-219l155 299h283zM508 367h250q0 -41 -12.5 -112t-40.5 -120q-83 -149 -293 -149q-250 0 -318 159q-61 141 -61 412q0 125 14.5 231.5t38.5 163.5q77 189 322 189q116 0 196.5 -49.5t116.5 -137.5q28 -70 39.5 -203t3.5 -282
h-465q0 -116 8 -184q4 -39 32 -59.5t62 -20.5t61 15.5t34 47.5q12 53 12 99zM295 670h211q0 137 -14 184q-16 61 -89 61q-71 0 -92 -59q-16 -40 -16 -186z" />
    <glyph glyph-name="edieresis" unicode="&#xeb;" horiz-adv-x="790" 
d="M682 1458v-258h-219v258h219zM350 1458v-258h-217v258h217zM508 367h250q0 -41 -12.5 -112t-40.5 -120q-83 -149 -293 -149q-250 0 -318 159q-61 141 -61 412q0 125 14.5 231.5t38.5 163.5q77 189 322 189q116 0 196.5 -49.5t116.5 -137.5q28 -70 39.5 -203t3.5 -282
h-465q0 -116 8 -184q4 -39 32 -59.5t62 -20.5t61 15.5t34 47.5q12 53 12 99zM295 670h211q0 137 -14 184q-16 61 -89 61q-71 0 -92 -59q-16 -40 -16 -186z" />
    <glyph glyph-name="igrave" unicode="&#xec;" horiz-adv-x="391" 
d="M201 1499l141 -299h-258l-176 299h293zM336 82q0 -19 2.5 -39t5.5 -31t4 -12h-276q-17 3 -17 78v1048h281v-1044z" />
    <glyph glyph-name="iacute" unicode="&#xed;" horiz-adv-x="391" 
d="M311 1200h-254l140 299h290zM336 82q0 -19 2.5 -39t5.5 -31t4 -12h-276q-17 3 -17 78v1048h281v-1044z" />
    <glyph glyph-name="icircumflex" unicode="&#xee;" horiz-adv-x="391" 
d="M344 1501l156 -299h-226l-73 135l-76 -135h-219l155 299h283zM336 82q0 -19 2.5 -39t5.5 -31t4 -12h-276q-17 3 -17 78v1048h281v-1044z" />
    <glyph glyph-name="idieresis" unicode="&#xef;" horiz-adv-x="391" 
d="M471 1458v-258h-219v258h219zM139 1458v-258h-217v258h217zM336 82q0 -19 2.5 -39t5.5 -31t4 -12h-276q-17 3 -17 78v1048h281v-1044z" />
    <glyph glyph-name="eth" unicode="&#xf0;" horiz-adv-x="845" 
d="M530 938q0 60 -6 162q-25 -10 -55 -10q-119 0 -164 139l94 45q22 -72 66 -72q23 0 57 17q-3 78 -6 96q-9 123 -100 123q-45 0 -65.5 -16t-24.5 -58q-2 -12 -2 -51h-265q0 67 7 110q20 96 106 162t242 66q154 0 241.5 -75.5t110.5 -203.5q3 -13 7.5 -37t6.5 -35
q26 13 56 13q55 0 95.5 -35t61.5 -96l-86 -56q-20 74 -69 74q-15 0 -43 -16q18 -264 18 -312q0 -165 -11 -363.5t-38 -281.5q-40 -122 -122.5 -182.5t-227.5 -60.5q-147 0 -231 54.5t-120 168.5q-30 92 -30.5 313.5t26.5 319.5q30 81 100.5 127.5t174.5 46.5
q64 0 106.5 -17.5t89.5 -58.5zM326 721q-5 -39 -5.5 -207.5t3.5 -208.5q7 -52 29.5 -73t66.5 -21q50 0 74 24t28 80q3 34 8 178.5t5 202.5q-26 99 -109 99t-100 -74z" />
    <glyph glyph-name="ntilde" unicode="&#xf1;" horiz-adv-x="815" 
d="M559 1196q-40 0 -66.5 8.5t-56.5 38.5q-43 41 -59 48q-15 6 -31 5q-43 0 -49 -88h-178q5 130 55 205.5t133 75.5q85 0 142 -62q38 -44 73 -41q25 1 36.5 23t14.5 72h175q-4 -137 -55 -211t-134 -74zM766 879q0 -879 6 -879h-270q-3 0 -4 14t-2 91t-1.5 240.5t-0.5 463.5
q0 92 -74 92q-43 0 -69.5 -31t-26.5 -98v-772h-271v1126h264v-110q20 60 78 92.5t137 32.5q234 0 234 -262z" />
    <glyph glyph-name="ograve" unicode="&#xf2;" horiz-adv-x="817" 
d="M410 1499l141 -299h-258l-176 299h293zM748 911q34 -114 34 -346q0 -223 -37 -344q-67 -235 -339 -235q-135 0 -222.5 63t-117.5 172q-14 53 -24.5 153t-10.5 191q0 211 43 353q28 96 111.5 159.5t224.5 63.5q272 0 338 -230zM504 289q12 84 12 272q0 209 -12 273
q-9 40 -32 57.5t-64 17.5q-76 0 -95 -80q-12 -56 -12 -268q0 -210 12 -274q6 -37 31.5 -57.5t63.5 -20.5q37 0 64 23.5t32 56.5z" />
    <glyph glyph-name="oacute" unicode="&#xf3;" horiz-adv-x="817" 
d="M526 1200h-254l140 299h290zM748 911q34 -114 34 -346q0 -223 -37 -344q-67 -235 -339 -235q-135 0 -222.5 63t-117.5 172q-14 53 -24.5 153t-10.5 191q0 211 43 353q28 96 111.5 159.5t224.5 63.5q272 0 338 -230zM504 289q12 84 12 272q0 209 -12 273q-9 40 -32 57.5
t-64 17.5q-76 0 -95 -80q-12 -56 -12 -268q0 -210 12 -274q6 -37 31.5 -57.5t63.5 -20.5q37 0 64 23.5t32 56.5z" />
    <glyph glyph-name="ocircumflex" unicode="&#xf4;" horiz-adv-x="817" 
d="M551 1501l156 -299h-226l-73 135l-76 -135h-219l155 299h283zM748 911q34 -114 34 -346q0 -223 -37 -344q-67 -235 -339 -235q-135 0 -222.5 63t-117.5 172q-14 53 -24.5 153t-10.5 191q0 211 43 353q28 96 111.5 159.5t224.5 63.5q272 0 338 -230zM504 289q12 84 12 272
q0 209 -12 273q-9 40 -32 57.5t-64 17.5q-76 0 -95 -80q-12 -56 -12 -268q0 -210 12 -274q6 -37 31.5 -57.5t63.5 -20.5q37 0 64 23.5t32 56.5z" />
    <glyph glyph-name="otilde" unicode="&#xf5;" horiz-adv-x="817" 
d="M530 1196q-40 0 -66 8.5t-56 38.5q-20 19 -26 24.5t-19 15t-23 12t-23 1.5q-43 0 -49 -88h-178q5 129 55.5 205t133.5 76q84 0 141 -62q38 -44 74 -41q25 1 36.5 23t14.5 72h174q-4 -137 -55 -211t-134 -74zM748 911q34 -114 34 -346q0 -223 -37 -344q-67 -235 -339 -235
q-135 0 -222.5 63t-117.5 172q-14 53 -24.5 153t-10.5 191q0 211 43 353q28 96 111.5 159.5t224.5 63.5q272 0 338 -230zM504 289q12 84 12 272q0 209 -12 273q-9 40 -32 57.5t-64 17.5q-76 0 -95 -80q-12 -56 -12 -268q0 -210 12 -274q6 -37 31.5 -57.5t63.5 -20.5
q37 0 64 23.5t32 56.5z" />
    <glyph glyph-name="odieresis" unicode="&#xf6;" horiz-adv-x="817" 
d="M684 1458v-258h-219v258h219zM352 1458v-258h-217v258h217zM748 911q34 -114 34 -346q0 -223 -37 -344q-67 -235 -339 -235q-135 0 -222.5 63t-117.5 172q-14 53 -24.5 153t-10.5 191q0 211 43 353q28 96 111.5 159.5t224.5 63.5q272 0 338 -230zM504 289q12 84 12 272
q0 209 -12 273q-9 40 -32 57.5t-64 17.5q-76 0 -95 -80q-12 -56 -12 -268q0 -210 12 -274q6 -37 31.5 -57.5t63.5 -20.5q37 0 64 23.5t32 56.5z" />
    <glyph glyph-name="oslash" unicode="&#xf8;" horiz-adv-x="817" 
d="M135 -55l41 108q-83 65 -110 168q-14 53 -24.5 153t-10.5 191q0 211 43 353q28 96 111.5 159.5t224.5 63.5q81 0 157 -27l23 64h86q-37 -101 -39 -101q82 -59 111 -166q34 -114 34 -346q0 -223 -37 -344q-67 -235 -339 -235q-90 0 -160 28l-27 -69h-84zM301 561
q0 -62 4 -180l182 493q-22 35 -79 35q-76 0 -95 -80q-12 -56 -12 -268zM516 561q0 73 -4 191q0 1 -46.5 -124t-93.5 -250l-46 -126q24 -43 82 -43q37 0 64 23.5t32 56.5q12 84 12 272z" />
    <glyph glyph-name="ugrave" unicode="&#xf9;" 
d="M428 1499l141 -299h-258l-176 299h293zM762 135q0 -103 4 -135h-260l-8 70q-29 -37 -81.5 -57.5t-115.5 -20.5q-254 0 -254 291q0 841 -2 843h274q3 0 3 -817q0 -50 19 -71t60 -21q88 0 88 125v784h273v-991z" />
    <glyph glyph-name="uacute" unicode="&#xfa;" 
d="M512 1200h-254l139 299h291zM762 135q0 -103 4 -135h-260l-8 70q-29 -37 -81.5 -57.5t-115.5 -20.5q-254 0 -254 291q0 841 -2 843h274q3 0 3 -817q0 -50 19 -71t60 -21q88 0 88 125v784h273v-991z" />
    <glyph glyph-name="ucircumflex" unicode="&#xfb;" 
d="M545 1501l155 -299h-225l-74 135l-75 -135h-220l156 299h283zM762 135q0 -103 4 -135h-260l-8 70q-29 -37 -81.5 -57.5t-115.5 -20.5q-254 0 -254 291q0 841 -2 843h274q3 0 3 -817q0 -50 19 -71t60 -21q88 0 88 125v784h273v-991z" />
    <glyph glyph-name="udieresis" unicode="&#xfc;" 
d="M684 1458v-258h-219v258h219zM352 1458v-258h-217v258h217zM762 135q0 -103 4 -135h-260l-8 70q-29 -37 -81.5 -57.5t-115.5 -20.5q-254 0 -254 291q0 841 -2 843h274q3 0 3 -817q0 -50 19 -71t60 -21q88 0 88 125v784h273v-991z" />
    <glyph glyph-name="yacute" unicode="&#xfd;" horiz-adv-x="829" 
d="M512 1200h-254l139 299h291zM555 1126h272l-368 -1460h-281l92 365l-268 1095h279q2 -13 69 -362.5t68 -362.5q1 7 35.5 183.5t67.5 351.5t34 190z" />
    <glyph glyph-name="thorn" unicode="&#xfe;" horiz-adv-x="831" 
d="M756 983q49 -131 49 -401q0 -269 -41 -394q-28 -92 -92 -142t-158 -50q-128 0 -192 61v-391h-269v1970h264v-596q22 47 76.5 74t130.5 27q90 0 146.5 -38t85.5 -120zM514 293q12 61 12 280q0 207 -18 273q-16 61 -84 61q-35 0 -56.5 -20t-27.5 -53q-21 -105 -21 -261
q0 -212 15 -294q21 -62 88 -62q77 0 92 76z" />
    <glyph glyph-name="ydieresis" unicode="&#xff;" horiz-adv-x="829" 
d="M694 1458v-258h-219v258h219zM362 1458v-258h-217v258h217zM555 1126h272l-368 -1460h-281l92 365l-268 1095h279q2 -13 69 -362.5t68 -362.5q1 7 35.5 183.5t67.5 351.5t34 190z" />
    <glyph glyph-name="dotlessi" unicode="&#x131;" horiz-adv-x="391" 
d="M336 82q0 -19 2.5 -39t5.5 -31t4 -12h-276q-17 3 -17 78v1048h281v-1044z" />
    <glyph glyph-name="Lslash" unicode="&#x141;" horiz-adv-x="808" 
d="M590 715l-219 -74v-367h424v-274h-732v549l-47 -19v166l47 19v919h308v-829l219 76v-166z" />
    <glyph glyph-name="lslash" unicode="&#x142;" horiz-adv-x="411" 
d="M406 655l-64 -22v-549q0 -74 10 -84q-272 -2 -272 0q-10 10 -10 78v457l-62 -21v168l62 23v833q0 74 -7 98h275q0 -1 1 -10.5t2 -26t1 -32.5v-766l64 24v-170z" />
    <glyph glyph-name="OE" unicode="&#x152;" horiz-adv-x="1337" 
d="M725 1573v61h596v-278h-420v-402h387v-266h-387v-414h420v-274h-598v59q-30 -30 -100.5 -53.5t-149.5 -23.5q-354 0 -410 319q-9 54 -17.5 225t-8.5 295q0 146 7 298.5t19 191.5q55 336 406 336q185 0 256 -74zM362 348q11 -52 39.5 -78t83.5 -26q95 0 115 86q4 53 4 489
q0 418 -4 453q-8 59 -35 84.5t-82 25.5q-56 0 -82 -28.5t-39 -91.5q-8 -43 -14 -192.5t-6 -256.5q0 -377 20 -465z" />
    <glyph glyph-name="oe" unicode="&#x153;" horiz-adv-x="1265" 
d="M895 -14q-103 0 -164 22t-90 70q-27 -42 -95 -67t-151 -25q-136 0 -217 66t-110 169q-15 52 -26 151.5t-11 192.5q0 91 13 197.5t30 155.5q33 98 114 160.5t222 62.5q151 0 245 -90q23 36 81.5 63t154.5 27q116 0 196.5 -49.5t116.5 -137.5q28 -70 39.5 -203t3.5 -282
h-465q0 -107 9 -184q4 -39 32 -59.5t62 -20.5t60.5 15.5t33.5 47.5q12 53 12 99h250q0 -41 -12.5 -112t-40.5 -120q-83 -149 -293 -149zM778 670h211q0 137 -14 184q-16 61 -88 61q-71 0 -92 -59q-17 -42 -17 -186zM504 293q12 61 12 268q0 209 -12 273q-9 40 -32 57.5
t-64 17.5q-76 0 -95 -80q-12 -56 -12 -268q0 -217 10 -270q7 -37 33 -57.5t64 -20.5q80 0 96 80z" />
    <glyph glyph-name="Scaron" unicode="&#x160;" horiz-adv-x="880" 
d="M295 1706l-156 299h226l73 -135l76 135h221l-155 -299h-285zM627 854q120 -113 172.5 -214.5t52.5 -256.5q0 -188 -111.5 -294.5t-298.5 -106.5q-191 0 -295.5 75t-115.5 213q-4 51 -4 195h284q0 -122 4 -146q14 -90 119 -90q60 0 91.5 32.5t31.5 94.5q0 101 -35 168
t-127 150q-114 103 -147 131q-60 53 -98 95.5t-69 96.5t-44.5 118t-13.5 145q0 180 110.5 285.5t302.5 105.5q95 0 167.5 -25.5t118.5 -72t72.5 -105t36.5 -131.5q13 -114 13 -168h-287q0 62 -8 133q-6 53 -32.5 80t-82.5 27q-61 0 -90 -29.5t-29 -93.5q0 -78 41 -141
t121 -136q14 -13 47.5 -43t61 -54.5t41.5 -37.5z" />
    <glyph glyph-name="scaron" unicode="&#x161;" horiz-adv-x="745" 
d="M225 1210l-155 299h225l74 -135l75 135h222l-156 -299h-285zM524 637q108 -54 152.5 -129t44.5 -203q0 -156 -93.5 -238.5t-250.5 -82.5q-169 0 -252.5 55.5t-97.5 171.5q-7 65 -7 143h254q0 -6 1 -18.5t2 -32.5t2 -33q6 -67 92 -67q40 0 65 24t25 70q0 53 -23.5 84.5
t-81.5 54.5q-19 8 -67 30.5t-64 29.5q-107 51 -151.5 131.5t-44.5 210.5q0 138 84.5 221.5t242.5 83.5q286 0 330 -203q4 -22 8 -87t4 -87h-247q0 64 -5 84q-8 68 -79 68q-84 0 -84 -87q0 -42 19.5 -69.5t68.5 -50.5q13 -6 68 -32t85 -42z" />
    <glyph glyph-name="Ydieresis" unicode="&#x178;" horiz-adv-x="985" 
d="M774 1954v-258h-219v258h219zM442 1954v-258h-217v258h217zM690 1634h295l-352 -1022v-612h-299v606l-334 1028h305q160 -598 178 -682z" />
    <glyph glyph-name="Zcaron" unicode="&#x17d;" horiz-adv-x="837" 
d="M274 1706l-155 299h225l74 -135l76 135h221l-156 -299h-285zM825 276v-276h-807v248l463 1106h-430v280h764v-243l-467 -1115h477z" />
    <glyph glyph-name="zcaron" unicode="&#x17e;" horiz-adv-x="704" 
d="M207 1210l-156 299h225l74 -135l76 135h221l-155 -299h-285zM686 238v-238h-663v227l370 660h-360v239h647v-231l-371 -657h377z" />
    <glyph glyph-name="florin" unicode="&#x192;" horiz-adv-x="663" 
d="M471 889q-1 -5 -22.5 -244.5t-43 -476t-22.5 -238.5q-11 -128 -82.5 -201t-212.5 -73q-73 0 -143 8l2 223q29 -2 80 -2q37 0 59 24.5t25 59.5q0 2 41.5 455t42.5 465h-101v244h123l23 243q11 126 84.5 198.5t220.5 72.5q58 0 141 -9v-221q-4 0 -36.5 3t-47.5 3
q-41 -1 -65 -25.5t-27 -58.5l-18 -211h133l-2 -239h-152z" />
    <glyph glyph-name="circumflex" unicode="&#x2c6;" horiz-adv-x="768" 
d="M526 1501l156 -299h-225l-74 135l-76 -135h-219l156 299h282z" />
    <glyph glyph-name="caron" unicode="&#x2c7;" horiz-adv-x="768" 
d="M240 1210l-156 299h225l74 -135l76 135h221l-156 -299h-284z" />
    <glyph glyph-name="breve" unicode="&#x2d8;" horiz-adv-x="768" 
d="M475 1464h219q0 -120 -82 -195t-227 -75t-228 74.5t-83 195.5h221q0 -42 22 -69t66 -27q47 0 69.5 26t22.5 70z" />
    <glyph glyph-name="dotaccent" unicode="&#x2d9;" horiz-adv-x="768" 
d="M498 1462v-260h-226v260h226z" />
    <glyph glyph-name="ring" unicode="&#x2da;" horiz-adv-x="768" 
d="M186 1389q0 85 57 142.5t140 57.5t141 -57.5t58 -142.5q0 -86 -58 -145.5t-141 -59.5t-140 59.5t-57 145.5zM451 1389q0 28 -20 48.5t-48 20.5q-26 0 -45 -20.5t-19 -48.5q0 -29 19 -50.5t45 -21.5q28 0 48 21.5t20 50.5z" />
    <glyph glyph-name="ogonek" unicode="&#x2db;" horiz-adv-x="845" 
d="M487 -92q-77 -28 -77 -92q0 -28 28 -50.5t76 -29.5v-119q-307 28 -307 199q0 75 62.5 124.5t195.5 59.5z" />
    <glyph glyph-name="tilde" unicode="&#x2dc;" horiz-adv-x="768" 
d="M504 1196q-40 0 -66.5 8.5t-56.5 38.5q-43 41 -59 48q-15 6 -31 5q-43 0 -49 -88h-179q5 129 55.5 205t133.5 76q84 0 141 -62q38 -44 74 -41q25 1 36.5 23t14.5 72h174q-4 -137 -54.5 -211t-133.5 -74z" />
    <glyph glyph-name="hungarumlaut" unicode="&#x2dd;" horiz-adv-x="768" 
d="M616 1200h-206l98 299h246zM322 1200h-207l98 299h246z" />
    <glyph glyph-name="endash" unicode="&#x2013;" horiz-adv-x="604" 
d="M578 868v-266h-551v266h551z" />
    <glyph glyph-name="emdash" unicode="&#x2014;" horiz-adv-x="948" 
d="M848 868v-266h-748v266h748z" />
    <glyph glyph-name="quoteleft" unicode="&#x2018;" horiz-adv-x="362" 
d="M268 1413h60v-340h-287v352l176 222l125 -88l-78 -136z" />
    <glyph glyph-name="quoteright" unicode="&#x2019;" horiz-adv-x="362" 
d="M100 1292h-59v342h287v-354l-176 -219l-125 88l77 135z" />
    <glyph glyph-name="quotesinglbase" unicode="&#x201a;" horiz-adv-x="362" 
d="M100 0h-59v342h287v-354l-176 -219l-125 88l77 135z" />
    <glyph glyph-name="quotedblleft" unicode="&#x201c;" horiz-adv-x="704" 
d="M604 1411l60 -2v-336h-283v348l178 226l121 -88l-80 -140zM268 1411h56v-338h-281v348l178 226l123 -88l-80 -140z" />
    <glyph glyph-name="quotedblright" unicode="&#x201d;" horiz-adv-x="704" 
d="M442 1296h-57v338h281v-350l-177 -223l-122 88l79 139zM104 1296h-57v338h281v-350l-178 -223l-121 88l80 139z" />
    <glyph glyph-name="quotedblbase" unicode="&#x201e;" horiz-adv-x="704" 
d="M442 0h-57v338h281v-350l-177 -224l-122 89l79 139zM104 0h-57v338h281v-350l-178 -224l-121 89l80 139z" />
    <glyph glyph-name="dagger" unicode="&#x2020;" horiz-adv-x="559" 
d="M537 1069v-205h-121v-878l-137 -211l-136 211v878h-123v205h123v555h275q2 -416 -2 -555h121z" />
    <glyph glyph-name="daggerdbl" unicode="&#x2021;" horiz-adv-x="559" 
d="M416 948v-203h114v-198h-114v-561l-135 -211l-136 211v561h-116v198h118v203h-118v201h116v475h273q0 -348 -2 -475h114v-201h-114z" />
    <glyph glyph-name="bullet" unicode="&#x2022;" horiz-adv-x="741" 
d="M637 745q0 -113 -78 -194.5t-186 -81.5q-109 0 -188 82t-79 194q0 115 78.5 195t188.5 80q109 0 186.5 -80t77.5 -195z" />
    <glyph glyph-name="ellipsis" unicode="&#x2026;" horiz-adv-x="1320" 
d="M1251 369v-369h-305v369h305zM813 369v-369h-305v369h305zM373 369v-369h-307v369h307z" />
    <glyph glyph-name="perthousand" unicode="&#x2030;" horiz-adv-x="1906" 
d="M616 1350v-222q0 -141 -75 -224t-215 -83t-211.5 82.5t-71.5 224.5v222q0 134 73 220.5t216 86.5q76 0 133 -26t89 -70.5t47 -97t15 -113.5zM909 1595h148l-701 -1595h-149zM332 1022q84 0 84 117v209q0 44 -23 73t-61 29q-42 0 -64 -27.5t-22 -74.5v-207q0 -119 86 -119
zM1870 512v-223q0 -142 -73.5 -223.5t-219.5 -81.5q-140 0 -210.5 82t-70.5 223v223q0 131 73.5 219t213.5 88q75 0 132.5 -26t90 -71t48.5 -97.5t16 -112.5zM1239 512v-223q0 -142 -73.5 -223.5t-219.5 -81.5q-140 0 -211 82.5t-71 222.5v223q0 131 73.5 219t214.5 88
q75 0 132.5 -26t90 -71t48.5 -97.5t16 -112.5zM1583 184q86 0 86 117v209q0 44 -22.5 73t-63.5 29q-43 0 -63.5 -28t-20.5 -74v-209q0 -117 84 -117zM952 184q86 0 86 117v209q0 44 -22.5 73t-63.5 29q-44 0 -65 -28t-21 -74v-209q0 -117 86 -117z" />
    <glyph glyph-name="guilsinglleft" unicode="&#x2039;" horiz-adv-x="434" 
d="M410 539v-297l-383 376v203l383 377v-295l-187 -182z" />
    <glyph glyph-name="guilsinglright" unicode="&#x203a;" horiz-adv-x="434" 
d="M408 618l-381 -376v297l186 182l-186 182v295l381 -377v-203z" />
    <glyph glyph-name="fraction" unicode="&#x2044;" horiz-adv-x="243" 
d="M281 1632h143q-175 -639 -238 -825q-26 -76 -82.5 -278t-99.5 -365l-43 -164h-143q182 680 248 870q25 76 79 266.5t95 343.5z" />
    <glyph glyph-name="Euro" unicode="&#x20ac;" horiz-adv-x="919" 
d="M862 305q-27 -158 -116 -239.5t-252 -81.5q-164 0 -253 80t-118 233q-8 52 -17 326h-86v157h78v70h-78v158h84q8 293 25 372q62 269 363 269q153 0 239.5 -70.5t120.5 -206.5q25 -109 29 -309h-287v205q-3 143 -100 143q-50 0 -73 -32t-28 -97q-4 -41 -4 -274h172v-158
h-174v-70h174v-157h-172q0 -238 4 -277q5 -68 28.5 -101.5t72.5 -33.5q97 0 100 141q4 90 0 195h287q-4 -152 -19 -242z" />
    <glyph glyph-name="uni2117" unicode="&#x2117;" horiz-adv-x="1060" 
d="M1024 1204q3 -129 0 -293q-3 -230 -127.5 -350.5t-361.5 -120.5q-238 0 -366.5 121.5t-131.5 349.5q-3 104 0 293q4 219 134 330t359 111q227 0 358.5 -110t135.5 -331zM530 547q202 0 292 95.5t93 301.5v262q-3 159 -99 241.5t-286 82.5q-187 0 -284.5 -82.5
t-100.5 -239.5v-264q1 -199 99 -298t286 -99zM625 887h-158v-185h-188v652h292q119 0 181 -51q38 -30 54.5 -80t16.5 -93q0 -117 -41 -172q-24 -33 -68.5 -52t-88.5 -19zM563 1030q25 0 37 5.5t23 19.5q10 14 10 61q0 28 -12 60q-17 28 -70 28h-84v-174h96z" />
    <glyph glyph-name="trademark" unicode="&#x2122;" horiz-adv-x="1351" 
d="M1315 1059h-195v334q0 33 -10.5 49t-38.5 16t-42.5 -25.5t-14.5 -66.5v-307h-193v338q0 32 -11.5 46.5t-37.5 14.5q-29 0 -45 -27.5t-16 -72.5v-299h-193v577h189v-96q12 51 53.5 79t101.5 28q58 0 91.5 -30t43.5 -77q33 107 164 107q82 0 118 -49.5t36 -116.5v-422z
M479 1636v-184h-153q0 -144 2 -174q3 -53 61 -53q45 0 55 2v-164q-36 -8 -127 -8q-84 0 -133 42.5t-49 123.5v231h-129v184h473z" />
    <glyph glyph-name="minus" unicode="&#x2212;" horiz-adv-x="743" 
d="M717 922v-238h-692v238h692z" />
    <glyph glyph-name="radical" unicode="&#x221a;" horiz-adv-x="1019" 
d="M709 1638h305l-375 -1673h-414l-205 694h271l123 -432z" />
    <glyph glyph-name="apple" unicode="&#xf8ff;" horiz-adv-x="747" 
d="M141 823q0 86 57.5 152t141.5 78v344h-330v231h727v-231h-334v-344q84 -12 141.5 -78t57.5 -152t-58 -150.5t-143 -76.5v-326h336v-260h-727v260h328v326q-84 14 -140.5 78t-56.5 149zM195 823q0 -43 18 -80q12 2 96 25q-54 -69 -57 -74q40 -35 86 -43v97l31 67l30 -67
v-97q51 9 88 43q-8 13 -29 38.5t-28 35.5q84 -23 96 -25q21 40 21 80q0 42 -23 86q-36 -8 -94 -24q8 12 28 35.5t27 33.5q-34 34 -84 43v-96l-32 -70l-29 70v96q-42 -8 -86 -43q8 -13 30 -39t29 -36q-51 17 -98 24q-20 -36 -20 -80z" />
    <glyph glyph-name="nbspace" horiz-adv-x="155" 
 />
    </font>
</defs>
</svg>
