<svg width="100%" height="auto" viewBox="0 0 1224 251" fill="none" xmlns="http://www.w3.org/2000/svg">
<path d="M121.54 92.107C119.3 83.467 112.1 78.027 101.06 78.027C94.02 78.027 87.3 80.107 83.78 84.587C83.78 81.707 84.1 65.387 84.26 60.427C84.58 52.587 87.14 49.067 92.42 49.067C97.86 49.067 99.62 52.107 100.26 58.507C100.42 59.787 100.42 64.267 100.42 66.187H121.54C121.54 63.467 121.7 54.507 121.06 50.667C119.14 38.347 111.46 28.747 92.74 28.747C74.34 28.747 65.38 39.787 63.14 54.827C62.02 62.987 61.38 81.867 61.38 93.707C61.38 105.707 61.86 130.347 65.06 140.107C69.22 152.747 78.66 158.987 93.38 158.987C110.18 158.987 117.7 150.667 121.06 140.267C123.78 131.947 123.94 101.547 121.54 92.107ZM92.74 139.947C88.26 139.947 85.06 137.707 84.58 131.627C84.26 128.267 83.78 111.307 83.78 105.067C84.58 101.227 87.94 96.747 93.22 96.747C98.02 96.747 99.94 99.307 100.26 104.267C100.58 108.107 100.58 128.427 100.26 132.427C99.78 137.867 97.06 139.947 92.74 139.947Z" fill="white"/>
<path d="M73.2044 192.035V187.715H67.5344V189.749H71.0084C71.0084 189.749 71.0264 191.801 70.9904 191.981C70.7564 193.043 69.8024 193.853 68.2724 193.853C67.0124 193.853 66.2384 193.529 65.7524 192.827C65.1764 191.981 65.0144 190.739 65.0144 188.633C65.0144 186.563 65.2664 185.213 65.7704 184.439C66.2564 183.719 67.0304 183.413 68.1104 183.413C69.1184 183.413 69.8204 183.719 70.2344 184.331C70.6124 184.907 70.8284 185.753 70.8284 186.239H73.1324C73.1324 185.609 72.9524 184.367 72.5204 183.503C71.8724 182.225 70.5224 181.271 68.0564 181.271C65.6804 181.271 64.3484 182.261 63.5924 183.431C62.8004 184.673 62.5664 186.383 62.5664 188.597C62.5664 191.171 62.9624 192.827 63.6464 193.907C64.4744 195.203 65.8784 195.887 67.7684 195.887C69.7124 195.887 70.7564 195.203 71.2424 194.483L71.3504 195.707H73.2224C73.2224 195.653 73.2044 193.745 73.2044 192.035ZM85.209 192.251L86.199 195.707H88.647L84.435 181.451H81.411L76.911 195.707H79.323L80.367 192.251H85.209ZM81.015 190.199C81.015 190.199 82.581 185.033 82.599 184.943C82.635 184.799 82.869 183.665 82.869 183.665C82.869 183.665 83.103 184.799 83.139 184.943C83.175 185.051 84.597 190.199 84.597 190.199H81.015ZM105.429 181.451H102.351L99.1468 192.053L95.9968 181.451H92.7388V195.707H94.9528V185.933L97.8868 195.707H100.209L103.197 185.897V195.707H105.429V181.451ZM119.504 193.547H113.006V189.641H119.144V187.463H113.006V183.611H119.432V181.451H110.666V195.707H119.504V193.547ZM58.9932 215.769C58.5972 215.625 57.7512 215.301 57.2472 215.139C55.5012 214.563 54.6372 214.005 54.6372 212.889C54.6372 211.935 55.2852 211.359 57.1032 211.359C58.6512 211.359 59.3712 211.791 59.6772 212.673C59.7852 212.997 59.8392 213.267 59.8392 213.573H62.2512C62.2512 213.033 62.1612 212.601 62.0352 212.169C61.5312 210.405 60.0912 209.289 57.1572 209.289C53.7912 209.289 52.2072 210.765 52.2072 212.961C52.2072 215.067 53.5932 216.327 55.7352 217.029C56.3292 217.227 57.1752 217.551 57.5352 217.677C59.4432 218.343 60.0192 218.919 60.0192 220.125C60.0192 221.205 59.2452 221.853 57.4272 221.853C55.8792 221.853 54.9792 221.457 54.7092 220.611C54.6012 220.269 54.5472 219.783 54.5472 219.531H52.1532C52.1532 219.945 52.1892 220.611 52.3152 221.097C52.7472 222.771 54.1872 223.887 57.4812 223.887C60.8112 223.887 62.4492 222.303 62.4492 219.927C62.4492 217.713 61.2252 216.543 58.9932 215.769ZM75.9467 209.451H65.8487V211.593H69.6827V223.707H72.0947V211.593H75.9467V209.451ZM89.3267 211.035C88.8227 210.027 87.8687 209.451 86.3027 209.451H80.0927V223.707H82.4327V217.767H85.5287L88.0127 223.707H90.6227L87.8147 217.245C88.4447 217.119 89.0207 216.669 89.3807 215.985C89.6507 215.445 89.7947 214.653 89.7947 213.573C89.7947 212.421 89.6867 211.719 89.3267 211.035ZM87.2387 215.103C87.0587 215.499 86.6087 215.715 85.9787 215.733H82.4507V211.575H85.7987C86.6087 211.575 87.1127 211.863 87.3107 212.403C87.4007 212.637 87.4367 213.267 87.4367 213.789C87.4367 214.221 87.3647 214.797 87.2387 215.103ZM103.799 221.547H97.301V217.641H103.439V215.463H97.301V211.611H103.727V209.451H94.961V223.707H103.799V221.547ZM115.656 220.251L116.646 223.707H119.094L114.882 209.451H111.858L107.358 223.707H109.77L110.814 220.251H115.656ZM111.462 218.199C111.462 218.199 113.028 213.033 113.046 212.943C113.082 212.799 113.316 211.665 113.316 211.665C113.316 211.665 113.55 212.799 113.586 212.943C113.622 213.051 115.044 218.199 115.044 218.199H111.462ZM128.244 215.607L133.374 209.451H130.71L125.562 215.517V209.451H123.186V223.707H125.562V218.613L126.606 217.389L130.674 223.707H133.482L128.244 215.607Z" fill="white"/>
<g clip-path="url(#clip0_2915_32598)">
<path d="M233.012 33.995C235.478 33.995 237.44 32.015 237.422 29.585C237.404 27.191 235.514 25.265 233.156 25.265C231.608 25.265 230.474 25.877 229.628 27.281H229.592C229.682 23.951 230.6 22.007 233.012 22.007C234.452 22.007 235.226 22.997 235.352 23.879H237.062C236.828 22.295 235.55 20.585 232.976 20.585C231.32 20.585 230.078 21.233 229.232 22.385C228.386 23.555 227.954 25.229 227.954 27.227C227.954 29.801 228.404 31.547 229.736 32.771C230.51 33.527 231.572 33.995 233.012 33.995ZM232.976 32.609C231.248 32.609 229.916 31.385 229.916 29.621C229.916 27.839 231.14 26.669 232.922 26.669C234.56 26.669 235.802 27.875 235.802 29.639C235.802 31.403 234.596 32.609 232.976 32.609ZM248.287 37.091C249.583 37.091 250.663 36.803 251.419 36.173C252.157 35.543 252.589 34.589 252.589 33.311V24.041H250.933V25.319H250.897C250.285 24.347 249.349 23.807 247.963 23.807C245.695 23.807 243.823 25.571 243.823 28.541C243.823 31.349 245.587 33.275 248.053 33.275C249.421 33.275 250.267 32.681 250.933 31.727H250.969C250.951 32.033 250.933 32.555 250.933 33.113V33.383C250.933 35.021 249.979 35.795 248.251 35.795C246.811 35.795 245.839 35.381 245.695 34.373H244.129C244.309 36.083 245.749 37.091 248.287 37.091ZM248.215 31.907C246.469 31.907 245.533 30.611 245.533 28.559C245.533 26.525 246.433 25.193 248.197 25.193C250.123 25.193 251.041 26.435 251.041 28.469C251.041 30.431 250.321 31.907 248.215 31.907ZM257.786 33.905C259.424 33.905 260.414 33.131 261.026 32.285H261.044C261.224 33.311 261.728 33.797 262.754 33.797C263.15 33.797 263.42 33.725 263.654 33.653V32.483H263.582C262.736 32.663 262.556 32.249 262.556 31.475V26.957C262.556 25.661 262.07 24.815 261.26 24.329C260.648 23.969 259.838 23.807 258.92 23.807C256.31 23.807 255.068 25.265 254.996 26.903H256.616C256.67 25.751 257.408 25.031 258.938 25.031C260.27 25.031 261.008 25.679 261.008 26.723C261.008 27.713 260.09 27.947 258.668 28.109C256.166 28.415 254.51 28.901 254.51 31.151C254.51 33.005 255.95 33.905 257.786 33.905ZM258.2 32.681C257.228 32.681 256.274 32.375 256.274 31.133C256.274 29.801 257.318 29.513 258.902 29.243C259.694 29.099 260.54 28.865 261.026 28.559V30.143C261.026 31.259 260.126 32.681 258.2 32.681ZM265.013 33.707H266.687V27.749C266.687 26.273 267.929 25.211 269.081 25.211C270.071 25.211 270.737 25.913 270.737 27.101V33.707H272.393V27.749C272.393 26.273 273.455 25.211 274.679 25.211C275.651 25.211 276.425 25.913 276.425 27.101V33.707H278.099V26.957C278.099 24.941 276.875 23.807 275.111 23.807C273.941 23.807 272.807 24.401 272.123 25.607H272.087C271.691 24.419 270.755 23.807 269.585 23.807C268.343 23.807 267.317 24.437 266.723 25.481H266.669V24.041H265.013V33.707ZM284.535 33.977C286.767 33.977 288.315 32.753 288.747 30.953H287.109C286.803 31.979 285.885 32.609 284.553 32.609C282.681 32.609 281.655 31.169 281.529 29.279H288.945C288.945 27.641 288.549 26.255 287.757 25.301C287.001 24.365 285.885 23.807 284.445 23.807C281.673 23.807 279.819 26.075 279.819 28.883C279.819 31.709 281.565 33.977 284.535 33.977ZM284.445 25.103C286.119 25.103 287.073 26.219 287.163 28.073H281.565C281.781 26.363 282.699 25.103 284.445 25.103ZM297.599 33.707H299.291L300.749 28.379C300.983 27.461 301.343 25.679 301.343 25.679H301.379C301.379 25.679 301.757 27.443 301.991 28.379L303.413 33.707H305.087L308.237 24.041H306.509L304.907 29.405C304.547 30.593 304.277 32.249 304.277 32.249H304.241C304.241 32.249 303.899 30.467 303.629 29.441L302.189 24.041H300.605L299.147 29.441C298.823 30.611 298.499 32.231 298.499 32.231H298.463C298.463 32.231 298.139 30.503 297.833 29.405L296.321 24.041H294.539L297.599 33.707ZM309.538 22.259H311.284V20.315H309.538V22.259ZM309.574 33.707H311.248V24.041H309.574V33.707ZM315.203 24.041H313.547V33.707H315.221V27.821C315.221 26.273 316.301 25.211 317.795 25.211C319.109 25.211 319.919 25.913 319.919 27.155V33.707H321.575V26.957C321.575 24.941 320.333 23.807 318.317 23.807C316.913 23.807 315.959 24.437 315.257 25.409H315.203V24.041ZM332.319 33.995C334.587 33.995 336.207 32.987 336.207 31.025C336.207 28.775 334.551 28.343 332.625 27.965C330.987 27.641 330.051 27.443 330.051 26.435C330.051 25.697 330.609 25.085 331.923 25.085C333.309 25.085 333.993 25.643 334.137 26.633H335.811C335.595 24.959 334.389 23.825 331.959 23.825C329.709 23.825 328.413 24.869 328.413 26.525C328.413 28.649 330.123 29.045 332.013 29.441C333.723 29.783 334.533 30.053 334.533 31.115C334.533 31.979 333.885 32.645 332.355 32.645C330.969 32.645 329.889 32.177 329.691 30.773H327.999C328.143 32.735 329.655 33.995 332.319 33.995ZM337.246 25.337H338.758V31.817C338.758 33.239 339.658 33.761 340.954 33.779C341.386 33.779 341.854 33.725 342.304 33.617V32.213H342.25C342.07 32.267 341.692 32.339 341.404 32.339C340.792 32.339 340.414 32.141 340.414 31.439V25.337H342.412V24.041H340.414V20.999H338.758V24.041H337.246V25.337ZM345.806 24.041H344.15V33.707H345.824V28.451C345.824 26.633 347.102 25.517 348.596 25.517C348.884 25.517 349.046 25.535 349.28 25.607H349.334V24.023C349.154 23.951 348.992 23.915 348.722 23.915C347.444 23.915 346.454 24.671 345.86 25.787H345.806V24.041ZM354.813 33.977C357.045 33.977 358.593 32.753 359.025 30.953H357.387C357.081 31.979 356.163 32.609 354.831 32.609C352.959 32.609 351.933 31.169 351.807 29.279H359.223C359.223 27.641 358.827 26.255 358.035 25.301C357.279 24.365 356.163 23.807 354.723 23.807C351.951 23.807 350.097 26.075 350.097 28.883C350.097 31.709 351.843 33.977 354.813 33.977ZM354.723 25.103C356.397 25.103 357.351 26.219 357.441 28.073H351.843C352.059 26.363 352.977 25.103 354.723 25.103ZM363.887 33.905C365.525 33.905 366.515 33.131 367.127 32.285H367.145C367.325 33.311 367.829 33.797 368.855 33.797C369.251 33.797 369.521 33.725 369.755 33.653V32.483H369.683C368.837 32.663 368.657 32.249 368.657 31.475V26.957C368.657 25.661 368.171 24.815 367.361 24.329C366.749 23.969 365.939 23.807 365.021 23.807C362.411 23.807 361.169 25.265 361.097 26.903H362.717C362.771 25.751 363.509 25.031 365.039 25.031C366.371 25.031 367.109 25.679 367.109 26.723C367.109 27.713 366.191 27.947 364.769 28.109C362.267 28.415 360.611 28.901 360.611 31.151C360.611 33.005 362.051 33.905 363.887 33.905ZM364.301 32.681C363.329 32.681 362.375 32.375 362.375 31.133C362.375 29.801 363.419 29.513 365.003 29.243C365.795 29.099 366.641 28.865 367.127 28.559V30.143C367.127 31.259 366.227 32.681 364.301 32.681ZM377.469 33.707H379.431L375.309 27.515L378.999 24.041H376.911L372.717 28.163C372.753 27.695 372.789 27.011 372.789 26.669V20.315H371.115V33.707H372.789V29.909L374.157 28.613L377.469 33.707ZM385.652 36.983H387.326V34.049C387.326 33.311 387.308 32.771 387.29 32.429H387.344C388.01 33.455 389.072 33.995 390.386 33.995C392.996 33.995 394.598 31.997 394.598 28.901C394.598 25.715 392.906 23.807 390.44 23.807C389.054 23.807 388.082 24.455 387.362 25.553H387.308V24.041H385.652V36.983ZM390.206 32.609C388.064 32.609 387.236 30.971 387.236 28.937C387.236 26.885 388.172 25.229 390.224 25.229C392.006 25.229 392.888 26.813 392.888 28.937C392.888 31.043 391.988 32.609 390.206 32.609ZM398.031 24.041H396.375V33.707H398.049V28.451C398.049 26.633 399.327 25.517 400.821 25.517C401.109 25.517 401.271 25.535 401.505 25.607H401.559V24.023C401.379 23.951 401.217 23.915 400.947 23.915C399.669 23.915 398.679 24.671 398.085 25.787H398.031V24.041ZM403.159 22.259H404.905V20.315H403.159V22.259ZM403.195 33.707H404.869V24.041H403.195V33.707ZM406.808 33.707H414.602V32.231H410.696C409.994 32.231 408.77 32.285 408.77 32.285V32.231C408.77 32.231 409.58 31.349 409.994 30.827L414.386 25.085V24.041H407.132V25.463H410.462C411.128 25.463 412.28 25.409 412.28 25.409V25.463C412.28 25.463 411.524 26.273 411.128 26.777L406.808 32.411V33.707ZM420.221 33.977C422.453 33.977 424.001 32.753 424.433 30.953H422.795C422.489 31.979 421.571 32.609 420.239 32.609C418.367 32.609 417.341 31.169 417.215 29.279H424.631C424.631 27.641 424.235 26.255 423.443 25.301C422.687 24.365 421.571 23.807 420.131 23.807C417.359 23.807 415.505 26.075 415.505 28.883C415.505 31.709 417.251 33.977 420.221 33.977ZM420.131 25.103C421.805 25.103 422.759 26.219 422.849 28.073H417.251C417.467 26.363 418.385 25.103 420.131 25.103Z" fill="white"/>
<path fill-rule="evenodd" clip-rule="evenodd" d="M552.174 17.3825C551.986 17.195 551.732 17.0896 551.467 17.0896H545.467C545.467 17.8852 545.15 18.6483 544.588 19.2109C544.025 19.7735 543.262 20.0896 542.467 20.0896C541.671 20.0896 540.908 19.7735 540.345 19.2109C539.783 18.6483 539.467 17.8852 539.467 17.0896H533.467C533.201 17.0896 532.947 17.195 532.759 17.3825C532.572 17.57 532.467 17.8244 532.467 18.0896V25.0896C532.467 25.3548 532.572 25.6092 532.759 25.7967C532.947 25.9842 533.201 26.0896 533.467 26.0896L535.466 26.0886L535.467 34.0896C535.467 34.3548 535.572 34.6092 535.759 34.7967C535.947 34.9842 536.201 35.0896 536.467 35.0896H548.467C548.732 35.0896 548.986 34.9842 549.174 34.7967C549.361 34.6092 549.467 34.3548 549.467 34.0896L549.466 26.0896H551.467C551.732 26.0896 551.986 25.9842 552.174 25.7967C552.361 25.6092 552.467 25.3548 552.467 25.0896V18.0896C552.467 17.8244 552.361 17.57 552.174 17.3825ZM543.718 26.7629C544.225 26.8573 544.709 27.3643 544.791 28.0129C544.85 28.5199 544.838 29.593 544.803 30.1708C544.732 31.3146 543.919 31.9749 542.445 31.9749C540.829 31.9749 540.263 31.3618 540.122 30.1708C540.074 29.7934 540.074 28.5671 540.169 27.9421C540.275 27.211 540.794 26.8573 541.147 26.7511C540.758 26.6568 540.381 26.2559 540.322 25.5602C540.298 25.3125 540.275 24.2395 540.31 23.9211C540.405 23.1192 540.912 22.3763 542.445 22.3763C543.954 22.3763 544.544 23.1546 544.614 23.9211C544.661 24.4399 544.638 25.1356 544.602 25.513C544.544 26.1144 544.202 26.6214 543.718 26.7629ZM541.949 25.737C542.02 26.079 542.185 26.1497 542.445 26.1497C542.716 26.1497 542.94 26.0554 542.963 25.7488C542.999 25.3597 542.999 24.381 542.963 24.2277C542.904 23.9093 542.704 23.7914 542.445 23.7914C542.209 23.7914 541.985 23.9211 541.938 24.2277C541.914 24.3692 541.914 25.5602 541.949 25.737ZM541.831 30.0411C541.879 30.3712 542.114 30.5717 542.445 30.5717C542.787 30.5717 543.022 30.383 543.07 30.0529C543.117 29.6401 543.117 28.3784 543.07 28.0482C543.011 27.6827 542.775 27.5412 542.445 27.5412C542.138 27.5412 541.879 27.6827 541.831 28.06C541.784 28.3784 541.784 29.7227 541.831 30.0411Z" fill="white"/>
<path d="M600 50.4722H185V52.4722H600V50.4722Z" fill="white" mask="url(#path-6-inside-2_2915_32598)"/>
<path d="M254.584 123.018H245.88V147.978L237.88 123.018H228.984V174.09H237.688V148.618L245.752 174.09H254.584V123.018ZM281.139 123.018H258.547V174.09H267.891V152.778H280.115V144.202H267.891V131.786H281.139V123.018ZM306.395 165.45H292.891V123.018H283.547V174.09H306.395V165.45ZM333.78 123.018H324.5V162.186C324.5 164.234 323.604 166.026 320.98 166.154C319.508 166.218 318.164 166.154 317.012 166.026V174.026C318.676 174.282 319.508 174.41 322.132 174.41C330.004 174.41 333.78 171.402 333.78 163.53V123.018ZM351.435 162.634C351.435 163.53 351.307 164.618 351.051 165.706C350.731 167.114 349.387 167.69 348.107 167.69C346.827 167.69 345.355 166.922 345.163 165.194C344.97 163.594 344.907 161.034 344.907 159.434H359.435C359.755 153.418 359.307 147.274 358.091 144.266C356.619 140.682 353.227 138.442 348.299 138.442C342.219 138.442 339.531 141.194 338.251 144.33C337.291 146.634 336.587 151.37 336.587 156.682C336.587 162.122 337.035 166.154 338.507 169.546C340.043 173.13 343.691 174.538 348.427 174.538C353.163 174.538 356.043 172.618 357.579 169.866C358.923 167.498 359.243 163.658 359.243 162.634H351.435ZM344.779 153.162C344.779 150.73 344.843 148.426 345.291 147.338C345.739 146.122 346.763 145.482 348.171 145.482C349.643 145.482 350.603 146.186 350.923 147.402C351.179 148.234 351.371 149.962 351.371 153.162H344.779ZM376.634 138.442C373.69 138.442 370.746 140.362 370.362 143.05V138.89H361.914V174.09H370.49V153.226C370.49 147.466 372.282 146.186 375.226 146.186C376.954 146.186 378.682 146.506 379.706 146.826V138.762C379.002 138.506 377.978 138.442 376.634 138.442ZM395.947 154.186C394.347 153.354 392.747 152.65 391.147 151.882C389.099 150.922 388.395 149.834 388.395 148.106C388.395 146.634 389.035 145.418 391.019 145.418C392.811 145.418 393.387 146.442 393.515 147.53C393.579 147.786 393.643 149.77 393.643 150.154H401.387C401.387 149.45 401.195 145.738 401.003 144.714C400.171 140.81 396.907 138.378 390.699 138.378C383.915 138.378 380.459 142.346 380.459 147.914C380.459 153.162 381.995 156.426 386.603 158.602C387.883 159.178 389.611 160.01 390.699 160.458C393.131 161.418 393.963 162.634 393.963 164.81C393.963 166.794 392.747 167.754 391.147 167.754C389.611 167.754 388.395 167.114 388.267 165.642C388.203 164.554 388.139 163.466 388.139 163.018H380.203C380.203 164.106 380.267 166.346 380.395 167.498C380.971 172.234 384.171 174.602 391.339 174.602C397.675 174.602 402.091 171.21 402.091 164.554C402.091 159.178 400.427 156.426 395.947 154.186ZM418.747 162.634C418.747 163.53 418.619 164.618 418.363 165.706C418.043 167.114 416.699 167.69 415.419 167.69C414.139 167.69 412.667 166.922 412.475 165.194C412.283 163.594 412.219 161.034 412.219 159.434H426.747C427.067 153.418 426.619 147.274 425.403 144.266C423.931 140.682 420.539 138.442 415.611 138.442C409.531 138.442 406.843 141.194 405.563 144.33C404.603 146.634 403.899 151.37 403.899 156.682C403.899 162.122 404.347 166.154 405.819 169.546C407.355 173.13 411.003 174.538 415.739 174.538C420.475 174.538 423.355 172.618 424.891 169.866C426.235 167.498 426.555 163.658 426.555 162.634H418.747ZM412.091 153.162C412.091 150.73 412.155 148.426 412.603 147.338C413.051 146.122 414.075 145.482 415.483 145.482C416.955 145.482 417.915 146.186 418.235 147.402C418.491 148.234 418.683 149.962 418.683 153.162H412.091ZM443.969 138.89C443.905 139.978 439.809 160.778 439.681 161.546C439.617 160.842 435.521 139.786 435.393 138.89H426.689L435.073 173.13L432.193 184.522H440.961L452.481 138.89H443.969Z" fill="white"/>
</g>
<path d="M185 0.707031H600H185ZM600 250.707H185H600ZM184 250.707V0.707031H186V250.707H184ZM600 0.707031V250.707V0.707031Z" fill="white" mask="url(#path-4-inside-1_2915_32598)"/>
<rect x="0.5" y="1.20703" width="599" height="249" rx="11.5" stroke="white"/>
<path d="M746.06 91.147C745.1 78.667 736.62 70.987 724.3 70.987C715.18 70.987 710.38 73.387 707.82 78.507V51.147H742.86V30.027H687.18V101.707H708.78C708.78 94.987 711.02 92.107 715.82 92.107C720.14 92.107 721.9 94.187 722.06 99.627C722.38 106.347 722.38 127.147 722.22 131.787C721.9 137.227 720.3 140.107 715.34 140.107C710.38 140.107 708.78 137.067 708.46 131.627C708.14 127.147 708.14 121.227 708.14 119.947H685.74C685.9 125.867 685.74 130.187 686.06 134.827C686.86 149.707 695.02 158.987 715.34 158.987C736.62 158.987 745.26 147.467 746.06 135.307C746.7 125.067 746.7 99.467 746.06 91.147Z" fill="white"/>
<path d="M697.204 192.035V187.715H691.534V189.749H695.008C695.008 189.749 695.026 191.801 694.99 191.981C694.756 193.043 693.802 193.853 692.272 193.853C691.012 193.853 690.238 193.529 689.752 192.827C689.176 191.981 689.014 190.739 689.014 188.633C689.014 186.563 689.266 185.213 689.77 184.439C690.256 183.719 691.03 183.413 692.11 183.413C693.118 183.413 693.82 183.719 694.234 184.331C694.612 184.907 694.828 185.753 694.828 186.239H697.132C697.132 185.609 696.952 184.367 696.52 183.503C695.872 182.225 694.522 181.271 692.056 181.271C689.68 181.271 688.348 182.261 687.592 183.431C686.8 184.673 686.566 186.383 686.566 188.597C686.566 191.171 686.962 192.827 687.646 193.907C688.474 195.203 689.878 195.887 691.768 195.887C693.712 195.887 694.756 195.203 695.242 194.483L695.35 195.707H697.222C697.222 195.653 697.204 193.745 697.204 192.035ZM709.209 192.251L710.199 195.707H712.647L708.435 181.451H705.411L700.911 195.707H703.323L704.367 192.251H709.209ZM705.015 190.199C705.015 190.199 706.581 185.033 706.599 184.943C706.635 184.799 706.869 183.665 706.869 183.665C706.869 183.665 707.103 184.799 707.139 184.943C707.175 185.051 708.597 190.199 708.597 190.199H705.015ZM729.429 181.451H726.351L723.147 192.053L719.997 181.451H716.739V195.707H718.953V185.933L721.887 195.707H724.209L727.197 185.897V195.707H729.429V181.451ZM743.504 193.547H737.006V189.641H743.144V187.463H737.006V183.611H743.432V181.451H734.666V195.707H743.504V193.547ZM682.993 215.769C682.597 215.625 681.751 215.301 681.247 215.139C679.501 214.563 678.637 214.005 678.637 212.889C678.637 211.935 679.285 211.359 681.103 211.359C682.651 211.359 683.371 211.791 683.677 212.673C683.785 212.997 683.839 213.267 683.839 213.573H686.251C686.251 213.033 686.161 212.601 686.035 212.169C685.531 210.405 684.091 209.289 681.157 209.289C677.791 209.289 676.207 210.765 676.207 212.961C676.207 215.067 677.593 216.327 679.735 217.029C680.329 217.227 681.175 217.551 681.535 217.677C683.443 218.343 684.019 218.919 684.019 220.125C684.019 221.205 683.245 221.853 681.427 221.853C679.879 221.853 678.979 221.457 678.709 220.611C678.601 220.269 678.547 219.783 678.547 219.531H676.153C676.153 219.945 676.189 220.611 676.315 221.097C676.747 222.771 678.187 223.887 681.481 223.887C684.811 223.887 686.449 222.303 686.449 219.927C686.449 217.713 685.225 216.543 682.993 215.769ZM699.947 209.451H689.849V211.593H693.683V223.707H696.095V211.593H699.947V209.451ZM713.327 211.035C712.823 210.027 711.869 209.451 710.303 209.451H704.093V223.707H706.433V217.767H709.529L712.013 223.707H714.623L711.815 217.245C712.445 217.119 713.021 216.669 713.381 215.985C713.651 215.445 713.795 214.653 713.795 213.573C713.795 212.421 713.687 211.719 713.327 211.035ZM711.239 215.103C711.059 215.499 710.609 215.715 709.979 215.733H706.451V211.575H709.799C710.609 211.575 711.113 211.863 711.311 212.403C711.401 212.637 711.437 213.267 711.437 213.789C711.437 214.221 711.365 214.797 711.239 215.103ZM727.799 221.547H721.301V217.641H727.439V215.463H721.301V211.611H727.727V209.451H718.961V223.707H727.799V221.547ZM739.656 220.251L740.646 223.707H743.094L738.882 209.451H735.858L731.358 223.707H733.77L734.814 220.251H739.656ZM735.462 218.199C735.462 218.199 737.028 213.033 737.046 212.943C737.082 212.799 737.316 211.665 737.316 211.665C737.316 211.665 737.55 212.799 737.586 212.943C737.622 213.051 739.044 218.199 739.044 218.199H735.462ZM752.244 215.607L757.374 209.451H754.71L749.562 215.517V209.451H747.186V223.707H749.562V218.613L750.606 217.389L754.674 223.707H757.482L752.244 215.607Z" fill="white"/>
<g clip-path="url(#clip1_2915_32598)">
<path d="M856.238 33.977C858.902 33.977 860.882 32.267 860.882 29.513C860.882 26.687 858.83 25.067 856.67 25.067C855.356 25.067 854.42 25.481 853.7 26.219H853.664L854.492 22.403H860.108V20.891H853.268L851.882 27.713H853.538C854.024 27.101 854.924 26.525 856.346 26.525C857.876 26.525 859.118 27.623 859.118 29.477C859.118 31.295 857.984 32.483 856.202 32.483C854.456 32.483 853.556 31.565 853.286 30.269H851.576C851.738 32.339 853.538 33.977 856.238 33.977ZM871.636 37.091C872.932 37.091 874.012 36.803 874.768 36.173C875.506 35.543 875.938 34.589 875.938 33.311V24.041H874.282V25.319H874.246C873.634 24.347 872.698 23.807 871.312 23.807C869.044 23.807 867.172 25.571 867.172 28.541C867.172 31.349 868.936 33.275 871.402 33.275C872.77 33.275 873.616 32.681 874.282 31.727H874.318C874.3 32.033 874.282 32.555 874.282 33.113V33.383C874.282 35.021 873.328 35.795 871.6 35.795C870.16 35.795 869.188 35.381 869.044 34.373H867.478C867.658 36.083 869.098 37.091 871.636 37.091ZM871.564 31.907C869.818 31.907 868.882 30.611 868.882 28.559C868.882 26.525 869.782 25.193 871.546 25.193C873.472 25.193 874.39 26.435 874.39 28.469C874.39 30.431 873.67 31.907 871.564 31.907ZM881.136 33.905C882.774 33.905 883.764 33.131 884.376 32.285H884.394C884.574 33.311 885.078 33.797 886.104 33.797C886.5 33.797 886.77 33.725 887.004 33.653V32.483H886.932C886.086 32.663 885.906 32.249 885.906 31.475V26.957C885.906 25.661 885.42 24.815 884.61 24.329C883.998 23.969 883.188 23.807 882.27 23.807C879.66 23.807 878.418 25.265 878.346 26.903H879.966C880.02 25.751 880.758 25.031 882.288 25.031C883.62 25.031 884.358 25.679 884.358 26.723C884.358 27.713 883.44 27.947 882.018 28.109C879.516 28.415 877.86 28.901 877.86 31.151C877.86 33.005 879.3 33.905 881.136 33.905ZM881.55 32.681C880.578 32.681 879.624 32.375 879.624 31.133C879.624 29.801 880.668 29.513 882.252 29.243C883.044 29.099 883.89 28.865 884.376 28.559V30.143C884.376 31.259 883.476 32.681 881.55 32.681ZM888.363 33.707H890.037V27.749C890.037 26.273 891.279 25.211 892.431 25.211C893.421 25.211 894.087 25.913 894.087 27.101V33.707H895.743V27.749C895.743 26.273 896.805 25.211 898.029 25.211C899.001 25.211 899.775 25.913 899.775 27.101V33.707H901.449V26.957C901.449 24.941 900.225 23.807 898.461 23.807C897.291 23.807 896.157 24.401 895.473 25.607H895.437C895.041 24.419 894.105 23.807 892.935 23.807C891.693 23.807 890.667 24.437 890.073 25.481H890.019V24.041H888.363V33.707ZM907.885 33.977C910.117 33.977 911.665 32.753 912.097 30.953H910.459C910.153 31.979 909.235 32.609 907.903 32.609C906.031 32.609 905.005 31.169 904.879 29.279H912.295C912.295 27.641 911.899 26.255 911.107 25.301C910.351 24.365 909.235 23.807 907.795 23.807C905.023 23.807 903.169 26.075 903.169 28.883C903.169 31.709 904.915 33.977 907.885 33.977ZM907.795 25.103C909.469 25.103 910.423 26.219 910.513 28.073H904.915C905.131 26.363 906.049 25.103 907.795 25.103ZM920.949 33.707H922.641L924.099 28.379C924.333 27.461 924.693 25.679 924.693 25.679H924.729C924.729 25.679 925.107 27.443 925.341 28.379L926.763 33.707H928.437L931.587 24.041H929.859L928.257 29.405C927.897 30.593 927.627 32.249 927.627 32.249H927.591C927.591 32.249 927.249 30.467 926.979 29.441L925.539 24.041H923.955L922.497 29.441C922.173 30.611 921.849 32.231 921.849 32.231H921.813C921.813 32.231 921.489 30.503 921.183 29.405L919.671 24.041H917.889L920.949 33.707ZM932.887 22.259H934.633V20.315H932.887V22.259ZM932.923 33.707H934.597V24.041H932.923V33.707ZM938.552 24.041H936.896V33.707H938.57V27.821C938.57 26.273 939.65 25.211 941.144 25.211C942.458 25.211 943.268 25.913 943.268 27.155V33.707H944.924V26.957C944.924 24.941 943.682 23.807 941.666 23.807C940.262 23.807 939.308 24.437 938.606 25.409H938.552V24.041ZM955.669 33.995C957.937 33.995 959.557 32.987 959.557 31.025C959.557 28.775 957.901 28.343 955.975 27.965C954.337 27.641 953.401 27.443 953.401 26.435C953.401 25.697 953.959 25.085 955.273 25.085C956.659 25.085 957.343 25.643 957.487 26.633H959.161C958.945 24.959 957.739 23.825 955.309 23.825C953.059 23.825 951.763 24.869 951.763 26.525C951.763 28.649 953.473 29.045 955.363 29.441C957.073 29.783 957.883 30.053 957.883 31.115C957.883 31.979 957.235 32.645 955.705 32.645C954.319 32.645 953.239 32.177 953.041 30.773H951.349C951.493 32.735 953.005 33.995 955.669 33.995ZM960.595 25.337H962.107V31.817C962.107 33.239 963.007 33.761 964.303 33.779C964.735 33.779 965.203 33.725 965.653 33.617V32.213H965.599C965.419 32.267 965.041 32.339 964.753 32.339C964.141 32.339 963.763 32.141 963.763 31.439V25.337H965.761V24.041H963.763V20.999H962.107V24.041H960.595V25.337ZM969.156 24.041H967.5V33.707H969.174V28.451C969.174 26.633 970.452 25.517 971.946 25.517C972.234 25.517 972.396 25.535 972.63 25.607H972.684V24.023C972.504 23.951 972.342 23.915 972.072 23.915C970.794 23.915 969.804 24.671 969.21 25.787H969.156V24.041ZM978.162 33.977C980.394 33.977 981.942 32.753 982.374 30.953H980.736C980.43 31.979 979.512 32.609 978.18 32.609C976.308 32.609 975.282 31.169 975.156 29.279H982.572C982.572 27.641 982.176 26.255 981.384 25.301C980.628 24.365 979.512 23.807 978.072 23.807C975.3 23.807 973.446 26.075 973.446 28.883C973.446 31.709 975.192 33.977 978.162 33.977ZM978.072 25.103C979.746 25.103 980.7 26.219 980.79 28.073H975.192C975.408 26.363 976.326 25.103 978.072 25.103ZM987.237 33.905C988.875 33.905 989.865 33.131 990.477 32.285H990.495C990.675 33.311 991.179 33.797 992.205 33.797C992.601 33.797 992.871 33.725 993.105 33.653V32.483H993.033C992.187 32.663 992.007 32.249 992.007 31.475V26.957C992.007 25.661 991.521 24.815 990.711 24.329C990.099 23.969 989.289 23.807 988.371 23.807C985.761 23.807 984.519 25.265 984.447 26.903H986.067C986.121 25.751 986.859 25.031 988.389 25.031C989.721 25.031 990.459 25.679 990.459 26.723C990.459 27.713 989.541 27.947 988.119 28.109C985.617 28.415 983.961 28.901 983.961 31.151C983.961 33.005 985.401 33.905 987.237 33.905ZM987.651 32.681C986.679 32.681 985.725 32.375 985.725 31.133C985.725 29.801 986.769 29.513 988.353 29.243C989.145 29.099 989.991 28.865 990.477 28.559V30.143C990.477 31.259 989.577 32.681 987.651 32.681ZM1000.82 33.707H1002.78L998.659 27.515L1002.35 24.041H1000.26L996.067 28.163C996.103 27.695 996.139 27.011 996.139 26.669V20.315H994.465V33.707H996.139V29.909L997.507 28.613L1000.82 33.707ZM1009 36.983H1010.68V34.049C1010.68 33.311 1010.66 32.771 1010.64 32.429H1010.69C1011.36 33.455 1012.42 33.995 1013.74 33.995C1016.35 33.995 1017.95 31.997 1017.95 28.901C1017.95 25.715 1016.26 23.807 1013.79 23.807C1012.4 23.807 1011.43 24.455 1010.71 25.553H1010.66V24.041H1009V36.983ZM1013.56 32.609C1011.41 32.609 1010.59 30.971 1010.59 28.937C1010.59 26.885 1011.52 25.229 1013.57 25.229C1015.36 25.229 1016.24 26.813 1016.24 28.937C1016.24 31.043 1015.34 32.609 1013.56 32.609ZM1021.38 24.041H1019.72V33.707H1021.4V28.451C1021.4 26.633 1022.68 25.517 1024.17 25.517C1024.46 25.517 1024.62 25.535 1024.85 25.607H1024.91V24.023C1024.73 23.951 1024.57 23.915 1024.3 23.915C1023.02 23.915 1022.03 24.671 1021.43 25.787H1021.38V24.041ZM1026.51 22.259H1028.25V20.315H1026.51V22.259ZM1026.54 33.707H1028.22V24.041H1026.54V33.707ZM1030.16 33.707H1037.95V32.231H1034.05C1033.34 32.231 1032.12 32.285 1032.12 32.285V32.231C1032.12 32.231 1032.93 31.349 1033.34 30.827L1037.74 25.085V24.041H1030.48V25.463H1033.81C1034.48 25.463 1035.63 25.409 1035.63 25.409V25.463C1035.63 25.463 1034.87 26.273 1034.48 26.777L1030.16 32.411V33.707ZM1043.57 33.977C1045.8 33.977 1047.35 32.753 1047.78 30.953H1046.14C1045.84 31.979 1044.92 32.609 1043.59 32.609C1041.72 32.609 1040.69 31.169 1040.56 29.279H1047.98C1047.98 27.641 1047.58 26.255 1046.79 25.301C1046.04 24.365 1044.92 23.807 1043.48 23.807C1040.71 23.807 1038.85 26.075 1038.85 28.883C1038.85 31.709 1040.6 33.977 1043.57 33.977ZM1043.48 25.103C1045.15 25.103 1046.11 26.219 1046.2 28.073H1040.6C1040.82 26.363 1041.73 25.103 1043.48 25.103Z" fill="white"/>
<g clip-path="url(#clip2_2915_32598)">
<path d="M1174.41 26.614V33.5616C1174.41 33.8407 1174.3 34.1084 1174.1 34.3058C1173.9 34.5031 1173.64 34.614 1173.36 34.614H1158.62C1158.34 34.614 1158.08 34.5031 1157.88 34.3058C1157.68 34.1084 1157.57 33.8407 1157.57 33.5616V26.614H1174.41ZM1168.62 14.6176C1169.24 14.6174 1169.86 14.7745 1170.4 15.0743C1170.94 15.3741 1171.4 15.8068 1171.74 16.3322C1172.07 16.8575 1172.26 17.4585 1172.3 18.0789C1172.34 18.6994 1172.22 19.3193 1171.95 19.8809L1175.46 19.8798C1175.74 19.8798 1176.01 19.9907 1176.21 20.1881C1176.4 20.3854 1176.52 20.6531 1176.52 20.9323V24.0896C1176.52 24.3687 1176.4 24.6364 1176.21 24.8338C1176.01 25.0312 1175.74 25.142 1175.46 25.142H1156.52C1156.24 25.142 1155.97 25.0312 1155.77 24.8338C1155.58 24.6364 1155.47 24.3687 1155.47 24.0896V20.9323C1155.47 20.6531 1155.58 20.3854 1155.77 20.1881C1155.97 19.9907 1156.24 19.8798 1156.52 19.8798L1160.03 19.8809C1159.66 19.0933 1159.57 18.1982 1159.8 17.355C1160.02 16.5118 1160.53 15.7751 1161.25 15.2762C1161.97 14.7772 1162.83 14.5484 1163.7 14.6303C1164.57 14.7123 1165.38 15.0997 1165.99 15.7237C1166.33 15.3728 1166.74 15.094 1167.19 14.904C1167.65 14.714 1168.13 14.6166 1168.62 14.6176ZM1163.36 16.7225C1162.95 16.7227 1162.56 16.8789 1162.27 17.1586C1161.98 17.4384 1161.8 17.8203 1161.78 18.2253C1161.76 18.6302 1161.9 19.0272 1162.17 19.3338C1162.43 19.6405 1162.8 19.8333 1163.21 19.8725L1163.36 19.8798H1164.94V18.3012C1164.94 17.9087 1164.79 17.5304 1164.53 17.2399C1164.26 16.9494 1163.9 16.7675 1163.51 16.7299L1163.36 16.7225ZM1168.62 16.7225L1168.47 16.7299C1168.11 16.7648 1167.76 16.9256 1167.51 17.1846C1167.25 17.4437 1167.08 17.7848 1167.05 18.1496L1167.04 18.3012V19.8798H1168.62L1168.77 19.8725C1169.16 19.8346 1169.53 19.6527 1169.79 19.3622C1170.05 19.0717 1170.2 18.6935 1170.2 18.3012C1170.2 17.9088 1170.05 17.5306 1169.79 17.2401C1169.53 16.9496 1169.16 16.7677 1168.77 16.7299L1168.62 16.7225Z" fill="white"/>
</g>
<path d="M1224 50.4722H809V52.4722H1224V50.4722Z" fill="white" mask="url(#path-17-inside-4_2915_32598)"/>
<path d="M863.852 120.576C863.222 119.988 861.626 118.56 860.786 117.804C858.896 116.082 857.468 114.444 857.468 112.134C857.468 110.37 858.266 109.614 859.904 109.614C861.5 109.614 862.088 110.454 862.256 111.798C862.382 112.89 862.424 113.688 862.424 114.528H868.304C868.304 113.562 868.136 111.798 868.052 111.084C867.548 107.262 865.28 104.238 859.946 104.238C854.654 104.238 851.462 107.388 851.462 112.26C851.462 116.796 853.058 118.938 856.082 121.584C856.964 122.34 858.686 123.894 859.106 124.272C861.584 126.498 862.424 127.968 862.424 130.782C862.424 132.462 861.542 133.386 859.904 133.386C858.392 133.386 857.636 132.63 857.468 131.538C857.426 131.286 857.384 130.11 857.384 128.556H851.546C851.546 130.572 851.504 130.992 851.63 132.546C851.924 136.284 854.78 138.468 860.072 138.468C865.112 138.468 868.472 135.444 868.472 130.236C868.472 125.742 866.876 123.432 863.852 120.576ZM885.257 120.324C885.257 116.292 883.283 114.696 880.427 114.696C878.117 114.696 876.815 115.578 876.185 117.132V104.532H870.641V138.09H876.185V122.004C876.185 120.408 876.983 119.61 878.075 119.61C879.293 119.61 879.671 120.282 879.671 121.332C879.671 137.46 879.671 138.09 879.713 138.09H885.341C885.299 138.09 885.257 137.46 885.257 120.324ZM901.992 119.4C901.236 116.754 899.22 114.696 895.062 114.696C890.904 114.696 888.846 116.964 888.174 119.274C887.586 121.248 887.292 124.02 887.292 126.498C887.292 129.06 887.628 132.168 888.006 133.554C888.804 136.452 891.198 138.384 894.978 138.384C898.968 138.384 901.11 136.494 901.95 133.554C902.454 131.874 902.706 129.018 902.706 126.498C902.706 124.02 902.496 121.122 901.992 119.4ZM896.994 132.168C896.868 133.05 896.07 133.806 895.02 133.806C894.012 133.806 893.256 133.26 893.088 132.21C892.878 131.118 892.836 128.388 892.836 126.582C892.836 124.86 892.878 122.046 893.088 121.08C893.34 120.03 893.928 119.442 895.02 119.442C896.154 119.442 896.742 119.904 896.994 120.996C897.162 121.878 897.246 124.818 897.246 126.582C897.246 128.346 897.288 130.152 896.994 132.168ZM919.356 117.93C918.558 115.662 917.046 114.696 914.652 114.696C912.51 114.696 910.956 115.494 910.326 116.754L910.284 114.99H904.95V144.936H910.452V136.788C911.208 137.544 912.468 138.132 914.442 138.132C917.046 138.132 918.726 136.872 919.566 134.268C920.07 132.672 920.364 129.48 920.364 126.162C920.364 122.676 920.028 119.736 919.356 117.93ZM914.358 132C914.19 132.84 913.602 133.638 912.51 133.638C911.544 133.638 910.914 133.134 910.746 132.042C910.494 130.488 910.41 128.976 910.41 126.33C910.41 123.936 910.578 122.214 910.872 120.996C911.082 120.156 911.544 119.484 912.552 119.484C913.56 119.484 914.064 119.988 914.274 120.744C914.61 122.004 914.694 123.894 914.694 126.33C914.694 129.06 914.61 130.572 914.358 132ZM940.658 128.934C940.658 126.834 940.406 124.398 939.65 123.054C938.894 121.668 937.844 120.996 936.206 120.786C937.592 120.534 938.516 119.946 939.146 118.644C939.944 116.964 940.07 114.822 940.07 112.596C940.07 110.496 939.818 108.48 939.02 107.094C938.012 105.33 936.122 104.574 933.308 104.574H922.724V138.09H932.678C935.786 138.09 937.76 137.67 939.188 135.738C940.322 134.184 940.658 131.496 940.658 128.934ZM933.266 117.804C932.888 118.602 932.426 118.938 931.964 118.938H928.73V109.572H931.544C932.426 109.572 932.93 110.076 933.224 110.79C933.476 111.42 933.728 112.764 933.728 114.108C933.728 115.746 933.518 117.258 933.266 117.804ZM931.712 133.092H928.73V123.642H931.838C932.636 123.642 933.266 124.146 933.644 124.818C933.938 125.364 934.106 127.17 934.106 128.262C934.106 129.312 933.98 131.286 933.686 131.916C933.308 132.756 932.51 133.092 931.712 133.092ZM952.233 130.572C952.233 131.16 952.149 131.874 951.981 132.588C951.771 133.512 950.889 133.89 950.049 133.89C949.209 133.89 948.243 133.386 948.117 132.252C947.991 131.202 947.949 129.522 947.949 128.472H957.483C957.693 124.524 957.399 120.492 956.601 118.518C955.635 116.166 953.409 114.696 950.175 114.696C946.185 114.696 944.421 116.502 943.581 118.56C942.951 120.072 942.489 123.18 942.489 126.666C942.489 130.236 942.783 132.882 943.749 135.108C944.757 137.46 947.151 138.384 950.259 138.384C953.367 138.384 955.257 137.124 956.265 135.318C957.147 133.764 957.357 131.244 957.357 130.572H952.233ZM947.865 124.356C947.865 122.76 947.907 121.248 948.201 120.534C948.495 119.736 949.167 119.316 950.091 119.316C951.057 119.316 951.687 119.778 951.897 120.576C952.065 121.122 952.191 122.256 952.191 124.356H947.865ZM968.854 130.572C968.854 131.16 968.77 131.874 968.602 132.588C968.392 133.512 967.51 133.89 966.67 133.89C965.83 133.89 964.864 133.386 964.738 132.252C964.612 131.202 964.57 129.522 964.57 128.472H974.104C974.314 124.524 974.02 120.492 973.222 118.518C972.256 116.166 970.03 114.696 966.796 114.696C962.806 114.696 961.042 116.502 960.202 118.56C959.572 120.072 959.11 123.18 959.11 126.666C959.11 130.236 959.404 132.882 960.37 135.108C961.378 137.46 963.772 138.384 966.88 138.384C969.988 138.384 971.878 137.124 972.886 135.318C973.768 133.764 973.978 131.244 973.978 130.572H968.854ZM964.486 124.356C964.486 122.76 964.528 121.248 964.822 120.534C965.116 119.736 965.788 119.316 966.712 119.316C967.678 119.316 968.308 119.778 968.518 120.576C968.686 121.122 968.812 122.256 968.812 124.356H964.486ZM985.811 114.696C983.879 114.696 981.947 115.956 981.695 117.72V114.99H976.151V138.09H981.779V124.398C981.779 120.618 982.955 119.778 984.887 119.778C986.021 119.778 987.155 119.988 987.827 120.198V114.906C987.365 114.738 986.693 114.696 985.811 114.696ZM1006.67 130.278V119.148H997.477V124.44H1000.88C1000.88 124.44 1000.92 129.9 1000.88 130.614C1000.79 132.336 999.787 133.218 998.233 133.218C996.847 133.218 996.133 132.504 995.839 130.992C995.335 128.346 995.335 123.978 995.335 121.416C995.335 118.686 995.377 114.654 995.797 111.756C996.007 110.328 996.931 109.698 998.107 109.698C999.409 109.698 1000.21 110.412 1000.33 111.756C1000.5 113.478 1000.5 115.788 1000.5 116.04H1006.51C1006.51 113.058 1006.38 111.378 1006.13 109.866C1005.62 106.842 1003.4 104.28 997.981 104.28C992.689 104.28 990.463 107.262 989.749 109.95C988.993 112.848 988.909 117.93 988.909 121.416C988.909 125.028 989.035 129.732 989.749 132.756C990.631 136.452 993.277 138.384 996.805 138.384C999.367 138.384 1001.09 137.67 1001.93 136.578L1002.22 138.09H1006.76C1006.76 138.048 1006.67 134.142 1006.67 130.278ZM1018.27 130.572C1018.27 131.16 1018.18 131.874 1018.01 132.588C1017.8 133.512 1016.92 133.89 1016.08 133.89C1015.24 133.89 1014.28 133.386 1014.15 132.252C1014.02 131.202 1013.98 129.522 1013.98 128.472H1023.52C1023.73 124.524 1023.43 120.492 1022.63 118.518C1021.67 116.166 1019.44 114.696 1016.21 114.696C1012.22 114.696 1010.45 116.502 1009.61 118.56C1008.98 120.072 1008.52 123.18 1008.52 126.666C1008.52 130.236 1008.82 132.882 1009.78 135.108C1010.79 137.46 1013.18 138.384 1016.29 138.384C1019.4 138.384 1021.29 137.124 1022.3 135.318C1023.18 133.764 1023.39 131.244 1023.39 130.572H1018.27ZM1013.9 124.356C1013.9 122.76 1013.94 121.248 1014.23 120.534C1014.53 119.736 1015.2 119.316 1016.12 119.316C1017.09 119.316 1017.72 119.778 1017.93 120.576C1018.1 121.122 1018.22 122.256 1018.22 124.356H1013.9ZM1039.97 133.974C1039.97 132.252 1040.01 129.438 1040.01 127.632C1040.05 125.49 1040.1 122.004 1040.01 119.988C1039.89 116.754 1037.87 114.696 1033.04 114.696C1027.92 114.696 1025.82 117.006 1025.82 121.332V123.054H1031.02V121.752C1031.02 120.156 1031.53 119.358 1032.96 119.358C1034.01 119.358 1034.55 119.946 1034.59 120.954C1034.64 121.668 1034.64 123.096 1034.64 123.726C1033.71 123.726 1032.75 123.852 1031.7 124.02C1027.83 124.734 1025.23 126.834 1025.02 130.194C1024.93 131.412 1024.98 133.386 1025.02 133.89C1025.19 137.25 1027.75 138.258 1030.06 138.258C1032.12 138.258 1033.67 137.712 1034.72 136.41C1034.72 136.998 1034.85 138.09 1034.93 138.09H1040.26C1040.05 137.796 1039.97 135.654 1039.97 133.974ZM1034.64 129.27C1034.55 130.446 1034.64 131.034 1034.43 132.252C1034.22 133.428 1033.21 133.89 1032.33 133.89C1031.49 133.89 1030.81 133.596 1030.69 132.798C1030.6 132.126 1030.6 131.328 1030.6 130.698C1030.6 129.732 1030.65 129.06 1031.36 128.43C1031.99 127.884 1032.7 127.758 1033.29 127.632C1033.8 127.548 1034.22 127.548 1034.64 127.548C1034.64 127.884 1034.68 128.808 1034.64 129.27ZM1052.17 114.696C1050.24 114.696 1048.31 115.956 1048.06 117.72V114.99H1042.51V138.09H1048.14V124.398C1048.14 120.618 1049.32 119.778 1051.25 119.778C1052.38 119.778 1053.52 119.988 1054.19 120.198V114.906C1053.73 114.738 1053.05 114.696 1052.17 114.696ZM1079.86 130.278V119.148H1070.66V124.44H1074.06C1074.06 124.44 1074.1 129.9 1074.06 130.614C1073.98 132.336 1072.97 133.218 1071.41 133.218C1070.03 133.218 1069.31 132.504 1069.02 130.992C1068.52 128.346 1068.52 123.978 1068.52 121.416C1068.52 118.686 1068.56 114.654 1068.98 111.756C1069.19 110.328 1070.11 109.698 1071.29 109.698C1072.59 109.698 1073.39 110.412 1073.51 111.756C1073.68 113.478 1073.68 115.788 1073.68 116.04H1079.69C1079.69 113.058 1079.56 111.378 1079.31 109.866C1078.81 106.842 1076.58 104.28 1071.16 104.28C1065.87 104.28 1063.64 107.262 1062.93 109.95C1062.17 112.848 1062.09 117.93 1062.09 121.416C1062.09 125.028 1062.22 129.732 1062.93 132.756C1063.81 136.452 1066.46 138.384 1069.99 138.384C1072.55 138.384 1074.27 137.67 1075.11 136.578L1075.4 138.09H1079.94C1079.94 138.048 1079.86 134.142 1079.86 130.278ZM1088.04 108.102H1082.12V113.772H1088.04V108.102ZM1087.96 136.41V114.99H1082.21V136.494C1082.21 137.418 1082.21 138.09 1082.42 138.09H1088.09C1088.04 138.048 1087.96 137.292 1087.96 136.41ZM1100.45 114.99H1097.43V110.706C1097.43 109.866 1097.93 108.942 1099.06 108.942C1099.53 108.942 1100.2 108.984 1100.74 109.068V104.49C1100.11 104.406 1098.9 104.364 1097.43 104.364C1093.27 104.364 1091.8 106.842 1091.8 109.992V114.99H1089.74V119.904H1091.8V138.09H1097.43V119.904H1100.45V114.99ZM1112.07 114.99H1108.84V110.538L1103.38 110.664C1103.38 110.664 1103.21 114.864 1103.17 114.99H1101.11V119.904H1103.08V133.05C1103.08 136.662 1105.1 138.258 1108.54 138.258C1110.01 138.258 1110.94 138.174 1111.82 137.964V133.47C1111.4 133.554 1110.85 133.596 1110.39 133.596C1109.51 133.596 1108.79 133.344 1108.79 132.042V119.904H1112.07V114.99ZM1132.47 125.994C1132.47 126.75 1132.43 128.892 1132.22 130.614C1132.01 132.294 1131 132.84 1129.83 132.84C1128.69 132.84 1127.69 132.252 1127.39 130.74C1127.01 128.64 1126.93 124.776 1126.93 121.122C1126.93 116.418 1127.01 113.478 1127.39 111.924C1127.69 110.748 1128.44 110.076 1129.83 110.076C1131.05 110.076 1131.84 110.79 1132.01 111.84C1132.31 113.52 1132.43 115.326 1132.43 116.88H1138.4C1138.4 114.822 1138.27 112.89 1138.06 111.294C1137.47 106.842 1135.12 104.322 1129.95 104.322C1125 104.322 1122.31 106.38 1121.47 110.37C1120.71 113.94 1120.5 116.67 1120.5 121.164C1120.5 125.574 1120.84 130.614 1121.68 133.302C1122.6 136.41 1124.91 138.468 1129.62 138.468C1134.78 138.468 1137.3 136.2 1138.06 132.126C1138.44 129.984 1138.44 127.128 1138.44 125.994H1132.47ZM1155.02 133.974C1155.02 132.252 1155.07 129.438 1155.07 127.632C1155.11 125.49 1155.15 122.004 1155.07 119.988C1154.94 116.754 1152.92 114.696 1148.09 114.696C1142.97 114.696 1140.87 117.006 1140.87 121.332V123.054H1146.08V121.752C1146.08 120.156 1146.58 119.358 1148.01 119.358C1149.06 119.358 1149.61 119.946 1149.65 120.954C1149.69 121.668 1149.69 123.096 1149.69 123.726C1148.77 123.726 1147.8 123.852 1146.75 124.02C1142.89 124.734 1140.28 126.834 1140.07 130.194C1139.99 131.412 1140.03 133.386 1140.07 133.89C1140.24 137.25 1142.8 138.258 1145.11 138.258C1147.17 138.258 1148.72 137.712 1149.77 136.41C1149.77 136.998 1149.9 138.09 1149.98 138.09H1155.32C1155.11 137.796 1155.02 135.654 1155.02 133.974ZM1149.69 129.27C1149.61 130.446 1149.69 131.034 1149.48 132.252C1149.27 133.428 1148.26 133.89 1147.38 133.89C1146.54 133.89 1145.87 133.596 1145.74 132.798C1145.66 132.126 1145.66 131.328 1145.66 130.698C1145.66 129.732 1145.7 129.06 1146.41 128.43C1147.04 127.884 1147.76 127.758 1148.35 127.632C1148.85 127.548 1149.27 127.548 1149.69 127.548C1149.69 127.884 1149.73 128.808 1149.69 129.27ZM1167.23 114.696C1165.3 114.696 1163.36 115.956 1163.11 117.72V114.99H1157.57V138.09H1163.2V124.398C1163.2 120.618 1164.37 119.778 1166.3 119.778C1167.44 119.778 1168.57 119.988 1169.24 120.198V114.906C1168.78 114.738 1168.11 114.696 1167.23 114.696ZM1170.96 118.392C1170.29 120.912 1170.08 123.222 1170.08 126.624C1170.08 130.32 1170.5 133.386 1171.25 135.234C1172.09 137.334 1173.65 138.258 1175.96 138.258C1178.02 138.258 1179.4 137.586 1180.16 136.41L1180.83 138.09H1185.53C1185.53 138.09 1185.37 136.158 1185.37 134.856V104.532H1179.86V116.67C1179.23 115.452 1177.72 114.78 1175.96 114.78C1173.48 114.78 1171.55 116.124 1170.96 118.392ZM1179.49 120.828C1179.74 122.088 1179.91 123.348 1179.91 126.666C1179.91 128.682 1179.82 130.782 1179.53 132.252C1179.36 133.134 1178.81 133.806 1177.72 133.806C1176.59 133.806 1176 133.26 1175.87 132.378C1175.66 130.656 1175.58 128.598 1175.58 126.666C1175.58 124.692 1175.66 122.718 1175.96 121.038C1176.13 120.198 1176.71 119.568 1177.76 119.568C1178.81 119.568 1179.32 120.03 1179.49 120.828ZM865.7 175.148H861.122V169.982H856.166V175.148H851.504V180.062H856.166V185.27H861.08V180.062H865.7V175.148ZM891.598 160.574H885.886V176.954L880.636 160.574H874.798V194.09H880.51V177.374L885.802 194.09H891.598V160.574ZM909.445 160.574H894.619V194.09H900.751V180.104H908.773V174.476H900.751V166.328H909.445V160.574ZM926.439 188.42H917.577V160.574H911.445V194.09H926.439V188.42ZM945.797 185.984L946.889 194.09H953.105L948.107 160.574H939.497L933.911 194.09H940.043L941.219 185.984H945.797ZM941.807 181.028C941.807 181.028 943.319 171.284 943.319 171.116C943.613 169.31 943.697 166.034 943.697 166.034C943.697 166.034 943.781 169.352 943.991 171.116C943.991 171.284 945.251 181.028 945.251 181.028H941.807ZM960.244 192.368V161.96C960.244 161.204 960.16 160.616 960.118 160.532H954.448C954.574 160.826 954.574 161.834 954.574 162.548V192.494C954.574 193.334 954.658 193.964 954.826 194.09C954.826 194.132 960.454 194.09 960.454 194.09C960.286 193.964 960.244 193.418 960.244 192.368ZM968.252 192.368V161.96C968.252 161.204 968.168 160.616 968.126 160.532H962.456C962.582 160.826 962.582 161.834 962.582 162.548V192.494C962.582 193.334 962.666 193.964 962.834 194.09C962.834 194.132 968.462 194.09 968.462 194.09C968.294 193.964 968.252 193.418 968.252 192.368ZM994.838 176.618C994.838 171.368 994.628 165.53 993.326 163.64C991.856 161.456 989.966 160.574 986.396 160.574H977.744V194.09H987.152C990.596 194.09 992.234 192.788 993.326 190.898C994.628 188.672 994.838 183.548 994.838 176.618ZM986.48 189.26H983.792V165.782H986.228C987.446 165.782 988.202 166.37 988.538 167.756C988.832 168.89 988.958 174.938 988.958 176.618C988.958 178.34 988.874 186.194 988.58 187.538C988.286 188.756 987.572 189.26 986.48 189.26ZM1011.43 189.974C1011.43 188.252 1011.47 185.438 1011.47 183.632C1011.52 181.49 1011.56 178.004 1011.47 175.988C1011.35 172.754 1009.33 170.696 1004.5 170.696C999.378 170.696 997.278 173.006 997.278 177.332V179.054H1002.49V177.752C1002.49 176.156 1002.99 175.358 1004.42 175.358C1005.47 175.358 1006.01 175.946 1006.06 176.954C1006.1 177.668 1006.1 179.096 1006.1 179.726C1005.17 179.726 1004.21 179.852 1003.16 180.02C999.294 180.734 996.69 182.834 996.48 186.194C996.396 187.412 996.438 189.386 996.48 189.89C996.648 193.25 999.21 194.258 1001.52 194.258C1003.58 194.258 1005.13 193.712 1006.18 192.41C1006.18 192.998 1006.31 194.09 1006.39 194.09H1011.73C1011.52 193.796 1011.43 191.654 1011.43 189.974ZM1006.1 185.27C1006.01 186.446 1006.1 187.034 1005.89 188.252C1005.68 189.428 1004.67 189.89 1003.79 189.89C1002.95 189.89 1002.28 189.596 1002.15 188.798C1002.07 188.126 1002.07 187.328 1002.07 186.698C1002.07 185.732 1002.11 185.06 1002.82 184.43C1003.45 183.884 1004.17 183.758 1004.75 183.632C1005.26 183.548 1005.68 183.548 1006.1 183.548C1006.1 183.884 1006.14 184.808 1006.1 185.27ZM1023.69 170.99C1023.65 171.704 1020.96 185.354 1020.88 185.858C1020.84 185.396 1018.15 171.578 1018.06 170.99H1012.35L1017.85 193.46L1015.96 200.936H1021.72L1029.28 170.99H1023.69ZM1053.66 163.598C1052.7 161.624 1050.51 160.574 1047.95 160.574H1037.87V194.09H1043.96V180.146H1046.15L1049.51 194.09H1055.85L1051.77 178.466C1052.61 178.172 1053.54 177.248 1054.04 175.946C1054.55 174.728 1054.84 172.922 1054.84 170.276C1054.84 167.294 1054.38 164.984 1053.66 163.598ZM1048.33 173.888C1048.16 174.476 1047.7 174.854 1046.9 174.938C1046.69 174.98 1043.96 174.98 1043.96 174.98V166.16H1046.73C1047.74 166.16 1048.29 166.832 1048.5 167.756C1048.58 168.176 1048.67 169.73 1048.67 170.864C1048.67 171.872 1048.58 173.3 1048.33 173.888ZM1066.48 186.572C1066.48 187.16 1066.39 187.874 1066.23 188.588C1066.02 189.512 1065.13 189.89 1064.29 189.89C1063.45 189.89 1062.49 189.386 1062.36 188.252C1062.24 187.202 1062.19 185.522 1062.19 184.472H1071.73C1071.94 180.524 1071.64 176.492 1070.85 174.518C1069.88 172.166 1067.65 170.696 1064.42 170.696C1060.43 170.696 1058.67 172.502 1057.83 174.56C1057.2 176.072 1056.73 179.18 1056.73 182.666C1056.73 186.236 1057.03 188.882 1057.99 191.108C1059 193.46 1061.4 194.384 1064.5 194.384C1067.61 194.384 1069.5 193.124 1070.51 191.318C1071.39 189.764 1071.6 187.244 1071.6 186.572H1066.48ZM1062.11 180.356C1062.11 178.76 1062.15 177.248 1062.45 176.534C1062.74 175.736 1063.41 175.316 1064.34 175.316C1065.3 175.316 1065.93 175.778 1066.14 176.576C1066.31 177.122 1066.44 178.256 1066.44 180.356H1062.11ZM1092.39 170.99L1090.54 187.958L1088.11 170.99H1082.35L1080.21 187.958L1078.07 170.99H1072.36L1076.51 194.09H1083.23C1083.23 194.09 1084.7 185.9 1085.17 183.17C1085.21 182.918 1085.25 180.776 1085.25 180.776C1085.25 180.776 1085.38 182.918 1085.42 183.17C1085.88 185.816 1087.31 194.09 1087.31 194.09H1093.94L1097.98 170.99H1092.39ZM1113.25 189.974C1113.25 188.252 1113.29 185.438 1113.29 183.632C1113.34 181.49 1113.38 178.004 1113.29 175.988C1113.17 172.754 1111.15 170.696 1106.32 170.696C1101.2 170.696 1099.1 173.006 1099.1 177.332V179.054H1104.31V177.752C1104.31 176.156 1104.81 175.358 1106.24 175.358C1107.29 175.358 1107.83 175.946 1107.88 176.954C1107.92 177.668 1107.92 179.096 1107.92 179.726C1106.99 179.726 1106.03 179.852 1104.98 180.02C1101.11 180.734 1098.51 182.834 1098.3 186.194C1098.22 187.412 1098.26 189.386 1098.3 189.89C1098.47 193.25 1101.03 194.258 1103.34 194.258C1105.4 194.258 1106.95 193.712 1108 192.41C1108 192.998 1108.13 194.09 1108.21 194.09H1113.55C1113.34 193.796 1113.25 191.654 1113.25 189.974ZM1107.92 185.27C1107.83 186.446 1107.92 187.034 1107.71 188.252C1107.5 189.428 1106.49 189.89 1105.61 189.89C1104.77 189.89 1104.1 189.596 1103.97 188.798C1103.89 188.126 1103.89 187.328 1103.89 186.698C1103.89 185.732 1103.93 185.06 1104.64 184.43C1105.27 183.884 1105.99 183.758 1106.57 183.632C1107.08 183.548 1107.5 183.548 1107.92 183.548C1107.92 183.884 1107.96 184.808 1107.92 185.27ZM1125.45 170.696C1123.52 170.696 1121.59 171.956 1121.34 173.72V170.99H1115.79V194.09H1121.42V180.398C1121.42 176.618 1122.6 175.778 1124.53 175.778C1125.66 175.778 1126.8 175.988 1127.47 176.198V170.906C1127.01 170.738 1126.34 170.696 1125.45 170.696ZM1129.19 174.392C1128.51 176.912 1128.3 179.222 1128.3 182.624C1128.3 186.32 1128.72 189.386 1129.48 191.234C1130.32 193.334 1131.87 194.258 1134.18 194.258C1136.24 194.258 1137.63 193.586 1138.38 192.41L1139.06 194.09H1143.76C1143.76 194.09 1143.59 192.158 1143.59 190.856V160.532H1138.09V172.67C1137.46 171.452 1135.95 170.78 1134.18 170.78C1131.71 170.78 1129.77 172.124 1129.19 174.392ZM1137.71 176.828C1137.96 178.088 1138.13 179.348 1138.13 182.666C1138.13 184.682 1138.05 186.782 1137.75 188.252C1137.59 189.134 1137.04 189.806 1135.95 189.806C1134.81 189.806 1134.23 189.26 1134.1 188.378C1133.89 186.656 1133.81 184.598 1133.81 182.666C1133.81 180.692 1133.89 178.718 1134.18 177.038C1134.35 176.198 1134.94 175.568 1135.99 175.568C1137.04 175.568 1137.54 176.03 1137.71 176.828Z" fill="white"/>
</g>
<path d="M809 0.707031H1224H809ZM1224 250.707H809H1224ZM808 250.707V0.707031H810V250.707H808ZM1224 0.707031V250.707V0.707031Z" fill="white" mask="url(#path-15-inside-3_2915_32598)"/>
<rect x="624.5" y="1.20703" width="599" height="249" rx="11.5" stroke="white"/>
<defs>
<clipPath id="clip0_2915_32598">
<path d="M185 0.707031H600V250.707H185V0.707031Z" fill="white"/>
</clipPath>
<clipPath id="clip1_2915_32598">
<path d="M809 0.707031H1224V250.707H809V0.707031Z" fill="white"/>
</clipPath>
<clipPath id="clip2_2915_32598">
<rect x="1154.47" y="14.0896" width="24" height="24" rx="4" fill="white"/>
</clipPath>
</defs>
</svg>
