<svg width="100%" height="auto" viewBox="0 0 1224 251" fill="none" xmlns="http://www.w3.org/2000/svg">
<path d="M77.1 29.867H59.82C58.06 33.707 53.58 41.067 37.1 42.187V60.587L54.7 59.787V157.707H77.1V29.867ZM146.688 137.067H110.208C116.608 124.907 144.928 96.907 146.688 69.227C146.848 66.507 147.008 55.467 146.848 53.387C145.728 39.467 138.208 28.747 116.928 28.747C96.1275 28.747 86.0475 41.387 85.5675 54.027C85.4075 56.587 85.4075 69.707 85.4075 72.267H107.808V57.227C107.968 51.307 111.168 49.067 115.328 49.067C119.968 49.067 122.848 50.667 122.848 58.187V67.307C122.048 94.987 94.0475 118.507 85.2475 137.867V157.707H146.688V137.067Z" fill="white"/>
<path d="M73.2044 192.035V187.715H67.5344V189.749H71.0084C71.0084 189.749 71.0264 191.801 70.9904 191.981C70.7564 193.043 69.8024 193.853 68.2724 193.853C67.0124 193.853 66.2384 193.529 65.7524 192.827C65.1764 191.981 65.0144 190.739 65.0144 188.633C65.0144 186.563 65.2664 185.213 65.7704 184.439C66.2564 183.719 67.0304 183.413 68.1104 183.413C69.1184 183.413 69.8204 183.719 70.2344 184.331C70.6124 184.907 70.8284 185.753 70.8284 186.239H73.1324C73.1324 185.609 72.9524 184.367 72.5204 183.503C71.8724 182.225 70.5224 181.271 68.0564 181.271C65.6804 181.271 64.3484 182.261 63.5924 183.431C62.8004 184.673 62.5664 186.383 62.5664 188.597C62.5664 191.171 62.9624 192.827 63.6464 193.907C64.4744 195.203 65.8784 195.887 67.7684 195.887C69.7124 195.887 70.7564 195.203 71.2424 194.483L71.3504 195.707H73.2224C73.2224 195.653 73.2044 193.745 73.2044 192.035ZM85.209 192.251L86.199 195.707H88.647L84.435 181.451H81.411L76.911 195.707H79.323L80.367 192.251H85.209ZM81.015 190.199C81.015 190.199 82.581 185.033 82.599 184.943C82.635 184.799 82.869 183.665 82.869 183.665C82.869 183.665 83.103 184.799 83.139 184.943C83.175 185.051 84.597 190.199 84.597 190.199H81.015ZM105.429 181.451H102.351L99.1468 192.053L95.9968 181.451H92.7388V195.707H94.9528V185.933L97.8868 195.707H100.209L103.197 185.897V195.707H105.429V181.451ZM119.504 193.547H113.006V189.641H119.144V187.463H113.006V183.611H119.432V181.451H110.666V195.707H119.504V193.547ZM58.9932 215.769C58.5972 215.625 57.7512 215.301 57.2472 215.139C55.5012 214.563 54.6372 214.005 54.6372 212.889C54.6372 211.935 55.2852 211.359 57.1032 211.359C58.6512 211.359 59.3712 211.791 59.6772 212.673C59.7852 212.997 59.8392 213.267 59.8392 213.573H62.2512C62.2512 213.033 62.1612 212.601 62.0352 212.169C61.5312 210.405 60.0912 209.289 57.1572 209.289C53.7912 209.289 52.2072 210.765 52.2072 212.961C52.2072 215.067 53.5932 216.327 55.7352 217.029C56.3292 217.227 57.1752 217.551 57.5352 217.677C59.4432 218.343 60.0192 218.919 60.0192 220.125C60.0192 221.205 59.2452 221.853 57.4272 221.853C55.8792 221.853 54.9792 221.457 54.7092 220.611C54.6012 220.269 54.5472 219.783 54.5472 219.531H52.1532C52.1532 219.945 52.1892 220.611 52.3152 221.097C52.7472 222.771 54.1872 223.887 57.4812 223.887C60.8112 223.887 62.4492 222.303 62.4492 219.927C62.4492 217.713 61.2252 216.543 58.9932 215.769ZM75.9467 209.451H65.8487V211.593H69.6827V223.707H72.0947V211.593H75.9467V209.451ZM89.3267 211.035C88.8227 210.027 87.8687 209.451 86.3027 209.451H80.0927V223.707H82.4327V217.767H85.5287L88.0127 223.707H90.6227L87.8147 217.245C88.4447 217.119 89.0207 216.669 89.3807 215.985C89.6507 215.445 89.7947 214.653 89.7947 213.573C89.7947 212.421 89.6867 211.719 89.3267 211.035ZM87.2387 215.103C87.0587 215.499 86.6087 215.715 85.9787 215.733H82.4507V211.575H85.7987C86.6087 211.575 87.1127 211.863 87.3107 212.403C87.4007 212.637 87.4367 213.267 87.4367 213.789C87.4367 214.221 87.3647 214.797 87.2387 215.103ZM103.799 221.547H97.301V217.641H103.439V215.463H97.301V211.611H103.727V209.451H94.961V223.707H103.799V221.547ZM115.656 220.251L116.646 223.707H119.094L114.882 209.451H111.858L107.358 223.707H109.77L110.814 220.251H115.656ZM111.462 218.199C111.462 218.199 113.028 213.033 113.046 212.943C113.082 212.799 113.316 211.665 113.316 211.665C113.316 211.665 113.55 212.799 113.586 212.943C113.622 213.051 115.044 218.199 115.044 218.199H111.462ZM128.244 215.607L133.374 209.451H130.71L125.562 215.517V209.451H123.186V223.707H125.562V218.613L126.606 217.389L130.674 223.707H133.482L128.244 215.607Z" fill="white"/>
<g clip-path="url(#clip0_2915_32589)">
<path d="M230.744 33.707H232.49V20.801H231.14C230.906 22.673 229.394 23.285 227.774 23.321V24.473H230.744V33.707ZM234.804 33.707H243.804V32.105H236.928L236.964 31.961C237.468 30.629 239.214 29.657 240.546 28.847C242.472 27.749 244.038 26.921 244.038 24.545C244.038 22.277 242.346 20.603 239.718 20.603C238.314 20.603 237.09 21.035 236.298 21.881C235.524 22.673 235.11 23.699 235.11 25.139H236.892C236.892 24.059 237.108 23.357 237.612 22.835C238.08 22.313 238.71 22.043 239.574 22.043C241.212 22.043 242.238 23.069 242.238 24.581C242.238 26.057 241.302 26.705 239.7 27.623C238.476 28.361 237.144 29.099 236.172 30.179C235.398 31.061 234.876 32.159 234.804 33.707ZM254.861 37.091C256.157 37.091 257.237 36.803 257.993 36.173C258.731 35.543 259.163 34.589 259.163 33.311V24.041H257.507V25.319H257.471C256.859 24.347 255.923 23.807 254.537 23.807C252.269 23.807 250.397 25.571 250.397 28.541C250.397 31.349 252.161 33.275 254.627 33.275C255.995 33.275 256.841 32.681 257.507 31.727H257.543C257.525 32.033 257.507 32.555 257.507 33.113V33.383C257.507 35.021 256.553 35.795 254.825 35.795C253.385 35.795 252.413 35.381 252.269 34.373H250.703C250.883 36.083 252.323 37.091 254.861 37.091ZM254.789 31.907C253.043 31.907 252.107 30.611 252.107 28.559C252.107 26.525 253.007 25.193 254.771 25.193C256.697 25.193 257.615 26.435 257.615 28.469C257.615 30.431 256.895 31.907 254.789 31.907ZM264.36 33.905C265.998 33.905 266.988 33.131 267.6 32.285H267.618C267.798 33.311 268.302 33.797 269.328 33.797C269.724 33.797 269.994 33.725 270.228 33.653V32.483H270.156C269.31 32.663 269.13 32.249 269.13 31.475V26.957C269.13 25.661 268.644 24.815 267.834 24.329C267.222 23.969 266.412 23.807 265.494 23.807C262.884 23.807 261.642 25.265 261.57 26.903H263.19C263.244 25.751 263.982 25.031 265.512 25.031C266.844 25.031 267.582 25.679 267.582 26.723C267.582 27.713 266.664 27.947 265.242 28.109C262.74 28.415 261.084 28.901 261.084 31.151C261.084 33.005 262.524 33.905 264.36 33.905ZM264.774 32.681C263.802 32.681 262.848 32.375 262.848 31.133C262.848 29.801 263.892 29.513 265.476 29.243C266.268 29.099 267.114 28.865 267.6 28.559V30.143C267.6 31.259 266.7 32.681 264.774 32.681ZM271.588 33.707H273.262V27.749C273.262 26.273 274.504 25.211 275.656 25.211C276.646 25.211 277.312 25.913 277.312 27.101V33.707H278.968V27.749C278.968 26.273 280.03 25.211 281.254 25.211C282.226 25.211 283 25.913 283 27.101V33.707H284.674V26.957C284.674 24.941 283.45 23.807 281.686 23.807C280.516 23.807 279.382 24.401 278.698 25.607H278.662C278.266 24.419 277.33 23.807 276.16 23.807C274.918 23.807 273.892 24.437 273.298 25.481H273.244V24.041H271.588V33.707ZM291.11 33.977C293.342 33.977 294.89 32.753 295.322 30.953H293.684C293.378 31.979 292.46 32.609 291.128 32.609C289.256 32.609 288.23 31.169 288.104 29.279H295.52C295.52 27.641 295.124 26.255 294.332 25.301C293.576 24.365 292.46 23.807 291.02 23.807C288.248 23.807 286.394 26.075 286.394 28.883C286.394 31.709 288.14 33.977 291.11 33.977ZM291.02 25.103C292.694 25.103 293.648 26.219 293.738 28.073H288.14C288.356 26.363 289.274 25.103 291.02 25.103ZM304.174 33.707H305.866L307.324 28.379C307.558 27.461 307.918 25.679 307.918 25.679H307.954C307.954 25.679 308.332 27.443 308.566 28.379L309.988 33.707H311.662L314.812 24.041H313.084L311.482 29.405C311.122 30.593 310.852 32.249 310.852 32.249H310.816C310.816 32.249 310.474 30.467 310.204 29.441L308.764 24.041H307.18L305.722 29.441C305.398 30.611 305.074 32.231 305.074 32.231H305.038C305.038 32.231 304.714 30.503 304.408 29.405L302.896 24.041H301.114L304.174 33.707ZM316.112 22.259H317.858V20.315H316.112V22.259ZM316.148 33.707H317.822V24.041H316.148V33.707ZM321.777 24.041H320.121V33.707H321.795V27.821C321.795 26.273 322.875 25.211 324.369 25.211C325.683 25.211 326.493 25.913 326.493 27.155V33.707H328.149V26.957C328.149 24.941 326.907 23.807 324.891 23.807C323.487 23.807 322.533 24.437 321.831 25.409H321.777V24.041ZM338.893 33.995C341.161 33.995 342.781 32.987 342.781 31.025C342.781 28.775 341.125 28.343 339.199 27.965C337.561 27.641 336.625 27.443 336.625 26.435C336.625 25.697 337.183 25.085 338.497 25.085C339.883 25.085 340.567 25.643 340.711 26.633H342.385C342.169 24.959 340.963 23.825 338.533 23.825C336.283 23.825 334.987 24.869 334.987 26.525C334.987 28.649 336.697 29.045 338.587 29.441C340.297 29.783 341.107 30.053 341.107 31.115C341.107 31.979 340.459 32.645 338.929 32.645C337.543 32.645 336.463 32.177 336.265 30.773H334.573C334.717 32.735 336.229 33.995 338.893 33.995ZM343.82 25.337H345.332V31.817C345.332 33.239 346.232 33.761 347.528 33.779C347.96 33.779 348.428 33.725 348.878 33.617V32.213H348.824C348.644 32.267 348.266 32.339 347.978 32.339C347.366 32.339 346.988 32.141 346.988 31.439V25.337H348.986V24.041H346.988V20.999H345.332V24.041H343.82V25.337ZM352.38 24.041H350.724V33.707H352.398V28.451C352.398 26.633 353.676 25.517 355.17 25.517C355.458 25.517 355.62 25.535 355.854 25.607H355.908V24.023C355.728 23.951 355.566 23.915 355.296 23.915C354.018 23.915 353.028 24.671 352.434 25.787H352.38V24.041ZM361.387 33.977C363.619 33.977 365.167 32.753 365.599 30.953H363.961C363.655 31.979 362.737 32.609 361.405 32.609C359.533 32.609 358.507 31.169 358.381 29.279H365.797C365.797 27.641 365.401 26.255 364.609 25.301C363.853 24.365 362.737 23.807 361.297 23.807C358.525 23.807 356.671 26.075 356.671 28.883C356.671 31.709 358.417 33.977 361.387 33.977ZM361.297 25.103C362.971 25.103 363.925 26.219 364.015 28.073H358.417C358.633 26.363 359.551 25.103 361.297 25.103ZM370.462 33.905C372.1 33.905 373.09 33.131 373.702 32.285H373.72C373.9 33.311 374.404 33.797 375.43 33.797C375.826 33.797 376.096 33.725 376.33 33.653V32.483H376.258C375.412 32.663 375.232 32.249 375.232 31.475V26.957C375.232 25.661 374.746 24.815 373.936 24.329C373.324 23.969 372.514 23.807 371.596 23.807C368.986 23.807 367.744 25.265 367.672 26.903H369.292C369.346 25.751 370.084 25.031 371.614 25.031C372.946 25.031 373.684 25.679 373.684 26.723C373.684 27.713 372.766 27.947 371.344 28.109C368.842 28.415 367.186 28.901 367.186 31.151C367.186 33.005 368.626 33.905 370.462 33.905ZM370.876 32.681C369.904 32.681 368.95 32.375 368.95 31.133C368.95 29.801 369.994 29.513 371.578 29.243C372.37 29.099 373.216 28.865 373.702 28.559V30.143C373.702 31.259 372.802 32.681 370.876 32.681ZM384.043 33.707H386.005L381.883 27.515L385.573 24.041H383.485L379.291 28.163C379.327 27.695 379.363 27.011 379.363 26.669V20.315H377.689V33.707H379.363V29.909L380.731 28.613L384.043 33.707ZM392.226 36.983H393.9V34.049C393.9 33.311 393.882 32.771 393.864 32.429H393.918C394.584 33.455 395.646 33.995 396.96 33.995C399.57 33.995 401.172 31.997 401.172 28.901C401.172 25.715 399.48 23.807 397.014 23.807C395.628 23.807 394.656 24.455 393.936 25.553H393.882V24.041H392.226V36.983ZM396.78 32.609C394.638 32.609 393.81 30.971 393.81 28.937C393.81 26.885 394.746 25.229 396.798 25.229C398.58 25.229 399.462 26.813 399.462 28.937C399.462 31.043 398.562 32.609 396.78 32.609ZM404.605 24.041H402.949V33.707H404.623V28.451C404.623 26.633 405.901 25.517 407.395 25.517C407.683 25.517 407.845 25.535 408.079 25.607H408.133V24.023C407.953 23.951 407.791 23.915 407.521 23.915C406.243 23.915 405.253 24.671 404.659 25.787H404.605V24.041ZM409.733 22.259H411.479V20.315H409.733V22.259ZM409.769 33.707H411.443V24.041H409.769V33.707ZM413.382 33.707H421.176V32.231H417.27C416.568 32.231 415.344 32.285 415.344 32.285V32.231C415.344 32.231 416.154 31.349 416.568 30.827L420.96 25.085V24.041H413.706V25.463H417.036C417.702 25.463 418.854 25.409 418.854 25.409V25.463C418.854 25.463 418.098 26.273 417.702 26.777L413.382 32.411V33.707ZM426.795 33.977C429.027 33.977 430.575 32.753 431.007 30.953H429.369C429.063 31.979 428.145 32.609 426.813 32.609C424.941 32.609 423.915 31.169 423.789 29.279H431.205C431.205 27.641 430.809 26.255 430.017 25.301C429.261 24.365 428.145 23.807 426.705 23.807C423.933 23.807 422.079 26.075 422.079 28.883C422.079 31.709 423.825 33.977 426.795 33.977ZM426.705 25.103C428.379 25.103 429.333 26.219 429.423 28.073H423.825C424.041 26.363 424.959 25.103 426.705 25.103Z" fill="white"/>
<path d="M537.998 36.0647C537.56 36.0647 537.188 35.9114 536.881 35.6047C536.574 35.2981 536.421 34.9257 536.421 34.4876V26.8125C535.51 26.5672 534.713 26.1029 534.029 25.4195C533.346 24.7361 533.004 23.9037 533.004 22.9224C533.004 21.9937 533.271 21.1701 533.806 20.4517C534.34 19.7332 535.028 19.2338 535.869 18.9535C536.272 18.1124 536.872 17.429 537.67 16.9033C538.467 16.3776 539.365 16.1147 540.364 16.1147C540.977 16.1147 541.551 16.2199 542.085 16.4302C542.62 16.6404 543.106 16.9208 543.544 17.2713C543.719 17.2362 543.886 17.2056 544.044 17.1793C544.201 17.153 544.377 17.1398 544.569 17.1398C545.726 17.1398 546.716 17.5516 547.539 18.3752C548.363 19.1988 548.775 20.1888 548.775 21.3454C548.775 21.7309 548.696 22.1164 548.538 22.5019C548.381 22.8874 548.179 23.2028 547.934 23.4481H550.352C550.79 23.4481 551.162 23.6015 551.469 23.9081C551.776 24.2148 551.929 24.5871 551.929 25.0252V32.3849C551.929 32.8229 551.776 33.1953 551.469 33.502C551.162 33.8086 550.79 33.9619 550.352 33.9619H547.461V34.4876C547.461 34.9257 547.307 35.2981 547.001 35.6047C546.694 35.9114 546.322 36.0647 545.884 36.0647H537.998ZM534.581 22.9224C534.581 23.5883 534.853 24.149 535.396 24.6046C535.939 25.0602 536.544 25.288 537.21 25.288C537.77 25.288 538.279 25.1347 538.734 24.8281C539.19 24.5214 539.654 24.079 540.127 23.5007C540.53 23.0101 541.012 22.572 541.573 22.1865C542.134 21.801 542.782 21.6082 543.518 21.6082H547.198C547.198 20.8197 546.966 20.1407 546.501 19.5712C546.037 19.0017 545.393 18.7169 544.569 18.7169C544.254 18.7169 543.943 18.7651 543.636 18.8615L543.176 19.006L542.677 18.5855C542.361 18.3051 542.002 18.0861 541.599 17.9284C541.196 17.7707 540.784 17.6918 540.364 17.6918C539.751 17.6918 539.163 17.8495 538.603 18.1649C538.042 18.4804 537.63 18.9184 537.367 19.4792L536.999 20.2677L536.158 20.5568C535.703 20.7145 535.326 21.0256 535.028 21.4899C534.73 21.9543 534.581 22.4318 534.581 22.9224ZM547.461 32.3849H550.352V25.0252H547.461V32.3849Z" fill="white"/>
<path d="M600 50.4722H185V52.4722H600V50.4722Z" fill="white" mask="url(#path-6-inside-2_2915_32589)"/>
<path d="M248.568 91.0174C248.568 91.0174 242.936 109.641 242.104 112.329C241.528 109.705 236.536 91.0174 236.536 91.0174H227L237.432 123.145V142.089H246.776V122.953L257.784 91.0174H248.568ZM267.622 130.633C267.622 131.529 267.494 132.617 267.238 133.705C266.918 135.113 265.574 135.689 264.294 135.689C263.014 135.689 261.542 134.921 261.35 133.193C261.158 131.593 261.094 129.033 261.094 127.433H275.622C275.942 121.417 275.494 115.273 274.278 112.265C272.806 108.681 269.414 106.441 264.486 106.441C258.406 106.441 255.718 109.193 254.438 112.329C253.478 114.633 252.774 119.369 252.774 124.681C252.774 130.121 253.222 134.153 254.694 137.545C256.23 141.129 259.878 142.537 264.614 142.537C269.35 142.537 272.23 140.617 273.766 137.865C275.11 135.497 275.43 131.657 275.43 130.633H267.622ZM260.966 121.161C260.966 118.729 261.03 116.425 261.478 115.337C261.926 114.121 262.95 113.481 264.358 113.481C265.83 113.481 266.79 114.185 267.11 115.401C267.366 116.233 267.558 117.961 267.558 121.161H260.966ZM300.054 135.817C300.054 133.193 300.118 128.905 300.118 126.153C300.182 122.889 300.246 117.577 300.118 114.505C299.926 109.577 296.854 106.441 289.494 106.441C281.686 106.441 278.486 109.961 278.486 116.553V119.177H286.422V117.193C286.422 114.761 287.19 113.545 289.366 113.545C290.966 113.545 291.798 114.441 291.862 115.977C291.926 117.065 291.926 119.241 291.926 120.201C290.518 120.201 289.046 120.393 287.446 120.649C281.558 121.737 277.59 124.937 277.27 130.057C277.142 131.913 277.206 134.921 277.27 135.689C277.526 140.809 281.43 142.345 284.95 142.345C288.086 142.345 290.454 141.513 292.054 139.529C292.054 140.425 292.246 142.089 292.374 142.089H300.502C300.182 141.641 300.054 138.377 300.054 135.817ZM291.926 128.649C291.798 130.441 291.926 131.337 291.606 133.193C291.286 134.985 289.75 135.689 288.406 135.689C287.126 135.689 286.102 135.241 285.91 134.025C285.782 133.001 285.782 131.785 285.782 130.825C285.782 129.353 285.845 128.329 286.934 127.369C287.894 126.537 288.982 126.345 289.878 126.153C290.646 126.025 291.286 126.025 291.926 126.025C291.926 126.537 291.99 127.945 291.926 128.649ZM318.009 106.441C315.065 106.441 312.121 108.361 311.737 111.049V106.889H303.289V142.089H311.865V121.225C311.865 115.465 313.657 114.185 316.601 114.185C318.329 114.185 320.057 114.505 321.081 114.825V106.761C320.377 106.505 319.353 106.441 318.009 106.441ZM324.699 101.705L324.827 101.961L322.395 106.185L326.299 108.937L331.803 102.089V91.0174H322.843V101.705H324.699ZM345.634 122.185C344.034 121.353 342.434 120.649 340.834 119.881C338.786 118.921 338.082 117.833 338.082 116.105C338.082 114.633 338.722 113.417 340.706 113.417C342.498 113.417 343.074 114.441 343.202 115.529C343.266 115.785 343.33 117.769 343.33 118.153H351.074C351.074 117.449 350.882 113.737 350.69 112.713C349.858 108.809 346.594 106.377 340.386 106.377C333.602 106.377 330.146 110.345 330.146 115.913C330.146 121.161 331.682 124.425 336.29 126.601C337.57 127.177 339.298 128.009 340.386 128.457C342.818 129.417 343.65 130.633 343.65 132.809C343.65 134.793 342.434 135.753 340.834 135.753C339.298 135.753 338.082 135.113 337.954 133.641C337.89 132.553 337.826 131.465 337.826 131.017H329.89C329.89 132.105 329.954 134.345 330.082 135.497C330.658 140.233 333.858 142.601 341.026 142.601C347.362 142.601 351.778 139.209 351.778 132.553C351.778 127.177 350.114 124.425 345.634 122.185ZM397.001 91.0174C397.001 91.0174 393.417 123.209 393.417 128.265C393.417 123.209 389.001 91.0174 389.001 91.0174H379.721C379.721 91.0174 375.561 123.209 375.561 128.265C375.561 123.209 371.849 91.0174 371.849 91.0174H362.312L369.481 142.089H380.297C380.297 142.089 384.201 115.593 384.265 110.281C384.521 115.593 388.233 142.089 388.233 142.089H399.305L406.281 91.0174H397.001ZM427.61 113.609C426.458 109.577 423.386 106.441 417.05 106.441C410.714 106.441 407.578 109.897 406.554 113.417C405.658 116.425 405.21 120.649 405.21 124.425C405.21 128.329 405.722 133.065 406.298 135.177C407.514 139.593 411.162 142.537 416.922 142.537C423.002 142.537 426.266 139.657 427.546 135.177C428.314 132.617 428.698 128.265 428.698 124.425C428.698 120.649 428.378 116.233 427.61 113.609ZM419.994 133.065C419.802 134.409 418.586 135.561 416.986 135.561C415.45 135.561 414.298 134.729 414.042 133.129C413.722 131.465 413.658 127.305 413.658 124.553C413.658 121.929 413.722 117.641 414.042 116.169C414.426 114.569 415.322 113.673 416.986 113.673C418.714 113.673 419.61 114.377 419.994 116.041C420.25 117.385 420.378 121.865 420.378 124.553C420.378 127.241 420.442 129.993 419.994 133.065ZM446.197 106.441C443.253 106.441 440.309 108.361 439.925 111.049V106.889H431.477V142.089H440.053V121.225C440.053 115.465 441.845 114.185 444.789 114.185C446.517 114.185 448.245 114.505 449.269 114.825V106.761C448.565 106.505 447.541 106.441 446.197 106.441ZM467.02 106.889H462.092V100.105L453.772 100.297C453.772 100.297 453.516 106.697 453.452 106.889H450.316V114.377H453.324V134.409C453.324 139.913 456.396 142.345 461.644 142.345C463.884 142.345 465.292 142.217 466.635 141.897V135.049C465.996 135.177 465.164 135.241 464.46 135.241C463.116 135.241 462.028 134.857 462.028 132.873V114.377H467.02V106.889ZM491.624 115.017C491.624 108.873 488.616 106.441 484.264 106.441C480.744 106.441 478.76 107.785 477.8 110.153V90.9534H469.352V142.089H477.8V117.577C477.8 115.145 479.016 113.929 480.68 113.929C482.536 113.929 483.112 114.953 483.112 116.553C483.112 141.129 483.112 142.089 483.176 142.089H491.752C491.688 142.089 491.624 141.129 491.624 115.017ZM526.235 113.609C525.083 109.577 522.011 106.441 515.675 106.441C509.339 106.441 506.203 109.897 505.179 113.417C504.283 116.425 503.835 120.649 503.835 124.425C503.835 128.329 504.347 133.065 504.923 135.177C506.139 139.593 509.787 142.537 515.547 142.537C521.627 142.537 524.891 139.657 526.171 135.177C526.939 132.617 527.323 128.265 527.323 124.425C527.323 120.649 527.003 116.233 526.235 113.609ZM518.619 133.065C518.427 134.409 517.211 135.561 515.611 135.561C514.075 135.561 512.923 134.729 512.667 133.129C512.347 131.465 512.283 127.305 512.283 124.553C512.283 121.929 512.347 117.641 512.667 116.169C513.051 114.569 513.947 113.673 515.611 113.673C517.339 113.673 518.235 114.377 518.619 116.041C518.875 117.385 519.003 121.865 519.003 124.553C519.003 127.241 519.067 129.993 518.619 133.065ZM545.078 106.889H540.47V100.361C540.47 99.0814 541.238 97.6734 542.966 97.6734C543.67 97.6734 544.694 97.7374 545.526 97.8654V90.8894C544.566 90.7614 542.71 90.6974 540.47 90.6974C534.134 90.6974 531.894 94.4734 531.894 99.2734V106.889H528.758V114.377H531.894V142.089H540.47V114.377H545.078V106.889ZM256.312 192.137C256.312 188.937 255.928 185.225 254.776 183.177C253.624 181.065 252.024 180.041 249.528 179.721C251.64 179.337 253.048 178.441 254.008 176.457C255.224 173.897 255.416 170.633 255.416 167.241C255.416 164.041 255.032 160.969 253.816 158.857C252.28 156.169 249.4 155.017 245.112 155.017H228.984V206.089H244.152C248.888 206.089 251.896 205.449 254.072 202.505C255.8 200.137 256.312 196.041 256.312 192.137ZM245.048 175.177C244.472 176.393 243.768 176.905 243.064 176.905H238.136V162.633H242.424C243.768 162.633 244.536 163.401 244.984 164.489C245.368 165.449 245.752 167.497 245.752 169.545C245.752 172.041 245.432 174.345 245.048 175.177ZM242.68 198.473H238.136V184.073H242.872C244.088 184.073 245.048 184.841 245.624 185.865C246.072 186.697 246.328 189.449 246.328 191.113C246.328 192.713 246.136 195.721 245.688 196.681C245.112 197.961 243.896 198.473 242.68 198.473ZM273.31 194.633C273.31 195.529 273.182 196.617 272.926 197.705C272.606 199.113 271.262 199.689 269.982 199.689C268.702 199.689 267.23 198.921 267.038 197.193C266.845 195.593 266.782 193.033 266.782 191.433H281.31C281.63 185.417 281.182 179.273 279.966 176.265C278.494 172.681 275.102 170.441 270.174 170.441C264.094 170.441 261.406 173.193 260.126 176.329C259.166 178.633 258.462 183.369 258.462 188.681C258.462 194.121 258.91 198.153 260.382 201.545C261.918 205.129 265.566 206.537 270.302 206.537C275.038 206.537 277.918 204.617 279.454 201.865C280.798 199.497 281.118 195.657 281.118 194.633H273.31ZM266.654 185.161C266.654 182.729 266.718 180.425 267.166 179.337C267.614 178.121 268.638 177.481 270.046 177.481C271.518 177.481 272.478 178.185 272.798 179.401C273.054 180.233 273.246 181.961 273.246 185.161H266.654ZM297.997 194.633C297.997 195.529 297.869 196.617 297.613 197.705C297.293 199.113 295.949 199.689 294.669 199.689C293.389 199.689 291.917 198.921 291.725 197.193C291.533 195.593 291.469 193.033 291.469 191.433H305.997C306.317 185.417 305.869 179.273 304.653 176.265C303.181 172.681 299.789 170.441 294.861 170.441C288.781 170.441 286.093 173.193 284.813 176.329C283.853 178.633 283.149 183.369 283.149 188.681C283.149 194.121 283.597 198.153 285.069 201.545C286.605 205.129 290.253 206.537 294.989 206.537C299.725 206.537 302.605 204.617 304.141 201.865C305.485 199.497 305.805 195.657 305.805 194.633H297.997ZM291.341 185.161C291.341 182.729 291.405 180.425 291.853 179.337C292.301 178.121 293.325 177.481 294.733 177.481C296.205 177.481 297.165 178.185 297.485 179.401C297.741 180.233 297.933 181.961 297.933 185.161H291.341ZM323.197 170.441C320.253 170.441 317.309 172.361 316.925 175.049V170.889H308.477V206.089H317.053V185.225C317.053 179.465 318.845 178.185 321.789 178.185C323.517 178.185 325.245 178.505 326.269 178.825V170.761C325.565 170.505 324.541 170.441 323.197 170.441Z" fill="white"/>
</g>
<path d="M185 0.707031H600H185ZM600 250.707H185H600ZM184 250.707V0.707031H186V250.707H184ZM600 0.707031V250.707V0.707031Z" fill="white" mask="url(#path-4-inside-1_2915_32589)"/>
<rect x="0.5" y="1.20703" width="599" height="249" rx="11.5" stroke="white"/>
<path d="M711.1 29.867H693.82C692.06 33.707 687.58 41.067 671.1 42.187V60.587L688.7 59.787V157.707H711.1V29.867ZM757.194 29.867H739.914C738.154 33.707 733.674 41.067 717.194 42.187V60.587L734.794 59.787V157.707H757.194V29.867Z" fill="white"/>
<path d="M697.204 192.035V187.715H691.534V189.749H695.008C695.008 189.749 695.026 191.801 694.99 191.981C694.756 193.043 693.802 193.853 692.272 193.853C691.012 193.853 690.238 193.529 689.752 192.827C689.176 191.981 689.014 190.739 689.014 188.633C689.014 186.563 689.266 185.213 689.77 184.439C690.256 183.719 691.03 183.413 692.11 183.413C693.118 183.413 693.82 183.719 694.234 184.331C694.612 184.907 694.828 185.753 694.828 186.239H697.132C697.132 185.609 696.952 184.367 696.52 183.503C695.872 182.225 694.522 181.271 692.056 181.271C689.68 181.271 688.348 182.261 687.592 183.431C686.8 184.673 686.566 186.383 686.566 188.597C686.566 191.171 686.962 192.827 687.646 193.907C688.474 195.203 689.878 195.887 691.768 195.887C693.712 195.887 694.756 195.203 695.242 194.483L695.35 195.707H697.222C697.222 195.653 697.204 193.745 697.204 192.035ZM709.209 192.251L710.199 195.707H712.647L708.435 181.451H705.411L700.911 195.707H703.323L704.367 192.251H709.209ZM705.015 190.199C705.015 190.199 706.581 185.033 706.599 184.943C706.635 184.799 706.869 183.665 706.869 183.665C706.869 183.665 707.103 184.799 707.139 184.943C707.175 185.051 708.597 190.199 708.597 190.199H705.015ZM729.429 181.451H726.351L723.147 192.053L719.997 181.451H716.739V195.707H718.953V185.933L721.887 195.707H724.209L727.197 185.897V195.707H729.429V181.451ZM743.504 193.547H737.006V189.641H743.144V187.463H737.006V183.611H743.432V181.451H734.666V195.707H743.504V193.547ZM682.993 215.769C682.597 215.625 681.751 215.301 681.247 215.139C679.501 214.563 678.637 214.005 678.637 212.889C678.637 211.935 679.285 211.359 681.103 211.359C682.651 211.359 683.371 211.791 683.677 212.673C683.785 212.997 683.839 213.267 683.839 213.573H686.251C686.251 213.033 686.161 212.601 686.035 212.169C685.531 210.405 684.091 209.289 681.157 209.289C677.791 209.289 676.207 210.765 676.207 212.961C676.207 215.067 677.593 216.327 679.735 217.029C680.329 217.227 681.175 217.551 681.535 217.677C683.443 218.343 684.019 218.919 684.019 220.125C684.019 221.205 683.245 221.853 681.427 221.853C679.879 221.853 678.979 221.457 678.709 220.611C678.601 220.269 678.547 219.783 678.547 219.531H676.153C676.153 219.945 676.189 220.611 676.315 221.097C676.747 222.771 678.187 223.887 681.481 223.887C684.811 223.887 686.449 222.303 686.449 219.927C686.449 217.713 685.225 216.543 682.993 215.769ZM699.947 209.451H689.849V211.593H693.683V223.707H696.095V211.593H699.947V209.451ZM713.327 211.035C712.823 210.027 711.869 209.451 710.303 209.451H704.093V223.707H706.433V217.767H709.529L712.013 223.707H714.623L711.815 217.245C712.445 217.119 713.021 216.669 713.381 215.985C713.651 215.445 713.795 214.653 713.795 213.573C713.795 212.421 713.687 211.719 713.327 211.035ZM711.239 215.103C711.059 215.499 710.609 215.715 709.979 215.733H706.451V211.575H709.799C710.609 211.575 711.113 211.863 711.311 212.403C711.401 212.637 711.437 213.267 711.437 213.789C711.437 214.221 711.365 214.797 711.239 215.103ZM727.799 221.547H721.301V217.641H727.439V215.463H721.301V211.611H727.727V209.451H718.961V223.707H727.799V221.547ZM739.656 220.251L740.646 223.707H743.094L738.882 209.451H735.858L731.358 223.707H733.77L734.814 220.251H739.656ZM735.462 218.199C735.462 218.199 737.028 213.033 737.046 212.943C737.082 212.799 737.316 211.665 737.316 211.665C737.316 211.665 737.55 212.799 737.586 212.943C737.622 213.051 739.044 218.199 739.044 218.199H735.462ZM752.244 215.607L757.374 209.451H754.71L749.562 215.517V209.451H747.186V223.707H749.562V218.613L750.606 217.389L754.674 223.707H757.482L752.244 215.607Z" fill="white"/>
<g clip-path="url(#clip1_2915_32589)">
<path d="M854.744 33.707H856.49V20.801H855.14C854.906 22.673 853.394 23.285 851.774 23.321V24.473H854.744V33.707ZM861.828 33.707H863.574V20.801H862.224C861.99 22.673 860.478 23.285 858.858 23.321V24.473H861.828V33.707ZM875.187 37.091C876.483 37.091 877.563 36.803 878.319 36.173C879.057 35.543 879.489 34.589 879.489 33.311V24.041H877.833V25.319H877.797C877.185 24.347 876.249 23.807 874.863 23.807C872.595 23.807 870.723 25.571 870.723 28.541C870.723 31.349 872.487 33.275 874.953 33.275C876.321 33.275 877.167 32.681 877.833 31.727H877.869C877.851 32.033 877.833 32.555 877.833 33.113V33.383C877.833 35.021 876.879 35.795 875.151 35.795C873.711 35.795 872.739 35.381 872.595 34.373H871.029C871.209 36.083 872.649 37.091 875.187 37.091ZM875.115 31.907C873.369 31.907 872.433 30.611 872.433 28.559C872.433 26.525 873.333 25.193 875.097 25.193C877.023 25.193 877.941 26.435 877.941 28.469C877.941 30.431 877.221 31.907 875.115 31.907ZM884.686 33.905C886.324 33.905 887.314 33.131 887.926 32.285H887.944C888.124 33.311 888.628 33.797 889.654 33.797C890.05 33.797 890.32 33.725 890.554 33.653V32.483H890.482C889.636 32.663 889.456 32.249 889.456 31.475V26.957C889.456 25.661 888.97 24.815 888.16 24.329C887.548 23.969 886.738 23.807 885.82 23.807C883.21 23.807 881.968 25.265 881.896 26.903H883.516C883.57 25.751 884.308 25.031 885.838 25.031C887.17 25.031 887.908 25.679 887.908 26.723C887.908 27.713 886.99 27.947 885.568 28.109C883.066 28.415 881.41 28.901 881.41 31.151C881.41 33.005 882.85 33.905 884.686 33.905ZM885.1 32.681C884.128 32.681 883.174 32.375 883.174 31.133C883.174 29.801 884.218 29.513 885.802 29.243C886.594 29.099 887.44 28.865 887.926 28.559V30.143C887.926 31.259 887.026 32.681 885.1 32.681ZM891.914 33.707H893.588V27.749C893.588 26.273 894.83 25.211 895.982 25.211C896.972 25.211 897.638 25.913 897.638 27.101V33.707H899.294V27.749C899.294 26.273 900.356 25.211 901.58 25.211C902.552 25.211 903.326 25.913 903.326 27.101V33.707H905V26.957C905 24.941 903.776 23.807 902.012 23.807C900.842 23.807 899.708 24.401 899.024 25.607H898.988C898.592 24.419 897.656 23.807 896.486 23.807C895.244 23.807 894.218 24.437 893.624 25.481H893.57V24.041H891.914V33.707ZM911.436 33.977C913.668 33.977 915.216 32.753 915.648 30.953H914.01C913.704 31.979 912.786 32.609 911.454 32.609C909.582 32.609 908.556 31.169 908.43 29.279H915.846C915.846 27.641 915.45 26.255 914.658 25.301C913.902 24.365 912.786 23.807 911.346 23.807C908.574 23.807 906.72 26.075 906.72 28.883C906.72 31.709 908.466 33.977 911.436 33.977ZM911.346 25.103C913.02 25.103 913.974 26.219 914.064 28.073H908.466C908.682 26.363 909.6 25.103 911.346 25.103ZM924.5 33.707H926.192L927.65 28.379C927.884 27.461 928.244 25.679 928.244 25.679H928.28C928.28 25.679 928.658 27.443 928.892 28.379L930.314 33.707H931.988L935.138 24.041H933.41L931.808 29.405C931.448 30.593 931.178 32.249 931.178 32.249H931.142C931.142 32.249 930.8 30.467 930.53 29.441L929.09 24.041H927.506L926.048 29.441C925.724 30.611 925.4 32.231 925.4 32.231H925.364C925.364 32.231 925.04 30.503 924.734 29.405L923.222 24.041H921.44L924.5 33.707ZM936.438 22.259H938.184V20.315H936.438V22.259ZM936.474 33.707H938.148V24.041H936.474V33.707ZM942.103 24.041H940.447V33.707H942.121V27.821C942.121 26.273 943.201 25.211 944.695 25.211C946.009 25.211 946.819 25.913 946.819 27.155V33.707H948.475V26.957C948.475 24.941 947.233 23.807 945.217 23.807C943.813 23.807 942.859 24.437 942.157 25.409H942.103V24.041ZM959.219 33.995C961.487 33.995 963.107 32.987 963.107 31.025C963.107 28.775 961.451 28.343 959.525 27.965C957.887 27.641 956.951 27.443 956.951 26.435C956.951 25.697 957.509 25.085 958.823 25.085C960.209 25.085 960.893 25.643 961.037 26.633H962.711C962.495 24.959 961.289 23.825 958.859 23.825C956.609 23.825 955.313 24.869 955.313 26.525C955.313 28.649 957.023 29.045 958.913 29.441C960.623 29.783 961.433 30.053 961.433 31.115C961.433 31.979 960.785 32.645 959.255 32.645C957.869 32.645 956.789 32.177 956.591 30.773H954.899C955.043 32.735 956.555 33.995 959.219 33.995ZM964.146 25.337H965.658V31.817C965.658 33.239 966.558 33.761 967.854 33.779C968.286 33.779 968.754 33.725 969.204 33.617V32.213H969.15C968.97 32.267 968.592 32.339 968.304 32.339C967.692 32.339 967.314 32.141 967.314 31.439V25.337H969.312V24.041H967.314V20.999H965.658V24.041H964.146V25.337ZM972.706 24.041H971.05V33.707H972.724V28.451C972.724 26.633 974.002 25.517 975.496 25.517C975.784 25.517 975.946 25.535 976.18 25.607H976.234V24.023C976.054 23.951 975.892 23.915 975.622 23.915C974.344 23.915 973.354 24.671 972.76 25.787H972.706V24.041ZM981.713 33.977C983.945 33.977 985.493 32.753 985.925 30.953H984.287C983.981 31.979 983.063 32.609 981.731 32.609C979.859 32.609 978.833 31.169 978.707 29.279H986.123C986.123 27.641 985.727 26.255 984.935 25.301C984.179 24.365 983.063 23.807 981.623 23.807C978.851 23.807 976.997 26.075 976.997 28.883C976.997 31.709 978.743 33.977 981.713 33.977ZM981.623 25.103C983.297 25.103 984.251 26.219 984.341 28.073H978.743C978.959 26.363 979.877 25.103 981.623 25.103ZM990.788 33.905C992.426 33.905 993.416 33.131 994.028 32.285H994.046C994.226 33.311 994.73 33.797 995.756 33.797C996.152 33.797 996.422 33.725 996.656 33.653V32.483H996.584C995.738 32.663 995.558 32.249 995.558 31.475V26.957C995.558 25.661 995.072 24.815 994.262 24.329C993.65 23.969 992.84 23.807 991.922 23.807C989.312 23.807 988.07 25.265 987.998 26.903H989.618C989.672 25.751 990.41 25.031 991.94 25.031C993.272 25.031 994.01 25.679 994.01 26.723C994.01 27.713 993.092 27.947 991.67 28.109C989.168 28.415 987.512 28.901 987.512 31.151C987.512 33.005 988.952 33.905 990.788 33.905ZM991.202 32.681C990.23 32.681 989.276 32.375 989.276 31.133C989.276 29.801 990.32 29.513 991.904 29.243C992.696 29.099 993.542 28.865 994.028 28.559V30.143C994.028 31.259 993.128 32.681 991.202 32.681ZM1004.37 33.707H1006.33L1002.21 27.515L1005.9 24.041H1003.81L999.617 28.163C999.653 27.695 999.689 27.011 999.689 26.669V20.315H998.015V33.707H999.689V29.909L1001.06 28.613L1004.37 33.707ZM1012.55 36.983H1014.23V34.049C1014.23 33.311 1014.21 32.771 1014.19 32.429H1014.24C1014.91 33.455 1015.97 33.995 1017.29 33.995C1019.9 33.995 1021.5 31.997 1021.5 28.901C1021.5 25.715 1019.81 23.807 1017.34 23.807C1015.95 23.807 1014.98 24.455 1014.26 25.553H1014.21V24.041H1012.55V36.983ZM1017.11 32.609C1014.96 32.609 1014.14 30.971 1014.14 28.937C1014.14 26.885 1015.07 25.229 1017.12 25.229C1018.91 25.229 1019.79 26.813 1019.79 28.937C1019.79 31.043 1018.89 32.609 1017.11 32.609ZM1024.93 24.041H1023.28V33.707H1024.95V28.451C1024.95 26.633 1026.23 25.517 1027.72 25.517C1028.01 25.517 1028.17 25.535 1028.41 25.607H1028.46V24.023C1028.28 23.951 1028.12 23.915 1027.85 23.915C1026.57 23.915 1025.58 24.671 1024.99 25.787H1024.93V24.041ZM1030.06 22.259H1031.81V20.315H1030.06V22.259ZM1030.1 33.707H1031.77V24.041H1030.1V33.707ZM1033.71 33.707H1041.5V32.231H1037.6C1036.89 32.231 1035.67 32.285 1035.67 32.285V32.231C1035.67 32.231 1036.48 31.349 1036.89 30.827L1041.29 25.085V24.041H1034.03V25.463H1037.36C1038.03 25.463 1039.18 25.409 1039.18 25.409V25.463C1039.18 25.463 1038.42 26.273 1038.03 26.777L1033.71 32.411V33.707ZM1047.12 33.977C1049.35 33.977 1050.9 32.753 1051.33 30.953H1049.7C1049.39 31.979 1048.47 32.609 1047.14 32.609C1045.27 32.609 1044.24 31.169 1044.12 29.279H1051.53C1051.53 27.641 1051.14 26.255 1050.34 25.301C1049.59 24.365 1048.47 23.807 1047.03 23.807C1044.26 23.807 1042.41 26.075 1042.41 28.883C1042.41 31.709 1044.15 33.977 1047.12 33.977ZM1047.03 25.103C1048.71 25.103 1049.66 26.219 1049.75 28.073H1044.15C1044.37 26.363 1045.29 25.103 1047.03 25.103Z" fill="white"/>
<g clip-path="url(#clip2_2915_32589)">
<path fill-rule="evenodd" clip-rule="evenodd" d="M1178.11 31.0388C1178.2 30.8927 1178.25 30.7086 1178.25 30.4863V21.7026C1178.25 21.4803 1178.2 21.2993 1178.11 21.1596C1178.02 21.0135 1177.88 20.896 1177.69 20.8071C1177.16 20.5403 1176.73 20.2323 1176.39 19.883C1176.05 19.5273 1175.71 19.0287 1175.39 18.3873C1175.19 18.0252 1174.89 17.8442 1174.5 17.8442H1158.43C1158.04 17.8442 1157.75 18.0252 1157.55 18.3873C1157.22 19.0287 1156.89 19.5273 1156.55 19.883C1156.21 20.2323 1155.77 20.5403 1155.24 20.8071C1155.05 20.896 1154.91 21.0135 1154.82 21.1596C1154.73 21.2993 1154.69 21.4803 1154.69 21.7026V30.4863C1154.69 30.7086 1154.73 30.8927 1154.82 31.0388C1154.91 31.1785 1155.05 31.2929 1155.24 31.3818C1155.77 31.6422 1156.21 31.9502 1156.55 32.3059C1156.89 32.6552 1157.22 33.1538 1157.55 33.8016C1157.75 34.1573 1158.04 34.3351 1158.43 34.3351H1174.5C1174.89 34.3351 1175.19 34.1573 1175.39 33.8016C1175.71 33.1538 1176.05 32.6552 1176.39 32.3059C1176.73 31.9502 1177.16 31.6422 1177.69 31.3818C1177.88 31.2929 1178.02 31.1785 1178.11 31.0388ZM1170.51 26.4202V27.2344C1170.51 27.3749 1170.39 27.4887 1170.25 27.4887C1170.11 27.4887 1170 27.375 1170 27.2344V26.4202H1168.65V27.2344C1168.65 27.3749 1168.54 27.4887 1168.4 27.4887C1168.26 27.4887 1168.15 27.375 1168.15 27.2344V26.4202H1166.8V27.2344C1166.8 27.3749 1166.69 27.4887 1166.55 27.4887C1166.41 27.4887 1166.29 27.375 1166.29 27.2344V26.4202H1164.95V27.2344C1164.95 27.3749 1164.84 27.4887 1164.7 27.4887C1164.56 27.4887 1164.44 27.375 1164.44 27.2344V26.4202H1163.1V27.2344C1163.1 27.3749 1162.99 27.4887 1162.84 27.4887C1162.7 27.4887 1162.59 27.375 1162.59 27.2344V26.4202H1161.58L1161.58 30.068C1163.06 30.8678 1164.75 31.3265 1166.55 31.3265C1168.35 31.3265 1170.04 30.8675 1171.52 30.068V26.4202H1170.51ZM1175.62 26.0895C1175.62 25.0979 1173.79 23.6146 1172.53 22.7368V29.4429C1173.79 28.5649 1175.62 27.1819 1175.62 26.0895ZM1162.59 25.0977V25.9117L1161.58 25.9115V22.1112C1163.06 21.3117 1164.75 20.8528 1166.55 20.8528C1168.35 20.8528 1170.04 21.3115 1171.52 22.1111V25.9117H1170.51V25.0977C1170.51 24.9572 1170.39 24.8434 1170.25 24.8434C1170.11 24.8434 1170 24.9572 1170 25.0977V25.9117H1168.65V25.0977C1168.65 24.9572 1168.54 24.8434 1168.4 24.8434C1168.26 24.8434 1168.15 24.9572 1168.15 25.0977V25.9117H1166.8V25.0977C1166.8 24.9572 1166.69 24.8434 1166.55 24.8434C1166.41 24.8434 1166.29 24.9572 1166.29 25.0977V25.9117H1164.95V25.0977C1164.95 24.9572 1164.84 24.8434 1164.7 24.8434C1164.56 24.8434 1164.44 24.9572 1164.44 25.0977V25.9117H1163.1V25.0977C1163.1 24.9572 1162.98 24.8434 1162.84 24.8434C1162.7 24.8434 1162.59 24.9572 1162.59 25.0977ZM1157.32 26.0895C1157.31 25.0979 1159.14 23.6146 1160.4 22.7368V29.4429C1159.14 28.5649 1157.32 27.1819 1157.32 26.0895Z" fill="white"/>
</g>
<path d="M1224 50.4722H809V52.4722H1224V50.4722Z" fill="white" mask="url(#path-17-inside-4_2915_32589)"/>
<path d="M871.688 101.785H865.16V120.505L859.16 101.785H852.488V140.089H859.016V120.985L865.064 140.089H871.688V101.785ZM892.084 101.785H875.14V140.089H882.148V124.105H891.316V117.673H882.148V108.361H892.084V101.785ZM911.506 133.609H901.378V101.785H894.37V140.089H911.506V133.609ZM933.629 130.825L934.877 140.089H941.981L936.269 101.785H926.429L920.045 140.089H927.053L928.397 130.825H933.629ZM929.069 125.161C929.069 125.161 930.797 114.025 930.797 113.833C931.133 111.769 931.229 108.025 931.229 108.025C931.229 108.025 931.325 111.817 931.565 113.833C931.565 114.025 933.005 125.161 933.005 125.161H929.069ZM950.14 138.121V103.369C950.14 102.505 950.044 101.833 949.996 101.737H943.516C943.66 102.073 943.66 103.225 943.66 104.041V138.265C943.66 139.225 943.756 139.945 943.948 140.089C943.948 140.137 950.38 140.089 950.38 140.089C950.188 139.945 950.14 139.321 950.14 138.121ZM959.292 138.121V103.369C959.292 102.505 959.196 101.833 959.148 101.737H952.668C952.812 102.073 952.812 103.225 952.812 104.041V138.265C952.812 139.225 952.908 139.945 953.1 140.089C953.1 140.137 959.532 140.089 959.532 140.089C959.34 139.945 959.292 139.321 959.292 138.121ZM989.676 120.121C989.676 114.121 989.436 107.449 987.948 105.289C986.268 102.793 984.108 101.785 980.028 101.785H970.14V140.089H980.892C984.828 140.089 986.7 138.601 987.948 136.441C989.436 133.897 989.676 128.041 989.676 120.121ZM980.124 134.569H977.052V107.737H979.836C981.228 107.737 982.092 108.409 982.476 109.993C982.812 111.289 982.956 118.201 982.956 120.121C982.956 122.089 982.86 131.065 982.524 132.601C982.188 133.993 981.372 134.569 980.124 134.569ZM1008.64 135.385C1008.64 133.417 1008.69 130.201 1008.69 128.137C1008.74 125.689 1008.79 121.705 1008.69 119.401C1008.55 115.705 1006.24 113.353 1000.72 113.353C994.865 113.353 992.465 115.993 992.465 120.937V122.905H998.417V121.417C998.417 119.593 998.993 118.681 1000.63 118.681C1001.83 118.681 1002.45 119.353 1002.5 120.505C1002.55 121.321 1002.55 122.953 1002.55 123.673C1001.49 123.673 1000.39 123.817 999.185 124.009C994.769 124.825 991.793 127.225 991.553 131.065C991.457 132.457 991.505 134.713 991.553 135.289C991.745 139.129 994.673 140.281 997.313 140.281C999.665 140.281 1001.44 139.657 1002.64 138.169C1002.64 138.841 1002.79 140.089 1002.88 140.089H1008.98C1008.74 139.753 1008.64 137.305 1008.64 135.385ZM1002.55 130.009C1002.45 131.353 1002.55 132.025 1002.31 133.417C1002.07 134.761 1000.91 135.289 999.905 135.289C998.945 135.289 998.177 134.953 998.033 134.041C997.937 133.273 997.937 132.361 997.937 131.641C997.937 130.537 997.985 129.769 998.801 129.049C999.521 128.425 1000.34 128.281 1001.01 128.137C1001.59 128.041 1002.07 128.041 1002.55 128.041C1002.55 128.425 1002.59 129.481 1002.55 130.009ZM1022.65 113.689C1022.6 114.505 1019.53 130.105 1019.44 130.681C1019.39 130.153 1016.32 114.361 1016.22 113.689H1009.69L1015.98 139.369L1013.82 147.913H1020.4L1029.04 113.689H1022.65ZM1056.91 105.241C1055.8 102.985 1053.31 101.785 1050.38 101.785H1038.86V140.089H1045.82V124.153H1048.31L1052.15 140.089H1059.4L1054.75 122.233C1055.71 121.897 1056.76 120.841 1057.34 119.353C1057.91 117.961 1058.25 115.897 1058.25 112.873C1058.25 109.465 1057.72 106.825 1056.91 105.241ZM1050.81 117.001C1050.62 117.673 1050.09 118.105 1049.18 118.201C1048.94 118.249 1045.82 118.249 1045.82 118.249V108.169H1048.99C1050.14 108.169 1050.76 108.937 1051 109.993C1051.1 110.473 1051.19 112.249 1051.19 113.545C1051.19 114.697 1051.1 116.329 1050.81 117.001ZM1071.55 131.497C1071.55 132.169 1071.45 132.985 1071.26 133.801C1071.02 134.857 1070.01 135.289 1069.05 135.289C1068.09 135.289 1066.99 134.713 1066.85 133.417C1066.7 132.217 1066.65 130.297 1066.65 129.097H1077.55C1077.79 124.585 1077.45 119.977 1076.54 117.721C1075.44 115.033 1072.89 113.353 1069.2 113.353C1064.64 113.353 1062.62 115.417 1061.66 117.769C1060.94 119.497 1060.41 123.049 1060.41 127.033C1060.41 131.113 1060.75 134.137 1061.85 136.681C1063.01 139.369 1065.74 140.425 1069.29 140.425C1072.85 140.425 1075.01 138.985 1076.16 136.921C1077.17 135.145 1077.41 132.265 1077.41 131.497H1071.55ZM1066.56 124.393C1066.56 122.569 1066.61 120.841 1066.94 120.025C1067.28 119.113 1068.05 118.633 1069.1 118.633C1070.21 118.633 1070.93 119.161 1071.17 120.073C1071.36 120.697 1071.5 121.993 1071.5 124.393H1066.56ZM1101.16 113.689L1099.05 133.081L1096.27 113.689H1089.69L1087.24 133.081L1084.8 113.689H1078.27L1083.02 140.089H1090.7C1090.7 140.089 1092.38 130.729 1092.91 127.609C1092.96 127.321 1093 124.873 1093 124.873C1093 124.873 1093.15 127.321 1093.2 127.609C1093.72 130.633 1095.36 140.089 1095.36 140.089H1102.94L1107.55 113.689H1101.16ZM1125.01 135.385C1125.01 133.417 1125.05 130.201 1125.05 128.137C1125.1 125.689 1125.15 121.705 1125.05 119.401C1124.91 115.705 1122.61 113.353 1117.09 113.353C1111.23 113.353 1108.83 115.993 1108.83 120.937V122.905H1114.78V121.417C1114.78 119.593 1115.36 118.681 1116.99 118.681C1118.19 118.681 1118.81 119.353 1118.86 120.505C1118.91 121.321 1118.91 122.953 1118.91 123.673C1117.85 123.673 1116.75 123.817 1115.55 124.009C1111.13 124.825 1108.16 127.225 1107.92 131.065C1107.82 132.457 1107.87 134.713 1107.92 135.289C1108.11 139.129 1111.04 140.281 1113.68 140.281C1116.03 140.281 1117.81 139.657 1119.01 138.169C1119.01 138.841 1119.15 140.089 1119.25 140.089H1125.34C1125.1 139.753 1125.01 137.305 1125.01 135.385ZM1118.91 130.009C1118.81 131.353 1118.91 132.025 1118.67 133.417C1118.43 134.761 1117.28 135.289 1116.27 135.289C1115.31 135.289 1114.54 134.953 1114.4 134.041C1114.3 133.273 1114.3 132.361 1114.3 131.641C1114.3 130.537 1114.35 129.769 1115.17 129.049C1115.89 128.425 1116.7 128.281 1117.37 128.137C1117.95 128.041 1118.43 128.041 1118.91 128.041C1118.91 128.425 1118.96 129.481 1118.91 130.009ZM1138.95 113.353C1136.74 113.353 1134.54 114.793 1134.25 116.809V113.689H1127.91V140.089H1134.34V124.441C1134.34 120.121 1135.69 119.161 1137.9 119.161C1139.19 119.161 1140.49 119.401 1141.26 119.641V113.593C1140.73 113.401 1139.96 113.353 1138.95 113.353ZM1143.22 117.577C1142.45 120.457 1142.21 123.097 1142.21 126.985C1142.21 131.209 1142.69 134.713 1143.55 136.825C1144.51 139.225 1146.29 140.281 1148.93 140.281C1151.28 140.281 1152.87 139.513 1153.73 138.169L1154.5 140.089H1159.87C1159.87 140.089 1159.68 137.881 1159.68 136.393V101.737H1153.39V115.609C1152.67 114.217 1150.95 113.449 1148.93 113.449C1146.1 113.449 1143.89 114.985 1143.22 117.577ZM1152.96 120.361C1153.25 121.801 1153.44 123.241 1153.44 127.033C1153.44 129.337 1153.35 131.737 1153.01 133.417C1152.82 134.425 1152.19 135.193 1150.95 135.193C1149.65 135.193 1148.98 134.569 1148.83 133.561C1148.59 131.593 1148.5 129.241 1148.5 127.033C1148.5 124.777 1148.59 122.521 1148.93 120.601C1149.12 119.641 1149.79 118.921 1150.99 118.921C1152.19 118.921 1152.77 119.449 1152.96 120.361ZM1185.78 118.441H1180.55V112.537H1174.88V118.441H1169.56V124.057H1174.88V130.009H1180.5V124.057H1185.78V118.441ZM870.2 189.897H859.256C861.176 186.249 869.672 177.849 870.2 169.545C870.248 168.729 870.296 165.417 870.248 164.793C869.912 160.617 867.656 157.401 861.272 157.401C855.032 157.401 852.008 161.193 851.864 164.985C851.816 165.753 851.816 169.689 851.816 170.457H858.536V165.945C858.584 164.169 859.544 163.497 860.792 163.497C862.184 163.497 863.048 163.977 863.048 166.233V168.969C862.808 177.273 854.408 184.329 851.768 190.137V196.089H870.2V189.897ZM899.929 157.785H893.401V176.505L887.401 157.785H880.729V196.089H887.257V176.985L893.305 196.089H899.929V157.785ZM920.325 157.785H903.381V196.089H910.389V180.105H919.557V173.673H910.389V164.361H920.325V157.785ZM939.747 189.609H929.619V157.785H922.611V196.089H939.747V189.609ZM969.454 187.161V174.441H958.942V180.489H962.83C962.83 180.489 962.878 186.729 962.83 187.545C962.734 189.513 961.582 190.521 959.806 190.521C958.222 190.521 957.406 189.705 957.07 187.977C956.494 184.953 956.494 179.961 956.494 177.033C956.494 173.913 956.542 169.305 957.022 165.993C957.262 164.361 958.318 163.641 959.662 163.641C961.15 163.641 962.062 164.457 962.206 165.993C962.398 167.961 962.398 170.601 962.398 170.889H969.262C969.262 167.481 969.118 165.561 968.83 163.833C968.254 160.377 965.71 157.449 959.518 157.449C953.47 157.449 950.926 160.857 950.11 163.929C949.246 167.241 949.15 173.049 949.15 177.033C949.15 181.161 949.294 186.537 950.11 189.993C951.118 194.217 954.142 196.425 958.174 196.425C961.102 196.425 963.07 195.609 964.03 194.361L964.366 196.089H969.55C969.55 196.041 969.454 191.577 969.454 187.161ZM988.51 191.385C988.51 189.417 988.558 186.201 988.558 184.137C988.606 181.689 988.654 177.705 988.558 175.401C988.414 171.705 986.11 169.353 980.59 169.353C974.734 169.353 972.334 171.993 972.334 176.937V178.905H978.286V177.417C978.286 175.593 978.862 174.681 980.494 174.681C981.694 174.681 982.318 175.353 982.366 176.505C982.414 177.321 982.414 178.953 982.414 179.673C981.358 179.673 980.254 179.817 979.054 180.009C974.638 180.825 971.662 183.225 971.422 187.065C971.326 188.457 971.374 190.713 971.422 191.289C971.614 195.129 974.542 196.281 977.182 196.281C979.534 196.281 981.31 195.657 982.51 194.169C982.51 194.841 982.654 196.089 982.75 196.089H988.846C988.606 195.753 988.51 193.305 988.51 191.385ZM982.414 186.009C982.318 187.353 982.414 188.025 982.174 189.417C981.934 190.761 980.782 191.289 979.774 191.289C978.814 191.289 978.046 190.953 977.902 190.041C977.806 189.273 977.806 188.361 977.806 187.641C977.806 186.537 977.854 185.769 978.67 185.049C979.39 184.425 980.206 184.281 980.878 184.137C981.454 184.041 981.934 184.041 982.414 184.041C982.414 184.425 982.462 185.481 982.414 186.009ZM1017.48 196.089C1017.53 196.089 1017.43 195.321 1017.43 174.873C1017.43 171.561 1015.99 169.305 1012.34 169.305C1009.9 169.305 1008.02 170.361 1007.21 172.377C1006.54 170.505 1005.14 169.305 1002.74 169.305C999.96 169.305 998.232 170.553 997.608 172.185V169.689H991.416V196.089H997.752V177.369C997.752 176.073 998.52 174.873 999.816 174.873C1000.92 174.873 1001.45 175.593 1001.45 176.745V196.089H1007.64V177.177C1007.64 175.977 1008.36 174.873 1009.61 174.873C1010.95 174.873 1011.29 175.785 1011.29 176.841C1011.29 195.321 1011.29 196.089 1011.34 196.089H1017.48ZM1031.01 187.497C1031.01 188.169 1030.91 188.985 1030.72 189.801C1030.48 190.857 1029.47 191.289 1028.51 191.289C1027.55 191.289 1026.45 190.713 1026.3 189.417C1026.16 188.217 1026.11 186.297 1026.11 185.097H1037.01C1037.25 180.585 1036.91 175.977 1036 173.721C1034.89 171.033 1032.35 169.353 1028.65 169.353C1024.09 169.353 1022.08 171.417 1021.12 173.769C1020.4 175.497 1019.87 179.049 1019.87 183.033C1019.87 187.113 1020.21 190.137 1021.31 192.681C1022.46 195.369 1025.2 196.425 1028.75 196.425C1032.3 196.425 1034.46 194.985 1035.61 192.921C1036.62 191.145 1036.86 188.265 1036.86 187.497H1031.01ZM1026.01 180.393C1026.01 178.569 1026.06 176.841 1026.4 176.025C1026.73 175.113 1027.5 174.633 1028.56 174.633C1029.66 174.633 1030.38 175.161 1030.62 176.073C1030.81 176.697 1030.96 177.993 1030.96 180.393H1026.01ZM1064.85 157.785H1046.03V164.361H1051.84V196.089H1058.95V164.361H1064.85V157.785ZM1072.48 161.817H1065.71V168.297H1072.48V161.817ZM1072.38 194.169V169.689H1065.81V194.265C1065.81 195.321 1065.81 196.089 1066.05 196.089H1072.53C1072.48 196.041 1072.38 195.177 1072.38 194.169ZM1091.41 174.153C1090.55 171.417 1088.53 169.353 1083.59 169.353C1079.84 169.353 1077.15 171.033 1076.19 173.865C1075.23 176.745 1074.95 179.049 1074.95 182.889C1074.95 186.873 1075.52 190.857 1076.29 192.585C1077.35 194.985 1079.89 196.425 1083.68 196.425C1087.57 196.425 1090.07 194.697 1090.93 192.489C1091.84 190.185 1091.89 189.081 1091.89 185.481H1085.94C1085.94 187.161 1085.94 187.689 1085.75 189.081C1085.6 190.185 1084.93 191.049 1083.68 191.049C1082.43 191.049 1081.81 190.473 1081.62 189.129C1081.33 187.161 1081.23 184.473 1081.23 182.937C1081.23 181.017 1081.33 178.617 1081.62 176.745C1081.81 175.449 1082.48 174.777 1083.63 174.777C1084.98 174.777 1085.46 175.641 1085.6 176.697C1085.75 177.705 1085.89 178.905 1085.89 180.441H1091.89C1091.89 177.225 1091.75 175.305 1091.41 174.153ZM1106.95 179.289L1111.95 169.689H1105.71L1100.57 179.817V157.737H1094.23V196.089H1100.57V188.169L1102.44 185.145L1105.75 196.089H1112.19L1106.95 179.289ZM1123.7 187.497C1123.7 188.169 1123.6 188.985 1123.41 189.801C1123.17 190.857 1122.16 191.289 1121.2 191.289C1120.24 191.289 1119.14 190.713 1118.99 189.417C1118.85 188.217 1118.8 186.297 1118.8 185.097H1129.7C1129.94 180.585 1129.6 175.977 1128.69 173.721C1127.59 171.033 1125.04 169.353 1121.35 169.353C1116.79 169.353 1114.77 171.417 1113.81 173.769C1113.09 175.497 1112.56 179.049 1112.56 183.033C1112.56 187.113 1112.9 190.137 1114 192.681C1115.15 195.369 1117.89 196.425 1121.44 196.425C1124.99 196.425 1127.15 194.985 1128.31 192.921C1129.31 191.145 1129.55 188.265 1129.55 187.497H1123.7ZM1118.71 180.393C1118.71 178.569 1118.75 176.841 1119.09 176.025C1119.43 175.113 1120.19 174.633 1121.25 174.633C1122.35 174.633 1123.07 175.161 1123.31 176.073C1123.51 176.697 1123.65 177.993 1123.65 180.393H1118.71ZM1143.41 169.689H1139.72V164.601L1133.48 164.745C1133.48 164.745 1133.29 169.545 1133.24 169.689H1130.89V175.305H1133.14V190.329C1133.14 194.457 1135.45 196.281 1139.38 196.281C1141.06 196.281 1142.12 196.185 1143.13 195.945V190.809C1142.65 190.905 1142.02 190.953 1141.49 190.953C1140.49 190.953 1139.67 190.665 1139.67 189.177V175.305H1143.41V169.689ZM1156.73 181.161C1155.53 180.537 1154.33 180.009 1153.13 179.433C1151.59 178.713 1151.07 177.897 1151.07 176.601C1151.07 175.497 1151.55 174.585 1153.03 174.585C1154.38 174.585 1154.81 175.353 1154.91 176.169C1154.95 176.361 1155 177.849 1155 178.137H1160.81C1160.81 177.609 1160.67 174.825 1160.52 174.057C1159.9 171.129 1157.45 169.305 1152.79 169.305C1147.71 169.305 1145.11 172.281 1145.11 176.457C1145.11 180.393 1146.27 182.841 1149.72 184.473C1150.68 184.905 1151.98 185.529 1152.79 185.865C1154.62 186.585 1155.24 187.497 1155.24 189.129C1155.24 190.617 1154.33 191.337 1153.13 191.337C1151.98 191.337 1151.07 190.857 1150.97 189.753C1150.92 188.937 1150.87 188.121 1150.87 187.785H1144.92C1144.92 188.601 1144.97 190.281 1145.07 191.145C1145.5 194.697 1147.9 196.473 1153.27 196.473C1158.03 196.473 1161.34 193.929 1161.34 188.937C1161.34 184.905 1160.09 182.841 1156.73 181.161Z" fill="white"/>
</g>
<path d="M809 0.707031H1224H809ZM1224 250.707H809H1224ZM808 250.707V0.707031H810V250.707H808ZM1224 0.707031V250.707V0.707031Z" fill="white" mask="url(#path-15-inside-3_2915_32589)"/>
<rect x="624.5" y="1.20703" width="599" height="249" rx="11.5" stroke="white"/>
<defs>
<clipPath id="clip0_2915_32589">
<path d="M185 0.707031H600V250.707H185V0.707031Z" fill="white"/>
</clipPath>
<clipPath id="clip1_2915_32589">
<path d="M809 0.707031H1224V250.707H809V0.707031Z" fill="white"/>
</clipPath>
<clipPath id="clip2_2915_32589">
<rect x="1154.47" y="14.0898" width="24" height="24" rx="4" fill="white"/>
</clipPath>
</defs>
</svg>
