<svg width="100%" height="auto" viewBox="0 0 1224 251" fill="none" xmlns="http://www.w3.org/2000/svg">
<path d="M75.1 29.867H57.82C56.06 33.707 51.58 41.067 35.1 42.187V60.587L52.7 59.787V157.707H75.1V29.867ZM150.429 111.947H140.029V29.867H115.549L82.5888 110.667V131.627H118.429V157.707H140.029V131.627H150.429V111.947ZM101.949 111.947L118.429 71.627V111.947H101.949Z" fill="white"/>
<path d="M73.2044 192.035V187.715H67.5344V189.749H71.0084C71.0084 189.749 71.0264 191.801 70.9904 191.981C70.7564 193.043 69.8024 193.853 68.2724 193.853C67.0124 193.853 66.2384 193.529 65.7524 192.827C65.1764 191.981 65.0144 190.739 65.0144 188.633C65.0144 186.563 65.2664 185.213 65.7704 184.439C66.2564 183.719 67.0304 183.413 68.1104 183.413C69.1184 183.413 69.8204 183.719 70.2344 184.331C70.6124 184.907 70.8284 185.753 70.8284 186.239H73.1324C73.1324 185.609 72.9524 184.367 72.5204 183.503C71.8724 182.225 70.5224 181.271 68.0564 181.271C65.6804 181.271 64.3484 182.261 63.5924 183.431C62.8004 184.673 62.5664 186.383 62.5664 188.597C62.5664 191.171 62.9624 192.827 63.6464 193.907C64.4744 195.203 65.8784 195.887 67.7684 195.887C69.7124 195.887 70.7564 195.203 71.2424 194.483L71.3504 195.707H73.2224C73.2224 195.653 73.2044 193.745 73.2044 192.035ZM85.209 192.251L86.199 195.707H88.647L84.435 181.451H81.411L76.911 195.707H79.323L80.367 192.251H85.209ZM81.015 190.199C81.015 190.199 82.581 185.033 82.599 184.943C82.635 184.799 82.869 183.665 82.869 183.665C82.869 183.665 83.103 184.799 83.139 184.943C83.175 185.051 84.597 190.199 84.597 190.199H81.015ZM105.429 181.451H102.351L99.1468 192.053L95.9968 181.451H92.7388V195.707H94.9528V185.933L97.8868 195.707H100.209L103.197 185.897V195.707H105.429V181.451ZM119.504 193.547H113.006V189.641H119.144V187.463H113.006V183.611H119.432V181.451H110.666V195.707H119.504V193.547ZM58.9932 215.769C58.5972 215.625 57.7512 215.301 57.2472 215.139C55.5012 214.563 54.6372 214.005 54.6372 212.889C54.6372 211.935 55.2852 211.359 57.1032 211.359C58.6512 211.359 59.3712 211.791 59.6772 212.673C59.7852 212.997 59.8392 213.267 59.8392 213.573H62.2512C62.2512 213.033 62.1612 212.601 62.0352 212.169C61.5312 210.405 60.0912 209.289 57.1572 209.289C53.7912 209.289 52.2072 210.765 52.2072 212.961C52.2072 215.067 53.5932 216.327 55.7352 217.029C56.3292 217.227 57.1752 217.551 57.5352 217.677C59.4432 218.343 60.0192 218.919 60.0192 220.125C60.0192 221.205 59.2452 221.853 57.4272 221.853C55.8792 221.853 54.9792 221.457 54.7092 220.611C54.6012 220.269 54.5472 219.783 54.5472 219.531H52.1532C52.1532 219.945 52.1892 220.611 52.3152 221.097C52.7472 222.771 54.1872 223.887 57.4812 223.887C60.8112 223.887 62.4492 222.303 62.4492 219.927C62.4492 217.713 61.2252 216.543 58.9932 215.769ZM75.9467 209.451H65.8487V211.593H69.6827V223.707H72.0947V211.593H75.9467V209.451ZM89.3267 211.035C88.8227 210.027 87.8687 209.451 86.3027 209.451H80.0927V223.707H82.4327V217.767H85.5287L88.0127 223.707H90.6227L87.8147 217.245C88.4447 217.119 89.0207 216.669 89.3807 215.985C89.6507 215.445 89.7947 214.653 89.7947 213.573C89.7947 212.421 89.6867 211.719 89.3267 211.035ZM87.2387 215.103C87.0587 215.499 86.6087 215.715 85.9787 215.733H82.4507V211.575H85.7987C86.6087 211.575 87.1127 211.863 87.3107 212.403C87.4007 212.637 87.4367 213.267 87.4367 213.789C87.4367 214.221 87.3647 214.797 87.2387 215.103ZM103.799 221.547H97.301V217.641H103.439V215.463H97.301V211.611H103.727V209.451H94.961V223.707H103.799V221.547ZM115.656 220.251L116.646 223.707H119.094L114.882 209.451H111.858L107.358 223.707H109.77L110.814 220.251H115.656ZM111.462 218.199C111.462 218.199 113.028 213.033 113.046 212.943C113.082 212.799 113.316 211.665 113.316 211.665C113.316 211.665 113.55 212.799 113.586 212.943C113.622 213.051 115.044 218.199 115.044 218.199H111.462ZM128.244 215.607L133.374 209.451H130.71L125.562 215.517V209.451H123.186V223.707H125.562V218.613L126.606 217.389L130.674 223.707H133.482L128.244 215.607Z" fill="white"/>
<g clip-path="url(#clip0_2915_32586)">
<path d="M230.744 33.707H232.49V20.801H231.14C230.906 22.673 229.394 23.285 227.774 23.321V24.473H230.744V33.707ZM241.05 33.707H242.742V30.593H244.83V29.243H242.742V20.747H241.32L234.84 29.045V30.593H241.05V33.707ZM236.244 29.315V29.279C236.244 29.279 237.108 28.325 237.612 27.695L239.988 24.671C240.51 24.005 241.104 22.997 241.104 22.997H241.14C241.14 22.997 241.05 24.203 241.05 24.887V29.243H238.152C237.414 29.243 236.244 29.315 236.244 29.315ZM255.318 37.091C256.614 37.091 257.694 36.803 258.45 36.173C259.188 35.543 259.62 34.589 259.62 33.311V24.041H257.964V25.319H257.928C257.316 24.347 256.38 23.807 254.994 23.807C252.726 23.807 250.854 25.571 250.854 28.541C250.854 31.349 252.618 33.275 255.084 33.275C256.452 33.275 257.298 32.681 257.964 31.727H258C257.982 32.033 257.964 32.555 257.964 33.113V33.383C257.964 35.021 257.01 35.795 255.282 35.795C253.842 35.795 252.87 35.381 252.726 34.373H251.16C251.34 36.083 252.78 37.091 255.318 37.091ZM255.246 31.907C253.5 31.907 252.564 30.611 252.564 28.559C252.564 26.525 253.464 25.193 255.228 25.193C257.154 25.193 258.072 26.435 258.072 28.469C258.072 30.431 257.352 31.907 255.246 31.907ZM264.817 33.905C266.455 33.905 267.445 33.131 268.057 32.285H268.075C268.255 33.311 268.759 33.797 269.785 33.797C270.181 33.797 270.451 33.725 270.685 33.653V32.483H270.613C269.767 32.663 269.587 32.249 269.587 31.475V26.957C269.587 25.661 269.101 24.815 268.291 24.329C267.679 23.969 266.869 23.807 265.951 23.807C263.341 23.807 262.099 25.265 262.027 26.903H263.647C263.701 25.751 264.439 25.031 265.969 25.031C267.301 25.031 268.039 25.679 268.039 26.723C268.039 27.713 267.121 27.947 265.699 28.109C263.197 28.415 261.541 28.901 261.541 31.151C261.541 33.005 262.981 33.905 264.817 33.905ZM265.231 32.681C264.259 32.681 263.305 32.375 263.305 31.133C263.305 29.801 264.349 29.513 265.933 29.243C266.725 29.099 267.571 28.865 268.057 28.559V30.143C268.057 31.259 267.157 32.681 265.231 32.681ZM272.045 33.707H273.719V27.749C273.719 26.273 274.961 25.211 276.113 25.211C277.103 25.211 277.769 25.913 277.769 27.101V33.707H279.425V27.749C279.425 26.273 280.487 25.211 281.711 25.211C282.683 25.211 283.457 25.913 283.457 27.101V33.707H285.131V26.957C285.131 24.941 283.907 23.807 282.143 23.807C280.973 23.807 279.839 24.401 279.155 25.607H279.119C278.723 24.419 277.787 23.807 276.617 23.807C275.375 23.807 274.349 24.437 273.755 25.481H273.701V24.041H272.045V33.707ZM291.567 33.977C293.799 33.977 295.347 32.753 295.779 30.953H294.141C293.835 31.979 292.917 32.609 291.585 32.609C289.713 32.609 288.687 31.169 288.561 29.279H295.977C295.977 27.641 295.581 26.255 294.789 25.301C294.033 24.365 292.917 23.807 291.477 23.807C288.705 23.807 286.851 26.075 286.851 28.883C286.851 31.709 288.597 33.977 291.567 33.977ZM291.477 25.103C293.151 25.103 294.105 26.219 294.195 28.073H288.597C288.813 26.363 289.731 25.103 291.477 25.103ZM304.631 33.707H306.323L307.781 28.379C308.015 27.461 308.375 25.679 308.375 25.679H308.411C308.411 25.679 308.789 27.443 309.023 28.379L310.445 33.707H312.119L315.269 24.041H313.541L311.939 29.405C311.579 30.593 311.309 32.249 311.309 32.249H311.273C311.273 32.249 310.931 30.467 310.661 29.441L309.221 24.041H307.637L306.179 29.441C305.855 30.611 305.531 32.231 305.531 32.231H305.495C305.495 32.231 305.171 30.503 304.865 29.405L303.353 24.041H301.571L304.631 33.707ZM316.569 22.259H318.315V20.315H316.569V22.259ZM316.605 33.707H318.279V24.041H316.605V33.707ZM322.234 24.041H320.578V33.707H322.252V27.821C322.252 26.273 323.332 25.211 324.826 25.211C326.14 25.211 326.95 25.913 326.95 27.155V33.707H328.606V26.957C328.606 24.941 327.364 23.807 325.348 23.807C323.944 23.807 322.99 24.437 322.288 25.409H322.234V24.041ZM339.35 33.995C341.618 33.995 343.238 32.987 343.238 31.025C343.238 28.775 341.582 28.343 339.656 27.965C338.018 27.641 337.082 27.443 337.082 26.435C337.082 25.697 337.64 25.085 338.954 25.085C340.34 25.085 341.024 25.643 341.168 26.633H342.842C342.626 24.959 341.42 23.825 338.99 23.825C336.74 23.825 335.444 24.869 335.444 26.525C335.444 28.649 337.154 29.045 339.044 29.441C340.754 29.783 341.564 30.053 341.564 31.115C341.564 31.979 340.916 32.645 339.386 32.645C338 32.645 336.92 32.177 336.722 30.773H335.03C335.174 32.735 336.686 33.995 339.35 33.995ZM344.277 25.337H345.789V31.817C345.789 33.239 346.689 33.761 347.985 33.779C348.417 33.779 348.885 33.725 349.335 33.617V32.213H349.281C349.101 32.267 348.723 32.339 348.435 32.339C347.823 32.339 347.445 32.141 347.445 31.439V25.337H349.443V24.041H347.445V20.999H345.789V24.041H344.277V25.337ZM352.837 24.041H351.181V33.707H352.855V28.451C352.855 26.633 354.133 25.517 355.627 25.517C355.915 25.517 356.077 25.535 356.311 25.607H356.365V24.023C356.185 23.951 356.023 23.915 355.753 23.915C354.475 23.915 353.485 24.671 352.891 25.787H352.837V24.041ZM361.844 33.977C364.076 33.977 365.624 32.753 366.056 30.953H364.418C364.112 31.979 363.194 32.609 361.862 32.609C359.99 32.609 358.964 31.169 358.838 29.279H366.254C366.254 27.641 365.858 26.255 365.066 25.301C364.31 24.365 363.194 23.807 361.754 23.807C358.982 23.807 357.128 26.075 357.128 28.883C357.128 31.709 358.874 33.977 361.844 33.977ZM361.754 25.103C363.428 25.103 364.382 26.219 364.472 28.073H358.874C359.09 26.363 360.008 25.103 361.754 25.103ZM370.919 33.905C372.557 33.905 373.547 33.131 374.159 32.285H374.177C374.357 33.311 374.861 33.797 375.887 33.797C376.283 33.797 376.553 33.725 376.787 33.653V32.483H376.715C375.869 32.663 375.689 32.249 375.689 31.475V26.957C375.689 25.661 375.203 24.815 374.393 24.329C373.781 23.969 372.971 23.807 372.053 23.807C369.443 23.807 368.201 25.265 368.129 26.903H369.749C369.803 25.751 370.541 25.031 372.071 25.031C373.403 25.031 374.141 25.679 374.141 26.723C374.141 27.713 373.223 27.947 371.801 28.109C369.299 28.415 367.643 28.901 367.643 31.151C367.643 33.005 369.083 33.905 370.919 33.905ZM371.333 32.681C370.361 32.681 369.407 32.375 369.407 31.133C369.407 29.801 370.451 29.513 372.035 29.243C372.827 29.099 373.673 28.865 374.159 28.559V30.143C374.159 31.259 373.259 32.681 371.333 32.681ZM384.5 33.707H386.462L382.34 27.515L386.03 24.041H383.942L379.748 28.163C379.784 27.695 379.82 27.011 379.82 26.669V20.315H378.146V33.707H379.82V29.909L381.188 28.613L384.5 33.707ZM392.683 36.983H394.357V34.049C394.357 33.311 394.339 32.771 394.321 32.429H394.375C395.041 33.455 396.103 33.995 397.417 33.995C400.027 33.995 401.629 31.997 401.629 28.901C401.629 25.715 399.937 23.807 397.471 23.807C396.085 23.807 395.113 24.455 394.393 25.553H394.339V24.041H392.683V36.983ZM397.237 32.609C395.095 32.609 394.267 30.971 394.267 28.937C394.267 26.885 395.203 25.229 397.255 25.229C399.037 25.229 399.919 26.813 399.919 28.937C399.919 31.043 399.019 32.609 397.237 32.609ZM405.062 24.041H403.406V33.707H405.08V28.451C405.08 26.633 406.358 25.517 407.852 25.517C408.14 25.517 408.302 25.535 408.536 25.607H408.59V24.023C408.41 23.951 408.248 23.915 407.978 23.915C406.7 23.915 405.71 24.671 405.116 25.787H405.062V24.041ZM410.19 22.259H411.936V20.315H410.19V22.259ZM410.226 33.707H411.9V24.041H410.226V33.707ZM413.839 33.707H421.633V32.231H417.727C417.025 32.231 415.801 32.285 415.801 32.285V32.231C415.801 32.231 416.611 31.349 417.025 30.827L421.417 25.085V24.041H414.163V25.463H417.493C418.159 25.463 419.311 25.409 419.311 25.409V25.463C419.311 25.463 418.555 26.273 418.159 26.777L413.839 32.411V33.707ZM427.252 33.977C429.484 33.977 431.032 32.753 431.464 30.953H429.826C429.52 31.979 428.602 32.609 427.27 32.609C425.398 32.609 424.372 31.169 424.246 29.279H431.662C431.662 27.641 431.266 26.255 430.474 25.301C429.718 24.365 428.602 23.807 427.162 23.807C424.39 23.807 422.536 26.075 422.536 28.883C422.536 31.709 424.282 33.977 427.252 33.977ZM427.162 25.103C428.836 25.103 429.79 26.219 429.88 28.073H424.282C424.498 26.363 425.416 25.103 427.162 25.103Z" fill="white"/>
<g clip-path="url(#clip1_2915_32586)">
<path fill-rule="evenodd" clip-rule="evenodd" d="M554.113 31.0388C554.202 30.8927 554.246 30.7086 554.246 30.4863V21.7026C554.246 21.4803 554.202 21.2993 554.113 21.1596C554.024 21.0135 553.884 20.896 553.694 20.8071C553.16 20.5403 552.725 20.2323 552.389 19.883C552.046 19.5273 551.712 19.0287 551.388 18.3873C551.185 18.0252 550.89 17.8442 550.502 17.8442H534.431C534.043 17.8442 533.751 18.0252 533.554 18.3873C533.224 19.0287 532.891 19.5273 532.554 19.883C532.211 20.2323 531.773 20.5403 531.239 20.8071C531.049 20.896 530.909 21.0135 530.82 21.1596C530.731 21.2993 530.687 21.4803 530.687 21.7026V30.4863C530.687 30.7086 530.731 30.8927 530.82 31.0388C530.909 31.1785 531.049 31.2929 531.239 31.3818C531.773 31.6422 532.211 31.9502 532.554 32.3059C532.891 32.6552 533.224 33.1538 533.554 33.8016C533.751 34.1573 534.043 34.3351 534.431 34.3351H550.502C550.89 34.3351 551.185 34.1573 551.388 33.8016C551.712 33.1538 552.046 32.6552 552.389 32.3059C552.725 31.9502 553.16 31.6422 553.694 31.3818C553.884 31.2929 554.024 31.1785 554.113 31.0388ZM546.507 26.4202V27.2344C546.507 27.3749 546.393 27.4887 546.253 27.4887C546.112 27.4887 545.998 27.375 545.998 27.2344V26.4202H544.655V27.2344C544.655 27.3749 544.541 27.4887 544.4 27.4887C544.26 27.4887 544.146 27.375 544.146 27.2344V26.4202H542.803V27.2344C542.803 27.3749 542.689 27.4887 542.548 27.4887C542.408 27.4887 542.294 27.375 542.294 27.2344V26.4202H540.951V27.2344C540.951 27.3749 540.837 27.4887 540.696 27.4887C540.556 27.4887 540.442 27.375 540.442 27.2344V26.4202H539.099V27.2344C539.099 27.3749 538.985 27.4887 538.845 27.4887C538.704 27.4887 538.59 27.375 538.59 27.2344V26.4202H537.581L537.581 30.068C539.059 30.8678 540.749 31.3265 542.549 31.3265C544.348 31.3265 546.038 30.8675 547.517 30.068V26.4202H546.507ZM551.618 26.0895C551.619 25.0979 549.79 23.6146 548.534 22.7368V29.4429C549.79 28.5649 551.617 27.1819 551.618 26.0895ZM538.59 25.0977V25.9117L537.581 25.9115V22.1112C539.06 21.3117 540.75 20.8528 542.549 20.8528C544.348 20.8528 546.038 21.3115 547.517 22.1111V25.9117H546.507V25.0977C546.507 24.9572 546.393 24.8434 546.252 24.8434C546.112 24.8434 545.998 24.9572 545.998 25.0977V25.9117H544.655V25.0977C544.655 24.9572 544.541 24.8434 544.4 24.8434C544.26 24.8434 544.146 24.9572 544.146 25.0977V25.9117H542.803V25.0977C542.803 24.9572 542.689 24.8434 542.548 24.8434C542.408 24.8434 542.294 24.9572 542.294 25.0977V25.9117H540.951V25.0977C540.951 24.9572 540.837 24.8434 540.696 24.8434C540.556 24.8434 540.442 24.9572 540.442 25.0977V25.9117H539.099V25.0977C539.099 24.9572 538.985 24.8434 538.845 24.8434C538.704 24.8434 538.59 24.9572 538.59 25.0977ZM533.315 26.0895C533.315 25.0979 535.143 23.6146 536.399 22.7368V29.4429C535.143 28.5649 533.316 27.1819 533.315 26.0895Z" fill="white"/>
</g>
<path d="M600 50.4722H185V52.4722H600V50.4722Z" fill="white" mask="url(#path-7-inside-2_2915_32586)"/>
<path d="M252.28 91.0174H227.192V99.7854H234.936V142.089H244.408V99.7854H252.28V91.0174ZM279.342 106.889L276.526 132.745L272.814 106.889H264.046L260.782 132.745L257.518 106.889H248.814L255.15 142.089H265.39C265.39 142.089 267.63 129.609 268.334 125.449C268.398 125.065 268.462 121.801 268.462 121.801C268.462 121.801 268.654 125.065 268.718 125.449C269.422 129.481 271.598 142.089 271.598 142.089H281.71L287.854 106.889H279.342ZM310.485 113.609C309.333 109.577 306.261 106.441 299.925 106.441C293.589 106.441 290.453 109.897 289.429 113.417C288.533 116.425 288.085 120.649 288.085 124.425C288.085 128.329 288.597 133.065 289.173 135.177C290.389 139.593 294.037 142.537 299.797 142.537C305.877 142.537 309.141 139.657 310.421 135.177C311.189 132.617 311.573 128.265 311.573 124.425C311.573 120.649 311.253 116.233 310.485 113.609ZM302.869 133.065C302.677 134.409 301.461 135.561 299.861 135.561C298.325 135.561 297.173 134.729 296.917 133.129C296.597 131.465 296.533 127.305 296.533 124.553C296.533 121.929 296.597 117.641 296.917 116.169C297.301 114.569 298.197 113.673 299.861 113.673C301.589 113.673 302.485 114.377 302.869 116.041C303.125 117.385 303.253 121.865 303.253 124.553C303.253 127.241 303.317 129.993 302.869 133.065ZM350.022 91.0174H341.318V115.977L333.318 91.0174H324.422V142.089H333.126V116.617L341.19 142.089H350.022V91.0174ZM376.576 91.0174H353.984V142.089H363.328V120.777H375.552V112.201H363.328V99.7854H376.576V91.0174ZM401.832 133.449H388.328V91.0174H378.984V142.089H401.832V133.449ZM437.602 94.6654C435.746 92.2334 433.058 91.0174 429.09 91.0174H413.922V142.089H423.33V122.761C423.33 122.761 427.682 122.825 428.962 122.697C432.802 122.441 435.618 121.417 437.474 119.113C439.394 116.809 440.162 112.969 440.162 106.889C440.162 100.873 439.266 96.7774 437.602 94.6654ZM430.37 112.393C430.114 114.057 429.026 114.761 426.914 114.761H423.33V99.6574H427.17C428.642 99.6574 429.73 100.489 430.114 101.577C430.434 102.473 430.753 104.585 430.753 107.273C430.753 110.025 430.69 110.665 430.37 112.393ZM451.237 139.465V93.1294C451.237 91.9774 451.109 91.0814 451.045 90.9534H442.405C442.597 91.4014 442.597 92.9374 442.597 94.0254V139.657C442.597 140.937 442.725 141.897 442.981 142.089C442.981 142.153 451.557 142.089 451.557 142.089C451.301 141.897 451.237 141.065 451.237 139.465ZM476.304 135.817C476.304 133.193 476.368 128.905 476.368 126.153C476.432 122.889 476.496 117.577 476.368 114.505C476.176 109.577 473.104 106.441 465.744 106.441C457.936 106.441 454.736 109.961 454.736 116.553V119.177H462.672V117.193C462.672 114.761 463.44 113.545 465.616 113.545C467.216 113.545 468.048 114.441 468.112 115.977C468.176 117.065 468.176 119.241 468.176 120.201C466.768 120.201 465.296 120.393 463.696 120.649C457.808 121.737 453.84 124.937 453.52 130.057C453.392 131.913 453.456 134.921 453.52 135.689C453.776 140.809 457.68 142.345 461.2 142.345C464.336 142.345 466.704 141.513 468.304 139.529C468.304 140.425 468.496 142.089 468.624 142.089H476.752C476.432 141.641 476.304 138.377 476.304 135.817ZM468.176 128.649C468.048 130.441 468.176 131.337 467.856 133.193C467.536 134.985 466 135.689 464.656 135.689C463.376 135.689 462.352 135.241 462.16 134.025C462.032 133.001 462.032 131.785 462.032 130.825C462.032 129.353 462.095 128.329 463.184 127.369C464.144 126.537 465.232 126.345 466.128 126.153C466.896 126.025 467.536 126.025 468.176 126.025C468.176 126.537 468.24 127.945 468.176 128.649ZM494.344 106.889C494.28 107.977 490.184 128.777 490.056 129.545C489.992 128.841 485.896 107.785 485.768 106.889H477.064L485.448 141.129L482.568 152.521H491.336L502.856 106.889H494.344ZM524.923 113.609C523.771 109.577 520.699 106.441 514.363 106.441C508.027 106.441 504.891 109.897 503.867 113.417C502.971 116.425 502.523 120.649 502.523 124.425C502.523 128.329 503.035 133.065 503.611 135.177C504.827 139.593 508.475 142.537 514.235 142.537C520.315 142.537 523.579 139.657 524.859 135.177C525.627 132.617 526.011 128.265 526.011 124.425C526.011 120.649 525.691 116.233 524.923 113.609ZM517.307 133.065C517.115 134.409 515.899 135.561 514.299 135.561C512.763 135.561 511.611 134.729 511.355 133.129C511.035 131.465 510.97 127.305 510.97 124.553C510.97 121.929 511.035 117.641 511.355 116.169C511.739 114.569 512.635 113.673 514.299 113.673C516.027 113.673 516.923 114.377 517.307 116.041C517.562 117.385 517.691 121.865 517.691 124.553C517.691 127.241 517.755 129.993 517.307 133.065ZM544.661 114.377V142.089H553.109V114.377H557.013V106.889H553.109V99.9774C553.109 98.6974 553.685 97.7374 555.157 97.7374C555.861 97.7374 556.629 97.8654 557.141 97.8654V90.9534C556.181 90.8254 555.349 90.7614 553.173 90.7614C546.837 90.7614 544.661 94.7294 544.661 99.6574V106.889H538.837V100.425C538.837 99.0814 539.349 97.7374 541.077 97.7374C541.461 97.7374 542.741 97.8654 542.997 97.8654V90.9534C542.037 90.8254 541.141 90.7614 538.901 90.7614C532.565 90.7614 530.389 94.4734 530.389 99.3374V106.889H527.445V114.377H530.389V142.089H538.901V114.377H544.661ZM252.28 155.017H227.192V163.785H234.936V206.089H244.408V163.785H252.28V155.017ZM261.812 160.393H252.788V169.033H261.812V160.393ZM261.684 203.529V170.889H252.916V203.657C252.916 205.065 252.916 206.089 253.236 206.089H261.876C261.812 206.025 261.684 204.873 261.684 203.529ZM286.414 176.841C285.262 173.193 282.574 170.441 275.982 170.441C270.99 170.441 267.406 172.681 266.126 176.457C264.846 180.297 264.462 183.369 264.462 188.489C264.462 193.801 265.23 199.113 266.254 201.417C267.661 204.617 271.054 206.537 276.11 206.537C281.294 206.537 284.622 204.233 285.774 201.289C286.99 198.217 287.054 196.745 287.054 191.945H279.118C279.118 194.185 279.118 194.889 278.862 196.745C278.67 198.217 277.774 199.369 276.11 199.369C274.446 199.369 273.614 198.601 273.358 196.809C272.974 194.185 272.845 190.601 272.845 188.553C272.845 185.993 272.974 182.793 273.358 180.297C273.614 178.569 274.51 177.673 276.046 177.673C277.838 177.673 278.478 178.825 278.67 180.233C278.862 181.577 279.054 183.177 279.054 185.225H287.054C287.054 180.937 286.862 178.377 286.414 176.841ZM306.499 183.689L313.155 170.889H304.835L297.987 184.393V154.953H289.539V206.089H297.987V195.529L300.483 191.497L304.899 206.089H313.475L306.499 183.689ZM328.185 194.633C328.185 195.529 328.057 196.617 327.801 197.705C327.481 199.113 326.137 199.689 324.857 199.689C323.577 199.689 322.105 198.921 321.913 197.193C321.72 195.593 321.657 193.033 321.657 191.433H336.185C336.505 185.417 336.057 179.273 334.841 176.265C333.369 172.681 329.977 170.441 325.049 170.441C318.969 170.441 316.281 173.193 315.001 176.329C314.041 178.633 313.337 183.369 313.337 188.681C313.337 194.121 313.785 198.153 315.257 201.545C316.793 205.129 320.441 206.537 325.177 206.537C329.913 206.537 332.793 204.617 334.329 201.865C335.673 199.497 335.993 195.657 335.993 194.633H328.185ZM321.529 185.161C321.529 182.729 321.593 180.425 322.041 179.337C322.489 178.121 323.513 177.481 324.921 177.481C326.393 177.481 327.353 178.185 327.673 179.401C327.929 180.233 328.121 181.961 328.121 185.161H321.529ZM353.832 170.889H348.904V164.105L340.584 164.297C340.584 164.297 340.328 170.697 340.264 170.889H337.128V178.377H340.136V198.409C340.136 203.913 343.208 206.345 348.456 206.345C350.696 206.345 352.104 206.217 353.448 205.897V199.049C352.808 199.177 351.976 199.241 351.272 199.241C349.928 199.241 348.84 198.857 348.84 196.873V178.377H353.832V170.889ZM370.947 186.185C369.347 185.353 367.747 184.649 366.147 183.881C364.099 182.921 363.395 181.833 363.395 180.105C363.395 178.633 364.035 177.417 366.019 177.417C367.811 177.417 368.387 178.441 368.515 179.529C368.579 179.785 368.643 181.769 368.643 182.153H376.387C376.387 181.449 376.195 177.737 376.003 176.713C375.171 172.809 371.907 170.377 365.699 170.377C358.915 170.377 355.459 174.345 355.459 179.913C355.459 185.161 356.995 188.425 361.603 190.601C362.883 191.177 364.611 192.009 365.699 192.457C368.131 193.417 368.963 194.633 368.963 196.809C368.963 198.793 367.747 199.753 366.147 199.753C364.611 199.753 363.395 199.113 363.267 197.641C363.203 196.553 363.139 195.465 363.139 195.017H355.203C355.203 196.105 355.267 198.345 355.395 199.497C355.971 204.233 359.171 206.601 366.339 206.601C372.675 206.601 377.091 203.209 377.091 196.553C377.091 191.177 375.427 188.425 370.947 186.185Z" fill="white"/>
</g>
<path d="M185 0.707031H600H185ZM600 250.707H185H600ZM184 250.707V0.707031H186V250.707H184ZM600 0.707031V250.707V0.707031Z" fill="white" mask="url(#path-5-inside-1_2915_32586)"/>
<rect x="0.5" y="1.20703" width="599" height="249" rx="11.5" stroke="white"/>
<path d="M701.1 29.867H683.82C682.06 33.707 677.58 41.067 661.1 42.187V60.587L678.7 59.787V157.707H701.1V29.867ZM767.968 67.467C768.288 61.387 768.288 55.467 768.128 51.947C767.168 38.347 758.208 28.747 739.648 28.747C722.048 28.747 712.448 39.147 711.168 50.987C710.688 54.667 710.688 62.187 710.688 69.547H731.648C731.648 64.267 731.808 59.467 731.968 55.947C732.288 51.627 734.528 48.747 739.168 48.747C743.328 48.747 745.568 50.507 746.048 55.307C746.368 57.707 746.208 67.947 745.728 71.947C744.928 78.187 742.688 81.067 735.648 81.707H723.328V101.707C723.328 101.707 734.368 101.867 735.008 101.867C743.168 102.347 746.368 105.227 747.008 112.267C747.328 116.587 747.488 124.427 747.008 132.107C746.688 137.547 743.968 140.267 738.688 140.267C734.368 140.267 731.648 138.347 731.168 134.347C730.368 127.627 730.688 126.027 730.688 117.067H708.288C708.288 126.667 708.448 127.947 709.248 137.227C710.528 150.987 720.608 158.987 739.168 158.987C758.048 158.987 769.248 149.387 770.688 134.347C771.328 127.467 771.328 115.467 770.688 109.067C769.568 97.707 761.728 90.347 748.448 89.387C761.888 87.947 767.328 78.187 767.968 67.467Z" fill="white"/>
<path d="M697.204 192.035V187.715H691.534V189.749H695.008C695.008 189.749 695.026 191.801 694.99 191.981C694.756 193.043 693.802 193.853 692.272 193.853C691.012 193.853 690.238 193.529 689.752 192.827C689.176 191.981 689.014 190.739 689.014 188.633C689.014 186.563 689.266 185.213 689.77 184.439C690.256 183.719 691.03 183.413 692.11 183.413C693.118 183.413 693.82 183.719 694.234 184.331C694.612 184.907 694.828 185.753 694.828 186.239H697.132C697.132 185.609 696.952 184.367 696.52 183.503C695.872 182.225 694.522 181.271 692.056 181.271C689.68 181.271 688.348 182.261 687.592 183.431C686.8 184.673 686.566 186.383 686.566 188.597C686.566 191.171 686.962 192.827 687.646 193.907C688.474 195.203 689.878 195.887 691.768 195.887C693.712 195.887 694.756 195.203 695.242 194.483L695.35 195.707H697.222C697.222 195.653 697.204 193.745 697.204 192.035ZM709.209 192.251L710.199 195.707H712.647L708.435 181.451H705.411L700.911 195.707H703.323L704.367 192.251H709.209ZM705.015 190.199C705.015 190.199 706.581 185.033 706.599 184.943C706.635 184.799 706.869 183.665 706.869 183.665C706.869 183.665 707.103 184.799 707.139 184.943C707.175 185.051 708.597 190.199 708.597 190.199H705.015ZM729.429 181.451H726.351L723.147 192.053L719.997 181.451H716.739V195.707H718.953V185.933L721.887 195.707H724.209L727.197 185.897V195.707H729.429V181.451ZM743.504 193.547H737.006V189.641H743.144V187.463H737.006V183.611H743.432V181.451H734.666V195.707H743.504V193.547ZM682.993 215.769C682.597 215.625 681.751 215.301 681.247 215.139C679.501 214.563 678.637 214.005 678.637 212.889C678.637 211.935 679.285 211.359 681.103 211.359C682.651 211.359 683.371 211.791 683.677 212.673C683.785 212.997 683.839 213.267 683.839 213.573H686.251C686.251 213.033 686.161 212.601 686.035 212.169C685.531 210.405 684.091 209.289 681.157 209.289C677.791 209.289 676.207 210.765 676.207 212.961C676.207 215.067 677.593 216.327 679.735 217.029C680.329 217.227 681.175 217.551 681.535 217.677C683.443 218.343 684.019 218.919 684.019 220.125C684.019 221.205 683.245 221.853 681.427 221.853C679.879 221.853 678.979 221.457 678.709 220.611C678.601 220.269 678.547 219.783 678.547 219.531H676.153C676.153 219.945 676.189 220.611 676.315 221.097C676.747 222.771 678.187 223.887 681.481 223.887C684.811 223.887 686.449 222.303 686.449 219.927C686.449 217.713 685.225 216.543 682.993 215.769ZM699.947 209.451H689.849V211.593H693.683V223.707H696.095V211.593H699.947V209.451ZM713.327 211.035C712.823 210.027 711.869 209.451 710.303 209.451H704.093V223.707H706.433V217.767H709.529L712.013 223.707H714.623L711.815 217.245C712.445 217.119 713.021 216.669 713.381 215.985C713.651 215.445 713.795 214.653 713.795 213.573C713.795 212.421 713.687 211.719 713.327 211.035ZM711.239 215.103C711.059 215.499 710.609 215.715 709.979 215.733H706.451V211.575H709.799C710.609 211.575 711.113 211.863 711.311 212.403C711.401 212.637 711.437 213.267 711.437 213.789C711.437 214.221 711.365 214.797 711.239 215.103ZM727.799 221.547H721.301V217.641H727.439V215.463H721.301V211.611H727.727V209.451H718.961V223.707H727.799V221.547ZM739.656 220.251L740.646 223.707H743.094L738.882 209.451H735.858L731.358 223.707H733.77L734.814 220.251H739.656ZM735.462 218.199C735.462 218.199 737.028 213.033 737.046 212.943C737.082 212.799 737.316 211.665 737.316 211.665C737.316 211.665 737.55 212.799 737.586 212.943C737.622 213.051 739.044 218.199 739.044 218.199H735.462ZM752.244 215.607L757.374 209.451H754.71L749.562 215.517V209.451H747.186V223.707H749.562V218.613L750.606 217.389L754.674 223.707H757.482L752.244 215.607Z" fill="white"/>
<g clip-path="url(#clip2_2915_32586)">
<path d="M854.744 33.707H856.49V20.801H855.14C854.906 22.673 853.394 23.285 851.774 23.321V24.473H854.744V33.707ZM863.718 33.995C866.328 33.995 868.362 32.609 868.362 30.107C868.362 28.451 867.57 27.317 865.788 26.849V26.795C867.048 26.381 867.912 25.553 867.912 24.113C867.912 21.899 866.004 20.585 863.592 20.585C860.73 20.585 859.02 22.295 859.002 24.707H860.676C860.694 23.105 861.738 21.935 863.538 21.935C865.032 21.935 866.22 22.745 866.22 24.095C866.22 25.427 865.23 26.237 863.322 26.237H862.53V27.569H863.34C865.41 27.569 866.58 28.397 866.58 29.963C866.58 31.709 865.374 32.573 863.664 32.573C861.594 32.573 860.334 31.439 860.28 29.549H858.588C858.606 30.971 859.164 32.087 860.1 32.843C861.018 33.599 862.278 33.995 863.718 33.995ZM879.142 37.091C880.438 37.091 881.518 36.803 882.274 36.173C883.012 35.543 883.444 34.589 883.444 33.311V24.041H881.788V25.319H881.752C881.14 24.347 880.204 23.807 878.818 23.807C876.55 23.807 874.678 25.571 874.678 28.541C874.678 31.349 876.442 33.275 878.908 33.275C880.276 33.275 881.122 32.681 881.788 31.727H881.824C881.806 32.033 881.788 32.555 881.788 33.113V33.383C881.788 35.021 880.834 35.795 879.106 35.795C877.666 35.795 876.694 35.381 876.55 34.373H874.984C875.164 36.083 876.604 37.091 879.142 37.091ZM879.07 31.907C877.324 31.907 876.388 30.611 876.388 28.559C876.388 26.525 877.288 25.193 879.052 25.193C880.978 25.193 881.896 26.435 881.896 28.469C881.896 30.431 881.176 31.907 879.07 31.907ZM888.641 33.905C890.279 33.905 891.269 33.131 891.881 32.285H891.899C892.079 33.311 892.583 33.797 893.609 33.797C894.005 33.797 894.275 33.725 894.509 33.653V32.483H894.437C893.591 32.663 893.411 32.249 893.411 31.475V26.957C893.411 25.661 892.925 24.815 892.115 24.329C891.503 23.969 890.693 23.807 889.775 23.807C887.165 23.807 885.923 25.265 885.851 26.903H887.471C887.525 25.751 888.263 25.031 889.793 25.031C891.125 25.031 891.863 25.679 891.863 26.723C891.863 27.713 890.945 27.947 889.523 28.109C887.021 28.415 885.365 28.901 885.365 31.151C885.365 33.005 886.805 33.905 888.641 33.905ZM889.055 32.681C888.083 32.681 887.129 32.375 887.129 31.133C887.129 29.801 888.173 29.513 889.757 29.243C890.549 29.099 891.395 28.865 891.881 28.559V30.143C891.881 31.259 890.981 32.681 889.055 32.681ZM895.869 33.707H897.543V27.749C897.543 26.273 898.785 25.211 899.937 25.211C900.927 25.211 901.593 25.913 901.593 27.101V33.707H903.249V27.749C903.249 26.273 904.311 25.211 905.535 25.211C906.507 25.211 907.281 25.913 907.281 27.101V33.707H908.955V26.957C908.955 24.941 907.731 23.807 905.967 23.807C904.797 23.807 903.663 24.401 902.979 25.607H902.943C902.547 24.419 901.611 23.807 900.441 23.807C899.199 23.807 898.173 24.437 897.579 25.481H897.525V24.041H895.869V33.707ZM915.391 33.977C917.623 33.977 919.171 32.753 919.603 30.953H917.965C917.659 31.979 916.741 32.609 915.409 32.609C913.537 32.609 912.511 31.169 912.385 29.279H919.801C919.801 27.641 919.405 26.255 918.613 25.301C917.857 24.365 916.741 23.807 915.301 23.807C912.529 23.807 910.675 26.075 910.675 28.883C910.675 31.709 912.421 33.977 915.391 33.977ZM915.301 25.103C916.975 25.103 917.929 26.219 918.019 28.073H912.421C912.637 26.363 913.555 25.103 915.301 25.103ZM928.455 33.707H930.147L931.605 28.379C931.839 27.461 932.199 25.679 932.199 25.679H932.235C932.235 25.679 932.613 27.443 932.847 28.379L934.269 33.707H935.943L939.093 24.041H937.365L935.763 29.405C935.403 30.593 935.133 32.249 935.133 32.249H935.097C935.097 32.249 934.755 30.467 934.485 29.441L933.045 24.041H931.461L930.003 29.441C929.679 30.611 929.355 32.231 929.355 32.231H929.319C929.319 32.231 928.995 30.503 928.689 29.405L927.177 24.041H925.395L928.455 33.707ZM940.393 22.259H942.139V20.315H940.393V22.259ZM940.429 33.707H942.103V24.041H940.429V33.707ZM946.058 24.041H944.402V33.707H946.076V27.821C946.076 26.273 947.156 25.211 948.65 25.211C949.964 25.211 950.774 25.913 950.774 27.155V33.707H952.43V26.957C952.43 24.941 951.188 23.807 949.172 23.807C947.768 23.807 946.814 24.437 946.112 25.409H946.058V24.041ZM963.174 33.995C965.442 33.995 967.062 32.987 967.062 31.025C967.062 28.775 965.406 28.343 963.48 27.965C961.842 27.641 960.906 27.443 960.906 26.435C960.906 25.697 961.464 25.085 962.778 25.085C964.164 25.085 964.848 25.643 964.992 26.633H966.666C966.45 24.959 965.244 23.825 962.814 23.825C960.564 23.825 959.268 24.869 959.268 26.525C959.268 28.649 960.978 29.045 962.868 29.441C964.578 29.783 965.388 30.053 965.388 31.115C965.388 31.979 964.74 32.645 963.21 32.645C961.824 32.645 960.744 32.177 960.546 30.773H958.854C958.998 32.735 960.51 33.995 963.174 33.995ZM968.101 25.337H969.613V31.817C969.613 33.239 970.513 33.761 971.809 33.779C972.241 33.779 972.709 33.725 973.159 33.617V32.213H973.105C972.925 32.267 972.547 32.339 972.259 32.339C971.647 32.339 971.269 32.141 971.269 31.439V25.337H973.267V24.041H971.269V20.999H969.613V24.041H968.101V25.337ZM976.662 24.041H975.006V33.707H976.68V28.451C976.68 26.633 977.958 25.517 979.452 25.517C979.74 25.517 979.902 25.535 980.136 25.607H980.19V24.023C980.01 23.951 979.848 23.915 979.578 23.915C978.3 23.915 977.31 24.671 976.716 25.787H976.662V24.041ZM985.668 33.977C987.9 33.977 989.448 32.753 989.88 30.953H988.242C987.936 31.979 987.018 32.609 985.686 32.609C983.814 32.609 982.788 31.169 982.662 29.279H990.078C990.078 27.641 989.682 26.255 988.89 25.301C988.134 24.365 987.018 23.807 985.578 23.807C982.806 23.807 980.952 26.075 980.952 28.883C980.952 31.709 982.698 33.977 985.668 33.977ZM985.578 25.103C987.252 25.103 988.206 26.219 988.296 28.073H982.698C982.914 26.363 983.832 25.103 985.578 25.103ZM994.743 33.905C996.381 33.905 997.371 33.131 997.983 32.285H998.001C998.181 33.311 998.685 33.797 999.711 33.797C1000.11 33.797 1000.38 33.725 1000.61 33.653V32.483H1000.54C999.693 32.663 999.513 32.249 999.513 31.475V26.957C999.513 25.661 999.027 24.815 998.217 24.329C997.605 23.969 996.795 23.807 995.877 23.807C993.267 23.807 992.025 25.265 991.953 26.903H993.573C993.627 25.751 994.365 25.031 995.895 25.031C997.227 25.031 997.965 25.679 997.965 26.723C997.965 27.713 997.047 27.947 995.625 28.109C993.123 28.415 991.467 28.901 991.467 31.151C991.467 33.005 992.907 33.905 994.743 33.905ZM995.157 32.681C994.185 32.681 993.231 32.375 993.231 31.133C993.231 29.801 994.275 29.513 995.859 29.243C996.651 29.099 997.497 28.865 997.983 28.559V30.143C997.983 31.259 997.083 32.681 995.157 32.681ZM1008.32 33.707H1010.29L1006.16 27.515L1009.85 24.041H1007.77L1003.57 28.163C1003.61 27.695 1003.64 27.011 1003.64 26.669V20.315H1001.97V33.707H1003.64V29.909L1005.01 28.613L1008.32 33.707ZM1016.51 36.983H1018.18V34.049C1018.18 33.311 1018.16 32.771 1018.15 32.429H1018.2C1018.87 33.455 1019.93 33.995 1021.24 33.995C1023.85 33.995 1025.45 31.997 1025.45 28.901C1025.45 25.715 1023.76 23.807 1021.3 23.807C1019.91 23.807 1018.94 24.455 1018.22 25.553H1018.16V24.041H1016.51V36.983ZM1021.06 32.609C1018.92 32.609 1018.09 30.971 1018.09 28.937C1018.09 26.885 1019.03 25.229 1021.08 25.229C1022.86 25.229 1023.74 26.813 1023.74 28.937C1023.74 31.043 1022.84 32.609 1021.06 32.609ZM1028.89 24.041H1027.23V33.707H1028.9V28.451C1028.9 26.633 1030.18 25.517 1031.68 25.517C1031.96 25.517 1032.13 25.535 1032.36 25.607H1032.41V24.023C1032.23 23.951 1032.07 23.915 1031.8 23.915C1030.52 23.915 1029.53 24.671 1028.94 25.787H1028.89V24.041ZM1034.01 22.259H1035.76V20.315H1034.01V22.259ZM1034.05 33.707H1035.72V24.041H1034.05V33.707ZM1037.66 33.707H1045.46V32.231H1041.55C1040.85 32.231 1039.63 32.285 1039.63 32.285V32.231C1039.63 32.231 1040.44 31.349 1040.85 30.827L1045.24 25.085V24.041H1037.99V25.463H1041.32C1041.98 25.463 1043.14 25.409 1043.14 25.409V25.463C1043.14 25.463 1042.38 26.273 1041.98 26.777L1037.66 32.411V33.707ZM1051.08 33.977C1053.31 33.977 1054.86 32.753 1055.29 30.953H1053.65C1053.34 31.979 1052.43 32.609 1051.09 32.609C1049.22 32.609 1048.2 31.169 1048.07 29.279H1055.49C1055.49 27.641 1055.09 26.255 1054.3 25.301C1053.54 24.365 1052.43 23.807 1050.99 23.807C1048.21 23.807 1046.36 26.075 1046.36 28.883C1046.36 31.709 1048.11 33.977 1051.08 33.977ZM1050.99 25.103C1052.66 25.103 1053.61 26.219 1053.7 28.073H1048.11C1048.32 26.363 1049.24 25.103 1050.99 25.103Z" fill="white"/>
<g clip-path="url(#clip3_2915_32586)">
<path fill-rule="evenodd" clip-rule="evenodd" d="M1178.11 31.0388C1178.2 30.8927 1178.25 30.7086 1178.25 30.4863V21.7026C1178.25 21.4803 1178.2 21.2993 1178.11 21.1596C1178.02 21.0135 1177.88 20.896 1177.69 20.8071C1177.16 20.5403 1176.73 20.2323 1176.39 19.883C1176.05 19.5273 1175.71 19.0287 1175.39 18.3873C1175.19 18.0252 1174.89 17.8442 1174.5 17.8442H1158.43C1158.04 17.8442 1157.75 18.0252 1157.55 18.3873C1157.22 19.0287 1156.89 19.5273 1156.55 19.883C1156.21 20.2323 1155.77 20.5403 1155.24 20.8071C1155.05 20.896 1154.91 21.0135 1154.82 21.1596C1154.73 21.2993 1154.69 21.4803 1154.69 21.7026V30.4863C1154.69 30.7086 1154.73 30.8927 1154.82 31.0388C1154.91 31.1785 1155.05 31.2929 1155.24 31.3818C1155.77 31.6422 1156.21 31.9502 1156.55 32.3059C1156.89 32.6552 1157.22 33.1538 1157.55 33.8016C1157.75 34.1573 1158.04 34.3351 1158.43 34.3351H1174.5C1174.89 34.3351 1175.19 34.1573 1175.39 33.8016C1175.71 33.1538 1176.05 32.6552 1176.39 32.3059C1176.73 31.9502 1177.16 31.6422 1177.69 31.3818C1177.88 31.2929 1178.02 31.1785 1178.11 31.0388ZM1170.51 26.4202V27.2344C1170.51 27.3749 1170.39 27.4887 1170.25 27.4887C1170.11 27.4887 1170 27.375 1170 27.2344V26.4202H1168.65V27.2344C1168.65 27.3749 1168.54 27.4887 1168.4 27.4887C1168.26 27.4887 1168.15 27.375 1168.15 27.2344V26.4202H1166.8V27.2344C1166.8 27.3749 1166.69 27.4887 1166.55 27.4887C1166.41 27.4887 1166.29 27.375 1166.29 27.2344V26.4202H1164.95V27.2344C1164.95 27.3749 1164.84 27.4887 1164.7 27.4887C1164.56 27.4887 1164.44 27.375 1164.44 27.2344V26.4202H1163.1V27.2344C1163.1 27.3749 1162.99 27.4887 1162.84 27.4887C1162.7 27.4887 1162.59 27.375 1162.59 27.2344V26.4202H1161.58L1161.58 30.068C1163.06 30.8678 1164.75 31.3265 1166.55 31.3265C1168.35 31.3265 1170.04 30.8675 1171.52 30.068V26.4202H1170.51ZM1175.62 26.0895C1175.62 25.0979 1173.79 23.6146 1172.53 22.7368V29.4429C1173.79 28.5649 1175.62 27.1819 1175.62 26.0895ZM1162.59 25.0977V25.9117L1161.58 25.9115V22.1112C1163.06 21.3117 1164.75 20.8528 1166.55 20.8528C1168.35 20.8528 1170.04 21.3115 1171.52 22.1111V25.9117H1170.51V25.0977C1170.51 24.9572 1170.39 24.8434 1170.25 24.8434C1170.11 24.8434 1170 24.9572 1170 25.0977V25.9117H1168.65V25.0977C1168.65 24.9572 1168.54 24.8434 1168.4 24.8434C1168.26 24.8434 1168.15 24.9572 1168.15 25.0977V25.9117H1166.8V25.0977C1166.8 24.9572 1166.69 24.8434 1166.55 24.8434C1166.41 24.8434 1166.29 24.9572 1166.29 25.0977V25.9117H1164.95V25.0977C1164.95 24.9572 1164.84 24.8434 1164.7 24.8434C1164.56 24.8434 1164.44 24.9572 1164.44 25.0977V25.9117H1163.1V25.0977C1163.1 24.9572 1162.98 24.8434 1162.84 24.8434C1162.7 24.8434 1162.59 24.9572 1162.59 25.0977ZM1157.32 26.0895C1157.31 25.0979 1159.14 23.6146 1160.4 22.7368V29.4429C1159.14 28.5649 1157.32 27.1819 1157.32 26.0895Z" fill="white"/>
</g>
<path d="M1224 50.4722H809V52.4722H1224V50.4722Z" fill="white" mask="url(#path-18-inside-4_2915_32586)"/>
<path d="M865.176 101.785C865.176 101.785 860.952 115.753 860.328 117.769C859.896 115.801 856.152 101.785 856.152 101.785H849L856.824 125.881V140.089H863.832V125.737L872.088 101.785H865.176ZM879.947 131.497C879.947 132.169 879.85 132.985 879.659 133.801C879.419 134.857 878.41 135.289 877.451 135.289C876.491 135.289 875.387 134.713 875.242 133.417C875.098 132.217 875.051 130.297 875.051 129.097H885.947C886.187 124.585 885.851 119.977 884.939 117.721C883.835 115.033 881.291 113.353 877.595 113.353C873.034 113.353 871.018 115.417 870.058 117.769C869.338 119.497 868.81 123.049 868.81 127.033C868.81 131.113 869.146 134.137 870.25 136.681C871.402 139.369 874.138 140.425 877.69 140.425C881.242 140.425 883.403 138.985 884.555 136.921C885.562 135.145 885.802 132.265 885.802 131.497H879.947ZM874.954 124.393C874.954 122.569 875.003 120.841 875.339 120.025C875.674 119.113 876.443 118.633 877.499 118.633C878.603 118.633 879.323 119.161 879.562 120.073C879.755 120.697 879.898 121.993 879.898 124.393H874.954ZM904.75 135.385C904.75 133.417 904.798 130.201 904.798 128.137C904.846 125.689 904.894 121.705 904.798 119.401C904.654 115.705 902.35 113.353 896.83 113.353C890.974 113.353 888.574 115.993 888.574 120.937V122.905H894.526V121.417C894.526 119.593 895.102 118.681 896.734 118.681C897.934 118.681 898.558 119.353 898.606 120.505C898.654 121.321 898.654 122.953 898.654 123.673C897.598 123.673 896.494 123.817 895.294 124.009C890.878 124.825 887.902 127.225 887.662 131.065C887.566 132.457 887.614 134.713 887.662 135.289C887.854 139.129 890.782 140.281 893.422 140.281C895.774 140.281 897.55 139.657 898.75 138.169C898.75 138.841 898.894 140.089 898.99 140.089H905.086C904.846 139.753 904.75 137.305 904.75 135.385ZM898.654 130.009C898.558 131.353 898.654 132.025 898.414 133.417C898.174 134.761 897.022 135.289 896.014 135.289C895.054 135.289 894.286 134.953 894.142 134.041C894.046 133.273 894.046 132.361 894.046 131.641C894.046 130.537 894.094 129.769 894.91 129.049C895.63 128.425 896.446 128.281 897.118 128.137C897.694 128.041 898.174 128.041 898.654 128.041C898.654 128.425 898.702 129.481 898.654 130.009ZM918.697 113.353C916.489 113.353 914.281 114.793 913.993 116.809V113.689H907.657V140.089H914.089V124.441C914.089 120.121 915.433 119.161 917.641 119.161C918.937 119.161 920.233 119.401 921.001 119.641V113.593C920.473 113.401 919.705 113.353 918.697 113.353ZM924.194 109.801L924.29 109.993L922.466 113.161L925.394 115.225L929.522 110.089V101.785H922.802V109.801H924.194ZM940.376 125.161C939.176 124.537 937.976 124.009 936.776 123.433C935.24 122.713 934.712 121.897 934.712 120.601C934.712 119.497 935.192 118.585 936.68 118.585C938.024 118.585 938.456 119.353 938.552 120.169C938.6 120.361 938.648 121.849 938.648 122.137H944.456C944.456 121.609 944.312 118.825 944.168 118.057C943.544 115.129 941.096 113.305 936.44 113.305C931.352 113.305 928.76 116.281 928.76 120.457C928.76 124.393 929.912 126.841 933.368 128.473C934.328 128.905 935.624 129.529 936.44 129.865C938.264 130.585 938.888 131.497 938.888 133.129C938.888 134.617 937.976 135.337 936.776 135.337C935.624 135.337 934.712 134.857 934.616 133.753C934.568 132.937 934.52 132.121 934.52 131.785H928.568C928.568 132.601 928.616 134.281 928.712 135.145C929.144 138.697 931.544 140.473 936.92 140.473C941.672 140.473 944.984 137.929 944.984 132.937C944.984 128.905 943.736 126.841 940.376 125.161ZM979.86 101.785C979.86 101.785 977.172 125.929 977.172 129.721C977.172 125.929 973.86 101.785 973.86 101.785H966.9C966.9 101.785 963.78 125.929 963.78 129.721C963.78 125.929 960.996 101.785 960.996 101.785H953.844L959.22 140.089H967.332C967.332 140.089 970.26 120.217 970.308 116.233C970.5 120.217 973.284 140.089 973.284 140.089H981.588L986.82 101.785H979.86ZM1003.3 118.729C1002.43 115.705 1000.13 113.353 995.377 113.353C990.625 113.353 988.273 115.945 987.505 118.585C986.833 120.841 986.497 124.009 986.497 126.841C986.497 129.769 986.881 133.321 987.313 134.905C988.225 138.217 990.961 140.425 995.281 140.425C999.841 140.425 1002.29 138.265 1003.25 134.905C1003.83 132.985 1004.11 129.721 1004.11 126.841C1004.11 124.009 1003.87 120.697 1003.3 118.729ZM997.585 133.321C997.441 134.329 996.529 135.193 995.329 135.193C994.177 135.193 993.313 134.569 993.121 133.369C992.881 132.121 992.833 129.001 992.833 126.937C992.833 124.969 992.881 121.753 993.121 120.649C993.409 119.449 994.081 118.777 995.329 118.777C996.625 118.777 997.297 119.305 997.585 120.553C997.777 121.561 997.873 124.921 997.873 126.937C997.873 128.953 997.921 131.017 997.585 133.321ZM1017.72 113.353C1015.51 113.353 1013.3 114.793 1013.01 116.809V113.689H1006.68V140.089H1013.11V124.441C1013.11 120.121 1014.45 119.161 1016.66 119.161C1017.96 119.161 1019.25 119.401 1020.02 119.641V113.593C1019.49 113.401 1018.73 113.353 1017.72 113.353ZM1033.81 113.689H1030.12V108.601L1023.88 108.745C1023.88 108.745 1023.69 113.545 1023.64 113.689H1021.29V119.305H1023.54V134.329C1023.54 138.457 1025.85 140.281 1029.78 140.281C1031.46 140.281 1032.52 140.185 1033.53 139.945V134.809C1033.05 134.905 1032.42 134.953 1031.89 134.953C1030.89 134.953 1030.07 134.665 1030.07 133.177V119.305H1033.81V113.689ZM1052.75 119.785C1052.75 115.177 1050.49 113.353 1047.23 113.353C1044.59 113.353 1043.1 114.361 1042.38 116.137V101.737H1036.04V140.089H1042.38V121.705C1042.38 119.881 1043.29 118.969 1044.54 118.969C1045.93 118.969 1046.36 119.737 1046.36 120.937C1046.36 139.369 1046.36 140.089 1046.41 140.089H1052.84C1052.8 140.089 1052.75 139.369 1052.75 119.785ZM1079.67 118.729C1078.8 115.705 1076.5 113.353 1071.75 113.353C1066.99 113.353 1064.64 115.945 1063.87 118.585C1063.2 120.841 1062.87 124.009 1062.87 126.841C1062.87 129.769 1063.25 133.321 1063.68 134.905C1064.59 138.217 1067.33 140.425 1071.65 140.425C1076.21 140.425 1078.66 138.265 1079.62 134.905C1080.19 132.985 1080.48 129.721 1080.48 126.841C1080.48 124.009 1080.24 120.697 1079.67 118.729ZM1073.95 133.321C1073.81 134.329 1072.9 135.193 1071.7 135.193C1070.55 135.193 1069.68 134.569 1069.49 133.369C1069.25 132.121 1069.2 129.001 1069.2 126.937C1069.2 124.969 1069.25 121.753 1069.49 120.649C1069.78 119.449 1070.45 118.777 1071.7 118.777C1072.99 118.777 1073.67 119.305 1073.95 120.553C1074.15 121.561 1074.24 124.921 1074.24 126.937C1074.24 128.953 1074.29 131.017 1073.95 133.321ZM1094.28 113.689H1090.82V108.793C1090.82 107.833 1091.4 106.777 1092.69 106.777C1093.22 106.777 1093.99 106.825 1094.61 106.921V101.689C1093.89 101.593 1092.5 101.545 1090.82 101.545C1086.07 101.545 1084.39 104.377 1084.39 107.977V113.689H1082.04V119.305H1084.39V140.089H1090.82V119.305H1094.28V113.689ZM1124.66 129.625C1124.66 127.225 1124.38 124.441 1123.51 122.905C1122.65 121.321 1121.45 120.553 1119.58 120.313C1121.16 120.025 1122.22 119.353 1122.94 117.865C1123.85 115.945 1123.99 113.497 1123.99 110.953C1123.99 108.553 1123.7 106.249 1122.79 104.665C1121.64 102.649 1119.48 101.785 1116.26 101.785H1104.17V140.089H1115.54C1119.1 140.089 1121.35 139.609 1122.98 137.401C1124.28 135.625 1124.66 132.553 1124.66 129.625ZM1116.22 116.905C1115.78 117.817 1115.26 118.201 1114.73 118.201H1111.03V107.497H1114.25C1115.26 107.497 1115.83 108.073 1116.17 108.889C1116.46 109.609 1116.74 111.145 1116.74 112.681C1116.74 114.553 1116.5 116.281 1116.22 116.905ZM1114.44 134.377H1111.03V123.577H1114.58C1115.5 123.577 1116.22 124.153 1116.65 124.921C1116.98 125.545 1117.18 127.609 1117.18 128.857C1117.18 130.057 1117.03 132.313 1116.7 133.033C1116.26 133.993 1115.35 134.377 1114.44 134.377ZM1137.89 131.497C1137.89 132.169 1137.8 132.985 1137.6 133.801C1137.36 134.857 1136.36 135.289 1135.4 135.289C1134.44 135.289 1133.33 134.713 1133.19 133.417C1133.04 132.217 1133 130.297 1133 129.097H1143.89C1144.13 124.585 1143.8 119.977 1142.88 117.721C1141.78 115.033 1139.24 113.353 1135.54 113.353C1130.98 113.353 1128.96 115.417 1128 117.769C1127.28 119.497 1126.76 123.049 1126.76 127.033C1126.76 131.113 1127.09 134.137 1128.2 136.681C1129.35 139.369 1132.08 140.425 1135.64 140.425C1139.19 140.425 1141.35 138.985 1142.5 136.921C1143.51 135.145 1143.75 132.265 1143.75 131.497H1137.89ZM1132.9 124.393C1132.9 122.569 1132.95 120.841 1133.28 120.025C1133.62 119.113 1134.39 118.633 1135.44 118.633C1136.55 118.633 1137.27 119.161 1137.51 120.073C1137.7 120.697 1137.84 121.993 1137.84 124.393H1132.9ZM1156.89 131.497C1156.89 132.169 1156.79 132.985 1156.6 133.801C1156.36 134.857 1155.35 135.289 1154.39 135.289C1153.43 135.289 1152.33 134.713 1152.18 133.417C1152.04 132.217 1151.99 130.297 1151.99 129.097H1162.89C1163.13 124.585 1162.79 119.977 1161.88 117.721C1160.78 115.033 1158.23 113.353 1154.54 113.353C1149.98 113.353 1147.96 115.417 1147 117.769C1146.28 119.497 1145.75 123.049 1145.75 127.033C1145.75 131.113 1146.09 134.137 1147.19 136.681C1148.34 139.369 1151.08 140.425 1154.63 140.425C1158.18 140.425 1160.34 138.985 1161.5 136.921C1162.5 135.145 1162.74 132.265 1162.74 131.497H1156.89ZM1151.9 124.393C1151.9 122.569 1151.94 120.841 1152.28 120.025C1152.62 119.113 1153.38 118.633 1154.44 118.633C1155.54 118.633 1156.26 119.161 1156.5 120.073C1156.7 120.697 1156.84 121.993 1156.84 124.393H1151.9ZM1176.27 113.353C1174.06 113.353 1171.85 114.793 1171.56 116.809V113.689H1165.23V140.089H1171.66V124.441C1171.66 120.121 1173 119.161 1175.21 119.161C1176.51 119.161 1177.8 119.401 1178.57 119.641V113.593C1178.04 113.401 1177.28 113.353 1176.27 113.353ZM865.8 174.441H860.568V168.537H854.904V174.441H849.576V180.057H854.904V186.009H860.52V180.057H865.8V174.441ZM893.91 189.897H882.966C884.886 186.249 893.382 177.849 893.91 169.545C893.958 168.729 894.006 165.417 893.958 164.793C893.622 160.617 891.366 157.401 884.982 157.401C878.742 157.401 875.718 161.193 875.574 164.985C875.526 165.753 875.526 169.689 875.526 170.457H882.246V165.945C882.294 164.169 883.254 163.497 884.502 163.497C885.894 163.497 886.758 163.977 886.758 166.233V168.969C886.518 177.273 878.118 184.329 875.478 190.137V196.089H893.91V189.897ZM923.639 157.785H917.111V176.505L911.111 157.785H904.439V196.089H910.967V176.985L917.015 196.089H923.639V157.785ZM944.035 157.785H927.091V196.089H934.099V180.105H943.267V173.673H934.099V164.361H944.035V157.785ZM963.457 189.609H953.329V157.785H946.321V196.089H963.457V189.609ZM993.164 187.161V174.441H982.652V180.489H986.54C986.54 180.489 986.588 186.729 986.54 187.545C986.444 189.513 985.292 190.521 983.516 190.521C981.932 190.521 981.116 189.705 980.78 187.977C980.204 184.953 980.204 179.961 980.204 177.033C980.204 173.913 980.252 169.305 980.732 165.993C980.972 164.361 982.028 163.641 983.372 163.641C984.86 163.641 985.772 164.457 985.916 165.993C986.108 167.961 986.108 170.601 986.108 170.889H992.972C992.972 167.481 992.828 165.561 992.54 163.833C991.964 160.377 989.42 157.449 983.228 157.449C977.18 157.449 974.636 160.857 973.82 163.929C972.956 167.241 972.86 173.049 972.86 177.033C972.86 181.161 973.004 186.537 973.82 189.993C974.828 194.217 977.852 196.425 981.884 196.425C984.812 196.425 986.78 195.609 987.74 194.361L988.076 196.089H993.26C993.26 196.041 993.164 191.577 993.164 187.161ZM1012.22 191.385C1012.22 189.417 1012.27 186.201 1012.27 184.137C1012.32 181.689 1012.36 177.705 1012.27 175.401C1012.12 171.705 1009.82 169.353 1004.3 169.353C998.444 169.353 996.044 171.993 996.044 176.937V178.905H1002V177.417C1002 175.593 1002.57 174.681 1004.2 174.681C1005.4 174.681 1006.03 175.353 1006.08 176.505C1006.12 177.321 1006.12 178.953 1006.12 179.673C1005.07 179.673 1003.96 179.817 1002.76 180.009C998.348 180.825 995.372 183.225 995.132 187.065C995.036 188.457 995.084 190.713 995.132 191.289C995.324 195.129 998.252 196.281 1000.89 196.281C1003.24 196.281 1005.02 195.657 1006.22 194.169C1006.22 194.841 1006.36 196.089 1006.46 196.089H1012.56C1012.32 195.753 1012.22 193.305 1012.22 191.385ZM1006.12 186.009C1006.03 187.353 1006.12 188.025 1005.88 189.417C1005.64 190.761 1004.49 191.289 1003.48 191.289C1002.52 191.289 1001.76 190.953 1001.61 190.041C1001.52 189.273 1001.52 188.361 1001.52 187.641C1001.52 186.537 1001.56 185.769 1002.38 185.049C1003.1 184.425 1003.92 184.281 1004.59 184.137C1005.16 184.041 1005.64 184.041 1006.12 184.041C1006.12 184.425 1006.17 185.481 1006.12 186.009ZM1041.19 196.089C1041.24 196.089 1041.14 195.321 1041.14 174.873C1041.14 171.561 1039.7 169.305 1036.05 169.305C1033.61 169.305 1031.73 170.361 1030.92 172.377C1030.25 170.505 1028.85 169.305 1026.45 169.305C1023.67 169.305 1021.94 170.553 1021.32 172.185V169.689H1015.13V196.089H1021.46V177.369C1021.46 176.073 1022.23 174.873 1023.53 174.873C1024.63 174.873 1025.16 175.593 1025.16 176.745V196.089H1031.35V177.177C1031.35 175.977 1032.07 174.873 1033.32 174.873C1034.66 174.873 1035 175.785 1035 176.841C1035 195.321 1035 196.089 1035.05 196.089H1041.19ZM1054.72 187.497C1054.72 188.169 1054.62 188.985 1054.43 189.801C1054.19 190.857 1053.18 191.289 1052.22 191.289C1051.26 191.289 1050.16 190.713 1050.01 189.417C1049.87 188.217 1049.82 186.297 1049.82 185.097H1060.72C1060.96 180.585 1060.62 175.977 1059.71 173.721C1058.6 171.033 1056.06 169.353 1052.36 169.353C1047.8 169.353 1045.79 171.417 1044.83 173.769C1044.11 175.497 1043.58 179.049 1043.58 183.033C1043.58 187.113 1043.92 190.137 1045.02 192.681C1046.17 195.369 1048.91 196.425 1052.46 196.425C1056.01 196.425 1058.17 194.985 1059.32 192.921C1060.33 191.145 1060.57 188.265 1060.57 187.497H1054.72ZM1049.72 180.393C1049.72 178.569 1049.77 176.841 1050.11 176.025C1050.44 175.113 1051.21 174.633 1052.27 174.633C1053.37 174.633 1054.09 175.161 1054.33 176.073C1054.52 176.697 1054.67 177.993 1054.67 180.393H1049.72ZM1088.56 157.785H1069.74V164.361H1075.55V196.089H1082.66V164.361H1088.56V157.785ZM1096.19 161.817H1089.42V168.297H1096.19V161.817ZM1096.09 194.169V169.689H1089.52V194.265C1089.52 195.321 1089.52 196.089 1089.76 196.089H1096.24C1096.19 196.041 1096.09 195.177 1096.09 194.169ZM1115.12 174.153C1114.26 171.417 1112.24 169.353 1107.3 169.353C1103.55 169.353 1100.86 171.033 1099.9 173.865C1098.94 176.745 1098.66 179.049 1098.66 182.889C1098.66 186.873 1099.23 190.857 1100 192.585C1101.06 194.985 1103.6 196.425 1107.39 196.425C1111.28 196.425 1113.78 194.697 1114.64 192.489C1115.55 190.185 1115.6 189.081 1115.6 185.481H1109.65C1109.65 187.161 1109.65 187.689 1109.46 189.081C1109.31 190.185 1108.64 191.049 1107.39 191.049C1106.14 191.049 1105.52 190.473 1105.33 189.129C1105.04 187.161 1104.94 184.473 1104.94 182.937C1104.94 181.017 1105.04 178.617 1105.33 176.745C1105.52 175.449 1106.19 174.777 1107.34 174.777C1108.69 174.777 1109.17 175.641 1109.31 176.697C1109.46 177.705 1109.6 178.905 1109.6 180.441H1115.6C1115.6 177.225 1115.46 175.305 1115.12 174.153ZM1130.66 179.289L1135.66 169.689H1129.42L1124.28 179.817V157.737H1117.94V196.089H1124.28V188.169L1126.15 185.145L1129.46 196.089H1135.9L1130.66 179.289ZM1147.41 187.497C1147.41 188.169 1147.31 188.985 1147.12 189.801C1146.88 190.857 1145.87 191.289 1144.91 191.289C1143.95 191.289 1142.85 190.713 1142.7 189.417C1142.56 188.217 1142.51 186.297 1142.51 185.097H1153.41C1153.65 180.585 1153.31 175.977 1152.4 173.721C1151.3 171.033 1148.75 169.353 1145.06 169.353C1140.5 169.353 1138.48 171.417 1137.52 173.769C1136.8 175.497 1136.27 179.049 1136.27 183.033C1136.27 187.113 1136.61 190.137 1137.71 192.681C1138.86 195.369 1141.6 196.425 1145.15 196.425C1148.7 196.425 1150.86 194.985 1152.02 192.921C1153.02 191.145 1153.26 188.265 1153.26 187.497H1147.41ZM1142.42 180.393C1142.42 178.569 1142.46 176.841 1142.8 176.025C1143.14 175.113 1143.9 174.633 1144.96 174.633C1146.06 174.633 1146.78 175.161 1147.02 176.073C1147.22 176.697 1147.36 177.993 1147.36 180.393H1142.42ZM1167.12 169.689H1163.43V164.601L1157.19 164.745C1157.19 164.745 1157 169.545 1156.95 169.689H1154.6V175.305H1156.85V190.329C1156.85 194.457 1159.16 196.281 1163.09 196.281C1164.77 196.281 1165.83 196.185 1166.84 195.945V190.809C1166.36 190.905 1165.73 190.953 1165.2 190.953C1164.2 190.953 1163.38 190.665 1163.38 189.177V175.305H1167.12V169.689ZM1180.44 181.161C1179.24 180.537 1178.04 180.009 1176.84 179.433C1175.3 178.713 1174.78 177.897 1174.78 176.601C1174.78 175.497 1175.26 174.585 1176.74 174.585C1178.09 174.585 1178.52 175.353 1178.62 176.169C1178.66 176.361 1178.71 177.849 1178.71 178.137H1184.52C1184.52 177.609 1184.38 174.825 1184.23 174.057C1183.61 171.129 1181.16 169.305 1176.5 169.305C1171.42 169.305 1168.82 172.281 1168.82 176.457C1168.82 180.393 1169.98 182.841 1173.43 184.473C1174.39 184.905 1175.69 185.529 1176.5 185.865C1178.33 186.585 1178.95 187.497 1178.95 189.129C1178.95 190.617 1178.04 191.337 1176.84 191.337C1175.69 191.337 1174.78 190.857 1174.68 189.753C1174.63 188.937 1174.58 188.121 1174.58 187.785H1168.63C1168.63 188.601 1168.68 190.281 1168.78 191.145C1169.21 194.697 1171.61 196.473 1176.98 196.473C1181.74 196.473 1185.05 193.929 1185.05 188.937C1185.05 184.905 1183.8 182.841 1180.44 181.161Z" fill="white"/>
</g>
<path d="M809 0.707031H1224H809ZM1224 250.707H809H1224ZM808 250.707V0.707031H810V250.707H808ZM1224 0.707031V250.707V0.707031Z" fill="white" mask="url(#path-16-inside-3_2915_32586)"/>
<rect x="624.5" y="1.20703" width="599" height="249" rx="11.5" stroke="white"/>
<defs>
<clipPath id="clip0_2915_32586">
<path d="M185 0.707031H600V250.707H185V0.707031Z" fill="white"/>
</clipPath>
<clipPath id="clip1_2915_32586">
<rect x="530.467" y="14.0898" width="24" height="24" rx="4" fill="white"/>
</clipPath>
<clipPath id="clip2_2915_32586">
<path d="M809 0.707031H1224V250.707H809V0.707031Z" fill="white"/>
</clipPath>
<clipPath id="clip3_2915_32586">
<rect x="1154.47" y="14.0898" width="24" height="24" rx="4" fill="white"/>
</clipPath>
</defs>
</svg>
