<svg width="100%" height="auto" viewBox="0 0 1224 252" fill="none" xmlns="http://www.w3.org/2000/svg">
<path d="M123.76 98.227C122.64 89.427 116.08 82.547 109.2 81.267C115.76 79.347 120.4 72.467 121.2 64.307C121.68 59.187 122 49.747 121.36 42.707C120.4 32.307 112.4 21.747 91.92 21.747C71.12 21.747 64.24 31.827 62.96 42.707C62.48 47.027 62.8 61.587 63.12 64.947C63.92 74.387 69.04 79.827 74.32 81.107C69.52 82.547 62.48 87.347 61.04 97.267C59.76 105.747 59.76 122.387 60.4 127.507C62.32 143.667 70 151.987 91.92 151.987C111.92 151.987 122.96 143.027 123.92 127.507C124.4 119.667 124.56 105.107 123.76 98.227ZM91.92 72.947C88.4 72.947 86.16 71.987 85.2 67.347C84.72 64.947 84.72 48.787 85.04 46.867C85.68 42.707 88.72 40.947 91.92 40.947C95.44 40.947 98.16 42.547 98.96 46.867C99.44 48.947 99.44 62.227 98.96 67.507C98.64 71.667 95.6 72.947 91.92 72.947ZM91.92 132.947C87.44 132.947 84.24 130.227 83.6 125.747C82.96 121.427 82.96 103.187 83.6 98.867C84.24 93.747 87.76 91.827 91.92 91.827C96.4 91.827 99.6 93.747 100.4 98.707C101.04 103.187 101.04 120.307 100.4 125.907C99.76 130.387 96.56 132.947 91.92 132.947Z" fill="white"/>
<path d="M73.2044 185.035V180.715H67.5344V182.749H71.0084C71.0084 182.749 71.0264 184.801 70.9904 184.981C70.7564 186.043 69.8024 186.853 68.2724 186.853C67.0124 186.853 66.2384 186.529 65.7524 185.827C65.1764 184.981 65.0144 183.739 65.0144 181.633C65.0144 179.563 65.2664 178.213 65.7704 177.439C66.2564 176.719 67.0304 176.413 68.1104 176.413C69.1184 176.413 69.8204 176.719 70.2344 177.331C70.6124 177.907 70.8284 178.753 70.8284 179.239H73.1324C73.1324 178.609 72.9524 177.367 72.5204 176.503C71.8724 175.225 70.5224 174.271 68.0564 174.271C65.6804 174.271 64.3484 175.261 63.5924 176.431C62.8004 177.673 62.5664 179.383 62.5664 181.597C62.5664 184.171 62.9624 185.827 63.6464 186.907C64.4744 188.203 65.8784 188.887 67.7684 188.887C69.7124 188.887 70.7564 188.203 71.2424 187.483L71.3504 188.707H73.2224C73.2224 188.653 73.2044 186.745 73.2044 185.035ZM85.209 185.251L86.199 188.707H88.647L84.435 174.451H81.411L76.911 188.707H79.323L80.367 185.251H85.209ZM81.015 183.199C81.015 183.199 82.581 178.033 82.599 177.943C82.635 177.799 82.869 176.665 82.869 176.665C82.869 176.665 83.103 177.799 83.139 177.943C83.175 178.051 84.597 183.199 84.597 183.199H81.015ZM105.429 174.451H102.351L99.1468 185.053L95.9968 174.451H92.7388V188.707H94.9528V178.933L97.8868 188.707H100.209L103.197 178.897V188.707H105.429V174.451ZM119.504 186.547H113.006V182.641H119.144V180.463H113.006V176.611H119.432V174.451H110.666V188.707H119.504V186.547ZM58.9932 208.769C58.5972 208.625 57.7512 208.301 57.2472 208.139C55.5012 207.563 54.6372 207.005 54.6372 205.889C54.6372 204.935 55.2852 204.359 57.1032 204.359C58.6512 204.359 59.3712 204.791 59.6772 205.673C59.7852 205.997 59.8392 206.267 59.8392 206.573H62.2512C62.2512 206.033 62.1612 205.601 62.0352 205.169C61.5312 203.405 60.0912 202.289 57.1572 202.289C53.7912 202.289 52.2072 203.765 52.2072 205.961C52.2072 208.067 53.5932 209.327 55.7352 210.029C56.3292 210.227 57.1752 210.551 57.5352 210.677C59.4432 211.343 60.0192 211.919 60.0192 213.125C60.0192 214.205 59.2452 214.853 57.4272 214.853C55.8792 214.853 54.9792 214.457 54.7092 213.611C54.6012 213.269 54.5472 212.783 54.5472 212.531H52.1532C52.1532 212.945 52.1892 213.611 52.3152 214.097C52.7472 215.771 54.1872 216.887 57.4812 216.887C60.8112 216.887 62.4492 215.303 62.4492 212.927C62.4492 210.713 61.2252 209.543 58.9932 208.769ZM75.9467 202.451H65.8487V204.593H69.6827V216.707H72.0947V204.593H75.9467V202.451ZM89.3267 204.035C88.8227 203.027 87.8687 202.451 86.3027 202.451H80.0927V216.707H82.4327V210.767H85.5287L88.0127 216.707H90.6227L87.8147 210.245C88.4447 210.119 89.0207 209.669 89.3807 208.985C89.6507 208.445 89.7947 207.653 89.7947 206.573C89.7947 205.421 89.6867 204.719 89.3267 204.035ZM87.2387 208.103C87.0587 208.499 86.6087 208.715 85.9787 208.733H82.4507V204.575H85.7987C86.6087 204.575 87.1127 204.863 87.3107 205.403C87.4007 205.637 87.4367 206.267 87.4367 206.789C87.4367 207.221 87.3647 207.797 87.2387 208.103ZM103.799 214.547H97.301V210.641H103.439V208.463H97.301V204.611H103.727V202.451H94.961V216.707H103.799V214.547ZM115.656 213.251L116.646 216.707H119.094L114.882 202.451H111.858L107.358 216.707H109.77L110.814 213.251H115.656ZM111.462 211.199C111.462 211.199 113.028 206.033 113.046 205.943C113.082 205.799 113.316 204.665 113.316 204.665C113.316 204.665 113.55 205.799 113.586 205.943C113.622 206.051 115.044 211.199 115.044 211.199H111.462ZM128.244 208.607L133.374 202.451H130.71L125.562 208.517V202.451H123.186V216.707H125.562V211.613L126.606 210.389L130.674 216.707H133.482L128.244 208.607Z" fill="white"/>
<g clip-path="url(#clip0_2915_32595)">
<path d="M232.706 33.995C235.154 33.995 237.548 32.897 237.548 30.035C237.548 28.307 236.432 27.119 234.794 26.705V26.651C236.162 26.219 236.936 25.247 236.936 23.933C236.936 21.881 235.082 20.567 232.652 20.567C230.24 20.567 228.386 21.899 228.386 23.951C228.386 25.265 229.16 26.237 230.546 26.651V26.705C228.908 27.155 227.738 28.217 227.738 30.035C227.738 32.879 230.258 33.995 232.706 33.995ZM232.652 26.057C231.05 26.057 230.06 25.283 230.06 24.005C230.06 22.727 231.05 21.971 232.652 21.971C234.254 21.971 235.244 22.727 235.244 24.005C235.244 25.283 234.254 26.057 232.652 26.057ZM232.706 32.573C230.708 32.573 229.52 31.637 229.52 30.017C229.52 28.397 230.69 27.371 232.652 27.371C234.632 27.371 235.82 28.397 235.82 30.017C235.82 31.619 234.632 32.573 232.706 32.573ZM248.322 37.091C249.618 37.091 250.698 36.803 251.454 36.173C252.192 35.543 252.624 34.589 252.624 33.311V24.041H250.968V25.319H250.932C250.32 24.347 249.384 23.807 247.998 23.807C245.73 23.807 243.858 25.571 243.858 28.541C243.858 31.349 245.622 33.275 248.088 33.275C249.456 33.275 250.302 32.681 250.968 31.727H251.004C250.986 32.033 250.968 32.555 250.968 33.113V33.383C250.968 35.021 250.014 35.795 248.286 35.795C246.846 35.795 245.874 35.381 245.73 34.373H244.164C244.344 36.083 245.784 37.091 248.322 37.091ZM248.25 31.907C246.504 31.907 245.568 30.611 245.568 28.559C245.568 26.525 246.468 25.193 248.232 25.193C250.158 25.193 251.076 26.435 251.076 28.469C251.076 30.431 250.356 31.907 248.25 31.907ZM257.821 33.905C259.459 33.905 260.449 33.131 261.061 32.285H261.079C261.259 33.311 261.763 33.797 262.789 33.797C263.185 33.797 263.455 33.725 263.689 33.653V32.483H263.617C262.771 32.663 262.591 32.249 262.591 31.475V26.957C262.591 25.661 262.105 24.815 261.295 24.329C260.683 23.969 259.873 23.807 258.955 23.807C256.345 23.807 255.103 25.265 255.031 26.903H256.651C256.705 25.751 257.443 25.031 258.973 25.031C260.305 25.031 261.043 25.679 261.043 26.723C261.043 27.713 260.125 27.947 258.703 28.109C256.201 28.415 254.545 28.901 254.545 31.151C254.545 33.005 255.985 33.905 257.821 33.905ZM258.235 32.681C257.263 32.681 256.309 32.375 256.309 31.133C256.309 29.801 257.353 29.513 258.937 29.243C259.729 29.099 260.575 28.865 261.061 28.559V30.143C261.061 31.259 260.161 32.681 258.235 32.681ZM265.048 33.707H266.722V27.749C266.722 26.273 267.964 25.211 269.116 25.211C270.106 25.211 270.772 25.913 270.772 27.101V33.707H272.428V27.749C272.428 26.273 273.49 25.211 274.714 25.211C275.686 25.211 276.46 25.913 276.46 27.101V33.707H278.134V26.957C278.134 24.941 276.91 23.807 275.146 23.807C273.976 23.807 272.842 24.401 272.158 25.607H272.122C271.726 24.419 270.79 23.807 269.62 23.807C268.378 23.807 267.352 24.437 266.758 25.481H266.704V24.041H265.048V33.707ZM284.571 33.977C286.803 33.977 288.351 32.753 288.783 30.953H287.145C286.839 31.979 285.921 32.609 284.589 32.609C282.717 32.609 281.691 31.169 281.565 29.279H288.981C288.981 27.641 288.585 26.255 287.793 25.301C287.037 24.365 285.921 23.807 284.481 23.807C281.709 23.807 279.855 26.075 279.855 28.883C279.855 31.709 281.601 33.977 284.571 33.977ZM284.481 25.103C286.155 25.103 287.109 26.219 287.199 28.073H281.601C281.817 26.363 282.735 25.103 284.481 25.103ZM297.635 33.707H299.327L300.785 28.379C301.019 27.461 301.379 25.679 301.379 25.679H301.415C301.415 25.679 301.793 27.443 302.027 28.379L303.449 33.707H305.123L308.273 24.041H306.545L304.943 29.405C304.583 30.593 304.313 32.249 304.313 32.249H304.277C304.277 32.249 303.935 30.467 303.665 29.441L302.225 24.041H300.641L299.183 29.441C298.859 30.611 298.535 32.231 298.535 32.231H298.499C298.499 32.231 298.175 30.503 297.869 29.405L296.357 24.041H294.575L297.635 33.707ZM309.573 22.259H311.319V20.315H309.573V22.259ZM309.609 33.707H311.283V24.041H309.609V33.707ZM315.238 24.041H313.582V33.707H315.256V27.821C315.256 26.273 316.336 25.211 317.83 25.211C319.144 25.211 319.954 25.913 319.954 27.155V33.707H321.61V26.957C321.61 24.941 320.368 23.807 318.352 23.807C316.948 23.807 315.994 24.437 315.292 25.409H315.238V24.041ZM332.354 33.995C334.622 33.995 336.242 32.987 336.242 31.025C336.242 28.775 334.586 28.343 332.66 27.965C331.022 27.641 330.086 27.443 330.086 26.435C330.086 25.697 330.644 25.085 331.958 25.085C333.344 25.085 334.028 25.643 334.172 26.633H335.846C335.63 24.959 334.424 23.825 331.994 23.825C329.744 23.825 328.448 24.869 328.448 26.525C328.448 28.649 330.158 29.045 332.048 29.441C333.758 29.783 334.568 30.053 334.568 31.115C334.568 31.979 333.92 32.645 332.39 32.645C331.004 32.645 329.924 32.177 329.726 30.773H328.034C328.178 32.735 329.69 33.995 332.354 33.995ZM337.281 25.337H338.793V31.817C338.793 33.239 339.693 33.761 340.989 33.779C341.421 33.779 341.889 33.725 342.339 33.617V32.213H342.285C342.105 32.267 341.727 32.339 341.439 32.339C340.827 32.339 340.449 32.141 340.449 31.439V25.337H342.447V24.041H340.449V20.999H338.793V24.041H337.281V25.337ZM345.841 24.041H344.185V33.707H345.859V28.451C345.859 26.633 347.137 25.517 348.631 25.517C348.919 25.517 349.081 25.535 349.315 25.607H349.369V24.023C349.189 23.951 349.027 23.915 348.757 23.915C347.479 23.915 346.489 24.671 345.895 25.787H345.841V24.041ZM354.848 33.977C357.08 33.977 358.628 32.753 359.06 30.953H357.422C357.116 31.979 356.198 32.609 354.866 32.609C352.994 32.609 351.968 31.169 351.842 29.279H359.258C359.258 27.641 358.862 26.255 358.07 25.301C357.314 24.365 356.198 23.807 354.758 23.807C351.986 23.807 350.132 26.075 350.132 28.883C350.132 31.709 351.878 33.977 354.848 33.977ZM354.758 25.103C356.432 25.103 357.386 26.219 357.476 28.073H351.878C352.094 26.363 353.012 25.103 354.758 25.103ZM363.923 33.905C365.561 33.905 366.551 33.131 367.163 32.285H367.181C367.361 33.311 367.865 33.797 368.891 33.797C369.287 33.797 369.557 33.725 369.791 33.653V32.483H369.719C368.873 32.663 368.693 32.249 368.693 31.475V26.957C368.693 25.661 368.207 24.815 367.397 24.329C366.785 23.969 365.975 23.807 365.057 23.807C362.447 23.807 361.205 25.265 361.133 26.903H362.753C362.807 25.751 363.545 25.031 365.075 25.031C366.407 25.031 367.145 25.679 367.145 26.723C367.145 27.713 366.227 27.947 364.805 28.109C362.303 28.415 360.647 28.901 360.647 31.151C360.647 33.005 362.087 33.905 363.923 33.905ZM364.337 32.681C363.365 32.681 362.411 32.375 362.411 31.133C362.411 29.801 363.455 29.513 365.039 29.243C365.831 29.099 366.677 28.865 367.163 28.559V30.143C367.163 31.259 366.263 32.681 364.337 32.681ZM377.504 33.707H379.466L375.344 27.515L379.034 24.041H376.946L372.752 28.163C372.788 27.695 372.824 27.011 372.824 26.669V20.315H371.15V33.707H372.824V29.909L374.192 28.613L377.504 33.707ZM385.687 36.983H387.361V34.049C387.361 33.311 387.343 32.771 387.325 32.429H387.379C388.045 33.455 389.107 33.995 390.421 33.995C393.031 33.995 394.633 31.997 394.633 28.901C394.633 25.715 392.941 23.807 390.475 23.807C389.089 23.807 388.117 24.455 387.397 25.553H387.343V24.041H385.687V36.983ZM390.241 32.609C388.099 32.609 387.271 30.971 387.271 28.937C387.271 26.885 388.207 25.229 390.259 25.229C392.041 25.229 392.923 26.813 392.923 28.937C392.923 31.043 392.023 32.609 390.241 32.609ZM398.066 24.041H396.41V33.707H398.084V28.451C398.084 26.633 399.362 25.517 400.856 25.517C401.144 25.517 401.306 25.535 401.54 25.607H401.594V24.023C401.414 23.951 401.252 23.915 400.982 23.915C399.704 23.915 398.714 24.671 398.12 25.787H398.066V24.041ZM403.194 22.259H404.94V20.315H403.194V22.259ZM403.23 33.707H404.904V24.041H403.23V33.707ZM406.843 33.707H414.637V32.231H410.731C410.029 32.231 408.805 32.285 408.805 32.285V32.231C408.805 32.231 409.615 31.349 410.029 30.827L414.421 25.085V24.041H407.167V25.463H410.497C411.163 25.463 412.315 25.409 412.315 25.409V25.463C412.315 25.463 411.559 26.273 411.163 26.777L406.843 32.411V33.707ZM420.256 33.977C422.488 33.977 424.036 32.753 424.468 30.953H422.83C422.524 31.979 421.606 32.609 420.274 32.609C418.402 32.609 417.376 31.169 417.25 29.279H424.666C424.666 27.641 424.27 26.255 423.478 25.301C422.722 24.365 421.606 23.807 420.166 23.807C417.394 23.807 415.54 26.075 415.54 28.883C415.54 31.709 417.286 33.977 420.256 33.977ZM420.166 25.103C421.84 25.103 422.794 26.219 422.884 28.073H417.286C417.502 26.363 418.42 25.103 420.166 25.103Z" fill="white"/>
<g clip-path="url(#clip1_2915_32595)">
<path fill-rule="evenodd" clip-rule="evenodd" d="M554.113 31.0388C554.202 30.8927 554.246 30.7086 554.246 30.4863V21.7026C554.246 21.4803 554.202 21.2993 554.113 21.1596C554.024 21.0135 553.884 20.896 553.694 20.8071C553.16 20.5403 552.725 20.2323 552.389 19.883C552.046 19.5273 551.712 19.0287 551.388 18.3873C551.185 18.0252 550.89 17.8442 550.502 17.8442H534.431C534.043 17.8442 533.751 18.0252 533.554 18.3873C533.224 19.0287 532.891 19.5273 532.554 19.883C532.211 20.2323 531.773 20.5403 531.239 20.8071C531.049 20.896 530.909 21.0135 530.82 21.1596C530.731 21.2993 530.687 21.4803 530.687 21.7026V30.4863C530.687 30.7086 530.731 30.8927 530.82 31.0388C530.909 31.1785 531.049 31.2929 531.239 31.3818C531.773 31.6422 532.211 31.9502 532.554 32.3059C532.891 32.6552 533.224 33.1538 533.554 33.8016C533.751 34.1573 534.043 34.3351 534.431 34.3351H550.502C550.89 34.3351 551.185 34.1573 551.388 33.8016C551.712 33.1538 552.046 32.6552 552.389 32.3059C552.725 31.9502 553.16 31.6422 553.694 31.3818C553.884 31.2929 554.024 31.1785 554.113 31.0388ZM546.507 26.4202V27.2344C546.507 27.3749 546.393 27.4887 546.253 27.4887C546.112 27.4887 545.998 27.375 545.998 27.2344V26.4202H544.655V27.2344C544.655 27.3749 544.541 27.4887 544.4 27.4887C544.26 27.4887 544.146 27.375 544.146 27.2344V26.4202H542.803V27.2344C542.803 27.3749 542.689 27.4887 542.548 27.4887C542.408 27.4887 542.294 27.375 542.294 27.2344V26.4202H540.951V27.2344C540.951 27.3749 540.837 27.4887 540.696 27.4887C540.556 27.4887 540.442 27.375 540.442 27.2344V26.4202H539.099V27.2344C539.099 27.3749 538.985 27.4887 538.845 27.4887C538.704 27.4887 538.59 27.375 538.59 27.2344V26.4202H537.581L537.581 30.068C539.059 30.8678 540.749 31.3265 542.549 31.3265C544.348 31.3265 546.038 30.8675 547.517 30.068V26.4202H546.507ZM551.618 26.0895C551.619 25.0979 549.79 23.6146 548.534 22.7368V29.4429C549.79 28.5649 551.617 27.1819 551.618 26.0895ZM538.59 25.0977V25.9117L537.581 25.9115V22.1112C539.06 21.3117 540.75 20.8528 542.549 20.8528C544.348 20.8528 546.038 21.3115 547.517 22.1111V25.9117H546.507V25.0977C546.507 24.9572 546.393 24.8434 546.252 24.8434C546.112 24.8434 545.998 24.9572 545.998 25.0977V25.9117H544.655V25.0977C544.655 24.9572 544.541 24.8434 544.4 24.8434C544.26 24.8434 544.146 24.9572 544.146 25.0977V25.9117H542.803V25.0977C542.803 24.9572 542.689 24.8434 542.548 24.8434C542.408 24.8434 542.294 24.9572 542.294 25.0977V25.9117H540.951V25.0977C540.951 24.9572 540.837 24.8434 540.696 24.8434C540.556 24.8434 540.442 24.9572 540.442 25.0977V25.9117H539.099V25.0977C539.099 24.9572 538.985 24.8434 538.845 24.8434C538.704 24.8434 538.59 24.9572 538.59 25.0977ZM533.315 26.0895C533.315 25.0979 535.143 23.6146 536.399 22.7368V29.4429C535.143 28.5649 533.316 27.1819 533.315 26.0895Z" fill="white"/>
</g>
<path d="M600 50.4722H185V52.4722H600V50.4722Z" fill="white" mask="url(#path-6-inside-2_2915_32595)"/>
<path d="M252.28 91.4002H227.192V100.168H234.936V142.472H244.408V100.168H252.28V91.4002ZM279.342 107.272L276.526 133.128L272.814 107.272H264.046L260.782 133.128L257.518 107.272H248.814L255.15 142.472H265.39C265.39 142.472 267.63 129.992 268.334 125.832C268.398 125.448 268.462 122.184 268.462 122.184C268.462 122.184 268.654 125.448 268.718 125.832C269.422 129.864 271.598 142.472 271.598 142.472H281.71L287.854 107.272H279.342ZM310.485 113.992C309.333 109.96 306.261 106.824 299.925 106.824C293.589 106.824 290.453 110.28 289.429 113.8C288.533 116.808 288.085 121.032 288.085 124.808C288.085 128.712 288.597 133.448 289.173 135.56C290.389 139.976 294.037 142.92 299.797 142.92C305.877 142.92 309.141 140.04 310.421 135.56C311.189 133 311.573 128.648 311.573 124.808C311.573 121.032 311.253 116.616 310.485 113.992ZM302.869 133.448C302.677 134.792 301.461 135.944 299.861 135.944C298.325 135.944 297.173 135.112 296.917 133.512C296.597 131.848 296.533 127.688 296.533 124.936C296.533 122.312 296.597 118.024 296.917 116.552C297.301 114.952 298.197 114.056 299.861 114.056C301.589 114.056 302.485 114.76 302.869 116.424C303.125 117.768 303.253 122.248 303.253 124.936C303.253 127.624 303.317 130.376 302.869 133.448ZM350.022 91.4002H341.318V116.36L333.318 91.4002H324.422V142.472H333.126V117L341.19 142.472H350.022V91.4002ZM376.576 91.4002H353.984V142.472H363.328V121.16H375.552V112.584H363.328V100.168H376.576V91.4002ZM401.832 133.832H388.328V91.4002H378.984V142.472H401.832V133.832ZM440.162 130.568V113.608H426.146V121.672H431.33C431.33 121.672 431.394 129.992 431.33 131.08C431.202 133.704 429.666 135.048 427.298 135.048C425.186 135.048 424.098 133.96 423.65 131.656C422.882 127.624 422.882 120.968 422.882 117.064C422.882 112.904 422.946 106.76 423.586 102.344C423.906 100.168 425.314 99.2082 427.106 99.2082C429.09 99.2082 430.306 100.296 430.498 102.344C430.753 104.968 430.753 108.488 430.753 108.872H439.906C439.906 104.328 439.714 101.768 439.33 99.4642C438.562 94.8562 435.17 90.9522 426.914 90.9522C418.85 90.9522 415.458 95.4962 414.37 99.5922C413.218 104.008 413.09 111.752 413.09 117.064C413.09 122.568 413.282 129.736 414.37 134.344C415.714 139.976 419.746 142.92 425.122 142.92C429.026 142.92 431.65 141.832 432.93 140.168L433.378 142.472H440.29C440.29 142.408 440.162 136.456 440.162 130.568ZM464.929 136.2C464.929 133.576 464.993 129.288 464.993 126.536C465.057 123.272 465.121 117.96 464.993 114.888C464.801 109.96 461.729 106.824 454.369 106.824C446.561 106.824 443.361 110.344 443.361 116.936V119.56H451.297V117.576C451.297 115.144 452.065 113.928 454.241 113.928C455.841 113.928 456.673 114.824 456.737 116.36C456.801 117.448 456.801 119.624 456.801 120.584C455.393 120.584 453.921 120.776 452.321 121.032C446.433 122.12 442.465 125.32 442.145 130.44C442.017 132.296 442.081 135.304 442.145 136.072C442.401 141.192 446.305 142.728 449.825 142.728C452.961 142.728 455.329 141.896 456.929 139.912C456.929 140.808 457.121 142.472 457.249 142.472H465.377C465.057 142.024 464.929 138.76 464.929 136.2ZM456.801 129.032C456.673 130.824 456.801 131.72 456.481 133.576C456.161 135.368 454.625 136.072 453.281 136.072C452.001 136.072 450.977 135.624 450.785 134.408C450.657 133.384 450.657 132.168 450.657 131.208C450.657 129.736 450.72 128.712 451.809 127.752C452.769 126.92 453.857 126.728 454.753 126.536C455.521 126.408 456.161 126.408 456.801 126.408C456.801 126.92 456.865 128.328 456.801 129.032ZM502.916 142.472C502.98 142.472 502.852 141.448 502.852 114.184C502.852 109.768 500.932 106.76 496.068 106.76C492.804 106.76 490.308 108.168 489.22 110.856C488.324 108.36 486.468 106.76 483.268 106.76C479.556 106.76 477.252 108.424 476.42 110.6V107.272H468.164V142.472H476.612V117.512C476.612 115.784 477.636 114.184 479.364 114.184C480.836 114.184 481.54 115.144 481.54 116.68V142.472H489.796V117.256C489.796 115.656 490.756 114.184 492.42 114.184C494.212 114.184 494.66 115.4 494.66 116.808C494.66 141.448 494.66 142.472 494.724 142.472H502.916ZM520.31 131.016C520.31 131.912 520.182 133 519.926 134.088C519.606 135.496 518.262 136.072 516.982 136.072C515.702 136.072 514.23 135.304 514.038 133.576C513.845 131.976 513.782 129.416 513.782 127.816H528.31C528.63 121.8 528.182 115.656 526.966 112.648C525.494 109.064 522.102 106.824 517.174 106.824C511.094 106.824 508.406 109.576 507.126 112.712C506.166 115.016 505.462 119.752 505.462 125.064C505.462 130.504 505.91 134.536 507.382 137.928C508.918 141.512 512.566 142.92 517.302 142.92C522.038 142.92 524.918 141 526.454 138.248C527.798 135.88 528.118 132.04 528.118 131.016H520.31ZM513.654 121.544C513.654 119.112 513.718 116.808 514.166 115.72C514.614 114.504 515.638 113.864 517.046 113.864C518.518 113.864 519.478 114.568 519.798 115.784C520.054 116.616 520.246 118.344 520.246 121.544H513.654ZM252.28 155.4H227.192V164.168H234.936V206.472H244.408V164.168H252.28V155.4ZM261.812 160.776H252.788V169.416H261.812V160.776ZM261.684 203.912V171.272H252.916V204.04C252.916 205.448 252.916 206.472 253.236 206.472H261.876C261.812 206.408 261.684 205.256 261.684 203.912ZM286.414 177.224C285.262 173.576 282.574 170.824 275.982 170.824C270.99 170.824 267.406 173.064 266.126 176.84C264.846 180.68 264.462 183.752 264.462 188.872C264.462 194.184 265.23 199.496 266.254 201.8C267.661 205 271.054 206.92 276.11 206.92C281.294 206.92 284.622 204.616 285.774 201.672C286.99 198.6 287.054 197.128 287.054 192.328H279.118C279.118 194.568 279.118 195.272 278.862 197.128C278.67 198.6 277.774 199.752 276.11 199.752C274.446 199.752 273.614 198.984 273.358 197.192C272.974 194.568 272.845 190.984 272.845 188.936C272.845 186.376 272.974 183.176 273.358 180.68C273.614 178.952 274.51 178.056 276.046 178.056C277.838 178.056 278.478 179.208 278.67 180.616C278.862 181.96 279.054 183.56 279.054 185.608H287.054C287.054 181.32 286.862 178.76 286.414 177.224ZM306.499 184.072L313.155 171.272H304.835L297.987 184.776V155.336H289.539V206.472H297.987V195.912L300.483 191.88L304.899 206.472H313.475L306.499 184.072ZM328.185 195.016C328.185 195.912 328.057 197 327.801 198.088C327.481 199.496 326.137 200.072 324.857 200.072C323.577 200.072 322.105 199.304 321.913 197.576C321.72 195.976 321.657 193.416 321.657 191.816H336.185C336.505 185.8 336.057 179.656 334.841 176.648C333.369 173.064 329.977 170.824 325.049 170.824C318.969 170.824 316.281 173.576 315.001 176.712C314.041 179.016 313.337 183.752 313.337 189.064C313.337 194.504 313.785 198.536 315.257 201.928C316.793 205.512 320.441 206.92 325.177 206.92C329.913 206.92 332.793 205 334.329 202.248C335.673 199.88 335.993 196.04 335.993 195.016H328.185ZM321.529 185.544C321.529 183.112 321.593 180.808 322.041 179.72C322.489 178.504 323.513 177.864 324.921 177.864C326.393 177.864 327.353 178.568 327.673 179.784C327.929 180.616 328.121 182.344 328.121 185.544H321.529ZM353.832 171.272H348.904V164.488L340.584 164.68C340.584 164.68 340.328 171.08 340.264 171.272H337.128V178.76H340.136V198.792C340.136 204.296 343.208 206.728 348.456 206.728C350.696 206.728 352.104 206.6 353.448 206.28V199.432C352.808 199.56 351.976 199.624 351.272 199.624C349.928 199.624 348.84 199.24 348.84 197.256V178.76H353.832V171.272ZM370.947 186.568C369.347 185.736 367.747 185.032 366.147 184.264C364.099 183.304 363.395 182.216 363.395 180.488C363.395 179.016 364.035 177.8 366.019 177.8C367.811 177.8 368.387 178.824 368.515 179.912C368.579 180.168 368.643 182.152 368.643 182.536H376.387C376.387 181.832 376.195 178.12 376.003 177.096C375.171 173.192 371.907 170.76 365.699 170.76C358.915 170.76 355.459 174.728 355.459 180.296C355.459 185.544 356.995 188.808 361.603 190.984C362.883 191.56 364.611 192.392 365.699 192.84C368.131 193.8 368.963 195.016 368.963 197.192C368.963 199.176 367.747 200.136 366.147 200.136C364.611 200.136 363.395 199.496 363.267 198.024C363.203 196.936 363.139 195.848 363.139 195.4H355.203C355.203 196.488 355.267 198.728 355.395 199.88C355.971 204.616 359.171 206.984 366.339 206.984C372.675 206.984 377.091 203.592 377.091 196.936C377.091 191.56 375.427 188.808 370.947 186.568Z" fill="white"/>
</g>
<path d="M185 0.707031H600H185ZM600 251.472H185H600ZM184 251.472V0.707031H186V251.472H184ZM600 0.707031V251.472V0.707031Z" fill="white" mask="url(#path-4-inside-1_2915_32595)"/>
<rect x="0.5" y="1.20703" width="599" height="249.765" rx="11.5" stroke="white"/>
<path d="M744.94 30.027H687.98V51.147H721.42L694.38 157.707H718.7L744.94 48.747V30.027Z" fill="white"/>
<path d="M697.204 192.035V187.715H691.534V189.749H695.008C695.008 189.749 695.026 191.801 694.99 191.981C694.756 193.043 693.802 193.853 692.272 193.853C691.012 193.853 690.238 193.529 689.752 192.827C689.176 191.981 689.014 190.739 689.014 188.633C689.014 186.563 689.266 185.213 689.77 184.439C690.256 183.719 691.03 183.413 692.11 183.413C693.118 183.413 693.82 183.719 694.234 184.331C694.612 184.907 694.828 185.753 694.828 186.239H697.132C697.132 185.609 696.952 184.367 696.52 183.503C695.872 182.225 694.522 181.271 692.056 181.271C689.68 181.271 688.348 182.261 687.592 183.431C686.8 184.673 686.566 186.383 686.566 188.597C686.566 191.171 686.962 192.827 687.646 193.907C688.474 195.203 689.878 195.887 691.768 195.887C693.712 195.887 694.756 195.203 695.242 194.483L695.35 195.707H697.222C697.222 195.653 697.204 193.745 697.204 192.035ZM709.209 192.251L710.199 195.707H712.647L708.435 181.451H705.411L700.911 195.707H703.323L704.367 192.251H709.209ZM705.015 190.199C705.015 190.199 706.581 185.033 706.599 184.943C706.635 184.799 706.869 183.665 706.869 183.665C706.869 183.665 707.103 184.799 707.139 184.943C707.175 185.051 708.597 190.199 708.597 190.199H705.015ZM729.429 181.451H726.351L723.147 192.053L719.997 181.451H716.739V195.707H718.953V185.933L721.887 195.707H724.209L727.197 185.897V195.707H729.429V181.451ZM743.504 193.547H737.006V189.641H743.144V187.463H737.006V183.611H743.432V181.451H734.666V195.707H743.504V193.547ZM682.993 215.769C682.597 215.625 681.751 215.301 681.247 215.139C679.501 214.563 678.637 214.005 678.637 212.889C678.637 211.935 679.285 211.359 681.103 211.359C682.651 211.359 683.371 211.791 683.677 212.673C683.785 212.997 683.839 213.267 683.839 213.573H686.251C686.251 213.033 686.161 212.601 686.035 212.169C685.531 210.405 684.091 209.289 681.157 209.289C677.791 209.289 676.207 210.765 676.207 212.961C676.207 215.067 677.593 216.327 679.735 217.029C680.329 217.227 681.175 217.551 681.535 217.677C683.443 218.343 684.019 218.919 684.019 220.125C684.019 221.205 683.245 221.853 681.427 221.853C679.879 221.853 678.979 221.457 678.709 220.611C678.601 220.269 678.547 219.783 678.547 219.531H676.153C676.153 219.945 676.189 220.611 676.315 221.097C676.747 222.771 678.187 223.887 681.481 223.887C684.811 223.887 686.449 222.303 686.449 219.927C686.449 217.713 685.225 216.543 682.993 215.769ZM699.947 209.451H689.849V211.593H693.683V223.707H696.095V211.593H699.947V209.451ZM713.327 211.035C712.823 210.027 711.869 209.451 710.303 209.451H704.093V223.707H706.433V217.767H709.529L712.013 223.707H714.623L711.815 217.245C712.445 217.119 713.021 216.669 713.381 215.985C713.651 215.445 713.795 214.653 713.795 213.573C713.795 212.421 713.687 211.719 713.327 211.035ZM711.239 215.103C711.059 215.499 710.609 215.715 709.979 215.733H706.451V211.575H709.799C710.609 211.575 711.113 211.863 711.311 212.403C711.401 212.637 711.437 213.267 711.437 213.789C711.437 214.221 711.365 214.797 711.239 215.103ZM727.799 221.547H721.301V217.641H727.439V215.463H721.301V211.611H727.727V209.451H718.961V223.707H727.799V221.547ZM739.656 220.251L740.646 223.707H743.094L738.882 209.451H735.858L731.358 223.707H733.77L734.814 220.251H739.656ZM735.462 218.199C735.462 218.199 737.028 213.033 737.046 212.943C737.082 212.799 737.316 211.665 737.316 211.665C737.316 211.665 737.55 212.799 737.586 212.943C737.622 213.051 739.044 218.199 739.044 218.199H735.462ZM752.244 215.607L757.374 209.451H754.71L749.562 215.517V209.451H747.186V223.707H749.562V218.613L750.606 217.389L754.674 223.707H757.482L752.244 215.607Z" fill="white"/>
<g clip-path="url(#clip2_2915_32595)">
<path d="M853.394 33.707H855.23C855.482 28.685 858.002 24.581 860.594 22.277V20.891H851.576V22.421H856.562C857.912 22.421 858.92 22.349 858.92 22.349V22.385C856.022 24.725 853.664 29.207 853.394 33.707ZM871.004 37.091C872.3 37.091 873.38 36.803 874.136 36.173C874.874 35.543 875.306 34.589 875.306 33.311V24.041H873.65V25.319H873.614C873.002 24.347 872.066 23.807 870.68 23.807C868.412 23.807 866.54 25.571 866.54 28.541C866.54 31.349 868.304 33.275 870.77 33.275C872.138 33.275 872.984 32.681 873.65 31.727H873.686C873.668 32.033 873.65 32.555 873.65 33.113V33.383C873.65 35.021 872.696 35.795 870.968 35.795C869.528 35.795 868.556 35.381 868.412 34.373H866.846C867.026 36.083 868.466 37.091 871.004 37.091ZM870.932 31.907C869.186 31.907 868.25 30.611 868.25 28.559C868.25 26.525 869.15 25.193 870.914 25.193C872.84 25.193 873.758 26.435 873.758 28.469C873.758 30.431 873.038 31.907 870.932 31.907ZM880.503 33.905C882.141 33.905 883.131 33.131 883.743 32.285H883.761C883.941 33.311 884.445 33.797 885.471 33.797C885.867 33.797 886.137 33.725 886.371 33.653V32.483H886.299C885.453 32.663 885.273 32.249 885.273 31.475V26.957C885.273 25.661 884.787 24.815 883.977 24.329C883.365 23.969 882.555 23.807 881.637 23.807C879.027 23.807 877.785 25.265 877.713 26.903H879.333C879.387 25.751 880.125 25.031 881.655 25.031C882.987 25.031 883.725 25.679 883.725 26.723C883.725 27.713 882.807 27.947 881.385 28.109C878.883 28.415 877.227 28.901 877.227 31.151C877.227 33.005 878.667 33.905 880.503 33.905ZM880.917 32.681C879.945 32.681 878.991 32.375 878.991 31.133C878.991 29.801 880.035 29.513 881.619 29.243C882.411 29.099 883.257 28.865 883.743 28.559V30.143C883.743 31.259 882.843 32.681 880.917 32.681ZM887.73 33.707H889.404V27.749C889.404 26.273 890.646 25.211 891.798 25.211C892.788 25.211 893.454 25.913 893.454 27.101V33.707H895.11V27.749C895.11 26.273 896.172 25.211 897.396 25.211C898.368 25.211 899.142 25.913 899.142 27.101V33.707H900.816V26.957C900.816 24.941 899.592 23.807 897.828 23.807C896.658 23.807 895.524 24.401 894.84 25.607H894.804C894.408 24.419 893.472 23.807 892.302 23.807C891.06 23.807 890.034 24.437 889.44 25.481H889.386V24.041H887.73V33.707ZM907.252 33.977C909.484 33.977 911.032 32.753 911.464 30.953H909.826C909.52 31.979 908.602 32.609 907.27 32.609C905.398 32.609 904.372 31.169 904.246 29.279H911.662C911.662 27.641 911.266 26.255 910.474 25.301C909.718 24.365 908.602 23.807 907.162 23.807C904.39 23.807 902.536 26.075 902.536 28.883C902.536 31.709 904.282 33.977 907.252 33.977ZM907.162 25.103C908.836 25.103 909.79 26.219 909.88 28.073H904.282C904.498 26.363 905.416 25.103 907.162 25.103ZM920.316 33.707H922.008L923.466 28.379C923.7 27.461 924.06 25.679 924.06 25.679H924.096C924.096 25.679 924.474 27.443 924.708 28.379L926.13 33.707H927.804L930.954 24.041H929.226L927.624 29.405C927.264 30.593 926.994 32.249 926.994 32.249H926.958C926.958 32.249 926.616 30.467 926.346 29.441L924.906 24.041H923.322L921.864 29.441C921.54 30.611 921.216 32.231 921.216 32.231H921.18C921.18 32.231 920.856 30.503 920.55 29.405L919.038 24.041H917.256L920.316 33.707ZM932.255 22.259H934.001V20.315H932.255V22.259ZM932.291 33.707H933.965V24.041H932.291V33.707ZM937.919 24.041H936.263V33.707H937.937V27.821C937.937 26.273 939.017 25.211 940.511 25.211C941.825 25.211 942.635 25.913 942.635 27.155V33.707H944.291V26.957C944.291 24.941 943.049 23.807 941.033 23.807C939.629 23.807 938.675 24.437 937.973 25.409H937.919V24.041ZM955.036 33.995C957.304 33.995 958.924 32.987 958.924 31.025C958.924 28.775 957.268 28.343 955.342 27.965C953.704 27.641 952.768 27.443 952.768 26.435C952.768 25.697 953.326 25.085 954.64 25.085C956.026 25.085 956.71 25.643 956.854 26.633H958.528C958.312 24.959 957.106 23.825 954.676 23.825C952.426 23.825 951.13 24.869 951.13 26.525C951.13 28.649 952.84 29.045 954.73 29.441C956.44 29.783 957.25 30.053 957.25 31.115C957.25 31.979 956.602 32.645 955.072 32.645C953.686 32.645 952.606 32.177 952.408 30.773H950.716C950.86 32.735 952.372 33.995 955.036 33.995ZM959.962 25.337H961.474V31.817C961.474 33.239 962.374 33.761 963.67 33.779C964.102 33.779 964.57 33.725 965.02 33.617V32.213H964.966C964.786 32.267 964.408 32.339 964.12 32.339C963.508 32.339 963.13 32.141 963.13 31.439V25.337H965.128V24.041H963.13V20.999H961.474V24.041H959.962V25.337ZM968.523 24.041H966.867V33.707H968.541V28.451C968.541 26.633 969.819 25.517 971.313 25.517C971.601 25.517 971.763 25.535 971.997 25.607H972.051V24.023C971.871 23.951 971.709 23.915 971.439 23.915C970.161 23.915 969.171 24.671 968.577 25.787H968.523V24.041ZM977.53 33.977C979.762 33.977 981.31 32.753 981.742 30.953H980.104C979.798 31.979 978.88 32.609 977.548 32.609C975.676 32.609 974.65 31.169 974.524 29.279H981.94C981.94 27.641 981.544 26.255 980.752 25.301C979.996 24.365 978.88 23.807 977.44 23.807C974.668 23.807 972.814 26.075 972.814 28.883C972.814 31.709 974.56 33.977 977.53 33.977ZM977.44 25.103C979.114 25.103 980.068 26.219 980.158 28.073H974.56C974.776 26.363 975.694 25.103 977.44 25.103ZM986.604 33.905C988.242 33.905 989.232 33.131 989.844 32.285H989.862C990.042 33.311 990.546 33.797 991.572 33.797C991.968 33.797 992.238 33.725 992.472 33.653V32.483H992.4C991.554 32.663 991.374 32.249 991.374 31.475V26.957C991.374 25.661 990.888 24.815 990.078 24.329C989.466 23.969 988.656 23.807 987.738 23.807C985.128 23.807 983.886 25.265 983.814 26.903H985.434C985.488 25.751 986.226 25.031 987.756 25.031C989.088 25.031 989.826 25.679 989.826 26.723C989.826 27.713 988.908 27.947 987.486 28.109C984.984 28.415 983.328 28.901 983.328 31.151C983.328 33.005 984.768 33.905 986.604 33.905ZM987.018 32.681C986.046 32.681 985.092 32.375 985.092 31.133C985.092 29.801 986.136 29.513 987.72 29.243C988.512 29.099 989.358 28.865 989.844 28.559V30.143C989.844 31.259 988.944 32.681 987.018 32.681ZM1000.19 33.707H1002.15L998.026 27.515L1001.72 24.041H999.628L995.434 28.163C995.47 27.695 995.506 27.011 995.506 26.669V20.315H993.832V33.707H995.506V29.909L996.874 28.613L1000.19 33.707ZM1008.37 36.983H1010.04V34.049C1010.04 33.311 1010.02 32.771 1010.01 32.429H1010.06C1010.73 33.455 1011.79 33.995 1013.1 33.995C1015.71 33.995 1017.31 31.997 1017.31 28.901C1017.31 25.715 1015.62 23.807 1013.16 23.807C1011.77 23.807 1010.8 24.455 1010.08 25.553H1010.02V24.041H1008.37V36.983ZM1012.92 32.609C1010.78 32.609 1009.95 30.971 1009.95 28.937C1009.95 26.885 1010.89 25.229 1012.94 25.229C1014.72 25.229 1015.6 26.813 1015.6 28.937C1015.6 31.043 1014.7 32.609 1012.92 32.609ZM1020.75 24.041H1019.09V33.707H1020.77V28.451C1020.77 26.633 1022.04 25.517 1023.54 25.517C1023.83 25.517 1023.99 25.535 1024.22 25.607H1024.28V24.023C1024.1 23.951 1023.93 23.915 1023.66 23.915C1022.39 23.915 1021.4 24.671 1020.8 25.787H1020.75V24.041ZM1025.88 22.259H1027.62V20.315H1025.88V22.259ZM1025.91 33.707H1027.59V24.041H1025.91V33.707ZM1029.52 33.707H1037.32V32.231H1033.41C1032.71 32.231 1031.49 32.285 1031.49 32.285V32.231C1031.49 32.231 1032.3 31.349 1032.71 30.827L1037.1 25.085V24.041H1029.85V25.463H1033.18C1033.84 25.463 1035 25.409 1035 25.409V25.463C1035 25.463 1034.24 26.273 1033.84 26.777L1029.52 32.411V33.707ZM1042.94 33.977C1045.17 33.977 1046.72 32.753 1047.15 30.953H1045.51C1045.21 31.979 1044.29 32.609 1042.96 32.609C1041.08 32.609 1040.06 31.169 1039.93 29.279H1047.35C1047.35 27.641 1046.95 26.255 1046.16 25.301C1045.4 24.365 1044.29 23.807 1042.85 23.807C1040.08 23.807 1038.22 26.075 1038.22 28.883C1038.22 31.709 1039.97 33.977 1042.94 33.977ZM1042.85 25.103C1044.52 25.103 1045.48 26.219 1045.57 28.073H1039.97C1040.18 26.363 1041.1 25.103 1042.85 25.103Z" fill="white"/>
<g clip-path="url(#clip3_2915_32595)">
<path d="M1174.41 26.6143V33.5618C1174.41 33.8409 1174.3 34.1086 1174.1 34.306C1173.9 34.5034 1173.64 34.6143 1173.36 34.6143H1158.62C1158.34 34.6143 1158.08 34.5034 1157.88 34.306C1157.68 34.1086 1157.57 33.8409 1157.57 33.5618V26.6143H1174.41ZM1168.62 14.6179C1169.24 14.6176 1169.86 14.7748 1170.4 15.0745C1170.94 15.3743 1171.4 15.8071 1171.74 16.3324C1172.07 16.8578 1172.26 17.4587 1172.3 18.0792C1172.34 18.6997 1172.22 19.3196 1171.95 19.8811L1175.46 19.8801C1175.74 19.8801 1176.01 19.991 1176.21 20.1883C1176.4 20.3857 1176.52 20.6534 1176.52 20.9325V24.0898C1176.52 24.369 1176.4 24.6367 1176.21 24.834C1176.01 25.0314 1175.74 25.1423 1175.46 25.1423H1156.52C1156.24 25.1423 1155.97 25.0314 1155.77 24.834C1155.58 24.6367 1155.47 24.369 1155.47 24.0898V20.9325C1155.47 20.6534 1155.58 20.3857 1155.77 20.1883C1155.97 19.991 1156.24 19.8801 1156.52 19.8801L1160.03 19.8811C1159.66 19.0935 1159.57 18.1985 1159.8 17.3553C1160.02 16.512 1160.53 15.7754 1161.25 15.2764C1161.97 14.7775 1162.83 14.5486 1163.7 14.6306C1164.57 14.7125 1165.38 15.1 1165.99 15.724C1166.33 15.373 1166.74 15.0943 1167.19 14.9043C1167.65 14.7143 1168.13 14.6169 1168.62 14.6179ZM1163.36 16.7227C1162.95 16.7229 1162.56 16.8791 1162.27 17.1589C1161.98 17.4387 1161.8 17.8206 1161.78 18.2255C1161.76 18.6305 1161.9 19.0274 1162.17 19.3341C1162.43 19.6407 1162.8 19.8336 1163.21 19.8727L1163.36 19.8801H1164.94V18.3014C1164.94 17.909 1164.79 17.5306 1164.53 17.2401C1164.26 16.9496 1163.9 16.7678 1163.51 16.7301L1163.36 16.7227ZM1168.62 16.7227L1168.47 16.7301C1168.11 16.7651 1167.76 16.9258 1167.51 17.1849C1167.25 17.4439 1167.08 17.7851 1167.05 18.1499L1167.04 18.3014V19.8801H1168.62L1168.77 19.8727C1169.16 19.8348 1169.53 19.6529 1169.79 19.3625C1170.05 19.072 1170.2 18.6937 1170.2 18.3014C1170.2 17.9091 1170.05 17.5308 1169.79 17.2403C1169.53 16.9499 1169.16 16.768 1168.77 16.7301L1168.62 16.7227Z" fill="white"/>
</g>
<path d="M1224 50.4722H809V52.4722H1224V50.4722Z" fill="white" mask="url(#path-17-inside-4_2915_32595)"/>
<path d="M865.688 120.074C864.968 119.402 863.144 117.77 862.184 116.906C860.024 114.938 858.392 113.066 858.392 110.426C858.392 108.41 859.304 107.546 861.176 107.546C863 107.546 863.672 108.506 863.864 110.042C864.008 111.29 864.056 112.202 864.056 113.162H870.776C870.776 112.058 870.584 110.042 870.488 109.226C869.912 104.858 867.32 101.402 861.224 101.402C855.176 101.402 851.528 105.002 851.528 110.57C851.528 115.754 853.352 118.202 856.808 121.226C857.816 122.09 859.784 123.866 860.264 124.298C863.096 126.842 864.056 128.522 864.056 131.738C864.056 133.658 863.048 134.714 861.176 134.714C859.448 134.714 858.584 133.85 858.392 132.602C858.344 132.314 858.296 130.97 858.296 129.194H851.624C851.624 131.498 851.576 131.978 851.72 133.754C852.056 138.026 855.32 140.522 861.368 140.522C867.128 140.522 870.968 137.066 870.968 131.114C870.968 125.978 869.144 123.338 865.688 120.074ZM890.151 119.786C890.151 115.178 887.895 113.354 884.631 113.354C881.991 113.354 880.503 114.362 879.783 116.138V101.738H873.447V140.09H879.783V121.706C879.783 119.882 880.695 118.97 881.943 118.97C883.335 118.97 883.767 119.738 883.767 120.938C883.767 139.37 883.767 140.09 883.815 140.09H890.247C890.199 140.09 890.151 139.37 890.151 119.786ZM909.277 118.73C908.413 115.706 906.109 113.354 901.357 113.354C896.605 113.354 894.253 115.946 893.485 118.586C892.813 120.842 892.477 124.01 892.477 126.842C892.477 129.77 892.861 133.322 893.293 134.906C894.205 138.218 896.941 140.426 901.261 140.426C905.821 140.426 908.269 138.266 909.229 134.906C909.805 132.986 910.093 129.722 910.093 126.842C910.093 124.01 909.853 120.698 909.277 118.73ZM903.565 133.322C903.421 134.33 902.509 135.194 901.309 135.194C900.157 135.194 899.293 134.57 899.101 133.37C898.861 132.122 898.813 129.002 898.813 126.938C898.813 124.97 898.861 121.754 899.101 120.65C899.389 119.45 900.061 118.778 901.309 118.778C902.605 118.778 903.277 119.306 903.565 120.554C903.757 121.562 903.853 124.922 903.853 126.938C903.853 128.954 903.901 131.018 903.565 133.322ZM929.121 117.05C928.209 114.458 926.481 113.354 923.745 113.354C921.297 113.354 919.521 114.266 918.801 115.706L918.753 113.69H912.657V147.914H918.945V138.602C919.809 139.466 921.249 140.138 923.505 140.138C926.481 140.138 928.401 138.698 929.361 135.722C929.937 133.898 930.273 130.25 930.273 126.458C930.273 122.474 929.889 119.114 929.121 117.05ZM923.409 133.13C923.217 134.09 922.545 135.002 921.297 135.002C920.193 135.002 919.473 134.426 919.281 133.178C918.993 131.402 918.897 129.674 918.897 126.65C918.897 123.914 919.089 121.946 919.425 120.554C919.665 119.594 920.193 118.826 921.345 118.826C922.497 118.826 923.073 119.402 923.313 120.266C923.697 121.706 923.793 123.866 923.793 126.65C923.793 129.77 923.697 131.498 923.409 133.13ZM953.466 129.626C953.466 127.226 953.178 124.442 952.314 122.906C951.45 121.322 950.25 120.554 948.378 120.314C949.962 120.026 951.018 119.354 951.738 117.866C952.65 115.946 952.794 113.498 952.794 110.954C952.794 108.554 952.506 106.25 951.594 104.666C950.442 102.65 948.282 101.786 945.066 101.786H932.97V140.09H944.346C947.898 140.09 950.154 139.61 951.786 137.402C953.082 135.626 953.466 132.554 953.466 129.626ZM945.018 116.906C944.586 117.818 944.058 118.202 943.53 118.202H939.834V107.498H943.05C944.058 107.498 944.634 108.074 944.97 108.89C945.258 109.61 945.546 111.146 945.546 112.682C945.546 114.554 945.306 116.282 945.018 116.906ZM943.242 134.378H939.834V123.578H943.386C944.298 123.578 945.018 124.154 945.45 124.922C945.786 125.546 945.978 127.61 945.978 128.858C945.978 130.058 945.834 132.314 945.498 133.034C945.066 133.994 944.154 134.378 943.242 134.378ZM966.695 131.498C966.695 132.17 966.599 132.986 966.407 133.802C966.167 134.858 965.159 135.29 964.199 135.29C963.239 135.29 962.135 134.714 961.991 133.418C961.847 132.218 961.799 130.298 961.799 129.098H972.695C972.935 124.586 972.599 119.978 971.687 117.722C970.583 115.034 968.039 113.354 964.343 113.354C959.783 113.354 957.767 115.418 956.807 117.77C956.087 119.498 955.559 123.05 955.559 127.034C955.559 131.114 955.895 134.138 956.999 136.682C958.151 139.37 960.887 140.426 964.439 140.426C967.991 140.426 970.151 138.986 971.303 136.922C972.311 135.146 972.551 132.266 972.551 131.498H966.695ZM961.703 124.394C961.703 122.57 961.751 120.842 962.087 120.026C962.423 119.114 963.191 118.634 964.247 118.634C965.351 118.634 966.071 119.162 966.311 120.074C966.503 120.698 966.647 121.994 966.647 124.394H961.703ZM985.69 131.498C985.69 132.17 985.594 132.986 985.402 133.802C985.162 134.858 984.154 135.29 983.194 135.29C982.234 135.29 981.13 134.714 980.986 133.418C980.842 132.218 980.794 130.298 980.794 129.098H991.69C991.93 124.586 991.594 119.978 990.682 117.722C989.578 115.034 987.034 113.354 983.338 113.354C978.778 113.354 976.762 115.418 975.802 117.77C975.082 119.498 974.554 123.05 974.554 127.034C974.554 131.114 974.89 134.138 975.994 136.682C977.146 139.37 979.882 140.426 983.434 140.426C986.986 140.426 989.146 138.986 990.298 136.922C991.306 135.146 991.546 132.266 991.546 131.498H985.69ZM980.698 124.394C980.698 122.57 980.746 120.842 981.082 120.026C981.418 119.114 982.186 118.634 983.242 118.634C984.346 118.634 985.066 119.162 985.306 120.074C985.498 120.698 985.642 121.994 985.642 124.394H980.698ZM1005.07 113.354C1002.86 113.354 1000.65 114.794 1000.37 116.81V113.69H994.03V140.09H1000.46V124.442C1000.46 120.122 1001.81 119.162 1004.01 119.162C1005.31 119.162 1006.61 119.402 1007.37 119.642V113.594C1006.85 113.402 1006.08 113.354 1005.07 113.354ZM1028.91 131.162V118.442H1018.4V124.49H1022.29C1022.29 124.49 1022.34 130.73 1022.29 131.546C1022.19 133.514 1021.04 134.522 1019.27 134.522C1017.68 134.522 1016.87 133.706 1016.53 131.978C1015.95 128.954 1015.95 123.962 1015.95 121.034C1015.95 117.914 1016 113.306 1016.48 109.994C1016.72 108.362 1017.78 107.642 1019.12 107.642C1020.61 107.642 1021.52 108.458 1021.67 109.994C1021.86 111.962 1021.86 114.602 1021.86 114.89H1028.72C1028.72 111.482 1028.58 109.562 1028.29 107.834C1027.71 104.378 1025.17 101.45 1018.98 101.45C1012.93 101.45 1010.39 104.858 1009.57 107.93C1008.71 111.242 1008.61 117.05 1008.61 121.034C1008.61 125.162 1008.75 130.538 1009.57 133.994C1010.58 138.218 1013.6 140.426 1017.63 140.426C1020.56 140.426 1022.53 139.61 1023.49 138.362L1023.83 140.09H1029.01C1029.01 140.042 1028.91 135.578 1028.91 131.162ZM1042.16 131.498C1042.16 132.17 1042.07 132.986 1041.87 133.802C1041.63 134.858 1040.63 135.29 1039.67 135.29C1038.71 135.29 1037.6 134.714 1037.46 133.418C1037.31 132.218 1037.27 130.298 1037.27 129.098H1048.16C1048.4 124.586 1048.07 119.978 1047.15 117.722C1046.05 115.034 1043.51 113.354 1039.81 113.354C1035.25 113.354 1033.23 115.418 1032.27 117.77C1031.55 119.498 1031.03 123.05 1031.03 127.034C1031.03 131.114 1031.36 134.138 1032.47 136.682C1033.62 139.37 1036.35 140.426 1039.91 140.426C1043.46 140.426 1045.62 138.986 1046.77 136.922C1047.78 135.146 1048.02 132.266 1048.02 131.498H1042.16ZM1037.17 124.394C1037.17 122.57 1037.22 120.842 1037.55 120.026C1037.89 119.114 1038.66 118.634 1039.71 118.634C1040.82 118.634 1041.54 119.162 1041.78 120.074C1041.97 120.698 1042.11 121.994 1042.11 124.394H1037.17ZM1066.97 135.386C1066.97 133.418 1067.01 130.202 1067.01 128.138C1067.06 125.69 1067.11 121.706 1067.01 119.402C1066.87 115.706 1064.57 113.354 1059.05 113.354C1053.19 113.354 1050.79 115.994 1050.79 120.938V122.906H1056.74V121.418C1056.74 119.594 1057.32 118.682 1058.95 118.682C1060.15 118.682 1060.77 119.354 1060.82 120.506C1060.87 121.322 1060.87 122.954 1060.87 123.674C1059.81 123.674 1058.71 123.818 1057.51 124.01C1053.09 124.826 1050.12 127.226 1049.88 131.066C1049.78 132.458 1049.83 134.714 1049.88 135.29C1050.07 139.13 1053 140.282 1055.64 140.282C1057.99 140.282 1059.77 139.658 1060.97 138.17C1060.97 138.842 1061.11 140.09 1061.21 140.09H1067.3C1067.06 139.754 1066.97 137.306 1066.97 135.386ZM1060.87 130.01C1060.77 131.354 1060.87 132.026 1060.63 133.418C1060.39 134.762 1059.24 135.29 1058.23 135.29C1057.27 135.29 1056.5 134.954 1056.36 134.042C1056.26 133.274 1056.26 132.362 1056.26 131.642C1056.26 130.538 1056.31 129.77 1057.13 129.05C1057.85 128.426 1058.66 128.282 1059.33 128.138C1059.91 128.042 1060.39 128.042 1060.87 128.042C1060.87 128.426 1060.92 129.482 1060.87 130.01ZM1080.91 113.354C1078.7 113.354 1076.5 114.794 1076.21 116.81V113.69H1069.87V140.09H1076.3V124.442C1076.3 120.122 1077.65 119.162 1079.86 119.162C1081.15 119.162 1082.45 119.402 1083.22 119.642V113.594C1082.69 113.402 1081.92 113.354 1080.91 113.354ZM1112.55 131.162V118.442H1102.04V124.49H1105.92C1105.92 124.49 1105.97 130.73 1105.92 131.546C1105.83 133.514 1104.68 134.522 1102.9 134.522C1101.32 134.522 1100.5 133.706 1100.16 131.978C1099.59 128.954 1099.59 123.962 1099.59 121.034C1099.59 117.914 1099.64 113.306 1100.12 109.994C1100.36 108.362 1101.41 107.642 1102.76 107.642C1104.24 107.642 1105.16 108.458 1105.3 109.994C1105.49 111.962 1105.49 114.602 1105.49 114.89H1112.36C1112.36 111.482 1112.21 109.562 1111.92 107.834C1111.35 104.378 1108.8 101.45 1102.61 101.45C1096.56 101.45 1094.02 104.858 1093.2 107.93C1092.34 111.242 1092.24 117.05 1092.24 121.034C1092.24 125.162 1092.39 130.538 1093.2 133.994C1094.21 138.218 1097.24 140.426 1101.27 140.426C1104.2 140.426 1106.16 139.61 1107.12 138.362L1107.46 140.09H1112.64C1112.64 140.042 1112.55 135.578 1112.55 131.162ZM1121.91 105.818H1115.14V112.298H1121.91V105.818ZM1121.81 138.17V113.69H1115.23V138.266C1115.23 139.322 1115.23 140.09 1115.47 140.09H1121.95C1121.91 140.042 1121.81 139.178 1121.81 138.17ZM1136.09 113.69H1132.63V108.794C1132.63 107.834 1133.21 106.778 1134.5 106.778C1135.03 106.778 1135.8 106.826 1136.42 106.922V101.69C1135.7 101.594 1134.31 101.546 1132.63 101.546C1127.88 101.546 1126.2 104.378 1126.2 107.978V113.69H1123.85V119.306H1126.2V140.09H1132.63V119.306H1136.09V113.69ZM1149.37 113.69H1145.67V108.602L1139.43 108.746C1139.43 108.746 1139.24 113.546 1139.19 113.69H1136.84V119.306H1139.09V134.33C1139.09 138.458 1141.4 140.282 1145.33 140.282C1147.01 140.282 1148.07 140.186 1149.08 139.946V134.81C1148.6 134.906 1147.97 134.954 1147.45 134.954C1146.44 134.954 1145.62 134.666 1145.62 133.178V119.306H1149.37V113.69ZM865.544 182.266C865.544 183.13 865.496 185.578 865.256 187.546C865.016 189.466 863.864 190.09 862.52 190.09C861.224 190.09 860.072 189.418 859.736 187.69C859.304 185.29 859.208 180.874 859.208 176.698C859.208 171.322 859.304 167.962 859.736 166.186C860.072 164.842 860.936 164.074 862.52 164.074C863.912 164.074 864.824 164.89 865.016 166.09C865.352 168.01 865.496 170.074 865.496 171.85H872.312C872.312 169.498 872.168 167.29 871.928 165.466C871.256 160.378 868.568 157.498 862.664 157.498C857 157.498 853.928 159.85 852.968 164.41C852.104 168.49 851.864 171.61 851.864 176.746C851.864 181.786 852.248 187.546 853.208 190.618C854.264 194.17 856.904 196.522 862.28 196.522C868.184 196.522 871.064 193.93 871.928 189.274C872.36 186.826 872.36 183.562 872.36 182.266H865.544ZM891.317 191.386C891.317 189.418 891.365 186.202 891.365 184.138C891.413 181.69 891.461 177.706 891.365 175.402C891.221 171.706 888.917 169.354 883.397 169.354C877.541 169.354 875.141 171.994 875.141 176.938V178.906H881.093V177.418C881.093 175.594 881.669 174.682 883.301 174.682C884.501 174.682 885.125 175.354 885.173 176.506C885.221 177.322 885.221 178.954 885.221 179.674C884.165 179.674 883.061 179.818 881.861 180.01C877.445 180.826 874.469 183.226 874.229 187.066C874.133 188.458 874.181 190.714 874.229 191.29C874.421 195.13 877.349 196.282 879.989 196.282C882.341 196.282 884.117 195.658 885.317 194.17C885.317 194.842 885.461 196.09 885.557 196.09H891.653C891.413 195.754 891.317 193.306 891.317 191.386ZM885.221 186.01C885.125 187.354 885.221 188.026 884.981 189.418C884.741 190.762 883.589 191.29 882.581 191.29C881.621 191.29 880.853 190.954 880.709 190.042C880.613 189.274 880.613 188.362 880.613 187.642C880.613 186.538 880.661 185.77 881.477 185.05C882.197 184.426 883.013 184.282 883.685 184.138C884.261 184.042 884.741 184.042 885.221 184.042C885.221 184.426 885.269 185.482 885.221 186.01ZM905.264 169.354C903.056 169.354 900.848 170.794 900.56 172.81V169.69H894.224V196.09H900.656V180.442C900.656 176.122 902 175.162 904.208 175.162C905.504 175.162 906.8 175.402 907.568 175.642V169.594C907.04 169.402 906.272 169.354 905.264 169.354ZM909.528 173.578C908.76 176.458 908.52 179.098 908.52 182.986C908.52 187.21 909 190.714 909.864 192.826C910.824 195.226 912.6 196.282 915.24 196.282C917.592 196.282 919.176 195.514 920.04 194.17L920.808 196.09H926.184C926.184 196.09 925.992 193.882 925.992 192.394V157.738H919.704V171.61C918.984 170.218 917.256 169.45 915.24 169.45C912.408 169.45 910.2 170.986 909.528 173.578ZM919.272 176.362C919.56 177.802 919.752 179.242 919.752 183.034C919.752 185.338 919.656 187.738 919.32 189.418C919.128 190.426 918.504 191.194 917.256 191.194C915.96 191.194 915.288 190.57 915.144 189.562C914.904 187.594 914.808 185.242 914.808 183.034C914.808 180.778 914.904 178.522 915.24 176.602C915.432 175.642 916.104 174.922 917.304 174.922C918.504 174.922 919.08 175.45 919.272 176.362ZM952.091 174.442H946.859V168.538H941.195V174.442H935.867V180.058H941.195V186.01H946.811V180.058H952.091V174.442ZM981.689 157.786H975.161V176.506L969.161 157.786H962.489V196.09H969.017V176.986L975.065 196.09H981.689V157.786ZM1002.08 157.786H985.14V196.09H992.148V180.106H1001.32V173.674H992.148V164.362H1002.08V157.786ZM1021.51 189.61H1011.38V157.786H1004.37V196.09H1021.51V189.61ZM1043.01 157.786H1036.05V187.162C1036.05 188.698 1035.37 190.042 1033.41 190.138C1032.3 190.186 1031.29 190.138 1030.43 190.042V196.042C1031.68 196.234 1032.3 196.33 1034.27 196.33C1040.17 196.33 1043.01 194.074 1043.01 188.17V157.786ZM1056.73 187.498C1056.73 188.17 1056.63 188.986 1056.44 189.802C1056.2 190.858 1055.19 191.29 1054.23 191.29C1053.27 191.29 1052.17 190.714 1052.02 189.418C1051.88 188.218 1051.83 186.298 1051.83 185.098H1062.73C1062.97 180.586 1062.63 175.978 1061.72 173.722C1060.61 171.034 1058.07 169.354 1054.37 169.354C1049.81 169.354 1047.8 171.418 1046.84 173.77C1046.12 175.498 1045.59 179.05 1045.59 183.034C1045.59 187.114 1045.93 190.138 1047.03 192.682C1048.18 195.37 1050.92 196.426 1054.47 196.426C1058.02 196.426 1060.18 194.986 1061.33 192.922C1062.34 191.146 1062.58 188.266 1062.58 187.498H1056.73ZM1051.73 180.394C1051.73 178.57 1051.78 176.842 1052.12 176.026C1052.45 175.114 1053.22 174.634 1054.28 174.634C1055.38 174.634 1056.1 175.162 1056.34 176.074C1056.53 176.698 1056.68 177.994 1056.68 180.394H1051.73ZM1076.11 169.354C1073.9 169.354 1071.69 170.794 1071.4 172.81V169.69H1065.07V196.09H1071.5V180.442C1071.5 176.122 1072.84 175.162 1075.05 175.162C1076.35 175.162 1077.64 175.402 1078.41 175.642V169.594C1077.88 169.402 1077.11 169.354 1076.11 169.354ZM1091.07 181.162C1089.87 180.538 1088.67 180.01 1087.47 179.434C1085.93 178.714 1085.41 177.898 1085.41 176.602C1085.41 175.498 1085.89 174.586 1087.37 174.586C1088.72 174.586 1089.15 175.354 1089.25 176.17C1089.29 176.362 1089.34 177.85 1089.34 178.138H1095.15C1095.15 177.61 1095.01 174.826 1094.86 174.058C1094.24 171.13 1091.79 169.306 1087.13 169.306C1082.05 169.306 1079.45 172.282 1079.45 176.458C1079.45 180.394 1080.61 182.842 1084.06 184.474C1085.02 184.906 1086.32 185.53 1087.13 185.866C1088.96 186.586 1089.58 187.498 1089.58 189.13C1089.58 190.618 1088.67 191.338 1087.47 191.338C1086.32 191.338 1085.41 190.858 1085.31 189.754C1085.26 188.938 1085.21 188.122 1085.21 187.786H1079.26C1079.26 188.602 1079.31 190.282 1079.41 191.146C1079.84 194.698 1082.24 196.474 1087.61 196.474C1092.37 196.474 1095.68 193.93 1095.68 188.938C1095.68 184.906 1094.43 182.842 1091.07 181.162ZM1108.65 187.498C1108.65 188.17 1108.55 188.986 1108.36 189.802C1108.12 190.858 1107.11 191.29 1106.15 191.29C1105.19 191.29 1104.09 190.714 1103.95 189.418C1103.8 188.218 1103.75 186.298 1103.75 185.098H1114.65C1114.89 180.586 1114.55 175.978 1113.64 173.722C1112.54 171.034 1109.99 169.354 1106.3 169.354C1101.74 169.354 1099.72 171.418 1098.76 173.77C1098.04 175.498 1097.51 179.05 1097.51 183.034C1097.51 187.114 1097.85 190.138 1098.95 192.682C1100.11 195.37 1102.84 196.426 1106.39 196.426C1109.95 196.426 1112.11 194.986 1113.26 192.922C1114.27 191.146 1114.51 188.266 1114.51 187.498H1108.65ZM1103.66 180.394C1103.66 178.57 1103.71 176.842 1104.04 176.026C1104.38 175.114 1105.15 174.634 1106.2 174.634C1107.31 174.634 1108.03 175.162 1108.27 176.074C1108.46 176.698 1108.6 177.994 1108.6 180.394H1103.66ZM1128.05 169.69C1128 170.506 1124.93 186.106 1124.83 186.682C1124.78 186.154 1121.71 170.362 1121.62 169.69H1115.09L1121.38 195.37L1119.22 203.914H1125.79L1134.43 169.69H1128.05Z" fill="white"/>
</g>
<path d="M809 0.707031H1224H809ZM1224 250.707H809H1224ZM808 250.707V0.707031H810V250.707H808ZM1224 0.707031V250.707V0.707031Z" fill="white" mask="url(#path-15-inside-3_2915_32595)"/>
<rect x="624.5" y="1.20703" width="599" height="249" rx="11.5" stroke="white"/>
<defs>
<clipPath id="clip0_2915_32595">
<path d="M185 0.707031H600V251.472H185V0.707031Z" fill="white"/>
</clipPath>
<clipPath id="clip1_2915_32595">
<rect x="530.467" y="14.0898" width="24" height="24" rx="4" fill="white"/>
</clipPath>
<clipPath id="clip2_2915_32595">
<path d="M809 0.707031H1224V250.707H809V0.707031Z" fill="white"/>
</clipPath>
<clipPath id="clip3_2915_32595">
<rect x="1154.47" y="14.0898" width="24" height="24" rx="4" fill="white"/>
</clipPath>
</defs>
</svg>
