<svg width="100%" height="auto" viewBox="0 0 1224 251" fill="none" xmlns="http://www.w3.org/2000/svg">
<path d="M76.1 29.867H58.82C57.06 33.707 52.58 41.067 36.1 42.187V60.587L53.7 59.787V157.707H76.1V29.867ZM86.0075 53.387C84.5675 63.147 84.4075 79.467 84.4075 93.707C84.4075 104.107 85.2075 124.107 86.4875 132.747C89.0475 149.707 97.3675 158.987 115.928 158.987C133.848 158.987 142.968 149.547 145.208 132.747C146.648 122.827 147.288 103.467 147.288 93.707C147.288 80.587 146.648 64.107 145.688 53.227C144.568 40.267 134.968 28.747 115.928 28.747C95.2875 28.747 88.0875 40.107 86.0075 53.387ZM123.768 130.347C123.448 136.267 121.048 139.627 115.928 139.627C110.808 139.627 108.408 136.427 107.928 130.347C107.608 124.747 107.128 106.187 107.128 93.867C107.128 85.387 107.608 70.667 107.608 58.827C107.608 52.747 110.328 49.067 115.768 49.067C121.048 49.067 123.608 52.427 123.927 58.667C124.088 64.267 124.248 80.747 124.248 93.387C124.248 103.627 124.088 125.227 123.768 130.347Z" fill="white"/>
<path d="M73.2044 192.035V187.715H67.5344V189.749H71.0084C71.0084 189.749 71.0264 191.801 70.9904 191.981C70.7564 193.043 69.8024 193.853 68.2724 193.853C67.0124 193.853 66.2384 193.529 65.7524 192.827C65.1764 191.981 65.0144 190.739 65.0144 188.633C65.0144 186.563 65.2664 185.213 65.7704 184.439C66.2564 183.719 67.0304 183.413 68.1104 183.413C69.1184 183.413 69.8204 183.719 70.2344 184.331C70.6124 184.907 70.8284 185.753 70.8284 186.239H73.1324C73.1324 185.609 72.9524 184.367 72.5204 183.503C71.8724 182.225 70.5224 181.271 68.0564 181.271C65.6804 181.271 64.3484 182.261 63.5924 183.431C62.8004 184.673 62.5664 186.383 62.5664 188.597C62.5664 191.171 62.9624 192.827 63.6464 193.907C64.4744 195.203 65.8784 195.887 67.7684 195.887C69.7124 195.887 70.7564 195.203 71.2424 194.483L71.3504 195.707H73.2224C73.2224 195.653 73.2044 193.745 73.2044 192.035ZM85.209 192.251L86.199 195.707H88.647L84.435 181.451H81.411L76.911 195.707H79.323L80.367 192.251H85.209ZM81.015 190.199C81.015 190.199 82.581 185.033 82.599 184.943C82.635 184.799 82.869 183.665 82.869 183.665C82.869 183.665 83.103 184.799 83.139 184.943C83.175 185.051 84.597 190.199 84.597 190.199H81.015ZM105.429 181.451H102.351L99.1468 192.053L95.9968 181.451H92.7388V195.707H94.9528V185.933L97.8868 195.707H100.209L103.197 185.897V195.707H105.429V181.451ZM119.504 193.547H113.006V189.641H119.144V187.463H113.006V183.611H119.432V181.451H110.666V195.707H119.504V193.547ZM58.9932 215.769C58.5972 215.625 57.7512 215.301 57.2472 215.139C55.5012 214.563 54.6372 214.005 54.6372 212.889C54.6372 211.935 55.2852 211.359 57.1032 211.359C58.6512 211.359 59.3712 211.791 59.6772 212.673C59.7852 212.997 59.8392 213.267 59.8392 213.573H62.2512C62.2512 213.033 62.1612 212.601 62.0352 212.169C61.5312 210.405 60.0912 209.289 57.1572 209.289C53.7912 209.289 52.2072 210.765 52.2072 212.961C52.2072 215.067 53.5932 216.327 55.7352 217.029C56.3292 217.227 57.1752 217.551 57.5352 217.677C59.4432 218.343 60.0192 218.919 60.0192 220.125C60.0192 221.205 59.2452 221.853 57.4272 221.853C55.8792 221.853 54.9792 221.457 54.7092 220.611C54.6012 220.269 54.5472 219.783 54.5472 219.531H52.1532C52.1532 219.945 52.1892 220.611 52.3152 221.097C52.7472 222.771 54.1872 223.887 57.4812 223.887C60.8112 223.887 62.4492 222.303 62.4492 219.927C62.4492 217.713 61.2252 216.543 58.9932 215.769ZM75.9467 209.451H65.8487V211.593H69.6827V223.707H72.0947V211.593H75.9467V209.451ZM89.3267 211.035C88.8227 210.027 87.8687 209.451 86.3027 209.451H80.0927V223.707H82.4327V217.767H85.5287L88.0127 223.707H90.6227L87.8147 217.245C88.4447 217.119 89.0207 216.669 89.3807 215.985C89.6507 215.445 89.7947 214.653 89.7947 213.573C89.7947 212.421 89.6867 211.719 89.3267 211.035ZM87.2387 215.103C87.0587 215.499 86.6087 215.715 85.9787 215.733H82.4507V211.575H85.7987C86.6087 211.575 87.1127 211.863 87.3107 212.403C87.4007 212.637 87.4367 213.267 87.4367 213.789C87.4367 214.221 87.3647 214.797 87.2387 215.103ZM103.799 221.547H97.301V217.641H103.439V215.463H97.301V211.611H103.727V209.451H94.961V223.707H103.799V221.547ZM115.656 220.251L116.646 223.707H119.094L114.882 209.451H111.858L107.358 223.707H109.77L110.814 220.251H115.656ZM111.462 218.199C111.462 218.199 113.028 213.033 113.046 212.943C113.082 212.799 113.316 211.665 113.316 211.665C113.316 211.665 113.55 212.799 113.586 212.943C113.622 213.051 115.044 218.199 115.044 218.199H111.462ZM128.244 215.607L133.374 209.451H130.71L125.562 215.517V209.451H123.186V223.707H125.562V218.613L126.606 217.389L130.674 223.707H133.482L128.244 215.607Z" fill="white"/>
<g clip-path="url(#clip0_2915_32592)">
<path d="M230.744 33.707H232.49V20.801H231.14C230.906 22.673 229.394 23.285 227.774 23.321V24.473H230.744V33.707ZM240.078 33.995C243.3 33.995 245.136 31.367 245.136 27.281C245.136 23.105 243.174 20.585 240.096 20.585C237.036 20.585 235.038 23.141 235.038 27.281C235.038 31.367 236.91 33.995 240.078 33.995ZM240.096 32.519C237.9 32.519 236.82 30.467 236.82 27.281C236.82 24.059 237.9 22.043 240.096 22.043C242.274 22.043 243.336 24.095 243.336 27.281C243.336 30.521 242.328 32.519 240.096 32.519ZM256.109 37.091C257.405 37.091 258.485 36.803 259.241 36.173C259.979 35.543 260.411 34.589 260.411 33.311V24.041H258.755V25.319H258.719C258.107 24.347 257.171 23.807 255.785 23.807C253.517 23.807 251.645 25.571 251.645 28.541C251.645 31.349 253.409 33.275 255.875 33.275C257.243 33.275 258.089 32.681 258.755 31.727H258.791C258.773 32.033 258.755 32.555 258.755 33.113V33.383C258.755 35.021 257.801 35.795 256.073 35.795C254.633 35.795 253.661 35.381 253.517 34.373H251.951C252.131 36.083 253.571 37.091 256.109 37.091ZM256.037 31.907C254.291 31.907 253.355 30.611 253.355 28.559C253.355 26.525 254.255 25.193 256.019 25.193C257.945 25.193 258.863 26.435 258.863 28.469C258.863 30.431 258.143 31.907 256.037 31.907ZM265.608 33.905C267.246 33.905 268.236 33.131 268.848 32.285H268.866C269.046 33.311 269.55 33.797 270.576 33.797C270.972 33.797 271.242 33.725 271.476 33.653V32.483H271.404C270.558 32.663 270.378 32.249 270.378 31.475V26.957C270.378 25.661 269.892 24.815 269.082 24.329C268.47 23.969 267.66 23.807 266.742 23.807C264.132 23.807 262.89 25.265 262.818 26.903H264.438C264.492 25.751 265.23 25.031 266.76 25.031C268.092 25.031 268.83 25.679 268.83 26.723C268.83 27.713 267.912 27.947 266.49 28.109C263.988 28.415 262.332 28.901 262.332 31.151C262.332 33.005 263.772 33.905 265.608 33.905ZM266.022 32.681C265.05 32.681 264.096 32.375 264.096 31.133C264.096 29.801 265.14 29.513 266.724 29.243C267.516 29.099 268.362 28.865 268.848 28.559V30.143C268.848 31.259 267.948 32.681 266.022 32.681ZM272.836 33.707H274.51V27.749C274.51 26.273 275.752 25.211 276.904 25.211C277.894 25.211 278.56 25.913 278.56 27.101V33.707H280.216V27.749C280.216 26.273 281.278 25.211 282.502 25.211C283.474 25.211 284.248 25.913 284.248 27.101V33.707H285.922V26.957C285.922 24.941 284.698 23.807 282.934 23.807C281.764 23.807 280.63 24.401 279.946 25.607H279.91C279.514 24.419 278.578 23.807 277.408 23.807C276.166 23.807 275.14 24.437 274.546 25.481H274.492V24.041H272.836V33.707ZM292.358 33.977C294.59 33.977 296.138 32.753 296.57 30.953H294.932C294.626 31.979 293.708 32.609 292.376 32.609C290.504 32.609 289.478 31.169 289.352 29.279H296.768C296.768 27.641 296.372 26.255 295.58 25.301C294.824 24.365 293.708 23.807 292.268 23.807C289.496 23.807 287.642 26.075 287.642 28.883C287.642 31.709 289.388 33.977 292.358 33.977ZM292.268 25.103C293.942 25.103 294.896 26.219 294.986 28.073H289.388C289.604 26.363 290.522 25.103 292.268 25.103ZM305.422 33.707H307.114L308.572 28.379C308.806 27.461 309.166 25.679 309.166 25.679H309.202C309.202 25.679 309.58 27.443 309.814 28.379L311.236 33.707H312.91L316.06 24.041H314.332L312.73 29.405C312.37 30.593 312.1 32.249 312.1 32.249H312.064C312.064 32.249 311.722 30.467 311.452 29.441L310.012 24.041H308.428L306.97 29.441C306.646 30.611 306.322 32.231 306.322 32.231H306.286C306.286 32.231 305.962 30.503 305.656 29.405L304.144 24.041H302.362L305.422 33.707ZM317.36 22.259H319.106V20.315H317.36V22.259ZM317.396 33.707H319.07V24.041H317.396V33.707ZM323.025 24.041H321.369V33.707H323.043V27.821C323.043 26.273 324.123 25.211 325.617 25.211C326.931 25.211 327.741 25.913 327.741 27.155V33.707H329.397V26.957C329.397 24.941 328.155 23.807 326.139 23.807C324.735 23.807 323.781 24.437 323.079 25.409H323.025V24.041ZM340.141 33.995C342.409 33.995 344.029 32.987 344.029 31.025C344.029 28.775 342.373 28.343 340.447 27.965C338.809 27.641 337.873 27.443 337.873 26.435C337.873 25.697 338.431 25.085 339.745 25.085C341.131 25.085 341.815 25.643 341.959 26.633H343.633C343.417 24.959 342.211 23.825 339.781 23.825C337.531 23.825 336.235 24.869 336.235 26.525C336.235 28.649 337.945 29.045 339.835 29.441C341.545 29.783 342.355 30.053 342.355 31.115C342.355 31.979 341.707 32.645 340.177 32.645C338.791 32.645 337.711 32.177 337.513 30.773H335.821C335.965 32.735 337.477 33.995 340.141 33.995ZM345.068 25.337H346.58V31.817C346.58 33.239 347.48 33.761 348.776 33.779C349.208 33.779 349.676 33.725 350.126 33.617V32.213H350.072C349.892 32.267 349.514 32.339 349.226 32.339C348.614 32.339 348.236 32.141 348.236 31.439V25.337H350.234V24.041H348.236V20.999H346.58V24.041H345.068V25.337ZM353.628 24.041H351.972V33.707H353.646V28.451C353.646 26.633 354.924 25.517 356.418 25.517C356.706 25.517 356.868 25.535 357.102 25.607H357.156V24.023C356.976 23.951 356.814 23.915 356.544 23.915C355.266 23.915 354.276 24.671 353.682 25.787H353.628V24.041ZM362.635 33.977C364.867 33.977 366.415 32.753 366.847 30.953H365.209C364.903 31.979 363.985 32.609 362.653 32.609C360.781 32.609 359.755 31.169 359.629 29.279H367.045C367.045 27.641 366.649 26.255 365.857 25.301C365.101 24.365 363.985 23.807 362.545 23.807C359.773 23.807 357.919 26.075 357.919 28.883C357.919 31.709 359.665 33.977 362.635 33.977ZM362.545 25.103C364.219 25.103 365.173 26.219 365.263 28.073H359.665C359.881 26.363 360.799 25.103 362.545 25.103ZM371.71 33.905C373.348 33.905 374.338 33.131 374.95 32.285H374.968C375.148 33.311 375.652 33.797 376.678 33.797C377.074 33.797 377.344 33.725 377.578 33.653V32.483H377.506C376.66 32.663 376.48 32.249 376.48 31.475V26.957C376.48 25.661 375.994 24.815 375.184 24.329C374.572 23.969 373.762 23.807 372.844 23.807C370.234 23.807 368.992 25.265 368.92 26.903H370.54C370.594 25.751 371.332 25.031 372.862 25.031C374.194 25.031 374.932 25.679 374.932 26.723C374.932 27.713 374.014 27.947 372.592 28.109C370.09 28.415 368.434 28.901 368.434 31.151C368.434 33.005 369.874 33.905 371.71 33.905ZM372.124 32.681C371.152 32.681 370.198 32.375 370.198 31.133C370.198 29.801 371.242 29.513 372.826 29.243C373.618 29.099 374.464 28.865 374.95 28.559V30.143C374.95 31.259 374.05 32.681 372.124 32.681ZM385.291 33.707H387.253L383.131 27.515L386.821 24.041H384.733L380.539 28.163C380.575 27.695 380.611 27.011 380.611 26.669V20.315H378.937V33.707H380.611V29.909L381.979 28.613L385.291 33.707ZM393.474 36.983H395.148V34.049C395.148 33.311 395.13 32.771 395.112 32.429H395.166C395.832 33.455 396.894 33.995 398.208 33.995C400.818 33.995 402.42 31.997 402.42 28.901C402.42 25.715 400.728 23.807 398.262 23.807C396.876 23.807 395.904 24.455 395.184 25.553H395.13V24.041H393.474V36.983ZM398.028 32.609C395.886 32.609 395.058 30.971 395.058 28.937C395.058 26.885 395.994 25.229 398.046 25.229C399.828 25.229 400.71 26.813 400.71 28.937C400.71 31.043 399.81 32.609 398.028 32.609ZM405.853 24.041H404.197V33.707H405.871V28.451C405.871 26.633 407.149 25.517 408.643 25.517C408.931 25.517 409.093 25.535 409.327 25.607H409.381V24.023C409.201 23.951 409.039 23.915 408.769 23.915C407.491 23.915 406.501 24.671 405.907 25.787H405.853V24.041ZM410.981 22.259H412.727V20.315H410.981V22.259ZM411.017 33.707H412.691V24.041H411.017V33.707ZM414.63 33.707H422.424V32.231H418.518C417.816 32.231 416.592 32.285 416.592 32.285V32.231C416.592 32.231 417.402 31.349 417.816 30.827L422.208 25.085V24.041H414.954V25.463H418.284C418.95 25.463 420.102 25.409 420.102 25.409V25.463C420.102 25.463 419.346 26.273 418.95 26.777L414.63 32.411V33.707ZM428.043 33.977C430.275 33.977 431.823 32.753 432.255 30.953H430.617C430.311 31.979 429.393 32.609 428.061 32.609C426.189 32.609 425.163 31.169 425.037 29.279H432.453C432.453 27.641 432.057 26.255 431.265 25.301C430.509 24.365 429.393 23.807 427.953 23.807C425.181 23.807 423.327 26.075 423.327 28.883C423.327 31.709 425.073 33.977 428.043 33.977ZM427.953 25.103C429.627 25.103 430.581 26.219 430.671 28.073H425.073C425.289 26.363 426.207 25.103 427.953 25.103Z" fill="white"/>
<path fill-rule="evenodd" clip-rule="evenodd" d="M537.697 36.9837L548.477 35.082C549.095 34.9703 549.561 34.7338 549.876 34.3726C550.185 34.0178 550.34 33.5383 550.34 32.9339V19.3656C550.34 18.8992 550.241 18.5051 550.044 18.1832C549.847 17.8613 549.571 17.6347 549.216 17.5033C548.862 17.3653 548.444 17.3391 547.965 17.4245L537.5 19.2671C536.541 19.4379 535.819 19.7368 535.333 20.1638C534.84 20.5842 534.594 21.2772 534.594 22.2428V34.1361C534.594 34.839 534.718 35.4203 534.968 35.8801C535.218 36.3465 535.576 36.675 536.042 36.8655C536.502 37.056 537.054 37.0954 537.697 36.9837ZM547.797 21.2181V23.2972C547.797 23.5008 547.732 23.6552 547.6 23.7603C547.469 23.8654 547.318 23.9212 547.147 23.9278C546.976 23.9278 546.828 23.8818 546.704 23.7899C546.572 23.6913 546.507 23.5435 546.507 23.3464V22.0261C546.507 21.7567 546.352 21.6451 546.043 21.691L544.743 21.9275C544.533 21.9604 544.368 21.9242 544.25 21.8191C544.125 21.7075 544.05 21.5695 544.023 21.4053C543.991 21.2411 544.014 21.0867 544.092 20.9422C544.165 20.7977 544.293 20.709 544.477 20.6761L546.595 20.3017C546.97 20.236 547.265 20.282 547.482 20.4396C547.692 20.5973 547.797 20.8568 547.797 21.2181ZM538.505 23.6519V24.9033C538.505 25.1069 538.443 25.2646 538.318 25.3763C538.187 25.4879 538.036 25.5471 537.865 25.5536C537.694 25.5602 537.543 25.5109 537.412 25.4058C537.28 25.2942 537.215 25.1266 537.215 24.9033V23.2578C537.215 22.7979 537.336 22.4465 537.579 22.2034C537.816 21.9538 538.207 21.7797 538.752 21.6812L539.777 21.5038C540 21.4644 540.181 21.4973 540.319 21.6024C540.45 21.7075 540.529 21.8454 540.555 22.0162C540.581 22.1804 540.552 22.3348 540.466 22.4793C540.374 22.6238 540.217 22.7158 539.993 22.7552L539.176 22.903C538.886 22.9556 538.703 23.0574 538.624 23.2085C538.545 23.353 538.505 23.5008 538.505 23.6519ZM546.507 30.8253V29.5739C546.507 29.3702 546.572 29.2126 546.704 29.1009C546.828 28.9892 546.976 28.9301 547.147 28.9235C547.318 28.917 547.469 28.9695 547.6 29.0812C547.732 29.1863 547.797 29.3505 547.797 29.5739V31.2194C547.797 31.6793 547.679 32.034 547.443 32.2836C547.2 32.5267 546.805 32.6975 546.26 32.796L545.235 32.9734C545.012 33.0128 544.835 32.9799 544.703 32.8748C544.565 32.7631 544.483 32.6252 544.457 32.461C544.424 32.2967 544.454 32.1424 544.546 31.9978C544.638 31.8468 544.795 31.7548 545.019 31.722L545.837 31.5741C546.126 31.5216 546.309 31.4198 546.388 31.2687C546.467 31.1176 546.507 30.9698 546.507 30.8253ZM537.215 33.2591V31.18C537.215 30.9698 537.28 30.8154 537.412 30.7169C537.543 30.6118 537.694 30.5592 537.865 30.5592C538.036 30.5527 538.187 30.5986 538.318 30.6972C538.443 30.7892 538.505 30.9337 538.505 31.1307V32.4511C538.505 32.7204 538.66 32.8321 538.969 32.7861L540.269 32.5496C540.479 32.5168 540.647 32.5562 540.772 32.6679C540.89 32.773 540.966 32.9077 540.998 33.0719C541.025 33.2361 541.002 33.3905 540.929 33.535C540.851 33.6795 540.716 33.7682 540.525 33.801L538.417 34.1755C538.042 34.2412 537.75 34.1952 537.54 34.0375C537.323 33.8799 537.215 33.6204 537.215 33.2591ZM543.675 25.6975L545.159 25.4456C545.284 25.4554 545.379 25.5677 545.37 25.6975C545.366 25.7493 545.347 25.798 545.314 25.8366L544.377 27.4928L544.966 29.2201C544.996 29.3461 544.923 29.4732 544.802 29.5044C544.754 29.5169 544.702 29.5126 544.657 29.4917L542.984 29.1L541.266 30.3393C541.21 30.3748 541.189 30.3749 541.147 30.3749H541.147C541.105 30.3749 541.063 30.3626 541.027 30.3395C540.991 30.3163 540.962 30.2831 540.943 30.2438C540.924 30.2044 540.917 30.1604 540.921 30.1167L541.21 28.0173L539.75 26.9316C539.704 26.8913 539.675 26.8338 539.67 26.7715C539.664 26.7093 539.683 26.6475 539.721 26.5997C539.753 26.5605 539.796 26.5329 539.845 26.5219L541.682 25.9867L542.355 24.2396C542.402 24.1196 542.534 24.0618 542.65 24.1106C542.696 24.13 542.735 24.1647 542.76 24.2093L543.675 25.6975Z" fill="white"/>
<path d="M600 50.4722H185V52.4722H600V50.4722Z" fill="white" mask="url(#path-6-inside-2_2915_32592)"/>
<path d="M254.584 91.0174H245.88V115.977L237.88 91.0174H228.984V142.089H237.688V116.617L245.752 142.089H254.584V91.0174ZM281.139 91.0174H258.547V142.089H267.891V120.777H280.115V112.201H267.891V99.7854H281.139V91.0174ZM306.395 133.449H292.891V91.0174H283.547V142.089H306.395V133.449ZM334.612 129.737L336.276 142.089H345.748L338.132 91.0174H325.012L316.5 142.089H325.844L327.636 129.737H334.612ZM328.532 122.185C328.532 122.185 330.836 107.337 330.836 107.081C331.284 104.329 331.412 99.3374 331.412 99.3374C331.412 99.3374 331.54 104.393 331.86 107.081C331.86 107.337 333.78 122.185 333.78 122.185H328.532ZM355.987 139.465V93.1294C355.987 91.9774 355.859 91.0814 355.795 90.9534H347.155C347.347 91.4014 347.347 92.9374 347.347 94.0254V139.657C347.347 140.937 347.475 141.897 347.731 142.089C347.731 142.153 356.307 142.089 356.307 142.089C356.051 141.897 355.987 141.065 355.987 139.465ZM367.55 139.465V93.1294C367.55 91.9774 367.422 91.0814 367.358 90.9534H358.718C358.91 91.4014 358.91 92.9374 358.91 94.0254V139.657C358.91 140.937 359.038 141.897 359.294 142.089C359.294 142.153 367.87 142.089 367.87 142.089C367.614 141.897 367.55 141.065 367.55 139.465ZM406.782 115.465C406.782 107.465 406.462 98.5694 404.478 95.6894C402.238 92.3614 399.358 91.0174 393.918 91.0174H380.734V142.089H395.07C400.318 142.089 402.814 140.105 404.478 137.225C406.462 133.833 406.782 126.025 406.782 115.465ZM394.046 134.729H389.95V98.9534H393.662C395.518 98.9534 396.67 99.8494 397.182 101.961C397.63 103.689 397.822 112.905 397.822 115.465C397.822 118.089 397.694 130.057 397.246 132.105C396.798 133.961 395.71 134.729 394.046 134.729ZM431.429 135.817C431.429 133.193 431.493 128.905 431.493 126.153C431.557 122.889 431.621 117.577 431.493 114.505C431.301 109.577 428.229 106.441 420.869 106.441C413.061 106.441 409.861 109.961 409.861 116.553V119.177H417.797V117.193C417.797 114.761 418.565 113.545 420.741 113.545C422.341 113.545 423.173 114.441 423.237 115.977C423.301 117.065 423.301 119.241 423.301 120.201C421.893 120.201 420.421 120.393 418.821 120.649C412.933 121.737 408.965 124.937 408.645 130.057C408.517 131.913 408.581 134.921 408.645 135.689C408.901 140.809 412.805 142.345 416.325 142.345C419.461 142.345 421.829 141.513 423.429 139.529C423.429 140.425 423.621 142.089 423.749 142.089H431.877C431.557 141.641 431.429 138.377 431.429 135.817ZM423.301 128.649C423.173 130.441 423.301 131.337 422.981 133.193C422.661 134.985 421.125 135.689 419.781 135.689C418.501 135.689 417.477 135.241 417.285 134.025C417.157 133.001 417.157 131.785 417.157 130.825C417.157 129.353 417.22 128.329 418.309 127.369C419.269 126.537 420.357 126.345 421.253 126.153C422.021 126.025 422.661 126.025 423.301 126.025C423.301 126.537 423.365 127.945 423.301 128.649ZM449.469 106.889C449.405 107.977 445.309 128.777 445.181 129.545C445.117 128.841 441.021 107.785 440.893 106.889H432.189L440.573 141.129L437.693 152.521H446.461L457.981 106.889H449.469ZM253.048 159.625C251.576 156.617 248.248 155.017 244.344 155.017H228.984V206.089H238.264V184.841H241.592L246.712 206.089H256.376L250.168 182.281C251.448 181.833 252.856 180.425 253.624 178.441C254.392 176.585 254.84 173.833 254.84 169.801C254.84 165.257 254.136 161.737 253.048 159.625ZM244.92 175.305C244.664 176.201 243.96 176.777 242.744 176.905C242.424 176.969 238.264 176.969 238.264 176.969V163.529H242.488C244.024 163.529 244.856 164.553 245.176 165.961C245.304 166.601 245.432 168.969 245.432 170.697C245.432 172.233 245.304 174.409 244.92 175.305ZM271.935 194.633C271.935 195.529 271.807 196.617 271.551 197.705C271.231 199.113 269.887 199.689 268.607 199.689C267.327 199.689 265.855 198.921 265.663 197.193C265.47 195.593 265.407 193.033 265.407 191.433H279.935C280.255 185.417 279.807 179.273 278.591 176.265C277.119 172.681 273.727 170.441 268.799 170.441C262.719 170.441 260.031 173.193 258.751 176.329C257.791 178.633 257.087 183.369 257.087 188.681C257.087 194.121 257.535 198.153 259.007 201.545C260.543 205.129 264.191 206.537 268.927 206.537C273.663 206.537 276.543 204.617 278.079 201.865C279.423 199.497 279.743 195.657 279.743 194.633H271.935ZM265.279 185.161C265.279 182.729 265.343 180.425 265.791 179.337C266.239 178.121 267.263 177.481 268.671 177.481C270.143 177.481 271.103 178.185 271.423 179.401C271.679 180.233 271.871 181.961 271.871 185.161H265.279ZM310.78 170.889L307.964 196.745L304.252 170.889H295.484L292.22 196.745L288.956 170.889H280.252L286.588 206.089H296.828C296.828 206.089 299.068 193.609 299.772 189.449C299.836 189.065 299.9 185.801 299.9 185.801C299.9 185.801 300.092 189.065 300.156 189.449C300.86 193.481 303.036 206.089 303.036 206.089H313.148L319.292 170.889H310.78ZM341.929 199.817C341.929 197.193 341.993 192.905 341.993 190.153C342.057 186.889 342.121 181.577 341.993 178.505C341.801 173.577 338.729 170.441 331.369 170.441C323.561 170.441 320.361 173.961 320.361 180.553V183.177H328.297V181.193C328.297 178.761 329.065 177.545 331.241 177.545C332.841 177.545 333.673 178.441 333.737 179.977C333.801 181.065 333.801 183.241 333.801 184.201C332.393 184.201 330.921 184.393 329.321 184.649C323.433 185.737 319.465 188.937 319.145 194.057C319.017 195.913 319.081 198.921 319.145 199.689C319.401 204.809 323.305 206.345 326.825 206.345C329.961 206.345 332.329 205.513 333.929 203.529C333.929 204.425 334.121 206.089 334.249 206.089H342.377C342.057 205.641 341.929 202.377 341.929 199.817ZM333.801 192.649C333.673 194.441 333.801 195.337 333.481 197.193C333.161 198.985 331.625 199.689 330.281 199.689C329.001 199.689 327.977 199.241 327.785 198.025C327.657 197.001 327.657 195.785 327.657 194.825C327.657 193.353 327.72 192.329 328.809 191.369C329.769 190.537 330.857 190.345 331.753 190.153C332.521 190.025 333.161 190.025 333.801 190.025C333.801 190.537 333.865 191.945 333.801 192.649ZM359.884 170.441C356.94 170.441 353.996 172.361 353.612 175.049V170.889H345.164V206.089H353.74V185.225C353.74 179.465 355.532 178.185 358.476 178.185C360.204 178.185 361.932 178.505 362.956 178.825V170.761C362.252 170.505 361.228 170.441 359.884 170.441ZM364.931 176.073C363.907 179.913 363.587 183.433 363.587 188.617C363.587 194.249 364.227 198.921 365.379 201.737C366.659 204.937 369.027 206.345 372.547 206.345C375.683 206.345 377.795 205.321 378.947 203.529L379.971 206.089H387.139C387.139 206.089 386.883 203.145 386.883 201.161V154.953H378.499V173.449C377.539 171.593 375.235 170.569 372.547 170.569C368.771 170.569 365.827 172.617 364.931 176.073ZM377.923 179.785C378.307 181.705 378.562 183.625 378.562 188.681C378.562 191.753 378.435 194.953 377.987 197.193C377.731 198.537 376.899 199.561 375.235 199.561C373.507 199.561 372.611 198.729 372.419 197.385C372.099 194.761 371.97 191.625 371.97 188.681C371.97 185.673 372.099 182.665 372.547 180.105C372.803 178.825 373.699 177.865 375.299 177.865C376.899 177.865 377.667 178.569 377.923 179.785Z" fill="white"/>
</g>
<path d="M185 0.707031H600H185ZM600 250.707H185H600ZM184 250.707V0.707031H186V250.707H184ZM600 0.707031V250.707V0.707031Z" fill="white" mask="url(#path-4-inside-1_2915_32592)"/>
<rect x="0.5" y="1.20703" width="599" height="249" rx="11.5" stroke="white"/>
<path d="M746.98 92.107C746.98 80.267 746.34 56.107 743.14 46.347C739.14 34.347 730.18 28.747 716.1 28.747C700.58 28.747 690.82 36.267 687.62 47.307C684.9 56.907 684.74 87.947 687.3 96.907C689.86 106.187 697.54 110.667 707.94 110.667C714.82 110.667 720.58 108.747 724.26 104.587C724.26 107.307 724.1 124.747 723.94 130.507C723.62 136.427 720.58 139.467 715.94 139.467C711.14 139.467 708.58 137.707 708.1 131.467C707.94 130.027 707.94 126.027 707.94 122.667H686.66C686.66 125.387 686.82 133.067 687.46 137.547C689.54 151.307 699.14 158.987 715.3 158.987C733.7 158.987 742.66 149.227 745.06 134.187C746.34 126.187 746.98 103.947 746.98 92.107ZM716.1 92.427C711.46 92.427 708.58 89.547 708.1 85.227C707.62 81.227 707.78 60.107 708.1 56.107C708.58 51.467 711.62 48.747 715.78 48.747C720.58 48.747 723.3 51.467 723.78 56.747C724.1 60.267 724.58 83.467 724.26 86.667C723.46 89.067 721.06 92.427 716.1 92.427Z" fill="white"/>
<path d="M697.204 192.035V187.715H691.534V189.749H695.008C695.008 189.749 695.026 191.801 694.99 191.981C694.756 193.043 693.802 193.853 692.272 193.853C691.012 193.853 690.238 193.529 689.752 192.827C689.176 191.981 689.014 190.739 689.014 188.633C689.014 186.563 689.266 185.213 689.77 184.439C690.256 183.719 691.03 183.413 692.11 183.413C693.118 183.413 693.82 183.719 694.234 184.331C694.612 184.907 694.828 185.753 694.828 186.239H697.132C697.132 185.609 696.952 184.367 696.52 183.503C695.872 182.225 694.522 181.271 692.056 181.271C689.68 181.271 688.348 182.261 687.592 183.431C686.8 184.673 686.566 186.383 686.566 188.597C686.566 191.171 686.962 192.827 687.646 193.907C688.474 195.203 689.878 195.887 691.768 195.887C693.712 195.887 694.756 195.203 695.242 194.483L695.35 195.707H697.222C697.222 195.653 697.204 193.745 697.204 192.035ZM709.209 192.251L710.199 195.707H712.647L708.435 181.451H705.411L700.911 195.707H703.323L704.367 192.251H709.209ZM705.015 190.199C705.015 190.199 706.581 185.033 706.599 184.943C706.635 184.799 706.869 183.665 706.869 183.665C706.869 183.665 707.103 184.799 707.139 184.943C707.175 185.051 708.597 190.199 708.597 190.199H705.015ZM729.429 181.451H726.351L723.147 192.053L719.997 181.451H716.739V195.707H718.953V185.933L721.887 195.707H724.209L727.197 185.897V195.707H729.429V181.451ZM743.504 193.547H737.006V189.641H743.144V187.463H737.006V183.611H743.432V181.451H734.666V195.707H743.504V193.547ZM682.993 215.769C682.597 215.625 681.751 215.301 681.247 215.139C679.501 214.563 678.637 214.005 678.637 212.889C678.637 211.935 679.285 211.359 681.103 211.359C682.651 211.359 683.371 211.791 683.677 212.673C683.785 212.997 683.839 213.267 683.839 213.573H686.251C686.251 213.033 686.161 212.601 686.035 212.169C685.531 210.405 684.091 209.289 681.157 209.289C677.791 209.289 676.207 210.765 676.207 212.961C676.207 215.067 677.593 216.327 679.735 217.029C680.329 217.227 681.175 217.551 681.535 217.677C683.443 218.343 684.019 218.919 684.019 220.125C684.019 221.205 683.245 221.853 681.427 221.853C679.879 221.853 678.979 221.457 678.709 220.611C678.601 220.269 678.547 219.783 678.547 219.531H676.153C676.153 219.945 676.189 220.611 676.315 221.097C676.747 222.771 678.187 223.887 681.481 223.887C684.811 223.887 686.449 222.303 686.449 219.927C686.449 217.713 685.225 216.543 682.993 215.769ZM699.947 209.451H689.849V211.593H693.683V223.707H696.095V211.593H699.947V209.451ZM713.327 211.035C712.823 210.027 711.869 209.451 710.303 209.451H704.093V223.707H706.433V217.767H709.529L712.013 223.707H714.623L711.815 217.245C712.445 217.119 713.021 216.669 713.381 215.985C713.651 215.445 713.795 214.653 713.795 213.573C713.795 212.421 713.687 211.719 713.327 211.035ZM711.239 215.103C711.059 215.499 710.609 215.715 709.979 215.733H706.451V211.575H709.799C710.609 211.575 711.113 211.863 711.311 212.403C711.401 212.637 711.437 213.267 711.437 213.789C711.437 214.221 711.365 214.797 711.239 215.103ZM727.799 221.547H721.301V217.641H727.439V215.463H721.301V211.611H727.727V209.451H718.961V223.707H727.799V221.547ZM739.656 220.251L740.646 223.707H743.094L738.882 209.451H735.858L731.358 223.707H733.77L734.814 220.251H739.656ZM735.462 218.199C735.462 218.199 737.028 213.033 737.046 212.943C737.082 212.799 737.316 211.665 737.316 211.665C737.316 211.665 737.55 212.799 737.586 212.943C737.622 213.051 739.044 218.199 739.044 218.199H735.462ZM752.244 215.607L757.374 209.451H754.71L749.562 215.517V209.451H747.186V223.707H749.562V218.613L750.606 217.389L754.674 223.707H757.482L752.244 215.607Z" fill="white"/>
<g clip-path="url(#clip1_2915_32592)">
<path d="M856.49 33.995C857.768 33.995 858.83 33.617 859.604 32.897C860.846 31.781 861.368 29.891 861.368 27.335C861.368 24.527 860.9 22.691 859.442 21.575C858.686 20.999 857.696 20.585 856.418 20.585C853.79 20.585 851.846 22.547 851.864 24.977C851.882 27.389 853.79 29.333 856.166 29.333C857.678 29.333 858.866 28.649 859.694 27.515H859.73C859.658 29.531 859.334 30.899 858.596 31.709C858.092 32.285 857.408 32.573 856.454 32.573C854.816 32.573 853.952 31.601 853.79 30.539H852.044C852.206 32.429 853.952 33.995 856.49 33.995ZM856.4 27.929C854.78 27.929 853.484 26.687 853.484 24.941C853.484 23.177 854.69 21.971 856.418 21.971C858.11 21.971 859.46 23.177 859.46 24.941C859.46 26.705 858.272 27.929 856.4 27.929ZM872.287 37.091C873.583 37.091 874.663 36.803 875.419 36.173C876.157 35.543 876.589 34.589 876.589 33.311V24.041H874.933V25.319H874.897C874.285 24.347 873.349 23.807 871.963 23.807C869.695 23.807 867.823 25.571 867.823 28.541C867.823 31.349 869.587 33.275 872.053 33.275C873.421 33.275 874.267 32.681 874.933 31.727H874.969C874.951 32.033 874.933 32.555 874.933 33.113V33.383C874.933 35.021 873.979 35.795 872.251 35.795C870.811 35.795 869.839 35.381 869.695 34.373H868.129C868.309 36.083 869.749 37.091 872.287 37.091ZM872.215 31.907C870.469 31.907 869.533 30.611 869.533 28.559C869.533 26.525 870.433 25.193 872.197 25.193C874.123 25.193 875.041 26.435 875.041 28.469C875.041 30.431 874.321 31.907 872.215 31.907ZM881.786 33.905C883.424 33.905 884.414 33.131 885.026 32.285H885.044C885.224 33.311 885.728 33.797 886.754 33.797C887.15 33.797 887.42 33.725 887.654 33.653V32.483H887.582C886.736 32.663 886.556 32.249 886.556 31.475V26.957C886.556 25.661 886.07 24.815 885.26 24.329C884.648 23.969 883.838 23.807 882.92 23.807C880.31 23.807 879.068 25.265 878.996 26.903H880.616C880.67 25.751 881.408 25.031 882.938 25.031C884.27 25.031 885.008 25.679 885.008 26.723C885.008 27.713 884.09 27.947 882.668 28.109C880.166 28.415 878.51 28.901 878.51 31.151C878.51 33.005 879.95 33.905 881.786 33.905ZM882.2 32.681C881.228 32.681 880.274 32.375 880.274 31.133C880.274 29.801 881.318 29.513 882.902 29.243C883.694 29.099 884.54 28.865 885.026 28.559V30.143C885.026 31.259 884.126 32.681 882.2 32.681ZM889.013 33.707H890.687V27.749C890.687 26.273 891.929 25.211 893.081 25.211C894.071 25.211 894.737 25.913 894.737 27.101V33.707H896.393V27.749C896.393 26.273 897.455 25.211 898.679 25.211C899.651 25.211 900.425 25.913 900.425 27.101V33.707H902.099V26.957C902.099 24.941 900.875 23.807 899.111 23.807C897.941 23.807 896.807 24.401 896.123 25.607H896.087C895.691 24.419 894.755 23.807 893.585 23.807C892.343 23.807 891.317 24.437 890.723 25.481H890.669V24.041H889.013V33.707ZM908.535 33.977C910.767 33.977 912.315 32.753 912.747 30.953H911.109C910.803 31.979 909.885 32.609 908.553 32.609C906.681 32.609 905.655 31.169 905.529 29.279H912.945C912.945 27.641 912.549 26.255 911.757 25.301C911.001 24.365 909.885 23.807 908.445 23.807C905.673 23.807 903.819 26.075 903.819 28.883C903.819 31.709 905.565 33.977 908.535 33.977ZM908.445 25.103C910.119 25.103 911.073 26.219 911.163 28.073H905.565C905.781 26.363 906.699 25.103 908.445 25.103ZM921.599 33.707H923.291L924.749 28.379C924.983 27.461 925.343 25.679 925.343 25.679H925.379C925.379 25.679 925.757 27.443 925.991 28.379L927.413 33.707H929.087L932.237 24.041H930.509L928.907 29.405C928.547 30.593 928.277 32.249 928.277 32.249H928.241C928.241 32.249 927.899 30.467 927.629 29.441L926.189 24.041H924.605L923.147 29.441C922.823 30.611 922.499 32.231 922.499 32.231H922.463C922.463 32.231 922.139 30.503 921.833 29.405L920.321 24.041H918.539L921.599 33.707ZM933.538 22.259H935.284V20.315H933.538V22.259ZM933.574 33.707H935.248V24.041H933.574V33.707ZM939.203 24.041H937.547V33.707H939.221V27.821C939.221 26.273 940.301 25.211 941.795 25.211C943.109 25.211 943.919 25.913 943.919 27.155V33.707H945.575V26.957C945.575 24.941 944.333 23.807 942.317 23.807C940.913 23.807 939.959 24.437 939.257 25.409H939.203V24.041ZM956.319 33.995C958.587 33.995 960.207 32.987 960.207 31.025C960.207 28.775 958.551 28.343 956.625 27.965C954.987 27.641 954.051 27.443 954.051 26.435C954.051 25.697 954.609 25.085 955.923 25.085C957.309 25.085 957.993 25.643 958.137 26.633H959.811C959.595 24.959 958.389 23.825 955.959 23.825C953.709 23.825 952.413 24.869 952.413 26.525C952.413 28.649 954.123 29.045 956.013 29.441C957.723 29.783 958.533 30.053 958.533 31.115C958.533 31.979 957.885 32.645 956.355 32.645C954.969 32.645 953.889 32.177 953.691 30.773H951.999C952.143 32.735 953.655 33.995 956.319 33.995ZM961.246 25.337H962.758V31.817C962.758 33.239 963.658 33.761 964.954 33.779C965.386 33.779 965.854 33.725 966.304 33.617V32.213H966.25C966.07 32.267 965.692 32.339 965.404 32.339C964.792 32.339 964.414 32.141 964.414 31.439V25.337H966.412V24.041H964.414V20.999H962.758V24.041H961.246V25.337ZM969.806 24.041H968.15V33.707H969.824V28.451C969.824 26.633 971.102 25.517 972.596 25.517C972.884 25.517 973.046 25.535 973.28 25.607H973.334V24.023C973.154 23.951 972.992 23.915 972.722 23.915C971.444 23.915 970.454 24.671 969.86 25.787H969.806V24.041ZM978.813 33.977C981.045 33.977 982.593 32.753 983.025 30.953H981.387C981.081 31.979 980.163 32.609 978.831 32.609C976.959 32.609 975.933 31.169 975.807 29.279H983.223C983.223 27.641 982.827 26.255 982.035 25.301C981.279 24.365 980.163 23.807 978.723 23.807C975.951 23.807 974.097 26.075 974.097 28.883C974.097 31.709 975.843 33.977 978.813 33.977ZM978.723 25.103C980.397 25.103 981.351 26.219 981.441 28.073H975.843C976.059 26.363 976.977 25.103 978.723 25.103ZM987.887 33.905C989.525 33.905 990.515 33.131 991.127 32.285H991.145C991.325 33.311 991.829 33.797 992.855 33.797C993.251 33.797 993.521 33.725 993.755 33.653V32.483H993.683C992.837 32.663 992.657 32.249 992.657 31.475V26.957C992.657 25.661 992.171 24.815 991.361 24.329C990.749 23.969 989.939 23.807 989.021 23.807C986.411 23.807 985.169 25.265 985.097 26.903H986.717C986.771 25.751 987.509 25.031 989.039 25.031C990.371 25.031 991.109 25.679 991.109 26.723C991.109 27.713 990.191 27.947 988.769 28.109C986.267 28.415 984.611 28.901 984.611 31.151C984.611 33.005 986.051 33.905 987.887 33.905ZM988.301 32.681C987.329 32.681 986.375 32.375 986.375 31.133C986.375 29.801 987.419 29.513 989.003 29.243C989.795 29.099 990.641 28.865 991.127 28.559V30.143C991.127 31.259 990.227 32.681 988.301 32.681ZM1001.47 33.707H1003.43L999.309 27.515L1003 24.041H1000.91L996.717 28.163C996.753 27.695 996.789 27.011 996.789 26.669V20.315H995.115V33.707H996.789V29.909L998.157 28.613L1001.47 33.707ZM1009.65 36.983H1011.33V34.049C1011.33 33.311 1011.31 32.771 1011.29 32.429H1011.34C1012.01 33.455 1013.07 33.995 1014.39 33.995C1017 33.995 1018.6 31.997 1018.6 28.901C1018.6 25.715 1016.91 23.807 1014.44 23.807C1013.05 23.807 1012.08 24.455 1011.36 25.553H1011.31V24.041H1009.65V36.983ZM1014.21 32.609C1012.06 32.609 1011.24 30.971 1011.24 28.937C1011.24 26.885 1012.17 25.229 1014.22 25.229C1016.01 25.229 1016.89 26.813 1016.89 28.937C1016.89 31.043 1015.99 32.609 1014.21 32.609ZM1022.03 24.041H1020.37V33.707H1022.05V28.451C1022.05 26.633 1023.33 25.517 1024.82 25.517C1025.11 25.517 1025.27 25.535 1025.5 25.607H1025.56V24.023C1025.38 23.951 1025.22 23.915 1024.95 23.915C1023.67 23.915 1022.68 24.671 1022.08 25.787H1022.03V24.041ZM1027.16 22.259H1028.9V20.315H1027.16V22.259ZM1027.19 33.707H1028.87V24.041H1027.19V33.707ZM1030.81 33.707H1038.6V32.231H1034.7C1033.99 32.231 1032.77 32.285 1032.77 32.285V32.231C1032.77 32.231 1033.58 31.349 1033.99 30.827L1038.39 25.085V24.041H1031.13V25.463H1034.46C1035.13 25.463 1036.28 25.409 1036.28 25.409V25.463C1036.28 25.463 1035.52 26.273 1035.13 26.777L1030.81 32.411V33.707ZM1044.22 33.977C1046.45 33.977 1048 32.753 1048.43 30.953H1046.8C1046.49 31.979 1045.57 32.609 1044.24 32.609C1042.37 32.609 1041.34 31.169 1041.22 29.279H1048.63C1048.63 27.641 1048.24 26.255 1047.44 25.301C1046.69 24.365 1045.57 23.807 1044.13 23.807C1041.36 23.807 1039.51 26.075 1039.51 28.883C1039.51 31.709 1041.25 33.977 1044.22 33.977ZM1044.13 25.103C1045.81 25.103 1046.76 26.219 1046.85 28.073H1041.25C1041.47 26.363 1042.39 25.103 1044.13 25.103Z" fill="white"/>
<g clip-path="url(#clip2_2915_32592)">
<path fill-rule="evenodd" clip-rule="evenodd" d="M1178.11 31.0388C1178.2 30.8927 1178.25 30.7086 1178.25 30.4863V21.7026C1178.25 21.4803 1178.2 21.2993 1178.11 21.1596C1178.02 21.0135 1177.88 20.896 1177.69 20.8071C1177.16 20.5403 1176.73 20.2323 1176.39 19.883C1176.05 19.5273 1175.71 19.0287 1175.39 18.3873C1175.19 18.0252 1174.89 17.8442 1174.5 17.8442H1158.43C1158.04 17.8442 1157.75 18.0252 1157.55 18.3873C1157.22 19.0287 1156.89 19.5273 1156.55 19.883C1156.21 20.2323 1155.77 20.5403 1155.24 20.8071C1155.05 20.896 1154.91 21.0135 1154.82 21.1596C1154.73 21.2993 1154.69 21.4803 1154.69 21.7026V30.4863C1154.69 30.7086 1154.73 30.8927 1154.82 31.0388C1154.91 31.1785 1155.05 31.2929 1155.24 31.3818C1155.77 31.6422 1156.21 31.9502 1156.55 32.3059C1156.89 32.6552 1157.22 33.1538 1157.55 33.8016C1157.75 34.1573 1158.04 34.3351 1158.43 34.3351H1174.5C1174.89 34.3351 1175.19 34.1573 1175.39 33.8016C1175.71 33.1538 1176.05 32.6552 1176.39 32.3059C1176.73 31.9502 1177.16 31.6422 1177.69 31.3818C1177.88 31.2929 1178.02 31.1785 1178.11 31.0388ZM1170.51 26.4202V27.2344C1170.51 27.3749 1170.39 27.4887 1170.25 27.4887C1170.11 27.4887 1170 27.375 1170 27.2344V26.4202H1168.65V27.2344C1168.65 27.3749 1168.54 27.4887 1168.4 27.4887C1168.26 27.4887 1168.15 27.375 1168.15 27.2344V26.4202H1166.8V27.2344C1166.8 27.3749 1166.69 27.4887 1166.55 27.4887C1166.41 27.4887 1166.29 27.375 1166.29 27.2344V26.4202H1164.95V27.2344C1164.95 27.3749 1164.84 27.4887 1164.7 27.4887C1164.56 27.4887 1164.44 27.375 1164.44 27.2344V26.4202H1163.1V27.2344C1163.1 27.3749 1162.99 27.4887 1162.84 27.4887C1162.7 27.4887 1162.59 27.375 1162.59 27.2344V26.4202H1161.58L1161.58 30.068C1163.06 30.8678 1164.75 31.3265 1166.55 31.3265C1168.35 31.3265 1170.04 30.8675 1171.52 30.068V26.4202H1170.51ZM1175.62 26.0895C1175.62 25.0979 1173.79 23.6146 1172.53 22.7368V29.4429C1173.79 28.5649 1175.62 27.1819 1175.62 26.0895ZM1162.59 25.0977V25.9117L1161.58 25.9115V22.1112C1163.06 21.3117 1164.75 20.8528 1166.55 20.8528C1168.35 20.8528 1170.04 21.3115 1171.52 22.1111V25.9117H1170.51V25.0977C1170.51 24.9572 1170.39 24.8434 1170.25 24.8434C1170.11 24.8434 1170 24.9572 1170 25.0977V25.9117H1168.65V25.0977C1168.65 24.9572 1168.54 24.8434 1168.4 24.8434C1168.26 24.8434 1168.15 24.9572 1168.15 25.0977V25.9117H1166.8V25.0977C1166.8 24.9572 1166.69 24.8434 1166.55 24.8434C1166.41 24.8434 1166.29 24.9572 1166.29 25.0977V25.9117H1164.95V25.0977C1164.95 24.9572 1164.84 24.8434 1164.7 24.8434C1164.56 24.8434 1164.44 24.9572 1164.44 25.0977V25.9117H1163.1V25.0977C1163.1 24.9572 1162.98 24.8434 1162.84 24.8434C1162.7 24.8434 1162.59 24.9572 1162.59 25.0977ZM1157.32 26.0895C1157.31 25.0979 1159.14 23.6146 1160.4 22.7368V29.4429C1159.14 28.5649 1157.32 27.1819 1157.32 26.0895Z" fill="white"/>
</g>
<path d="M1224 50.4722H809V52.4722H1224V50.4722Z" fill="white" mask="url(#path-17-inside-4_2915_32592)"/>
<path d="M869.96 101.785H851.144V108.361H856.952V140.089H864.056V108.361H869.96V101.785ZM890.737 113.689L888.625 133.081L885.841 113.689H879.264L876.816 133.081L874.368 113.689H867.84L872.592 140.089H880.273C880.273 140.089 881.953 130.729 882.481 127.609C882.529 127.321 882.577 124.873 882.577 124.873C882.577 124.873 882.721 127.321 882.768 127.609C883.297 130.633 884.929 140.089 884.929 140.089H892.513L897.12 113.689H890.737ZM914.574 118.729C913.71 115.705 911.406 113.353 906.654 113.353C901.902 113.353 899.55 115.945 898.782 118.585C898.11 120.841 897.774 124.009 897.774 126.841C897.774 129.769 898.158 133.321 898.59 134.905C899.502 138.217 902.238 140.425 906.558 140.425C911.118 140.425 913.566 138.265 914.526 134.905C915.102 132.985 915.39 129.721 915.39 126.841C915.39 124.009 915.15 120.697 914.574 118.729ZM908.862 133.321C908.718 134.329 907.806 135.193 906.606 135.193C905.454 135.193 904.59 134.569 904.398 133.369C904.158 132.121 904.11 129.001 904.11 126.937C904.11 124.969 904.158 121.753 904.398 120.649C904.686 119.449 905.358 118.777 906.606 118.777C907.902 118.777 908.574 119.305 908.862 120.553C909.054 121.561 909.15 124.921 909.15 126.937C909.15 128.953 909.198 131.017 908.862 133.321ZM945.186 101.785H938.658V120.505L932.658 101.785H925.986V140.089H932.514V120.985L938.562 140.089H945.186V101.785ZM965.582 101.785H948.638V140.089H955.646V124.105H964.814V117.673H955.646V108.361H965.582V101.785ZM985.004 133.609H974.876V101.785H967.868V140.089H985.004V133.609ZM1014.71 131.161V118.441H1004.2V124.489H1008.09C1008.09 124.489 1008.14 130.729 1008.09 131.545C1007.99 133.513 1006.84 134.521 1005.06 134.521C1003.48 134.521 1002.66 133.705 1002.33 131.977C1001.75 128.953 1001.75 123.961 1001.75 121.033C1001.75 117.913 1001.8 113.305 1002.28 109.993C1002.52 108.361 1003.58 107.641 1004.92 107.641C1006.41 107.641 1007.32 108.457 1007.46 109.993C1007.66 111.961 1007.66 114.601 1007.66 114.889H1014.52C1014.52 111.481 1014.38 109.561 1014.09 107.833C1013.51 104.377 1010.97 101.449 1004.78 101.449C998.727 101.449 996.183 104.857 995.367 107.929C994.503 111.241 994.407 117.049 994.407 121.033C994.407 125.161 994.551 130.537 995.367 133.993C996.375 138.217 999.399 140.425 1003.43 140.425C1006.36 140.425 1008.33 139.609 1009.29 138.361L1009.62 140.089H1014.81C1014.81 140.041 1014.71 135.577 1014.71 131.161ZM1033.77 135.385C1033.77 133.417 1033.81 130.201 1033.81 128.137C1033.86 125.689 1033.91 121.705 1033.81 119.401C1033.67 115.705 1031.37 113.353 1025.85 113.353C1019.99 113.353 1017.59 115.993 1017.59 120.937V122.905H1023.54V121.417C1023.54 119.593 1024.12 118.681 1025.75 118.681C1026.95 118.681 1027.57 119.353 1027.62 120.505C1027.67 121.321 1027.67 122.953 1027.67 123.673C1026.61 123.673 1025.51 123.817 1024.31 124.009C1019.89 124.825 1016.92 127.225 1016.68 131.065C1016.58 132.457 1016.63 134.713 1016.68 135.289C1016.87 139.129 1019.8 140.281 1022.44 140.281C1024.79 140.281 1026.57 139.657 1027.77 138.169C1027.77 138.841 1027.91 140.089 1028.01 140.089H1034.1C1033.86 139.753 1033.77 137.305 1033.77 135.385ZM1027.67 130.009C1027.57 131.353 1027.67 132.025 1027.43 133.417C1027.19 134.761 1026.04 135.289 1025.03 135.289C1024.07 135.289 1023.3 134.953 1023.16 134.041C1023.06 133.273 1023.06 132.361 1023.06 131.641C1023.06 130.537 1023.11 129.769 1023.93 129.049C1024.65 128.425 1025.46 128.281 1026.13 128.137C1026.71 128.041 1027.19 128.041 1027.67 128.041C1027.67 128.425 1027.72 129.481 1027.67 130.009ZM1062.74 140.089C1062.79 140.089 1062.69 139.321 1062.69 118.873C1062.69 115.561 1061.25 113.305 1057.6 113.305C1055.15 113.305 1053.28 114.361 1052.47 116.377C1051.79 114.505 1050.4 113.305 1048 113.305C1045.22 113.305 1043.49 114.553 1042.87 116.185V113.689H1036.67V140.089H1043.01V121.369C1043.01 120.073 1043.78 118.873 1045.07 118.873C1046.18 118.873 1046.71 119.593 1046.71 120.745V140.089H1052.9V121.177C1052.9 119.977 1053.62 118.873 1054.87 118.873C1056.21 118.873 1056.55 119.785 1056.55 120.841C1056.55 139.321 1056.55 140.089 1056.59 140.089H1062.74ZM1076.26 131.497C1076.26 132.169 1076.17 132.985 1075.97 133.801C1075.73 134.857 1074.73 135.289 1073.77 135.289C1072.81 135.289 1071.7 134.713 1071.56 133.417C1071.41 132.217 1071.37 130.297 1071.37 129.097H1082.26C1082.5 124.585 1082.17 119.977 1081.25 117.721C1080.15 115.033 1077.61 113.353 1073.91 113.353C1069.35 113.353 1067.33 115.417 1066.37 117.769C1065.65 119.497 1065.13 123.049 1065.13 127.033C1065.13 131.113 1065.46 134.137 1066.57 136.681C1067.72 139.369 1070.45 140.425 1074.01 140.425C1077.56 140.425 1079.72 138.985 1080.87 136.921C1081.88 135.145 1082.12 132.265 1082.12 131.497H1076.26ZM1071.27 124.393C1071.27 122.569 1071.32 120.841 1071.65 120.025C1071.99 119.113 1072.76 118.633 1073.81 118.633C1074.92 118.633 1075.64 119.161 1075.88 120.073C1076.07 120.697 1076.21 121.993 1076.21 124.393H1071.27ZM869.96 157.785H851.144V164.361H856.952V196.089H864.056V164.361H869.96V157.785ZM877.589 161.817H870.821V168.297H877.589V161.817ZM877.493 194.169V169.689H870.917V194.265C870.917 195.321 870.917 196.089 871.157 196.089H877.637C877.589 196.041 877.493 195.177 877.493 194.169ZM896.52 174.153C895.656 171.417 893.64 169.353 888.696 169.353C884.952 169.353 882.264 171.033 881.304 173.865C880.344 176.745 880.056 179.049 880.056 182.889C880.056 186.873 880.632 190.857 881.4 192.585C882.456 194.985 885 196.425 888.792 196.425C892.68 196.425 895.176 194.697 896.04 192.489C896.952 190.185 897 189.081 897 185.481H891.048C891.048 187.161 891.048 187.689 890.856 189.081C890.712 190.185 890.04 191.049 888.792 191.049C887.544 191.049 886.92 190.473 886.728 189.129C886.44 187.161 886.344 184.473 886.344 182.937C886.344 181.017 886.44 178.617 886.728 176.745C886.92 175.449 887.592 174.777 888.744 174.777C890.088 174.777 890.568 175.641 890.712 176.697C890.856 177.705 891 178.905 891 180.441H897C897 177.225 896.856 175.305 896.52 174.153ZM912.064 179.289L917.056 169.689H910.816L905.68 179.817V157.737H899.344V196.089H905.68V188.169L907.552 185.145L910.864 196.089H917.296L912.064 179.289ZM928.808 187.497C928.808 188.169 928.712 188.985 928.52 189.801C928.28 190.857 927.272 191.289 926.312 191.289C925.352 191.289 924.248 190.713 924.104 189.417C923.96 188.217 923.912 186.297 923.912 185.097H934.808C935.048 180.585 934.712 175.977 933.8 173.721C932.696 171.033 930.152 169.353 926.456 169.353C921.896 169.353 919.88 171.417 918.92 173.769C918.2 175.497 917.672 179.049 917.672 183.033C917.672 187.113 918.008 190.137 919.112 192.681C920.264 195.369 923 196.425 926.552 196.425C930.104 196.425 932.264 194.985 933.416 192.921C934.424 191.145 934.664 188.265 934.664 187.497H928.808ZM923.816 180.393C923.816 178.569 923.864 176.841 924.2 176.025C924.536 175.113 925.304 174.633 926.36 174.633C927.464 174.633 928.184 175.161 928.424 176.073C928.616 176.697 928.76 177.993 928.76 180.393H923.816ZM948.524 169.689H944.828V164.601L938.588 164.745C938.588 164.745 938.396 169.545 938.348 169.689H935.996V175.305H938.252V190.329C938.252 194.457 940.556 196.281 944.492 196.281C946.172 196.281 947.228 196.185 948.236 195.945V190.809C947.756 190.905 947.132 190.953 946.604 190.953C945.596 190.953 944.78 190.665 944.78 189.177V175.305H948.524V169.689ZM961.84 181.161C960.64 180.537 959.44 180.009 958.24 179.433C956.704 178.713 956.176 177.897 956.176 176.601C956.176 175.497 956.656 174.585 958.144 174.585C959.488 174.585 959.92 175.353 960.016 176.169C960.064 176.361 960.112 177.849 960.112 178.137H965.92C965.92 177.609 965.776 174.825 965.632 174.057C965.008 171.129 962.56 169.305 957.904 169.305C952.816 169.305 950.224 172.281 950.224 176.457C950.224 180.393 951.376 182.841 954.832 184.473C955.792 184.905 957.088 185.529 957.904 185.865C959.728 186.585 960.352 187.497 960.352 189.129C960.352 190.617 959.44 191.337 958.24 191.337C957.088 191.337 956.176 190.857 956.08 189.753C956.032 188.937 955.984 188.121 955.984 187.785H950.032C950.032 188.601 950.08 190.281 950.176 191.145C950.608 194.697 953.008 196.473 958.384 196.473C963.136 196.473 966.448 193.929 966.448 188.937C966.448 184.905 965.2 182.841 961.84 181.161ZM992.109 174.441H986.877V168.537H981.213V174.441H975.885V180.057H981.213V186.009H986.829V180.057H992.109V174.441ZM1021.71 157.785H1015.18V176.505L1009.18 157.785H1002.51V196.089H1009.03V176.985L1015.08 196.089H1021.71V157.785ZM1042.1 157.785H1025.16V196.089H1032.17V180.105H1041.33V173.673H1032.17V164.361H1042.1V157.785ZM1061.52 189.609H1051.4V157.785H1044.39V196.089H1061.52V189.609ZM1083.02 157.785H1076.06V187.161C1076.06 188.697 1075.39 190.041 1073.42 190.137C1072.32 190.185 1071.31 190.137 1070.45 190.041V196.041C1071.7 196.233 1072.32 196.329 1074.29 196.329C1080.19 196.329 1083.02 194.073 1083.02 188.169V157.785ZM1096.74 187.497C1096.74 188.169 1096.65 188.985 1096.46 189.801C1096.22 190.857 1095.21 191.289 1094.25 191.289C1093.29 191.289 1092.18 190.713 1092.04 189.417C1091.9 188.217 1091.85 186.297 1091.85 185.097H1102.74C1102.98 180.585 1102.65 175.977 1101.74 173.721C1100.63 171.033 1098.09 169.353 1094.39 169.353C1089.83 169.353 1087.82 171.417 1086.86 173.769C1086.14 175.497 1085.61 179.049 1085.61 183.033C1085.61 187.113 1085.94 190.137 1087.05 192.681C1088.2 195.369 1090.94 196.425 1094.49 196.425C1098.04 196.425 1100.2 194.985 1101.35 192.921C1102.36 191.145 1102.6 188.265 1102.6 187.497H1096.74ZM1091.75 180.393C1091.75 178.569 1091.8 176.841 1092.14 176.025C1092.47 175.113 1093.24 174.633 1094.3 174.633C1095.4 174.633 1096.12 175.161 1096.36 176.073C1096.55 176.697 1096.7 177.993 1096.7 180.393H1091.75ZM1116.12 169.353C1113.92 169.353 1111.71 170.793 1111.42 172.809V169.689H1105.08V196.089H1111.52V180.441C1111.52 176.121 1112.86 175.161 1115.07 175.161C1116.36 175.161 1117.66 175.401 1118.43 175.641V169.593C1117.9 169.401 1117.13 169.353 1116.12 169.353ZM1131.09 181.161C1129.89 180.537 1128.69 180.009 1127.49 179.433C1125.95 178.713 1125.42 177.897 1125.42 176.601C1125.42 175.497 1125.9 174.585 1127.39 174.585C1128.74 174.585 1129.17 175.353 1129.26 176.169C1129.31 176.361 1129.36 177.849 1129.36 178.137H1135.17C1135.17 177.609 1135.02 174.825 1134.88 174.057C1134.26 171.129 1131.81 169.305 1127.15 169.305C1122.06 169.305 1119.47 172.281 1119.47 176.457C1119.47 180.393 1120.62 182.841 1124.08 184.473C1125.04 184.905 1126.34 185.529 1127.15 185.865C1128.98 186.585 1129.6 187.497 1129.6 189.129C1129.6 190.617 1128.69 191.337 1127.49 191.337C1126.34 191.337 1125.42 190.857 1125.33 189.753C1125.28 188.937 1125.23 188.121 1125.23 187.785H1119.28C1119.28 188.601 1119.33 190.281 1119.42 191.145C1119.86 194.697 1122.26 196.473 1127.63 196.473C1132.38 196.473 1135.7 193.929 1135.7 188.937C1135.7 184.905 1134.45 182.841 1131.09 181.161ZM1148.67 187.497C1148.67 188.169 1148.57 188.985 1148.38 189.801C1148.14 190.857 1147.13 191.289 1146.17 191.289C1145.21 191.289 1144.11 190.713 1143.97 189.417C1143.82 188.217 1143.77 186.297 1143.77 185.097H1154.67C1154.91 180.585 1154.57 175.977 1153.66 173.721C1152.56 171.033 1150.01 169.353 1146.32 169.353C1141.76 169.353 1139.74 171.417 1138.78 173.769C1138.06 175.497 1137.53 179.049 1137.53 183.033C1137.53 187.113 1137.87 190.137 1138.97 192.681C1140.13 195.369 1142.86 196.425 1146.41 196.425C1149.97 196.425 1152.13 194.985 1153.28 192.921C1154.29 191.145 1154.53 188.265 1154.53 187.497H1148.67ZM1143.68 180.393C1143.68 178.569 1143.73 176.841 1144.06 176.025C1144.4 175.113 1145.17 174.633 1146.22 174.633C1147.33 174.633 1148.05 175.161 1148.29 176.073C1148.48 176.697 1148.62 177.993 1148.62 180.393H1143.68ZM1168.07 169.689C1168.02 170.505 1164.95 186.105 1164.85 186.681C1164.8 186.153 1161.73 170.361 1161.63 169.689H1155.11L1161.39 195.369L1159.23 203.913H1165.81L1174.45 169.689H1168.07Z" fill="white"/>
</g>
<path d="M809 0.707031H1224H809ZM1224 250.707H809H1224ZM808 250.707V0.707031H810V250.707H808ZM1224 0.707031V250.707V0.707031Z" fill="white" mask="url(#path-15-inside-3_2915_32592)"/>
<rect x="624.5" y="1.20703" width="599" height="249" rx="11.5" stroke="white"/>
<defs>
<clipPath id="clip0_2915_32592">
<path d="M185 0.707031H600V250.707H185V0.707031Z" fill="white"/>
</clipPath>
<clipPath id="clip1_2915_32592">
<path d="M809 0.707031H1224V250.707H809V0.707031Z" fill="white"/>
</clipPath>
<clipPath id="clip2_2915_32592">
<rect x="1154.47" y="14.0898" width="24" height="24" rx="4" fill="white"/>
</clipPath>
</defs>
</svg>
