<svg width="100%" height="auto" viewBox="0 0 1224 252" fill="none" xmlns="http://www.w3.org/2000/svg">
<path d="M126.46 112.33H116.06V30.2496H91.58L58.62 111.05V132.01H94.46V158.09H116.06V132.01H126.46V112.33ZM77.98 112.33L94.46 72.0096V112.33H77.98Z" fill="white"/>
<path d="M73.2044 192.418V188.098H67.5344V190.132H71.0084C71.0084 190.132 71.0264 192.184 70.9904 192.364C70.7564 193.426 69.8024 194.236 68.2724 194.236C67.0124 194.236 66.2384 193.912 65.7524 193.21C65.1764 192.364 65.0144 191.122 65.0144 189.016C65.0144 186.946 65.2664 185.596 65.7704 184.822C66.2564 184.102 67.0304 183.796 68.1104 183.796C69.1184 183.796 69.8204 184.102 70.2344 184.714C70.6124 185.29 70.8284 186.136 70.8284 186.622H73.1324C73.1324 185.992 72.9524 184.75 72.5204 183.886C71.8724 182.608 70.5224 181.654 68.0564 181.654C65.6804 181.654 64.3484 182.644 63.5924 183.814C62.8004 185.056 62.5664 186.766 62.5664 188.98C62.5664 191.554 62.9624 193.21 63.6464 194.29C64.4744 195.586 65.8784 196.27 67.7684 196.27C69.7124 196.27 70.7564 195.586 71.2424 194.866L71.3504 196.09H73.2224C73.2224 196.036 73.2044 194.128 73.2044 192.418ZM85.209 192.634L86.199 196.09H88.647L84.435 181.834H81.411L76.911 196.09H79.323L80.367 192.634H85.209ZM81.015 190.582C81.015 190.582 82.581 185.416 82.599 185.326C82.635 185.182 82.869 184.048 82.869 184.048C82.869 184.048 83.103 185.182 83.139 185.326C83.175 185.434 84.597 190.582 84.597 190.582H81.015ZM105.429 181.834H102.351L99.1468 192.436L95.9968 181.834H92.7388V196.09H94.9528V186.316L97.8868 196.09H100.209L103.197 186.28V196.09H105.429V181.834ZM119.504 193.93H113.006V190.024H119.144V187.846H113.006V183.994H119.432V181.834H110.666V196.09H119.504V193.93ZM58.9932 216.152C58.5972 216.008 57.7512 215.684 57.2472 215.522C55.5012 214.946 54.6372 214.388 54.6372 213.272C54.6372 212.318 55.2852 211.742 57.1032 211.742C58.6512 211.742 59.3712 212.174 59.6772 213.056C59.7852 213.38 59.8392 213.65 59.8392 213.956H62.2512C62.2512 213.416 62.1612 212.984 62.0352 212.552C61.5312 210.788 60.0912 209.672 57.1572 209.672C53.7912 209.672 52.2072 211.148 52.2072 213.344C52.2072 215.45 53.5932 216.71 55.7352 217.412C56.3292 217.61 57.1752 217.934 57.5352 218.06C59.4432 218.726 60.0192 219.302 60.0192 220.508C60.0192 221.588 59.2452 222.236 57.4272 222.236C55.8792 222.236 54.9792 221.84 54.7092 220.994C54.6012 220.652 54.5472 220.166 54.5472 219.914H52.1532C52.1532 220.328 52.1892 220.994 52.3152 221.48C52.7472 223.154 54.1872 224.27 57.4812 224.27C60.8112 224.27 62.4492 222.686 62.4492 220.31C62.4492 218.096 61.2252 216.926 58.9932 216.152ZM75.9467 209.834H65.8487V211.976H69.6827V224.09H72.0947V211.976H75.9467V209.834ZM89.3267 211.418C88.8227 210.41 87.8687 209.834 86.3027 209.834H80.0927V224.09H82.4327V218.15H85.5287L88.0127 224.09H90.6227L87.8147 217.628C88.4447 217.502 89.0207 217.052 89.3807 216.368C89.6507 215.828 89.7947 215.036 89.7947 213.956C89.7947 212.804 89.6867 212.102 89.3267 211.418ZM87.2387 215.486C87.0587 215.882 86.6087 216.098 85.9787 216.116H82.4507V211.958H85.7987C86.6087 211.958 87.1127 212.246 87.3107 212.786C87.4007 213.02 87.4367 213.65 87.4367 214.172C87.4367 214.604 87.3647 215.18 87.2387 215.486ZM103.799 221.93H97.301V218.024H103.439V215.846H97.301V211.994H103.727V209.834H94.961V224.09H103.799V221.93ZM115.656 220.634L116.646 224.09H119.094L114.882 209.834H111.858L107.358 224.09H109.77L110.814 220.634H115.656ZM111.462 218.582C111.462 218.582 113.028 213.416 113.046 213.326C113.082 213.182 113.316 212.048 113.316 212.048C113.316 212.048 113.55 213.182 113.586 213.326C113.622 213.434 115.044 218.582 115.044 218.582H111.462ZM128.244 215.99L133.374 209.834H130.71L125.562 215.9V209.834H123.186V224.09H125.562V218.996L126.606 217.772L130.674 224.09H133.482L128.244 215.99Z" fill="white"/>
<g clip-path="url(#clip0_2915_32601)">
<path d="M233.966 33.707H235.658V30.593H237.746V29.243H235.658V20.747H234.236L227.756 29.045V30.593H233.966V33.707ZM229.16 29.315V29.279C229.16 29.279 230.024 28.325 230.528 27.695L232.904 24.671C233.426 24.005 234.02 22.997 234.02 22.997H234.056C234.056 22.997 233.966 24.203 233.966 24.887V29.243H231.068C230.33 29.243 229.16 29.315 229.16 29.315ZM248.234 37.091C249.53 37.091 250.61 36.803 251.366 36.173C252.104 35.543 252.536 34.589 252.536 33.311V24.041H250.88V25.319H250.844C250.232 24.347 249.296 23.807 247.91 23.807C245.642 23.807 243.77 25.571 243.77 28.541C243.77 31.349 245.534 33.275 248 33.275C249.368 33.275 250.214 32.681 250.88 31.727H250.916C250.898 32.033 250.88 32.555 250.88 33.113V33.383C250.88 35.021 249.926 35.795 248.198 35.795C246.758 35.795 245.786 35.381 245.642 34.373H244.076C244.256 36.083 245.696 37.091 248.234 37.091ZM248.162 31.907C246.416 31.907 245.48 30.611 245.48 28.559C245.48 26.525 246.38 25.193 248.144 25.193C250.07 25.193 250.988 26.435 250.988 28.469C250.988 30.431 250.268 31.907 248.162 31.907ZM257.733 33.905C259.371 33.905 260.361 33.131 260.973 32.285H260.991C261.171 33.311 261.675 33.797 262.701 33.797C263.097 33.797 263.367 33.725 263.601 33.653V32.483H263.529C262.683 32.663 262.503 32.249 262.503 31.475V26.957C262.503 25.661 262.017 24.815 261.207 24.329C260.595 23.969 259.785 23.807 258.867 23.807C256.257 23.807 255.015 25.265 254.943 26.903H256.563C256.617 25.751 257.355 25.031 258.885 25.031C260.217 25.031 260.955 25.679 260.955 26.723C260.955 27.713 260.037 27.947 258.615 28.109C256.113 28.415 254.457 28.901 254.457 31.151C254.457 33.005 255.897 33.905 257.733 33.905ZM258.147 32.681C257.175 32.681 256.221 32.375 256.221 31.133C256.221 29.801 257.265 29.513 258.849 29.243C259.641 29.099 260.487 28.865 260.973 28.559V30.143C260.973 31.259 260.073 32.681 258.147 32.681ZM264.961 33.707H266.635V27.749C266.635 26.273 267.877 25.211 269.029 25.211C270.019 25.211 270.685 25.913 270.685 27.101V33.707H272.341V27.749C272.341 26.273 273.403 25.211 274.627 25.211C275.599 25.211 276.373 25.913 276.373 27.101V33.707H278.047V26.957C278.047 24.941 276.823 23.807 275.059 23.807C273.889 23.807 272.755 24.401 272.071 25.607H272.035C271.639 24.419 270.703 23.807 269.533 23.807C268.291 23.807 267.265 24.437 266.671 25.481H266.617V24.041H264.961V33.707ZM284.483 33.977C286.715 33.977 288.263 32.753 288.695 30.953H287.057C286.751 31.979 285.833 32.609 284.501 32.609C282.629 32.609 281.603 31.169 281.477 29.279H288.893C288.893 27.641 288.497 26.255 287.705 25.301C286.949 24.365 285.833 23.807 284.393 23.807C281.621 23.807 279.767 26.075 279.767 28.883C279.767 31.709 281.513 33.977 284.483 33.977ZM284.393 25.103C286.067 25.103 287.021 26.219 287.111 28.073H281.513C281.729 26.363 282.647 25.103 284.393 25.103ZM297.547 33.707H299.239L300.697 28.379C300.931 27.461 301.291 25.679 301.291 25.679H301.327C301.327 25.679 301.705 27.443 301.939 28.379L303.361 33.707H305.035L308.185 24.041H306.457L304.855 29.405C304.495 30.593 304.225 32.249 304.225 32.249H304.189C304.189 32.249 303.847 30.467 303.577 29.441L302.137 24.041H300.553L299.095 29.441C298.771 30.611 298.447 32.231 298.447 32.231H298.411C298.411 32.231 298.087 30.503 297.781 29.405L296.269 24.041H294.487L297.547 33.707ZM309.485 22.259H311.231V20.315H309.485V22.259ZM309.521 33.707H311.195V24.041H309.521V33.707ZM315.15 24.041H313.494V33.707H315.168V27.821C315.168 26.273 316.248 25.211 317.742 25.211C319.056 25.211 319.866 25.913 319.866 27.155V33.707H321.522V26.957C321.522 24.941 320.28 23.807 318.264 23.807C316.86 23.807 315.906 24.437 315.204 25.409H315.15V24.041ZM332.266 33.995C334.534 33.995 336.154 32.987 336.154 31.025C336.154 28.775 334.498 28.343 332.572 27.965C330.934 27.641 329.998 27.443 329.998 26.435C329.998 25.697 330.556 25.085 331.87 25.085C333.256 25.085 333.94 25.643 334.084 26.633H335.758C335.542 24.959 334.336 23.825 331.906 23.825C329.656 23.825 328.36 24.869 328.36 26.525C328.36 28.649 330.07 29.045 331.96 29.441C333.67 29.783 334.48 30.053 334.48 31.115C334.48 31.979 333.832 32.645 332.302 32.645C330.916 32.645 329.836 32.177 329.638 30.773H327.946C328.09 32.735 329.602 33.995 332.266 33.995ZM337.193 25.337H338.705V31.817C338.705 33.239 339.605 33.761 340.901 33.779C341.333 33.779 341.801 33.725 342.251 33.617V32.213H342.197C342.017 32.267 341.639 32.339 341.351 32.339C340.739 32.339 340.361 32.141 340.361 31.439V25.337H342.359V24.041H340.361V20.999H338.705V24.041H337.193V25.337ZM345.753 24.041H344.097V33.707H345.771V28.451C345.771 26.633 347.049 25.517 348.543 25.517C348.831 25.517 348.993 25.535 349.227 25.607H349.281V24.023C349.101 23.951 348.939 23.915 348.669 23.915C347.391 23.915 346.401 24.671 345.807 25.787H345.753V24.041ZM354.76 33.977C356.992 33.977 358.54 32.753 358.972 30.953H357.334C357.028 31.979 356.11 32.609 354.778 32.609C352.906 32.609 351.88 31.169 351.754 29.279H359.17C359.17 27.641 358.774 26.255 357.982 25.301C357.226 24.365 356.11 23.807 354.67 23.807C351.898 23.807 350.044 26.075 350.044 28.883C350.044 31.709 351.79 33.977 354.76 33.977ZM354.67 25.103C356.344 25.103 357.298 26.219 357.388 28.073H351.79C352.006 26.363 352.924 25.103 354.67 25.103ZM363.835 33.905C365.473 33.905 366.463 33.131 367.075 32.285H367.093C367.273 33.311 367.777 33.797 368.803 33.797C369.199 33.797 369.469 33.725 369.703 33.653V32.483H369.631C368.785 32.663 368.605 32.249 368.605 31.475V26.957C368.605 25.661 368.119 24.815 367.309 24.329C366.697 23.969 365.887 23.807 364.969 23.807C362.359 23.807 361.117 25.265 361.045 26.903H362.665C362.719 25.751 363.457 25.031 364.987 25.031C366.319 25.031 367.057 25.679 367.057 26.723C367.057 27.713 366.139 27.947 364.717 28.109C362.215 28.415 360.559 28.901 360.559 31.151C360.559 33.005 361.999 33.905 363.835 33.905ZM364.249 32.681C363.277 32.681 362.323 32.375 362.323 31.133C362.323 29.801 363.367 29.513 364.951 29.243C365.743 29.099 366.589 28.865 367.075 28.559V30.143C367.075 31.259 366.175 32.681 364.249 32.681ZM377.416 33.707H379.378L375.256 27.515L378.946 24.041H376.858L372.664 28.163C372.7 27.695 372.736 27.011 372.736 26.669V20.315H371.062V33.707H372.736V29.909L374.104 28.613L377.416 33.707ZM385.599 36.983H387.273V34.049C387.273 33.311 387.255 32.771 387.237 32.429H387.291C387.957 33.455 389.019 33.995 390.333 33.995C392.943 33.995 394.545 31.997 394.545 28.901C394.545 25.715 392.853 23.807 390.387 23.807C389.001 23.807 388.029 24.455 387.309 25.553H387.255V24.041H385.599V36.983ZM390.153 32.609C388.011 32.609 387.183 30.971 387.183 28.937C387.183 26.885 388.119 25.229 390.171 25.229C391.953 25.229 392.835 26.813 392.835 28.937C392.835 31.043 391.935 32.609 390.153 32.609ZM397.978 24.041H396.322V33.707H397.996V28.451C397.996 26.633 399.274 25.517 400.768 25.517C401.056 25.517 401.218 25.535 401.452 25.607H401.506V24.023C401.326 23.951 401.164 23.915 400.894 23.915C399.616 23.915 398.626 24.671 398.032 25.787H397.978V24.041ZM403.106 22.259H404.852V20.315H403.106V22.259ZM403.142 33.707H404.816V24.041H403.142V33.707ZM406.755 33.707H414.549V32.231H410.643C409.941 32.231 408.717 32.285 408.717 32.285V32.231C408.717 32.231 409.527 31.349 409.941 30.827L414.333 25.085V24.041H407.079V25.463H410.409C411.075 25.463 412.227 25.409 412.227 25.409V25.463C412.227 25.463 411.471 26.273 411.075 26.777L406.755 32.411V33.707ZM420.168 33.977C422.4 33.977 423.948 32.753 424.38 30.953H422.742C422.436 31.979 421.518 32.609 420.186 32.609C418.314 32.609 417.288 31.169 417.162 29.279H424.578C424.578 27.641 424.182 26.255 423.39 25.301C422.634 24.365 421.518 23.807 420.078 23.807C417.306 23.807 415.452 26.075 415.452 28.883C415.452 31.709 417.198 33.977 420.168 33.977ZM420.078 25.103C421.752 25.103 422.706 26.219 422.796 28.073H417.198C417.414 26.363 418.332 25.103 420.078 25.103Z" fill="white"/>
<g clip-path="url(#clip1_2915_32601)">
<path d="M550.411 26.614V33.5616C550.411 33.8407 550.3 34.1084 550.102 34.3058C549.905 34.5031 549.637 34.614 549.358 34.614H534.624C534.345 34.614 534.077 34.5031 533.88 34.3058C533.682 34.1084 533.571 33.8407 533.571 33.5616V26.614H550.411ZM544.622 14.6176C545.244 14.6174 545.855 14.7745 546.4 15.0743C546.944 15.3741 547.404 15.8068 547.736 16.3322C548.069 16.8575 548.263 17.4585 548.3 18.0789C548.338 18.6994 548.218 19.3193 547.951 19.8809L551.463 19.8798C551.742 19.8798 552.01 19.9907 552.207 20.1881C552.405 20.3854 552.515 20.6531 552.515 20.9323V24.0896C552.515 24.3687 552.405 24.6364 552.207 24.8338C552.01 25.0312 551.742 25.142 551.463 25.142H532.519C532.24 25.142 531.972 25.0312 531.775 24.8338C531.577 24.6364 531.467 24.3687 531.467 24.0896V20.9323C531.467 20.6531 531.577 20.3854 531.775 20.1881C531.972 19.9907 532.24 19.8798 532.519 19.8798L536.031 19.8809C535.656 19.0933 535.573 18.1982 535.796 17.355C536.019 16.5118 536.534 15.7751 537.25 15.2762C537.965 14.7772 538.835 14.5484 539.703 14.6303C540.571 14.7123 541.383 15.0997 541.992 15.7237C542.334 15.3728 542.743 15.094 543.195 14.904C543.647 14.714 544.132 14.6166 544.622 14.6176ZM539.36 16.7225C538.954 16.7227 538.565 16.8789 538.271 17.1586C537.978 17.4384 537.803 17.8203 537.784 18.2253C537.764 18.6302 537.901 19.0272 538.167 19.3338C538.432 19.6405 538.805 19.8333 539.208 19.8725L539.36 19.8798H540.939V18.3012C540.939 17.9087 540.792 17.5304 540.528 17.2399C540.265 16.9494 539.902 16.7675 539.511 16.7299L539.36 16.7225ZM544.622 16.7225L544.471 16.7299C544.106 16.7648 543.764 16.9256 543.505 17.1846C543.246 17.4437 543.085 17.7848 543.05 18.1496L543.043 18.3012V19.8798H544.622L544.774 19.8725C545.164 19.8346 545.527 19.6527 545.79 19.3622C546.054 19.0717 546.2 18.6935 546.2 18.3012C546.2 17.9088 546.054 17.5306 545.79 17.2401C545.527 16.9496 545.164 16.7677 544.774 16.7299L544.622 16.7225Z" fill="white"/>
</g>
<path d="M600 50.4722H185V52.4722H600V50.4722Z" fill="white" mask="url(#path-6-inside-2_2915_32601)"/>
<path d="M246.584 115.784C245.624 114.888 243.192 112.712 241.912 111.56C239.032 108.936 236.856 106.44 236.856 102.92C236.856 100.232 238.072 99.0802 240.568 99.0802C243 99.0802 243.896 100.36 244.152 102.408C244.344 104.072 244.408 105.288 244.408 106.568H253.368C253.368 105.096 253.112 102.408 252.984 101.32C252.216 95.4962 248.76 90.8882 240.632 90.8882C232.568 90.8882 227.704 95.6882 227.704 103.112C227.704 110.024 230.136 113.288 234.744 117.32C236.088 118.472 238.712 120.84 239.352 121.416C243.128 124.808 244.408 127.048 244.408 131.336C244.408 133.896 243.064 135.304 240.568 135.304C238.264 135.304 237.112 134.152 236.856 132.488C236.792 132.104 236.728 130.312 236.728 127.944H227.832C227.832 131.016 227.768 131.656 227.96 134.024C228.408 139.72 232.76 143.048 240.824 143.048C248.504 143.048 253.624 138.44 253.624 130.504C253.624 123.656 251.192 120.136 246.584 115.784ZM278.561 115.4C278.561 109.256 275.553 106.824 271.201 106.824C267.681 106.824 265.697 108.168 264.737 110.536V91.3362H256.289V142.472H264.737V117.96C264.737 115.528 265.953 114.312 267.617 114.312C269.473 114.312 270.049 115.336 270.049 116.936C270.049 141.512 270.049 142.472 270.113 142.472H278.689C278.625 142.472 278.561 141.512 278.561 115.4ZM303.423 113.992C302.271 109.96 299.199 106.824 292.863 106.824C286.527 106.824 283.391 110.28 282.367 113.8C281.471 116.808 281.023 121.032 281.023 124.808C281.023 128.712 281.535 133.448 282.111 135.56C283.327 139.976 286.975 142.92 292.735 142.92C298.815 142.92 302.079 140.04 303.359 135.56C304.127 133 304.511 128.648 304.511 124.808C304.511 121.032 304.191 116.616 303.423 113.992ZM295.807 133.448C295.615 134.792 294.399 135.944 292.799 135.944C291.263 135.944 290.111 135.112 289.855 133.512C289.535 131.848 289.47 127.688 289.47 124.936C289.47 122.312 289.535 118.024 289.855 116.552C290.239 114.952 291.135 114.056 292.799 114.056C294.527 114.056 295.423 114.76 295.807 116.424C296.062 117.768 296.191 122.248 296.191 124.936C296.191 127.624 296.255 130.376 295.807 133.448ZM329.241 111.752C328.025 108.296 325.721 106.824 322.073 106.824C318.809 106.824 316.441 108.04 315.481 109.96L315.417 107.272H307.289V152.904H315.673V140.488C316.825 141.64 318.745 142.536 321.753 142.536C325.721 142.536 328.281 140.616 329.561 136.648C330.329 134.216 330.777 129.352 330.777 124.296C330.777 118.984 330.265 114.504 329.241 111.752ZM321.625 133.192C321.369 134.472 320.473 135.688 318.809 135.688C317.337 135.688 316.377 134.92 316.121 133.256C315.737 130.888 315.609 128.584 315.609 124.552C315.609 120.904 315.865 118.28 316.313 116.424C316.633 115.144 317.337 114.12 318.873 114.12C320.409 114.12 321.177 114.888 321.497 116.04C322.009 117.96 322.137 120.84 322.137 124.552C322.137 128.712 322.009 131.016 321.625 133.192ZM361.062 128.52C361.062 125.32 360.678 121.608 359.526 119.56C358.374 117.448 356.774 116.424 354.278 116.104C356.39 115.72 357.798 114.824 358.758 112.84C359.974 110.28 360.166 107.016 360.166 103.624C360.166 100.424 359.782 97.3522 358.566 95.2402C357.03 92.5522 354.15 91.4002 349.862 91.4002H333.734V142.472H348.902C353.638 142.472 356.646 141.832 358.822 138.888C360.55 136.52 361.062 132.424 361.062 128.52ZM349.798 111.56C349.222 112.776 348.518 113.288 347.814 113.288H342.886V99.0162H347.174C348.518 99.0162 349.286 99.7842 349.734 100.872C350.118 101.832 350.502 103.88 350.502 105.928C350.502 108.424 350.182 110.728 349.798 111.56ZM347.43 134.856H342.886V120.456H347.622C348.838 120.456 349.798 121.224 350.374 122.248C350.822 123.08 351.078 125.832 351.078 127.496C351.078 129.096 350.886 132.104 350.438 133.064C349.862 134.344 348.646 134.856 347.43 134.856ZM378.06 131.016C378.06 131.912 377.932 133 377.676 134.088C377.356 135.496 376.012 136.072 374.732 136.072C373.452 136.072 371.98 135.304 371.788 133.576C371.595 131.976 371.532 129.416 371.532 127.816H386.06C386.38 121.8 385.932 115.656 384.716 112.648C383.244 109.064 379.852 106.824 374.924 106.824C368.844 106.824 366.156 109.576 364.876 112.712C363.916 115.016 363.212 119.752 363.212 125.064C363.212 130.504 363.66 134.536 365.132 137.928C366.668 141.512 370.316 142.92 375.052 142.92C379.788 142.92 382.668 141 384.204 138.248C385.548 135.88 385.868 132.04 385.868 131.016H378.06ZM371.404 121.544C371.404 119.112 371.468 116.808 371.916 115.72C372.364 114.504 373.388 113.864 374.796 113.864C376.268 113.864 377.228 114.568 377.548 115.784C377.804 116.616 377.996 118.344 377.996 121.544H371.404ZM402.747 131.016C402.747 131.912 402.619 133 402.363 134.088C402.043 135.496 400.699 136.072 399.419 136.072C398.139 136.072 396.667 135.304 396.475 133.576C396.283 131.976 396.219 129.416 396.219 127.816H410.747C411.067 121.8 410.619 115.656 409.403 112.648C407.931 109.064 404.539 106.824 399.611 106.824C393.531 106.824 390.843 109.576 389.563 112.712C388.603 115.016 387.899 119.752 387.899 125.064C387.899 130.504 388.347 134.536 389.819 137.928C391.355 141.512 395.003 142.92 399.739 142.92C404.475 142.92 407.355 141 408.891 138.248C410.235 135.88 410.555 132.04 410.555 131.016H402.747ZM396.091 121.544C396.091 119.112 396.155 116.808 396.603 115.72C397.051 114.504 398.075 113.864 399.483 113.864C400.955 113.864 401.915 114.568 402.235 115.784C402.491 116.616 402.683 118.344 402.683 121.544H396.091ZM427.947 106.824C425.003 106.824 422.059 108.744 421.675 111.432V107.272H413.227V142.472H421.803V121.608C421.803 115.848 423.595 114.568 426.539 114.568C428.267 114.568 429.995 114.888 431.019 115.208V107.144C430.315 106.888 429.291 106.824 427.947 106.824ZM459.099 130.568V113.608H445.083V121.672H450.267C450.267 121.672 450.331 129.992 450.267 131.08C450.139 133.704 448.603 135.048 446.235 135.048C444.123 135.048 443.035 133.96 442.587 131.656C441.819 127.624 441.819 120.968 441.819 117.064C441.819 112.904 441.883 106.76 442.523 102.344C442.843 100.168 444.251 99.2082 446.043 99.2082C448.027 99.2082 449.243 100.296 449.435 102.344C449.691 104.968 449.691 108.488 449.691 108.872H458.843C458.843 104.328 458.651 101.768 458.267 99.4642C457.499 94.8562 454.107 90.9522 445.851 90.9522C437.787 90.9522 434.395 95.4962 433.307 99.5922C432.155 104.008 432.027 111.752 432.027 117.064C432.027 122.568 432.219 129.736 433.307 134.344C434.651 139.976 438.683 142.92 444.059 142.92C447.963 142.92 450.587 141.832 451.867 140.168L452.315 142.472H459.227C459.227 142.408 459.099 136.456 459.099 130.568ZM476.122 131.016C476.122 131.912 475.994 133 475.738 134.088C475.418 135.496 474.074 136.072 472.794 136.072C471.514 136.072 470.042 135.304 469.85 133.576C469.658 131.976 469.594 129.416 469.594 127.816H484.122C484.442 121.8 483.994 115.656 482.778 112.648C481.306 109.064 477.914 106.824 472.986 106.824C466.906 106.824 464.218 109.576 462.938 112.712C461.978 115.016 461.274 119.752 461.274 125.064C461.274 130.504 461.722 134.536 463.194 137.928C464.73 141.512 468.378 142.92 473.114 142.92C477.85 142.92 480.73 141 482.266 138.248C483.61 135.88 483.93 132.04 483.93 131.016H476.122ZM469.466 121.544C469.466 119.112 469.53 116.808 469.978 115.72C470.426 114.504 471.45 113.864 472.858 113.864C474.33 113.864 475.29 114.568 475.61 115.784C475.866 116.616 476.058 118.344 476.058 121.544H469.466ZM508.554 136.2C508.554 133.576 508.618 129.288 508.618 126.536C508.682 123.272 508.746 117.96 508.618 114.888C508.426 109.96 505.354 106.824 497.994 106.824C490.186 106.824 486.986 110.344 486.986 116.936V119.56H494.922V117.576C494.922 115.144 495.69 113.928 497.866 113.928C499.466 113.928 500.298 114.824 500.362 116.36C500.426 117.448 500.426 119.624 500.426 120.584C499.018 120.584 497.546 120.776 495.946 121.032C490.058 122.12 486.09 125.32 485.77 130.44C485.642 132.296 485.706 135.304 485.77 136.072C486.026 141.192 489.93 142.728 493.45 142.728C496.586 142.728 498.954 141.896 500.554 139.912C500.554 140.808 500.746 142.472 500.874 142.472H509.002C508.682 142.024 508.554 138.76 508.554 136.2ZM500.426 129.032C500.298 130.824 500.426 131.72 500.106 133.576C499.786 135.368 498.25 136.072 496.906 136.072C495.626 136.072 494.602 135.624 494.41 134.408C494.282 133.384 494.282 132.168 494.282 131.208C494.282 129.736 494.345 128.712 495.434 127.752C496.394 126.92 497.482 126.728 498.378 126.536C499.146 126.408 499.786 126.408 500.426 126.408C500.426 126.92 500.49 128.328 500.426 129.032ZM526.509 106.824C523.565 106.824 520.621 108.744 520.237 111.432V107.272H511.789V142.472H520.365V121.608C520.365 115.848 522.157 114.568 525.101 114.568C526.829 114.568 528.557 114.888 529.581 115.208V107.144C528.877 106.888 527.853 106.824 526.509 106.824ZM255.224 194.568V177.608H241.208V185.672H246.392C246.392 185.672 246.456 193.992 246.392 195.08C246.264 197.704 244.728 199.048 242.36 199.048C240.248 199.048 239.16 197.96 238.712 195.656C237.944 191.624 237.944 184.968 237.944 181.064C237.944 176.904 238.008 170.76 238.648 166.344C238.968 164.168 240.376 163.208 242.168 163.208C244.152 163.208 245.368 164.296 245.56 166.344C245.816 168.968 245.816 172.488 245.816 172.872H254.968C254.968 168.328 254.776 165.768 254.392 163.464C253.624 158.856 250.232 154.952 241.976 154.952C233.912 154.952 230.52 159.496 229.432 163.592C228.28 168.008 228.152 175.752 228.152 181.064C228.152 186.568 228.344 193.736 229.432 198.344C230.776 203.976 234.808 206.92 240.184 206.92C244.088 206.92 246.712 205.832 247.992 204.168L248.44 206.472H255.352C255.352 206.408 255.224 200.456 255.224 194.568ZM267.062 160.776H258.038V169.416H267.062V160.776ZM266.934 203.912V171.272H258.166V204.04C258.166 205.448 258.166 206.472 258.486 206.472H267.126C267.062 206.408 266.934 205.256 266.934 203.912ZM285.328 171.272H280.72V164.744C280.72 163.464 281.488 162.056 283.216 162.056C283.92 162.056 284.944 162.12 285.776 162.248V155.272C284.816 155.144 282.96 155.08 280.72 155.08C274.384 155.08 272.144 158.856 272.144 163.656V171.272H269.008V178.76H272.144V206.472H280.72V178.76H285.328V171.272ZM302.395 171.272H297.467V164.488L289.147 164.68C289.147 164.68 288.891 171.08 288.827 171.272H285.691V178.76H288.699V198.792C288.699 204.296 291.771 206.728 297.019 206.728C299.259 206.728 300.667 206.6 302.01 206.28V199.432C301.371 199.56 300.539 199.624 299.835 199.624C298.491 199.624 297.403 199.24 297.403 197.256V178.76H302.395V171.272ZM332.205 188.04C332.205 189.192 332.141 192.456 331.821 195.08C331.501 197.64 329.965 198.472 328.173 198.472C326.445 198.472 324.909 197.576 324.461 195.272C323.885 192.072 323.757 186.184 323.757 180.616C323.757 173.448 323.885 168.968 324.461 166.6C324.909 164.808 326.061 163.784 328.173 163.784C330.029 163.784 331.245 164.872 331.501 166.472C331.949 169.032 332.141 171.784 332.141 174.152H341.229C341.229 171.016 341.037 168.072 340.717 165.64C339.821 158.856 336.237 155.016 328.365 155.016C320.812 155.016 316.717 158.152 315.437 164.232C314.285 169.672 313.965 173.832 313.965 180.68C313.965 187.4 314.477 195.08 315.757 199.176C317.165 203.912 320.685 207.048 327.853 207.048C335.725 207.048 339.565 203.592 340.717 197.384C341.293 194.12 341.293 189.768 341.293 188.04H332.205ZM365.929 200.2C365.929 197.576 365.993 193.288 365.993 190.536C366.057 187.272 366.121 181.96 365.993 178.888C365.801 173.96 362.729 170.824 355.369 170.824C347.561 170.824 344.361 174.344 344.361 180.936V183.56H352.297V181.576C352.297 179.144 353.065 177.928 355.241 177.928C356.841 177.928 357.673 178.824 357.737 180.36C357.801 181.448 357.801 183.624 357.801 184.584C356.393 184.584 354.921 184.776 353.321 185.032C347.433 186.12 343.465 189.32 343.145 194.44C343.017 196.296 343.081 199.304 343.145 200.072C343.401 205.192 347.305 206.728 350.825 206.728C353.961 206.728 356.329 205.896 357.929 203.912C357.929 204.808 358.121 206.472 358.249 206.472H366.377C366.057 206.024 365.929 202.76 365.929 200.2ZM357.801 193.032C357.673 194.824 357.801 195.72 357.481 197.576C357.161 199.368 355.625 200.072 354.281 200.072C353.001 200.072 351.977 199.624 351.785 198.408C351.657 197.384 351.657 196.168 351.657 195.208C351.657 193.736 351.72 192.712 352.809 191.752C353.769 190.92 354.857 190.728 355.753 190.536C356.521 190.408 357.161 190.408 357.801 190.408C357.801 190.92 357.865 192.328 357.801 193.032ZM383.884 170.824C380.94 170.824 377.996 172.744 377.612 175.432V171.272H369.164V206.472H377.74V185.608C377.74 179.848 379.532 178.568 382.476 178.568C384.204 178.568 385.932 178.888 386.956 179.208V171.144C386.252 170.888 385.228 170.824 383.884 170.824ZM388.931 176.456C387.907 180.296 387.587 183.816 387.587 189C387.587 194.632 388.227 199.304 389.379 202.12C390.659 205.32 393.027 206.728 396.547 206.728C399.683 206.728 401.795 205.704 402.947 203.912L403.971 206.472H411.139C411.139 206.472 410.883 203.528 410.883 201.544V155.336H402.499V173.832C401.539 171.976 399.235 170.952 396.547 170.952C392.771 170.952 389.827 173 388.931 176.456ZM401.923 180.168C402.307 182.088 402.562 184.008 402.562 189.064C402.562 192.136 402.435 195.336 401.987 197.576C401.731 198.92 400.899 199.944 399.235 199.944C397.507 199.944 396.611 199.112 396.419 197.768C396.099 195.144 395.97 192.008 395.97 189.064C395.97 186.056 396.099 183.048 396.547 180.488C396.803 179.208 397.699 178.248 399.299 178.248C400.899 178.248 401.667 178.952 401.923 180.168Z" fill="white"/>
</g>
<path d="M185 0.707031H600H185ZM600 251.472H185H600ZM184 251.472V0.707031H186V251.472H184ZM600 0.707031V251.472V0.707031Z" fill="white" mask="url(#path-4-inside-1_2915_32601)"/>
<rect x="0.5" y="1.20703" width="599" height="249.765" rx="11.5" stroke="white"/>
<path d="M744.28 67.8496C744.6 61.7696 744.6 55.8496 744.44 52.3296C743.48 38.7296 734.52 29.1296 715.96 29.1296C698.36 29.1296 688.76 39.5296 687.48 51.3696C687 55.0496 687 62.5696 687 69.9296H707.96C707.96 64.6496 708.12 59.8496 708.28 56.3296C708.6 52.0096 710.84 49.1296 715.48 49.1296C719.64 49.1296 721.88 50.8896 722.36 55.6896C722.68 58.0896 722.52 68.3296 722.04 72.3296C721.24 78.5696 719 81.4496 711.96 82.0896H699.64V102.09C699.64 102.09 710.68 102.25 711.32 102.25C719.48 102.73 722.68 105.61 723.32 112.65C723.64 116.97 723.8 124.81 723.32 132.49C723 137.93 720.28 140.65 715 140.65C710.68 140.65 707.96 138.73 707.48 134.73C706.68 128.01 707 126.41 707 117.45H684.6C684.6 127.05 684.76 128.33 685.56 137.61C686.84 151.37 696.92 159.37 715.48 159.37C734.36 159.37 745.56 149.77 747 134.73C747.64 127.85 747.64 115.85 747 109.45C745.88 98.0896 738.04 90.7296 724.76 89.7696C738.2 88.3296 743.64 78.5696 744.28 67.8496Z" fill="white"/>
<path d="M697.204 192.418V188.098H691.534V190.132H695.008C695.008 190.132 695.026 192.184 694.99 192.364C694.756 193.426 693.802 194.236 692.272 194.236C691.012 194.236 690.238 193.912 689.752 193.21C689.176 192.364 689.014 191.122 689.014 189.016C689.014 186.946 689.266 185.596 689.77 184.822C690.256 184.102 691.03 183.796 692.11 183.796C693.118 183.796 693.82 184.102 694.234 184.714C694.612 185.29 694.828 186.136 694.828 186.622H697.132C697.132 185.992 696.952 184.75 696.52 183.886C695.872 182.608 694.522 181.654 692.056 181.654C689.68 181.654 688.348 182.644 687.592 183.814C686.8 185.056 686.566 186.766 686.566 188.98C686.566 191.554 686.962 193.21 687.646 194.29C688.474 195.586 689.878 196.27 691.768 196.27C693.712 196.27 694.756 195.586 695.242 194.866L695.35 196.09H697.222C697.222 196.036 697.204 194.128 697.204 192.418ZM709.209 192.634L710.199 196.09H712.647L708.435 181.834H705.411L700.911 196.09H703.323L704.367 192.634H709.209ZM705.015 190.582C705.015 190.582 706.581 185.416 706.599 185.326C706.635 185.182 706.869 184.048 706.869 184.048C706.869 184.048 707.103 185.182 707.139 185.326C707.175 185.434 708.597 190.582 708.597 190.582H705.015ZM729.429 181.834H726.351L723.147 192.436L719.997 181.834H716.739V196.09H718.953V186.316L721.887 196.09H724.209L727.197 186.28V196.09H729.429V181.834ZM743.504 193.93H737.006V190.024H743.144V187.846H737.006V183.994H743.432V181.834H734.666V196.09H743.504V193.93ZM682.993 216.152C682.597 216.008 681.751 215.684 681.247 215.522C679.501 214.946 678.637 214.388 678.637 213.272C678.637 212.318 679.285 211.742 681.103 211.742C682.651 211.742 683.371 212.174 683.677 213.056C683.785 213.38 683.839 213.65 683.839 213.956H686.251C686.251 213.416 686.161 212.984 686.035 212.552C685.531 210.788 684.091 209.672 681.157 209.672C677.791 209.672 676.207 211.148 676.207 213.344C676.207 215.45 677.593 216.71 679.735 217.412C680.329 217.61 681.175 217.934 681.535 218.06C683.443 218.726 684.019 219.302 684.019 220.508C684.019 221.588 683.245 222.236 681.427 222.236C679.879 222.236 678.979 221.84 678.709 220.994C678.601 220.652 678.547 220.166 678.547 219.914H676.153C676.153 220.328 676.189 220.994 676.315 221.48C676.747 223.154 678.187 224.27 681.481 224.27C684.811 224.27 686.449 222.686 686.449 220.31C686.449 218.096 685.225 216.926 682.993 216.152ZM699.947 209.834H689.849V211.976H693.683V224.09H696.095V211.976H699.947V209.834ZM713.327 211.418C712.823 210.41 711.869 209.834 710.303 209.834H704.093V224.09H706.433V218.15H709.529L712.013 224.09H714.623L711.815 217.628C712.445 217.502 713.021 217.052 713.381 216.368C713.651 215.828 713.795 215.036 713.795 213.956C713.795 212.804 713.687 212.102 713.327 211.418ZM711.239 215.486C711.059 215.882 710.609 216.098 709.979 216.116H706.451V211.958H709.799C710.609 211.958 711.113 212.246 711.311 212.786C711.401 213.02 711.437 213.65 711.437 214.172C711.437 214.604 711.365 215.18 711.239 215.486ZM727.799 221.93H721.301V218.024H727.439V215.846H721.301V211.994H727.727V209.834H718.961V224.09H727.799V221.93ZM739.656 220.634L740.646 224.09H743.094L738.882 209.834H735.858L731.358 224.09H733.77L734.814 220.634H739.656ZM735.462 218.582C735.462 218.582 737.028 213.416 737.046 213.326C737.082 213.182 737.316 212.048 737.316 212.048C737.316 212.048 737.55 213.182 737.586 213.326C737.622 213.434 739.044 218.582 739.044 218.582H735.462ZM752.244 215.99L757.374 209.834H754.71L749.562 215.9V209.834H747.186V224.09H749.562V218.996L750.606 217.772L754.674 224.09H757.482L752.244 215.99Z" fill="white"/>
<g clip-path="url(#clip2_2915_32601)">
<path d="M856.634 33.995C859.244 33.995 861.278 32.609 861.278 30.107C861.278 28.451 860.486 27.317 858.704 26.849V26.795C859.964 26.381 860.828 25.553 860.828 24.113C860.828 21.899 858.92 20.585 856.508 20.585C853.646 20.585 851.936 22.295 851.918 24.707H853.592C853.61 23.105 854.654 21.935 856.454 21.935C857.948 21.935 859.136 22.745 859.136 24.095C859.136 25.427 858.146 26.237 856.238 26.237H855.446V27.569H856.256C858.326 27.569 859.496 28.397 859.496 29.963C859.496 31.709 858.29 32.573 856.58 32.573C854.51 32.573 853.25 31.439 853.196 29.549H851.504C851.522 30.971 852.08 32.087 853.016 32.843C853.934 33.599 855.194 33.995 856.634 33.995ZM872.058 37.091C873.354 37.091 874.434 36.803 875.19 36.173C875.928 35.543 876.36 34.589 876.36 33.311V24.041H874.704V25.319H874.668C874.056 24.347 873.12 23.807 871.734 23.807C869.466 23.807 867.594 25.571 867.594 28.541C867.594 31.349 869.358 33.275 871.824 33.275C873.192 33.275 874.038 32.681 874.704 31.727H874.74C874.722 32.033 874.704 32.555 874.704 33.113V33.383C874.704 35.021 873.75 35.795 872.022 35.795C870.582 35.795 869.61 35.381 869.466 34.373H867.9C868.08 36.083 869.52 37.091 872.058 37.091ZM871.986 31.907C870.24 31.907 869.304 30.611 869.304 28.559C869.304 26.525 870.204 25.193 871.968 25.193C873.894 25.193 874.812 26.435 874.812 28.469C874.812 30.431 874.092 31.907 871.986 31.907ZM881.557 33.905C883.195 33.905 884.185 33.131 884.797 32.285H884.815C884.995 33.311 885.499 33.797 886.525 33.797C886.921 33.797 887.191 33.725 887.425 33.653V32.483H887.353C886.507 32.663 886.327 32.249 886.327 31.475V26.957C886.327 25.661 885.841 24.815 885.031 24.329C884.419 23.969 883.609 23.807 882.691 23.807C880.081 23.807 878.839 25.265 878.767 26.903H880.387C880.441 25.751 881.179 25.031 882.709 25.031C884.041 25.031 884.779 25.679 884.779 26.723C884.779 27.713 883.861 27.947 882.439 28.109C879.937 28.415 878.281 28.901 878.281 31.151C878.281 33.005 879.721 33.905 881.557 33.905ZM881.971 32.681C880.999 32.681 880.045 32.375 880.045 31.133C880.045 29.801 881.089 29.513 882.673 29.243C883.465 29.099 884.311 28.865 884.797 28.559V30.143C884.797 31.259 883.897 32.681 881.971 32.681ZM888.785 33.707H890.459V27.749C890.459 26.273 891.701 25.211 892.853 25.211C893.843 25.211 894.509 25.913 894.509 27.101V33.707H896.165V27.749C896.165 26.273 897.227 25.211 898.451 25.211C899.423 25.211 900.197 25.913 900.197 27.101V33.707H901.871V26.957C901.871 24.941 900.647 23.807 898.883 23.807C897.713 23.807 896.579 24.401 895.895 25.607H895.859C895.463 24.419 894.527 23.807 893.357 23.807C892.115 23.807 891.089 24.437 890.495 25.481H890.441V24.041H888.785V33.707ZM908.307 33.977C910.539 33.977 912.087 32.753 912.519 30.953H910.881C910.575 31.979 909.657 32.609 908.325 32.609C906.453 32.609 905.427 31.169 905.301 29.279H912.717C912.717 27.641 912.321 26.255 911.529 25.301C910.773 24.365 909.657 23.807 908.217 23.807C905.445 23.807 903.591 26.075 903.591 28.883C903.591 31.709 905.337 33.977 908.307 33.977ZM908.217 25.103C909.891 25.103 910.845 26.219 910.935 28.073H905.337C905.553 26.363 906.471 25.103 908.217 25.103ZM921.371 33.707H923.063L924.521 28.379C924.755 27.461 925.115 25.679 925.115 25.679H925.151C925.151 25.679 925.529 27.443 925.763 28.379L927.185 33.707H928.859L932.009 24.041H930.281L928.679 29.405C928.319 30.593 928.049 32.249 928.049 32.249H928.013C928.013 32.249 927.671 30.467 927.401 29.441L925.961 24.041H924.377L922.919 29.441C922.595 30.611 922.271 32.231 922.271 32.231H922.235C922.235 32.231 921.911 30.503 921.605 29.405L920.093 24.041H918.311L921.371 33.707ZM933.309 22.259H935.055V20.315H933.309V22.259ZM933.345 33.707H935.019V24.041H933.345V33.707ZM938.974 24.041H937.318V33.707H938.992V27.821C938.992 26.273 940.072 25.211 941.566 25.211C942.88 25.211 943.69 25.913 943.69 27.155V33.707H945.346V26.957C945.346 24.941 944.104 23.807 942.088 23.807C940.684 23.807 939.73 24.437 939.028 25.409H938.974V24.041ZM956.09 33.995C958.358 33.995 959.978 32.987 959.978 31.025C959.978 28.775 958.322 28.343 956.396 27.965C954.758 27.641 953.822 27.443 953.822 26.435C953.822 25.697 954.38 25.085 955.694 25.085C957.08 25.085 957.764 25.643 957.908 26.633H959.582C959.366 24.959 958.16 23.825 955.73 23.825C953.48 23.825 952.184 24.869 952.184 26.525C952.184 28.649 953.894 29.045 955.784 29.441C957.494 29.783 958.304 30.053 958.304 31.115C958.304 31.979 957.656 32.645 956.126 32.645C954.74 32.645 953.66 32.177 953.462 30.773H951.77C951.914 32.735 953.426 33.995 956.09 33.995ZM961.017 25.337H962.529V31.817C962.529 33.239 963.429 33.761 964.725 33.779C965.157 33.779 965.625 33.725 966.075 33.617V32.213H966.021C965.841 32.267 965.463 32.339 965.175 32.339C964.563 32.339 964.185 32.141 964.185 31.439V25.337H966.183V24.041H964.185V20.999H962.529V24.041H961.017V25.337ZM969.578 24.041H967.922V33.707H969.596V28.451C969.596 26.633 970.874 25.517 972.368 25.517C972.656 25.517 972.818 25.535 973.052 25.607H973.106V24.023C972.926 23.951 972.764 23.915 972.494 23.915C971.216 23.915 970.226 24.671 969.632 25.787H969.578V24.041ZM978.584 33.977C980.816 33.977 982.364 32.753 982.796 30.953H981.158C980.852 31.979 979.934 32.609 978.602 32.609C976.73 32.609 975.704 31.169 975.578 29.279H982.994C982.994 27.641 982.598 26.255 981.806 25.301C981.05 24.365 979.934 23.807 978.494 23.807C975.722 23.807 973.868 26.075 973.868 28.883C973.868 31.709 975.614 33.977 978.584 33.977ZM978.494 25.103C980.168 25.103 981.122 26.219 981.212 28.073H975.614C975.83 26.363 976.748 25.103 978.494 25.103ZM987.659 33.905C989.297 33.905 990.287 33.131 990.899 32.285H990.917C991.097 33.311 991.601 33.797 992.627 33.797C993.023 33.797 993.293 33.725 993.527 33.653V32.483H993.455C992.609 32.663 992.429 32.249 992.429 31.475V26.957C992.429 25.661 991.943 24.815 991.133 24.329C990.521 23.969 989.711 23.807 988.793 23.807C986.183 23.807 984.941 25.265 984.869 26.903H986.489C986.543 25.751 987.281 25.031 988.811 25.031C990.143 25.031 990.881 25.679 990.881 26.723C990.881 27.713 989.963 27.947 988.541 28.109C986.039 28.415 984.383 28.901 984.383 31.151C984.383 33.005 985.823 33.905 987.659 33.905ZM988.073 32.681C987.101 32.681 986.147 32.375 986.147 31.133C986.147 29.801 987.191 29.513 988.775 29.243C989.567 29.099 990.413 28.865 990.899 28.559V30.143C990.899 31.259 989.999 32.681 988.073 32.681ZM1001.24 33.707H1003.2L999.08 27.515L1002.77 24.041H1000.68L996.488 28.163C996.524 27.695 996.56 27.011 996.56 26.669V20.315H994.886V33.707H996.56V29.909L997.928 28.613L1001.24 33.707ZM1009.42 36.983H1011.1V34.049C1011.1 33.311 1011.08 32.771 1011.06 32.429H1011.12C1011.78 33.455 1012.84 33.995 1014.16 33.995C1016.77 33.995 1018.37 31.997 1018.37 28.901C1018.37 25.715 1016.68 23.807 1014.21 23.807C1012.83 23.807 1011.85 24.455 1011.13 25.553H1011.08V24.041H1009.42V36.983ZM1013.98 32.609C1011.84 32.609 1011.01 30.971 1011.01 28.937C1011.01 26.885 1011.94 25.229 1014 25.229C1015.78 25.229 1016.66 26.813 1016.66 28.937C1016.66 31.043 1015.76 32.609 1013.98 32.609ZM1021.8 24.041H1020.15V33.707H1021.82V28.451C1021.82 26.633 1023.1 25.517 1024.59 25.517C1024.88 25.517 1025.04 25.535 1025.28 25.607H1025.33V24.023C1025.15 23.951 1024.99 23.915 1024.72 23.915C1023.44 23.915 1022.45 24.671 1021.86 25.787H1021.8V24.041ZM1026.93 22.259H1028.68V20.315H1026.93V22.259ZM1026.97 33.707H1028.64V24.041H1026.97V33.707ZM1030.58 33.707H1038.37V32.231H1034.47C1033.77 32.231 1032.54 32.285 1032.54 32.285V32.231C1032.54 32.231 1033.35 31.349 1033.77 30.827L1038.16 25.085V24.041H1030.9V25.463H1034.23C1034.9 25.463 1036.05 25.409 1036.05 25.409V25.463C1036.05 25.463 1035.3 26.273 1034.9 26.777L1030.58 32.411V33.707ZM1043.99 33.977C1046.22 33.977 1047.77 32.753 1048.2 30.953H1046.57C1046.26 31.979 1045.34 32.609 1044.01 32.609C1042.14 32.609 1041.11 31.169 1040.99 29.279H1048.4C1048.4 27.641 1048.01 26.255 1047.21 25.301C1046.46 24.365 1045.34 23.807 1043.9 23.807C1041.13 23.807 1039.28 26.075 1039.28 28.883C1039.28 31.709 1041.02 33.977 1043.99 33.977ZM1043.9 25.103C1045.58 25.103 1046.53 26.219 1046.62 28.073H1041.02C1041.24 26.363 1042.16 25.103 1043.9 25.103Z" fill="white"/>
<path fill-rule="evenodd" clip-rule="evenodd" d="M1161.7 36.9833L1172.48 35.0815C1173.09 34.9698 1173.56 34.7334 1173.88 34.3721C1174.19 34.0173 1174.34 33.5378 1174.34 32.9334V19.3651C1174.34 18.8987 1174.24 18.5046 1174.04 18.1827C1173.85 17.8608 1173.57 17.6342 1173.22 17.5028C1172.86 17.3649 1172.44 17.3386 1171.96 17.424L1161.5 19.2666C1160.54 19.4374 1159.82 19.7363 1159.33 20.1633C1158.84 20.5837 1158.59 21.2767 1158.59 22.2424V34.1356C1158.59 34.8385 1158.72 35.4198 1158.97 35.8797C1159.22 36.3461 1159.58 36.6745 1160.04 36.865C1160.5 37.0555 1161.05 37.0949 1161.7 36.9833ZM1171.8 21.2176V23.2967C1171.8 23.5003 1171.73 23.6547 1171.6 23.7598C1171.47 23.8649 1171.32 23.9207 1171.15 23.9273C1170.98 23.9273 1170.83 23.8813 1170.7 23.7894C1170.57 23.6908 1170.51 23.543 1170.51 23.346V22.0256C1170.51 21.7563 1170.35 21.6446 1170.04 21.6906L1168.74 21.927C1168.53 21.9599 1168.37 21.9238 1168.25 21.8187C1168.13 21.707 1168.05 21.569 1168.02 21.4048C1167.99 21.2406 1168.01 21.0862 1168.09 20.9417C1168.16 20.7972 1168.29 20.7085 1168.48 20.6756L1170.6 20.3012C1170.97 20.2355 1171.27 20.2815 1171.48 20.4392C1171.69 20.5968 1171.8 20.8563 1171.8 21.2176ZM1162.51 23.6514V24.9028C1162.51 25.1065 1162.44 25.2641 1162.32 25.3758C1162.19 25.4875 1162.04 25.5466 1161.87 25.5531C1161.69 25.5597 1161.54 25.5104 1161.41 25.4053C1161.28 25.2937 1161.21 25.1262 1161.21 24.9028V23.2573C1161.21 22.7974 1161.34 22.446 1161.58 22.2029C1161.82 21.9533 1162.21 21.7792 1162.75 21.6807L1163.78 21.5033C1164 21.4639 1164.18 21.4968 1164.32 21.6019C1164.45 21.707 1164.53 21.8449 1164.56 22.0157C1164.58 22.18 1164.55 22.3343 1164.47 22.4788C1164.37 22.6234 1164.22 22.7153 1163.99 22.7547L1163.18 22.9025C1162.89 22.9551 1162.7 23.0569 1162.62 23.208C1162.54 23.3525 1162.51 23.5003 1162.51 23.6514ZM1170.51 30.8248V29.5734C1170.51 29.3698 1170.57 29.2121 1170.7 29.1004C1170.83 28.9887 1170.98 28.9296 1171.15 28.9231C1171.32 28.9165 1171.47 28.969 1171.6 29.0807C1171.73 29.1858 1171.8 29.35 1171.8 29.5734V31.2189C1171.8 31.6788 1171.68 32.0335 1171.44 32.2831C1171.2 32.5262 1170.81 32.697 1170.26 32.7955L1169.24 32.9729C1169.01 33.0123 1168.83 32.9794 1168.7 32.8743C1168.57 32.7627 1168.48 32.6247 1168.46 32.4605C1168.42 32.2963 1168.45 32.1419 1168.55 31.9974C1168.64 31.8463 1168.8 31.7543 1169.02 31.7215L1169.84 31.5737C1170.13 31.5211 1170.31 31.4193 1170.39 31.2682C1170.47 31.1171 1170.51 30.9693 1170.51 30.8248ZM1161.21 33.2586V31.1795C1161.21 30.9693 1161.28 30.8149 1161.41 30.7164C1161.54 30.6113 1161.69 30.5587 1161.87 30.5587C1162.04 30.5522 1162.19 30.5982 1162.32 30.6967C1162.44 30.7887 1162.51 30.9332 1162.51 31.1303V32.4506C1162.51 32.72 1162.66 32.8316 1162.97 32.7856L1164.27 32.5492C1164.48 32.5163 1164.65 32.5557 1164.77 32.6674C1164.89 32.7725 1164.97 32.9072 1165 33.0714C1165.02 33.2356 1165 33.39 1164.93 33.5345C1164.85 33.679 1164.72 33.7677 1164.53 33.8006L1162.42 34.175C1162.04 34.2407 1161.75 34.1947 1161.54 34.037C1161.32 33.8794 1161.21 33.6199 1161.21 33.2586ZM1167.67 25.697L1169.16 25.4451C1169.28 25.4549 1169.38 25.5672 1169.37 25.697C1169.37 25.7488 1169.35 25.7975 1169.31 25.8361L1168.38 27.4923L1168.97 29.2196C1169 29.3456 1168.92 29.4727 1168.8 29.5039C1168.75 29.5164 1168.7 29.5121 1168.66 29.4912L1166.98 29.0996L1165.27 30.3388C1165.21 30.3744 1165.19 30.3744 1165.15 30.3744H1165.15C1165.1 30.3744 1165.06 30.3622 1165.03 30.339C1164.99 30.3158 1164.96 30.2827 1164.94 30.2433C1164.92 30.2039 1164.92 30.1599 1164.92 30.1162L1165.21 28.0168L1163.75 26.9311C1163.7 26.8908 1163.68 26.8333 1163.67 26.771C1163.66 26.7088 1163.68 26.647 1163.72 26.5993C1163.75 26.56 1163.8 26.5324 1163.85 26.5214L1165.68 25.9862L1166.36 24.2391C1166.4 24.1191 1166.53 24.0613 1166.65 24.1101C1166.7 24.1295 1166.73 24.1642 1166.76 24.2088L1167.67 25.697Z" fill="white"/>
<path d="M1224 50.4722H809V52.4722H1224V50.4722Z" fill="white" mask="url(#path-17-inside-4_2915_32601)"/>
<path d="M878.584 91.4002H869.88V116.36L861.88 91.4002H852.984V142.472H861.688V117L869.752 142.472H878.584V91.4002ZM905.139 91.4002H882.547V142.472H891.891V121.16H904.115V112.584H891.891V100.168H905.139V91.4002ZM930.395 133.832H916.891V91.4002H907.547V142.472H930.395V133.832ZM958.612 130.12L960.276 142.472H969.748L962.132 91.4002H949.012L940.5 142.472H949.844L951.636 130.12H958.612ZM952.532 122.568C952.532 122.568 954.836 107.72 954.836 107.464C955.284 104.712 955.412 99.7202 955.412 99.7202C955.412 99.7202 955.54 104.776 955.86 107.464C955.86 107.72 957.78 122.568 957.78 122.568H952.532ZM979.987 139.848V93.5122C979.987 92.3602 979.859 91.4642 979.795 91.3362H971.155C971.347 91.7842 971.347 93.3202 971.347 94.4082V140.04C971.347 141.32 971.475 142.28 971.731 142.472C971.731 142.536 980.307 142.472 980.307 142.472C980.051 142.28 979.987 141.448 979.987 139.848ZM991.55 139.848V93.5122C991.55 92.3602 991.422 91.4642 991.358 91.3362H982.718C982.91 91.7842 982.91 93.3202 982.91 94.4082V140.04C982.91 141.32 983.038 142.28 983.294 142.472C983.294 142.536 991.87 142.472 991.87 142.472C991.614 142.28 991.55 141.448 991.55 139.848ZM1030.78 115.848C1030.78 107.848 1030.46 98.9522 1028.48 96.0722C1026.24 92.7442 1023.36 91.4002 1017.92 91.4002H1004.73V142.472H1019.07C1024.32 142.472 1026.81 140.488 1028.48 137.608C1030.46 134.216 1030.78 126.408 1030.78 115.848ZM1018.05 135.112H1013.95V99.3362H1017.66C1019.52 99.3362 1020.67 100.232 1021.18 102.344C1021.63 104.072 1021.82 113.288 1021.82 115.848C1021.82 118.472 1021.69 130.44 1021.25 132.488C1020.8 134.344 1019.71 135.112 1018.05 135.112ZM1055.43 136.2C1055.43 133.576 1055.49 129.288 1055.49 126.536C1055.56 123.272 1055.62 117.96 1055.49 114.888C1055.3 109.96 1052.23 106.824 1044.87 106.824C1037.06 106.824 1033.86 110.344 1033.86 116.936V119.56H1041.8V117.576C1041.8 115.144 1042.56 113.928 1044.74 113.928C1046.34 113.928 1047.17 114.824 1047.24 116.36C1047.3 117.448 1047.3 119.624 1047.3 120.584C1045.89 120.584 1044.42 120.776 1042.82 121.032C1036.93 122.12 1032.96 125.32 1032.64 130.44C1032.52 132.296 1032.58 135.304 1032.64 136.072C1032.9 141.192 1036.8 142.728 1040.32 142.728C1043.46 142.728 1045.83 141.896 1047.43 139.912C1047.43 140.808 1047.62 142.472 1047.75 142.472H1055.88C1055.56 142.024 1055.43 138.76 1055.43 136.2ZM1047.3 129.032C1047.17 130.824 1047.3 131.72 1046.98 133.576C1046.66 135.368 1045.12 136.072 1043.78 136.072C1042.5 136.072 1041.48 135.624 1041.28 134.408C1041.16 133.384 1041.16 132.168 1041.16 131.208C1041.16 129.736 1041.22 128.712 1042.31 127.752C1043.27 126.92 1044.36 126.728 1045.25 126.536C1046.02 126.408 1046.66 126.408 1047.3 126.408C1047.3 126.92 1047.36 128.328 1047.3 129.032ZM1073.47 107.272C1073.41 108.36 1069.31 129.16 1069.18 129.928C1069.12 129.224 1065.02 108.168 1064.89 107.272H1056.19L1064.57 141.512L1061.69 152.904H1070.46L1081.98 107.272H1073.47ZM877.048 160.008C875.576 157 872.248 155.4 868.344 155.4H852.984V206.472H862.264V185.224H865.592L870.712 206.472H880.376L874.168 182.664C875.448 182.216 876.856 180.808 877.624 178.824C878.392 176.968 878.84 174.216 878.84 170.184C878.84 165.64 878.136 162.12 877.048 160.008ZM868.92 175.688C868.664 176.584 867.96 177.16 866.744 177.288C866.424 177.352 862.264 177.352 862.264 177.352V163.912H866.488C868.024 163.912 868.856 164.936 869.176 166.344C869.304 166.984 869.432 169.352 869.432 171.08C869.432 172.616 869.304 174.792 868.92 175.688ZM895.935 195.016C895.935 195.912 895.807 197 895.551 198.088C895.231 199.496 893.887 200.072 892.607 200.072C891.327 200.072 889.855 199.304 889.663 197.576C889.47 195.976 889.407 193.416 889.407 191.816H903.935C904.255 185.8 903.807 179.656 902.591 176.648C901.119 173.064 897.727 170.824 892.799 170.824C886.719 170.824 884.031 173.576 882.751 176.712C881.791 179.016 881.087 183.752 881.087 189.064C881.087 194.504 881.535 198.536 883.007 201.928C884.543 205.512 888.191 206.92 892.927 206.92C897.663 206.92 900.543 205 902.079 202.248C903.423 199.88 903.743 196.04 903.743 195.016H895.935ZM889.279 185.544C889.279 183.112 889.343 180.808 889.791 179.72C890.239 178.504 891.263 177.864 892.671 177.864C894.143 177.864 895.103 178.568 895.423 179.784C895.679 180.616 895.871 182.344 895.871 185.544H889.279ZM934.78 171.272L931.964 197.128L928.252 171.272H919.484L916.22 197.128L912.956 171.272H904.252L910.588 206.472H920.828C920.828 206.472 923.068 193.992 923.772 189.832C923.836 189.448 923.9 186.184 923.9 186.184C923.9 186.184 924.092 189.448 924.156 189.832C924.86 193.864 927.036 206.472 927.036 206.472H937.148L943.292 171.272H934.78ZM965.929 200.2C965.929 197.576 965.993 193.288 965.993 190.536C966.057 187.272 966.121 181.96 965.993 178.888C965.801 173.96 962.729 170.824 955.369 170.824C947.561 170.824 944.361 174.344 944.361 180.936V183.56H952.297V181.576C952.297 179.144 953.065 177.928 955.241 177.928C956.841 177.928 957.673 178.824 957.737 180.36C957.801 181.448 957.801 183.624 957.801 184.584C956.393 184.584 954.921 184.776 953.321 185.032C947.433 186.12 943.465 189.32 943.145 194.44C943.017 196.296 943.081 199.304 943.145 200.072C943.401 205.192 947.305 206.728 950.825 206.728C953.961 206.728 956.329 205.896 957.929 203.912C957.929 204.808 958.121 206.472 958.249 206.472H966.377C966.057 206.024 965.929 202.76 965.929 200.2ZM957.801 193.032C957.673 194.824 957.801 195.72 957.481 197.576C957.161 199.368 955.625 200.072 954.281 200.072C953.001 200.072 951.977 199.624 951.785 198.408C951.657 197.384 951.657 196.168 951.657 195.208C951.657 193.736 951.72 192.712 952.809 191.752C953.769 190.92 954.857 190.728 955.753 190.536C956.521 190.408 957.161 190.408 957.801 190.408C957.801 190.92 957.865 192.328 957.801 193.032ZM983.884 170.824C980.94 170.824 977.996 172.744 977.612 175.432V171.272H969.164V206.472H977.74V185.608C977.74 179.848 979.532 178.568 982.476 178.568C984.204 178.568 985.932 178.888 986.956 179.208V171.144C986.252 170.888 985.228 170.824 983.884 170.824ZM988.931 176.456C987.907 180.296 987.587 183.816 987.587 189C987.587 194.632 988.227 199.304 989.379 202.12C990.659 205.32 993.027 206.728 996.547 206.728C999.683 206.728 1001.79 205.704 1002.95 203.912L1003.97 206.472H1011.14C1011.14 206.472 1010.88 203.528 1010.88 201.544V155.336H1002.5V173.832C1001.54 171.976 999.235 170.952 996.547 170.952C992.771 170.952 989.827 173 988.931 176.456ZM1001.92 180.168C1002.31 182.088 1002.56 184.008 1002.56 189.064C1002.56 192.136 1002.43 195.336 1001.99 197.576C1001.73 198.92 1000.9 199.944 999.235 199.944C997.507 199.944 996.611 199.112 996.419 197.768C996.099 195.144 995.97 192.008 995.97 189.064C995.97 186.056 996.099 183.048 996.547 180.488C996.803 179.208 997.699 178.248 999.299 178.248C1000.9 178.248 1001.67 178.952 1001.92 180.168Z" fill="white"/>
</g>
<path d="M809 0.707031H1224H809ZM1224 251.472H809H1224ZM808 251.472V0.707031H810V251.472H808ZM1224 0.707031V251.472V0.707031Z" fill="white" mask="url(#path-15-inside-3_2915_32601)"/>
<rect x="624.5" y="1.20703" width="599" height="249.765" rx="11.5" stroke="white"/>
<defs>
<clipPath id="clip0_2915_32601">
<path d="M185 0.707031H600V251.472H185V0.707031Z" fill="white"/>
</clipPath>
<clipPath id="clip1_2915_32601">
<rect x="530.467" y="14.0896" width="24" height="24" rx="4" fill="white"/>
</clipPath>
<clipPath id="clip2_2915_32601">
<path d="M809 0.707031H1224V251.472H809V0.707031Z" fill="white"/>
</clipPath>
</defs>
</svg>
