<svg width="100%" height="auto" viewBox="0 0 1224 252" fill="none" xmlns="http://www.w3.org/2000/svg">
<path d="M123 137.067H86.52C92.92 124.907 121.24 96.907 123 69.227C123.16 66.507 123.32 55.467 123.16 53.387C122.04 39.467 114.52 28.747 93.24 28.747C72.44 28.747 62.36 41.387 61.88 54.027C61.72 56.587 61.72 69.707 61.72 72.267H84.12V57.227C84.28 51.307 87.48 49.067 91.64 49.067C96.28 49.067 99.16 50.667 99.16 58.187V67.307C98.36 94.987 70.36 118.507 61.56 137.867V157.707H123V137.067Z" fill="white"/>
<path d="M73.2044 192.035V187.715H67.5344V189.749H71.0084C71.0084 189.749 71.0264 191.801 70.9904 191.981C70.7564 193.043 69.8024 193.853 68.2724 193.853C67.0124 193.853 66.2384 193.529 65.7524 192.827C65.1764 191.981 65.0144 190.739 65.0144 188.633C65.0144 186.563 65.2664 185.213 65.7704 184.439C66.2564 183.719 67.0304 183.413 68.1104 183.413C69.1184 183.413 69.8204 183.719 70.2344 184.331C70.6124 184.907 70.8284 185.753 70.8284 186.239H73.1324C73.1324 185.609 72.9524 184.367 72.5204 183.503C71.8724 182.225 70.5224 181.271 68.0564 181.271C65.6804 181.271 64.3484 182.261 63.5924 183.431C62.8004 184.673 62.5664 186.383 62.5664 188.597C62.5664 191.171 62.9624 192.827 63.6464 193.907C64.4744 195.203 65.8784 195.887 67.7684 195.887C69.7124 195.887 70.7564 195.203 71.2424 194.483L71.3504 195.707H73.2224C73.2224 195.653 73.2044 193.745 73.2044 192.035ZM85.209 192.251L86.199 195.707H88.647L84.435 181.451H81.411L76.911 195.707H79.323L80.367 192.251H85.209ZM81.015 190.199C81.015 190.199 82.581 185.033 82.599 184.943C82.635 184.799 82.869 183.665 82.869 183.665C82.869 183.665 83.103 184.799 83.139 184.943C83.175 185.051 84.597 190.199 84.597 190.199H81.015ZM105.429 181.451H102.351L99.1468 192.053L95.9968 181.451H92.7388V195.707H94.9528V185.933L97.8868 195.707H100.209L103.197 185.897V195.707H105.429V181.451ZM119.504 193.547H113.006V189.641H119.144V187.463H113.006V183.611H119.432V181.451H110.666V195.707H119.504V193.547ZM58.9932 215.769C58.5972 215.625 57.7512 215.301 57.2472 215.139C55.5012 214.563 54.6372 214.005 54.6372 212.889C54.6372 211.935 55.2852 211.359 57.1032 211.359C58.6512 211.359 59.3712 211.791 59.6772 212.673C59.7852 212.997 59.8392 213.267 59.8392 213.573H62.2512C62.2512 213.033 62.1612 212.601 62.0352 212.169C61.5312 210.405 60.0912 209.289 57.1572 209.289C53.7912 209.289 52.2072 210.765 52.2072 212.961C52.2072 215.067 53.5932 216.327 55.7352 217.029C56.3292 217.227 57.1752 217.551 57.5352 217.677C59.4432 218.343 60.0192 218.919 60.0192 220.125C60.0192 221.205 59.2452 221.853 57.4272 221.853C55.8792 221.853 54.9792 221.457 54.7092 220.611C54.6012 220.269 54.5472 219.783 54.5472 219.531H52.1532C52.1532 219.945 52.1892 220.611 52.3152 221.097C52.7472 222.771 54.1872 223.887 57.4812 223.887C60.8112 223.887 62.4492 222.303 62.4492 219.927C62.4492 217.713 61.2252 216.543 58.9932 215.769ZM75.9467 209.451H65.8487V211.593H69.6827V223.707H72.0947V211.593H75.9467V209.451ZM89.3267 211.035C88.8227 210.027 87.8687 209.451 86.3027 209.451H80.0927V223.707H82.4327V217.767H85.5287L88.0127 223.707H90.6227L87.8147 217.245C88.4447 217.119 89.0207 216.669 89.3807 215.985C89.6507 215.445 89.7947 214.653 89.7947 213.573C89.7947 212.421 89.6867 211.719 89.3267 211.035ZM87.2387 215.103C87.0587 215.499 86.6087 215.715 85.9787 215.733H82.4507V211.575H85.7987C86.6087 211.575 87.1127 211.863 87.3107 212.403C87.4007 212.637 87.4367 213.267 87.4367 213.789C87.4367 214.221 87.3647 214.797 87.2387 215.103ZM103.799 221.547H97.301V217.641H103.439V215.463H97.301V211.611H103.727V209.451H94.961V223.707H103.799V221.547ZM115.656 220.251L116.646 223.707H119.094L114.882 209.451H111.858L107.358 223.707H109.77L110.814 220.251H115.656ZM111.462 218.199C111.462 218.199 113.028 213.033 113.046 212.943C113.082 212.799 113.316 211.665 113.316 211.665C113.316 211.665 113.55 212.799 113.586 212.943C113.622 213.051 115.044 218.199 115.044 218.199H111.462ZM128.244 215.607L133.374 209.451H130.71L125.562 215.517V209.451H123.186V223.707H125.562V218.613L126.606 217.389L130.674 223.707H133.482L128.244 215.607Z" fill="white"/>
<g clip-path="url(#clip0_2915_32604)">
<path d="M227.72 33.707H236.72V32.105H229.844L229.88 31.961C230.384 30.629 232.13 29.657 233.462 28.847C235.388 27.749 236.954 26.921 236.954 24.545C236.954 22.277 235.262 20.603 232.634 20.603C231.23 20.603 230.006 21.035 229.214 21.881C228.44 22.673 228.026 23.699 228.026 25.139H229.808C229.808 24.059 230.024 23.357 230.528 22.835C230.996 22.313 231.626 22.043 232.49 22.043C234.128 22.043 235.154 23.069 235.154 24.581C235.154 26.057 234.218 26.705 232.616 27.623C231.392 28.361 230.06 29.099 229.088 30.179C228.314 31.061 227.792 32.159 227.72 33.707ZM247.777 37.091C249.073 37.091 250.153 36.803 250.909 36.173C251.647 35.543 252.079 34.589 252.079 33.311V24.041H250.423V25.319H250.387C249.775 24.347 248.839 23.807 247.453 23.807C245.185 23.807 243.313 25.571 243.313 28.541C243.313 31.349 245.077 33.275 247.543 33.275C248.911 33.275 249.757 32.681 250.423 31.727H250.459C250.441 32.033 250.423 32.555 250.423 33.113V33.383C250.423 35.021 249.469 35.795 247.741 35.795C246.301 35.795 245.329 35.381 245.185 34.373H243.619C243.799 36.083 245.239 37.091 247.777 37.091ZM247.705 31.907C245.959 31.907 245.023 30.611 245.023 28.559C245.023 26.525 245.923 25.193 247.687 25.193C249.613 25.193 250.531 26.435 250.531 28.469C250.531 30.431 249.811 31.907 247.705 31.907ZM257.276 33.905C258.914 33.905 259.904 33.131 260.516 32.285H260.534C260.714 33.311 261.218 33.797 262.244 33.797C262.64 33.797 262.91 33.725 263.144 33.653V32.483H263.072C262.226 32.663 262.046 32.249 262.046 31.475V26.957C262.046 25.661 261.56 24.815 260.75 24.329C260.138 23.969 259.328 23.807 258.41 23.807C255.8 23.807 254.558 25.265 254.486 26.903H256.106C256.16 25.751 256.898 25.031 258.428 25.031C259.76 25.031 260.498 25.679 260.498 26.723C260.498 27.713 259.58 27.947 258.158 28.109C255.656 28.415 254 28.901 254 31.151C254 33.005 255.44 33.905 257.276 33.905ZM257.69 32.681C256.718 32.681 255.764 32.375 255.764 31.133C255.764 29.801 256.808 29.513 258.392 29.243C259.184 29.099 260.03 28.865 260.516 28.559V30.143C260.516 31.259 259.616 32.681 257.69 32.681ZM264.504 33.707H266.178V27.749C266.178 26.273 267.42 25.211 268.572 25.211C269.562 25.211 270.228 25.913 270.228 27.101V33.707H271.884V27.749C271.884 26.273 272.946 25.211 274.17 25.211C275.142 25.211 275.916 25.913 275.916 27.101V33.707H277.59V26.957C277.59 24.941 276.366 23.807 274.602 23.807C273.432 23.807 272.298 24.401 271.614 25.607H271.578C271.182 24.419 270.246 23.807 269.076 23.807C267.834 23.807 266.808 24.437 266.214 25.481H266.16V24.041H264.504V33.707ZM284.026 33.977C286.258 33.977 287.806 32.753 288.238 30.953H286.6C286.294 31.979 285.376 32.609 284.044 32.609C282.172 32.609 281.146 31.169 281.02 29.279H288.436C288.436 27.641 288.04 26.255 287.248 25.301C286.492 24.365 285.376 23.807 283.936 23.807C281.164 23.807 279.31 26.075 279.31 28.883C279.31 31.709 281.056 33.977 284.026 33.977ZM283.936 25.103C285.61 25.103 286.564 26.219 286.654 28.073H281.056C281.272 26.363 282.19 25.103 283.936 25.103ZM297.09 33.707H298.782L300.24 28.379C300.474 27.461 300.834 25.679 300.834 25.679H300.87C300.87 25.679 301.248 27.443 301.482 28.379L302.904 33.707H304.578L307.728 24.041H306L304.398 29.405C304.038 30.593 303.768 32.249 303.768 32.249H303.732C303.732 32.249 303.39 30.467 303.12 29.441L301.68 24.041H300.096L298.638 29.441C298.314 30.611 297.99 32.231 297.99 32.231H297.954C297.954 32.231 297.63 30.503 297.324 29.405L295.812 24.041H294.03L297.09 33.707ZM309.028 22.259H310.774V20.315H309.028V22.259ZM309.064 33.707H310.738V24.041H309.064V33.707ZM314.693 24.041H313.037V33.707H314.711V27.821C314.711 26.273 315.791 25.211 317.285 25.211C318.599 25.211 319.409 25.913 319.409 27.155V33.707H321.065V26.957C321.065 24.941 319.823 23.807 317.807 23.807C316.403 23.807 315.449 24.437 314.747 25.409H314.693V24.041ZM331.809 33.995C334.077 33.995 335.697 32.987 335.697 31.025C335.697 28.775 334.041 28.343 332.115 27.965C330.477 27.641 329.541 27.443 329.541 26.435C329.541 25.697 330.099 25.085 331.413 25.085C332.799 25.085 333.483 25.643 333.627 26.633H335.301C335.085 24.959 333.879 23.825 331.449 23.825C329.199 23.825 327.903 24.869 327.903 26.525C327.903 28.649 329.613 29.045 331.503 29.441C333.213 29.783 334.023 30.053 334.023 31.115C334.023 31.979 333.375 32.645 331.845 32.645C330.459 32.645 329.379 32.177 329.181 30.773H327.489C327.633 32.735 329.145 33.995 331.809 33.995ZM336.736 25.337H338.248V31.817C338.248 33.239 339.148 33.761 340.444 33.779C340.876 33.779 341.344 33.725 341.794 33.617V32.213H341.74C341.56 32.267 341.182 32.339 340.894 32.339C340.282 32.339 339.904 32.141 339.904 31.439V25.337H341.902V24.041H339.904V20.999H338.248V24.041H336.736V25.337ZM345.296 24.041H343.64V33.707H345.314V28.451C345.314 26.633 346.592 25.517 348.086 25.517C348.374 25.517 348.536 25.535 348.77 25.607H348.824V24.023C348.644 23.951 348.482 23.915 348.212 23.915C346.934 23.915 345.944 24.671 345.35 25.787H345.296V24.041ZM354.303 33.977C356.535 33.977 358.083 32.753 358.515 30.953H356.877C356.571 31.979 355.653 32.609 354.321 32.609C352.449 32.609 351.423 31.169 351.297 29.279H358.713C358.713 27.641 358.317 26.255 357.525 25.301C356.769 24.365 355.653 23.807 354.213 23.807C351.441 23.807 349.587 26.075 349.587 28.883C349.587 31.709 351.333 33.977 354.303 33.977ZM354.213 25.103C355.887 25.103 356.841 26.219 356.931 28.073H351.333C351.549 26.363 352.467 25.103 354.213 25.103ZM363.378 33.905C365.016 33.905 366.006 33.131 366.618 32.285H366.636C366.816 33.311 367.32 33.797 368.346 33.797C368.742 33.797 369.012 33.725 369.246 33.653V32.483H369.174C368.328 32.663 368.148 32.249 368.148 31.475V26.957C368.148 25.661 367.662 24.815 366.852 24.329C366.24 23.969 365.43 23.807 364.512 23.807C361.902 23.807 360.66 25.265 360.588 26.903H362.208C362.262 25.751 363 25.031 364.53 25.031C365.862 25.031 366.6 25.679 366.6 26.723C366.6 27.713 365.682 27.947 364.26 28.109C361.758 28.415 360.102 28.901 360.102 31.151C360.102 33.005 361.542 33.905 363.378 33.905ZM363.792 32.681C362.82 32.681 361.866 32.375 361.866 31.133C361.866 29.801 362.91 29.513 364.494 29.243C365.286 29.099 366.132 28.865 366.618 28.559V30.143C366.618 31.259 365.718 32.681 363.792 32.681ZM376.959 33.707H378.921L374.799 27.515L378.489 24.041H376.401L372.207 28.163C372.243 27.695 372.279 27.011 372.279 26.669V20.315H370.605V33.707H372.279V29.909L373.647 28.613L376.959 33.707ZM385.142 36.983H386.816V34.049C386.816 33.311 386.798 32.771 386.78 32.429H386.834C387.5 33.455 388.562 33.995 389.876 33.995C392.486 33.995 394.088 31.997 394.088 28.901C394.088 25.715 392.396 23.807 389.93 23.807C388.544 23.807 387.572 24.455 386.852 25.553H386.798V24.041H385.142V36.983ZM389.696 32.609C387.554 32.609 386.726 30.971 386.726 28.937C386.726 26.885 387.662 25.229 389.714 25.229C391.496 25.229 392.378 26.813 392.378 28.937C392.378 31.043 391.478 32.609 389.696 32.609ZM397.521 24.041H395.865V33.707H397.539V28.451C397.539 26.633 398.817 25.517 400.311 25.517C400.599 25.517 400.761 25.535 400.995 25.607H401.049V24.023C400.869 23.951 400.707 23.915 400.437 23.915C399.159 23.915 398.169 24.671 397.575 25.787H397.521V24.041ZM402.649 22.259H404.395V20.315H402.649V22.259ZM402.685 33.707H404.359V24.041H402.685V33.707ZM406.298 33.707H414.092V32.231H410.186C409.484 32.231 408.26 32.285 408.26 32.285V32.231C408.26 32.231 409.07 31.349 409.484 30.827L413.876 25.085V24.041H406.622V25.463H409.952C410.618 25.463 411.77 25.409 411.77 25.409V25.463C411.77 25.463 411.014 26.273 410.618 26.777L406.298 32.411V33.707ZM419.711 33.977C421.943 33.977 423.491 32.753 423.923 30.953H422.285C421.979 31.979 421.061 32.609 419.729 32.609C417.857 32.609 416.831 31.169 416.705 29.279H424.121C424.121 27.641 423.725 26.255 422.933 25.301C422.177 24.365 421.061 23.807 419.621 23.807C416.849 23.807 414.995 26.075 414.995 28.883C414.995 31.709 416.741 33.977 419.711 33.977ZM419.621 25.103C421.295 25.103 422.249 26.219 422.339 28.073H416.741C416.957 26.363 417.875 25.103 419.621 25.103Z" fill="white"/>
<path fill-rule="evenodd" clip-rule="evenodd" d="M537.697 36.9833L548.477 35.0815C549.095 34.9698 549.561 34.7334 549.876 34.3721C550.185 34.0173 550.34 33.5378 550.34 32.9334V19.3651C550.34 18.8987 550.241 18.5046 550.044 18.1827C549.847 17.8608 549.571 17.6342 549.216 17.5028C548.862 17.3649 548.444 17.3386 547.965 17.424L537.5 19.2666C536.541 19.4374 535.819 19.7363 535.333 20.1633C534.84 20.5837 534.594 21.2767 534.594 22.2424V34.1356C534.594 34.8385 534.718 35.4198 534.968 35.8797C535.218 36.3461 535.576 36.6745 536.042 36.865C536.502 37.0555 537.054 37.0949 537.697 36.9833ZM547.797 21.2176V23.2967C547.797 23.5003 547.732 23.6547 547.6 23.7598C547.469 23.8649 547.318 23.9207 547.147 23.9273C546.976 23.9273 546.828 23.8813 546.704 23.7894C546.572 23.6908 546.507 23.543 546.507 23.346V22.0256C546.507 21.7563 546.352 21.6446 546.043 21.6906L544.743 21.927C544.533 21.9599 544.368 21.9238 544.25 21.8187C544.125 21.707 544.05 21.569 544.023 21.4048C543.991 21.2406 544.014 21.0862 544.092 20.9417C544.165 20.7972 544.293 20.7085 544.477 20.6756L546.595 20.3012C546.97 20.2355 547.265 20.2815 547.482 20.4392C547.692 20.5968 547.797 20.8563 547.797 21.2176ZM538.505 23.6514V24.9028C538.505 25.1065 538.443 25.2641 538.318 25.3758C538.187 25.4875 538.036 25.5466 537.865 25.5531C537.694 25.5597 537.543 25.5104 537.412 25.4053C537.28 25.2937 537.215 25.1262 537.215 24.9028V23.2573C537.215 22.7974 537.336 22.446 537.579 22.2029C537.816 21.9533 538.207 21.7792 538.752 21.6807L539.777 21.5033C540 21.4639 540.181 21.4968 540.319 21.6019C540.45 21.707 540.529 21.8449 540.555 22.0157C540.581 22.18 540.552 22.3343 540.466 22.4788C540.374 22.6234 540.217 22.7153 539.993 22.7547L539.176 22.9025C538.886 22.9551 538.703 23.0569 538.624 23.208C538.545 23.3525 538.505 23.5003 538.505 23.6514ZM546.507 30.8248V29.5734C546.507 29.3698 546.572 29.2121 546.704 29.1004C546.828 28.9887 546.976 28.9296 547.147 28.9231C547.318 28.9165 547.469 28.969 547.6 29.0807C547.732 29.1858 547.797 29.35 547.797 29.5734V31.2189C547.797 31.6788 547.679 32.0335 547.443 32.2831C547.2 32.5262 546.805 32.697 546.26 32.7955L545.235 32.9729C545.012 33.0123 544.835 32.9794 544.703 32.8743C544.565 32.7627 544.483 32.6247 544.457 32.4605C544.424 32.2963 544.454 32.1419 544.546 31.9974C544.638 31.8463 544.795 31.7543 545.019 31.7215L545.837 31.5737C546.126 31.5211 546.309 31.4193 546.388 31.2682C546.467 31.1171 546.507 30.9693 546.507 30.8248ZM537.215 33.2586V31.1795C537.215 30.9693 537.28 30.8149 537.412 30.7164C537.543 30.6113 537.694 30.5587 537.865 30.5587C538.036 30.5522 538.187 30.5982 538.318 30.6967C538.443 30.7887 538.505 30.9332 538.505 31.1303V32.4506C538.505 32.72 538.66 32.8316 538.969 32.7856L540.269 32.5492C540.479 32.5163 540.647 32.5557 540.772 32.6674C540.89 32.7725 540.966 32.9072 540.998 33.0714C541.025 33.2356 541.002 33.39 540.929 33.5345C540.851 33.679 540.716 33.7677 540.525 33.8006L538.417 34.175C538.042 34.2407 537.75 34.1947 537.54 34.037C537.323 33.8794 537.215 33.6199 537.215 33.2586ZM543.675 25.697L545.159 25.4451C545.284 25.4549 545.379 25.5672 545.37 25.697C545.366 25.7488 545.347 25.7975 545.314 25.8361L544.377 27.4923L544.966 29.2196C544.996 29.3456 544.923 29.4727 544.802 29.5039C544.754 29.5164 544.702 29.5121 544.657 29.4912L542.984 29.0996L541.266 30.3388C541.21 30.3744 541.189 30.3744 541.147 30.3744H541.147C541.105 30.3744 541.063 30.3622 541.027 30.339C540.991 30.3158 540.962 30.2827 540.943 30.2433C540.924 30.2039 540.917 30.1599 540.921 30.1162L541.21 28.0168L539.75 26.9311C539.704 26.8908 539.675 26.8333 539.67 26.771C539.664 26.7088 539.683 26.647 539.721 26.5993C539.753 26.56 539.796 26.5324 539.845 26.5214L541.682 25.9862L542.355 24.2391C542.402 24.1191 542.534 24.0613 542.65 24.1101C542.696 24.1295 542.735 24.1642 542.76 24.2088L543.675 25.697Z" fill="white"/>
<path d="M600 50.4722H185V52.4722H600V50.4722Z" fill="white" mask="url(#path-6-inside-2_2915_32604)"/>
<path d="M254.584 91.4002H245.88V116.36L237.88 91.4002H228.984V142.472H237.688V117L245.752 142.472H254.584V91.4002ZM281.139 91.4002H258.547V142.472H267.891V121.16H280.115V112.584H267.891V100.168H281.139V91.4002ZM306.395 133.832H292.891V91.4002H283.547V142.472H306.395V133.832ZM334.612 130.12L336.276 142.472H345.748L338.132 91.4002H325.012L316.5 142.472H325.844L327.636 130.12H334.612ZM328.532 122.568C328.532 122.568 330.836 107.72 330.836 107.464C331.284 104.712 331.412 99.7202 331.412 99.7202C331.412 99.7202 331.54 104.776 331.86 107.464C331.86 107.72 333.78 122.568 333.78 122.568H328.532ZM355.987 139.848V93.5122C355.987 92.3602 355.859 91.4642 355.795 91.3362H347.155C347.347 91.7842 347.347 93.3202 347.347 94.4082V140.04C347.347 141.32 347.475 142.28 347.731 142.472C347.731 142.536 356.307 142.472 356.307 142.472C356.051 142.28 355.987 141.448 355.987 139.848ZM367.55 139.848V93.5122C367.55 92.3602 367.422 91.4642 367.358 91.3362H358.718C358.91 91.7842 358.91 93.3202 358.91 94.4082V140.04C358.91 141.32 359.038 142.28 359.294 142.472C359.294 142.536 367.87 142.472 367.87 142.472C367.614 142.28 367.55 141.448 367.55 139.848ZM406.782 115.848C406.782 107.848 406.462 98.9522 404.478 96.0722C402.238 92.7442 399.358 91.4002 393.918 91.4002H380.734V142.472H395.07C400.318 142.472 402.814 140.488 404.478 137.608C406.462 134.216 406.782 126.408 406.782 115.848ZM394.046 135.112H389.95V99.3362H393.662C395.518 99.3362 396.67 100.232 397.182 102.344C397.63 104.072 397.822 113.288 397.822 115.848C397.822 118.472 397.694 130.44 397.246 132.488C396.798 134.344 395.71 135.112 394.046 135.112ZM431.429 136.2C431.429 133.576 431.493 129.288 431.493 126.536C431.557 123.272 431.621 117.96 431.493 114.888C431.301 109.96 428.229 106.824 420.869 106.824C413.061 106.824 409.861 110.344 409.861 116.936V119.56H417.797V117.576C417.797 115.144 418.565 113.928 420.741 113.928C422.341 113.928 423.173 114.824 423.237 116.36C423.301 117.448 423.301 119.624 423.301 120.584C421.893 120.584 420.421 120.776 418.821 121.032C412.933 122.12 408.965 125.32 408.645 130.44C408.517 132.296 408.581 135.304 408.645 136.072C408.901 141.192 412.805 142.728 416.325 142.728C419.461 142.728 421.829 141.896 423.429 139.912C423.429 140.808 423.621 142.472 423.749 142.472H431.877C431.557 142.024 431.429 138.76 431.429 136.2ZM423.301 129.032C423.173 130.824 423.301 131.72 422.981 133.576C422.661 135.368 421.125 136.072 419.781 136.072C418.501 136.072 417.477 135.624 417.285 134.408C417.157 133.384 417.157 132.168 417.157 131.208C417.157 129.736 417.22 128.712 418.309 127.752C419.269 126.92 420.357 126.728 421.253 126.536C422.021 126.408 422.661 126.408 423.301 126.408C423.301 126.92 423.365 128.328 423.301 129.032ZM449.469 107.272C449.405 108.36 445.309 129.16 445.181 129.928C445.117 129.224 441.021 108.168 440.893 107.272H432.189L440.573 141.512L437.693 152.904H446.461L457.981 107.272H449.469ZM253.048 160.008C251.576 157 248.248 155.4 244.344 155.4H228.984V206.472H238.264V185.224H241.592L246.712 206.472H256.376L250.168 182.664C251.448 182.216 252.856 180.808 253.624 178.824C254.392 176.968 254.84 174.216 254.84 170.184C254.84 165.64 254.136 162.12 253.048 160.008ZM244.92 175.688C244.664 176.584 243.96 177.16 242.744 177.288C242.424 177.352 238.264 177.352 238.264 177.352V163.912H242.488C244.024 163.912 244.856 164.936 245.176 166.344C245.304 166.984 245.432 169.352 245.432 171.08C245.432 172.616 245.304 174.792 244.92 175.688ZM271.935 195.016C271.935 195.912 271.807 197 271.551 198.088C271.231 199.496 269.887 200.072 268.607 200.072C267.327 200.072 265.855 199.304 265.663 197.576C265.47 195.976 265.407 193.416 265.407 191.816H279.935C280.255 185.8 279.807 179.656 278.591 176.648C277.119 173.064 273.727 170.824 268.799 170.824C262.719 170.824 260.031 173.576 258.751 176.712C257.791 179.016 257.087 183.752 257.087 189.064C257.087 194.504 257.535 198.536 259.007 201.928C260.543 205.512 264.191 206.92 268.927 206.92C273.663 206.92 276.543 205 278.079 202.248C279.423 199.88 279.743 196.04 279.743 195.016H271.935ZM265.279 185.544C265.279 183.112 265.343 180.808 265.791 179.72C266.239 178.504 267.263 177.864 268.671 177.864C270.143 177.864 271.103 178.568 271.423 179.784C271.679 180.616 271.871 182.344 271.871 185.544H265.279ZM310.78 171.272L307.964 197.128L304.252 171.272H295.484L292.22 197.128L288.956 171.272H280.252L286.588 206.472H296.828C296.828 206.472 299.068 193.992 299.772 189.832C299.836 189.448 299.9 186.184 299.9 186.184C299.9 186.184 300.092 189.448 300.156 189.832C300.86 193.864 303.036 206.472 303.036 206.472H313.148L319.292 171.272H310.78ZM341.929 200.2C341.929 197.576 341.993 193.288 341.993 190.536C342.057 187.272 342.121 181.96 341.993 178.888C341.801 173.96 338.729 170.824 331.369 170.824C323.561 170.824 320.361 174.344 320.361 180.936V183.56H328.297V181.576C328.297 179.144 329.065 177.928 331.241 177.928C332.841 177.928 333.673 178.824 333.737 180.36C333.801 181.448 333.801 183.624 333.801 184.584C332.393 184.584 330.921 184.776 329.321 185.032C323.433 186.12 319.465 189.32 319.145 194.44C319.017 196.296 319.081 199.304 319.145 200.072C319.401 205.192 323.305 206.728 326.825 206.728C329.961 206.728 332.329 205.896 333.929 203.912C333.929 204.808 334.121 206.472 334.249 206.472H342.377C342.057 206.024 341.929 202.76 341.929 200.2ZM333.801 193.032C333.673 194.824 333.801 195.72 333.481 197.576C333.161 199.368 331.625 200.072 330.281 200.072C329.001 200.072 327.977 199.624 327.785 198.408C327.657 197.384 327.657 196.168 327.657 195.208C327.657 193.736 327.72 192.712 328.809 191.752C329.769 190.92 330.857 190.728 331.753 190.536C332.521 190.408 333.161 190.408 333.801 190.408C333.801 190.92 333.865 192.328 333.801 193.032ZM359.884 170.824C356.94 170.824 353.996 172.744 353.612 175.432V171.272H345.164V206.472H353.74V185.608C353.74 179.848 355.532 178.568 358.476 178.568C360.204 178.568 361.932 178.888 362.956 179.208V171.144C362.252 170.888 361.228 170.824 359.884 170.824ZM364.931 176.456C363.907 180.296 363.587 183.816 363.587 189C363.587 194.632 364.227 199.304 365.379 202.12C366.659 205.32 369.027 206.728 372.547 206.728C375.683 206.728 377.795 205.704 378.947 203.912L379.971 206.472H387.139C387.139 206.472 386.883 203.528 386.883 201.544V155.336H378.499V173.832C377.539 171.976 375.235 170.952 372.547 170.952C368.771 170.952 365.827 173 364.931 176.456ZM377.923 180.168C378.307 182.088 378.562 184.008 378.562 189.064C378.562 192.136 378.435 195.336 377.987 197.576C377.731 198.92 376.899 199.944 375.235 199.944C373.507 199.944 372.611 199.112 372.419 197.768C372.099 195.144 371.97 192.008 371.97 189.064C371.97 186.056 372.099 183.048 372.547 180.488C372.803 179.208 373.699 178.248 375.299 178.248C376.899 178.248 377.667 178.952 377.923 180.168Z" fill="white"/>
</g>
<path d="M185 0.707031H600H185ZM600 250.707H185H600ZM184 250.707V0.707031H186V250.707H184ZM600 0.707031V250.707V0.707031Z" fill="white" mask="url(#path-4-inside-1_2915_32604)"/>
<rect x="0.5" y="1.20703" width="599" height="249" rx="11.5" stroke="white"/>
<path d="M734.1 30.2496H716.82C715.06 34.0896 710.58 41.4496 694.1 42.5696V60.9696L711.7 60.1696V158.09H734.1V30.2496Z" fill="white"/>
<path d="M697.204 192.418V188.098H691.534V190.132H695.008C695.008 190.132 695.026 192.184 694.99 192.364C694.756 193.426 693.802 194.236 692.272 194.236C691.012 194.236 690.238 193.912 689.752 193.21C689.176 192.364 689.014 191.122 689.014 189.016C689.014 186.946 689.266 185.596 689.77 184.822C690.256 184.102 691.03 183.796 692.11 183.796C693.118 183.796 693.82 184.102 694.234 184.714C694.612 185.29 694.828 186.136 694.828 186.622H697.132C697.132 185.992 696.952 184.75 696.52 183.886C695.872 182.608 694.522 181.654 692.056 181.654C689.68 181.654 688.348 182.644 687.592 183.814C686.8 185.056 686.566 186.766 686.566 188.98C686.566 191.554 686.962 193.21 687.646 194.29C688.474 195.586 689.878 196.27 691.768 196.27C693.712 196.27 694.756 195.586 695.242 194.866L695.35 196.09H697.222C697.222 196.036 697.204 194.128 697.204 192.418ZM709.209 192.634L710.199 196.09H712.647L708.435 181.834H705.411L700.911 196.09H703.323L704.367 192.634H709.209ZM705.015 190.582C705.015 190.582 706.581 185.416 706.599 185.326C706.635 185.182 706.869 184.048 706.869 184.048C706.869 184.048 707.103 185.182 707.139 185.326C707.175 185.434 708.597 190.582 708.597 190.582H705.015ZM729.429 181.834H726.351L723.147 192.436L719.997 181.834H716.739V196.09H718.953V186.316L721.887 196.09H724.209L727.197 186.28V196.09H729.429V181.834ZM743.504 193.93H737.006V190.024H743.144V187.846H737.006V183.994H743.432V181.834H734.666V196.09H743.504V193.93ZM682.993 216.152C682.597 216.008 681.751 215.684 681.247 215.522C679.501 214.946 678.637 214.388 678.637 213.272C678.637 212.318 679.285 211.742 681.103 211.742C682.651 211.742 683.371 212.174 683.677 213.056C683.785 213.38 683.839 213.65 683.839 213.956H686.251C686.251 213.416 686.161 212.984 686.035 212.552C685.531 210.788 684.091 209.672 681.157 209.672C677.791 209.672 676.207 211.148 676.207 213.344C676.207 215.45 677.593 216.71 679.735 217.412C680.329 217.61 681.175 217.934 681.535 218.06C683.443 218.726 684.019 219.302 684.019 220.508C684.019 221.588 683.245 222.236 681.427 222.236C679.879 222.236 678.979 221.84 678.709 220.994C678.601 220.652 678.547 220.166 678.547 219.914H676.153C676.153 220.328 676.189 220.994 676.315 221.48C676.747 223.154 678.187 224.27 681.481 224.27C684.811 224.27 686.449 222.686 686.449 220.31C686.449 218.096 685.225 216.926 682.993 216.152ZM699.947 209.834H689.849V211.976H693.683V224.09H696.095V211.976H699.947V209.834ZM713.327 211.418C712.823 210.41 711.869 209.834 710.303 209.834H704.093V224.09H706.433V218.15H709.529L712.013 224.09H714.623L711.815 217.628C712.445 217.502 713.021 217.052 713.381 216.368C713.651 215.828 713.795 215.036 713.795 213.956C713.795 212.804 713.687 212.102 713.327 211.418ZM711.239 215.486C711.059 215.882 710.609 216.098 709.979 216.116H706.451V211.958H709.799C710.609 211.958 711.113 212.246 711.311 212.786C711.401 213.02 711.437 213.65 711.437 214.172C711.437 214.604 711.365 215.18 711.239 215.486ZM727.799 221.93H721.301V218.024H727.439V215.846H721.301V211.994H727.727V209.834H718.961V224.09H727.799V221.93ZM739.656 220.634L740.646 224.09H743.094L738.882 209.834H735.858L731.358 224.09H733.77L734.814 220.634H739.656ZM735.462 218.582C735.462 218.582 737.028 213.416 737.046 213.326C737.082 213.182 737.316 212.048 737.316 212.048C737.316 212.048 737.55 213.182 737.586 213.326C737.622 213.434 739.044 218.582 739.044 218.582H735.462ZM752.244 215.99L757.374 209.834H754.71L749.562 215.9V209.834H747.186V224.09H749.562V218.996L750.606 217.772L754.674 224.09H757.482L752.244 215.99Z" fill="white"/>
<g clip-path="url(#clip1_2915_32604)">
<path d="M854.744 33.707H856.49V20.801H855.14C854.906 22.673 853.394 23.285 851.774 23.321V24.473H854.744V33.707ZM868.103 37.091C869.399 37.091 870.479 36.803 871.235 36.173C871.973 35.543 872.405 34.589 872.405 33.311V24.041H870.749V25.319H870.713C870.101 24.347 869.165 23.807 867.779 23.807C865.511 23.807 863.639 25.571 863.639 28.541C863.639 31.349 865.403 33.275 867.869 33.275C869.237 33.275 870.083 32.681 870.749 31.727H870.785C870.767 32.033 870.749 32.555 870.749 33.113V33.383C870.749 35.021 869.795 35.795 868.067 35.795C866.627 35.795 865.655 35.381 865.511 34.373H863.945C864.125 36.083 865.565 37.091 868.103 37.091ZM868.031 31.907C866.285 31.907 865.349 30.611 865.349 28.559C865.349 26.525 866.249 25.193 868.013 25.193C869.939 25.193 870.857 26.435 870.857 28.469C870.857 30.431 870.137 31.907 868.031 31.907ZM877.602 33.905C879.24 33.905 880.23 33.131 880.842 32.285H880.86C881.04 33.311 881.544 33.797 882.57 33.797C882.966 33.797 883.236 33.725 883.47 33.653V32.483H883.398C882.552 32.663 882.372 32.249 882.372 31.475V26.957C882.372 25.661 881.886 24.815 881.076 24.329C880.464 23.969 879.654 23.807 878.736 23.807C876.126 23.807 874.884 25.265 874.812 26.903H876.432C876.486 25.751 877.224 25.031 878.754 25.031C880.086 25.031 880.824 25.679 880.824 26.723C880.824 27.713 879.906 27.947 878.484 28.109C875.982 28.415 874.326 28.901 874.326 31.151C874.326 33.005 875.766 33.905 877.602 33.905ZM878.016 32.681C877.044 32.681 876.09 32.375 876.09 31.133C876.09 29.801 877.134 29.513 878.718 29.243C879.51 29.099 880.356 28.865 880.842 28.559V30.143C880.842 31.259 879.942 32.681 878.016 32.681ZM884.83 33.707H886.504V27.749C886.504 26.273 887.746 25.211 888.898 25.211C889.888 25.211 890.554 25.913 890.554 27.101V33.707H892.21V27.749C892.21 26.273 893.272 25.211 894.496 25.211C895.468 25.211 896.242 25.913 896.242 27.101V33.707H897.916V26.957C897.916 24.941 896.692 23.807 894.928 23.807C893.758 23.807 892.624 24.401 891.94 25.607H891.904C891.508 24.419 890.572 23.807 889.402 23.807C888.16 23.807 887.134 24.437 886.54 25.481H886.486V24.041H884.83V33.707ZM904.352 33.977C906.584 33.977 908.132 32.753 908.564 30.953H906.926C906.62 31.979 905.702 32.609 904.37 32.609C902.498 32.609 901.472 31.169 901.346 29.279H908.762C908.762 27.641 908.366 26.255 907.574 25.301C906.818 24.365 905.702 23.807 904.262 23.807C901.49 23.807 899.636 26.075 899.636 28.883C899.636 31.709 901.382 33.977 904.352 33.977ZM904.262 25.103C905.936 25.103 906.89 26.219 906.98 28.073H901.382C901.598 26.363 902.516 25.103 904.262 25.103ZM917.416 33.707H919.108L920.566 28.379C920.8 27.461 921.16 25.679 921.16 25.679H921.196C921.196 25.679 921.574 27.443 921.808 28.379L923.23 33.707H924.904L928.054 24.041H926.326L924.724 29.405C924.364 30.593 924.094 32.249 924.094 32.249H924.058C924.058 32.249 923.716 30.467 923.446 29.441L922.006 24.041H920.422L918.964 29.441C918.64 30.611 918.316 32.231 918.316 32.231H918.28C918.28 32.231 917.956 30.503 917.65 29.405L916.138 24.041H914.356L917.416 33.707ZM929.354 22.259H931.1V20.315H929.354V22.259ZM929.39 33.707H931.064V24.041H929.39V33.707ZM935.019 24.041H933.363V33.707H935.037V27.821C935.037 26.273 936.117 25.211 937.611 25.211C938.925 25.211 939.735 25.913 939.735 27.155V33.707H941.391V26.957C941.391 24.941 940.149 23.807 938.133 23.807C936.729 23.807 935.775 24.437 935.073 25.409H935.019V24.041ZM952.135 33.995C954.403 33.995 956.023 32.987 956.023 31.025C956.023 28.775 954.367 28.343 952.441 27.965C950.803 27.641 949.867 27.443 949.867 26.435C949.867 25.697 950.425 25.085 951.739 25.085C953.125 25.085 953.809 25.643 953.953 26.633H955.627C955.411 24.959 954.205 23.825 951.775 23.825C949.525 23.825 948.229 24.869 948.229 26.525C948.229 28.649 949.939 29.045 951.829 29.441C953.539 29.783 954.349 30.053 954.349 31.115C954.349 31.979 953.701 32.645 952.171 32.645C950.785 32.645 949.705 32.177 949.507 30.773H947.815C947.959 32.735 949.471 33.995 952.135 33.995ZM957.062 25.337H958.574V31.817C958.574 33.239 959.474 33.761 960.77 33.779C961.202 33.779 961.67 33.725 962.12 33.617V32.213H962.066C961.886 32.267 961.508 32.339 961.22 32.339C960.608 32.339 960.23 32.141 960.23 31.439V25.337H962.228V24.041H960.23V20.999H958.574V24.041H957.062V25.337ZM965.622 24.041H963.966V33.707H965.64V28.451C965.64 26.633 966.918 25.517 968.412 25.517C968.7 25.517 968.862 25.535 969.096 25.607H969.15V24.023C968.97 23.951 968.808 23.915 968.538 23.915C967.26 23.915 966.27 24.671 965.676 25.787H965.622V24.041ZM974.629 33.977C976.861 33.977 978.409 32.753 978.841 30.953H977.203C976.897 31.979 975.979 32.609 974.647 32.609C972.775 32.609 971.749 31.169 971.623 29.279H979.039C979.039 27.641 978.643 26.255 977.851 25.301C977.095 24.365 975.979 23.807 974.539 23.807C971.767 23.807 969.913 26.075 969.913 28.883C969.913 31.709 971.659 33.977 974.629 33.977ZM974.539 25.103C976.213 25.103 977.167 26.219 977.257 28.073H971.659C971.875 26.363 972.793 25.103 974.539 25.103ZM983.704 33.905C985.342 33.905 986.332 33.131 986.944 32.285H986.962C987.142 33.311 987.646 33.797 988.672 33.797C989.068 33.797 989.338 33.725 989.572 33.653V32.483H989.5C988.654 32.663 988.474 32.249 988.474 31.475V26.957C988.474 25.661 987.988 24.815 987.178 24.329C986.566 23.969 985.756 23.807 984.838 23.807C982.228 23.807 980.986 25.265 980.914 26.903H982.534C982.588 25.751 983.326 25.031 984.856 25.031C986.188 25.031 986.926 25.679 986.926 26.723C986.926 27.713 986.008 27.947 984.586 28.109C982.084 28.415 980.428 28.901 980.428 31.151C980.428 33.005 981.868 33.905 983.704 33.905ZM984.118 32.681C983.146 32.681 982.192 32.375 982.192 31.133C982.192 29.801 983.236 29.513 984.82 29.243C985.612 29.099 986.458 28.865 986.944 28.559V30.143C986.944 31.259 986.044 32.681 984.118 32.681ZM997.285 33.707H999.247L995.125 27.515L998.815 24.041H996.727L992.533 28.163C992.569 27.695 992.605 27.011 992.605 26.669V20.315H990.931V33.707H992.605V29.909L993.973 28.613L997.285 33.707ZM1005.47 36.983H1007.14V34.049C1007.14 33.311 1007.12 32.771 1007.11 32.429H1007.16C1007.83 33.455 1008.89 33.995 1010.2 33.995C1012.81 33.995 1014.41 31.997 1014.41 28.901C1014.41 25.715 1012.72 23.807 1010.26 23.807C1008.87 23.807 1007.9 24.455 1007.18 25.553H1007.12V24.041H1005.47V36.983ZM1010.02 32.609C1007.88 32.609 1007.05 30.971 1007.05 28.937C1007.05 26.885 1007.99 25.229 1010.04 25.229C1011.82 25.229 1012.7 26.813 1012.7 28.937C1012.7 31.043 1011.8 32.609 1010.02 32.609ZM1017.85 24.041H1016.19V33.707H1017.87V28.451C1017.87 26.633 1019.14 25.517 1020.64 25.517C1020.93 25.517 1021.09 25.535 1021.32 25.607H1021.38V24.023C1021.2 23.951 1021.03 23.915 1020.76 23.915C1019.49 23.915 1018.5 24.671 1017.9 25.787H1017.85V24.041ZM1022.98 22.259H1024.72V20.315H1022.98V22.259ZM1023.01 33.707H1024.69V24.041H1023.01V33.707ZM1026.62 33.707H1034.42V32.231H1030.51C1029.81 32.231 1028.59 32.285 1028.59 32.285V32.231C1028.59 32.231 1029.4 31.349 1029.81 30.827L1034.2 25.085V24.041H1026.95V25.463H1030.28C1030.94 25.463 1032.1 25.409 1032.1 25.409V25.463C1032.1 25.463 1031.34 26.273 1030.94 26.777L1026.62 32.411V33.707ZM1040.04 33.977C1042.27 33.977 1043.82 32.753 1044.25 30.953H1042.61C1042.31 31.979 1041.39 32.609 1040.06 32.609C1038.18 32.609 1037.16 31.169 1037.03 29.279H1044.45C1044.45 27.641 1044.05 26.255 1043.26 25.301C1042.5 24.365 1041.39 23.807 1039.95 23.807C1037.18 23.807 1035.32 26.075 1035.32 28.883C1035.32 31.709 1037.07 33.977 1040.04 33.977ZM1039.95 25.103C1041.62 25.103 1042.58 26.219 1042.67 28.073H1037.07C1037.28 26.363 1038.2 25.103 1039.95 25.103Z" fill="white"/>
<path fill-rule="evenodd" clip-rule="evenodd" d="M1161.7 36.9833L1172.48 35.0815C1173.09 34.9698 1173.56 34.7334 1173.88 34.3721C1174.19 34.0173 1174.34 33.5378 1174.34 32.9334V19.3651C1174.34 18.8987 1174.24 18.5046 1174.04 18.1827C1173.85 17.8608 1173.57 17.6342 1173.22 17.5028C1172.86 17.3649 1172.44 17.3386 1171.96 17.424L1161.5 19.2666C1160.54 19.4374 1159.82 19.7363 1159.33 20.1633C1158.84 20.5837 1158.59 21.2767 1158.59 22.2424V34.1356C1158.59 34.8385 1158.72 35.4198 1158.97 35.8797C1159.22 36.3461 1159.58 36.6745 1160.04 36.865C1160.5 37.0555 1161.05 37.0949 1161.7 36.9833ZM1171.8 21.2176V23.2967C1171.8 23.5003 1171.73 23.6547 1171.6 23.7598C1171.47 23.8649 1171.32 23.9207 1171.15 23.9273C1170.98 23.9273 1170.83 23.8813 1170.7 23.7894C1170.57 23.6908 1170.51 23.543 1170.51 23.346V22.0256C1170.51 21.7563 1170.35 21.6446 1170.04 21.6906L1168.74 21.927C1168.53 21.9599 1168.37 21.9238 1168.25 21.8187C1168.13 21.707 1168.05 21.569 1168.02 21.4048C1167.99 21.2406 1168.01 21.0862 1168.09 20.9417C1168.16 20.7972 1168.29 20.7085 1168.48 20.6756L1170.6 20.3012C1170.97 20.2355 1171.27 20.2815 1171.48 20.4392C1171.69 20.5968 1171.8 20.8563 1171.8 21.2176ZM1162.51 23.6514V24.9028C1162.51 25.1065 1162.44 25.2641 1162.32 25.3758C1162.19 25.4875 1162.04 25.5466 1161.87 25.5531C1161.69 25.5597 1161.54 25.5104 1161.41 25.4053C1161.28 25.2937 1161.21 25.1262 1161.21 24.9028V23.2573C1161.21 22.7974 1161.34 22.446 1161.58 22.2029C1161.82 21.9533 1162.21 21.7792 1162.75 21.6807L1163.78 21.5033C1164 21.4639 1164.18 21.4968 1164.32 21.6019C1164.45 21.707 1164.53 21.8449 1164.56 22.0157C1164.58 22.18 1164.55 22.3343 1164.47 22.4788C1164.37 22.6234 1164.22 22.7153 1163.99 22.7547L1163.18 22.9025C1162.89 22.9551 1162.7 23.0569 1162.62 23.208C1162.54 23.3525 1162.51 23.5003 1162.51 23.6514ZM1170.51 30.8248V29.5734C1170.51 29.3698 1170.57 29.2121 1170.7 29.1004C1170.83 28.9887 1170.98 28.9296 1171.15 28.9231C1171.32 28.9165 1171.47 28.969 1171.6 29.0807C1171.73 29.1858 1171.8 29.35 1171.8 29.5734V31.2189C1171.8 31.6788 1171.68 32.0335 1171.44 32.2831C1171.2 32.5262 1170.81 32.697 1170.26 32.7955L1169.24 32.9729C1169.01 33.0123 1168.83 32.9794 1168.7 32.8743C1168.57 32.7627 1168.48 32.6247 1168.46 32.4605C1168.42 32.2963 1168.45 32.1419 1168.55 31.9974C1168.64 31.8463 1168.8 31.7543 1169.02 31.7215L1169.84 31.5737C1170.13 31.5211 1170.31 31.4193 1170.39 31.2682C1170.47 31.1171 1170.51 30.9693 1170.51 30.8248ZM1161.21 33.2586V31.1795C1161.21 30.9693 1161.28 30.8149 1161.41 30.7164C1161.54 30.6113 1161.69 30.5587 1161.87 30.5587C1162.04 30.5522 1162.19 30.5982 1162.32 30.6967C1162.44 30.7887 1162.51 30.9332 1162.51 31.1303V32.4506C1162.51 32.72 1162.66 32.8316 1162.97 32.7856L1164.27 32.5492C1164.48 32.5163 1164.65 32.5557 1164.77 32.6674C1164.89 32.7725 1164.97 32.9072 1165 33.0714C1165.02 33.2356 1165 33.39 1164.93 33.5345C1164.85 33.679 1164.72 33.7677 1164.53 33.8006L1162.42 34.175C1162.04 34.2407 1161.75 34.1947 1161.54 34.037C1161.32 33.8794 1161.21 33.6199 1161.21 33.2586ZM1167.67 25.697L1169.16 25.4451C1169.28 25.4549 1169.38 25.5672 1169.37 25.697C1169.37 25.7488 1169.35 25.7975 1169.31 25.8361L1168.38 27.4923L1168.97 29.2196C1169 29.3456 1168.92 29.4727 1168.8 29.5039C1168.75 29.5164 1168.7 29.5121 1168.66 29.4912L1166.98 29.0996L1165.27 30.3388C1165.21 30.3744 1165.19 30.3744 1165.15 30.3744H1165.15C1165.1 30.3744 1165.06 30.3622 1165.03 30.339C1164.99 30.3158 1164.96 30.2827 1164.94 30.2433C1164.92 30.2039 1164.92 30.1599 1164.92 30.1162L1165.21 28.0168L1163.75 26.9311C1163.7 26.8908 1163.68 26.8333 1163.67 26.771C1163.66 26.7088 1163.68 26.647 1163.72 26.5993C1163.75 26.56 1163.8 26.5324 1163.85 26.5214L1165.68 25.9862L1166.36 24.2391C1166.4 24.1191 1166.53 24.0613 1166.65 24.1101C1166.7 24.1295 1166.73 24.1642 1166.76 24.2088L1167.67 25.697Z" fill="white"/>
<path d="M1224 50.4722H809V52.4722H1224V50.4722Z" fill="white" mask="url(#path-17-inside-4_2915_32604)"/>
<path d="M878.584 91.4002H869.88V116.36L861.88 91.4002H852.984V142.472H861.688V117L869.752 142.472H878.584V91.4002ZM905.139 91.4002H882.547V142.472H891.891V121.16H904.115V112.584H891.891V100.168H905.139V91.4002ZM930.395 133.832H916.891V91.4002H907.547V142.472H930.395V133.832ZM958.612 130.12L960.276 142.472H969.748L962.132 91.4002H949.012L940.5 142.472H949.844L951.636 130.12H958.612ZM952.532 122.568C952.532 122.568 954.836 107.72 954.836 107.464C955.284 104.712 955.412 99.7202 955.412 99.7202C955.412 99.7202 955.54 104.776 955.86 107.464C955.86 107.72 957.78 122.568 957.78 122.568H952.532ZM979.987 139.848V93.5122C979.987 92.3602 979.859 91.4642 979.795 91.3362H971.155C971.347 91.7842 971.347 93.3202 971.347 94.4082V140.04C971.347 141.32 971.475 142.28 971.731 142.472C971.731 142.536 980.307 142.472 980.307 142.472C980.051 142.28 979.987 141.448 979.987 139.848ZM991.55 139.848V93.5122C991.55 92.3602 991.422 91.4642 991.358 91.3362H982.718C982.91 91.7842 982.91 93.3202 982.91 94.4082V140.04C982.91 141.32 983.038 142.28 983.294 142.472C983.294 142.536 991.87 142.472 991.87 142.472C991.614 142.28 991.55 141.448 991.55 139.848ZM1030.78 115.848C1030.78 107.848 1030.46 98.9522 1028.48 96.0722C1026.24 92.7442 1023.36 91.4002 1017.92 91.4002H1004.73V142.472H1019.07C1024.32 142.472 1026.81 140.488 1028.48 137.608C1030.46 134.216 1030.78 126.408 1030.78 115.848ZM1018.05 135.112H1013.95V99.3362H1017.66C1019.52 99.3362 1020.67 100.232 1021.18 102.344C1021.63 104.072 1021.82 113.288 1021.82 115.848C1021.82 118.472 1021.69 130.44 1021.25 132.488C1020.8 134.344 1019.71 135.112 1018.05 135.112ZM1055.43 136.2C1055.43 133.576 1055.49 129.288 1055.49 126.536C1055.56 123.272 1055.62 117.96 1055.49 114.888C1055.3 109.96 1052.23 106.824 1044.87 106.824C1037.06 106.824 1033.86 110.344 1033.86 116.936V119.56H1041.8V117.576C1041.8 115.144 1042.56 113.928 1044.74 113.928C1046.34 113.928 1047.17 114.824 1047.24 116.36C1047.3 117.448 1047.3 119.624 1047.3 120.584C1045.89 120.584 1044.42 120.776 1042.82 121.032C1036.93 122.12 1032.96 125.32 1032.64 130.44C1032.52 132.296 1032.58 135.304 1032.64 136.072C1032.9 141.192 1036.8 142.728 1040.32 142.728C1043.46 142.728 1045.83 141.896 1047.43 139.912C1047.43 140.808 1047.62 142.472 1047.75 142.472H1055.88C1055.56 142.024 1055.43 138.76 1055.43 136.2ZM1047.3 129.032C1047.17 130.824 1047.3 131.72 1046.98 133.576C1046.66 135.368 1045.12 136.072 1043.78 136.072C1042.5 136.072 1041.48 135.624 1041.28 134.408C1041.16 133.384 1041.16 132.168 1041.16 131.208C1041.16 129.736 1041.22 128.712 1042.31 127.752C1043.27 126.92 1044.36 126.728 1045.25 126.536C1046.02 126.408 1046.66 126.408 1047.3 126.408C1047.3 126.92 1047.36 128.328 1047.3 129.032ZM1073.47 107.272C1073.41 108.36 1069.31 129.16 1069.18 129.928C1069.12 129.224 1065.02 108.168 1064.89 107.272H1056.19L1064.57 141.512L1061.69 152.904H1070.46L1081.98 107.272H1073.47ZM877.048 160.008C875.576 157 872.248 155.4 868.344 155.4H852.984V206.472H862.264V185.224H865.592L870.712 206.472H880.376L874.168 182.664C875.448 182.216 876.856 180.808 877.624 178.824C878.392 176.968 878.84 174.216 878.84 170.184C878.84 165.64 878.136 162.12 877.048 160.008ZM868.92 175.688C868.664 176.584 867.96 177.16 866.744 177.288C866.424 177.352 862.264 177.352 862.264 177.352V163.912H866.488C868.024 163.912 868.856 164.936 869.176 166.344C869.304 166.984 869.432 169.352 869.432 171.08C869.432 172.616 869.304 174.792 868.92 175.688ZM895.935 195.016C895.935 195.912 895.807 197 895.551 198.088C895.231 199.496 893.887 200.072 892.607 200.072C891.327 200.072 889.855 199.304 889.663 197.576C889.47 195.976 889.407 193.416 889.407 191.816H903.935C904.255 185.8 903.807 179.656 902.591 176.648C901.119 173.064 897.727 170.824 892.799 170.824C886.719 170.824 884.031 173.576 882.751 176.712C881.791 179.016 881.087 183.752 881.087 189.064C881.087 194.504 881.535 198.536 883.007 201.928C884.543 205.512 888.191 206.92 892.927 206.92C897.663 206.92 900.543 205 902.079 202.248C903.423 199.88 903.743 196.04 903.743 195.016H895.935ZM889.279 185.544C889.279 183.112 889.343 180.808 889.791 179.72C890.239 178.504 891.263 177.864 892.671 177.864C894.143 177.864 895.103 178.568 895.423 179.784C895.679 180.616 895.871 182.344 895.871 185.544H889.279ZM934.78 171.272L931.964 197.128L928.252 171.272H919.484L916.22 197.128L912.956 171.272H904.252L910.588 206.472H920.828C920.828 206.472 923.068 193.992 923.772 189.832C923.836 189.448 923.9 186.184 923.9 186.184C923.9 186.184 924.092 189.448 924.156 189.832C924.86 193.864 927.036 206.472 927.036 206.472H937.148L943.292 171.272H934.78ZM965.929 200.2C965.929 197.576 965.993 193.288 965.993 190.536C966.057 187.272 966.121 181.96 965.993 178.888C965.801 173.96 962.729 170.824 955.369 170.824C947.561 170.824 944.361 174.344 944.361 180.936V183.56H952.297V181.576C952.297 179.144 953.065 177.928 955.241 177.928C956.841 177.928 957.673 178.824 957.737 180.36C957.801 181.448 957.801 183.624 957.801 184.584C956.393 184.584 954.921 184.776 953.321 185.032C947.433 186.12 943.465 189.32 943.145 194.44C943.017 196.296 943.081 199.304 943.145 200.072C943.401 205.192 947.305 206.728 950.825 206.728C953.961 206.728 956.329 205.896 957.929 203.912C957.929 204.808 958.121 206.472 958.249 206.472H966.377C966.057 206.024 965.929 202.76 965.929 200.2ZM957.801 193.032C957.673 194.824 957.801 195.72 957.481 197.576C957.161 199.368 955.625 200.072 954.281 200.072C953.001 200.072 951.977 199.624 951.785 198.408C951.657 197.384 951.657 196.168 951.657 195.208C951.657 193.736 951.72 192.712 952.809 191.752C953.769 190.92 954.857 190.728 955.753 190.536C956.521 190.408 957.161 190.408 957.801 190.408C957.801 190.92 957.865 192.328 957.801 193.032ZM983.884 170.824C980.94 170.824 977.996 172.744 977.612 175.432V171.272H969.164V206.472H977.74V185.608C977.74 179.848 979.532 178.568 982.476 178.568C984.204 178.568 985.932 178.888 986.956 179.208V171.144C986.252 170.888 985.228 170.824 983.884 170.824ZM988.931 176.456C987.907 180.296 987.587 183.816 987.587 189C987.587 194.632 988.227 199.304 989.379 202.12C990.659 205.32 993.027 206.728 996.547 206.728C999.683 206.728 1001.79 205.704 1002.95 203.912L1003.97 206.472H1011.14C1011.14 206.472 1010.88 203.528 1010.88 201.544V155.336H1002.5V173.832C1001.54 171.976 999.235 170.952 996.547 170.952C992.771 170.952 989.827 173 988.931 176.456ZM1001.92 180.168C1002.31 182.088 1002.56 184.008 1002.56 189.064C1002.56 192.136 1002.43 195.336 1001.99 197.576C1001.73 198.92 1000.9 199.944 999.235 199.944C997.507 199.944 996.611 199.112 996.419 197.768C996.099 195.144 995.97 192.008 995.97 189.064C995.97 186.056 996.099 183.048 996.547 180.488C996.803 179.208 997.699 178.248 999.299 178.248C1000.9 178.248 1001.67 178.952 1001.92 180.168Z" fill="white"/>
</g>
<path d="M809 0.707031H1224H809ZM1224 251.472H809H1224ZM808 251.472V0.707031H810V251.472H808ZM1224 0.707031V251.472V0.707031Z" fill="white" mask="url(#path-15-inside-3_2915_32604)"/>
<rect x="624.5" y="1.20703" width="599" height="249.765" rx="11.5" stroke="white"/>
<defs>
<clipPath id="clip0_2915_32604">
<path d="M185 0.707031H600V250.707H185V0.707031Z" fill="white"/>
</clipPath>
<clipPath id="clip1_2915_32604">
<path d="M809 0.707031H1224V251.472H809V0.707031Z" fill="white"/>
</clipPath>
</defs>
</svg>
