<svg width="100%" height="auto" viewBox="0 0 1224 285" fill="none" xmlns="http://www.w3.org/2000/svg">
<path d="M114.952 69.6851H69.384V86.5811H96.136L74.504 171.829H93.96L114.952 84.6611V69.6851Z" fill="white"/>
<path d="M80.0281 201.573C80.0281 201.573 77.5981 212.139 77.5981 212.571C77.5981 212.139 75.3661 201.573 75.3661 201.573H72.7381C72.7381 201.573 70.5241 212.139 70.5241 212.571C70.5241 212.139 68.0941 201.573 68.0941 201.573H65.5921L69.0121 215.829H71.6941C71.6941 215.829 74.0161 205.281 74.0161 204.813C74.0341 205.281 76.2661 215.829 76.2661 215.829H78.9661L82.3501 201.573H80.0281ZM88.8421 201.573H86.4121V215.829H88.8421V201.573ZM103.883 201.573H101.633V211.293L96.7729 201.573H94.0909V215.829H96.3409V205.857L101.345 215.829H103.883V201.573ZM115.346 207.891C114.95 207.747 114.104 207.423 113.6 207.261C111.854 206.685 110.99 206.127 110.99 205.011C110.99 204.057 111.638 203.481 113.456 203.481C115.004 203.481 115.724 203.913 116.03 204.795C116.138 205.119 116.192 205.389 116.192 205.695H118.604C118.604 205.155 118.514 204.723 118.388 204.291C117.884 202.527 116.444 201.411 113.51 201.411C110.144 201.411 108.56 202.887 108.56 205.083C108.56 207.189 109.946 208.449 112.088 209.151C112.682 209.349 113.528 209.673 113.888 209.799C115.796 210.465 116.372 211.041 116.372 212.247C116.372 213.327 115.598 213.975 113.78 213.975C112.232 213.975 111.332 213.579 111.062 212.733C110.954 212.391 110.9 211.905 110.9 211.653H108.506C108.506 212.067 108.542 212.733 108.668 213.219C109.1 214.893 110.54 216.009 113.834 216.009C117.164 216.009 118.802 214.425 118.802 212.049C118.802 209.835 117.578 208.665 115.346 207.891Z" fill="white"/>
<g clip-path="url(#clip0_4719_145478)">
<path d="M219.394 33.8291C219.466 32.7011 219.658 31.5911 219.97 30.4991C220.282 29.3951 220.684 28.3511 221.176 27.3671C221.668 26.3711 222.232 25.4591 222.868 24.6311C223.516 23.8031 224.2 23.0951 224.92 22.5071V22.4711C224.716 22.4831 224.494 22.4951 224.254 22.5071C224.05 22.5191 223.798 22.5311 223.498 22.5431C223.21 22.5431 222.898 22.5431 222.562 22.5431H217.576V21.0131H226.594V22.3991C225.946 22.9751 225.31 23.6591 224.686 24.4511C224.074 25.2431 223.522 26.1251 223.03 27.0971C222.538 28.0691 222.13 29.1191 221.806 30.2471C221.482 31.3751 221.29 32.5691 221.23 33.8291H219.394ZM237.004 37.2131C235.732 37.2131 234.742 36.9731 234.034 36.4931C233.338 36.0251 232.942 35.3591 232.846 34.4951H234.412C234.484 34.9991 234.748 35.3591 235.204 35.5751C235.66 35.8031 236.248 35.9171 236.968 35.9171C237.832 35.9171 238.492 35.7191 238.948 35.3231C239.416 34.9391 239.65 34.3331 239.65 33.5051V33.2351C239.65 32.9591 239.65 32.7011 239.65 32.4611C239.662 32.2091 239.674 32.0051 239.686 31.8491H239.65C239.314 32.3291 238.918 32.7071 238.462 32.9831C238.018 33.2591 237.454 33.3971 236.77 33.3971C236.158 33.3971 235.588 33.2831 235.06 33.0551C234.544 32.8271 234.1 32.5031 233.728 32.0831C233.356 31.6631 233.062 31.1651 232.846 30.5891C232.642 30.0131 232.54 29.3711 232.54 28.6631C232.54 27.9191 232.648 27.2531 232.864 26.6651C233.08 26.0771 233.374 25.5851 233.746 25.1891C234.13 24.7811 234.574 24.4691 235.078 24.2531C235.582 24.0371 236.116 23.9291 236.68 23.9291C237.376 23.9291 237.958 24.0611 238.426 24.3251C238.906 24.5771 239.302 24.9491 239.614 25.4411H239.65V24.1631H241.306V33.4331C241.306 34.0811 241.204 34.6391 241 35.1071C240.796 35.5871 240.508 35.9831 240.136 36.2951C239.752 36.6071 239.296 36.8351 238.768 36.9791C238.24 37.1351 237.652 37.2131 237.004 37.2131ZM236.932 32.0291C237.46 32.0291 237.904 31.9451 238.264 31.7771C238.624 31.5971 238.912 31.3571 239.128 31.0571C239.356 30.7451 239.518 30.3791 239.614 29.9591C239.71 29.5391 239.758 29.0831 239.758 28.5911C239.758 27.5711 239.524 26.7731 239.056 26.1971C238.6 25.6091 237.886 25.3151 236.914 25.3151C236.026 25.3151 235.36 25.6211 234.916 26.2331C234.472 26.8451 234.25 27.6611 234.25 28.6811C234.25 29.7131 234.478 30.5291 234.934 31.1291C235.39 31.7291 236.056 32.0291 236.932 32.0291ZM246.503 34.0271C246.047 34.0271 245.615 33.9671 245.207 33.8471C244.811 33.7391 244.463 33.5711 244.163 33.3431C243.875 33.1151 243.647 32.8331 243.479 32.4971C243.311 32.1491 243.227 31.7411 243.227 31.2731C243.227 30.7091 243.323 30.2471 243.515 29.8871C243.719 29.5271 244.001 29.2391 244.361 29.0231C244.733 28.8071 245.171 28.6391 245.675 28.5191C246.191 28.3991 246.761 28.3031 247.385 28.2311C247.745 28.1951 248.069 28.1471 248.357 28.0871C248.645 28.0271 248.891 27.9491 249.095 27.8531C249.299 27.7451 249.455 27.6131 249.563 27.4571C249.671 27.3011 249.725 27.0971 249.725 26.8451C249.725 26.3171 249.545 25.9031 249.185 25.6031C248.837 25.3031 248.327 25.1531 247.655 25.1531C246.887 25.1531 246.311 25.3211 245.927 25.6571C245.555 25.9931 245.357 26.4491 245.333 27.0251H243.713C243.725 26.6171 243.815 26.2271 243.983 25.8551C244.151 25.4831 244.397 25.1531 244.721 24.8651C245.045 24.5771 245.447 24.3491 245.927 24.1811C246.419 24.0131 246.989 23.9291 247.637 23.9291C248.093 23.9291 248.519 23.9711 248.915 24.0551C249.311 24.1391 249.665 24.2711 249.977 24.4511C250.385 24.6911 250.703 25.0271 250.931 25.4591C251.159 25.8911 251.273 26.4311 251.273 27.0791V31.5971C251.273 31.9811 251.339 32.2691 251.471 32.4611C251.603 32.6531 251.879 32.7011 252.299 32.6051H252.371V33.7751C252.251 33.8111 252.119 33.8411 251.975 33.8651C251.843 33.9011 251.675 33.9191 251.471 33.9191C250.955 33.9191 250.565 33.7991 250.301 33.5591C250.037 33.3071 249.857 32.9231 249.761 32.4071H249.743C249.587 32.6231 249.407 32.8271 249.203 33.0191C248.999 33.2111 248.765 33.3851 248.501 33.5411C248.237 33.6851 247.937 33.7991 247.601 33.8831C247.277 33.9791 246.911 34.0271 246.503 34.0271ZM246.917 32.8031C247.397 32.8031 247.811 32.7251 248.159 32.5691C248.519 32.4011 248.813 32.1971 249.041 31.9571C249.281 31.7051 249.455 31.4291 249.563 31.1291C249.683 30.8291 249.743 30.5411 249.743 30.2651V28.6811C249.503 28.8371 249.185 28.9751 248.789 29.0951C248.405 29.2031 248.015 29.2931 247.619 29.3651C247.223 29.4371 246.863 29.5151 246.539 29.5991C246.215 29.6711 245.939 29.7791 245.711 29.9231C245.483 30.0551 245.303 30.2291 245.171 30.4451C245.051 30.6491 244.991 30.9191 244.991 31.2551C244.991 31.5671 245.045 31.8251 245.153 32.0291C245.261 32.2211 245.405 32.3771 245.585 32.4971C245.765 32.6171 245.969 32.7011 246.197 32.7491C246.437 32.7851 246.677 32.8031 246.917 32.8031ZM253.73 24.1631H255.386V25.6031H255.44C255.74 25.0751 256.136 24.6671 256.628 24.3791C257.12 24.0791 257.678 23.9291 258.302 23.9291C258.89 23.9291 259.4 24.0791 259.832 24.3791C260.276 24.6791 260.6 25.1291 260.804 25.7291H260.84C261.188 25.1171 261.626 24.6671 262.154 24.3791C262.682 24.0791 263.24 23.9291 263.828 23.9291C264.716 23.9291 265.436 24.1991 265.988 24.7391C266.54 25.2791 266.816 26.0591 266.816 27.0791V33.8291H265.142V27.2231C265.142 26.6231 264.974 26.1611 264.638 25.8371C264.302 25.5011 263.888 25.3331 263.396 25.3331C263.084 25.3331 262.79 25.3991 262.514 25.5311C262.238 25.6511 261.998 25.8251 261.794 26.0531C261.59 26.2811 261.422 26.5511 261.29 26.8631C261.17 27.1631 261.11 27.4991 261.11 27.8711V33.8291H259.454V27.2231C259.454 26.6231 259.304 26.1611 259.004 25.8371C258.704 25.5011 258.302 25.3331 257.798 25.3331C257.51 25.3331 257.222 25.3991 256.934 25.5311C256.646 25.6511 256.388 25.8251 256.16 26.0531C255.944 26.2811 255.764 26.5511 255.62 26.8631C255.476 27.1631 255.404 27.4991 255.404 27.8711V33.8291H253.73V24.1631ZM273.252 34.0991C272.508 34.0991 271.842 33.9671 271.254 33.7031C270.678 33.4391 270.186 33.0791 269.778 32.6231C269.37 32.1551 269.058 31.6151 268.842 31.0031C268.638 30.3791 268.536 29.7131 268.536 29.0051C268.536 28.3091 268.644 27.6551 268.86 27.0431C269.088 26.4191 269.4 25.8791 269.796 25.4231C270.204 24.9551 270.69 24.5891 271.254 24.3251C271.83 24.0611 272.466 23.9291 273.162 23.9291C273.882 23.9291 274.518 24.0611 275.07 24.3251C275.622 24.5891 276.09 24.9551 276.474 25.4231C276.87 25.9031 277.164 26.4791 277.356 27.1511C277.56 27.8231 277.662 28.5731 277.662 29.4011H270.246C270.282 29.8691 270.372 30.3071 270.516 30.7151C270.66 31.1231 270.858 31.4771 271.11 31.7771C271.362 32.0771 271.668 32.3111 272.028 32.4791C272.388 32.6471 272.802 32.7311 273.27 32.7311C273.942 32.7311 274.494 32.5871 274.926 32.2991C275.37 31.9991 275.67 31.5911 275.826 31.0751H277.464C277.248 31.9751 276.768 32.7071 276.024 33.2711C275.292 33.8231 274.368 34.0991 273.252 34.0991ZM273.162 25.2251C272.73 25.2251 272.346 25.3031 272.01 25.4591C271.674 25.6031 271.386 25.8071 271.146 26.0711C270.906 26.3351 270.714 26.6471 270.57 27.0071C270.426 27.3671 270.33 27.7631 270.282 28.1951H275.88C275.832 27.2591 275.574 26.5331 275.106 26.0171C274.65 25.4891 274.002 25.2251 273.162 25.2251ZM283.256 24.1631H285.038L286.55 29.5271C286.622 29.8031 286.694 30.1031 286.766 30.4271C286.85 30.7511 286.922 31.0571 286.982 31.3451C287.054 31.6811 287.12 32.0171 287.18 32.3531H287.216C287.276 32.0411 287.342 31.7231 287.414 31.3991C287.474 31.1231 287.54 30.8231 287.612 30.4991C287.696 30.1751 287.78 29.8631 287.864 29.5631L289.322 24.1631H290.906L292.346 29.5631C292.406 29.8271 292.472 30.1211 292.544 30.4451C292.628 30.7571 292.7 31.0571 292.76 31.3451C292.832 31.6811 292.898 32.0231 292.958 32.3711H292.994C293.054 32.0471 293.114 31.7231 293.174 31.3991C293.234 31.1231 293.3 30.8171 293.372 30.4811C293.444 30.1451 293.528 29.8271 293.624 29.5271L295.226 24.1631H296.954L293.804 33.8291H292.13L290.708 28.5011C290.648 28.2611 290.582 27.9911 290.51 27.6911C290.438 27.3791 290.372 27.0851 290.312 26.8091C290.24 26.4851 290.168 26.1491 290.096 25.8011H290.06C289.988 26.1491 289.916 26.4851 289.844 26.8091C289.784 27.0851 289.718 27.3791 289.646 27.6911C289.586 28.0031 289.526 28.2731 289.466 28.5011L288.008 33.8291H286.316L283.256 24.1631ZM298.255 20.4371H300.001V22.3811H298.255V20.4371ZM298.291 24.1631H299.965V33.8291H298.291V24.1631ZM303.919 25.5311H303.973C304.321 25.0391 304.741 24.6491 305.233 24.3611C305.725 24.0731 306.325 23.9291 307.033 23.9291C308.053 23.9291 308.851 24.1991 309.427 24.7391C310.003 25.2791 310.291 26.0591 310.291 27.0791V33.8291H308.635V27.2771C308.635 26.6531 308.443 26.1731 308.059 25.8371C307.687 25.5011 307.171 25.3331 306.511 25.3331C306.139 25.3331 305.791 25.3991 305.467 25.5311C305.155 25.6511 304.885 25.8251 304.657 26.0531C304.429 26.2811 304.249 26.5571 304.117 26.8811C303.997 27.2051 303.937 27.5591 303.937 27.9431V33.8291H302.263V24.1631H303.919V25.5311ZM321.036 34.1171C319.692 34.1171 318.654 33.8291 317.922 33.2531C317.19 32.6651 316.788 31.8791 316.716 30.8951H318.408C318.456 31.2431 318.558 31.5371 318.714 31.7771C318.87 32.0171 319.062 32.2091 319.29 32.3531C319.53 32.4971 319.8 32.6051 320.1 32.6771C320.4 32.7371 320.724 32.7671 321.072 32.7671C321.84 32.7671 322.392 32.6231 322.728 32.3351C323.076 32.0351 323.25 31.6691 323.25 31.2371C323.25 30.7091 323.04 30.3431 322.62 30.1391C322.212 29.9231 321.582 29.7311 320.73 29.5631C320.262 29.4671 319.806 29.3591 319.362 29.2391C318.93 29.1191 318.546 28.9571 318.21 28.7531C317.886 28.5491 317.622 28.2791 317.418 27.9431C317.226 27.6071 317.13 27.1751 317.13 26.6471C317.13 25.8191 317.436 25.1651 318.048 24.6851C318.672 24.1931 319.548 23.9471 320.676 23.9471C321.888 23.9471 322.806 24.2051 323.43 24.7211C324.054 25.2371 324.42 25.9151 324.528 26.7551H322.854C322.782 26.2511 322.566 25.8671 322.206 25.6031C321.858 25.3391 321.336 25.2071 320.64 25.2071C319.98 25.2071 319.5 25.3391 319.2 25.6031C318.912 25.8671 318.768 26.1851 318.768 26.5571C318.768 26.8091 318.822 27.0191 318.93 27.1871C319.05 27.3431 319.218 27.4751 319.434 27.5831C319.662 27.6911 319.932 27.7811 320.244 27.8531C320.568 27.9251 320.934 28.0031 321.342 28.0871C321.822 28.1831 322.278 28.2911 322.71 28.4111C323.142 28.5311 323.52 28.6991 323.844 28.9151C324.18 29.1311 324.444 29.4191 324.636 29.7791C324.828 30.1271 324.924 30.5831 324.924 31.1471C324.924 31.6391 324.828 32.0711 324.636 32.4431C324.444 32.8151 324.174 33.1271 323.826 33.3791C323.49 33.6191 323.082 33.7991 322.602 33.9191C322.122 34.0511 321.6 34.1171 321.036 34.1171ZM325.962 24.1631H327.474V21.1211H329.13V24.1631H331.128V25.4591H329.13V31.5611C329.13 31.9091 329.214 32.1491 329.382 32.2811C329.562 32.4011 329.808 32.4611 330.12 32.4611C330.264 32.4611 330.414 32.4491 330.57 32.4251C330.738 32.3891 330.87 32.3591 330.966 32.3351H331.02V33.7391C330.564 33.8471 330.114 33.9011 329.67 33.9011C329.022 33.8891 328.494 33.7391 328.086 33.4511C327.678 33.1511 327.474 32.6471 327.474 31.9391V25.4591H325.962V24.1631ZM334.523 25.9091H334.577C334.877 25.3451 335.267 24.8951 335.747 24.5591C336.227 24.2111 336.791 24.0371 337.439 24.0371C337.571 24.0371 337.679 24.0491 337.763 24.0731C337.859 24.0851 337.955 24.1091 338.051 24.1451V25.7291H337.997C337.877 25.6931 337.769 25.6691 337.673 25.6571C337.577 25.6451 337.457 25.6391 337.313 25.6391C336.941 25.6391 336.587 25.7111 336.251 25.8551C335.915 25.9871 335.621 26.1791 335.369 26.4311C335.117 26.6831 334.913 26.9891 334.757 27.3491C334.613 27.7091 334.541 28.1171 334.541 28.5731V33.8291H332.867V24.1631H334.523V25.9091ZM343.53 34.0991C342.786 34.0991 342.12 33.9671 341.532 33.7031C340.956 33.4391 340.464 33.0791 340.056 32.6231C339.648 32.1551 339.336 31.6151 339.12 31.0031C338.916 30.3791 338.814 29.7131 338.814 29.0051C338.814 28.3091 338.922 27.6551 339.138 27.0431C339.366 26.4191 339.678 25.8791 340.074 25.4231C340.482 24.9551 340.968 24.5891 341.532 24.3251C342.108 24.0611 342.744 23.9291 343.44 23.9291C344.16 23.9291 344.796 24.0611 345.348 24.3251C345.9 24.5891 346.368 24.9551 346.752 25.4231C347.148 25.9031 347.442 26.4791 347.634 27.1511C347.838 27.8231 347.94 28.5731 347.94 29.4011H340.524C340.56 29.8691 340.65 30.3071 340.794 30.7151C340.938 31.1231 341.136 31.4771 341.388 31.7771C341.64 32.0771 341.946 32.3111 342.306 32.4791C342.666 32.6471 343.08 32.7311 343.548 32.7311C344.22 32.7311 344.772 32.5871 345.204 32.2991C345.648 31.9991 345.948 31.5911 346.104 31.0751H347.742C347.526 31.9751 347.046 32.7071 346.302 33.2711C345.57 33.8231 344.646 34.0991 343.53 34.0991ZM343.44 25.2251C343.008 25.2251 342.624 25.3031 342.288 25.4591C341.952 25.6031 341.664 25.8071 341.424 26.0711C341.184 26.3351 340.992 26.6471 340.848 27.0071C340.704 27.3671 340.608 27.7631 340.56 28.1951H346.158C346.11 27.2591 345.852 26.5331 345.384 26.0171C344.928 25.4891 344.28 25.2251 343.44 25.2251ZM352.604 34.0271C352.148 34.0271 351.716 33.9671 351.308 33.8471C350.912 33.7391 350.564 33.5711 350.264 33.3431C349.976 33.1151 349.748 32.8331 349.58 32.4971C349.412 32.1491 349.328 31.7411 349.328 31.2731C349.328 30.7091 349.424 30.2471 349.616 29.8871C349.82 29.5271 350.102 29.2391 350.462 29.0231C350.834 28.8071 351.272 28.6391 351.776 28.5191C352.292 28.3991 352.862 28.3031 353.486 28.2311C353.846 28.1951 354.17 28.1471 354.458 28.0871C354.746 28.0271 354.992 27.9491 355.196 27.8531C355.4 27.7451 355.556 27.6131 355.664 27.4571C355.772 27.3011 355.826 27.0971 355.826 26.8451C355.826 26.3171 355.646 25.9031 355.286 25.6031C354.938 25.3031 354.428 25.1531 353.756 25.1531C352.988 25.1531 352.412 25.3211 352.028 25.6571C351.656 25.9931 351.458 26.4491 351.434 27.0251H349.814C349.826 26.6171 349.916 26.2271 350.084 25.8551C350.252 25.4831 350.498 25.1531 350.822 24.8651C351.146 24.5771 351.548 24.3491 352.028 24.1811C352.52 24.0131 353.09 23.9291 353.738 23.9291C354.194 23.9291 354.62 23.9711 355.016 24.0551C355.412 24.1391 355.766 24.2711 356.078 24.4511C356.486 24.6911 356.804 25.0271 357.032 25.4591C357.26 25.8911 357.374 26.4311 357.374 27.0791V31.5971C357.374 31.9811 357.44 32.2691 357.572 32.4611C357.704 32.6531 357.98 32.7011 358.4 32.6051H358.472V33.7751C358.352 33.8111 358.22 33.8411 358.076 33.8651C357.944 33.9011 357.776 33.9191 357.572 33.9191C357.056 33.9191 356.666 33.7991 356.402 33.5591C356.138 33.3071 355.958 32.9231 355.862 32.4071H355.844C355.688 32.6231 355.508 32.8271 355.304 33.0191C355.1 33.2111 354.866 33.3851 354.602 33.5411C354.338 33.6851 354.038 33.7991 353.702 33.8831C353.378 33.9791 353.012 34.0271 352.604 34.0271ZM353.018 32.8031C353.498 32.8031 353.912 32.7251 354.26 32.5691C354.62 32.4011 354.914 32.1971 355.142 31.9571C355.382 31.7051 355.556 31.4291 355.664 31.1291C355.784 30.8291 355.844 30.5411 355.844 30.2651V28.6811C355.604 28.8371 355.286 28.9751 354.89 29.0951C354.506 29.2031 354.116 29.2931 353.72 29.3651C353.324 29.4371 352.964 29.5151 352.64 29.5991C352.316 29.6711 352.04 29.7791 351.812 29.9231C351.584 30.0551 351.404 30.2291 351.272 30.4451C351.152 30.6491 351.092 30.9191 351.092 31.2551C351.092 31.5671 351.146 31.8251 351.254 32.0291C351.362 32.2211 351.506 32.3771 351.686 32.4971C351.866 32.6171 352.07 32.7011 352.298 32.7491C352.538 32.7851 352.778 32.8031 353.018 32.8031ZM362.874 28.7351L361.506 30.0311V33.8291H359.832V20.4371H361.506V26.7911C361.506 26.9591 361.5 27.1931 361.488 27.4931C361.476 27.7811 361.458 28.0451 361.434 28.2851L365.628 24.1631H367.716L364.026 27.6371L368.148 33.8291H366.186L362.874 28.7351ZM374.369 24.1631H376.025V25.6751H376.079C376.439 25.1231 376.865 24.6971 377.357 24.3971C377.861 24.0851 378.461 23.9291 379.157 23.9291C379.769 23.9291 380.327 24.0491 380.831 24.2891C381.347 24.5171 381.785 24.8531 382.145 25.2971C382.517 25.7291 382.805 26.2631 383.009 26.8991C383.213 27.5231 383.315 28.2311 383.315 29.0231C383.315 29.8031 383.219 30.5051 383.027 31.1291C382.835 31.7531 382.553 32.2871 382.181 32.7311C381.821 33.1751 381.377 33.5171 380.849 33.7571C380.333 33.9971 379.751 34.1171 379.103 34.1171C378.443 34.1171 377.855 33.9851 377.339 33.7211C376.823 33.4571 376.397 33.0671 376.061 32.5511H376.007C376.019 32.7191 376.025 32.9411 376.025 33.2171C376.037 33.4811 376.043 33.7991 376.043 34.1711V37.1051H374.369V24.1631ZM378.923 32.7311C379.367 32.7311 379.757 32.6411 380.093 32.4611C380.429 32.2691 380.705 32.0111 380.921 31.6871C381.149 31.3631 381.317 30.9791 381.425 30.5351C381.545 30.0791 381.605 29.5871 381.605 29.0591C381.605 28.5311 381.551 28.0391 381.443 27.5831C381.335 27.1271 381.167 26.7371 380.939 26.4131C380.723 26.0771 380.447 25.8191 380.111 25.6391C379.775 25.4471 379.385 25.3511 378.941 25.3511C378.425 25.3511 377.981 25.4471 377.609 25.6391C377.237 25.8311 376.925 26.0951 376.673 26.4311C376.433 26.7671 376.253 27.1631 376.133 27.6191C376.013 28.0631 375.953 28.5431 375.953 29.0591C375.953 29.5631 376.007 30.0431 376.115 30.4991C376.223 30.9431 376.397 31.3331 376.637 31.6691C376.877 31.9931 377.183 32.2511 377.555 32.4431C377.927 32.6351 378.383 32.7311 378.923 32.7311ZM386.747 25.9091H386.801C387.101 25.3451 387.491 24.8951 387.971 24.5591C388.451 24.2111 389.015 24.0371 389.663 24.0371C389.795 24.0371 389.903 24.0491 389.987 24.0731C390.083 24.0851 390.179 24.1091 390.275 24.1451V25.7291H390.221C390.101 25.6931 389.993 25.6691 389.897 25.6571C389.801 25.6451 389.681 25.6391 389.537 25.6391C389.165 25.6391 388.811 25.7111 388.475 25.8551C388.139 25.9871 387.845 26.1791 387.593 26.4311C387.341 26.6831 387.137 26.9891 386.981 27.3491C386.837 27.7091 386.765 28.1171 386.765 28.5731V33.8291H385.091V24.1631H386.747V25.9091ZM391.876 20.4371H393.622V22.3811H391.876V20.4371ZM391.912 24.1631H393.586V33.8291H391.912V24.1631ZM395.524 32.5331L399.844 26.8991C399.94 26.7671 400.054 26.6291 400.186 26.4851C400.318 26.3291 400.444 26.1851 400.564 26.0531C400.696 25.8971 400.84 25.7411 400.996 25.5851V25.5311C400.768 25.5431 400.546 25.5551 400.33 25.5671C400.138 25.5791 399.94 25.5851 399.736 25.5851C399.532 25.5851 399.346 25.5851 399.178 25.5851H395.848V24.1631H403.102V25.2071L398.71 30.9491C398.602 31.0811 398.476 31.2311 398.332 31.3991C398.2 31.5551 398.068 31.7051 397.936 31.8491C397.792 32.0171 397.642 32.1851 397.486 32.3531V32.4071C397.726 32.4071 397.96 32.4011 398.188 32.3891C398.392 32.3771 398.602 32.3711 398.818 32.3711C399.034 32.3591 399.232 32.3531 399.412 32.3531H403.318V33.8291H395.524V32.5331ZM408.938 34.0991C408.194 34.0991 407.528 33.9671 406.94 33.7031C406.364 33.4391 405.872 33.0791 405.464 32.6231C405.056 32.1551 404.744 31.6151 404.528 31.0031C404.324 30.3791 404.222 29.7131 404.222 29.0051C404.222 28.3091 404.33 27.6551 404.546 27.0431C404.774 26.4191 405.086 25.8791 405.482 25.4231C405.89 24.9551 406.376 24.5891 406.94 24.3251C407.516 24.0611 408.152 23.9291 408.848 23.9291C409.568 23.9291 410.204 24.0611 410.756 24.3251C411.308 24.5891 411.776 24.9551 412.16 25.4231C412.556 25.9031 412.85 26.4791 413.042 27.1511C413.246 27.8231 413.348 28.5731 413.348 29.4011H405.932C405.968 29.8691 406.058 30.3071 406.202 30.7151C406.346 31.1231 406.544 31.4771 406.796 31.7771C407.048 32.0771 407.354 32.3111 407.714 32.4791C408.074 32.6471 408.488 32.7311 408.956 32.7311C409.628 32.7311 410.18 32.5871 410.612 32.2991C411.056 31.9991 411.356 31.5911 411.512 31.0751H413.15C412.934 31.9751 412.454 32.7071 411.71 33.2711C410.978 33.8231 410.054 34.0991 408.938 34.0991ZM408.848 25.2251C408.416 25.2251 408.032 25.3031 407.696 25.4591C407.36 25.6031 407.072 25.8071 406.832 26.0711C406.592 26.3351 406.4 26.6471 406.256 27.0071C406.112 27.3671 406.016 27.7631 405.968 28.1951H411.566C411.518 27.2591 411.26 26.5331 410.792 26.0171C410.336 25.4891 409.688 25.2251 408.848 25.2251Z" fill="white"/>
<path fill-rule="evenodd" clip-rule="evenodd" d="M565.707 16.122C565.52 15.9345 565.265 15.8291 565 15.8291H559C559 16.6248 558.684 17.3878 558.121 17.9504C557.559 18.513 556.796 18.8291 556 18.8291C555.204 18.8291 554.441 18.513 553.879 17.9504C553.316 17.3878 553 16.6248 553 15.8291H547C546.735 15.8291 546.48 15.9345 546.293 16.122C546.105 16.3095 546 16.5639 546 16.8291V23.8291C546 24.0943 546.105 24.3487 546.293 24.5362C546.48 24.7237 546.735 24.8291 547 24.8291L548.999 24.8281L549 32.8291C549 33.0943 549.105 33.3487 549.293 33.5362C549.48 33.7237 549.735 33.8291 550 33.8291H562C562.265 33.8291 562.52 33.7237 562.707 33.5362C562.895 33.3487 563 33.0943 563 32.8291L562.999 24.8291H565C565.265 24.8291 565.52 24.7237 565.707 24.5362C565.895 24.3487 566 24.0943 566 23.8291V16.8291C566 16.5639 565.895 16.3095 565.707 16.122ZM557.252 25.5024C557.759 25.5968 558.242 26.1038 558.325 26.7524C558.384 27.2594 558.372 28.3325 558.336 28.9103C558.266 30.0541 557.452 30.7144 555.978 30.7144C554.363 30.7144 553.797 30.1013 553.655 28.9103C553.608 28.5329 553.608 27.3066 553.702 26.6816C553.808 25.9505 554.327 25.5968 554.681 25.4906C554.292 25.3963 553.914 24.9954 553.855 24.2997C553.832 24.052 553.808 22.979 553.844 22.6606C553.938 21.8587 554.445 21.1158 555.978 21.1158C557.487 21.1158 558.077 21.8941 558.148 22.6606C558.195 23.1794 558.171 23.8751 558.136 24.2525C558.077 24.8539 557.735 25.3609 557.252 25.5024ZM555.483 24.4765C555.553 24.8185 555.719 24.8892 555.978 24.8892C556.249 24.8892 556.473 24.7949 556.497 24.4883C556.532 24.0992 556.532 23.1205 556.497 22.9672C556.438 22.6488 556.237 22.5309 555.978 22.5309C555.742 22.5309 555.518 22.6606 555.471 22.9672C555.447 23.1087 555.447 24.2997 555.483 24.4765ZM555.365 28.7806C555.412 29.1107 555.648 29.3112 555.978 29.3112C556.32 29.3112 556.556 29.1225 556.603 28.7924C556.65 28.3796 556.65 27.1179 556.603 26.7877C556.544 26.4222 556.308 26.2807 555.978 26.2807C555.671 26.2807 555.412 26.4222 555.365 26.7995C555.318 27.1179 555.318 28.4622 555.365 28.7806Z" fill="white"/>
<path d="M600 51.8291H185V53.8291H600V51.8291Z" fill="white" mask="url(#path-6-inside-2_4719_145478)"/>
<path d="M237.688 91.5251H231.16V110.245L225.16 91.5251H218.488V129.829H225.016V110.725L231.064 129.829H237.688V91.5251ZM258.084 91.5251H241.14V129.829H248.148V113.845H257.316V107.413H248.148V98.1011H258.084V91.5251ZM277.506 123.349H267.378V91.5251H260.37V129.829H277.506V123.349ZM299.005 91.5251H292.045V120.901C292.045 122.437 291.373 123.781 289.405 123.877C288.301 123.925 287.293 123.877 286.429 123.781V129.781C287.677 129.973 288.301 130.069 290.269 130.069C296.173 130.069 299.005 127.813 299.005 121.909V91.5251ZM312.726 121.237C312.726 121.909 312.63 122.725 312.438 123.541C312.198 124.597 311.19 125.029 310.23 125.029C309.27 125.029 308.166 124.453 308.022 123.157C307.878 121.957 307.83 120.037 307.83 118.837H318.726C318.966 114.325 318.63 109.717 317.718 107.461C316.614 104.773 314.07 103.093 310.374 103.093C305.814 103.093 303.798 105.157 302.838 107.509C302.118 109.237 301.59 112.789 301.59 116.773C301.59 120.853 301.926 123.877 303.03 126.421C304.182 129.109 306.918 130.165 310.47 130.165C314.022 130.165 316.182 128.725 317.334 126.661C318.342 124.885 318.582 122.005 318.582 121.237H312.726ZM307.734 114.133C307.734 112.309 307.782 110.581 308.118 109.765C308.454 108.853 309.222 108.373 310.278 108.373C311.382 108.373 312.102 108.901 312.342 109.813C312.534 110.437 312.678 111.733 312.678 114.133H307.734ZM332.105 103.093C329.897 103.093 327.689 104.533 327.401 106.549V103.429H321.065V129.829H327.497V114.181C327.497 109.861 328.841 108.901 331.049 108.901C332.345 108.901 333.641 109.141 334.409 109.381V103.333C333.881 103.141 333.113 103.093 332.105 103.093ZM347.07 114.901C345.87 114.277 344.67 113.749 343.47 113.173C341.934 112.453 341.406 111.637 341.406 110.341C341.406 109.237 341.886 108.325 343.374 108.325C344.718 108.325 345.15 109.093 345.246 109.909C345.294 110.101 345.342 111.589 345.342 111.877H351.15C351.15 111.349 351.006 108.565 350.862 107.797C350.238 104.869 347.79 103.045 343.134 103.045C338.046 103.045 335.454 106.021 335.454 110.197C335.454 114.133 336.606 116.581 340.062 118.213C341.022 118.645 342.318 119.269 343.134 119.605C344.958 120.325 345.582 121.237 345.582 122.869C345.582 124.357 344.67 125.077 343.47 125.077C342.318 125.077 341.406 124.597 341.31 123.493C341.262 122.677 341.214 121.861 341.214 121.525H335.262C335.262 122.341 335.31 124.021 335.406 124.885C335.838 128.437 338.238 130.213 343.614 130.213C348.366 130.213 351.678 127.669 351.678 122.677C351.678 118.645 350.43 116.581 347.07 114.901ZM364.65 121.237C364.65 121.909 364.554 122.725 364.362 123.541C364.122 124.597 363.114 125.029 362.154 125.029C361.194 125.029 360.09 124.453 359.946 123.157C359.802 121.957 359.754 120.037 359.754 118.837H370.65C370.89 114.325 370.554 109.717 369.642 107.461C368.538 104.773 365.994 103.093 362.298 103.093C357.738 103.093 355.722 105.157 354.762 107.509C354.042 109.237 353.514 112.789 353.514 116.773C353.514 120.853 353.85 123.877 354.954 126.421C356.106 129.109 358.842 130.165 362.394 130.165C365.946 130.165 368.106 128.725 369.258 126.661C370.266 124.885 370.506 122.005 370.506 121.237H364.65ZM359.658 114.133C359.658 112.309 359.706 110.581 360.042 109.765C360.378 108.853 361.146 108.373 362.202 108.373C363.306 108.373 364.026 108.901 364.266 109.813C364.458 110.437 364.602 111.733 364.602 114.133H359.658ZM384.047 103.429C383.999 104.245 380.927 119.845 380.831 120.421C380.783 119.893 377.711 104.101 377.615 103.429H371.087L377.375 129.109L375.215 137.653H381.791L390.431 103.429H384.047ZM415.564 108.181H410.332V102.277H404.668V108.181H399.34V113.797H404.668V119.749H410.284V113.797H415.564V108.181ZM425.098 100.453C425.098 105.973 426.394 108.037 431.194 112.261C436.714 116.149 437.146 117.397 437.146 121.045C437.146 123.157 436.33 124.213 434.554 124.213C432.778 124.213 431.77 123.349 431.626 121.909C431.53 120.901 431.53 119.461 431.53 118.885H425.002C425.002 119.701 425.002 122.149 425.05 122.725C425.29 126.805 427.93 129.205 432.73 129.637V132.181H436.33V129.589C441.226 128.965 443.866 125.749 443.866 120.565C443.866 114.517 442.426 112.261 437.53 108.421C432.778 104.725 431.674 103.237 431.674 100.501C431.674 98.6291 432.538 97.5251 434.41 97.5251C436.282 97.5251 436.906 98.6771 437.05 100.069C437.146 100.885 437.194 102.181 437.194 103.189H443.674C443.674 102.277 443.674 100.549 443.53 99.4451C443.098 95.5091 441.226 92.4371 436.33 91.8131V90.7571H432.73V91.7651C427.594 92.3411 425.098 95.7971 425.098 100.453ZM457.403 91.4771H452.219C451.691 92.6291 450.347 94.8371 445.403 95.1731V100.693L450.683 100.453V129.829H457.403V91.4771ZM460.855 98.5331C460.423 101.461 460.375 106.357 460.375 110.629C460.375 113.749 460.615 119.749 460.999 122.341C461.767 127.429 464.263 130.213 469.831 130.213C475.207 130.213 477.943 127.381 478.615 122.341C479.047 119.365 479.239 113.557 479.239 110.629C479.239 106.693 479.047 101.749 478.759 98.4851C478.423 94.5971 475.543 91.1411 469.831 91.1411C463.639 91.1411 461.479 94.5491 460.855 98.5331ZM472.183 121.621C472.087 123.397 471.367 124.405 469.831 124.405C468.295 124.405 467.575 123.445 467.431 121.621C467.335 119.941 467.191 114.373 467.191 110.677C467.191 108.133 467.335 103.717 467.335 100.165C467.335 98.3411 468.151 97.2371 469.783 97.2371C471.367 97.2371 472.135 98.2451 472.231 100.117C472.279 101.797 472.327 106.741 472.327 110.533C472.327 113.605 472.279 120.085 472.183 121.621ZM481.82 98.5331C481.388 101.461 481.34 106.357 481.34 110.629C481.34 113.749 481.58 119.749 481.964 122.341C482.732 127.429 485.228 130.213 490.796 130.213C496.172 130.213 498.908 127.381 499.58 122.341C500.012 119.365 500.204 113.557 500.204 110.629C500.204 106.693 500.012 101.749 499.724 98.4851C499.388 94.5971 496.508 91.1411 490.796 91.1411C484.604 91.1411 482.444 94.5491 481.82 98.5331ZM493.148 121.621C493.052 123.397 492.332 124.405 490.796 124.405C489.26 124.405 488.54 123.445 488.396 121.621C488.3 119.941 488.156 114.373 488.156 110.677C488.156 108.133 488.3 103.717 488.3 100.165C488.3 98.3411 489.116 97.2371 490.748 97.2371C492.332 97.2371 493.1 98.2451 493.196 100.117C493.244 101.797 493.292 106.741 493.292 110.533C493.292 113.605 493.244 120.085 493.148 121.621ZM231.688 165.813C230.968 165.141 229.144 163.509 228.184 162.645C226.024 160.677 224.392 158.805 224.392 156.165C224.392 154.149 225.304 153.285 227.176 153.285C229 153.285 229.672 154.245 229.864 155.781C230.008 157.029 230.056 157.941 230.056 158.901H236.776C236.776 157.797 236.584 155.781 236.488 154.965C235.912 150.597 233.32 147.141 227.224 147.141C221.176 147.141 217.528 150.741 217.528 156.309C217.528 161.493 219.352 163.941 222.808 166.965C223.816 167.829 225.784 169.605 226.264 170.037C229.096 172.581 230.056 174.261 230.056 177.477C230.056 179.397 229.048 180.453 227.176 180.453C225.448 180.453 224.584 179.589 224.392 178.341C224.344 178.053 224.296 176.709 224.296 174.933H217.624C217.624 177.237 217.576 177.717 217.72 179.493C218.056 183.765 221.32 186.261 227.368 186.261C233.128 186.261 236.968 182.805 236.968 176.853C236.968 171.717 235.144 169.077 231.688 165.813ZM256.151 165.525C256.151 160.917 253.895 159.093 250.631 159.093C247.991 159.093 246.503 160.101 245.783 161.877V147.477H239.447V185.829H245.783V167.445C245.783 165.621 246.695 164.709 247.943 164.709C249.335 164.709 249.767 165.477 249.767 166.677C249.767 185.109 249.767 185.829 249.815 185.829H256.247C256.199 185.829 256.151 185.109 256.151 165.525ZM275.277 164.469C274.413 161.445 272.109 159.093 267.357 159.093C262.605 159.093 260.253 161.685 259.485 164.325C258.813 166.581 258.477 169.749 258.477 172.581C258.477 175.509 258.861 179.061 259.293 180.645C260.205 183.957 262.941 186.165 267.261 186.165C271.821 186.165 274.269 184.005 275.229 180.645C275.805 178.725 276.093 175.461 276.093 172.581C276.093 169.749 275.853 166.437 275.277 164.469ZM269.565 179.061C269.421 180.069 268.509 180.933 267.309 180.933C266.157 180.933 265.293 180.309 265.101 179.109C264.861 177.861 264.813 174.741 264.813 172.677C264.813 170.709 264.861 167.493 265.101 166.389C265.389 165.189 266.061 164.517 267.309 164.517C268.605 164.517 269.277 165.045 269.565 166.293C269.757 167.301 269.853 170.661 269.853 172.677C269.853 174.693 269.901 176.757 269.565 179.061ZM295.121 162.789C294.209 160.197 292.481 159.093 289.745 159.093C287.297 159.093 285.521 160.005 284.801 161.445L284.753 159.429H278.657V193.653H284.945V184.341C285.809 185.205 287.249 185.877 289.505 185.877C292.481 185.877 294.401 184.437 295.361 181.461C295.937 179.637 296.273 175.989 296.273 172.197C296.273 168.213 295.889 164.853 295.121 162.789ZM289.409 178.869C289.217 179.829 288.545 180.741 287.297 180.741C286.193 180.741 285.473 180.165 285.281 178.917C284.993 177.141 284.897 175.413 284.897 172.389C284.897 169.653 285.089 167.685 285.425 166.293C285.665 165.333 286.193 164.565 287.345 164.565C288.497 164.565 289.073 165.141 289.313 166.005C289.697 167.445 289.793 169.605 289.793 172.389C289.793 175.509 289.697 177.237 289.409 178.869ZM319.466 175.365C319.466 172.965 319.178 170.181 318.314 168.645C317.45 167.061 316.25 166.293 314.378 166.053C315.962 165.765 317.018 165.093 317.738 163.605C318.65 161.685 318.794 159.237 318.794 156.693C318.794 154.293 318.506 151.989 317.594 150.405C316.442 148.389 314.282 147.525 311.066 147.525H298.97V185.829H310.346C313.898 185.829 316.154 185.349 317.786 183.141C319.082 181.365 319.466 178.293 319.466 175.365ZM311.018 162.645C310.586 163.557 310.058 163.941 309.53 163.941H305.834V153.237H309.05C310.058 153.237 310.634 153.813 310.97 154.629C311.258 155.349 311.546 156.885 311.546 158.421C311.546 160.293 311.306 162.021 311.018 162.645ZM309.242 180.117H305.834V169.317H309.386C310.298 169.317 311.018 169.893 311.45 170.661C311.786 171.285 311.978 173.349 311.978 174.597C311.978 175.797 311.834 178.053 311.498 178.773C311.066 179.733 310.154 180.117 309.242 180.117ZM332.695 177.237C332.695 177.909 332.599 178.725 332.407 179.541C332.167 180.597 331.159 181.029 330.199 181.029C329.239 181.029 328.135 180.453 327.991 179.157C327.847 177.957 327.799 176.037 327.799 174.837H338.695C338.935 170.325 338.599 165.717 337.687 163.461C336.583 160.773 334.039 159.093 330.343 159.093C325.783 159.093 323.767 161.157 322.807 163.509C322.087 165.237 321.559 168.789 321.559 172.773C321.559 176.853 321.895 179.877 322.999 182.421C324.151 185.109 326.887 186.165 330.439 186.165C333.991 186.165 336.151 184.725 337.303 182.661C338.311 180.885 338.551 178.005 338.551 177.237H332.695ZM327.703 170.133C327.703 168.309 327.751 166.581 328.087 165.765C328.423 164.853 329.191 164.373 330.247 164.373C331.351 164.373 332.071 164.901 332.311 165.813C332.503 166.437 332.647 167.733 332.647 170.133H327.703ZM351.69 177.237C351.69 177.909 351.594 178.725 351.402 179.541C351.162 180.597 350.154 181.029 349.194 181.029C348.234 181.029 347.13 180.453 346.986 179.157C346.842 177.957 346.794 176.037 346.794 174.837H357.69C357.93 170.325 357.594 165.717 356.682 163.461C355.578 160.773 353.034 159.093 349.338 159.093C344.778 159.093 342.762 161.157 341.802 163.509C341.082 165.237 340.554 168.789 340.554 172.773C340.554 176.853 340.89 179.877 341.994 182.421C343.146 185.109 345.882 186.165 349.434 186.165C352.986 186.165 355.146 184.725 356.298 182.661C357.306 180.885 357.546 178.005 357.546 177.237H351.69ZM346.698 170.133C346.698 168.309 346.746 166.581 347.082 165.765C347.418 164.853 348.186 164.373 349.242 164.373C350.346 164.373 351.066 164.901 351.306 165.813C351.498 166.437 351.642 167.733 351.642 170.133H346.698ZM371.07 159.093C368.862 159.093 366.654 160.533 366.366 162.549V159.429H360.03V185.829H366.462V170.181C366.462 165.861 367.806 164.901 370.014 164.901C371.31 164.901 372.606 165.141 373.374 165.381V159.333C372.846 159.141 372.078 159.093 371.07 159.093ZM394.914 176.901V164.181H384.402V170.229H388.29C388.29 170.229 388.338 176.469 388.29 177.285C388.194 179.253 387.042 180.261 385.266 180.261C383.682 180.261 382.866 179.445 382.53 177.717C381.954 174.693 381.954 169.701 381.954 166.773C381.954 163.653 382.002 159.045 382.482 155.733C382.722 154.101 383.778 153.381 385.122 153.381C386.61 153.381 387.522 154.197 387.666 155.733C387.858 157.701 387.858 160.341 387.858 160.629H394.722C394.722 157.221 394.578 155.301 394.29 153.573C393.714 150.117 391.17 147.189 384.978 147.189C378.93 147.189 376.386 150.597 375.57 153.669C374.706 156.981 374.61 162.789 374.61 166.773C374.61 170.901 374.754 176.277 375.57 179.733C376.578 183.957 379.602 186.165 383.634 186.165C386.562 186.165 388.53 185.349 389.49 184.101L389.826 185.829H395.01C395.01 185.781 394.914 181.317 394.914 176.901ZM408.162 177.237C408.162 177.909 408.066 178.725 407.874 179.541C407.634 180.597 406.626 181.029 405.666 181.029C404.706 181.029 403.602 180.453 403.458 179.157C403.314 177.957 403.266 176.037 403.266 174.837H414.162C414.402 170.325 414.066 165.717 413.154 163.461C412.05 160.773 409.506 159.093 405.81 159.093C401.25 159.093 399.234 161.157 398.274 163.509C397.554 165.237 397.026 168.789 397.026 172.773C397.026 176.853 397.362 179.877 398.466 182.421C399.618 185.109 402.354 186.165 405.906 186.165C409.458 186.165 411.618 184.725 412.77 182.661C413.778 180.885 414.018 178.005 414.018 177.237H408.162ZM403.17 170.133C403.17 168.309 403.218 166.581 403.554 165.765C403.89 164.853 404.658 164.373 405.714 164.373C406.818 164.373 407.538 164.901 407.778 165.813C407.97 166.437 408.114 167.733 408.114 170.133H403.17ZM432.965 181.125C432.965 179.157 433.013 175.941 433.013 173.877C433.061 171.429 433.109 167.445 433.013 165.141C432.869 161.445 430.565 159.093 425.045 159.093C419.189 159.093 416.789 161.733 416.789 166.677V168.645H422.741V167.157C422.741 165.333 423.317 164.421 424.949 164.421C426.149 164.421 426.773 165.093 426.821 166.245C426.869 167.061 426.869 168.693 426.869 169.413C425.813 169.413 424.709 169.557 423.509 169.749C419.093 170.565 416.117 172.965 415.877 176.805C415.781 178.197 415.829 180.453 415.877 181.029C416.069 184.869 418.997 186.021 421.637 186.021C423.989 186.021 425.765 185.397 426.965 183.909C426.965 184.581 427.109 185.829 427.205 185.829H433.301C433.061 185.493 432.965 183.045 432.965 181.125ZM426.869 175.749C426.773 177.093 426.869 177.765 426.629 179.157C426.389 180.501 425.237 181.029 424.229 181.029C423.269 181.029 422.501 180.693 422.357 179.781C422.261 179.013 422.261 178.101 422.261 177.381C422.261 176.277 422.309 175.509 423.125 174.789C423.845 174.165 424.661 174.021 425.333 173.877C425.909 173.781 426.389 173.781 426.869 173.781C426.869 174.165 426.917 175.221 426.869 175.749ZM446.912 159.093C444.704 159.093 442.496 160.533 442.208 162.549V159.429H435.872V185.829H442.304V170.181C442.304 165.861 443.648 164.901 445.856 164.901C447.152 164.901 448.448 165.141 449.216 165.381V159.333C448.688 159.141 447.92 159.093 446.912 159.093ZM478.549 176.901V164.181H468.037V170.229H471.925C471.925 170.229 471.973 176.469 471.925 177.285C471.829 179.253 470.677 180.261 468.901 180.261C467.317 180.261 466.501 179.445 466.165 177.717C465.589 174.693 465.589 169.701 465.589 166.773C465.589 163.653 465.637 159.045 466.117 155.733C466.357 154.101 467.413 153.381 468.757 153.381C470.245 153.381 471.157 154.197 471.301 155.733C471.493 157.701 471.493 160.341 471.493 160.629H478.357C478.357 157.221 478.213 155.301 477.925 153.573C477.349 150.117 474.805 147.189 468.613 147.189C462.565 147.189 460.021 150.597 459.205 153.669C458.341 156.981 458.245 162.789 458.245 166.773C458.245 170.901 458.389 176.277 459.205 179.733C460.213 183.957 463.237 186.165 467.269 186.165C470.197 186.165 472.165 185.349 473.125 184.101L473.461 185.829H478.645C478.645 185.781 478.549 181.317 478.549 176.901ZM487.907 151.557H481.139V158.037H487.907V151.557ZM487.811 183.909V159.429H481.235V184.005C481.235 185.061 481.235 185.829 481.475 185.829H487.955C487.907 185.781 487.811 184.917 487.811 183.909ZM502.086 159.429H498.63V154.533C498.63 153.573 499.206 152.517 500.502 152.517C501.03 152.517 501.798 152.565 502.422 152.661V147.429C501.702 147.333 500.31 147.285 498.63 147.285C493.878 147.285 492.198 150.117 492.198 153.717V159.429H489.846V165.045H492.198V185.829H498.63V165.045H502.086V159.429ZM515.366 159.429H511.67V154.341L505.43 154.485C505.43 154.485 505.238 159.285 505.19 159.429H502.838V165.045H505.094V180.069C505.094 184.197 507.398 186.021 511.334 186.021C513.014 186.021 514.07 185.925 515.078 185.685V180.549C514.598 180.645 513.974 180.693 513.446 180.693C512.438 180.693 511.622 180.405 511.622 178.917V165.045H515.366V159.429ZM231.544 228.005C231.544 228.869 231.496 231.317 231.256 233.285C231.016 235.205 229.864 235.829 228.52 235.829C227.224 235.829 226.072 235.157 225.736 233.429C225.304 231.029 225.208 226.613 225.208 222.437C225.208 217.061 225.304 213.701 225.736 211.925C226.072 210.581 226.936 209.813 228.52 209.813C229.912 209.813 230.824 210.629 231.016 211.829C231.352 213.749 231.496 215.813 231.496 217.589H238.312C238.312 215.237 238.168 213.029 237.928 211.205C237.256 206.117 234.568 203.237 228.664 203.237C223 203.237 219.928 205.589 218.968 210.149C218.104 214.229 217.864 217.349 217.864 222.485C217.864 227.525 218.248 233.285 219.208 236.357C220.264 239.909 222.904 242.261 228.28 242.261C234.184 242.261 237.064 239.669 237.928 235.013C238.36 232.565 238.36 229.301 238.36 228.005H231.544ZM257.317 237.125C257.317 235.157 257.365 231.941 257.365 229.877C257.413 227.429 257.461 223.445 257.365 221.141C257.221 217.445 254.917 215.093 249.397 215.093C243.541 215.093 241.141 217.733 241.141 222.677V224.645H247.093V223.157C247.093 221.333 247.669 220.421 249.301 220.421C250.501 220.421 251.125 221.093 251.173 222.245C251.221 223.061 251.221 224.693 251.221 225.413C250.165 225.413 249.061 225.557 247.861 225.749C243.445 226.565 240.469 228.965 240.229 232.805C240.133 234.197 240.181 236.453 240.229 237.029C240.421 240.869 243.349 242.021 245.989 242.021C248.341 242.021 250.117 241.397 251.317 239.909C251.317 240.581 251.461 241.829 251.557 241.829H257.653C257.413 241.493 257.317 239.045 257.317 237.125ZM251.221 231.749C251.125 233.093 251.221 233.765 250.981 235.157C250.741 236.501 249.589 237.029 248.581 237.029C247.621 237.029 246.853 236.693 246.709 235.781C246.613 235.013 246.613 234.101 246.613 233.381C246.613 232.277 246.661 231.509 247.477 230.789C248.197 230.165 249.013 230.021 249.685 229.877C250.261 229.781 250.741 229.781 251.221 229.781C251.221 230.165 251.269 231.221 251.221 231.749ZM271.264 215.093C269.056 215.093 266.848 216.533 266.56 218.549V215.429H260.224V241.829H266.656V226.181C266.656 221.861 268 220.901 270.208 220.901C271.504 220.901 272.8 221.141 273.568 221.381V215.333C273.04 215.141 272.272 215.093 271.264 215.093ZM275.528 219.317C274.76 222.197 274.52 224.837 274.52 228.725C274.52 232.949 275 236.453 275.864 238.565C276.824 240.965 278.6 242.021 281.24 242.021C283.592 242.021 285.176 241.253 286.04 239.909L286.808 241.829H292.184C292.184 241.829 291.992 239.621 291.992 238.133V203.477H285.704V217.349C284.984 215.957 283.256 215.189 281.24 215.189C278.408 215.189 276.2 216.725 275.528 219.317ZM285.272 222.101C285.56 223.541 285.752 224.981 285.752 228.773C285.752 231.077 285.656 233.477 285.32 235.157C285.128 236.165 284.504 236.933 283.256 236.933C281.96 236.933 281.288 236.309 281.144 235.301C280.904 233.333 280.808 230.981 280.808 228.773C280.808 226.517 280.904 224.261 281.24 222.341C281.432 221.381 282.104 220.661 283.304 220.661C284.504 220.661 285.08 221.189 285.272 222.101Z" fill="white"/>
</g>
<path d="M185 0.829102H600H185ZM600 284.829H185H600ZM184 284.829V0.829102H186V284.829H184ZM600 0.829102V284.829V0.829102Z" fill="white" mask="url(#path-4-inside-1_4719_145478)"/>
<rect x="0.5" y="1.3291" width="599" height="283" rx="11.5" stroke="white"/>
<path d="M739.432 119.349C737.64 112.437 731.88 108.085 723.048 108.085C717.416 108.085 712.04 109.749 709.224 113.333C709.224 111.029 709.48 97.9731 709.608 94.0051C709.864 87.7331 711.912 84.9171 716.136 84.9171C720.488 84.9171 721.896 87.3491 722.408 92.4691C722.536 93.4931 722.536 97.0771 722.536 98.6131H739.432C739.432 96.4371 739.56 89.2691 739.048 86.1971C737.512 76.3411 731.368 68.6611 716.392 68.6611C701.672 68.6611 694.504 77.4931 692.712 89.5251C691.816 96.0531 691.304 111.157 691.304 120.629C691.304 130.229 691.688 149.941 694.248 157.749C697.576 167.861 705.128 172.853 716.904 172.853C730.344 172.853 736.36 166.197 739.048 157.877C741.224 151.221 741.352 126.901 739.432 119.349ZM716.392 157.621C712.808 157.621 710.248 155.829 709.864 150.965C709.608 148.277 709.224 134.709 709.224 129.717C709.864 126.645 712.552 123.061 716.776 123.061C720.616 123.061 722.152 125.109 722.408 129.077C722.664 132.149 722.664 148.405 722.408 151.605C722.024 155.957 719.848 157.621 716.392 157.621Z" fill="white"/>
<path d="M704.028 201.573C704.028 201.573 701.598 212.139 701.598 212.571C701.598 212.139 699.366 201.573 699.366 201.573H696.738C696.738 201.573 694.524 212.139 694.524 212.571C694.524 212.139 692.094 201.573 692.094 201.573H689.592L693.012 215.829H695.694C695.694 215.829 698.016 205.281 698.016 204.813C698.034 205.281 700.266 215.829 700.266 215.829H702.966L706.35 201.573H704.028ZM712.842 201.573H710.412V215.829H712.842V201.573ZM727.883 201.573H725.633V211.293L720.773 201.573H718.091V215.829H720.341V205.857L725.345 215.829H727.883V201.573ZM739.346 207.891C738.95 207.747 738.104 207.423 737.6 207.261C735.854 206.685 734.99 206.127 734.99 205.011C734.99 204.057 735.638 203.481 737.456 203.481C739.004 203.481 739.724 203.913 740.03 204.795C740.138 205.119 740.192 205.389 740.192 205.695H742.604C742.604 205.155 742.514 204.723 742.388 204.291C741.884 202.527 740.444 201.411 737.51 201.411C734.144 201.411 732.56 202.887 732.56 205.083C732.56 207.189 733.946 208.449 736.088 209.151C736.682 209.349 737.528 209.673 737.888 209.799C739.796 210.465 740.372 211.041 740.372 212.247C740.372 213.327 739.598 213.975 737.78 213.975C736.232 213.975 735.332 213.579 735.062 212.733C734.954 212.391 734.9 211.905 734.9 211.653H732.506C732.506 212.067 732.542 212.733 732.668 213.219C733.1 214.893 734.54 216.009 737.834 216.009C741.164 216.009 742.802 214.425 742.802 212.049C742.802 209.835 741.578 208.665 739.346 207.891Z" fill="white"/>
<g clip-path="url(#clip1_4719_145478)">
<path d="M847.012 34.1171C846.292 34.1171 845.662 34.0091 845.122 33.7931C844.582 33.5771 844.12 33.2771 843.736 32.8931C843.064 32.2811 842.596 31.5311 842.332 30.6431C842.08 29.7431 841.954 28.6451 841.954 27.3491C841.954 26.3411 842.062 25.4291 842.278 24.6131C842.494 23.7971 842.812 23.0951 843.232 22.5071C843.652 21.9311 844.174 21.4871 844.798 21.1751C845.422 20.8631 846.148 20.7071 846.976 20.7071C847.624 20.7071 848.188 20.8031 848.668 20.9951C849.148 21.1871 849.556 21.4451 849.892 21.7691C850.228 22.0811 850.492 22.4351 850.684 22.8311C850.876 23.2151 851.002 23.6051 851.062 24.0011H849.352C849.316 23.7851 849.244 23.5691 849.136 23.3531C849.028 23.1251 848.872 22.9211 848.668 22.7411C848.476 22.5611 848.242 22.4171 847.966 22.3091C847.69 22.1891 847.372 22.1291 847.012 22.1291C846.412 22.1291 845.896 22.2491 845.464 22.4891C845.044 22.7291 844.696 23.0771 844.42 23.5331C844.156 23.9771 843.958 24.5291 843.826 25.1891C843.694 25.8371 843.616 26.5751 843.592 27.4031H843.628C844.048 26.6951 844.546 26.1851 845.122 25.8731C845.698 25.5491 846.376 25.3871 847.156 25.3871C847.744 25.3871 848.296 25.5011 848.812 25.7291C849.328 25.9571 849.778 26.2691 850.162 26.6651C850.546 27.0491 850.852 27.5051 851.08 28.0331C851.308 28.5491 851.422 29.1071 851.422 29.7071C851.422 30.3191 851.308 30.8951 851.08 31.4351C850.852 31.9631 850.54 32.4251 850.144 32.8211C849.748 33.2171 849.28 33.5351 848.74 33.7751C848.2 34.0031 847.624 34.1171 847.012 34.1171ZM846.976 32.7311C847.384 32.7311 847.756 32.6591 848.092 32.5151C848.44 32.3711 848.74 32.1731 848.992 31.9211C849.244 31.6571 849.442 31.3451 849.586 30.9851C849.73 30.6131 849.802 30.2051 849.802 29.7611C849.802 29.3171 849.73 28.9151 849.586 28.5551C849.442 28.1951 849.238 27.8831 848.974 27.6191C848.722 27.3551 848.416 27.1511 848.056 27.0071C847.708 26.8631 847.33 26.7911 846.922 26.7911C846.022 26.7911 845.296 27.0611 844.744 27.6011C844.192 28.1291 843.916 28.8431 843.916 29.7431C843.916 30.1871 843.994 30.5951 844.15 30.9671C844.306 31.3271 844.522 31.6391 844.798 31.9031C845.074 32.1671 845.398 32.3711 845.77 32.5151C846.142 32.6591 846.544 32.7311 846.976 32.7311ZM862.287 37.2131C861.015 37.2131 860.025 36.9731 859.317 36.4931C858.621 36.0251 858.225 35.3591 858.129 34.4951H859.695C859.767 34.9991 860.031 35.3591 860.487 35.5751C860.943 35.8031 861.531 35.9171 862.251 35.9171C863.115 35.9171 863.775 35.7191 864.231 35.3231C864.699 34.9391 864.933 34.3331 864.933 33.5051V33.2351C864.933 32.9591 864.933 32.7011 864.933 32.4611C864.945 32.2091 864.957 32.0051 864.969 31.8491H864.933C864.597 32.3291 864.201 32.7071 863.745 32.9831C863.301 33.2591 862.737 33.3971 862.053 33.3971C861.441 33.3971 860.871 33.2831 860.343 33.0551C859.827 32.8271 859.383 32.5031 859.011 32.0831C858.639 31.6631 858.345 31.1651 858.129 30.5891C857.925 30.0131 857.823 29.3711 857.823 28.6631C857.823 27.9191 857.931 27.2531 858.147 26.6651C858.363 26.0771 858.657 25.5851 859.029 25.1891C859.413 24.7811 859.857 24.4691 860.361 24.2531C860.865 24.0371 861.399 23.9291 861.963 23.9291C862.659 23.9291 863.241 24.0611 863.709 24.3251C864.189 24.5771 864.585 24.9491 864.897 25.4411H864.933V24.1631H866.589V33.4331C866.589 34.0811 866.487 34.6391 866.283 35.1071C866.079 35.5871 865.791 35.9831 865.419 36.2951C865.035 36.6071 864.579 36.8351 864.051 36.9791C863.523 37.1351 862.935 37.2131 862.287 37.2131ZM862.215 32.0291C862.743 32.0291 863.187 31.9451 863.547 31.7771C863.907 31.5971 864.195 31.3571 864.411 31.0571C864.639 30.7451 864.801 30.3791 864.897 29.9591C864.993 29.5391 865.041 29.0831 865.041 28.5911C865.041 27.5711 864.807 26.7731 864.339 26.1971C863.883 25.6091 863.169 25.3151 862.197 25.3151C861.309 25.3151 860.643 25.6211 860.199 26.2331C859.755 26.8451 859.533 27.6611 859.533 28.6811C859.533 29.7131 859.761 30.5291 860.217 31.1291C860.673 31.7291 861.339 32.0291 862.215 32.0291ZM871.786 34.0271C871.33 34.0271 870.898 33.9671 870.49 33.8471C870.094 33.7391 869.746 33.5711 869.446 33.3431C869.158 33.1151 868.93 32.8331 868.762 32.4971C868.594 32.1491 868.51 31.7411 868.51 31.2731C868.51 30.7091 868.606 30.2471 868.798 29.8871C869.002 29.5271 869.284 29.2391 869.644 29.0231C870.016 28.8071 870.454 28.6391 870.958 28.5191C871.474 28.3991 872.044 28.3031 872.668 28.2311C873.028 28.1951 873.352 28.1471 873.64 28.0871C873.928 28.0271 874.174 27.9491 874.378 27.8531C874.582 27.7451 874.738 27.6131 874.846 27.4571C874.954 27.3011 875.008 27.0971 875.008 26.8451C875.008 26.3171 874.828 25.9031 874.468 25.6031C874.12 25.3031 873.61 25.1531 872.938 25.1531C872.17 25.1531 871.594 25.3211 871.21 25.6571C870.838 25.9931 870.64 26.4491 870.616 27.0251H868.996C869.008 26.6171 869.098 26.2271 869.266 25.8551C869.434 25.4831 869.68 25.1531 870.004 24.8651C870.328 24.5771 870.73 24.3491 871.21 24.1811C871.702 24.0131 872.272 23.9291 872.92 23.9291C873.376 23.9291 873.802 23.9711 874.198 24.0551C874.594 24.1391 874.948 24.2711 875.26 24.4511C875.668 24.6911 875.986 25.0271 876.214 25.4591C876.442 25.8911 876.556 26.4311 876.556 27.0791V31.5971C876.556 31.9811 876.622 32.2691 876.754 32.4611C876.886 32.6531 877.162 32.7011 877.582 32.6051H877.654V33.7751C877.534 33.8111 877.402 33.8411 877.258 33.8651C877.126 33.9011 876.958 33.9191 876.754 33.9191C876.238 33.9191 875.848 33.7991 875.584 33.5591C875.32 33.3071 875.14 32.9231 875.044 32.4071H875.026C874.87 32.6231 874.69 32.8271 874.486 33.0191C874.282 33.2111 874.048 33.3851 873.784 33.5411C873.52 33.6851 873.22 33.7991 872.884 33.8831C872.56 33.9791 872.194 34.0271 871.786 34.0271ZM872.2 32.8031C872.68 32.8031 873.094 32.7251 873.442 32.5691C873.802 32.4011 874.096 32.1971 874.324 31.9571C874.564 31.7051 874.738 31.4291 874.846 31.1291C874.966 30.8291 875.026 30.5411 875.026 30.2651V28.6811C874.786 28.8371 874.468 28.9751 874.072 29.0951C873.688 29.2031 873.298 29.2931 872.902 29.3651C872.506 29.4371 872.146 29.5151 871.822 29.5991C871.498 29.6711 871.222 29.7791 870.994 29.9231C870.766 30.0551 870.586 30.2291 870.454 30.4451C870.334 30.6491 870.274 30.9191 870.274 31.2551C870.274 31.5671 870.328 31.8251 870.436 32.0291C870.544 32.2211 870.688 32.3771 870.868 32.4971C871.048 32.6171 871.252 32.7011 871.48 32.7491C871.72 32.7851 871.96 32.8031 872.2 32.8031ZM879.013 24.1631H880.669V25.6031H880.723C881.023 25.0751 881.419 24.6671 881.911 24.3791C882.403 24.0791 882.961 23.9291 883.585 23.9291C884.173 23.9291 884.683 24.0791 885.115 24.3791C885.559 24.6791 885.883 25.1291 886.087 25.7291H886.123C886.471 25.1171 886.909 24.6671 887.437 24.3791C887.965 24.0791 888.523 23.9291 889.111 23.9291C889.999 23.9291 890.719 24.1991 891.271 24.7391C891.823 25.2791 892.099 26.0591 892.099 27.0791V33.8291H890.425V27.2231C890.425 26.6231 890.257 26.1611 889.921 25.8371C889.585 25.5011 889.171 25.3331 888.679 25.3331C888.367 25.3331 888.073 25.3991 887.797 25.5311C887.521 25.6511 887.281 25.8251 887.077 26.0531C886.873 26.2811 886.705 26.5511 886.573 26.8631C886.453 27.1631 886.393 27.4991 886.393 27.8711V33.8291H884.737V27.2231C884.737 26.6231 884.587 26.1611 884.287 25.8371C883.987 25.5011 883.585 25.3331 883.081 25.3331C882.793 25.3331 882.505 25.3991 882.217 25.5311C881.929 25.6511 881.671 25.8251 881.443 26.0531C881.227 26.2811 881.047 26.5511 880.903 26.8631C880.759 27.1631 880.687 27.4991 880.687 27.8711V33.8291H879.013V24.1631ZM898.535 34.0991C897.791 34.0991 897.125 33.9671 896.537 33.7031C895.961 33.4391 895.469 33.0791 895.061 32.6231C894.653 32.1551 894.341 31.6151 894.125 31.0031C893.921 30.3791 893.819 29.7131 893.819 29.0051C893.819 28.3091 893.927 27.6551 894.143 27.0431C894.371 26.4191 894.683 25.8791 895.079 25.4231C895.487 24.9551 895.973 24.5891 896.537 24.3251C897.113 24.0611 897.749 23.9291 898.445 23.9291C899.165 23.9291 899.801 24.0611 900.353 24.3251C900.905 24.5891 901.373 24.9551 901.757 25.4231C902.153 25.9031 902.447 26.4791 902.639 27.1511C902.843 27.8231 902.945 28.5731 902.945 29.4011H895.529C895.565 29.8691 895.655 30.3071 895.799 30.7151C895.943 31.1231 896.141 31.4771 896.393 31.7771C896.645 32.0771 896.951 32.3111 897.311 32.4791C897.671 32.6471 898.085 32.7311 898.553 32.7311C899.225 32.7311 899.777 32.5871 900.209 32.2991C900.653 31.9991 900.953 31.5911 901.109 31.0751H902.747C902.531 31.9751 902.051 32.7071 901.307 33.2711C900.575 33.8231 899.651 34.0991 898.535 34.0991ZM898.445 25.2251C898.013 25.2251 897.629 25.3031 897.293 25.4591C896.957 25.6031 896.669 25.8071 896.429 26.0711C896.189 26.3351 895.997 26.6471 895.853 27.0071C895.709 27.3671 895.613 27.7631 895.565 28.1951H901.163C901.115 27.2591 900.857 26.5331 900.389 26.0171C899.933 25.4891 899.285 25.2251 898.445 25.2251ZM908.539 24.1631H910.321L911.833 29.5271C911.905 29.8031 911.977 30.1031 912.049 30.4271C912.133 30.7511 912.205 31.0571 912.265 31.3451C912.337 31.6811 912.403 32.0171 912.463 32.3531H912.499C912.559 32.0411 912.625 31.7231 912.697 31.3991C912.757 31.1231 912.823 30.8231 912.895 30.4991C912.979 30.1751 913.063 29.8631 913.147 29.5631L914.605 24.1631H916.189L917.629 29.5631C917.689 29.8271 917.755 30.1211 917.827 30.4451C917.911 30.7571 917.983 31.0571 918.043 31.3451C918.115 31.6811 918.181 32.0231 918.241 32.3711H918.277C918.337 32.0471 918.397 31.7231 918.457 31.3991C918.517 31.1231 918.583 30.8171 918.655 30.4811C918.727 30.1451 918.811 29.8271 918.907 29.5271L920.509 24.1631H922.237L919.087 33.8291H917.413L915.991 28.5011C915.931 28.2611 915.865 27.9911 915.793 27.6911C915.721 27.3791 915.655 27.0851 915.595 26.8091C915.523 26.4851 915.451 26.1491 915.379 25.8011H915.343C915.271 26.1491 915.199 26.4851 915.127 26.8091C915.067 27.0851 915.001 27.3791 914.929 27.6911C914.869 28.0031 914.809 28.2731 914.749 28.5011L913.291 33.8291H911.599L908.539 24.1631ZM923.538 20.4371H925.284V22.3811H923.538V20.4371ZM923.574 24.1631H925.248V33.8291H923.574V24.1631ZM929.203 25.5311H929.257C929.605 25.0391 930.025 24.6491 930.517 24.3611C931.009 24.0731 931.609 23.9291 932.317 23.9291C933.337 23.9291 934.135 24.1991 934.711 24.7391C935.287 25.2791 935.575 26.0591 935.575 27.0791V33.8291H933.919V27.2771C933.919 26.6531 933.727 26.1731 933.343 25.8371C932.971 25.5011 932.455 25.3331 931.795 25.3331C931.423 25.3331 931.075 25.3991 930.751 25.5311C930.439 25.6511 930.169 25.8251 929.941 26.0531C929.713 26.2811 929.533 26.5571 929.401 26.8811C929.281 27.2051 929.221 27.5591 929.221 27.9431V33.8291H927.547V24.1631H929.203V25.5311ZM946.319 34.1171C944.975 34.1171 943.937 33.8291 943.205 33.2531C942.473 32.6651 942.071 31.8791 941.999 30.8951H943.691C943.739 31.2431 943.841 31.5371 943.997 31.7771C944.153 32.0171 944.345 32.2091 944.573 32.3531C944.813 32.4971 945.083 32.6051 945.383 32.6771C945.683 32.7371 946.007 32.7671 946.355 32.7671C947.123 32.7671 947.675 32.6231 948.011 32.3351C948.359 32.0351 948.533 31.6691 948.533 31.2371C948.533 30.7091 948.323 30.3431 947.903 30.1391C947.495 29.9231 946.865 29.7311 946.013 29.5631C945.545 29.4671 945.089 29.3591 944.645 29.2391C944.213 29.1191 943.829 28.9571 943.493 28.7531C943.169 28.5491 942.905 28.2791 942.701 27.9431C942.509 27.6071 942.413 27.1751 942.413 26.6471C942.413 25.8191 942.719 25.1651 943.331 24.6851C943.955 24.1931 944.831 23.9471 945.959 23.9471C947.171 23.9471 948.089 24.2051 948.713 24.7211C949.337 25.2371 949.703 25.9151 949.811 26.7551H948.137C948.065 26.2511 947.849 25.8671 947.489 25.6031C947.141 25.3391 946.619 25.2071 945.923 25.2071C945.263 25.2071 944.783 25.3391 944.483 25.6031C944.195 25.8671 944.051 26.1851 944.051 26.5571C944.051 26.8091 944.105 27.0191 944.213 27.1871C944.333 27.3431 944.501 27.4751 944.717 27.5831C944.945 27.6911 945.215 27.7811 945.527 27.8531C945.851 27.9251 946.217 28.0031 946.625 28.0871C947.105 28.1831 947.561 28.2911 947.993 28.4111C948.425 28.5311 948.803 28.6991 949.127 28.9151C949.463 29.1311 949.727 29.4191 949.919 29.7791C950.111 30.1271 950.207 30.5831 950.207 31.1471C950.207 31.6391 950.111 32.0711 949.919 32.4431C949.727 32.8151 949.457 33.1271 949.109 33.3791C948.773 33.6191 948.365 33.7991 947.885 33.9191C947.405 34.0511 946.883 34.1171 946.319 34.1171ZM951.246 24.1631H952.758V21.1211H954.414V24.1631H956.412V25.4591H954.414V31.5611C954.414 31.9091 954.498 32.1491 954.666 32.2811C954.846 32.4011 955.092 32.4611 955.404 32.4611C955.548 32.4611 955.698 32.4491 955.854 32.4251C956.022 32.3891 956.154 32.3591 956.25 32.3351H956.304V33.7391C955.848 33.8471 955.398 33.9011 954.954 33.9011C954.306 33.8891 953.778 33.7391 953.37 33.4511C952.962 33.1511 952.758 32.6471 952.758 31.9391V25.4591H951.246V24.1631ZM959.806 25.9091H959.86C960.16 25.3451 960.55 24.8951 961.03 24.5591C961.51 24.2111 962.074 24.0371 962.722 24.0371C962.854 24.0371 962.962 24.0491 963.046 24.0731C963.142 24.0851 963.238 24.1091 963.334 24.1451V25.7291H963.28C963.16 25.6931 963.052 25.6691 962.956 25.6571C962.86 25.6451 962.74 25.6391 962.596 25.6391C962.224 25.6391 961.87 25.7111 961.534 25.8551C961.198 25.9871 960.904 26.1791 960.652 26.4311C960.4 26.6831 960.196 26.9891 960.04 27.3491C959.896 27.7091 959.824 28.1171 959.824 28.5731V33.8291H958.15V24.1631H959.806V25.9091ZM968.813 34.0991C968.069 34.0991 967.403 33.9671 966.815 33.7031C966.239 33.4391 965.747 33.0791 965.339 32.6231C964.931 32.1551 964.619 31.6151 964.403 31.0031C964.199 30.3791 964.097 29.7131 964.097 29.0051C964.097 28.3091 964.205 27.6551 964.421 27.0431C964.649 26.4191 964.961 25.8791 965.357 25.4231C965.765 24.9551 966.251 24.5891 966.815 24.3251C967.391 24.0611 968.027 23.9291 968.723 23.9291C969.443 23.9291 970.079 24.0611 970.631 24.3251C971.183 24.5891 971.651 24.9551 972.035 25.4231C972.431 25.9031 972.725 26.4791 972.917 27.1511C973.121 27.8231 973.223 28.5731 973.223 29.4011H965.807C965.843 29.8691 965.933 30.3071 966.077 30.7151C966.221 31.1231 966.419 31.4771 966.671 31.7771C966.923 32.0771 967.229 32.3111 967.589 32.4791C967.949 32.6471 968.363 32.7311 968.831 32.7311C969.503 32.7311 970.055 32.5871 970.487 32.2991C970.931 31.9991 971.231 31.5911 971.387 31.0751H973.025C972.809 31.9751 972.329 32.7071 971.585 33.2711C970.853 33.8231 969.929 34.0991 968.813 34.0991ZM968.723 25.2251C968.291 25.2251 967.907 25.3031 967.571 25.4591C967.235 25.6031 966.947 25.8071 966.707 26.0711C966.467 26.3351 966.275 26.6471 966.131 27.0071C965.987 27.3671 965.891 27.7631 965.843 28.1951H971.441C971.393 27.2591 971.135 26.5331 970.667 26.0171C970.211 25.4891 969.563 25.2251 968.723 25.2251ZM977.887 34.0271C977.431 34.0271 976.999 33.9671 976.591 33.8471C976.195 33.7391 975.847 33.5711 975.547 33.3431C975.259 33.1151 975.031 32.8331 974.863 32.4971C974.695 32.1491 974.611 31.7411 974.611 31.2731C974.611 30.7091 974.707 30.2471 974.899 29.8871C975.103 29.5271 975.385 29.2391 975.745 29.0231C976.117 28.8071 976.555 28.6391 977.059 28.5191C977.575 28.3991 978.145 28.3031 978.769 28.2311C979.129 28.1951 979.453 28.1471 979.741 28.0871C980.029 28.0271 980.275 27.9491 980.479 27.8531C980.683 27.7451 980.839 27.6131 980.947 27.4571C981.055 27.3011 981.109 27.0971 981.109 26.8451C981.109 26.3171 980.929 25.9031 980.569 25.6031C980.221 25.3031 979.711 25.1531 979.039 25.1531C978.271 25.1531 977.695 25.3211 977.311 25.6571C976.939 25.9931 976.741 26.4491 976.717 27.0251H975.097C975.109 26.6171 975.199 26.2271 975.367 25.8551C975.535 25.4831 975.781 25.1531 976.105 24.8651C976.429 24.5771 976.831 24.3491 977.311 24.1811C977.803 24.0131 978.373 23.9291 979.021 23.9291C979.477 23.9291 979.903 23.9711 980.299 24.0551C980.695 24.1391 981.049 24.2711 981.361 24.4511C981.769 24.6911 982.087 25.0271 982.315 25.4591C982.543 25.8911 982.657 26.4311 982.657 27.0791V31.5971C982.657 31.9811 982.723 32.2691 982.855 32.4611C982.987 32.6531 983.263 32.7011 983.683 32.6051H983.755V33.7751C983.635 33.8111 983.503 33.8411 983.359 33.8651C983.227 33.9011 983.059 33.9191 982.855 33.9191C982.339 33.9191 981.949 33.7991 981.685 33.5591C981.421 33.3071 981.241 32.9231 981.145 32.4071H981.127C980.971 32.6231 980.791 32.8271 980.587 33.0191C980.383 33.2111 980.149 33.3851 979.885 33.5411C979.621 33.6851 979.321 33.7991 978.985 33.8831C978.661 33.9791 978.295 34.0271 977.887 34.0271ZM978.301 32.8031C978.781 32.8031 979.195 32.7251 979.543 32.5691C979.903 32.4011 980.197 32.1971 980.425 31.9571C980.665 31.7051 980.839 31.4291 980.947 31.1291C981.067 30.8291 981.127 30.5411 981.127 30.2651V28.6811C980.887 28.8371 980.569 28.9751 980.173 29.0951C979.789 29.2031 979.399 29.2931 979.003 29.3651C978.607 29.4371 978.247 29.5151 977.923 29.5991C977.599 29.6711 977.323 29.7791 977.095 29.9231C976.867 30.0551 976.687 30.2291 976.555 30.4451C976.435 30.6491 976.375 30.9191 976.375 31.2551C976.375 31.5671 976.429 31.8251 976.537 32.0291C976.645 32.2211 976.789 32.3771 976.969 32.4971C977.149 32.6171 977.353 32.7011 977.581 32.7491C977.821 32.7851 978.061 32.8031 978.301 32.8031ZM988.157 28.7351L986.789 30.0311V33.8291H985.115V20.4371H986.789V26.7911C986.789 26.9591 986.783 27.1931 986.771 27.4931C986.759 27.7811 986.741 28.0451 986.717 28.2851L990.911 24.1631H992.999L989.309 27.6371L993.431 33.8291H991.469L988.157 28.7351ZM999.652 24.1631H1001.31V25.6751H1001.36C1001.72 25.1231 1002.15 24.6971 1002.64 24.3971C1003.14 24.0851 1003.74 23.9291 1004.44 23.9291C1005.05 23.9291 1005.61 24.0491 1006.11 24.2891C1006.63 24.5171 1007.07 24.8531 1007.43 25.2971C1007.8 25.7291 1008.09 26.2631 1008.29 26.8991C1008.5 27.5231 1008.6 28.2311 1008.6 29.0231C1008.6 29.8031 1008.5 30.5051 1008.31 31.1291C1008.12 31.7531 1007.84 32.2871 1007.46 32.7311C1007.1 33.1751 1006.66 33.5171 1006.13 33.7571C1005.62 33.9971 1005.03 34.1171 1004.39 34.1171C1003.73 34.1171 1003.14 33.9851 1002.62 33.7211C1002.11 33.4571 1001.68 33.0671 1001.34 32.5511H1001.29C1001.3 32.7191 1001.31 32.9411 1001.31 33.2171C1001.32 33.4811 1001.33 33.7991 1001.33 34.1711V37.1051H999.652V24.1631ZM1004.21 32.7311C1004.65 32.7311 1005.04 32.6411 1005.38 32.4611C1005.71 32.2691 1005.99 32.0111 1006.2 31.6871C1006.43 31.3631 1006.6 30.9791 1006.71 30.5351C1006.83 30.0791 1006.89 29.5871 1006.89 29.0591C1006.89 28.5311 1006.83 28.0391 1006.73 27.5831C1006.62 27.1271 1006.45 26.7371 1006.22 26.4131C1006.01 26.0771 1005.73 25.8191 1005.39 25.6391C1005.06 25.4471 1004.67 25.3511 1004.22 25.3511C1003.71 25.3511 1003.26 25.4471 1002.89 25.6391C1002.52 25.8311 1002.21 26.0951 1001.96 26.4311C1001.72 26.7671 1001.54 27.1631 1001.42 27.6191C1001.3 28.0631 1001.24 28.5431 1001.24 29.0591C1001.24 29.5631 1001.29 30.0431 1001.4 30.4991C1001.51 30.9431 1001.68 31.3331 1001.92 31.6691C1002.16 31.9931 1002.47 32.2511 1002.84 32.4431C1003.21 32.6351 1003.67 32.7311 1004.21 32.7311ZM1012.03 25.9091H1012.08C1012.38 25.3451 1012.77 24.8951 1013.25 24.5591C1013.73 24.2111 1014.3 24.0371 1014.95 24.0371C1015.08 24.0371 1015.19 24.0491 1015.27 24.0731C1015.37 24.0851 1015.46 24.1091 1015.56 24.1451V25.7291H1015.5C1015.38 25.6931 1015.28 25.6691 1015.18 25.6571C1015.08 25.6451 1014.96 25.6391 1014.82 25.6391C1014.45 25.6391 1014.09 25.7111 1013.76 25.8551C1013.42 25.9871 1013.13 26.1791 1012.88 26.4311C1012.62 26.6831 1012.42 26.9891 1012.26 27.3491C1012.12 27.7091 1012.05 28.1171 1012.05 28.5731V33.8291H1010.37V24.1631H1012.03V25.9091ZM1017.16 20.4371H1018.9V22.3811H1017.16V20.4371ZM1017.19 24.1631H1018.87V33.8291H1017.19V24.1631ZM1020.81 32.5331L1025.13 26.8991C1025.22 26.7671 1025.34 26.6291 1025.47 26.4851C1025.6 26.3291 1025.73 26.1851 1025.85 26.0531C1025.98 25.8971 1026.12 25.7411 1026.28 25.5851V25.5311C1026.05 25.5431 1025.83 25.5551 1025.61 25.5671C1025.42 25.5791 1025.22 25.5851 1025.02 25.5851C1024.82 25.5851 1024.63 25.5851 1024.46 25.5851H1021.13V24.1631H1028.39V25.2071L1023.99 30.9491C1023.89 31.0811 1023.76 31.2311 1023.62 31.3991C1023.48 31.5551 1023.35 31.7051 1023.22 31.8491C1023.08 32.0171 1022.93 32.1851 1022.77 32.3531V32.4071C1023.01 32.4071 1023.24 32.4011 1023.47 32.3891C1023.68 32.3771 1023.89 32.3711 1024.1 32.3711C1024.32 32.3591 1024.52 32.3531 1024.7 32.3531H1028.6V33.8291H1020.81V32.5331ZM1034.22 34.0991C1033.48 34.0991 1032.81 33.9671 1032.22 33.7031C1031.65 33.4391 1031.16 33.0791 1030.75 32.6231C1030.34 32.1551 1030.03 31.6151 1029.81 31.0031C1029.61 30.3791 1029.51 29.7131 1029.51 29.0051C1029.51 28.3091 1029.61 27.6551 1029.83 27.0431C1030.06 26.4191 1030.37 25.8791 1030.77 25.4231C1031.17 24.9551 1031.66 24.5891 1032.22 24.3251C1032.8 24.0611 1033.44 23.9291 1034.13 23.9291C1034.85 23.9291 1035.49 24.0611 1036.04 24.3251C1036.59 24.5891 1037.06 24.9551 1037.44 25.4231C1037.84 25.9031 1038.13 26.4791 1038.33 27.1511C1038.53 27.8231 1038.63 28.5731 1038.63 29.4011H1031.22C1031.25 29.8691 1031.34 30.3071 1031.49 30.7151C1031.63 31.1231 1031.83 31.4771 1032.08 31.7771C1032.33 32.0771 1032.64 32.3111 1033 32.4791C1033.36 32.6471 1033.77 32.7311 1034.24 32.7311C1034.91 32.7311 1035.46 32.5871 1035.9 32.2991C1036.34 31.9991 1036.64 31.5911 1036.8 31.0751H1038.43C1038.22 31.9751 1037.74 32.7071 1036.99 33.2711C1036.26 33.8231 1035.34 34.0991 1034.22 34.0991ZM1034.13 25.2251C1033.7 25.2251 1033.32 25.3031 1032.98 25.4591C1032.64 25.6031 1032.36 25.8071 1032.12 26.0711C1031.88 26.3351 1031.68 26.6471 1031.54 27.0071C1031.4 27.3671 1031.3 27.7631 1031.25 28.1951H1036.85C1036.8 27.2591 1036.54 26.5331 1036.08 26.0171C1035.62 25.4891 1034.97 25.2251 1034.13 25.2251Z" fill="white"/>
<path fill-rule="evenodd" clip-rule="evenodd" d="M1189.71 16.122C1189.52 15.9345 1189.27 15.8291 1189 15.8291H1183C1183 16.6248 1182.68 17.3878 1182.12 17.9504C1181.56 18.513 1180.8 18.8291 1180 18.8291C1179.2 18.8291 1178.44 18.513 1177.88 17.9504C1177.32 17.3878 1177 16.6248 1177 15.8291H1171C1170.73 15.8291 1170.48 15.9345 1170.29 16.122C1170.11 16.3095 1170 16.5639 1170 16.8291V23.8291C1170 24.0943 1170.11 24.3487 1170.29 24.5362C1170.48 24.7237 1170.73 24.8291 1171 24.8291L1173 24.8281L1173 32.8291C1173 33.0943 1173.11 33.3487 1173.29 33.5362C1173.48 33.7237 1173.73 33.8291 1174 33.8291H1186C1186.27 33.8291 1186.52 33.7237 1186.71 33.5362C1186.89 33.3487 1187 33.0943 1187 32.8291L1187 24.8291H1189C1189.27 24.8291 1189.52 24.7237 1189.71 24.5362C1189.89 24.3487 1190 24.0943 1190 23.8291V16.8291C1190 16.5639 1189.89 16.3095 1189.71 16.122ZM1181.25 25.5024C1181.76 25.5968 1182.24 26.1038 1182.32 26.7524C1182.38 27.2594 1182.37 28.3325 1182.34 28.9103C1182.27 30.0541 1181.45 30.7144 1179.98 30.7144C1178.36 30.7144 1177.8 30.1013 1177.66 28.9103C1177.61 28.5329 1177.61 27.3066 1177.7 26.6816C1177.81 25.9505 1178.33 25.5968 1178.68 25.4906C1178.29 25.3963 1177.91 24.9954 1177.86 24.2997C1177.83 24.052 1177.81 22.979 1177.84 22.6606C1177.94 21.8587 1178.45 21.1158 1179.98 21.1158C1181.49 21.1158 1182.08 21.8941 1182.15 22.6606C1182.19 23.1794 1182.17 23.8751 1182.14 24.2525C1182.08 24.8539 1181.73 25.3609 1181.25 25.5024ZM1179.48 24.4765C1179.55 24.8185 1179.72 24.8892 1179.98 24.8892C1180.25 24.8892 1180.47 24.7949 1180.5 24.4883C1180.53 24.0992 1180.53 23.1205 1180.5 22.9672C1180.44 22.6488 1180.24 22.5309 1179.98 22.5309C1179.74 22.5309 1179.52 22.6606 1179.47 22.9672C1179.45 23.1087 1179.45 24.2997 1179.48 24.4765ZM1179.36 28.7806C1179.41 29.1107 1179.65 29.3112 1179.98 29.3112C1180.32 29.3112 1180.56 29.1225 1180.6 28.7924C1180.65 28.3796 1180.65 27.1179 1180.6 26.7877C1180.54 26.4222 1180.31 26.2807 1179.98 26.2807C1179.67 26.2807 1179.41 26.4222 1179.36 26.7995C1179.32 27.1179 1179.32 28.4622 1179.36 28.7806Z" fill="white"/>
<path d="M1224 51.8291H809V53.8291H1224V51.8291Z" fill="white" mask="url(#path-17-inside-4_4719_145478)"/>
<path d="M861.688 147.525H855.16V166.245L849.16 147.525H842.488V185.829H849.016V166.725L855.064 185.829H861.688V147.525ZM882.084 147.525H865.14V185.829H872.148V169.845H881.316V163.413H872.148V154.101H882.084V147.525ZM901.506 179.349H891.378V147.525H884.37V185.829H901.506V179.349ZM923.005 147.525H916.045V176.901C916.045 178.437 915.373 179.781 913.405 179.877C912.301 179.925 911.293 179.877 910.429 179.781V185.781C911.677 185.973 912.301 186.069 914.269 186.069C920.173 186.069 923.005 183.813 923.005 177.909V147.525ZM936.726 177.237C936.726 177.909 936.63 178.725 936.438 179.541C936.198 180.597 935.19 181.029 934.23 181.029C933.27 181.029 932.166 180.453 932.022 179.157C931.878 177.957 931.83 176.037 931.83 174.837H942.726C942.966 170.325 942.63 165.717 941.718 163.461C940.614 160.773 938.07 159.093 934.374 159.093C929.814 159.093 927.798 161.157 926.838 163.509C926.118 165.237 925.59 168.789 925.59 172.773C925.59 176.853 925.926 179.877 927.03 182.421C928.182 185.109 930.918 186.165 934.47 186.165C938.022 186.165 940.182 184.725 941.334 182.661C942.342 180.885 942.582 178.005 942.582 177.237H936.726ZM931.734 170.133C931.734 168.309 931.782 166.581 932.118 165.765C932.454 164.853 933.222 164.373 934.278 164.373C935.382 164.373 936.102 164.901 936.342 165.813C936.534 166.437 936.678 167.733 936.678 170.133H931.734ZM956.105 159.093C953.897 159.093 951.689 160.533 951.401 162.549V159.429H945.065V185.829H951.497V170.181C951.497 165.861 952.841 164.901 955.049 164.901C956.345 164.901 957.641 165.141 958.409 165.381V159.333C957.881 159.141 957.113 159.093 956.105 159.093ZM971.07 170.901C969.87 170.277 968.67 169.749 967.47 169.173C965.934 168.453 965.406 167.637 965.406 166.341C965.406 165.237 965.886 164.325 967.374 164.325C968.718 164.325 969.15 165.093 969.246 165.909C969.294 166.101 969.342 167.589 969.342 167.877H975.15C975.15 167.349 975.006 164.565 974.862 163.797C974.238 160.869 971.79 159.045 967.134 159.045C962.046 159.045 959.454 162.021 959.454 166.197C959.454 170.133 960.606 172.581 964.062 174.213C965.022 174.645 966.318 175.269 967.134 175.605C968.958 176.325 969.582 177.237 969.582 178.869C969.582 180.357 968.67 181.077 967.47 181.077C966.318 181.077 965.406 180.597 965.31 179.493C965.262 178.677 965.214 177.861 965.214 177.525H959.262C959.262 178.341 959.31 180.021 959.406 180.885C959.838 184.437 962.238 186.213 967.614 186.213C972.366 186.213 975.678 183.669 975.678 178.677C975.678 174.645 974.43 172.581 971.07 170.901ZM988.65 177.237C988.65 177.909 988.554 178.725 988.362 179.541C988.122 180.597 987.114 181.029 986.154 181.029C985.194 181.029 984.09 180.453 983.946 179.157C983.802 177.957 983.754 176.037 983.754 174.837H994.65C994.89 170.325 994.554 165.717 993.642 163.461C992.538 160.773 989.994 159.093 986.298 159.093C981.738 159.093 979.722 161.157 978.762 163.509C978.042 165.237 977.514 168.789 977.514 172.773C977.514 176.853 977.85 179.877 978.954 182.421C980.106 185.109 982.842 186.165 986.394 186.165C989.946 186.165 992.106 184.725 993.258 182.661C994.266 180.885 994.506 178.005 994.506 177.237H988.65ZM983.658 170.133C983.658 168.309 983.706 166.581 984.042 165.765C984.378 164.853 985.146 164.373 986.202 164.373C987.306 164.373 988.026 164.901 988.266 165.813C988.458 166.437 988.602 167.733 988.602 170.133H983.658ZM1008.05 159.429C1008 160.245 1004.93 175.845 1004.83 176.421C1004.78 175.893 1001.71 160.101 1001.61 159.429H995.087L1001.37 185.109L999.215 193.653H1005.79L1014.43 159.429H1008.05Z" fill="white"/>
</g>
<path d="M809 0.829102H1224H809ZM1224 284.829H809H1224ZM808 284.829V0.829102H810V284.829H808ZM1224 0.829102V284.829V0.829102Z" fill="white" mask="url(#path-15-inside-3_4719_145478)"/>
<rect x="624.5" y="1.3291" width="599" height="283" rx="11.5" stroke="white"/>
<defs>
<clipPath id="clip0_4719_145478">
<path d="M185 0.829102H600V284.829H185V0.829102Z" fill="white"/>
</clipPath>
<clipPath id="clip1_4719_145478">
<path d="M809 0.829102H1224V284.829H809V0.829102Z" fill="white"/>
</clipPath>
</defs>
</svg>
