  <svg width="100%" height="auto" viewBox="0 0 1224 285" fill="none" xmlns="http://www.w3.org/2000/svg">
<path d="M117.084 119.349C117.084 109.877 116.572 90.5491 114.012 82.7411C110.812 73.1411 103.644 68.6611 92.38 68.6611C79.964 68.6611 72.156 74.6771 69.596 83.5091C67.42 91.1891 67.292 116.021 69.34 123.189C71.388 130.613 77.532 134.197 85.852 134.197C91.356 134.197 95.964 132.661 98.908 129.333C98.908 131.509 98.78 145.461 98.652 150.069C98.396 154.805 95.964 157.237 92.252 157.237C88.412 157.237 86.364 155.829 85.98 150.837C85.852 149.685 85.852 146.485 85.852 143.797H68.828C68.828 145.973 68.956 152.117 69.468 155.701C71.132 166.709 78.812 172.853 91.74 172.853C106.46 172.853 113.628 165.045 115.548 153.013C116.572 146.613 117.084 128.821 117.084 119.349ZM92.38 119.605C88.668 119.605 86.364 117.301 85.98 113.845C85.596 110.645 85.724 93.7491 85.98 90.5491C86.364 86.8371 88.796 84.6611 92.124 84.6611C95.964 84.6611 98.14 86.8371 98.524 91.0611C98.78 93.8771 99.164 112.437 98.908 114.997C98.268 116.917 96.348 119.605 92.38 119.605Z" fill="white"/>
<path d="M80.0281 201.573C80.0281 201.573 77.5981 212.139 77.5981 212.571C77.5981 212.139 75.3661 201.573 75.3661 201.573H72.7381C72.7381 201.573 70.5241 212.139 70.5241 212.571C70.5241 212.139 68.0941 201.573 68.0941 201.573H65.5921L69.0121 215.829H71.6941C71.6941 215.829 74.0161 205.281 74.0161 204.813C74.0341 205.281 76.2661 215.829 76.2661 215.829H78.9661L82.3501 201.573H80.0281ZM88.8421 201.573H86.4121V215.829H88.8421V201.573ZM103.883 201.573H101.633V211.293L96.7729 201.573H94.0909V215.829H96.3409V205.857L101.345 215.829H103.883V201.573ZM115.346 207.891C114.95 207.747 114.104 207.423 113.6 207.261C111.854 206.685 110.99 206.127 110.99 205.011C110.99 204.057 111.638 203.481 113.456 203.481C115.004 203.481 115.724 203.913 116.03 204.795C116.138 205.119 116.192 205.389 116.192 205.695H118.604C118.604 205.155 118.514 204.723 118.388 204.291C117.884 202.527 116.444 201.411 113.51 201.411C110.144 201.411 108.56 202.887 108.56 205.083C108.56 207.189 109.946 208.449 112.088 209.151C112.682 209.349 113.528 209.673 113.888 209.799C115.796 210.465 116.372 211.041 116.372 212.247C116.372 213.327 115.598 213.975 113.78 213.975C112.232 213.975 111.332 213.579 111.062 212.733C110.954 212.391 110.9 211.905 110.9 211.653H108.506C108.506 212.067 108.542 212.733 108.668 213.219C109.1 214.893 110.54 216.009 113.834 216.009C117.164 216.009 118.802 214.425 118.802 212.049C118.802 209.835 117.578 208.665 115.346 207.891Z" fill="white"/>
<g clip-path="url(#clip0_4719_145475)">
<path d="M222.49 34.1171C221.854 34.1171 221.272 34.0271 220.744 33.8471C220.216 33.6671 219.76 33.4211 219.376 33.1091C218.992 32.7851 218.68 32.4131 218.44 31.9931C218.212 31.5731 218.08 31.1291 218.044 30.6611H219.79C219.826 30.9251 219.91 31.1831 220.042 31.4351C220.174 31.6751 220.348 31.8911 220.564 32.0831C220.792 32.2631 221.062 32.4131 221.374 32.5331C221.686 32.6411 222.046 32.6951 222.454 32.6951C223.378 32.6951 224.092 32.4071 224.596 31.8311C224.968 31.4231 225.238 30.8771 225.406 30.1931C225.586 29.5091 225.694 28.6571 225.73 27.6371H225.694C225.274 28.2131 224.77 28.6631 224.182 28.9871C223.594 29.2991 222.922 29.4551 222.166 29.4551C221.566 29.4551 221.008 29.3411 220.492 29.1131C219.976 28.8851 219.52 28.5731 219.124 28.1771C218.74 27.7811 218.434 27.3191 218.206 26.7911C217.978 26.2631 217.864 25.6991 217.864 25.0991C217.864 24.4871 217.978 23.9171 218.206 23.3891C218.434 22.8491 218.746 22.3811 219.142 21.9851C219.55 21.5891 220.03 21.2771 220.582 21.0491C221.146 20.8211 221.758 20.7071 222.418 20.7071C223.066 20.7071 223.636 20.8031 224.128 20.9951C224.62 21.1751 225.058 21.4091 225.442 21.6971C226.174 22.2611 226.678 23.0111 226.954 23.9471C227.23 24.8711 227.368 26.0411 227.368 27.4571C227.368 28.7411 227.23 29.8511 226.954 30.7871C226.678 31.7111 226.228 32.4551 225.604 33.0191C224.812 33.7511 223.774 34.1171 222.49 34.1171ZM222.4 28.0511C222.868 28.0511 223.288 27.9791 223.66 27.8351C224.044 27.6911 224.368 27.4871 224.632 27.2231C224.896 26.9591 225.1 26.6471 225.244 26.2871C225.388 25.9151 225.46 25.5071 225.46 25.0631C225.46 24.6191 225.382 24.2171 225.226 23.8571C225.07 23.4971 224.854 23.1851 224.578 22.9211C224.302 22.6571 223.978 22.4531 223.606 22.3091C223.234 22.1651 222.838 22.0931 222.418 22.0931C221.986 22.0931 221.59 22.1651 221.23 22.3091C220.87 22.4531 220.558 22.6571 220.294 22.9211C220.042 23.1851 219.844 23.4971 219.7 23.8571C219.556 24.2171 219.484 24.6191 219.484 25.0631C219.484 25.4951 219.556 25.8971 219.7 26.2691C219.856 26.6291 220.066 26.9411 220.33 27.2051C220.594 27.4691 220.9 27.6791 221.248 27.8351C221.608 27.9791 221.992 28.0511 222.4 28.0511ZM238.287 37.2131C237.015 37.2131 236.025 36.9731 235.317 36.4931C234.621 36.0251 234.225 35.3591 234.129 34.4951H235.695C235.767 34.9991 236.031 35.3591 236.487 35.5751C236.943 35.8031 237.531 35.9171 238.251 35.9171C239.115 35.9171 239.775 35.7191 240.231 35.3231C240.699 34.9391 240.933 34.3331 240.933 33.5051V33.2351C240.933 32.9591 240.933 32.7011 240.933 32.4611C240.945 32.2091 240.957 32.0051 240.969 31.8491H240.933C240.597 32.3291 240.201 32.7071 239.745 32.9831C239.301 33.2591 238.737 33.3971 238.053 33.3971C237.441 33.3971 236.871 33.2831 236.343 33.0551C235.827 32.8271 235.383 32.5031 235.011 32.0831C234.639 31.6631 234.345 31.1651 234.129 30.5891C233.925 30.0131 233.823 29.3711 233.823 28.6631C233.823 27.9191 233.931 27.2531 234.147 26.6651C234.363 26.0771 234.657 25.5851 235.029 25.1891C235.413 24.7811 235.857 24.4691 236.361 24.2531C236.865 24.0371 237.399 23.9291 237.963 23.9291C238.659 23.9291 239.241 24.0611 239.709 24.3251C240.189 24.5771 240.585 24.9491 240.897 25.4411H240.933V24.1631H242.589V33.4331C242.589 34.0811 242.487 34.6391 242.283 35.1071C242.079 35.5871 241.791 35.9831 241.419 36.2951C241.035 36.6071 240.579 36.8351 240.051 36.9791C239.523 37.1351 238.935 37.2131 238.287 37.2131ZM238.215 32.0291C238.743 32.0291 239.187 31.9451 239.547 31.7771C239.907 31.5971 240.195 31.3571 240.411 31.0571C240.639 30.7451 240.801 30.3791 240.897 29.9591C240.993 29.5391 241.041 29.0831 241.041 28.5911C241.041 27.5711 240.807 26.7731 240.339 26.1971C239.883 25.6091 239.169 25.3151 238.197 25.3151C237.309 25.3151 236.643 25.6211 236.199 26.2331C235.755 26.8451 235.533 27.6611 235.533 28.6811C235.533 29.7131 235.761 30.5291 236.217 31.1291C236.673 31.7291 237.339 32.0291 238.215 32.0291ZM247.786 34.0271C247.33 34.0271 246.898 33.9671 246.49 33.8471C246.094 33.7391 245.746 33.5711 245.446 33.3431C245.158 33.1151 244.93 32.8331 244.762 32.4971C244.594 32.1491 244.51 31.7411 244.51 31.2731C244.51 30.7091 244.606 30.2471 244.798 29.8871C245.002 29.5271 245.284 29.2391 245.644 29.0231C246.016 28.8071 246.454 28.6391 246.958 28.5191C247.474 28.3991 248.044 28.3031 248.668 28.2311C249.028 28.1951 249.352 28.1471 249.64 28.0871C249.928 28.0271 250.174 27.9491 250.378 27.8531C250.582 27.7451 250.738 27.6131 250.846 27.4571C250.954 27.3011 251.008 27.0971 251.008 26.8451C251.008 26.3171 250.828 25.9031 250.468 25.6031C250.12 25.3031 249.61 25.1531 248.938 25.1531C248.17 25.1531 247.594 25.3211 247.21 25.6571C246.838 25.9931 246.64 26.4491 246.616 27.0251H244.996C245.008 26.6171 245.098 26.2271 245.266 25.8551C245.434 25.4831 245.68 25.1531 246.004 24.8651C246.328 24.5771 246.73 24.3491 247.21 24.1811C247.702 24.0131 248.272 23.9291 248.92 23.9291C249.376 23.9291 249.802 23.9711 250.198 24.0551C250.594 24.1391 250.948 24.2711 251.26 24.4511C251.668 24.6911 251.986 25.0271 252.214 25.4591C252.442 25.8911 252.556 26.4311 252.556 27.0791V31.5971C252.556 31.9811 252.622 32.2691 252.754 32.4611C252.886 32.6531 253.162 32.7011 253.582 32.6051H253.654V33.7751C253.534 33.8111 253.402 33.8411 253.258 33.8651C253.126 33.9011 252.958 33.9191 252.754 33.9191C252.238 33.9191 251.848 33.7991 251.584 33.5591C251.32 33.3071 251.14 32.9231 251.044 32.4071H251.026C250.87 32.6231 250.69 32.8271 250.486 33.0191C250.282 33.2111 250.048 33.3851 249.784 33.5411C249.52 33.6851 249.22 33.7991 248.884 33.8831C248.56 33.9791 248.194 34.0271 247.786 34.0271ZM248.2 32.8031C248.68 32.8031 249.094 32.7251 249.442 32.5691C249.802 32.4011 250.096 32.1971 250.324 31.9571C250.564 31.7051 250.738 31.4291 250.846 31.1291C250.966 30.8291 251.026 30.5411 251.026 30.2651V28.6811C250.786 28.8371 250.468 28.9751 250.072 29.0951C249.688 29.2031 249.298 29.2931 248.902 29.3651C248.506 29.4371 248.146 29.5151 247.822 29.5991C247.498 29.6711 247.222 29.7791 246.994 29.9231C246.766 30.0551 246.586 30.2291 246.454 30.4451C246.334 30.6491 246.274 30.9191 246.274 31.2551C246.274 31.5671 246.328 31.8251 246.436 32.0291C246.544 32.2211 246.688 32.3771 246.868 32.4971C247.048 32.6171 247.252 32.7011 247.48 32.7491C247.72 32.7851 247.96 32.8031 248.2 32.8031ZM255.013 24.1631H256.669V25.6031H256.723C257.023 25.0751 257.419 24.6671 257.911 24.3791C258.403 24.0791 258.961 23.9291 259.585 23.9291C260.173 23.9291 260.683 24.0791 261.115 24.3791C261.559 24.6791 261.883 25.1291 262.087 25.7291H262.123C262.471 25.1171 262.909 24.6671 263.437 24.3791C263.965 24.0791 264.523 23.9291 265.111 23.9291C265.999 23.9291 266.719 24.1991 267.271 24.7391C267.823 25.2791 268.099 26.0591 268.099 27.0791V33.8291H266.425V27.2231C266.425 26.6231 266.257 26.1611 265.921 25.8371C265.585 25.5011 265.171 25.3331 264.679 25.3331C264.367 25.3331 264.073 25.3991 263.797 25.5311C263.521 25.6511 263.281 25.8251 263.077 26.0531C262.873 26.2811 262.705 26.5511 262.573 26.8631C262.453 27.1631 262.393 27.4991 262.393 27.8711V33.8291H260.737V27.2231C260.737 26.6231 260.587 26.1611 260.287 25.8371C259.987 25.5011 259.585 25.3331 259.081 25.3331C258.793 25.3331 258.505 25.3991 258.217 25.5311C257.929 25.6511 257.671 25.8251 257.443 26.0531C257.227 26.2811 257.047 26.5511 256.903 26.8631C256.759 27.1631 256.687 27.4991 256.687 27.8711V33.8291H255.013V24.1631ZM274.535 34.0991C273.791 34.0991 273.125 33.9671 272.537 33.7031C271.961 33.4391 271.469 33.0791 271.061 32.6231C270.653 32.1551 270.341 31.6151 270.125 31.0031C269.921 30.3791 269.819 29.7131 269.819 29.0051C269.819 28.3091 269.927 27.6551 270.143 27.0431C270.371 26.4191 270.683 25.8791 271.079 25.4231C271.487 24.9551 271.973 24.5891 272.537 24.3251C273.113 24.0611 273.749 23.9291 274.445 23.9291C275.165 23.9291 275.801 24.0611 276.353 24.3251C276.905 24.5891 277.373 24.9551 277.757 25.4231C278.153 25.9031 278.447 26.4791 278.639 27.1511C278.843 27.8231 278.945 28.5731 278.945 29.4011H271.529C271.565 29.8691 271.655 30.3071 271.799 30.7151C271.943 31.1231 272.141 31.4771 272.393 31.7771C272.645 32.0771 272.951 32.3111 273.311 32.4791C273.671 32.6471 274.085 32.7311 274.553 32.7311C275.225 32.7311 275.777 32.5871 276.209 32.2991C276.653 31.9991 276.953 31.5911 277.109 31.0751H278.747C278.531 31.9751 278.051 32.7071 277.307 33.2711C276.575 33.8231 275.651 34.0991 274.535 34.0991ZM274.445 25.2251C274.013 25.2251 273.629 25.3031 273.293 25.4591C272.957 25.6031 272.669 25.8071 272.429 26.0711C272.189 26.3351 271.997 26.6471 271.853 27.0071C271.709 27.3671 271.613 27.7631 271.565 28.1951H277.163C277.115 27.2591 276.857 26.5331 276.389 26.0171C275.933 25.4891 275.285 25.2251 274.445 25.2251ZM284.539 24.1631H286.321L287.833 29.5271C287.905 29.8031 287.977 30.1031 288.049 30.4271C288.133 30.7511 288.205 31.0571 288.265 31.3451C288.337 31.6811 288.403 32.0171 288.463 32.3531H288.499C288.559 32.0411 288.625 31.7231 288.697 31.3991C288.757 31.1231 288.823 30.8231 288.895 30.4991C288.979 30.1751 289.063 29.8631 289.147 29.5631L290.605 24.1631H292.189L293.629 29.5631C293.689 29.8271 293.755 30.1211 293.827 30.4451C293.911 30.7571 293.983 31.0571 294.043 31.3451C294.115 31.6811 294.181 32.0231 294.241 32.3711H294.277C294.337 32.0471 294.397 31.7231 294.457 31.3991C294.517 31.1231 294.583 30.8171 294.655 30.4811C294.727 30.1451 294.811 29.8271 294.907 29.5271L296.509 24.1631H298.237L295.087 33.8291H293.413L291.991 28.5011C291.931 28.2611 291.865 27.9911 291.793 27.6911C291.721 27.3791 291.655 27.0851 291.595 26.8091C291.523 26.4851 291.451 26.1491 291.379 25.8011H291.343C291.271 26.1491 291.199 26.4851 291.127 26.8091C291.067 27.0851 291.001 27.3791 290.929 27.6911C290.869 28.0031 290.809 28.2731 290.749 28.5011L289.291 33.8291H287.599L284.539 24.1631ZM299.538 20.4371H301.284V22.3811H299.538V20.4371ZM299.574 24.1631H301.248V33.8291H299.574V24.1631ZM305.203 25.5311H305.257C305.605 25.0391 306.025 24.6491 306.517 24.3611C307.009 24.0731 307.609 23.9291 308.317 23.9291C309.337 23.9291 310.135 24.1991 310.711 24.7391C311.287 25.2791 311.575 26.0591 311.575 27.0791V33.8291H309.919V27.2771C309.919 26.6531 309.727 26.1731 309.343 25.8371C308.971 25.5011 308.455 25.3331 307.795 25.3331C307.423 25.3331 307.075 25.3991 306.751 25.5311C306.439 25.6511 306.169 25.8251 305.941 26.0531C305.713 26.2811 305.533 26.5571 305.401 26.8811C305.281 27.2051 305.221 27.5591 305.221 27.9431V33.8291H303.547V24.1631H305.203V25.5311ZM322.319 34.1171C320.975 34.1171 319.937 33.8291 319.205 33.2531C318.473 32.6651 318.071 31.8791 317.999 30.8951H319.691C319.739 31.2431 319.841 31.5371 319.997 31.7771C320.153 32.0171 320.345 32.2091 320.573 32.3531C320.813 32.4971 321.083 32.6051 321.383 32.6771C321.683 32.7371 322.007 32.7671 322.355 32.7671C323.123 32.7671 323.675 32.6231 324.011 32.3351C324.359 32.0351 324.533 31.6691 324.533 31.2371C324.533 30.7091 324.323 30.3431 323.903 30.1391C323.495 29.9231 322.865 29.7311 322.013 29.5631C321.545 29.4671 321.089 29.3591 320.645 29.2391C320.213 29.1191 319.829 28.9571 319.493 28.7531C319.169 28.5491 318.905 28.2791 318.701 27.9431C318.509 27.6071 318.413 27.1751 318.413 26.6471C318.413 25.8191 318.719 25.1651 319.331 24.6851C319.955 24.1931 320.831 23.9471 321.959 23.9471C323.171 23.9471 324.089 24.2051 324.713 24.7211C325.337 25.2371 325.703 25.9151 325.811 26.7551H324.137C324.065 26.2511 323.849 25.8671 323.489 25.6031C323.141 25.3391 322.619 25.2071 321.923 25.2071C321.263 25.2071 320.783 25.3391 320.483 25.6031C320.195 25.8671 320.051 26.1851 320.051 26.5571C320.051 26.8091 320.105 27.0191 320.213 27.1871C320.333 27.3431 320.501 27.4751 320.717 27.5831C320.945 27.6911 321.215 27.7811 321.527 27.8531C321.851 27.9251 322.217 28.0031 322.625 28.0871C323.105 28.1831 323.561 28.2911 323.993 28.4111C324.425 28.5311 324.803 28.6991 325.127 28.9151C325.463 29.1311 325.727 29.4191 325.919 29.7791C326.111 30.1271 326.207 30.5831 326.207 31.1471C326.207 31.6391 326.111 32.0711 325.919 32.4431C325.727 32.8151 325.457 33.1271 325.109 33.3791C324.773 33.6191 324.365 33.7991 323.885 33.9191C323.405 34.0511 322.883 34.1171 322.319 34.1171ZM327.246 24.1631H328.758V21.1211H330.414V24.1631H332.412V25.4591H330.414V31.5611C330.414 31.9091 330.498 32.1491 330.666 32.2811C330.846 32.4011 331.092 32.4611 331.404 32.4611C331.548 32.4611 331.698 32.4491 331.854 32.4251C332.022 32.3891 332.154 32.3591 332.25 32.3351H332.304V33.7391C331.848 33.8471 331.398 33.9011 330.954 33.9011C330.306 33.8891 329.778 33.7391 329.37 33.4511C328.962 33.1511 328.758 32.6471 328.758 31.9391V25.4591H327.246V24.1631ZM335.806 25.9091H335.86C336.16 25.3451 336.55 24.8951 337.03 24.5591C337.51 24.2111 338.074 24.0371 338.722 24.0371C338.854 24.0371 338.962 24.0491 339.046 24.0731C339.142 24.0851 339.238 24.1091 339.334 24.1451V25.7291H339.28C339.16 25.6931 339.052 25.6691 338.956 25.6571C338.86 25.6451 338.74 25.6391 338.596 25.6391C338.224 25.6391 337.87 25.7111 337.534 25.8551C337.198 25.9871 336.904 26.1791 336.652 26.4311C336.4 26.6831 336.196 26.9891 336.04 27.3491C335.896 27.7091 335.824 28.1171 335.824 28.5731V33.8291H334.15V24.1631H335.806V25.9091ZM344.813 34.0991C344.069 34.0991 343.403 33.9671 342.815 33.7031C342.239 33.4391 341.747 33.0791 341.339 32.6231C340.931 32.1551 340.619 31.6151 340.403 31.0031C340.199 30.3791 340.097 29.7131 340.097 29.0051C340.097 28.3091 340.205 27.6551 340.421 27.0431C340.649 26.4191 340.961 25.8791 341.357 25.4231C341.765 24.9551 342.251 24.5891 342.815 24.3251C343.391 24.0611 344.027 23.9291 344.723 23.9291C345.443 23.9291 346.079 24.0611 346.631 24.3251C347.183 24.5891 347.651 24.9551 348.035 25.4231C348.431 25.9031 348.725 26.4791 348.917 27.1511C349.121 27.8231 349.223 28.5731 349.223 29.4011H341.807C341.843 29.8691 341.933 30.3071 342.077 30.7151C342.221 31.1231 342.419 31.4771 342.671 31.7771C342.923 32.0771 343.229 32.3111 343.589 32.4791C343.949 32.6471 344.363 32.7311 344.831 32.7311C345.503 32.7311 346.055 32.5871 346.487 32.2991C346.931 31.9991 347.231 31.5911 347.387 31.0751H349.025C348.809 31.9751 348.329 32.7071 347.585 33.2711C346.853 33.8231 345.929 34.0991 344.813 34.0991ZM344.723 25.2251C344.291 25.2251 343.907 25.3031 343.571 25.4591C343.235 25.6031 342.947 25.8071 342.707 26.0711C342.467 26.3351 342.275 26.6471 342.131 27.0071C341.987 27.3671 341.891 27.7631 341.843 28.1951H347.441C347.393 27.2591 347.135 26.5331 346.667 26.0171C346.211 25.4891 345.563 25.2251 344.723 25.2251ZM353.887 34.0271C353.431 34.0271 352.999 33.9671 352.591 33.8471C352.195 33.7391 351.847 33.5711 351.547 33.3431C351.259 33.1151 351.031 32.8331 350.863 32.4971C350.695 32.1491 350.611 31.7411 350.611 31.2731C350.611 30.7091 350.707 30.2471 350.899 29.8871C351.103 29.5271 351.385 29.2391 351.745 29.0231C352.117 28.8071 352.555 28.6391 353.059 28.5191C353.575 28.3991 354.145 28.3031 354.769 28.2311C355.129 28.1951 355.453 28.1471 355.741 28.0871C356.029 28.0271 356.275 27.9491 356.479 27.8531C356.683 27.7451 356.839 27.6131 356.947 27.4571C357.055 27.3011 357.109 27.0971 357.109 26.8451C357.109 26.3171 356.929 25.9031 356.569 25.6031C356.221 25.3031 355.711 25.1531 355.039 25.1531C354.271 25.1531 353.695 25.3211 353.311 25.6571C352.939 25.9931 352.741 26.4491 352.717 27.0251H351.097C351.109 26.6171 351.199 26.2271 351.367 25.8551C351.535 25.4831 351.781 25.1531 352.105 24.8651C352.429 24.5771 352.831 24.3491 353.311 24.1811C353.803 24.0131 354.373 23.9291 355.021 23.9291C355.477 23.9291 355.903 23.9711 356.299 24.0551C356.695 24.1391 357.049 24.2711 357.361 24.4511C357.769 24.6911 358.087 25.0271 358.315 25.4591C358.543 25.8911 358.657 26.4311 358.657 27.0791V31.5971C358.657 31.9811 358.723 32.2691 358.855 32.4611C358.987 32.6531 359.263 32.7011 359.683 32.6051H359.755V33.7751C359.635 33.8111 359.503 33.8411 359.359 33.8651C359.227 33.9011 359.059 33.9191 358.855 33.9191C358.339 33.9191 357.949 33.7991 357.685 33.5591C357.421 33.3071 357.241 32.9231 357.145 32.4071H357.127C356.971 32.6231 356.791 32.8271 356.587 33.0191C356.383 33.2111 356.149 33.3851 355.885 33.5411C355.621 33.6851 355.321 33.7991 354.985 33.8831C354.661 33.9791 354.295 34.0271 353.887 34.0271ZM354.301 32.8031C354.781 32.8031 355.195 32.7251 355.543 32.5691C355.903 32.4011 356.197 32.1971 356.425 31.9571C356.665 31.7051 356.839 31.4291 356.947 31.1291C357.067 30.8291 357.127 30.5411 357.127 30.2651V28.6811C356.887 28.8371 356.569 28.9751 356.173 29.0951C355.789 29.2031 355.399 29.2931 355.003 29.3651C354.607 29.4371 354.247 29.5151 353.923 29.5991C353.599 29.6711 353.323 29.7791 353.095 29.9231C352.867 30.0551 352.687 30.2291 352.555 30.4451C352.435 30.6491 352.375 30.9191 352.375 31.2551C352.375 31.5671 352.429 31.8251 352.537 32.0291C352.645 32.2211 352.789 32.3771 352.969 32.4971C353.149 32.6171 353.353 32.7011 353.581 32.7491C353.821 32.7851 354.061 32.8031 354.301 32.8031ZM364.157 28.7351L362.789 30.0311V33.8291H361.115V20.4371H362.789V26.7911C362.789 26.9591 362.783 27.1931 362.771 27.4931C362.759 27.7811 362.741 28.0451 362.717 28.2851L366.911 24.1631H368.999L365.309 27.6371L369.431 33.8291H367.469L364.157 28.7351ZM375.652 24.1631H377.308V25.6751H377.362C377.722 25.1231 378.148 24.6971 378.64 24.3971C379.144 24.0851 379.744 23.9291 380.44 23.9291C381.052 23.9291 381.61 24.0491 382.114 24.2891C382.63 24.5171 383.068 24.8531 383.428 25.2971C383.8 25.7291 384.088 26.2631 384.292 26.8991C384.496 27.5231 384.598 28.2311 384.598 29.0231C384.598 29.8031 384.502 30.5051 384.31 31.1291C384.118 31.7531 383.836 32.2871 383.464 32.7311C383.104 33.1751 382.66 33.5171 382.132 33.7571C381.616 33.9971 381.034 34.1171 380.386 34.1171C379.726 34.1171 379.138 33.9851 378.622 33.7211C378.106 33.4571 377.68 33.0671 377.344 32.5511H377.29C377.302 32.7191 377.308 32.9411 377.308 33.2171C377.32 33.4811 377.326 33.7991 377.326 34.1711V37.1051H375.652V24.1631ZM380.206 32.7311C380.65 32.7311 381.04 32.6411 381.376 32.4611C381.712 32.2691 381.988 32.0111 382.204 31.6871C382.432 31.3631 382.6 30.9791 382.708 30.5351C382.828 30.0791 382.888 29.5871 382.888 29.0591C382.888 28.5311 382.834 28.0391 382.726 27.5831C382.618 27.1271 382.45 26.7371 382.222 26.4131C382.006 26.0771 381.73 25.8191 381.394 25.6391C381.058 25.4471 380.668 25.3511 380.224 25.3511C379.708 25.3511 379.264 25.4471 378.892 25.6391C378.52 25.8311 378.208 26.0951 377.956 26.4311C377.716 26.7671 377.536 27.1631 377.416 27.6191C377.296 28.0631 377.236 28.5431 377.236 29.0591C377.236 29.5631 377.29 30.0431 377.398 30.4991C377.506 30.9431 377.68 31.3331 377.92 31.6691C378.16 31.9931 378.466 32.2511 378.838 32.4431C379.21 32.6351 379.666 32.7311 380.206 32.7311ZM388.031 25.9091H388.085C388.385 25.3451 388.775 24.8951 389.255 24.5591C389.735 24.2111 390.299 24.0371 390.947 24.0371C391.079 24.0371 391.187 24.0491 391.271 24.0731C391.367 24.0851 391.463 24.1091 391.559 24.1451V25.7291H391.505C391.385 25.6931 391.277 25.6691 391.181 25.6571C391.085 25.6451 390.965 25.6391 390.821 25.6391C390.449 25.6391 390.095 25.7111 389.759 25.8551C389.423 25.9871 389.129 26.1791 388.877 26.4311C388.625 26.6831 388.421 26.9891 388.265 27.3491C388.121 27.7091 388.049 28.1171 388.049 28.5731V33.8291H386.375V24.1631H388.031V25.9091ZM393.159 20.4371H394.905V22.3811H393.159V20.4371ZM393.195 24.1631H394.869V33.8291H393.195V24.1631ZM396.808 32.5331L401.128 26.8991C401.224 26.7671 401.338 26.6291 401.47 26.4851C401.602 26.3291 401.728 26.1851 401.848 26.0531C401.98 25.8971 402.124 25.7411 402.28 25.5851V25.5311C402.052 25.5431 401.83 25.5551 401.614 25.5671C401.422 25.5791 401.224 25.5851 401.02 25.5851C400.816 25.5851 400.63 25.5851 400.462 25.5851H397.132V24.1631H404.386V25.2071L399.994 30.9491C399.886 31.0811 399.76 31.2311 399.616 31.3991C399.484 31.5551 399.352 31.7051 399.22 31.8491C399.076 32.0171 398.926 32.1851 398.77 32.3531V32.4071C399.01 32.4071 399.244 32.4011 399.472 32.3891C399.676 32.3771 399.886 32.3711 400.102 32.3711C400.318 32.3591 400.516 32.3531 400.696 32.3531H404.602V33.8291H396.808V32.5331ZM410.221 34.0991C409.477 34.0991 408.811 33.9671 408.223 33.7031C407.647 33.4391 407.155 33.0791 406.747 32.6231C406.339 32.1551 406.027 31.6151 405.811 31.0031C405.607 30.3791 405.505 29.7131 405.505 29.0051C405.505 28.3091 405.613 27.6551 405.829 27.0431C406.057 26.4191 406.369 25.8791 406.765 25.4231C407.173 24.9551 407.659 24.5891 408.223 24.3251C408.799 24.0611 409.435 23.9291 410.131 23.9291C410.851 23.9291 411.487 24.0611 412.039 24.3251C412.591 24.5891 413.059 24.9551 413.443 25.4231C413.839 25.9031 414.133 26.4791 414.325 27.1511C414.529 27.8231 414.631 28.5731 414.631 29.4011H407.215C407.251 29.8691 407.341 30.3071 407.485 30.7151C407.629 31.1231 407.827 31.4771 408.079 31.7771C408.331 32.0771 408.637 32.3111 408.997 32.4791C409.357 32.6471 409.771 32.7311 410.239 32.7311C410.911 32.7311 411.463 32.5871 411.895 32.2991C412.339 31.9991 412.639 31.5911 412.795 31.0751H414.433C414.217 31.9751 413.737 32.7071 412.993 33.2711C412.261 33.8231 411.337 34.0991 410.221 34.0991ZM410.131 25.2251C409.699 25.2251 409.315 25.3031 408.979 25.4591C408.643 25.6031 408.355 25.8071 408.115 26.0711C407.875 26.3351 407.683 26.6471 407.539 27.0071C407.395 27.3671 407.299 27.7631 407.251 28.1951H412.849C412.801 27.2591 412.543 26.5331 412.075 26.0171C411.619 25.4891 410.971 25.2251 410.131 25.2251Z" fill="white"/>
<path fill-rule="evenodd" clip-rule="evenodd" d="M567.646 29.7783C567.735 29.6322 567.78 29.4481 567.78 29.2258V20.4421C567.78 20.2198 567.735 20.0388 567.646 19.8991C567.558 19.753 567.418 19.6355 567.227 19.5466C566.694 19.2798 566.259 18.9718 565.922 18.6225C565.579 18.2668 565.246 17.7682 564.922 17.1268C564.719 16.7647 564.423 16.5837 564.036 16.5837H547.964C547.577 16.5837 547.285 16.7647 547.088 17.1268C546.757 17.7682 546.424 18.2668 546.087 18.6225C545.744 18.9718 545.306 19.2798 544.773 19.5466C544.582 19.6355 544.442 19.753 544.353 19.8991C544.265 20.0388 544.22 20.2198 544.22 20.4421V29.2258C544.22 29.4481 544.265 29.6322 544.353 29.7783C544.442 29.9181 544.582 30.0324 544.773 30.1213C545.306 30.3817 545.744 30.6897 546.087 31.0454C546.424 31.3947 546.757 31.8933 547.088 32.5411C547.285 32.8968 547.577 33.0746 547.964 33.0746H564.036C564.423 33.0746 564.719 32.8968 564.922 32.5411C565.246 31.8933 565.579 31.3947 565.922 31.0454C566.259 30.6897 566.694 30.3817 567.227 30.1213C567.418 30.0324 567.558 29.9181 567.646 29.7783ZM560.04 25.1597V25.9739C560.04 26.1144 559.927 26.2282 559.786 26.2282C559.646 26.2282 559.532 26.1145 559.532 25.9739V25.1597H558.188V25.9739C558.188 26.1144 558.074 26.2282 557.934 26.2282C557.793 26.2282 557.679 26.1145 557.679 25.9739V25.1597H556.336V25.9739C556.336 26.1144 556.222 26.2282 556.082 26.2282C555.941 26.2282 555.827 26.1145 555.827 25.9739V25.1597H554.484V25.9739C554.484 26.1144 554.37 26.2282 554.23 26.2282C554.089 26.2282 553.976 26.1145 553.976 25.9739V25.1597H552.632V25.9739C552.632 26.1144 552.518 26.2282 552.378 26.2282C552.238 26.2282 552.124 26.1145 552.124 25.9739V25.1597H551.114L551.114 28.8075C552.593 29.6073 554.283 30.066 556.082 30.066C557.881 30.066 559.571 29.607 561.05 28.8075V25.1597H560.04ZM565.151 24.829C565.152 23.8374 563.324 22.3541 562.068 21.4763V28.1824C563.324 27.3045 565.15 25.9214 565.151 24.829ZM552.124 23.8372V24.6512L551.114 24.651V20.8507C552.593 20.0512 554.283 19.5923 556.082 19.5923C557.882 19.5923 559.572 20.051 561.05 20.8506V24.6512H560.04V23.8372C560.04 23.6967 559.926 23.5829 559.786 23.5829C559.645 23.5829 559.531 23.6967 559.531 23.8372V24.6512H558.188V23.8372C558.188 23.6967 558.074 23.5829 557.934 23.5829C557.793 23.5829 557.679 23.6967 557.679 23.8372V24.6512H556.336V23.8372C556.336 23.6967 556.222 23.5829 556.082 23.5829C555.941 23.5829 555.827 23.6967 555.827 23.8372V24.6512H554.484V23.8372C554.484 23.6967 554.37 23.5829 554.23 23.5829C554.089 23.5829 553.976 23.6967 553.976 23.8372V24.6512H552.632V23.8372C552.632 23.6967 552.518 23.5829 552.378 23.5829C552.238 23.5829 552.124 23.6967 552.124 23.8372ZM546.849 24.829C546.848 23.8374 548.676 22.3541 549.932 21.4763V28.1824C548.676 27.3045 546.85 25.9214 546.849 24.829Z" fill="white"/>
<path d="M600 51.8291H185V53.8291H600V51.8291Z" fill="white" mask="url(#path-6-inside-2_4719_145475)"/>
<path d="M235.96 119.525H217.144V126.101H222.952V157.829H230.056V126.101H235.96V119.525ZM256.737 131.429L254.625 150.821L251.841 131.429H245.264L242.816 150.821L240.368 131.429H233.84L238.592 157.829H246.273C246.273 157.829 247.953 148.469 248.481 145.349C248.529 145.061 248.577 142.613 248.577 142.613C248.577 142.613 248.721 145.061 248.768 145.349C249.297 148.373 250.929 157.829 250.929 157.829H258.513L263.12 131.429H256.737ZM280.574 136.469C279.71 133.445 277.406 131.093 272.654 131.093C267.902 131.093 265.55 133.685 264.782 136.325C264.11 138.581 263.774 141.749 263.774 144.581C263.774 147.509 264.158 151.061 264.59 152.645C265.502 155.957 268.238 158.165 272.558 158.165C277.118 158.165 279.566 156.005 280.526 152.645C281.102 150.725 281.39 147.461 281.39 144.581C281.39 141.749 281.15 138.437 280.574 136.469ZM274.862 151.061C274.718 152.069 273.806 152.933 272.606 152.933C271.454 152.933 270.59 152.309 270.398 151.109C270.158 149.861 270.11 146.741 270.11 144.677C270.11 142.709 270.158 139.493 270.398 138.389C270.686 137.189 271.358 136.517 272.606 136.517C273.902 136.517 274.574 137.045 274.862 138.293C275.054 139.301 275.15 142.661 275.15 144.677C275.15 146.693 275.198 148.757 274.862 151.061ZM311.186 119.525H304.658V138.245L298.658 119.525H291.986V157.829H298.514V138.725L304.562 157.829H311.186V119.525ZM331.582 119.525H314.638V157.829H321.646V141.845H330.814V135.413H321.646V126.101H331.582V119.525ZM351.004 151.349H340.876V119.525H333.868V157.829H351.004V151.349ZM380.711 148.901V136.181H370.199V142.229H374.087C374.087 142.229 374.135 148.469 374.087 149.285C373.991 151.253 372.839 152.261 371.063 152.261C369.479 152.261 368.663 151.445 368.327 149.717C367.751 146.693 367.751 141.701 367.751 138.773C367.751 135.653 367.799 131.045 368.279 127.733C368.519 126.101 369.575 125.381 370.919 125.381C372.407 125.381 373.319 126.197 373.463 127.733C373.655 129.701 373.655 132.341 373.655 132.629H380.519C380.519 129.221 380.375 127.301 380.087 125.573C379.511 122.117 376.967 119.189 370.775 119.189C364.727 119.189 362.183 122.597 361.367 125.669C360.503 128.981 360.407 134.789 360.407 138.773C360.407 142.901 360.551 148.277 361.367 151.733C362.375 155.957 365.399 158.165 369.431 158.165C372.359 158.165 374.327 157.349 375.287 156.101L375.623 157.829H380.807C380.807 157.781 380.711 153.317 380.711 148.901ZM399.766 153.125C399.766 151.157 399.814 147.941 399.814 145.877C399.862 143.429 399.91 139.445 399.814 137.141C399.67 133.445 397.366 131.093 391.846 131.093C385.99 131.093 383.59 133.733 383.59 138.677V140.645H389.542V139.157C389.542 137.333 390.118 136.421 391.75 136.421C392.95 136.421 393.574 137.093 393.622 138.245C393.67 139.061 393.67 140.693 393.67 141.413C392.614 141.413 391.51 141.557 390.31 141.749C385.894 142.565 382.918 144.965 382.678 148.805C382.582 150.197 382.63 152.453 382.678 153.029C382.87 156.869 385.798 158.021 388.438 158.021C390.79 158.021 392.566 157.397 393.766 155.909C393.766 156.581 393.91 157.829 394.006 157.829H400.102C399.862 157.493 399.766 155.045 399.766 153.125ZM393.67 147.749C393.574 149.093 393.67 149.765 393.43 151.157C393.19 152.501 392.038 153.029 391.03 153.029C390.07 153.029 389.302 152.693 389.158 151.781C389.062 151.013 389.062 150.101 389.062 149.381C389.062 148.277 389.11 147.509 389.926 146.789C390.646 146.165 391.462 146.021 392.134 145.877C392.71 145.781 393.19 145.781 393.67 145.781C393.67 146.165 393.718 147.221 393.67 147.749ZM428.737 157.829C428.785 157.829 428.689 157.061 428.689 136.613C428.689 133.301 427.249 131.045 423.601 131.045C421.153 131.045 419.281 132.101 418.465 134.117C417.793 132.245 416.401 131.045 414.001 131.045C411.217 131.045 409.489 132.293 408.865 133.925V131.429H402.673V157.829H409.009V139.109C409.009 137.813 409.777 136.613 411.073 136.613C412.177 136.613 412.705 137.333 412.705 138.485V157.829H418.897V138.917C418.897 137.717 419.617 136.613 420.865 136.613C422.209 136.613 422.545 137.525 422.545 138.581C422.545 157.061 422.545 157.829 422.593 157.829H428.737ZM442.262 149.237C442.262 149.909 442.166 150.725 441.974 151.541C441.734 152.597 440.726 153.029 439.766 153.029C438.806 153.029 437.702 152.453 437.558 151.157C437.414 149.957 437.366 148.037 437.366 146.837H448.262C448.502 142.325 448.166 137.717 447.254 135.461C446.15 132.773 443.606 131.093 439.91 131.093C435.35 131.093 433.334 133.157 432.374 135.509C431.654 137.237 431.126 140.789 431.126 144.773C431.126 148.853 431.462 151.877 432.566 154.421C433.718 157.109 436.454 158.165 440.006 158.165C443.558 158.165 445.718 156.725 446.87 154.661C447.878 152.885 448.118 150.005 448.118 149.237H442.262ZM437.27 142.133C437.27 140.309 437.318 138.581 437.654 137.765C437.99 136.853 438.758 136.373 439.814 136.373C440.918 136.373 441.638 136.901 441.878 137.813C442.07 138.437 442.214 139.733 442.214 142.133H437.27ZM235.96 175.525H217.144V182.101H222.952V213.829H230.056V182.101H235.96V175.525ZM243.589 179.557H236.821V186.037H243.589V179.557ZM243.493 211.909V187.429H236.917V212.005C236.917 213.061 236.917 213.829 237.157 213.829H243.637C243.589 213.781 243.493 212.917 243.493 211.909ZM262.52 191.893C261.656 189.157 259.64 187.093 254.696 187.093C250.952 187.093 248.264 188.773 247.304 191.605C246.344 194.485 246.056 196.789 246.056 200.629C246.056 204.613 246.632 208.597 247.4 210.325C248.456 212.725 251 214.165 254.792 214.165C258.68 214.165 261.176 212.437 262.04 210.229C262.952 207.925 263 206.821 263 203.221H257.048C257.048 204.901 257.048 205.429 256.856 206.821C256.712 207.925 256.04 208.789 254.792 208.789C253.544 208.789 252.92 208.213 252.728 206.869C252.44 204.901 252.344 202.213 252.344 200.677C252.344 198.757 252.44 196.357 252.728 194.485C252.92 193.189 253.592 192.517 254.744 192.517C256.088 192.517 256.568 193.381 256.712 194.437C256.856 195.445 257 196.645 257 198.181H263C263 194.965 262.856 193.045 262.52 191.893ZM278.064 197.029L283.056 187.429H276.816L271.68 197.557V175.477H265.344V213.829H271.68V205.909L273.552 202.885L276.864 213.829H283.296L278.064 197.029ZM294.808 205.237C294.808 205.909 294.712 206.725 294.52 207.541C294.28 208.597 293.272 209.029 292.312 209.029C291.352 209.029 290.248 208.453 290.104 207.157C289.96 205.957 289.912 204.037 289.912 202.837H300.808C301.048 198.325 300.712 193.717 299.8 191.461C298.696 188.773 296.152 187.093 292.456 187.093C287.896 187.093 285.88 189.157 284.92 191.509C284.2 193.237 283.672 196.789 283.672 200.773C283.672 204.853 284.008 207.877 285.112 210.421C286.264 213.109 289 214.165 292.552 214.165C296.104 214.165 298.264 212.725 299.416 210.661C300.424 208.885 300.664 206.005 300.664 205.237H294.808ZM289.816 198.133C289.816 196.309 289.864 194.581 290.2 193.765C290.536 192.853 291.304 192.373 292.36 192.373C293.464 192.373 294.184 192.901 294.424 193.813C294.616 194.437 294.76 195.733 294.76 198.133H289.816ZM314.524 187.429H310.828V182.341L304.588 182.485C304.588 182.485 304.396 187.285 304.348 187.429H301.996V193.045H304.252V208.069C304.252 212.197 306.556 214.021 310.492 214.021C312.172 214.021 313.228 213.925 314.236 213.685V208.549C313.756 208.645 313.132 208.693 312.604 208.693C311.596 208.693 310.78 208.405 310.78 206.917V193.045H314.524V187.429ZM327.84 198.901C326.64 198.277 325.44 197.749 324.24 197.173C322.704 196.453 322.176 195.637 322.176 194.341C322.176 193.237 322.656 192.325 324.144 192.325C325.488 192.325 325.92 193.093 326.016 193.909C326.064 194.101 326.112 195.589 326.112 195.877H331.92C331.92 195.349 331.776 192.565 331.632 191.797C331.008 188.869 328.56 187.045 323.904 187.045C318.816 187.045 316.224 190.021 316.224 194.197C316.224 198.133 317.376 200.581 320.832 202.213C321.792 202.645 323.088 203.269 323.904 203.605C325.728 204.325 326.352 205.237 326.352 206.869C326.352 208.357 325.44 209.077 324.24 209.077C323.088 209.077 322.176 208.597 322.08 207.493C322.032 206.677 321.984 205.861 321.984 205.525H316.032C316.032 206.341 316.08 208.021 316.176 208.885C316.608 212.437 319.008 214.213 324.384 214.213C329.136 214.213 332.448 211.669 332.448 206.677C332.448 202.645 331.2 200.581 327.84 198.901ZM358.109 192.181H352.877V186.277H347.213V192.181H341.885V197.797H347.213V203.749H352.829V197.797H358.109V192.181ZM387.707 175.525H381.179V194.245L375.179 175.525H368.507V213.829H375.035V194.725L381.083 213.829H387.707V175.525ZM408.103 175.525H391.159V213.829H398.167V197.845H407.335V191.413H398.167V182.101H408.103V175.525ZM427.525 207.349H417.397V175.525H410.389V213.829H427.525V207.349ZM449.024 175.525H442.064V204.901C442.064 206.437 441.392 207.781 439.424 207.877C438.32 207.925 437.312 207.877 436.448 207.781V213.781C437.696 213.973 438.32 214.069 440.288 214.069C446.192 214.069 449.024 211.813 449.024 205.909V175.525ZM462.745 205.237C462.745 205.909 462.649 206.725 462.457 207.541C462.217 208.597 461.209 209.029 460.249 209.029C459.289 209.029 458.185 208.453 458.041 207.157C457.897 205.957 457.849 204.037 457.849 202.837H468.745C468.985 198.325 468.649 193.717 467.737 191.461C466.633 188.773 464.089 187.093 460.393 187.093C455.833 187.093 453.817 189.157 452.857 191.509C452.137 193.237 451.609 196.789 451.609 200.773C451.609 204.853 451.945 207.877 453.049 210.421C454.201 213.109 456.937 214.165 460.489 214.165C464.041 214.165 466.201 212.725 467.353 210.661C468.361 208.885 468.601 206.005 468.601 205.237H462.745ZM457.753 198.133C457.753 196.309 457.801 194.581 458.137 193.765C458.473 192.853 459.241 192.373 460.297 192.373C461.401 192.373 462.121 192.901 462.361 193.813C462.553 194.437 462.697 195.733 462.697 198.133H457.753ZM482.124 187.093C479.916 187.093 477.708 188.533 477.42 190.549V187.429H471.084V213.829H477.516V198.181C477.516 193.861 478.86 192.901 481.068 192.901C482.364 192.901 483.66 193.141 484.428 193.381V187.333C483.9 187.141 483.132 187.093 482.124 187.093ZM497.089 198.901C495.889 198.277 494.689 197.749 493.489 197.173C491.953 196.453 491.425 195.637 491.425 194.341C491.425 193.237 491.905 192.325 493.393 192.325C494.737 192.325 495.169 193.093 495.265 193.909C495.313 194.101 495.361 195.589 495.361 195.877H501.169C501.169 195.349 501.025 192.565 500.881 191.797C500.257 188.869 497.809 187.045 493.153 187.045C488.065 187.045 485.473 190.021 485.473 194.197C485.473 198.133 486.625 200.581 490.081 202.213C491.041 202.645 492.337 203.269 493.153 203.605C494.977 204.325 495.601 205.237 495.601 206.869C495.601 208.357 494.689 209.077 493.489 209.077C492.337 209.077 491.425 208.597 491.329 207.493C491.281 206.677 491.233 205.861 491.233 205.525H485.281C485.281 206.341 485.329 208.021 485.425 208.885C485.857 212.437 488.257 214.213 493.633 214.213C498.385 214.213 501.697 211.669 501.697 206.677C501.697 202.645 500.449 200.581 497.089 198.901ZM514.669 205.237C514.669 205.909 514.573 206.725 514.381 207.541C514.141 208.597 513.133 209.029 512.173 209.029C511.213 209.029 510.109 208.453 509.965 207.157C509.821 205.957 509.773 204.037 509.773 202.837H520.669C520.909 198.325 520.573 193.717 519.661 191.461C518.557 188.773 516.013 187.093 512.317 187.093C507.757 187.093 505.741 189.157 504.781 191.509C504.061 193.237 503.533 196.789 503.533 200.773C503.533 204.853 503.869 207.877 504.973 210.421C506.125 213.109 508.861 214.165 512.413 214.165C515.965 214.165 518.125 212.725 519.277 210.661C520.285 208.885 520.525 206.005 520.525 205.237H514.669ZM509.677 198.133C509.677 196.309 509.725 194.581 510.061 193.765C510.397 192.853 511.165 192.373 512.221 192.373C513.325 192.373 514.045 192.901 514.285 193.813C514.477 194.437 514.621 195.733 514.621 198.133H509.677ZM534.065 187.429C534.017 188.245 530.945 203.845 530.849 204.421C530.801 203.893 527.729 188.101 527.633 187.429H521.105L527.393 213.109L525.233 221.653H531.809L540.449 187.429H534.065Z" fill="white"/>
</g>
<path d="M185 0.829102H600H185ZM600 284.829H185H600ZM184 284.829V0.829102H186V284.829H184ZM600 0.829102V284.829V0.829102Z" fill="white" mask="url(#path-4-inside-1_4719_145475)"/>
<rect x="0.5" y="1.3291" width="599" height="283" rx="11.5" stroke="white"/>
<path d="M741.608 129.845C740.712 122.805 735.464 117.301 729.96 116.277C735.208 114.741 738.92 109.237 739.56 102.709C739.944 98.6131 740.2 91.0611 739.688 85.4291C738.92 77.1091 732.52 68.6611 716.136 68.6611C699.496 68.6611 693.992 76.7251 692.968 85.4291C692.584 88.8851 692.84 100.533 693.096 103.221C693.736 110.773 697.832 115.125 702.056 116.149C698.216 117.301 692.584 121.141 691.432 129.077C690.408 135.861 690.408 149.173 690.92 153.269C692.456 166.197 698.6 172.853 716.136 172.853C732.136 172.853 740.968 165.685 741.736 153.269C742.12 146.997 742.248 135.349 741.608 129.845ZM716.136 109.621C713.32 109.621 711.528 108.853 710.76 105.141C710.376 103.221 710.376 90.2931 710.632 88.7571C711.144 85.4291 713.576 84.0211 716.136 84.0211C718.952 84.0211 721.128 85.3011 721.768 88.7571C722.152 90.4211 722.152 101.045 721.768 105.269C721.512 108.597 719.08 109.621 716.136 109.621ZM716.136 157.621C712.552 157.621 709.992 155.445 709.48 151.861C708.968 148.405 708.968 133.813 709.48 130.357C709.992 126.261 712.808 124.725 716.136 124.725C719.72 124.725 722.28 126.261 722.92 130.229C723.432 133.813 723.432 147.509 722.92 151.989C722.408 155.573 719.848 157.621 716.136 157.621Z" fill="white"/>
<path d="M704.028 201.573C704.028 201.573 701.598 212.139 701.598 212.571C701.598 212.139 699.366 201.573 699.366 201.573H696.738C696.738 201.573 694.524 212.139 694.524 212.571C694.524 212.139 692.094 201.573 692.094 201.573H689.592L693.012 215.829H695.694C695.694 215.829 698.016 205.281 698.016 204.813C698.034 205.281 700.266 215.829 700.266 215.829H702.966L706.35 201.573H704.028ZM712.842 201.573H710.412V215.829H712.842V201.573ZM727.883 201.573H725.633V211.293L720.773 201.573H718.091V215.829H720.341V205.857L725.345 215.829H727.883V201.573ZM739.346 207.891C738.95 207.747 738.104 207.423 737.6 207.261C735.854 206.685 734.99 206.127 734.99 205.011C734.99 204.057 735.638 203.481 737.456 203.481C739.004 203.481 739.724 203.913 740.03 204.795C740.138 205.119 740.192 205.389 740.192 205.695H742.604C742.604 205.155 742.514 204.723 742.388 204.291C741.884 202.527 740.444 201.411 737.51 201.411C734.144 201.411 732.56 202.887 732.56 205.083C732.56 207.189 733.946 208.449 736.088 209.151C736.682 209.349 737.528 209.673 737.888 209.799C739.796 210.465 740.372 211.041 740.372 212.247C740.372 213.327 739.598 213.975 737.78 213.975C736.232 213.975 735.332 213.579 735.062 212.733C734.954 212.391 734.9 211.905 734.9 211.653H732.506C732.506 212.067 732.542 212.733 732.668 213.219C733.1 214.893 734.54 216.009 737.834 216.009C741.164 216.009 742.802 214.425 742.802 212.049C742.802 209.835 741.578 208.665 739.346 207.891Z" fill="white"/>
<g clip-path="url(#clip1_4719_145475)">
<path d="M846.706 34.1171C846.094 34.1171 845.488 34.0451 844.888 33.9011C844.3 33.7571 843.772 33.5291 843.304 33.2171C842.836 32.8931 842.458 32.4791 842.17 31.9751C841.882 31.4711 841.738 30.8651 841.738 30.1571C841.738 29.7011 841.804 29.2931 841.936 28.9331C842.08 28.5731 842.278 28.2551 842.53 27.9791C842.782 27.7031 843.076 27.4691 843.412 27.2771C843.76 27.0851 844.138 26.9351 844.546 26.8271V26.7731C843.85 26.5691 843.316 26.2331 842.944 25.7651C842.572 25.2971 842.386 24.7331 842.386 24.0731C842.386 23.5571 842.494 23.0951 842.71 22.6871C842.926 22.2671 843.226 21.9131 843.61 21.6251C843.994 21.3251 844.444 21.0971 844.96 20.9411C845.488 20.7731 846.052 20.6891 846.652 20.6891C847.264 20.6891 847.828 20.7671 848.344 20.9231C848.872 21.0791 849.328 21.3071 849.712 21.6071C850.096 21.8951 850.396 22.2491 850.612 22.6691C850.828 23.0771 850.936 23.5391 850.936 24.0551C850.936 24.7151 850.75 25.2791 850.378 25.7471C850.006 26.2151 849.478 26.5571 848.794 26.7731V26.8271C849.622 27.0311 850.288 27.4211 850.792 27.9971C851.296 28.5731 851.548 29.2931 851.548 30.1571C851.548 30.8771 851.41 31.4891 851.134 31.9931C850.858 32.4851 850.492 32.8931 850.036 33.2171C849.592 33.5291 849.076 33.7571 848.488 33.9011C847.912 34.0451 847.318 34.1171 846.706 34.1171ZM846.652 26.1791C847.456 26.1791 848.086 25.9991 848.542 25.6391C849.01 25.2791 849.244 24.7751 849.244 24.1271C849.244 23.4791 849.01 22.9811 848.542 22.6331C848.086 22.2731 847.456 22.0931 846.652 22.0931C845.848 22.0931 845.212 22.2731 844.744 22.6331C844.288 22.9811 844.06 23.4791 844.06 24.1271C844.06 24.7751 844.288 25.2791 844.744 25.6391C845.212 25.9991 845.848 26.1791 846.652 26.1791ZM846.706 32.6951C847.678 32.6951 848.44 32.4731 848.992 32.0291C849.544 31.5731 849.82 30.9431 849.82 30.1391C849.82 29.3231 849.538 28.6811 848.974 28.2131C848.422 27.7331 847.648 27.4931 846.652 27.4931C845.668 27.4931 844.9 27.7331 844.348 28.2131C843.796 28.6811 843.52 29.3231 843.52 30.1391C843.52 30.9551 843.796 31.5851 844.348 32.0291C844.912 32.4731 845.698 32.6951 846.706 32.6951ZM862.322 37.2131C861.05 37.2131 860.06 36.9731 859.352 36.4931C858.656 36.0251 858.26 35.3591 858.164 34.4951H859.73C859.802 34.9991 860.066 35.3591 860.522 35.5751C860.978 35.8031 861.566 35.9171 862.286 35.9171C863.15 35.9171 863.81 35.7191 864.266 35.3231C864.734 34.9391 864.968 34.3331 864.968 33.5051V33.2351C864.968 32.9591 864.968 32.7011 864.968 32.4611C864.98 32.2091 864.992 32.0051 865.004 31.8491H864.968C864.632 32.3291 864.236 32.7071 863.78 32.9831C863.336 33.2591 862.772 33.3971 862.088 33.3971C861.476 33.3971 860.906 33.2831 860.378 33.0551C859.862 32.8271 859.418 32.5031 859.046 32.0831C858.674 31.6631 858.38 31.1651 858.164 30.5891C857.96 30.0131 857.858 29.3711 857.858 28.6631C857.858 27.9191 857.966 27.2531 858.182 26.6651C858.398 26.0771 858.692 25.5851 859.064 25.1891C859.448 24.7811 859.892 24.4691 860.396 24.2531C860.9 24.0371 861.434 23.9291 861.998 23.9291C862.694 23.9291 863.276 24.0611 863.744 24.3251C864.224 24.5771 864.62 24.9491 864.932 25.4411H864.968V24.1631H866.624V33.4331C866.624 34.0811 866.522 34.6391 866.318 35.1071C866.114 35.5871 865.826 35.9831 865.454 36.2951C865.07 36.6071 864.614 36.8351 864.086 36.9791C863.558 37.1351 862.97 37.2131 862.322 37.2131ZM862.25 32.0291C862.778 32.0291 863.222 31.9451 863.582 31.7771C863.942 31.5971 864.23 31.3571 864.446 31.0571C864.674 30.7451 864.836 30.3791 864.932 29.9591C865.028 29.5391 865.076 29.0831 865.076 28.5911C865.076 27.5711 864.842 26.7731 864.374 26.1971C863.918 25.6091 863.204 25.3151 862.232 25.3151C861.344 25.3151 860.678 25.6211 860.234 26.2331C859.79 26.8451 859.568 27.6611 859.568 28.6811C859.568 29.7131 859.796 30.5291 860.252 31.1291C860.708 31.7291 861.374 32.0291 862.25 32.0291ZM871.821 34.0271C871.365 34.0271 870.933 33.9671 870.525 33.8471C870.129 33.7391 869.781 33.5711 869.481 33.3431C869.193 33.1151 868.965 32.8331 868.797 32.4971C868.629 32.1491 868.545 31.7411 868.545 31.2731C868.545 30.7091 868.641 30.2471 868.833 29.8871C869.037 29.5271 869.319 29.2391 869.679 29.0231C870.051 28.8071 870.489 28.6391 870.993 28.5191C871.509 28.3991 872.079 28.3031 872.703 28.2311C873.063 28.1951 873.387 28.1471 873.675 28.0871C873.963 28.0271 874.209 27.9491 874.413 27.8531C874.617 27.7451 874.773 27.6131 874.881 27.4571C874.989 27.3011 875.043 27.0971 875.043 26.8451C875.043 26.3171 874.863 25.9031 874.503 25.6031C874.155 25.3031 873.645 25.1531 872.973 25.1531C872.205 25.1531 871.629 25.3211 871.245 25.6571C870.873 25.9931 870.675 26.4491 870.651 27.0251H869.031C869.043 26.6171 869.133 26.2271 869.301 25.8551C869.469 25.4831 869.715 25.1531 870.039 24.8651C870.363 24.5771 870.765 24.3491 871.245 24.1811C871.737 24.0131 872.307 23.9291 872.955 23.9291C873.411 23.9291 873.837 23.9711 874.233 24.0551C874.629 24.1391 874.983 24.2711 875.295 24.4511C875.703 24.6911 876.021 25.0271 876.249 25.4591C876.477 25.8911 876.591 26.4311 876.591 27.0791V31.5971C876.591 31.9811 876.657 32.2691 876.789 32.4611C876.921 32.6531 877.197 32.7011 877.617 32.6051H877.689V33.7751C877.569 33.8111 877.437 33.8411 877.293 33.8651C877.161 33.9011 876.993 33.9191 876.789 33.9191C876.273 33.9191 875.883 33.7991 875.619 33.5591C875.355 33.3071 875.175 32.9231 875.079 32.4071H875.061C874.905 32.6231 874.725 32.8271 874.521 33.0191C874.317 33.2111 874.083 33.3851 873.819 33.5411C873.555 33.6851 873.255 33.7991 872.919 33.8831C872.595 33.9791 872.229 34.0271 871.821 34.0271ZM872.235 32.8031C872.715 32.8031 873.129 32.7251 873.477 32.5691C873.837 32.4011 874.131 32.1971 874.359 31.9571C874.599 31.7051 874.773 31.4291 874.881 31.1291C875.001 30.8291 875.061 30.5411 875.061 30.2651V28.6811C874.821 28.8371 874.503 28.9751 874.107 29.0951C873.723 29.2031 873.333 29.2931 872.937 29.3651C872.541 29.4371 872.181 29.5151 871.857 29.5991C871.533 29.6711 871.257 29.7791 871.029 29.9231C870.801 30.0551 870.621 30.2291 870.489 30.4451C870.369 30.6491 870.309 30.9191 870.309 31.2551C870.309 31.5671 870.363 31.8251 870.471 32.0291C870.579 32.2211 870.723 32.3771 870.903 32.4971C871.083 32.6171 871.287 32.7011 871.515 32.7491C871.755 32.7851 871.995 32.8031 872.235 32.8031ZM879.048 24.1631H880.704V25.6031H880.758C881.058 25.0751 881.454 24.6671 881.946 24.3791C882.438 24.0791 882.996 23.9291 883.62 23.9291C884.208 23.9291 884.718 24.0791 885.15 24.3791C885.594 24.6791 885.918 25.1291 886.122 25.7291H886.158C886.506 25.1171 886.944 24.6671 887.472 24.3791C888 24.0791 888.558 23.9291 889.146 23.9291C890.034 23.9291 890.754 24.1991 891.306 24.7391C891.858 25.2791 892.134 26.0591 892.134 27.0791V33.8291H890.46V27.2231C890.46 26.6231 890.292 26.1611 889.956 25.8371C889.62 25.5011 889.206 25.3331 888.714 25.3331C888.402 25.3331 888.108 25.3991 887.832 25.5311C887.556 25.6511 887.316 25.8251 887.112 26.0531C886.908 26.2811 886.74 26.5511 886.608 26.8631C886.488 27.1631 886.428 27.4991 886.428 27.8711V33.8291H884.772V27.2231C884.772 26.6231 884.622 26.1611 884.322 25.8371C884.022 25.5011 883.62 25.3331 883.116 25.3331C882.828 25.3331 882.54 25.3991 882.252 25.5311C881.964 25.6511 881.706 25.8251 881.478 26.0531C881.262 26.2811 881.082 26.5511 880.938 26.8631C880.794 27.1631 880.722 27.4991 880.722 27.8711V33.8291H879.048V24.1631ZM898.571 34.0991C897.827 34.0991 897.161 33.9671 896.573 33.7031C895.997 33.4391 895.505 33.0791 895.097 32.6231C894.689 32.1551 894.377 31.6151 894.161 31.0031C893.957 30.3791 893.855 29.7131 893.855 29.0051C893.855 28.3091 893.963 27.6551 894.179 27.0431C894.407 26.4191 894.719 25.8791 895.115 25.4231C895.523 24.9551 896.009 24.5891 896.573 24.3251C897.149 24.0611 897.785 23.9291 898.481 23.9291C899.201 23.9291 899.837 24.0611 900.389 24.3251C900.941 24.5891 901.409 24.9551 901.793 25.4231C902.189 25.9031 902.483 26.4791 902.675 27.1511C902.879 27.8231 902.981 28.5731 902.981 29.4011H895.565C895.601 29.8691 895.691 30.3071 895.835 30.7151C895.979 31.1231 896.177 31.4771 896.429 31.7771C896.681 32.0771 896.987 32.3111 897.347 32.4791C897.707 32.6471 898.121 32.7311 898.589 32.7311C899.261 32.7311 899.813 32.5871 900.245 32.2991C900.689 31.9991 900.989 31.5911 901.145 31.0751H902.783C902.567 31.9751 902.087 32.7071 901.343 33.2711C900.611 33.8231 899.687 34.0991 898.571 34.0991ZM898.481 25.2251C898.049 25.2251 897.665 25.3031 897.329 25.4591C896.993 25.6031 896.705 25.8071 896.465 26.0711C896.225 26.3351 896.033 26.6471 895.889 27.0071C895.745 27.3671 895.649 27.7631 895.601 28.1951H901.199C901.151 27.2591 900.893 26.5331 900.425 26.0171C899.969 25.4891 899.321 25.2251 898.481 25.2251ZM908.575 24.1631H910.357L911.869 29.5271C911.941 29.8031 912.013 30.1031 912.085 30.4271C912.169 30.7511 912.241 31.0571 912.301 31.3451C912.373 31.6811 912.439 32.0171 912.499 32.3531H912.535C912.595 32.0411 912.661 31.7231 912.733 31.3991C912.793 31.1231 912.859 30.8231 912.931 30.4991C913.015 30.1751 913.099 29.8631 913.183 29.5631L914.641 24.1631H916.225L917.665 29.5631C917.725 29.8271 917.791 30.1211 917.863 30.4451C917.947 30.7571 918.019 31.0571 918.079 31.3451C918.151 31.6811 918.217 32.0231 918.277 32.3711H918.313C918.373 32.0471 918.433 31.7231 918.493 31.3991C918.553 31.1231 918.619 30.8171 918.691 30.4811C918.763 30.1451 918.847 29.8271 918.943 29.5271L920.545 24.1631H922.273L919.123 33.8291H917.449L916.027 28.5011C915.967 28.2611 915.901 27.9911 915.829 27.6911C915.757 27.3791 915.691 27.0851 915.631 26.8091C915.559 26.4851 915.487 26.1491 915.415 25.8011H915.379C915.307 26.1491 915.235 26.4851 915.163 26.8091C915.103 27.0851 915.037 27.3791 914.965 27.6911C914.905 28.0031 914.845 28.2731 914.785 28.5011L913.327 33.8291H911.635L908.575 24.1631ZM923.573 20.4371H925.319V22.3811H923.573V20.4371ZM923.609 24.1631H925.283V33.8291H923.609V24.1631ZM929.238 25.5311H929.292C929.64 25.0391 930.06 24.6491 930.552 24.3611C931.044 24.0731 931.644 23.9291 932.352 23.9291C933.372 23.9291 934.17 24.1991 934.746 24.7391C935.322 25.2791 935.61 26.0591 935.61 27.0791V33.8291H933.954V27.2771C933.954 26.6531 933.762 26.1731 933.378 25.8371C933.006 25.5011 932.49 25.3331 931.83 25.3331C931.458 25.3331 931.11 25.3991 930.786 25.5311C930.474 25.6511 930.204 25.8251 929.976 26.0531C929.748 26.2811 929.568 26.5571 929.436 26.8811C929.316 27.2051 929.256 27.5591 929.256 27.9431V33.8291H927.582V24.1631H929.238V25.5311ZM946.354 34.1171C945.01 34.1171 943.972 33.8291 943.24 33.2531C942.508 32.6651 942.106 31.8791 942.034 30.8951H943.726C943.774 31.2431 943.876 31.5371 944.032 31.7771C944.188 32.0171 944.38 32.2091 944.608 32.3531C944.848 32.4971 945.118 32.6051 945.418 32.6771C945.718 32.7371 946.042 32.7671 946.39 32.7671C947.158 32.7671 947.71 32.6231 948.046 32.3351C948.394 32.0351 948.568 31.6691 948.568 31.2371C948.568 30.7091 948.358 30.3431 947.938 30.1391C947.53 29.9231 946.9 29.7311 946.048 29.5631C945.58 29.4671 945.124 29.3591 944.68 29.2391C944.248 29.1191 943.864 28.9571 943.528 28.7531C943.204 28.5491 942.94 28.2791 942.736 27.9431C942.544 27.6071 942.448 27.1751 942.448 26.6471C942.448 25.8191 942.754 25.1651 943.366 24.6851C943.99 24.1931 944.866 23.9471 945.994 23.9471C947.206 23.9471 948.124 24.2051 948.748 24.7211C949.372 25.2371 949.738 25.9151 949.846 26.7551H948.172C948.1 26.2511 947.884 25.8671 947.524 25.6031C947.176 25.3391 946.654 25.2071 945.958 25.2071C945.298 25.2071 944.818 25.3391 944.518 25.6031C944.23 25.8671 944.086 26.1851 944.086 26.5571C944.086 26.8091 944.14 27.0191 944.248 27.1871C944.368 27.3431 944.536 27.4751 944.752 27.5831C944.98 27.6911 945.25 27.7811 945.562 27.8531C945.886 27.9251 946.252 28.0031 946.66 28.0871C947.14 28.1831 947.596 28.2911 948.028 28.4111C948.46 28.5311 948.838 28.6991 949.162 28.9151C949.498 29.1311 949.762 29.4191 949.954 29.7791C950.146 30.1271 950.242 30.5831 950.242 31.1471C950.242 31.6391 950.146 32.0711 949.954 32.4431C949.762 32.8151 949.492 33.1271 949.144 33.3791C948.808 33.6191 948.4 33.7991 947.92 33.9191C947.44 34.0511 946.918 34.1171 946.354 34.1171ZM951.281 24.1631H952.793V21.1211H954.449V24.1631H956.447V25.4591H954.449V31.5611C954.449 31.9091 954.533 32.1491 954.701 32.2811C954.881 32.4011 955.127 32.4611 955.439 32.4611C955.583 32.4611 955.733 32.4491 955.889 32.4251C956.057 32.3891 956.189 32.3591 956.285 32.3351H956.339V33.7391C955.883 33.8471 955.433 33.9011 954.989 33.9011C954.341 33.8891 953.813 33.7391 953.405 33.4511C952.997 33.1511 952.793 32.6471 952.793 31.9391V25.4591H951.281V24.1631ZM959.841 25.9091H959.895C960.195 25.3451 960.585 24.8951 961.065 24.5591C961.545 24.2111 962.109 24.0371 962.757 24.0371C962.889 24.0371 962.997 24.0491 963.081 24.0731C963.177 24.0851 963.273 24.1091 963.369 24.1451V25.7291H963.315C963.195 25.6931 963.087 25.6691 962.991 25.6571C962.895 25.6451 962.775 25.6391 962.631 25.6391C962.259 25.6391 961.905 25.7111 961.569 25.8551C961.233 25.9871 960.939 26.1791 960.687 26.4311C960.435 26.6831 960.231 26.9891 960.075 27.3491C959.931 27.7091 959.859 28.1171 959.859 28.5731V33.8291H958.185V24.1631H959.841V25.9091ZM968.848 34.0991C968.104 34.0991 967.438 33.9671 966.85 33.7031C966.274 33.4391 965.782 33.0791 965.374 32.6231C964.966 32.1551 964.654 31.6151 964.438 31.0031C964.234 30.3791 964.132 29.7131 964.132 29.0051C964.132 28.3091 964.24 27.6551 964.456 27.0431C964.684 26.4191 964.996 25.8791 965.392 25.4231C965.8 24.9551 966.286 24.5891 966.85 24.3251C967.426 24.0611 968.062 23.9291 968.758 23.9291C969.478 23.9291 970.114 24.0611 970.666 24.3251C971.218 24.5891 971.686 24.9551 972.07 25.4231C972.466 25.9031 972.76 26.4791 972.952 27.1511C973.156 27.8231 973.258 28.5731 973.258 29.4011H965.842C965.878 29.8691 965.968 30.3071 966.112 30.7151C966.256 31.1231 966.454 31.4771 966.706 31.7771C966.958 32.0771 967.264 32.3111 967.624 32.4791C967.984 32.6471 968.398 32.7311 968.866 32.7311C969.538 32.7311 970.09 32.5871 970.522 32.2991C970.966 31.9991 971.266 31.5911 971.422 31.0751H973.06C972.844 31.9751 972.364 32.7071 971.62 33.2711C970.888 33.8231 969.964 34.0991 968.848 34.0991ZM968.758 25.2251C968.326 25.2251 967.942 25.3031 967.606 25.4591C967.27 25.6031 966.982 25.8071 966.742 26.0711C966.502 26.3351 966.31 26.6471 966.166 27.0071C966.022 27.3671 965.926 27.7631 965.878 28.1951H971.476C971.428 27.2591 971.17 26.5331 970.702 26.0171C970.246 25.4891 969.598 25.2251 968.758 25.2251ZM977.923 34.0271C977.467 34.0271 977.035 33.9671 976.627 33.8471C976.231 33.7391 975.883 33.5711 975.583 33.3431C975.295 33.1151 975.067 32.8331 974.899 32.4971C974.731 32.1491 974.647 31.7411 974.647 31.2731C974.647 30.7091 974.743 30.2471 974.935 29.8871C975.139 29.5271 975.421 29.2391 975.781 29.0231C976.153 28.8071 976.591 28.6391 977.095 28.5191C977.611 28.3991 978.181 28.3031 978.805 28.2311C979.165 28.1951 979.489 28.1471 979.777 28.0871C980.065 28.0271 980.311 27.9491 980.515 27.8531C980.719 27.7451 980.875 27.6131 980.983 27.4571C981.091 27.3011 981.145 27.0971 981.145 26.8451C981.145 26.3171 980.965 25.9031 980.605 25.6031C980.257 25.3031 979.747 25.1531 979.075 25.1531C978.307 25.1531 977.731 25.3211 977.347 25.6571C976.975 25.9931 976.777 26.4491 976.753 27.0251H975.133C975.145 26.6171 975.235 26.2271 975.403 25.8551C975.571 25.4831 975.817 25.1531 976.141 24.8651C976.465 24.5771 976.867 24.3491 977.347 24.1811C977.839 24.0131 978.409 23.9291 979.057 23.9291C979.513 23.9291 979.939 23.9711 980.335 24.0551C980.731 24.1391 981.085 24.2711 981.397 24.4511C981.805 24.6911 982.123 25.0271 982.351 25.4591C982.579 25.8911 982.693 26.4311 982.693 27.0791V31.5971C982.693 31.9811 982.759 32.2691 982.891 32.4611C983.023 32.6531 983.299 32.7011 983.719 32.6051H983.791V33.7751C983.671 33.8111 983.539 33.8411 983.395 33.8651C983.263 33.9011 983.095 33.9191 982.891 33.9191C982.375 33.9191 981.985 33.7991 981.721 33.5591C981.457 33.3071 981.277 32.9231 981.181 32.4071H981.163C981.007 32.6231 980.827 32.8271 980.623 33.0191C980.419 33.2111 980.185 33.3851 979.921 33.5411C979.657 33.6851 979.357 33.7991 979.021 33.8831C978.697 33.9791 978.331 34.0271 977.923 34.0271ZM978.337 32.8031C978.817 32.8031 979.231 32.7251 979.579 32.5691C979.939 32.4011 980.233 32.1971 980.461 31.9571C980.701 31.7051 980.875 31.4291 980.983 31.1291C981.103 30.8291 981.163 30.5411 981.163 30.2651V28.6811C980.923 28.8371 980.605 28.9751 980.209 29.0951C979.825 29.2031 979.435 29.2931 979.039 29.3651C978.643 29.4371 978.283 29.5151 977.959 29.5991C977.635 29.6711 977.359 29.7791 977.131 29.9231C976.903 30.0551 976.723 30.2291 976.591 30.4451C976.471 30.6491 976.411 30.9191 976.411 31.2551C976.411 31.5671 976.465 31.8251 976.573 32.0291C976.681 32.2211 976.825 32.3771 977.005 32.4971C977.185 32.6171 977.389 32.7011 977.617 32.7491C977.857 32.7851 978.097 32.8031 978.337 32.8031ZM988.192 28.7351L986.824 30.0311V33.8291H985.15V20.4371H986.824V26.7911C986.824 26.9591 986.818 27.1931 986.806 27.4931C986.794 27.7811 986.776 28.0451 986.752 28.2851L990.946 24.1631H993.034L989.344 27.6371L993.466 33.8291H991.504L988.192 28.7351ZM999.687 24.1631H1001.34V25.6751H1001.4C1001.76 25.1231 1002.18 24.6971 1002.68 24.3971C1003.18 24.0851 1003.78 23.9291 1004.48 23.9291C1005.09 23.9291 1005.65 24.0491 1006.15 24.2891C1006.67 24.5171 1007.1 24.8531 1007.46 25.2971C1007.84 25.7291 1008.12 26.2631 1008.33 26.8991C1008.53 27.5231 1008.63 28.2311 1008.63 29.0231C1008.63 29.8031 1008.54 30.5051 1008.35 31.1291C1008.15 31.7531 1007.87 32.2871 1007.5 32.7311C1007.14 33.1751 1006.7 33.5171 1006.17 33.7571C1005.65 33.9971 1005.07 34.1171 1004.42 34.1171C1003.76 34.1171 1003.17 33.9851 1002.66 33.7211C1002.14 33.4571 1001.72 33.0671 1001.38 32.5511H1001.33C1001.34 32.7191 1001.34 32.9411 1001.34 33.2171C1001.36 33.4811 1001.36 33.7991 1001.36 34.1711V37.1051H999.687V24.1631ZM1004.24 32.7311C1004.69 32.7311 1005.08 32.6411 1005.41 32.4611C1005.75 32.2691 1006.02 32.0111 1006.24 31.6871C1006.47 31.3631 1006.64 30.9791 1006.74 30.5351C1006.86 30.0791 1006.92 29.5871 1006.92 29.0591C1006.92 28.5311 1006.87 28.0391 1006.76 27.5831C1006.65 27.1271 1006.49 26.7371 1006.26 26.4131C1006.04 26.0771 1005.77 25.8191 1005.43 25.6391C1005.09 25.4471 1004.7 25.3511 1004.26 25.3511C1003.74 25.3511 1003.3 25.4471 1002.93 25.6391C1002.56 25.8311 1002.24 26.0951 1001.99 26.4311C1001.75 26.7671 1001.57 27.1631 1001.45 27.6191C1001.33 28.0631 1001.27 28.5431 1001.27 29.0591C1001.27 29.5631 1001.33 30.0431 1001.43 30.4991C1001.54 30.9431 1001.72 31.3331 1001.96 31.6691C1002.2 31.9931 1002.5 32.2511 1002.87 32.4431C1003.25 32.6351 1003.7 32.7311 1004.24 32.7311ZM1012.07 25.9091H1012.12C1012.42 25.3451 1012.81 24.8951 1013.29 24.5591C1013.77 24.2111 1014.33 24.0371 1014.98 24.0371C1015.11 24.0371 1015.22 24.0491 1015.31 24.0731C1015.4 24.0851 1015.5 24.1091 1015.59 24.1451V25.7291H1015.54C1015.42 25.6931 1015.31 25.6691 1015.22 25.6571C1015.12 25.6451 1015 25.6391 1014.86 25.6391C1014.48 25.6391 1014.13 25.7111 1013.79 25.8551C1013.46 25.9871 1013.16 26.1791 1012.91 26.4311C1012.66 26.6831 1012.46 26.9891 1012.3 27.3491C1012.16 27.7091 1012.08 28.1171 1012.08 28.5731V33.8291H1010.41V24.1631H1012.07V25.9091ZM1017.19 20.4371H1018.94V22.3811H1017.19V20.4371ZM1017.23 24.1631H1018.9V33.8291H1017.23V24.1631ZM1020.84 32.5331L1025.16 26.8991C1025.26 26.7671 1025.37 26.6291 1025.5 26.4851C1025.64 26.3291 1025.76 26.1851 1025.88 26.0531C1026.01 25.8971 1026.16 25.7411 1026.31 25.5851V25.5311C1026.09 25.5431 1025.86 25.5551 1025.65 25.5671C1025.46 25.5791 1025.26 25.5851 1025.05 25.5851C1024.85 25.5851 1024.66 25.5851 1024.5 25.5851H1021.17V24.1631H1028.42V25.2071L1024.03 30.9491C1023.92 31.0811 1023.79 31.2311 1023.65 31.3991C1023.52 31.5551 1023.39 31.7051 1023.25 31.8491C1023.11 32.0171 1022.96 32.1851 1022.8 32.3531V32.4071C1023.04 32.4071 1023.28 32.4011 1023.51 32.3891C1023.71 32.3771 1023.92 32.3711 1024.14 32.3711C1024.35 32.3591 1024.55 32.3531 1024.73 32.3531H1028.64V33.8291H1020.84V32.5331ZM1034.26 34.0991C1033.51 34.0991 1032.85 33.9671 1032.26 33.7031C1031.68 33.4391 1031.19 33.0791 1030.78 32.6231C1030.37 32.1551 1030.06 31.6151 1029.85 31.0031C1029.64 30.3791 1029.54 29.7131 1029.54 29.0051C1029.54 28.3091 1029.65 27.6551 1029.86 27.0431C1030.09 26.4191 1030.4 25.8791 1030.8 25.4231C1031.21 24.9551 1031.69 24.5891 1032.26 24.3251C1032.83 24.0611 1033.47 23.9291 1034.17 23.9291C1034.89 23.9291 1035.52 24.0611 1036.07 24.3251C1036.63 24.5891 1037.09 24.9551 1037.48 25.4231C1037.87 25.9031 1038.17 26.4791 1038.36 27.1511C1038.56 27.8231 1038.67 28.5731 1038.67 29.4011H1031.25C1031.29 29.8691 1031.38 30.3071 1031.52 30.7151C1031.66 31.1231 1031.86 31.4771 1032.11 31.7771C1032.37 32.0771 1032.67 32.3111 1033.03 32.4791C1033.39 32.6471 1033.81 32.7311 1034.27 32.7311C1034.95 32.7311 1035.5 32.5871 1035.93 32.2991C1036.37 31.9991 1036.67 31.5911 1036.83 31.0751H1038.47C1038.25 31.9751 1037.77 32.7071 1037.03 33.2711C1036.3 33.8231 1035.37 34.0991 1034.26 34.0991ZM1034.17 25.2251C1033.73 25.2251 1033.35 25.3031 1033.01 25.4591C1032.68 25.6031 1032.39 25.8071 1032.15 26.0711C1031.91 26.3351 1031.72 26.6471 1031.57 27.0071C1031.43 27.3671 1031.33 27.7631 1031.29 28.1951H1036.88C1036.84 27.2591 1036.58 26.5331 1036.11 26.0171C1035.65 25.4891 1035.01 25.2251 1034.17 25.2251Z" fill="white"/>
<path fill-rule="evenodd" clip-rule="evenodd" d="M1191.65 29.7783C1191.74 29.6322 1191.78 29.4481 1191.78 29.2258V20.4421C1191.78 20.2198 1191.74 20.0388 1191.65 19.8991C1191.56 19.753 1191.42 19.6355 1191.23 19.5466C1190.69 19.2798 1190.26 18.9718 1189.92 18.6225C1189.58 18.2668 1189.25 17.7682 1188.92 17.1268C1188.72 16.7647 1188.42 16.5837 1188.04 16.5837H1171.96C1171.58 16.5837 1171.28 16.7647 1171.09 17.1268C1170.76 17.7682 1170.42 18.2668 1170.09 18.6225C1169.74 18.9718 1169.31 19.2798 1168.77 19.5466C1168.58 19.6355 1168.44 19.753 1168.35 19.8991C1168.26 20.0388 1168.22 20.2198 1168.22 20.4421V29.2258C1168.22 29.4481 1168.26 29.6322 1168.35 29.7783C1168.44 29.9181 1168.58 30.0324 1168.77 30.1213C1169.31 30.3817 1169.74 30.6897 1170.09 31.0454C1170.42 31.3947 1170.76 31.8933 1171.09 32.5411C1171.28 32.8968 1171.58 33.0746 1171.96 33.0746H1188.04C1188.42 33.0746 1188.72 32.8968 1188.92 32.5411C1189.25 31.8933 1189.58 31.3947 1189.92 31.0454C1190.26 30.6897 1190.69 30.3817 1191.23 30.1213C1191.42 30.0324 1191.56 29.9181 1191.65 29.7783ZM1184.04 25.1597V25.9739C1184.04 26.1144 1183.93 26.2282 1183.79 26.2282C1183.65 26.2282 1183.53 26.1145 1183.53 25.9739V25.1597H1182.19V25.9739C1182.19 26.1144 1182.07 26.2282 1181.93 26.2282C1181.79 26.2282 1181.68 26.1145 1181.68 25.9739V25.1597H1180.34V25.9739C1180.34 26.1144 1180.22 26.2282 1180.08 26.2282C1179.94 26.2282 1179.83 26.1145 1179.83 25.9739V25.1597H1178.48V25.9739C1178.48 26.1144 1178.37 26.2282 1178.23 26.2282C1178.09 26.2282 1177.98 26.1145 1177.98 25.9739V25.1597H1176.63V25.9739C1176.63 26.1144 1176.52 26.2282 1176.38 26.2282C1176.24 26.2282 1176.12 26.1145 1176.12 25.9739V25.1597H1175.11L1175.11 28.8075C1176.59 29.6073 1178.28 30.066 1180.08 30.066C1181.88 30.066 1183.57 29.607 1185.05 28.8075V25.1597H1184.04ZM1189.15 24.829C1189.15 23.8374 1187.32 22.3541 1186.07 21.4763V28.1824C1187.32 27.3045 1189.15 25.9214 1189.15 24.829ZM1176.12 23.8372V24.6512L1175.11 24.651V20.8507C1176.59 20.0512 1178.28 19.5923 1180.08 19.5923C1181.88 19.5923 1183.57 20.051 1185.05 20.8506V24.6512H1184.04V23.8372C1184.04 23.6967 1183.93 23.5829 1183.79 23.5829C1183.65 23.5829 1183.53 23.6967 1183.53 23.8372V24.6512H1182.19V23.8372C1182.19 23.6967 1182.07 23.5829 1181.93 23.5829C1181.79 23.5829 1181.68 23.6967 1181.68 23.8372V24.6512H1180.34V23.8372C1180.34 23.6967 1180.22 23.5829 1180.08 23.5829C1179.94 23.5829 1179.83 23.6967 1179.83 23.8372V24.6512H1178.48V23.8372C1178.48 23.6967 1178.37 23.5829 1178.23 23.5829C1178.09 23.5829 1177.98 23.6967 1177.98 23.8372V24.6512H1176.63V23.8372C1176.63 23.6967 1176.52 23.5829 1176.38 23.5829C1176.24 23.5829 1176.12 23.6967 1176.12 23.8372ZM1170.85 24.829C1170.85 23.8374 1172.68 22.3541 1173.93 21.4763V28.1824C1172.68 27.3045 1170.85 25.9214 1170.85 24.829Z" fill="white"/>
<path d="M1224 51.8291H809V53.8291H1224V51.8291Z" fill="white" mask="url(#path-17-inside-4_4719_145475)"/>
<path d="M859.96 91.5251H841.144V98.1011H846.952V129.829H854.056V98.1011H859.96V91.5251ZM880.257 103.429L878.145 122.821L875.361 103.429H868.785L866.337 122.821L863.889 103.429H857.361L862.113 129.829H869.793C869.793 129.829 871.473 120.469 872.001 117.349C872.049 117.061 872.097 114.613 872.097 114.613C872.097 114.613 872.241 117.061 872.289 117.349C872.817 120.373 874.449 129.829 874.449 129.829H882.033L886.641 103.429H880.257ZM903.614 108.469C902.75 105.445 900.446 103.093 895.694 103.093C890.942 103.093 888.59 105.685 887.822 108.325C887.15 110.581 886.814 113.749 886.814 116.581C886.814 119.509 887.198 123.061 887.63 124.645C888.542 127.957 891.278 130.165 895.598 130.165C900.158 130.165 902.606 128.005 903.566 124.645C904.142 122.725 904.43 119.461 904.43 116.581C904.43 113.749 904.19 110.437 903.614 108.469ZM897.902 123.061C897.758 124.069 896.846 124.933 895.646 124.933C894.494 124.933 893.63 124.309 893.438 123.109C893.198 121.861 893.15 118.741 893.15 116.677C893.15 114.709 893.198 111.493 893.438 110.389C893.726 109.189 894.398 108.517 895.646 108.517C896.942 108.517 897.614 109.045 897.902 110.293C898.094 111.301 898.19 114.661 898.19 116.677C898.19 118.693 898.238 120.757 897.902 123.061ZM933.266 91.5251H926.738V110.245L920.738 91.5251H914.066V129.829H920.594V110.725L926.642 129.829H933.266V91.5251ZM953.182 91.5251H936.238V129.829H943.246V113.845H952.414V107.413H943.246V98.1011H953.182V91.5251ZM972.124 123.349H961.996V91.5251H954.988V129.829H972.124V123.349ZM1000.87 120.901V108.181H990.359V114.229H994.247C994.247 114.229 994.295 120.469 994.247 121.285C994.151 123.253 992.999 124.261 991.223 124.261C989.639 124.261 988.823 123.445 988.487 121.717C987.911 118.693 987.911 113.701 987.911 110.773C987.911 107.653 987.959 103.045 988.439 99.7331C988.679 98.1011 989.735 97.3811 991.079 97.3811C992.567 97.3811 993.479 98.1971 993.623 99.7331C993.815 101.701 993.815 104.341 993.815 104.629H1000.68C1000.68 101.221 1000.54 99.3011 1000.25 97.5731C999.671 94.1171 997.127 91.1891 990.935 91.1891C984.887 91.1891 982.343 94.5971 981.527 97.6691C980.663 100.981 980.567 106.789 980.567 110.773C980.567 114.901 980.711 120.277 981.527 123.733C982.535 127.957 985.559 130.165 989.591 130.165C992.519 130.165 994.487 129.349 995.447 128.101L995.783 129.829H1000.97C1000.97 129.781 1000.87 125.317 1000.87 120.901ZM1019.45 125.125C1019.45 123.157 1019.49 119.941 1019.49 117.877C1019.54 115.429 1019.59 111.445 1019.49 109.141C1019.35 105.445 1017.05 103.093 1011.53 103.093C1005.67 103.093 1003.27 105.733 1003.27 110.677V112.645H1009.22V111.157C1009.22 109.333 1009.8 108.421 1011.43 108.421C1012.63 108.421 1013.25 109.093 1013.3 110.245C1013.35 111.061 1013.35 112.693 1013.35 113.413C1012.29 113.413 1011.19 113.557 1009.99 113.749C1005.57 114.565 1002.6 116.965 1002.36 120.805C1002.26 122.197 1002.31 124.453 1002.36 125.029C1002.55 128.869 1005.48 130.021 1008.12 130.021C1010.47 130.021 1012.25 129.397 1013.45 127.909C1013.45 128.581 1013.59 129.829 1013.69 129.829H1019.78C1019.54 129.493 1019.45 127.045 1019.45 125.125ZM1013.35 119.749C1013.25 121.093 1013.35 121.765 1013.11 123.157C1012.87 124.501 1011.72 125.029 1010.71 125.029C1009.75 125.029 1008.98 124.693 1008.84 123.781C1008.74 123.013 1008.74 122.101 1008.74 121.381C1008.74 120.277 1008.79 119.509 1009.61 118.789C1010.33 118.165 1011.14 118.021 1011.81 117.877C1012.39 117.781 1012.87 117.781 1013.35 117.781C1013.35 118.165 1013.4 119.221 1013.35 119.749ZM1047.94 129.829C1047.99 129.829 1047.89 129.061 1047.89 108.613C1047.89 105.301 1046.45 103.045 1042.8 103.045C1040.35 103.045 1038.48 104.101 1037.67 106.117C1036.99 104.245 1035.6 103.045 1033.2 103.045C1030.42 103.045 1028.69 104.293 1028.07 105.925V103.429H1021.87V129.829H1028.21V111.109C1028.21 109.813 1028.98 108.613 1030.27 108.613C1031.38 108.613 1031.91 109.333 1031.91 110.485V129.829H1038.1V110.917C1038.1 109.717 1038.82 108.613 1040.07 108.613C1041.41 108.613 1041.75 109.525 1041.75 110.581C1041.75 129.061 1041.75 129.829 1041.79 129.829H1047.94ZM1060.98 121.237C1060.98 121.909 1060.89 122.725 1060.69 123.541C1060.45 124.597 1059.45 125.029 1058.49 125.029C1057.53 125.029 1056.42 124.453 1056.28 123.157C1056.13 121.957 1056.09 120.037 1056.09 118.837H1066.98C1067.22 114.325 1066.89 109.717 1065.97 107.461C1064.87 104.773 1062.33 103.093 1058.63 103.093C1054.07 103.093 1052.05 105.157 1051.09 107.509C1050.37 109.237 1049.85 112.789 1049.85 116.773C1049.85 120.853 1050.18 123.877 1051.29 126.421C1052.44 129.109 1055.17 130.165 1058.73 130.165C1062.28 130.165 1064.44 128.725 1065.59 126.661C1066.6 124.885 1066.84 122.005 1066.84 121.237H1060.98ZM1055.99 114.133C1055.99 112.309 1056.04 110.581 1056.37 109.765C1056.71 108.853 1057.48 108.373 1058.53 108.373C1059.64 108.373 1060.36 108.901 1060.6 109.813C1060.79 110.437 1060.93 111.733 1060.93 114.133H1055.99ZM1093.87 91.5251H1075.05V98.1011H1080.86V129.829H1087.96V98.1011H1093.87V91.5251ZM1101.01 95.5571H1094.25V102.037H1101.01V95.5571ZM1100.92 127.909V103.429H1094.34V128.005C1094.34 129.061 1094.34 129.829 1094.58 129.829H1101.06C1101.01 129.781 1100.92 128.917 1100.92 127.909ZM1119.47 107.893C1118.6 105.157 1116.59 103.093 1111.64 103.093C1107.9 103.093 1105.21 104.773 1104.25 107.605C1103.29 110.485 1103 112.789 1103 116.629C1103 120.613 1103.58 124.597 1104.35 126.325C1105.4 128.725 1107.95 130.165 1111.74 130.165C1115.63 130.165 1118.12 128.437 1118.99 126.229C1119.9 123.925 1119.95 122.821 1119.95 119.221H1113.99C1113.99 120.901 1113.99 121.429 1113.8 122.821C1113.66 123.925 1112.99 124.789 1111.74 124.789C1110.49 124.789 1109.87 124.213 1109.67 122.869C1109.39 120.901 1109.29 118.213 1109.29 116.677C1109.29 114.757 1109.39 112.357 1109.67 110.485C1109.87 109.189 1110.54 108.517 1111.69 108.517C1113.03 108.517 1113.51 109.381 1113.66 110.437C1113.8 111.445 1113.95 112.645 1113.95 114.181H1119.95C1119.95 110.965 1119.8 109.045 1119.47 107.893ZM1134.53 113.029L1139.52 103.429H1133.28L1128.15 113.557V91.4771H1121.81V129.829H1128.15V121.909L1130.02 118.885L1133.33 129.829H1139.76L1134.53 113.029ZM1150.79 121.237C1150.79 121.909 1150.7 122.725 1150.51 123.541C1150.27 124.597 1149.26 125.029 1148.3 125.029C1147.34 125.029 1146.23 124.453 1146.09 123.157C1145.95 121.957 1145.9 120.037 1145.9 118.837H1156.79C1157.03 114.325 1156.7 109.717 1155.79 107.461C1154.68 104.773 1152.14 103.093 1148.44 103.093C1143.88 103.093 1141.87 105.157 1140.91 107.509C1140.19 109.237 1139.66 112.789 1139.66 116.773C1139.66 120.853 1139.99 123.877 1141.1 126.421C1142.25 129.109 1144.99 130.165 1148.54 130.165C1152.09 130.165 1154.25 128.725 1155.4 126.661C1156.41 124.885 1156.65 122.005 1156.65 121.237H1150.79ZM1145.8 114.133C1145.8 112.309 1145.85 110.581 1146.19 109.765C1146.52 108.853 1147.29 108.373 1148.35 108.373C1149.45 108.373 1150.17 108.901 1150.41 109.813C1150.6 110.437 1150.75 111.733 1150.75 114.133H1145.8ZM1170.03 103.429H1166.33V98.3411L1160.09 98.4851C1160.09 98.4851 1159.9 103.285 1159.85 103.429H1157.5V109.045H1159.76V124.069C1159.76 128.197 1162.06 130.021 1166 130.021C1167.68 130.021 1168.73 129.925 1169.74 129.685V124.549C1169.26 124.645 1168.64 124.693 1168.11 124.693C1167.1 124.693 1166.29 124.405 1166.29 122.917V109.045H1170.03V103.429ZM1182.87 114.901C1181.67 114.277 1180.47 113.749 1179.27 113.173C1177.73 112.453 1177.2 111.637 1177.2 110.341C1177.2 109.237 1177.68 108.325 1179.17 108.325C1180.51 108.325 1180.95 109.093 1181.04 109.909C1181.09 110.101 1181.14 111.589 1181.14 111.877H1186.95C1186.95 111.349 1186.8 108.565 1186.66 107.797C1186.03 104.869 1183.59 103.045 1178.93 103.045C1173.84 103.045 1171.25 106.021 1171.25 110.197C1171.25 114.133 1172.4 116.581 1175.86 118.213C1176.82 118.645 1178.11 119.269 1178.93 119.605C1180.75 120.325 1181.38 121.237 1181.38 122.869C1181.38 124.357 1180.47 125.077 1179.27 125.077C1178.11 125.077 1177.2 124.597 1177.11 123.493C1177.06 122.677 1177.01 121.861 1177.01 121.525H1171.06C1171.06 122.341 1171.11 124.021 1171.2 124.885C1171.63 128.437 1174.03 130.213 1179.41 130.213C1184.16 130.213 1187.47 127.669 1187.47 122.677C1187.47 118.645 1186.23 116.581 1182.87 114.901ZM857.8 164.181H852.568V158.277H846.904V164.181H841.576V169.797H846.904V175.749H852.52V169.797H857.8V164.181ZM866.374 156.453C866.374 161.973 867.67 164.037 872.47 168.261C877.99 172.149 878.422 173.397 878.422 177.045C878.422 179.157 877.606 180.213 875.83 180.213C874.054 180.213 873.046 179.349 872.902 177.909C872.806 176.901 872.806 175.461 872.806 174.885H866.278C866.278 175.701 866.278 178.149 866.326 178.725C866.566 182.805 869.206 185.205 874.006 185.637V188.181H877.606V185.589C882.502 184.965 885.142 181.749 885.142 176.565C885.142 170.517 883.702 168.261 878.806 164.421C874.054 160.725 872.95 159.237 872.95 156.501C872.95 154.629 873.814 153.525 875.686 153.525C877.558 153.525 878.182 154.677 878.326 156.069C878.422 156.885 878.47 158.181 878.47 159.189H884.95C884.95 158.277 884.95 156.549 884.806 155.445C884.374 151.509 882.502 148.437 877.606 147.813V146.757H874.006V147.765C868.87 148.341 866.374 151.797 866.374 156.453ZM898.199 147.477H893.015C892.487 148.629 891.143 150.837 886.199 151.173V156.693L891.479 156.453V185.829H898.199V147.477ZM901.171 154.533C900.739 157.461 900.691 162.357 900.691 166.629C900.691 169.749 900.931 175.749 901.315 178.341C902.083 183.429 904.579 186.213 910.147 186.213C915.523 186.213 918.259 183.381 918.931 178.341C919.363 175.365 919.555 169.557 919.555 166.629C919.555 162.693 919.363 157.749 919.075 154.485C918.739 150.597 915.859 147.141 910.147 147.141C903.955 147.141 901.795 150.549 901.171 154.533ZM912.499 177.621C912.403 179.397 911.683 180.405 910.147 180.405C908.611 180.405 907.891 179.445 907.747 177.621C907.651 175.941 907.507 170.373 907.507 166.677C907.507 164.133 907.651 159.717 907.651 156.165C907.651 154.341 908.467 153.237 910.099 153.237C911.683 153.237 912.451 154.245 912.547 156.117C912.595 157.797 912.643 162.741 912.643 166.533C912.643 169.605 912.595 176.085 912.499 177.621ZM921.655 154.533C921.223 157.461 921.175 162.357 921.175 166.629C921.175 169.749 921.415 175.749 921.799 178.341C922.567 183.429 925.063 186.213 930.631 186.213C936.007 186.213 938.743 183.381 939.415 178.341C939.847 175.365 940.039 169.557 940.039 166.629C940.039 162.693 939.847 157.749 939.559 154.485C939.223 150.597 936.343 147.141 930.631 147.141C924.439 147.141 922.279 150.549 921.655 154.533ZM932.983 177.621C932.887 179.397 932.167 180.405 930.631 180.405C929.095 180.405 928.375 179.445 928.231 177.621C928.135 175.941 927.991 170.373 927.991 166.677C927.991 164.133 928.135 159.717 928.135 156.165C928.135 154.341 928.951 153.237 930.583 153.237C932.167 153.237 932.935 154.245 933.031 156.117C933.079 157.797 933.127 162.741 933.127 166.533C933.127 169.605 933.079 176.085 932.983 177.621ZM962.844 165.813C962.124 165.141 960.3 163.509 959.34 162.645C957.18 160.677 955.548 158.805 955.548 156.165C955.548 154.149 956.46 153.285 958.332 153.285C960.156 153.285 960.828 154.245 961.02 155.781C961.164 157.029 961.212 157.941 961.212 158.901H967.932C967.932 157.797 967.74 155.781 967.644 154.965C967.068 150.597 964.476 147.141 958.38 147.141C952.332 147.141 948.684 150.741 948.684 156.309C948.684 161.493 950.508 163.941 953.964 166.965C954.972 167.829 956.94 169.605 957.42 170.037C960.252 172.581 961.212 174.261 961.212 177.477C961.212 179.397 960.204 180.453 958.332 180.453C956.604 180.453 955.74 179.589 955.548 178.341C955.5 178.053 955.452 176.709 955.452 174.933H948.78C948.78 177.237 948.732 177.717 948.876 179.493C949.212 183.765 952.476 186.261 958.524 186.261C964.284 186.261 968.124 182.805 968.124 176.853C968.124 171.717 966.3 169.077 962.844 165.813ZM986.827 165.525C986.827 160.917 984.571 159.093 981.307 159.093C978.667 159.093 977.179 160.101 976.459 161.877V147.477H970.123V185.829H976.459V167.445C976.459 165.621 977.371 164.709 978.619 164.709C980.011 164.709 980.443 165.477 980.443 166.677C980.443 185.109 980.443 185.829 980.491 185.829H986.923C986.875 185.829 986.827 185.109 986.827 165.525ZM1005.47 164.469C1004.61 161.445 1002.31 159.093 997.553 159.093C992.801 159.093 990.449 161.685 989.681 164.325C989.009 166.581 988.673 169.749 988.673 172.581C988.673 175.509 989.057 179.061 989.489 180.645C990.401 183.957 993.137 186.165 997.457 186.165C1002.02 186.165 1004.47 184.005 1005.43 180.645C1006 178.725 1006.29 175.461 1006.29 172.581C1006.29 169.749 1006.05 166.437 1005.47 164.469ZM999.761 179.061C999.617 180.069 998.705 180.933 997.505 180.933C996.353 180.933 995.489 180.309 995.297 179.109C995.057 177.861 995.009 174.741 995.009 172.677C995.009 170.709 995.057 167.493 995.297 166.389C995.585 165.189 996.257 164.517 997.505 164.517C998.801 164.517 999.473 165.045 999.761 166.293C999.953 167.301 1000.05 170.661 1000.05 172.677C1000.05 174.693 1000.1 176.757 999.761 179.061ZM1024.84 162.789C1023.93 160.197 1022.2 159.093 1019.46 159.093C1017.01 159.093 1015.24 160.005 1014.52 161.445L1014.47 159.429H1008.37V193.653H1014.66V184.341C1015.53 185.205 1016.97 185.877 1019.22 185.877C1022.2 185.877 1024.12 184.437 1025.08 181.461C1025.65 179.637 1025.99 175.989 1025.99 172.197C1025.99 168.213 1025.61 164.853 1024.84 162.789ZM1019.12 178.869C1018.93 179.829 1018.26 180.741 1017.01 180.741C1015.91 180.741 1015.19 180.165 1015 178.917C1014.71 177.141 1014.61 175.413 1014.61 172.389C1014.61 169.653 1014.81 167.685 1015.14 166.293C1015.38 165.333 1015.91 164.565 1017.06 164.565C1018.21 164.565 1018.79 165.141 1019.03 166.005C1019.41 167.445 1019.51 169.605 1019.51 172.389C1019.51 175.509 1019.41 177.237 1019.12 178.869ZM1048.7 175.365C1048.7 172.965 1048.41 170.181 1047.55 168.645C1046.69 167.061 1045.49 166.293 1043.61 166.053C1045.2 165.765 1046.25 165.093 1046.97 163.605C1047.89 161.685 1048.03 159.237 1048.03 156.693C1048.03 154.293 1047.74 151.989 1046.83 150.405C1045.68 148.389 1043.52 147.525 1040.3 147.525H1028.21V185.829H1039.58C1043.13 185.829 1045.39 185.349 1047.02 183.141C1048.32 181.365 1048.7 178.293 1048.7 175.365ZM1040.25 162.645C1039.82 163.557 1039.29 163.941 1038.77 163.941H1035.07V153.237H1038.29C1039.29 153.237 1039.87 153.813 1040.21 154.629C1040.49 155.349 1040.78 156.885 1040.78 158.421C1040.78 160.293 1040.54 162.021 1040.25 162.645ZM1038.48 180.117H1035.07V169.317H1038.62C1039.53 169.317 1040.25 169.893 1040.69 170.661C1041.02 171.285 1041.21 173.349 1041.21 174.597C1041.21 175.797 1041.07 178.053 1040.73 178.773C1040.3 179.733 1039.39 180.117 1038.48 180.117ZM1061.45 177.237C1061.45 177.909 1061.35 178.725 1061.16 179.541C1060.92 180.597 1059.91 181.029 1058.95 181.029C1057.99 181.029 1056.89 180.453 1056.75 179.157C1056.6 177.957 1056.55 176.037 1056.55 174.837H1067.45C1067.69 170.325 1067.35 165.717 1066.44 163.461C1065.34 160.773 1062.79 159.093 1059.1 159.093C1054.54 159.093 1052.52 161.157 1051.56 163.509C1050.84 165.237 1050.31 168.789 1050.31 172.773C1050.31 176.853 1050.65 179.877 1051.75 182.421C1052.91 185.109 1055.64 186.165 1059.19 186.165C1062.75 186.165 1064.91 184.725 1066.06 182.661C1067.07 180.885 1067.31 178.005 1067.31 177.237H1061.45ZM1056.46 170.133C1056.46 168.309 1056.51 166.581 1056.84 165.765C1057.18 164.853 1057.95 164.373 1059 164.373C1060.11 164.373 1060.83 164.901 1061.07 165.813C1061.26 166.437 1061.4 167.733 1061.4 170.133H1056.46ZM1079.97 177.237C1079.97 177.909 1079.87 178.725 1079.68 179.541C1079.44 180.597 1078.43 181.029 1077.47 181.029C1076.51 181.029 1075.41 180.453 1075.26 179.157C1075.12 177.957 1075.07 176.037 1075.07 174.837H1085.97C1086.21 170.325 1085.87 165.717 1084.96 163.461C1083.85 160.773 1081.31 159.093 1077.61 159.093C1073.05 159.093 1071.04 161.157 1070.08 163.509C1069.36 165.237 1068.83 168.789 1068.83 172.773C1068.83 176.853 1069.17 179.877 1070.27 182.421C1071.42 185.109 1074.16 186.165 1077.71 186.165C1081.26 186.165 1083.42 184.725 1084.57 182.661C1085.58 180.885 1085.82 178.005 1085.82 177.237H1079.97ZM1074.97 170.133C1074.97 168.309 1075.02 166.581 1075.36 165.765C1075.69 164.853 1076.46 164.373 1077.52 164.373C1078.62 164.373 1079.34 164.901 1079.58 165.813C1079.77 166.437 1079.92 167.733 1079.92 170.133H1074.97ZM1098.87 159.093C1096.66 159.093 1094.45 160.533 1094.16 162.549V159.429H1087.83V185.829H1094.26V170.181C1094.26 165.861 1095.6 164.901 1097.81 164.901C1099.11 164.901 1100.4 165.141 1101.17 165.381V159.333C1100.64 159.141 1099.87 159.093 1098.87 159.093ZM1122.23 176.901V164.181H1111.72V170.229H1115.61C1115.61 170.229 1115.65 176.469 1115.61 177.285C1115.51 179.253 1114.36 180.261 1112.58 180.261C1111 180.261 1110.18 179.445 1109.85 177.717C1109.27 174.693 1109.27 169.701 1109.27 166.773C1109.27 163.653 1109.32 159.045 1109.8 155.733C1110.04 154.101 1111.09 153.381 1112.44 153.381C1113.93 153.381 1114.84 154.197 1114.98 155.733C1115.17 157.701 1115.17 160.341 1115.17 160.629H1122.04C1122.04 157.221 1121.89 155.301 1121.61 153.573C1121.03 150.117 1118.49 147.189 1112.29 147.189C1106.25 147.189 1103.7 150.597 1102.89 153.669C1102.02 156.981 1101.93 162.789 1101.93 166.773C1101.93 170.901 1102.07 176.277 1102.89 179.733C1103.89 183.957 1106.92 186.165 1110.95 186.165C1113.88 186.165 1115.85 185.349 1116.81 184.101L1117.14 185.829H1122.33C1122.33 185.781 1122.23 181.317 1122.23 176.901ZM1135 177.237C1135 177.909 1134.9 178.725 1134.71 179.541C1134.47 180.597 1133.46 181.029 1132.5 181.029C1131.54 181.029 1130.44 180.453 1130.29 179.157C1130.15 177.957 1130.1 176.037 1130.1 174.837H1141C1141.24 170.325 1140.9 165.717 1139.99 163.461C1138.89 160.773 1136.34 159.093 1132.65 159.093C1128.09 159.093 1126.07 161.157 1125.11 163.509C1124.39 165.237 1123.86 168.789 1123.86 172.773C1123.86 176.853 1124.2 179.877 1125.3 182.421C1126.45 185.109 1129.19 186.165 1132.74 186.165C1136.29 186.165 1138.45 184.725 1139.61 182.661C1140.61 180.885 1140.85 178.005 1140.85 177.237H1135ZM1130.01 170.133C1130.01 168.309 1130.05 166.581 1130.39 165.765C1130.73 164.853 1131.49 164.373 1132.55 164.373C1133.65 164.373 1134.37 164.901 1134.61 165.813C1134.81 166.437 1134.95 167.733 1134.95 170.133H1130.01ZM1159.32 181.125C1159.32 179.157 1159.37 175.941 1159.37 173.877C1159.42 171.429 1159.47 167.445 1159.37 165.141C1159.23 161.445 1156.92 159.093 1151.4 159.093C1145.55 159.093 1143.15 161.733 1143.15 166.677V168.645H1149.1V167.157C1149.1 165.333 1149.67 164.421 1151.31 164.421C1152.51 164.421 1153.13 165.093 1153.18 166.245C1153.23 167.061 1153.23 168.693 1153.23 169.413C1152.17 169.413 1151.07 169.557 1149.87 169.749C1145.45 170.565 1142.47 172.965 1142.23 176.805C1142.14 178.197 1142.19 180.453 1142.23 181.029C1142.43 184.869 1145.35 186.021 1147.99 186.021C1150.35 186.021 1152.12 185.397 1153.32 183.909C1153.32 184.581 1153.47 185.829 1153.56 185.829H1159.66C1159.42 185.493 1159.32 183.045 1159.32 181.125ZM1153.23 175.749C1153.13 177.093 1153.23 177.765 1152.99 179.157C1152.75 180.501 1151.59 181.029 1150.59 181.029C1149.63 181.029 1148.86 180.693 1148.71 179.781C1148.62 179.013 1148.62 178.101 1148.62 177.381C1148.62 176.277 1148.67 175.509 1149.48 174.789C1150.2 174.165 1151.02 174.021 1151.69 173.877C1152.27 173.781 1152.75 173.781 1153.23 173.781C1153.23 174.165 1153.27 175.221 1153.23 175.749ZM1172.79 159.093C1170.58 159.093 1168.37 160.533 1168.08 162.549V159.429H1161.75V185.829H1168.18V170.181C1168.18 165.861 1169.52 164.901 1171.73 164.901C1173.03 164.901 1174.32 165.141 1175.09 165.381V159.333C1174.56 159.141 1173.8 159.093 1172.79 159.093ZM862.168 232.901V220.181H851.656V226.229H855.544C855.544 226.229 855.592 232.469 855.544 233.285C855.448 235.253 854.296 236.261 852.52 236.261C850.936 236.261 850.12 235.445 849.784 233.717C849.208 230.693 849.208 225.701 849.208 222.773C849.208 219.653 849.256 215.045 849.736 211.733C849.976 210.101 851.032 209.381 852.376 209.381C853.864 209.381 854.776 210.197 854.92 211.733C855.112 213.701 855.112 216.341 855.112 216.629H861.976C861.976 213.221 861.832 211.301 861.544 209.573C860.968 206.117 858.424 203.189 852.232 203.189C846.184 203.189 843.64 206.597 842.824 209.669C841.96 212.981 841.864 218.789 841.864 222.773C841.864 226.901 842.008 232.277 842.824 235.733C843.832 239.957 846.856 242.165 850.888 242.165C853.816 242.165 855.784 241.349 856.744 240.101L857.08 241.829H862.264C862.264 241.781 862.168 237.317 862.168 232.901ZM871.046 207.557H864.278V214.037H871.046V207.557ZM870.95 239.909V215.429H864.374V240.005C864.374 241.061 864.374 241.829 864.614 241.829H871.094C871.046 241.781 870.95 240.917 870.95 239.909ZM884.746 215.429H881.29V210.533C881.29 209.573 881.866 208.517 883.162 208.517C883.69 208.517 884.458 208.565 885.082 208.661V203.429C884.362 203.333 882.97 203.285 881.29 203.285C876.538 203.285 874.858 206.117 874.858 209.717V215.429H872.506V221.045H874.858V241.829H881.29V221.045H884.746V215.429ZM897.546 215.429H893.85V210.341L887.61 210.485C887.61 210.485 887.418 215.285 887.37 215.429H885.018V221.045H887.274V236.069C887.274 240.197 889.578 242.021 893.514 242.021C895.194 242.021 896.25 241.925 897.258 241.685V236.549C896.778 236.645 896.154 236.693 895.626 236.693C894.618 236.693 893.802 236.405 893.802 234.917V221.045H897.546V215.429ZM919.903 228.005C919.903 228.869 919.855 231.317 919.615 233.285C919.375 235.205 918.223 235.829 916.879 235.829C915.583 235.829 914.431 235.157 914.095 233.429C913.663 231.029 913.567 226.613 913.567 222.437C913.567 217.061 913.663 213.701 914.095 211.925C914.431 210.581 915.295 209.813 916.879 209.813C918.271 209.813 919.183 210.629 919.375 211.829C919.711 213.749 919.855 215.813 919.855 217.589H926.671C926.671 215.237 926.527 213.029 926.287 211.205C925.615 206.117 922.927 203.237 917.023 203.237C911.359 203.237 908.287 205.589 907.327 210.149C906.463 214.229 906.223 217.349 906.223 222.485C906.223 227.525 906.607 233.285 907.567 236.357C908.623 239.909 911.263 242.261 916.639 242.261C922.543 242.261 925.423 239.669 926.287 235.013C926.719 232.565 926.719 229.301 926.719 228.005H919.903ZM945.196 237.125C945.196 235.157 945.244 231.941 945.244 229.877C945.292 227.429 945.34 223.445 945.244 221.141C945.1 217.445 942.796 215.093 937.276 215.093C931.42 215.093 929.02 217.733 929.02 222.677V224.645H934.972V223.157C934.972 221.333 935.548 220.421 937.18 220.421C938.38 220.421 939.004 221.093 939.052 222.245C939.1 223.061 939.1 224.693 939.1 225.413C938.044 225.413 936.94 225.557 935.74 225.749C931.324 226.565 928.348 228.965 928.108 232.805C928.012 234.197 928.06 236.453 928.108 237.029C928.3 240.869 931.228 242.021 933.868 242.021C936.22 242.021 937.996 241.397 939.196 239.909C939.196 240.581 939.34 241.829 939.436 241.829H945.532C945.292 241.493 945.196 239.045 945.196 237.125ZM939.1 231.749C939.004 233.093 939.1 233.765 938.86 235.157C938.62 236.501 937.468 237.029 936.46 237.029C935.5 237.029 934.732 236.693 934.588 235.781C934.492 235.013 934.492 234.101 934.492 233.381C934.492 232.277 934.54 231.509 935.356 230.789C936.076 230.165 936.892 230.021 937.564 229.877C938.14 229.781 938.62 229.781 939.1 229.781C939.1 230.165 939.148 231.221 939.1 231.749ZM958.663 215.093C956.455 215.093 954.247 216.533 953.959 218.549V215.429H947.623V241.829H954.055V226.181C954.055 221.861 955.399 220.901 957.607 220.901C958.903 220.901 960.199 221.141 960.967 221.381V215.333C960.439 215.141 959.671 215.093 958.663 215.093ZM962.448 219.317C961.68 222.197 961.44 224.837 961.44 228.725C961.44 232.949 961.92 236.453 962.784 238.565C963.744 240.965 965.52 242.021 968.16 242.021C970.512 242.021 972.096 241.253 972.96 239.909L973.728 241.829H979.104C979.104 241.829 978.912 239.621 978.912 238.133V203.477H972.624V217.349C971.904 215.957 970.176 215.189 968.16 215.189C965.328 215.189 963.12 216.725 962.448 219.317ZM972.192 222.101C972.48 223.541 972.672 224.981 972.672 228.773C972.672 231.077 972.576 233.477 972.24 235.157C972.048 236.165 971.424 236.933 970.176 236.933C968.88 236.933 968.208 236.309 968.064 235.301C967.824 233.333 967.728 230.981 967.728 228.773C967.728 226.517 967.824 224.261 968.16 222.341C968.352 221.381 969.024 220.661 970.224 220.661C971.424 220.661 972 221.189 972.192 222.101Z" fill="white"/>
</g>
<path d="M809 0.829102H1224H809ZM1224 284.829H809H1224ZM808 284.829V0.829102H810V284.829H808ZM1224 0.829102V284.829V0.829102Z" fill="white" mask="url(#path-15-inside-3_4719_145475)"/>
<rect x="624.5" y="1.3291" width="599" height="283" rx="11.5" stroke="white"/>
<defs>
<clipPath id="clip0_4719_145475">
<path d="M185 0.829102H600V284.829H185V0.829102Z" fill="white"/>
</clipPath>
<clipPath id="clip1_4719_145475">
<path d="M809 0.829102H1224V284.829H809V0.829102Z" fill="white"/>
</clipPath>
</defs>
</svg>
