<svg width="100%" height="auto" viewBox="0 0 1224 285" fill="none" xmlns="http://www.w3.org/2000/svg">
<path d="M80.28 69.5571H66.456C65.048 72.6291 61.464 78.5171 48.28 79.4131V94.1331L62.36 93.4931V171.829H80.28V69.5571ZM133.774 99.6371C134.03 94.7731 134.03 90.0371 133.902 87.2211C133.134 76.3411 125.966 68.6611 111.118 68.6611C97.038 68.6611 89.358 76.9811 88.334 86.4531C87.95 89.3971 87.95 95.4131 87.95 101.301H104.718C104.718 97.0771 104.846 93.2371 104.974 90.4211C105.23 86.9651 107.022 84.6611 110.734 84.6611C114.062 84.6611 115.854 86.0691 116.238 89.9091C116.494 91.8291 116.366 100.021 115.982 103.221C115.342 108.213 113.55 110.517 107.918 111.029H98.062V127.029C98.062 127.029 106.894 127.157 107.406 127.157C113.934 127.541 116.494 129.845 117.006 135.477C117.262 138.933 117.39 145.205 117.006 151.349C116.75 155.701 114.574 157.877 110.35 157.877C106.894 157.877 104.718 156.341 104.334 153.141C103.694 147.765 103.95 146.485 103.95 139.317H86.03C86.03 146.997 86.158 148.021 86.798 155.445C87.822 166.453 95.886 172.853 110.734 172.853C125.838 172.853 134.798 165.173 135.95 153.141C136.462 147.637 136.462 138.037 135.95 132.917C135.054 123.829 128.782 117.941 118.158 117.173C128.91 116.021 133.262 108.213 133.774 99.6371Z" fill="white"/>
<path d="M80.0281 201.573C80.0281 201.573 77.5981 212.139 77.5981 212.571C77.5981 212.139 75.3661 201.573 75.3661 201.573H72.7381C72.7381 201.573 70.5241 212.139 70.5241 212.571C70.5241 212.139 68.0941 201.573 68.0941 201.573H65.5921L69.0121 215.829H71.6941C71.6941 215.829 74.0161 205.281 74.0161 204.813C74.0341 205.281 76.2661 215.829 76.2661 215.829H78.9661L82.3501 201.573H80.0281ZM88.8421 201.573H86.4121V215.829H88.8421V201.573ZM103.883 201.573H101.633V211.293L96.7729 201.573H94.0909V215.829H96.3409V205.857L101.345 215.829H103.883V201.573ZM115.346 207.891C114.95 207.747 114.104 207.423 113.6 207.261C111.854 206.685 110.99 206.127 110.99 205.011C110.99 204.057 111.638 203.481 113.456 203.481C115.004 203.481 115.724 203.913 116.03 204.795C116.138 205.119 116.192 205.389 116.192 205.695H118.604C118.604 205.155 118.514 204.723 118.388 204.291C117.884 202.527 116.444 201.411 113.51 201.411C110.144 201.411 108.56 202.887 108.56 205.083C108.56 207.189 109.946 208.449 112.088 209.151C112.682 209.349 113.528 209.673 113.888 209.799C115.796 210.465 116.372 211.041 116.372 212.247C116.372 213.327 115.598 213.975 113.78 213.975C112.232 213.975 111.332 213.579 111.062 212.733C110.954 212.391 110.9 211.905 110.9 211.653H108.506C108.506 212.067 108.542 212.733 108.668 213.219C109.1 214.893 110.54 216.009 113.834 216.009C117.164 216.009 118.802 214.425 118.802 212.049C118.802 209.835 117.578 208.665 115.346 207.891Z" fill="white"/>
<g clip-path="url(#clip0_4719_145469)">
<path d="M220.744 24.5951H217.774V23.4431C218.182 23.4311 218.572 23.3831 218.944 23.2991C219.328 23.2151 219.67 23.0771 219.97 22.8851C220.282 22.6811 220.54 22.4231 220.744 22.1111C220.948 21.7871 221.08 21.3911 221.14 20.9231H222.49V33.8291H220.744V24.5951ZM229.718 34.1171C228.998 34.1171 228.326 34.0211 227.702 33.8291C227.09 33.6371 226.556 33.3491 226.1 32.9651C225.632 32.5811 225.266 32.1191 225.002 31.5791C224.738 31.0271 224.6 30.3911 224.588 29.6711H226.28C226.304 30.6191 226.61 31.3631 227.198 31.9031C227.798 32.4311 228.62 32.6951 229.664 32.6951C230.516 32.6951 231.212 32.4791 231.752 32.0471C232.304 31.6151 232.58 30.9611 232.58 30.0851C232.58 29.2931 232.298 28.6991 231.734 28.3031C231.182 27.8951 230.384 27.6911 229.34 27.6911H228.53V26.3591H229.322C230.282 26.3591 231.002 26.1731 231.482 25.8011C231.974 25.4171 232.22 24.8891 232.22 24.2171C232.22 23.8811 232.148 23.5811 232.004 23.3171C231.872 23.0411 231.68 22.8131 231.428 22.6331C231.188 22.4411 230.906 22.2971 230.582 22.2011C230.258 22.1051 229.91 22.0571 229.538 22.0571C229.082 22.0571 228.68 22.1291 228.332 22.2731C227.984 22.4051 227.684 22.5971 227.432 22.8491C227.192 23.0891 227.006 23.3831 226.874 23.7311C226.742 24.0671 226.676 24.4331 226.676 24.8291H225.002C225.002 24.2291 225.104 23.6771 225.308 23.1731C225.524 22.6691 225.83 22.2371 226.226 21.8771C226.622 21.5051 227.102 21.2171 227.666 21.0131C228.23 20.8091 228.872 20.7071 229.592 20.7071C230.192 20.7071 230.756 20.7911 231.284 20.9591C231.812 21.1151 232.268 21.3431 232.652 21.6431C233.048 21.9431 233.354 22.3151 233.57 22.7591C233.798 23.1911 233.912 23.6831 233.912 24.2351C233.912 24.9551 233.714 25.5311 233.318 25.9631C232.934 26.3951 232.424 26.7131 231.788 26.9171V26.9711C232.688 27.2111 233.342 27.6071 233.75 28.1591C234.158 28.7111 234.362 29.4011 234.362 30.2291C234.362 30.8531 234.242 31.4111 234.002 31.9031C233.762 32.3831 233.432 32.7911 233.012 33.1271C232.604 33.4511 232.112 33.6971 231.536 33.8651C230.972 34.0331 230.366 34.1171 229.718 34.1171ZM245.142 37.2131C243.87 37.2131 242.88 36.9731 242.172 36.4931C241.476 36.0251 241.08 35.3591 240.984 34.4951H242.55C242.622 34.9991 242.886 35.3591 243.342 35.5751C243.798 35.8031 244.386 35.9171 245.106 35.9171C245.97 35.9171 246.63 35.7191 247.086 35.3231C247.554 34.9391 247.788 34.3331 247.788 33.5051V33.2351C247.788 32.9591 247.788 32.7011 247.788 32.4611C247.8 32.2091 247.812 32.0051 247.824 31.8491H247.788C247.452 32.3291 247.056 32.7071 246.6 32.9831C246.156 33.2591 245.592 33.3971 244.908 33.3971C244.296 33.3971 243.726 33.2831 243.198 33.0551C242.682 32.8271 242.238 32.5031 241.866 32.0831C241.494 31.6631 241.2 31.1651 240.984 30.5891C240.78 30.0131 240.678 29.3711 240.678 28.6631C240.678 27.9191 240.786 27.2531 241.002 26.6651C241.218 26.0771 241.512 25.5851 241.884 25.1891C242.268 24.7811 242.712 24.4691 243.216 24.2531C243.72 24.0371 244.254 23.9291 244.818 23.9291C245.514 23.9291 246.096 24.0611 246.564 24.3251C247.044 24.5771 247.44 24.9491 247.752 25.4411H247.788V24.1631H249.444V33.4331C249.444 34.0811 249.342 34.6391 249.138 35.1071C248.934 35.5871 248.646 35.9831 248.274 36.2951C247.89 36.6071 247.434 36.8351 246.906 36.9791C246.378 37.1351 245.79 37.2131 245.142 37.2131ZM245.07 32.0291C245.598 32.0291 246.042 31.9451 246.402 31.7771C246.762 31.5971 247.05 31.3571 247.266 31.0571C247.494 30.7451 247.656 30.3791 247.752 29.9591C247.848 29.5391 247.896 29.0831 247.896 28.5911C247.896 27.5711 247.662 26.7731 247.194 26.1971C246.738 25.6091 246.024 25.3151 245.052 25.3151C244.164 25.3151 243.498 25.6211 243.054 26.2331C242.61 26.8451 242.388 27.6611 242.388 28.6811C242.388 29.7131 242.616 30.5291 243.072 31.1291C243.528 31.7291 244.194 32.0291 245.07 32.0291ZM254.641 34.0271C254.185 34.0271 253.753 33.9671 253.345 33.8471C252.949 33.7391 252.601 33.5711 252.301 33.3431C252.013 33.1151 251.785 32.8331 251.617 32.4971C251.449 32.1491 251.365 31.7411 251.365 31.2731C251.365 30.7091 251.461 30.2471 251.653 29.8871C251.857 29.5271 252.139 29.2391 252.499 29.0231C252.871 28.8071 253.309 28.6391 253.813 28.5191C254.329 28.3991 254.899 28.3031 255.523 28.2311C255.883 28.1951 256.207 28.1471 256.495 28.0871C256.783 28.0271 257.029 27.9491 257.233 27.8531C257.437 27.7451 257.593 27.6131 257.701 27.4571C257.809 27.3011 257.863 27.0971 257.863 26.8451C257.863 26.3171 257.683 25.9031 257.323 25.6031C256.975 25.3031 256.465 25.1531 255.793 25.1531C255.025 25.1531 254.449 25.3211 254.065 25.6571C253.693 25.9931 253.495 26.4491 253.471 27.0251H251.851C251.863 26.6171 251.953 26.2271 252.121 25.8551C252.289 25.4831 252.535 25.1531 252.859 24.8651C253.183 24.5771 253.585 24.3491 254.065 24.1811C254.557 24.0131 255.127 23.9291 255.775 23.9291C256.231 23.9291 256.657 23.9711 257.053 24.0551C257.449 24.1391 257.803 24.2711 258.115 24.4511C258.523 24.6911 258.841 25.0271 259.069 25.4591C259.297 25.8911 259.411 26.4311 259.411 27.0791V31.5971C259.411 31.9811 259.477 32.2691 259.609 32.4611C259.741 32.6531 260.017 32.7011 260.437 32.6051H260.509V33.7751C260.389 33.8111 260.257 33.8411 260.113 33.8651C259.981 33.9011 259.813 33.9191 259.609 33.9191C259.093 33.9191 258.703 33.7991 258.439 33.5591C258.175 33.3071 257.995 32.9231 257.899 32.4071H257.881C257.725 32.6231 257.545 32.8271 257.341 33.0191C257.137 33.2111 256.903 33.3851 256.639 33.5411C256.375 33.6851 256.075 33.7991 255.739 33.8831C255.415 33.9791 255.049 34.0271 254.641 34.0271ZM255.055 32.8031C255.535 32.8031 255.949 32.7251 256.297 32.5691C256.657 32.4011 256.951 32.1971 257.179 31.9571C257.419 31.7051 257.593 31.4291 257.701 31.1291C257.821 30.8291 257.881 30.5411 257.881 30.2651V28.6811C257.641 28.8371 257.323 28.9751 256.927 29.0951C256.543 29.2031 256.153 29.2931 255.757 29.3651C255.361 29.4371 255.001 29.5151 254.677 29.5991C254.353 29.6711 254.077 29.7791 253.849 29.9231C253.621 30.0551 253.441 30.2291 253.309 30.4451C253.189 30.6491 253.129 30.9191 253.129 31.2551C253.129 31.5671 253.183 31.8251 253.291 32.0291C253.399 32.2211 253.543 32.3771 253.723 32.4971C253.903 32.6171 254.107 32.7011 254.335 32.7491C254.575 32.7851 254.815 32.8031 255.055 32.8031ZM261.869 24.1631H263.525V25.6031H263.579C263.879 25.0751 264.275 24.6671 264.767 24.3791C265.259 24.0791 265.817 23.9291 266.441 23.9291C267.029 23.9291 267.539 24.0791 267.971 24.3791C268.415 24.6791 268.739 25.1291 268.943 25.7291H268.979C269.327 25.1171 269.765 24.6671 270.293 24.3791C270.821 24.0791 271.379 23.9291 271.967 23.9291C272.855 23.9291 273.575 24.1991 274.127 24.7391C274.679 25.2791 274.955 26.0591 274.955 27.0791V33.8291H273.281V27.2231C273.281 26.6231 273.113 26.1611 272.777 25.8371C272.441 25.5011 272.027 25.3331 271.535 25.3331C271.223 25.3331 270.929 25.3991 270.653 25.5311C270.377 25.6511 270.137 25.8251 269.933 26.0531C269.729 26.2811 269.561 26.5511 269.429 26.8631C269.309 27.1631 269.249 27.4991 269.249 27.8711V33.8291H267.593V27.2231C267.593 26.6231 267.443 26.1611 267.143 25.8371C266.843 25.5011 266.441 25.3331 265.937 25.3331C265.649 25.3331 265.361 25.3991 265.073 25.5311C264.785 25.6511 264.527 25.8251 264.299 26.0531C264.083 26.2811 263.903 26.5511 263.759 26.8631C263.615 27.1631 263.543 27.4991 263.543 27.8711V33.8291H261.869V24.1631ZM281.391 34.0991C280.647 34.0991 279.981 33.9671 279.393 33.7031C278.817 33.4391 278.325 33.0791 277.917 32.6231C277.509 32.1551 277.197 31.6151 276.981 31.0031C276.777 30.3791 276.675 29.7131 276.675 29.0051C276.675 28.3091 276.783 27.6551 276.999 27.0431C277.227 26.4191 277.539 25.8791 277.935 25.4231C278.343 24.9551 278.829 24.5891 279.393 24.3251C279.969 24.0611 280.605 23.9291 281.301 23.9291C282.021 23.9291 282.657 24.0611 283.209 24.3251C283.761 24.5891 284.229 24.9551 284.613 25.4231C285.009 25.9031 285.303 26.4791 285.495 27.1511C285.699 27.8231 285.801 28.5731 285.801 29.4011H278.385C278.421 29.8691 278.511 30.3071 278.655 30.7151C278.799 31.1231 278.997 31.4771 279.249 31.7771C279.501 32.0771 279.807 32.3111 280.167 32.4791C280.527 32.6471 280.941 32.7311 281.409 32.7311C282.081 32.7311 282.633 32.5871 283.065 32.2991C283.509 31.9991 283.809 31.5911 283.965 31.0751H285.603C285.387 31.9751 284.907 32.7071 284.163 33.2711C283.431 33.8231 282.507 34.0991 281.391 34.0991ZM281.301 25.2251C280.869 25.2251 280.485 25.3031 280.149 25.4591C279.813 25.6031 279.525 25.8071 279.285 26.0711C279.045 26.3351 278.853 26.6471 278.709 27.0071C278.565 27.3671 278.469 27.7631 278.421 28.1951H284.019C283.971 27.2591 283.713 26.5331 283.245 26.0171C282.789 25.4891 282.141 25.2251 281.301 25.2251ZM291.395 24.1631H293.177L294.689 29.5271C294.761 29.8031 294.833 30.1031 294.905 30.4271C294.989 30.7511 295.061 31.0571 295.121 31.3451C295.193 31.6811 295.259 32.0171 295.319 32.3531H295.355C295.415 32.0411 295.481 31.7231 295.553 31.3991C295.613 31.1231 295.679 30.8231 295.751 30.4991C295.835 30.1751 295.919 29.8631 296.003 29.5631L297.461 24.1631H299.045L300.485 29.5631C300.545 29.8271 300.611 30.1211 300.683 30.4451C300.767 30.7571 300.839 31.0571 300.899 31.3451C300.971 31.6811 301.037 32.0231 301.097 32.3711H301.133C301.193 32.0471 301.253 31.7231 301.313 31.3991C301.373 31.1231 301.439 30.8171 301.511 30.4811C301.583 30.1451 301.667 29.8271 301.763 29.5271L303.365 24.1631H305.093L301.943 33.8291H300.269L298.847 28.5011C298.787 28.2611 298.721 27.9911 298.649 27.6911C298.577 27.3791 298.511 27.0851 298.451 26.8091C298.379 26.4851 298.307 26.1491 298.235 25.8011H298.199C298.127 26.1491 298.055 26.4851 297.983 26.8091C297.923 27.0851 297.857 27.3791 297.785 27.6911C297.725 28.0031 297.665 28.2731 297.605 28.5011L296.147 33.8291H294.455L291.395 24.1631ZM306.393 20.4371H308.139V22.3811H306.393V20.4371ZM306.429 24.1631H308.103V33.8291H306.429V24.1631ZM312.058 25.5311H312.112C312.46 25.0391 312.88 24.6491 313.372 24.3611C313.864 24.0731 314.464 23.9291 315.172 23.9291C316.192 23.9291 316.99 24.1991 317.566 24.7391C318.142 25.2791 318.43 26.0591 318.43 27.0791V33.8291H316.774V27.2771C316.774 26.6531 316.582 26.1731 316.198 25.8371C315.826 25.5011 315.31 25.3331 314.65 25.3331C314.278 25.3331 313.93 25.3991 313.606 25.5311C313.294 25.6511 313.024 25.8251 312.796 26.0531C312.568 26.2811 312.388 26.5571 312.256 26.8811C312.136 27.2051 312.076 27.5591 312.076 27.9431V33.8291H310.402V24.1631H312.058V25.5311ZM329.174 34.1171C327.83 34.1171 326.792 33.8291 326.06 33.2531C325.328 32.6651 324.926 31.8791 324.854 30.8951H326.546C326.594 31.2431 326.696 31.5371 326.852 31.7771C327.008 32.0171 327.2 32.2091 327.428 32.3531C327.668 32.4971 327.938 32.6051 328.238 32.6771C328.538 32.7371 328.862 32.7671 329.21 32.7671C329.978 32.7671 330.53 32.6231 330.866 32.3351C331.214 32.0351 331.388 31.6691 331.388 31.2371C331.388 30.7091 331.178 30.3431 330.758 30.1391C330.35 29.9231 329.72 29.7311 328.868 29.5631C328.4 29.4671 327.944 29.3591 327.5 29.2391C327.068 29.1191 326.684 28.9571 326.348 28.7531C326.024 28.5491 325.76 28.2791 325.556 27.9431C325.364 27.6071 325.268 27.1751 325.268 26.6471C325.268 25.8191 325.574 25.1651 326.186 24.6851C326.81 24.1931 327.686 23.9471 328.814 23.9471C330.026 23.9471 330.944 24.2051 331.568 24.7211C332.192 25.2371 332.558 25.9151 332.666 26.7551H330.992C330.92 26.2511 330.704 25.8671 330.344 25.6031C329.996 25.3391 329.474 25.2071 328.778 25.2071C328.118 25.2071 327.638 25.3391 327.338 25.6031C327.05 25.8671 326.906 26.1851 326.906 26.5571C326.906 26.8091 326.96 27.0191 327.068 27.1871C327.188 27.3431 327.356 27.4751 327.572 27.5831C327.8 27.6911 328.07 27.7811 328.382 27.8531C328.706 27.9251 329.072 28.0031 329.48 28.0871C329.96 28.1831 330.416 28.2911 330.848 28.4111C331.28 28.5311 331.658 28.6991 331.982 28.9151C332.318 29.1311 332.582 29.4191 332.774 29.7791C332.966 30.1271 333.062 30.5831 333.062 31.1471C333.062 31.6391 332.966 32.0711 332.774 32.4431C332.582 32.8151 332.312 33.1271 331.964 33.3791C331.628 33.6191 331.22 33.7991 330.74 33.9191C330.26 34.0511 329.738 34.1171 329.174 34.1171ZM334.101 24.1631H335.613V21.1211H337.269V24.1631H339.267V25.4591H337.269V31.5611C337.269 31.9091 337.353 32.1491 337.521 32.2811C337.701 32.4011 337.947 32.4611 338.259 32.4611C338.403 32.4611 338.553 32.4491 338.709 32.4251C338.877 32.3891 339.009 32.3591 339.105 32.3351H339.159V33.7391C338.703 33.8471 338.253 33.9011 337.809 33.9011C337.161 33.8891 336.633 33.7391 336.225 33.4511C335.817 33.1511 335.613 32.6471 335.613 31.9391V25.4591H334.101V24.1631ZM342.662 25.9091H342.716C343.016 25.3451 343.406 24.8951 343.886 24.5591C344.366 24.2111 344.93 24.0371 345.578 24.0371C345.71 24.0371 345.818 24.0491 345.902 24.0731C345.998 24.0851 346.094 24.1091 346.19 24.1451V25.7291H346.136C346.016 25.6931 345.908 25.6691 345.812 25.6571C345.716 25.6451 345.596 25.6391 345.452 25.6391C345.08 25.6391 344.726 25.7111 344.39 25.8551C344.054 25.9871 343.76 26.1791 343.508 26.4311C343.256 26.6831 343.052 26.9891 342.896 27.3491C342.752 27.7091 342.68 28.1171 342.68 28.5731V33.8291H341.006V24.1631H342.662V25.9091ZM351.668 34.0991C350.924 34.0991 350.258 33.9671 349.67 33.7031C349.094 33.4391 348.602 33.0791 348.194 32.6231C347.786 32.1551 347.474 31.6151 347.258 31.0031C347.054 30.3791 346.952 29.7131 346.952 29.0051C346.952 28.3091 347.06 27.6551 347.276 27.0431C347.504 26.4191 347.816 25.8791 348.212 25.4231C348.62 24.9551 349.106 24.5891 349.67 24.3251C350.246 24.0611 350.882 23.9291 351.578 23.9291C352.298 23.9291 352.934 24.0611 353.486 24.3251C354.038 24.5891 354.506 24.9551 354.89 25.4231C355.286 25.9031 355.58 26.4791 355.772 27.1511C355.976 27.8231 356.078 28.5731 356.078 29.4011H348.662C348.698 29.8691 348.788 30.3071 348.932 30.7151C349.076 31.1231 349.274 31.4771 349.526 31.7771C349.778 32.0771 350.084 32.3111 350.444 32.4791C350.804 32.6471 351.218 32.7311 351.686 32.7311C352.358 32.7311 352.91 32.5871 353.342 32.2991C353.786 31.9991 354.086 31.5911 354.242 31.0751H355.88C355.664 31.9751 355.184 32.7071 354.44 33.2711C353.708 33.8231 352.784 34.0991 351.668 34.0991ZM351.578 25.2251C351.146 25.2251 350.762 25.3031 350.426 25.4591C350.09 25.6031 349.802 25.8071 349.562 26.0711C349.322 26.3351 349.13 26.6471 348.986 27.0071C348.842 27.3671 348.746 27.7631 348.698 28.1951H354.296C354.248 27.2591 353.99 26.5331 353.522 26.0171C353.066 25.4891 352.418 25.2251 351.578 25.2251ZM360.743 34.0271C360.287 34.0271 359.855 33.9671 359.447 33.8471C359.051 33.7391 358.703 33.5711 358.403 33.3431C358.115 33.1151 357.887 32.8331 357.719 32.4971C357.551 32.1491 357.467 31.7411 357.467 31.2731C357.467 30.7091 357.563 30.2471 357.755 29.8871C357.959 29.5271 358.241 29.2391 358.601 29.0231C358.973 28.8071 359.411 28.6391 359.915 28.5191C360.431 28.3991 361.001 28.3031 361.625 28.2311C361.985 28.1951 362.309 28.1471 362.597 28.0871C362.885 28.0271 363.131 27.9491 363.335 27.8531C363.539 27.7451 363.695 27.6131 363.803 27.4571C363.911 27.3011 363.965 27.0971 363.965 26.8451C363.965 26.3171 363.785 25.9031 363.425 25.6031C363.077 25.3031 362.567 25.1531 361.895 25.1531C361.127 25.1531 360.551 25.3211 360.167 25.6571C359.795 25.9931 359.597 26.4491 359.573 27.0251H357.953C357.965 26.6171 358.055 26.2271 358.223 25.8551C358.391 25.4831 358.637 25.1531 358.961 24.8651C359.285 24.5771 359.687 24.3491 360.167 24.1811C360.659 24.0131 361.229 23.9291 361.877 23.9291C362.333 23.9291 362.759 23.9711 363.155 24.0551C363.551 24.1391 363.905 24.2711 364.217 24.4511C364.625 24.6911 364.943 25.0271 365.171 25.4591C365.399 25.8911 365.513 26.4311 365.513 27.0791V31.5971C365.513 31.9811 365.579 32.2691 365.711 32.4611C365.843 32.6531 366.119 32.7011 366.539 32.6051H366.611V33.7751C366.491 33.8111 366.359 33.8411 366.215 33.8651C366.083 33.9011 365.915 33.9191 365.711 33.9191C365.195 33.9191 364.805 33.7991 364.541 33.5591C364.277 33.3071 364.097 32.9231 364.001 32.4071H363.983C363.827 32.6231 363.647 32.8271 363.443 33.0191C363.239 33.2111 363.005 33.3851 362.741 33.5411C362.477 33.6851 362.177 33.7991 361.841 33.8831C361.517 33.9791 361.151 34.0271 360.743 34.0271ZM361.157 32.8031C361.637 32.8031 362.051 32.7251 362.399 32.5691C362.759 32.4011 363.053 32.1971 363.281 31.9571C363.521 31.7051 363.695 31.4291 363.803 31.1291C363.923 30.8291 363.983 30.5411 363.983 30.2651V28.6811C363.743 28.8371 363.425 28.9751 363.029 29.0951C362.645 29.2031 362.255 29.2931 361.859 29.3651C361.463 29.4371 361.103 29.5151 360.779 29.5991C360.455 29.6711 360.179 29.7791 359.951 29.9231C359.723 30.0551 359.543 30.2291 359.411 30.4451C359.291 30.6491 359.231 30.9191 359.231 31.2551C359.231 31.5671 359.285 31.8251 359.393 32.0291C359.501 32.2211 359.645 32.3771 359.825 32.4971C360.005 32.6171 360.209 32.7011 360.437 32.7491C360.677 32.7851 360.917 32.8031 361.157 32.8031ZM371.012 28.7351L369.644 30.0311V33.8291H367.97V20.4371H369.644V26.7911C369.644 26.9591 369.638 27.1931 369.626 27.4931C369.614 27.7811 369.596 28.0451 369.572 28.2851L373.766 24.1631H375.854L372.164 27.6371L376.286 33.8291H374.324L371.012 28.7351ZM382.507 24.1631H384.163V25.6751H384.217C384.577 25.1231 385.003 24.6971 385.495 24.3971C385.999 24.0851 386.599 23.9291 387.295 23.9291C387.907 23.9291 388.465 24.0491 388.969 24.2891C389.485 24.5171 389.923 24.8531 390.283 25.2971C390.655 25.7291 390.943 26.2631 391.147 26.8991C391.351 27.5231 391.453 28.2311 391.453 29.0231C391.453 29.8031 391.357 30.5051 391.165 31.1291C390.973 31.7531 390.691 32.2871 390.319 32.7311C389.959 33.1751 389.515 33.5171 388.987 33.7571C388.471 33.9971 387.889 34.1171 387.241 34.1171C386.581 34.1171 385.993 33.9851 385.477 33.7211C384.961 33.4571 384.535 33.0671 384.199 32.5511H384.145C384.157 32.7191 384.163 32.9411 384.163 33.2171C384.175 33.4811 384.181 33.7991 384.181 34.1711V37.1051H382.507V24.1631ZM387.061 32.7311C387.505 32.7311 387.895 32.6411 388.231 32.4611C388.567 32.2691 388.843 32.0111 389.059 31.6871C389.287 31.3631 389.455 30.9791 389.563 30.5351C389.683 30.0791 389.743 29.5871 389.743 29.0591C389.743 28.5311 389.689 28.0391 389.581 27.5831C389.473 27.1271 389.305 26.7371 389.077 26.4131C388.861 26.0771 388.585 25.8191 388.249 25.6391C387.913 25.4471 387.523 25.3511 387.079 25.3511C386.563 25.3511 386.119 25.4471 385.747 25.6391C385.375 25.8311 385.063 26.0951 384.811 26.4311C384.571 26.7671 384.391 27.1631 384.271 27.6191C384.151 28.0631 384.091 28.5431 384.091 29.0591C384.091 29.5631 384.145 30.0431 384.253 30.4991C384.361 30.9431 384.535 31.3331 384.775 31.6691C385.015 31.9931 385.321 32.2511 385.693 32.4431C386.065 32.6351 386.521 32.7311 387.061 32.7311ZM394.886 25.9091H394.94C395.24 25.3451 395.63 24.8951 396.11 24.5591C396.59 24.2111 397.154 24.0371 397.802 24.0371C397.934 24.0371 398.042 24.0491 398.126 24.0731C398.222 24.0851 398.318 24.1091 398.414 24.1451V25.7291H398.36C398.24 25.6931 398.132 25.6691 398.036 25.6571C397.94 25.6451 397.82 25.6391 397.676 25.6391C397.304 25.6391 396.95 25.7111 396.614 25.8551C396.278 25.9871 395.984 26.1791 395.732 26.4311C395.48 26.6831 395.276 26.9891 395.12 27.3491C394.976 27.7091 394.904 28.1171 394.904 28.5731V33.8291H393.23V24.1631H394.886V25.9091ZM400.014 20.4371H401.76V22.3811H400.014V20.4371ZM400.05 24.1631H401.724V33.8291H400.05V24.1631ZM403.663 32.5331L407.983 26.8991C408.079 26.7671 408.193 26.6291 408.325 26.4851C408.457 26.3291 408.583 26.1851 408.703 26.0531C408.835 25.8971 408.979 25.7411 409.135 25.5851V25.5311C408.907 25.5431 408.685 25.5551 408.469 25.5671C408.277 25.5791 408.079 25.5851 407.875 25.5851C407.671 25.5851 407.485 25.5851 407.317 25.5851H403.987V24.1631H411.241V25.2071L406.849 30.9491C406.741 31.0811 406.615 31.2311 406.471 31.3991C406.339 31.5551 406.207 31.7051 406.075 31.8491C405.931 32.0171 405.781 32.1851 405.625 32.3531V32.4071C405.865 32.4071 406.099 32.4011 406.327 32.3891C406.531 32.3771 406.741 32.3711 406.957 32.3711C407.173 32.3591 407.371 32.3531 407.551 32.3531H411.457V33.8291H403.663V32.5331ZM417.076 34.0991C416.332 34.0991 415.666 33.9671 415.078 33.7031C414.502 33.4391 414.01 33.0791 413.602 32.6231C413.194 32.1551 412.882 31.6151 412.666 31.0031C412.462 30.3791 412.36 29.7131 412.36 29.0051C412.36 28.3091 412.468 27.6551 412.684 27.0431C412.912 26.4191 413.224 25.8791 413.62 25.4231C414.028 24.9551 414.514 24.5891 415.078 24.3251C415.654 24.0611 416.29 23.9291 416.986 23.9291C417.706 23.9291 418.342 24.0611 418.894 24.3251C419.446 24.5891 419.914 24.9551 420.298 25.4231C420.694 25.9031 420.988 26.4791 421.18 27.1511C421.384 27.8231 421.486 28.5731 421.486 29.4011H414.07C414.106 29.8691 414.196 30.3071 414.34 30.7151C414.484 31.1231 414.682 31.4771 414.934 31.7771C415.186 32.0771 415.492 32.3111 415.852 32.4791C416.212 32.6471 416.626 32.7311 417.094 32.7311C417.766 32.7311 418.318 32.5871 418.75 32.2991C419.194 31.9991 419.494 31.5911 419.65 31.0751H421.288C421.072 31.9751 420.592 32.7071 419.848 33.2711C419.116 33.8231 418.192 34.0991 417.076 34.0991ZM416.986 25.2251C416.554 25.2251 416.17 25.3031 415.834 25.4591C415.498 25.6031 415.21 25.8071 414.97 26.0711C414.73 26.3351 414.538 26.6471 414.394 27.0071C414.25 27.3671 414.154 27.7631 414.106 28.1951H419.704C419.656 27.2591 419.398 26.5331 418.93 26.0171C418.474 25.4891 417.826 25.2251 416.986 25.2251Z" fill="white"/>
<path fill-rule="evenodd" clip-rule="evenodd" d="M567.646 29.7783C567.735 29.6322 567.78 29.4481 567.78 29.2258V20.4421C567.78 20.2198 567.735 20.0388 567.646 19.8991C567.558 19.753 567.418 19.6355 567.227 19.5466C566.694 19.2798 566.259 18.9718 565.922 18.6225C565.579 18.2668 565.246 17.7682 564.922 17.1268C564.719 16.7647 564.423 16.5837 564.036 16.5837H547.964C547.577 16.5837 547.285 16.7647 547.088 17.1268C546.757 17.7682 546.424 18.2668 546.087 18.6225C545.744 18.9718 545.306 19.2798 544.773 19.5466C544.582 19.6355 544.442 19.753 544.353 19.8991C544.265 20.0388 544.22 20.2198 544.22 20.4421V29.2258C544.22 29.4481 544.265 29.6322 544.353 29.7783C544.442 29.9181 544.582 30.0324 544.773 30.1213C545.306 30.3817 545.744 30.6897 546.087 31.0454C546.424 31.3947 546.757 31.8933 547.088 32.5411C547.285 32.8968 547.577 33.0746 547.964 33.0746H564.036C564.423 33.0746 564.719 32.8968 564.922 32.5411C565.246 31.8933 565.579 31.3947 565.922 31.0454C566.259 30.6897 566.694 30.3817 567.227 30.1213C567.418 30.0324 567.558 29.9181 567.646 29.7783ZM560.04 25.1597V25.9739C560.04 26.1144 559.927 26.2282 559.786 26.2282C559.646 26.2282 559.532 26.1145 559.532 25.9739V25.1597H558.188V25.9739C558.188 26.1144 558.074 26.2282 557.934 26.2282C557.793 26.2282 557.679 26.1145 557.679 25.9739V25.1597H556.336V25.9739C556.336 26.1144 556.222 26.2282 556.082 26.2282C555.941 26.2282 555.827 26.1145 555.827 25.9739V25.1597H554.484V25.9739C554.484 26.1144 554.37 26.2282 554.23 26.2282C554.089 26.2282 553.976 26.1145 553.976 25.9739V25.1597H552.632V25.9739C552.632 26.1144 552.518 26.2282 552.378 26.2282C552.238 26.2282 552.124 26.1145 552.124 25.9739V25.1597H551.114L551.114 28.8075C552.593 29.6073 554.283 30.066 556.082 30.066C557.881 30.066 559.571 29.607 561.05 28.8075V25.1597H560.04ZM565.151 24.829C565.152 23.8374 563.324 22.3541 562.068 21.4763V28.1824C563.324 27.3045 565.15 25.9214 565.151 24.829ZM552.124 23.8372V24.6512L551.114 24.651V20.8507C552.593 20.0512 554.283 19.5923 556.082 19.5923C557.882 19.5923 559.572 20.051 561.05 20.8506V24.6512H560.04V23.8372C560.04 23.6967 559.926 23.5829 559.786 23.5829C559.645 23.5829 559.531 23.6967 559.531 23.8372V24.6512H558.188V23.8372C558.188 23.6967 558.074 23.5829 557.934 23.5829C557.793 23.5829 557.679 23.6967 557.679 23.8372V24.6512H556.336V23.8372C556.336 23.6967 556.222 23.5829 556.082 23.5829C555.941 23.5829 555.827 23.6967 555.827 23.8372V24.6512H554.484V23.8372C554.484 23.6967 554.37 23.5829 554.23 23.5829C554.089 23.5829 553.976 23.6967 553.976 23.8372V24.6512H552.632V23.8372C552.632 23.6967 552.518 23.5829 552.378 23.5829C552.238 23.5829 552.124 23.6967 552.124 23.8372ZM546.849 24.829C546.848 23.8374 548.676 22.3541 549.932 21.4763V28.1824C548.676 27.3045 546.85 25.9214 546.849 24.829Z" fill="white"/>
<path d="M600 51.8291H185V53.8291H600V51.8291Z" fill="white" mask="url(#path-6-inside-2_4719_145469)"/>
<path d="M235.96 119.525H217.144V126.101H222.952V157.829H230.056V126.101H235.96V119.525ZM256.737 131.429L254.625 150.821L251.841 131.429H245.264L242.816 150.821L240.368 131.429H233.84L238.592 157.829H246.273C246.273 157.829 247.953 148.469 248.481 145.349C248.529 145.061 248.577 142.613 248.577 142.613C248.577 142.613 248.721 145.061 248.768 145.349C249.297 148.373 250.929 157.829 250.929 157.829H258.513L263.12 131.429H256.737ZM280.574 136.469C279.71 133.445 277.406 131.093 272.654 131.093C267.902 131.093 265.55 133.685 264.782 136.325C264.11 138.581 263.774 141.749 263.774 144.581C263.774 147.509 264.158 151.061 264.59 152.645C265.502 155.957 268.238 158.165 272.558 158.165C277.118 158.165 279.566 156.005 280.526 152.645C281.102 150.725 281.39 147.461 281.39 144.581C281.39 141.749 281.15 138.437 280.574 136.469ZM274.862 151.061C274.718 152.069 273.806 152.933 272.606 152.933C271.454 152.933 270.59 152.309 270.398 151.109C270.158 149.861 270.11 146.741 270.11 144.677C270.11 142.709 270.158 139.493 270.398 138.389C270.686 137.189 271.358 136.517 272.606 136.517C273.902 136.517 274.574 137.045 274.862 138.293C275.054 139.301 275.15 142.661 275.15 144.677C275.15 146.693 275.198 148.757 274.862 151.061ZM311.186 119.525H304.658V138.245L298.658 119.525H291.986V157.829H298.514V138.725L304.562 157.829H311.186V119.525ZM331.582 119.525H314.638V157.829H321.646V141.845H330.814V135.413H321.646V126.101H331.582V119.525ZM351.004 151.349H340.876V119.525H333.868V157.829H351.004V151.349ZM378.791 122.261C377.399 120.437 375.383 119.525 372.407 119.525H361.031V157.829H368.087V143.333C368.087 143.333 371.351 143.381 372.311 143.285C375.191 143.093 377.303 142.325 378.695 140.597C380.135 138.869 380.711 135.989 380.711 131.429C380.711 126.917 380.039 123.845 378.791 122.261ZM373.367 135.557C373.175 136.805 372.359 137.333 370.775 137.333H368.087V126.005H370.967C372.071 126.005 372.887 126.629 373.175 127.445C373.415 128.117 373.655 129.701 373.655 131.717C373.655 133.781 373.607 134.261 373.367 135.557ZM389.498 155.861V121.109C389.498 120.245 389.402 119.573 389.354 119.477H382.874C383.018 119.813 383.018 120.965 383.018 121.781V156.005C383.018 156.965 383.114 157.685 383.306 157.829C383.306 157.877 389.738 157.829 389.738 157.829C389.546 157.685 389.498 157.061 389.498 155.861ZM408.778 153.125C408.778 151.157 408.826 147.941 408.826 145.877C408.874 143.429 408.922 139.445 408.826 137.141C408.682 133.445 406.378 131.093 400.858 131.093C395.002 131.093 392.602 133.733 392.602 138.677V140.645H398.554V139.157C398.554 137.333 399.13 136.421 400.762 136.421C401.962 136.421 402.586 137.093 402.634 138.245C402.682 139.061 402.682 140.693 402.682 141.413C401.626 141.413 400.522 141.557 399.322 141.749C394.906 142.565 391.93 144.965 391.69 148.805C391.594 150.197 391.642 152.453 391.69 153.029C391.882 156.869 394.81 158.021 397.45 158.021C399.802 158.021 401.578 157.397 402.778 155.909C402.778 156.581 402.922 157.829 403.018 157.829H409.114C408.874 157.493 408.778 155.045 408.778 153.125ZM402.682 147.749C402.586 149.093 402.682 149.765 402.442 151.157C402.202 152.501 401.05 153.029 400.042 153.029C399.082 153.029 398.314 152.693 398.17 151.781C398.074 151.013 398.074 150.101 398.074 149.381C398.074 148.277 398.122 147.509 398.938 146.789C399.658 146.165 400.474 146.021 401.146 145.877C401.722 145.781 402.202 145.781 402.682 145.781C402.682 146.165 402.73 147.221 402.682 147.749ZM422.788 131.429C422.74 132.245 419.668 147.845 419.572 148.421C419.524 147.893 416.452 132.101 416.356 131.429H409.828L416.116 157.109L413.956 165.653H420.532L429.172 131.429H422.788ZM446.202 136.469C445.338 133.445 443.034 131.093 438.282 131.093C433.53 131.093 431.178 133.685 430.41 136.325C429.738 138.581 429.402 141.749 429.402 144.581C429.402 147.509 429.786 151.061 430.218 152.645C431.13 155.957 433.866 158.165 438.186 158.165C442.746 158.165 445.194 156.005 446.154 152.645C446.73 150.725 447.018 147.461 447.018 144.581C447.018 141.749 446.778 138.437 446.202 136.469ZM440.49 151.061C440.346 152.069 439.434 152.933 438.234 152.933C437.082 152.933 436.218 152.309 436.026 151.109C435.786 149.861 435.738 146.741 435.738 144.677C435.738 142.709 435.786 139.493 436.026 138.389C436.314 137.189 436.986 136.517 438.234 136.517C439.53 136.517 440.202 137.045 440.49 138.293C440.682 139.301 440.778 142.661 440.778 144.677C440.778 146.693 440.826 148.757 440.49 151.061ZM461.486 137.045V157.829H467.822V137.045H470.75V131.429H467.822V126.245C467.822 125.285 468.254 124.565 469.358 124.565C469.886 124.565 470.462 124.661 470.846 124.661V119.477C470.126 119.381 469.502 119.333 467.87 119.333C463.118 119.333 461.486 122.309 461.486 126.005V131.429H457.118V126.581C457.118 125.573 457.502 124.565 458.798 124.565C459.086 124.565 460.046 124.661 460.238 124.661V119.477C459.518 119.381 458.846 119.333 457.166 119.333C452.414 119.333 450.782 122.117 450.782 125.765V131.429H448.574V137.045H450.782V157.829H457.166V137.045H461.486ZM235.96 175.525H217.144V182.101H222.952V213.829H230.056V182.101H235.96V175.525ZM243.589 179.557H236.821V186.037H243.589V179.557ZM243.493 211.909V187.429H236.917V212.005C236.917 213.061 236.917 213.829 237.157 213.829H243.637C243.589 213.781 243.493 212.917 243.493 211.909ZM262.52 191.893C261.656 189.157 259.64 187.093 254.696 187.093C250.952 187.093 248.264 188.773 247.304 191.605C246.344 194.485 246.056 196.789 246.056 200.629C246.056 204.613 246.632 208.597 247.4 210.325C248.456 212.725 251 214.165 254.792 214.165C258.68 214.165 261.176 212.437 262.04 210.229C262.952 207.925 263 206.821 263 203.221H257.048C257.048 204.901 257.048 205.429 256.856 206.821C256.712 207.925 256.04 208.789 254.792 208.789C253.544 208.789 252.92 208.213 252.728 206.869C252.44 204.901 252.344 202.213 252.344 200.677C252.344 198.757 252.44 196.357 252.728 194.485C252.92 193.189 253.592 192.517 254.744 192.517C256.088 192.517 256.568 193.381 256.712 194.437C256.856 195.445 257 196.645 257 198.181H263C263 194.965 262.856 193.045 262.52 191.893ZM278.064 197.029L283.056 187.429H276.816L271.68 197.557V175.477H265.344V213.829H271.68V205.909L273.552 202.885L276.864 213.829H283.296L278.064 197.029ZM294.808 205.237C294.808 205.909 294.712 206.725 294.52 207.541C294.28 208.597 293.272 209.029 292.312 209.029C291.352 209.029 290.248 208.453 290.104 207.157C289.96 205.957 289.912 204.037 289.912 202.837H300.808C301.048 198.325 300.712 193.717 299.8 191.461C298.696 188.773 296.152 187.093 292.456 187.093C287.896 187.093 285.88 189.157 284.92 191.509C284.2 193.237 283.672 196.789 283.672 200.773C283.672 204.853 284.008 207.877 285.112 210.421C286.264 213.109 289 214.165 292.552 214.165C296.104 214.165 298.264 212.725 299.416 210.661C300.424 208.885 300.664 206.005 300.664 205.237H294.808ZM289.816 198.133C289.816 196.309 289.864 194.581 290.2 193.765C290.536 192.853 291.304 192.373 292.36 192.373C293.464 192.373 294.184 192.901 294.424 193.813C294.616 194.437 294.76 195.733 294.76 198.133H289.816ZM314.524 187.429H310.828V182.341L304.588 182.485C304.588 182.485 304.396 187.285 304.348 187.429H301.996V193.045H304.252V208.069C304.252 212.197 306.556 214.021 310.492 214.021C312.172 214.021 313.228 213.925 314.236 213.685V208.549C313.756 208.645 313.132 208.693 312.604 208.693C311.596 208.693 310.78 208.405 310.78 206.917V193.045H314.524V187.429ZM327.84 198.901C326.64 198.277 325.44 197.749 324.24 197.173C322.704 196.453 322.176 195.637 322.176 194.341C322.176 193.237 322.656 192.325 324.144 192.325C325.488 192.325 325.92 193.093 326.016 193.909C326.064 194.101 326.112 195.589 326.112 195.877H331.92C331.92 195.349 331.776 192.565 331.632 191.797C331.008 188.869 328.56 187.045 323.904 187.045C318.816 187.045 316.224 190.021 316.224 194.197C316.224 198.133 317.376 200.581 320.832 202.213C321.792 202.645 323.088 203.269 323.904 203.605C325.728 204.325 326.352 205.237 326.352 206.869C326.352 208.357 325.44 209.077 324.24 209.077C323.088 209.077 322.176 208.597 322.08 207.493C322.032 206.677 321.984 205.861 321.984 205.525H316.032C316.032 206.341 316.08 208.021 316.176 208.885C316.608 212.437 319.008 214.213 324.384 214.213C329.136 214.213 332.448 211.669 332.448 206.677C332.448 202.645 331.2 200.581 327.84 198.901Z" fill="white"/>
</g>
<path d="M185 0.829102H600H185ZM600 284.829H185H600ZM184 284.829V0.829102H186V284.829H184ZM600 0.829102V284.829V0.829102Z" fill="white" mask="url(#path-4-inside-1_4719_145469)"/>
<rect x="0.5" y="1.3291" width="599" height="283" rx="11.5" stroke="white"/>
<path d="M704.28 69.5571H690.456C689.048 72.6291 685.464 78.5171 672.28 79.4131V94.1331L686.36 93.4931V171.829H704.28V69.5571ZM759.95 155.317H730.766C735.886 145.589 758.542 123.189 759.95 101.045C760.078 98.8691 760.206 90.0371 760.078 88.3731C759.182 77.2371 753.166 68.6611 736.142 68.6611C719.502 68.6611 711.438 78.7731 711.054 88.8851C710.926 90.9331 710.926 101.429 710.926 103.477H728.846V91.4451C728.974 86.7091 731.534 84.9171 734.862 84.9171C738.574 84.9171 740.878 86.1971 740.878 92.2131V99.5091C740.238 121.653 717.838 140.469 710.798 155.957V171.829H759.95V155.317Z" fill="white"/>
<path d="M704.028 201.573C704.028 201.573 701.598 212.139 701.598 212.571C701.598 212.139 699.366 201.573 699.366 201.573H696.738C696.738 201.573 694.524 212.139 694.524 212.571C694.524 212.139 692.094 201.573 692.094 201.573H689.592L693.012 215.829H695.694C695.694 215.829 698.016 205.281 698.016 204.813C698.034 205.281 700.266 215.829 700.266 215.829H702.966L706.35 201.573H704.028ZM712.842 201.573H710.412V215.829H712.842V201.573ZM727.883 201.573H725.633V211.293L720.773 201.573H718.091V215.829H720.341V205.857L725.345 215.829H727.883V201.573ZM739.346 207.891C738.95 207.747 738.104 207.423 737.6 207.261C735.854 206.685 734.99 206.127 734.99 205.011C734.99 204.057 735.638 203.481 737.456 203.481C739.004 203.481 739.724 203.913 740.03 204.795C740.138 205.119 740.192 205.389 740.192 205.695H742.604C742.604 205.155 742.514 204.723 742.388 204.291C741.884 202.527 740.444 201.411 737.51 201.411C734.144 201.411 732.56 202.887 732.56 205.083C732.56 207.189 733.946 208.449 736.088 209.151C736.682 209.349 737.528 209.673 737.888 209.799C739.796 210.465 740.372 211.041 740.372 212.247C740.372 213.327 739.598 213.975 737.78 213.975C736.232 213.975 735.332 213.579 735.062 212.733C734.954 212.391 734.9 211.905 734.9 211.653H732.506C732.506 212.067 732.542 212.733 732.668 213.219C733.1 214.893 734.54 216.009 737.834 216.009C741.164 216.009 742.802 214.425 742.802 212.049C742.802 209.835 741.578 208.665 739.346 207.891Z" fill="white"/>
<g clip-path="url(#clip1_4719_145469)">
<path d="M844.744 24.5951H841.774V23.4431C842.182 23.4311 842.572 23.3831 842.944 23.2991C843.328 23.2151 843.67 23.0771 843.97 22.8851C844.282 22.6811 844.54 22.4231 844.744 22.1111C844.948 21.7871 845.08 21.3911 845.14 20.9231H846.49V33.8291H844.744V24.5951ZM848.804 33.8291C848.84 33.0491 848.978 32.3771 849.218 31.8131C849.47 31.2491 849.788 30.7451 850.172 30.3011C850.664 29.7611 851.222 29.2931 851.846 28.8971C852.47 28.5011 853.088 28.1171 853.7 27.7451C854.096 27.5171 854.45 27.3011 854.762 27.0971C855.086 26.8811 855.356 26.6591 855.572 26.4311C855.788 26.2031 855.95 25.9511 856.058 25.6751C856.178 25.3991 856.238 25.0751 856.238 24.7031C856.238 23.9471 855.998 23.3351 855.518 22.8671C855.05 22.3991 854.402 22.1651 853.574 22.1651C852.734 22.1651 852.08 22.4291 851.612 22.9571C851.36 23.2211 851.174 23.5391 851.054 23.9111C850.946 24.2711 850.892 24.7211 850.892 25.2611H849.11C849.11 24.5411 849.212 23.9171 849.416 23.3891C849.62 22.8611 849.914 22.3991 850.298 22.0031C850.694 21.5831 851.186 21.2651 851.774 21.0491C852.362 20.8331 853.01 20.7251 853.718 20.7251C854.378 20.7251 854.972 20.8271 855.5 21.0311C856.028 21.2231 856.478 21.4991 856.85 21.8591C857.234 22.2071 857.528 22.6211 857.732 23.1011C857.936 23.5811 858.038 24.1031 858.038 24.6671C858.038 25.2671 857.942 25.7771 857.75 26.1971C857.57 26.6051 857.324 26.9711 857.012 27.2951C856.7 27.6191 856.328 27.9131 855.896 28.1771C855.476 28.4291 855.026 28.6931 854.546 28.9691C854.21 29.1731 853.856 29.3891 853.484 29.6171C853.124 29.8331 852.776 30.0731 852.44 30.3371C852.104 30.5891 851.804 30.8591 851.54 31.1471C851.276 31.4351 851.084 31.7471 850.964 32.0831L850.928 32.2271H857.804V33.8291H848.804ZM868.861 37.2131C867.589 37.2131 866.599 36.9731 865.891 36.4931C865.195 36.0251 864.799 35.3591 864.703 34.4951H866.269C866.341 34.9991 866.605 35.3591 867.061 35.5751C867.517 35.8031 868.105 35.9171 868.825 35.9171C869.689 35.9171 870.349 35.7191 870.805 35.3231C871.273 34.9391 871.507 34.3331 871.507 33.5051V33.2351C871.507 32.9591 871.507 32.7011 871.507 32.4611C871.519 32.2091 871.531 32.0051 871.543 31.8491H871.507C871.171 32.3291 870.775 32.7071 870.319 32.9831C869.875 33.2591 869.311 33.3971 868.627 33.3971C868.015 33.3971 867.445 33.2831 866.917 33.0551C866.401 32.8271 865.957 32.5031 865.585 32.0831C865.213 31.6631 864.919 31.1651 864.703 30.5891C864.499 30.0131 864.397 29.3711 864.397 28.6631C864.397 27.9191 864.505 27.2531 864.721 26.6651C864.937 26.0771 865.231 25.5851 865.603 25.1891C865.987 24.7811 866.431 24.4691 866.935 24.2531C867.439 24.0371 867.973 23.9291 868.537 23.9291C869.233 23.9291 869.815 24.0611 870.283 24.3251C870.763 24.5771 871.159 24.9491 871.471 25.4411H871.507V24.1631H873.163V33.4331C873.163 34.0811 873.061 34.6391 872.857 35.1071C872.653 35.5871 872.365 35.9831 871.993 36.2951C871.609 36.6071 871.153 36.8351 870.625 36.9791C870.097 37.1351 869.509 37.2131 868.861 37.2131ZM868.789 32.0291C869.317 32.0291 869.761 31.9451 870.121 31.7771C870.481 31.5971 870.769 31.3571 870.985 31.0571C871.213 30.7451 871.375 30.3791 871.471 29.9591C871.567 29.5391 871.615 29.0831 871.615 28.5911C871.615 27.5711 871.381 26.7731 870.913 26.1971C870.457 25.6091 869.743 25.3151 868.771 25.3151C867.883 25.3151 867.217 25.6211 866.773 26.2331C866.329 26.8451 866.107 27.6611 866.107 28.6811C866.107 29.7131 866.335 30.5291 866.791 31.1291C867.247 31.7291 867.913 32.0291 868.789 32.0291ZM878.36 34.0271C877.904 34.0271 877.472 33.9671 877.064 33.8471C876.668 33.7391 876.32 33.5711 876.02 33.3431C875.732 33.1151 875.504 32.8331 875.336 32.4971C875.168 32.1491 875.084 31.7411 875.084 31.2731C875.084 30.7091 875.18 30.2471 875.372 29.8871C875.576 29.5271 875.858 29.2391 876.218 29.0231C876.59 28.8071 877.028 28.6391 877.532 28.5191C878.048 28.3991 878.618 28.3031 879.242 28.2311C879.602 28.1951 879.926 28.1471 880.214 28.0871C880.502 28.0271 880.748 27.9491 880.952 27.8531C881.156 27.7451 881.312 27.6131 881.42 27.4571C881.528 27.3011 881.582 27.0971 881.582 26.8451C881.582 26.3171 881.402 25.9031 881.042 25.6031C880.694 25.3031 880.184 25.1531 879.512 25.1531C878.744 25.1531 878.168 25.3211 877.784 25.6571C877.412 25.9931 877.214 26.4491 877.19 27.0251H875.57C875.582 26.6171 875.672 26.2271 875.84 25.8551C876.008 25.4831 876.254 25.1531 876.578 24.8651C876.902 24.5771 877.304 24.3491 877.784 24.1811C878.276 24.0131 878.846 23.9291 879.494 23.9291C879.95 23.9291 880.376 23.9711 880.772 24.0551C881.168 24.1391 881.522 24.2711 881.834 24.4511C882.242 24.6911 882.56 25.0271 882.788 25.4591C883.016 25.8911 883.13 26.4311 883.13 27.0791V31.5971C883.13 31.9811 883.196 32.2691 883.328 32.4611C883.46 32.6531 883.736 32.7011 884.156 32.6051H884.228V33.7751C884.108 33.8111 883.976 33.8411 883.832 33.8651C883.7 33.9011 883.532 33.9191 883.328 33.9191C882.812 33.9191 882.422 33.7991 882.158 33.5591C881.894 33.3071 881.714 32.9231 881.618 32.4071H881.6C881.444 32.6231 881.264 32.8271 881.06 33.0191C880.856 33.2111 880.622 33.3851 880.358 33.5411C880.094 33.6851 879.794 33.7991 879.458 33.8831C879.134 33.9791 878.768 34.0271 878.36 34.0271ZM878.774 32.8031C879.254 32.8031 879.668 32.7251 880.016 32.5691C880.376 32.4011 880.67 32.1971 880.898 31.9571C881.138 31.7051 881.312 31.4291 881.42 31.1291C881.54 30.8291 881.6 30.5411 881.6 30.2651V28.6811C881.36 28.8371 881.042 28.9751 880.646 29.0951C880.262 29.2031 879.872 29.2931 879.476 29.3651C879.08 29.4371 878.72 29.5151 878.396 29.5991C878.072 29.6711 877.796 29.7791 877.568 29.9231C877.34 30.0551 877.16 30.2291 877.028 30.4451C876.908 30.6491 876.848 30.9191 876.848 31.2551C876.848 31.5671 876.902 31.8251 877.01 32.0291C877.118 32.2211 877.262 32.3771 877.442 32.4971C877.622 32.6171 877.826 32.7011 878.054 32.7491C878.294 32.7851 878.534 32.8031 878.774 32.8031ZM885.588 24.1631H887.244V25.6031H887.298C887.598 25.0751 887.994 24.6671 888.486 24.3791C888.978 24.0791 889.536 23.9291 890.16 23.9291C890.748 23.9291 891.258 24.0791 891.69 24.3791C892.134 24.6791 892.458 25.1291 892.662 25.7291H892.698C893.046 25.1171 893.484 24.6671 894.012 24.3791C894.54 24.0791 895.098 23.9291 895.686 23.9291C896.574 23.9291 897.294 24.1991 897.846 24.7391C898.398 25.2791 898.674 26.0591 898.674 27.0791V33.8291H897V27.2231C897 26.6231 896.832 26.1611 896.496 25.8371C896.16 25.5011 895.746 25.3331 895.254 25.3331C894.942 25.3331 894.648 25.3991 894.372 25.5311C894.096 25.6511 893.856 25.8251 893.652 26.0531C893.448 26.2811 893.28 26.5511 893.148 26.8631C893.028 27.1631 892.968 27.4991 892.968 27.8711V33.8291H891.312V27.2231C891.312 26.6231 891.162 26.1611 890.862 25.8371C890.562 25.5011 890.16 25.3331 889.656 25.3331C889.368 25.3331 889.08 25.3991 888.792 25.5311C888.504 25.6511 888.246 25.8251 888.018 26.0531C887.802 26.2811 887.622 26.5511 887.478 26.8631C887.334 27.1631 887.262 27.4991 887.262 27.8711V33.8291H885.588V24.1631ZM905.11 34.0991C904.366 34.0991 903.7 33.9671 903.112 33.7031C902.536 33.4391 902.044 33.0791 901.636 32.6231C901.228 32.1551 900.916 31.6151 900.7 31.0031C900.496 30.3791 900.394 29.7131 900.394 29.0051C900.394 28.3091 900.502 27.6551 900.718 27.0431C900.946 26.4191 901.258 25.8791 901.654 25.4231C902.062 24.9551 902.548 24.5891 903.112 24.3251C903.688 24.0611 904.324 23.9291 905.02 23.9291C905.74 23.9291 906.376 24.0611 906.928 24.3251C907.48 24.5891 907.948 24.9551 908.332 25.4231C908.728 25.9031 909.022 26.4791 909.214 27.1511C909.418 27.8231 909.52 28.5731 909.52 29.4011H902.104C902.14 29.8691 902.23 30.3071 902.374 30.7151C902.518 31.1231 902.716 31.4771 902.968 31.7771C903.22 32.0771 903.526 32.3111 903.886 32.4791C904.246 32.6471 904.66 32.7311 905.128 32.7311C905.8 32.7311 906.352 32.5871 906.784 32.2991C907.228 31.9991 907.528 31.5911 907.684 31.0751H909.322C909.106 31.9751 908.626 32.7071 907.882 33.2711C907.15 33.8231 906.226 34.0991 905.11 34.0991ZM905.02 25.2251C904.588 25.2251 904.204 25.3031 903.868 25.4591C903.532 25.6031 903.244 25.8071 903.004 26.0711C902.764 26.3351 902.572 26.6471 902.428 27.0071C902.284 27.3671 902.188 27.7631 902.14 28.1951H907.738C907.69 27.2591 907.432 26.5331 906.964 26.0171C906.508 25.4891 905.86 25.2251 905.02 25.2251ZM915.114 24.1631H916.896L918.408 29.5271C918.48 29.8031 918.552 30.1031 918.624 30.4271C918.708 30.7511 918.78 31.0571 918.84 31.3451C918.912 31.6811 918.978 32.0171 919.038 32.3531H919.074C919.134 32.0411 919.2 31.7231 919.272 31.3991C919.332 31.1231 919.398 30.8231 919.47 30.4991C919.554 30.1751 919.638 29.8631 919.722 29.5631L921.18 24.1631H922.764L924.204 29.5631C924.264 29.8271 924.33 30.1211 924.402 30.4451C924.486 30.7571 924.558 31.0571 924.618 31.3451C924.69 31.6811 924.756 32.0231 924.816 32.3711H924.852C924.912 32.0471 924.972 31.7231 925.032 31.3991C925.092 31.1231 925.158 30.8171 925.23 30.4811C925.302 30.1451 925.386 29.8271 925.482 29.5271L927.084 24.1631H928.812L925.662 33.8291H923.988L922.566 28.5011C922.506 28.2611 922.44 27.9911 922.368 27.6911C922.296 27.3791 922.23 27.0851 922.17 26.8091C922.098 26.4851 922.026 26.1491 921.954 25.8011H921.918C921.846 26.1491 921.774 26.4851 921.702 26.8091C921.642 27.0851 921.576 27.3791 921.504 27.6911C921.444 28.0031 921.384 28.2731 921.324 28.5011L919.866 33.8291H918.174L915.114 24.1631ZM930.112 20.4371H931.858V22.3811H930.112V20.4371ZM930.148 24.1631H931.822V33.8291H930.148V24.1631ZM935.777 25.5311H935.831C936.179 25.0391 936.599 24.6491 937.091 24.3611C937.583 24.0731 938.183 23.9291 938.891 23.9291C939.911 23.9291 940.709 24.1991 941.285 24.7391C941.861 25.2791 942.149 26.0591 942.149 27.0791V33.8291H940.493V27.2771C940.493 26.6531 940.301 26.1731 939.917 25.8371C939.545 25.5011 939.029 25.3331 938.369 25.3331C937.997 25.3331 937.649 25.3991 937.325 25.5311C937.013 25.6511 936.743 25.8251 936.515 26.0531C936.287 26.2811 936.107 26.5571 935.975 26.8811C935.855 27.2051 935.795 27.5591 935.795 27.9431V33.8291H934.121V24.1631H935.777V25.5311ZM952.893 34.1171C951.549 34.1171 950.511 33.8291 949.779 33.2531C949.047 32.6651 948.645 31.8791 948.573 30.8951H950.265C950.313 31.2431 950.415 31.5371 950.571 31.7771C950.727 32.0171 950.919 32.2091 951.147 32.3531C951.387 32.4971 951.657 32.6051 951.957 32.6771C952.257 32.7371 952.581 32.7671 952.929 32.7671C953.697 32.7671 954.249 32.6231 954.585 32.3351C954.933 32.0351 955.107 31.6691 955.107 31.2371C955.107 30.7091 954.897 30.3431 954.477 30.1391C954.069 29.9231 953.439 29.7311 952.587 29.5631C952.119 29.4671 951.663 29.3591 951.219 29.2391C950.787 29.1191 950.403 28.9571 950.067 28.7531C949.743 28.5491 949.479 28.2791 949.275 27.9431C949.083 27.6071 948.987 27.1751 948.987 26.6471C948.987 25.8191 949.293 25.1651 949.905 24.6851C950.529 24.1931 951.405 23.9471 952.533 23.9471C953.745 23.9471 954.663 24.2051 955.287 24.7211C955.911 25.2371 956.277 25.9151 956.385 26.7551H954.711C954.639 26.2511 954.423 25.8671 954.063 25.6031C953.715 25.3391 953.193 25.2071 952.497 25.2071C951.837 25.2071 951.357 25.3391 951.057 25.6031C950.769 25.8671 950.625 26.1851 950.625 26.5571C950.625 26.8091 950.679 27.0191 950.787 27.1871C950.907 27.3431 951.075 27.4751 951.291 27.5831C951.519 27.6911 951.789 27.7811 952.101 27.8531C952.425 27.9251 952.791 28.0031 953.199 28.0871C953.679 28.1831 954.135 28.2911 954.567 28.4111C954.999 28.5311 955.377 28.6991 955.701 28.9151C956.037 29.1311 956.301 29.4191 956.493 29.7791C956.685 30.1271 956.781 30.5831 956.781 31.1471C956.781 31.6391 956.685 32.0711 956.493 32.4431C956.301 32.8151 956.031 33.1271 955.683 33.3791C955.347 33.6191 954.939 33.7991 954.459 33.9191C953.979 34.0511 953.457 34.1171 952.893 34.1171ZM957.82 24.1631H959.332V21.1211H960.988V24.1631H962.986V25.4591H960.988V31.5611C960.988 31.9091 961.072 32.1491 961.24 32.2811C961.42 32.4011 961.666 32.4611 961.978 32.4611C962.122 32.4611 962.272 32.4491 962.428 32.4251C962.596 32.3891 962.728 32.3591 962.824 32.3351H962.878V33.7391C962.422 33.8471 961.972 33.9011 961.528 33.9011C960.88 33.8891 960.352 33.7391 959.944 33.4511C959.536 33.1511 959.332 32.6471 959.332 31.9391V25.4591H957.82V24.1631ZM966.38 25.9091H966.434C966.734 25.3451 967.124 24.8951 967.604 24.5591C968.084 24.2111 968.648 24.0371 969.296 24.0371C969.428 24.0371 969.536 24.0491 969.62 24.0731C969.716 24.0851 969.812 24.1091 969.908 24.1451V25.7291H969.854C969.734 25.6931 969.626 25.6691 969.53 25.6571C969.434 25.6451 969.314 25.6391 969.17 25.6391C968.798 25.6391 968.444 25.7111 968.108 25.8551C967.772 25.9871 967.478 26.1791 967.226 26.4311C966.974 26.6831 966.77 26.9891 966.614 27.3491C966.47 27.7091 966.398 28.1171 966.398 28.5731V33.8291H964.724V24.1631H966.38V25.9091ZM975.387 34.0991C974.643 34.0991 973.977 33.9671 973.389 33.7031C972.813 33.4391 972.321 33.0791 971.913 32.6231C971.505 32.1551 971.193 31.6151 970.977 31.0031C970.773 30.3791 970.671 29.7131 970.671 29.0051C970.671 28.3091 970.779 27.6551 970.995 27.0431C971.223 26.4191 971.535 25.8791 971.931 25.4231C972.339 24.9551 972.825 24.5891 973.389 24.3251C973.965 24.0611 974.601 23.9291 975.297 23.9291C976.017 23.9291 976.653 24.0611 977.205 24.3251C977.757 24.5891 978.225 24.9551 978.609 25.4231C979.005 25.9031 979.299 26.4791 979.491 27.1511C979.695 27.8231 979.797 28.5731 979.797 29.4011H972.381C972.417 29.8691 972.507 30.3071 972.651 30.7151C972.795 31.1231 972.993 31.4771 973.245 31.7771C973.497 32.0771 973.803 32.3111 974.163 32.4791C974.523 32.6471 974.937 32.7311 975.405 32.7311C976.077 32.7311 976.629 32.5871 977.061 32.2991C977.505 31.9991 977.805 31.5911 977.961 31.0751H979.599C979.383 31.9751 978.903 32.7071 978.159 33.2711C977.427 33.8231 976.503 34.0991 975.387 34.0991ZM975.297 25.2251C974.865 25.2251 974.481 25.3031 974.145 25.4591C973.809 25.6031 973.521 25.8071 973.281 26.0711C973.041 26.3351 972.849 26.6471 972.705 27.0071C972.561 27.3671 972.465 27.7631 972.417 28.1951H978.015C977.967 27.2591 977.709 26.5331 977.241 26.0171C976.785 25.4891 976.137 25.2251 975.297 25.2251ZM984.462 34.0271C984.006 34.0271 983.574 33.9671 983.166 33.8471C982.77 33.7391 982.422 33.5711 982.122 33.3431C981.834 33.1151 981.606 32.8331 981.438 32.4971C981.27 32.1491 981.186 31.7411 981.186 31.2731C981.186 30.7091 981.282 30.2471 981.474 29.8871C981.678 29.5271 981.96 29.2391 982.32 29.0231C982.692 28.8071 983.13 28.6391 983.634 28.5191C984.15 28.3991 984.72 28.3031 985.344 28.2311C985.704 28.1951 986.028 28.1471 986.316 28.0871C986.604 28.0271 986.85 27.9491 987.054 27.8531C987.258 27.7451 987.414 27.6131 987.522 27.4571C987.63 27.3011 987.684 27.0971 987.684 26.8451C987.684 26.3171 987.504 25.9031 987.144 25.6031C986.796 25.3031 986.286 25.1531 985.614 25.1531C984.846 25.1531 984.27 25.3211 983.886 25.6571C983.514 25.9931 983.316 26.4491 983.292 27.0251H981.672C981.684 26.6171 981.774 26.2271 981.942 25.8551C982.11 25.4831 982.356 25.1531 982.68 24.8651C983.004 24.5771 983.406 24.3491 983.886 24.1811C984.378 24.0131 984.948 23.9291 985.596 23.9291C986.052 23.9291 986.478 23.9711 986.874 24.0551C987.27 24.1391 987.624 24.2711 987.936 24.4511C988.344 24.6911 988.662 25.0271 988.89 25.4591C989.118 25.8911 989.232 26.4311 989.232 27.0791V31.5971C989.232 31.9811 989.298 32.2691 989.43 32.4611C989.562 32.6531 989.838 32.7011 990.258 32.6051H990.33V33.7751C990.21 33.8111 990.078 33.8411 989.934 33.8651C989.802 33.9011 989.634 33.9191 989.43 33.9191C988.914 33.9191 988.524 33.7991 988.26 33.5591C987.996 33.3071 987.816 32.9231 987.72 32.4071H987.702C987.546 32.6231 987.366 32.8271 987.162 33.0191C986.958 33.2111 986.724 33.3851 986.46 33.5411C986.196 33.6851 985.896 33.7991 985.56 33.8831C985.236 33.9791 984.87 34.0271 984.462 34.0271ZM984.876 32.8031C985.356 32.8031 985.77 32.7251 986.118 32.5691C986.478 32.4011 986.772 32.1971 987 31.9571C987.24 31.7051 987.414 31.4291 987.522 31.1291C987.642 30.8291 987.702 30.5411 987.702 30.2651V28.6811C987.462 28.8371 987.144 28.9751 986.748 29.0951C986.364 29.2031 985.974 29.2931 985.578 29.3651C985.182 29.4371 984.822 29.5151 984.498 29.5991C984.174 29.6711 983.898 29.7791 983.67 29.9231C983.442 30.0551 983.262 30.2291 983.13 30.4451C983.01 30.6491 982.95 30.9191 982.95 31.2551C982.95 31.5671 983.004 31.8251 983.112 32.0291C983.22 32.2211 983.364 32.3771 983.544 32.4971C983.724 32.6171 983.928 32.7011 984.156 32.7491C984.396 32.7851 984.636 32.8031 984.876 32.8031ZM994.731 28.7351L993.363 30.0311V33.8291H991.689V20.4371H993.363V26.7911C993.363 26.9591 993.357 27.1931 993.345 27.4931C993.333 27.7811 993.315 28.0451 993.291 28.2851L997.485 24.1631H999.573L995.883 27.6371L1000.01 33.8291H998.043L994.731 28.7351ZM1006.23 24.1631H1007.88V25.6751H1007.94C1008.3 25.1231 1008.72 24.6971 1009.21 24.3971C1009.72 24.0851 1010.32 23.9291 1011.01 23.9291C1011.63 23.9291 1012.18 24.0491 1012.69 24.2891C1013.2 24.5171 1013.64 24.8531 1014 25.2971C1014.37 25.7291 1014.66 26.2631 1014.87 26.8991C1015.07 27.5231 1015.17 28.2311 1015.17 29.0231C1015.17 29.8031 1015.08 30.5051 1014.88 31.1291C1014.69 31.7531 1014.41 32.2871 1014.04 32.7311C1013.68 33.1751 1013.23 33.5171 1012.71 33.7571C1012.19 33.9971 1011.61 34.1171 1010.96 34.1171C1010.3 34.1171 1009.71 33.9851 1009.2 33.7211C1008.68 33.4571 1008.25 33.0671 1007.92 32.5511H1007.86C1007.88 32.7191 1007.88 32.9411 1007.88 33.2171C1007.89 33.4811 1007.9 33.7991 1007.9 34.1711V37.1051H1006.23V24.1631ZM1010.78 32.7311C1011.22 32.7311 1011.61 32.6411 1011.95 32.4611C1012.29 32.2691 1012.56 32.0111 1012.78 31.6871C1013.01 31.3631 1013.17 30.9791 1013.28 30.5351C1013.4 30.0791 1013.46 29.5871 1013.46 29.0591C1013.46 28.5311 1013.41 28.0391 1013.3 27.5831C1013.19 27.1271 1013.02 26.7371 1012.8 26.4131C1012.58 26.0771 1012.3 25.8191 1011.97 25.6391C1011.63 25.4471 1011.24 25.3511 1010.8 25.3511C1010.28 25.3511 1009.84 25.4471 1009.47 25.6391C1009.09 25.8311 1008.78 26.0951 1008.53 26.4311C1008.29 26.7671 1008.11 27.1631 1007.99 27.6191C1007.87 28.0631 1007.81 28.5431 1007.81 29.0591C1007.81 29.5631 1007.86 30.0431 1007.97 30.4991C1008.08 30.9431 1008.25 31.3331 1008.49 31.6691C1008.73 31.9931 1009.04 32.2511 1009.41 32.4431C1009.78 32.6351 1010.24 32.7311 1010.78 32.7311ZM1018.6 25.9091H1018.66C1018.96 25.3451 1019.35 24.8951 1019.83 24.5591C1020.31 24.2111 1020.87 24.0371 1021.52 24.0371C1021.65 24.0371 1021.76 24.0491 1021.84 24.0731C1021.94 24.0851 1022.04 24.1091 1022.13 24.1451V25.7291H1022.08C1021.96 25.6931 1021.85 25.6691 1021.75 25.6571C1021.66 25.6451 1021.54 25.6391 1021.39 25.6391C1021.02 25.6391 1020.67 25.7111 1020.33 25.8551C1020 25.9871 1019.7 26.1791 1019.45 26.4311C1019.2 26.6831 1018.99 26.9891 1018.84 27.3491C1018.69 27.7091 1018.62 28.1171 1018.62 28.5731V33.8291H1016.95V24.1631H1018.6V25.9091ZM1023.73 20.4371H1025.48V22.3811H1023.73V20.4371ZM1023.77 24.1631H1025.44V33.8291H1023.77V24.1631ZM1027.38 32.5331L1031.7 26.8991C1031.8 26.7671 1031.91 26.6291 1032.04 26.4851C1032.18 26.3291 1032.3 26.1851 1032.42 26.0531C1032.55 25.8971 1032.7 25.7411 1032.85 25.5851V25.5311C1032.63 25.5431 1032.4 25.5551 1032.19 25.5671C1032 25.5791 1031.8 25.5851 1031.59 25.5851C1031.39 25.5851 1031.2 25.5851 1031.04 25.5851H1027.71V24.1631H1034.96V25.2071L1030.57 30.9491C1030.46 31.0811 1030.33 31.2311 1030.19 31.3991C1030.06 31.5551 1029.93 31.7051 1029.79 31.8491C1029.65 32.0171 1029.5 32.1851 1029.34 32.3531V32.4071C1029.58 32.4071 1029.82 32.4011 1030.05 32.3891C1030.25 32.3771 1030.46 32.3711 1030.68 32.3711C1030.89 32.3591 1031.09 32.3531 1031.27 32.3531H1035.18V33.8291H1027.38V32.5331ZM1040.8 34.0991C1040.05 34.0991 1039.39 33.9671 1038.8 33.7031C1038.22 33.4391 1037.73 33.0791 1037.32 32.6231C1036.91 32.1551 1036.6 31.6151 1036.39 31.0031C1036.18 30.3791 1036.08 29.7131 1036.08 29.0051C1036.08 28.3091 1036.19 27.6551 1036.4 27.0431C1036.63 26.4191 1036.94 25.8791 1037.34 25.4231C1037.75 24.9551 1038.23 24.5891 1038.8 24.3251C1039.37 24.0611 1040.01 23.9291 1040.71 23.9291C1041.43 23.9291 1042.06 24.0611 1042.61 24.3251C1043.17 24.5891 1043.63 24.9551 1044.02 25.4231C1044.41 25.9031 1044.71 26.4791 1044.9 27.1511C1045.1 27.8231 1045.21 28.5731 1045.21 29.4011H1037.79C1037.83 29.8691 1037.92 30.3071 1038.06 30.7151C1038.2 31.1231 1038.4 31.4771 1038.65 31.7771C1038.91 32.0771 1039.21 32.3111 1039.57 32.4791C1039.93 32.6471 1040.35 32.7311 1040.81 32.7311C1041.49 32.7311 1042.04 32.5871 1042.47 32.2991C1042.91 31.9991 1043.21 31.5911 1043.37 31.0751H1045.01C1044.79 31.9751 1044.31 32.7071 1043.57 33.2711C1042.84 33.8231 1041.91 34.0991 1040.8 34.0991ZM1040.71 25.2251C1040.27 25.2251 1039.89 25.3031 1039.55 25.4591C1039.22 25.6031 1038.93 25.8071 1038.69 26.0711C1038.45 26.3351 1038.26 26.6471 1038.11 27.0071C1037.97 27.3671 1037.87 27.7631 1037.83 28.1951H1043.42C1043.38 27.2591 1043.12 26.5331 1042.65 26.0171C1042.19 25.4891 1041.55 25.2251 1040.71 25.2251Z" fill="white"/>
<path d="M1175.53 34.8041C1175.09 34.8041 1174.72 34.6507 1174.41 34.3441C1174.11 34.0374 1173.95 33.6651 1173.95 33.227V25.5519C1173.04 25.3066 1172.25 24.8422 1171.56 24.1588C1170.88 23.4754 1170.54 22.6431 1170.54 21.6618C1170.54 20.7331 1170.8 19.9095 1171.34 19.1911C1171.87 18.4726 1172.56 17.9732 1173.4 17.6929C1173.81 16.8517 1174.41 16.1684 1175.2 15.6427C1176 15.117 1176.9 14.8541 1177.9 14.8541C1178.51 14.8541 1179.08 14.9593 1179.62 15.1695C1180.15 15.3798 1180.64 15.6602 1181.08 16.0106C1181.25 15.9756 1181.42 15.9449 1181.58 15.9186C1181.73 15.8924 1181.91 15.8792 1182.1 15.8792C1183.26 15.8792 1184.25 16.291 1185.07 17.1146C1185.9 17.9382 1186.31 18.9282 1186.31 20.0847C1186.31 20.4703 1186.23 20.8558 1186.07 21.2413C1185.91 21.6268 1185.71 21.9422 1185.47 22.1875H1187.89C1188.32 22.1875 1188.7 22.3408 1189 22.6475C1189.31 22.9541 1189.46 23.3265 1189.46 23.7646V31.1242C1189.46 31.5623 1189.31 31.9347 1189 32.2413C1188.7 32.548 1188.32 32.7013 1187.89 32.7013H1184.99V33.227C1184.99 33.6651 1184.84 34.0374 1184.53 34.3441C1184.23 34.6507 1183.86 34.8041 1183.42 34.8041H1175.53ZM1172.11 21.6618C1172.11 22.3277 1172.39 22.8884 1172.93 23.344C1173.47 23.7996 1174.08 24.0274 1174.74 24.0274C1175.3 24.0274 1175.81 23.8741 1176.27 23.5674C1176.72 23.2608 1177.19 22.8183 1177.66 22.2401C1178.06 21.7494 1178.55 21.3114 1179.11 20.9258C1179.67 20.5403 1180.32 20.3476 1181.05 20.3476H1184.73C1184.73 19.5591 1184.5 18.88 1184.03 18.3105C1183.57 17.741 1182.93 17.4563 1182.1 17.4563C1181.79 17.4563 1181.48 17.5045 1181.17 17.6009L1180.71 17.7454L1180.21 17.3249C1179.89 17.0445 1179.54 16.8255 1179.13 16.6678C1178.73 16.5101 1178.32 16.4312 1177.9 16.4312C1177.28 16.4312 1176.7 16.5889 1176.14 16.9043C1175.58 17.2197 1175.16 17.6578 1174.9 18.2185L1174.53 19.0071L1173.69 19.2962C1173.24 19.4539 1172.86 19.7649 1172.56 20.2293C1172.26 20.6937 1172.11 21.1712 1172.11 21.6618ZM1184.99 31.1242H1187.89V23.7646H1184.99V31.1242Z" fill="white"/>
<path d="M1224 51.8291H809V53.8291H1224V51.8291Z" fill="white" mask="url(#path-17-inside-4_4719_145469)"/>
<path d="M857.176 91.5251C857.176 91.5251 852.952 105.493 852.328 107.509C851.896 105.541 848.152 91.5251 848.152 91.5251H841L848.824 115.621V129.829H855.832V115.477L864.088 91.5251H857.176ZM871.947 121.237C871.947 121.909 871.85 122.725 871.659 123.541C871.419 124.597 870.41 125.029 869.451 125.029C868.491 125.029 867.387 124.453 867.242 123.157C867.098 121.957 867.051 120.037 867.051 118.837H877.947C878.187 114.325 877.851 109.717 876.939 107.461C875.835 104.773 873.291 103.093 869.595 103.093C865.034 103.093 863.018 105.157 862.058 107.509C861.338 109.237 860.81 112.789 860.81 116.773C860.81 120.853 861.146 123.877 862.25 126.421C863.402 129.109 866.138 130.165 869.69 130.165C873.242 130.165 875.403 128.725 876.555 126.661C877.562 124.885 877.802 122.005 877.802 121.237H871.947ZM866.954 114.133C866.954 112.309 867.003 110.581 867.339 109.765C867.674 108.853 868.443 108.373 869.499 108.373C870.603 108.373 871.323 108.901 871.562 109.813C871.755 110.437 871.898 111.733 871.898 114.133H866.954ZM896.75 125.125C896.75 123.157 896.798 119.941 896.798 117.877C896.846 115.429 896.894 111.445 896.798 109.141C896.654 105.445 894.35 103.093 888.83 103.093C882.974 103.093 880.574 105.733 880.574 110.677V112.645H886.526V111.157C886.526 109.333 887.102 108.421 888.734 108.421C889.934 108.421 890.558 109.093 890.606 110.245C890.654 111.061 890.654 112.693 890.654 113.413C889.598 113.413 888.494 113.557 887.294 113.749C882.878 114.565 879.902 116.965 879.662 120.805C879.566 122.197 879.614 124.453 879.662 125.029C879.854 128.869 882.782 130.021 885.422 130.021C887.774 130.021 889.55 129.397 890.75 127.909C890.75 128.581 890.894 129.829 890.99 129.829H897.086C896.846 129.493 896.75 127.045 896.75 125.125ZM890.654 119.749C890.558 121.093 890.654 121.765 890.414 123.157C890.174 124.501 889.022 125.029 888.014 125.029C887.054 125.029 886.286 124.693 886.142 123.781C886.046 123.013 886.046 122.101 886.046 121.381C886.046 120.277 886.094 119.509 886.91 118.789C887.63 118.165 888.446 118.021 889.118 117.877C889.694 117.781 890.174 117.781 890.654 117.781C890.654 118.165 890.702 119.221 890.654 119.749ZM910.697 103.093C908.489 103.093 906.281 104.533 905.993 106.549V103.429H899.657V129.829H906.089V114.181C906.089 109.861 907.433 108.901 909.641 108.901C910.937 108.901 912.233 109.141 913.001 109.381V103.333C912.473 103.141 911.705 103.093 910.697 103.093ZM916.194 99.5411L916.29 99.7331L914.466 102.901L917.394 104.965L921.522 99.8291V91.5251H914.802V99.5411H916.194ZM932.376 114.901C931.176 114.277 929.976 113.749 928.776 113.173C927.24 112.453 926.712 111.637 926.712 110.341C926.712 109.237 927.192 108.325 928.68 108.325C930.024 108.325 930.456 109.093 930.552 109.909C930.6 110.101 930.648 111.589 930.648 111.877H936.456C936.456 111.349 936.312 108.565 936.168 107.797C935.544 104.869 933.096 103.045 928.44 103.045C923.352 103.045 920.76 106.021 920.76 110.197C920.76 114.133 921.912 116.581 925.368 118.213C926.328 118.645 927.624 119.269 928.44 119.605C930.264 120.325 930.888 121.237 930.888 122.869C930.888 124.357 929.976 125.077 928.776 125.077C927.624 125.077 926.712 124.597 926.616 123.493C926.568 122.677 926.52 121.861 926.52 121.525H920.568C920.568 122.341 920.616 124.021 920.712 124.885C921.144 128.437 923.544 130.213 928.92 130.213C933.672 130.213 936.984 127.669 936.984 122.677C936.984 118.645 935.736 116.581 932.376 114.901ZM971.86 91.5251C971.86 91.5251 969.172 115.669 969.172 119.461C969.172 115.669 965.86 91.5251 965.86 91.5251H958.9C958.9 91.5251 955.78 115.669 955.78 119.461C955.78 115.669 952.996 91.5251 952.996 91.5251H945.844L951.22 129.829H959.332C959.332 129.829 962.26 109.957 962.308 105.973C962.5 109.957 965.284 129.829 965.284 129.829H973.588L978.82 91.5251H971.86ZM995.297 108.469C994.433 105.445 992.129 103.093 987.377 103.093C982.625 103.093 980.273 105.685 979.505 108.325C978.833 110.581 978.497 113.749 978.497 116.581C978.497 119.509 978.881 123.061 979.313 124.645C980.225 127.957 982.961 130.165 987.281 130.165C991.841 130.165 994.289 128.005 995.249 124.645C995.825 122.725 996.113 119.461 996.113 116.581C996.113 113.749 995.873 110.437 995.297 108.469ZM989.585 123.061C989.441 124.069 988.529 124.933 987.329 124.933C986.177 124.933 985.313 124.309 985.121 123.109C984.881 121.861 984.833 118.741 984.833 116.677C984.833 114.709 984.881 111.493 985.121 110.389C985.409 109.189 986.081 108.517 987.329 108.517C988.625 108.517 989.297 109.045 989.585 110.293C989.777 111.301 989.873 114.661 989.873 116.677C989.873 118.693 989.921 120.757 989.585 123.061ZM1009.72 103.093C1007.51 103.093 1005.3 104.533 1005.01 106.549V103.429H998.677V129.829H1005.11V114.181C1005.11 109.861 1006.45 108.901 1008.66 108.901C1009.96 108.901 1011.25 109.141 1012.02 109.381V103.333C1011.49 103.141 1010.73 103.093 1009.72 103.093ZM1025.81 103.429H1022.12V98.3411L1015.88 98.4851C1015.88 98.4851 1015.69 103.285 1015.64 103.429H1013.29V109.045H1015.54V124.069C1015.54 128.197 1017.85 130.021 1021.78 130.021C1023.46 130.021 1024.52 129.925 1025.53 129.685V124.549C1025.05 124.645 1024.42 124.693 1023.89 124.693C1022.89 124.693 1022.07 124.405 1022.07 122.917V109.045H1025.81V103.429ZM1044.75 109.525C1044.75 104.917 1042.49 103.093 1039.23 103.093C1036.59 103.093 1035.1 104.101 1034.38 105.877V91.4771H1028.04V129.829H1034.38V111.445C1034.38 109.621 1035.29 108.709 1036.54 108.709C1037.93 108.709 1038.36 109.477 1038.36 110.677C1038.36 129.109 1038.36 129.829 1038.41 129.829H1044.84C1044.8 129.829 1044.75 129.109 1044.75 109.525ZM1071.67 108.469C1070.8 105.445 1068.5 103.093 1063.75 103.093C1058.99 103.093 1056.64 105.685 1055.87 108.325C1055.2 110.581 1054.87 113.749 1054.87 116.581C1054.87 119.509 1055.25 123.061 1055.68 124.645C1056.59 127.957 1059.33 130.165 1063.65 130.165C1068.21 130.165 1070.66 128.005 1071.62 124.645C1072.19 122.725 1072.48 119.461 1072.48 116.581C1072.48 113.749 1072.24 110.437 1071.67 108.469ZM1065.95 123.061C1065.81 124.069 1064.9 124.933 1063.7 124.933C1062.55 124.933 1061.68 124.309 1061.49 123.109C1061.25 121.861 1061.2 118.741 1061.2 116.677C1061.2 114.709 1061.25 111.493 1061.49 110.389C1061.78 109.189 1062.45 108.517 1063.7 108.517C1064.99 108.517 1065.67 109.045 1065.95 110.293C1066.15 111.301 1066.24 114.661 1066.24 116.677C1066.24 118.693 1066.29 120.757 1065.95 123.061ZM1086.28 103.429H1082.82V98.5331C1082.82 97.5731 1083.4 96.5171 1084.69 96.5171C1085.22 96.5171 1085.99 96.5651 1086.61 96.6611V91.4291C1085.89 91.3331 1084.5 91.2851 1082.82 91.2851C1078.07 91.2851 1076.39 94.1171 1076.39 97.7171V103.429H1074.04V109.045H1076.39V129.829H1082.82V109.045H1086.28V103.429ZM1116.66 119.365C1116.66 116.965 1116.38 114.181 1115.51 112.645C1114.65 111.061 1113.45 110.293 1111.58 110.053C1113.16 109.765 1114.22 109.093 1114.94 107.605C1115.85 105.685 1115.99 103.237 1115.99 100.693C1115.99 98.2931 1115.7 95.9891 1114.79 94.4051C1113.64 92.3891 1111.48 91.5251 1108.26 91.5251H1096.17V129.829H1107.54C1111.1 129.829 1113.35 129.349 1114.98 127.141C1116.28 125.365 1116.66 122.293 1116.66 119.365ZM1108.22 106.645C1107.78 107.557 1107.26 107.941 1106.73 107.941H1103.03V97.2371H1106.25C1107.26 97.2371 1107.83 97.8131 1108.17 98.6291C1108.46 99.3491 1108.74 100.885 1108.74 102.421C1108.74 104.293 1108.5 106.021 1108.22 106.645ZM1106.44 124.117H1103.03V113.317H1106.58C1107.5 113.317 1108.22 113.893 1108.65 114.661C1108.98 115.285 1109.18 117.349 1109.18 118.597C1109.18 119.797 1109.03 122.053 1108.7 122.773C1108.26 123.733 1107.35 124.117 1106.44 124.117ZM1129.89 121.237C1129.89 121.909 1129.8 122.725 1129.6 123.541C1129.36 124.597 1128.36 125.029 1127.4 125.029C1126.44 125.029 1125.33 124.453 1125.19 123.157C1125.04 121.957 1125 120.037 1125 118.837H1135.89C1136.13 114.325 1135.8 109.717 1134.88 107.461C1133.78 104.773 1131.24 103.093 1127.54 103.093C1122.98 103.093 1120.96 105.157 1120 107.509C1119.28 109.237 1118.76 112.789 1118.76 116.773C1118.76 120.853 1119.09 123.877 1120.2 126.421C1121.35 129.109 1124.08 130.165 1127.64 130.165C1131.19 130.165 1133.35 128.725 1134.5 126.661C1135.51 124.885 1135.75 122.005 1135.75 121.237H1129.89ZM1124.9 114.133C1124.9 112.309 1124.95 110.581 1125.28 109.765C1125.62 108.853 1126.39 108.373 1127.44 108.373C1128.55 108.373 1129.27 108.901 1129.51 109.813C1129.7 110.437 1129.84 111.733 1129.84 114.133H1124.9ZM1148.89 121.237C1148.89 121.909 1148.79 122.725 1148.6 123.541C1148.36 124.597 1147.35 125.029 1146.39 125.029C1145.43 125.029 1144.33 124.453 1144.18 123.157C1144.04 121.957 1143.99 120.037 1143.99 118.837H1154.89C1155.13 114.325 1154.79 109.717 1153.88 107.461C1152.78 104.773 1150.23 103.093 1146.54 103.093C1141.98 103.093 1139.96 105.157 1139 107.509C1138.28 109.237 1137.75 112.789 1137.75 116.773C1137.75 120.853 1138.09 123.877 1139.19 126.421C1140.34 129.109 1143.08 130.165 1146.63 130.165C1150.18 130.165 1152.34 128.725 1153.5 126.661C1154.5 124.885 1154.74 122.005 1154.74 121.237H1148.89ZM1143.9 114.133C1143.9 112.309 1143.94 110.581 1144.28 109.765C1144.62 108.853 1145.38 108.373 1146.44 108.373C1147.54 108.373 1148.26 108.901 1148.5 109.813C1148.7 110.437 1148.84 111.733 1148.84 114.133H1143.9ZM1168.27 103.093C1166.06 103.093 1163.85 104.533 1163.56 106.549V103.429H1157.23V129.829H1163.66V114.181C1163.66 109.861 1165 108.901 1167.21 108.901C1168.51 108.901 1169.8 109.141 1170.57 109.381V103.333C1170.04 103.141 1169.28 103.093 1168.27 103.093ZM857.8 164.181H852.568V158.277H846.904V164.181H841.576V169.797H846.904V175.749H852.52V169.797H857.8V164.181ZM887.398 147.525H880.87V166.245L874.87 147.525H868.198V185.829H874.726V166.725L880.774 185.829H887.398V147.525ZM907.794 147.525H890.85V185.829H897.858V169.845H907.026V163.413H897.858V154.101H907.794V147.525ZM927.216 179.349H917.088V147.525H910.08V185.829H927.216V179.349ZM949.339 176.565L950.587 185.829H957.691L951.979 147.525H942.139L935.755 185.829H942.763L944.107 176.565H949.339ZM944.779 170.901C944.779 170.901 946.507 159.765 946.507 159.573C946.843 157.509 946.939 153.765 946.939 153.765C946.939 153.765 947.035 157.557 947.275 159.573C947.275 159.765 948.715 170.901 948.715 170.901H944.779ZM976.797 179.349H966.669V147.525H959.661V185.829H976.797V179.349ZM996.073 179.349H985.945V147.525H978.937V185.829H996.073V179.349ZM1025.64 165.861C1025.64 159.861 1025.4 153.189 1023.91 151.029C1022.23 148.533 1020.07 147.525 1015.99 147.525H1006.1V185.829H1016.85C1020.79 185.829 1022.66 184.341 1023.91 182.181C1025.4 179.637 1025.64 173.781 1025.64 165.861ZM1016.08 180.309H1013.01V153.477H1015.8C1017.19 153.477 1018.05 154.149 1018.44 155.733C1018.77 157.029 1018.92 163.941 1018.92 165.861C1018.92 167.829 1018.82 176.805 1018.48 178.341C1018.15 179.733 1017.33 180.309 1016.08 180.309ZM1040.15 176.565L1041.39 185.829H1048.5L1042.79 147.525H1032.95L1026.56 185.829H1033.57L1034.91 176.565H1040.15ZM1035.59 170.901C1035.59 170.901 1037.31 159.765 1037.31 159.573C1037.65 157.509 1037.75 153.765 1037.75 153.765C1037.75 153.765 1037.84 157.557 1038.08 159.573C1038.08 159.765 1039.52 170.901 1039.52 170.901H1035.59ZM1062.67 147.525C1062.67 147.525 1058.45 161.493 1057.82 163.509C1057.39 161.541 1053.65 147.525 1053.65 147.525H1046.49L1054.32 171.621V185.829H1061.33V171.477L1069.58 147.525H1062.67ZM860.536 206.981C859.432 204.725 856.936 203.525 854.008 203.525H842.488V241.829H849.448V225.893H851.944L855.784 241.829H863.032L858.376 223.973C859.336 223.637 860.392 222.581 860.968 221.093C861.544 219.701 861.88 217.637 861.88 214.613C861.88 211.205 861.352 208.565 860.536 206.981ZM854.44 218.741C854.248 219.413 853.72 219.845 852.808 219.941C852.568 219.989 849.448 219.989 849.448 219.989V209.909H852.616C853.768 209.909 854.392 210.677 854.632 211.733C854.728 212.213 854.824 213.989 854.824 215.285C854.824 216.437 854.728 218.069 854.44 218.741ZM875.181 233.237C875.181 233.909 875.085 234.725 874.893 235.541C874.653 236.597 873.645 237.029 872.685 237.029C871.725 237.029 870.621 236.453 870.477 235.157C870.333 233.957 870.285 232.037 870.285 230.837H881.181C881.421 226.325 881.085 221.717 880.173 219.461C879.069 216.773 876.525 215.093 872.829 215.093C868.269 215.093 866.253 217.157 865.293 219.509C864.573 221.237 864.045 224.789 864.045 228.773C864.045 232.853 864.381 235.877 865.485 238.421C866.637 241.109 869.373 242.165 872.925 242.165C876.477 242.165 878.637 240.725 879.789 238.661C880.797 236.885 881.037 234.005 881.037 233.237H875.181ZM870.189 226.133C870.189 224.309 870.237 222.581 870.573 221.765C870.909 220.853 871.677 220.373 872.733 220.373C873.837 220.373 874.557 220.901 874.797 221.813C874.989 222.437 875.133 223.733 875.133 226.133H870.189ZM904.795 215.429L902.683 234.821L899.899 215.429H893.323L890.875 234.821L888.427 215.429H881.899L886.651 241.829H894.331C894.331 241.829 896.011 232.469 896.539 229.349C896.587 229.061 896.635 226.613 896.635 226.613C896.635 226.613 896.779 229.061 896.827 229.349C897.355 232.373 898.987 241.829 898.987 241.829H906.571L911.179 215.429H904.795ZM928.636 237.125C928.636 235.157 928.684 231.941 928.684 229.877C928.732 227.429 928.78 223.445 928.684 221.141C928.54 217.445 926.236 215.093 920.716 215.093C914.86 215.093 912.46 217.733 912.46 222.677V224.645H918.412V223.157C918.412 221.333 918.988 220.421 920.62 220.421C921.82 220.421 922.444 221.093 922.492 222.245C922.54 223.061 922.54 224.693 922.54 225.413C921.484 225.413 920.38 225.557 919.18 225.749C914.764 226.565 911.788 228.965 911.548 232.805C911.452 234.197 911.5 236.453 911.548 237.029C911.74 240.869 914.668 242.021 917.308 242.021C919.66 242.021 921.436 241.397 922.636 239.909C922.636 240.581 922.78 241.829 922.876 241.829H928.972C928.732 241.493 928.636 239.045 928.636 237.125ZM922.54 231.749C922.444 233.093 922.54 233.765 922.3 235.157C922.06 236.501 920.908 237.029 919.9 237.029C918.94 237.029 918.172 236.693 918.028 235.781C917.932 235.013 917.932 234.101 917.932 233.381C917.932 232.277 917.98 231.509 918.796 230.789C919.516 230.165 920.332 230.021 921.004 229.877C921.58 229.781 922.06 229.781 922.54 229.781C922.54 230.165 922.588 231.221 922.54 231.749ZM942.583 215.093C940.375 215.093 938.167 216.533 937.879 218.549V215.429H931.543V241.829H937.975V226.181C937.975 221.861 939.319 220.901 941.527 220.901C942.823 220.901 944.119 221.141 944.887 221.381V215.333C944.359 215.141 943.591 215.093 942.583 215.093ZM946.848 219.317C946.08 222.197 945.84 224.837 945.84 228.725C945.84 232.949 946.32 236.453 947.184 238.565C948.144 240.965 949.92 242.021 952.56 242.021C954.912 242.021 956.496 241.253 957.36 239.909L958.128 241.829H963.504C963.504 241.829 963.312 239.621 963.312 238.133V203.477H957.024V217.349C956.304 215.957 954.576 215.189 952.56 215.189C949.728 215.189 947.52 216.725 946.848 219.317ZM956.592 222.101C956.88 223.541 957.072 224.981 957.072 228.773C957.072 231.077 956.976 233.477 956.64 235.157C956.448 236.165 955.824 236.933 954.576 236.933C953.28 236.933 952.608 236.309 952.464 235.301C952.224 233.333 952.128 230.981 952.128 228.773C952.128 226.517 952.224 224.261 952.56 222.341C952.752 221.381 953.424 220.661 954.624 220.661C955.824 220.661 956.4 221.189 956.592 222.101ZM991.858 206.261C990.466 204.437 988.45 203.525 985.474 203.525H974.098V241.829H981.154V227.333C981.154 227.333 984.418 227.381 985.378 227.285C988.258 227.093 990.37 226.325 991.762 224.597C993.202 222.869 993.778 219.989 993.778 215.429C993.778 210.917 993.106 207.845 991.858 206.261ZM986.434 219.557C986.242 220.805 985.426 221.333 983.842 221.333H981.154V210.005H984.034C985.138 210.005 985.954 210.629 986.242 211.445C986.482 212.117 986.722 213.701 986.722 215.717C986.722 217.781 986.674 218.261 986.434 219.557ZM1011.1 237.125C1011.1 235.157 1011.15 231.941 1011.15 229.877C1011.19 227.429 1011.24 223.445 1011.15 221.141C1011 217.445 1008.7 215.093 1003.18 215.093C997.323 215.093 994.923 217.733 994.923 222.677V224.645H1000.87V223.157C1000.87 221.333 1001.45 220.421 1003.08 220.421C1004.28 220.421 1004.91 221.093 1004.95 222.245C1005 223.061 1005 224.693 1005 225.413C1003.95 225.413 1002.84 225.557 1001.64 225.749C997.227 226.565 994.251 228.965 994.011 232.805C993.915 234.197 993.963 236.453 994.011 237.029C994.203 240.869 997.131 242.021 999.771 242.021C1002.12 242.021 1003.9 241.397 1005.1 239.909C1005.1 240.581 1005.24 241.829 1005.34 241.829H1011.43C1011.19 241.493 1011.1 239.045 1011.1 237.125ZM1005 231.749C1004.91 233.093 1005 233.765 1004.76 235.157C1004.52 236.501 1003.37 237.029 1002.36 237.029C1001.4 237.029 1000.63 236.693 1000.49 235.781C1000.39 235.013 1000.39 234.101 1000.39 233.381C1000.39 232.277 1000.44 231.509 1001.26 230.789C1001.98 230.165 1002.79 230.021 1003.47 229.877C1004.04 229.781 1004.52 229.781 1005 229.781C1005 230.165 1005.05 231.221 1005 231.749ZM1029.99 219.893C1029.13 217.157 1027.11 215.093 1022.17 215.093C1018.42 215.093 1015.73 216.773 1014.77 219.605C1013.81 222.485 1013.53 224.789 1013.53 228.629C1013.53 232.613 1014.1 236.597 1014.87 238.325C1015.93 240.725 1018.47 242.165 1022.26 242.165C1026.15 242.165 1028.65 240.437 1029.51 238.229C1030.42 235.925 1030.47 234.821 1030.47 231.221H1024.52C1024.52 232.901 1024.52 233.429 1024.33 234.821C1024.18 235.925 1023.51 236.789 1022.26 236.789C1021.01 236.789 1020.39 236.213 1020.2 234.869C1019.91 232.901 1019.81 230.213 1019.81 228.677C1019.81 226.757 1019.91 224.357 1020.2 222.485C1020.39 221.189 1021.06 220.517 1022.21 220.517C1023.56 220.517 1024.04 221.381 1024.18 222.437C1024.33 223.445 1024.47 224.645 1024.47 226.181H1030.47C1030.47 222.965 1030.33 221.045 1029.99 219.893ZM1045.53 225.029L1050.53 215.429H1044.29L1039.15 225.557V203.477H1032.81V241.829H1039.15V233.909L1041.02 230.885L1044.33 241.829H1050.77L1045.53 225.029Z" fill="white"/>
</g>
<path d="M809 0.829102H1224H809ZM1224 284.829H809H1224ZM808 284.829V0.829102H810V284.829H808ZM1224 0.829102V284.829V0.829102Z" fill="white" mask="url(#path-15-inside-3_4719_145469)"/>
<rect x="624.5" y="1.3291" width="599" height="283" rx="11.5" stroke="white"/>
<defs>
<clipPath id="clip0_4719_145469">
<path d="M185 0.829102H600V284.829H185V0.829102Z" fill="white"/>
</clipPath>
<clipPath id="clip1_4719_145469">
<path d="M809 0.829102H1224V284.829H809V0.829102Z" fill="white"/>
</clipPath>
</defs>
</svg>
