<svg width="100%" height="auto" viewBox="0 0 1224 285" fill="none" xmlns="http://www.w3.org/2000/svg">
<path d="M88.28 69.5571H74.456C73.048 72.6291 69.464 78.5171 56.28 79.4131V94.1331L70.36 93.4931V171.829H88.28V69.5571ZM125.155 69.5571H111.331C109.923 72.6291 106.339 78.5171 93.155 79.4131V94.1331L107.235 93.4931V171.829H125.155V69.5571Z" fill="white"/>
<path d="M80.0281 201.573C80.0281 201.573 77.5981 212.139 77.5981 212.571C77.5981 212.139 75.3661 201.573 75.3661 201.573H72.7381C72.7381 201.573 70.5241 212.139 70.5241 212.571C70.5241 212.139 68.0941 201.573 68.0941 201.573H65.5921L69.0121 215.829H71.6941C71.6941 215.829 74.0161 205.281 74.0161 204.813C74.0341 205.281 76.2661 215.829 76.2661 215.829H78.9661L82.3501 201.573H80.0281ZM88.8421 201.573H86.4121V215.829H88.8421V201.573ZM103.883 201.573H101.633V211.293L96.7729 201.573H94.0909V215.829H96.3409V205.857L101.345 215.829H103.883V201.573ZM115.346 207.891C114.95 207.747 114.104 207.423 113.6 207.261C111.854 206.685 110.99 206.127 110.99 205.011C110.99 204.057 111.638 203.481 113.456 203.481C115.004 203.481 115.724 203.913 116.03 204.795C116.138 205.119 116.192 205.389 116.192 205.695H118.604C118.604 205.155 118.514 204.723 118.388 204.291C117.884 202.527 116.444 201.411 113.51 201.411C110.144 201.411 108.56 202.887 108.56 205.083C108.56 207.189 109.946 208.449 112.088 209.151C112.682 209.349 113.528 209.673 113.888 209.799C115.796 210.465 116.372 211.041 116.372 212.247C116.372 213.327 115.598 213.975 113.78 213.975C112.232 213.975 111.332 213.579 111.062 212.733C110.954 212.391 110.9 211.905 110.9 211.653H108.506C108.506 212.067 108.542 212.733 108.668 213.219C109.1 214.893 110.54 216.009 113.834 216.009C117.164 216.009 118.802 214.425 118.802 212.049C118.802 209.835 117.578 208.665 115.346 207.891Z" fill="white"/>
<g clip-path="url(#clip0_4719_145472)">
<path d="M220.744 24.5951H217.774V23.4431C218.182 23.4311 218.572 23.3831 218.944 23.2991C219.328 23.2151 219.67 23.0771 219.97 22.8851C220.282 22.6811 220.54 22.4231 220.744 22.1111C220.948 21.7871 221.08 21.3911 221.14 20.9231H222.49V33.8291H220.744V24.5951ZM227.828 24.5951H224.858V23.4431C225.266 23.4311 225.656 23.3831 226.028 23.2991C226.412 23.2151 226.754 23.0771 227.054 22.8851C227.366 22.6811 227.624 22.4231 227.828 22.1111C228.032 21.7871 228.164 21.3911 228.224 20.9231H229.574V33.8291H227.828V24.5951ZM241.187 37.2131C239.915 37.2131 238.925 36.9731 238.217 36.4931C237.521 36.0251 237.125 35.3591 237.029 34.4951H238.595C238.667 34.9991 238.931 35.3591 239.387 35.5751C239.843 35.8031 240.431 35.9171 241.151 35.9171C242.015 35.9171 242.675 35.7191 243.131 35.3231C243.599 34.9391 243.833 34.3331 243.833 33.5051V33.2351C243.833 32.9591 243.833 32.7011 243.833 32.4611C243.845 32.2091 243.857 32.0051 243.869 31.8491H243.833C243.497 32.3291 243.101 32.7071 242.645 32.9831C242.201 33.2591 241.637 33.3971 240.953 33.3971C240.341 33.3971 239.771 33.2831 239.243 33.0551C238.727 32.8271 238.283 32.5031 237.911 32.0831C237.539 31.6631 237.245 31.1651 237.029 30.5891C236.825 30.0131 236.723 29.3711 236.723 28.6631C236.723 27.9191 236.831 27.2531 237.047 26.6651C237.263 26.0771 237.557 25.5851 237.929 25.1891C238.313 24.7811 238.757 24.4691 239.261 24.2531C239.765 24.0371 240.299 23.9291 240.863 23.9291C241.559 23.9291 242.141 24.0611 242.609 24.3251C243.089 24.5771 243.485 24.9491 243.797 25.4411H243.833V24.1631H245.489V33.4331C245.489 34.0811 245.387 34.6391 245.183 35.1071C244.979 35.5871 244.691 35.9831 244.319 36.2951C243.935 36.6071 243.479 36.8351 242.951 36.9791C242.423 37.1351 241.835 37.2131 241.187 37.2131ZM241.115 32.0291C241.643 32.0291 242.087 31.9451 242.447 31.7771C242.807 31.5971 243.095 31.3571 243.311 31.0571C243.539 30.7451 243.701 30.3791 243.797 29.9591C243.893 29.5391 243.941 29.0831 243.941 28.5911C243.941 27.5711 243.707 26.7731 243.239 26.1971C242.783 25.6091 242.069 25.3151 241.097 25.3151C240.209 25.3151 239.543 25.6211 239.099 26.2331C238.655 26.8451 238.433 27.6611 238.433 28.6811C238.433 29.7131 238.661 30.5291 239.117 31.1291C239.573 31.7291 240.239 32.0291 241.115 32.0291ZM250.686 34.0271C250.23 34.0271 249.798 33.9671 249.39 33.8471C248.994 33.7391 248.646 33.5711 248.346 33.3431C248.058 33.1151 247.83 32.8331 247.662 32.4971C247.494 32.1491 247.41 31.7411 247.41 31.2731C247.41 30.7091 247.506 30.2471 247.698 29.8871C247.902 29.5271 248.184 29.2391 248.544 29.0231C248.916 28.8071 249.354 28.6391 249.858 28.5191C250.374 28.3991 250.944 28.3031 251.568 28.2311C251.928 28.1951 252.252 28.1471 252.54 28.0871C252.828 28.0271 253.074 27.9491 253.278 27.8531C253.482 27.7451 253.638 27.6131 253.746 27.4571C253.854 27.3011 253.908 27.0971 253.908 26.8451C253.908 26.3171 253.728 25.9031 253.368 25.6031C253.02 25.3031 252.51 25.1531 251.838 25.1531C251.07 25.1531 250.494 25.3211 250.11 25.6571C249.738 25.9931 249.54 26.4491 249.516 27.0251H247.896C247.908 26.6171 247.998 26.2271 248.166 25.8551C248.334 25.4831 248.58 25.1531 248.904 24.8651C249.228 24.5771 249.63 24.3491 250.11 24.1811C250.602 24.0131 251.172 23.9291 251.82 23.9291C252.276 23.9291 252.702 23.9711 253.098 24.0551C253.494 24.1391 253.848 24.2711 254.16 24.4511C254.568 24.6911 254.886 25.0271 255.114 25.4591C255.342 25.8911 255.456 26.4311 255.456 27.0791V31.5971C255.456 31.9811 255.522 32.2691 255.654 32.4611C255.786 32.6531 256.062 32.7011 256.482 32.6051H256.554V33.7751C256.434 33.8111 256.302 33.8411 256.158 33.8651C256.026 33.9011 255.858 33.9191 255.654 33.9191C255.138 33.9191 254.748 33.7991 254.484 33.5591C254.22 33.3071 254.04 32.9231 253.944 32.4071H253.926C253.77 32.6231 253.59 32.8271 253.386 33.0191C253.182 33.2111 252.948 33.3851 252.684 33.5411C252.42 33.6851 252.12 33.7991 251.784 33.8831C251.46 33.9791 251.094 34.0271 250.686 34.0271ZM251.1 32.8031C251.58 32.8031 251.994 32.7251 252.342 32.5691C252.702 32.4011 252.996 32.1971 253.224 31.9571C253.464 31.7051 253.638 31.4291 253.746 31.1291C253.866 30.8291 253.926 30.5411 253.926 30.2651V28.6811C253.686 28.8371 253.368 28.9751 252.972 29.0951C252.588 29.2031 252.198 29.2931 251.802 29.3651C251.406 29.4371 251.046 29.5151 250.722 29.5991C250.398 29.6711 250.122 29.7791 249.894 29.9231C249.666 30.0551 249.486 30.2291 249.354 30.4451C249.234 30.6491 249.174 30.9191 249.174 31.2551C249.174 31.5671 249.228 31.8251 249.336 32.0291C249.444 32.2211 249.588 32.3771 249.768 32.4971C249.948 32.6171 250.152 32.7011 250.38 32.7491C250.62 32.7851 250.86 32.8031 251.1 32.8031ZM257.914 24.1631H259.57V25.6031H259.624C259.924 25.0751 260.32 24.6671 260.812 24.3791C261.304 24.0791 261.862 23.9291 262.486 23.9291C263.074 23.9291 263.584 24.0791 264.016 24.3791C264.46 24.6791 264.784 25.1291 264.988 25.7291H265.024C265.372 25.1171 265.81 24.6671 266.338 24.3791C266.866 24.0791 267.424 23.9291 268.012 23.9291C268.9 23.9291 269.62 24.1991 270.172 24.7391C270.724 25.2791 271 26.0591 271 27.0791V33.8291H269.326V27.2231C269.326 26.6231 269.158 26.1611 268.822 25.8371C268.486 25.5011 268.072 25.3331 267.58 25.3331C267.268 25.3331 266.974 25.3991 266.698 25.5311C266.422 25.6511 266.182 25.8251 265.978 26.0531C265.774 26.2811 265.606 26.5511 265.474 26.8631C265.354 27.1631 265.294 27.4991 265.294 27.8711V33.8291H263.638V27.2231C263.638 26.6231 263.488 26.1611 263.188 25.8371C262.888 25.5011 262.486 25.3331 261.982 25.3331C261.694 25.3331 261.406 25.3991 261.118 25.5311C260.83 25.6511 260.572 25.8251 260.344 26.0531C260.128 26.2811 259.948 26.5511 259.804 26.8631C259.66 27.1631 259.588 27.4991 259.588 27.8711V33.8291H257.914V24.1631ZM277.436 34.0991C276.692 34.0991 276.026 33.9671 275.438 33.7031C274.862 33.4391 274.37 33.0791 273.962 32.6231C273.554 32.1551 273.242 31.6151 273.026 31.0031C272.822 30.3791 272.72 29.7131 272.72 29.0051C272.72 28.3091 272.828 27.6551 273.044 27.0431C273.272 26.4191 273.584 25.8791 273.98 25.4231C274.388 24.9551 274.874 24.5891 275.438 24.3251C276.014 24.0611 276.65 23.9291 277.346 23.9291C278.066 23.9291 278.702 24.0611 279.254 24.3251C279.806 24.5891 280.274 24.9551 280.658 25.4231C281.054 25.9031 281.348 26.4791 281.54 27.1511C281.744 27.8231 281.846 28.5731 281.846 29.4011H274.43C274.466 29.8691 274.556 30.3071 274.7 30.7151C274.844 31.1231 275.042 31.4771 275.294 31.7771C275.546 32.0771 275.852 32.3111 276.212 32.4791C276.572 32.6471 276.986 32.7311 277.454 32.7311C278.126 32.7311 278.678 32.5871 279.11 32.2991C279.554 31.9991 279.854 31.5911 280.01 31.0751H281.648C281.432 31.9751 280.952 32.7071 280.208 33.2711C279.476 33.8231 278.552 34.0991 277.436 34.0991ZM277.346 25.2251C276.914 25.2251 276.53 25.3031 276.194 25.4591C275.858 25.6031 275.57 25.8071 275.33 26.0711C275.09 26.3351 274.898 26.6471 274.754 27.0071C274.61 27.3671 274.514 27.7631 274.466 28.1951H280.064C280.016 27.2591 279.758 26.5331 279.29 26.0171C278.834 25.4891 278.186 25.2251 277.346 25.2251ZM287.44 24.1631H289.222L290.734 29.5271C290.806 29.8031 290.878 30.1031 290.95 30.4271C291.034 30.7511 291.106 31.0571 291.166 31.3451C291.238 31.6811 291.304 32.0171 291.364 32.3531H291.4C291.46 32.0411 291.526 31.7231 291.598 31.3991C291.658 31.1231 291.724 30.8231 291.796 30.4991C291.88 30.1751 291.964 29.8631 292.048 29.5631L293.506 24.1631H295.09L296.53 29.5631C296.59 29.8271 296.656 30.1211 296.728 30.4451C296.812 30.7571 296.884 31.0571 296.944 31.3451C297.016 31.6811 297.082 32.0231 297.142 32.3711H297.178C297.238 32.0471 297.298 31.7231 297.358 31.3991C297.418 31.1231 297.484 30.8171 297.556 30.4811C297.628 30.1451 297.712 29.8271 297.808 29.5271L299.41 24.1631H301.138L297.988 33.8291H296.314L294.892 28.5011C294.832 28.2611 294.766 27.9911 294.694 27.6911C294.622 27.3791 294.556 27.0851 294.496 26.8091C294.424 26.4851 294.352 26.1491 294.28 25.8011H294.244C294.172 26.1491 294.1 26.4851 294.028 26.8091C293.968 27.0851 293.902 27.3791 293.83 27.6911C293.77 28.0031 293.71 28.2731 293.65 28.5011L292.192 33.8291H290.5L287.44 24.1631ZM302.438 20.4371H304.184V22.3811H302.438V20.4371ZM302.474 24.1631H304.148V33.8291H302.474V24.1631ZM308.103 25.5311H308.157C308.505 25.0391 308.925 24.6491 309.417 24.3611C309.909 24.0731 310.509 23.9291 311.217 23.9291C312.237 23.9291 313.035 24.1991 313.611 24.7391C314.187 25.2791 314.475 26.0591 314.475 27.0791V33.8291H312.819V27.2771C312.819 26.6531 312.627 26.1731 312.243 25.8371C311.871 25.5011 311.355 25.3331 310.695 25.3331C310.323 25.3331 309.975 25.3991 309.651 25.5311C309.339 25.6511 309.069 25.8251 308.841 26.0531C308.613 26.2811 308.433 26.5571 308.301 26.8811C308.181 27.2051 308.121 27.5591 308.121 27.9431V33.8291H306.447V24.1631H308.103V25.5311ZM325.219 34.1171C323.875 34.1171 322.837 33.8291 322.105 33.2531C321.373 32.6651 320.971 31.8791 320.899 30.8951H322.591C322.639 31.2431 322.741 31.5371 322.897 31.7771C323.053 32.0171 323.245 32.2091 323.473 32.3531C323.713 32.4971 323.983 32.6051 324.283 32.6771C324.583 32.7371 324.907 32.7671 325.255 32.7671C326.023 32.7671 326.575 32.6231 326.911 32.3351C327.259 32.0351 327.433 31.6691 327.433 31.2371C327.433 30.7091 327.223 30.3431 326.803 30.1391C326.395 29.9231 325.765 29.7311 324.913 29.5631C324.445 29.4671 323.989 29.3591 323.545 29.2391C323.113 29.1191 322.729 28.9571 322.393 28.7531C322.069 28.5491 321.805 28.2791 321.601 27.9431C321.409 27.6071 321.313 27.1751 321.313 26.6471C321.313 25.8191 321.619 25.1651 322.231 24.6851C322.855 24.1931 323.731 23.9471 324.859 23.9471C326.071 23.9471 326.989 24.2051 327.613 24.7211C328.237 25.2371 328.603 25.9151 328.711 26.7551H327.037C326.965 26.2511 326.749 25.8671 326.389 25.6031C326.041 25.3391 325.519 25.2071 324.823 25.2071C324.163 25.2071 323.683 25.3391 323.383 25.6031C323.095 25.8671 322.951 26.1851 322.951 26.5571C322.951 26.8091 323.005 27.0191 323.113 27.1871C323.233 27.3431 323.401 27.4751 323.617 27.5831C323.845 27.6911 324.115 27.7811 324.427 27.8531C324.751 27.9251 325.117 28.0031 325.525 28.0871C326.005 28.1831 326.461 28.2911 326.893 28.4111C327.325 28.5311 327.703 28.6991 328.027 28.9151C328.363 29.1311 328.627 29.4191 328.819 29.7791C329.011 30.1271 329.107 30.5831 329.107 31.1471C329.107 31.6391 329.011 32.0711 328.819 32.4431C328.627 32.8151 328.357 33.1271 328.009 33.3791C327.673 33.6191 327.265 33.7991 326.785 33.9191C326.305 34.0511 325.783 34.1171 325.219 34.1171ZM330.146 24.1631H331.658V21.1211H333.314V24.1631H335.312V25.4591H333.314V31.5611C333.314 31.9091 333.398 32.1491 333.566 32.2811C333.746 32.4011 333.992 32.4611 334.304 32.4611C334.448 32.4611 334.598 32.4491 334.754 32.4251C334.922 32.3891 335.054 32.3591 335.15 32.3351H335.204V33.7391C334.748 33.8471 334.298 33.9011 333.854 33.9011C333.206 33.8891 332.678 33.7391 332.27 33.4511C331.862 33.1511 331.658 32.6471 331.658 31.9391V25.4591H330.146V24.1631ZM338.706 25.9091H338.76C339.06 25.3451 339.45 24.8951 339.93 24.5591C340.41 24.2111 340.974 24.0371 341.622 24.0371C341.754 24.0371 341.862 24.0491 341.946 24.0731C342.042 24.0851 342.138 24.1091 342.234 24.1451V25.7291H342.18C342.06 25.6931 341.952 25.6691 341.856 25.6571C341.76 25.6451 341.64 25.6391 341.496 25.6391C341.124 25.6391 340.77 25.7111 340.434 25.8551C340.098 25.9871 339.804 26.1791 339.552 26.4311C339.3 26.6831 339.096 26.9891 338.94 27.3491C338.796 27.7091 338.724 28.1171 338.724 28.5731V33.8291H337.05V24.1631H338.706V25.9091ZM347.713 34.0991C346.969 34.0991 346.303 33.9671 345.715 33.7031C345.139 33.4391 344.647 33.0791 344.239 32.6231C343.831 32.1551 343.519 31.6151 343.303 31.0031C343.099 30.3791 342.997 29.7131 342.997 29.0051C342.997 28.3091 343.105 27.6551 343.321 27.0431C343.549 26.4191 343.861 25.8791 344.257 25.4231C344.665 24.9551 345.151 24.5891 345.715 24.3251C346.291 24.0611 346.927 23.9291 347.623 23.9291C348.343 23.9291 348.979 24.0611 349.531 24.3251C350.083 24.5891 350.551 24.9551 350.935 25.4231C351.331 25.9031 351.625 26.4791 351.817 27.1511C352.021 27.8231 352.123 28.5731 352.123 29.4011H344.707C344.743 29.8691 344.833 30.3071 344.977 30.7151C345.121 31.1231 345.319 31.4771 345.571 31.7771C345.823 32.0771 346.129 32.3111 346.489 32.4791C346.849 32.6471 347.263 32.7311 347.731 32.7311C348.403 32.7311 348.955 32.5871 349.387 32.2991C349.831 31.9991 350.131 31.5911 350.287 31.0751H351.925C351.709 31.9751 351.229 32.7071 350.485 33.2711C349.753 33.8231 348.829 34.0991 347.713 34.0991ZM347.623 25.2251C347.191 25.2251 346.807 25.3031 346.471 25.4591C346.135 25.6031 345.847 25.8071 345.607 26.0711C345.367 26.3351 345.175 26.6471 345.031 27.0071C344.887 27.3671 344.791 27.7631 344.743 28.1951H350.341C350.293 27.2591 350.035 26.5331 349.567 26.0171C349.111 25.4891 348.463 25.2251 347.623 25.2251ZM356.788 34.0271C356.332 34.0271 355.9 33.9671 355.492 33.8471C355.096 33.7391 354.748 33.5711 354.448 33.3431C354.16 33.1151 353.932 32.8331 353.764 32.4971C353.596 32.1491 353.512 31.7411 353.512 31.2731C353.512 30.7091 353.608 30.2471 353.8 29.8871C354.004 29.5271 354.286 29.2391 354.646 29.0231C355.018 28.8071 355.456 28.6391 355.96 28.5191C356.476 28.3991 357.046 28.3031 357.67 28.2311C358.03 28.1951 358.354 28.1471 358.642 28.0871C358.93 28.0271 359.176 27.9491 359.38 27.8531C359.584 27.7451 359.74 27.6131 359.848 27.4571C359.956 27.3011 360.01 27.0971 360.01 26.8451C360.01 26.3171 359.83 25.9031 359.47 25.6031C359.122 25.3031 358.612 25.1531 357.94 25.1531C357.172 25.1531 356.596 25.3211 356.212 25.6571C355.84 25.9931 355.642 26.4491 355.618 27.0251H353.998C354.01 26.6171 354.1 26.2271 354.268 25.8551C354.436 25.4831 354.682 25.1531 355.006 24.8651C355.33 24.5771 355.732 24.3491 356.212 24.1811C356.704 24.0131 357.274 23.9291 357.922 23.9291C358.378 23.9291 358.804 23.9711 359.2 24.0551C359.596 24.1391 359.95 24.2711 360.262 24.4511C360.67 24.6911 360.988 25.0271 361.216 25.4591C361.444 25.8911 361.558 26.4311 361.558 27.0791V31.5971C361.558 31.9811 361.624 32.2691 361.756 32.4611C361.888 32.6531 362.164 32.7011 362.584 32.6051H362.656V33.7751C362.536 33.8111 362.404 33.8411 362.26 33.8651C362.128 33.9011 361.96 33.9191 361.756 33.9191C361.24 33.9191 360.85 33.7991 360.586 33.5591C360.322 33.3071 360.142 32.9231 360.046 32.4071H360.028C359.872 32.6231 359.692 32.8271 359.488 33.0191C359.284 33.2111 359.05 33.3851 358.786 33.5411C358.522 33.6851 358.222 33.7991 357.886 33.8831C357.562 33.9791 357.196 34.0271 356.788 34.0271ZM357.202 32.8031C357.682 32.8031 358.096 32.7251 358.444 32.5691C358.804 32.4011 359.098 32.1971 359.326 31.9571C359.566 31.7051 359.74 31.4291 359.848 31.1291C359.968 30.8291 360.028 30.5411 360.028 30.2651V28.6811C359.788 28.8371 359.47 28.9751 359.074 29.0951C358.69 29.2031 358.3 29.2931 357.904 29.3651C357.508 29.4371 357.148 29.5151 356.824 29.5991C356.5 29.6711 356.224 29.7791 355.996 29.9231C355.768 30.0551 355.588 30.2291 355.456 30.4451C355.336 30.6491 355.276 30.9191 355.276 31.2551C355.276 31.5671 355.33 31.8251 355.438 32.0291C355.546 32.2211 355.69 32.3771 355.87 32.4971C356.05 32.6171 356.254 32.7011 356.482 32.7491C356.722 32.7851 356.962 32.8031 357.202 32.8031ZM367.057 28.7351L365.689 30.0311V33.8291H364.015V20.4371H365.689V26.7911C365.689 26.9591 365.683 27.1931 365.671 27.4931C365.659 27.7811 365.641 28.0451 365.617 28.2851L369.811 24.1631H371.899L368.209 27.6371L372.331 33.8291H370.369L367.057 28.7351ZM378.552 24.1631H380.208V25.6751H380.262C380.622 25.1231 381.048 24.6971 381.54 24.3971C382.044 24.0851 382.644 23.9291 383.34 23.9291C383.952 23.9291 384.51 24.0491 385.014 24.2891C385.53 24.5171 385.968 24.8531 386.328 25.2971C386.7 25.7291 386.988 26.2631 387.192 26.8991C387.396 27.5231 387.498 28.2311 387.498 29.0231C387.498 29.8031 387.402 30.5051 387.21 31.1291C387.018 31.7531 386.736 32.2871 386.364 32.7311C386.004 33.1751 385.56 33.5171 385.032 33.7571C384.516 33.9971 383.934 34.1171 383.286 34.1171C382.626 34.1171 382.038 33.9851 381.522 33.7211C381.006 33.4571 380.58 33.0671 380.244 32.5511H380.19C380.202 32.7191 380.208 32.9411 380.208 33.2171C380.22 33.4811 380.226 33.7991 380.226 34.1711V37.1051H378.552V24.1631ZM383.106 32.7311C383.55 32.7311 383.94 32.6411 384.276 32.4611C384.612 32.2691 384.888 32.0111 385.104 31.6871C385.332 31.3631 385.5 30.9791 385.608 30.5351C385.728 30.0791 385.788 29.5871 385.788 29.0591C385.788 28.5311 385.734 28.0391 385.626 27.5831C385.518 27.1271 385.35 26.7371 385.122 26.4131C384.906 26.0771 384.63 25.8191 384.294 25.6391C383.958 25.4471 383.568 25.3511 383.124 25.3511C382.608 25.3511 382.164 25.4471 381.792 25.6391C381.42 25.8311 381.108 26.0951 380.856 26.4311C380.616 26.7671 380.436 27.1631 380.316 27.6191C380.196 28.0631 380.136 28.5431 380.136 29.0591C380.136 29.5631 380.19 30.0431 380.298 30.4991C380.406 30.9431 380.58 31.3331 380.82 31.6691C381.06 31.9931 381.366 32.2511 381.738 32.4431C382.11 32.6351 382.566 32.7311 383.106 32.7311ZM390.931 25.9091H390.985C391.285 25.3451 391.675 24.8951 392.155 24.5591C392.635 24.2111 393.199 24.0371 393.847 24.0371C393.979 24.0371 394.087 24.0491 394.171 24.0731C394.267 24.0851 394.363 24.1091 394.459 24.1451V25.7291H394.405C394.285 25.6931 394.177 25.6691 394.081 25.6571C393.985 25.6451 393.865 25.6391 393.721 25.6391C393.349 25.6391 392.995 25.7111 392.659 25.8551C392.323 25.9871 392.029 26.1791 391.777 26.4311C391.525 26.6831 391.321 26.9891 391.165 27.3491C391.021 27.7091 390.949 28.1171 390.949 28.5731V33.8291H389.275V24.1631H390.931V25.9091ZM396.059 20.4371H397.805V22.3811H396.059V20.4371ZM396.095 24.1631H397.769V33.8291H396.095V24.1631ZM399.708 32.5331L404.028 26.8991C404.124 26.7671 404.238 26.6291 404.37 26.4851C404.502 26.3291 404.628 26.1851 404.748 26.0531C404.88 25.8971 405.024 25.7411 405.18 25.5851V25.5311C404.952 25.5431 404.73 25.5551 404.514 25.5671C404.322 25.5791 404.124 25.5851 403.92 25.5851C403.716 25.5851 403.53 25.5851 403.362 25.5851H400.032V24.1631H407.286V25.2071L402.894 30.9491C402.786 31.0811 402.66 31.2311 402.516 31.3991C402.384 31.5551 402.252 31.7051 402.12 31.8491C401.976 32.0171 401.826 32.1851 401.67 32.3531V32.4071C401.91 32.4071 402.144 32.4011 402.372 32.3891C402.576 32.3771 402.786 32.3711 403.002 32.3711C403.218 32.3591 403.416 32.3531 403.596 32.3531H407.502V33.8291H399.708V32.5331ZM413.121 34.0991C412.377 34.0991 411.711 33.9671 411.123 33.7031C410.547 33.4391 410.055 33.0791 409.647 32.6231C409.239 32.1551 408.927 31.6151 408.711 31.0031C408.507 30.3791 408.405 29.7131 408.405 29.0051C408.405 28.3091 408.513 27.6551 408.729 27.0431C408.957 26.4191 409.269 25.8791 409.665 25.4231C410.073 24.9551 410.559 24.5891 411.123 24.3251C411.699 24.0611 412.335 23.9291 413.031 23.9291C413.751 23.9291 414.387 24.0611 414.939 24.3251C415.491 24.5891 415.959 24.9551 416.343 25.4231C416.739 25.9031 417.033 26.4791 417.225 27.1511C417.429 27.8231 417.531 28.5731 417.531 29.4011H410.115C410.151 29.8691 410.241 30.3071 410.385 30.7151C410.529 31.1231 410.727 31.4771 410.979 31.7771C411.231 32.0771 411.537 32.3111 411.897 32.4791C412.257 32.6471 412.671 32.7311 413.139 32.7311C413.811 32.7311 414.363 32.5871 414.795 32.2991C415.239 31.9991 415.539 31.5911 415.695 31.0751H417.333C417.117 31.9751 416.637 32.7071 415.893 33.2711C415.161 33.8231 414.237 34.0991 413.121 34.0991ZM413.031 25.2251C412.599 25.2251 412.215 25.3031 411.879 25.4591C411.543 25.6031 411.255 25.8071 411.015 26.0711C410.775 26.3351 410.583 26.6471 410.439 27.0071C410.295 27.3671 410.199 27.7631 410.151 28.1951H415.749C415.701 27.2591 415.443 26.5331 414.975 26.0171C414.519 25.4891 413.871 25.2251 413.031 25.2251Z" fill="white"/>
<path d="M551.532 34.8041C551.094 34.8041 550.721 34.6507 550.415 34.3441C550.108 34.0374 549.955 33.6651 549.955 33.227V25.5519C549.043 25.3066 548.246 24.8422 547.563 24.1588C546.879 23.4754 546.538 22.6431 546.538 21.6618C546.538 20.7331 546.805 19.9095 547.339 19.1911C547.874 18.4726 548.562 17.9732 549.403 17.6929C549.806 16.8517 550.406 16.1684 551.203 15.6427C552 15.117 552.898 14.8541 553.897 14.8541C554.511 14.8541 555.084 14.9593 555.619 15.1695C556.153 15.3798 556.64 15.6602 557.078 16.0106C557.253 15.9756 557.419 15.9449 557.577 15.9186C557.735 15.8924 557.91 15.8792 558.103 15.8792C559.259 15.8792 560.249 16.291 561.073 17.1146C561.897 17.9382 562.308 18.9282 562.308 20.0847C562.308 20.4703 562.229 20.8558 562.072 21.2413C561.914 21.6268 561.713 21.9422 561.467 22.1875H563.885C564.323 22.1875 564.696 22.3408 565.002 22.6475C565.309 22.9541 565.462 23.3265 565.462 23.7646V31.1242C565.462 31.5623 565.309 31.9347 565.002 32.2413C564.696 32.548 564.323 32.7013 563.885 32.7013H560.994V33.227C560.994 33.6651 560.841 34.0374 560.534 34.3441C560.227 34.6507 559.855 34.8041 559.417 34.8041H551.532ZM548.115 21.6618C548.115 22.3277 548.386 22.8884 548.929 23.344C549.473 23.7996 550.077 24.0274 550.743 24.0274C551.304 24.0274 551.812 23.8741 552.268 23.5674C552.723 23.2608 553.188 22.8183 553.661 22.2401C554.064 21.7494 554.546 21.3114 555.106 20.9258C555.667 20.5403 556.315 20.3476 557.051 20.3476H560.731C560.731 19.5591 560.499 18.88 560.035 18.3105C559.57 17.741 558.926 17.4563 558.103 17.4563C557.787 17.4563 557.476 17.5045 557.17 17.6009L556.71 17.7454L556.21 17.3249C555.895 17.0445 555.536 16.8255 555.133 16.6678C554.73 16.5101 554.318 16.4312 553.897 16.4312C553.284 16.4312 552.697 16.5889 552.136 16.9043C551.575 17.2197 551.164 17.6578 550.901 18.2185L550.533 19.0071L549.692 19.2962C549.236 19.4539 548.859 19.7649 548.562 20.2293C548.264 20.6937 548.115 21.1712 548.115 21.6618ZM560.994 31.1242H563.885V23.7646H560.994V31.1242Z" fill="white"/>
<path d="M600 51.8291H185V53.8291H600V51.8291Z" fill="white" mask="url(#path-6-inside-2_4719_145472)"/>
<path d="M233.176 91.5251C233.176 91.5251 228.952 105.493 228.328 107.509C227.896 105.541 224.152 91.5251 224.152 91.5251H217L224.824 115.621V129.829H231.832V115.477L240.088 91.5251H233.176ZM247.947 121.237C247.947 121.909 247.85 122.725 247.659 123.541C247.419 124.597 246.41 125.029 245.451 125.029C244.491 125.029 243.387 124.453 243.242 123.157C243.098 121.957 243.051 120.037 243.051 118.837H253.947C254.187 114.325 253.851 109.717 252.939 107.461C251.835 104.773 249.291 103.093 245.595 103.093C241.034 103.093 239.018 105.157 238.058 107.509C237.338 109.237 236.81 112.789 236.81 116.773C236.81 120.853 237.146 123.877 238.25 126.421C239.402 129.109 242.138 130.165 245.69 130.165C249.242 130.165 251.403 128.725 252.555 126.661C253.562 124.885 253.802 122.005 253.802 121.237H247.947ZM242.954 114.133C242.954 112.309 243.003 110.581 243.339 109.765C243.674 108.853 244.443 108.373 245.499 108.373C246.603 108.373 247.323 108.901 247.562 109.813C247.755 110.437 247.898 111.733 247.898 114.133H242.954ZM272.75 125.125C272.75 123.157 272.798 119.941 272.798 117.877C272.846 115.429 272.894 111.445 272.798 109.141C272.654 105.445 270.35 103.093 264.83 103.093C258.974 103.093 256.574 105.733 256.574 110.677V112.645H262.526V111.157C262.526 109.333 263.102 108.421 264.734 108.421C265.934 108.421 266.558 109.093 266.606 110.245C266.654 111.061 266.654 112.693 266.654 113.413C265.598 113.413 264.494 113.557 263.294 113.749C258.878 114.565 255.902 116.965 255.662 120.805C255.566 122.197 255.614 124.453 255.662 125.029C255.854 128.869 258.782 130.021 261.422 130.021C263.774 130.021 265.55 129.397 266.75 127.909C266.75 128.581 266.894 129.829 266.99 129.829H273.086C272.846 129.493 272.75 127.045 272.75 125.125ZM266.654 119.749C266.558 121.093 266.654 121.765 266.414 123.157C266.174 124.501 265.022 125.029 264.014 125.029C263.054 125.029 262.286 124.693 262.142 123.781C262.046 123.013 262.046 122.101 262.046 121.381C262.046 120.277 262.094 119.509 262.91 118.789C263.63 118.165 264.446 118.021 265.118 117.877C265.694 117.781 266.174 117.781 266.654 117.781C266.654 118.165 266.702 119.221 266.654 119.749ZM286.697 103.093C284.489 103.093 282.281 104.533 281.993 106.549V103.429H275.657V129.829H282.089V114.181C282.089 109.861 283.433 108.901 285.641 108.901C286.937 108.901 288.233 109.141 289.001 109.381V103.333C288.473 103.141 287.705 103.093 286.697 103.093ZM292.194 99.5411L292.29 99.7331L290.466 102.901L293.394 104.965L297.522 99.8291V91.5251H290.802V99.5411H292.194ZM308.376 114.901C307.176 114.277 305.976 113.749 304.776 113.173C303.24 112.453 302.712 111.637 302.712 110.341C302.712 109.237 303.192 108.325 304.68 108.325C306.024 108.325 306.456 109.093 306.552 109.909C306.6 110.101 306.648 111.589 306.648 111.877H312.456C312.456 111.349 312.312 108.565 312.168 107.797C311.544 104.869 309.096 103.045 304.44 103.045C299.352 103.045 296.76 106.021 296.76 110.197C296.76 114.133 297.912 116.581 301.368 118.213C302.328 118.645 303.624 119.269 304.44 119.605C306.264 120.325 306.888 121.237 306.888 122.869C306.888 124.357 305.976 125.077 304.776 125.077C303.624 125.077 302.712 124.597 302.616 123.493C302.568 122.677 302.52 121.861 302.52 121.525H296.568C296.568 122.341 296.616 124.021 296.712 124.885C297.144 128.437 299.544 130.213 304.92 130.213C309.672 130.213 312.984 127.669 312.984 122.677C312.984 118.645 311.736 116.581 308.376 114.901ZM347.86 91.5251C347.86 91.5251 345.172 115.669 345.172 119.461C345.172 115.669 341.86 91.5251 341.86 91.5251H334.9C334.9 91.5251 331.78 115.669 331.78 119.461C331.78 115.669 328.996 91.5251 328.996 91.5251H321.844L327.22 129.829H335.332C335.332 129.829 338.26 109.957 338.308 105.973C338.5 109.957 341.284 129.829 341.284 129.829H349.588L354.82 91.5251H347.86ZM371.297 108.469C370.433 105.445 368.129 103.093 363.377 103.093C358.625 103.093 356.273 105.685 355.505 108.325C354.833 110.581 354.497 113.749 354.497 116.581C354.497 119.509 354.881 123.061 355.313 124.645C356.225 127.957 358.961 130.165 363.281 130.165C367.841 130.165 370.289 128.005 371.249 124.645C371.825 122.725 372.113 119.461 372.113 116.581C372.113 113.749 371.873 110.437 371.297 108.469ZM365.585 123.061C365.441 124.069 364.529 124.933 363.329 124.933C362.177 124.933 361.313 124.309 361.121 123.109C360.881 121.861 360.833 118.741 360.833 116.677C360.833 114.709 360.881 111.493 361.121 110.389C361.409 109.189 362.081 108.517 363.329 108.517C364.625 108.517 365.297 109.045 365.585 110.293C365.777 111.301 365.873 114.661 365.873 116.677C365.873 118.693 365.921 120.757 365.585 123.061ZM385.717 103.093C383.509 103.093 381.301 104.533 381.013 106.549V103.429H374.677V129.829H381.109V114.181C381.109 109.861 382.453 108.901 384.661 108.901C385.957 108.901 387.253 109.141 388.021 109.381V103.333C387.493 103.141 386.725 103.093 385.717 103.093ZM401.815 103.429H398.119V98.3411L391.879 98.4851C391.879 98.4851 391.687 103.285 391.639 103.429H389.287V109.045H391.543V124.069C391.543 128.197 393.847 130.021 397.783 130.021C399.463 130.021 400.519 129.925 401.527 129.685V124.549C401.047 124.645 400.423 124.693 399.895 124.693C398.887 124.693 398.071 124.405 398.071 122.917V109.045H401.815V103.429ZM420.748 109.525C420.748 104.917 418.492 103.093 415.228 103.093C412.588 103.093 411.1 104.101 410.38 105.877V91.4771H404.044V129.829H410.38V111.445C410.38 109.621 411.292 108.709 412.54 108.709C413.932 108.709 414.364 109.477 414.364 110.677C414.364 129.109 414.364 129.829 414.412 129.829H420.844C420.796 129.829 420.748 129.109 420.748 109.525ZM447.666 108.469C446.802 105.445 444.498 103.093 439.746 103.093C434.994 103.093 432.642 105.685 431.874 108.325C431.202 110.581 430.866 113.749 430.866 116.581C430.866 119.509 431.25 123.061 431.682 124.645C432.594 127.957 435.33 130.165 439.65 130.165C444.21 130.165 446.658 128.005 447.618 124.645C448.194 122.725 448.482 119.461 448.482 116.581C448.482 113.749 448.242 110.437 447.666 108.469ZM441.954 123.061C441.81 124.069 440.898 124.933 439.698 124.933C438.546 124.933 437.682 124.309 437.49 123.109C437.25 121.861 437.202 118.741 437.202 116.677C437.202 114.709 437.25 111.493 437.49 110.389C437.778 109.189 438.45 108.517 439.698 108.517C440.994 108.517 441.666 109.045 441.954 110.293C442.146 111.301 442.242 114.661 442.242 116.677C442.242 118.693 442.29 120.757 441.954 123.061ZM462.278 103.429H458.822V98.5331C458.822 97.5731 459.398 96.5171 460.694 96.5171C461.222 96.5171 461.99 96.5651 462.614 96.6611V91.4291C461.894 91.3331 460.502 91.2851 458.822 91.2851C454.07 91.2851 452.39 94.1171 452.39 97.7171V103.429H450.038V109.045H452.39V129.829H458.822V109.045H462.278V103.429ZM492.664 119.365C492.664 116.965 492.376 114.181 491.512 112.645C490.648 111.061 489.448 110.293 487.576 110.053C489.16 109.765 490.216 109.093 490.936 107.605C491.848 105.685 491.992 103.237 491.992 100.693C491.992 98.2931 491.704 95.9891 490.792 94.4051C489.64 92.3891 487.48 91.5251 484.264 91.5251H472.168V129.829H483.544C487.096 129.829 489.352 129.349 490.984 127.141C492.28 125.365 492.664 122.293 492.664 119.365ZM484.216 106.645C483.784 107.557 483.256 107.941 482.728 107.941H479.032V97.2371H482.248C483.256 97.2371 483.832 97.8131 484.168 98.6291C484.456 99.3491 484.744 100.885 484.744 102.421C484.744 104.293 484.504 106.021 484.216 106.645ZM482.44 124.117H479.032V113.317H482.584C483.496 113.317 484.216 113.893 484.648 114.661C484.984 115.285 485.176 117.349 485.176 118.597C485.176 119.797 485.032 122.053 484.696 122.773C484.264 123.733 483.352 124.117 482.44 124.117ZM505.892 121.237C505.892 121.909 505.796 122.725 505.604 123.541C505.364 124.597 504.356 125.029 503.396 125.029C502.436 125.029 501.332 124.453 501.188 123.157C501.044 121.957 500.996 120.037 500.996 118.837H511.892C512.132 114.325 511.796 109.717 510.884 107.461C509.78 104.773 507.236 103.093 503.54 103.093C498.98 103.093 496.964 105.157 496.004 107.509C495.284 109.237 494.756 112.789 494.756 116.773C494.756 120.853 495.092 123.877 496.196 126.421C497.348 129.109 500.084 130.165 503.636 130.165C507.188 130.165 509.348 128.725 510.5 126.661C511.508 124.885 511.748 122.005 511.748 121.237H505.892ZM500.9 114.133C500.9 112.309 500.948 110.581 501.284 109.765C501.62 108.853 502.388 108.373 503.444 108.373C504.548 108.373 505.268 108.901 505.508 109.813C505.7 110.437 505.844 111.733 505.844 114.133H500.9ZM524.888 121.237C524.888 121.909 524.792 122.725 524.6 123.541C524.36 124.597 523.352 125.029 522.392 125.029C521.432 125.029 520.328 124.453 520.184 123.157C520.04 121.957 519.992 120.037 519.992 118.837H530.888C531.128 114.325 530.792 109.717 529.88 107.461C528.776 104.773 526.232 103.093 522.536 103.093C517.976 103.093 515.96 105.157 515 107.509C514.28 109.237 513.752 112.789 513.752 116.773C513.752 120.853 514.088 123.877 515.192 126.421C516.344 129.109 519.08 130.165 522.632 130.165C526.184 130.165 528.344 128.725 529.496 126.661C530.504 124.885 530.744 122.005 530.744 121.237H524.888ZM519.896 114.133C519.896 112.309 519.944 110.581 520.28 109.765C520.616 108.853 521.384 108.373 522.44 108.373C523.544 108.373 524.264 108.901 524.504 109.813C524.696 110.437 524.84 111.733 524.84 114.133H519.896ZM544.267 103.093C542.059 103.093 539.851 104.533 539.563 106.549V103.429H533.227V129.829H539.659V114.181C539.659 109.861 541.003 108.901 543.211 108.901C544.507 108.901 545.803 109.141 546.571 109.381V103.333C546.043 103.141 545.275 103.093 544.267 103.093ZM233.8 164.181H228.568V158.277H222.904V164.181H217.576V169.797H222.904V175.749H228.52V169.797H233.8V164.181ZM263.398 147.525H256.87V166.245L250.87 147.525H244.198V185.829H250.726V166.725L256.774 185.829H263.398V147.525ZM283.794 147.525H266.85V185.829H273.858V169.845H283.026V163.413H273.858V154.101H283.794V147.525ZM303.216 179.349H293.088V147.525H286.08V185.829H303.216V179.349ZM325.339 176.565L326.587 185.829H333.691L327.979 147.525H318.139L311.755 185.829H318.763L320.107 176.565H325.339ZM320.779 170.901C320.779 170.901 322.507 159.765 322.507 159.573C322.843 157.509 322.939 153.765 322.939 153.765C322.939 153.765 323.035 157.557 323.275 159.573C323.275 159.765 324.715 170.901 324.715 170.901H320.779ZM352.797 179.349H342.669V147.525H335.661V185.829H352.797V179.349ZM372.073 179.349H361.945V147.525H354.937V185.829H372.073V179.349ZM401.637 165.861C401.637 159.861 401.397 153.189 399.909 151.029C398.229 148.533 396.069 147.525 391.989 147.525H382.101V185.829H392.853C396.789 185.829 398.661 184.341 399.909 182.181C401.397 179.637 401.637 173.781 401.637 165.861ZM392.085 180.309H389.013V153.477H391.797C393.189 153.477 394.053 154.149 394.437 155.733C394.773 157.029 394.917 163.941 394.917 165.861C394.917 167.829 394.821 176.805 394.485 178.341C394.149 179.733 393.333 180.309 392.085 180.309ZM416.145 176.565L417.393 185.829H424.497L418.785 147.525H408.945L402.561 185.829H409.569L410.913 176.565H416.145ZM411.585 170.901C411.585 170.901 413.313 159.765 413.313 159.573C413.649 157.509 413.745 153.765 413.745 153.765C413.745 153.765 413.841 157.557 414.081 159.573C414.081 159.765 415.521 170.901 415.521 170.901H411.585ZM438.67 147.525C438.67 147.525 434.446 161.493 433.822 163.509C433.39 161.541 429.646 147.525 429.646 147.525H422.494L430.318 171.621V185.829H437.326V171.477L445.582 147.525H438.67ZM236.536 206.981C235.432 204.725 232.936 203.525 230.008 203.525H218.488V241.829H225.448V225.893H227.944L231.784 241.829H239.032L234.376 223.973C235.336 223.637 236.392 222.581 236.968 221.093C237.544 219.701 237.88 217.637 237.88 214.613C237.88 211.205 237.352 208.565 236.536 206.981ZM230.44 218.741C230.248 219.413 229.72 219.845 228.808 219.941C228.568 219.989 225.448 219.989 225.448 219.989V209.909H228.616C229.768 209.909 230.392 210.677 230.632 211.733C230.728 212.213 230.824 213.989 230.824 215.285C230.824 216.437 230.728 218.069 230.44 218.741ZM251.181 233.237C251.181 233.909 251.085 234.725 250.893 235.541C250.653 236.597 249.645 237.029 248.685 237.029C247.725 237.029 246.621 236.453 246.477 235.157C246.333 233.957 246.285 232.037 246.285 230.837H257.181C257.421 226.325 257.085 221.717 256.173 219.461C255.069 216.773 252.525 215.093 248.829 215.093C244.269 215.093 242.253 217.157 241.293 219.509C240.573 221.237 240.045 224.789 240.045 228.773C240.045 232.853 240.381 235.877 241.485 238.421C242.637 241.109 245.373 242.165 248.925 242.165C252.477 242.165 254.637 240.725 255.789 238.661C256.797 236.885 257.037 234.005 257.037 233.237H251.181ZM246.189 226.133C246.189 224.309 246.237 222.581 246.573 221.765C246.909 220.853 247.677 220.373 248.733 220.373C249.837 220.373 250.557 220.901 250.797 221.813C250.989 222.437 251.133 223.733 251.133 226.133H246.189ZM280.795 215.429L278.683 234.821L275.899 215.429H269.323L266.875 234.821L264.427 215.429H257.899L262.651 241.829H270.331C270.331 241.829 272.011 232.469 272.539 229.349C272.587 229.061 272.635 226.613 272.635 226.613C272.635 226.613 272.779 229.061 272.827 229.349C273.355 232.373 274.987 241.829 274.987 241.829H282.571L287.179 215.429H280.795ZM304.636 237.125C304.636 235.157 304.684 231.941 304.684 229.877C304.732 227.429 304.78 223.445 304.684 221.141C304.54 217.445 302.236 215.093 296.716 215.093C290.86 215.093 288.46 217.733 288.46 222.677V224.645H294.412V223.157C294.412 221.333 294.988 220.421 296.62 220.421C297.82 220.421 298.444 221.093 298.492 222.245C298.54 223.061 298.54 224.693 298.54 225.413C297.484 225.413 296.38 225.557 295.18 225.749C290.764 226.565 287.788 228.965 287.548 232.805C287.452 234.197 287.5 236.453 287.548 237.029C287.74 240.869 290.668 242.021 293.308 242.021C295.66 242.021 297.436 241.397 298.636 239.909C298.636 240.581 298.78 241.829 298.876 241.829H304.972C304.732 241.493 304.636 239.045 304.636 237.125ZM298.54 231.749C298.444 233.093 298.54 233.765 298.3 235.157C298.06 236.501 296.908 237.029 295.9 237.029C294.94 237.029 294.172 236.693 294.028 235.781C293.932 235.013 293.932 234.101 293.932 233.381C293.932 232.277 293.98 231.509 294.796 230.789C295.516 230.165 296.332 230.021 297.004 229.877C297.58 229.781 298.06 229.781 298.54 229.781C298.54 230.165 298.588 231.221 298.54 231.749ZM318.583 215.093C316.375 215.093 314.167 216.533 313.879 218.549V215.429H307.543V241.829H313.975V226.181C313.975 221.861 315.319 220.901 317.527 220.901C318.823 220.901 320.119 221.141 320.887 221.381V215.333C320.359 215.141 319.591 215.093 318.583 215.093ZM322.848 219.317C322.08 222.197 321.84 224.837 321.84 228.725C321.84 232.949 322.32 236.453 323.184 238.565C324.144 240.965 325.92 242.021 328.56 242.021C330.912 242.021 332.496 241.253 333.36 239.909L334.128 241.829H339.504C339.504 241.829 339.312 239.621 339.312 238.133V203.477H333.024V217.349C332.304 215.957 330.576 215.189 328.56 215.189C325.728 215.189 323.52 216.725 322.848 219.317ZM332.592 222.101C332.88 223.541 333.072 224.981 333.072 228.773C333.072 231.077 332.976 233.477 332.64 235.157C332.448 236.165 331.824 236.933 330.576 236.933C329.28 236.933 328.608 236.309 328.464 235.301C328.224 233.333 328.128 230.981 328.128 228.773C328.128 226.517 328.224 224.261 328.56 222.341C328.752 221.381 329.424 220.661 330.624 220.661C331.824 220.661 332.4 221.189 332.592 222.101ZM367.858 206.261C366.466 204.437 364.45 203.525 361.474 203.525H350.098V241.829H357.154V227.333C357.154 227.333 360.418 227.381 361.378 227.285C364.258 227.093 366.37 226.325 367.762 224.597C369.202 222.869 369.778 219.989 369.778 215.429C369.778 210.917 369.106 207.845 367.858 206.261ZM362.434 219.557C362.242 220.805 361.426 221.333 359.842 221.333H357.154V210.005H360.034C361.138 210.005 361.954 210.629 362.242 211.445C362.482 212.117 362.722 213.701 362.722 215.717C362.722 217.781 362.674 218.261 362.434 219.557ZM387.099 237.125C387.099 235.157 387.147 231.941 387.147 229.877C387.195 227.429 387.243 223.445 387.147 221.141C387.003 217.445 384.699 215.093 379.179 215.093C373.323 215.093 370.923 217.733 370.923 222.677V224.645H376.875V223.157C376.875 221.333 377.451 220.421 379.083 220.421C380.283 220.421 380.907 221.093 380.955 222.245C381.003 223.061 381.003 224.693 381.003 225.413C379.947 225.413 378.843 225.557 377.643 225.749C373.227 226.565 370.251 228.965 370.011 232.805C369.915 234.197 369.963 236.453 370.011 237.029C370.203 240.869 373.131 242.021 375.771 242.021C378.123 242.021 379.899 241.397 381.099 239.909C381.099 240.581 381.243 241.829 381.339 241.829H387.435C387.195 241.493 387.099 239.045 387.099 237.125ZM381.003 231.749C380.907 233.093 381.003 233.765 380.763 235.157C380.523 236.501 379.371 237.029 378.363 237.029C377.403 237.029 376.635 236.693 376.491 235.781C376.395 235.013 376.395 234.101 376.395 233.381C376.395 232.277 376.443 231.509 377.259 230.789C377.979 230.165 378.795 230.021 379.467 229.877C380.043 229.781 380.523 229.781 381.003 229.781C381.003 230.165 381.051 231.221 381.003 231.749ZM405.99 219.893C405.126 217.157 403.11 215.093 398.166 215.093C394.422 215.093 391.734 216.773 390.774 219.605C389.814 222.485 389.526 224.789 389.526 228.629C389.526 232.613 390.102 236.597 390.87 238.325C391.926 240.725 394.47 242.165 398.262 242.165C402.15 242.165 404.646 240.437 405.51 238.229C406.422 235.925 406.47 234.821 406.47 231.221H400.518C400.518 232.901 400.518 233.429 400.326 234.821C400.182 235.925 399.51 236.789 398.262 236.789C397.014 236.789 396.39 236.213 396.198 234.869C395.91 232.901 395.814 230.213 395.814 228.677C395.814 226.757 395.91 224.357 396.198 222.485C396.39 221.189 397.062 220.517 398.214 220.517C399.558 220.517 400.038 221.381 400.182 222.437C400.326 223.445 400.47 224.645 400.47 226.181H406.47C406.47 222.965 406.326 221.045 405.99 219.893ZM421.534 225.029L426.526 215.429H420.286L415.15 225.557V203.477H408.814V241.829H415.15V233.909L417.022 230.885L420.334 241.829H426.766L421.534 225.029Z" fill="white"/>
</g>
<path d="M185 0.829102H600H185ZM600 284.829H185H600ZM184 284.829V0.829102H186V284.829H184ZM600 0.829102V284.829V0.829102Z" fill="white" mask="url(#path-4-inside-1_4719_145472)"/>
<rect x="0.5" y="1.3291" width="599" height="283" rx="11.5" stroke="white"/>
<path d="M703.28 69.5571H689.456C688.048 72.6291 684.464 78.5171 671.28 79.4131V94.1331L685.36 93.4931V171.829H703.28V69.5571ZM711.206 88.3731C710.054 96.1811 709.926 109.237 709.926 120.629C709.926 128.949 710.566 144.949 711.59 151.861C713.638 165.429 720.294 172.853 735.142 172.853C749.478 172.853 756.774 165.301 758.566 151.861C759.718 143.925 760.23 128.437 760.23 120.629C760.23 110.133 759.718 96.9491 758.95 88.2451C758.054 77.8771 750.374 68.6611 735.142 68.6611C718.63 68.6611 712.87 77.7491 711.206 88.3731ZM741.414 149.941C741.158 154.677 739.238 157.365 735.142 157.365C731.046 157.365 729.126 154.805 728.742 149.941C728.486 145.461 728.102 130.613 728.102 120.757C728.102 113.973 728.486 102.197 728.486 92.7251C728.486 87.8611 730.662 84.9171 735.014 84.9171C739.238 84.9171 741.286 87.6051 741.542 92.5971C741.67 97.0771 741.798 110.261 741.798 120.373C741.798 128.565 741.67 145.845 741.414 149.941Z" fill="white"/>
<path d="M704.028 201.573C704.028 201.573 701.598 212.139 701.598 212.571C701.598 212.139 699.366 201.573 699.366 201.573H696.738C696.738 201.573 694.524 212.139 694.524 212.571C694.524 212.139 692.094 201.573 692.094 201.573H689.592L693.012 215.829H695.694C695.694 215.829 698.016 205.281 698.016 204.813C698.034 205.281 700.266 215.829 700.266 215.829H702.966L706.35 201.573H704.028ZM712.842 201.573H710.412V215.829H712.842V201.573ZM727.883 201.573H725.633V211.293L720.773 201.573H718.091V215.829H720.341V205.857L725.345 215.829H727.883V201.573ZM739.346 207.891C738.95 207.747 738.104 207.423 737.6 207.261C735.854 206.685 734.99 206.127 734.99 205.011C734.99 204.057 735.638 203.481 737.456 203.481C739.004 203.481 739.724 203.913 740.03 204.795C740.138 205.119 740.192 205.389 740.192 205.695H742.604C742.604 205.155 742.514 204.723 742.388 204.291C741.884 202.527 740.444 201.411 737.51 201.411C734.144 201.411 732.56 202.887 732.56 205.083C732.56 207.189 733.946 208.449 736.088 209.151C736.682 209.349 737.528 209.673 737.888 209.799C739.796 210.465 740.372 211.041 740.372 212.247C740.372 213.327 739.598 213.975 737.78 213.975C736.232 213.975 735.332 213.579 735.062 212.733C734.954 212.391 734.9 211.905 734.9 211.653H732.506C732.506 212.067 732.542 212.733 732.668 213.219C733.1 214.893 734.54 216.009 737.834 216.009C741.164 216.009 742.802 214.425 742.802 212.049C742.802 209.835 741.578 208.665 739.346 207.891Z" fill="white"/>
<g clip-path="url(#clip1_4719_145472)">
<path d="M844.744 24.5951H841.774V23.4431C842.182 23.4311 842.572 23.3831 842.944 23.2991C843.328 23.2151 843.67 23.0771 843.97 22.8851C844.282 22.6811 844.54 22.4231 844.744 22.1111C844.948 21.7871 845.08 21.3911 845.14 20.9231H846.49V33.8291H844.744V24.5951ZM854.078 34.1171C853.286 34.1171 852.578 33.9611 851.954 33.6491C851.33 33.3251 850.802 32.8751 850.37 32.2991C849.938 31.7111 849.608 31.0031 849.38 30.1751C849.152 29.3471 849.038 28.4231 849.038 27.4031C849.038 26.3711 849.158 25.4411 849.398 24.6131C849.638 23.7851 849.974 23.0831 850.406 22.5071C850.85 21.9311 851.384 21.4871 852.008 21.1751C852.632 20.8631 853.328 20.7071 854.096 20.7071C854.864 20.7071 855.56 20.8631 856.184 21.1751C856.808 21.4751 857.336 21.9131 857.768 22.4891C858.212 23.0651 858.548 23.7671 858.776 24.5951C859.016 25.4231 859.136 26.3591 859.136 27.4031C859.136 28.4231 859.022 29.3471 858.794 30.1751C858.578 31.0031 858.254 31.7111 857.822 32.2991C857.39 32.8751 856.856 33.3251 856.22 33.6491C855.596 33.9611 854.882 34.1171 854.078 34.1171ZM854.096 32.6411C855.212 32.6411 856.028 32.1731 856.544 31.2371C857.072 30.3011 857.336 29.0231 857.336 27.4031C857.336 26.6111 857.27 25.8911 857.138 25.2431C857.006 24.5951 856.802 24.0431 856.526 23.5871C856.262 23.1311 855.926 22.7831 855.518 22.5431C855.11 22.2911 854.636 22.1651 854.096 22.1651C853.544 22.1651 853.064 22.2911 852.656 22.5431C852.248 22.7831 851.906 23.1311 851.63 23.5871C851.366 24.0311 851.162 24.5771 851.018 25.2251C850.886 25.8731 850.82 26.5991 850.82 27.4031C850.82 28.1951 850.886 28.9151 851.018 29.5631C851.162 30.2111 851.366 30.7631 851.63 31.2191C851.906 31.6751 852.248 32.0291 852.656 32.2811C853.064 32.5211 853.544 32.6411 854.096 32.6411ZM870.109 37.2131C868.837 37.2131 867.847 36.9731 867.139 36.4931C866.443 36.0251 866.047 35.3591 865.951 34.4951H867.517C867.589 34.9991 867.853 35.3591 868.309 35.5751C868.765 35.8031 869.353 35.9171 870.073 35.9171C870.937 35.9171 871.597 35.7191 872.053 35.3231C872.521 34.9391 872.755 34.3331 872.755 33.5051V33.2351C872.755 32.9591 872.755 32.7011 872.755 32.4611C872.767 32.2091 872.779 32.0051 872.791 31.8491H872.755C872.419 32.3291 872.023 32.7071 871.567 32.9831C871.123 33.2591 870.559 33.3971 869.875 33.3971C869.263 33.3971 868.693 33.2831 868.165 33.0551C867.649 32.8271 867.205 32.5031 866.833 32.0831C866.461 31.6631 866.167 31.1651 865.951 30.5891C865.747 30.0131 865.645 29.3711 865.645 28.6631C865.645 27.9191 865.753 27.2531 865.969 26.6651C866.185 26.0771 866.479 25.5851 866.851 25.1891C867.235 24.7811 867.679 24.4691 868.183 24.2531C868.687 24.0371 869.221 23.9291 869.785 23.9291C870.481 23.9291 871.063 24.0611 871.531 24.3251C872.011 24.5771 872.407 24.9491 872.719 25.4411H872.755V24.1631H874.411V33.4331C874.411 34.0811 874.309 34.6391 874.105 35.1071C873.901 35.5871 873.613 35.9831 873.241 36.2951C872.857 36.6071 872.401 36.8351 871.873 36.9791C871.345 37.1351 870.757 37.2131 870.109 37.2131ZM870.037 32.0291C870.565 32.0291 871.009 31.9451 871.369 31.7771C871.729 31.5971 872.017 31.3571 872.233 31.0571C872.461 30.7451 872.623 30.3791 872.719 29.9591C872.815 29.5391 872.863 29.0831 872.863 28.5911C872.863 27.5711 872.629 26.7731 872.161 26.1971C871.705 25.6091 870.991 25.3151 870.019 25.3151C869.131 25.3151 868.465 25.6211 868.021 26.2331C867.577 26.8451 867.355 27.6611 867.355 28.6811C867.355 29.7131 867.583 30.5291 868.039 31.1291C868.495 31.7291 869.161 32.0291 870.037 32.0291ZM879.608 34.0271C879.152 34.0271 878.72 33.9671 878.312 33.8471C877.916 33.7391 877.568 33.5711 877.268 33.3431C876.98 33.1151 876.752 32.8331 876.584 32.4971C876.416 32.1491 876.332 31.7411 876.332 31.2731C876.332 30.7091 876.428 30.2471 876.62 29.8871C876.824 29.5271 877.106 29.2391 877.466 29.0231C877.838 28.8071 878.276 28.6391 878.78 28.5191C879.296 28.3991 879.866 28.3031 880.49 28.2311C880.85 28.1951 881.174 28.1471 881.462 28.0871C881.75 28.0271 881.996 27.9491 882.2 27.8531C882.404 27.7451 882.56 27.6131 882.668 27.4571C882.776 27.3011 882.83 27.0971 882.83 26.8451C882.83 26.3171 882.65 25.9031 882.29 25.6031C881.942 25.3031 881.432 25.1531 880.76 25.1531C879.992 25.1531 879.416 25.3211 879.032 25.6571C878.66 25.9931 878.462 26.4491 878.438 27.0251H876.818C876.83 26.6171 876.92 26.2271 877.088 25.8551C877.256 25.4831 877.502 25.1531 877.826 24.8651C878.15 24.5771 878.552 24.3491 879.032 24.1811C879.524 24.0131 880.094 23.9291 880.742 23.9291C881.198 23.9291 881.624 23.9711 882.02 24.0551C882.416 24.1391 882.77 24.2711 883.082 24.4511C883.49 24.6911 883.808 25.0271 884.036 25.4591C884.264 25.8911 884.378 26.4311 884.378 27.0791V31.5971C884.378 31.9811 884.444 32.2691 884.576 32.4611C884.708 32.6531 884.984 32.7011 885.404 32.6051H885.476V33.7751C885.356 33.8111 885.224 33.8411 885.08 33.8651C884.948 33.9011 884.78 33.9191 884.576 33.9191C884.06 33.9191 883.67 33.7991 883.406 33.5591C883.142 33.3071 882.962 32.9231 882.866 32.4071H882.848C882.692 32.6231 882.512 32.8271 882.308 33.0191C882.104 33.2111 881.87 33.3851 881.606 33.5411C881.342 33.6851 881.042 33.7991 880.706 33.8831C880.382 33.9791 880.016 34.0271 879.608 34.0271ZM880.022 32.8031C880.502 32.8031 880.916 32.7251 881.264 32.5691C881.624 32.4011 881.918 32.1971 882.146 31.9571C882.386 31.7051 882.56 31.4291 882.668 31.1291C882.788 30.8291 882.848 30.5411 882.848 30.2651V28.6811C882.608 28.8371 882.29 28.9751 881.894 29.0951C881.51 29.2031 881.12 29.2931 880.724 29.3651C880.328 29.4371 879.968 29.5151 879.644 29.5991C879.32 29.6711 879.044 29.7791 878.816 29.9231C878.588 30.0551 878.408 30.2291 878.276 30.4451C878.156 30.6491 878.096 30.9191 878.096 31.2551C878.096 31.5671 878.15 31.8251 878.258 32.0291C878.366 32.2211 878.51 32.3771 878.69 32.4971C878.87 32.6171 879.074 32.7011 879.302 32.7491C879.542 32.7851 879.782 32.8031 880.022 32.8031ZM886.836 24.1631H888.492V25.6031H888.546C888.846 25.0751 889.242 24.6671 889.734 24.3791C890.226 24.0791 890.784 23.9291 891.408 23.9291C891.996 23.9291 892.506 24.0791 892.938 24.3791C893.382 24.6791 893.706 25.1291 893.91 25.7291H893.946C894.294 25.1171 894.732 24.6671 895.26 24.3791C895.788 24.0791 896.346 23.9291 896.934 23.9291C897.822 23.9291 898.542 24.1991 899.094 24.7391C899.646 25.2791 899.922 26.0591 899.922 27.0791V33.8291H898.248V27.2231C898.248 26.6231 898.08 26.1611 897.744 25.8371C897.408 25.5011 896.994 25.3331 896.502 25.3331C896.19 25.3331 895.896 25.3991 895.62 25.5311C895.344 25.6511 895.104 25.8251 894.9 26.0531C894.696 26.2811 894.528 26.5511 894.396 26.8631C894.276 27.1631 894.216 27.4991 894.216 27.8711V33.8291H892.56V27.2231C892.56 26.6231 892.41 26.1611 892.11 25.8371C891.81 25.5011 891.408 25.3331 890.904 25.3331C890.616 25.3331 890.328 25.3991 890.04 25.5311C889.752 25.6511 889.494 25.8251 889.266 26.0531C889.05 26.2811 888.87 26.5511 888.726 26.8631C888.582 27.1631 888.51 27.4991 888.51 27.8711V33.8291H886.836V24.1631ZM906.358 34.0991C905.614 34.0991 904.948 33.9671 904.36 33.7031C903.784 33.4391 903.292 33.0791 902.884 32.6231C902.476 32.1551 902.164 31.6151 901.948 31.0031C901.744 30.3791 901.642 29.7131 901.642 29.0051C901.642 28.3091 901.75 27.6551 901.966 27.0431C902.194 26.4191 902.506 25.8791 902.902 25.4231C903.31 24.9551 903.796 24.5891 904.36 24.3251C904.936 24.0611 905.572 23.9291 906.268 23.9291C906.988 23.9291 907.624 24.0611 908.176 24.3251C908.728 24.5891 909.196 24.9551 909.58 25.4231C909.976 25.9031 910.27 26.4791 910.462 27.1511C910.666 27.8231 910.768 28.5731 910.768 29.4011H903.352C903.388 29.8691 903.478 30.3071 903.622 30.7151C903.766 31.1231 903.964 31.4771 904.216 31.7771C904.468 32.0771 904.774 32.3111 905.134 32.4791C905.494 32.6471 905.908 32.7311 906.376 32.7311C907.048 32.7311 907.6 32.5871 908.032 32.2991C908.476 31.9991 908.776 31.5911 908.932 31.0751H910.57C910.354 31.9751 909.874 32.7071 909.13 33.2711C908.398 33.8231 907.474 34.0991 906.358 34.0991ZM906.268 25.2251C905.836 25.2251 905.452 25.3031 905.116 25.4591C904.78 25.6031 904.492 25.8071 904.252 26.0711C904.012 26.3351 903.82 26.6471 903.676 27.0071C903.532 27.3671 903.436 27.7631 903.388 28.1951H908.986C908.938 27.2591 908.68 26.5331 908.212 26.0171C907.756 25.4891 907.108 25.2251 906.268 25.2251ZM916.362 24.1631H918.144L919.656 29.5271C919.728 29.8031 919.8 30.1031 919.872 30.4271C919.956 30.7511 920.028 31.0571 920.088 31.3451C920.16 31.6811 920.226 32.0171 920.286 32.3531H920.322C920.382 32.0411 920.448 31.7231 920.52 31.3991C920.58 31.1231 920.646 30.8231 920.718 30.4991C920.802 30.1751 920.886 29.8631 920.97 29.5631L922.428 24.1631H924.012L925.452 29.5631C925.512 29.8271 925.578 30.1211 925.65 30.4451C925.734 30.7571 925.806 31.0571 925.866 31.3451C925.938 31.6811 926.004 32.0231 926.064 32.3711H926.1C926.16 32.0471 926.22 31.7231 926.28 31.3991C926.34 31.1231 926.406 30.8171 926.478 30.4811C926.55 30.1451 926.634 29.8271 926.73 29.5271L928.332 24.1631H930.06L926.91 33.8291H925.236L923.814 28.5011C923.754 28.2611 923.688 27.9911 923.616 27.6911C923.544 27.3791 923.478 27.0851 923.418 26.8091C923.346 26.4851 923.274 26.1491 923.202 25.8011H923.166C923.094 26.1491 923.022 26.4851 922.95 26.8091C922.89 27.0851 922.824 27.3791 922.752 27.6911C922.692 28.0031 922.632 28.2731 922.572 28.5011L921.114 33.8291H919.422L916.362 24.1631ZM931.36 20.4371H933.106V22.3811H931.36V20.4371ZM931.396 24.1631H933.07V33.8291H931.396V24.1631ZM937.025 25.5311H937.079C937.427 25.0391 937.847 24.6491 938.339 24.3611C938.831 24.0731 939.431 23.9291 940.139 23.9291C941.159 23.9291 941.957 24.1991 942.533 24.7391C943.109 25.2791 943.397 26.0591 943.397 27.0791V33.8291H941.741V27.2771C941.741 26.6531 941.549 26.1731 941.165 25.8371C940.793 25.5011 940.277 25.3331 939.617 25.3331C939.245 25.3331 938.897 25.3991 938.573 25.5311C938.261 25.6511 937.991 25.8251 937.763 26.0531C937.535 26.2811 937.355 26.5571 937.223 26.8811C937.103 27.2051 937.043 27.5591 937.043 27.9431V33.8291H935.369V24.1631H937.025V25.5311ZM954.141 34.1171C952.797 34.1171 951.759 33.8291 951.027 33.2531C950.295 32.6651 949.893 31.8791 949.821 30.8951H951.513C951.561 31.2431 951.663 31.5371 951.819 31.7771C951.975 32.0171 952.167 32.2091 952.395 32.3531C952.635 32.4971 952.905 32.6051 953.205 32.6771C953.505 32.7371 953.829 32.7671 954.177 32.7671C954.945 32.7671 955.497 32.6231 955.833 32.3351C956.181 32.0351 956.355 31.6691 956.355 31.2371C956.355 30.7091 956.145 30.3431 955.725 30.1391C955.317 29.9231 954.687 29.7311 953.835 29.5631C953.367 29.4671 952.911 29.3591 952.467 29.2391C952.035 29.1191 951.651 28.9571 951.315 28.7531C950.991 28.5491 950.727 28.2791 950.523 27.9431C950.331 27.6071 950.235 27.1751 950.235 26.6471C950.235 25.8191 950.541 25.1651 951.153 24.6851C951.777 24.1931 952.653 23.9471 953.781 23.9471C954.993 23.9471 955.911 24.2051 956.535 24.7211C957.159 25.2371 957.525 25.9151 957.633 26.7551H955.959C955.887 26.2511 955.671 25.8671 955.311 25.6031C954.963 25.3391 954.441 25.2071 953.745 25.2071C953.085 25.2071 952.605 25.3391 952.305 25.6031C952.017 25.8671 951.873 26.1851 951.873 26.5571C951.873 26.8091 951.927 27.0191 952.035 27.1871C952.155 27.3431 952.323 27.4751 952.539 27.5831C952.767 27.6911 953.037 27.7811 953.349 27.8531C953.673 27.9251 954.039 28.0031 954.447 28.0871C954.927 28.1831 955.383 28.2911 955.815 28.4111C956.247 28.5311 956.625 28.6991 956.949 28.9151C957.285 29.1311 957.549 29.4191 957.741 29.7791C957.933 30.1271 958.029 30.5831 958.029 31.1471C958.029 31.6391 957.933 32.0711 957.741 32.4431C957.549 32.8151 957.279 33.1271 956.931 33.3791C956.595 33.6191 956.187 33.7991 955.707 33.9191C955.227 34.0511 954.705 34.1171 954.141 34.1171ZM959.068 24.1631H960.58V21.1211H962.236V24.1631H964.234V25.4591H962.236V31.5611C962.236 31.9091 962.32 32.1491 962.488 32.2811C962.668 32.4011 962.914 32.4611 963.226 32.4611C963.37 32.4611 963.52 32.4491 963.676 32.4251C963.844 32.3891 963.976 32.3591 964.072 32.3351H964.126V33.7391C963.67 33.8471 963.22 33.9011 962.776 33.9011C962.128 33.8891 961.6 33.7391 961.192 33.4511C960.784 33.1511 960.58 32.6471 960.58 31.9391V25.4591H959.068V24.1631ZM967.628 25.9091H967.682C967.982 25.3451 968.372 24.8951 968.852 24.5591C969.332 24.2111 969.896 24.0371 970.544 24.0371C970.676 24.0371 970.784 24.0491 970.868 24.0731C970.964 24.0851 971.06 24.1091 971.156 24.1451V25.7291H971.102C970.982 25.6931 970.874 25.6691 970.778 25.6571C970.682 25.6451 970.562 25.6391 970.418 25.6391C970.046 25.6391 969.692 25.7111 969.356 25.8551C969.02 25.9871 968.726 26.1791 968.474 26.4311C968.222 26.6831 968.018 26.9891 967.862 27.3491C967.718 27.7091 967.646 28.1171 967.646 28.5731V33.8291H965.972V24.1631H967.628V25.9091ZM976.635 34.0991C975.891 34.0991 975.225 33.9671 974.637 33.7031C974.061 33.4391 973.569 33.0791 973.161 32.6231C972.753 32.1551 972.441 31.6151 972.225 31.0031C972.021 30.3791 971.919 29.7131 971.919 29.0051C971.919 28.3091 972.027 27.6551 972.243 27.0431C972.471 26.4191 972.783 25.8791 973.179 25.4231C973.587 24.9551 974.073 24.5891 974.637 24.3251C975.213 24.0611 975.849 23.9291 976.545 23.9291C977.265 23.9291 977.901 24.0611 978.453 24.3251C979.005 24.5891 979.473 24.9551 979.857 25.4231C980.253 25.9031 980.547 26.4791 980.739 27.1511C980.943 27.8231 981.045 28.5731 981.045 29.4011H973.629C973.665 29.8691 973.755 30.3071 973.899 30.7151C974.043 31.1231 974.241 31.4771 974.493 31.7771C974.745 32.0771 975.051 32.3111 975.411 32.4791C975.771 32.6471 976.185 32.7311 976.653 32.7311C977.325 32.7311 977.877 32.5871 978.309 32.2991C978.753 31.9991 979.053 31.5911 979.209 31.0751H980.847C980.631 31.9751 980.151 32.7071 979.407 33.2711C978.675 33.8231 977.751 34.0991 976.635 34.0991ZM976.545 25.2251C976.113 25.2251 975.729 25.3031 975.393 25.4591C975.057 25.6031 974.769 25.8071 974.529 26.0711C974.289 26.3351 974.097 26.6471 973.953 27.0071C973.809 27.3671 973.713 27.7631 973.665 28.1951H979.263C979.215 27.2591 978.957 26.5331 978.489 26.0171C978.033 25.4891 977.385 25.2251 976.545 25.2251ZM985.71 34.0271C985.254 34.0271 984.822 33.9671 984.414 33.8471C984.018 33.7391 983.67 33.5711 983.37 33.3431C983.082 33.1151 982.854 32.8331 982.686 32.4971C982.518 32.1491 982.434 31.7411 982.434 31.2731C982.434 30.7091 982.53 30.2471 982.722 29.8871C982.926 29.5271 983.208 29.2391 983.568 29.0231C983.94 28.8071 984.378 28.6391 984.882 28.5191C985.398 28.3991 985.968 28.3031 986.592 28.2311C986.952 28.1951 987.276 28.1471 987.564 28.0871C987.852 28.0271 988.098 27.9491 988.302 27.8531C988.506 27.7451 988.662 27.6131 988.77 27.4571C988.878 27.3011 988.932 27.0971 988.932 26.8451C988.932 26.3171 988.752 25.9031 988.392 25.6031C988.044 25.3031 987.534 25.1531 986.862 25.1531C986.094 25.1531 985.518 25.3211 985.134 25.6571C984.762 25.9931 984.564 26.4491 984.54 27.0251H982.92C982.932 26.6171 983.022 26.2271 983.19 25.8551C983.358 25.4831 983.604 25.1531 983.928 24.8651C984.252 24.5771 984.654 24.3491 985.134 24.1811C985.626 24.0131 986.196 23.9291 986.844 23.9291C987.3 23.9291 987.726 23.9711 988.122 24.0551C988.518 24.1391 988.872 24.2711 989.184 24.4511C989.592 24.6911 989.91 25.0271 990.138 25.4591C990.366 25.8911 990.48 26.4311 990.48 27.0791V31.5971C990.48 31.9811 990.546 32.2691 990.678 32.4611C990.81 32.6531 991.086 32.7011 991.506 32.6051H991.578V33.7751C991.458 33.8111 991.326 33.8411 991.182 33.8651C991.05 33.9011 990.882 33.9191 990.678 33.9191C990.162 33.9191 989.772 33.7991 989.508 33.5591C989.244 33.3071 989.064 32.9231 988.968 32.4071H988.95C988.794 32.6231 988.614 32.8271 988.41 33.0191C988.206 33.2111 987.972 33.3851 987.708 33.5411C987.444 33.6851 987.144 33.7991 986.808 33.8831C986.484 33.9791 986.118 34.0271 985.71 34.0271ZM986.124 32.8031C986.604 32.8031 987.018 32.7251 987.366 32.5691C987.726 32.4011 988.02 32.1971 988.248 31.9571C988.488 31.7051 988.662 31.4291 988.77 31.1291C988.89 30.8291 988.95 30.5411 988.95 30.2651V28.6811C988.71 28.8371 988.392 28.9751 987.996 29.0951C987.612 29.2031 987.222 29.2931 986.826 29.3651C986.43 29.4371 986.07 29.5151 985.746 29.5991C985.422 29.6711 985.146 29.7791 984.918 29.9231C984.69 30.0551 984.51 30.2291 984.378 30.4451C984.258 30.6491 984.198 30.9191 984.198 31.2551C984.198 31.5671 984.252 31.8251 984.36 32.0291C984.468 32.2211 984.612 32.3771 984.792 32.4971C984.972 32.6171 985.176 32.7011 985.404 32.7491C985.644 32.7851 985.884 32.8031 986.124 32.8031ZM995.979 28.7351L994.611 30.0311V33.8291H992.937V20.4371H994.611V26.7911C994.611 26.9591 994.605 27.1931 994.593 27.4931C994.581 27.7811 994.563 28.0451 994.539 28.2851L998.733 24.1631H1000.82L997.131 27.6371L1001.25 33.8291H999.291L995.979 28.7351ZM1007.47 24.1631H1009.13V25.6751H1009.18C1009.54 25.1231 1009.97 24.6971 1010.46 24.3971C1010.97 24.0851 1011.57 23.9291 1012.26 23.9291C1012.87 23.9291 1013.43 24.0491 1013.94 24.2891C1014.45 24.5171 1014.89 24.8531 1015.25 25.2971C1015.62 25.7291 1015.91 26.2631 1016.11 26.8991C1016.32 27.5231 1016.42 28.2311 1016.42 29.0231C1016.42 29.8031 1016.32 30.5051 1016.13 31.1291C1015.94 31.7531 1015.66 32.2871 1015.29 32.7311C1014.93 33.1751 1014.48 33.5171 1013.95 33.7571C1013.44 33.9971 1012.86 34.1171 1012.21 34.1171C1011.55 34.1171 1010.96 33.9851 1010.44 33.7211C1009.93 33.4571 1009.5 33.0671 1009.17 32.5511H1009.11C1009.12 32.7191 1009.13 32.9411 1009.13 33.2171C1009.14 33.4811 1009.15 33.7991 1009.15 34.1711V37.1051H1007.47V24.1631ZM1012.03 32.7311C1012.47 32.7311 1012.86 32.6411 1013.2 32.4611C1013.53 32.2691 1013.81 32.0111 1014.03 31.6871C1014.25 31.3631 1014.42 30.9791 1014.53 30.5351C1014.65 30.0791 1014.71 29.5871 1014.71 29.0591C1014.71 28.5311 1014.66 28.0391 1014.55 27.5831C1014.44 27.1271 1014.27 26.7371 1014.04 26.4131C1013.83 26.0771 1013.55 25.8191 1013.22 25.6391C1012.88 25.4471 1012.49 25.3511 1012.05 25.3511C1011.53 25.3511 1011.09 25.4471 1010.71 25.6391C1010.34 25.8311 1010.03 26.0951 1009.78 26.4311C1009.54 26.7671 1009.36 27.1631 1009.24 27.6191C1009.12 28.0631 1009.06 28.5431 1009.06 29.0591C1009.06 29.5631 1009.11 30.0431 1009.22 30.4991C1009.33 30.9431 1009.5 31.3331 1009.74 31.6691C1009.98 31.9931 1010.29 32.2511 1010.66 32.4431C1011.03 32.6351 1011.49 32.7311 1012.03 32.7311ZM1019.85 25.9091H1019.91C1020.21 25.3451 1020.6 24.8951 1021.08 24.5591C1021.56 24.2111 1022.12 24.0371 1022.77 24.0371C1022.9 24.0371 1023.01 24.0491 1023.09 24.0731C1023.19 24.0851 1023.28 24.1091 1023.38 24.1451V25.7291H1023.33C1023.21 25.6931 1023.1 25.6691 1023 25.6571C1022.91 25.6451 1022.79 25.6391 1022.64 25.6391C1022.27 25.6391 1021.92 25.7111 1021.58 25.8551C1021.24 25.9871 1020.95 26.1791 1020.7 26.4311C1020.45 26.6831 1020.24 26.9891 1020.09 27.3491C1019.94 27.7091 1019.87 28.1171 1019.87 28.5731V33.8291H1018.2V24.1631H1019.85V25.9091ZM1024.98 20.4371H1026.73V22.3811H1024.98V20.4371ZM1025.02 24.1631H1026.69V33.8291H1025.02V24.1631ZM1028.63 32.5331L1032.95 26.8991C1033.05 26.7671 1033.16 26.6291 1033.29 26.4851C1033.42 26.3291 1033.55 26.1851 1033.67 26.0531C1033.8 25.8971 1033.95 25.7411 1034.1 25.5851V25.5311C1033.87 25.5431 1033.65 25.5551 1033.44 25.5671C1033.24 25.5791 1033.05 25.5851 1032.84 25.5851C1032.64 25.5851 1032.45 25.5851 1032.28 25.5851H1028.95V24.1631H1036.21V25.2071L1031.82 30.9491C1031.71 31.0811 1031.58 31.2311 1031.44 31.3991C1031.31 31.5551 1031.17 31.7051 1031.04 31.8491C1030.9 32.0171 1030.75 32.1851 1030.59 32.3531V32.4071C1030.83 32.4071 1031.07 32.4011 1031.29 32.3891C1031.5 32.3771 1031.71 32.3711 1031.92 32.3711C1032.14 32.3591 1032.34 32.3531 1032.52 32.3531H1036.42V33.8291H1028.63V32.5331ZM1042.04 34.0991C1041.3 34.0991 1040.63 33.9671 1040.05 33.7031C1039.47 33.4391 1038.98 33.0791 1038.57 32.6231C1038.16 32.1551 1037.85 31.6151 1037.63 31.0031C1037.43 30.3791 1037.33 29.7131 1037.33 29.0051C1037.33 28.3091 1037.44 27.6551 1037.65 27.0431C1037.88 26.4191 1038.19 25.8791 1038.59 25.4231C1039 24.9551 1039.48 24.5891 1040.05 24.3251C1040.62 24.0611 1041.26 23.9291 1041.95 23.9291C1042.67 23.9291 1043.31 24.0611 1043.86 24.3251C1044.41 24.5891 1044.88 24.9551 1045.27 25.4231C1045.66 25.9031 1045.96 26.4791 1046.15 27.1511C1046.35 27.8231 1046.45 28.5731 1046.45 29.4011H1039.04C1039.07 29.8691 1039.16 30.3071 1039.31 30.7151C1039.45 31.1231 1039.65 31.4771 1039.9 31.7771C1040.15 32.0771 1040.46 32.3111 1040.82 32.4791C1041.18 32.6471 1041.59 32.7311 1042.06 32.7311C1042.73 32.7311 1043.29 32.5871 1043.72 32.2991C1044.16 31.9991 1044.46 31.5911 1044.62 31.0751H1046.26C1046.04 31.9751 1045.56 32.7071 1044.82 33.2711C1044.08 33.8231 1043.16 34.0991 1042.04 34.0991ZM1041.95 25.2251C1041.52 25.2251 1041.14 25.3031 1040.8 25.4591C1040.47 25.6031 1040.18 25.8071 1039.94 26.0711C1039.7 26.3351 1039.51 26.6471 1039.36 27.0071C1039.22 27.3671 1039.12 27.7631 1039.07 28.1951H1044.67C1044.62 27.2591 1044.37 26.5331 1043.9 26.0171C1043.44 25.4891 1042.79 25.2251 1041.95 25.2251Z" fill="white"/>
<path fill-rule="evenodd" clip-rule="evenodd" d="M1175.23 35.7229L1186.01 33.8211C1186.63 33.7095 1187.09 33.473 1187.41 33.1117C1187.72 32.757 1187.87 32.2774 1187.87 31.6731V18.1047C1187.87 17.6383 1187.77 17.2442 1187.58 16.9223C1187.38 16.6004 1187.1 16.3738 1186.75 16.2424C1186.4 16.1045 1185.98 16.0782 1185.5 16.1636L1175.03 18.0062C1174.07 18.177 1173.35 18.4759 1172.87 18.9029C1172.37 19.3233 1172.13 20.0163 1172.13 20.982V32.8752C1172.13 33.5781 1172.25 34.1594 1172.5 34.6193C1172.75 35.0857 1173.11 35.4141 1173.58 35.6046C1174.04 35.7951 1174.59 35.8346 1175.23 35.7229ZM1185.33 19.9572V22.0363C1185.33 22.24 1185.27 22.3943 1185.13 22.4994C1185 22.6045 1184.85 22.6604 1184.68 22.6669C1184.51 22.6669 1184.36 22.621 1184.24 22.529C1184.11 22.4305 1184.04 22.2826 1184.04 22.0856V20.7652C1184.04 20.4959 1183.89 20.3842 1183.58 20.4302L1182.28 20.6667C1182.07 20.6995 1181.9 20.6634 1181.78 20.5583C1181.66 20.4466 1181.58 20.3087 1181.56 20.1444C1181.52 19.9802 1181.55 19.8258 1181.63 19.6813C1181.7 19.5368 1181.83 19.4481 1182.01 19.4153L1184.13 19.0408C1184.5 18.9751 1184.8 19.0211 1185.02 19.1788C1185.23 19.3364 1185.33 19.5959 1185.33 19.9572ZM1176.04 22.391V23.6424C1176.04 23.8461 1175.98 24.0037 1175.85 24.1154C1175.72 24.2271 1175.57 24.2862 1175.4 24.2928C1175.23 24.2993 1175.08 24.2501 1174.95 24.145C1174.81 24.0333 1174.75 23.8658 1174.75 23.6424V21.9969C1174.75 21.5371 1174.87 21.1856 1175.11 20.9426C1175.35 20.6929 1175.74 20.5189 1176.29 20.4203L1177.31 20.243C1177.53 20.2036 1177.71 20.2364 1177.85 20.3415C1177.98 20.4466 1178.06 20.5846 1178.09 20.7554C1178.11 20.9196 1178.09 21.0739 1178 21.2185C1177.91 21.363 1177.75 21.455 1177.53 21.4944L1176.71 21.6422C1176.42 21.6947 1176.24 21.7965 1176.16 21.9476C1176.08 22.0921 1176.04 22.24 1176.04 22.391ZM1184.04 29.5644V28.313C1184.04 28.1094 1184.11 27.9517 1184.24 27.84C1184.36 27.7284 1184.51 27.6693 1184.68 27.6627C1184.85 27.6561 1185 27.7087 1185.13 27.8203C1185.27 27.9254 1185.33 28.0897 1185.33 28.313V29.9586C1185.33 30.4184 1185.21 30.7731 1184.98 31.0227C1184.73 31.2658 1184.34 31.4366 1183.79 31.5351L1182.77 31.7125C1182.55 31.7519 1182.37 31.7191 1182.24 31.614C1182.1 31.5023 1182.02 31.3643 1181.99 31.2001C1181.96 31.0359 1181.99 30.8815 1182.08 30.737C1182.17 30.5859 1182.33 30.4939 1182.55 30.4611L1183.37 30.3133C1183.66 30.2607 1183.84 30.1589 1183.92 30.0078C1184 29.8567 1184.04 29.7089 1184.04 29.5644ZM1174.75 31.9982V29.9191C1174.75 29.7089 1174.81 29.5546 1174.95 29.456C1175.08 29.3509 1175.23 29.2984 1175.4 29.2984C1175.57 29.2918 1175.72 29.3378 1175.85 29.4363C1175.98 29.5283 1176.04 29.6728 1176.04 29.8699V31.1902C1176.04 31.4596 1176.19 31.5713 1176.5 31.5253L1177.8 31.2888C1178.01 31.2559 1178.18 31.2954 1178.31 31.407C1178.42 31.5121 1178.5 31.6468 1178.53 31.811C1178.56 31.9752 1178.54 32.1296 1178.46 32.2741C1178.38 32.4187 1178.25 32.5073 1178.06 32.5402L1175.95 32.9146C1175.58 32.9803 1175.28 32.9343 1175.07 32.7767C1174.86 32.619 1174.75 32.3595 1174.75 31.9982ZM1181.21 24.4366L1182.69 24.1847C1182.82 24.1945 1182.91 24.3069 1182.9 24.4366C1182.9 24.4885 1182.88 24.5371 1182.85 24.5757L1181.91 26.232L1182.5 27.9592C1182.53 28.0852 1182.46 28.2124 1182.34 28.2436C1182.29 28.256 1182.24 28.2517 1182.19 28.2308L1180.52 27.8392L1178.8 29.0784C1178.74 29.114 1178.72 29.114 1178.68 29.114H1178.68C1178.64 29.1141 1178.6 29.1018 1178.56 29.0786C1178.52 29.0554 1178.5 29.0223 1178.48 28.9829C1178.46 28.9435 1178.45 28.8995 1178.45 28.8558L1178.74 26.7565L1177.28 25.6707C1177.24 25.6305 1177.21 25.5729 1177.2 25.5107C1177.2 25.4484 1177.22 25.3866 1177.25 25.3389C1177.29 25.2996 1177.33 25.2721 1177.38 25.261L1179.21 24.7259L1179.89 22.9787C1179.94 22.8587 1180.07 22.8009 1180.18 22.8497C1180.23 22.8691 1180.27 22.9039 1180.29 22.9484L1181.21 24.4366Z" fill="white"/>
<path d="M1224 51.8291H809V53.8291H1224V51.8291Z" fill="white" mask="url(#path-17-inside-4_4719_145472)"/>
<path d="M861.688 119.525H855.16V138.245L849.16 119.525H842.488V157.829H849.016V138.725L855.064 157.829H861.688V119.525ZM882.084 119.525H865.14V157.829H872.148V141.845H881.316V135.413H872.148V126.101H882.084V119.525ZM901.506 151.349H891.378V119.525H884.37V157.829H901.506V151.349ZM923.629 148.565L924.877 157.829H931.981L926.269 119.525H916.429L910.045 157.829H917.053L918.397 148.565H923.629ZM919.069 142.901C919.069 142.901 920.797 131.765 920.797 131.573C921.133 129.509 921.229 125.765 921.229 125.765C921.229 125.765 921.325 129.557 921.565 131.573C921.565 131.765 923.005 142.901 923.005 142.901H919.069ZM951.087 151.349H940.959V119.525H933.951V157.829H951.087V151.349ZM970.363 151.349H960.235V119.525H953.227V157.829H970.363V151.349ZM999.926 137.861C999.926 131.861 999.686 125.189 998.198 123.029C996.518 120.533 994.358 119.525 990.278 119.525H980.39V157.829H991.142C995.078 157.829 996.95 156.341 998.198 154.181C999.686 151.637 999.926 145.781 999.926 137.861ZM990.374 152.309H987.302V125.477H990.086C991.478 125.477 992.342 126.149 992.726 127.733C993.062 129.029 993.206 135.941 993.206 137.861C993.206 139.829 993.11 148.805 992.774 150.341C992.438 151.733 991.622 152.309 990.374 152.309ZM1014.44 148.565L1015.68 157.829H1022.79L1017.08 119.525H1007.24L1000.85 157.829H1007.86L1009.2 148.565H1014.44ZM1009.88 142.901C1009.88 142.901 1011.6 131.765 1011.6 131.573C1011.94 129.509 1012.04 125.765 1012.04 125.765C1012.04 125.765 1012.13 129.557 1012.37 131.573C1012.37 131.765 1013.81 142.901 1013.81 142.901H1009.88ZM1036.96 119.525C1036.96 119.525 1032.74 133.493 1032.11 135.509C1031.68 133.541 1027.94 119.525 1027.94 119.525H1020.78L1028.61 143.621V157.829H1035.62V143.477L1043.87 119.525H1036.96ZM860.536 178.981C859.432 176.725 856.936 175.525 854.008 175.525H842.488V213.829H849.448V197.893H851.944L855.784 213.829H863.032L858.376 195.973C859.336 195.637 860.392 194.581 860.968 193.093C861.544 191.701 861.88 189.637 861.88 186.613C861.88 183.205 861.352 180.565 860.536 178.981ZM854.44 190.741C854.248 191.413 853.72 191.845 852.808 191.941C852.568 191.989 849.448 191.989 849.448 191.989V181.909H852.616C853.768 181.909 854.392 182.677 854.632 183.733C854.728 184.213 854.824 185.989 854.824 187.285C854.824 188.437 854.728 190.069 854.44 190.741ZM875.181 205.237C875.181 205.909 875.085 206.725 874.893 207.541C874.653 208.597 873.645 209.029 872.685 209.029C871.725 209.029 870.621 208.453 870.477 207.157C870.333 205.957 870.285 204.037 870.285 202.837H881.181C881.421 198.325 881.085 193.717 880.173 191.461C879.069 188.773 876.525 187.093 872.829 187.093C868.269 187.093 866.253 189.157 865.293 191.509C864.573 193.237 864.045 196.789 864.045 200.773C864.045 204.853 864.381 207.877 865.485 210.421C866.637 213.109 869.373 214.165 872.925 214.165C876.477 214.165 878.637 212.725 879.789 210.661C880.797 208.885 881.037 206.005 881.037 205.237H875.181ZM870.189 198.133C870.189 196.309 870.237 194.581 870.573 193.765C870.909 192.853 871.677 192.373 872.733 192.373C873.837 192.373 874.557 192.901 874.797 193.813C874.989 194.437 875.133 195.733 875.133 198.133H870.189ZM904.795 187.429L902.683 206.821L899.899 187.429H893.323L890.875 206.821L888.427 187.429H881.899L886.651 213.829H894.331C894.331 213.829 896.011 204.469 896.539 201.349C896.587 201.061 896.635 198.613 896.635 198.613C896.635 198.613 896.779 201.061 896.827 201.349C897.355 204.373 898.987 213.829 898.987 213.829H906.571L911.179 187.429H904.795ZM928.636 209.125C928.636 207.157 928.684 203.941 928.684 201.877C928.732 199.429 928.78 195.445 928.684 193.141C928.54 189.445 926.236 187.093 920.716 187.093C914.86 187.093 912.46 189.733 912.46 194.677V196.645H918.412V195.157C918.412 193.333 918.988 192.421 920.62 192.421C921.82 192.421 922.444 193.093 922.492 194.245C922.54 195.061 922.54 196.693 922.54 197.413C921.484 197.413 920.38 197.557 919.18 197.749C914.764 198.565 911.788 200.965 911.548 204.805C911.452 206.197 911.5 208.453 911.548 209.029C911.74 212.869 914.668 214.021 917.308 214.021C919.66 214.021 921.436 213.397 922.636 211.909C922.636 212.581 922.78 213.829 922.876 213.829H928.972C928.732 213.493 928.636 211.045 928.636 209.125ZM922.54 203.749C922.444 205.093 922.54 205.765 922.3 207.157C922.06 208.501 920.908 209.029 919.9 209.029C918.94 209.029 918.172 208.693 918.028 207.781C917.932 207.013 917.932 206.101 917.932 205.381C917.932 204.277 917.98 203.509 918.796 202.789C919.516 202.165 920.332 202.021 921.004 201.877C921.58 201.781 922.06 201.781 922.54 201.781C922.54 202.165 922.588 203.221 922.54 203.749ZM942.583 187.093C940.375 187.093 938.167 188.533 937.879 190.549V187.429H931.543V213.829H937.975V198.181C937.975 193.861 939.319 192.901 941.527 192.901C942.823 192.901 944.119 193.141 944.887 193.381V187.333C944.359 187.141 943.591 187.093 942.583 187.093ZM946.848 191.317C946.08 194.197 945.84 196.837 945.84 200.725C945.84 204.949 946.32 208.453 947.184 210.565C948.144 212.965 949.92 214.021 952.56 214.021C954.912 214.021 956.496 213.253 957.36 211.909L958.128 213.829H963.504C963.504 213.829 963.312 211.621 963.312 210.133V175.477H957.024V189.349C956.304 187.957 954.576 187.189 952.56 187.189C949.728 187.189 947.52 188.725 946.848 191.317ZM956.592 194.101C956.88 195.541 957.072 196.981 957.072 200.773C957.072 203.077 956.976 205.477 956.64 207.157C956.448 208.165 955.824 208.933 954.576 208.933C953.28 208.933 952.608 208.309 952.464 207.301C952.224 205.333 952.128 202.981 952.128 200.773C952.128 198.517 952.224 196.261 952.56 194.341C952.752 193.381 953.424 192.661 954.624 192.661C955.824 192.661 956.4 193.189 956.592 194.101ZM991.858 178.261C990.466 176.437 988.45 175.525 985.474 175.525H974.098V213.829H981.154V199.333C981.154 199.333 984.418 199.381 985.378 199.285C988.258 199.093 990.37 198.325 991.762 196.597C993.202 194.869 993.778 191.989 993.778 187.429C993.778 182.917 993.106 179.845 991.858 178.261ZM986.434 191.557C986.242 192.805 985.426 193.333 983.842 193.333H981.154V182.005H984.034C985.138 182.005 985.954 182.629 986.242 183.445C986.482 184.117 986.722 185.701 986.722 187.717C986.722 189.781 986.674 190.261 986.434 191.557ZM1011.1 209.125C1011.1 207.157 1011.15 203.941 1011.15 201.877C1011.19 199.429 1011.24 195.445 1011.15 193.141C1011 189.445 1008.7 187.093 1003.18 187.093C997.323 187.093 994.923 189.733 994.923 194.677V196.645H1000.87V195.157C1000.87 193.333 1001.45 192.421 1003.08 192.421C1004.28 192.421 1004.91 193.093 1004.95 194.245C1005 195.061 1005 196.693 1005 197.413C1003.95 197.413 1002.84 197.557 1001.64 197.749C997.227 198.565 994.251 200.965 994.011 204.805C993.915 206.197 993.963 208.453 994.011 209.029C994.203 212.869 997.131 214.021 999.771 214.021C1002.12 214.021 1003.9 213.397 1005.1 211.909C1005.1 212.581 1005.24 213.829 1005.34 213.829H1011.43C1011.19 213.493 1011.1 211.045 1011.1 209.125ZM1005 203.749C1004.91 205.093 1005 205.765 1004.76 207.157C1004.52 208.501 1003.37 209.029 1002.36 209.029C1001.4 209.029 1000.63 208.693 1000.49 207.781C1000.39 207.013 1000.39 206.101 1000.39 205.381C1000.39 204.277 1000.44 203.509 1001.26 202.789C1001.98 202.165 1002.79 202.021 1003.47 201.877C1004.04 201.781 1004.52 201.781 1005 201.781C1005 202.165 1005.05 203.221 1005 203.749ZM1029.99 191.893C1029.13 189.157 1027.11 187.093 1022.17 187.093C1018.42 187.093 1015.73 188.773 1014.77 191.605C1013.81 194.485 1013.53 196.789 1013.53 200.629C1013.53 204.613 1014.1 208.597 1014.87 210.325C1015.93 212.725 1018.47 214.165 1022.26 214.165C1026.15 214.165 1028.65 212.437 1029.51 210.229C1030.42 207.925 1030.47 206.821 1030.47 203.221H1024.52C1024.52 204.901 1024.52 205.429 1024.33 206.821C1024.18 207.925 1023.51 208.789 1022.26 208.789C1021.01 208.789 1020.39 208.213 1020.2 206.869C1019.91 204.901 1019.81 202.213 1019.81 200.677C1019.81 198.757 1019.91 196.357 1020.2 194.485C1020.39 193.189 1021.06 192.517 1022.21 192.517C1023.56 192.517 1024.04 193.381 1024.18 194.437C1024.33 195.445 1024.47 196.645 1024.47 198.181H1030.47C1030.47 194.965 1030.33 193.045 1029.99 191.893ZM1045.53 197.029L1050.53 187.429H1044.29L1039.15 197.557V175.477H1032.81V213.829H1039.15V205.909L1041.02 202.885L1044.33 213.829H1050.77L1045.53 197.029Z" fill="white"/>
</g>
<path d="M809 0.829102H1224H809ZM1224 284.829H809H1224ZM808 284.829V0.829102H810V284.829H808ZM1224 0.829102V284.829V0.829102Z" fill="white" mask="url(#path-15-inside-3_4719_145472)"/>
<rect x="624.5" y="1.3291" width="599" height="283" rx="11.5" stroke="white"/>
<defs>
<clipPath id="clip0_4719_145472">
<path d="M185 0.829102H600V284.829H185V0.829102Z" fill="white"/>
</clipPath>
<clipPath id="clip1_4719_145472">
<path d="M809 0.829102H1224V284.829H809V0.829102Z" fill="white"/>
</clipPath>
</defs>
</svg>
