<svg width="100%" height="auto" viewBox="0 0 1224 285" fill="none" xmlns="http://www.w3.org/2000/svg">
<path d="M116.048 118.581C115.28 108.597 108.496 102.453 98.64 102.453C91.344 102.453 87.504 104.373 85.456 108.469V86.5811H113.488V69.6851H68.944V127.029H86.224C86.224 121.653 88.016 119.349 91.856 119.349C95.312 119.349 96.72 121.013 96.848 125.365C97.104 130.741 97.104 147.381 96.976 151.093C96.72 155.445 95.44 157.749 91.472 157.749C87.504 157.749 86.224 155.317 85.968 150.965C85.712 147.381 85.712 142.645 85.712 141.621H67.792C67.92 146.357 67.792 149.813 68.048 153.525C68.688 165.429 75.216 172.853 91.472 172.853C108.496 172.853 115.408 163.637 116.048 153.909C116.56 145.717 116.56 125.237 116.048 118.581Z" fill="white"/>
<path d="M80.0281 201.573C80.0281 201.573 77.5981 212.139 77.5981 212.571C77.5981 212.139 75.3661 201.573 75.3661 201.573H72.7381C72.7381 201.573 70.5241 212.139 70.5241 212.571C70.5241 212.139 68.0941 201.573 68.0941 201.573H65.5921L69.0121 215.829H71.6941C71.6941 215.829 74.0161 205.281 74.0161 204.813C74.0341 205.281 76.2661 215.829 76.2661 215.829H78.9661L82.3501 201.573H80.0281ZM88.8421 201.573H86.4121V215.829H88.8421V201.573ZM103.883 201.573H101.633V211.293L96.7729 201.573H94.0909V215.829H96.3409V205.857L101.345 215.829H103.883V201.573ZM115.346 207.891C114.95 207.747 114.104 207.423 113.6 207.261C111.854 206.685 110.99 206.127 110.99 205.011C110.99 204.057 111.638 203.481 113.456 203.481C115.004 203.481 115.724 203.913 116.03 204.795C116.138 205.119 116.192 205.389 116.192 205.695H118.604C118.604 205.155 118.514 204.723 118.388 204.291C117.884 202.527 116.444 201.411 113.51 201.411C110.144 201.411 108.56 202.887 108.56 205.083C108.56 207.189 109.946 208.449 112.088 209.151C112.682 209.349 113.528 209.673 113.888 209.799C115.796 210.465 116.372 211.041 116.372 212.247C116.372 213.327 115.598 213.975 113.78 213.975C112.232 213.975 111.332 213.579 111.062 212.733C110.954 212.391 110.9 211.905 110.9 211.653H108.506C108.506 212.067 108.542 212.733 108.668 213.219C109.1 214.893 110.54 216.009 113.834 216.009C117.164 216.009 118.802 214.425 118.802 212.049C118.802 209.835 117.578 208.665 115.346 207.891Z" fill="white"/>
<g clip-path="url(#clip0_4719_145481)">
<path d="M222.238 34.0991C221.566 34.0991 220.948 34.0031 220.384 33.8111C219.832 33.6191 219.352 33.3551 218.944 33.0191C218.548 32.6831 218.23 32.2931 217.99 31.8491C217.75 31.3931 217.612 30.9071 217.576 30.3911H219.286C219.418 31.0391 219.718 31.5731 220.186 31.9931C220.654 32.4011 221.326 32.6051 222.202 32.6051C223.102 32.6051 223.81 32.3351 224.326 31.7951C224.854 31.2431 225.118 30.5111 225.118 29.5991C225.118 29.1311 225.046 28.7171 224.902 28.3571C224.758 27.9851 224.56 27.6731 224.308 27.4211C224.056 27.1691 223.762 26.9771 223.426 26.8451C223.09 26.7131 222.73 26.6471 222.346 26.6471C221.626 26.6471 221.038 26.7671 220.582 27.0071C220.126 27.2471 219.778 27.5231 219.538 27.8351H217.882L219.268 21.0131H226.108V22.5251H220.492L219.664 26.3411H219.7C220.06 25.9691 220.48 25.6871 220.96 25.4951C221.44 25.2911 222.01 25.1891 222.67 25.1891C223.21 25.1891 223.732 25.2911 224.236 25.4951C224.74 25.6871 225.19 25.9751 225.586 26.3591C225.982 26.7311 226.294 27.1931 226.522 27.7451C226.762 28.2971 226.882 28.9271 226.882 29.6351C226.882 30.3191 226.762 30.9371 226.522 31.4891C226.294 32.0411 225.97 32.5151 225.55 32.9111C225.142 33.2951 224.65 33.5891 224.074 33.7931C223.51 33.9971 222.898 34.0991 222.238 34.0991ZM237.636 37.2131C236.364 37.2131 235.374 36.9731 234.666 36.4931C233.97 36.0251 233.574 35.3591 233.478 34.4951H235.044C235.116 34.9991 235.38 35.3591 235.836 35.5751C236.292 35.8031 236.88 35.9171 237.6 35.9171C238.464 35.9171 239.124 35.7191 239.58 35.3231C240.048 34.9391 240.282 34.3331 240.282 33.5051V33.2351C240.282 32.9591 240.282 32.7011 240.282 32.4611C240.294 32.2091 240.306 32.0051 240.318 31.8491H240.282C239.946 32.3291 239.55 32.7071 239.094 32.9831C238.65 33.2591 238.086 33.3971 237.402 33.3971C236.79 33.3971 236.22 33.2831 235.692 33.0551C235.176 32.8271 234.732 32.5031 234.36 32.0831C233.988 31.6631 233.694 31.1651 233.478 30.5891C233.274 30.0131 233.172 29.3711 233.172 28.6631C233.172 27.9191 233.28 27.2531 233.496 26.6651C233.712 26.0771 234.006 25.5851 234.378 25.1891C234.762 24.7811 235.206 24.4691 235.71 24.2531C236.214 24.0371 236.748 23.9291 237.312 23.9291C238.008 23.9291 238.59 24.0611 239.058 24.3251C239.538 24.5771 239.934 24.9491 240.246 25.4411H240.282V24.1631H241.938V33.4331C241.938 34.0811 241.836 34.6391 241.632 35.1071C241.428 35.5871 241.14 35.9831 240.768 36.2951C240.384 36.6071 239.928 36.8351 239.4 36.9791C238.872 37.1351 238.284 37.2131 237.636 37.2131ZM237.564 32.0291C238.092 32.0291 238.536 31.9451 238.896 31.7771C239.256 31.5971 239.544 31.3571 239.76 31.0571C239.988 30.7451 240.15 30.3791 240.246 29.9591C240.342 29.5391 240.39 29.0831 240.39 28.5911C240.39 27.5711 240.156 26.7731 239.688 26.1971C239.232 25.6091 238.518 25.3151 237.546 25.3151C236.658 25.3151 235.992 25.6211 235.548 26.2331C235.104 26.8451 234.882 27.6611 234.882 28.6811C234.882 29.7131 235.11 30.5291 235.566 31.1291C236.022 31.7291 236.688 32.0291 237.564 32.0291ZM247.136 34.0271C246.68 34.0271 246.248 33.9671 245.84 33.8471C245.444 33.7391 245.096 33.5711 244.796 33.3431C244.508 33.1151 244.28 32.8331 244.112 32.4971C243.944 32.1491 243.86 31.7411 243.86 31.2731C243.86 30.7091 243.956 30.2471 244.148 29.8871C244.352 29.5271 244.634 29.2391 244.994 29.0231C245.366 28.8071 245.804 28.6391 246.308 28.5191C246.824 28.3991 247.394 28.3031 248.018 28.2311C248.378 28.1951 248.702 28.1471 248.99 28.0871C249.278 28.0271 249.524 27.9491 249.728 27.8531C249.932 27.7451 250.088 27.6131 250.196 27.4571C250.304 27.3011 250.358 27.0971 250.358 26.8451C250.358 26.3171 250.178 25.9031 249.818 25.6031C249.47 25.3031 248.96 25.1531 248.288 25.1531C247.52 25.1531 246.944 25.3211 246.56 25.6571C246.188 25.9931 245.99 26.4491 245.966 27.0251H244.346C244.358 26.6171 244.448 26.2271 244.616 25.8551C244.784 25.4831 245.03 25.1531 245.354 24.8651C245.678 24.5771 246.08 24.3491 246.56 24.1811C247.052 24.0131 247.622 23.9291 248.27 23.9291C248.726 23.9291 249.152 23.9711 249.548 24.0551C249.944 24.1391 250.298 24.2711 250.61 24.4511C251.018 24.6911 251.336 25.0271 251.564 25.4591C251.792 25.8911 251.906 26.4311 251.906 27.0791V31.5971C251.906 31.9811 251.972 32.2691 252.104 32.4611C252.236 32.6531 252.512 32.7011 252.932 32.6051H253.004V33.7751C252.884 33.8111 252.752 33.8411 252.608 33.8651C252.476 33.9011 252.308 33.9191 252.104 33.9191C251.588 33.9191 251.198 33.7991 250.934 33.5591C250.67 33.3071 250.49 32.9231 250.394 32.4071H250.376C250.22 32.6231 250.04 32.8271 249.836 33.0191C249.632 33.2111 249.398 33.3851 249.134 33.5411C248.87 33.6851 248.57 33.7991 248.234 33.8831C247.91 33.9791 247.544 34.0271 247.136 34.0271ZM247.55 32.8031C248.03 32.8031 248.444 32.7251 248.792 32.5691C249.152 32.4011 249.446 32.1971 249.674 31.9571C249.914 31.7051 250.088 31.4291 250.196 31.1291C250.316 30.8291 250.376 30.5411 250.376 30.2651V28.6811C250.136 28.8371 249.818 28.9751 249.422 29.0951C249.038 29.2031 248.648 29.2931 248.252 29.3651C247.856 29.4371 247.496 29.5151 247.172 29.5991C246.848 29.6711 246.572 29.7791 246.344 29.9231C246.116 30.0551 245.936 30.2291 245.804 30.4451C245.684 30.6491 245.624 30.9191 245.624 31.2551C245.624 31.5671 245.678 31.8251 245.786 32.0291C245.894 32.2211 246.038 32.3771 246.218 32.4971C246.398 32.6171 246.602 32.7011 246.83 32.7491C247.07 32.7851 247.31 32.8031 247.55 32.8031ZM254.363 24.1631H256.019V25.6031H256.073C256.373 25.0751 256.769 24.6671 257.261 24.3791C257.753 24.0791 258.311 23.9291 258.935 23.9291C259.523 23.9291 260.033 24.0791 260.465 24.3791C260.909 24.6791 261.233 25.1291 261.437 25.7291H261.473C261.821 25.1171 262.259 24.6671 262.787 24.3791C263.315 24.0791 263.873 23.9291 264.461 23.9291C265.349 23.9291 266.069 24.1991 266.621 24.7391C267.173 25.2791 267.449 26.0591 267.449 27.0791V33.8291H265.775V27.2231C265.775 26.6231 265.607 26.1611 265.271 25.8371C264.935 25.5011 264.521 25.3331 264.029 25.3331C263.717 25.3331 263.423 25.3991 263.147 25.5311C262.871 25.6511 262.631 25.8251 262.427 26.0531C262.223 26.2811 262.055 26.5511 261.923 26.8631C261.803 27.1631 261.743 27.4991 261.743 27.8711V33.8291H260.087V27.2231C260.087 26.6231 259.937 26.1611 259.637 25.8371C259.337 25.5011 258.935 25.3331 258.431 25.3331C258.143 25.3331 257.855 25.3991 257.567 25.5311C257.279 25.6511 257.021 25.8251 256.793 26.0531C256.577 26.2811 256.397 26.5511 256.253 26.8631C256.109 27.1631 256.037 27.4991 256.037 27.8711V33.8291H254.363V24.1631ZM273.885 34.0991C273.141 34.0991 272.475 33.9671 271.887 33.7031C271.311 33.4391 270.819 33.0791 270.411 32.6231C270.003 32.1551 269.691 31.6151 269.475 31.0031C269.271 30.3791 269.169 29.7131 269.169 29.0051C269.169 28.3091 269.277 27.6551 269.493 27.0431C269.721 26.4191 270.033 25.8791 270.429 25.4231C270.837 24.9551 271.323 24.5891 271.887 24.3251C272.463 24.0611 273.099 23.9291 273.795 23.9291C274.515 23.9291 275.151 24.0611 275.703 24.3251C276.255 24.5891 276.723 24.9551 277.107 25.4231C277.503 25.9031 277.797 26.4791 277.989 27.1511C278.193 27.8231 278.295 28.5731 278.295 29.4011H270.879C270.915 29.8691 271.005 30.3071 271.149 30.7151C271.293 31.1231 271.491 31.4771 271.743 31.7771C271.995 32.0771 272.301 32.3111 272.661 32.4791C273.021 32.6471 273.435 32.7311 273.903 32.7311C274.575 32.7311 275.127 32.5871 275.559 32.2991C276.003 31.9991 276.303 31.5911 276.459 31.0751H278.097C277.881 31.9751 277.401 32.7071 276.657 33.2711C275.925 33.8231 275.001 34.0991 273.885 34.0991ZM273.795 25.2251C273.363 25.2251 272.979 25.3031 272.643 25.4591C272.307 25.6031 272.019 25.8071 271.779 26.0711C271.539 26.3351 271.347 26.6471 271.203 27.0071C271.059 27.3671 270.963 27.7631 270.915 28.1951H276.513C276.465 27.2591 276.207 26.5331 275.739 26.0171C275.283 25.4891 274.635 25.2251 273.795 25.2251ZM283.889 24.1631H285.671L287.183 29.5271C287.255 29.8031 287.327 30.1031 287.399 30.4271C287.483 30.7511 287.555 31.0571 287.615 31.3451C287.687 31.6811 287.753 32.0171 287.813 32.3531H287.849C287.909 32.0411 287.975 31.7231 288.047 31.3991C288.107 31.1231 288.173 30.8231 288.245 30.4991C288.329 30.1751 288.413 29.8631 288.497 29.5631L289.955 24.1631H291.539L292.979 29.5631C293.039 29.8271 293.105 30.1211 293.177 30.4451C293.261 30.7571 293.333 31.0571 293.393 31.3451C293.465 31.6811 293.531 32.0231 293.591 32.3711H293.627C293.687 32.0471 293.747 31.7231 293.807 31.3991C293.867 31.1231 293.933 30.8171 294.005 30.4811C294.077 30.1451 294.161 29.8271 294.257 29.5271L295.859 24.1631H297.587L294.437 33.8291H292.763L291.341 28.5011C291.281 28.2611 291.215 27.9911 291.143 27.6911C291.071 27.3791 291.005 27.0851 290.945 26.8091C290.873 26.4851 290.801 26.1491 290.729 25.8011H290.693C290.621 26.1491 290.549 26.4851 290.477 26.8091C290.417 27.0851 290.351 27.3791 290.279 27.6911C290.219 28.0031 290.159 28.2731 290.099 28.5011L288.641 33.8291H286.949L283.889 24.1631ZM298.887 20.4371H300.633V22.3811H298.887V20.4371ZM298.923 24.1631H300.597V33.8291H298.923V24.1631ZM304.552 25.5311H304.606C304.954 25.0391 305.374 24.6491 305.866 24.3611C306.358 24.0731 306.958 23.9291 307.666 23.9291C308.686 23.9291 309.484 24.1991 310.06 24.7391C310.636 25.2791 310.924 26.0591 310.924 27.0791V33.8291H309.268V27.2771C309.268 26.6531 309.076 26.1731 308.692 25.8371C308.32 25.5011 307.804 25.3331 307.144 25.3331C306.772 25.3331 306.424 25.3991 306.1 25.5311C305.788 25.6511 305.518 25.8251 305.29 26.0531C305.062 26.2811 304.882 26.5571 304.75 26.8811C304.63 27.2051 304.57 27.5591 304.57 27.9431V33.8291H302.896V24.1631H304.552V25.5311ZM321.669 34.1171C320.325 34.1171 319.287 33.8291 318.555 33.2531C317.823 32.6651 317.421 31.8791 317.349 30.8951H319.041C319.089 31.2431 319.191 31.5371 319.347 31.7771C319.503 32.0171 319.695 32.2091 319.923 32.3531C320.163 32.4971 320.433 32.6051 320.733 32.6771C321.033 32.7371 321.357 32.7671 321.705 32.7671C322.473 32.7671 323.025 32.6231 323.361 32.3351C323.709 32.0351 323.883 31.6691 323.883 31.2371C323.883 30.7091 323.673 30.3431 323.253 30.1391C322.845 29.9231 322.215 29.7311 321.363 29.5631C320.895 29.4671 320.439 29.3591 319.995 29.2391C319.563 29.1191 319.179 28.9571 318.843 28.7531C318.519 28.5491 318.255 28.2791 318.051 27.9431C317.859 27.6071 317.763 27.1751 317.763 26.6471C317.763 25.8191 318.069 25.1651 318.681 24.6851C319.305 24.1931 320.181 23.9471 321.309 23.9471C322.521 23.9471 323.439 24.2051 324.063 24.7211C324.687 25.2371 325.053 25.9151 325.161 26.7551H323.487C323.415 26.2511 323.199 25.8671 322.839 25.6031C322.491 25.3391 321.969 25.2071 321.273 25.2071C320.613 25.2071 320.133 25.3391 319.833 25.6031C319.545 25.8671 319.401 26.1851 319.401 26.5571C319.401 26.8091 319.455 27.0191 319.563 27.1871C319.683 27.3431 319.851 27.4751 320.067 27.5831C320.295 27.6911 320.565 27.7811 320.877 27.8531C321.201 27.9251 321.567 28.0031 321.975 28.0871C322.455 28.1831 322.911 28.2911 323.343 28.4111C323.775 28.5311 324.153 28.6991 324.477 28.9151C324.813 29.1311 325.077 29.4191 325.269 29.7791C325.461 30.1271 325.557 30.5831 325.557 31.1471C325.557 31.6391 325.461 32.0711 325.269 32.4431C325.077 32.8151 324.807 33.1271 324.459 33.3791C324.123 33.6191 323.715 33.7991 323.235 33.9191C322.755 34.0511 322.233 34.1171 321.669 34.1171ZM326.595 24.1631H328.107V21.1211H329.763V24.1631H331.761V25.4591H329.763V31.5611C329.763 31.9091 329.847 32.1491 330.015 32.2811C330.195 32.4011 330.441 32.4611 330.753 32.4611C330.897 32.4611 331.047 32.4491 331.203 32.4251C331.371 32.3891 331.503 32.3591 331.599 32.3351H331.653V33.7391C331.197 33.8471 330.747 33.9011 330.303 33.9011C329.655 33.8891 329.127 33.7391 328.719 33.4511C328.311 33.1511 328.107 32.6471 328.107 31.9391V25.4591H326.595V24.1631ZM335.156 25.9091H335.21C335.51 25.3451 335.9 24.8951 336.38 24.5591C336.86 24.2111 337.424 24.0371 338.072 24.0371C338.204 24.0371 338.312 24.0491 338.396 24.0731C338.492 24.0851 338.588 24.1091 338.684 24.1451V25.7291H338.63C338.51 25.6931 338.402 25.6691 338.306 25.6571C338.21 25.6451 338.09 25.6391 337.946 25.6391C337.574 25.6391 337.22 25.7111 336.884 25.8551C336.548 25.9871 336.254 26.1791 336.002 26.4311C335.75 26.6831 335.546 26.9891 335.39 27.3491C335.246 27.7091 335.174 28.1171 335.174 28.5731V33.8291H333.5V24.1631H335.156V25.9091ZM344.162 34.0991C343.418 34.0991 342.752 33.9671 342.164 33.7031C341.588 33.4391 341.096 33.0791 340.688 32.6231C340.28 32.1551 339.968 31.6151 339.752 31.0031C339.548 30.3791 339.446 29.7131 339.446 29.0051C339.446 28.3091 339.554 27.6551 339.77 27.0431C339.998 26.4191 340.31 25.8791 340.706 25.4231C341.114 24.9551 341.6 24.5891 342.164 24.3251C342.74 24.0611 343.376 23.9291 344.072 23.9291C344.792 23.9291 345.428 24.0611 345.98 24.3251C346.532 24.5891 347 24.9551 347.384 25.4231C347.78 25.9031 348.074 26.4791 348.266 27.1511C348.47 27.8231 348.572 28.5731 348.572 29.4011H341.156C341.192 29.8691 341.282 30.3071 341.426 30.7151C341.57 31.1231 341.768 31.4771 342.02 31.7771C342.272 32.0771 342.578 32.3111 342.938 32.4791C343.298 32.6471 343.712 32.7311 344.18 32.7311C344.852 32.7311 345.404 32.5871 345.836 32.2991C346.28 31.9991 346.58 31.5911 346.736 31.0751H348.374C348.158 31.9751 347.678 32.7071 346.934 33.2711C346.202 33.8231 345.278 34.0991 344.162 34.0991ZM344.072 25.2251C343.64 25.2251 343.256 25.3031 342.92 25.4591C342.584 25.6031 342.296 25.8071 342.056 26.0711C341.816 26.3351 341.624 26.6471 341.48 27.0071C341.336 27.3671 341.24 27.7631 341.192 28.1951H346.79C346.742 27.2591 346.484 26.5331 346.016 26.0171C345.56 25.4891 344.912 25.2251 344.072 25.2251ZM353.237 34.0271C352.781 34.0271 352.349 33.9671 351.941 33.8471C351.545 33.7391 351.197 33.5711 350.897 33.3431C350.609 33.1151 350.381 32.8331 350.213 32.4971C350.045 32.1491 349.961 31.7411 349.961 31.2731C349.961 30.7091 350.057 30.2471 350.249 29.8871C350.453 29.5271 350.735 29.2391 351.095 29.0231C351.467 28.8071 351.905 28.6391 352.409 28.5191C352.925 28.3991 353.495 28.3031 354.119 28.2311C354.479 28.1951 354.803 28.1471 355.091 28.0871C355.379 28.0271 355.625 27.9491 355.829 27.8531C356.033 27.7451 356.189 27.6131 356.297 27.4571C356.405 27.3011 356.459 27.0971 356.459 26.8451C356.459 26.3171 356.279 25.9031 355.919 25.6031C355.571 25.3031 355.061 25.1531 354.389 25.1531C353.621 25.1531 353.045 25.3211 352.661 25.6571C352.289 25.9931 352.091 26.4491 352.067 27.0251H350.447C350.459 26.6171 350.549 26.2271 350.717 25.8551C350.885 25.4831 351.131 25.1531 351.455 24.8651C351.779 24.5771 352.181 24.3491 352.661 24.1811C353.153 24.0131 353.723 23.9291 354.371 23.9291C354.827 23.9291 355.253 23.9711 355.649 24.0551C356.045 24.1391 356.399 24.2711 356.711 24.4511C357.119 24.6911 357.437 25.0271 357.665 25.4591C357.893 25.8911 358.007 26.4311 358.007 27.0791V31.5971C358.007 31.9811 358.073 32.2691 358.205 32.4611C358.337 32.6531 358.613 32.7011 359.033 32.6051H359.105V33.7751C358.985 33.8111 358.853 33.8411 358.709 33.8651C358.577 33.9011 358.409 33.9191 358.205 33.9191C357.689 33.9191 357.299 33.7991 357.035 33.5591C356.771 33.3071 356.591 32.9231 356.495 32.4071H356.477C356.321 32.6231 356.141 32.8271 355.937 33.0191C355.733 33.2111 355.499 33.3851 355.235 33.5411C354.971 33.6851 354.671 33.7991 354.335 33.8831C354.011 33.9791 353.645 34.0271 353.237 34.0271ZM353.651 32.8031C354.131 32.8031 354.545 32.7251 354.893 32.5691C355.253 32.4011 355.547 32.1971 355.775 31.9571C356.015 31.7051 356.189 31.4291 356.297 31.1291C356.417 30.8291 356.477 30.5411 356.477 30.2651V28.6811C356.237 28.8371 355.919 28.9751 355.523 29.0951C355.139 29.2031 354.749 29.2931 354.353 29.3651C353.957 29.4371 353.597 29.5151 353.273 29.5991C352.949 29.6711 352.673 29.7791 352.445 29.9231C352.217 30.0551 352.037 30.2291 351.905 30.4451C351.785 30.6491 351.725 30.9191 351.725 31.2551C351.725 31.5671 351.779 31.8251 351.887 32.0291C351.995 32.2211 352.139 32.3771 352.319 32.4971C352.499 32.6171 352.703 32.7011 352.931 32.7491C353.171 32.7851 353.411 32.8031 353.651 32.8031ZM363.507 28.7351L362.139 30.0311V33.8291H360.465V20.4371H362.139V26.7911C362.139 26.9591 362.133 27.1931 362.121 27.4931C362.109 27.7811 362.091 28.0451 362.067 28.2851L366.261 24.1631H368.349L364.659 27.6371L368.781 33.8291H366.819L363.507 28.7351ZM375.002 24.1631H376.658V25.6751H376.712C377.072 25.1231 377.498 24.6971 377.99 24.3971C378.494 24.0851 379.094 23.9291 379.79 23.9291C380.402 23.9291 380.96 24.0491 381.464 24.2891C381.98 24.5171 382.418 24.8531 382.778 25.2971C383.15 25.7291 383.438 26.2631 383.642 26.8991C383.846 27.5231 383.948 28.2311 383.948 29.0231C383.948 29.8031 383.852 30.5051 383.66 31.1291C383.468 31.7531 383.186 32.2871 382.814 32.7311C382.454 33.1751 382.01 33.5171 381.482 33.7571C380.966 33.9971 380.384 34.1171 379.736 34.1171C379.076 34.1171 378.488 33.9851 377.972 33.7211C377.456 33.4571 377.03 33.0671 376.694 32.5511H376.64C376.652 32.7191 376.658 32.9411 376.658 33.2171C376.67 33.4811 376.676 33.7991 376.676 34.1711V37.1051H375.002V24.1631ZM379.556 32.7311C380 32.7311 380.39 32.6411 380.726 32.4611C381.062 32.2691 381.338 32.0111 381.554 31.6871C381.782 31.3631 381.95 30.9791 382.058 30.5351C382.178 30.0791 382.238 29.5871 382.238 29.0591C382.238 28.5311 382.184 28.0391 382.076 27.5831C381.968 27.1271 381.8 26.7371 381.572 26.4131C381.356 26.0771 381.08 25.8191 380.744 25.6391C380.408 25.4471 380.018 25.3511 379.574 25.3511C379.058 25.3511 378.614 25.4471 378.242 25.6391C377.87 25.8311 377.558 26.0951 377.306 26.4311C377.066 26.7671 376.886 27.1631 376.766 27.6191C376.646 28.0631 376.586 28.5431 376.586 29.0591C376.586 29.5631 376.64 30.0431 376.748 30.4991C376.856 30.9431 377.03 31.3331 377.27 31.6691C377.51 31.9931 377.816 32.2511 378.188 32.4431C378.56 32.6351 379.016 32.7311 379.556 32.7311ZM387.38 25.9091H387.434C387.734 25.3451 388.124 24.8951 388.604 24.5591C389.084 24.2111 389.648 24.0371 390.296 24.0371C390.428 24.0371 390.536 24.0491 390.62 24.0731C390.716 24.0851 390.812 24.1091 390.908 24.1451V25.7291H390.854C390.734 25.6931 390.626 25.6691 390.53 25.6571C390.434 25.6451 390.314 25.6391 390.17 25.6391C389.798 25.6391 389.444 25.7111 389.108 25.8551C388.772 25.9871 388.478 26.1791 388.226 26.4311C387.974 26.6831 387.77 26.9891 387.614 27.3491C387.47 27.7091 387.398 28.1171 387.398 28.5731V33.8291H385.724V24.1631H387.38V25.9091ZM392.509 20.4371H394.255V22.3811H392.509V20.4371ZM392.545 24.1631H394.219V33.8291H392.545V24.1631ZM396.157 32.5331L400.477 26.8991C400.573 26.7671 400.687 26.6291 400.819 26.4851C400.951 26.3291 401.077 26.1851 401.197 26.0531C401.329 25.8971 401.473 25.7411 401.629 25.5851V25.5311C401.401 25.5431 401.179 25.5551 400.963 25.5671C400.771 25.5791 400.573 25.5851 400.369 25.5851C400.165 25.5851 399.979 25.5851 399.811 25.5851H396.481V24.1631H403.735V25.2071L399.343 30.9491C399.235 31.0811 399.109 31.2311 398.965 31.3991C398.833 31.5551 398.701 31.7051 398.569 31.8491C398.425 32.0171 398.275 32.1851 398.119 32.3531V32.4071C398.359 32.4071 398.593 32.4011 398.821 32.3891C399.025 32.3771 399.235 32.3711 399.451 32.3711C399.667 32.3591 399.865 32.3531 400.045 32.3531H403.951V33.8291H396.157V32.5331ZM409.571 34.0991C408.827 34.0991 408.161 33.9671 407.573 33.7031C406.997 33.4391 406.505 33.0791 406.097 32.6231C405.689 32.1551 405.377 31.6151 405.161 31.0031C404.957 30.3791 404.855 29.7131 404.855 29.0051C404.855 28.3091 404.963 27.6551 405.179 27.0431C405.407 26.4191 405.719 25.8791 406.115 25.4231C406.523 24.9551 407.009 24.5891 407.573 24.3251C408.149 24.0611 408.785 23.9291 409.481 23.9291C410.201 23.9291 410.837 24.0611 411.389 24.3251C411.941 24.5891 412.409 24.9551 412.793 25.4231C413.189 25.9031 413.483 26.4791 413.675 27.1511C413.879 27.8231 413.981 28.5731 413.981 29.4011H406.565C406.601 29.8691 406.691 30.3071 406.835 30.7151C406.979 31.1231 407.177 31.4771 407.429 31.7771C407.681 32.0771 407.987 32.3111 408.347 32.4791C408.707 32.6471 409.121 32.7311 409.589 32.7311C410.261 32.7311 410.813 32.5871 411.245 32.2991C411.689 31.9991 411.989 31.5911 412.145 31.0751H413.783C413.567 31.9751 413.087 32.7071 412.343 33.2711C411.611 33.8231 410.687 34.0991 409.571 34.0991ZM409.481 25.2251C409.049 25.2251 408.665 25.3031 408.329 25.4591C407.993 25.6031 407.705 25.8071 407.465 26.0711C407.225 26.3351 407.033 26.6471 406.889 27.0071C406.745 27.3671 406.649 27.7631 406.601 28.1951H412.199C412.151 27.2591 411.893 26.5331 411.425 26.0171C410.969 25.4891 410.321 25.2251 409.481 25.2251Z" fill="white"/>
<path fill-rule="evenodd" clip-rule="evenodd" d="M567.646 29.7783C567.735 29.6322 567.78 29.4481 567.78 29.2258V20.4421C567.78 20.2198 567.735 20.0388 567.646 19.8991C567.558 19.753 567.418 19.6355 567.227 19.5466C566.694 19.2798 566.259 18.9718 565.922 18.6225C565.579 18.2668 565.246 17.7682 564.922 17.1268C564.719 16.7647 564.423 16.5837 564.036 16.5837H547.964C547.577 16.5837 547.285 16.7647 547.088 17.1268C546.757 17.7682 546.424 18.2668 546.087 18.6225C545.744 18.9718 545.306 19.2798 544.773 19.5466C544.582 19.6355 544.442 19.753 544.353 19.8991C544.265 20.0388 544.22 20.2198 544.22 20.4421V29.2258C544.22 29.4481 544.265 29.6322 544.353 29.7783C544.442 29.9181 544.582 30.0324 544.773 30.1213C545.306 30.3817 545.744 30.6897 546.087 31.0454C546.424 31.3947 546.757 31.8933 547.088 32.5411C547.285 32.8968 547.577 33.0746 547.964 33.0746H564.036C564.423 33.0746 564.719 32.8968 564.922 32.5411C565.246 31.8933 565.579 31.3947 565.922 31.0454C566.259 30.6897 566.694 30.3817 567.227 30.1213C567.418 30.0324 567.558 29.9181 567.646 29.7783ZM560.04 25.1597V25.9739C560.04 26.1144 559.927 26.2282 559.786 26.2282C559.646 26.2282 559.532 26.1145 559.532 25.9739V25.1597H558.188V25.9739C558.188 26.1144 558.074 26.2282 557.934 26.2282C557.793 26.2282 557.679 26.1145 557.679 25.9739V25.1597H556.336V25.9739C556.336 26.1144 556.222 26.2282 556.082 26.2282C555.941 26.2282 555.827 26.1145 555.827 25.9739V25.1597H554.484V25.9739C554.484 26.1144 554.37 26.2282 554.23 26.2282C554.089 26.2282 553.976 26.1145 553.976 25.9739V25.1597H552.632V25.9739C552.632 26.1144 552.518 26.2282 552.378 26.2282C552.238 26.2282 552.124 26.1145 552.124 25.9739V25.1597H551.114L551.114 28.8075C552.593 29.6073 554.283 30.066 556.082 30.066C557.881 30.066 559.571 29.607 561.05 28.8075V25.1597H560.04ZM565.151 24.829C565.152 23.8374 563.324 22.3541 562.068 21.4763V28.1824C563.324 27.3045 565.15 25.9214 565.151 24.829ZM552.124 23.8372V24.6512L551.114 24.651V20.8507C552.593 20.0512 554.283 19.5923 556.082 19.5923C557.882 19.5923 559.572 20.051 561.05 20.8506V24.6512H560.04V23.8372C560.04 23.6967 559.926 23.5829 559.786 23.5829C559.645 23.5829 559.531 23.6967 559.531 23.8372V24.6512H558.188V23.8372C558.188 23.6967 558.074 23.5829 557.934 23.5829C557.793 23.5829 557.679 23.6967 557.679 23.8372V24.6512H556.336V23.8372C556.336 23.6967 556.222 23.5829 556.082 23.5829C555.941 23.5829 555.827 23.6967 555.827 23.8372V24.6512H554.484V23.8372C554.484 23.6967 554.37 23.5829 554.23 23.5829C554.089 23.5829 553.976 23.6967 553.976 23.8372V24.6512H552.632V23.8372C552.632 23.6967 552.518 23.5829 552.378 23.5829C552.238 23.5829 552.124 23.6967 552.124 23.8372ZM546.849 24.829C546.848 23.8374 548.676 22.3541 549.932 21.4763V28.1824C548.676 27.3045 546.85 25.9214 546.849 24.829Z" fill="white"/>
<path d="M600 51.8291H185V53.8291H600V51.8291Z" fill="white" mask="url(#path-6-inside-2_4719_145481)"/>
<path d="M235.96 119.525H217.144V126.101H222.952V157.829H230.056V126.101H235.96V119.525ZM256.737 131.429L254.625 150.821L251.841 131.429H245.264L242.816 150.821L240.368 131.429H233.84L238.592 157.829H246.273C246.273 157.829 247.953 148.469 248.481 145.349C248.529 145.061 248.577 142.613 248.577 142.613C248.577 142.613 248.721 145.061 248.768 145.349C249.297 148.373 250.929 157.829 250.929 157.829H258.513L263.12 131.429H256.737ZM280.574 136.469C279.71 133.445 277.406 131.093 272.654 131.093C267.902 131.093 265.55 133.685 264.782 136.325C264.11 138.581 263.774 141.749 263.774 144.581C263.774 147.509 264.158 151.061 264.59 152.645C265.502 155.957 268.238 158.165 272.558 158.165C277.118 158.165 279.566 156.005 280.526 152.645C281.102 150.725 281.39 147.461 281.39 144.581C281.39 141.749 281.15 138.437 280.574 136.469ZM274.862 151.061C274.718 152.069 273.806 152.933 272.606 152.933C271.454 152.933 270.59 152.309 270.398 151.109C270.158 149.861 270.11 146.741 270.11 144.677C270.11 142.709 270.158 139.493 270.398 138.389C270.686 137.189 271.358 136.517 272.606 136.517C273.902 136.517 274.574 137.045 274.862 138.293C275.054 139.301 275.15 142.661 275.15 144.677C275.15 146.693 275.198 148.757 274.862 151.061ZM311.186 119.525H304.658V138.245L298.658 119.525H291.986V157.829H298.514V138.725L304.562 157.829H311.186V119.525ZM331.582 119.525H314.638V157.829H321.646V141.845H330.814V135.413H321.646V126.101H331.582V119.525ZM351.004 151.349H340.876V119.525H333.868V157.829H351.004V151.349ZM238.168 204.901V192.181H227.656V198.229H231.544C231.544 198.229 231.592 204.469 231.544 205.285C231.448 207.253 230.296 208.261 228.52 208.261C226.936 208.261 226.12 207.445 225.784 205.717C225.208 202.693 225.208 197.701 225.208 194.773C225.208 191.653 225.256 187.045 225.736 183.733C225.976 182.101 227.032 181.381 228.376 181.381C229.864 181.381 230.776 182.197 230.92 183.733C231.112 185.701 231.112 188.341 231.112 188.629H237.976C237.976 185.221 237.832 183.301 237.544 181.573C236.968 178.117 234.424 175.189 228.232 175.189C222.184 175.189 219.64 178.597 218.824 181.669C217.96 184.981 217.864 190.789 217.864 194.773C217.864 198.901 218.008 204.277 218.824 207.733C219.832 211.957 222.856 214.165 226.888 214.165C229.816 214.165 231.784 213.349 232.744 212.101L233.08 213.829H238.264C238.264 213.781 238.168 209.317 238.168 204.901ZM257.223 209.125C257.223 207.157 257.271 203.941 257.271 201.877C257.319 199.429 257.367 195.445 257.271 193.141C257.127 189.445 254.823 187.093 249.303 187.093C243.447 187.093 241.047 189.733 241.047 194.677V196.645H246.999V195.157C246.999 193.333 247.575 192.421 249.207 192.421C250.407 192.421 251.031 193.093 251.079 194.245C251.127 195.061 251.127 196.693 251.127 197.413C250.071 197.413 248.967 197.557 247.767 197.749C243.351 198.565 240.375 200.965 240.135 204.805C240.039 206.197 240.087 208.453 240.135 209.029C240.327 212.869 243.255 214.021 245.895 214.021C248.247 214.021 250.023 213.397 251.223 211.909C251.223 212.581 251.367 213.829 251.463 213.829H257.559C257.319 213.493 257.223 211.045 257.223 209.125ZM251.127 203.749C251.031 205.093 251.127 205.765 250.887 207.157C250.647 208.501 249.495 209.029 248.487 209.029C247.527 209.029 246.759 208.693 246.615 207.781C246.519 207.013 246.519 206.101 246.519 205.381C246.519 204.277 246.567 203.509 247.383 202.789C248.103 202.165 248.919 202.021 249.591 201.877C250.167 201.781 250.647 201.781 251.127 201.781C251.127 202.165 251.175 203.221 251.127 203.749ZM286.194 213.829C286.242 213.829 286.146 213.061 286.146 192.613C286.146 189.301 284.706 187.045 281.058 187.045C278.61 187.045 276.738 188.101 275.922 190.117C275.25 188.245 273.858 187.045 271.458 187.045C268.674 187.045 266.946 188.293 266.322 189.925V187.429H260.13V213.829H266.466V195.109C266.466 193.813 267.234 192.613 268.53 192.613C269.634 192.613 270.162 193.333 270.162 194.485V213.829H276.354V194.917C276.354 193.717 277.074 192.613 278.322 192.613C279.666 192.613 280.002 193.525 280.002 194.581C280.002 213.061 280.002 213.829 280.05 213.829H286.194ZM299.719 205.237C299.719 205.909 299.623 206.725 299.431 207.541C299.191 208.597 298.183 209.029 297.223 209.029C296.263 209.029 295.159 208.453 295.015 207.157C294.871 205.957 294.823 204.037 294.823 202.837H305.719C305.959 198.325 305.623 193.717 304.711 191.461C303.607 188.773 301.063 187.093 297.367 187.093C292.807 187.093 290.791 189.157 289.831 191.509C289.111 193.237 288.583 196.789 288.583 200.773C288.583 204.853 288.919 207.877 290.023 210.421C291.175 213.109 293.911 214.165 297.463 214.165C301.015 214.165 303.175 212.725 304.327 210.661C305.335 208.885 305.575 206.005 305.575 205.237H299.719ZM294.727 198.133C294.727 196.309 294.775 194.581 295.111 193.765C295.447 192.853 296.215 192.373 297.271 192.373C298.375 192.373 299.095 192.901 299.335 193.813C299.527 194.437 299.671 195.733 299.671 198.133H294.727ZM333.563 175.525H314.747V182.101H320.555V213.829H327.659V182.101H333.563V175.525ZM341.192 179.557H334.424V186.037H341.192V179.557ZM341.096 211.909V187.429H334.52V212.005C334.52 213.061 334.52 213.829 334.76 213.829H341.24C341.192 213.781 341.096 212.917 341.096 211.909ZM360.123 191.893C359.259 189.157 357.243 187.093 352.299 187.093C348.555 187.093 345.867 188.773 344.907 191.605C343.947 194.485 343.659 196.789 343.659 200.629C343.659 204.613 344.235 208.597 345.003 210.325C346.059 212.725 348.603 214.165 352.395 214.165C356.283 214.165 358.779 212.437 359.643 210.229C360.555 207.925 360.603 206.821 360.603 203.221H354.651C354.651 204.901 354.651 205.429 354.459 206.821C354.315 207.925 353.643 208.789 352.395 208.789C351.147 208.789 350.523 208.213 350.331 206.869C350.043 204.901 349.947 202.213 349.947 200.677C349.947 198.757 350.043 196.357 350.331 194.485C350.523 193.189 351.195 192.517 352.347 192.517C353.691 192.517 354.171 193.381 354.315 194.437C354.459 195.445 354.603 196.645 354.603 198.181H360.603C360.603 194.965 360.459 193.045 360.123 191.893ZM375.667 197.029L380.659 187.429H374.419L369.283 197.557V175.477H362.947V213.829H369.283V205.909L371.155 202.885L374.467 213.829H380.899L375.667 197.029ZM392.412 205.237C392.412 205.909 392.316 206.725 392.124 207.541C391.884 208.597 390.876 209.029 389.916 209.029C388.956 209.029 387.852 208.453 387.708 207.157C387.564 205.957 387.516 204.037 387.516 202.837H398.412C398.652 198.325 398.316 193.717 397.404 191.461C396.3 188.773 393.756 187.093 390.06 187.093C385.5 187.093 383.484 189.157 382.524 191.509C381.804 193.237 381.276 196.789 381.276 200.773C381.276 204.853 381.612 207.877 382.716 210.421C383.868 213.109 386.604 214.165 390.156 214.165C393.708 214.165 395.868 212.725 397.02 210.661C398.028 208.885 398.268 206.005 398.268 205.237H392.412ZM387.42 198.133C387.42 196.309 387.468 194.581 387.804 193.765C388.14 192.853 388.908 192.373 389.964 192.373C391.068 192.373 391.788 192.901 392.028 193.813C392.22 194.437 392.364 195.733 392.364 198.133H387.42ZM412.127 187.429H408.431V182.341L402.191 182.485C402.191 182.485 401.999 187.285 401.951 187.429H399.599V193.045H401.855V208.069C401.855 212.197 404.159 214.021 408.095 214.021C409.775 214.021 410.831 213.925 411.839 213.685V208.549C411.359 208.645 410.735 208.693 410.207 208.693C409.199 208.693 408.383 208.405 408.383 206.917V193.045H412.127V187.429ZM425.443 198.901C424.243 198.277 423.043 197.749 421.843 197.173C420.307 196.453 419.779 195.637 419.779 194.341C419.779 193.237 420.259 192.325 421.747 192.325C423.091 192.325 423.523 193.093 423.619 193.909C423.667 194.101 423.715 195.589 423.715 195.877H429.523C429.523 195.349 429.379 192.565 429.235 191.797C428.611 188.869 426.163 187.045 421.507 187.045C416.419 187.045 413.827 190.021 413.827 194.197C413.827 198.133 414.979 200.581 418.435 202.213C419.395 202.645 420.691 203.269 421.507 203.605C423.331 204.325 423.955 205.237 423.955 206.869C423.955 208.357 423.043 209.077 421.843 209.077C420.691 209.077 419.779 208.597 419.683 207.493C419.635 206.677 419.587 205.861 419.587 205.525H413.635C413.635 206.341 413.683 208.021 413.779 208.885C414.211 212.437 416.611 214.213 421.987 214.213C426.739 214.213 430.051 211.669 430.051 206.677C430.051 202.645 428.803 200.581 425.443 198.901Z" fill="white"/>
</g>
<path d="M185 0.829102H600H185ZM600 284.829H185H600ZM184 284.829V0.829102H186V284.829H184ZM600 0.829102V284.829V0.829102Z" fill="white" mask="url(#path-4-inside-1_4719_145481)"/>
<rect x="0.5" y="1.3291" width="599" height="283" rx="11.5" stroke="white"/>
<path d="M743.668 135.221H735.348V69.5571H715.764L689.396 134.197V150.965H718.068V171.829H735.348V150.965H743.668V135.221ZM704.884 135.221L718.068 102.965V135.221H704.884Z" fill="white"/>
<path d="M704.028 201.573C704.028 201.573 701.598 212.139 701.598 212.571C701.598 212.139 699.366 201.573 699.366 201.573H696.738C696.738 201.573 694.524 212.139 694.524 212.571C694.524 212.139 692.094 201.573 692.094 201.573H689.592L693.012 215.829H695.694C695.694 215.829 698.016 205.281 698.016 204.813C698.034 205.281 700.266 215.829 700.266 215.829H702.966L706.35 201.573H704.028ZM712.842 201.573H710.412V215.829H712.842V201.573ZM727.883 201.573H725.633V211.293L720.773 201.573H718.091V215.829H720.341V205.857L725.345 215.829H727.883V201.573ZM739.346 207.891C738.95 207.747 738.104 207.423 737.6 207.261C735.854 206.685 734.99 206.127 734.99 205.011C734.99 204.057 735.638 203.481 737.456 203.481C739.004 203.481 739.724 203.913 740.03 204.795C740.138 205.119 740.192 205.389 740.192 205.695H742.604C742.604 205.155 742.514 204.723 742.388 204.291C741.884 202.527 740.444 201.411 737.51 201.411C734.144 201.411 732.56 202.887 732.56 205.083C732.56 207.189 733.946 208.449 736.088 209.151C736.682 209.349 737.528 209.673 737.888 209.799C739.796 210.465 740.372 211.041 740.372 212.247C740.372 213.327 739.598 213.975 737.78 213.975C736.232 213.975 735.332 213.579 735.062 212.733C734.954 212.391 734.9 211.905 734.9 211.653H732.506C732.506 212.067 732.542 212.733 732.668 213.219C733.1 214.893 734.54 216.009 737.834 216.009C741.164 216.009 742.802 214.425 742.802 212.049C742.802 209.835 741.578 208.665 739.346 207.891Z" fill="white"/>
<g clip-path="url(#clip1_4719_145481)">
<path d="M847.966 30.7151H841.756V29.1671L848.236 20.8691H849.658V29.3651H851.746V30.7151H849.658V33.8291H847.966V30.7151ZM843.16 29.4371C843.4 29.4251 843.628 29.4131 843.844 29.4011C844.036 29.3891 844.24 29.3831 844.456 29.3831C844.672 29.3711 844.876 29.3651 845.068 29.3651H847.966V25.0091C847.966 24.8411 847.966 24.6491 847.966 24.4331C847.978 24.2171 847.99 24.0071 848.002 23.8031C848.014 23.5871 848.032 23.3591 848.056 23.1191H848.02C847.912 23.3111 847.792 23.5091 847.66 23.7131C847.552 23.8811 847.432 24.0611 847.3 24.2531C847.168 24.4451 847.036 24.6251 846.904 24.7931L844.528 27.8171C844.396 27.9851 844.246 28.1591 844.078 28.3391C843.922 28.5071 843.778 28.6751 843.646 28.8431C843.478 29.0351 843.316 29.2211 843.16 29.4011V29.4371ZM862.234 37.2131C860.962 37.2131 859.972 36.9731 859.264 36.4931C858.568 36.0251 858.172 35.3591 858.076 34.4951H859.642C859.714 34.9991 859.978 35.3591 860.434 35.5751C860.89 35.8031 861.478 35.9171 862.198 35.9171C863.062 35.9171 863.722 35.7191 864.178 35.3231C864.646 34.9391 864.88 34.3331 864.88 33.5051V33.2351C864.88 32.9591 864.88 32.7011 864.88 32.4611C864.892 32.2091 864.904 32.0051 864.916 31.8491H864.88C864.544 32.3291 864.148 32.7071 863.692 32.9831C863.248 33.2591 862.684 33.3971 862 33.3971C861.388 33.3971 860.818 33.2831 860.29 33.0551C859.774 32.8271 859.33 32.5031 858.958 32.0831C858.586 31.6631 858.292 31.1651 858.076 30.5891C857.872 30.0131 857.77 29.3711 857.77 28.6631C857.77 27.9191 857.878 27.2531 858.094 26.6651C858.31 26.0771 858.604 25.5851 858.976 25.1891C859.36 24.7811 859.804 24.4691 860.308 24.2531C860.812 24.0371 861.346 23.9291 861.91 23.9291C862.606 23.9291 863.188 24.0611 863.656 24.3251C864.136 24.5771 864.532 24.9491 864.844 25.4411H864.88V24.1631H866.536V33.4331C866.536 34.0811 866.434 34.6391 866.23 35.1071C866.026 35.5871 865.738 35.9831 865.366 36.2951C864.982 36.6071 864.526 36.8351 863.998 36.9791C863.47 37.1351 862.882 37.2131 862.234 37.2131ZM862.162 32.0291C862.69 32.0291 863.134 31.9451 863.494 31.7771C863.854 31.5971 864.142 31.3571 864.358 31.0571C864.586 30.7451 864.748 30.3791 864.844 29.9591C864.94 29.5391 864.988 29.0831 864.988 28.5911C864.988 27.5711 864.754 26.7731 864.286 26.1971C863.83 25.6091 863.116 25.3151 862.144 25.3151C861.256 25.3151 860.59 25.6211 860.146 26.2331C859.702 26.8451 859.48 27.6611 859.48 28.6811C859.48 29.7131 859.708 30.5291 860.164 31.1291C860.62 31.7291 861.286 32.0291 862.162 32.0291ZM871.733 34.0271C871.277 34.0271 870.845 33.9671 870.437 33.8471C870.041 33.7391 869.693 33.5711 869.393 33.3431C869.105 33.1151 868.877 32.8331 868.709 32.4971C868.541 32.1491 868.457 31.7411 868.457 31.2731C868.457 30.7091 868.553 30.2471 868.745 29.8871C868.949 29.5271 869.231 29.2391 869.591 29.0231C869.963 28.8071 870.401 28.6391 870.905 28.5191C871.421 28.3991 871.991 28.3031 872.615 28.2311C872.975 28.1951 873.299 28.1471 873.587 28.0871C873.875 28.0271 874.121 27.9491 874.325 27.8531C874.529 27.7451 874.685 27.6131 874.793 27.4571C874.901 27.3011 874.955 27.0971 874.955 26.8451C874.955 26.3171 874.775 25.9031 874.415 25.6031C874.067 25.3031 873.557 25.1531 872.885 25.1531C872.117 25.1531 871.541 25.3211 871.157 25.6571C870.785 25.9931 870.587 26.4491 870.563 27.0251H868.943C868.955 26.6171 869.045 26.2271 869.213 25.8551C869.381 25.4831 869.627 25.1531 869.951 24.8651C870.275 24.5771 870.677 24.3491 871.157 24.1811C871.649 24.0131 872.219 23.9291 872.867 23.9291C873.323 23.9291 873.749 23.9711 874.145 24.0551C874.541 24.1391 874.895 24.2711 875.207 24.4511C875.615 24.6911 875.933 25.0271 876.161 25.4591C876.389 25.8911 876.503 26.4311 876.503 27.0791V31.5971C876.503 31.9811 876.569 32.2691 876.701 32.4611C876.833 32.6531 877.109 32.7011 877.529 32.6051H877.601V33.7751C877.481 33.8111 877.349 33.8411 877.205 33.8651C877.073 33.9011 876.905 33.9191 876.701 33.9191C876.185 33.9191 875.795 33.7991 875.531 33.5591C875.267 33.3071 875.087 32.9231 874.991 32.4071H874.973C874.817 32.6231 874.637 32.8271 874.433 33.0191C874.229 33.2111 873.995 33.3851 873.731 33.5411C873.467 33.6851 873.167 33.7991 872.831 33.8831C872.507 33.9791 872.141 34.0271 871.733 34.0271ZM872.147 32.8031C872.627 32.8031 873.041 32.7251 873.389 32.5691C873.749 32.4011 874.043 32.1971 874.271 31.9571C874.511 31.7051 874.685 31.4291 874.793 31.1291C874.913 30.8291 874.973 30.5411 874.973 30.2651V28.6811C874.733 28.8371 874.415 28.9751 874.019 29.0951C873.635 29.2031 873.245 29.2931 872.849 29.3651C872.453 29.4371 872.093 29.5151 871.769 29.5991C871.445 29.6711 871.169 29.7791 870.941 29.9231C870.713 30.0551 870.533 30.2291 870.401 30.4451C870.281 30.6491 870.221 30.9191 870.221 31.2551C870.221 31.5671 870.275 31.8251 870.383 32.0291C870.491 32.2211 870.635 32.3771 870.815 32.4971C870.995 32.6171 871.199 32.7011 871.427 32.7491C871.667 32.7851 871.907 32.8031 872.147 32.8031ZM878.961 24.1631H880.617V25.6031H880.671C880.971 25.0751 881.367 24.6671 881.859 24.3791C882.351 24.0791 882.909 23.9291 883.533 23.9291C884.121 23.9291 884.631 24.0791 885.063 24.3791C885.507 24.6791 885.831 25.1291 886.035 25.7291H886.071C886.419 25.1171 886.857 24.6671 887.385 24.3791C887.913 24.0791 888.471 23.9291 889.059 23.9291C889.947 23.9291 890.667 24.1991 891.219 24.7391C891.771 25.2791 892.047 26.0591 892.047 27.0791V33.8291H890.373V27.2231C890.373 26.6231 890.205 26.1611 889.869 25.8371C889.533 25.5011 889.119 25.3331 888.627 25.3331C888.315 25.3331 888.021 25.3991 887.745 25.5311C887.469 25.6511 887.229 25.8251 887.025 26.0531C886.821 26.2811 886.653 26.5511 886.521 26.8631C886.401 27.1631 886.341 27.4991 886.341 27.8711V33.8291H884.685V27.2231C884.685 26.6231 884.535 26.1611 884.235 25.8371C883.935 25.5011 883.533 25.3331 883.029 25.3331C882.741 25.3331 882.453 25.3991 882.165 25.5311C881.877 25.6511 881.619 25.8251 881.391 26.0531C881.175 26.2811 880.995 26.5511 880.851 26.8631C880.707 27.1631 880.635 27.4991 880.635 27.8711V33.8291H878.961V24.1631ZM898.483 34.0991C897.739 34.0991 897.073 33.9671 896.485 33.7031C895.909 33.4391 895.417 33.0791 895.009 32.6231C894.601 32.1551 894.289 31.6151 894.073 31.0031C893.869 30.3791 893.767 29.7131 893.767 29.0051C893.767 28.3091 893.875 27.6551 894.091 27.0431C894.319 26.4191 894.631 25.8791 895.027 25.4231C895.435 24.9551 895.921 24.5891 896.485 24.3251C897.061 24.0611 897.697 23.9291 898.393 23.9291C899.113 23.9291 899.749 24.0611 900.301 24.3251C900.853 24.5891 901.321 24.9551 901.705 25.4231C902.101 25.9031 902.395 26.4791 902.587 27.1511C902.791 27.8231 902.893 28.5731 902.893 29.4011H895.477C895.513 29.8691 895.603 30.3071 895.747 30.7151C895.891 31.1231 896.089 31.4771 896.341 31.7771C896.593 32.0771 896.899 32.3111 897.259 32.4791C897.619 32.6471 898.033 32.7311 898.501 32.7311C899.173 32.7311 899.725 32.5871 900.157 32.2991C900.601 31.9991 900.901 31.5911 901.057 31.0751H902.695C902.479 31.9751 901.999 32.7071 901.255 33.2711C900.523 33.8231 899.599 34.0991 898.483 34.0991ZM898.393 25.2251C897.961 25.2251 897.577 25.3031 897.241 25.4591C896.905 25.6031 896.617 25.8071 896.377 26.0711C896.137 26.3351 895.945 26.6471 895.801 27.0071C895.657 27.3671 895.561 27.7631 895.513 28.1951H901.111C901.063 27.2591 900.805 26.5331 900.337 26.0171C899.881 25.4891 899.233 25.2251 898.393 25.2251ZM908.487 24.1631H910.269L911.781 29.5271C911.853 29.8031 911.925 30.1031 911.997 30.4271C912.081 30.7511 912.153 31.0571 912.213 31.3451C912.285 31.6811 912.351 32.0171 912.411 32.3531H912.447C912.507 32.0411 912.573 31.7231 912.645 31.3991C912.705 31.1231 912.771 30.8231 912.843 30.4991C912.927 30.1751 913.011 29.8631 913.095 29.5631L914.553 24.1631H916.137L917.577 29.5631C917.637 29.8271 917.703 30.1211 917.775 30.4451C917.859 30.7571 917.931 31.0571 917.991 31.3451C918.063 31.6811 918.129 32.0231 918.189 32.3711H918.225C918.285 32.0471 918.345 31.7231 918.405 31.3991C918.465 31.1231 918.531 30.8171 918.603 30.4811C918.675 30.1451 918.759 29.8271 918.855 29.5271L920.457 24.1631H922.185L919.035 33.8291H917.361L915.939 28.5011C915.879 28.2611 915.813 27.9911 915.741 27.6911C915.669 27.3791 915.603 27.0851 915.543 26.8091C915.471 26.4851 915.399 26.1491 915.327 25.8011H915.291C915.219 26.1491 915.147 26.4851 915.075 26.8091C915.015 27.0851 914.949 27.3791 914.877 27.6911C914.817 28.0031 914.757 28.2731 914.697 28.5011L913.239 33.8291H911.547L908.487 24.1631ZM923.485 20.4371H925.231V22.3811H923.485V20.4371ZM923.521 24.1631H925.195V33.8291H923.521V24.1631ZM929.15 25.5311H929.204C929.552 25.0391 929.972 24.6491 930.464 24.3611C930.956 24.0731 931.556 23.9291 932.264 23.9291C933.284 23.9291 934.082 24.1991 934.658 24.7391C935.234 25.2791 935.522 26.0591 935.522 27.0791V33.8291H933.866V27.2771C933.866 26.6531 933.674 26.1731 933.29 25.8371C932.918 25.5011 932.402 25.3331 931.742 25.3331C931.37 25.3331 931.022 25.3991 930.698 25.5311C930.386 25.6511 930.116 25.8251 929.888 26.0531C929.66 26.2811 929.48 26.5571 929.348 26.8811C929.228 27.2051 929.168 27.5591 929.168 27.9431V33.8291H927.494V24.1631H929.15V25.5311ZM946.266 34.1171C944.922 34.1171 943.884 33.8291 943.152 33.2531C942.42 32.6651 942.018 31.8791 941.946 30.8951H943.638C943.686 31.2431 943.788 31.5371 943.944 31.7771C944.1 32.0171 944.292 32.2091 944.52 32.3531C944.76 32.4971 945.03 32.6051 945.33 32.6771C945.63 32.7371 945.954 32.7671 946.302 32.7671C947.07 32.7671 947.622 32.6231 947.958 32.3351C948.306 32.0351 948.48 31.6691 948.48 31.2371C948.48 30.7091 948.27 30.3431 947.85 30.1391C947.442 29.9231 946.812 29.7311 945.96 29.5631C945.492 29.4671 945.036 29.3591 944.592 29.2391C944.16 29.1191 943.776 28.9571 943.44 28.7531C943.116 28.5491 942.852 28.2791 942.648 27.9431C942.456 27.6071 942.36 27.1751 942.36 26.6471C942.36 25.8191 942.666 25.1651 943.278 24.6851C943.902 24.1931 944.778 23.9471 945.906 23.9471C947.118 23.9471 948.036 24.2051 948.66 24.7211C949.284 25.2371 949.65 25.9151 949.758 26.7551H948.084C948.012 26.2511 947.796 25.8671 947.436 25.6031C947.088 25.3391 946.566 25.2071 945.87 25.2071C945.21 25.2071 944.73 25.3391 944.43 25.6031C944.142 25.8671 943.998 26.1851 943.998 26.5571C943.998 26.8091 944.052 27.0191 944.16 27.1871C944.28 27.3431 944.448 27.4751 944.664 27.5831C944.892 27.6911 945.162 27.7811 945.474 27.8531C945.798 27.9251 946.164 28.0031 946.572 28.0871C947.052 28.1831 947.508 28.2911 947.94 28.4111C948.372 28.5311 948.75 28.6991 949.074 28.9151C949.41 29.1311 949.674 29.4191 949.866 29.7791C950.058 30.1271 950.154 30.5831 950.154 31.1471C950.154 31.6391 950.058 32.0711 949.866 32.4431C949.674 32.8151 949.404 33.1271 949.056 33.3791C948.72 33.6191 948.312 33.7991 947.832 33.9191C947.352 34.0511 946.83 34.1171 946.266 34.1171ZM951.193 24.1631H952.705V21.1211H954.361V24.1631H956.359V25.4591H954.361V31.5611C954.361 31.9091 954.445 32.1491 954.613 32.2811C954.793 32.4011 955.039 32.4611 955.351 32.4611C955.495 32.4611 955.645 32.4491 955.801 32.4251C955.969 32.3891 956.101 32.3591 956.197 32.3351H956.251V33.7391C955.795 33.8471 955.345 33.9011 954.901 33.9011C954.253 33.8891 953.725 33.7391 953.317 33.4511C952.909 33.1511 952.705 32.6471 952.705 31.9391V25.4591H951.193V24.1631ZM959.753 25.9091H959.807C960.107 25.3451 960.497 24.8951 960.977 24.5591C961.457 24.2111 962.021 24.0371 962.669 24.0371C962.801 24.0371 962.909 24.0491 962.993 24.0731C963.089 24.0851 963.185 24.1091 963.281 24.1451V25.7291H963.227C963.107 25.6931 962.999 25.6691 962.903 25.6571C962.807 25.6451 962.687 25.6391 962.543 25.6391C962.171 25.6391 961.817 25.7111 961.481 25.8551C961.145 25.9871 960.851 26.1791 960.599 26.4311C960.347 26.6831 960.143 26.9891 959.987 27.3491C959.843 27.7091 959.771 28.1171 959.771 28.5731V33.8291H958.097V24.1631H959.753V25.9091ZM968.76 34.0991C968.016 34.0991 967.35 33.9671 966.762 33.7031C966.186 33.4391 965.694 33.0791 965.286 32.6231C964.878 32.1551 964.566 31.6151 964.35 31.0031C964.146 30.3791 964.044 29.7131 964.044 29.0051C964.044 28.3091 964.152 27.6551 964.368 27.0431C964.596 26.4191 964.908 25.8791 965.304 25.4231C965.712 24.9551 966.198 24.5891 966.762 24.3251C967.338 24.0611 967.974 23.9291 968.67 23.9291C969.39 23.9291 970.026 24.0611 970.578 24.3251C971.13 24.5891 971.598 24.9551 971.982 25.4231C972.378 25.9031 972.672 26.4791 972.864 27.1511C973.068 27.8231 973.17 28.5731 973.17 29.4011H965.754C965.79 29.8691 965.88 30.3071 966.024 30.7151C966.168 31.1231 966.366 31.4771 966.618 31.7771C966.87 32.0771 967.176 32.3111 967.536 32.4791C967.896 32.6471 968.31 32.7311 968.778 32.7311C969.45 32.7311 970.002 32.5871 970.434 32.2991C970.878 31.9991 971.178 31.5911 971.334 31.0751H972.972C972.756 31.9751 972.276 32.7071 971.532 33.2711C970.8 33.8231 969.876 34.0991 968.76 34.0991ZM968.67 25.2251C968.238 25.2251 967.854 25.3031 967.518 25.4591C967.182 25.6031 966.894 25.8071 966.654 26.0711C966.414 26.3351 966.222 26.6471 966.078 27.0071C965.934 27.3671 965.838 27.7631 965.79 28.1951H971.388C971.34 27.2591 971.082 26.5331 970.614 26.0171C970.158 25.4891 969.51 25.2251 968.67 25.2251ZM977.835 34.0271C977.379 34.0271 976.947 33.9671 976.539 33.8471C976.143 33.7391 975.795 33.5711 975.495 33.3431C975.207 33.1151 974.979 32.8331 974.811 32.4971C974.643 32.1491 974.559 31.7411 974.559 31.2731C974.559 30.7091 974.655 30.2471 974.847 29.8871C975.051 29.5271 975.333 29.2391 975.693 29.0231C976.065 28.8071 976.503 28.6391 977.007 28.5191C977.523 28.3991 978.093 28.3031 978.717 28.2311C979.077 28.1951 979.401 28.1471 979.689 28.0871C979.977 28.0271 980.223 27.9491 980.427 27.8531C980.631 27.7451 980.787 27.6131 980.895 27.4571C981.003 27.3011 981.057 27.0971 981.057 26.8451C981.057 26.3171 980.877 25.9031 980.517 25.6031C980.169 25.3031 979.659 25.1531 978.987 25.1531C978.219 25.1531 977.643 25.3211 977.259 25.6571C976.887 25.9931 976.689 26.4491 976.665 27.0251H975.045C975.057 26.6171 975.147 26.2271 975.315 25.8551C975.483 25.4831 975.729 25.1531 976.053 24.8651C976.377 24.5771 976.779 24.3491 977.259 24.1811C977.751 24.0131 978.321 23.9291 978.969 23.9291C979.425 23.9291 979.851 23.9711 980.247 24.0551C980.643 24.1391 980.997 24.2711 981.309 24.4511C981.717 24.6911 982.035 25.0271 982.263 25.4591C982.491 25.8911 982.605 26.4311 982.605 27.0791V31.5971C982.605 31.9811 982.671 32.2691 982.803 32.4611C982.935 32.6531 983.211 32.7011 983.631 32.6051H983.703V33.7751C983.583 33.8111 983.451 33.8411 983.307 33.8651C983.175 33.9011 983.007 33.9191 982.803 33.9191C982.287 33.9191 981.897 33.7991 981.633 33.5591C981.369 33.3071 981.189 32.9231 981.093 32.4071H981.075C980.919 32.6231 980.739 32.8271 980.535 33.0191C980.331 33.2111 980.097 33.3851 979.833 33.5411C979.569 33.6851 979.269 33.7991 978.933 33.8831C978.609 33.9791 978.243 34.0271 977.835 34.0271ZM978.249 32.8031C978.729 32.8031 979.143 32.7251 979.491 32.5691C979.851 32.4011 980.145 32.1971 980.373 31.9571C980.613 31.7051 980.787 31.4291 980.895 31.1291C981.015 30.8291 981.075 30.5411 981.075 30.2651V28.6811C980.835 28.8371 980.517 28.9751 980.121 29.0951C979.737 29.2031 979.347 29.2931 978.951 29.3651C978.555 29.4371 978.195 29.5151 977.871 29.5991C977.547 29.6711 977.271 29.7791 977.043 29.9231C976.815 30.0551 976.635 30.2291 976.503 30.4451C976.383 30.6491 976.323 30.9191 976.323 31.2551C976.323 31.5671 976.377 31.8251 976.485 32.0291C976.593 32.2211 976.737 32.3771 976.917 32.4971C977.097 32.6171 977.301 32.7011 977.529 32.7491C977.769 32.7851 978.009 32.8031 978.249 32.8031ZM988.104 28.7351L986.736 30.0311V33.8291H985.062V20.4371H986.736V26.7911C986.736 26.9591 986.73 27.1931 986.718 27.4931C986.706 27.7811 986.688 28.0451 986.664 28.2851L990.858 24.1631H992.946L989.256 27.6371L993.378 33.8291H991.416L988.104 28.7351ZM999.599 24.1631H1001.26V25.6751H1001.31C1001.67 25.1231 1002.1 24.6971 1002.59 24.3971C1003.09 24.0851 1003.69 23.9291 1004.39 23.9291C1005 23.9291 1005.56 24.0491 1006.06 24.2891C1006.58 24.5171 1007.02 24.8531 1007.38 25.2971C1007.75 25.7291 1008.04 26.2631 1008.24 26.8991C1008.44 27.5231 1008.55 28.2311 1008.55 29.0231C1008.55 29.8031 1008.45 30.5051 1008.26 31.1291C1008.07 31.7531 1007.78 32.2871 1007.41 32.7311C1007.05 33.1751 1006.61 33.5171 1006.08 33.7571C1005.56 33.9971 1004.98 34.1171 1004.33 34.1171C1003.67 34.1171 1003.09 33.9851 1002.57 33.7211C1002.05 33.4571 1001.63 33.0671 1001.29 32.5511H1001.24C1001.25 32.7191 1001.26 32.9411 1001.26 33.2171C1001.27 33.4811 1001.27 33.7991 1001.27 34.1711V37.1051H999.599V24.1631ZM1004.15 32.7311C1004.6 32.7311 1004.99 32.6411 1005.32 32.4611C1005.66 32.2691 1005.94 32.0111 1006.15 31.6871C1006.38 31.3631 1006.55 30.9791 1006.66 30.5351C1006.78 30.0791 1006.84 29.5871 1006.84 29.0591C1006.84 28.5311 1006.78 28.0391 1006.67 27.5831C1006.57 27.1271 1006.4 26.7371 1006.17 26.4131C1005.95 26.0771 1005.68 25.8191 1005.34 25.6391C1005.01 25.4471 1004.62 25.3511 1004.17 25.3511C1003.66 25.3511 1003.21 25.4471 1002.84 25.6391C1002.47 25.8311 1002.16 26.0951 1001.9 26.4311C1001.66 26.7671 1001.48 27.1631 1001.36 27.6191C1001.24 28.0631 1001.18 28.5431 1001.18 29.0591C1001.18 29.5631 1001.24 30.0431 1001.35 30.4991C1001.45 30.9431 1001.63 31.3331 1001.87 31.6691C1002.11 31.9931 1002.41 32.2511 1002.79 32.4431C1003.16 32.6351 1003.61 32.7311 1004.15 32.7311ZM1011.98 25.9091H1012.03C1012.33 25.3451 1012.72 24.8951 1013.2 24.5591C1013.68 24.2111 1014.25 24.0371 1014.89 24.0371C1015.03 24.0371 1015.13 24.0491 1015.22 24.0731C1015.31 24.0851 1015.41 24.1091 1015.51 24.1451V25.7291H1015.45C1015.33 25.6931 1015.22 25.6691 1015.13 25.6571C1015.03 25.6451 1014.91 25.6391 1014.77 25.6391C1014.4 25.6391 1014.04 25.7111 1013.71 25.8551C1013.37 25.9871 1013.08 26.1791 1012.82 26.4311C1012.57 26.6831 1012.37 26.9891 1012.21 27.3491C1012.07 27.7091 1012 28.1171 1012 28.5731V33.8291H1010.32V24.1631H1011.98V25.9091ZM1017.11 20.4371H1018.85V22.3811H1017.11V20.4371ZM1017.14 24.1631H1018.82V33.8291H1017.14V24.1631ZM1020.75 32.5331L1025.07 26.8991C1025.17 26.7671 1025.28 26.6291 1025.42 26.4851C1025.55 26.3291 1025.67 26.1851 1025.79 26.0531C1025.93 25.8971 1026.07 25.7411 1026.23 25.5851V25.5311C1026 25.5431 1025.78 25.5551 1025.56 25.5671C1025.37 25.5791 1025.17 25.5851 1024.97 25.5851C1024.76 25.5851 1024.58 25.5851 1024.41 25.5851H1021.08V24.1631H1028.33V25.2071L1023.94 30.9491C1023.83 31.0811 1023.71 31.2311 1023.56 31.3991C1023.43 31.5551 1023.3 31.7051 1023.17 31.8491C1023.02 32.0171 1022.87 32.1851 1022.72 32.3531V32.4071C1022.96 32.4071 1023.19 32.4011 1023.42 32.3891C1023.62 32.3771 1023.83 32.3711 1024.05 32.3711C1024.26 32.3591 1024.46 32.3531 1024.64 32.3531H1028.55V33.8291H1020.75V32.5331ZM1034.17 34.0991C1033.42 34.0991 1032.76 33.9671 1032.17 33.7031C1031.59 33.4391 1031.1 33.0791 1030.69 32.6231C1030.29 32.1551 1029.97 31.6151 1029.76 31.0031C1029.55 30.3791 1029.45 29.7131 1029.45 29.0051C1029.45 28.3091 1029.56 27.6551 1029.78 27.0431C1030 26.4191 1030.32 25.8791 1030.71 25.4231C1031.12 24.9551 1031.61 24.5891 1032.17 24.3251C1032.75 24.0611 1033.38 23.9291 1034.08 23.9291C1034.8 23.9291 1035.43 24.0611 1035.99 24.3251C1036.54 24.5891 1037.01 24.9551 1037.39 25.4231C1037.79 25.9031 1038.08 26.4791 1038.27 27.1511C1038.48 27.8231 1038.58 28.5731 1038.58 29.4011H1031.16C1031.2 29.8691 1031.29 30.3071 1031.43 30.7151C1031.58 31.1231 1031.77 31.4771 1032.03 31.7771C1032.28 32.0771 1032.58 32.3111 1032.94 32.4791C1033.3 32.6471 1033.72 32.7311 1034.19 32.7311C1034.86 32.7311 1035.41 32.5871 1035.84 32.2991C1036.29 31.9991 1036.59 31.5911 1036.74 31.0751H1038.38C1038.16 31.9751 1037.68 32.7071 1036.94 33.2711C1036.21 33.8231 1035.28 34.0991 1034.17 34.0991ZM1034.08 25.2251C1033.65 25.2251 1033.26 25.3031 1032.93 25.4591C1032.59 25.6031 1032.3 25.8071 1032.06 26.0711C1031.82 26.3351 1031.63 26.6471 1031.49 27.0071C1031.34 27.3671 1031.25 27.7631 1031.2 28.1951H1036.8C1036.75 27.2591 1036.49 26.5331 1036.02 26.0171C1035.57 25.4891 1034.92 25.2251 1034.08 25.2251Z" fill="white"/>
<path d="M1175.53 34.8041C1175.09 34.8041 1174.72 34.6507 1174.41 34.3441C1174.11 34.0374 1173.95 33.6651 1173.95 33.227V25.5519C1173.04 25.3066 1172.25 24.8422 1171.56 24.1588C1170.88 23.4754 1170.54 22.6431 1170.54 21.6618C1170.54 20.7331 1170.8 19.9095 1171.34 19.1911C1171.87 18.4726 1172.56 17.9732 1173.4 17.6929C1173.81 16.8517 1174.41 16.1684 1175.2 15.6427C1176 15.117 1176.9 14.8541 1177.9 14.8541C1178.51 14.8541 1179.08 14.9593 1179.62 15.1695C1180.15 15.3798 1180.64 15.6602 1181.08 16.0106C1181.25 15.9756 1181.42 15.9449 1181.58 15.9186C1181.73 15.8924 1181.91 15.8792 1182.1 15.8792C1183.26 15.8792 1184.25 16.291 1185.07 17.1146C1185.9 17.9382 1186.31 18.9282 1186.31 20.0847C1186.31 20.4703 1186.23 20.8558 1186.07 21.2413C1185.91 21.6268 1185.71 21.9422 1185.47 22.1875H1187.89C1188.32 22.1875 1188.7 22.3408 1189 22.6475C1189.31 22.9541 1189.46 23.3265 1189.46 23.7646V31.1242C1189.46 31.5623 1189.31 31.9347 1189 32.2413C1188.7 32.548 1188.32 32.7013 1187.89 32.7013H1184.99V33.227C1184.99 33.6651 1184.84 34.0374 1184.53 34.3441C1184.23 34.6507 1183.86 34.8041 1183.42 34.8041H1175.53ZM1172.11 21.6618C1172.11 22.3277 1172.39 22.8884 1172.93 23.344C1173.47 23.7996 1174.08 24.0274 1174.74 24.0274C1175.3 24.0274 1175.81 23.8741 1176.27 23.5674C1176.72 23.2608 1177.19 22.8183 1177.66 22.2401C1178.06 21.7494 1178.55 21.3114 1179.11 20.9258C1179.67 20.5403 1180.32 20.3476 1181.05 20.3476H1184.73C1184.73 19.5591 1184.5 18.88 1184.03 18.3105C1183.57 17.741 1182.93 17.4563 1182.1 17.4563C1181.79 17.4563 1181.48 17.5045 1181.17 17.6009L1180.71 17.7454L1180.21 17.3249C1179.89 17.0445 1179.54 16.8255 1179.13 16.6678C1178.73 16.5101 1178.32 16.4312 1177.9 16.4312C1177.28 16.4312 1176.7 16.5889 1176.14 16.9043C1175.58 17.2197 1175.16 17.6578 1174.9 18.2185L1174.53 19.0071L1173.69 19.2962C1173.24 19.4539 1172.86 19.7649 1172.56 20.2293C1172.26 20.6937 1172.11 21.1712 1172.11 21.6618ZM1184.99 31.1242H1187.89V23.7646H1184.99V31.1242Z" fill="white"/>
<path d="M1224 51.8291H809V53.8291H1224V51.8291Z" fill="white" mask="url(#path-17-inside-4_4719_145481)"/>
<path d="M841.624 100.453C841.624 105.973 842.92 108.037 847.72 112.261C853.24 116.149 853.672 117.397 853.672 121.045C853.672 123.157 852.856 124.213 851.08 124.213C849.304 124.213 848.296 123.349 848.152 121.909C848.056 120.901 848.056 119.461 848.056 118.885H841.528C841.528 119.701 841.528 122.149 841.576 122.725C841.816 126.805 844.456 129.205 849.256 129.637V132.181H852.856V129.589C857.752 128.965 860.392 125.749 860.392 120.565C860.392 114.517 858.952 112.261 854.056 108.421C849.304 104.725 848.2 103.237 848.2 100.501C848.2 98.6291 849.064 97.5251 850.936 97.5251C852.808 97.5251 853.432 98.6771 853.576 100.069C853.672 100.885 853.72 102.181 853.72 103.189H860.2C860.2 102.277 860.2 100.549 860.056 99.4451C859.624 95.5091 857.752 92.4371 852.856 91.8131V90.7571H849.256V91.7651C844.12 92.3411 841.624 95.7971 841.624 100.453ZM878.728 91.5251H861.64V97.8611H871.672L863.56 129.829H870.856L878.728 97.1411V91.5251ZM898.087 109.861C897.799 106.117 895.255 103.813 891.559 103.813C888.823 103.813 887.383 104.533 886.615 106.069V97.8611H897.127V91.5251H880.423V113.029H886.903C886.903 111.013 887.575 110.149 889.015 110.149C890.311 110.149 890.839 110.773 890.887 112.405C890.983 114.421 890.983 120.661 890.935 122.053C890.839 123.685 890.359 124.549 888.871 124.549C887.383 124.549 886.903 123.637 886.807 122.005C886.711 120.661 886.711 118.885 886.711 118.501H879.991C880.039 120.277 879.991 121.573 880.087 122.965C880.327 127.429 882.775 130.213 888.871 130.213C895.255 130.213 897.847 126.757 898.087 123.109C898.279 120.037 898.279 112.357 898.087 109.861ZM921.967 109.813C921.247 109.141 919.423 107.509 918.463 106.645C916.303 104.677 914.671 102.805 914.671 100.165C914.671 98.1491 915.583 97.2851 917.455 97.2851C919.279 97.2851 919.951 98.2451 920.143 99.7811C920.287 101.029 920.335 101.941 920.335 102.901H927.055C927.055 101.797 926.863 99.7811 926.767 98.9651C926.191 94.5971 923.599 91.1411 917.503 91.1411C911.455 91.1411 907.807 94.7411 907.807 100.309C907.807 105.493 909.631 107.941 913.087 110.965C914.095 111.829 916.063 113.605 916.543 114.037C919.375 116.581 920.335 118.261 920.335 121.477C920.335 123.397 919.327 124.453 917.455 124.453C915.727 124.453 914.863 123.589 914.671 122.341C914.623 122.053 914.575 120.709 914.575 118.933H907.903C907.903 121.237 907.855 121.717 907.999 123.493C908.335 127.765 911.599 130.261 917.647 130.261C923.407 130.261 927.247 126.805 927.247 120.853C927.247 115.717 925.423 113.077 921.967 109.813ZM946.43 109.525C946.43 104.917 944.174 103.093 940.91 103.093C938.27 103.093 936.782 104.101 936.062 105.877V91.4771H929.726V129.829H936.062V111.445C936.062 109.621 936.974 108.709 938.222 108.709C939.614 108.709 940.046 109.477 940.046 110.677C940.046 129.109 940.046 129.829 940.094 129.829H946.526C946.478 129.829 946.43 129.109 946.43 109.525ZM965.556 108.469C964.692 105.445 962.388 103.093 957.636 103.093C952.884 103.093 950.532 105.685 949.764 108.325C949.092 110.581 948.756 113.749 948.756 116.581C948.756 119.509 949.14 123.061 949.572 124.645C950.484 127.957 953.22 130.165 957.54 130.165C962.1 130.165 964.548 128.005 965.508 124.645C966.084 122.725 966.372 119.461 966.372 116.581C966.372 113.749 966.132 110.437 965.556 108.469ZM959.844 123.061C959.7 124.069 958.788 124.933 957.588 124.933C956.436 124.933 955.572 124.309 955.38 123.109C955.14 121.861 955.092 118.741 955.092 116.677C955.092 114.709 955.14 111.493 955.38 110.389C955.668 109.189 956.34 108.517 957.588 108.517C958.884 108.517 959.556 109.045 959.844 110.293C960.036 111.301 960.132 114.661 960.132 116.677C960.132 118.693 960.18 120.757 959.844 123.061ZM985.4 106.789C984.488 104.197 982.76 103.093 980.024 103.093C977.576 103.093 975.8 104.005 975.08 105.445L975.032 103.429H968.936V137.653H975.224V128.341C976.088 129.205 977.528 129.877 979.784 129.877C982.76 129.877 984.68 128.437 985.64 125.461C986.216 123.637 986.552 119.989 986.552 116.197C986.552 112.213 986.168 108.853 985.4 106.789ZM979.688 122.869C979.496 123.829 978.824 124.741 977.576 124.741C976.472 124.741 975.752 124.165 975.56 122.917C975.272 121.141 975.176 119.413 975.176 116.389C975.176 113.653 975.368 111.685 975.704 110.293C975.944 109.333 976.472 108.565 977.624 108.565C978.776 108.565 979.352 109.141 979.592 110.005C979.976 111.445 980.072 113.605 980.072 116.389C980.072 119.509 979.976 121.237 979.688 122.869ZM1009.75 119.365C1009.75 116.965 1009.46 114.181 1008.59 112.645C1007.73 111.061 1006.53 110.293 1004.66 110.053C1006.24 109.765 1007.3 109.093 1008.02 107.605C1008.93 105.685 1009.07 103.237 1009.07 100.693C1009.07 98.2931 1008.79 95.9891 1007.87 94.4051C1006.72 92.3891 1004.56 91.5251 1001.35 91.5251H989.25V129.829H1000.63C1004.18 129.829 1006.43 129.349 1008.07 127.141C1009.36 125.365 1009.75 122.293 1009.75 119.365ZM1001.3 106.645C1000.87 107.557 1000.34 107.941 999.81 107.941H996.114V97.2371H999.33C1000.34 97.2371 1000.91 97.8131 1001.25 98.6291C1001.54 99.3491 1001.83 100.885 1001.83 102.421C1001.83 104.293 1001.59 106.021 1001.3 106.645ZM999.522 124.117H996.114V113.317H999.666C1000.58 113.317 1001.3 113.893 1001.73 114.661C1002.07 115.285 1002.26 117.349 1002.26 118.597C1002.26 119.797 1002.11 122.053 1001.78 122.773C1001.35 123.733 1000.43 124.117 999.522 124.117ZM1022.97 121.237C1022.97 121.909 1022.88 122.725 1022.69 123.541C1022.45 124.597 1021.44 125.029 1020.48 125.029C1019.52 125.029 1018.41 124.453 1018.27 123.157C1018.13 121.957 1018.08 120.037 1018.08 118.837H1028.97C1029.21 114.325 1028.88 109.717 1027.97 107.461C1026.86 104.773 1024.32 103.093 1020.62 103.093C1016.06 103.093 1014.05 105.157 1013.09 107.509C1012.37 109.237 1011.84 112.789 1011.84 116.773C1011.84 120.853 1012.17 123.877 1013.28 126.421C1014.43 129.109 1017.17 130.165 1020.72 130.165C1024.27 130.165 1026.43 128.725 1027.58 126.661C1028.59 124.885 1028.83 122.005 1028.83 121.237H1022.97ZM1017.98 114.133C1017.98 112.309 1018.03 110.581 1018.37 109.765C1018.7 108.853 1019.47 108.373 1020.53 108.373C1021.63 108.373 1022.35 108.901 1022.59 109.813C1022.78 110.437 1022.93 111.733 1022.93 114.133H1017.98ZM1041.97 121.237C1041.97 121.909 1041.87 122.725 1041.68 123.541C1041.44 124.597 1040.43 125.029 1039.47 125.029C1038.51 125.029 1037.41 124.453 1037.27 123.157C1037.12 121.957 1037.07 120.037 1037.07 118.837H1047.97C1048.21 114.325 1047.87 109.717 1046.96 107.461C1045.86 104.773 1043.31 103.093 1039.62 103.093C1035.06 103.093 1033.04 105.157 1032.08 107.509C1031.36 109.237 1030.83 112.789 1030.83 116.773C1030.83 120.853 1031.17 123.877 1032.27 126.421C1033.43 129.109 1036.16 130.165 1039.71 130.165C1043.27 130.165 1045.43 128.725 1046.58 126.661C1047.59 124.885 1047.83 122.005 1047.83 121.237H1041.97ZM1036.98 114.133C1036.98 112.309 1037.03 110.581 1037.36 109.765C1037.7 108.853 1038.47 108.373 1039.52 108.373C1040.63 108.373 1041.35 108.901 1041.59 109.813C1041.78 110.437 1041.92 111.733 1041.92 114.133H1036.98ZM1061.35 103.093C1059.14 103.093 1056.93 104.533 1056.65 106.549V103.429H1050.31V129.829H1056.74V114.181C1056.74 109.861 1058.09 108.901 1060.29 108.901C1061.59 108.901 1062.89 109.141 1063.65 109.381V103.333C1063.13 103.141 1062.36 103.093 1061.35 103.093ZM1085.19 120.901V108.181H1074.68V114.229H1078.57C1078.57 114.229 1078.62 120.469 1078.57 121.285C1078.47 123.253 1077.32 124.261 1075.55 124.261C1073.96 124.261 1073.15 123.445 1072.81 121.717C1072.23 118.693 1072.23 113.701 1072.23 110.773C1072.23 107.653 1072.28 103.045 1072.76 99.7331C1073 98.1011 1074.06 97.3811 1075.4 97.3811C1076.89 97.3811 1077.8 98.1971 1077.95 99.7331C1078.14 101.701 1078.14 104.341 1078.14 104.629H1085C1085 101.221 1084.86 99.3011 1084.57 97.5731C1083.99 94.1171 1081.45 91.1891 1075.26 91.1891C1069.21 91.1891 1066.67 94.5971 1065.85 97.6691C1064.99 100.981 1064.89 106.789 1064.89 110.773C1064.89 114.901 1065.03 120.277 1065.85 123.733C1066.86 127.957 1069.88 130.165 1073.91 130.165C1076.84 130.165 1078.81 129.349 1079.77 128.101L1080.11 129.829H1085.29C1085.29 129.781 1085.19 125.317 1085.19 120.901ZM1098.44 121.237C1098.44 121.909 1098.34 122.725 1098.15 123.541C1097.91 124.597 1096.9 125.029 1095.94 125.029C1094.98 125.029 1093.88 124.453 1093.74 123.157C1093.59 121.957 1093.54 120.037 1093.54 118.837H1104.44C1104.68 114.325 1104.34 109.717 1103.43 107.461C1102.33 104.773 1099.78 103.093 1096.09 103.093C1091.53 103.093 1089.51 105.157 1088.55 107.509C1087.83 109.237 1087.3 112.789 1087.3 116.773C1087.3 120.853 1087.64 123.877 1088.74 126.421C1089.9 129.109 1092.63 130.165 1096.18 130.165C1099.74 130.165 1101.9 128.725 1103.05 126.661C1104.06 124.885 1104.3 122.005 1104.3 121.237H1098.44ZM1093.45 114.133C1093.45 112.309 1093.5 110.581 1093.83 109.765C1094.17 108.853 1094.94 108.373 1095.99 108.373C1097.1 108.373 1097.82 108.901 1098.06 109.813C1098.25 110.437 1098.39 111.733 1098.39 114.133H1093.45ZM1123.24 125.125C1123.24 123.157 1123.29 119.941 1123.29 117.877C1123.34 115.429 1123.39 111.445 1123.29 109.141C1123.15 105.445 1120.84 103.093 1115.32 103.093C1109.47 103.093 1107.07 105.733 1107.07 110.677V112.645H1113.02V111.157C1113.02 109.333 1113.6 108.421 1115.23 108.421C1116.43 108.421 1117.05 109.093 1117.1 110.245C1117.15 111.061 1117.15 112.693 1117.15 113.413C1116.09 113.413 1114.99 113.557 1113.79 113.749C1109.37 114.565 1106.4 116.965 1106.16 120.805C1106.06 122.197 1106.11 124.453 1106.16 125.029C1106.35 128.869 1109.28 130.021 1111.92 130.021C1114.27 130.021 1116.04 129.397 1117.24 127.909C1117.24 128.581 1117.39 129.829 1117.48 129.829H1123.58C1123.34 129.493 1123.24 127.045 1123.24 125.125ZM1117.15 119.749C1117.05 121.093 1117.15 121.765 1116.91 123.157C1116.67 124.501 1115.52 125.029 1114.51 125.029C1113.55 125.029 1112.78 124.693 1112.64 123.781C1112.54 123.013 1112.54 122.101 1112.54 121.381C1112.54 120.277 1112.59 119.509 1113.4 118.789C1114.12 118.165 1114.94 118.021 1115.61 117.877C1116.19 117.781 1116.67 117.781 1117.15 117.781C1117.15 118.165 1117.2 119.221 1117.15 119.749ZM1137.19 103.093C1134.98 103.093 1132.78 104.533 1132.49 106.549V103.429H1126.15V129.829H1132.58V114.181C1132.58 109.861 1133.93 108.901 1136.14 108.901C1137.43 108.901 1138.73 109.141 1139.5 109.381V103.333C1138.97 103.141 1138.2 103.093 1137.19 103.093ZM862.168 176.901V164.181H851.656V170.229H855.544C855.544 170.229 855.592 176.469 855.544 177.285C855.448 179.253 854.296 180.261 852.52 180.261C850.936 180.261 850.12 179.445 849.784 177.717C849.208 174.693 849.208 169.701 849.208 166.773C849.208 163.653 849.256 159.045 849.736 155.733C849.976 154.101 851.032 153.381 852.376 153.381C853.864 153.381 854.776 154.197 854.92 155.733C855.112 157.701 855.112 160.341 855.112 160.629H861.976C861.976 157.221 861.832 155.301 861.544 153.573C860.968 150.117 858.424 147.189 852.232 147.189C846.184 147.189 843.64 150.597 842.824 153.669C841.96 156.981 841.864 162.789 841.864 166.773C841.864 170.901 842.008 176.277 842.824 179.733C843.832 183.957 846.856 186.165 850.888 186.165C853.816 186.165 855.784 185.349 856.744 184.101L857.08 185.829H862.264C862.264 185.781 862.168 181.317 862.168 176.901ZM871.526 151.557H864.758V158.037H871.526V151.557ZM871.43 183.909V159.429H864.854V184.005C864.854 185.061 864.854 185.829 865.094 185.829H871.574C871.526 185.781 871.43 184.917 871.43 183.909ZM885.706 159.429H882.25V154.533C882.25 153.573 882.826 152.517 884.122 152.517C884.65 152.517 885.418 152.565 886.042 152.661V147.429C885.322 147.333 883.93 147.285 882.25 147.285C877.498 147.285 875.818 150.117 875.818 153.717V159.429H873.466V165.045H875.818V185.829H882.25V165.045H885.706V159.429ZM898.986 159.429H895.29V154.341L889.05 154.485C889.05 154.485 888.858 159.285 888.81 159.429H886.458V165.045H888.714V180.069C888.714 184.197 891.018 186.021 894.954 186.021C896.634 186.021 897.69 185.925 898.698 185.685V180.549C898.218 180.645 897.594 180.693 897.066 180.693C896.058 180.693 895.242 180.405 895.242 178.917V165.045H898.986V159.429ZM922.303 172.005C922.303 172.869 922.255 175.317 922.015 177.285C921.775 179.205 920.623 179.829 919.279 179.829C917.983 179.829 916.831 179.157 916.495 177.429C916.063 175.029 915.967 170.613 915.967 166.437C915.967 161.061 916.063 157.701 916.495 155.925C916.831 154.581 917.695 153.813 919.279 153.813C920.671 153.813 921.583 154.629 921.775 155.829C922.111 157.749 922.255 159.813 922.255 161.589H929.071C929.071 159.237 928.927 157.029 928.687 155.205C928.015 150.117 925.327 147.237 919.423 147.237C913.759 147.237 910.687 149.589 909.727 154.149C908.863 158.229 908.623 161.349 908.623 166.485C908.623 171.525 909.007 177.285 909.967 180.357C911.023 183.909 913.663 186.261 919.039 186.261C924.943 186.261 927.823 183.669 928.687 179.013C929.119 176.565 929.119 173.301 929.119 172.005H922.303ZM948.076 181.125C948.076 179.157 948.124 175.941 948.124 173.877C948.172 171.429 948.22 167.445 948.124 165.141C947.98 161.445 945.676 159.093 940.156 159.093C934.3 159.093 931.9 161.733 931.9 166.677V168.645H937.852V167.157C937.852 165.333 938.428 164.421 940.06 164.421C941.26 164.421 941.884 165.093 941.932 166.245C941.98 167.061 941.98 168.693 941.98 169.413C940.924 169.413 939.82 169.557 938.62 169.749C934.204 170.565 931.228 172.965 930.988 176.805C930.892 178.197 930.94 180.453 930.988 181.029C931.18 184.869 934.108 186.021 936.748 186.021C939.1 186.021 940.876 185.397 942.076 183.909C942.076 184.581 942.22 185.829 942.316 185.829H948.412C948.172 185.493 948.076 183.045 948.076 181.125ZM941.98 175.749C941.884 177.093 941.98 177.765 941.74 179.157C941.5 180.501 940.348 181.029 939.34 181.029C938.38 181.029 937.612 180.693 937.468 179.781C937.372 179.013 937.372 178.101 937.372 177.381C937.372 176.277 937.42 175.509 938.236 174.789C938.956 174.165 939.772 174.021 940.444 173.877C941.02 173.781 941.5 173.781 941.98 173.781C941.98 174.165 942.028 175.221 941.98 175.749ZM962.023 159.093C959.815 159.093 957.607 160.533 957.319 162.549V159.429H950.983V185.829H957.415V170.181C957.415 165.861 958.759 164.901 960.967 164.901C962.263 164.901 963.559 165.141 964.327 165.381V159.333C963.799 159.141 963.031 159.093 962.023 159.093ZM966.288 163.317C965.52 166.197 965.28 168.837 965.28 172.725C965.28 176.949 965.76 180.453 966.624 182.565C967.584 184.965 969.36 186.021 972 186.021C974.352 186.021 975.936 185.253 976.8 183.909L977.568 185.829H982.944C982.944 185.829 982.752 183.621 982.752 182.133V147.477H976.464V161.349C975.744 159.957 974.016 159.189 972 159.189C969.168 159.189 966.96 160.725 966.288 163.317ZM976.032 166.101C976.32 167.541 976.512 168.981 976.512 172.773C976.512 175.077 976.416 177.477 976.08 179.157C975.888 180.165 975.264 180.933 974.016 180.933C972.72 180.933 972.048 180.309 971.904 179.301C971.664 177.333 971.568 174.981 971.568 172.773C971.568 170.517 971.664 168.261 972 166.341C972.192 165.381 972.864 164.661 974.064 164.661C975.264 164.661 975.84 165.189 976.032 166.101ZM1008.85 164.181H1003.62V158.277H997.954V164.181H992.626V169.797H997.954V175.749H1003.57V169.797H1008.85V164.181ZM1038.45 147.525H1031.92V166.245L1025.92 147.525H1019.25V185.829H1025.78V166.725L1031.82 185.829H1038.45V147.525ZM1058.84 147.525H1041.9V185.829H1048.91V169.845H1058.08V163.413H1048.91V154.101H1058.84V147.525ZM1078.27 179.349H1068.14V147.525H1061.13V185.829H1078.27V179.349ZM1100.39 176.565L1101.64 185.829H1108.74L1103.03 147.525H1093.19L1086.8 185.829H1093.81L1095.16 176.565H1100.39ZM1095.83 170.901C1095.83 170.901 1097.56 159.765 1097.56 159.573C1097.89 157.509 1097.99 153.765 1097.99 153.765C1097.99 153.765 1098.08 157.557 1098.32 159.573C1098.32 159.765 1099.76 170.901 1099.76 170.901H1095.83ZM1127.85 179.349H1117.72V147.525H1110.71V185.829H1127.85V179.349ZM1147.12 179.349H1137V147.525H1129.99V185.829H1147.12V179.349ZM862.024 221.861C862.024 215.861 861.784 209.189 860.296 207.029C858.616 204.533 856.456 203.525 852.376 203.525H842.488V241.829H853.24C857.176 241.829 859.048 240.341 860.296 238.181C861.784 235.637 862.024 229.781 862.024 221.861ZM852.472 236.309H849.4V209.477H852.184C853.576 209.477 854.44 210.149 854.824 211.733C855.16 213.029 855.304 219.941 855.304 221.861C855.304 223.829 855.208 232.805 854.872 234.341C854.536 235.733 853.72 236.309 852.472 236.309ZM876.533 232.565L877.781 241.829H884.885L879.173 203.525H869.333L862.949 241.829H869.957L871.301 232.565H876.533ZM871.973 226.901C871.973 226.901 873.701 215.765 873.701 215.573C874.037 213.509 874.133 209.765 874.133 209.765C874.133 209.765 874.229 213.557 874.469 215.573C874.469 215.765 875.909 226.901 875.909 226.901H871.973ZM899.058 203.525C899.058 203.525 894.834 217.493 894.21 219.509C893.778 217.541 890.034 203.525 890.034 203.525H882.882L890.706 227.621V241.829H897.714V227.477L905.97 203.525H899.058ZM933.8 206.981C932.696 204.725 930.2 203.525 927.272 203.525H915.752V241.829H922.712V225.893H925.208L929.048 241.829H936.296L931.64 223.973C932.6 223.637 933.656 222.581 934.232 221.093C934.808 219.701 935.144 217.637 935.144 214.613C935.144 211.205 934.616 208.565 933.8 206.981ZM927.704 218.741C927.512 219.413 926.984 219.845 926.072 219.941C925.832 219.989 922.712 219.989 922.712 219.989V209.909H925.88C927.032 209.909 927.656 210.677 927.896 211.733C927.992 212.213 928.088 213.989 928.088 215.285C928.088 216.437 927.992 218.069 927.704 218.741ZM948.445 233.237C948.445 233.909 948.349 234.725 948.157 235.541C947.917 236.597 946.909 237.029 945.949 237.029C944.989 237.029 943.885 236.453 943.741 235.157C943.597 233.957 943.549 232.037 943.549 230.837H954.445C954.685 226.325 954.349 221.717 953.437 219.461C952.333 216.773 949.789 215.093 946.093 215.093C941.533 215.093 939.517 217.157 938.557 219.509C937.837 221.237 937.309 224.789 937.309 228.773C937.309 232.853 937.645 235.877 938.749 238.421C939.901 241.109 942.637 242.165 946.189 242.165C949.741 242.165 951.901 240.725 953.053 238.661C954.061 236.885 954.301 234.005 954.301 233.237H948.445ZM943.453 226.133C943.453 224.309 943.501 222.581 943.837 221.765C944.173 220.853 944.941 220.373 945.997 220.373C947.101 220.373 947.821 220.901 948.061 221.813C948.253 222.437 948.397 223.733 948.397 226.133H943.453ZM978.058 215.429L975.946 234.821L973.162 215.429H966.586L964.138 234.821L961.69 215.429H955.162L959.914 241.829H967.594C967.594 241.829 969.274 232.469 969.802 229.349C969.85 229.061 969.898 226.613 969.898 226.613C969.898 226.613 970.042 229.061 970.09 229.349C970.618 232.373 972.25 241.829 972.25 241.829H979.834L984.442 215.429H978.058ZM1001.9 237.125C1001.9 235.157 1001.95 231.941 1001.95 229.877C1002 227.429 1002.04 223.445 1001.95 221.141C1001.8 217.445 999.5 215.093 993.98 215.093C988.124 215.093 985.724 217.733 985.724 222.677V224.645H991.676V223.157C991.676 221.333 992.252 220.421 993.884 220.421C995.084 220.421 995.708 221.093 995.756 222.245C995.804 223.061 995.804 224.693 995.804 225.413C994.748 225.413 993.644 225.557 992.444 225.749C988.028 226.565 985.052 228.965 984.812 232.805C984.716 234.197 984.764 236.453 984.812 237.029C985.004 240.869 987.932 242.021 990.572 242.021C992.924 242.021 994.7 241.397 995.9 239.909C995.9 240.581 996.044 241.829 996.14 241.829H1002.24C1002 241.493 1001.9 239.045 1001.9 237.125ZM995.804 231.749C995.708 233.093 995.804 233.765 995.564 235.157C995.324 236.501 994.172 237.029 993.164 237.029C992.204 237.029 991.436 236.693 991.292 235.781C991.196 235.013 991.196 234.101 991.196 233.381C991.196 232.277 991.244 231.509 992.06 230.789C992.78 230.165 993.596 230.021 994.268 229.877C994.844 229.781 995.324 229.781 995.804 229.781C995.804 230.165 995.852 231.221 995.804 231.749ZM1015.85 215.093C1013.64 215.093 1011.43 216.533 1011.14 218.549V215.429H1004.81V241.829H1011.24V226.181C1011.24 221.861 1012.58 220.901 1014.79 220.901C1016.09 220.901 1017.38 221.141 1018.15 221.381V215.333C1017.62 215.141 1016.85 215.093 1015.85 215.093ZM1020.11 219.317C1019.34 222.197 1019.1 224.837 1019.1 228.725C1019.1 232.949 1019.58 236.453 1020.45 238.565C1021.41 240.965 1023.18 242.021 1025.82 242.021C1028.18 242.021 1029.76 241.253 1030.62 239.909L1031.39 241.829H1036.77C1036.77 241.829 1036.58 239.621 1036.58 238.133V203.477H1030.29V217.349C1029.57 215.957 1027.84 215.189 1025.82 215.189C1022.99 215.189 1020.78 216.725 1020.11 219.317ZM1029.86 222.101C1030.14 223.541 1030.34 224.981 1030.34 228.773C1030.34 231.077 1030.24 233.477 1029.9 235.157C1029.71 236.165 1029.09 236.933 1027.84 236.933C1026.54 236.933 1025.87 236.309 1025.73 235.301C1025.49 233.333 1025.39 230.981 1025.39 228.773C1025.39 226.517 1025.49 224.261 1025.82 222.341C1026.02 221.381 1026.69 220.661 1027.89 220.661C1029.09 220.661 1029.66 221.189 1029.86 222.101ZM1065.12 206.261C1063.73 204.437 1061.71 203.525 1058.74 203.525H1047.36V241.829H1054.42V227.333C1054.42 227.333 1057.68 227.381 1058.64 227.285C1061.52 227.093 1063.63 226.325 1065.03 224.597C1066.47 222.869 1067.04 219.989 1067.04 215.429C1067.04 210.917 1066.37 207.845 1065.12 206.261ZM1059.7 219.557C1059.51 220.805 1058.69 221.333 1057.11 221.333H1054.42V210.005H1057.3C1058.4 210.005 1059.22 210.629 1059.51 211.445C1059.75 212.117 1059.99 213.701 1059.99 215.717C1059.99 217.781 1059.94 218.261 1059.7 219.557ZM1084.36 237.125C1084.36 235.157 1084.41 231.941 1084.41 229.877C1084.46 227.429 1084.51 223.445 1084.41 221.141C1084.27 217.445 1081.96 215.093 1076.44 215.093C1070.59 215.093 1068.19 217.733 1068.19 222.677V224.645H1074.14V223.157C1074.14 221.333 1074.71 220.421 1076.35 220.421C1077.55 220.421 1078.17 221.093 1078.22 222.245C1078.27 223.061 1078.27 224.693 1078.27 225.413C1077.21 225.413 1076.11 225.557 1074.91 225.749C1070.49 226.565 1067.51 228.965 1067.27 232.805C1067.18 234.197 1067.23 236.453 1067.27 237.029C1067.47 240.869 1070.39 242.021 1073.03 242.021C1075.39 242.021 1077.16 241.397 1078.36 239.909C1078.36 240.581 1078.51 241.829 1078.6 241.829H1084.7C1084.46 241.493 1084.36 239.045 1084.36 237.125ZM1078.27 231.749C1078.17 233.093 1078.27 233.765 1078.03 235.157C1077.79 236.501 1076.63 237.029 1075.63 237.029C1074.67 237.029 1073.9 236.693 1073.75 235.781C1073.66 235.013 1073.66 234.101 1073.66 233.381C1073.66 232.277 1073.71 231.509 1074.52 230.789C1075.24 230.165 1076.06 230.021 1076.73 229.877C1077.31 229.781 1077.79 229.781 1078.27 229.781C1078.27 230.165 1078.31 231.221 1078.27 231.749ZM1103.25 219.893C1102.39 217.157 1100.37 215.093 1095.43 215.093C1091.69 215.093 1089 216.773 1088.04 219.605C1087.08 222.485 1086.79 224.789 1086.79 228.629C1086.79 232.613 1087.37 236.597 1088.13 238.325C1089.19 240.725 1091.73 242.165 1095.53 242.165C1099.41 242.165 1101.91 240.437 1102.77 238.229C1103.69 235.925 1103.73 234.821 1103.73 231.221H1097.78C1097.78 232.901 1097.78 233.429 1097.59 234.821C1097.45 235.925 1096.77 236.789 1095.53 236.789C1094.28 236.789 1093.65 236.213 1093.46 234.869C1093.17 232.901 1093.08 230.213 1093.08 228.677C1093.08 226.757 1093.17 224.357 1093.46 222.485C1093.65 221.189 1094.33 220.517 1095.48 220.517C1096.82 220.517 1097.3 221.381 1097.45 222.437C1097.59 223.445 1097.73 224.645 1097.73 226.181H1103.73C1103.73 222.965 1103.59 221.045 1103.25 219.893ZM1118.8 225.029L1123.79 215.429H1117.55L1112.41 225.557V203.477H1106.08V241.829H1112.41V233.909L1114.29 230.885L1117.6 241.829H1124.03L1118.8 225.029Z" fill="white"/>
</g>
<path d="M809 0.829102H1224H809ZM1224 284.829H809H1224ZM808 284.829V0.829102H810V284.829H808ZM1224 0.829102V284.829V0.829102Z" fill="white" mask="url(#path-15-inside-3_4719_145481)"/>
<rect x="624.5" y="1.3291" width="599" height="283" rx="11.5" stroke="white"/>
<defs>
<clipPath id="clip0_4719_145481">
<path d="M185 0.829102H600V284.829H185V0.829102Z" fill="white"/>
</clipPath>
<clipPath id="clip1_4719_145481">
<path d="M809 0.829102H1224V284.829H809V0.829102Z" fill="white"/>
</clipPath>
</defs>
</svg>
