<svg width="100%" height="auto" viewBox="0 0 1224 285" fill="none" xmlns="http://www.w3.org/2000/svg">
<path d="M106.78 69.5571H92.956C91.548 72.6291 87.964 78.5171 74.78 79.4131V94.1331L88.86 93.4931V171.829H106.78V69.5571Z" fill="white"/>
<path d="M87.2249 201.573C87.2249 201.573 84.7949 212.139 84.7949 212.571C84.7949 212.139 82.5629 201.573 82.5629 201.573H79.9349C79.9349 201.573 77.7209 212.139 77.7209 212.571C77.7209 212.139 75.2909 201.573 75.2909 201.573H72.7889L76.2089 215.829H78.8909C78.8909 215.829 81.2129 205.281 81.2129 204.813C81.2309 205.281 83.4629 215.829 83.4629 215.829H86.1629L89.5469 201.573H87.2249ZM96.0389 201.573H93.6089V215.829H96.0389V201.573ZM111.08 201.573H108.83V211.293L103.97 201.573H101.288V215.829H103.538V205.857L108.542 215.829H111.08V201.573Z" fill="white"/>
<g clip-path="url(#clip0_4719_145487)">
<path d="M220.744 33.8291H222.49V20.9231H221.14C220.906 22.7951 219.394 23.4071 217.774 23.4431V24.5951H220.744V33.8291ZM234.103 37.2131C235.399 37.2131 236.479 36.9251 237.235 36.2951C237.973 35.6651 238.405 34.7111 238.405 33.4331V24.1631H236.749V25.4411H236.713C236.101 24.4691 235.165 23.9291 233.779 23.9291C231.511 23.9291 229.639 25.6931 229.639 28.6631C229.639 31.4711 231.403 33.3971 233.869 33.3971C235.237 33.3971 236.083 32.8031 236.749 31.8491H236.785C236.767 32.1551 236.749 32.6771 236.749 33.2351V33.5051C236.749 35.1431 235.795 35.9171 234.067 35.9171C232.627 35.9171 231.655 35.5031 231.511 34.4951H229.945C230.125 36.2051 231.565 37.2131 234.103 37.2131ZM234.031 32.0291C232.285 32.0291 231.349 30.7331 231.349 28.6811C231.349 26.6471 232.249 25.3151 234.013 25.3151C235.939 25.3151 236.857 26.5571 236.857 28.5911C236.857 30.5531 236.137 32.0291 234.031 32.0291ZM243.602 34.0271C245.24 34.0271 246.23 33.2531 246.842 32.4071H246.86C247.04 33.4331 247.544 33.9191 248.57 33.9191C248.966 33.9191 249.236 33.8471 249.47 33.7751V32.6051H249.398C248.552 32.7851 248.372 32.3711 248.372 31.5971V27.0791C248.372 25.7831 247.886 24.9371 247.076 24.4511C246.464 24.0911 245.654 23.9291 244.736 23.9291C242.126 23.9291 240.884 25.3871 240.812 27.0251H242.432C242.486 25.8731 243.224 25.1531 244.754 25.1531C246.086 25.1531 246.824 25.8011 246.824 26.8451C246.824 27.8351 245.906 28.0691 244.484 28.2311C241.982 28.5371 240.326 29.0231 240.326 31.2731C240.326 33.1271 241.766 34.0271 243.602 34.0271ZM244.016 32.8031C243.044 32.8031 242.09 32.4971 242.09 31.2551C242.09 29.9231 243.134 29.6351 244.718 29.3651C245.51 29.2211 246.356 28.9871 246.842 28.6811V30.2651C246.842 31.3811 245.942 32.8031 244.016 32.8031ZM250.83 33.8291H252.504V27.8711C252.504 26.3951 253.746 25.3331 254.898 25.3331C255.888 25.3331 256.554 26.0351 256.554 27.2231V33.8291H258.21V27.8711C258.21 26.3951 259.272 25.3331 260.496 25.3331C261.468 25.3331 262.242 26.0351 262.242 27.2231V33.8291H263.916V27.0791C263.916 25.0631 262.692 23.9291 260.928 23.9291C259.758 23.9291 258.624 24.5231 257.94 25.7291H257.904C257.508 24.5411 256.572 23.9291 255.402 23.9291C254.16 23.9291 253.134 24.5591 252.54 25.6031H252.486V24.1631H250.83V33.8291ZM270.352 34.0991C272.584 34.0991 274.132 32.8751 274.564 31.0751H272.926C272.62 32.1011 271.702 32.7311 270.37 32.7311C268.498 32.7311 267.472 31.2911 267.346 29.4011H274.762C274.762 27.7631 274.366 26.3771 273.574 25.4231C272.818 24.4871 271.702 23.9291 270.262 23.9291C267.49 23.9291 265.636 26.1971 265.636 29.0051C265.636 31.8311 267.382 34.0991 270.352 34.0991ZM270.262 25.2251C271.936 25.2251 272.89 26.3411 272.98 28.1951H267.382C267.598 26.4851 268.516 25.2251 270.262 25.2251ZM283.416 33.8291H285.108L286.566 28.5011C286.8 27.5831 287.16 25.8011 287.16 25.8011H287.196C287.196 25.8011 287.574 27.5651 287.808 28.5011L289.23 33.8291H290.904L294.054 24.1631H292.326L290.724 29.5271C290.364 30.7151 290.094 32.3711 290.094 32.3711H290.058C290.058 32.3711 289.716 30.5891 289.446 29.5631L288.006 24.1631H286.422L284.964 29.5631C284.64 30.7331 284.316 32.3531 284.316 32.3531H284.28C284.28 32.3531 283.956 30.6251 283.65 29.5271L282.138 24.1631H280.356L283.416 33.8291ZM295.354 22.3811H297.1V20.4371H295.354V22.3811ZM295.39 33.8291H297.064V24.1631H295.39V33.8291ZM301.019 24.1631H299.363V33.8291H301.037V27.9431C301.037 26.3951 302.117 25.3331 303.611 25.3331C304.925 25.3331 305.735 26.0351 305.735 27.2771V33.8291H307.391V27.0791C307.391 25.0631 306.149 23.9291 304.133 23.9291C302.729 23.9291 301.775 24.5591 301.073 25.5311H301.019V24.1631ZM318.135 34.1171C320.403 34.1171 322.023 33.1091 322.023 31.1471C322.023 28.8971 320.367 28.4651 318.441 28.0871C316.803 27.7631 315.867 27.5651 315.867 26.5571C315.867 25.8191 316.425 25.2071 317.739 25.2071C319.125 25.2071 319.809 25.7651 319.953 26.7551H321.627C321.411 25.0811 320.205 23.9471 317.775 23.9471C315.525 23.9471 314.229 24.9911 314.229 26.6471C314.229 28.7711 315.939 29.1671 317.829 29.5631C319.539 29.9051 320.349 30.1751 320.349 31.2371C320.349 32.1011 319.701 32.7671 318.171 32.7671C316.785 32.7671 315.705 32.2991 315.507 30.8951H313.815C313.959 32.8571 315.471 34.1171 318.135 34.1171ZM323.062 25.4591H324.574V31.9391C324.574 33.3611 325.474 33.8831 326.77 33.9011C327.202 33.9011 327.67 33.8471 328.12 33.7391V32.3351H328.066C327.886 32.3891 327.508 32.4611 327.22 32.4611C326.608 32.4611 326.23 32.2631 326.23 31.5611V25.4591H328.228V24.1631H326.23V21.1211H324.574V24.1631H323.062V25.4591ZM331.622 24.1631H329.966V33.8291H331.64V28.5731C331.64 26.7551 332.918 25.6391 334.412 25.6391C334.7 25.6391 334.862 25.6571 335.096 25.7291H335.15V24.1451C334.97 24.0731 334.808 24.0371 334.538 24.0371C333.26 24.0371 332.27 24.7931 331.676 25.9091H331.622V24.1631ZM340.629 34.0991C342.861 34.0991 344.409 32.8751 344.841 31.0751H343.203C342.897 32.1011 341.979 32.7311 340.647 32.7311C338.775 32.7311 337.749 31.2911 337.623 29.4011H345.039C345.039 27.7631 344.643 26.3771 343.851 25.4231C343.095 24.4871 341.979 23.9291 340.539 23.9291C337.767 23.9291 335.913 26.1971 335.913 29.0051C335.913 31.8311 337.659 34.0991 340.629 34.0991ZM340.539 25.2251C342.213 25.2251 343.167 26.3411 343.257 28.1951H337.659C337.875 26.4851 338.793 25.2251 340.539 25.2251ZM349.704 34.0271C351.342 34.0271 352.332 33.2531 352.944 32.4071H352.962C353.142 33.4331 353.646 33.9191 354.672 33.9191C355.068 33.9191 355.338 33.8471 355.572 33.7751V32.6051H355.5C354.654 32.7851 354.474 32.3711 354.474 31.5971V27.0791C354.474 25.7831 353.988 24.9371 353.178 24.4511C352.566 24.0911 351.756 23.9291 350.838 23.9291C348.228 23.9291 346.986 25.3871 346.914 27.0251H348.534C348.588 25.8731 349.326 25.1531 350.856 25.1531C352.188 25.1531 352.926 25.8011 352.926 26.8451C352.926 27.8351 352.008 28.0691 350.586 28.2311C348.084 28.5371 346.428 29.0231 346.428 31.2731C346.428 33.1271 347.868 34.0271 349.704 34.0271ZM350.118 32.8031C349.146 32.8031 348.192 32.4971 348.192 31.2551C348.192 29.9231 349.236 29.6351 350.82 29.3651C351.612 29.2211 352.458 28.9871 352.944 28.6811V30.2651C352.944 31.3811 352.044 32.8031 350.118 32.8031ZM363.285 33.8291H365.247L361.125 27.6371L364.815 24.1631H362.727L358.533 28.2851C358.569 27.8171 358.605 27.1331 358.605 26.7911V20.4371H356.931V33.8291H358.605V30.0311L359.973 28.7351L363.285 33.8291ZM371.468 37.1051H373.142V34.1711C373.142 33.4331 373.124 32.8931 373.106 32.5511H373.16C373.826 33.5771 374.888 34.1171 376.202 34.1171C378.812 34.1171 380.414 32.1191 380.414 29.0231C380.414 25.8371 378.722 23.9291 376.256 23.9291C374.87 23.9291 373.898 24.5771 373.178 25.6751H373.124V24.1631H371.468V37.1051ZM376.022 32.7311C373.88 32.7311 373.052 31.0931 373.052 29.0591C373.052 27.0071 373.988 25.3511 376.04 25.3511C377.822 25.3511 378.704 26.9351 378.704 29.0591C378.704 31.1651 377.804 32.7311 376.022 32.7311ZM383.847 24.1631H382.191V33.8291H383.865V28.5731C383.865 26.7551 385.143 25.6391 386.637 25.6391C386.925 25.6391 387.087 25.6571 387.321 25.7291H387.375V24.1451C387.195 24.0731 387.033 24.0371 386.763 24.0371C385.485 24.0371 384.495 24.7931 383.901 25.9091H383.847V24.1631ZM388.975 22.3811H390.721V20.4371H388.975V22.3811ZM389.011 33.8291H390.685V24.1631H389.011V33.8291ZM392.624 33.8291H400.418V32.3531H396.512C395.81 32.3531 394.586 32.4071 394.586 32.4071V32.3531C394.586 32.3531 395.396 31.4711 395.81 30.9491L400.202 25.2071V24.1631H392.948V25.5851H396.278C396.944 25.5851 398.096 25.5311 398.096 25.5311V25.5851C398.096 25.5851 397.34 26.3951 396.944 26.8991L392.624 32.5331V33.8291ZM406.037 34.0991C408.269 34.0991 409.817 32.8751 410.249 31.0751H408.611C408.305 32.1011 407.387 32.7311 406.055 32.7311C404.183 32.7311 403.157 31.2911 403.031 29.4011H410.447C410.447 27.7631 410.051 26.3771 409.259 25.4231C408.503 24.4871 407.387 23.9291 405.947 23.9291C403.175 23.9291 401.321 26.1971 401.321 29.0051C401.321 31.8311 403.067 34.0991 406.037 34.0991ZM405.947 25.2251C407.621 25.2251 408.575 26.3411 408.665 28.1951H403.067C403.283 26.4851 404.201 25.2251 405.947 25.2251Z" fill="white"/>
<path fill-rule="evenodd" clip-rule="evenodd" d="M551.231 35.723L562.011 33.8213C562.628 33.7096 563.095 33.4731 563.41 33.1118C563.719 32.7571 563.873 32.2775 563.873 31.6732V18.1049C563.873 17.6385 563.774 17.2443 563.577 16.9224C563.38 16.6006 563.104 16.3739 562.75 16.2426C562.395 16.1046 561.978 16.0783 561.498 16.1637L551.034 18.0063C550.075 18.1771 549.352 18.476 548.866 18.903C548.373 19.3234 548.127 20.0165 548.127 20.9821V32.8753C548.127 33.5782 548.252 34.1596 548.502 34.6194C548.751 35.0858 549.109 35.4143 549.576 35.6048C550.035 35.7953 550.587 35.8347 551.231 35.723ZM561.331 19.9573V22.0364C561.331 22.2401 561.265 22.3944 561.134 22.4995C561.002 22.6047 560.851 22.6605 560.68 22.6671C560.51 22.6671 560.362 22.6211 560.237 22.5291C560.106 22.4306 560.04 22.2828 560.04 22.0857V20.7653C560.04 20.496 559.886 20.3843 559.577 20.4303L558.276 20.6668C558.066 20.6996 557.902 20.6635 557.784 20.5584C557.659 20.4467 557.583 20.3088 557.557 20.1446C557.524 19.9803 557.547 19.826 557.626 19.6814C557.698 19.5369 557.826 19.4482 558.01 19.4154L560.129 19.041C560.503 18.9753 560.799 19.0213 561.016 19.1789C561.226 19.3366 561.331 19.596 561.331 19.9573ZM552.039 22.3912V23.6426C552.039 23.8462 551.977 24.0039 551.852 24.1155C551.72 24.2272 551.569 24.2863 551.398 24.2929C551.228 24.2995 551.077 24.2502 550.945 24.1451C550.814 24.0334 550.748 23.8659 550.748 23.6426V21.997C550.748 21.5372 550.87 21.1857 551.113 20.9427C551.349 20.6931 551.74 20.519 552.285 20.4205L553.31 20.2431C553.533 20.2037 553.714 20.2365 553.852 20.3416C553.983 20.4467 554.062 20.5847 554.088 20.7555C554.115 20.9197 554.085 21.0741 554 21.2186C553.908 21.3631 553.75 21.4551 553.527 21.4945L552.709 21.6423C552.42 21.6948 552.236 21.7967 552.157 21.9478C552.078 22.0923 552.039 22.2401 552.039 22.3912ZM560.04 29.5645V28.3131C560.04 28.1095 560.106 27.9518 560.237 27.8402C560.362 27.7285 560.51 27.6694 560.68 27.6628C560.851 27.6562 561.002 27.7088 561.134 27.8205C561.265 27.9256 561.331 28.0898 561.331 28.3131V29.9587C561.331 30.4185 561.213 30.7732 560.976 31.0229C560.733 31.2659 560.339 31.4367 559.794 31.5352L558.769 31.7126C558.546 31.752 558.368 31.7192 558.237 31.6141C558.099 31.5024 558.017 31.3645 557.99 31.2002C557.958 31.036 557.987 30.8816 558.079 30.7371C558.171 30.586 558.329 30.4941 558.552 30.4612L559.37 30.3134C559.659 30.2609 559.843 30.159 559.922 30.0079C560.001 29.8569 560.04 29.7091 560.04 29.5645ZM550.748 31.9984V29.9193C550.748 29.7091 550.814 29.5547 550.945 29.4561C551.077 29.351 551.228 29.2985 551.398 29.2985C551.569 29.2919 551.72 29.3379 551.852 29.4364C551.977 29.5284 552.039 29.6729 552.039 29.87V31.1904C552.039 31.4597 552.193 31.5714 552.502 31.5254L553.803 31.2889C554.013 31.2561 554.18 31.2955 554.305 31.4071C554.423 31.5123 554.499 31.6469 554.532 31.8111C554.558 31.9754 554.535 32.1297 554.463 32.2743C554.384 32.4188 554.249 32.5075 554.059 32.5403L551.95 32.9147C551.576 32.9804 551.283 32.9344 551.073 32.7768C550.857 32.6191 550.748 32.3597 550.748 31.9984ZM557.208 24.4367L558.693 24.1848C558.817 24.1946 558.912 24.307 558.903 24.4367C558.9 24.4886 558.88 24.5373 558.847 24.5758L557.911 26.2321L558.499 27.9593C558.53 28.0853 558.456 28.2125 558.335 28.2437C558.287 28.2561 558.236 28.2519 558.19 28.2309L556.518 27.8393L554.8 29.0786C554.744 29.1141 554.723 29.1141 554.681 29.1141H554.68C554.638 29.1142 554.597 29.1019 554.561 29.0787C554.525 29.0556 554.496 29.0224 554.477 28.983C554.458 28.9436 554.45 28.8996 554.454 28.8559L554.744 26.7566L553.284 25.6708C553.238 25.6306 553.209 25.573 553.203 25.5108C553.198 25.4486 553.216 25.3868 553.255 25.339C553.287 25.2997 553.33 25.2722 553.379 25.2611L555.215 24.726L555.889 22.9788C555.936 22.8588 556.068 22.801 556.183 22.8499C556.23 22.8693 556.268 22.904 556.294 22.9485L557.208 24.4367Z" fill="white"/>
<path d="M600 51.8291H185V53.8291H600V51.8291Z" fill="white" mask="url(#path-6-inside-2_4719_145487)"/>
<path d="M237.688 119.525H231.16V138.245L225.16 119.525H218.488V157.829H225.016V138.725L231.064 157.829H237.688V119.525ZM258.084 119.525H241.14V157.829H248.148V141.845H257.316V135.413H248.148V126.101H258.084V119.525ZM277.506 151.349H267.378V119.525H260.37V157.829H277.506V151.349ZM299.629 148.565L300.877 157.829H307.981L302.269 119.525H292.429L286.045 157.829H293.053L294.397 148.565H299.629ZM295.069 142.901C295.069 142.901 296.797 131.765 296.797 131.573C297.133 129.509 297.229 125.765 297.229 125.765C297.229 125.765 297.325 129.557 297.565 131.573C297.565 131.765 299.005 142.901 299.005 142.901H295.069ZM327.087 151.349H316.959V119.525H309.951V157.829H327.087V151.349ZM346.363 151.349H336.235V119.525H329.227V157.829H346.363V151.349ZM375.926 137.861C375.926 131.861 375.686 125.189 374.198 123.029C372.518 120.533 370.358 119.525 366.278 119.525H356.39V157.829H367.142C371.078 157.829 372.95 156.341 374.198 154.181C375.686 151.637 375.926 145.781 375.926 137.861ZM366.374 152.309H363.302V125.477H366.086C367.478 125.477 368.342 126.149 368.726 127.733C369.062 129.029 369.206 135.941 369.206 137.861C369.206 139.829 369.11 148.805 368.774 150.341C368.438 151.733 367.622 152.309 366.374 152.309ZM390.435 148.565L391.683 157.829H398.787L393.075 119.525H383.235L376.851 157.829H383.859L385.203 148.565H390.435ZM385.875 142.901C385.875 142.901 387.603 131.765 387.603 131.573C387.939 129.509 388.035 125.765 388.035 125.765C388.035 125.765 388.131 129.557 388.371 131.573C388.371 131.765 389.811 142.901 389.811 142.901H385.875ZM412.96 119.525C412.96 119.525 408.736 133.493 408.112 135.509C407.68 133.541 403.936 119.525 403.936 119.525H396.784L404.608 143.621V157.829H411.616V143.477L419.872 119.525H412.96ZM236.248 178.261C234.856 176.437 232.84 175.525 229.864 175.525H218.488V213.829H225.544V199.333C225.544 199.333 228.808 199.381 229.768 199.285C232.648 199.093 234.76 198.325 236.152 196.597C237.592 194.869 238.168 191.989 238.168 187.429C238.168 182.917 237.496 179.845 236.248 178.261ZM230.824 191.557C230.632 192.805 229.816 193.333 228.232 193.333H225.544V182.005H228.424C229.528 182.005 230.344 182.629 230.632 183.445C230.872 184.117 231.112 185.701 231.112 187.717C231.112 189.781 231.064 190.261 230.824 191.557ZM246.955 211.861V177.109C246.955 176.245 246.859 175.573 246.811 175.477H240.331C240.475 175.813 240.475 176.965 240.475 177.781V212.005C240.475 212.965 240.571 213.685 240.763 213.829C240.763 213.877 247.195 213.829 247.195 213.829C247.003 213.685 246.955 213.061 246.955 211.861ZM266.234 209.125C266.234 207.157 266.282 203.941 266.282 201.877C266.331 199.429 266.378 195.445 266.282 193.141C266.138 189.445 263.834 187.093 258.314 187.093C252.458 187.093 250.058 189.733 250.058 194.677V196.645H256.01V195.157C256.01 193.333 256.586 192.421 258.218 192.421C259.418 192.421 260.042 193.093 260.09 194.245C260.138 195.061 260.138 196.693 260.138 197.413C259.082 197.413 257.978 197.557 256.778 197.749C252.362 198.565 249.386 200.965 249.146 204.805C249.05 206.197 249.098 208.453 249.146 209.029C249.338 212.869 252.266 214.021 254.906 214.021C257.258 214.021 259.034 213.397 260.234 211.909C260.234 212.581 260.378 213.829 260.474 213.829H266.57C266.331 213.493 266.234 211.045 266.234 209.125ZM260.138 203.749C260.042 205.093 260.138 205.765 259.898 207.157C259.658 208.501 258.506 209.029 257.498 209.029C256.538 209.029 255.77 208.693 255.626 207.781C255.53 207.013 255.53 206.101 255.53 205.381C255.53 204.277 255.578 203.509 256.394 202.789C257.114 202.165 257.93 202.021 258.602 201.877C259.178 201.781 259.658 201.781 260.138 201.781C260.138 202.165 260.186 203.221 260.138 203.749ZM280.245 187.429C280.197 188.245 277.125 203.845 277.029 204.421C276.981 203.893 273.909 188.101 273.813 187.429H267.285L273.573 213.109L271.413 221.653H277.989L286.629 187.429H280.245ZM294.658 189.589V175.477H288.418V213.829H293.698L294.418 212.053C295.57 213.397 297.058 213.925 299.314 213.925C302.434 213.925 304.738 211.669 305.314 208.549C305.842 205.573 306.034 203.557 306.034 200.197C306.034 196.597 305.89 193.477 305.314 191.461C304.45 188.437 302.434 187.093 299.554 187.093C297.106 187.093 295.282 188.101 294.658 189.589ZM299.314 194.581C299.554 196.021 299.554 198.325 299.554 200.533C299.554 202.789 299.506 205.333 299.266 207.157C299.122 208.357 298.402 209.173 297.154 209.173C295.81 209.173 295.09 208.549 294.898 207.157C294.658 205.477 294.61 204.325 294.61 200.533C294.61 198.325 294.706 196.933 294.85 194.965C294.946 193.669 295.858 192.565 297.202 192.565C298.45 192.565 299.122 193.237 299.314 194.581ZM324.764 192.469C323.9 189.445 321.596 187.093 316.844 187.093C312.092 187.093 309.74 189.685 308.972 192.325C308.3 194.581 307.964 197.749 307.964 200.581C307.964 203.509 308.348 207.061 308.78 208.645C309.692 211.957 312.428 214.165 316.748 214.165C321.308 214.165 323.756 212.005 324.716 208.645C325.292 206.725 325.58 203.461 325.58 200.581C325.58 197.749 325.34 194.437 324.764 192.469ZM319.052 207.061C318.908 208.069 317.996 208.933 316.796 208.933C315.644 208.933 314.78 208.309 314.588 207.109C314.348 205.861 314.3 202.741 314.3 200.677C314.3 198.709 314.348 195.493 314.588 194.389C314.876 193.189 315.548 192.517 316.796 192.517C318.092 192.517 318.764 193.045 319.052 194.293C319.244 195.301 319.34 198.661 319.34 200.677C319.34 202.693 319.388 204.757 319.052 207.061ZM344.416 192.469C343.552 189.445 341.248 187.093 336.496 187.093C331.744 187.093 329.392 189.685 328.624 192.325C327.952 194.581 327.616 197.749 327.616 200.581C327.616 203.509 328 207.061 328.432 208.645C329.344 211.957 332.08 214.165 336.4 214.165C340.96 214.165 343.408 212.005 344.368 208.645C344.944 206.725 345.232 203.461 345.232 200.581C345.232 197.749 344.992 194.437 344.416 192.469ZM338.704 207.061C338.56 208.069 337.648 208.933 336.448 208.933C335.296 208.933 334.432 208.309 334.24 207.109C334 205.861 333.952 202.741 333.952 200.677C333.952 198.709 334 195.493 334.24 194.389C334.528 193.189 335.2 192.517 336.448 192.517C337.744 192.517 338.416 193.045 338.704 194.293C338.896 195.301 338.992 198.661 338.992 200.677C338.992 202.693 339.04 204.757 338.704 207.061ZM360.516 197.029L365.508 187.429H359.268L354.132 197.557V175.477H347.796V213.829H354.132V205.909L356.004 202.885L359.316 213.829H365.748L360.516 197.029ZM387.576 204.565L388.824 213.829H395.928L390.216 175.525H380.376L373.992 213.829H381L382.344 204.565H387.576ZM383.016 198.901C383.016 198.901 384.744 187.765 384.744 187.573C385.08 185.509 385.176 181.765 385.176 181.765C385.176 181.765 385.272 185.557 385.512 187.573C385.512 187.765 386.952 198.901 386.952 198.901H383.016ZM413.548 191.893C412.684 189.157 410.668 187.093 405.724 187.093C401.98 187.093 399.292 188.773 398.332 191.605C397.372 194.485 397.084 196.789 397.084 200.629C397.084 204.613 397.66 208.597 398.428 210.325C399.484 212.725 402.028 214.165 405.82 214.165C409.708 214.165 412.204 212.437 413.068 210.229C413.98 207.925 414.028 206.821 414.028 203.221H408.076C408.076 204.901 408.076 205.429 407.884 206.821C407.74 207.925 407.068 208.789 405.82 208.789C404.572 208.789 403.948 208.213 403.756 206.869C403.468 204.901 403.372 202.213 403.372 200.677C403.372 198.757 403.468 196.357 403.756 194.485C403.948 193.189 404.62 192.517 405.772 192.517C407.116 192.517 407.596 193.381 407.74 194.437C407.884 195.445 408.028 196.645 408.028 198.181H414.028C414.028 194.965 413.884 193.045 413.548 191.893ZM432.356 191.893C431.492 189.157 429.476 187.093 424.532 187.093C420.788 187.093 418.1 188.773 417.14 191.605C416.18 194.485 415.892 196.789 415.892 200.629C415.892 204.613 416.468 208.597 417.236 210.325C418.292 212.725 420.836 214.165 424.628 214.165C428.516 214.165 431.012 212.437 431.876 210.229C432.788 207.925 432.836 206.821 432.836 203.221H426.884C426.884 204.901 426.884 205.429 426.692 206.821C426.548 207.925 425.876 208.789 424.628 208.789C423.38 208.789 422.756 208.213 422.564 206.869C422.276 204.901 422.18 202.213 422.18 200.677C422.18 198.757 422.276 196.357 422.564 194.485C422.756 193.189 423.428 192.517 424.58 192.517C425.924 192.517 426.404 193.381 426.548 194.437C426.692 195.445 426.836 196.645 426.836 198.181H432.836C432.836 194.965 432.692 193.045 432.356 191.893ZM451.452 192.469C450.588 189.445 448.284 187.093 443.532 187.093C438.78 187.093 436.428 189.685 435.66 192.325C434.988 194.581 434.652 197.749 434.652 200.581C434.652 203.509 435.036 207.061 435.468 208.645C436.38 211.957 439.116 214.165 443.436 214.165C447.996 214.165 450.444 212.005 451.404 208.645C451.98 206.725 452.268 203.461 452.268 200.581C452.268 197.749 452.028 194.437 451.452 192.469ZM445.74 207.061C445.596 208.069 444.684 208.933 443.484 208.933C442.332 208.933 441.468 208.309 441.276 207.109C441.036 205.861 440.988 202.741 440.988 200.677C440.988 198.709 441.036 195.493 441.276 194.389C441.564 193.189 442.236 192.517 443.484 192.517C444.78 192.517 445.452 193.045 445.74 194.293C445.932 195.301 446.028 198.661 446.028 200.677C446.028 202.693 446.076 204.757 445.74 207.061ZM461.168 211.861V177.109C461.168 176.245 461.072 175.573 461.024 175.477H454.544C454.688 175.813 454.688 176.965 454.688 177.781V212.005C454.688 212.965 454.784 213.685 454.976 213.829C454.976 213.877 461.408 213.829 461.408 213.829C461.216 213.685 461.168 213.061 461.168 211.861ZM480.448 209.125C480.448 207.157 480.496 203.941 480.496 201.877C480.544 199.429 480.592 195.445 480.496 193.141C480.352 189.445 478.048 187.093 472.528 187.093C466.672 187.093 464.272 189.733 464.272 194.677V196.645H470.224V195.157C470.224 193.333 470.8 192.421 472.432 192.421C473.632 192.421 474.256 193.093 474.304 194.245C474.352 195.061 474.352 196.693 474.352 197.413C473.296 197.413 472.192 197.557 470.992 197.749C466.576 198.565 463.6 200.965 463.36 204.805C463.264 206.197 463.312 208.453 463.36 209.029C463.552 212.869 466.48 214.021 469.12 214.021C471.472 214.021 473.248 213.397 474.448 211.909C474.448 212.581 474.592 213.829 474.688 213.829H480.784C480.544 213.493 480.448 211.045 480.448 209.125ZM474.352 203.749C474.256 205.093 474.352 205.765 474.112 207.157C473.872 208.501 472.72 209.029 471.712 209.029C470.752 209.029 469.984 208.693 469.84 207.781C469.744 207.013 469.744 206.101 469.744 205.381C469.744 204.277 469.792 203.509 470.608 202.789C471.328 202.165 472.144 202.021 472.816 201.877C473.392 201.781 473.872 201.781 474.352 201.781C474.352 202.165 474.4 203.221 474.352 203.749ZM483.882 191.317C483.114 194.197 482.874 196.837 482.874 200.725C482.874 204.949 483.354 208.453 484.218 210.565C485.178 212.965 486.954 214.021 489.594 214.021C491.946 214.021 493.53 213.253 494.394 211.909L495.162 213.829H500.538C500.538 213.829 500.346 211.621 500.346 210.133V175.477H494.058V189.349C493.338 187.957 491.61 187.189 489.594 187.189C486.762 187.189 484.554 188.725 483.882 191.317ZM493.626 194.101C493.914 195.541 494.106 196.981 494.106 200.773C494.106 203.077 494.01 205.477 493.674 207.157C493.482 208.165 492.858 208.933 491.61 208.933C490.314 208.933 489.642 208.309 489.498 207.301C489.258 205.333 489.162 202.981 489.162 200.773C489.162 198.517 489.258 196.261 489.594 194.341C489.786 193.381 490.458 192.661 491.658 192.661C492.858 192.661 493.434 193.189 493.626 194.101ZM513.756 205.237C513.756 205.909 513.66 206.725 513.468 207.541C513.228 208.597 512.22 209.029 511.26 209.029C510.3 209.029 509.196 208.453 509.052 207.157C508.908 205.957 508.86 204.037 508.86 202.837H519.756C519.996 198.325 519.66 193.717 518.748 191.461C517.644 188.773 515.1 187.093 511.404 187.093C506.844 187.093 504.828 189.157 503.868 191.509C503.148 193.237 502.62 196.789 502.62 200.773C502.62 204.853 502.956 207.877 504.06 210.421C505.212 213.109 507.948 214.165 511.5 214.165C515.052 214.165 517.212 212.725 518.364 210.661C519.372 208.885 519.612 206.005 519.612 205.237H513.756ZM508.764 198.133C508.764 196.309 508.812 194.581 509.148 193.765C509.484 192.853 510.252 192.373 511.308 192.373C512.412 192.373 513.132 192.901 513.372 193.813C513.564 194.437 513.708 195.733 513.708 198.133H508.764Z" fill="white"/>
</g>
<path d="M185 0.829102H600H185ZM600 284.829H185H600ZM184 284.829V0.829102H186V284.829H184ZM600 0.829102V284.829V0.829102Z" fill="white" mask="url(#path-4-inside-1_4719_145487)"/>
<rect x="0.5" y="1.3291" width="599" height="283" rx="11.5" stroke="white"/>
<defs>
<clipPath id="clip0_4719_145487">
<path d="M185 0.829102H600V284.829H185V0.829102Z" fill="white"/>
</clipPath>
</defs>
</svg>
