<svg width="100%" height="auto" viewBox="0 0 1224 285" fill="none" xmlns="http://www.w3.org/2000/svg">
<path d="M114.524 99.6371C114.78 94.7731 114.78 90.0371 114.652 87.2211C113.884 76.3411 106.716 68.6611 91.868 68.6611C77.788 68.6611 70.108 76.9811 69.084 86.4531C68.7 89.3971 68.7 95.4131 68.7 101.301H85.468C85.468 97.0771 85.596 93.2371 85.724 90.4211C85.98 86.9651 87.772 84.6611 91.484 84.6611C94.812 84.6611 96.604 86.0691 96.988 89.9091C97.244 91.8291 97.116 100.021 96.732 103.221C96.092 108.213 94.3 110.517 88.668 111.029H78.812V127.029C78.812 127.029 87.644 127.157 88.156 127.157C94.684 127.541 97.244 129.845 97.756 135.477C98.012 138.933 98.14 145.205 97.756 151.349C97.5 155.701 95.324 157.877 91.1 157.877C87.644 157.877 85.468 156.341 85.084 153.141C84.444 147.765 84.7 146.485 84.7 139.317H66.78C66.78 146.997 66.908 148.021 67.548 155.445C68.572 166.453 76.636 172.853 91.484 172.853C106.588 172.853 115.548 165.173 116.7 153.141C117.212 147.637 117.212 138.037 116.7 132.917C115.804 123.829 109.532 117.941 98.908 117.173C109.66 116.021 114.012 108.213 114.524 99.6371Z" fill="white"/>
<path d="M80.0281 201.573C80.0281 201.573 77.5981 212.139 77.5981 212.571C77.5981 212.139 75.3661 201.573 75.3661 201.573H72.7381C72.7381 201.573 70.5241 212.139 70.5241 212.571C70.5241 212.139 68.0941 201.573 68.0941 201.573H65.5921L69.0121 215.829H71.6941C71.6941 215.829 74.0161 205.281 74.0161 204.813C74.0341 205.281 76.2661 215.829 76.2661 215.829H78.9661L82.3501 201.573H80.0281ZM88.8421 201.573H86.4121V215.829H88.8421V201.573ZM103.883 201.573H101.633V211.293L96.7729 201.573H94.0909V215.829H96.3409V205.857L101.345 215.829H103.883V201.573ZM115.346 207.891C114.95 207.747 114.104 207.423 113.6 207.261C111.854 206.685 110.99 206.127 110.99 205.011C110.99 204.057 111.638 203.481 113.456 203.481C115.004 203.481 115.724 203.913 116.03 204.795C116.138 205.119 116.192 205.389 116.192 205.695H118.604C118.604 205.155 118.514 204.723 118.388 204.291C117.884 202.527 116.444 201.411 113.51 201.411C110.144 201.411 108.56 202.887 108.56 205.083C108.56 207.189 109.946 208.449 112.088 209.151C112.682 209.349 113.528 209.673 113.888 209.799C115.796 210.465 116.372 211.041 116.372 212.247C116.372 213.327 115.598 213.975 113.78 213.975C112.232 213.975 111.332 213.579 111.062 212.733C110.954 212.391 110.9 211.905 110.9 211.653H108.506C108.506 212.067 108.542 212.733 108.668 213.219C109.1 214.893 110.54 216.009 113.834 216.009C117.164 216.009 118.802 214.425 118.802 212.049C118.802 209.835 117.578 208.665 115.346 207.891Z" fill="white"/>
<g clip-path="url(#clip0_4719_145484)">
<path d="M222.634 34.1171C221.914 34.1171 221.242 34.0211 220.618 33.8291C220.006 33.6371 219.472 33.3491 219.016 32.9651C218.548 32.5811 218.182 32.1191 217.918 31.5791C217.654 31.0271 217.516 30.3911 217.504 29.6711H219.196C219.22 30.6191 219.526 31.3631 220.114 31.9031C220.714 32.4311 221.536 32.6951 222.58 32.6951C223.432 32.6951 224.128 32.4791 224.668 32.0471C225.22 31.6151 225.496 30.9611 225.496 30.0851C225.496 29.2931 225.214 28.6991 224.65 28.3031C224.098 27.8951 223.3 27.6911 222.256 27.6911H221.446V26.3591H222.238C223.198 26.3591 223.918 26.1731 224.398 25.8011C224.89 25.4171 225.136 24.8891 225.136 24.2171C225.136 23.8811 225.064 23.5811 224.92 23.3171C224.788 23.0411 224.596 22.8131 224.344 22.6331C224.104 22.4411 223.822 22.2971 223.498 22.2011C223.174 22.1051 222.826 22.0571 222.454 22.0571C221.998 22.0571 221.596 22.1291 221.248 22.2731C220.9 22.4051 220.6 22.5971 220.348 22.8491C220.108 23.0891 219.922 23.3831 219.79 23.7311C219.658 24.0671 219.592 24.4331 219.592 24.8291H217.918C217.918 24.2291 218.02 23.6771 218.224 23.1731C218.44 22.6691 218.746 22.2371 219.142 21.8771C219.538 21.5051 220.018 21.2171 220.582 21.0131C221.146 20.8091 221.788 20.7071 222.508 20.7071C223.108 20.7071 223.672 20.7911 224.2 20.9591C224.728 21.1151 225.184 21.3431 225.568 21.6431C225.964 21.9431 226.27 22.3151 226.486 22.7591C226.714 23.1911 226.828 23.6831 226.828 24.2351C226.828 24.9551 226.63 25.5311 226.234 25.9631C225.85 26.3951 225.34 26.7131 224.704 26.9171V26.9711C225.604 27.2111 226.258 27.6071 226.666 28.1591C227.074 28.7111 227.278 29.4011 227.278 30.2291C227.278 30.8531 227.158 31.4111 226.918 31.9031C226.678 32.3831 226.348 32.7911 225.928 33.1271C225.52 33.4511 225.028 33.6971 224.452 33.8651C223.888 34.0331 223.282 34.1171 222.634 34.1171ZM238.058 37.2131C236.786 37.2131 235.796 36.9731 235.088 36.4931C234.392 36.0251 233.996 35.3591 233.9 34.4951H235.466C235.538 34.9991 235.802 35.3591 236.258 35.5751C236.714 35.8031 237.302 35.9171 238.022 35.9171C238.886 35.9171 239.546 35.7191 240.002 35.3231C240.47 34.9391 240.704 34.3331 240.704 33.5051V33.2351C240.704 32.9591 240.704 32.7011 240.704 32.4611C240.716 32.2091 240.728 32.0051 240.74 31.8491H240.704C240.368 32.3291 239.972 32.7071 239.516 32.9831C239.072 33.2591 238.508 33.3971 237.824 33.3971C237.212 33.3971 236.642 33.2831 236.114 33.0551C235.598 32.8271 235.154 32.5031 234.782 32.0831C234.41 31.6631 234.116 31.1651 233.9 30.5891C233.696 30.0131 233.594 29.3711 233.594 28.6631C233.594 27.9191 233.702 27.2531 233.918 26.6651C234.134 26.0771 234.428 25.5851 234.8 25.1891C235.184 24.7811 235.628 24.4691 236.132 24.2531C236.636 24.0371 237.17 23.9291 237.734 23.9291C238.43 23.9291 239.012 24.0611 239.48 24.3251C239.96 24.5771 240.356 24.9491 240.668 25.4411H240.704V24.1631H242.36V33.4331C242.36 34.0811 242.258 34.6391 242.054 35.1071C241.85 35.5871 241.562 35.9831 241.19 36.2951C240.806 36.6071 240.35 36.8351 239.822 36.9791C239.294 37.1351 238.706 37.2131 238.058 37.2131ZM237.986 32.0291C238.514 32.0291 238.958 31.9451 239.318 31.7771C239.678 31.5971 239.966 31.3571 240.182 31.0571C240.41 30.7451 240.572 30.3791 240.668 29.9591C240.764 29.5391 240.812 29.0831 240.812 28.5911C240.812 27.5711 240.578 26.7731 240.11 26.1971C239.654 25.6091 238.94 25.3151 237.968 25.3151C237.08 25.3151 236.414 25.6211 235.97 26.2331C235.526 26.8451 235.304 27.6611 235.304 28.6811C235.304 29.7131 235.532 30.5291 235.988 31.1291C236.444 31.7291 237.11 32.0291 237.986 32.0291ZM247.557 34.0271C247.101 34.0271 246.669 33.9671 246.261 33.8471C245.865 33.7391 245.517 33.5711 245.217 33.3431C244.929 33.1151 244.701 32.8331 244.533 32.4971C244.365 32.1491 244.281 31.7411 244.281 31.2731C244.281 30.7091 244.377 30.2471 244.569 29.8871C244.773 29.5271 245.055 29.2391 245.415 29.0231C245.787 28.8071 246.225 28.6391 246.729 28.5191C247.245 28.3991 247.815 28.3031 248.439 28.2311C248.799 28.1951 249.123 28.1471 249.411 28.0871C249.699 28.0271 249.945 27.9491 250.149 27.8531C250.353 27.7451 250.509 27.6131 250.617 27.4571C250.725 27.3011 250.779 27.0971 250.779 26.8451C250.779 26.3171 250.599 25.9031 250.239 25.6031C249.891 25.3031 249.381 25.1531 248.709 25.1531C247.941 25.1531 247.365 25.3211 246.981 25.6571C246.609 25.9931 246.411 26.4491 246.387 27.0251H244.767C244.779 26.6171 244.869 26.2271 245.037 25.8551C245.205 25.4831 245.451 25.1531 245.775 24.8651C246.099 24.5771 246.501 24.3491 246.981 24.1811C247.473 24.0131 248.043 23.9291 248.691 23.9291C249.147 23.9291 249.573 23.9711 249.969 24.0551C250.365 24.1391 250.719 24.2711 251.031 24.4511C251.439 24.6911 251.757 25.0271 251.985 25.4591C252.213 25.8911 252.327 26.4311 252.327 27.0791V31.5971C252.327 31.9811 252.393 32.2691 252.525 32.4611C252.657 32.6531 252.933 32.7011 253.353 32.6051H253.425V33.7751C253.305 33.8111 253.173 33.8411 253.029 33.8651C252.897 33.9011 252.729 33.9191 252.525 33.9191C252.009 33.9191 251.619 33.7991 251.355 33.5591C251.091 33.3071 250.911 32.9231 250.815 32.4071H250.797C250.641 32.6231 250.461 32.8271 250.257 33.0191C250.053 33.2111 249.819 33.3851 249.555 33.5411C249.291 33.6851 248.991 33.7991 248.655 33.8831C248.331 33.9791 247.965 34.0271 247.557 34.0271ZM247.971 32.8031C248.451 32.8031 248.865 32.7251 249.213 32.5691C249.573 32.4011 249.867 32.1971 250.095 31.9571C250.335 31.7051 250.509 31.4291 250.617 31.1291C250.737 30.8291 250.797 30.5411 250.797 30.2651V28.6811C250.557 28.8371 250.239 28.9751 249.843 29.0951C249.459 29.2031 249.069 29.2931 248.673 29.3651C248.277 29.4371 247.917 29.5151 247.593 29.5991C247.269 29.6711 246.993 29.7791 246.765 29.9231C246.537 30.0551 246.357 30.2291 246.225 30.4451C246.105 30.6491 246.045 30.9191 246.045 31.2551C246.045 31.5671 246.099 31.8251 246.207 32.0291C246.315 32.2211 246.459 32.3771 246.639 32.4971C246.819 32.6171 247.023 32.7011 247.251 32.7491C247.491 32.7851 247.731 32.8031 247.971 32.8031ZM254.785 24.1631H256.441V25.6031H256.495C256.795 25.0751 257.191 24.6671 257.683 24.3791C258.175 24.0791 258.733 23.9291 259.357 23.9291C259.945 23.9291 260.455 24.0791 260.887 24.3791C261.331 24.6791 261.655 25.1291 261.859 25.7291H261.895C262.243 25.1171 262.681 24.6671 263.209 24.3791C263.737 24.0791 264.295 23.9291 264.883 23.9291C265.771 23.9291 266.491 24.1991 267.043 24.7391C267.595 25.2791 267.871 26.0591 267.871 27.0791V33.8291H266.197V27.2231C266.197 26.6231 266.029 26.1611 265.693 25.8371C265.357 25.5011 264.943 25.3331 264.451 25.3331C264.139 25.3331 263.845 25.3991 263.569 25.5311C263.293 25.6511 263.053 25.8251 262.849 26.0531C262.645 26.2811 262.477 26.5511 262.345 26.8631C262.225 27.1631 262.165 27.4991 262.165 27.8711V33.8291H260.509V27.2231C260.509 26.6231 260.359 26.1611 260.059 25.8371C259.759 25.5011 259.357 25.3331 258.853 25.3331C258.565 25.3331 258.277 25.3991 257.989 25.5311C257.701 25.6511 257.443 25.8251 257.215 26.0531C256.999 26.2811 256.819 26.5511 256.675 26.8631C256.531 27.1631 256.459 27.4991 256.459 27.8711V33.8291H254.785V24.1631ZM274.307 34.0991C273.563 34.0991 272.897 33.9671 272.309 33.7031C271.733 33.4391 271.241 33.0791 270.833 32.6231C270.425 32.1551 270.113 31.6151 269.897 31.0031C269.693 30.3791 269.591 29.7131 269.591 29.0051C269.591 28.3091 269.699 27.6551 269.915 27.0431C270.143 26.4191 270.455 25.8791 270.851 25.4231C271.259 24.9551 271.745 24.5891 272.309 24.3251C272.885 24.0611 273.521 23.9291 274.217 23.9291C274.937 23.9291 275.573 24.0611 276.125 24.3251C276.677 24.5891 277.145 24.9551 277.529 25.4231C277.925 25.9031 278.219 26.4791 278.411 27.1511C278.615 27.8231 278.717 28.5731 278.717 29.4011H271.301C271.337 29.8691 271.427 30.3071 271.571 30.7151C271.715 31.1231 271.913 31.4771 272.165 31.7771C272.417 32.0771 272.723 32.3111 273.083 32.4791C273.443 32.6471 273.857 32.7311 274.325 32.7311C274.997 32.7311 275.549 32.5871 275.981 32.2991C276.425 31.9991 276.725 31.5911 276.881 31.0751H278.519C278.303 31.9751 277.823 32.7071 277.079 33.2711C276.347 33.8231 275.423 34.0991 274.307 34.0991ZM274.217 25.2251C273.785 25.2251 273.401 25.3031 273.065 25.4591C272.729 25.6031 272.441 25.8071 272.201 26.0711C271.961 26.3351 271.769 26.6471 271.625 27.0071C271.481 27.3671 271.385 27.7631 271.337 28.1951H276.935C276.887 27.2591 276.629 26.5331 276.161 26.0171C275.705 25.4891 275.057 25.2251 274.217 25.2251ZM284.311 24.1631H286.093L287.605 29.5271C287.677 29.8031 287.749 30.1031 287.821 30.4271C287.905 30.7511 287.977 31.0571 288.037 31.3451C288.109 31.6811 288.175 32.0171 288.235 32.3531H288.271C288.331 32.0411 288.397 31.7231 288.469 31.3991C288.529 31.1231 288.595 30.8231 288.667 30.4991C288.751 30.1751 288.835 29.8631 288.919 29.5631L290.377 24.1631H291.961L293.401 29.5631C293.461 29.8271 293.527 30.1211 293.599 30.4451C293.683 30.7571 293.755 31.0571 293.815 31.3451C293.887 31.6811 293.953 32.0231 294.013 32.3711H294.049C294.109 32.0471 294.169 31.7231 294.229 31.3991C294.289 31.1231 294.355 30.8171 294.427 30.4811C294.499 30.1451 294.583 29.8271 294.679 29.5271L296.281 24.1631H298.009L294.859 33.8291H293.185L291.763 28.5011C291.703 28.2611 291.637 27.9911 291.565 27.6911C291.493 27.3791 291.427 27.0851 291.367 26.8091C291.295 26.4851 291.223 26.1491 291.151 25.8011H291.115C291.043 26.1491 290.971 26.4851 290.899 26.8091C290.839 27.0851 290.773 27.3791 290.701 27.6911C290.641 28.0031 290.581 28.2731 290.521 28.5011L289.063 33.8291H287.371L284.311 24.1631ZM299.309 20.4371H301.055V22.3811H299.309V20.4371ZM299.345 24.1631H301.019V33.8291H299.345V24.1631ZM304.974 25.5311H305.028C305.376 25.0391 305.796 24.6491 306.288 24.3611C306.78 24.0731 307.38 23.9291 308.088 23.9291C309.108 23.9291 309.906 24.1991 310.482 24.7391C311.058 25.2791 311.346 26.0591 311.346 27.0791V33.8291H309.69V27.2771C309.69 26.6531 309.498 26.1731 309.114 25.8371C308.742 25.5011 308.226 25.3331 307.566 25.3331C307.194 25.3331 306.846 25.3991 306.522 25.5311C306.21 25.6511 305.94 25.8251 305.712 26.0531C305.484 26.2811 305.304 26.5571 305.172 26.8811C305.052 27.2051 304.992 27.5591 304.992 27.9431V33.8291H303.318V24.1631H304.974V25.5311ZM322.09 34.1171C320.746 34.1171 319.708 33.8291 318.976 33.2531C318.244 32.6651 317.842 31.8791 317.77 30.8951H319.462C319.51 31.2431 319.612 31.5371 319.768 31.7771C319.924 32.0171 320.116 32.2091 320.344 32.3531C320.584 32.4971 320.854 32.6051 321.154 32.6771C321.454 32.7371 321.778 32.7671 322.126 32.7671C322.894 32.7671 323.446 32.6231 323.782 32.3351C324.13 32.0351 324.304 31.6691 324.304 31.2371C324.304 30.7091 324.094 30.3431 323.674 30.1391C323.266 29.9231 322.636 29.7311 321.784 29.5631C321.316 29.4671 320.86 29.3591 320.416 29.2391C319.984 29.1191 319.6 28.9571 319.264 28.7531C318.94 28.5491 318.676 28.2791 318.472 27.9431C318.28 27.6071 318.184 27.1751 318.184 26.6471C318.184 25.8191 318.49 25.1651 319.102 24.6851C319.726 24.1931 320.602 23.9471 321.73 23.9471C322.942 23.9471 323.86 24.2051 324.484 24.7211C325.108 25.2371 325.474 25.9151 325.582 26.7551H323.908C323.836 26.2511 323.62 25.8671 323.26 25.6031C322.912 25.3391 322.39 25.2071 321.694 25.2071C321.034 25.2071 320.554 25.3391 320.254 25.6031C319.966 25.8671 319.822 26.1851 319.822 26.5571C319.822 26.8091 319.876 27.0191 319.984 27.1871C320.104 27.3431 320.272 27.4751 320.488 27.5831C320.716 27.6911 320.986 27.7811 321.298 27.8531C321.622 27.9251 321.988 28.0031 322.396 28.0871C322.876 28.1831 323.332 28.2911 323.764 28.4111C324.196 28.5311 324.574 28.6991 324.898 28.9151C325.234 29.1311 325.498 29.4191 325.69 29.7791C325.882 30.1271 325.978 30.5831 325.978 31.1471C325.978 31.6391 325.882 32.0711 325.69 32.4431C325.498 32.8151 325.228 33.1271 324.88 33.3791C324.544 33.6191 324.136 33.7991 323.656 33.9191C323.176 34.0511 322.654 34.1171 322.09 34.1171ZM327.017 24.1631H328.529V21.1211H330.185V24.1631H332.183V25.4591H330.185V31.5611C330.185 31.9091 330.269 32.1491 330.437 32.2811C330.617 32.4011 330.863 32.4611 331.175 32.4611C331.319 32.4611 331.469 32.4491 331.625 32.4251C331.793 32.3891 331.925 32.3591 332.021 32.3351H332.075V33.7391C331.619 33.8471 331.169 33.9011 330.725 33.9011C330.077 33.8891 329.549 33.7391 329.141 33.4511C328.733 33.1511 328.529 32.6471 328.529 31.9391V25.4591H327.017V24.1631ZM335.578 25.9091H335.632C335.932 25.3451 336.322 24.8951 336.802 24.5591C337.282 24.2111 337.846 24.0371 338.494 24.0371C338.626 24.0371 338.734 24.0491 338.818 24.0731C338.914 24.0851 339.01 24.1091 339.106 24.1451V25.7291H339.052C338.932 25.6931 338.824 25.6691 338.728 25.6571C338.632 25.6451 338.512 25.6391 338.368 25.6391C337.996 25.6391 337.642 25.7111 337.306 25.8551C336.97 25.9871 336.676 26.1791 336.424 26.4311C336.172 26.6831 335.968 26.9891 335.812 27.3491C335.668 27.7091 335.596 28.1171 335.596 28.5731V33.8291H333.922V24.1631H335.578V25.9091ZM344.584 34.0991C343.84 34.0991 343.174 33.9671 342.586 33.7031C342.01 33.4391 341.518 33.0791 341.11 32.6231C340.702 32.1551 340.39 31.6151 340.174 31.0031C339.97 30.3791 339.868 29.7131 339.868 29.0051C339.868 28.3091 339.976 27.6551 340.192 27.0431C340.42 26.4191 340.732 25.8791 341.128 25.4231C341.536 24.9551 342.022 24.5891 342.586 24.3251C343.162 24.0611 343.798 23.9291 344.494 23.9291C345.214 23.9291 345.85 24.0611 346.402 24.3251C346.954 24.5891 347.422 24.9551 347.806 25.4231C348.202 25.9031 348.496 26.4791 348.688 27.1511C348.892 27.8231 348.994 28.5731 348.994 29.4011H341.578C341.614 29.8691 341.704 30.3071 341.848 30.7151C341.992 31.1231 342.19 31.4771 342.442 31.7771C342.694 32.0771 343 32.3111 343.36 32.4791C343.72 32.6471 344.134 32.7311 344.602 32.7311C345.274 32.7311 345.826 32.5871 346.258 32.2991C346.702 31.9991 347.002 31.5911 347.158 31.0751H348.796C348.58 31.9751 348.1 32.7071 347.356 33.2711C346.624 33.8231 345.7 34.0991 344.584 34.0991ZM344.494 25.2251C344.062 25.2251 343.678 25.3031 343.342 25.4591C343.006 25.6031 342.718 25.8071 342.478 26.0711C342.238 26.3351 342.046 26.6471 341.902 27.0071C341.758 27.3671 341.662 27.7631 341.614 28.1951H347.212C347.164 27.2591 346.906 26.5331 346.438 26.0171C345.982 25.4891 345.334 25.2251 344.494 25.2251ZM353.659 34.0271C353.203 34.0271 352.771 33.9671 352.363 33.8471C351.967 33.7391 351.619 33.5711 351.319 33.3431C351.031 33.1151 350.803 32.8331 350.635 32.4971C350.467 32.1491 350.383 31.7411 350.383 31.2731C350.383 30.7091 350.479 30.2471 350.671 29.8871C350.875 29.5271 351.157 29.2391 351.517 29.0231C351.889 28.8071 352.327 28.6391 352.831 28.5191C353.347 28.3991 353.917 28.3031 354.541 28.2311C354.901 28.1951 355.225 28.1471 355.513 28.0871C355.801 28.0271 356.047 27.9491 356.251 27.8531C356.455 27.7451 356.611 27.6131 356.719 27.4571C356.827 27.3011 356.881 27.0971 356.881 26.8451C356.881 26.3171 356.701 25.9031 356.341 25.6031C355.993 25.3031 355.483 25.1531 354.811 25.1531C354.043 25.1531 353.467 25.3211 353.083 25.6571C352.711 25.9931 352.513 26.4491 352.489 27.0251H350.869C350.881 26.6171 350.971 26.2271 351.139 25.8551C351.307 25.4831 351.553 25.1531 351.877 24.8651C352.201 24.5771 352.603 24.3491 353.083 24.1811C353.575 24.0131 354.145 23.9291 354.793 23.9291C355.249 23.9291 355.675 23.9711 356.071 24.0551C356.467 24.1391 356.821 24.2711 357.133 24.4511C357.541 24.6911 357.859 25.0271 358.087 25.4591C358.315 25.8911 358.429 26.4311 358.429 27.0791V31.5971C358.429 31.9811 358.495 32.2691 358.627 32.4611C358.759 32.6531 359.035 32.7011 359.455 32.6051H359.527V33.7751C359.407 33.8111 359.275 33.8411 359.131 33.8651C358.999 33.9011 358.831 33.9191 358.627 33.9191C358.111 33.9191 357.721 33.7991 357.457 33.5591C357.193 33.3071 357.013 32.9231 356.917 32.4071H356.899C356.743 32.6231 356.563 32.8271 356.359 33.0191C356.155 33.2111 355.921 33.3851 355.657 33.5411C355.393 33.6851 355.093 33.7991 354.757 33.8831C354.433 33.9791 354.067 34.0271 353.659 34.0271ZM354.073 32.8031C354.553 32.8031 354.967 32.7251 355.315 32.5691C355.675 32.4011 355.969 32.1971 356.197 31.9571C356.437 31.7051 356.611 31.4291 356.719 31.1291C356.839 30.8291 356.899 30.5411 356.899 30.2651V28.6811C356.659 28.8371 356.341 28.9751 355.945 29.0951C355.561 29.2031 355.171 29.2931 354.775 29.3651C354.379 29.4371 354.019 29.5151 353.695 29.5991C353.371 29.6711 353.095 29.7791 352.867 29.9231C352.639 30.0551 352.459 30.2291 352.327 30.4451C352.207 30.6491 352.147 30.9191 352.147 31.2551C352.147 31.5671 352.201 31.8251 352.309 32.0291C352.417 32.2211 352.561 32.3771 352.741 32.4971C352.921 32.6171 353.125 32.7011 353.353 32.7491C353.593 32.7851 353.833 32.8031 354.073 32.8031ZM363.928 28.7351L362.56 30.0311V33.8291H360.886V20.4371H362.56V26.7911C362.56 26.9591 362.554 27.1931 362.542 27.4931C362.53 27.7811 362.512 28.0451 362.488 28.2851L366.682 24.1631H368.77L365.08 27.6371L369.202 33.8291H367.24L363.928 28.7351ZM375.423 24.1631H377.079V25.6751H377.133C377.493 25.1231 377.919 24.6971 378.411 24.3971C378.915 24.0851 379.515 23.9291 380.211 23.9291C380.823 23.9291 381.381 24.0491 381.885 24.2891C382.401 24.5171 382.839 24.8531 383.199 25.2971C383.571 25.7291 383.859 26.2631 384.063 26.8991C384.267 27.5231 384.369 28.2311 384.369 29.0231C384.369 29.8031 384.273 30.5051 384.081 31.1291C383.889 31.7531 383.607 32.2871 383.235 32.7311C382.875 33.1751 382.431 33.5171 381.903 33.7571C381.387 33.9971 380.805 34.1171 380.157 34.1171C379.497 34.1171 378.909 33.9851 378.393 33.7211C377.877 33.4571 377.451 33.0671 377.115 32.5511H377.061C377.073 32.7191 377.079 32.9411 377.079 33.2171C377.091 33.4811 377.097 33.7991 377.097 34.1711V37.1051H375.423V24.1631ZM379.977 32.7311C380.421 32.7311 380.811 32.6411 381.147 32.4611C381.483 32.2691 381.759 32.0111 381.975 31.6871C382.203 31.3631 382.371 30.9791 382.479 30.5351C382.599 30.0791 382.659 29.5871 382.659 29.0591C382.659 28.5311 382.605 28.0391 382.497 27.5831C382.389 27.1271 382.221 26.7371 381.993 26.4131C381.777 26.0771 381.501 25.8191 381.165 25.6391C380.829 25.4471 380.439 25.3511 379.995 25.3511C379.479 25.3511 379.035 25.4471 378.663 25.6391C378.291 25.8311 377.979 26.0951 377.727 26.4311C377.487 26.7671 377.307 27.1631 377.187 27.6191C377.067 28.0631 377.007 28.5431 377.007 29.0591C377.007 29.5631 377.061 30.0431 377.169 30.4991C377.277 30.9431 377.451 31.3331 377.691 31.6691C377.931 31.9931 378.237 32.2511 378.609 32.4431C378.981 32.6351 379.437 32.7311 379.977 32.7311ZM387.802 25.9091H387.856C388.156 25.3451 388.546 24.8951 389.026 24.5591C389.506 24.2111 390.07 24.0371 390.718 24.0371C390.85 24.0371 390.958 24.0491 391.042 24.0731C391.138 24.0851 391.234 24.1091 391.33 24.1451V25.7291H391.276C391.156 25.6931 391.048 25.6691 390.952 25.6571C390.856 25.6451 390.736 25.6391 390.592 25.6391C390.22 25.6391 389.866 25.7111 389.53 25.8551C389.194 25.9871 388.9 26.1791 388.648 26.4311C388.396 26.6831 388.192 26.9891 388.036 27.3491C387.892 27.7091 387.82 28.1171 387.82 28.5731V33.8291H386.146V24.1631H387.802V25.9091ZM392.93 20.4371H394.676V22.3811H392.93V20.4371ZM392.966 24.1631H394.64V33.8291H392.966V24.1631ZM396.579 32.5331L400.899 26.8991C400.995 26.7671 401.109 26.6291 401.241 26.4851C401.373 26.3291 401.499 26.1851 401.619 26.0531C401.751 25.8971 401.895 25.7411 402.051 25.5851V25.5311C401.823 25.5431 401.601 25.5551 401.385 25.5671C401.193 25.5791 400.995 25.5851 400.791 25.5851C400.587 25.5851 400.401 25.5851 400.233 25.5851H396.903V24.1631H404.157V25.2071L399.765 30.9491C399.657 31.0811 399.531 31.2311 399.387 31.3991C399.255 31.5551 399.123 31.7051 398.991 31.8491C398.847 32.0171 398.697 32.1851 398.541 32.3531V32.4071C398.781 32.4071 399.015 32.4011 399.243 32.3891C399.447 32.3771 399.657 32.3711 399.873 32.3711C400.089 32.3591 400.287 32.3531 400.467 32.3531H404.373V33.8291H396.579V32.5331ZM409.992 34.0991C409.248 34.0991 408.582 33.9671 407.994 33.7031C407.418 33.4391 406.926 33.0791 406.518 32.6231C406.11 32.1551 405.798 31.6151 405.582 31.0031C405.378 30.3791 405.276 29.7131 405.276 29.0051C405.276 28.3091 405.384 27.6551 405.6 27.0431C405.828 26.4191 406.14 25.8791 406.536 25.4231C406.944 24.9551 407.43 24.5891 407.994 24.3251C408.57 24.0611 409.206 23.9291 409.902 23.9291C410.622 23.9291 411.258 24.0611 411.81 24.3251C412.362 24.5891 412.83 24.9551 413.214 25.4231C413.61 25.9031 413.904 26.4791 414.096 27.1511C414.3 27.8231 414.402 28.5731 414.402 29.4011H406.986C407.022 29.8691 407.112 30.3071 407.256 30.7151C407.4 31.1231 407.598 31.4771 407.85 31.7771C408.102 32.0771 408.408 32.3111 408.768 32.4791C409.128 32.6471 409.542 32.7311 410.01 32.7311C410.682 32.7311 411.234 32.5871 411.666 32.2991C412.11 31.9991 412.41 31.5911 412.566 31.0751H414.204C413.988 31.9751 413.508 32.7071 412.764 33.2711C412.032 33.8231 411.108 34.0991 409.992 34.0991ZM409.902 25.2251C409.47 25.2251 409.086 25.3031 408.75 25.4591C408.414 25.6031 408.126 25.8071 407.886 26.0711C407.646 26.3351 407.454 26.6471 407.31 27.0071C407.166 27.3671 407.07 27.7631 407.022 28.1951H412.62C412.572 27.2591 412.314 26.5331 411.846 26.0171C411.39 25.4891 410.742 25.2251 409.902 25.2251Z" fill="white"/>
<path d="M551.532 34.804C551.094 34.804 550.721 34.6506 550.415 34.344C550.108 34.0373 549.955 33.665 549.955 33.2269V25.5518C549.043 25.3065 548.246 24.8421 547.563 24.1587C546.879 23.4753 546.538 22.643 546.538 21.6617C546.538 20.733 546.805 19.9094 547.339 19.1909C547.874 18.4725 548.562 17.9731 549.403 17.6927C549.806 16.8516 550.406 16.1682 551.203 15.6425C552 15.1168 552.898 14.854 553.897 14.854C554.511 14.854 555.084 14.9591 555.619 15.1694C556.153 15.3797 556.64 15.6601 557.078 16.0105C557.253 15.9755 557.419 15.9448 557.577 15.9185C557.735 15.8922 557.91 15.8791 558.103 15.8791C559.259 15.8791 560.249 16.2909 561.073 17.1145C561.897 17.9381 562.308 18.9281 562.308 20.0846C562.308 20.4701 562.229 20.8556 562.072 21.2411C561.914 21.6266 561.713 21.9421 561.467 22.1874H563.885C564.323 22.1874 564.696 22.3407 565.002 22.6474C565.309 22.954 565.462 23.3264 565.462 23.7645V31.1241C565.462 31.5622 565.309 31.9346 565.002 32.2412C564.696 32.5479 564.323 32.7012 563.885 32.7012H560.994V33.2269C560.994 33.665 560.841 34.0373 560.534 34.344C560.227 34.6506 559.855 34.804 559.417 34.804H551.532ZM548.115 21.6617C548.115 22.3276 548.386 22.8883 548.929 23.3439C549.473 23.7995 550.077 24.0273 550.743 24.0273C551.304 24.0273 551.812 23.874 552.268 23.5673C552.723 23.2607 553.188 22.8182 553.661 22.24C554.064 21.7493 554.546 21.3112 555.106 20.9257C555.667 20.5402 556.315 20.3475 557.051 20.3475H560.731C560.731 19.5589 560.499 18.8799 560.035 18.3104C559.57 17.7409 558.926 17.4562 558.103 17.4562C557.787 17.4562 557.476 17.5044 557.17 17.6007L556.71 17.7453L556.21 17.3247C555.895 17.0444 555.536 16.8253 555.133 16.6676C554.73 16.5099 554.318 16.4311 553.897 16.4311C553.284 16.4311 552.697 16.5888 552.136 16.9042C551.575 17.2196 551.164 17.6577 550.901 18.2184L550.533 19.007L549.692 19.2961C549.236 19.4538 548.859 19.7648 548.562 20.2292C548.264 20.6935 548.115 21.171 548.115 21.6617ZM560.994 31.1241H563.885V23.7645H560.994V31.1241Z" fill="white"/>
<path d="M600 51.8291H185V53.8291H600V51.8291Z" fill="white" mask="url(#path-6-inside-2_4719_145484)"/>
<path d="M217.624 128.453C217.624 133.973 218.92 136.037 223.72 140.261C229.24 144.149 229.672 145.397 229.672 149.045C229.672 151.157 228.856 152.213 227.08 152.213C225.304 152.213 224.296 151.349 224.152 149.909C224.056 148.901 224.056 147.461 224.056 146.885H217.528C217.528 147.701 217.528 150.149 217.576 150.725C217.816 154.805 220.456 157.205 225.256 157.637V160.181H228.856V157.589C233.752 156.965 236.392 153.749 236.392 148.565C236.392 142.517 234.952 140.261 230.056 136.421C225.304 132.725 224.2 131.237 224.2 128.501C224.2 126.629 225.064 125.525 226.936 125.525C228.808 125.525 229.432 126.677 229.576 128.069C229.672 128.885 229.72 130.181 229.72 131.189H236.2C236.2 130.277 236.2 128.549 236.056 127.445C235.624 123.509 233.752 120.437 228.856 119.813V118.757H225.256V119.765C220.12 120.341 217.624 123.797 217.624 128.453ZM254.728 119.525H237.64V125.861H247.672L239.56 157.829H246.856L254.728 125.141V119.525ZM274.087 137.861C273.799 134.117 271.255 131.813 267.559 131.813C264.823 131.813 263.383 132.533 262.615 134.069V125.861H273.127V119.525H256.423V141.029H262.903C262.903 139.013 263.575 138.149 265.015 138.149C266.311 138.149 266.839 138.773 266.887 140.405C266.983 142.421 266.983 148.661 266.935 150.053C266.839 151.685 266.359 152.549 264.871 152.549C263.383 152.549 262.903 151.637 262.807 150.005C262.711 148.661 262.711 146.885 262.711 146.501H255.991C256.039 148.277 255.991 149.573 256.087 150.965C256.327 155.429 258.775 158.213 264.871 158.213C271.255 158.213 273.847 154.757 274.087 151.109C274.279 148.037 274.279 140.357 274.087 137.861ZM297.967 137.813C297.247 137.141 295.423 135.509 294.463 134.645C292.303 132.677 290.671 130.805 290.671 128.165C290.671 126.149 291.583 125.285 293.455 125.285C295.279 125.285 295.951 126.245 296.143 127.781C296.287 129.029 296.335 129.941 296.335 130.901H303.055C303.055 129.797 302.863 127.781 302.767 126.965C302.191 122.597 299.599 119.141 293.503 119.141C287.455 119.141 283.807 122.741 283.807 128.309C283.807 133.493 285.631 135.941 289.087 138.965C290.095 139.829 292.063 141.605 292.543 142.037C295.375 144.581 296.335 146.261 296.335 149.477C296.335 151.397 295.327 152.453 293.455 152.453C291.727 152.453 290.863 151.589 290.671 150.341C290.623 150.053 290.575 148.709 290.575 146.933H283.903C283.903 149.237 283.855 149.717 283.999 151.493C284.335 155.765 287.599 158.261 293.647 158.261C299.407 158.261 303.247 154.805 303.247 148.853C303.247 143.717 301.423 141.077 297.967 137.813ZM322.43 137.525C322.43 132.917 320.174 131.093 316.91 131.093C314.27 131.093 312.782 132.101 312.062 133.877V119.477H305.726V157.829H312.062V139.445C312.062 137.621 312.974 136.709 314.222 136.709C315.614 136.709 316.046 137.477 316.046 138.677C316.046 157.109 316.046 157.829 316.094 157.829H322.526C322.478 157.829 322.43 157.109 322.43 137.525ZM341.556 136.469C340.692 133.445 338.388 131.093 333.636 131.093C328.884 131.093 326.532 133.685 325.764 136.325C325.092 138.581 324.756 141.749 324.756 144.581C324.756 147.509 325.14 151.061 325.572 152.645C326.484 155.957 329.22 158.165 333.54 158.165C338.1 158.165 340.548 156.005 341.508 152.645C342.084 150.725 342.372 147.461 342.372 144.581C342.372 141.749 342.132 138.437 341.556 136.469ZM335.844 151.061C335.7 152.069 334.788 152.933 333.588 152.933C332.436 152.933 331.572 152.309 331.38 151.109C331.14 149.861 331.092 146.741 331.092 144.677C331.092 142.709 331.14 139.493 331.38 138.389C331.668 137.189 332.34 136.517 333.588 136.517C334.884 136.517 335.556 137.045 335.844 138.293C336.036 139.301 336.132 142.661 336.132 144.677C336.132 146.693 336.18 148.757 335.844 151.061ZM361.4 134.789C360.488 132.197 358.76 131.093 356.024 131.093C353.576 131.093 351.8 132.005 351.08 133.445L351.032 131.429H344.936V165.653H351.224V156.341C352.088 157.205 353.528 157.877 355.784 157.877C358.76 157.877 360.68 156.437 361.64 153.461C362.216 151.637 362.552 147.989 362.552 144.197C362.552 140.213 362.168 136.853 361.4 134.789ZM355.688 150.869C355.496 151.829 354.824 152.741 353.576 152.741C352.472 152.741 351.752 152.165 351.56 150.917C351.272 149.141 351.176 147.413 351.176 144.389C351.176 141.653 351.368 139.685 351.704 138.293C351.944 137.333 352.472 136.565 353.624 136.565C354.776 136.565 355.352 137.141 355.592 138.005C355.976 139.445 356.072 141.605 356.072 144.389C356.072 147.509 355.976 149.237 355.688 150.869ZM385.746 147.365C385.746 144.965 385.458 142.181 384.594 140.645C383.73 139.061 382.53 138.293 380.658 138.053C382.242 137.765 383.298 137.093 384.018 135.605C384.93 133.685 385.074 131.237 385.074 128.693C385.074 126.293 384.786 123.989 383.874 122.405C382.722 120.389 380.562 119.525 377.346 119.525H365.25V157.829H376.626C380.178 157.829 382.434 157.349 384.066 155.141C385.362 153.365 385.746 150.293 385.746 147.365ZM377.298 134.645C376.866 135.557 376.338 135.941 375.81 135.941H372.114V125.237H375.33C376.338 125.237 376.914 125.813 377.25 126.629C377.538 127.349 377.826 128.885 377.826 130.421C377.826 132.293 377.586 134.021 377.298 134.645ZM375.522 152.117H372.114V141.317H375.666C376.578 141.317 377.298 141.893 377.73 142.661C378.066 143.285 378.258 145.349 378.258 146.597C378.258 147.797 378.114 150.053 377.778 150.773C377.346 151.733 376.434 152.117 375.522 152.117ZM398.974 149.237C398.974 149.909 398.878 150.725 398.686 151.541C398.446 152.597 397.438 153.029 396.478 153.029C395.518 153.029 394.414 152.453 394.27 151.157C394.126 149.957 394.078 148.037 394.078 146.837H404.974C405.214 142.325 404.878 137.717 403.966 135.461C402.862 132.773 400.318 131.093 396.622 131.093C392.062 131.093 390.046 133.157 389.086 135.509C388.366 137.237 387.838 140.789 387.838 144.773C387.838 148.853 388.174 151.877 389.278 154.421C390.43 157.109 393.166 158.165 396.718 158.165C400.27 158.165 402.43 156.725 403.582 154.661C404.59 152.885 404.83 150.005 404.83 149.237H398.974ZM393.982 142.133C393.982 140.309 394.03 138.581 394.366 137.765C394.702 136.853 395.47 136.373 396.526 136.373C397.63 136.373 398.35 136.901 398.59 137.813C398.782 138.437 398.926 139.733 398.926 142.133H393.982ZM417.97 149.237C417.97 149.909 417.874 150.725 417.682 151.541C417.442 152.597 416.434 153.029 415.474 153.029C414.514 153.029 413.41 152.453 413.266 151.157C413.122 149.957 413.074 148.037 413.074 146.837H423.97C424.21 142.325 423.874 137.717 422.962 135.461C421.858 132.773 419.314 131.093 415.618 131.093C411.058 131.093 409.042 133.157 408.082 135.509C407.362 137.237 406.834 140.789 406.834 144.773C406.834 148.853 407.17 151.877 408.274 154.421C409.426 157.109 412.162 158.165 415.714 158.165C419.266 158.165 421.426 156.725 422.578 154.661C423.586 152.885 423.826 150.005 423.826 149.237H417.97ZM412.978 142.133C412.978 140.309 413.026 138.581 413.362 137.765C413.698 136.853 414.466 136.373 415.522 136.373C416.626 136.373 417.346 136.901 417.586 137.813C417.778 138.437 417.922 139.733 417.922 142.133H412.978ZM437.349 131.093C435.141 131.093 432.933 132.533 432.645 134.549V131.429H426.309V157.829H432.741V142.181C432.741 137.861 434.085 136.901 436.293 136.901C437.589 136.901 438.885 137.141 439.653 137.381V131.333C439.125 131.141 438.357 131.093 437.349 131.093ZM461.194 148.901V136.181H450.682V142.229H454.57C454.57 142.229 454.618 148.469 454.57 149.285C454.474 151.253 453.322 152.261 451.546 152.261C449.962 152.261 449.146 151.445 448.81 149.717C448.234 146.693 448.234 141.701 448.234 138.773C448.234 135.653 448.282 131.045 448.762 127.733C449.002 126.101 450.058 125.381 451.402 125.381C452.89 125.381 453.802 126.197 453.946 127.733C454.138 129.701 454.138 132.341 454.138 132.629H461.002C461.002 129.221 460.858 127.301 460.57 125.573C459.994 122.117 457.45 119.189 451.258 119.189C445.21 119.189 442.666 122.597 441.85 125.669C440.986 128.981 440.89 134.789 440.89 138.773C440.89 142.901 441.034 148.277 441.85 151.733C442.858 155.957 445.882 158.165 449.914 158.165C452.842 158.165 454.81 157.349 455.77 156.101L456.106 157.829H461.29C461.29 157.781 461.194 153.317 461.194 148.901ZM474.441 149.237C474.441 149.909 474.345 150.725 474.153 151.541C473.913 152.597 472.905 153.029 471.945 153.029C470.985 153.029 469.881 152.453 469.737 151.157C469.593 149.957 469.545 148.037 469.545 146.837H480.441C480.681 142.325 480.345 137.717 479.433 135.461C478.329 132.773 475.785 131.093 472.089 131.093C467.529 131.093 465.513 133.157 464.553 135.509C463.833 137.237 463.305 140.789 463.305 144.773C463.305 148.853 463.641 151.877 464.745 154.421C465.897 157.109 468.633 158.165 472.185 158.165C475.737 158.165 477.897 156.725 479.049 154.661C480.057 152.885 480.297 150.005 480.297 149.237H474.441ZM469.449 142.133C469.449 140.309 469.497 138.581 469.833 137.765C470.169 136.853 470.937 136.373 471.993 136.373C473.097 136.373 473.817 136.901 474.057 137.813C474.249 138.437 474.393 139.733 474.393 142.133H469.449ZM499.245 153.125C499.245 151.157 499.293 147.941 499.293 145.877C499.341 143.429 499.389 139.445 499.293 137.141C499.149 133.445 496.845 131.093 491.325 131.093C485.469 131.093 483.069 133.733 483.069 138.677V140.645H489.021V139.157C489.021 137.333 489.597 136.421 491.229 136.421C492.429 136.421 493.053 137.093 493.101 138.245C493.149 139.061 493.149 140.693 493.149 141.413C492.093 141.413 490.989 141.557 489.789 141.749C485.373 142.565 482.397 144.965 482.157 148.805C482.061 150.197 482.109 152.453 482.157 153.029C482.349 156.869 485.277 158.021 487.917 158.021C490.269 158.021 492.045 157.397 493.245 155.909C493.245 156.581 493.389 157.829 493.485 157.829H499.581C499.341 157.493 499.245 155.045 499.245 153.125ZM493.149 147.749C493.053 149.093 493.149 149.765 492.909 151.157C492.669 152.501 491.517 153.029 490.509 153.029C489.549 153.029 488.781 152.693 488.637 151.781C488.541 151.013 488.541 150.101 488.541 149.381C488.541 148.277 488.589 147.509 489.405 146.789C490.125 146.165 490.941 146.021 491.613 145.877C492.189 145.781 492.669 145.781 493.149 145.781C493.149 146.165 493.197 147.221 493.149 147.749ZM513.191 131.093C510.983 131.093 508.775 132.533 508.487 134.549V131.429H502.151V157.829H508.583V142.181C508.583 137.861 509.927 136.901 512.135 136.901C513.431 136.901 514.727 137.141 515.495 137.381V131.333C514.967 131.141 514.199 131.093 513.191 131.093ZM238.168 204.901V192.181H227.656V198.229H231.544C231.544 198.229 231.592 204.469 231.544 205.285C231.448 207.253 230.296 208.261 228.52 208.261C226.936 208.261 226.12 207.445 225.784 205.717C225.208 202.693 225.208 197.701 225.208 194.773C225.208 191.653 225.256 187.045 225.736 183.733C225.976 182.101 227.032 181.381 228.376 181.381C229.864 181.381 230.776 182.197 230.92 183.733C231.112 185.701 231.112 188.341 231.112 188.629H237.976C237.976 185.221 237.832 183.301 237.544 181.573C236.968 178.117 234.424 175.189 228.232 175.189C222.184 175.189 219.64 178.597 218.824 181.669C217.96 184.981 217.864 190.789 217.864 194.773C217.864 198.901 218.008 204.277 218.824 207.733C219.832 211.957 222.856 214.165 226.888 214.165C229.816 214.165 231.784 213.349 232.744 212.101L233.08 213.829H238.264C238.264 213.781 238.168 209.317 238.168 204.901ZM247.526 179.557H240.758V186.037H247.526V179.557ZM247.43 211.909V187.429H240.854V212.005C240.854 213.061 240.854 213.829 241.094 213.829H247.574C247.526 213.781 247.43 212.917 247.43 211.909ZM261.706 187.429H258.25V182.533C258.25 181.573 258.826 180.517 260.122 180.517C260.65 180.517 261.418 180.565 262.042 180.661V175.429C261.322 175.333 259.93 175.285 258.25 175.285C253.498 175.285 251.818 178.117 251.818 181.717V187.429H249.466V193.045H251.818V213.829H258.25V193.045H261.706V187.429ZM274.986 187.429H271.29V182.341L265.05 182.485C265.05 182.485 264.858 187.285 264.81 187.429H262.458V193.045H264.714V208.069C264.714 212.197 267.018 214.021 270.954 214.021C272.634 214.021 273.69 213.925 274.698 213.685V208.549C274.218 208.645 273.594 208.693 273.066 208.693C272.058 208.693 271.242 208.405 271.242 206.917V193.045H274.986V187.429ZM298.303 200.005C298.303 200.869 298.255 203.317 298.015 205.285C297.775 207.205 296.623 207.829 295.279 207.829C293.983 207.829 292.831 207.157 292.495 205.429C292.063 203.029 291.967 198.613 291.967 194.437C291.967 189.061 292.063 185.701 292.495 183.925C292.831 182.581 293.695 181.813 295.279 181.813C296.671 181.813 297.583 182.629 297.775 183.829C298.111 185.749 298.255 187.813 298.255 189.589H305.071C305.071 187.237 304.927 185.029 304.687 183.205C304.015 178.117 301.327 175.237 295.423 175.237C289.759 175.237 286.687 177.589 285.727 182.149C284.863 186.229 284.623 189.349 284.623 194.485C284.623 199.525 285.007 205.285 285.967 208.357C287.023 211.909 289.663 214.261 295.039 214.261C300.943 214.261 303.823 211.669 304.687 207.013C305.119 204.565 305.119 201.301 305.119 200.005H298.303ZM324.076 209.125C324.076 207.157 324.124 203.941 324.124 201.877C324.172 199.429 324.22 195.445 324.124 193.141C323.98 189.445 321.676 187.093 316.156 187.093C310.3 187.093 307.9 189.733 307.9 194.677V196.645H313.852V195.157C313.852 193.333 314.428 192.421 316.06 192.421C317.26 192.421 317.884 193.093 317.932 194.245C317.98 195.061 317.98 196.693 317.98 197.413C316.924 197.413 315.82 197.557 314.62 197.749C310.204 198.565 307.228 200.965 306.988 204.805C306.892 206.197 306.94 208.453 306.988 209.029C307.18 212.869 310.108 214.021 312.748 214.021C315.1 214.021 316.876 213.397 318.076 211.909C318.076 212.581 318.22 213.829 318.316 213.829H324.412C324.172 213.493 324.076 211.045 324.076 209.125ZM317.98 203.749C317.884 205.093 317.98 205.765 317.74 207.157C317.5 208.501 316.348 209.029 315.34 209.029C314.38 209.029 313.612 208.693 313.468 207.781C313.372 207.013 313.372 206.101 313.372 205.381C313.372 204.277 313.42 203.509 314.236 202.789C314.956 202.165 315.772 202.021 316.444 201.877C317.02 201.781 317.5 201.781 317.98 201.781C317.98 202.165 318.028 203.221 317.98 203.749ZM338.023 187.093C335.815 187.093 333.607 188.533 333.319 190.549V187.429H326.983V213.829H333.415V198.181C333.415 193.861 334.759 192.901 336.967 192.901C338.263 192.901 339.559 193.141 340.327 193.381V187.333C339.799 187.141 339.031 187.093 338.023 187.093ZM342.288 191.317C341.52 194.197 341.28 196.837 341.28 200.725C341.28 204.949 341.76 208.453 342.624 210.565C343.584 212.965 345.36 214.021 348 214.021C350.352 214.021 351.936 213.253 352.8 211.909L353.568 213.829H358.944C358.944 213.829 358.752 211.621 358.752 210.133V175.477H352.464V189.349C351.744 187.957 350.016 187.189 348 187.189C345.168 187.189 342.96 188.725 342.288 191.317ZM352.032 194.101C352.32 195.541 352.512 196.981 352.512 200.773C352.512 203.077 352.416 205.477 352.08 207.157C351.888 208.165 351.264 208.933 350.016 208.933C348.72 208.933 348.048 208.309 347.904 207.301C347.664 205.333 347.568 202.981 347.568 200.773C347.568 198.517 347.664 196.261 348 194.341C348.192 193.381 348.864 192.661 350.064 192.661C351.264 192.661 351.84 193.189 352.032 194.101Z" fill="white"/>
</g>
<path d="M185 0.829102H600H185ZM600 284.829H185H600ZM184 284.829V0.829102H186V284.829H184ZM600 0.829102V284.829V0.829102Z" fill="white" mask="url(#path-4-inside-1_4719_145484)"/>
<rect x="0.5" y="1.3291" width="599" height="283" rx="11.5" stroke="white"/>
<path d="M740.7 155.317H711.516C716.636 145.589 739.292 123.189 740.7 101.045C740.828 98.8691 740.956 90.0371 740.828 88.3731C739.932 77.2371 733.916 68.6611 716.892 68.6611C700.252 68.6611 692.188 78.7731 691.804 88.8851C691.676 90.9331 691.676 101.429 691.676 103.477H709.596V91.4451C709.724 86.7091 712.284 84.9171 715.612 84.9171C719.324 84.9171 721.628 86.1971 721.628 92.2131V99.5091C720.988 121.653 698.588 140.469 691.548 155.957V171.829H740.7V155.317Z" fill="white"/>
<path d="M704.028 201.573C704.028 201.573 701.598 212.139 701.598 212.571C701.598 212.139 699.366 201.573 699.366 201.573H696.738C696.738 201.573 694.524 212.139 694.524 212.571C694.524 212.139 692.094 201.573 692.094 201.573H689.592L693.012 215.829H695.694C695.694 215.829 698.016 205.281 698.016 204.813C698.034 205.281 700.266 215.829 700.266 215.829H702.966L706.35 201.573H704.028ZM712.842 201.573H710.412V215.829H712.842V201.573ZM727.883 201.573H725.633V211.293L720.773 201.573H718.091V215.829H720.341V205.857L725.345 215.829H727.883V201.573ZM739.346 207.891C738.95 207.747 738.104 207.423 737.6 207.261C735.854 206.685 734.99 206.127 734.99 205.011C734.99 204.057 735.638 203.481 737.456 203.481C739.004 203.481 739.724 203.913 740.03 204.795C740.138 205.119 740.192 205.389 740.192 205.695H742.604C742.604 205.155 742.514 204.723 742.388 204.291C741.884 202.527 740.444 201.411 737.51 201.411C734.144 201.411 732.56 202.887 732.56 205.083C732.56 207.189 733.946 208.449 736.088 209.151C736.682 209.349 737.528 209.673 737.888 209.799C739.796 210.465 740.372 211.041 740.372 212.247C740.372 213.327 739.598 213.975 737.78 213.975C736.232 213.975 735.332 213.579 735.062 212.733C734.954 212.391 734.9 211.905 734.9 211.653H732.506C732.506 212.067 732.542 212.733 732.668 213.219C733.1 214.893 734.54 216.009 737.834 216.009C741.164 216.009 742.802 214.425 742.802 212.049C742.802 209.835 741.578 208.665 739.346 207.891Z" fill="white"/>
<g clip-path="url(#clip1_4719_145484)">
<path d="M841.72 33.8291H850.72V32.2271H843.844L843.88 32.0831C844.384 30.7511 846.13 29.7791 847.462 28.9691C849.388 27.8711 850.954 27.0431 850.954 24.6671C850.954 22.3991 849.262 20.7251 846.634 20.7251C845.23 20.7251 844.006 21.1571 843.214 22.0031C842.44 22.7951 842.026 23.8211 842.026 25.2611H843.808C843.808 24.1811 844.024 23.4791 844.528 22.9571C844.996 22.4351 845.626 22.1651 846.49 22.1651C848.128 22.1651 849.154 23.1911 849.154 24.7031C849.154 26.1791 848.218 26.8271 846.616 27.7451C845.392 28.4831 844.06 29.2211 843.088 30.3011C842.314 31.1831 841.792 32.2811 841.72 33.8291ZM861.777 37.2131C863.073 37.2131 864.153 36.9251 864.909 36.2951C865.647 35.6651 866.079 34.7111 866.079 33.4331V24.1631H864.423V25.4411H864.387C863.775 24.4691 862.839 23.9291 861.453 23.9291C859.185 23.9291 857.313 25.6931 857.313 28.6631C857.313 31.4711 859.077 33.3971 861.543 33.3971C862.911 33.3971 863.757 32.8031 864.423 31.8491H864.459C864.441 32.1551 864.423 32.6771 864.423 33.2351V33.5051C864.423 35.1431 863.469 35.9171 861.741 35.9171C860.301 35.9171 859.329 35.5031 859.185 34.4951H857.619C857.799 36.2051 859.239 37.2131 861.777 37.2131ZM861.705 32.0291C859.959 32.0291 859.023 30.7331 859.023 28.6811C859.023 26.6471 859.923 25.3151 861.687 25.3151C863.613 25.3151 864.531 26.5571 864.531 28.5911C864.531 30.5531 863.811 32.0291 861.705 32.0291ZM871.276 34.0271C872.914 34.0271 873.904 33.2531 874.516 32.4071H874.534C874.714 33.4331 875.218 33.9191 876.244 33.9191C876.64 33.9191 876.91 33.8471 877.144 33.7751V32.6051H877.072C876.226 32.7851 876.046 32.3711 876.046 31.5971V27.0791C876.046 25.7831 875.56 24.9371 874.75 24.4511C874.138 24.0911 873.328 23.9291 872.41 23.9291C869.8 23.9291 868.558 25.3871 868.486 27.0251H870.106C870.16 25.8731 870.898 25.1531 872.428 25.1531C873.76 25.1531 874.498 25.8011 874.498 26.8451C874.498 27.8351 873.58 28.0691 872.158 28.2311C869.656 28.5371 868 29.0231 868 31.2731C868 33.1271 869.44 34.0271 871.276 34.0271ZM871.69 32.8031C870.718 32.8031 869.764 32.4971 869.764 31.2551C869.764 29.9231 870.808 29.6351 872.392 29.3651C873.184 29.2211 874.03 28.9871 874.516 28.6811V30.2651C874.516 31.3811 873.616 32.8031 871.69 32.8031ZM878.504 33.8291H880.178V27.8711C880.178 26.3951 881.42 25.3331 882.572 25.3331C883.562 25.3331 884.228 26.0351 884.228 27.2231V33.8291H885.884V27.8711C885.884 26.3951 886.946 25.3331 888.17 25.3331C889.142 25.3331 889.916 26.0351 889.916 27.2231V33.8291H891.59V27.0791C891.59 25.0631 890.366 23.9291 888.602 23.9291C887.432 23.9291 886.298 24.5231 885.614 25.7291H885.578C885.182 24.5411 884.246 23.9291 883.076 23.9291C881.834 23.9291 880.808 24.5591 880.214 25.6031H880.16V24.1631H878.504V33.8291ZM898.026 34.0991C900.258 34.0991 901.806 32.8751 902.238 31.0751H900.6C900.294 32.1011 899.376 32.7311 898.044 32.7311C896.172 32.7311 895.146 31.2911 895.02 29.4011H902.436C902.436 27.7631 902.04 26.3771 901.248 25.4231C900.492 24.4871 899.376 23.9291 897.936 23.9291C895.164 23.9291 893.31 26.1971 893.31 29.0051C893.31 31.8311 895.056 34.0991 898.026 34.0991ZM897.936 25.2251C899.61 25.2251 900.564 26.3411 900.654 28.1951H895.056C895.272 26.4851 896.19 25.2251 897.936 25.2251ZM911.09 33.8291H912.782L914.24 28.5011C914.474 27.5831 914.834 25.8011 914.834 25.8011H914.87C914.87 25.8011 915.248 27.5651 915.482 28.5011L916.904 33.8291H918.578L921.728 24.1631H920L918.398 29.5271C918.038 30.7151 917.768 32.3711 917.768 32.3711H917.732C917.732 32.3711 917.39 30.5891 917.12 29.5631L915.68 24.1631H914.096L912.638 29.5631C912.314 30.7331 911.99 32.3531 911.99 32.3531H911.954C911.954 32.3531 911.63 30.6251 911.324 29.5271L909.812 24.1631H908.03L911.09 33.8291ZM923.028 22.3811H924.774V20.4371H923.028V22.3811ZM923.064 33.8291H924.738V24.1631H923.064V33.8291ZM928.693 24.1631H927.037V33.8291H928.711V27.9431C928.711 26.3951 929.791 25.3331 931.285 25.3331C932.599 25.3331 933.409 26.0351 933.409 27.2771V33.8291H935.065V27.0791C935.065 25.0631 933.823 23.9291 931.807 23.9291C930.403 23.9291 929.449 24.5591 928.747 25.5311H928.693V24.1631ZM945.809 34.1171C948.077 34.1171 949.697 33.1091 949.697 31.1471C949.697 28.8971 948.041 28.4651 946.115 28.0871C944.477 27.7631 943.541 27.5651 943.541 26.5571C943.541 25.8191 944.099 25.2071 945.413 25.2071C946.799 25.2071 947.483 25.7651 947.627 26.7551H949.301C949.085 25.0811 947.879 23.9471 945.449 23.9471C943.199 23.9471 941.903 24.9911 941.903 26.6471C941.903 28.7711 943.613 29.1671 945.503 29.5631C947.213 29.9051 948.023 30.1751 948.023 31.2371C948.023 32.1011 947.375 32.7671 945.845 32.7671C944.459 32.7671 943.379 32.2991 943.181 30.8951H941.489C941.633 32.8571 943.145 34.1171 945.809 34.1171ZM950.736 25.4591H952.248V31.9391C952.248 33.3611 953.148 33.8831 954.444 33.9011C954.876 33.9011 955.344 33.8471 955.794 33.7391V32.3351H955.74C955.56 32.3891 955.182 32.4611 954.894 32.4611C954.282 32.4611 953.904 32.2631 953.904 31.5611V25.4591H955.902V24.1631H953.904V21.1211H952.248V24.1631H950.736V25.4591ZM959.296 24.1631H957.64V33.8291H959.314V28.5731C959.314 26.7551 960.592 25.6391 962.086 25.6391C962.374 25.6391 962.536 25.6571 962.77 25.7291H962.824V24.1451C962.644 24.0731 962.482 24.0371 962.212 24.0371C960.934 24.0371 959.944 24.7931 959.35 25.9091H959.296V24.1631ZM968.303 34.0991C970.535 34.0991 972.083 32.8751 972.515 31.0751H970.877C970.571 32.1011 969.653 32.7311 968.321 32.7311C966.449 32.7311 965.423 31.2911 965.297 29.4011H972.713C972.713 27.7631 972.317 26.3771 971.525 25.4231C970.769 24.4871 969.653 23.9291 968.213 23.9291C965.441 23.9291 963.587 26.1971 963.587 29.0051C963.587 31.8311 965.333 34.0991 968.303 34.0991ZM968.213 25.2251C969.887 25.2251 970.841 26.3411 970.931 28.1951H965.333C965.549 26.4851 966.467 25.2251 968.213 25.2251ZM977.378 34.0271C979.016 34.0271 980.006 33.2531 980.618 32.4071H980.636C980.816 33.4331 981.32 33.9191 982.346 33.9191C982.742 33.9191 983.012 33.8471 983.246 33.7751V32.6051H983.174C982.328 32.7851 982.148 32.3711 982.148 31.5971V27.0791C982.148 25.7831 981.662 24.9371 980.852 24.4511C980.24 24.0911 979.43 23.9291 978.512 23.9291C975.902 23.9291 974.66 25.3871 974.588 27.0251H976.208C976.262 25.8731 977 25.1531 978.53 25.1531C979.862 25.1531 980.6 25.8011 980.6 26.8451C980.6 27.8351 979.682 28.0691 978.26 28.2311C975.758 28.5371 974.102 29.0231 974.102 31.2731C974.102 33.1271 975.542 34.0271 977.378 34.0271ZM977.792 32.8031C976.82 32.8031 975.866 32.4971 975.866 31.2551C975.866 29.9231 976.91 29.6351 978.494 29.3651C979.286 29.2211 980.132 28.9871 980.618 28.6811V30.2651C980.618 31.3811 979.718 32.8031 977.792 32.8031ZM990.959 33.8291H992.921L988.799 27.6371L992.489 24.1631H990.401L986.207 28.2851C986.243 27.8171 986.279 27.1331 986.279 26.7911V20.4371H984.605V33.8291H986.279V30.0311L987.647 28.7351L990.959 33.8291ZM999.142 37.1051H1000.82V34.1711C1000.82 33.4331 1000.8 32.8931 1000.78 32.5511H1000.83C1001.5 33.5771 1002.56 34.1171 1003.88 34.1171C1006.49 34.1171 1008.09 32.1191 1008.09 29.0231C1008.09 25.8371 1006.4 23.9291 1003.93 23.9291C1002.54 23.9291 1001.57 24.5771 1000.85 25.6751H1000.8V24.1631H999.142V37.1051ZM1003.7 32.7311C1001.55 32.7311 1000.73 31.0931 1000.73 29.0591C1000.73 27.0071 1001.66 25.3511 1003.71 25.3511C1005.5 25.3511 1006.38 26.9351 1006.38 29.0591C1006.38 31.1651 1005.48 32.7311 1003.7 32.7311ZM1011.52 24.1631H1009.86V33.8291H1011.54V28.5731C1011.54 26.7551 1012.82 25.6391 1014.31 25.6391C1014.6 25.6391 1014.76 25.6571 1014.99 25.7291H1015.05V24.1451C1014.87 24.0731 1014.71 24.0371 1014.44 24.0371C1013.16 24.0371 1012.17 24.7931 1011.57 25.9091H1011.52V24.1631ZM1016.65 22.3811H1018.4V20.4371H1016.65V22.3811ZM1016.69 33.8291H1018.36V24.1631H1016.69V33.8291ZM1020.3 33.8291H1028.09V32.3531H1024.19C1023.48 32.3531 1022.26 32.4071 1022.26 32.4071V32.3531C1022.26 32.3531 1023.07 31.4711 1023.48 30.9491L1027.88 25.2071V24.1631H1020.62V25.5851H1023.95C1024.62 25.5851 1025.77 25.5311 1025.77 25.5311V25.5851C1025.77 25.5851 1025.01 26.3951 1024.62 26.8991L1020.3 32.5331V33.8291ZM1033.71 34.0991C1035.94 34.0991 1037.49 32.8751 1037.92 31.0751H1036.29C1035.98 32.1011 1035.06 32.7311 1033.73 32.7311C1031.86 32.7311 1030.83 31.2911 1030.71 29.4011H1038.12C1038.12 27.7631 1037.73 26.3771 1036.93 25.4231C1036.18 24.4871 1035.06 23.9291 1033.62 23.9291C1030.85 23.9291 1029 26.1971 1029 29.0051C1029 31.8311 1030.74 34.0991 1033.71 34.0991ZM1033.62 25.2251C1035.3 25.2251 1036.25 26.3411 1036.34 28.1951H1030.74C1030.96 26.4851 1031.88 25.2251 1033.62 25.2251Z" fill="white"/>
<path fill-rule="evenodd" clip-rule="evenodd" d="M1175.23 35.723L1186.01 33.8213C1186.63 33.7096 1187.09 33.4731 1187.41 33.1118C1187.72 32.7571 1187.87 32.2775 1187.87 31.6732V18.1049C1187.87 17.6385 1187.77 17.2443 1187.58 16.9224C1187.38 16.6006 1187.1 16.3739 1186.75 16.2426C1186.4 16.1046 1185.98 16.0783 1185.5 16.1637L1175.03 18.0063C1174.07 18.1771 1173.35 18.476 1172.87 18.903C1172.37 19.3234 1172.13 20.0165 1172.13 20.9821V32.8753C1172.13 33.5782 1172.25 34.1596 1172.5 34.6194C1172.75 35.0858 1173.11 35.4143 1173.58 35.6048C1174.04 35.7953 1174.59 35.8347 1175.23 35.723ZM1185.33 19.9573V22.0364C1185.33 22.2401 1185.27 22.3944 1185.13 22.4995C1185 22.6047 1184.85 22.6605 1184.68 22.6671C1184.51 22.6671 1184.36 22.6211 1184.24 22.5291C1184.11 22.4306 1184.04 22.2828 1184.04 22.0857V20.7653C1184.04 20.496 1183.89 20.3843 1183.58 20.4303L1182.28 20.6668C1182.07 20.6996 1181.9 20.6635 1181.78 20.5584C1181.66 20.4467 1181.58 20.3088 1181.56 20.1446C1181.52 19.9803 1181.55 19.826 1181.63 19.6814C1181.7 19.5369 1181.83 19.4482 1182.01 19.4154L1184.13 19.041C1184.5 18.9753 1184.8 19.0213 1185.02 19.1789C1185.23 19.3366 1185.33 19.596 1185.33 19.9573ZM1176.04 22.3912V23.6426C1176.04 23.8462 1175.98 24.0039 1175.85 24.1155C1175.72 24.2272 1175.57 24.2863 1175.4 24.2929C1175.23 24.2995 1175.08 24.2502 1174.95 24.1451C1174.81 24.0334 1174.75 23.8659 1174.75 23.6426V21.997C1174.75 21.5372 1174.87 21.1857 1175.11 20.9427C1175.35 20.6931 1175.74 20.519 1176.29 20.4205L1177.31 20.2431C1177.53 20.2037 1177.71 20.2365 1177.85 20.3416C1177.98 20.4467 1178.06 20.5847 1178.09 20.7555C1178.11 20.9197 1178.09 21.0741 1178 21.2186C1177.91 21.3631 1177.75 21.4551 1177.53 21.4945L1176.71 21.6423C1176.42 21.6948 1176.24 21.7967 1176.16 21.9478C1176.08 22.0923 1176.04 22.2401 1176.04 22.3912ZM1184.04 29.5645V28.3131C1184.04 28.1095 1184.11 27.9518 1184.24 27.8402C1184.36 27.7285 1184.51 27.6694 1184.68 27.6628C1184.85 27.6562 1185 27.7088 1185.13 27.8205C1185.27 27.9256 1185.33 28.0898 1185.33 28.3131V29.9587C1185.33 30.4185 1185.21 30.7732 1184.98 31.0229C1184.73 31.2659 1184.34 31.4367 1183.79 31.5352L1182.77 31.7126C1182.55 31.752 1182.37 31.7192 1182.24 31.6141C1182.1 31.5024 1182.02 31.3645 1181.99 31.2002C1181.96 31.036 1181.99 30.8816 1182.08 30.7371C1182.17 30.586 1182.33 30.4941 1182.55 30.4612L1183.37 30.3134C1183.66 30.2609 1183.84 30.159 1183.92 30.0079C1184 29.8569 1184.04 29.7091 1184.04 29.5645ZM1174.75 31.9984V29.9193C1174.75 29.7091 1174.81 29.5547 1174.95 29.4561C1175.08 29.351 1175.23 29.2985 1175.4 29.2985C1175.57 29.2919 1175.72 29.3379 1175.85 29.4364C1175.98 29.5284 1176.04 29.6729 1176.04 29.87V31.1904C1176.04 31.4597 1176.19 31.5714 1176.5 31.5254L1177.8 31.2889C1178.01 31.2561 1178.18 31.2955 1178.31 31.4071C1178.42 31.5123 1178.5 31.6469 1178.53 31.8111C1178.56 31.9754 1178.54 32.1297 1178.46 32.2743C1178.38 32.4188 1178.25 32.5075 1178.06 32.5403L1175.95 32.9147C1175.58 32.9804 1175.28 32.9344 1175.07 32.7768C1174.86 32.6191 1174.75 32.3597 1174.75 31.9984ZM1181.21 24.4367L1182.69 24.1848C1182.82 24.1946 1182.91 24.307 1182.9 24.4367C1182.9 24.4886 1182.88 24.5373 1182.85 24.5758L1181.91 26.2321L1182.5 27.9593C1182.53 28.0853 1182.46 28.2125 1182.34 28.2437C1182.29 28.2561 1182.24 28.2519 1182.19 28.2309L1180.52 27.8393L1178.8 29.0786C1178.74 29.1141 1178.72 29.1141 1178.68 29.1141H1178.68C1178.64 29.1142 1178.6 29.1019 1178.56 29.0787C1178.52 29.0556 1178.5 29.0224 1178.48 28.983C1178.46 28.9436 1178.45 28.8996 1178.45 28.8559L1178.74 26.7566L1177.28 25.6708C1177.24 25.6306 1177.21 25.573 1177.2 25.5108C1177.2 25.4486 1177.22 25.3868 1177.25 25.339C1177.29 25.2997 1177.33 25.2722 1177.38 25.2611L1179.21 24.726L1179.89 22.9788C1179.94 22.8588 1180.07 22.801 1180.18 22.8499C1180.23 22.8693 1180.27 22.904 1180.29 22.9485L1181.21 24.4367Z" fill="white"/>
<path d="M1224 51.8291H809V53.8291H1224V51.8291Z" fill="white" mask="url(#path-17-inside-4_4719_145484)"/>
<path d="M861.688 119.525H855.16V138.245L849.16 119.525H842.488V157.829H849.016V138.725L855.064 157.829H861.688V119.525ZM882.084 119.525H865.14V157.829H872.148V141.845H881.316V135.413H872.148V126.101H882.084V119.525ZM901.506 151.349H891.378V119.525H884.37V157.829H901.506V151.349ZM923.629 148.565L924.877 157.829H931.981L926.269 119.525H916.429L910.045 157.829H917.053L918.397 148.565H923.629ZM919.069 142.901C919.069 142.901 920.797 131.765 920.797 131.573C921.133 129.509 921.229 125.765 921.229 125.765C921.229 125.765 921.325 129.557 921.565 131.573C921.565 131.765 923.005 142.901 923.005 142.901H919.069ZM951.087 151.349H940.959V119.525H933.951V157.829H951.087V151.349ZM970.363 151.349H960.235V119.525H953.227V157.829H970.363V151.349ZM999.926 137.861C999.926 131.861 999.686 125.189 998.198 123.029C996.518 120.533 994.358 119.525 990.278 119.525H980.39V157.829H991.142C995.078 157.829 996.95 156.341 998.198 154.181C999.686 151.637 999.926 145.781 999.926 137.861ZM990.374 152.309H987.302V125.477H990.086C991.478 125.477 992.342 126.149 992.726 127.733C993.062 129.029 993.206 135.941 993.206 137.861C993.206 139.829 993.11 148.805 992.774 150.341C992.438 151.733 991.622 152.309 990.374 152.309ZM1014.44 148.565L1015.68 157.829H1022.79L1017.08 119.525H1007.24L1000.85 157.829H1007.86L1009.2 148.565H1014.44ZM1009.88 142.901C1009.88 142.901 1011.6 131.765 1011.6 131.573C1011.94 129.509 1012.04 125.765 1012.04 125.765C1012.04 125.765 1012.13 129.557 1012.37 131.573C1012.37 131.765 1013.81 142.901 1013.81 142.901H1009.88ZM1036.96 119.525C1036.96 119.525 1032.74 133.493 1032.11 135.509C1031.68 133.541 1027.94 119.525 1027.94 119.525H1020.78L1028.61 143.621V157.829H1035.62V143.477L1043.87 119.525H1036.96ZM860.536 178.981C859.432 176.725 856.936 175.525 854.008 175.525H842.488V213.829H849.448V197.893H851.944L855.784 213.829H863.032L858.376 195.973C859.336 195.637 860.392 194.581 860.968 193.093C861.544 191.701 861.88 189.637 861.88 186.613C861.88 183.205 861.352 180.565 860.536 178.981ZM854.44 190.741C854.248 191.413 853.72 191.845 852.808 191.941C852.568 191.989 849.448 191.989 849.448 191.989V181.909H852.616C853.768 181.909 854.392 182.677 854.632 183.733C854.728 184.213 854.824 185.989 854.824 187.285C854.824 188.437 854.728 190.069 854.44 190.741ZM875.181 205.237C875.181 205.909 875.085 206.725 874.893 207.541C874.653 208.597 873.645 209.029 872.685 209.029C871.725 209.029 870.621 208.453 870.477 207.157C870.333 205.957 870.285 204.037 870.285 202.837H881.181C881.421 198.325 881.085 193.717 880.173 191.461C879.069 188.773 876.525 187.093 872.829 187.093C868.269 187.093 866.253 189.157 865.293 191.509C864.573 193.237 864.045 196.789 864.045 200.773C864.045 204.853 864.381 207.877 865.485 210.421C866.637 213.109 869.373 214.165 872.925 214.165C876.477 214.165 878.637 212.725 879.789 210.661C880.797 208.885 881.037 206.005 881.037 205.237H875.181ZM870.189 198.133C870.189 196.309 870.237 194.581 870.573 193.765C870.909 192.853 871.677 192.373 872.733 192.373C873.837 192.373 874.557 192.901 874.797 193.813C874.989 194.437 875.133 195.733 875.133 198.133H870.189ZM904.795 187.429L902.683 206.821L899.899 187.429H893.323L890.875 206.821L888.427 187.429H881.899L886.651 213.829H894.331C894.331 213.829 896.011 204.469 896.539 201.349C896.587 201.061 896.635 198.613 896.635 198.613C896.635 198.613 896.779 201.061 896.827 201.349C897.355 204.373 898.987 213.829 898.987 213.829H906.571L911.179 187.429H904.795ZM928.636 209.125C928.636 207.157 928.684 203.941 928.684 201.877C928.732 199.429 928.78 195.445 928.684 193.141C928.54 189.445 926.236 187.093 920.716 187.093C914.86 187.093 912.46 189.733 912.46 194.677V196.645H918.412V195.157C918.412 193.333 918.988 192.421 920.62 192.421C921.82 192.421 922.444 193.093 922.492 194.245C922.54 195.061 922.54 196.693 922.54 197.413C921.484 197.413 920.38 197.557 919.18 197.749C914.764 198.565 911.788 200.965 911.548 204.805C911.452 206.197 911.5 208.453 911.548 209.029C911.74 212.869 914.668 214.021 917.308 214.021C919.66 214.021 921.436 213.397 922.636 211.909C922.636 212.581 922.78 213.829 922.876 213.829H928.972C928.732 213.493 928.636 211.045 928.636 209.125ZM922.54 203.749C922.444 205.093 922.54 205.765 922.3 207.157C922.06 208.501 920.908 209.029 919.9 209.029C918.94 209.029 918.172 208.693 918.028 207.781C917.932 207.013 917.932 206.101 917.932 205.381C917.932 204.277 917.98 203.509 918.796 202.789C919.516 202.165 920.332 202.021 921.004 201.877C921.58 201.781 922.06 201.781 922.54 201.781C922.54 202.165 922.588 203.221 922.54 203.749ZM942.583 187.093C940.375 187.093 938.167 188.533 937.879 190.549V187.429H931.543V213.829H937.975V198.181C937.975 193.861 939.319 192.901 941.527 192.901C942.823 192.901 944.119 193.141 944.887 193.381V187.333C944.359 187.141 943.591 187.093 942.583 187.093ZM946.848 191.317C946.08 194.197 945.84 196.837 945.84 200.725C945.84 204.949 946.32 208.453 947.184 210.565C948.144 212.965 949.92 214.021 952.56 214.021C954.912 214.021 956.496 213.253 957.36 211.909L958.128 213.829H963.504C963.504 213.829 963.312 211.621 963.312 210.133V175.477H957.024V189.349C956.304 187.957 954.576 187.189 952.56 187.189C949.728 187.189 947.52 188.725 946.848 191.317ZM956.592 194.101C956.88 195.541 957.072 196.981 957.072 200.773C957.072 203.077 956.976 205.477 956.64 207.157C956.448 208.165 955.824 208.933 954.576 208.933C953.28 208.933 952.608 208.309 952.464 207.301C952.224 205.333 952.128 202.981 952.128 200.773C952.128 198.517 952.224 196.261 952.56 194.341C952.752 193.381 953.424 192.661 954.624 192.661C955.824 192.661 956.4 193.189 956.592 194.101ZM991.858 178.261C990.466 176.437 988.45 175.525 985.474 175.525H974.098V213.829H981.154V199.333C981.154 199.333 984.418 199.381 985.378 199.285C988.258 199.093 990.37 198.325 991.762 196.597C993.202 194.869 993.778 191.989 993.778 187.429C993.778 182.917 993.106 179.845 991.858 178.261ZM986.434 191.557C986.242 192.805 985.426 193.333 983.842 193.333H981.154V182.005H984.034C985.138 182.005 985.954 182.629 986.242 183.445C986.482 184.117 986.722 185.701 986.722 187.717C986.722 189.781 986.674 190.261 986.434 191.557ZM1011.1 209.125C1011.1 207.157 1011.15 203.941 1011.15 201.877C1011.19 199.429 1011.24 195.445 1011.15 193.141C1011 189.445 1008.7 187.093 1003.18 187.093C997.323 187.093 994.923 189.733 994.923 194.677V196.645H1000.87V195.157C1000.87 193.333 1001.45 192.421 1003.08 192.421C1004.28 192.421 1004.91 193.093 1004.95 194.245C1005 195.061 1005 196.693 1005 197.413C1003.95 197.413 1002.84 197.557 1001.64 197.749C997.227 198.565 994.251 200.965 994.011 204.805C993.915 206.197 993.963 208.453 994.011 209.029C994.203 212.869 997.131 214.021 999.771 214.021C1002.12 214.021 1003.9 213.397 1005.1 211.909C1005.1 212.581 1005.24 213.829 1005.34 213.829H1011.43C1011.19 213.493 1011.1 211.045 1011.1 209.125ZM1005 203.749C1004.91 205.093 1005 205.765 1004.76 207.157C1004.52 208.501 1003.37 209.029 1002.36 209.029C1001.4 209.029 1000.63 208.693 1000.49 207.781C1000.39 207.013 1000.39 206.101 1000.39 205.381C1000.39 204.277 1000.44 203.509 1001.26 202.789C1001.98 202.165 1002.79 202.021 1003.47 201.877C1004.04 201.781 1004.52 201.781 1005 201.781C1005 202.165 1005.05 203.221 1005 203.749ZM1029.99 191.893C1029.13 189.157 1027.11 187.093 1022.17 187.093C1018.42 187.093 1015.73 188.773 1014.77 191.605C1013.81 194.485 1013.53 196.789 1013.53 200.629C1013.53 204.613 1014.1 208.597 1014.87 210.325C1015.93 212.725 1018.47 214.165 1022.26 214.165C1026.15 214.165 1028.65 212.437 1029.51 210.229C1030.42 207.925 1030.47 206.821 1030.47 203.221H1024.52C1024.52 204.901 1024.52 205.429 1024.33 206.821C1024.18 207.925 1023.51 208.789 1022.26 208.789C1021.01 208.789 1020.39 208.213 1020.2 206.869C1019.91 204.901 1019.81 202.213 1019.81 200.677C1019.81 198.757 1019.91 196.357 1020.2 194.485C1020.39 193.189 1021.06 192.517 1022.21 192.517C1023.56 192.517 1024.04 193.381 1024.18 194.437C1024.33 195.445 1024.47 196.645 1024.47 198.181H1030.47C1030.47 194.965 1030.33 193.045 1029.99 191.893ZM1045.53 197.029L1050.53 187.429H1044.29L1039.15 197.557V175.477H1032.81V213.829H1039.15V205.909L1041.02 202.885L1044.33 213.829H1050.77L1045.53 197.029Z" fill="white"/>
</g>
<path d="M809 0.829102H1224H809ZM1224 284.829H809H1224ZM808 284.829V0.829102H810V284.829H808ZM1224 0.829102V284.829V0.829102Z" fill="white" mask="url(#path-15-inside-3_4719_145484)"/>
<rect x="624.5" y="1.3291" width="599" height="283" rx="11.5" stroke="white"/>
<defs>
<clipPath id="clip0_4719_145484">
<path d="M185 0.829102H600V284.829H185V0.829102Z" fill="white"/>
</clipPath>
<clipPath id="clip1_4719_145484">
<path d="M809 0.829102H1224V284.829H809V0.829102Z" fill="white"/>
</clipPath>
</defs>
</svg>
