<svg width="33" height="32" viewBox="0 0 33 32" fill="none" xmlns="http://www.w3.org/2000/svg">
<path d="M13.3235 14.9568V20.6218C13.3235 20.8096 13.2492 20.9897 13.1168 21.1225C12.9844 21.2553 12.8049 21.3299 12.6176 21.3299H11.2059C11.0187 21.3299 10.8391 21.2553 10.7067 21.1225C10.5744 20.9897 10.5 20.8096 10.5 20.6218V15.665C10.5 15.4772 10.5744 15.297 10.7067 15.1642C10.8391 15.0314 11.0187 14.9568 11.2059 14.9568H13.3235ZM13.3235 14.9568C14.0724 14.9568 14.7906 14.6584 15.3201 14.1272C15.8496 13.596 16.1471 12.8756 16.1471 12.1244V11.4162C16.1471 11.0406 16.2958 10.6804 16.5606 10.4148C16.8253 10.1492 17.1844 10 17.5588 10C17.9332 10 18.2923 10.1492 18.5571 10.4148C18.8218 10.6804 18.9706 11.0406 18.9706 11.4162V14.9568H21.0882C21.4627 14.9568 21.8217 15.1061 22.0865 15.3716C22.3513 15.6372 22.5 15.9975 22.5 16.3731L21.7941 19.9137C21.6926 20.3481 21.5 20.7211 21.2454 20.9765C20.9908 21.232 20.6879 21.356 20.3824 21.3299H15.4412C14.8795 21.3299 14.3409 21.1061 13.9438 20.7077C13.5466 20.3093 13.3235 19.769 13.3235 19.2056" stroke="white" stroke-opacity="0.45" stroke-width="1.25" stroke-linecap="round" stroke-linejoin="round"/>
<rect x="1" y="0.5" width="31" height="31" rx="15.5" stroke="white" stroke-opacity="0.45"/>
</svg>
