<svg width="229" height="310" viewBox="0 0 229 310" fill="none" xmlns="http://www.w3.org/2000/svg">
<g opacity="0.1">
<path d="M134.156 189.066L114.608 219.2M110.007 193.378L138.757 214.887" stroke="white" stroke-width="6.98696"/>
<path d="M119.29 113.491L99.7414 143.625M95.1408 117.804L123.891 139.313" stroke="white" stroke-width="6.98696"/>
<path d="M184.046 57.5215L164.497 87.6555M159.897 61.8337L188.646 83.3433" stroke="white" stroke-width="6.98696"/>
<path d="M54.8584 256.178L35.8421 286.703M30.7978 260.965L59.9027 281.916" stroke="white" stroke-width="6.98696"/>
<ellipse rx="13.383" ry="14.3043" transform="matrix(-0.992603 0.121403 0.127844 0.991794 193.708 17.9162)" stroke="white" stroke-width="6.98696"/>
<ellipse rx="13.383" ry="14.3043" transform="matrix(-0.992603 0.121403 0.127844 0.991794 200.155 190.051)" stroke="white" stroke-width="6.98696"/>
<path d="M188.593 196.279C179.952 203.141 175.116 205.133 164.6 206.419" stroke="white" stroke-width="4.65798"/>
<path d="M163.822 187.296L164.596 223.829" stroke="white" stroke-width="4.65798"/>
<ellipse rx="13.383" ry="14.3043" transform="matrix(-0.992603 0.121403 0.127844 0.991794 209.879 239.301)" stroke="white" stroke-width="6.98696"/>
<path d="M73.826 265.539L74.3508 304.504" stroke="white" stroke-width="4.65798"/>
<path d="M74.7564 285.863C99.2374 283.869 157.874 272.935 196.571 245.145" stroke="white" stroke-width="4.65798"/>
<path d="M226.817 135.157C189.316 127.735 158.324 114.112 113.443 79.9724" stroke="white" stroke-width="4.65797"/>
<path d="M92.8756 66.2902L119.46 99.7755L133.42 75.7354L92.8756 66.2902Z" fill="white"/>
</g>
</svg>
