<svg width="12" height="13" viewBox="0 0 12 13" fill="none" xmlns="http://www.w3.org/2000/svg">
<path d="M5.99967 9.66667C6.36786 9.66667 6.66634 9.36819 6.66634 9C6.66634 8.63181 6.36786 8.33333 5.99967 8.33333C5.63148 8.33333 5.33301 8.63181 5.33301 9C5.33301 9.36819 5.63148 9.66667 5.99967 9.66667ZM5.99967 9.66667V8.66667M3.33301 5.66667V3.66667C3.33301 2.95942 3.61396 2.28115 4.11406 1.78105C4.61415 1.28095 5.29243 1 5.99967 1C6.70692 1 7.3852 1.28095 7.88529 1.78105C8.38539 2.28115 8.66634 2.95942 8.66634 3.66667V5.66667M2.66634 5.66667H9.33301C10.0694 5.66667 10.6663 6.26362 10.6663 7V11C10.6663 11.7364 10.0694 12.3333 9.33301 12.3333H2.66634C1.92996 12.3333 1.33301 11.7364 1.33301 11V7C1.33301 6.26362 1.92996 5.66667 2.66634 5.66667Z" stroke="white" stroke-opacity="0.75" stroke-width="1.25" stroke-linecap="round" stroke-linejoin="round"/>
</svg>
