<svg width="32" height="32" viewBox="0 0 32 32" fill="none" xmlns="http://www.w3.org/2000/svg">
<path d="M8.224 25.132C8.55401 24.0336 9.22929 23.0709 10.1497 22.3866C11.07 21.7024 12.1865 21.333 13.3333 21.3333H18.6667C19.815 21.3329 20.9328 21.7032 21.8538 22.389C22.7749 23.0749 23.45 24.0397 23.7787 25.14M28 16C28 22.6274 22.6274 28 16 28C9.37258 28 4 22.6274 4 16C4 9.37258 9.37258 4 16 4C22.6274 4 28 9.37258 28 16ZM20 13.3333C20 15.5425 18.2091 17.3333 16 17.3333C13.7909 17.3333 12 15.5425 12 13.3333C12 11.1242 13.7909 9.33333 16 9.33333C18.2091 9.33333 20 11.1242 20 13.3333Z" stroke="white" stroke-width="1.5" stroke-linecap="round" stroke-linejoin="round"/>
</svg>
