<svg width="100%" height="auto" viewBox="0 0 335 163" fill="none" xmlns="http://www.w3.org/2000/svg">
<g clip-path="url(#clip0_2388_31314)">
<path d="M43.8 26.5234H35.16C34.28 28.4434 32.04 32.1234 23.8 32.6834V41.8834L32.6 41.4834V90.4434H43.8V26.5234ZM48.7538 38.2834C48.0338 43.1634 47.9538 51.3234 47.9538 58.4434C47.9538 63.6434 48.3538 73.6434 48.9938 77.9634C50.2738 86.4434 54.4338 91.0834 63.7138 91.0834C72.6738 91.0834 77.2338 86.3634 78.3538 77.9634C79.0738 73.0034 79.3938 63.3234 79.3938 58.4434C79.3938 51.8834 79.0738 43.6434 78.5938 38.2034C78.0338 31.7234 73.2338 25.9634 63.7138 25.9634C53.3938 25.9634 49.7938 31.6434 48.7538 38.2834ZM67.6338 76.7634C67.4738 79.7234 66.2738 81.4034 63.7138 81.4034C61.1538 81.4034 59.9538 79.8034 59.7138 76.7634C59.5538 73.9634 59.3138 64.6834 59.3138 58.5234C59.3138 54.2834 59.5538 46.9234 59.5538 41.0034C59.5538 37.9634 60.9138 36.1234 63.6338 36.1234C66.2738 36.1234 67.5538 37.8034 67.7137 40.9234C67.7938 43.7234 67.8738 51.9634 67.8738 58.2834C67.8738 63.4034 67.7938 74.2034 67.6338 76.7634Z" fill="white"/>
<path d="M38.1123 113.587V110.227H33.7023V111.809H36.4043C36.4043 111.809 36.4183 113.405 36.3903 113.545C36.2083 114.371 35.4663 115.001 34.2763 115.001C33.2963 115.001 32.6943 114.749 32.3163 114.203C31.8683 113.545 31.7423 112.579 31.7423 110.941C31.7423 109.331 31.9383 108.281 32.3303 107.679C32.7083 107.119 33.3103 106.881 34.1503 106.881C34.9343 106.881 35.4803 107.119 35.8023 107.595C36.0963 108.043 36.2643 108.701 36.2643 109.079H38.0563C38.0563 108.589 37.9163 107.623 37.5803 106.951C37.0763 105.957 36.0263 105.215 34.1083 105.215C32.2603 105.215 31.2243 105.985 30.6363 106.895C30.0203 107.861 29.8383 109.191 29.8383 110.913C29.8383 112.915 30.1463 114.203 30.6783 115.043C31.3223 116.051 32.4143 116.583 33.8843 116.583C35.3963 116.583 36.2083 116.051 36.5863 115.491L36.6703 116.443H38.1263C38.1263 116.401 38.1123 114.917 38.1123 113.587ZM46.8892 113.755L47.6592 116.443H49.5632L46.2872 105.355H43.9352L40.4352 116.443H42.3112L43.1232 113.755H46.8892ZM43.6272 112.159C43.6272 112.159 44.8452 108.141 44.8592 108.071C44.8872 107.959 45.0692 107.077 45.0692 107.077C45.0692 107.077 45.2512 107.959 45.2792 108.071C45.3072 108.155 46.4132 112.159 46.4132 112.159H43.6272ZM62.0557 105.355H59.6617L57.1697 113.601L54.7197 105.355H52.1857V116.443H53.9077V108.841L56.1897 116.443H57.9957L60.3197 108.813V116.443H62.0557V105.355ZM72.4428 114.763H67.3888V111.725H72.1628V110.031H67.3888V107.035H72.3868V105.355H65.5688V116.443H72.4428V114.763ZM27.3392 130.269C27.0312 130.157 26.3732 129.905 25.9812 129.779C24.6232 129.331 23.9512 128.897 23.9512 128.029C23.9512 127.287 24.4552 126.839 25.8692 126.839C27.0732 126.839 27.6332 127.175 27.8712 127.861C27.9552 128.113 27.9972 128.323 27.9972 128.561H29.8732C29.8732 128.141 29.8032 127.805 29.7052 127.469C29.3132 126.097 28.1932 125.229 25.9112 125.229C23.2932 125.229 22.0612 126.377 22.0612 128.085C22.0612 129.723 23.1392 130.703 24.8052 131.249C25.2672 131.403 25.9252 131.655 26.2052 131.753C27.6892 132.271 28.1372 132.719 28.1372 133.657C28.1372 134.497 27.5352 135.001 26.1212 135.001C24.9172 135.001 24.2172 134.693 24.0072 134.035C23.9232 133.769 23.8812 133.391 23.8812 133.195H22.0192C22.0192 133.517 22.0472 134.035 22.1452 134.413C22.4812 135.715 23.6012 136.583 26.1632 136.583C28.7532 136.583 30.0272 135.351 30.0272 133.503C30.0272 131.781 29.0752 130.871 27.3392 130.269ZM39.9652 125.355H32.1112V127.021H35.0932V136.443H36.9692V127.021H39.9652V125.355ZM49.8119 126.587C49.4199 125.803 48.6779 125.355 47.4599 125.355H42.6299V136.443H44.4499V131.823H46.8579L48.7899 136.443H50.8199L48.6359 131.417C49.1259 131.319 49.5739 130.969 49.8539 130.437C50.0639 130.017 50.1759 129.401 50.1759 128.561C50.1759 127.665 50.0919 127.119 49.8119 126.587ZM48.1879 129.751C48.0479 130.059 47.6979 130.227 47.2079 130.241H44.4639V127.007H47.0679C47.6979 127.007 48.0899 127.231 48.2439 127.651C48.3139 127.833 48.3419 128.323 48.3419 128.729C48.3419 129.065 48.2859 129.513 48.1879 129.751ZM60.5081 134.763H55.4541V131.725H60.2281V130.031H55.4541V127.035H60.4521V125.355H53.6341V136.443H60.5081V134.763ZM69.1703 133.755L69.9403 136.443H71.8443L68.5683 125.355H66.2163L62.7163 136.443H64.5923L65.4043 133.755H69.1703ZM65.9083 132.159C65.9083 132.159 67.1263 128.141 67.1403 128.071C67.1683 127.959 67.3503 127.077 67.3503 127.077C67.3503 127.077 67.5323 127.959 67.5603 128.071C67.5883 128.155 68.6943 132.159 68.6943 132.159H65.9083ZM78.4008 130.143L82.3908 125.355H80.3188L76.3148 130.073V125.355H74.4668V136.443H76.3148V132.481L77.1268 131.529L80.2908 136.443H82.4748L78.4008 130.143Z" fill="white"/>
<path d="M122.412 30.4434H123.77V20.4054H122.72C122.538 21.8614 121.362 22.3374 120.102 22.3654V23.2614H122.412V30.4434ZM129.672 30.6674C132.178 30.6674 133.606 28.6234 133.606 25.4454C133.606 22.1974 132.08 20.2374 129.686 20.2374C127.306 20.2374 125.752 22.2254 125.752 25.4454C125.752 28.6234 127.208 30.6674 129.672 30.6674ZM129.686 29.5194C127.978 29.5194 127.138 27.9234 127.138 25.4454C127.138 22.9394 127.978 21.3714 129.686 21.3714C131.38 21.3714 132.206 22.9674 132.206 25.4454C132.206 27.9654 131.422 29.5194 129.686 29.5194ZM142.14 33.0754C143.148 33.0754 143.988 32.8514 144.576 32.3614C145.15 31.8714 145.486 31.1294 145.486 30.1354V22.9254H144.198V23.9194H144.17C143.694 23.1634 142.966 22.7434 141.888 22.7434C140.124 22.7434 138.668 24.1154 138.668 26.4254C138.668 28.6094 140.04 30.1074 141.958 30.1074C143.022 30.1074 143.68 29.6454 144.198 28.9034H144.226C144.212 29.1414 144.198 29.5474 144.198 29.9814V30.1914C144.198 31.4654 143.456 32.0674 142.112 32.0674C140.992 32.0674 140.236 31.7454 140.124 30.9614H138.906C139.046 32.2914 140.166 33.0754 142.14 33.0754ZM142.084 29.0434C140.726 29.0434 139.998 28.0354 139.998 26.4394C139.998 24.8574 140.698 23.8214 142.07 23.8214C143.568 23.8214 144.282 24.7874 144.282 26.3694C144.282 27.8954 143.722 29.0434 142.084 29.0434ZM149.529 30.5974C150.803 30.5974 151.573 29.9954 152.049 29.3374H152.063C152.203 30.1354 152.595 30.5134 153.393 30.5134C153.701 30.5134 153.911 30.4574 154.093 30.4014V29.4914H154.037C153.379 29.6314 153.239 29.3094 153.239 28.7074V25.1934C153.239 24.1854 152.861 23.5274 152.231 23.1494C151.755 22.8694 151.125 22.7434 150.411 22.7434C148.381 22.7434 147.415 23.8774 147.359 25.1514H148.619C148.661 24.2554 149.235 23.6954 150.425 23.6954C151.461 23.6954 152.035 24.1994 152.035 25.0114C152.035 25.7814 151.321 25.9634 150.215 26.0894C148.269 26.3274 146.981 26.7054 146.981 28.4554C146.981 29.8974 148.101 30.5974 149.529 30.5974ZM149.851 29.6454C149.095 29.6454 148.353 29.4074 148.353 28.4414C148.353 27.4054 149.165 27.1814 150.397 26.9714C151.013 26.8594 151.671 26.6774 152.049 26.4394V27.6714C152.049 28.5394 151.349 29.6454 149.851 29.6454ZM155.15 30.4434H156.452V25.8094C156.452 24.6614 157.418 23.8354 158.314 23.8354C159.084 23.8354 159.602 24.3814 159.602 25.3054V30.4434H160.89V25.8094C160.89 24.6614 161.716 23.8354 162.668 23.8354C163.424 23.8354 164.026 24.3814 164.026 25.3054V30.4434H165.328V25.1934C165.328 23.6254 164.376 22.7434 163.004 22.7434C162.094 22.7434 161.212 23.2054 160.68 24.1434H160.652C160.344 23.2194 159.616 22.7434 158.706 22.7434C157.74 22.7434 156.942 23.2334 156.48 24.0454H156.438V22.9254H155.15V30.4434ZM170.334 30.6534C172.07 30.6534 173.274 29.7014 173.61 28.3014H172.336C172.098 29.0994 171.384 29.5894 170.348 29.5894C168.892 29.5894 168.094 28.4694 167.996 26.9994H173.764C173.764 25.7254 173.456 24.6474 172.84 23.9054C172.252 23.1774 171.384 22.7434 170.264 22.7434C168.108 22.7434 166.666 24.5074 166.666 26.6914C166.666 28.8894 168.024 30.6534 170.334 30.6534ZM170.264 23.7514C171.566 23.7514 172.308 24.6194 172.378 26.0614H168.024C168.192 24.7314 168.906 23.7514 170.264 23.7514ZM180.495 30.4434H181.811L182.945 26.2994C183.127 25.5854 183.407 24.1994 183.407 24.1994H183.435C183.435 24.1994 183.729 25.5714 183.911 26.2994L185.017 30.4434H186.319L188.769 22.9254H187.425L186.179 27.0974C185.899 28.0214 185.689 29.3094 185.689 29.3094H185.661C185.661 29.3094 185.395 27.9234 185.185 27.1254L184.065 22.9254H182.833L181.699 27.1254C181.447 28.0354 181.195 29.2954 181.195 29.2954H181.167C181.167 29.2954 180.915 27.9514 180.677 27.0974L179.501 22.9254H178.115L180.495 30.4434ZM189.78 21.5394H191.138V20.0274H189.78V21.5394ZM189.808 30.4434H191.11V22.9254H189.808V30.4434ZM194.186 22.9254H192.898V30.4434H194.2V25.8654C194.2 24.6614 195.04 23.8354 196.202 23.8354C197.224 23.8354 197.854 24.3814 197.854 25.3474V30.4434H199.142V25.1934C199.142 23.6254 198.176 22.7434 196.608 22.7434C195.516 22.7434 194.774 23.2334 194.228 23.9894H194.186V22.9254ZM207.499 30.6674C209.263 30.6674 210.523 29.8834 210.523 28.3574C210.523 26.6074 209.235 26.2714 207.737 25.9774C206.463 25.7254 205.735 25.5714 205.735 24.7874C205.735 24.2134 206.169 23.7374 207.191 23.7374C208.269 23.7374 208.801 24.1714 208.913 24.9414H210.215C210.047 23.6394 209.109 22.7574 207.219 22.7574C205.469 22.7574 204.461 23.5694 204.461 24.8574C204.461 26.5094 205.791 26.8174 207.261 27.1254C208.591 27.3914 209.221 27.6014 209.221 28.4274C209.221 29.0994 208.717 29.6174 207.527 29.6174C206.449 29.6174 205.609 29.2534 205.455 28.1614H204.139C204.251 29.6874 205.427 30.6674 207.499 30.6674ZM211.33 23.9334H212.506V28.9734C212.506 30.0794 213.206 30.4854 214.214 30.4994C214.55 30.4994 214.914 30.4574 215.264 30.3734V29.2814H215.222C215.082 29.3234 214.788 29.3794 214.564 29.3794C214.088 29.3794 213.794 29.2254 213.794 28.6794V23.9334H215.348V22.9254H213.794V20.5594H212.506V22.9254H211.33V23.9334ZM217.989 22.9254H216.701V30.4434H218.003V26.3554C218.003 24.9414 218.997 24.0734 220.159 24.0734C220.383 24.0734 220.509 24.0874 220.691 24.1434H220.733V22.9114C220.593 22.8554 220.467 22.8274 220.257 22.8274C219.263 22.8274 218.493 23.4154 218.031 24.2834H217.989V22.9254ZM224.994 30.6534C226.73 30.6534 227.934 29.7014 228.27 28.3014H226.996C226.758 29.0994 226.044 29.5894 225.008 29.5894C223.552 29.5894 222.754 28.4694 222.656 26.9994H228.424C228.424 25.7254 228.116 24.6474 227.5 23.9054C226.912 23.1774 226.044 22.7434 224.924 22.7434C222.768 22.7434 221.326 24.5074 221.326 26.6914C221.326 28.8894 222.684 30.6534 224.994 30.6534ZM224.924 23.7514C226.226 23.7514 226.968 24.6194 227.038 26.0614H222.684C222.852 24.7314 223.566 23.7514 224.924 23.7514ZM232.052 30.5974C233.326 30.5974 234.096 29.9954 234.572 29.3374H234.586C234.726 30.1354 235.118 30.5134 235.916 30.5134C236.224 30.5134 236.434 30.4574 236.616 30.4014V29.4914H236.56C235.902 29.6314 235.762 29.3094 235.762 28.7074V25.1934C235.762 24.1854 235.384 23.5274 234.754 23.1494C234.278 22.8694 233.648 22.7434 232.934 22.7434C230.904 22.7434 229.938 23.8774 229.882 25.1514H231.142C231.184 24.2554 231.758 23.6954 232.948 23.6954C233.984 23.6954 234.558 24.1994 234.558 25.0114C234.558 25.7814 233.844 25.9634 232.738 26.0894C230.792 26.3274 229.504 26.7054 229.504 28.4554C229.504 29.8974 230.624 30.5974 232.052 30.5974ZM232.374 29.6454C231.618 29.6454 230.876 29.4074 230.876 28.4414C230.876 27.4054 231.688 27.1814 232.92 26.9714C233.536 26.8594 234.194 26.6774 234.572 26.4394V27.6714C234.572 28.5394 233.872 29.6454 232.374 29.6454ZM242.615 30.4434H244.141L240.935 25.6274L243.805 22.9254H242.181L238.919 26.1314C238.947 25.7674 238.975 25.2354 238.975 24.9694V20.0274H237.673V30.4434H238.975V27.4894L240.039 26.4814L242.615 30.4434ZM248.98 32.9914H250.282V30.7094C250.282 30.1354 250.268 29.7154 250.254 29.4494H250.296C250.814 30.2474 251.64 30.6674 252.662 30.6674C254.692 30.6674 255.938 29.1134 255.938 26.7054C255.938 24.2274 254.622 22.7434 252.704 22.7434C251.626 22.7434 250.87 23.2474 250.31 24.1014H250.268V22.9254H248.98V32.9914ZM252.522 29.5894C250.856 29.5894 250.212 28.3154 250.212 26.7334C250.212 25.1374 250.94 23.8494 252.536 23.8494C253.922 23.8494 254.608 25.0814 254.608 26.7334C254.608 28.3714 253.908 29.5894 252.522 29.5894ZM258.608 22.9254H257.32V30.4434H258.622V26.3554C258.622 24.9414 259.616 24.0734 260.778 24.0734C261.002 24.0734 261.128 24.0874 261.31 24.1434H261.352V22.9114C261.212 22.8554 261.086 22.8274 260.876 22.8274C259.882 22.8274 259.112 23.4154 258.65 24.2834H258.608V22.9254ZM262.597 21.5394H263.955V20.0274H262.597V21.5394ZM262.625 30.4434H263.927V22.9254H262.625V30.4434ZM265.434 30.4434H271.496V29.2954H268.458C267.912 29.2954 266.96 29.3374 266.96 29.3374V29.2954C266.96 29.2954 267.59 28.6094 267.912 28.2034L271.328 23.7374V22.9254H265.686V24.0314H268.276C268.794 24.0314 269.69 23.9894 269.69 23.9894V24.0314C269.69 24.0314 269.102 24.6614 268.794 25.0534L265.434 29.4354V30.4434ZM275.867 30.6534C277.603 30.6534 278.807 29.7014 279.143 28.3014H277.869C277.631 29.0994 276.917 29.5894 275.881 29.5894C274.425 29.5894 273.627 28.4694 273.529 26.9994H279.297C279.297 25.7254 278.989 24.6474 278.373 23.9054C277.785 23.1774 276.917 22.7434 275.797 22.7434C273.641 22.7434 272.199 24.5074 272.199 26.6914C272.199 28.8894 273.557 30.6534 275.867 30.6534ZM275.797 23.7514C277.099 23.7514 277.841 24.6194 277.911 26.0614H273.557C273.725 24.7314 274.439 23.7514 275.797 23.7514Z" fill="white"/>
<path fill-rule="evenodd" clip-rule="evenodd" d="M301.731 36.3371L312.511 34.4354C313.128 34.3237 313.595 34.0872 313.91 33.7259C314.219 33.3712 314.373 32.8917 314.373 32.2873V18.719C314.373 18.2526 314.274 17.8585 314.077 17.5366C313.88 17.2147 313.604 16.9881 313.25 16.8567C312.895 16.7187 312.478 16.6925 311.998 16.7779L301.534 18.6205C300.575 18.7913 299.852 19.0902 299.366 19.5171C298.873 19.9376 298.627 20.6306 298.627 21.5962V33.4895C298.627 34.1923 298.752 34.7737 299.002 35.2335C299.251 35.6999 299.609 36.0284 300.076 36.2189C300.535 36.4094 301.087 36.4488 301.731 36.3371ZM311.831 20.5715V22.6506C311.831 22.8542 311.765 23.0086 311.634 23.1137C311.502 23.2188 311.351 23.2746 311.18 23.2812C311.01 23.2812 310.862 23.2352 310.737 23.1432C310.606 23.0447 310.54 22.8969 310.54 22.6998V21.3795C310.54 21.1101 310.386 20.9985 310.077 21.0444L308.776 21.2809C308.566 21.3138 308.402 21.2776 308.284 21.1725C308.159 21.0609 308.083 20.9229 308.057 20.7587C308.024 20.5945 308.047 20.4401 308.126 20.2956C308.198 20.1511 308.326 20.0624 308.51 20.0295L310.629 19.6551C311.003 19.5894 311.299 19.6354 311.516 19.793C311.726 19.9507 311.831 20.2102 311.831 20.5715ZM302.539 23.0053V24.2567C302.539 24.4603 302.477 24.618 302.352 24.7297C302.22 24.8413 302.069 24.9005 301.898 24.907C301.728 24.9136 301.577 24.8643 301.445 24.7592C301.314 24.6476 301.248 24.48 301.248 24.2567V22.6112C301.248 22.1513 301.37 21.7999 301.613 21.5568C301.849 21.3072 302.24 21.1331 302.785 21.0346L303.81 20.8572C304.033 20.8178 304.214 20.8507 304.352 20.9558C304.483 21.0609 304.562 21.1988 304.588 21.3696C304.615 21.5338 304.585 21.6882 304.5 21.8327C304.408 21.9772 304.25 22.0692 304.027 22.1086L303.209 22.2564C302.92 22.309 302.736 22.4108 302.657 22.5619C302.578 22.7064 302.539 22.8542 302.539 23.0053ZM310.54 30.1787V28.9273C310.54 28.7236 310.606 28.566 310.737 28.4543C310.862 28.3426 311.01 28.2835 311.18 28.2769C311.351 28.2704 311.502 28.3229 311.634 28.4346C311.765 28.5397 311.831 28.7039 311.831 28.9273V30.5728C311.831 31.0326 311.713 31.3874 311.476 31.637C311.233 31.8801 310.839 32.0508 310.294 32.1494L309.269 32.3267C309.046 32.3662 308.868 32.3333 308.737 32.2282C308.599 32.1165 308.517 31.9786 308.49 31.8144C308.458 31.6501 308.487 31.4958 308.579 31.3512C308.671 31.2002 308.829 31.1082 309.052 31.0753L309.87 30.9275C310.159 30.875 310.343 30.7732 310.422 30.6221C310.501 30.471 310.54 30.3232 310.54 30.1787ZM301.248 32.6125V30.5334C301.248 30.3232 301.314 30.1688 301.445 30.0703C301.577 29.9652 301.728 29.9126 301.898 29.9126C302.069 29.9061 302.22 29.952 302.352 30.0506C302.477 30.1425 302.539 30.2871 302.539 30.4841V31.8045C302.539 32.0738 302.693 32.1855 303.002 32.1395L304.303 31.903C304.513 31.8702 304.68 31.9096 304.805 32.0213C304.923 32.1264 304.999 32.2611 305.032 32.4253C305.058 32.5895 305.035 32.7439 304.963 32.8884C304.884 33.0329 304.749 33.1216 304.559 33.1544L302.45 33.5289C302.076 33.5946 301.783 33.5486 301.573 33.3909C301.357 33.2333 301.248 32.9738 301.248 32.6125ZM307.708 25.0509L309.193 24.7989C309.317 24.8088 309.412 24.9211 309.403 25.0509C309.4 25.1027 309.38 25.1514 309.347 25.19L308.411 26.8462L308.999 28.5735C309.03 28.6995 308.956 28.8266 308.835 28.8578C308.787 28.8703 308.736 28.866 308.69 28.8451L307.018 28.4534L305.3 29.6927C305.244 29.7282 305.223 29.7283 305.181 29.7283H305.18C305.138 29.7283 305.097 29.716 305.061 29.6929C305.025 29.6697 304.996 29.6365 304.977 29.5972C304.958 29.5578 304.95 29.5138 304.954 29.4701L305.244 27.3707L303.784 26.285C303.738 26.2447 303.709 26.1871 303.703 26.1249C303.698 26.0627 303.716 26.0009 303.755 25.9531C303.787 25.9139 303.83 25.8863 303.879 25.8753L305.715 25.3401L306.389 23.593C306.436 23.4729 306.568 23.4151 306.683 23.464C306.73 23.4834 306.768 23.5181 306.794 23.5627L307.708 25.0509Z" fill="white"/>
<rect x="104" y="0.560791" width="230" height="49.7652" stroke="white"/>
<path d="M135.016 69.098H130.12V83.138L125.62 69.098H120.616V97.826H125.512V83.498L130.048 97.826H135.016V69.098ZM150.313 69.098H137.605V97.826H142.861V85.838H149.737V81.014H142.861V74.03H150.313V69.098ZM164.879 92.966H157.283V69.098H152.027V97.826H164.879V92.966ZM181.472 90.878L182.408 97.826H187.736L183.452 69.098H176.072L171.284 97.826H176.54L177.548 90.878H181.472ZM178.052 86.63C178.052 86.63 179.348 78.278 179.348 78.134C179.6 76.586 179.672 73.778 179.672 73.778C179.672 73.778 179.744 76.622 179.924 78.134C179.924 78.278 181.004 86.63 181.004 86.63H178.052ZM193.855 96.35V70.286C193.855 69.638 193.783 69.134 193.747 69.062H188.887C188.995 69.314 188.995 70.178 188.995 70.79V96.458C188.995 97.178 189.067 97.718 189.211 97.826C189.211 97.862 194.035 97.826 194.035 97.826C193.891 97.718 193.855 97.25 193.855 96.35ZM200.719 96.35V70.286C200.719 69.638 200.647 69.134 200.611 69.062H195.751C195.859 69.314 195.859 70.178 195.859 70.79V96.458C195.859 97.178 195.931 97.718 196.075 97.826C196.075 97.862 200.899 97.826 200.899 97.826C200.755 97.718 200.719 97.25 200.719 96.35ZM223.507 82.85C223.507 78.35 223.327 73.346 222.211 71.726C220.951 69.854 219.331 69.098 216.271 69.098H208.855V97.826H216.919C219.871 97.826 221.275 96.71 222.211 95.09C223.327 93.182 223.507 88.79 223.507 82.85ZM216.343 93.686H214.039V73.562H216.127C217.171 73.562 217.819 74.066 218.107 75.254C218.359 76.226 218.467 81.41 218.467 82.85C218.467 84.326 218.395 91.058 218.143 92.21C217.891 93.254 217.279 93.686 216.343 93.686ZM237.731 94.298C237.731 92.822 237.767 90.41 237.767 88.862C237.803 87.026 237.839 84.038 237.767 82.31C237.659 79.538 235.931 77.774 231.791 77.774C227.399 77.774 225.599 79.754 225.599 83.462V84.938H230.063V83.822C230.063 82.454 230.495 81.77 231.719 81.77C232.619 81.77 233.087 82.274 233.123 83.138C233.159 83.75 233.159 84.974 233.159 85.514C232.367 85.514 231.539 85.622 230.639 85.766C227.327 86.378 225.095 88.178 224.915 91.058C224.843 92.102 224.879 93.794 224.915 94.226C225.059 97.106 227.255 97.97 229.235 97.97C230.999 97.97 232.331 97.502 233.231 96.386C233.231 96.89 233.339 97.826 233.411 97.826H237.983C237.803 97.574 237.731 95.738 237.731 94.298ZM233.159 90.266C233.087 91.274 233.159 91.778 232.979 92.822C232.799 93.83 231.935 94.226 231.179 94.226C230.459 94.226 229.883 93.974 229.775 93.29C229.703 92.714 229.703 92.03 229.703 91.49C229.703 90.662 229.739 90.086 230.351 89.546C230.891 89.078 231.503 88.97 232.007 88.862C232.439 88.79 232.799 88.79 233.159 88.79C233.159 89.078 233.195 89.87 233.159 90.266ZM248.239 78.026C248.203 78.638 245.899 90.338 245.827 90.77C245.791 90.374 243.487 78.53 243.415 78.026H238.519L243.235 97.286L241.615 103.694H246.547L253.027 78.026H248.239ZM134.152 115.69C133.324 113.998 131.452 113.098 129.256 113.098H120.616V141.826H125.836V129.874H127.708L130.588 141.826H136.024L132.532 128.434C133.252 128.182 134.044 127.39 134.476 126.274C134.908 125.23 135.16 123.682 135.16 121.414C135.16 118.858 134.764 116.878 134.152 115.69ZM129.58 124.51C129.436 125.014 129.04 125.338 128.356 125.41C128.176 125.446 125.836 125.446 125.836 125.446V117.886H128.212C129.076 117.886 129.544 118.462 129.724 119.254C129.796 119.614 129.868 120.946 129.868 121.918C129.868 122.782 129.796 124.006 129.58 124.51ZM145.136 135.382C145.136 135.886 145.064 136.498 144.92 137.11C144.74 137.902 143.984 138.226 143.264 138.226C142.544 138.226 141.716 137.794 141.608 136.822C141.5 135.922 141.464 134.482 141.464 133.582H149.636C149.816 130.198 149.564 126.742 148.88 125.05C148.052 123.034 146.144 121.774 143.372 121.774C139.952 121.774 138.44 123.322 137.72 125.086C137.18 126.382 136.784 129.046 136.784 132.034C136.784 135.094 137.036 137.362 137.864 139.27C138.728 141.286 140.78 142.078 143.444 142.078C146.108 142.078 147.728 140.998 148.592 139.45C149.348 138.118 149.528 135.958 149.528 135.382H145.136ZM141.392 130.054C141.392 128.686 141.428 127.39 141.68 126.778C141.932 126.094 142.508 125.734 143.3 125.734C144.128 125.734 144.668 126.13 144.848 126.814C144.992 127.282 145.1 128.254 145.1 130.054H141.392ZM167.346 122.026L165.762 136.57L163.674 122.026H158.742L156.906 136.57L155.07 122.026H150.174L153.738 141.826H159.498C159.498 141.826 160.758 134.806 161.154 132.466C161.19 132.25 161.226 130.414 161.226 130.414C161.226 130.414 161.334 132.25 161.37 132.466C161.766 134.734 162.99 141.826 162.99 141.826H168.678L172.134 122.026H167.346ZM185.227 138.298C185.227 136.822 185.263 134.41 185.263 132.862C185.299 131.026 185.335 128.038 185.263 126.31C185.155 123.538 183.427 121.774 179.287 121.774C174.895 121.774 173.095 123.754 173.095 127.462V128.938H177.559V127.822C177.559 126.454 177.991 125.77 179.215 125.77C180.115 125.77 180.583 126.274 180.619 127.138C180.655 127.75 180.655 128.974 180.655 129.514C179.863 129.514 179.035 129.622 178.135 129.766C174.823 130.378 172.591 132.178 172.411 135.058C172.339 136.102 172.375 137.794 172.411 138.226C172.555 141.106 174.751 141.97 176.731 141.97C178.495 141.97 179.827 141.502 180.727 140.386C180.727 140.89 180.835 141.826 180.907 141.826H185.479C185.299 141.574 185.227 139.738 185.227 138.298ZM180.655 134.266C180.583 135.274 180.655 135.778 180.475 136.822C180.295 137.83 179.431 138.226 178.675 138.226C177.955 138.226 177.379 137.974 177.271 137.29C177.199 136.714 177.199 136.03 177.199 135.49C177.199 134.662 177.235 134.086 177.847 133.546C178.387 133.078 178.999 132.97 179.503 132.862C179.935 132.79 180.295 132.79 180.655 132.79C180.655 133.078 180.691 133.87 180.655 134.266ZM195.687 121.774C194.031 121.774 192.375 122.854 192.159 124.366V122.026H187.407V141.826H192.231V130.09C192.231 126.85 193.239 126.13 194.895 126.13C195.867 126.13 196.839 126.31 197.415 126.49V121.954C197.019 121.81 196.443 121.774 195.687 121.774ZM198.886 124.942C198.31 127.102 198.13 129.082 198.13 131.998C198.13 135.166 198.49 137.794 199.138 139.378C199.858 141.178 201.19 141.97 203.17 141.97C204.934 141.97 206.122 141.394 206.77 140.386L207.346 141.826H211.378C211.378 141.826 211.234 140.17 211.234 139.054V113.062H206.518V123.466C205.978 122.422 204.682 121.846 203.17 121.846C201.046 121.846 199.39 122.998 198.886 124.942ZM206.194 127.03C206.41 128.11 206.554 129.19 206.554 132.034C206.554 133.762 206.482 135.562 206.23 136.822C206.086 137.578 205.618 138.154 204.682 138.154C203.71 138.154 203.206 137.686 203.098 136.93C202.918 135.454 202.846 133.69 202.846 132.034C202.846 130.342 202.918 128.65 203.17 127.21C203.314 126.49 203.818 125.95 204.718 125.95C205.618 125.95 206.05 126.346 206.194 127.03Z" fill="white"/>
<rect x="104" y="0.560791" width="230" height="161.765" stroke="white"/>
</g>
<rect x="1" y="0.560791" width="333" height="161.765" rx="11.5" stroke="white"/>
<defs>
<clipPath id="clip0_2388_31314">
<rect x="0.5" y="0.060791" width="334" height="162.765" rx="12" fill="white"/>
</clipPath>
</defs>
</svg>
