<svg width="100%" height="auto" viewBox="0 0 334 180" fill="none" xmlns="http://www.w3.org/2000/svg">
<g clip-path="url(#clip0_4719_146411)">
<path d="M49.14 49.864H42.228C41.524 51.4 39.732 54.344 33.14 54.792V62.152L40.18 61.832V101H49.14V49.864ZM67.5775 49.864H60.6655C59.9615 51.4 58.1695 54.344 51.5775 54.792V62.152L58.6175 61.832V101H67.5775V49.864Z" fill="white"/>
<path d="M42.6396 117.912C42.6396 117.912 40.7496 126.13 40.7496 126.466C40.7496 126.13 39.0136 117.912 39.0136 117.912H36.9696C36.9696 117.912 35.2476 126.13 35.2476 126.466C35.2476 126.13 33.3576 117.912 33.3576 117.912H31.4116L34.0716 129H36.1576C36.1576 129 37.9636 120.796 37.9636 120.432C37.9776 120.796 39.7136 129 39.7136 129H41.8136L44.4456 117.912H42.6396ZM48.9349 117.912H47.0449V129H48.9349V117.912ZM60.0734 117.912H58.3234V125.472L54.5434 117.912H52.4574V129H54.2074V121.244L58.0994 129H60.0734V117.912ZM68.4293 122.826C68.1213 122.714 67.4633 122.462 67.0713 122.336C65.7133 121.888 65.0413 121.454 65.0413 120.586C65.0413 119.844 65.5453 119.396 66.9593 119.396C68.1633 119.396 68.7233 119.732 68.9613 120.418C69.0453 120.67 69.0873 120.88 69.0873 121.118H70.9633C70.9633 120.698 70.8933 120.362 70.7953 120.026C70.4033 118.654 69.2833 117.786 67.0013 117.786C64.3833 117.786 63.1513 118.934 63.1513 120.642C63.1513 122.28 64.2293 123.26 65.8953 123.806C66.3573 123.96 67.0153 124.212 67.2953 124.31C68.7793 124.828 69.2273 125.276 69.2273 126.214C69.2273 127.054 68.6253 127.558 67.2113 127.558C66.0073 127.558 65.3073 127.25 65.0973 126.592C65.0133 126.326 64.9713 125.948 64.9713 125.752H63.1093C63.1093 126.074 63.1373 126.592 63.2353 126.97C63.5713 128.272 64.6913 129.14 67.2533 129.14C69.8433 129.14 71.1173 127.908 71.1173 126.06C71.1173 124.338 70.1653 123.428 68.4293 122.826Z" fill="white"/>
<path d="M121.496 22H122.66V13.396H121.76C121.604 14.644 120.596 15.052 119.516 15.076V15.844H121.496V22ZM126.219 22H127.383V13.396H126.483C126.327 14.644 125.319 15.052 124.239 15.076V15.844H126.219V22ZM135.125 24.256C135.989 24.256 136.709 24.064 137.213 23.644C137.705 23.224 137.993 22.588 137.993 21.736V15.556H136.889V16.408H136.865C136.457 15.76 135.833 15.4 134.909 15.4C133.397 15.4 132.149 16.576 132.149 18.556C132.149 20.428 133.325 21.712 134.969 21.712C135.881 21.712 136.445 21.316 136.889 20.68H136.913C136.901 20.884 136.889 21.232 136.889 21.604V21.784C136.889 22.876 136.253 23.392 135.101 23.392C134.141 23.392 133.493 23.116 133.397 22.444H132.353C132.473 23.584 133.433 24.256 135.125 24.256ZM135.077 20.8C133.913 20.8 133.289 19.936 133.289 18.568C133.289 17.212 133.889 16.324 135.065 16.324C136.349 16.324 136.961 17.152 136.961 18.508C136.961 19.816 136.481 20.8 135.077 20.8ZM141.458 22.132C142.55 22.132 143.21 21.616 143.618 21.052H143.63C143.75 21.736 144.086 22.06 144.77 22.06C145.034 22.06 145.214 22.012 145.37 21.964V21.184H145.322C144.758 21.304 144.638 21.028 144.638 20.512V17.5C144.638 16.636 144.314 16.072 143.774 15.748C143.366 15.508 142.826 15.4 142.214 15.4C140.474 15.4 139.646 16.372 139.598 17.464H140.678C140.714 16.696 141.206 16.216 142.226 16.216C143.114 16.216 143.606 16.648 143.606 17.344C143.606 18.004 142.994 18.16 142.046 18.268C140.378 18.472 139.274 18.796 139.274 20.296C139.274 21.532 140.234 22.132 141.458 22.132ZM141.734 21.316C141.086 21.316 140.45 21.112 140.45 20.284C140.45 19.396 141.146 19.204 142.202 19.024C142.73 18.928 143.294 18.772 143.618 18.568V19.624C143.618 20.368 143.018 21.316 141.734 21.316ZM146.276 22H147.392V18.028C147.392 17.044 148.22 16.336 148.988 16.336C149.648 16.336 150.092 16.804 150.092 17.596V22H151.196V18.028C151.196 17.044 151.904 16.336 152.72 16.336C153.368 16.336 153.884 16.804 153.884 17.596V22H155V17.5C155 16.156 154.184 15.4 153.008 15.4C152.228 15.4 151.472 15.796 151.016 16.6H150.992C150.728 15.808 150.104 15.4 149.324 15.4C148.496 15.4 147.812 15.82 147.416 16.516H147.38V15.556H146.276V22ZM159.291 22.18C160.779 22.18 161.811 21.364 162.099 20.164H161.007C160.803 20.848 160.191 21.268 159.303 21.268C158.055 21.268 157.371 20.308 157.287 19.048H162.231C162.231 17.956 161.967 17.032 161.439 16.396C160.935 15.772 160.191 15.4 159.231 15.4C157.383 15.4 156.147 16.912 156.147 18.784C156.147 20.668 157.311 22.18 159.291 22.18ZM159.231 16.264C160.347 16.264 160.983 17.008 161.043 18.244H157.311C157.455 17.104 158.067 16.264 159.231 16.264ZM168 22H169.128L170.1 18.448C170.256 17.836 170.496 16.648 170.496 16.648H170.52C170.52 16.648 170.772 17.824 170.928 18.448L171.876 22H172.992L175.092 15.556H173.94L172.872 19.132C172.632 19.924 172.452 21.028 172.452 21.028H172.428C172.428 21.028 172.2 19.84 172.02 19.156L171.06 15.556H170.004L169.032 19.156C168.816 19.936 168.6 21.016 168.6 21.016H168.576C168.576 21.016 168.36 19.864 168.156 19.132L167.148 15.556H165.96L168 22ZM175.959 14.368H177.123V13.072H175.959V14.368ZM175.983 22H177.099V15.556H175.983V22ZM179.735 15.556H178.631V22H179.747V18.076C179.747 17.044 180.467 16.336 181.463 16.336C182.339 16.336 182.879 16.804 182.879 17.632V22H183.983V17.5C183.983 16.156 183.155 15.4 181.811 15.4C180.875 15.4 180.239 15.82 179.771 16.468H179.735V15.556ZM191.146 22.192C192.658 22.192 193.738 21.52 193.738 20.212C193.738 18.712 192.634 18.424 191.35 18.172C190.258 17.956 189.634 17.824 189.634 17.152C189.634 16.66 190.006 16.252 190.882 16.252C191.806 16.252 192.262 16.624 192.358 17.284H193.474C193.33 16.168 192.526 15.412 190.906 15.412C189.406 15.412 188.542 16.108 188.542 17.212C188.542 18.628 189.682 18.892 190.942 19.156C192.082 19.384 192.622 19.564 192.622 20.272C192.622 20.848 192.19 21.292 191.17 21.292C190.246 21.292 189.526 20.98 189.394 20.044H188.266C188.362 21.352 189.37 22.192 191.146 22.192ZM194.431 16.42H195.439V20.74C195.439 21.688 196.039 22.036 196.903 22.048C197.191 22.048 197.503 22.012 197.803 21.94V21.004H197.767C197.647 21.04 197.395 21.088 197.203 21.088C196.795 21.088 196.543 20.956 196.543 20.488V16.42H197.875V15.556H196.543V13.528H195.439V15.556H194.431V16.42ZM200.138 15.556H199.034V22H200.15V18.496C200.15 17.284 201.002 16.54 201.998 16.54C202.19 16.54 202.298 16.552 202.454 16.6H202.49V15.544C202.37 15.496 202.262 15.472 202.082 15.472C201.23 15.472 200.57 15.976 200.174 16.72H200.138V15.556ZM206.142 22.18C207.63 22.18 208.662 21.364 208.95 20.164H207.858C207.654 20.848 207.042 21.268 206.154 21.268C204.906 21.268 204.222 20.308 204.138 19.048H209.082C209.082 17.956 208.818 17.032 208.29 16.396C207.786 15.772 207.042 15.4 206.082 15.4C204.234 15.4 202.998 16.912 202.998 18.784C202.998 20.668 204.162 22.18 206.142 22.18ZM206.082 16.264C207.198 16.264 207.834 17.008 207.894 18.244H204.162C204.306 17.104 204.918 16.264 206.082 16.264ZM212.192 22.132C213.284 22.132 213.944 21.616 214.352 21.052H214.364C214.484 21.736 214.82 22.06 215.504 22.06C215.768 22.06 215.948 22.012 216.104 21.964V21.184H216.056C215.492 21.304 215.372 21.028 215.372 20.512V17.5C215.372 16.636 215.048 16.072 214.508 15.748C214.1 15.508 213.56 15.4 212.948 15.4C211.208 15.4 210.38 16.372 210.332 17.464H211.412C211.448 16.696 211.94 16.216 212.96 16.216C213.848 16.216 214.34 16.648 214.34 17.344C214.34 18.004 213.728 18.16 212.78 18.268C211.112 18.472 210.008 18.796 210.008 20.296C210.008 21.532 210.968 22.132 212.192 22.132ZM212.468 21.316C211.82 21.316 211.184 21.112 211.184 20.284C211.184 19.396 211.88 19.204 212.936 19.024C213.464 18.928 214.028 18.772 214.352 18.568V19.624C214.352 20.368 213.752 21.316 212.468 21.316ZM221.246 22H222.554L219.806 17.872L222.266 15.556H220.874L218.078 18.304C218.102 17.992 218.126 17.536 218.126 17.308V13.072H217.01V22H218.126V19.468L219.038 18.604L221.246 22ZM226.702 24.184H227.818V22.228C227.818 21.736 227.806 21.376 227.794 21.148H227.83C228.274 21.832 228.982 22.192 229.858 22.192C231.598 22.192 232.666 20.86 232.666 18.796C232.666 16.672 231.538 15.4 229.894 15.4C228.97 15.4 228.322 15.832 227.842 16.564H227.806V15.556H226.702V24.184ZM229.738 21.268C228.31 21.268 227.758 20.176 227.758 18.82C227.758 17.452 228.382 16.348 229.75 16.348C230.938 16.348 231.526 17.404 231.526 18.82C231.526 20.224 230.926 21.268 229.738 21.268ZM234.954 15.556H233.85V22H234.966V18.496C234.966 17.284 235.818 16.54 236.814 16.54C237.006 16.54 237.114 16.552 237.27 16.6H237.306V15.544C237.186 15.496 237.078 15.472 236.898 15.472C236.046 15.472 235.386 15.976 234.99 16.72H234.954V15.556ZM238.373 14.368H239.537V13.072H238.373V14.368ZM238.397 22H239.513V15.556H238.397V22ZM240.805 22H246.001V21.016H243.397C242.929 21.016 242.113 21.052 242.113 21.052V21.016C242.113 21.016 242.653 20.428 242.929 20.08L245.857 16.252V15.556H241.021V16.504H243.241C243.685 16.504 244.453 16.468 244.453 16.468V16.504C244.453 16.504 243.949 17.044 243.685 17.38L240.805 21.136V22ZM249.748 22.18C251.236 22.18 252.268 21.364 252.556 20.164H251.464C251.26 20.848 250.648 21.268 249.76 21.268C248.512 21.268 247.828 20.308 247.744 19.048H252.688C252.688 17.956 252.424 17.032 251.896 16.396C251.392 15.772 250.648 15.4 249.688 15.4C247.84 15.4 246.604 16.912 246.604 18.784C246.604 20.668 247.768 22.18 249.748 22.18ZM249.688 16.264C250.804 16.264 251.44 17.008 251.5 18.244H247.768C247.912 17.104 248.524 16.264 249.688 16.264Z" fill="white"/>
<path d="M304.276 26.3125C303.911 26.3125 303.601 26.1847 303.346 25.9291C303.09 25.6736 302.962 25.3633 302.962 24.9982V18.6023C302.203 18.3979 301.538 18.0109 300.969 17.4414C300.399 16.8719 300.115 16.1783 300.115 15.3606C300.115 14.5866 300.337 13.9003 300.783 13.3016C301.228 12.7029 301.801 12.2867 302.502 12.0531C302.838 11.3522 303.338 10.7827 304.003 10.3446C304.667 9.90654 305.415 9.6875 306.248 9.6875C306.759 9.6875 307.237 9.77512 307.682 9.95035C308.128 10.1256 308.533 10.3592 308.898 10.6513C309.044 10.6221 309.183 10.5965 309.314 10.5746C309.446 10.5527 309.592 10.5417 309.752 10.5417C310.716 10.5417 311.541 10.8849 312.228 11.5712C312.914 12.2575 313.257 13.0826 313.257 14.0463C313.257 14.3676 313.191 14.6889 313.06 15.0101C312.928 15.3314 312.761 15.5942 312.556 15.7987H314.571C314.936 15.7987 315.247 15.9264 315.502 16.182C315.758 16.4375 315.885 16.7478 315.885 17.1129V23.2459C315.885 23.611 315.758 23.9213 315.502 24.1768C315.247 24.4324 314.936 24.5602 314.571 24.5602H312.162V24.9982C312.162 25.3633 312.034 25.6736 311.779 25.9291C311.523 26.1847 311.213 26.3125 310.848 26.3125H304.276ZM301.429 15.3606C301.429 15.9155 301.655 16.3828 302.108 16.7624C302.561 17.1421 303.064 17.3319 303.619 17.3319C304.087 17.3319 304.51 17.2041 304.89 16.9486C305.269 16.6931 305.656 16.3243 306.051 15.8425C306.387 15.4336 306.788 15.0685 307.255 14.7473C307.723 14.426 308.263 14.2654 308.876 14.2654H311.943C311.943 13.6083 311.749 13.0424 311.362 12.5678C310.975 12.0933 310.439 11.856 309.752 11.856C309.49 11.856 309.23 11.8961 308.975 11.9764L308.592 12.0969L308.175 11.7465C307.912 11.5128 307.613 11.3303 307.277 11.1989C306.941 11.0674 306.598 11.0017 306.248 11.0017C305.737 11.0017 305.248 11.1331 304.78 11.396C304.313 11.6588 303.97 12.0239 303.751 12.4912L303.444 13.1483L302.743 13.3892C302.364 13.5207 302.05 13.7799 301.801 14.1668C301.553 14.5538 301.429 14.9517 301.429 15.3606ZM312.162 23.2459H314.571V17.1129H312.162V23.2459Z" fill="white"/>
<rect x="103.5" y="0.5" width="230" height="35" stroke="white"/>
<path d="M129.11 59.06C129.11 59.06 126.47 67.79 126.08 69.05C125.81 67.82 123.47 59.06 123.47 59.06H119L123.89 74.12V83H128.27V74.03L133.43 59.06H129.11ZM138.492 77.63C138.492 78.05 138.432 78.56 138.312 79.07C138.162 79.73 137.532 80 136.932 80C136.332 80 135.642 79.64 135.552 78.83C135.462 78.08 135.432 76.88 135.432 76.13H142.242C142.392 73.31 142.182 70.43 141.612 69.02C140.922 67.34 139.332 66.29 137.022 66.29C134.172 66.29 132.912 67.58 132.312 69.05C131.862 70.13 131.532 72.35 131.532 74.84C131.532 77.39 131.742 79.28 132.432 80.87C133.152 82.55 134.862 83.21 137.082 83.21C139.302 83.21 140.652 82.31 141.372 81.02C142.002 79.91 142.152 78.11 142.152 77.63H138.492ZM135.372 73.19C135.372 72.05 135.402 70.97 135.612 70.46C135.822 69.89 136.302 69.59 136.962 69.59C137.652 69.59 138.102 69.92 138.252 70.49C138.372 70.88 138.462 71.69 138.462 73.19H135.372ZM154.144 80.06C154.144 78.83 154.174 76.82 154.174 75.53C154.204 74 154.234 71.51 154.174 70.07C154.084 67.76 152.644 66.29 149.194 66.29C145.534 66.29 144.034 67.94 144.034 71.03V72.26H147.754V71.33C147.754 70.19 148.114 69.62 149.134 69.62C149.884 69.62 150.274 70.04 150.304 70.76C150.334 71.27 150.334 72.29 150.334 72.74C149.674 72.74 148.984 72.83 148.234 72.95C145.474 73.46 143.614 74.96 143.464 77.36C143.404 78.23 143.434 79.64 143.464 80C143.584 82.4 145.414 83.12 147.064 83.12C148.534 83.12 149.644 82.73 150.394 81.8C150.394 82.22 150.484 83 150.544 83H154.354C154.204 82.79 154.144 81.26 154.144 80.06ZM150.334 76.7C150.274 77.54 150.334 77.96 150.184 78.83C150.034 79.67 149.314 80 148.684 80C148.084 80 147.604 79.79 147.514 79.22C147.454 78.74 147.454 78.17 147.454 77.72C147.454 77.03 147.484 76.55 147.994 76.1C148.444 75.71 148.954 75.62 149.374 75.53C149.734 75.47 150.034 75.47 150.334 75.47C150.334 75.71 150.364 76.37 150.334 76.7ZM163.01 66.29C161.63 66.29 160.25 67.19 160.07 68.45V66.5H156.11V83H160.13V73.22C160.13 70.52 160.97 69.92 162.35 69.92C163.16 69.92 163.97 70.07 164.45 70.22V66.44C164.12 66.32 163.64 66.29 163.01 66.29ZM166.596 64.07L166.656 64.19L165.516 66.17L167.346 67.46L169.926 64.25V59.06H165.726V64.07H166.596ZM176.86 73.67C176.11 73.28 175.36 72.95 174.61 72.59C173.65 72.14 173.32 71.63 173.32 70.82C173.32 70.13 173.62 69.56 174.55 69.56C175.39 69.56 175.66 70.04 175.72 70.55C175.75 70.67 175.78 71.6 175.78 71.78H179.41C179.41 71.45 179.32 69.71 179.23 69.23C178.84 67.4 177.31 66.26 174.4 66.26C171.22 66.26 169.6 68.12 169.6 70.73C169.6 73.19 170.32 74.72 172.48 75.74C173.08 76.01 173.89 76.4 174.4 76.61C175.54 77.06 175.93 77.63 175.93 78.65C175.93 79.58 175.36 80.03 174.61 80.03C173.89 80.03 173.32 79.73 173.26 79.04C173.23 78.53 173.2 78.02 173.2 77.81H169.48C169.48 78.32 169.51 79.37 169.57 79.91C169.84 82.13 171.34 83.24 174.7 83.24C177.67 83.24 179.74 81.65 179.74 78.53C179.74 76.01 178.96 74.72 176.86 73.67ZM201.838 59.06C201.838 59.06 200.158 74.15 200.158 76.52C200.158 74.15 198.088 59.06 198.088 59.06H193.738C193.738 59.06 191.788 74.15 191.788 76.52C191.788 74.15 190.048 59.06 190.048 59.06H185.578L188.938 83H194.008C194.008 83 195.838 70.58 195.868 68.09C195.988 70.58 197.728 83 197.728 83H202.918L206.188 59.06H201.838ZM216.636 69.65C216.096 67.76 214.656 66.29 211.686 66.29C208.716 66.29 207.246 67.91 206.766 69.56C206.346 70.97 206.136 72.95 206.136 74.72C206.136 76.55 206.376 78.77 206.646 79.76C207.216 81.83 208.926 83.21 211.626 83.21C214.476 83.21 216.006 81.86 216.606 79.76C216.966 78.56 217.146 76.52 217.146 74.72C217.146 72.95 216.996 70.88 216.636 69.65ZM213.066 78.77C212.976 79.4 212.406 79.94 211.656 79.94C210.936 79.94 210.396 79.55 210.276 78.8C210.126 78.02 210.096 76.07 210.096 74.78C210.096 73.55 210.126 71.54 210.276 70.85C210.456 70.1 210.876 69.68 211.656 69.68C212.466 69.68 212.886 70.01 213.066 70.79C213.186 71.42 213.246 73.52 213.246 74.78C213.246 76.04 213.276 77.33 213.066 78.77ZM225.798 66.29C224.418 66.29 223.038 67.19 222.858 68.45V66.5H218.898V83H222.918V73.22C222.918 70.52 223.758 69.92 225.138 69.92C225.948 69.92 226.758 70.07 227.238 70.22V66.44C226.908 66.32 226.428 66.29 225.798 66.29ZM236.009 66.5H233.699V63.32L229.799 63.41C229.799 63.41 229.679 66.41 229.649 66.5H228.179V70.01H229.589V79.4C229.589 81.98 231.029 83.12 233.489 83.12C234.539 83.12 235.199 83.06 235.829 82.91V79.7C235.529 79.76 235.139 79.79 234.809 79.79C234.179 79.79 233.669 79.61 233.669 78.68V70.01H236.009V66.5ZM247.992 70.31C247.992 67.43 246.582 66.29 244.542 66.29C242.892 66.29 241.962 66.92 241.512 68.03V59.03H237.552V83H241.512V71.51C241.512 70.37 242.082 69.8 242.862 69.8C243.732 69.8 244.002 70.28 244.002 71.03C244.002 82.55 244.002 83 244.032 83H248.052C248.022 83 247.992 82.55 247.992 70.31ZM265.116 69.65C264.576 67.76 263.136 66.29 260.166 66.29C257.196 66.29 255.726 67.91 255.246 69.56C254.826 70.97 254.616 72.95 254.616 74.72C254.616 76.55 254.856 78.77 255.126 79.76C255.696 81.83 257.406 83.21 260.106 83.21C262.956 83.21 264.486 81.86 265.086 79.76C265.446 78.56 265.626 76.52 265.626 74.72C265.626 72.95 265.476 70.88 265.116 69.65ZM261.546 78.77C261.456 79.4 260.886 79.94 260.136 79.94C259.416 79.94 258.876 79.55 258.756 78.8C258.606 78.02 258.576 76.07 258.576 74.78C258.576 73.55 258.606 71.54 258.756 70.85C258.936 70.1 259.356 69.68 260.136 69.68C260.946 69.68 261.366 70.01 261.546 70.79C261.666 71.42 261.726 73.52 261.726 74.78C261.726 76.04 261.756 77.33 261.546 78.77ZM274.399 66.5H272.239V63.44C272.239 62.84 272.599 62.18 273.409 62.18C273.739 62.18 274.219 62.21 274.609 62.27V59C274.159 58.94 273.289 58.91 272.239 58.91C269.269 58.91 268.219 60.68 268.219 62.93V66.5H266.749V70.01H268.219V83H272.239V70.01H274.399V66.5ZM132.74 112.46C132.74 110.96 132.56 109.22 132.02 108.26C131.48 107.27 130.73 106.79 129.56 106.64C130.55 106.46 131.21 106.04 131.66 105.11C132.23 103.91 132.32 102.38 132.32 100.79C132.32 99.29 132.14 97.85 131.57 96.86C130.85 95.6 129.5 95.06 127.49 95.06H119.93V119H127.04C129.26 119 130.67 118.7 131.69 117.32C132.5 116.21 132.74 114.29 132.74 112.46ZM127.46 104.51C127.19 105.08 126.86 105.32 126.53 105.32H124.22V98.63H126.23C126.86 98.63 127.22 98.99 127.43 99.5C127.61 99.95 127.79 100.91 127.79 101.87C127.79 103.04 127.64 104.12 127.46 104.51ZM126.35 115.43H124.22V108.68H126.44C127.01 108.68 127.46 109.04 127.73 109.52C127.94 109.91 128.06 111.2 128.06 111.98C128.06 112.73 127.97 114.14 127.76 114.59C127.49 115.19 126.92 115.43 126.35 115.43ZM141.158 113.63C141.158 114.05 141.098 114.56 140.978 115.07C140.828 115.73 140.198 116 139.598 116C138.998 116 138.308 115.64 138.218 114.83C138.128 114.08 138.098 112.88 138.098 112.13H144.908C145.058 109.31 144.848 106.43 144.278 105.02C143.588 103.34 141.998 102.29 139.688 102.29C136.838 102.29 135.578 103.58 134.978 105.05C134.528 106.13 134.198 108.35 134.198 110.84C134.198 113.39 134.408 115.28 135.098 116.87C135.818 118.55 137.528 119.21 139.748 119.21C141.968 119.21 143.318 118.31 144.038 117.02C144.668 115.91 144.818 114.11 144.818 113.63H141.158ZM138.038 109.19C138.038 108.05 138.068 106.97 138.278 106.46C138.488 105.89 138.968 105.59 139.628 105.59C140.318 105.59 140.768 105.92 140.918 106.49C141.038 106.88 141.128 107.69 141.128 109.19H138.038ZM153.18 113.63C153.18 114.05 153.12 114.56 153 115.07C152.85 115.73 152.22 116 151.62 116C151.02 116 150.33 115.64 150.24 114.83C150.15 114.08 150.12 112.88 150.12 112.13H156.93C157.08 109.31 156.87 106.43 156.3 105.02C155.61 103.34 154.02 102.29 151.71 102.29C148.86 102.29 147.6 103.58 147 105.05C146.55 106.13 146.22 108.35 146.22 110.84C146.22 113.39 146.43 115.28 147.12 116.87C147.84 118.55 149.55 119.21 151.77 119.21C153.99 119.21 155.34 118.31 156.06 117.02C156.69 115.91 156.84 114.11 156.84 113.63H153.18ZM150.06 109.19C150.06 108.05 150.09 106.97 150.3 106.46C150.51 105.89 150.99 105.59 151.65 105.59C152.34 105.59 152.79 105.92 152.94 106.49C153.06 106.88 153.15 107.69 153.15 109.19H150.06ZM165.442 102.29C164.062 102.29 162.682 103.19 162.502 104.45V102.5H158.542V119H162.562V109.22C162.562 106.52 163.402 105.92 164.782 105.92C165.592 105.92 166.402 106.07 166.882 106.22V102.44C166.552 102.32 166.072 102.29 165.442 102.29ZM182.785 105.47H179.515V101.78H175.975V105.47H172.645V108.98H175.975V112.7H179.485V108.98H182.785V105.47ZM201.584 95.06H197.504V106.76L193.754 95.06H189.584V119H193.664V107.06L197.444 119H201.584V95.06ZM214.481 95.06H203.891V119H208.271V109.01H214.001V104.99H208.271V99.17H214.481V95.06ZM226.77 114.95H220.44V95.06H216.06V119H226.77V114.95ZM240.897 113.21L241.677 119H246.117L242.547 95.06H236.397L232.407 119H236.787L237.627 113.21H240.897ZM238.047 109.67C238.047 109.67 239.127 102.71 239.127 102.59C239.337 101.3 239.397 98.96 239.397 98.96C239.397 98.96 239.457 101.33 239.607 102.59C239.607 102.71 240.507 109.67 240.507 109.67H238.047ZM258.208 114.95H251.878V95.06H247.498V119H258.208V114.95ZM270.406 114.95H264.076V95.06H259.696V119H270.406V114.95ZM289.183 106.52C289.183 102.77 289.033 98.6 288.103 97.25C287.053 95.69 285.703 95.06 283.153 95.06H276.973V119H283.693C286.153 119 287.323 118.07 288.103 116.72C289.033 115.13 289.183 111.47 289.183 106.52ZM283.213 115.55H281.293V98.78H283.033C283.903 98.78 284.443 99.2 284.683 100.19C284.893 101 284.983 105.32 284.983 106.52C284.983 107.75 284.923 113.36 284.713 114.32C284.503 115.19 283.993 115.55 283.213 115.55ZM298.401 113.21L299.181 119H303.621L300.051 95.06H293.901L289.911 119H294.291L295.131 113.21H298.401ZM295.551 109.67C295.551 109.67 296.631 102.71 296.631 102.59C296.841 101.3 296.901 98.96 296.901 98.96C296.901 98.96 296.961 101.33 297.111 102.59C297.111 102.71 298.011 109.67 298.011 109.67H295.551ZM312.629 95.06C312.629 95.06 309.989 103.79 309.599 105.05C309.329 103.82 306.989 95.06 306.989 95.06H302.519L307.409 110.12V119H311.789V110.03L316.949 95.06H312.629ZM131.21 133.22C130.52 131.81 128.96 131.06 127.13 131.06H119.93V155H124.28V145.04H125.84L128.24 155H132.77L129.86 143.84C130.46 143.63 131.12 142.97 131.48 142.04C131.84 141.17 132.05 139.88 132.05 137.99C132.05 135.86 131.72 134.21 131.21 133.22ZM127.4 140.57C127.28 140.99 126.95 141.26 126.38 141.32C126.23 141.35 124.28 141.35 124.28 141.35V135.05H126.26C126.98 135.05 127.37 135.53 127.52 136.19C127.58 136.49 127.64 137.6 127.64 138.41C127.64 139.13 127.58 140.15 127.4 140.57ZM140.513 149.63C140.513 150.05 140.453 150.56 140.333 151.07C140.183 151.73 139.553 152 138.953 152C138.353 152 137.663 151.64 137.573 150.83C137.483 150.08 137.453 148.88 137.453 148.13H144.263C144.413 145.31 144.203 142.43 143.633 141.02C142.943 139.34 141.353 138.29 139.043 138.29C136.193 138.29 134.933 139.58 134.333 141.05C133.883 142.13 133.553 144.35 133.553 146.84C133.553 149.39 133.763 151.28 134.453 152.87C135.173 154.55 136.883 155.21 139.103 155.21C141.323 155.21 142.673 154.31 143.393 153.02C144.023 151.91 144.173 150.11 144.173 149.63H140.513ZM137.393 145.19C137.393 144.05 137.423 142.97 137.633 142.46C137.843 141.89 138.323 141.59 138.983 141.59C139.673 141.59 140.123 141.92 140.273 142.49C140.393 142.88 140.483 143.69 140.483 145.19H137.393ZM159.172 138.5L157.852 150.62L156.112 138.5H152.002L150.472 150.62L148.942 138.5H144.862L147.832 155H152.632C152.632 155 153.682 149.15 154.012 147.2C154.042 147.02 154.072 145.49 154.072 145.49C154.072 145.49 154.162 147.02 154.192 147.2C154.522 149.09 155.542 155 155.542 155H160.282L163.162 138.5H159.172ZM174.223 152.06C174.223 150.83 174.253 148.82 174.253 147.53C174.283 146 174.313 143.51 174.253 142.07C174.163 139.76 172.723 138.29 169.273 138.29C165.613 138.29 164.113 139.94 164.113 143.03V144.26H167.833V143.33C167.833 142.19 168.193 141.62 169.213 141.62C169.963 141.62 170.353 142.04 170.383 142.76C170.413 143.27 170.413 144.29 170.413 144.74C169.753 144.74 169.063 144.83 168.313 144.95C165.553 145.46 163.693 146.96 163.543 149.36C163.483 150.23 163.513 151.64 163.543 152C163.663 154.4 165.493 155.12 167.143 155.12C168.613 155.12 169.723 154.73 170.473 153.8C170.473 154.22 170.563 155 170.623 155H174.433C174.283 154.79 174.223 153.26 174.223 152.06ZM170.413 148.7C170.353 149.54 170.413 149.96 170.263 150.83C170.113 151.67 169.393 152 168.763 152C168.163 152 167.683 151.79 167.593 151.22C167.533 150.74 167.533 150.17 167.533 149.72C167.533 149.03 167.563 148.55 168.073 148.1C168.523 147.71 169.033 147.62 169.453 147.53C169.813 147.47 170.113 147.47 170.413 147.47C170.413 147.71 170.443 148.37 170.413 148.7ZM183.089 138.29C181.709 138.29 180.329 139.19 180.149 140.45V138.5H176.189V155H180.209V145.22C180.209 142.52 181.049 141.92 182.429 141.92C183.239 141.92 184.049 142.07 184.529 142.22V138.44C184.199 138.32 183.719 138.29 183.089 138.29ZM185.905 140.93C185.425 142.73 185.275 144.38 185.275 146.81C185.275 149.45 185.575 151.64 186.115 152.96C186.715 154.46 187.825 155.12 189.475 155.12C190.945 155.12 191.935 154.64 192.475 153.8L192.955 155H196.315C196.315 155 196.195 153.62 196.195 152.69V131.03H192.265V139.7C191.815 138.83 190.735 138.35 189.475 138.35C187.705 138.35 186.325 139.31 185.905 140.93ZM191.995 142.67C192.175 143.57 192.295 144.47 192.295 146.84C192.295 148.28 192.235 149.78 192.025 150.83C191.905 151.46 191.515 151.94 190.735 151.94C189.925 151.94 189.505 151.55 189.415 150.92C189.265 149.69 189.205 148.22 189.205 146.84C189.205 145.43 189.265 144.02 189.475 142.82C189.595 142.22 190.015 141.77 190.765 141.77C191.515 141.77 191.875 142.1 191.995 142.67ZM214.336 132.77C213.466 131.63 212.206 131.06 210.346 131.06H203.236V155H207.646V145.94C207.646 145.94 209.686 145.97 210.286 145.91C212.086 145.79 213.406 145.31 214.276 144.23C215.176 143.15 215.536 141.35 215.536 138.5C215.536 135.68 215.116 133.76 214.336 132.77ZM210.946 141.08C210.826 141.86 210.316 142.19 209.326 142.19H207.646V135.11H209.446C210.136 135.11 210.646 135.5 210.826 136.01C210.976 136.43 211.126 137.42 211.126 138.68C211.126 139.97 211.096 140.27 210.946 141.08ZM226.512 152.06C226.512 150.83 226.542 148.82 226.542 147.53C226.572 146 226.602 143.51 226.542 142.07C226.452 139.76 225.012 138.29 221.562 138.29C217.902 138.29 216.402 139.94 216.402 143.03V144.26H220.122V143.33C220.122 142.19 220.482 141.62 221.502 141.62C222.252 141.62 222.642 142.04 222.672 142.76C222.702 143.27 222.702 144.29 222.702 144.74C222.042 144.74 221.352 144.83 220.602 144.95C217.842 145.46 215.982 146.96 215.832 149.36C215.772 150.23 215.802 151.64 215.832 152C215.952 154.4 217.782 155.12 219.432 155.12C220.902 155.12 222.012 154.73 222.762 153.8C222.762 154.22 222.852 155 222.912 155H226.722C226.572 154.79 226.512 153.26 226.512 152.06ZM222.702 148.7C222.642 149.54 222.702 149.96 222.552 150.83C222.402 151.67 221.682 152 221.052 152C220.452 152 219.972 151.79 219.882 151.22C219.822 150.74 219.822 150.17 219.822 149.72C219.822 149.03 219.852 148.55 220.362 148.1C220.812 147.71 221.322 147.62 221.742 147.53C222.102 147.47 222.402 147.47 222.702 147.47C222.702 147.71 222.732 148.37 222.702 148.7ZM238.468 141.29C237.928 139.58 236.668 138.29 233.578 138.29C231.238 138.29 229.558 139.34 228.958 141.11C228.358 142.91 228.178 144.35 228.178 146.75C228.178 149.24 228.538 151.73 229.018 152.81C229.678 154.31 231.268 155.21 233.638 155.21C236.068 155.21 237.628 154.13 238.168 152.75C238.738 151.31 238.768 150.62 238.768 148.37H235.048C235.048 149.42 235.048 149.75 234.928 150.62C234.838 151.31 234.418 151.85 233.638 151.85C232.858 151.85 232.468 151.49 232.348 150.65C232.168 149.42 232.108 147.74 232.108 146.78C232.108 145.58 232.168 144.08 232.348 142.91C232.468 142.1 232.888 141.68 233.608 141.68C234.448 141.68 234.748 142.22 234.838 142.88C234.928 143.51 235.018 144.26 235.018 145.22H238.768C238.768 143.21 238.678 142.01 238.468 141.29ZM248.334 144.5L251.454 138.5H247.554L244.344 144.83V131.03H240.384V155H244.344V150.05L245.514 148.16L247.584 155H251.604L248.334 144.5Z" fill="white"/>
<rect x="103.5" y="0.5" width="230" height="179" stroke="white"/>
</g>
<rect x="0.5" y="0.5" width="333" height="179" rx="7.5" stroke="white"/>
<defs>
<clipPath id="clip0_4719_146411">
<rect width="334" height="180" rx="8" fill="white"/>
</clipPath>
</defs>
</svg>
