<svg width="100%" height="auto" viewBox="0 0 334 180" fill="none" xmlns="http://www.w3.org/2000/svg">
<g clip-path="url(#clip0_4719_146412)">
<path d="M44.64 49.864H37.728C37.024 51.4 35.232 54.344 28.64 54.792V62.152L35.68 61.832V101H44.64V49.864ZM48.603 59.272C48.027 63.176 47.963 69.704 47.963 75.4C47.963 79.56 48.283 87.56 48.795 91.016C49.819 97.8 53.147 101.512 60.571 101.512C67.739 101.512 71.387 97.736 72.283 91.016C72.859 87.048 73.115 79.304 73.115 75.4C73.115 70.152 72.859 63.56 72.475 59.208C72.027 54.024 68.187 49.416 60.571 49.416C52.315 49.416 49.435 53.96 48.603 59.272ZM63.707 90.056C63.579 92.424 62.619 93.768 60.571 93.768C58.523 93.768 57.563 92.488 57.371 90.056C57.243 87.816 57.051 80.392 57.051 75.464C57.051 72.072 57.243 66.184 57.243 61.448C57.243 59.016 58.331 57.544 60.507 57.544C62.619 57.544 63.643 58.888 63.771 61.384C63.835 63.624 63.899 70.216 63.899 75.272C63.899 79.368 63.835 88.008 63.707 90.056Z" fill="white"/>
<path d="M42.6396 117.912C42.6396 117.912 40.7496 126.13 40.7496 126.466C40.7496 126.13 39.0136 117.912 39.0136 117.912H36.9696C36.9696 117.912 35.2476 126.13 35.2476 126.466C35.2476 126.13 33.3576 117.912 33.3576 117.912H31.4116L34.0716 129H36.1576C36.1576 129 37.9636 120.796 37.9636 120.432C37.9776 120.796 39.7136 129 39.7136 129H41.8136L44.4456 117.912H42.6396ZM48.9349 117.912H47.0449V129H48.9349V117.912ZM60.0734 117.912H58.3234V125.472L54.5434 117.912H52.4574V129H54.2074V121.244L58.0994 129H60.0734V117.912ZM68.4293 122.826C68.1213 122.714 67.4633 122.462 67.0713 122.336C65.7133 121.888 65.0413 121.454 65.0413 120.586C65.0413 119.844 65.5453 119.396 66.9593 119.396C68.1633 119.396 68.7233 119.732 68.9613 120.418C69.0453 120.67 69.0873 120.88 69.0873 121.118H70.9633C70.9633 120.698 70.8933 120.362 70.7953 120.026C70.4033 118.654 69.2833 117.786 67.0013 117.786C64.3833 117.786 63.1513 118.934 63.1513 120.642C63.1513 122.28 64.2293 123.26 65.8953 123.806C66.3573 123.96 67.0153 124.212 67.2953 124.31C68.7793 124.828 69.2273 125.276 69.2273 126.214C69.2273 127.054 68.6253 127.558 67.2113 127.558C66.0073 127.558 65.3073 127.25 65.0973 126.592C65.0133 126.326 64.9713 125.948 64.9713 125.752H63.1093C63.1093 126.074 63.1373 126.592 63.2353 126.97C63.5713 128.272 64.6913 129.14 67.2533 129.14C69.8433 129.14 71.1173 127.908 71.1173 126.06C71.1173 124.338 70.1653 123.428 68.4293 122.826Z" fill="white"/>
<path d="M121.496 22H122.66V13.396H121.76C121.604 14.644 120.596 15.052 119.516 15.076V15.844H121.496V22ZM127.719 22.192C129.867 22.192 131.091 20.44 131.091 17.716C131.091 14.932 129.783 13.252 127.731 13.252C125.691 13.252 124.359 14.956 124.359 17.716C124.359 20.44 125.607 22.192 127.719 22.192ZM127.731 21.208C126.267 21.208 125.547 19.84 125.547 17.716C125.547 15.568 126.267 14.224 127.731 14.224C129.183 14.224 129.891 15.592 129.891 17.716C129.891 19.876 129.219 21.208 127.731 21.208ZM138.406 24.256C139.27 24.256 139.99 24.064 140.494 23.644C140.986 23.224 141.274 22.588 141.274 21.736V15.556H140.17V16.408H140.146C139.738 15.76 139.114 15.4 138.19 15.4C136.678 15.4 135.43 16.576 135.43 18.556C135.43 20.428 136.606 21.712 138.25 21.712C139.162 21.712 139.726 21.316 140.17 20.68H140.194C140.182 20.884 140.17 21.232 140.17 21.604V21.784C140.17 22.876 139.534 23.392 138.382 23.392C137.422 23.392 136.774 23.116 136.678 22.444H135.634C135.754 23.584 136.714 24.256 138.406 24.256ZM138.358 20.8C137.194 20.8 136.57 19.936 136.57 18.568C136.57 17.212 137.17 16.324 138.346 16.324C139.63 16.324 140.242 17.152 140.242 18.508C140.242 19.816 139.762 20.8 138.358 20.8ZM144.739 22.132C145.831 22.132 146.491 21.616 146.899 21.052H146.911C147.031 21.736 147.367 22.06 148.051 22.06C148.315 22.06 148.495 22.012 148.651 21.964V21.184H148.603C148.039 21.304 147.919 21.028 147.919 20.512V17.5C147.919 16.636 147.595 16.072 147.055 15.748C146.647 15.508 146.107 15.4 145.495 15.4C143.755 15.4 142.927 16.372 142.879 17.464H143.959C143.995 16.696 144.487 16.216 145.507 16.216C146.395 16.216 146.887 16.648 146.887 17.344C146.887 18.004 146.275 18.16 145.327 18.268C143.659 18.472 142.555 18.796 142.555 20.296C142.555 21.532 143.515 22.132 144.739 22.132ZM145.015 21.316C144.367 21.316 143.731 21.112 143.731 20.284C143.731 19.396 144.427 19.204 145.483 19.024C146.011 18.928 146.575 18.772 146.899 18.568V19.624C146.899 20.368 146.299 21.316 145.015 21.316ZM149.557 22H150.673V18.028C150.673 17.044 151.501 16.336 152.269 16.336C152.929 16.336 153.373 16.804 153.373 17.596V22H154.477V18.028C154.477 17.044 155.185 16.336 156.001 16.336C156.649 16.336 157.165 16.804 157.165 17.596V22H158.281V17.5C158.281 16.156 157.465 15.4 156.289 15.4C155.509 15.4 154.753 15.796 154.297 16.6H154.273C154.009 15.808 153.385 15.4 152.605 15.4C151.777 15.4 151.093 15.82 150.697 16.516H150.661V15.556H149.557V22ZM162.572 22.18C164.06 22.18 165.092 21.364 165.38 20.164H164.288C164.084 20.848 163.472 21.268 162.584 21.268C161.336 21.268 160.652 20.308 160.568 19.048H165.512C165.512 17.956 165.248 17.032 164.72 16.396C164.216 15.772 163.472 15.4 162.512 15.4C160.664 15.4 159.428 16.912 159.428 18.784C159.428 20.668 160.592 22.18 162.572 22.18ZM162.512 16.264C163.628 16.264 164.264 17.008 164.324 18.244H160.592C160.736 17.104 161.348 16.264 162.512 16.264ZM171.281 22H172.409L173.381 18.448C173.537 17.836 173.777 16.648 173.777 16.648H173.801C173.801 16.648 174.053 17.824 174.209 18.448L175.157 22H176.273L178.373 15.556H177.221L176.153 19.132C175.913 19.924 175.733 21.028 175.733 21.028H175.709C175.709 21.028 175.481 19.84 175.301 19.156L174.341 15.556H173.285L172.313 19.156C172.097 19.936 171.881 21.016 171.881 21.016H171.857C171.857 21.016 171.641 19.864 171.437 19.132L170.429 15.556H169.241L171.281 22ZM179.24 14.368H180.404V13.072H179.24V14.368ZM179.264 22H180.38V15.556H179.264V22ZM183.017 15.556H181.913V22H183.029V18.076C183.029 17.044 183.749 16.336 184.745 16.336C185.621 16.336 186.161 16.804 186.161 17.632V22H187.265V17.5C187.265 16.156 186.437 15.4 185.093 15.4C184.157 15.4 183.521 15.82 183.053 16.468H183.017V15.556ZM194.428 22.192C195.94 22.192 197.02 21.52 197.02 20.212C197.02 18.712 195.916 18.424 194.632 18.172C193.54 17.956 192.916 17.824 192.916 17.152C192.916 16.66 193.288 16.252 194.164 16.252C195.088 16.252 195.544 16.624 195.64 17.284H196.756C196.612 16.168 195.808 15.412 194.188 15.412C192.688 15.412 191.824 16.108 191.824 17.212C191.824 18.628 192.964 18.892 194.224 19.156C195.364 19.384 195.904 19.564 195.904 20.272C195.904 20.848 195.472 21.292 194.452 21.292C193.528 21.292 192.808 20.98 192.676 20.044H191.548C191.644 21.352 192.652 22.192 194.428 22.192ZM197.712 16.42H198.72V20.74C198.72 21.688 199.32 22.036 200.184 22.048C200.472 22.048 200.784 22.012 201.084 21.94V21.004H201.048C200.928 21.04 200.676 21.088 200.484 21.088C200.076 21.088 199.824 20.956 199.824 20.488V16.42H201.156V15.556H199.824V13.528H198.72V15.556H197.712V16.42ZM203.419 15.556H202.315V22H203.431V18.496C203.431 17.284 204.283 16.54 205.279 16.54C205.471 16.54 205.579 16.552 205.735 16.6H205.771V15.544C205.651 15.496 205.543 15.472 205.363 15.472C204.511 15.472 203.851 15.976 203.455 16.72H203.419V15.556ZM209.423 22.18C210.911 22.18 211.943 21.364 212.231 20.164H211.139C210.935 20.848 210.323 21.268 209.435 21.268C208.187 21.268 207.503 20.308 207.419 19.048H212.363C212.363 17.956 212.099 17.032 211.571 16.396C211.067 15.772 210.323 15.4 209.363 15.4C207.515 15.4 206.279 16.912 206.279 18.784C206.279 20.668 207.443 22.18 209.423 22.18ZM209.363 16.264C210.479 16.264 211.115 17.008 211.175 18.244H207.443C207.587 17.104 208.199 16.264 209.363 16.264ZM215.473 22.132C216.565 22.132 217.225 21.616 217.633 21.052H217.645C217.765 21.736 218.101 22.06 218.785 22.06C219.049 22.06 219.229 22.012 219.385 21.964V21.184H219.337C218.773 21.304 218.653 21.028 218.653 20.512V17.5C218.653 16.636 218.329 16.072 217.789 15.748C217.381 15.508 216.841 15.4 216.229 15.4C214.489 15.4 213.661 16.372 213.613 17.464H214.693C214.729 16.696 215.221 16.216 216.241 16.216C217.129 16.216 217.621 16.648 217.621 17.344C217.621 18.004 217.009 18.16 216.061 18.268C214.393 18.472 213.289 18.796 213.289 20.296C213.289 21.532 214.249 22.132 215.473 22.132ZM215.749 21.316C215.101 21.316 214.465 21.112 214.465 20.284C214.465 19.396 215.161 19.204 216.217 19.024C216.745 18.928 217.309 18.772 217.633 18.568V19.624C217.633 20.368 217.033 21.316 215.749 21.316ZM224.527 22H225.835L223.087 17.872L225.547 15.556H224.155L221.359 18.304C221.383 17.992 221.407 17.536 221.407 17.308V13.072H220.291V22H221.407V19.468L222.319 18.604L224.527 22ZM229.983 24.184H231.099V22.228C231.099 21.736 231.087 21.376 231.075 21.148H231.111C231.555 21.832 232.263 22.192 233.139 22.192C234.879 22.192 235.947 20.86 235.947 18.796C235.947 16.672 234.819 15.4 233.175 15.4C232.251 15.4 231.603 15.832 231.123 16.564H231.087V15.556H229.983V24.184ZM233.019 21.268C231.591 21.268 231.039 20.176 231.039 18.82C231.039 17.452 231.663 16.348 233.031 16.348C234.219 16.348 234.807 17.404 234.807 18.82C234.807 20.224 234.207 21.268 233.019 21.268ZM238.235 15.556H237.131V22H238.247V18.496C238.247 17.284 239.099 16.54 240.095 16.54C240.287 16.54 240.395 16.552 240.551 16.6H240.587V15.544C240.467 15.496 240.359 15.472 240.179 15.472C239.327 15.472 238.667 15.976 238.271 16.72H238.235V15.556ZM241.654 14.368H242.818V13.072H241.654V14.368ZM241.678 22H242.794V15.556H241.678V22ZM244.087 22H249.283V21.016H246.679C246.211 21.016 245.395 21.052 245.395 21.052V21.016C245.395 21.016 245.935 20.428 246.211 20.08L249.139 16.252V15.556H244.303V16.504H246.523C246.967 16.504 247.735 16.468 247.735 16.468V16.504C247.735 16.504 247.231 17.044 246.967 17.38L244.087 21.136V22ZM253.029 22.18C254.517 22.18 255.549 21.364 255.837 20.164H254.745C254.541 20.848 253.929 21.268 253.041 21.268C251.793 21.268 251.109 20.308 251.025 19.048H255.969C255.969 17.956 255.705 17.032 255.177 16.396C254.673 15.772 253.929 15.4 252.969 15.4C251.121 15.4 249.885 16.912 249.885 18.784C249.885 20.668 251.049 22.18 253.029 22.18ZM252.969 16.264C254.085 16.264 254.721 17.008 254.781 18.244H251.049C251.193 17.104 251.805 16.264 252.969 16.264Z" fill="white"/>
<path fill-rule="evenodd" clip-rule="evenodd" d="M304.026 27.0781L313.009 25.4933C313.523 25.4003 313.912 25.2032 314.175 24.9021C314.432 24.6065 314.561 24.2069 314.561 23.7033V12.3964C314.561 12.0077 314.479 11.6792 314.315 11.411C314.15 11.1428 313.92 10.9539 313.625 10.8444C313.329 10.7295 312.982 10.7076 312.582 10.7787L303.862 12.3142C303.062 12.4566 302.46 12.7056 302.055 13.0615C301.644 13.4118 301.439 13.9893 301.439 14.794V24.7051C301.439 25.2908 301.543 25.7753 301.751 26.1585C301.959 26.5471 302.258 26.8208 302.646 26.9796C303.029 27.1383 303.489 27.1712 304.026 27.0781ZM312.442 13.9401V15.6727C312.442 15.8424 312.388 15.971 312.278 16.0586C312.169 16.1462 312.043 16.1927 311.9 16.1982C311.758 16.1982 311.635 16.1599 311.531 16.0832C311.421 16.0011 311.367 15.8779 311.367 15.7137V14.6134C311.367 14.389 311.238 14.2959 310.981 14.3342L309.897 14.5313C309.722 14.5587 309.585 14.5285 309.486 14.441C309.382 14.3479 309.319 14.2329 309.297 14.0961C309.27 13.9592 309.289 13.8306 309.355 13.7102C309.415 13.5897 309.522 13.5158 309.675 13.4885L311.441 13.1764C311.753 13.1217 311.999 13.16 312.18 13.2914C312.355 13.4228 312.442 13.639 312.442 13.9401ZM304.699 15.9683V17.0111C304.699 17.1808 304.647 17.3122 304.543 17.4052C304.434 17.4983 304.308 17.5476 304.165 17.553C304.023 17.5585 303.897 17.5175 303.788 17.4299C303.678 17.3368 303.623 17.1972 303.623 17.0111V15.6398C303.623 15.2566 303.725 14.9637 303.927 14.7612C304.124 14.5532 304.45 14.4081 304.904 14.326L305.758 14.1782C305.944 14.1454 306.095 14.1727 306.21 14.2603C306.319 14.3479 306.385 14.4629 306.407 14.6052C306.429 14.742 306.404 14.8707 306.333 14.9911C306.256 15.1115 306.125 15.1882 305.939 15.221L305.257 15.3442C305.017 15.388 304.863 15.4728 304.798 15.5988C304.732 15.7192 304.699 15.8424 304.699 15.9683ZM311.367 21.9461V20.9032C311.367 20.7335 311.421 20.6022 311.531 20.5091C311.635 20.416 311.758 20.3668 311.9 20.3613C312.043 20.3558 312.169 20.3996 312.278 20.4927C312.388 20.5803 312.442 20.7171 312.442 20.9032V22.2745C312.442 22.6577 312.344 22.9533 312.147 23.1613C311.944 23.3639 311.616 23.5062 311.161 23.5883L310.307 23.7361C310.121 23.769 309.973 23.7416 309.864 23.654C309.749 23.561 309.681 23.446 309.659 23.3091C309.631 23.1723 309.656 23.0436 309.733 22.9232C309.809 22.7973 309.941 22.7207 310.127 22.6933L310.808 22.5701C311.049 22.5263 311.202 22.4415 311.268 22.3156C311.334 22.1897 311.367 22.0665 311.367 21.9461ZM303.623 23.9743V22.2417C303.623 22.0665 303.678 21.9379 303.788 21.8558C303.897 21.7682 304.023 21.7244 304.165 21.7244C304.308 21.7189 304.434 21.7572 304.543 21.8393C304.647 21.916 304.699 22.0364 304.699 22.2006V23.3009C304.699 23.5254 304.828 23.6184 305.085 23.5801L306.169 23.383C306.344 23.3557 306.484 23.3885 306.588 23.4816C306.686 23.5692 306.749 23.6814 306.777 23.8182C306.798 23.9551 306.779 24.0837 306.719 24.2042C306.653 24.3246 306.541 24.3985 306.382 24.4259L304.625 24.7379C304.313 24.7927 304.07 24.7543 303.894 24.623C303.714 24.4916 303.623 24.2753 303.623 23.9743ZM309.007 17.6729L310.244 17.463C310.348 17.4712 310.427 17.5648 310.419 17.6729C310.416 17.7161 310.4 17.7567 310.373 17.7888L309.592 19.169L310.082 20.6084C310.108 20.7134 310.047 20.8194 309.946 20.8454C309.906 20.8557 309.863 20.8522 309.825 20.8347L308.432 20.5084L307 21.5411C306.953 21.5707 306.936 21.5707 306.9 21.5707H306.9C306.865 21.5708 306.831 21.5605 306.801 21.5412C306.771 21.5219 306.746 21.4943 306.731 21.4615C306.715 21.4287 306.708 21.392 306.712 21.3556L306.953 19.6061L305.737 18.7013C305.698 18.6678 305.674 18.6198 305.669 18.5679C305.665 18.5161 305.68 18.4646 305.712 18.4248C305.739 18.3921 305.775 18.3691 305.816 18.3599L307.346 17.9139L307.907 16.458C307.947 16.358 308.056 16.3098 308.153 16.3505C308.191 16.3667 308.224 16.3956 308.245 16.4327L309.007 17.6729Z" fill="white"/>
<rect x="103.5" y="0.5" width="230" height="35" stroke="white"/>
<path d="M131.93 77.06H127.85V88.76L124.1 77.06H119.93V101H124.01V89.06L127.79 101H131.93V77.06ZM144.827 77.06H134.237V101H138.617V91.01H144.347V86.99H138.617V81.17H144.827V77.06ZM157.116 96.95H150.786V77.06H146.406V101H157.116V96.95ZM171.243 95.21L172.023 101H176.463L172.893 77.06H166.743L162.753 101H167.133L167.973 95.21H171.243ZM168.393 91.67C168.393 91.67 169.473 84.71 169.473 84.59C169.683 83.3 169.743 80.96 169.743 80.96C169.743 80.96 169.803 83.33 169.953 84.59C169.953 84.71 170.853 91.67 170.853 91.67H168.393ZM188.554 96.95H182.224V77.06H177.844V101H188.554V96.95ZM200.752 96.95H194.422V77.06H190.042V101H200.752V96.95ZM219.529 88.52C219.529 84.77 219.379 80.6 218.449 79.25C217.399 77.69 216.049 77.06 213.499 77.06H207.319V101H214.039C216.499 101 217.669 100.07 218.449 98.72C219.379 97.13 219.529 93.47 219.529 88.52ZM213.559 97.55H211.639V80.78H213.379C214.249 80.78 214.789 81.2 215.029 82.19C215.239 83 215.329 87.32 215.329 88.52C215.329 89.75 215.269 95.36 215.059 96.32C214.849 97.19 214.339 97.55 213.559 97.55ZM228.747 95.21L229.527 101H233.967L230.397 77.06H224.247L220.257 101H224.637L225.477 95.21H228.747ZM225.897 91.67C225.897 91.67 226.977 84.71 226.977 84.59C227.187 83.3 227.247 80.96 227.247 80.96C227.247 80.96 227.307 83.33 227.457 84.59C227.457 84.71 228.357 91.67 228.357 91.67H225.897ZM242.975 77.06C242.975 77.06 240.335 85.79 239.945 87.05C239.675 85.82 237.335 77.06 237.335 77.06H232.865L237.755 92.12V101H242.135V92.03L247.295 77.06H242.975ZM131.21 115.22C130.52 113.81 128.96 113.06 127.13 113.06H119.93V137H124.28V127.04H125.84L128.24 137H132.77L129.86 125.84C130.46 125.63 131.12 124.97 131.48 124.04C131.84 123.17 132.05 121.88 132.05 119.99C132.05 117.86 131.72 116.21 131.21 115.22ZM127.4 122.57C127.28 122.99 126.95 123.26 126.38 123.32C126.23 123.35 124.28 123.35 124.28 123.35V117.05H126.26C126.98 117.05 127.37 117.53 127.52 118.19C127.58 118.49 127.64 119.6 127.64 120.41C127.64 121.13 127.58 122.15 127.4 122.57ZM140.513 131.63C140.513 132.05 140.453 132.56 140.333 133.07C140.183 133.73 139.553 134 138.953 134C138.353 134 137.663 133.64 137.573 132.83C137.483 132.08 137.453 130.88 137.453 130.13H144.263C144.413 127.31 144.203 124.43 143.633 123.02C142.943 121.34 141.353 120.29 139.043 120.29C136.193 120.29 134.933 121.58 134.333 123.05C133.883 124.13 133.553 126.35 133.553 128.84C133.553 131.39 133.763 133.28 134.453 134.87C135.173 136.55 136.883 137.21 139.103 137.21C141.323 137.21 142.673 136.31 143.393 135.02C144.023 133.91 144.173 132.11 144.173 131.63H140.513ZM137.393 127.19C137.393 126.05 137.423 124.97 137.633 124.46C137.843 123.89 138.323 123.59 138.983 123.59C139.673 123.59 140.123 123.92 140.273 124.49C140.393 124.88 140.483 125.69 140.483 127.19H137.393ZM159.172 120.5L157.852 132.62L156.112 120.5H152.002L150.472 132.62L148.942 120.5H144.862L147.832 137H152.632C152.632 137 153.682 131.15 154.012 129.2C154.042 129.02 154.072 127.49 154.072 127.49C154.072 127.49 154.162 129.02 154.192 129.2C154.522 131.09 155.542 137 155.542 137H160.282L163.162 120.5H159.172ZM174.223 134.06C174.223 132.83 174.253 130.82 174.253 129.53C174.283 128 174.313 125.51 174.253 124.07C174.163 121.76 172.723 120.29 169.273 120.29C165.613 120.29 164.113 121.94 164.113 125.03V126.26H167.833V125.33C167.833 124.19 168.193 123.62 169.213 123.62C169.963 123.62 170.353 124.04 170.383 124.76C170.413 125.27 170.413 126.29 170.413 126.74C169.753 126.74 169.063 126.83 168.313 126.95C165.553 127.46 163.693 128.96 163.543 131.36C163.483 132.23 163.513 133.64 163.543 134C163.663 136.4 165.493 137.12 167.143 137.12C168.613 137.12 169.723 136.73 170.473 135.8C170.473 136.22 170.563 137 170.623 137H174.433C174.283 136.79 174.223 135.26 174.223 134.06ZM170.413 130.7C170.353 131.54 170.413 131.96 170.263 132.83C170.113 133.67 169.393 134 168.763 134C168.163 134 167.683 133.79 167.593 133.22C167.533 132.74 167.533 132.17 167.533 131.72C167.533 131.03 167.563 130.55 168.073 130.1C168.523 129.71 169.033 129.62 169.453 129.53C169.813 129.47 170.113 129.47 170.413 129.47C170.413 129.71 170.443 130.37 170.413 130.7ZM183.089 120.29C181.709 120.29 180.329 121.19 180.149 122.45V120.5H176.189V137H180.209V127.22C180.209 124.52 181.049 123.92 182.429 123.92C183.239 123.92 184.049 124.07 184.529 124.22V120.44C184.199 120.32 183.719 120.29 183.089 120.29ZM185.905 122.93C185.425 124.73 185.275 126.38 185.275 128.81C185.275 131.45 185.575 133.64 186.115 134.96C186.715 136.46 187.825 137.12 189.475 137.12C190.945 137.12 191.935 136.64 192.475 135.8L192.955 137H196.315C196.315 137 196.195 135.62 196.195 134.69V113.03H192.265V121.7C191.815 120.83 190.735 120.35 189.475 120.35C187.705 120.35 186.325 121.31 185.905 122.93ZM191.995 124.67C192.175 125.57 192.295 126.47 192.295 128.84C192.295 130.28 192.235 131.78 192.025 132.83C191.905 133.46 191.515 133.94 190.735 133.94C189.925 133.94 189.505 133.55 189.415 132.92C189.265 131.69 189.205 130.22 189.205 128.84C189.205 127.43 189.265 126.02 189.475 124.82C189.595 124.22 190.015 123.77 190.765 123.77C191.515 123.77 191.875 124.1 191.995 124.67ZM214.336 114.77C213.466 113.63 212.206 113.06 210.346 113.06H203.236V137H207.646V127.94C207.646 127.94 209.686 127.97 210.286 127.91C212.086 127.79 213.406 127.31 214.276 126.23C215.176 125.15 215.536 123.35 215.536 120.5C215.536 117.68 215.116 115.76 214.336 114.77ZM210.946 123.08C210.826 123.86 210.316 124.19 209.326 124.19H207.646V117.11H209.446C210.136 117.11 210.646 117.5 210.826 118.01C210.976 118.43 211.126 119.42 211.126 120.68C211.126 121.97 211.096 122.27 210.946 123.08ZM226.512 134.06C226.512 132.83 226.542 130.82 226.542 129.53C226.572 128 226.602 125.51 226.542 124.07C226.452 121.76 225.012 120.29 221.562 120.29C217.902 120.29 216.402 121.94 216.402 125.03V126.26H220.122V125.33C220.122 124.19 220.482 123.62 221.502 123.62C222.252 123.62 222.642 124.04 222.672 124.76C222.702 125.27 222.702 126.29 222.702 126.74C222.042 126.74 221.352 126.83 220.602 126.95C217.842 127.46 215.982 128.96 215.832 131.36C215.772 132.23 215.802 133.64 215.832 134C215.952 136.4 217.782 137.12 219.432 137.12C220.902 137.12 222.012 136.73 222.762 135.8C222.762 136.22 222.852 137 222.912 137H226.722C226.572 136.79 226.512 135.26 226.512 134.06ZM222.702 130.7C222.642 131.54 222.702 131.96 222.552 132.83C222.402 133.67 221.682 134 221.052 134C220.452 134 219.972 133.79 219.882 133.22C219.822 132.74 219.822 132.17 219.822 131.72C219.822 131.03 219.852 130.55 220.362 130.1C220.812 129.71 221.322 129.62 221.742 129.53C222.102 129.47 222.402 129.47 222.702 129.47C222.702 129.71 222.732 130.37 222.702 130.7ZM238.468 123.29C237.928 121.58 236.668 120.29 233.578 120.29C231.238 120.29 229.558 121.34 228.958 123.11C228.358 124.91 228.178 126.35 228.178 128.75C228.178 131.24 228.538 133.73 229.018 134.81C229.678 136.31 231.268 137.21 233.638 137.21C236.068 137.21 237.628 136.13 238.168 134.75C238.738 133.31 238.768 132.62 238.768 130.37H235.048C235.048 131.42 235.048 131.75 234.928 132.62C234.838 133.31 234.418 133.85 233.638 133.85C232.858 133.85 232.468 133.49 232.348 132.65C232.168 131.42 232.108 129.74 232.108 128.78C232.108 127.58 232.168 126.08 232.348 124.91C232.468 124.1 232.888 123.68 233.608 123.68C234.448 123.68 234.748 124.22 234.838 124.88C234.928 125.51 235.018 126.26 235.018 127.22H238.768C238.768 125.21 238.678 124.01 238.468 123.29ZM248.334 126.5L251.454 120.5H247.554L244.344 126.83V113.03H240.384V137H244.344V132.05L245.514 130.16L247.584 137H251.604L248.334 126.5Z" fill="white"/>
<rect x="103.5" y="0.5" width="230" height="179" stroke="white"/>
</g>
<rect x="0.5" y="0.5" width="333" height="179" rx="7.5" stroke="white"/>
<defs>
<clipPath id="clip0_4719_146412">
<rect width="334" height="180" rx="8" fill="white"/>
</clipPath>
</defs>
</svg>
