<svg width="100%" height="auto" viewBox="0 0 334 180" fill="none" xmlns="http://www.w3.org/2000/svg">
<g clip-path="url(#clip0_4719_146415)">
<path d="M62.476 49.928H39.692V58.376H53.068L42.252 101H51.98L62.476 57.416V49.928Z" fill="white"/>
<path d="M42.6396 117.912C42.6396 117.912 40.7496 126.13 40.7496 126.466C40.7496 126.13 39.0136 117.912 39.0136 117.912H36.9696C36.9696 117.912 35.2476 126.13 35.2476 126.466C35.2476 126.13 33.3576 117.912 33.3576 117.912H31.4116L34.0716 129H36.1576C36.1576 129 37.9636 120.796 37.9636 120.432C37.9776 120.796 39.7136 129 39.7136 129H41.8136L44.4456 117.912H42.6396ZM48.9349 117.912H47.0449V129H48.9349V117.912ZM60.0734 117.912H58.3234V125.472L54.5434 117.912H52.4574V129H54.2074V121.244L58.0994 129H60.0734V117.912ZM68.4293 122.826C68.1213 122.714 67.4633 122.462 67.0713 122.336C65.7133 121.888 65.0413 121.454 65.0413 120.586C65.0413 119.844 65.5453 119.396 66.9593 119.396C68.1633 119.396 68.7233 119.732 68.9613 120.418C69.0453 120.67 69.0873 120.88 69.0873 121.118H70.9633C70.9633 120.698 70.8933 120.362 70.7953 120.026C70.4033 118.654 69.2833 117.786 67.0013 117.786C64.3833 117.786 63.1513 118.934 63.1513 120.642C63.1513 122.28 64.2293 123.26 65.8953 123.806C66.3573 123.96 67.0153 124.212 67.2953 124.31C68.7793 124.828 69.2273 125.276 69.2273 126.214C69.2273 127.054 68.6253 127.558 67.2113 127.558C66.0073 127.558 65.3073 127.25 65.0973 126.592C65.0133 126.326 64.9713 125.948 64.9713 125.752H63.1093C63.1093 126.074 63.1373 126.592 63.2353 126.97C63.5713 128.272 64.6913 129.14 67.2533 129.14C69.8433 129.14 71.1173 127.908 71.1173 126.06C71.1173 124.338 70.1653 123.428 68.4293 122.826Z" fill="white"/>
<path d="M120.596 22C120.644 21.248 120.772 20.508 120.98 19.78C121.188 19.044 121.456 18.348 121.784 17.692C122.112 17.028 122.488 16.42 122.912 15.868C123.344 15.316 123.8 14.844 124.28 14.452V14.428C124.144 14.436 123.996 14.444 123.836 14.452C123.7 14.46 123.532 14.468 123.332 14.476C123.14 14.476 122.932 14.476 122.708 14.476H119.384V13.456H125.396V14.38C124.964 14.764 124.54 15.22 124.124 15.748C123.716 16.276 123.348 16.864 123.02 17.512C122.692 18.16 122.42 18.86 122.204 19.612C121.988 20.364 121.86 21.16 121.82 22H120.596ZM132.336 24.256C131.488 24.256 130.828 24.096 130.356 23.776C129.892 23.464 129.628 23.02 129.564 22.444H130.608C130.656 22.78 130.832 23.02 131.136 23.164C131.44 23.316 131.832 23.392 132.312 23.392C132.888 23.392 133.328 23.26 133.632 22.996C133.944 22.74 134.1 22.336 134.1 21.784V21.604C134.1 21.42 134.1 21.248 134.1 21.088C134.108 20.92 134.116 20.784 134.124 20.68H134.1C133.876 21 133.612 21.252 133.308 21.436C133.012 21.62 132.636 21.712 132.18 21.712C131.772 21.712 131.392 21.636 131.04 21.484C130.696 21.332 130.4 21.116 130.152 20.836C129.904 20.556 129.708 20.224 129.564 19.84C129.428 19.456 129.36 19.028 129.36 18.556C129.36 18.06 129.432 17.616 129.576 17.224C129.72 16.832 129.916 16.504 130.164 16.24C130.42 15.968 130.716 15.76 131.052 15.616C131.388 15.472 131.744 15.4 132.12 15.4C132.584 15.4 132.972 15.488 133.284 15.664C133.604 15.832 133.868 16.08 134.076 16.408H134.1V15.556H135.204V21.736C135.204 22.168 135.136 22.54 135 22.852C134.864 23.172 134.672 23.436 134.424 23.644C134.168 23.852 133.864 24.004 133.512 24.1C133.16 24.204 132.768 24.256 132.336 24.256ZM132.288 20.8C132.64 20.8 132.936 20.744 133.176 20.632C133.416 20.512 133.608 20.352 133.752 20.152C133.904 19.944 134.012 19.7 134.076 19.42C134.14 19.14 134.172 18.836 134.172 18.508C134.172 17.828 134.016 17.296 133.704 16.912C133.4 16.52 132.924 16.324 132.276 16.324C131.684 16.324 131.24 16.528 130.944 16.936C130.648 17.344 130.5 17.888 130.5 18.568C130.5 19.256 130.652 19.8 130.956 20.2C131.26 20.6 131.704 20.8 132.288 20.8ZM138.668 22.132C138.364 22.132 138.076 22.092 137.804 22.012C137.54 21.94 137.308 21.828 137.108 21.676C136.916 21.524 136.764 21.336 136.652 21.112C136.54 20.88 136.484 20.608 136.484 20.296C136.484 19.92 136.548 19.612 136.676 19.372C136.812 19.132 137 18.94 137.24 18.796C137.488 18.652 137.78 18.54 138.116 18.46C138.46 18.38 138.84 18.316 139.256 18.268C139.496 18.244 139.712 18.212 139.904 18.172C140.096 18.132 140.26 18.08 140.396 18.016C140.532 17.944 140.636 17.856 140.708 17.752C140.78 17.648 140.816 17.512 140.816 17.344C140.816 16.992 140.696 16.716 140.456 16.516C140.224 16.316 139.884 16.216 139.436 16.216C138.924 16.216 138.54 16.328 138.284 16.552C138.036 16.776 137.904 17.08 137.888 17.464H136.808C136.816 17.192 136.876 16.932 136.988 16.684C137.1 16.436 137.264 16.216 137.48 16.024C137.696 15.832 137.964 15.68 138.284 15.568C138.612 15.456 138.992 15.4 139.424 15.4C139.728 15.4 140.012 15.428 140.276 15.484C140.54 15.54 140.776 15.628 140.984 15.748C141.256 15.908 141.468 16.132 141.62 16.42C141.772 16.708 141.848 17.068 141.848 17.5V20.512C141.848 20.768 141.892 20.96 141.98 21.088C142.068 21.216 142.252 21.248 142.532 21.184H142.58V21.964C142.5 21.988 142.412 22.008 142.316 22.024C142.228 22.048 142.116 22.06 141.98 22.06C141.636 22.06 141.376 21.98 141.2 21.82C141.024 21.652 140.904 21.396 140.84 21.052H140.828C140.724 21.196 140.604 21.332 140.468 21.46C140.332 21.588 140.176 21.704 140 21.808C139.824 21.904 139.624 21.98 139.4 22.036C139.184 22.1 138.94 22.132 138.668 22.132ZM138.944 21.316C139.264 21.316 139.54 21.264 139.772 21.16C140.012 21.048 140.208 20.912 140.36 20.752C140.52 20.584 140.636 20.4 140.708 20.2C140.788 20 140.828 19.808 140.828 19.624V18.568C140.668 18.672 140.456 18.764 140.192 18.844C139.936 18.916 139.676 18.976 139.412 19.024C139.148 19.072 138.908 19.124 138.692 19.18C138.476 19.228 138.292 19.3 138.14 19.396C137.988 19.484 137.868 19.6 137.78 19.744C137.7 19.88 137.66 20.06 137.66 20.284C137.66 20.492 137.696 20.664 137.768 20.8C137.84 20.928 137.936 21.032 138.056 21.112C138.176 21.192 138.312 21.248 138.464 21.28C138.624 21.304 138.784 21.316 138.944 21.316ZM143.487 15.556H144.591V16.516H144.627C144.827 16.164 145.091 15.892 145.419 15.7C145.747 15.5 146.119 15.4 146.535 15.4C146.927 15.4 147.267 15.5 147.555 15.7C147.851 15.9 148.067 16.2 148.203 16.6H148.227C148.459 16.192 148.751 15.892 149.103 15.7C149.455 15.5 149.827 15.4 150.219 15.4C150.811 15.4 151.291 15.58 151.659 15.94C152.027 16.3 152.211 16.82 152.211 17.5V22H151.095V17.596C151.095 17.196 150.983 16.888 150.759 16.672C150.535 16.448 150.259 16.336 149.931 16.336C149.723 16.336 149.527 16.38 149.343 16.468C149.159 16.548 148.999 16.664 148.863 16.816C148.727 16.968 148.615 17.148 148.527 17.356C148.447 17.556 148.407 17.78 148.407 18.028V22H147.303V17.596C147.303 17.196 147.203 16.888 147.003 16.672C146.803 16.448 146.535 16.336 146.199 16.336C146.007 16.336 145.815 16.38 145.623 16.468C145.431 16.548 145.259 16.664 145.107 16.816C144.963 16.968 144.843 17.148 144.747 17.356C144.651 17.556 144.603 17.78 144.603 18.028V22H143.487V15.556ZM156.502 22.18C156.006 22.18 155.562 22.092 155.17 21.916C154.786 21.74 154.458 21.5 154.186 21.196C153.914 20.884 153.706 20.524 153.562 20.116C153.426 19.7 153.358 19.256 153.358 18.784C153.358 18.32 153.43 17.884 153.574 17.476C153.726 17.06 153.934 16.7 154.198 16.396C154.47 16.084 154.794 15.84 155.17 15.664C155.554 15.488 155.978 15.4 156.442 15.4C156.922 15.4 157.346 15.488 157.714 15.664C158.082 15.84 158.394 16.084 158.65 16.396C158.914 16.716 159.11 17.1 159.238 17.548C159.374 17.996 159.442 18.496 159.442 19.048H154.498C154.522 19.36 154.582 19.652 154.678 19.924C154.774 20.196 154.906 20.432 155.074 20.632C155.242 20.832 155.446 20.988 155.686 21.1C155.926 21.212 156.202 21.268 156.514 21.268C156.962 21.268 157.33 21.172 157.618 20.98C157.914 20.78 158.114 20.508 158.218 20.164H159.31C159.166 20.764 158.846 21.252 158.35 21.628C157.862 21.996 157.246 22.18 156.502 22.18ZM156.442 16.264C156.154 16.264 155.898 16.316 155.674 16.42C155.45 16.516 155.258 16.652 155.098 16.828C154.938 17.004 154.81 17.212 154.714 17.452C154.618 17.692 154.554 17.956 154.521 18.244H158.254C158.222 17.62 158.05 17.136 157.738 16.792C157.434 16.44 157.002 16.264 156.442 16.264ZM163.171 15.556H164.359L165.367 19.132C165.415 19.316 165.463 19.516 165.511 19.732C165.567 19.948 165.615 20.152 165.655 20.344C165.703 20.568 165.747 20.792 165.787 21.016H165.811C165.851 20.808 165.895 20.596 165.943 20.38C165.983 20.196 166.027 19.996 166.075 19.78C166.131 19.564 166.187 19.356 166.243 19.156L167.215 15.556H168.271L169.231 19.156C169.271 19.332 169.315 19.528 169.363 19.744C169.419 19.952 169.467 20.152 169.507 20.344C169.555 20.568 169.599 20.796 169.639 21.028H169.663C169.703 20.812 169.743 20.596 169.783 20.38C169.823 20.196 169.867 19.992 169.915 19.768C169.963 19.544 170.019 19.332 170.083 19.132L171.151 15.556H172.303L170.203 22H169.087L168.139 18.448C168.099 18.288 168.055 18.108 168.007 17.908C167.959 17.7 167.915 17.504 167.875 17.32C167.827 17.104 167.779 16.88 167.731 16.648H167.707C167.659 16.88 167.611 17.104 167.563 17.32C167.523 17.504 167.479 17.7 167.431 17.908C167.391 18.116 167.351 18.296 167.311 18.448L166.339 22H165.211L163.171 15.556ZM173.17 13.072H174.334V14.368H173.17V13.072ZM173.194 15.556H174.31V22H173.194V15.556ZM176.946 16.468H176.982C177.214 16.14 177.494 15.88 177.822 15.688C178.15 15.496 178.55 15.4 179.022 15.4C179.702 15.4 180.234 15.58 180.618 15.94C181.002 16.3 181.194 16.82 181.194 17.5V22H180.09V17.632C180.09 17.216 179.962 16.896 179.706 16.672C179.458 16.448 179.114 16.336 178.674 16.336C178.426 16.336 178.194 16.38 177.978 16.468C177.77 16.548 177.59 16.664 177.438 16.816C177.286 16.968 177.166 17.152 177.078 17.368C176.998 17.584 176.958 17.82 176.958 18.076V22H175.842V15.556H176.946V16.468ZM188.357 22.192C187.461 22.192 186.769 22 186.281 21.616C185.793 21.224 185.525 20.7 185.477 20.044H186.605C186.637 20.276 186.705 20.472 186.809 20.632C186.913 20.792 187.041 20.92 187.193 21.016C187.353 21.112 187.533 21.184 187.733 21.232C187.933 21.272 188.149 21.292 188.381 21.292C188.893 21.292 189.261 21.196 189.485 21.004C189.717 20.804 189.833 20.56 189.833 20.272C189.833 19.92 189.693 19.676 189.413 19.54C189.141 19.396 188.721 19.268 188.153 19.156C187.841 19.092 187.537 19.02 187.241 18.94C186.953 18.86 186.697 18.752 186.473 18.616C186.257 18.48 186.081 18.3 185.945 18.076C185.817 17.852 185.753 17.564 185.753 17.212C185.753 16.66 185.957 16.224 186.365 15.904C186.781 15.576 187.365 15.412 188.117 15.412C188.925 15.412 189.537 15.584 189.953 15.928C190.369 16.272 190.613 16.724 190.685 17.284H189.569C189.521 16.948 189.377 16.692 189.137 16.516C188.905 16.34 188.557 16.252 188.093 16.252C187.653 16.252 187.333 16.34 187.133 16.516C186.941 16.692 186.845 16.904 186.845 17.152C186.845 17.32 186.881 17.46 186.953 17.572C187.033 17.676 187.145 17.764 187.289 17.836C187.441 17.908 187.621 17.968 187.829 18.016C188.045 18.064 188.289 18.116 188.561 18.172C188.881 18.236 189.185 18.308 189.473 18.388C189.761 18.468 190.013 18.58 190.229 18.724C190.453 18.868 190.629 19.06 190.757 19.3C190.885 19.532 190.949 19.836 190.949 20.212C190.949 20.54 190.885 20.828 190.757 21.076C190.629 21.324 190.449 21.532 190.217 21.7C189.993 21.86 189.721 21.98 189.401 22.06C189.081 22.148 188.733 22.192 188.357 22.192ZM191.642 15.556H192.65V13.528H193.754V15.556H195.086V16.42H193.754V20.488C193.754 20.72 193.81 20.88 193.922 20.968C194.042 21.048 194.206 21.088 194.414 21.088C194.51 21.088 194.61 21.08 194.714 21.064C194.826 21.04 194.914 21.02 194.978 21.004H195.014V21.94C194.71 22.012 194.41 22.048 194.114 22.048C193.682 22.04 193.33 21.94 193.058 21.748C192.786 21.548 192.65 21.212 192.65 20.74V16.42H191.642V15.556ZM197.349 16.72H197.385C197.585 16.344 197.845 16.044 198.165 15.82C198.485 15.588 198.861 15.472 199.293 15.472C199.381 15.472 199.453 15.48 199.509 15.496C199.573 15.504 199.637 15.52 199.701 15.544V16.6H199.665C199.585 16.576 199.513 16.56 199.449 16.552C199.385 16.544 199.305 16.54 199.209 16.54C198.961 16.54 198.725 16.588 198.501 16.684C198.277 16.772 198.081 16.9 197.913 17.068C197.745 17.236 197.609 17.44 197.505 17.68C197.409 17.92 197.361 18.192 197.361 18.496V22H196.245V15.556H197.349V16.72ZM203.353 22.18C202.857 22.18 202.413 22.092 202.021 21.916C201.637 21.74 201.309 21.5 201.037 21.196C200.765 20.884 200.557 20.524 200.413 20.116C200.277 19.7 200.209 19.256 200.209 18.784C200.209 18.32 200.281 17.884 200.425 17.476C200.577 17.06 200.785 16.7 201.049 16.396C201.321 16.084 201.645 15.84 202.021 15.664C202.405 15.488 202.829 15.4 203.293 15.4C203.773 15.4 204.197 15.488 204.565 15.664C204.933 15.84 205.245 16.084 205.501 16.396C205.765 16.716 205.961 17.1 206.089 17.548C206.225 17.996 206.293 18.496 206.293 19.048H201.349C201.373 19.36 201.433 19.652 201.529 19.924C201.625 20.196 201.757 20.432 201.925 20.632C202.093 20.832 202.297 20.988 202.537 21.1C202.777 21.212 203.053 21.268 203.365 21.268C203.813 21.268 204.181 21.172 204.469 20.98C204.765 20.78 204.965 20.508 205.069 20.164H206.161C206.017 20.764 205.697 21.252 205.201 21.628C204.713 21.996 204.097 22.18 203.353 22.18ZM203.293 16.264C203.005 16.264 202.749 16.316 202.525 16.42C202.301 16.516 202.109 16.652 201.949 16.828C201.789 17.004 201.661 17.212 201.565 17.452C201.469 17.692 201.405 17.956 201.373 18.244H205.105C205.073 17.62 204.901 17.136 204.589 16.792C204.285 16.44 203.853 16.264 203.293 16.264ZM209.403 22.132C209.099 22.132 208.811 22.092 208.539 22.012C208.275 21.94 208.043 21.828 207.843 21.676C207.651 21.524 207.499 21.336 207.387 21.112C207.275 20.88 207.219 20.608 207.219 20.296C207.219 19.92 207.283 19.612 207.411 19.372C207.547 19.132 207.735 18.94 207.975 18.796C208.223 18.652 208.515 18.54 208.851 18.46C209.195 18.38 209.575 18.316 209.991 18.268C210.231 18.244 210.447 18.212 210.639 18.172C210.831 18.132 210.995 18.08 211.131 18.016C211.267 17.944 211.371 17.856 211.443 17.752C211.515 17.648 211.551 17.512 211.551 17.344C211.551 16.992 211.431 16.716 211.191 16.516C210.959 16.316 210.619 16.216 210.171 16.216C209.659 16.216 209.275 16.328 209.019 16.552C208.771 16.776 208.639 17.08 208.623 17.464H207.543C207.551 17.192 207.611 16.932 207.723 16.684C207.835 16.436 207.999 16.216 208.215 16.024C208.431 15.832 208.699 15.68 209.019 15.568C209.347 15.456 209.727 15.4 210.159 15.4C210.463 15.4 210.747 15.428 211.011 15.484C211.275 15.54 211.511 15.628 211.719 15.748C211.991 15.908 212.203 16.132 212.355 16.42C212.507 16.708 212.583 17.068 212.583 17.5V20.512C212.583 20.768 212.627 20.96 212.715 21.088C212.803 21.216 212.987 21.248 213.267 21.184H213.315V21.964C213.235 21.988 213.147 22.008 213.051 22.024C212.963 22.048 212.851 22.06 212.715 22.06C212.371 22.06 212.111 21.98 211.935 21.82C211.759 21.652 211.639 21.396 211.575 21.052H211.563C211.459 21.196 211.339 21.332 211.203 21.46C211.067 21.588 210.911 21.704 210.735 21.808C210.559 21.904 210.359 21.98 210.135 22.036C209.919 22.1 209.675 22.132 209.403 22.132ZM209.679 21.316C209.999 21.316 210.275 21.264 210.507 21.16C210.747 21.048 210.943 20.912 211.095 20.752C211.255 20.584 211.371 20.4 211.443 20.2C211.523 20 211.563 19.808 211.563 19.624V18.568C211.403 18.672 211.191 18.764 210.927 18.844C210.671 18.916 210.411 18.976 210.147 19.024C209.883 19.072 209.643 19.124 209.427 19.18C209.211 19.228 209.027 19.3 208.875 19.396C208.723 19.484 208.603 19.6 208.515 19.744C208.435 19.88 208.395 20.06 208.395 20.284C208.395 20.492 208.431 20.664 208.503 20.8C208.575 20.928 208.671 21.032 208.791 21.112C208.911 21.192 209.047 21.248 209.199 21.28C209.359 21.304 209.519 21.316 209.679 21.316ZM216.249 18.604L215.337 19.468V22H214.221V13.072H215.337V17.308C215.337 17.42 215.333 17.576 215.325 17.776C215.317 17.968 215.305 18.144 215.289 18.304L218.085 15.556H219.477L217.017 17.872L219.765 22H218.457L216.249 18.604ZM223.913 15.556H225.017V16.564H225.053C225.293 16.196 225.577 15.912 225.905 15.712C226.241 15.504 226.641 15.4 227.105 15.4C227.513 15.4 227.885 15.48 228.221 15.64C228.565 15.792 228.857 16.016 229.097 16.312C229.345 16.6 229.537 16.956 229.673 17.38C229.809 17.796 229.877 18.268 229.877 18.796C229.877 19.316 229.813 19.784 229.685 20.2C229.557 20.616 229.369 20.972 229.121 21.268C228.881 21.564 228.585 21.792 228.233 21.952C227.889 22.112 227.501 22.192 227.069 22.192C226.629 22.192 226.237 22.104 225.893 21.928C225.549 21.752 225.265 21.492 225.041 21.148H225.005C225.013 21.26 225.017 21.408 225.017 21.592C225.025 21.768 225.029 21.98 225.029 22.228V24.184H223.913V15.556ZM226.949 21.268C227.245 21.268 227.505 21.208 227.729 21.088C227.953 20.96 228.137 20.788 228.281 20.572C228.433 20.356 228.545 20.1 228.617 19.804C228.697 19.5 228.737 19.172 228.737 18.82C228.737 18.468 228.701 18.14 228.629 17.836C228.557 17.532 228.445 17.272 228.293 17.056C228.149 16.832 227.965 16.66 227.741 16.54C227.517 16.412 227.257 16.348 226.961 16.348C226.617 16.348 226.321 16.412 226.073 16.54C225.825 16.668 225.617 16.844 225.449 17.068C225.289 17.292 225.169 17.556 225.089 17.86C225.009 18.156 224.969 18.476 224.969 18.82C224.969 19.156 225.005 19.476 225.077 19.78C225.149 20.076 225.265 20.336 225.425 20.56C225.585 20.776 225.789 20.948 226.037 21.076C226.285 21.204 226.589 21.268 226.949 21.268ZM232.165 16.72H232.201C232.401 16.344 232.661 16.044 232.981 15.82C233.301 15.588 233.677 15.472 234.109 15.472C234.197 15.472 234.269 15.48 234.325 15.496C234.389 15.504 234.453 15.52 234.517 15.544V16.6H234.481C234.401 16.576 234.329 16.56 234.265 16.552C234.201 16.544 234.121 16.54 234.025 16.54C233.777 16.54 233.541 16.588 233.317 16.684C233.093 16.772 232.897 16.9 232.729 17.068C232.561 17.236 232.425 17.44 232.321 17.68C232.225 17.92 232.177 18.192 232.177 18.496V22H231.061V15.556H232.165V16.72ZM235.584 13.072H236.748V14.368H235.584V13.072ZM235.608 15.556H236.724V22H235.608V15.556ZM238.016 21.136L240.896 17.38C240.96 17.292 241.036 17.2 241.124 17.104C241.212 17 241.296 16.904 241.376 16.816C241.464 16.712 241.56 16.608 241.664 16.504V16.468C241.512 16.476 241.364 16.484 241.22 16.492C241.092 16.5 240.96 16.504 240.824 16.504C240.688 16.504 240.564 16.504 240.452 16.504H238.232V15.556H243.068V16.252L240.14 20.08C240.068 20.168 239.984 20.268 239.888 20.38C239.8 20.484 239.712 20.584 239.624 20.68C239.528 20.792 239.428 20.904 239.324 21.016V21.052C239.484 21.052 239.64 21.048 239.792 21.04C239.928 21.032 240.068 21.028 240.212 21.028C240.356 21.02 240.488 21.016 240.608 21.016H243.212V22H238.016V21.136ZM246.959 22.18C246.463 22.18 246.019 22.092 245.627 21.916C245.243 21.74 244.915 21.5 244.643 21.196C244.371 20.884 244.163 20.524 244.019 20.116C243.883 19.7 243.815 19.256 243.815 18.784C243.815 18.32 243.887 17.884 244.031 17.476C244.183 17.06 244.391 16.7 244.655 16.396C244.927 16.084 245.251 15.84 245.627 15.664C246.011 15.488 246.435 15.4 246.899 15.4C247.379 15.4 247.803 15.488 248.171 15.664C248.539 15.84 248.851 16.084 249.107 16.396C249.371 16.716 249.567 17.1 249.695 17.548C249.831 17.996 249.899 18.496 249.899 19.048H244.955C244.979 19.36 245.039 19.652 245.135 19.924C245.231 20.196 245.363 20.432 245.531 20.632C245.699 20.832 245.903 20.988 246.143 21.1C246.383 21.212 246.659 21.268 246.971 21.268C247.419 21.268 247.787 21.172 248.075 20.98C248.371 20.78 248.571 20.508 248.675 20.164H249.767C249.623 20.764 249.303 21.252 248.807 21.628C248.319 21.996 247.703 22.18 246.959 22.18ZM246.899 16.264C246.611 16.264 246.355 16.316 246.131 16.42C245.907 16.516 245.715 16.652 245.555 16.828C245.395 17.004 245.267 17.212 245.171 17.452C245.075 17.692 245.011 17.956 244.979 18.244H248.711C248.679 17.62 248.507 17.136 248.195 16.792C247.891 16.44 247.459 16.264 246.899 16.264Z" fill="white"/>
<path fill-rule="evenodd" clip-rule="evenodd" d="M316.089 10.7441C315.933 10.5878 315.721 10.5 315.5 10.5H310.5C310.5 11.163 310.237 11.7989 309.768 12.2678C309.299 12.7366 308.663 13 308 13C307.337 13 306.701 12.7366 306.232 12.2678C305.763 11.7989 305.5 11.163 305.5 10.5H300.5C300.279 10.5 300.067 10.5878 299.911 10.7441C299.755 10.9004 299.667 11.1123 299.667 11.3333V17.1667C299.667 17.3877 299.755 17.5996 299.911 17.7559C300.067 17.9122 300.279 18 300.5 18L302.166 17.9992L302.167 24.6667C302.167 24.8877 302.255 25.0996 302.411 25.2559C302.567 25.4122 302.779 25.5 303 25.5H313C313.221 25.5 313.433 25.4122 313.589 25.2559C313.746 25.0996 313.833 24.8877 313.833 24.6667L313.833 18H315.5C315.721 18 315.933 17.9122 316.089 17.7559C316.246 17.5996 316.333 17.3877 316.333 17.1667V11.3333C316.333 11.1123 316.246 10.9004 316.089 10.7441ZM309.043 18.5611C309.466 18.6397 309.868 19.0623 309.937 19.6027C309.986 20.0253 309.977 20.9195 309.947 21.401C309.888 22.3542 309.21 22.9044 307.982 22.9044C306.636 22.9044 306.164 22.3935 306.046 21.401C306.007 21.0865 306.007 20.0646 306.085 19.5438C306.174 18.9345 306.606 18.6397 306.901 18.5513C306.577 18.4727 306.262 18.1386 306.213 17.5588C306.193 17.3524 306.174 16.4582 306.203 16.1929C306.282 15.5247 306.704 14.9056 307.982 14.9056C309.24 14.9056 309.731 15.5542 309.79 16.1929C309.829 16.6253 309.809 17.205 309.78 17.5195C309.731 18.0206 309.446 18.4432 309.043 18.5611ZM307.569 17.7062C307.628 17.9912 307.766 18.0501 307.982 18.0501C308.208 18.0501 308.394 17.9715 308.414 17.716C308.444 17.3917 308.444 16.5761 308.414 16.4484C308.365 16.1831 308.198 16.0848 307.982 16.0848C307.785 16.0848 307.599 16.1929 307.559 16.4484C307.54 16.5663 307.54 17.5588 307.569 17.7062ZM307.471 21.2929C307.51 21.568 307.707 21.7351 307.982 21.7351C308.267 21.7351 308.463 21.5779 308.503 21.3027C308.542 20.9588 308.542 19.9073 308.503 19.6322C308.453 19.3276 308.257 19.2097 307.982 19.2097C307.726 19.2097 307.51 19.3276 307.471 19.642C307.431 19.9073 307.431 21.0276 307.471 21.2929Z" fill="white"/>
<rect x="103.5" y="0.5" width="230" height="35" stroke="white"/>
<path d="M131.93 59.06H127.85V70.76L124.1 59.06H119.93V83H124.01V71.06L127.79 83H131.93V59.06ZM144.827 59.06H134.237V83H138.617V73.01H144.347V68.99H138.617V63.17H144.827V59.06ZM157.116 78.95H150.786V59.06H146.406V83H157.116V78.95ZM170.853 59.06H166.503V77.42C166.503 78.38 166.083 79.22 164.853 79.28C164.163 79.31 163.533 79.28 162.993 79.22V82.97C163.773 83.09 164.163 83.15 165.393 83.15C169.083 83.15 170.853 81.74 170.853 78.05V59.06ZM179.579 77.63C179.579 78.05 179.519 78.56 179.399 79.07C179.249 79.73 178.619 80 178.019 80C177.419 80 176.729 79.64 176.639 78.83C176.549 78.08 176.519 76.88 176.519 76.13H183.329C183.479 73.31 183.269 70.43 182.699 69.02C182.009 67.34 180.419 66.29 178.109 66.29C175.259 66.29 173.999 67.58 173.399 69.05C172.949 70.13 172.619 72.35 172.619 74.84C172.619 77.39 172.829 79.28 173.519 80.87C174.239 82.55 175.949 83.21 178.169 83.21C180.389 83.21 181.739 82.31 182.459 81.02C183.089 79.91 183.239 78.11 183.239 77.63H179.579ZM176.459 73.19C176.459 72.05 176.489 70.97 176.699 70.46C176.909 69.89 177.389 69.59 178.049 69.59C178.739 69.59 179.189 69.92 179.339 70.49C179.459 70.88 179.549 71.69 179.549 73.19H176.459ZM191.841 66.29C190.461 66.29 189.081 67.19 188.901 68.45V66.5H184.941V83H188.961V73.22C188.961 70.52 189.801 69.92 191.181 69.92C191.991 69.92 192.801 70.07 193.281 70.22V66.44C192.951 66.32 192.471 66.29 191.841 66.29ZM201.344 73.67C200.594 73.28 199.844 72.95 199.094 72.59C198.134 72.14 197.804 71.63 197.804 70.82C197.804 70.13 198.104 69.56 199.034 69.56C199.874 69.56 200.144 70.04 200.204 70.55C200.234 70.67 200.264 71.6 200.264 71.78H203.894C203.894 71.45 203.804 69.71 203.714 69.23C203.324 67.4 201.794 66.26 198.884 66.26C195.704 66.26 194.084 68.12 194.084 70.73C194.084 73.19 194.804 74.72 196.964 75.74C197.564 76.01 198.374 76.4 198.884 76.61C200.024 77.06 200.414 77.63 200.414 78.65C200.414 79.58 199.844 80.03 199.094 80.03C198.374 80.03 197.804 79.73 197.744 79.04C197.714 78.53 197.684 78.02 197.684 77.81H193.964C193.964 78.32 193.994 79.37 194.054 79.91C194.324 82.13 195.824 83.24 199.184 83.24C202.154 83.24 204.224 81.65 204.224 78.53C204.224 76.01 203.444 74.72 201.344 73.67ZM212.481 77.63C212.481 78.05 212.421 78.56 212.301 79.07C212.151 79.73 211.521 80 210.921 80C210.321 80 209.631 79.64 209.541 78.83C209.451 78.08 209.421 76.88 209.421 76.13H216.231C216.381 73.31 216.171 70.43 215.601 69.02C214.911 67.34 213.321 66.29 211.011 66.29C208.161 66.29 206.901 67.58 206.301 69.05C205.851 70.13 205.521 72.35 205.521 74.84C205.521 77.39 205.731 79.28 206.421 80.87C207.141 82.55 208.851 83.21 211.071 83.21C213.291 83.21 214.641 82.31 215.361 81.02C215.991 79.91 216.141 78.11 216.141 77.63H212.481ZM209.361 73.19C209.361 72.05 209.391 70.97 209.601 70.46C209.811 69.89 210.291 69.59 210.951 69.59C211.641 69.59 212.091 69.92 212.241 70.49C212.361 70.88 212.451 71.69 212.451 73.19H209.361ZM224.754 66.5C224.724 67.01 222.804 76.76 222.744 77.12C222.714 76.79 220.794 66.92 220.734 66.5H216.654L220.584 82.55L219.234 87.89H223.344L228.744 66.5H224.754ZM244.753 69.47H241.483V65.78H237.943V69.47H234.613V72.98H237.943V76.7H241.453V72.98H244.753V69.47ZM251.011 64.64C251.011 68.09 251.821 69.38 254.821 72.02C258.271 74.45 258.541 75.23 258.541 77.51C258.541 78.83 258.031 79.49 256.921 79.49C255.811 79.49 255.181 78.95 255.091 78.05C255.031 77.42 255.031 76.52 255.031 76.16H250.951C250.951 76.67 250.951 78.2 250.981 78.56C251.131 81.11 252.781 82.61 255.781 82.88V84.47H258.031V82.85C261.091 82.46 262.741 80.45 262.741 77.21C262.741 73.43 261.841 72.02 258.781 69.62C255.811 67.31 255.121 66.38 255.121 64.67C255.121 63.5 255.661 62.81 256.831 62.81C258.001 62.81 258.391 63.53 258.481 64.4C258.541 64.91 258.571 65.72 258.571 66.35H262.621C262.621 65.78 262.621 64.7 262.531 64.01C262.261 61.55 261.091 59.63 258.031 59.24V58.58H255.781V59.21C252.571 59.57 251.011 61.73 251.011 64.64ZM271.352 59.03H268.112C267.782 59.75 266.942 61.13 263.852 61.34V64.79L267.152 64.64V83H271.352V59.03ZM273.66 63.44C273.39 65.27 273.36 68.33 273.36 71C273.36 72.95 273.51 76.7 273.75 78.32C274.23 81.5 275.79 83.24 279.27 83.24C282.63 83.24 284.34 81.47 284.76 78.32C285.03 76.46 285.15 72.83 285.15 71C285.15 68.54 285.03 65.45 284.85 63.41C284.64 60.98 282.84 58.82 279.27 58.82C275.4 58.82 274.05 60.95 273.66 63.44ZM280.74 77.87C280.68 78.98 280.23 79.61 279.27 79.61C278.31 79.61 277.86 79.01 277.77 77.87C277.71 76.82 277.62 73.34 277.62 71.03C277.62 69.44 277.71 66.68 277.71 64.46C277.71 63.32 278.22 62.63 279.24 62.63C280.23 62.63 280.71 63.26 280.77 64.43C280.8 65.48 280.83 68.57 280.83 70.94C280.83 72.86 280.8 76.91 280.74 77.87ZM286.912 63.44C286.642 65.27 286.612 68.33 286.612 71C286.612 72.95 286.762 76.7 287.002 78.32C287.482 81.5 289.042 83.24 292.522 83.24C295.882 83.24 297.592 81.47 298.012 78.32C298.282 76.46 298.402 72.83 298.402 71C298.402 68.54 298.282 65.45 298.102 63.41C297.892 60.98 296.092 58.82 292.522 58.82C288.652 58.82 287.302 60.95 286.912 63.44ZM293.992 77.87C293.932 78.98 293.482 79.61 292.522 79.61C291.562 79.61 291.112 79.01 291.022 77.87C290.962 76.82 290.872 73.34 290.872 71.03C290.872 69.44 290.962 66.68 290.962 64.46C290.962 63.32 291.472 62.63 292.492 62.63C293.482 62.63 293.962 63.26 294.022 64.43C294.052 65.48 294.082 68.57 294.082 70.94C294.082 72.86 294.052 76.91 293.992 77.87ZM128.18 106.49C127.73 106.07 126.59 105.05 125.99 104.51C124.64 103.28 123.62 102.11 123.62 100.46C123.62 99.2 124.19 98.66 125.36 98.66C126.5 98.66 126.92 99.26 127.04 100.22C127.13 101 127.16 101.57 127.16 102.17H131.36C131.36 101.48 131.24 100.22 131.18 99.71C130.82 96.98 129.2 94.82 125.39 94.82C121.61 94.82 119.33 97.07 119.33 100.55C119.33 103.79 120.47 105.32 122.63 107.21C123.26 107.75 124.49 108.86 124.79 109.13C126.56 110.72 127.16 111.77 127.16 113.78C127.16 114.98 126.53 115.64 125.36 115.64C124.28 115.64 123.74 115.1 123.62 114.32C123.59 114.14 123.56 113.3 123.56 112.19H119.39C119.39 113.63 119.36 113.93 119.45 115.04C119.66 117.71 121.7 119.27 125.48 119.27C129.08 119.27 131.48 117.11 131.48 113.39C131.48 110.18 130.34 108.53 128.18 106.49ZM143.619 106.31C143.619 103.43 142.209 102.29 140.169 102.29C138.519 102.29 137.589 102.92 137.139 104.03V95.03H133.179V119H137.139V107.51C137.139 106.37 137.709 105.8 138.489 105.8C139.359 105.8 139.629 106.28 139.629 107.03C139.629 118.55 139.629 119 139.659 119H143.679C143.649 119 143.619 118.55 143.619 106.31ZM155.723 105.65C155.183 103.76 153.743 102.29 150.773 102.29C147.803 102.29 146.333 103.91 145.853 105.56C145.433 106.97 145.223 108.95 145.223 110.72C145.223 112.55 145.463 114.77 145.733 115.76C146.303 117.83 148.013 119.21 150.713 119.21C153.563 119.21 155.093 117.86 155.693 115.76C156.053 114.56 156.233 112.52 156.233 110.72C156.233 108.95 156.083 106.88 155.723 105.65ZM152.153 114.77C152.063 115.4 151.493 115.94 150.743 115.94C150.023 115.94 149.483 115.55 149.363 114.8C149.213 114.02 149.183 112.07 149.183 110.78C149.183 109.55 149.213 107.54 149.363 106.85C149.543 106.1 149.963 105.68 150.743 105.68C151.553 105.68 151.973 106.01 152.153 106.79C152.273 107.42 152.333 109.52 152.333 110.78C152.333 112.04 152.363 113.33 152.153 114.77ZM168.275 104.6C167.705 102.98 166.625 102.29 164.915 102.29C163.385 102.29 162.275 102.86 161.825 103.76L161.795 102.5H157.985V123.89H161.915V118.07C162.455 118.61 163.355 119.03 164.765 119.03C166.625 119.03 167.825 118.13 168.425 116.27C168.785 115.13 168.995 112.85 168.995 110.48C168.995 107.99 168.755 105.89 168.275 104.6ZM164.705 114.65C164.585 115.25 164.165 115.82 163.385 115.82C162.695 115.82 162.245 115.46 162.125 114.68C161.945 113.57 161.885 112.49 161.885 110.6C161.885 108.89 162.005 107.66 162.215 106.79C162.365 106.19 162.695 105.71 163.415 105.71C164.135 105.71 164.495 106.07 164.645 106.61C164.885 107.51 164.945 108.86 164.945 110.6C164.945 112.55 164.885 113.63 164.705 114.65ZM183.642 112.46C183.642 110.96 183.462 109.22 182.922 108.26C182.382 107.27 181.632 106.79 180.462 106.64C181.452 106.46 182.112 106.04 182.562 105.11C183.132 103.91 183.222 102.38 183.222 100.79C183.222 99.29 183.042 97.85 182.472 96.86C181.752 95.6 180.402 95.06 178.392 95.06H170.832V119H177.942C180.162 119 181.572 118.7 182.592 117.32C183.402 116.21 183.642 114.29 183.642 112.46ZM178.362 104.51C178.092 105.08 177.762 105.32 177.432 105.32H175.122V98.63H177.132C177.762 98.63 178.122 98.99 178.332 99.5C178.512 99.95 178.692 100.91 178.692 101.87C178.692 103.04 178.542 104.12 178.362 104.51ZM177.252 115.43H175.122V108.68H177.342C177.912 108.68 178.362 109.04 178.632 109.52C178.842 109.91 178.962 111.2 178.962 111.98C178.962 112.73 178.872 114.14 178.662 114.59C178.392 115.19 177.822 115.43 177.252 115.43ZM192.059 113.63C192.059 114.05 191.999 114.56 191.879 115.07C191.729 115.73 191.099 116 190.499 116C189.899 116 189.209 115.64 189.119 114.83C189.029 114.08 188.999 112.88 188.999 112.13H195.809C195.959 109.31 195.749 106.43 195.179 105.02C194.489 103.34 192.899 102.29 190.589 102.29C187.739 102.29 186.479 103.58 185.879 105.05C185.429 106.13 185.099 108.35 185.099 110.84C185.099 113.39 185.309 115.28 185.999 116.87C186.719 118.55 188.429 119.21 190.649 119.21C192.869 119.21 194.219 118.31 194.939 117.02C195.569 115.91 195.719 114.11 195.719 113.63H192.059ZM188.939 109.19C188.939 108.05 188.969 106.97 189.179 106.46C189.389 105.89 189.869 105.59 190.529 105.59C191.219 105.59 191.669 105.92 191.819 106.49C191.939 106.88 192.029 107.69 192.029 109.19H188.939ZM204.081 113.63C204.081 114.05 204.021 114.56 203.901 115.07C203.751 115.73 203.121 116 202.521 116C201.921 116 201.231 115.64 201.141 114.83C201.051 114.08 201.021 112.88 201.021 112.13H207.831C207.981 109.31 207.771 106.43 207.201 105.02C206.511 103.34 204.921 102.29 202.611 102.29C199.761 102.29 198.501 103.58 197.901 105.05C197.451 106.13 197.121 108.35 197.121 110.84C197.121 113.39 197.331 115.28 198.021 116.87C198.741 118.55 200.451 119.21 202.671 119.21C204.891 119.21 206.241 118.31 206.961 117.02C207.591 115.91 207.741 114.11 207.741 113.63H204.081ZM200.961 109.19C200.961 108.05 200.991 106.97 201.201 106.46C201.411 105.89 201.891 105.59 202.551 105.59C203.241 105.59 203.691 105.92 203.841 106.49C203.961 106.88 204.051 107.69 204.051 109.19H200.961ZM216.344 102.29C214.964 102.29 213.584 103.19 213.404 104.45V102.5H209.444V119H213.464V109.22C213.464 106.52 214.304 105.92 215.684 105.92C216.494 105.92 217.304 106.07 217.784 106.22V102.44C217.454 102.32 216.974 102.29 216.344 102.29ZM231.396 113.42V105.47H224.826V109.25H227.256C227.256 109.25 227.286 113.15 227.256 113.66C227.196 114.89 226.476 115.52 225.366 115.52C224.376 115.52 223.866 115.01 223.656 113.93C223.296 112.04 223.296 108.92 223.296 107.09C223.296 105.14 223.326 102.26 223.626 100.19C223.776 99.17 224.436 98.72 225.276 98.72C226.206 98.72 226.776 99.23 226.866 100.19C226.986 101.42 226.986 103.07 226.986 103.25H231.276C231.276 101.12 231.186 99.92 231.006 98.84C230.646 96.68 229.056 94.85 225.186 94.85C221.406 94.85 219.816 96.98 219.306 98.9C218.766 100.97 218.706 104.6 218.706 107.09C218.706 109.67 218.796 113.03 219.306 115.19C219.936 117.83 221.826 119.21 224.346 119.21C226.176 119.21 227.406 118.7 228.006 117.92L228.216 119H231.456C231.456 118.97 231.396 116.18 231.396 113.42ZM239.826 113.63C239.826 114.05 239.766 114.56 239.646 115.07C239.496 115.73 238.866 116 238.266 116C237.666 116 236.976 115.64 236.886 114.83C236.796 114.08 236.766 112.88 236.766 112.13H243.576C243.726 109.31 243.516 106.43 242.946 105.02C242.256 103.34 240.666 102.29 238.356 102.29C235.506 102.29 234.246 103.58 233.646 105.05C233.196 106.13 232.866 108.35 232.866 110.84C232.866 113.39 233.076 115.28 233.766 116.87C234.486 118.55 236.196 119.21 238.416 119.21C240.636 119.21 241.986 118.31 242.706 117.02C243.336 115.91 243.486 114.11 243.486 113.63H239.826ZM236.706 109.19C236.706 108.05 236.736 106.97 236.946 106.46C237.156 105.89 237.636 105.59 238.296 105.59C238.986 105.59 239.436 105.92 239.586 106.49C239.706 106.88 239.796 107.69 239.796 109.19H236.706ZM255.478 116.06C255.478 114.83 255.508 112.82 255.508 111.53C255.538 110 255.568 107.51 255.508 106.07C255.418 103.76 253.978 102.29 250.528 102.29C246.868 102.29 245.368 103.94 245.368 107.03V108.26H249.088V107.33C249.088 106.19 249.448 105.62 250.468 105.62C251.218 105.62 251.608 106.04 251.638 106.76C251.668 107.27 251.668 108.29 251.668 108.74C251.008 108.74 250.318 108.83 249.568 108.95C246.808 109.46 244.948 110.96 244.798 113.36C244.738 114.23 244.768 115.64 244.798 116C244.918 118.4 246.748 119.12 248.398 119.12C249.868 119.12 250.978 118.73 251.728 117.8C251.728 118.22 251.818 119 251.878 119H255.688C255.538 118.79 255.478 117.26 255.478 116.06ZM251.668 112.7C251.608 113.54 251.668 113.96 251.518 114.83C251.368 115.67 250.648 116 250.018 116C249.418 116 248.938 115.79 248.848 115.22C248.788 114.74 248.788 114.17 248.788 113.72C248.788 113.03 248.818 112.55 249.328 112.1C249.778 111.71 250.288 111.62 250.708 111.53C251.068 111.47 251.368 111.47 251.668 111.47C251.668 111.71 251.698 112.37 251.668 112.7ZM264.345 102.29C262.965 102.29 261.585 103.19 261.405 104.45V102.5H257.445V119H261.465V109.22C261.465 106.52 262.305 105.92 263.685 105.92C264.495 105.92 265.305 106.07 265.785 106.22V102.44C265.455 102.32 264.975 102.29 264.345 102.29ZM284.418 113.42V105.47H277.848V109.25H280.278C280.278 109.25 280.308 113.15 280.278 113.66C280.218 114.89 279.498 115.52 278.388 115.52C277.398 115.52 276.888 115.01 276.678 113.93C276.318 112.04 276.318 108.92 276.318 107.09C276.318 105.14 276.348 102.26 276.648 100.19C276.798 99.17 277.458 98.72 278.298 98.72C279.228 98.72 279.798 99.23 279.888 100.19C280.008 101.42 280.008 103.07 280.008 103.25H284.298C284.298 101.12 284.208 99.92 284.028 98.84C283.668 96.68 282.078 94.85 278.208 94.85C274.428 94.85 272.838 96.98 272.328 98.9C271.788 100.97 271.728 104.6 271.728 107.09C271.728 109.67 271.818 113.03 272.328 115.19C272.958 117.83 274.848 119.21 277.368 119.21C279.198 119.21 280.428 118.7 281.028 117.92L281.238 119H284.478C284.478 118.97 284.418 116.18 284.418 113.42ZM290.417 97.58H286.187V101.63H290.417V97.58ZM290.357 117.8V102.5H286.247V117.86C286.247 118.52 286.247 119 286.397 119H290.447C290.417 118.97 290.357 118.43 290.357 117.8ZM299.429 102.5H297.269V99.44C297.269 98.84 297.629 98.18 298.439 98.18C298.769 98.18 299.249 98.21 299.639 98.27V95C299.189 94.94 298.319 94.91 297.269 94.91C294.299 94.91 293.249 96.68 293.249 98.93V102.5H291.779V106.01H293.249V119H297.269V106.01H299.429V102.5ZM307.879 102.5H305.569V99.32L301.669 99.41C301.669 99.41 301.549 102.41 301.519 102.5H300.049V106.01H301.459V115.4C301.459 117.98 302.899 119.12 305.359 119.12C306.409 119.12 307.069 119.06 307.699 118.91V115.7C307.399 115.76 307.009 115.79 306.679 115.79C306.049 115.79 305.539 115.61 305.539 114.68V106.01H307.879V102.5ZM128.09 146.36C128.09 146.9 128.06 148.43 127.91 149.66C127.76 150.86 127.04 151.25 126.2 151.25C125.39 151.25 124.67 150.83 124.46 149.75C124.19 148.25 124.13 145.49 124.13 142.88C124.13 139.52 124.19 137.42 124.46 136.31C124.67 135.47 125.21 134.99 126.2 134.99C127.07 134.99 127.64 135.5 127.76 136.25C127.97 137.45 128.06 138.74 128.06 139.85H132.32C132.32 138.38 132.23 137 132.08 135.86C131.66 132.68 129.98 130.88 126.29 130.88C122.75 130.88 120.83 132.35 120.23 135.2C119.69 137.75 119.54 139.7 119.54 142.91C119.54 146.06 119.78 149.66 120.38 151.58C121.04 153.8 122.69 155.27 126.05 155.27C129.74 155.27 131.54 153.65 132.08 150.74C132.35 149.21 132.35 147.17 132.35 146.36H128.09ZM144.348 152.06C144.348 150.83 144.378 148.82 144.378 147.53C144.408 146 144.438 143.51 144.378 142.07C144.288 139.76 142.848 138.29 139.398 138.29C135.738 138.29 134.238 139.94 134.238 143.03V144.26H137.958V143.33C137.958 142.19 138.318 141.62 139.338 141.62C140.088 141.62 140.478 142.04 140.508 142.76C140.538 143.27 140.538 144.29 140.538 144.74C139.878 144.74 139.188 144.83 138.438 144.95C135.678 145.46 133.818 146.96 133.668 149.36C133.608 150.23 133.638 151.64 133.668 152C133.788 154.4 135.618 155.12 137.268 155.12C138.738 155.12 139.848 154.73 140.598 153.8C140.598 154.22 140.688 155 140.748 155H144.558C144.408 154.79 144.348 153.26 144.348 152.06ZM140.538 148.7C140.478 149.54 140.538 149.96 140.388 150.83C140.238 151.67 139.518 152 138.888 152C138.288 152 137.808 151.79 137.718 151.22C137.658 150.74 137.658 150.17 137.658 149.72C137.658 149.03 137.688 148.55 138.198 148.1C138.648 147.71 139.158 147.62 139.578 147.53C139.938 147.47 140.238 147.47 140.538 147.47C140.538 147.71 140.568 148.37 140.538 148.7ZM153.215 138.29C151.835 138.29 150.455 139.19 150.275 140.45V138.5H146.315V155H150.335V145.22C150.335 142.52 151.175 141.92 152.555 141.92C153.365 141.92 154.175 142.07 154.655 142.22V138.44C154.325 138.32 153.845 138.29 153.215 138.29ZM156.03 140.93C155.55 142.73 155.4 144.38 155.4 146.81C155.4 149.45 155.7 151.64 156.24 152.96C156.84 154.46 157.95 155.12 159.6 155.12C161.07 155.12 162.06 154.64 162.6 153.8L163.08 155H166.44C166.44 155 166.32 153.62 166.32 152.69V131.03H162.39V139.7C161.94 138.83 160.86 138.35 159.6 138.35C157.83 138.35 156.45 139.31 156.03 140.93ZM162.12 142.67C162.3 143.57 162.42 144.47 162.42 146.84C162.42 148.28 162.36 149.78 162.15 150.83C162.03 151.46 161.64 151.94 160.86 151.94C160.05 151.94 159.63 151.55 159.54 150.92C159.39 149.69 159.33 148.22 159.33 146.84C159.33 145.43 159.39 144.02 159.6 142.82C159.72 142.22 160.14 141.77 160.89 141.77C161.64 141.77 162 142.1 162.12 142.67Z" fill="white"/>
<rect x="103.5" y="0.5" width="230" height="179" stroke="white"/>
</g>
<rect x="0.5" y="0.5" width="333" height="179" rx="7.5" stroke="white"/>
<defs>
<clipPath id="clip0_4719_146415">
<rect width="334" height="180" rx="8" fill="white"/>
</clipPath>
</defs>
</svg>
