<svg width="100%" height="auto" viewBox="0 0 335 208" fill="none" xmlns="http://www.w3.org/2000/svg">
<g clip-path="url(#clip0_2388_31315)">
<path d="M67.24 80.4085C67.24 74.4885 66.92 62.4085 65.32 57.5285C63.32 51.5285 58.84 48.7285 51.8 48.7285C44.04 48.7285 39.16 52.4885 37.56 58.0085C36.2 62.8085 36.12 78.3285 37.4 82.8085C38.68 87.4485 42.52 89.6885 47.72 89.6885C51.16 89.6885 54.04 88.7285 55.88 86.6485C55.88 88.0085 55.8 96.7285 55.72 99.6085C55.56 102.568 54.04 104.088 51.72 104.088C49.32 104.088 48.04 103.208 47.8 100.088C47.72 99.3685 47.72 97.3685 47.72 95.6885H37.08C37.08 97.0485 37.16 100.888 37.48 103.128C38.52 110.008 43.32 113.848 51.4 113.848C60.6 113.848 65.08 108.968 66.28 101.448C66.92 97.4485 67.24 86.3285 67.24 80.4085ZM51.8 80.5685C49.48 80.5685 48.04 79.1285 47.8 76.9685C47.56 74.9685 47.64 64.4085 47.8 62.4085C48.04 60.0885 49.56 58.7285 51.64 58.7285C54.04 58.7285 55.4 60.0885 55.64 62.7285C55.8 64.4885 56.04 76.0885 55.88 77.6885C55.48 78.8885 54.28 80.5685 51.8 80.5685Z" fill="white"/>
<path d="M38.1123 136.352V132.992H33.7023V134.574H36.4043C36.4043 134.574 36.4183 136.17 36.3903 136.31C36.2083 137.136 35.4663 137.766 34.2763 137.766C33.2963 137.766 32.6943 137.514 32.3163 136.968C31.8683 136.31 31.7423 135.344 31.7423 133.706C31.7423 132.096 31.9383 131.046 32.3303 130.444C32.7083 129.884 33.3103 129.646 34.1503 129.646C34.9343 129.646 35.4803 129.884 35.8023 130.36C36.0963 130.808 36.2643 131.466 36.2643 131.844H38.0563C38.0563 131.354 37.9163 130.388 37.5803 129.716C37.0763 128.722 36.0263 127.98 34.1083 127.98C32.2603 127.98 31.2243 128.75 30.6363 129.66C30.0203 130.626 29.8383 131.956 29.8383 133.678C29.8383 135.68 30.1463 136.968 30.6783 137.808C31.3223 138.816 32.4143 139.348 33.8843 139.348C35.3963 139.348 36.2083 138.816 36.5863 138.256L36.6703 139.208H38.1263C38.1263 139.166 38.1123 137.682 38.1123 136.352ZM46.8892 136.52L47.6592 139.208H49.5632L46.2872 128.12H43.9352L40.4352 139.208H42.3112L43.1232 136.52H46.8892ZM43.6272 134.924C43.6272 134.924 44.8452 130.906 44.8592 130.836C44.8872 130.724 45.0692 129.842 45.0692 129.842C45.0692 129.842 45.2512 130.724 45.2792 130.836C45.3072 130.92 46.4132 134.924 46.4132 134.924H43.6272ZM62.0557 128.12H59.6617L57.1697 136.366L54.7197 128.12H52.1857V139.208H53.9077V131.606L56.1897 139.208H57.9957L60.3197 131.578V139.208H62.0557V128.12ZM72.4428 137.528H67.3888V134.49H72.1628V132.796H67.3888V129.8H72.3868V128.12H65.5688V139.208H72.4428V137.528ZM27.3392 153.034C27.0312 152.922 26.3732 152.67 25.9812 152.544C24.6232 152.096 23.9512 151.662 23.9512 150.794C23.9512 150.052 24.4552 149.604 25.8692 149.604C27.0732 149.604 27.6332 149.94 27.8712 150.626C27.9552 150.878 27.9972 151.088 27.9972 151.326H29.8732C29.8732 150.906 29.8032 150.57 29.7052 150.234C29.3132 148.862 28.1932 147.994 25.9112 147.994C23.2932 147.994 22.0612 149.142 22.0612 150.85C22.0612 152.488 23.1392 153.468 24.8052 154.014C25.2672 154.168 25.9252 154.42 26.2052 154.518C27.6892 155.036 28.1372 155.484 28.1372 156.422C28.1372 157.262 27.5352 157.766 26.1212 157.766C24.9172 157.766 24.2172 157.458 24.0072 156.8C23.9232 156.534 23.8812 156.156 23.8812 155.96H22.0192C22.0192 156.282 22.0472 156.8 22.1452 157.178C22.4812 158.48 23.6012 159.348 26.1632 159.348C28.7532 159.348 30.0272 158.116 30.0272 156.268C30.0272 154.546 29.0752 153.636 27.3392 153.034ZM39.9652 148.12H32.1112V149.786H35.0932V159.208H36.9692V149.786H39.9652V148.12ZM49.8119 149.352C49.4199 148.568 48.6779 148.12 47.4599 148.12H42.6299V159.208H44.4499V154.588H46.8579L48.7899 159.208H50.8199L48.6359 154.182C49.1259 154.084 49.5739 153.734 49.8539 153.202C50.0639 152.782 50.1759 152.166 50.1759 151.326C50.1759 150.43 50.0919 149.884 49.8119 149.352ZM48.1879 152.516C48.0479 152.824 47.6979 152.992 47.2079 153.006H44.4639V149.772H47.0679C47.6979 149.772 48.0899 149.996 48.2439 150.416C48.3139 150.598 48.3419 151.088 48.3419 151.494C48.3419 151.83 48.2859 152.278 48.1879 152.516ZM60.5081 157.528H55.4541V154.49H60.2281V152.796H55.4541V149.8H60.4521V148.12H53.6341V159.208H60.5081V157.528ZM69.1703 156.52L69.9403 159.208H71.8443L68.5683 148.12H66.2163L62.7163 159.208H64.5923L65.4043 156.52H69.1703ZM65.9083 154.924C65.9083 154.924 67.1263 150.906 67.1403 150.836C67.1683 150.724 67.3503 149.842 67.3503 149.842C67.3503 149.842 67.5323 150.724 67.5603 150.836C67.5883 150.92 68.6943 154.924 68.6943 154.924H65.9083ZM78.4008 152.908L82.3908 148.12H80.3188L76.3148 152.838V148.12H74.4668V159.208H76.3148V155.246L77.1268 154.294L80.2908 159.208H82.4748L78.4008 152.908Z" fill="white"/>
<path d="M123.77 31.4325C124.764 31.4325 125.59 31.1385 126.192 30.5785C127.158 29.7105 127.564 28.2405 127.564 26.2525C127.564 24.0685 127.2 22.6405 126.066 21.7725C125.478 21.3245 124.708 21.0025 123.714 21.0025C121.67 21.0025 120.158 22.5285 120.172 24.4185C120.186 26.2945 121.67 27.8065 123.518 27.8065C124.694 27.8065 125.618 27.2745 126.262 26.3925H126.29C126.234 27.9605 125.982 29.0245 125.408 29.6545C125.016 30.1025 124.484 30.3265 123.742 30.3265C122.468 30.3265 121.796 29.5705 121.67 28.7445H120.312C120.438 30.2145 121.796 31.4325 123.77 31.4325ZM123.7 26.7145C122.44 26.7145 121.432 25.7485 121.432 24.3905C121.432 23.0185 122.37 22.0805 123.714 22.0805C125.03 22.0805 126.08 23.0185 126.08 24.3905C126.08 25.7625 125.156 26.7145 123.7 26.7145ZM136.056 33.8405C137.064 33.8405 137.904 33.6165 138.492 33.1265C139.066 32.6365 139.402 31.8945 139.402 30.9005V23.6905H138.114V24.6845H138.086C137.61 23.9285 136.882 23.5085 135.804 23.5085C134.04 23.5085 132.584 24.8805 132.584 27.1905C132.584 29.3745 133.956 30.8725 135.874 30.8725C136.938 30.8725 137.596 30.4105 138.114 29.6685H138.142C138.128 29.9065 138.114 30.3125 138.114 30.7465V30.9565C138.114 32.2305 137.372 32.8325 136.028 32.8325C134.908 32.8325 134.152 32.5105 134.04 31.7265H132.822C132.962 33.0565 134.082 33.8405 136.056 33.8405ZM136 29.8085C134.642 29.8085 133.914 28.8005 133.914 27.2045C133.914 25.6225 134.614 24.5865 135.986 24.5865C137.484 24.5865 138.198 25.5525 138.198 27.1345C138.198 28.6605 137.638 29.8085 136 29.8085ZM143.445 31.3625C144.719 31.3625 145.489 30.7605 145.965 30.1025H145.979C146.119 30.9005 146.511 31.2785 147.309 31.2785C147.617 31.2785 147.827 31.2225 148.009 31.1665V30.2565H147.953C147.295 30.3965 147.155 30.0745 147.155 29.4725V25.9585C147.155 24.9505 146.777 24.2925 146.147 23.9145C145.671 23.6345 145.041 23.5085 144.327 23.5085C142.297 23.5085 141.331 24.6425 141.275 25.9165H142.535C142.577 25.0205 143.151 24.4605 144.341 24.4605C145.377 24.4605 145.951 24.9645 145.951 25.7765C145.951 26.5465 145.237 26.7285 144.131 26.8545C142.185 27.0925 140.897 27.4705 140.897 29.2205C140.897 30.6625 142.017 31.3625 143.445 31.3625ZM143.767 30.4105C143.011 30.4105 142.269 30.1725 142.269 29.2065C142.269 28.1705 143.081 27.9465 144.313 27.7365C144.929 27.6245 145.587 27.4425 145.965 27.2045V28.4365C145.965 29.3045 145.265 30.4105 143.767 30.4105ZM149.066 31.2085H150.368V26.5745C150.368 25.4265 151.334 24.6005 152.23 24.6005C153 24.6005 153.518 25.1465 153.518 26.0705V31.2085H154.806V26.5745C154.806 25.4265 155.632 24.6005 156.584 24.6005C157.34 24.6005 157.942 25.1465 157.942 26.0705V31.2085H159.244V25.9585C159.244 24.3905 158.292 23.5085 156.92 23.5085C156.01 23.5085 155.128 23.9705 154.596 24.9085H154.568C154.26 23.9845 153.532 23.5085 152.622 23.5085C151.656 23.5085 150.858 23.9985 150.396 24.8105H150.354V23.6905H149.066V31.2085ZM164.25 31.4185C165.986 31.4185 167.19 30.4665 167.526 29.0665H166.252C166.014 29.8645 165.3 30.3545 164.264 30.3545C162.808 30.3545 162.01 29.2345 161.912 27.7645H167.68C167.68 26.4905 167.372 25.4125 166.756 24.6705C166.168 23.9425 165.3 23.5085 164.18 23.5085C162.024 23.5085 160.582 25.2725 160.582 27.4565C160.582 29.6545 161.94 31.4185 164.25 31.4185ZM164.18 24.5165C165.482 24.5165 166.224 25.3845 166.294 26.8265H161.94C162.108 25.4965 162.822 24.5165 164.18 24.5165ZM174.411 31.2085H175.727L176.861 27.0645C177.043 26.3505 177.323 24.9645 177.323 24.9645H177.351C177.351 24.9645 177.645 26.3365 177.827 27.0645L178.933 31.2085H180.235L182.685 23.6905H181.341L180.095 27.8625C179.815 28.7865 179.605 30.0745 179.605 30.0745H179.577C179.577 30.0745 179.311 28.6885 179.101 27.8905L177.981 23.6905H176.749L175.615 27.8905C175.363 28.8005 175.111 30.0605 175.111 30.0605H175.083C175.083 30.0605 174.831 28.7165 174.593 27.8625L173.417 23.6905H172.031L174.411 31.2085ZM183.696 22.3045H185.054V20.7925H183.696V22.3045ZM183.724 31.2085H185.026V23.6905H183.724V31.2085ZM188.102 23.6905H186.814V31.2085H188.116V26.6305C188.116 25.4265 188.956 24.6005 190.118 24.6005C191.14 24.6005 191.77 25.1465 191.77 26.1125V31.2085H193.058V25.9585C193.058 24.3905 192.092 23.5085 190.524 23.5085C189.432 23.5085 188.69 23.9985 188.144 24.7545H188.102V23.6905ZM201.415 31.4325C203.179 31.4325 204.439 30.6485 204.439 29.1225C204.439 27.3725 203.151 27.0365 201.653 26.7425C200.379 26.4905 199.651 26.3365 199.651 25.5525C199.651 24.9785 200.085 24.5025 201.107 24.5025C202.185 24.5025 202.717 24.9365 202.829 25.7065H204.131C203.963 24.4045 203.025 23.5225 201.135 23.5225C199.385 23.5225 198.377 24.3345 198.377 25.6225C198.377 27.2745 199.707 27.5825 201.177 27.8905C202.507 28.1565 203.137 28.3665 203.137 29.1925C203.137 29.8645 202.633 30.3825 201.443 30.3825C200.365 30.3825 199.525 30.0185 199.371 28.9265H198.055C198.167 30.4525 199.343 31.4325 201.415 31.4325ZM205.247 24.6985H206.423V29.7385C206.423 30.8445 207.123 31.2505 208.131 31.2645C208.467 31.2645 208.831 31.2225 209.181 31.1385V30.0465H209.139C208.999 30.0885 208.705 30.1445 208.481 30.1445C208.005 30.1445 207.711 29.9905 207.711 29.4445V24.6985H209.265V23.6905H207.711V21.3245H206.423V23.6905H205.247V24.6985ZM211.905 23.6905H210.617V31.2085H211.919V27.1205C211.919 25.7065 212.913 24.8385 214.075 24.8385C214.299 24.8385 214.425 24.8525 214.607 24.9085H214.649V23.6765C214.509 23.6205 214.383 23.5925 214.173 23.5925C213.179 23.5925 212.409 24.1805 211.947 25.0485H211.905V23.6905ZM218.91 31.4185C220.646 31.4185 221.85 30.4665 222.186 29.0665H220.912C220.674 29.8645 219.96 30.3545 218.924 30.3545C217.468 30.3545 216.67 29.2345 216.572 27.7645H222.34C222.34 26.4905 222.032 25.4125 221.416 24.6705C220.828 23.9425 219.96 23.5085 218.84 23.5085C216.684 23.5085 215.242 25.2725 215.242 27.4565C215.242 29.6545 216.6 31.4185 218.91 31.4185ZM218.84 24.5165C220.142 24.5165 220.884 25.3845 220.954 26.8265H216.6C216.768 25.4965 217.482 24.5165 218.84 24.5165ZM225.968 31.3625C227.242 31.3625 228.012 30.7605 228.488 30.1025H228.502C228.642 30.9005 229.034 31.2785 229.832 31.2785C230.14 31.2785 230.35 31.2225 230.532 31.1665V30.2565H230.476C229.818 30.3965 229.678 30.0745 229.678 29.4725V25.9585C229.678 24.9505 229.3 24.2925 228.67 23.9145C228.194 23.6345 227.564 23.5085 226.85 23.5085C224.82 23.5085 223.854 24.6425 223.798 25.9165H225.058C225.1 25.0205 225.674 24.4605 226.864 24.4605C227.9 24.4605 228.474 24.9645 228.474 25.7765C228.474 26.5465 227.76 26.7285 226.654 26.8545C224.708 27.0925 223.42 27.4705 223.42 29.2205C223.42 30.6625 224.54 31.3625 225.968 31.3625ZM226.29 30.4105C225.534 30.4105 224.792 30.1725 224.792 29.2065C224.792 28.1705 225.604 27.9465 226.836 27.7365C227.452 27.6245 228.11 27.4425 228.488 27.2045V28.4365C228.488 29.3045 227.788 30.4105 226.29 30.4105ZM236.531 31.2085H238.057L234.851 26.3925L237.721 23.6905H236.097L232.835 26.8965C232.863 26.5325 232.891 26.0005 232.891 25.7345V20.7925H231.589V31.2085H232.891V28.2545L233.955 27.2465L236.531 31.2085ZM242.896 33.7565H244.198V31.4745C244.198 30.9005 244.184 30.4805 244.17 30.2145H244.212C244.73 31.0125 245.556 31.4325 246.578 31.4325C248.608 31.4325 249.854 29.8785 249.854 27.4705C249.854 24.9925 248.538 23.5085 246.62 23.5085C245.542 23.5085 244.786 24.0125 244.226 24.8665H244.184V23.6905H242.896V33.7565ZM246.438 30.3545C244.772 30.3545 244.128 29.0805 244.128 27.4985C244.128 25.9025 244.856 24.6145 246.452 24.6145C247.838 24.6145 248.524 25.8465 248.524 27.4985C248.524 29.1365 247.824 30.3545 246.438 30.3545ZM252.524 23.6905H251.236V31.2085H252.538V27.1205C252.538 25.7065 253.532 24.8385 254.694 24.8385C254.918 24.8385 255.044 24.8525 255.226 24.9085H255.268V23.6765C255.128 23.6205 255.002 23.5925 254.792 23.5925C253.798 23.5925 253.028 24.1805 252.566 25.0485H252.524V23.6905ZM256.513 22.3045H257.871V20.7925H256.513V22.3045ZM256.541 31.2085H257.843V23.6905H256.541V31.2085ZM259.35 31.2085H265.412V30.0605H262.374C261.828 30.0605 260.876 30.1025 260.876 30.1025V30.0605C260.876 30.0605 261.506 29.3745 261.828 28.9685L265.244 24.5025V23.6905H259.602V24.7965H262.192C262.71 24.7965 263.606 24.7545 263.606 24.7545V24.7965C263.606 24.7965 263.018 25.4265 262.71 25.8185L259.35 30.2005V31.2085ZM269.783 31.4185C271.519 31.4185 272.723 30.4665 273.059 29.0665H271.785C271.547 29.8645 270.833 30.3545 269.797 30.3545C268.341 30.3545 267.543 29.2345 267.445 27.7645H273.213C273.213 26.4905 272.905 25.4125 272.289 24.6705C271.701 23.9425 270.833 23.5085 269.713 23.5085C267.557 23.5085 266.115 25.2725 266.115 27.4565C266.115 29.6545 267.473 31.4185 269.783 31.4185ZM269.713 24.5165C271.015 24.5165 271.757 25.3845 271.827 26.8265H267.473C267.641 25.4965 268.355 24.5165 269.713 24.5165Z" fill="white"/>
<g clip-path="url(#clip1_2388_31315)">
<path fill-rule="evenodd" clip-rule="evenodd" d="M318.146 31.1577C318.235 31.0116 318.28 30.8275 318.28 30.6052V21.8215C318.28 21.5992 318.235 21.4182 318.146 21.2785C318.058 21.1324 317.918 21.0149 317.727 20.926C317.194 20.6592 316.759 20.3512 316.422 20.0019C316.079 19.6462 315.746 19.1476 315.422 18.5062C315.219 18.1441 314.923 17.9631 314.536 17.9631H298.464C298.077 17.9631 297.785 18.1441 297.588 18.5062C297.257 19.1476 296.924 19.6462 296.587 20.0019C296.244 20.3512 295.806 20.6592 295.273 20.926C295.082 21.0149 294.942 21.1324 294.853 21.2785C294.765 21.4182 294.72 21.5992 294.72 21.8215V30.6052C294.72 30.8275 294.765 31.0116 294.853 31.1577C294.942 31.2974 295.082 31.4118 295.273 31.5007C295.806 31.7611 296.244 32.0691 296.587 32.4248C296.924 32.7741 297.257 33.2727 297.588 33.9205C297.785 34.2761 298.077 34.454 298.464 34.454H314.536C314.923 34.454 315.219 34.2761 315.422 33.9205C315.746 33.2727 316.079 32.7741 316.422 32.4248C316.759 32.0691 317.194 31.7611 317.727 31.5007C317.918 31.4118 318.058 31.2974 318.146 31.1577ZM310.54 26.5391V27.3533C310.54 27.4938 310.427 27.6076 310.286 27.6076C310.146 27.6076 310.032 27.4939 310.032 27.3533V26.5391H308.688V27.3533C308.688 27.4938 308.574 27.6076 308.434 27.6076C308.293 27.6076 308.179 27.4939 308.179 27.3533V26.5391H306.836V27.3533C306.836 27.4938 306.722 27.6076 306.582 27.6076C306.441 27.6076 306.327 27.4939 306.327 27.3533V26.5391H304.984V27.3533C304.984 27.4938 304.87 27.6076 304.73 27.6076C304.589 27.6076 304.476 27.4939 304.476 27.3533V26.5391H303.132V27.3533C303.132 27.4938 303.018 27.6076 302.878 27.6076C302.738 27.6076 302.624 27.4939 302.624 27.3533V26.5391H301.614L301.614 30.1869C303.093 30.9867 304.783 31.4453 306.582 31.4453C308.381 31.4453 310.071 30.9864 311.55 30.1869V26.5391H310.54ZM315.651 26.2084C315.652 25.2168 313.824 23.7335 312.568 22.8557V29.5618C313.824 28.6838 315.65 27.3008 315.651 26.2084ZM302.624 25.2166V26.0306L301.614 26.0304V22.2301C303.093 21.4306 304.783 20.9717 306.582 20.9717C308.382 20.9717 310.072 21.4304 311.55 22.23V26.0306H310.54V25.2166C310.54 25.0761 310.426 24.9622 310.286 24.9622C310.145 24.9622 310.031 25.0761 310.031 25.2166V26.0306H308.688V25.2166C308.688 25.0761 308.574 24.9622 308.434 24.9622C308.293 24.9622 308.179 25.0761 308.179 25.2166V26.0306H306.836V25.2166C306.836 25.0761 306.722 24.9622 306.582 24.9622C306.441 24.9622 306.327 25.0761 306.327 25.2166V26.0306H304.984V25.2166C304.984 25.0761 304.87 24.9622 304.73 24.9622C304.589 24.9622 304.476 25.0761 304.476 25.2166V26.0306H303.132V25.2166C303.132 25.0761 303.018 24.9622 302.878 24.9622C302.738 24.9622 302.624 25.0761 302.624 25.2166ZM297.349 26.2084C297.348 25.2168 299.176 23.7335 300.432 22.8557V29.5618C299.176 28.6838 297.35 27.3008 297.349 26.2084Z" fill="white"/>
</g>
<rect x="104" y="1.32593" width="230" height="49.7652" stroke="white"/>
<path d="M133.72 69.8631H119.608V74.7951H123.964V98.5911H129.292V74.7951H133.72V69.8631ZM149.302 78.7911L147.718 93.3351L145.63 78.7911H140.698L138.862 93.3351L137.026 78.7911H132.13L135.694 98.5911H141.454C141.454 98.5911 142.714 91.5711 143.11 89.2311C143.146 89.0151 143.182 87.1791 143.182 87.1791C143.182 87.1791 143.29 89.0151 143.326 89.2311C143.722 91.4991 144.946 98.5911 144.946 98.5911H150.634L154.09 78.7911H149.302ZM167.18 82.5711C166.532 80.3031 164.804 78.5391 161.24 78.5391C157.676 78.5391 155.912 80.4831 155.336 82.4631C154.832 84.1551 154.58 86.5311 154.58 88.6551C154.58 90.8511 154.868 93.5151 155.192 94.7031C155.876 97.1871 157.928 98.8431 161.168 98.8431C164.588 98.8431 166.424 97.2231 167.144 94.7031C167.576 93.2631 167.792 90.8151 167.792 88.6551C167.792 86.5311 167.612 84.0471 167.18 82.5711ZM162.896 93.5151C162.788 94.2711 162.104 94.9191 161.204 94.9191C160.34 94.9191 159.692 94.4511 159.548 93.5511C159.368 92.6151 159.332 90.2751 159.332 88.7271C159.332 87.2511 159.368 84.8391 159.548 84.0111C159.764 83.1111 160.268 82.6071 161.204 82.6071C162.176 82.6071 162.68 83.0031 162.896 83.9391C163.04 84.6951 163.112 87.2151 163.112 88.7271C163.112 90.2391 163.148 91.7871 162.896 93.5151ZM190.14 69.8631H185.244V83.9031L180.744 69.8631H175.74V98.5911H180.636V84.2631L185.172 98.5911H190.14V69.8631ZM205.437 69.8631H192.729V98.5911H197.985V86.6031H204.861V81.7791H197.985V74.7951H205.437V69.8631ZM220.003 93.7311H212.407V69.8631H207.151V98.5911H220.003V93.7311ZM227.523 83.2551C227.487 83.9031 227.487 86.8191 227.559 87.6831C227.667 89.1951 228.423 90.3111 229.107 90.7431C227.775 91.1751 226.767 92.3631 226.767 93.7671C226.767 95.2071 227.487 96.3591 229.107 96.5751C227.631 97.1511 226.587 97.8711 226.587 99.6351C226.587 102.479 229.539 103.595 234.111 103.595C238.935 103.595 241.563 101.795 241.563 98.4831C241.563 95.6391 240.159 93.5871 234.651 93.5871C231.339 93.5871 230.619 93.5151 230.619 92.6871C230.619 92.2551 230.907 91.9311 231.447 91.8591C231.987 92.1471 232.779 92.4711 234.075 92.4711C237.387 92.4711 239.475 90.8511 239.907 88.2591C240.051 87.2511 240.051 84.8751 240.051 84.1191C240.051 83.1831 239.799 82.1031 239.547 81.6351C239.619 81.5631 241.563 81.5271 241.671 81.5271V78.6831C240.375 78.6471 239.007 78.9711 238.251 79.8711C237.639 79.1871 236.343 78.4671 233.787 78.4671C229.575 78.4671 227.595 80.8431 227.523 83.2551ZM235.407 83.6871C235.443 84.4071 235.443 87.2151 235.407 87.6831C235.371 88.5471 234.939 89.1231 233.823 89.1231C232.779 89.1231 232.275 88.5471 232.239 87.6831C232.203 87.1071 232.239 84.4071 232.239 83.9391C232.275 82.8951 232.815 82.4271 233.823 82.4271C234.831 82.4271 235.335 82.8231 235.407 83.6871ZM230.655 98.6991C230.655 97.8351 231.015 97.6551 231.771 97.2591C232.203 97.2951 233.139 97.2591 234.003 97.2951C236.451 97.4391 237.315 97.6911 237.315 98.6271C237.315 99.6711 236.271 100.103 234.003 100.103C231.627 100.103 230.655 99.6711 230.655 98.6991ZM254.922 95.0631C254.922 93.5871 254.958 91.1751 254.958 89.6271C254.994 87.7911 255.03 84.8031 254.958 83.0751C254.85 80.3031 253.122 78.5391 248.982 78.5391C244.59 78.5391 242.79 80.5191 242.79 84.2271V85.7031H247.254V84.5871C247.254 83.2191 247.686 82.5351 248.91 82.5351C249.81 82.5351 250.278 83.0391 250.314 83.9031C250.35 84.5151 250.35 85.7391 250.35 86.2791C249.558 86.2791 248.73 86.3871 247.83 86.5311C244.518 87.1431 242.286 88.9431 242.106 91.8231C242.034 92.8671 242.07 94.5591 242.106 94.9911C242.25 97.8711 244.446 98.7351 246.426 98.7351C248.19 98.7351 249.522 98.2671 250.422 97.1511C250.422 97.6551 250.53 98.5911 250.602 98.5911H255.174C254.994 98.3391 254.922 96.5031 254.922 95.0631ZM250.35 91.0311C250.278 92.0391 250.35 92.5431 250.17 93.5871C249.99 94.5951 249.126 94.9911 248.37 94.9911C247.65 94.9911 247.074 94.7391 246.966 94.0551C246.894 93.4791 246.894 92.7951 246.894 92.2551C246.894 91.4271 246.93 90.8511 247.542 90.3111C248.082 89.8431 248.694 89.7351 249.198 89.6271C249.63 89.5551 249.99 89.5551 250.35 89.5551C250.35 89.8431 250.386 90.6351 250.35 91.0311ZM276.65 98.5911C276.686 98.5911 276.614 98.0151 276.614 82.6791C276.614 80.1951 275.534 78.5031 272.798 78.5031C270.962 78.5031 269.558 79.2951 268.946 80.8071C268.442 79.4031 267.398 78.5031 265.598 78.5031C263.51 78.5031 262.214 79.4391 261.746 80.6631V78.7911H257.102V98.5911H261.854V84.5511C261.854 83.5791 262.43 82.6791 263.402 82.6791C264.23 82.6791 264.626 83.2191 264.626 84.0831V98.5911H269.27V84.4071C269.27 83.5071 269.81 82.6791 270.746 82.6791C271.754 82.6791 272.006 83.3631 272.006 84.1551C272.006 98.0151 272.006 98.5911 272.042 98.5911H276.65ZM286.794 92.1471C286.794 92.6511 286.722 93.2631 286.578 93.8751C286.398 94.6671 285.642 94.9911 284.922 94.9911C284.202 94.9911 283.374 94.5591 283.266 93.5871C283.158 92.6871 283.122 91.2471 283.122 90.3471H291.294C291.474 86.9631 291.222 83.5071 290.538 81.8151C289.71 79.7991 287.802 78.5391 285.03 78.5391C281.61 78.5391 280.098 80.0871 279.378 81.8511C278.838 83.1471 278.442 85.8111 278.442 88.7991C278.442 91.8591 278.694 94.1271 279.522 96.0351C280.386 98.0511 282.438 98.8431 285.102 98.8431C287.766 98.8431 289.386 97.7631 290.25 96.2151C291.006 94.8831 291.186 92.7231 291.186 92.1471H286.794ZM283.05 86.8191C283.05 85.4511 283.086 84.1551 283.338 83.5431C283.59 82.8591 284.166 82.4991 284.958 82.4991C285.786 82.4991 286.326 82.8951 286.506 83.5791C286.65 84.0471 286.758 85.0191 286.758 86.8191H283.05ZM128.968 122.791H126.196V118.975L121.516 119.083C121.516 119.083 121.372 122.683 121.336 122.791H119.572V127.003H121.264V138.271C121.264 141.367 122.992 142.735 125.944 142.735C127.204 142.735 127.996 142.663 128.752 142.483V138.631C128.392 138.703 127.924 138.739 127.528 138.739C126.772 138.739 126.16 138.523 126.16 137.407V127.003H128.968V122.791ZM135.68 116.887H130.604V121.747H135.68V116.887ZM135.608 141.151V122.791H130.676V141.223C130.676 142.015 130.676 142.591 130.856 142.591H135.716C135.68 142.555 135.608 141.907 135.608 141.151ZM149.878 126.139C149.23 124.087 147.718 122.539 144.01 122.539C141.202 122.539 139.186 123.799 138.466 125.923C137.746 128.083 137.53 129.811 137.53 132.691C137.53 135.679 137.962 138.667 138.538 139.963C139.33 141.763 141.238 142.843 144.082 142.843C146.998 142.843 148.87 141.547 149.518 139.891C150.202 138.163 150.238 137.335 150.238 134.635H145.774C145.774 135.895 145.774 136.291 145.63 137.335C145.522 138.163 145.018 138.811 144.082 138.811C143.146 138.811 142.678 138.379 142.534 137.371C142.318 135.895 142.246 133.879 142.246 132.727C142.246 131.287 142.318 129.487 142.534 128.083C142.678 127.111 143.182 126.607 144.046 126.607C145.054 126.607 145.414 127.255 145.522 128.047C145.63 128.803 145.738 129.703 145.738 130.855H150.238C150.238 128.443 150.13 127.003 149.878 126.139ZM161.536 129.991L165.28 122.791H160.6L156.748 130.387V113.827H151.996V142.591H156.748V136.651L158.152 134.383L160.636 142.591H165.46L161.536 129.991ZM174.095 136.147C174.095 136.651 174.023 137.263 173.879 137.875C173.699 138.667 172.943 138.991 172.223 138.991C171.503 138.991 170.675 138.559 170.567 137.587C170.459 136.687 170.423 135.247 170.423 134.347H178.595C178.775 130.963 178.523 127.507 177.839 125.815C177.011 123.799 175.103 122.539 172.331 122.539C168.911 122.539 167.399 124.087 166.679 125.851C166.139 127.147 165.743 129.811 165.743 132.799C165.743 135.859 165.995 138.127 166.823 140.035C167.687 142.051 169.739 142.843 172.403 142.843C175.067 142.843 176.687 141.763 177.551 140.215C178.307 138.883 178.487 136.723 178.487 136.147H174.095ZM170.351 130.819C170.351 129.451 170.387 128.155 170.639 127.543C170.891 126.859 171.467 126.499 172.259 126.499C173.087 126.499 173.627 126.895 173.807 127.579C173.951 128.047 174.059 129.019 174.059 130.819H170.351ZM188.881 122.791H186.109V118.975L181.429 119.083C181.429 119.083 181.285 122.683 181.249 122.791H179.485V127.003H181.177V138.271C181.177 141.367 182.905 142.735 185.857 142.735C187.117 142.735 187.909 142.663 188.665 142.483V138.631C188.305 138.703 187.837 138.739 187.441 138.739C186.685 138.739 186.073 138.523 186.073 137.407V127.003H188.881V122.791ZM198.868 131.395C197.968 130.927 197.068 130.531 196.168 130.099C195.016 129.559 194.62 128.947 194.62 127.975C194.62 127.147 194.98 126.463 196.096 126.463C197.104 126.463 197.428 127.039 197.5 127.651C197.536 127.795 197.572 128.911 197.572 129.127H201.928C201.928 128.731 201.82 126.643 201.712 126.067C201.244 123.871 199.408 122.503 195.916 122.503C192.1 122.503 190.156 124.735 190.156 127.867C190.156 130.819 191.02 132.655 193.612 133.879C194.332 134.203 195.304 134.671 195.916 134.923C197.284 135.463 197.752 136.147 197.752 137.371C197.752 138.487 197.068 139.027 196.168 139.027C195.304 139.027 194.62 138.667 194.548 137.839C194.512 137.227 194.476 136.615 194.476 136.363H190.012C190.012 136.975 190.048 138.235 190.12 138.883C190.444 141.547 192.244 142.879 196.276 142.879C199.84 142.879 202.324 140.971 202.324 137.227C202.324 134.203 201.388 132.655 198.868 131.395ZM221.57 126.355H217.646V121.927H213.398V126.355H209.402V130.567H213.398V135.031H217.61V130.567H221.57V126.355ZM243.768 113.863H238.872V127.903L234.372 113.863H229.368V142.591H234.264V128.263L238.8 142.591H243.768V113.863ZM259.065 113.863H246.357V142.591H251.613V130.603H258.489V125.779H251.613V118.795H259.065V113.863ZM273.632 137.731H266.036V113.863H260.78V142.591H273.632V137.731ZM129.22 157.863H124V179.895C124 181.047 123.496 182.055 122.02 182.127C121.192 182.163 120.436 182.127 119.788 182.055V186.555C120.724 186.699 121.192 186.771 122.668 186.771C127.096 186.771 129.22 185.079 129.22 180.651V157.863ZM139.511 180.147C139.511 180.651 139.439 181.263 139.295 181.875C139.115 182.667 138.359 182.991 137.639 182.991C136.919 182.991 136.091 182.559 135.983 181.587C135.875 180.687 135.839 179.247 135.839 178.347H144.011C144.191 174.963 143.939 171.507 143.255 169.815C142.427 167.799 140.519 166.539 137.747 166.539C134.327 166.539 132.815 168.087 132.095 169.851C131.555 171.147 131.159 173.811 131.159 176.799C131.159 179.859 131.411 182.127 132.239 184.035C133.103 186.051 135.155 186.843 137.819 186.843C140.483 186.843 142.103 185.763 142.967 184.215C143.723 182.883 143.903 180.723 143.903 180.147H139.511ZM135.767 174.819C135.767 173.451 135.803 172.155 136.055 171.543C136.307 170.859 136.883 170.499 137.675 170.499C138.503 170.499 139.043 170.895 139.223 171.579C139.367 172.047 139.475 173.019 139.475 174.819H135.767ZM154.045 166.539C152.389 166.539 150.733 167.619 150.517 169.131V166.791H145.765V186.591H150.589V174.855C150.589 171.615 151.597 170.895 153.253 170.895C154.225 170.895 155.197 171.075 155.773 171.255V166.719C155.377 166.575 154.801 166.539 154.045 166.539ZM165.269 175.395C164.369 174.927 163.469 174.531 162.569 174.099C161.417 173.559 161.021 172.947 161.021 171.975C161.021 171.147 161.381 170.463 162.497 170.463C163.505 170.463 163.829 171.039 163.901 171.651C163.937 171.795 163.973 172.911 163.973 173.127H168.329C168.329 172.731 168.221 170.643 168.113 170.067C167.645 167.871 165.809 166.503 162.317 166.503C158.501 166.503 156.557 168.735 156.557 171.867C156.557 174.819 157.421 176.655 160.013 177.879C160.733 178.203 161.705 178.671 162.317 178.923C163.685 179.463 164.153 180.147 164.153 181.371C164.153 182.487 163.469 183.027 162.569 183.027C161.705 183.027 161.021 182.667 160.949 181.839C160.913 181.227 160.877 180.615 160.877 180.363H156.413C156.413 180.975 156.449 182.235 156.521 182.883C156.845 185.547 158.645 186.879 162.677 186.879C166.241 186.879 168.725 184.971 168.725 181.227C168.725 178.203 167.789 176.655 165.269 175.395ZM178.454 180.147C178.454 180.651 178.382 181.263 178.238 181.875C178.058 182.667 177.302 182.991 176.582 182.991C175.862 182.991 175.034 182.559 174.926 181.587C174.818 180.687 174.782 179.247 174.782 178.347H182.954C183.134 174.963 182.882 171.507 182.198 169.815C181.37 167.799 179.462 166.539 176.69 166.539C173.27 166.539 171.758 168.087 171.038 169.851C170.498 171.147 170.102 173.811 170.102 176.799C170.102 179.859 170.354 182.127 171.182 184.035C172.046 186.051 174.098 186.843 176.762 186.843C179.426 186.843 181.046 185.763 181.91 184.215C182.666 182.883 182.846 180.723 182.846 180.147H178.454ZM174.71 174.819C174.71 173.451 174.746 172.155 174.998 171.543C175.25 170.859 175.826 170.499 176.618 170.499C177.446 170.499 177.986 170.895 178.166 171.579C178.31 172.047 178.418 173.019 178.418 174.819H174.71ZM193.001 166.791C192.965 167.403 190.661 179.103 190.589 179.535C190.553 179.139 188.249 167.295 188.177 166.791H183.281L187.997 186.051L186.377 192.459H191.309L197.789 166.791H193.001Z" fill="white"/>
<rect x="104" y="1.32593" width="230" height="205.765" stroke="white"/>
</g>
<rect x="1" y="1.32593" width="333" height="205.765" rx="11.5" stroke="white"/>
<defs>
<clipPath id="clip0_2388_31315">
<rect x="0.5" y="0.825928" width="334" height="206.765" rx="12" fill="white"/>
</clipPath>
<clipPath id="clip1_2388_31315">
<rect x="294.5" y="14.2085" width="24" height="24" rx="4" fill="white"/>
</clipPath>
</defs>
</svg>
