<svg width="100%" height="auto" viewBox="0 0 334 180" fill="none" xmlns="http://www.w3.org/2000/svg">
<g clip-path="url(#clip0_4719_146417)">
<path d="M63.024 74.376C62.64 69.384 59.248 66.312 54.32 66.312C50.672 66.312 48.752 67.272 47.728 69.32V58.376H61.744V49.928H39.472V78.6H48.112C48.112 75.912 49.008 74.76 50.928 74.76C52.656 74.76 53.36 75.592 53.424 77.768C53.552 80.456 53.552 88.776 53.488 90.632C53.36 92.808 52.72 93.96 50.736 93.96C48.752 93.96 48.112 92.744 47.984 90.568C47.856 88.776 47.856 86.408 47.856 85.896H38.896C38.96 88.264 38.896 89.992 39.024 91.848C39.344 97.8 42.608 101.512 50.736 101.512C59.248 101.512 62.704 96.904 63.024 92.04C63.28 87.944 63.28 77.704 63.024 74.376Z" fill="white"/>
<path d="M42.6396 117.912C42.6396 117.912 40.7496 126.13 40.7496 126.466C40.7496 126.13 39.0136 117.912 39.0136 117.912H36.9696C36.9696 117.912 35.2476 126.13 35.2476 126.466C35.2476 126.13 33.3576 117.912 33.3576 117.912H31.4116L34.0716 129H36.1576C36.1576 129 37.9636 120.796 37.9636 120.432C37.9776 120.796 39.7136 129 39.7136 129H41.8136L44.4456 117.912H42.6396ZM48.9349 117.912H47.0449V129H48.9349V117.912ZM60.0734 117.912H58.3234V125.472L54.5434 117.912H52.4574V129H54.2074V121.244L58.0994 129H60.0734V117.912ZM68.4293 122.826C68.1213 122.714 67.4633 122.462 67.0713 122.336C65.7133 121.888 65.0413 121.454 65.0413 120.586C65.0413 119.844 65.5453 119.396 66.9593 119.396C68.1633 119.396 68.7233 119.732 68.9613 120.418C69.0453 120.67 69.0873 120.88 69.0873 121.118H70.9633C70.9633 120.698 70.8933 120.362 70.7953 120.026C70.4033 118.654 69.2833 117.786 67.0013 117.786C64.3833 117.786 63.1513 118.934 63.1513 120.642C63.1513 122.28 64.2293 123.26 65.8953 123.806C66.3573 123.96 67.0153 124.212 67.2953 124.31C68.7793 124.828 69.2273 125.276 69.2273 126.214C69.2273 127.054 68.6253 127.558 67.2113 127.558C66.0073 127.558 65.3073 127.25 65.0973 126.592C65.0133 126.326 64.9713 125.948 64.9713 125.752H63.1093C63.1093 126.074 63.1373 126.592 63.2353 126.97C63.5713 128.272 64.6913 129.14 67.2533 129.14C69.8433 129.14 71.1173 127.908 71.1173 126.06C71.1173 124.338 70.1653 123.428 68.4293 122.826Z" fill="white"/>
<path d="M122.492 22.18C124.268 22.18 125.588 21.04 125.588 19.204C125.588 17.32 124.22 16.24 122.78 16.24C121.904 16.24 121.28 16.516 120.8 17.008H120.776L121.328 14.464H125.072V13.456H120.512L119.588 18.004H120.692C121.016 17.596 121.616 17.212 122.564 17.212C123.584 17.212 124.412 17.944 124.412 19.18C124.412 20.392 123.656 21.184 122.468 21.184C121.304 21.184 120.704 20.572 120.524 19.708H119.384C119.492 21.088 120.692 22.18 122.492 22.18ZM132.758 24.256C133.622 24.256 134.342 24.064 134.846 23.644C135.338 23.224 135.626 22.588 135.626 21.736V15.556H134.522V16.408H134.498C134.09 15.76 133.466 15.4 132.542 15.4C131.03 15.4 129.782 16.576 129.782 18.556C129.782 20.428 130.958 21.712 132.602 21.712C133.514 21.712 134.078 21.316 134.522 20.68H134.546C134.534 20.884 134.522 21.232 134.522 21.604V21.784C134.522 22.876 133.886 23.392 132.734 23.392C131.774 23.392 131.126 23.116 131.03 22.444H129.986C130.106 23.584 131.066 24.256 132.758 24.256ZM132.71 20.8C131.546 20.8 130.922 19.936 130.922 18.568C130.922 17.212 131.522 16.324 132.698 16.324C133.982 16.324 134.594 17.152 134.594 18.508C134.594 19.816 134.114 20.8 132.71 20.8ZM139.09 22.132C140.182 22.132 140.842 21.616 141.25 21.052H141.262C141.382 21.736 141.718 22.06 142.402 22.06C142.666 22.06 142.846 22.012 143.002 21.964V21.184H142.954C142.39 21.304 142.27 21.028 142.27 20.512V17.5C142.27 16.636 141.946 16.072 141.406 15.748C140.998 15.508 140.458 15.4 139.846 15.4C138.106 15.4 137.278 16.372 137.23 17.464H138.31C138.346 16.696 138.838 16.216 139.858 16.216C140.746 16.216 141.238 16.648 141.238 17.344C141.238 18.004 140.626 18.16 139.678 18.268C138.01 18.472 136.906 18.796 136.906 20.296C136.906 21.532 137.866 22.132 139.09 22.132ZM139.366 21.316C138.718 21.316 138.082 21.112 138.082 20.284C138.082 19.396 138.778 19.204 139.834 19.024C140.362 18.928 140.926 18.772 141.25 18.568V19.624C141.25 20.368 140.65 21.316 139.366 21.316ZM143.909 22H145.025V18.028C145.025 17.044 145.853 16.336 146.621 16.336C147.281 16.336 147.725 16.804 147.725 17.596V22H148.829V18.028C148.829 17.044 149.537 16.336 150.353 16.336C151.001 16.336 151.517 16.804 151.517 17.596V22H152.633V17.5C152.633 16.156 151.817 15.4 150.641 15.4C149.861 15.4 149.105 15.796 148.649 16.6H148.625C148.361 15.808 147.737 15.4 146.957 15.4C146.129 15.4 145.445 15.82 145.049 16.516H145.013V15.556H143.909V22ZM156.923 22.18C158.411 22.18 159.443 21.364 159.731 20.164H158.639C158.435 20.848 157.823 21.268 156.935 21.268C155.687 21.268 155.003 20.308 154.919 19.048H159.863C159.863 17.956 159.599 17.032 159.071 16.396C158.567 15.772 157.823 15.4 156.863 15.4C155.015 15.4 153.779 16.912 153.779 18.784C153.779 20.668 154.943 22.18 156.923 22.18ZM156.863 16.264C157.979 16.264 158.615 17.008 158.675 18.244H154.943C155.087 17.104 155.699 16.264 156.863 16.264ZM165.633 22H166.761L167.733 18.448C167.889 17.836 168.129 16.648 168.129 16.648H168.153C168.153 16.648 168.405 17.824 168.561 18.448L169.509 22H170.625L172.725 15.556H171.573L170.505 19.132C170.265 19.924 170.085 21.028 170.085 21.028H170.061C170.061 21.028 169.833 19.84 169.653 19.156L168.693 15.556H167.637L166.665 19.156C166.449 19.936 166.233 21.016 166.233 21.016H166.209C166.209 21.016 165.993 19.864 165.789 19.132L164.781 15.556H163.593L165.633 22ZM173.592 14.368H174.756V13.072H173.592V14.368ZM173.616 22H174.732V15.556H173.616V22ZM177.368 15.556H176.264V22H177.38V18.076C177.38 17.044 178.1 16.336 179.096 16.336C179.972 16.336 180.512 16.804 180.512 17.632V22H181.616V17.5C181.616 16.156 180.788 15.4 179.444 15.4C178.508 15.4 177.872 15.82 177.404 16.468H177.368V15.556ZM188.779 22.192C190.291 22.192 191.371 21.52 191.371 20.212C191.371 18.712 190.267 18.424 188.983 18.172C187.891 17.956 187.267 17.824 187.267 17.152C187.267 16.66 187.639 16.252 188.515 16.252C189.439 16.252 189.895 16.624 189.991 17.284H191.107C190.963 16.168 190.159 15.412 188.539 15.412C187.039 15.412 186.175 16.108 186.175 17.212C186.175 18.628 187.315 18.892 188.575 19.156C189.715 19.384 190.255 19.564 190.255 20.272C190.255 20.848 189.823 21.292 188.803 21.292C187.879 21.292 187.159 20.98 187.027 20.044H185.899C185.995 21.352 187.003 22.192 188.779 22.192ZM192.063 16.42H193.071V20.74C193.071 21.688 193.671 22.036 194.535 22.048C194.823 22.048 195.135 22.012 195.435 21.94V21.004H195.399C195.279 21.04 195.027 21.088 194.835 21.088C194.427 21.088 194.175 20.956 194.175 20.488V16.42H195.507V15.556H194.175V13.528H193.071V15.556H192.063V16.42ZM197.77 15.556H196.666V22H197.782V18.496C197.782 17.284 198.634 16.54 199.63 16.54C199.822 16.54 199.93 16.552 200.086 16.6H200.122V15.544C200.002 15.496 199.894 15.472 199.714 15.472C198.862 15.472 198.202 15.976 197.806 16.72H197.77V15.556ZM203.775 22.18C205.263 22.18 206.295 21.364 206.583 20.164H205.491C205.287 20.848 204.675 21.268 203.787 21.268C202.539 21.268 201.855 20.308 201.771 19.048H206.715C206.715 17.956 206.451 17.032 205.923 16.396C205.419 15.772 204.675 15.4 203.715 15.4C201.867 15.4 200.631 16.912 200.631 18.784C200.631 20.668 201.795 22.18 203.775 22.18ZM203.715 16.264C204.831 16.264 205.467 17.008 205.527 18.244H201.795C201.939 17.104 202.551 16.264 203.715 16.264ZM209.825 22.132C210.917 22.132 211.577 21.616 211.985 21.052H211.997C212.117 21.736 212.453 22.06 213.137 22.06C213.401 22.06 213.581 22.012 213.737 21.964V21.184H213.689C213.125 21.304 213.005 21.028 213.005 20.512V17.5C213.005 16.636 212.681 16.072 212.141 15.748C211.733 15.508 211.193 15.4 210.581 15.4C208.841 15.4 208.013 16.372 207.965 17.464H209.045C209.081 16.696 209.573 16.216 210.593 16.216C211.481 16.216 211.973 16.648 211.973 17.344C211.973 18.004 211.361 18.16 210.413 18.268C208.745 18.472 207.641 18.796 207.641 20.296C207.641 21.532 208.601 22.132 209.825 22.132ZM210.101 21.316C209.453 21.316 208.817 21.112 208.817 20.284C208.817 19.396 209.513 19.204 210.569 19.024C211.097 18.928 211.661 18.772 211.985 18.568V19.624C211.985 20.368 211.385 21.316 210.101 21.316ZM218.879 22H220.187L217.439 17.872L219.899 15.556H218.507L215.711 18.304C215.735 17.992 215.759 17.536 215.759 17.308V13.072H214.643V22H215.759V19.468L216.671 18.604L218.879 22ZM224.334 24.184H225.45V22.228C225.45 21.736 225.438 21.376 225.426 21.148H225.462C225.906 21.832 226.614 22.192 227.49 22.192C229.23 22.192 230.298 20.86 230.298 18.796C230.298 16.672 229.17 15.4 227.526 15.4C226.602 15.4 225.954 15.832 225.474 16.564H225.438V15.556H224.334V24.184ZM227.37 21.268C225.942 21.268 225.39 20.176 225.39 18.82C225.39 17.452 226.014 16.348 227.382 16.348C228.57 16.348 229.158 17.404 229.158 18.82C229.158 20.224 228.558 21.268 227.37 21.268ZM232.587 15.556H231.483V22H232.599V18.496C232.599 17.284 233.451 16.54 234.447 16.54C234.639 16.54 234.747 16.552 234.903 16.6H234.939V15.544C234.819 15.496 234.711 15.472 234.531 15.472C233.679 15.472 233.019 15.976 232.623 16.72H232.587V15.556ZM236.006 14.368H237.17V13.072H236.006V14.368ZM236.03 22H237.146V15.556H236.03V22ZM238.438 22H243.634V21.016H241.03C240.562 21.016 239.746 21.052 239.746 21.052V21.016C239.746 21.016 240.286 20.428 240.562 20.08L243.49 16.252V15.556H238.654V16.504H240.874C241.318 16.504 242.086 16.468 242.086 16.468V16.504C242.086 16.504 241.582 17.044 241.318 17.38L238.438 21.136V22ZM247.38 22.18C248.868 22.18 249.9 21.364 250.188 20.164H249.096C248.892 20.848 248.28 21.268 247.392 21.268C246.144 21.268 245.46 20.308 245.376 19.048H250.32C250.32 17.956 250.056 17.032 249.528 16.396C249.024 15.772 248.28 15.4 247.32 15.4C245.472 15.4 244.236 16.912 244.236 18.784C244.236 20.668 245.4 22.18 247.38 22.18ZM247.32 16.264C248.436 16.264 249.072 17.008 249.132 18.244H245.4C245.544 17.104 246.156 16.264 247.32 16.264Z" fill="white"/>
<path fill-rule="evenodd" clip-rule="evenodd" d="M317.705 22.1244C317.779 22.0027 317.816 21.8492 317.816 21.6639V14.3442C317.816 14.159 317.779 14.0081 317.705 13.8917C317.631 13.7699 317.515 13.672 317.356 13.5979C316.911 13.3756 316.549 13.1189 316.268 12.8278C315.983 12.5315 315.705 12.116 315.435 11.5814C315.265 11.2797 315.019 11.1289 314.696 11.1289H301.303C300.981 11.1289 300.737 11.2797 300.573 11.5814C300.298 12.116 300.02 12.5315 299.739 12.8278C299.454 13.1189 299.088 13.3756 298.644 13.5979C298.485 13.672 298.369 13.7699 298.294 13.8917C298.22 14.0081 298.183 14.159 298.183 14.3442V21.6639C298.183 21.8492 298.22 22.0027 298.294 22.1244C298.369 22.2408 298.485 22.3361 298.644 22.4102C299.088 22.6272 299.454 22.8839 299.739 23.1803C300.02 23.4714 300.298 23.8868 300.573 24.4267C300.737 24.7231 300.981 24.8713 301.303 24.8713H314.696C315.019 24.8713 315.265 24.7231 315.435 24.4267C315.705 23.8868 315.983 23.4714 316.268 23.1803C316.549 22.8839 316.911 22.6272 317.356 22.4102C317.515 22.3361 317.631 22.2408 317.705 22.1244ZM311.367 18.2756V18.9541C311.367 19.0711 311.272 19.166 311.155 19.166C311.038 19.166 310.943 19.0712 310.943 18.9541V18.2756H309.824V18.9541C309.824 19.0711 309.729 19.166 309.612 19.166C309.494 19.166 309.399 19.0712 309.399 18.9541V18.2756H308.28V18.9541C308.28 19.0711 308.185 19.166 308.068 19.166C307.951 19.166 307.856 19.0712 307.856 18.9541V18.2756H306.737V18.9541C306.737 19.0711 306.642 19.166 306.525 19.166C306.408 19.166 306.313 19.0712 306.313 18.9541V18.2756H305.194V18.9541C305.194 19.0711 305.099 19.166 304.982 19.166C304.865 19.166 304.77 19.0712 304.77 18.9541V18.2756H303.928L303.928 21.3154C305.161 21.9819 306.569 22.3641 308.068 22.3641C309.568 22.3641 310.976 21.9817 312.208 21.3154V18.2756H311.367ZM315.626 18C315.627 17.1736 314.103 15.9375 313.056 15.206V20.7944C314.103 20.0628 315.625 18.9103 315.626 18ZM304.77 17.1734V17.8518L303.929 17.8517V14.6847C305.161 14.0184 306.569 13.636 308.069 13.636C309.568 13.636 310.976 14.0183 312.209 14.6846V17.8518H311.367V17.1734C311.367 17.0564 311.272 16.9615 311.155 16.9615C311.038 16.9615 310.943 17.0564 310.943 17.1734V17.8518H309.824V17.1734C309.824 17.0564 309.729 16.9615 309.611 16.9615C309.494 16.9615 309.399 17.0564 309.399 17.1734V17.8518H308.28V17.1734C308.28 17.0564 308.185 16.9615 308.068 16.9615C307.951 16.9615 307.856 17.0564 307.856 17.1734V17.8518H306.737V17.1734C306.737 17.0564 306.642 16.9615 306.525 16.9615C306.408 16.9615 306.313 17.0564 306.313 17.1734V17.8518H305.194V17.1734C305.194 17.0564 305.099 16.9615 304.982 16.9615C304.865 16.9615 304.77 17.0564 304.77 17.1734ZM300.374 18C300.373 17.1736 301.897 15.9375 302.944 15.206V20.7944C301.897 20.0628 300.375 18.9103 300.374 18Z" fill="white"/>
<rect x="103.5" y="0.5" width="230" height="35" stroke="white"/>
<path d="M130.85 77.06H119.09V81.17H122.72V101H127.16V81.17H130.85V77.06ZM143.985 84.5L142.665 96.62L140.925 84.5H136.815L135.285 96.62L133.755 84.5H129.675L132.645 101H137.445C137.445 101 138.495 95.15 138.825 93.2C138.855 93.02 138.885 91.49 138.885 91.49C138.885 91.49 138.975 93.02 139.005 93.2C139.335 95.09 140.355 101 140.355 101H145.095L147.975 84.5H143.985ZM159.034 87.65C158.494 85.76 157.054 84.29 154.084 84.29C151.114 84.29 149.644 85.91 149.164 87.56C148.744 88.97 148.534 90.95 148.534 92.72C148.534 94.55 148.774 96.77 149.044 97.76C149.614 99.83 151.324 101.21 154.024 101.21C156.874 101.21 158.404 99.86 159.004 97.76C159.364 96.56 159.544 94.52 159.544 92.72C159.544 90.95 159.394 88.88 159.034 87.65ZM155.464 96.77C155.374 97.4 154.804 97.94 154.054 97.94C153.334 97.94 152.794 97.55 152.674 96.8C152.524 96.02 152.494 94.07 152.494 92.78C152.494 91.55 152.524 89.54 152.674 88.85C152.854 88.1 153.274 87.68 154.054 87.68C154.864 87.68 155.284 88.01 155.464 88.79C155.584 89.42 155.644 91.52 155.644 92.78C155.644 94.04 155.674 95.33 155.464 96.77ZM178.466 77.06H174.386V88.76L170.636 77.06H166.466V101H170.546V89.06L174.326 101H178.466V77.06ZM191.364 77.06H180.774V101H185.154V91.01H190.884V86.99H185.154V81.17H191.364V77.06ZM203.652 96.95H197.322V77.06H192.942V101H203.652V96.95ZM132.23 131.42V123.47H125.66V127.25H128.09C128.09 127.25 128.12 131.15 128.09 131.66C128.03 132.89 127.31 133.52 126.2 133.52C125.21 133.52 124.7 133.01 124.49 131.93C124.13 130.04 124.13 126.92 124.13 125.09C124.13 123.14 124.16 120.26 124.46 118.19C124.61 117.17 125.27 116.72 126.11 116.72C127.04 116.72 127.61 117.23 127.7 118.19C127.82 119.42 127.82 121.07 127.82 121.25H132.11C132.11 119.12 132.02 117.92 131.84 116.84C131.48 114.68 129.89 112.85 126.02 112.85C122.24 112.85 120.65 114.98 120.14 116.9C119.6 118.97 119.54 122.6 119.54 125.09C119.54 127.67 119.63 131.03 120.14 133.19C120.77 135.83 122.66 137.21 125.18 137.21C127.01 137.21 128.24 136.7 128.84 135.92L129.05 137H132.29C132.29 136.97 132.23 134.18 132.23 131.42ZM144.29 134.06C144.29 132.83 144.32 130.82 144.32 129.53C144.35 128 144.38 125.51 144.32 124.07C144.23 121.76 142.79 120.29 139.34 120.29C135.68 120.29 134.18 121.94 134.18 125.03V126.26H137.9V125.33C137.9 124.19 138.26 123.62 139.28 123.62C140.03 123.62 140.42 124.04 140.45 124.76C140.48 125.27 140.48 126.29 140.48 126.74C139.82 126.74 139.13 126.83 138.38 126.95C135.62 127.46 133.76 128.96 133.61 131.36C133.55 132.23 133.58 133.64 133.61 134C133.73 136.4 135.56 137.12 137.21 137.12C138.68 137.12 139.79 136.73 140.54 135.8C140.54 136.22 140.63 137 140.69 137H144.5C144.35 136.79 144.29 135.26 144.29 134.06ZM140.48 130.7C140.42 131.54 140.48 131.96 140.33 132.83C140.18 133.67 139.46 134 138.83 134C138.23 134 137.75 133.79 137.66 133.22C137.6 132.74 137.6 132.17 137.6 131.72C137.6 131.03 137.63 130.55 138.14 130.1C138.59 129.71 139.1 129.62 139.52 129.53C139.88 129.47 140.18 129.47 140.48 129.47C140.48 129.71 140.51 130.37 140.48 130.7ZM162.546 137C162.576 137 162.516 136.52 162.516 123.74C162.516 121.67 161.616 120.26 159.336 120.26C157.806 120.26 156.636 120.92 156.126 122.18C155.706 121.01 154.836 120.26 153.336 120.26C151.596 120.26 150.516 121.04 150.126 122.06V120.5H146.256V137H150.216V125.3C150.216 124.49 150.696 123.74 151.506 123.74C152.196 123.74 152.526 124.19 152.526 124.91V137H156.396V125.18C156.396 124.43 156.846 123.74 157.626 123.74C158.466 123.74 158.676 124.31 158.676 124.97C158.676 136.52 158.676 137 158.706 137H162.546ZM171.149 131.63C171.149 132.05 171.089 132.56 170.969 133.07C170.819 133.73 170.189 134 169.589 134C168.989 134 168.299 133.64 168.209 132.83C168.119 132.08 168.089 130.88 168.089 130.13H174.899C175.049 127.31 174.839 124.43 174.269 123.02C173.579 121.34 171.989 120.29 169.679 120.29C166.829 120.29 165.569 121.58 164.969 123.05C164.519 124.13 164.189 126.35 164.189 128.84C164.189 131.39 164.399 133.28 165.089 134.87C165.809 136.55 167.519 137.21 169.739 137.21C171.959 137.21 173.309 136.31 174.029 135.02C174.659 133.91 174.809 132.11 174.809 131.63H171.149ZM168.029 127.19C168.029 126.05 168.059 124.97 168.269 124.46C168.479 123.89 168.959 123.59 169.619 123.59C170.309 123.59 170.759 123.92 170.909 124.49C171.029 124.88 171.119 125.69 171.119 127.19H168.029ZM192.602 113.06H180.842V117.17H184.472V137H188.912V117.17H192.602V113.06ZM197.52 115.58H193.29V119.63H197.52V115.58ZM197.46 135.8V120.5H193.35V135.86C193.35 136.52 193.35 137 193.5 137H197.55C197.52 136.97 197.46 136.43 197.46 135.8ZM209.502 123.29C208.962 121.58 207.702 120.29 204.612 120.29C202.272 120.29 200.592 121.34 199.992 123.11C199.392 124.91 199.212 126.35 199.212 128.75C199.212 131.24 199.572 133.73 200.052 134.81C200.712 136.31 202.302 137.21 204.672 137.21C207.102 137.21 208.662 136.13 209.202 134.75C209.772 133.31 209.802 132.62 209.802 130.37H206.082C206.082 131.42 206.082 131.75 205.962 132.62C205.872 133.31 205.452 133.85 204.672 133.85C203.892 133.85 203.502 133.49 203.382 132.65C203.202 131.42 203.142 129.74 203.142 128.78C203.142 127.58 203.202 126.08 203.382 124.91C203.502 124.1 203.922 123.68 204.642 123.68C205.482 123.68 205.782 124.22 205.872 124.88C205.962 125.51 206.052 126.26 206.052 127.22H209.802C209.802 125.21 209.712 124.01 209.502 123.29ZM219.367 126.5L222.487 120.5H218.587L215.377 126.83V113.03H211.417V137H215.377V132.05L216.547 130.16L218.617 137H222.637L219.367 126.5ZM229.982 131.63C229.982 132.05 229.922 132.56 229.802 133.07C229.652 133.73 229.022 134 228.422 134C227.822 134 227.132 133.64 227.042 132.83C226.952 132.08 226.922 130.88 226.922 130.13H233.732C233.882 127.31 233.672 124.43 233.102 123.02C232.412 121.34 230.822 120.29 228.512 120.29C225.662 120.29 224.402 121.58 223.802 123.05C223.352 124.13 223.022 126.35 223.022 128.84C223.022 131.39 223.232 133.28 223.922 134.87C224.642 136.55 226.352 137.21 228.572 137.21C230.792 137.21 232.142 136.31 232.862 135.02C233.492 133.91 233.642 132.11 233.642 131.63H229.982ZM226.862 127.19C226.862 126.05 226.892 124.97 227.102 124.46C227.312 123.89 227.792 123.59 228.452 123.59C229.142 123.59 229.592 123.92 229.742 124.49C229.862 124.88 229.952 125.69 229.952 127.19H226.862ZM242.454 120.5H240.144V117.32L236.244 117.41C236.244 117.41 236.124 120.41 236.094 120.5H234.624V124.01H236.034V133.4C236.034 135.98 237.474 137.12 239.934 137.12C240.984 137.12 241.644 137.06 242.274 136.91V133.7C241.974 133.76 241.584 133.79 241.254 133.79C240.624 133.79 240.114 133.61 240.114 132.68V124.01H242.454V120.5ZM250.927 127.67C250.177 127.28 249.427 126.95 248.677 126.59C247.717 126.14 247.387 125.63 247.387 124.82C247.387 124.13 247.687 123.56 248.617 123.56C249.457 123.56 249.727 124.04 249.787 124.55C249.817 124.67 249.847 125.6 249.847 125.78H253.477C253.477 125.45 253.387 123.71 253.297 123.23C252.907 121.4 251.377 120.26 248.467 120.26C245.287 120.26 243.667 122.12 243.667 124.73C243.667 127.19 244.387 128.72 246.547 129.74C247.147 130.01 247.957 130.4 248.467 130.61C249.607 131.06 249.997 131.63 249.997 132.65C249.997 133.58 249.427 134.03 248.677 134.03C247.957 134.03 247.387 133.73 247.327 133.04C247.297 132.53 247.267 132.02 247.267 131.81H243.547C243.547 132.32 243.577 133.37 243.637 133.91C243.907 136.13 245.407 137.24 248.767 137.24C251.737 137.24 253.807 135.65 253.807 132.53C253.807 130.01 253.027 128.72 250.927 127.67Z" fill="white"/>
<rect x="103.5" y="0.5" width="230" height="179" stroke="white"/>
</g>
<rect x="0.5" y="0.5" width="333" height="179" rx="7.5" stroke="white"/>
<defs>
<clipPath id="clip0_4719_146417">
<rect width="334" height="180" rx="8" fill="white"/>
</clipPath>
</defs>
</svg>
