<svg width="100%" height="auto" viewBox="0 0 334 168" fill="none" xmlns="http://www.w3.org/2000/svg">
<g clip-path="url(#clip0_4719_146420)">
<path d="M63.6 86.744H49.008C51.568 81.88 62.896 70.68 63.6 59.608C63.664 58.52 63.728 54.104 63.664 53.272C63.216 47.704 60.208 43.416 51.696 43.416C43.376 43.416 39.344 48.472 39.152 53.528C39.088 54.552 39.088 59.8 39.088 60.824H48.048V54.808C48.112 52.44 49.392 51.544 51.056 51.544C52.912 51.544 54.064 52.184 54.064 55.192V58.84C53.744 69.912 42.544 79.32 39.024 87.064V95H63.6V86.744Z" fill="white"/>
<path d="M42.6396 111.912C42.6396 111.912 40.7496 120.13 40.7496 120.466C40.7496 120.13 39.0136 111.912 39.0136 111.912H36.9696C36.9696 111.912 35.2476 120.13 35.2476 120.466C35.2476 120.13 33.3576 111.912 33.3576 111.912H31.4116L34.0716 123H36.1576C36.1576 123 37.9636 114.796 37.9636 114.432C37.9776 114.796 39.7136 123 39.7136 123H41.8136L44.4456 111.912H42.6396ZM48.9349 111.912H47.0449V123H48.9349V111.912ZM60.0734 111.912H58.3234V119.472L54.5434 111.912H52.4574V123H54.2074V115.244L58.0994 123H60.0734V111.912ZM68.4293 116.826C68.1213 116.714 67.4633 116.462 67.0713 116.336C65.7133 115.888 65.0413 115.454 65.0413 114.586C65.0413 113.844 65.5453 113.396 66.9593 113.396C68.1633 113.396 68.7233 113.732 68.9613 114.418C69.0453 114.67 69.0873 114.88 69.0873 115.118H70.9633C70.9633 114.698 70.8933 114.362 70.7953 114.026C70.4033 112.654 69.2833 111.786 67.0013 111.786C64.3833 111.786 63.1513 112.934 63.1513 114.642C63.1513 116.28 64.2293 117.26 65.8953 117.806C66.3573 117.96 67.0153 118.212 67.2953 118.31C68.7793 118.828 69.2273 119.276 69.2273 120.214C69.2273 121.054 68.6253 121.558 67.2113 121.558C66.0073 121.558 65.3073 121.25 65.0973 120.592C65.0133 120.326 64.9713 119.948 64.9713 119.752H63.1093C63.1093 120.074 63.1373 120.592 63.2353 120.97C63.5713 122.272 64.6913 123.14 67.2533 123.14C69.8433 123.14 71.1173 121.908 71.1173 120.06C71.1173 118.338 70.1653 117.428 68.4293 116.826Z" fill="white"/>
<path d="M119.48 22H125.48V20.932H120.896L120.92 20.836C121.256 19.948 122.42 19.3 123.308 18.76C124.592 18.028 125.636 17.476 125.636 15.892C125.636 14.38 124.508 13.264 122.756 13.264C121.82 13.264 121.004 13.552 120.476 14.116C119.96 14.644 119.684 15.328 119.684 16.288H120.872C120.872 15.568 121.016 15.1 121.352 14.752C121.664 14.404 122.084 14.224 122.66 14.224C123.752 14.224 124.436 14.908 124.436 15.916C124.436 16.9 123.812 17.332 122.744 17.944C121.928 18.436 121.04 18.928 120.392 19.648C119.876 20.236 119.528 20.968 119.48 22ZM132.851 24.256C133.715 24.256 134.435 24.064 134.939 23.644C135.431 23.224 135.719 22.588 135.719 21.736V15.556H134.615V16.408H134.591C134.183 15.76 133.559 15.4 132.635 15.4C131.123 15.4 129.875 16.576 129.875 18.556C129.875 20.428 131.051 21.712 132.695 21.712C133.607 21.712 134.171 21.316 134.615 20.68H134.639C134.627 20.884 134.615 21.232 134.615 21.604V21.784C134.615 22.876 133.979 23.392 132.827 23.392C131.867 23.392 131.219 23.116 131.123 22.444H130.079C130.199 23.584 131.159 24.256 132.851 24.256ZM132.803 20.8C131.639 20.8 131.015 19.936 131.015 18.568C131.015 17.212 131.615 16.324 132.791 16.324C134.075 16.324 134.687 17.152 134.687 18.508C134.687 19.816 134.207 20.8 132.803 20.8ZM139.184 22.132C140.276 22.132 140.936 21.616 141.344 21.052H141.356C141.476 21.736 141.812 22.06 142.496 22.06C142.76 22.06 142.94 22.012 143.096 21.964V21.184H143.048C142.484 21.304 142.364 21.028 142.364 20.512V17.5C142.364 16.636 142.04 16.072 141.5 15.748C141.092 15.508 140.552 15.4 139.94 15.4C138.2 15.4 137.372 16.372 137.324 17.464H138.404C138.44 16.696 138.932 16.216 139.952 16.216C140.84 16.216 141.332 16.648 141.332 17.344C141.332 18.004 140.72 18.16 139.772 18.268C138.104 18.472 137 18.796 137 20.296C137 21.532 137.96 22.132 139.184 22.132ZM139.46 21.316C138.812 21.316 138.176 21.112 138.176 20.284C138.176 19.396 138.872 19.204 139.928 19.024C140.456 18.928 141.02 18.772 141.344 18.568V19.624C141.344 20.368 140.744 21.316 139.46 21.316ZM144.002 22H145.118V18.028C145.118 17.044 145.946 16.336 146.714 16.336C147.374 16.336 147.818 16.804 147.818 17.596V22H148.922V18.028C148.922 17.044 149.63 16.336 150.446 16.336C151.094 16.336 151.61 16.804 151.61 17.596V22H152.726V17.5C152.726 16.156 151.91 15.4 150.734 15.4C149.954 15.4 149.198 15.796 148.742 16.6H148.718C148.454 15.808 147.83 15.4 147.05 15.4C146.222 15.4 145.538 15.82 145.142 16.516H145.106V15.556H144.002V22ZM157.017 22.18C158.505 22.18 159.537 21.364 159.825 20.164H158.733C158.529 20.848 157.917 21.268 157.029 21.268C155.781 21.268 155.097 20.308 155.013 19.048H159.957C159.957 17.956 159.693 17.032 159.165 16.396C158.661 15.772 157.917 15.4 156.957 15.4C155.109 15.4 153.873 16.912 153.873 18.784C153.873 20.668 155.037 22.18 157.017 22.18ZM156.957 16.264C158.073 16.264 158.709 17.008 158.769 18.244H155.037C155.181 17.104 155.793 16.264 156.957 16.264ZM165.726 22H166.854L167.826 18.448C167.982 17.836 168.222 16.648 168.222 16.648H168.246C168.246 16.648 168.498 17.824 168.654 18.448L169.602 22H170.718L172.818 15.556H171.666L170.598 19.132C170.358 19.924 170.178 21.028 170.178 21.028H170.154C170.154 21.028 169.926 19.84 169.746 19.156L168.786 15.556H167.73L166.758 19.156C166.542 19.936 166.326 21.016 166.326 21.016H166.302C166.302 21.016 166.086 19.864 165.882 19.132L164.874 15.556H163.686L165.726 22ZM173.685 14.368H174.849V13.072H173.685V14.368ZM173.709 22H174.825V15.556H173.709V22ZM177.462 15.556H176.358V22H177.474V18.076C177.474 17.044 178.194 16.336 179.19 16.336C180.066 16.336 180.606 16.804 180.606 17.632V22H181.71V17.5C181.71 16.156 180.882 15.4 179.538 15.4C178.602 15.4 177.966 15.82 177.498 16.468H177.462V15.556ZM188.873 22.192C190.385 22.192 191.465 21.52 191.465 20.212C191.465 18.712 190.361 18.424 189.077 18.172C187.985 17.956 187.361 17.824 187.361 17.152C187.361 16.66 187.733 16.252 188.609 16.252C189.533 16.252 189.989 16.624 190.085 17.284H191.201C191.057 16.168 190.253 15.412 188.633 15.412C187.133 15.412 186.269 16.108 186.269 17.212C186.269 18.628 187.409 18.892 188.669 19.156C189.809 19.384 190.349 19.564 190.349 20.272C190.349 20.848 189.917 21.292 188.897 21.292C187.973 21.292 187.253 20.98 187.121 20.044H185.993C186.089 21.352 187.097 22.192 188.873 22.192ZM192.157 16.42H193.165V20.74C193.165 21.688 193.765 22.036 194.629 22.048C194.917 22.048 195.229 22.012 195.529 21.94V21.004H195.493C195.373 21.04 195.121 21.088 194.929 21.088C194.521 21.088 194.269 20.956 194.269 20.488V16.42H195.601V15.556H194.269V13.528H193.165V15.556H192.157V16.42ZM197.864 15.556H196.76V22H197.876V18.496C197.876 17.284 198.728 16.54 199.724 16.54C199.916 16.54 200.024 16.552 200.18 16.6H200.216V15.544C200.096 15.496 199.988 15.472 199.808 15.472C198.956 15.472 198.296 15.976 197.9 16.72H197.864V15.556ZM203.869 22.18C205.357 22.18 206.389 21.364 206.677 20.164H205.585C205.381 20.848 204.769 21.268 203.881 21.268C202.633 21.268 201.949 20.308 201.865 19.048H206.809C206.809 17.956 206.545 17.032 206.017 16.396C205.513 15.772 204.769 15.4 203.809 15.4C201.961 15.4 200.725 16.912 200.725 18.784C200.725 20.668 201.889 22.18 203.869 22.18ZM203.809 16.264C204.925 16.264 205.561 17.008 205.621 18.244H201.889C202.033 17.104 202.645 16.264 203.809 16.264ZM209.918 22.132C211.01 22.132 211.67 21.616 212.078 21.052H212.09C212.21 21.736 212.546 22.06 213.23 22.06C213.494 22.06 213.674 22.012 213.83 21.964V21.184H213.782C213.218 21.304 213.098 21.028 213.098 20.512V17.5C213.098 16.636 212.774 16.072 212.234 15.748C211.826 15.508 211.286 15.4 210.674 15.4C208.934 15.4 208.106 16.372 208.058 17.464H209.138C209.174 16.696 209.666 16.216 210.686 16.216C211.574 16.216 212.066 16.648 212.066 17.344C212.066 18.004 211.454 18.16 210.506 18.268C208.838 18.472 207.734 18.796 207.734 20.296C207.734 21.532 208.694 22.132 209.918 22.132ZM210.194 21.316C209.546 21.316 208.91 21.112 208.91 20.284C208.91 19.396 209.606 19.204 210.662 19.024C211.19 18.928 211.754 18.772 212.078 18.568V19.624C212.078 20.368 211.478 21.316 210.194 21.316ZM218.973 22H220.281L217.533 17.872L219.993 15.556H218.601L215.805 18.304C215.829 17.992 215.853 17.536 215.853 17.308V13.072H214.737V22H215.853V19.468L216.765 18.604L218.973 22ZM224.428 24.184H225.544V22.228C225.544 21.736 225.532 21.376 225.52 21.148H225.556C226 21.832 226.708 22.192 227.584 22.192C229.324 22.192 230.392 20.86 230.392 18.796C230.392 16.672 229.264 15.4 227.62 15.4C226.696 15.4 226.048 15.832 225.568 16.564H225.532V15.556H224.428V24.184ZM227.464 21.268C226.036 21.268 225.484 20.176 225.484 18.82C225.484 17.452 226.108 16.348 227.476 16.348C228.664 16.348 229.252 17.404 229.252 18.82C229.252 20.224 228.652 21.268 227.464 21.268ZM232.681 15.556H231.577V22H232.693V18.496C232.693 17.284 233.545 16.54 234.541 16.54C234.733 16.54 234.841 16.552 234.997 16.6H235.033V15.544C234.913 15.496 234.805 15.472 234.625 15.472C233.773 15.472 233.113 15.976 232.717 16.72H232.681V15.556ZM236.099 14.368H237.263V13.072H236.099V14.368ZM236.123 22H237.239V15.556H236.123V22ZM238.532 22H243.728V21.016H241.124C240.656 21.016 239.84 21.052 239.84 21.052V21.016C239.84 21.016 240.38 20.428 240.656 20.08L243.584 16.252V15.556H238.748V16.504H240.968C241.412 16.504 242.18 16.468 242.18 16.468V16.504C242.18 16.504 241.676 17.044 241.412 17.38L238.532 21.136V22ZM247.474 22.18C248.962 22.18 249.994 21.364 250.282 20.164H249.19C248.986 20.848 248.374 21.268 247.486 21.268C246.238 21.268 245.554 20.308 245.47 19.048H250.414C250.414 17.956 250.15 17.032 249.622 16.396C249.118 15.772 248.374 15.4 247.414 15.4C245.566 15.4 244.33 16.912 244.33 18.784C244.33 20.668 245.494 22.18 247.474 22.18ZM247.414 16.264C248.53 16.264 249.166 17.008 249.226 18.244H245.494C245.638 17.104 246.25 16.264 247.414 16.264Z" fill="white"/>
<path fill-rule="evenodd" clip-rule="evenodd" d="M304.026 27.0782L313.009 25.4935C313.523 25.4004 313.912 25.2033 314.175 24.9023C314.432 24.6067 314.561 24.207 314.561 23.7034V12.3965C314.561 12.0078 314.479 11.6794 314.315 11.4111C314.15 11.1429 313.92 10.954 313.625 10.8445C313.329 10.7296 312.982 10.7077 312.582 10.7789L303.862 12.3144C303.062 12.4567 302.46 12.7058 302.055 13.0616C301.644 13.4119 301.439 13.9895 301.439 14.7942V24.7052C301.439 25.2909 301.543 25.7754 301.751 26.1586C301.959 26.5473 302.258 26.821 302.646 26.9797C303.029 27.1385 303.489 27.1713 304.026 27.0782ZM312.442 13.9402V15.6728C312.442 15.8425 312.388 15.9711 312.278 16.0587C312.169 16.1463 312.043 16.1928 311.9 16.1983C311.758 16.1983 311.635 16.16 311.531 16.0833C311.421 16.0012 311.367 15.8781 311.367 15.7138V14.6135C311.367 14.3891 311.238 14.296 310.981 14.3343L309.897 14.5314C309.722 14.5588 309.585 14.5287 309.486 14.4411C309.382 14.348 309.319 14.2331 309.297 14.0962C309.27 13.9594 309.289 13.8307 309.355 13.7103C309.415 13.5898 309.522 13.5159 309.675 13.4886L311.441 13.1765C311.753 13.1218 311.999 13.1601 312.18 13.2915C312.355 13.4229 312.442 13.6391 312.442 13.9402ZM304.699 15.9684V17.0112C304.699 17.1809 304.647 17.3123 304.543 17.4054C304.434 17.4984 304.308 17.5477 304.165 17.5532C304.023 17.5586 303.897 17.5176 303.788 17.43C303.678 17.3369 303.623 17.1973 303.623 17.0112V15.6399C303.623 15.2567 303.725 14.9639 303.927 14.7613C304.124 14.5533 304.45 14.4082 304.904 14.3261L305.758 14.1783C305.944 14.1455 306.095 14.1728 306.21 14.2604C306.319 14.348 306.385 14.463 306.407 14.6053C306.429 14.7422 306.404 14.8708 306.333 14.9912C306.256 15.1117 306.125 15.1883 305.939 15.2212L305.257 15.3443C305.017 15.3881 304.863 15.473 304.798 15.5989C304.732 15.7193 304.699 15.8425 304.699 15.9684ZM311.367 21.9462V20.9034C311.367 20.7337 311.421 20.6023 311.531 20.5092C311.635 20.4162 311.758 20.3669 311.9 20.3614C312.043 20.3559 312.169 20.3997 312.278 20.4928C312.388 20.5804 312.442 20.7172 312.442 20.9034V22.2746C312.442 22.6578 312.344 22.9534 312.147 23.1615C311.944 23.364 311.616 23.5063 311.161 23.5885L310.307 23.7363C310.121 23.7691 309.973 23.7417 309.864 23.6541C309.749 23.5611 309.681 23.4461 309.659 23.3093C309.631 23.1724 309.656 23.0438 309.733 22.9233C309.809 22.7974 309.941 22.7208 310.127 22.6934L310.808 22.5703C311.049 22.5265 311.202 22.4416 311.268 22.3157C311.334 22.1898 311.367 22.0666 311.367 21.9462ZM303.623 23.9744V22.2418C303.623 22.0666 303.678 21.938 303.788 21.8559C303.897 21.7683 304.023 21.7245 304.165 21.7245C304.308 21.719 304.434 21.7573 304.543 21.8394C304.647 21.9161 304.699 22.0365 304.699 22.2007V23.3011C304.699 23.5255 304.828 23.6186 305.085 23.5802L306.169 23.3832C306.344 23.3558 306.484 23.3886 306.588 23.4817C306.686 23.5693 306.749 23.6815 306.777 23.8184C306.798 23.9552 306.779 24.0839 306.719 24.2043C306.653 24.3247 306.541 24.3986 306.382 24.426L304.625 24.738C304.313 24.7928 304.07 24.7545 303.894 24.6231C303.714 24.4917 303.623 24.2755 303.623 23.9744ZM309.007 17.673L310.244 17.4631C310.348 17.4713 310.427 17.5649 310.419 17.673C310.416 17.7162 310.4 17.7568 310.373 17.7889L309.592 19.1691L310.082 20.6085C310.108 20.7135 310.047 20.8195 309.946 20.8455C309.906 20.8558 309.863 20.8523 309.825 20.8349L308.432 20.5085L307 21.5412C306.953 21.5708 306.936 21.5708 306.9 21.5709H306.9C306.865 21.5709 306.831 21.5607 306.801 21.5414C306.771 21.522 306.746 21.4944 306.731 21.4616C306.715 21.4288 306.708 21.3921 306.712 21.3557L306.953 19.6062L305.737 18.7015C305.698 18.6679 305.674 18.6199 305.669 18.5681C305.665 18.5162 305.68 18.4647 305.712 18.4249C305.739 18.3922 305.775 18.3692 305.816 18.36L307.346 17.9141L307.907 16.4581C307.947 16.3581 308.056 16.3099 308.153 16.3506C308.191 16.3668 308.224 16.3957 308.245 16.4329L309.007 17.673Z" fill="white"/>
<rect x="103.5" y="0.5" width="230" height="35" stroke="white"/>
<path d="M131.93 71.06H127.85V82.76L124.1 71.06H119.93V95H124.01V83.06L127.79 95H131.93V71.06ZM144.827 71.06H134.237V95H138.617V85.01H144.347V80.99H138.617V75.17H144.827V71.06ZM157.116 90.95H150.786V71.06H146.406V95H157.116V90.95ZM171.243 89.21L172.023 95H176.463L172.893 71.06H166.743L162.753 95H167.133L167.973 89.21H171.243ZM168.393 85.67C168.393 85.67 169.473 78.71 169.473 78.59C169.683 77.3 169.743 74.96 169.743 74.96C169.743 74.96 169.803 77.33 169.953 78.59C169.953 78.71 170.853 85.67 170.853 85.67H168.393ZM188.554 90.95H182.224V71.06H177.844V95H188.554V90.95ZM200.752 90.95H194.422V71.06H190.042V95H200.752V90.95ZM219.529 82.52C219.529 78.77 219.379 74.6 218.449 73.25C217.399 71.69 216.049 71.06 213.499 71.06H207.319V95H214.039C216.499 95 217.669 94.07 218.449 92.72C219.379 91.13 219.529 87.47 219.529 82.52ZM213.559 91.55H211.639V74.78H213.379C214.249 74.78 214.789 75.2 215.029 76.19C215.239 77 215.329 81.32 215.329 82.52C215.329 83.75 215.269 89.36 215.059 90.32C214.849 91.19 214.339 91.55 213.559 91.55ZM228.747 89.21L229.527 95H233.967L230.397 71.06H224.247L220.257 95H224.637L225.477 89.21H228.747ZM225.897 85.67C225.897 85.67 226.977 78.71 226.977 78.59C227.187 77.3 227.247 74.96 227.247 74.96C227.247 74.96 227.307 77.33 227.457 78.59C227.457 78.71 228.357 85.67 228.357 85.67H225.897ZM242.975 71.06C242.975 71.06 240.335 79.79 239.945 81.05C239.675 79.82 237.335 71.06 237.335 71.06H232.865L237.755 86.12V95H242.135V86.03L247.295 71.06H242.975ZM131.21 109.22C130.52 107.81 128.96 107.06 127.13 107.06H119.93V131H124.28V121.04H125.84L128.24 131H132.77L129.86 119.84C130.46 119.63 131.12 118.97 131.48 118.04C131.84 117.17 132.05 115.88 132.05 113.99C132.05 111.86 131.72 110.21 131.21 109.22ZM127.4 116.57C127.28 116.99 126.95 117.26 126.38 117.32C126.23 117.35 124.28 117.35 124.28 117.35V111.05H126.26C126.98 111.05 127.37 111.53 127.52 112.19C127.58 112.49 127.64 113.6 127.64 114.41C127.64 115.13 127.58 116.15 127.4 116.57ZM140.513 125.63C140.513 126.05 140.453 126.56 140.333 127.07C140.183 127.73 139.553 128 138.953 128C138.353 128 137.663 127.64 137.573 126.83C137.483 126.08 137.453 124.88 137.453 124.13H144.263C144.413 121.31 144.203 118.43 143.633 117.02C142.943 115.34 141.353 114.29 139.043 114.29C136.193 114.29 134.933 115.58 134.333 117.05C133.883 118.13 133.553 120.35 133.553 122.84C133.553 125.39 133.763 127.28 134.453 128.87C135.173 130.55 136.883 131.21 139.103 131.21C141.323 131.21 142.673 130.31 143.393 129.02C144.023 127.91 144.173 126.11 144.173 125.63H140.513ZM137.393 121.19C137.393 120.05 137.423 118.97 137.633 118.46C137.843 117.89 138.323 117.59 138.983 117.59C139.673 117.59 140.123 117.92 140.273 118.49C140.393 118.88 140.483 119.69 140.483 121.19H137.393ZM159.172 114.5L157.852 126.62L156.112 114.5H152.002L150.472 126.62L148.942 114.5H144.862L147.832 131H152.632C152.632 131 153.682 125.15 154.012 123.2C154.042 123.02 154.072 121.49 154.072 121.49C154.072 121.49 154.162 123.02 154.192 123.2C154.522 125.09 155.542 131 155.542 131H160.282L163.162 114.5H159.172ZM174.223 128.06C174.223 126.83 174.253 124.82 174.253 123.53C174.283 122 174.313 119.51 174.253 118.07C174.163 115.76 172.723 114.29 169.273 114.29C165.613 114.29 164.113 115.94 164.113 119.03V120.26H167.833V119.33C167.833 118.19 168.193 117.62 169.213 117.62C169.963 117.62 170.353 118.04 170.383 118.76C170.413 119.27 170.413 120.29 170.413 120.74C169.753 120.74 169.063 120.83 168.313 120.95C165.553 121.46 163.693 122.96 163.543 125.36C163.483 126.23 163.513 127.64 163.543 128C163.663 130.4 165.493 131.12 167.143 131.12C168.613 131.12 169.723 130.73 170.473 129.8C170.473 130.22 170.563 131 170.623 131H174.433C174.283 130.79 174.223 129.26 174.223 128.06ZM170.413 124.7C170.353 125.54 170.413 125.96 170.263 126.83C170.113 127.67 169.393 128 168.763 128C168.163 128 167.683 127.79 167.593 127.22C167.533 126.74 167.533 126.17 167.533 125.72C167.533 125.03 167.563 124.55 168.073 124.1C168.523 123.71 169.033 123.62 169.453 123.53C169.813 123.47 170.113 123.47 170.413 123.47C170.413 123.71 170.443 124.37 170.413 124.7ZM183.089 114.29C181.709 114.29 180.329 115.19 180.149 116.45V114.5H176.189V131H180.209V121.22C180.209 118.52 181.049 117.92 182.429 117.92C183.239 117.92 184.049 118.07 184.529 118.22V114.44C184.199 114.32 183.719 114.29 183.089 114.29ZM185.905 116.93C185.425 118.73 185.275 120.38 185.275 122.81C185.275 125.45 185.575 127.64 186.115 128.96C186.715 130.46 187.825 131.12 189.475 131.12C190.945 131.12 191.935 130.64 192.475 129.8L192.955 131H196.315C196.315 131 196.195 129.62 196.195 128.69V107.03H192.265V115.7C191.815 114.83 190.735 114.35 189.475 114.35C187.705 114.35 186.325 115.31 185.905 116.93ZM191.995 118.67C192.175 119.57 192.295 120.47 192.295 122.84C192.295 124.28 192.235 125.78 192.025 126.83C191.905 127.46 191.515 127.94 190.735 127.94C189.925 127.94 189.505 127.55 189.415 126.92C189.265 125.69 189.205 124.22 189.205 122.84C189.205 121.43 189.265 120.02 189.475 118.82C189.595 118.22 190.015 117.77 190.765 117.77C191.515 117.77 191.875 118.1 191.995 118.67ZM214.336 108.77C213.466 107.63 212.206 107.06 210.346 107.06H203.236V131H207.646V121.94C207.646 121.94 209.686 121.97 210.286 121.91C212.086 121.79 213.406 121.31 214.276 120.23C215.176 119.15 215.536 117.35 215.536 114.5C215.536 111.68 215.116 109.76 214.336 108.77ZM210.946 117.08C210.826 117.86 210.316 118.19 209.326 118.19H207.646V111.11H209.446C210.136 111.11 210.646 111.5 210.826 112.01C210.976 112.43 211.126 113.42 211.126 114.68C211.126 115.97 211.096 116.27 210.946 117.08ZM226.512 128.06C226.512 126.83 226.542 124.82 226.542 123.53C226.572 122 226.602 119.51 226.542 118.07C226.452 115.76 225.012 114.29 221.562 114.29C217.902 114.29 216.402 115.94 216.402 119.03V120.26H220.122V119.33C220.122 118.19 220.482 117.62 221.502 117.62C222.252 117.62 222.642 118.04 222.672 118.76C222.702 119.27 222.702 120.29 222.702 120.74C222.042 120.74 221.352 120.83 220.602 120.95C217.842 121.46 215.982 122.96 215.832 125.36C215.772 126.23 215.802 127.64 215.832 128C215.952 130.4 217.782 131.12 219.432 131.12C220.902 131.12 222.012 130.73 222.762 129.8C222.762 130.22 222.852 131 222.912 131H226.722C226.572 130.79 226.512 129.26 226.512 128.06ZM222.702 124.7C222.642 125.54 222.702 125.96 222.552 126.83C222.402 127.67 221.682 128 221.052 128C220.452 128 219.972 127.79 219.882 127.22C219.822 126.74 219.822 126.17 219.822 125.72C219.822 125.03 219.852 124.55 220.362 124.1C220.812 123.71 221.322 123.62 221.742 123.53C222.102 123.47 222.402 123.47 222.702 123.47C222.702 123.71 222.732 124.37 222.702 124.7ZM238.468 117.29C237.928 115.58 236.668 114.29 233.578 114.29C231.238 114.29 229.558 115.34 228.958 117.11C228.358 118.91 228.178 120.35 228.178 122.75C228.178 125.24 228.538 127.73 229.018 128.81C229.678 130.31 231.268 131.21 233.638 131.21C236.068 131.21 237.628 130.13 238.168 128.75C238.738 127.31 238.768 126.62 238.768 124.37H235.048C235.048 125.42 235.048 125.75 234.928 126.62C234.838 127.31 234.418 127.85 233.638 127.85C232.858 127.85 232.468 127.49 232.348 126.65C232.168 125.42 232.108 123.74 232.108 122.78C232.108 121.58 232.168 120.08 232.348 118.91C232.468 118.1 232.888 117.68 233.608 117.68C234.448 117.68 234.748 118.22 234.838 118.88C234.928 119.51 235.018 120.26 235.018 121.22H238.768C238.768 119.21 238.678 118.01 238.468 117.29ZM248.334 120.5L251.454 114.5H247.554L244.344 120.83V107.03H240.384V131H244.344V126.05L245.514 124.16L247.584 131H251.604L248.334 120.5Z" fill="white"/>
<rect x="103.5" y="0.5" width="230" height="167" stroke="white"/>
</g>
<rect x="0.5" y="0.5" width="333" height="167" rx="7.5" stroke="white"/>
<defs>
<clipPath id="clip0_4719_146420">
<rect width="334" height="168" rx="8" fill="white"/>
</clipPath>
</defs>
</svg>
