<svg width="100%" height="auto" viewBox="0 0 335 164" fill="none" xmlns="http://www.w3.org/2000/svg">
<g clip-path="url(#clip0_2388_31322)">
<path d="M67 80.4793H48.76C51.96 74.3993 66.12 60.3993 67 46.5593C67.08 45.1993 67.16 39.6793 67.08 38.6393C66.52 31.6793 62.76 26.3193 52.12 26.3193C41.72 26.3193 36.68 32.6393 36.44 38.9593C36.36 40.2393 36.36 46.7993 36.36 48.0793H47.56V40.5593C47.64 37.5993 49.24 36.4793 51.32 36.4793C53.64 36.4793 55.08 37.2793 55.08 41.0393V45.5993C54.68 59.4393 40.68 71.1993 36.28 80.8793V90.7993H67V80.4793Z" fill="white"/>
<path d="M38.1123 113.943V110.583H33.7023V112.165H36.4043C36.4043 112.165 36.4183 113.761 36.3903 113.901C36.2083 114.727 35.4663 115.357 34.2763 115.357C33.2963 115.357 32.6943 115.105 32.3163 114.559C31.8683 113.901 31.7423 112.935 31.7423 111.297C31.7423 109.687 31.9383 108.637 32.3303 108.035C32.7083 107.475 33.3103 107.237 34.1503 107.237C34.9343 107.237 35.4803 107.475 35.8023 107.951C36.0963 108.399 36.2643 109.057 36.2643 109.435H38.0563C38.0563 108.945 37.9163 107.979 37.5803 107.307C37.0763 106.313 36.0263 105.571 34.1083 105.571C32.2603 105.571 31.2243 106.341 30.6363 107.251C30.0203 108.217 29.8383 109.547 29.8383 111.269C29.8383 113.271 30.1463 114.559 30.6783 115.399C31.3223 116.407 32.4143 116.939 33.8843 116.939C35.3963 116.939 36.2083 116.407 36.5863 115.847L36.6703 116.799H38.1263C38.1263 116.757 38.1123 115.273 38.1123 113.943ZM46.8892 114.111L47.6592 116.799H49.5632L46.2872 105.711H43.9352L40.4352 116.799H42.3112L43.1232 114.111H46.8892ZM43.6272 112.515C43.6272 112.515 44.8452 108.497 44.8592 108.427C44.8872 108.315 45.0692 107.433 45.0692 107.433C45.0692 107.433 45.2512 108.315 45.2792 108.427C45.3072 108.511 46.4132 112.515 46.4132 112.515H43.6272ZM62.0557 105.711H59.6617L57.1697 113.957L54.7197 105.711H52.1857V116.799H53.9077V109.197L56.1897 116.799H57.9957L60.3197 109.169V116.799H62.0557V105.711ZM72.4428 115.119H67.3888V112.081H72.1628V110.387H67.3888V107.391H72.3868V105.711H65.5688V116.799H72.4428V115.119ZM27.3392 130.625C27.0312 130.513 26.3732 130.261 25.9812 130.135C24.6232 129.687 23.9512 129.253 23.9512 128.385C23.9512 127.643 24.4552 127.195 25.8692 127.195C27.0732 127.195 27.6332 127.531 27.8712 128.217C27.9552 128.469 27.9972 128.679 27.9972 128.917H29.8732C29.8732 128.497 29.8032 128.161 29.7052 127.825C29.3132 126.453 28.1932 125.585 25.9112 125.585C23.2932 125.585 22.0612 126.733 22.0612 128.441C22.0612 130.079 23.1392 131.059 24.8052 131.605C25.2672 131.759 25.9252 132.011 26.2052 132.109C27.6892 132.627 28.1372 133.075 28.1372 134.013C28.1372 134.853 27.5352 135.357 26.1212 135.357C24.9172 135.357 24.2172 135.049 24.0072 134.391C23.9232 134.125 23.8812 133.747 23.8812 133.551H22.0192C22.0192 133.873 22.0472 134.391 22.1452 134.769C22.4812 136.071 23.6012 136.939 26.1632 136.939C28.7532 136.939 30.0272 135.707 30.0272 133.859C30.0272 132.137 29.0752 131.227 27.3392 130.625ZM39.9652 125.711H32.1112V127.377H35.0932V136.799H36.9692V127.377H39.9652V125.711ZM49.8119 126.943C49.4199 126.159 48.6779 125.711 47.4599 125.711H42.6299V136.799H44.4499V132.179H46.8579L48.7899 136.799H50.8199L48.6359 131.773C49.1259 131.675 49.5739 131.325 49.8539 130.793C50.0639 130.373 50.1759 129.757 50.1759 128.917C50.1759 128.021 50.0919 127.475 49.8119 126.943ZM48.1879 130.107C48.0479 130.415 47.6979 130.583 47.2079 130.597H44.4639V127.363H47.0679C47.6979 127.363 48.0899 127.587 48.2439 128.007C48.3139 128.189 48.3419 128.679 48.3419 129.085C48.3419 129.421 48.2859 129.869 48.1879 130.107ZM60.5081 135.119H55.4541V132.081H60.2281V130.387H55.4541V127.391H60.4521V125.711H53.6341V136.799H60.5081V135.119ZM69.1703 134.111L69.9403 136.799H71.8443L68.5683 125.711H66.2163L62.7163 136.799H64.5923L65.4043 134.111H69.1703ZM65.9083 132.515C65.9083 132.515 67.1263 128.497 67.1403 128.427C67.1683 128.315 67.3503 127.433 67.3503 127.433C67.3503 127.433 67.5323 128.315 67.5603 128.427C67.5883 128.511 68.6943 132.515 68.6943 132.515H65.9083ZM78.4008 130.499L82.3908 125.711H80.3188L76.3148 130.429V125.711H74.4668V136.799H76.3148V132.837L77.1268 131.885L80.2908 136.799H82.4748L78.4008 130.499Z" fill="white"/>
<path d="M120.06 30.7993H127.06V29.5533H121.712L121.74 29.4413C122.132 28.4053 123.49 27.6493 124.526 27.0193C126.024 26.1653 127.242 25.5213 127.242 23.6733C127.242 21.9093 125.926 20.6073 123.882 20.6073C122.79 20.6073 121.838 20.9433 121.222 21.6013C120.62 22.2173 120.298 23.0153 120.298 24.1353H121.684C121.684 23.2953 121.852 22.7493 122.244 22.3433C122.608 21.9373 123.098 21.7273 123.77 21.7273C125.044 21.7273 125.842 22.5253 125.842 23.7013C125.842 24.8493 125.114 25.3533 123.868 26.0673C122.916 26.6413 121.88 27.2153 121.124 28.0553C120.522 28.7413 120.116 29.5953 120.06 30.7993ZM135.66 33.4313C136.668 33.4313 137.508 33.2073 138.096 32.7173C138.67 32.2273 139.006 31.4853 139.006 30.4913V23.2813H137.718V24.2753H137.69C137.214 23.5193 136.486 23.0993 135.408 23.0993C133.644 23.0993 132.188 24.4713 132.188 26.7813C132.188 28.9653 133.56 30.4633 135.478 30.4633C136.542 30.4633 137.2 30.0013 137.718 29.2593H137.746C137.732 29.4973 137.718 29.9033 137.718 30.3373V30.5473C137.718 31.8213 136.976 32.4233 135.632 32.4233C134.512 32.4233 133.756 32.1013 133.644 31.3173H132.426C132.566 32.6473 133.686 33.4313 135.66 33.4313ZM135.604 29.3993C134.246 29.3993 133.518 28.3913 133.518 26.7953C133.518 25.2133 134.218 24.1773 135.59 24.1773C137.088 24.1773 137.802 25.1433 137.802 26.7253C137.802 28.2513 137.242 29.3993 135.604 29.3993ZM143.048 30.9533C144.322 30.9533 145.092 30.3513 145.568 29.6933H145.582C145.722 30.4913 146.114 30.8693 146.912 30.8693C147.22 30.8693 147.43 30.8133 147.612 30.7573V29.8473H147.556C146.898 29.9873 146.758 29.6653 146.758 29.0633V25.5493C146.758 24.5413 146.38 23.8833 145.75 23.5053C145.274 23.2253 144.644 23.0993 143.93 23.0993C141.9 23.0993 140.934 24.2333 140.878 25.5073H142.138C142.18 24.6113 142.754 24.0513 143.944 24.0513C144.98 24.0513 145.554 24.5553 145.554 25.3673C145.554 26.1373 144.84 26.3193 143.734 26.4453C141.788 26.6833 140.5 27.0613 140.5 28.8113C140.5 30.2533 141.62 30.9533 143.048 30.9533ZM143.37 30.0013C142.614 30.0013 141.872 29.7633 141.872 28.7973C141.872 27.7613 142.684 27.5373 143.916 27.3273C144.532 27.2153 145.19 27.0333 145.568 26.7953V28.0273C145.568 28.8953 144.868 30.0013 143.37 30.0013ZM148.669 30.7993H149.971V26.1653C149.971 25.0173 150.937 24.1913 151.833 24.1913C152.603 24.1913 153.121 24.7373 153.121 25.6613V30.7993H154.409V26.1653C154.409 25.0173 155.235 24.1913 156.187 24.1913C156.943 24.1913 157.545 24.7373 157.545 25.6613V30.7993H158.847V25.5493C158.847 23.9813 157.895 23.0993 156.523 23.0993C155.613 23.0993 154.731 23.5613 154.199 24.4993H154.171C153.863 23.5753 153.135 23.0993 152.225 23.0993C151.259 23.0993 150.461 23.5893 149.999 24.4013H149.957V23.2813H148.669V30.7993ZM163.853 31.0093C165.589 31.0093 166.793 30.0573 167.129 28.6573H165.855C165.617 29.4553 164.903 29.9453 163.867 29.9453C162.411 29.9453 161.613 28.8253 161.515 27.3553H167.283C167.283 26.0813 166.975 25.0033 166.359 24.2613C165.771 23.5333 164.903 23.0993 163.783 23.0993C161.627 23.0993 160.185 24.8633 160.185 27.0473C160.185 29.2453 161.543 31.0093 163.853 31.0093ZM163.783 24.1073C165.085 24.1073 165.827 24.9753 165.897 26.4173H161.543C161.711 25.0873 162.425 24.1073 163.783 24.1073ZM174.014 30.7993H175.33L176.464 26.6553C176.646 25.9413 176.926 24.5553 176.926 24.5553H176.954C176.954 24.5553 177.248 25.9273 177.43 26.6553L178.536 30.7993H179.838L182.288 23.2813H180.944L179.698 27.4533C179.418 28.3773 179.208 29.6653 179.208 29.6653H179.18C179.18 29.6653 178.914 28.2793 178.704 27.4813L177.584 23.2813H176.352L175.218 27.4813C174.966 28.3913 174.714 29.6513 174.714 29.6513H174.686C174.686 29.6513 174.434 28.3073 174.196 27.4533L173.02 23.2813H171.634L174.014 30.7993ZM183.3 21.8953H184.658V20.3833H183.3V21.8953ZM183.328 30.7993H184.63V23.2813H183.328V30.7993ZM187.705 23.2813H186.417V30.7993H187.719V26.2213C187.719 25.0173 188.559 24.1913 189.721 24.1913C190.743 24.1913 191.373 24.7373 191.373 25.7033V30.7993H192.661V25.5493C192.661 23.9813 191.695 23.0993 190.127 23.0993C189.035 23.0993 188.293 23.5893 187.747 24.3453H187.705V23.2813ZM201.018 31.0233C202.782 31.0233 204.042 30.2393 204.042 28.7133C204.042 26.9633 202.754 26.6273 201.256 26.3333C199.982 26.0813 199.254 25.9273 199.254 25.1433C199.254 24.5693 199.688 24.0933 200.71 24.0933C201.788 24.0933 202.32 24.5273 202.432 25.2973H203.734C203.566 23.9953 202.628 23.1133 200.738 23.1133C198.988 23.1133 197.98 23.9253 197.98 25.2133C197.98 26.8653 199.31 27.1733 200.78 27.4813C202.11 27.7473 202.74 27.9573 202.74 28.7833C202.74 29.4553 202.236 29.9733 201.046 29.9733C199.968 29.9733 199.128 29.6093 198.974 28.5173H197.658C197.77 30.0433 198.946 31.0233 201.018 31.0233ZM204.85 24.2893H206.026V29.3293C206.026 30.4353 206.726 30.8413 207.734 30.8553C208.07 30.8553 208.434 30.8133 208.784 30.7293V29.6373H208.742C208.602 29.6793 208.308 29.7353 208.084 29.7353C207.608 29.7353 207.314 29.5813 207.314 29.0353V24.2893H208.868V23.2813H207.314V20.9153H206.026V23.2813H204.85V24.2893ZM211.508 23.2813H210.22V30.7993H211.522V26.7113C211.522 25.2973 212.516 24.4293 213.678 24.4293C213.902 24.4293 214.028 24.4433 214.21 24.4993H214.252V23.2673C214.112 23.2113 213.986 23.1833 213.776 23.1833C212.782 23.1833 212.012 23.7713 211.55 24.6393H211.508V23.2813ZM218.513 31.0093C220.249 31.0093 221.453 30.0573 221.789 28.6573H220.515C220.277 29.4553 219.563 29.9453 218.527 29.9453C217.071 29.9453 216.273 28.8253 216.175 27.3553H221.943C221.943 26.0813 221.635 25.0033 221.019 24.2613C220.431 23.5333 219.563 23.0993 218.443 23.0993C216.287 23.0993 214.845 24.8633 214.845 27.0473C214.845 29.2453 216.203 31.0093 218.513 31.0093ZM218.443 24.1073C219.745 24.1073 220.487 24.9753 220.557 26.4173H216.203C216.371 25.0873 217.085 24.1073 218.443 24.1073ZM225.572 30.9533C226.846 30.9533 227.616 30.3513 228.092 29.6933H228.106C228.246 30.4913 228.638 30.8693 229.436 30.8693C229.744 30.8693 229.954 30.8133 230.136 30.7573V29.8473H230.08C229.422 29.9873 229.282 29.6653 229.282 29.0633V25.5493C229.282 24.5413 228.904 23.8833 228.274 23.5053C227.798 23.2253 227.168 23.0993 226.454 23.0993C224.424 23.0993 223.458 24.2333 223.402 25.5073H224.662C224.704 24.6113 225.278 24.0513 226.468 24.0513C227.504 24.0513 228.078 24.5553 228.078 25.3673C228.078 26.1373 227.364 26.3193 226.258 26.4453C224.312 26.6833 223.024 27.0613 223.024 28.8113C223.024 30.2533 224.144 30.9533 225.572 30.9533ZM225.894 30.0013C225.138 30.0013 224.396 29.7633 224.396 28.7973C224.396 27.7613 225.208 27.5373 226.44 27.3273C227.056 27.2153 227.714 27.0333 228.092 26.7953V28.0273C228.092 28.8953 227.392 30.0013 225.894 30.0013ZM236.135 30.7993H237.661L234.455 25.9833L237.325 23.2813H235.701L232.439 26.4873C232.467 26.1233 232.495 25.5913 232.495 25.3253V20.3833H231.193V30.7993H232.495V27.8453L233.559 26.8373L236.135 30.7993ZM242.5 33.3473H243.802V31.0653C243.802 30.4913 243.788 30.0713 243.774 29.8053H243.816C244.334 30.6033 245.16 31.0233 246.182 31.0233C248.212 31.0233 249.458 29.4693 249.458 27.0613C249.458 24.5833 248.142 23.0993 246.224 23.0993C245.146 23.0993 244.39 23.6033 243.83 24.4573H243.788V23.2813H242.5V33.3473ZM246.042 29.9453C244.376 29.9453 243.732 28.6713 243.732 27.0893C243.732 25.4933 244.46 24.2053 246.056 24.2053C247.442 24.2053 248.128 25.4373 248.128 27.0893C248.128 28.7273 247.428 29.9453 246.042 29.9453ZM252.127 23.2813H250.839V30.7993H252.141V26.7113C252.141 25.2973 253.135 24.4293 254.297 24.4293C254.521 24.4293 254.647 24.4433 254.829 24.4993H254.871V23.2673C254.731 23.2113 254.605 23.1833 254.395 23.1833C253.401 23.1833 252.631 23.7713 252.169 24.6393H252.127V23.2813ZM256.116 21.8953H257.474V20.3833H256.116V21.8953ZM256.144 30.7993H257.446V23.2813H256.144V30.7993ZM258.954 30.7993H265.016V29.6513H261.978C261.432 29.6513 260.48 29.6933 260.48 29.6933V29.6513C260.48 29.6513 261.11 28.9653 261.432 28.5593L264.848 24.0933V23.2813H259.206V24.3873H261.796C262.314 24.3873 263.21 24.3453 263.21 24.3453V24.3873C263.21 24.3873 262.622 25.0173 262.314 25.4093L258.954 29.7913V30.7993ZM269.387 31.0093C271.123 31.0093 272.327 30.0573 272.663 28.6573H271.389C271.151 29.4553 270.437 29.9453 269.401 29.9453C267.945 29.9453 267.147 28.8253 267.049 27.3553H272.817C272.817 26.0813 272.509 25.0033 271.893 24.2613C271.305 23.5333 270.437 23.0993 269.317 23.0993C267.161 23.0993 265.719 24.8633 265.719 27.0473C265.719 29.2453 267.077 31.0093 269.387 31.0093ZM269.317 24.1073C270.619 24.1073 271.361 24.9753 271.431 26.4173H267.077C267.245 25.0873 267.959 24.1073 269.317 24.1073Z" fill="white"/>
<path fill-rule="evenodd" clip-rule="evenodd" d="M301.731 36.6932L312.511 34.7915C313.128 34.6798 313.595 34.4433 313.91 34.082C314.219 33.7273 314.373 33.2478 314.373 32.6434V19.0751C314.373 18.6087 314.274 18.2145 314.077 17.8927C313.88 17.5708 313.604 17.3441 313.25 17.2128C312.895 17.0748 312.478 17.0485 311.998 17.1339L301.534 18.9766C300.575 19.1473 299.852 19.4462 299.366 19.8732C298.873 20.2936 298.627 20.9867 298.627 21.9523V33.8455C298.627 34.5484 298.752 35.1298 299.002 35.5896C299.251 36.056 299.609 36.3845 300.076 36.575C300.535 36.7655 301.087 36.8049 301.731 36.6932ZM311.831 20.9276V23.0066C311.831 23.2103 311.765 23.3647 311.634 23.4698C311.502 23.5749 311.351 23.6307 311.18 23.6373C311.01 23.6373 310.862 23.5913 310.737 23.4993C310.606 23.4008 310.54 23.253 310.54 23.0559V21.7355C310.54 21.4662 310.386 21.3545 310.077 21.4005L308.776 21.637C308.566 21.6699 308.402 21.6337 308.284 21.5286C308.159 21.4169 308.083 21.279 308.057 21.1148C308.024 20.9505 308.047 20.7962 308.126 20.6517C308.198 20.5071 308.326 20.4185 308.51 20.3856L310.629 20.0112C311.003 19.9455 311.299 19.9915 311.516 20.1491C311.726 20.3068 311.831 20.5663 311.831 20.9276ZM302.539 23.3614V24.6128C302.539 24.8164 302.477 24.9741 302.352 25.0857C302.22 25.1974 302.069 25.2565 301.898 25.2631C301.728 25.2697 301.577 25.2204 301.445 25.1153C301.314 25.0036 301.248 24.8361 301.248 24.6128V22.9672C301.248 22.5074 301.37 22.156 301.613 21.9129C301.849 21.6633 302.24 21.4892 302.785 21.3907L303.81 21.2133C304.033 21.1739 304.214 21.2067 304.352 21.3118C304.483 21.4169 304.562 21.5549 304.588 21.7257C304.615 21.8899 304.585 22.0443 304.5 22.1888C304.408 22.3333 304.25 22.4253 304.027 22.4647L303.209 22.6125C302.92 22.6651 302.736 22.7669 302.657 22.918C302.578 23.0625 302.539 23.2103 302.539 23.3614ZM310.54 30.5348V29.2834C310.54 29.0797 310.606 28.9221 310.737 28.8104C310.862 28.6987 311.01 28.6396 311.18 28.633C311.351 28.6264 311.502 28.679 311.634 28.7907C311.765 28.8958 311.831 29.06 311.831 29.2834V30.9289C311.831 31.3887 311.713 31.7435 311.476 31.9931C311.233 32.2361 310.839 32.4069 310.294 32.5055L309.269 32.6828C309.046 32.7222 308.868 32.6894 308.737 32.5843C308.599 32.4726 308.517 32.3347 308.49 32.1704C308.458 32.0062 308.487 31.8518 308.579 31.7073C308.671 31.5562 308.829 31.4643 309.052 31.4314L309.87 31.2836C310.159 31.2311 310.343 31.1292 310.422 30.9782C310.501 30.8271 310.54 30.6793 310.54 30.5348ZM301.248 32.9686V30.8895C301.248 30.6793 301.314 30.5249 301.445 30.4264C301.577 30.3213 301.728 30.2687 301.898 30.2687C302.069 30.2621 302.22 30.3081 302.352 30.4067C302.477 30.4986 302.539 30.6431 302.539 30.8402V32.1606C302.539 32.4299 302.693 32.5416 303.002 32.4956L304.303 32.2591C304.513 32.2263 304.68 32.2657 304.805 32.3774C304.923 32.4825 304.999 32.6171 305.032 32.7814C305.058 32.9456 305.035 33.1 304.963 33.2445C304.884 33.389 304.749 33.4777 304.559 33.5105L302.45 33.885C302.076 33.9506 301.783 33.9047 301.573 33.747C301.357 33.5893 301.248 33.3299 301.248 32.9686ZM307.708 25.4069L309.193 25.155C309.317 25.1649 309.412 25.2772 309.403 25.4069C309.4 25.4588 309.38 25.5075 309.347 25.546L308.411 27.2023L308.999 28.9295C309.03 29.0555 308.956 29.1827 308.835 29.2139C308.787 29.2263 308.736 29.2221 308.69 29.2011L307.018 28.8095L305.3 30.0488C305.244 30.0843 305.223 30.0843 305.181 30.0844H305.18C305.138 30.0844 305.097 30.0721 305.061 30.0489C305.025 30.0258 304.996 29.9926 304.977 29.9532C304.958 29.9139 304.95 29.8698 304.954 29.8262L305.244 27.7268L303.784 26.6411C303.738 26.6008 303.709 26.5432 303.703 26.481C303.698 26.4188 303.716 26.357 303.755 26.3092C303.787 26.27 303.83 26.2424 303.879 26.2314L305.715 25.6962L306.389 23.949C306.436 23.829 306.568 23.7712 306.683 23.8201C306.73 23.8395 306.768 23.8742 306.794 23.9187L307.708 25.4069Z" fill="white"/>
<rect x="104" y="0.916748" width="230" height="49.7652" stroke="white"/>
<path d="M135.016 69.4539H130.12V83.4939L125.62 69.4539H120.616V98.1819H125.512V83.8539L130.048 98.1819H135.016V69.4539ZM150.313 69.4539H137.605V98.1819H142.861V86.1939H149.737V81.3699H142.861V74.3859H150.313V69.4539ZM164.879 93.3219H157.283V69.4539H152.027V98.1819H164.879V93.3219ZM181.472 91.2339L182.408 98.1819H187.736L183.452 69.4539H176.072L171.284 98.1819H176.54L177.548 91.2339H181.472ZM178.052 86.9859C178.052 86.9859 179.348 78.6339 179.348 78.4899C179.6 76.9419 179.672 74.1339 179.672 74.1339C179.672 74.1339 179.744 76.9779 179.924 78.4899C179.924 78.6339 181.004 86.9859 181.004 86.9859H178.052ZM193.855 96.7059V70.6419C193.855 69.9939 193.783 69.4899 193.747 69.4179H188.887C188.995 69.6699 188.995 70.5339 188.995 71.1459V96.8139C188.995 97.5339 189.067 98.0739 189.211 98.1819C189.211 98.2179 194.035 98.1819 194.035 98.1819C193.891 98.0739 193.855 97.6059 193.855 96.7059ZM200.719 96.7059V70.6419C200.719 69.9939 200.647 69.4899 200.611 69.4179H195.751C195.859 69.6699 195.859 70.5339 195.859 71.1459V96.8139C195.859 97.5339 195.931 98.0739 196.075 98.1819C196.075 98.2179 200.899 98.1819 200.899 98.1819C200.755 98.0739 200.719 97.6059 200.719 96.7059ZM223.507 83.2059C223.507 78.7059 223.327 73.7019 222.211 72.0819C220.951 70.2099 219.331 69.4539 216.271 69.4539H208.855V98.1819H216.919C219.871 98.1819 221.275 97.0659 222.211 95.4459C223.327 93.5379 223.507 89.1459 223.507 83.2059ZM216.343 94.0419H214.039V73.9179H216.127C217.171 73.9179 217.819 74.4219 218.107 75.6099C218.359 76.5819 218.467 81.7659 218.467 83.2059C218.467 84.6819 218.395 91.4139 218.143 92.5659C217.891 93.6099 217.279 94.0419 216.343 94.0419ZM237.731 94.6539C237.731 93.1779 237.767 90.7659 237.767 89.2179C237.803 87.3819 237.839 84.3939 237.767 82.6659C237.659 79.8939 235.931 78.1299 231.791 78.1299C227.399 78.1299 225.599 80.1099 225.599 83.8179V85.2939H230.063V84.1779C230.063 82.8099 230.495 82.1259 231.719 82.1259C232.619 82.1259 233.087 82.6299 233.123 83.4939C233.159 84.1059 233.159 85.3299 233.159 85.8699C232.367 85.8699 231.539 85.9779 230.639 86.1219C227.327 86.7339 225.095 88.5339 224.915 91.4139C224.843 92.4579 224.879 94.1499 224.915 94.5819C225.059 97.4619 227.255 98.3259 229.235 98.3259C230.999 98.3259 232.331 97.8579 233.231 96.7419C233.231 97.2459 233.339 98.1819 233.411 98.1819H237.983C237.803 97.9299 237.731 96.0939 237.731 94.6539ZM233.159 90.6219C233.087 91.6299 233.159 92.1339 232.979 93.1779C232.799 94.1859 231.935 94.5819 231.179 94.5819C230.459 94.5819 229.883 94.3299 229.775 93.6459C229.703 93.0699 229.703 92.3859 229.703 91.8459C229.703 91.0179 229.739 90.4419 230.351 89.9019C230.891 89.4339 231.503 89.3259 232.007 89.2179C232.439 89.1459 232.799 89.1459 233.159 89.1459C233.159 89.4339 233.195 90.2259 233.159 90.6219ZM248.239 78.3819C248.203 78.9939 245.899 90.6939 245.827 91.1259C245.791 90.7299 243.487 78.8859 243.415 78.3819H238.519L243.235 97.6419L241.615 104.05H246.547L253.027 78.3819H248.239ZM134.152 116.046C133.324 114.354 131.452 113.454 129.256 113.454H120.616V142.182H125.836V130.23H127.708L130.588 142.182H136.024L132.532 128.79C133.252 128.538 134.044 127.746 134.476 126.63C134.908 125.586 135.16 124.038 135.16 121.77C135.16 119.214 134.764 117.234 134.152 116.046ZM129.58 124.866C129.436 125.37 129.04 125.694 128.356 125.766C128.176 125.802 125.836 125.802 125.836 125.802V118.242H128.212C129.076 118.242 129.544 118.818 129.724 119.61C129.796 119.97 129.868 121.302 129.868 122.274C129.868 123.138 129.796 124.362 129.58 124.866ZM145.136 135.738C145.136 136.242 145.064 136.854 144.92 137.466C144.74 138.258 143.984 138.582 143.264 138.582C142.544 138.582 141.716 138.15 141.608 137.178C141.5 136.278 141.464 134.838 141.464 133.938H149.636C149.816 130.554 149.564 127.098 148.88 125.406C148.052 123.39 146.144 122.13 143.372 122.13C139.952 122.13 138.44 123.678 137.72 125.442C137.18 126.738 136.784 129.402 136.784 132.39C136.784 135.45 137.036 137.718 137.864 139.626C138.728 141.642 140.78 142.434 143.444 142.434C146.108 142.434 147.728 141.354 148.592 139.806C149.348 138.474 149.528 136.314 149.528 135.738H145.136ZM141.392 130.41C141.392 129.042 141.428 127.746 141.68 127.134C141.932 126.45 142.508 126.09 143.3 126.09C144.128 126.09 144.668 126.486 144.848 127.17C144.992 127.638 145.1 128.61 145.1 130.41H141.392ZM167.346 122.382L165.762 136.926L163.674 122.382H158.742L156.906 136.926L155.07 122.382H150.174L153.738 142.182H159.498C159.498 142.182 160.758 135.162 161.154 132.822C161.19 132.606 161.226 130.77 161.226 130.77C161.226 130.77 161.334 132.606 161.37 132.822C161.766 135.09 162.99 142.182 162.99 142.182H168.678L172.134 122.382H167.346ZM185.227 138.654C185.227 137.178 185.263 134.766 185.263 133.218C185.299 131.382 185.335 128.394 185.263 126.666C185.155 123.894 183.427 122.13 179.287 122.13C174.895 122.13 173.095 124.11 173.095 127.818V129.294H177.559V128.178C177.559 126.81 177.991 126.126 179.215 126.126C180.115 126.126 180.583 126.63 180.619 127.494C180.655 128.106 180.655 129.33 180.655 129.87C179.863 129.87 179.035 129.978 178.135 130.122C174.823 130.734 172.591 132.534 172.411 135.414C172.339 136.458 172.375 138.15 172.411 138.582C172.555 141.462 174.751 142.326 176.731 142.326C178.495 142.326 179.827 141.858 180.727 140.742C180.727 141.246 180.835 142.182 180.907 142.182H185.479C185.299 141.93 185.227 140.094 185.227 138.654ZM180.655 134.622C180.583 135.63 180.655 136.134 180.475 137.178C180.295 138.186 179.431 138.582 178.675 138.582C177.955 138.582 177.379 138.33 177.271 137.646C177.199 137.07 177.199 136.386 177.199 135.846C177.199 135.018 177.235 134.442 177.847 133.902C178.387 133.434 178.999 133.326 179.503 133.218C179.935 133.146 180.295 133.146 180.655 133.146C180.655 133.434 180.691 134.226 180.655 134.622ZM195.687 122.13C194.031 122.13 192.375 123.21 192.159 124.722V122.382H187.407V142.182H192.231V130.446C192.231 127.206 193.239 126.486 194.895 126.486C195.867 126.486 196.839 126.666 197.415 126.846V122.31C197.019 122.166 196.443 122.13 195.687 122.13ZM198.886 125.298C198.31 127.458 198.13 129.438 198.13 132.354C198.13 135.522 198.49 138.15 199.138 139.734C199.858 141.534 201.19 142.326 203.17 142.326C204.934 142.326 206.122 141.75 206.77 140.742L207.346 142.182H211.378C211.378 142.182 211.234 140.526 211.234 139.41V113.418H206.518V123.822C205.978 122.778 204.682 122.202 203.17 122.202C201.046 122.202 199.39 123.354 198.886 125.298ZM206.194 127.386C206.41 128.466 206.554 129.546 206.554 132.39C206.554 134.118 206.482 135.918 206.23 137.178C206.086 137.934 205.618 138.51 204.682 138.51C203.71 138.51 203.206 138.042 203.098 137.286C202.918 135.81 202.846 134.046 202.846 132.39C202.846 130.698 202.918 129.006 203.17 127.566C203.314 126.846 203.818 126.306 204.718 126.306C205.618 126.306 206.05 126.702 206.194 127.386Z" fill="white"/>
<rect x="104" y="0.916748" width="230" height="161.765" stroke="white"/>
</g>
<rect x="1" y="0.916748" width="333" height="161.765" rx="11.5" stroke="white"/>
<defs>
<clipPath id="clip0_2388_31322">
<rect x="0.5" y="0.416748" width="334" height="162.765" rx="12" fill="white"/>
</clipPath>
</defs>
</svg>
