<svg width="100%" height="auto" viewBox="0 0 335 163" fill="none" xmlns="http://www.w3.org/2000/svg">
<g clip-path="url(#clip0_2388_31323)">
<path d="M60.8 26.6445H52.16C51.28 28.5645 49.04 32.2445 40.8 32.8044V42.0044L49.6 41.6044V90.5645H60.8V26.6445Z" fill="white"/>
<path d="M38.1123 113.708V110.348H33.7023V111.93H36.4043C36.4043 111.93 36.4183 113.526 36.3903 113.666C36.2083 114.492 35.4663 115.122 34.2763 115.122C33.2963 115.122 32.6943 114.87 32.3163 114.324C31.8683 113.666 31.7423 112.7 31.7423 111.062C31.7423 109.452 31.9383 108.402 32.3303 107.8C32.7083 107.24 33.3103 107.002 34.1503 107.002C34.9343 107.002 35.4803 107.24 35.8023 107.716C36.0963 108.164 36.2643 108.822 36.2643 109.2H38.0563C38.0563 108.71 37.9163 107.744 37.5803 107.072C37.0763 106.078 36.0263 105.336 34.1083 105.336C32.2603 105.336 31.2243 106.106 30.6363 107.016C30.0203 107.982 29.8383 109.312 29.8383 111.034C29.8383 113.036 30.1463 114.324 30.6783 115.164C31.3223 116.172 32.4143 116.704 33.8843 116.704C35.3963 116.704 36.2083 116.172 36.5863 115.612L36.6703 116.564H38.1263C38.1263 116.522 38.1123 115.038 38.1123 113.708ZM46.8892 113.876L47.6592 116.564H49.5632L46.2872 105.476H43.9352L40.4352 116.564H42.3112L43.1232 113.876H46.8892ZM43.6272 112.28C43.6272 112.28 44.8452 108.262 44.8592 108.192C44.8872 108.08 45.0692 107.198 45.0692 107.198C45.0692 107.198 45.2512 108.08 45.2792 108.192C45.3072 108.276 46.4132 112.28 46.4132 112.28H43.6272ZM62.0557 105.476H59.6617L57.1697 113.722L54.7197 105.476H52.1857V116.564H53.9077V108.962L56.1897 116.564H57.9957L60.3197 108.934V116.564H62.0557V105.476ZM72.4428 114.884H67.3888V111.846H72.1628V110.152H67.3888V107.156H72.3868V105.476H65.5688V116.564H72.4428V114.884ZM27.3392 130.39C27.0312 130.278 26.3732 130.026 25.9812 129.9C24.6232 129.452 23.9512 129.018 23.9512 128.15C23.9512 127.408 24.4552 126.96 25.8692 126.96C27.0732 126.96 27.6332 127.296 27.8712 127.982C27.9552 128.234 27.9972 128.444 27.9972 128.682H29.8732C29.8732 128.262 29.8032 127.926 29.7052 127.59C29.3132 126.218 28.1932 125.35 25.9112 125.35C23.2932 125.35 22.0612 126.498 22.0612 128.206C22.0612 129.844 23.1392 130.824 24.8052 131.37C25.2672 131.524 25.9252 131.776 26.2052 131.874C27.6892 132.392 28.1372 132.84 28.1372 133.778C28.1372 134.618 27.5352 135.122 26.1212 135.122C24.9172 135.122 24.2172 134.814 24.0072 134.156C23.9232 133.89 23.8812 133.512 23.8812 133.316H22.0192C22.0192 133.638 22.0472 134.156 22.1452 134.534C22.4812 135.836 23.6012 136.704 26.1632 136.704C28.7532 136.704 30.0272 135.472 30.0272 133.624C30.0272 131.902 29.0752 130.992 27.3392 130.39ZM39.9652 125.476H32.1112V127.142H35.0932V136.564H36.9692V127.142H39.9652V125.476ZM49.8119 126.708C49.4199 125.924 48.6779 125.476 47.4599 125.476H42.6299V136.564H44.4499V131.944H46.8579L48.7899 136.564H50.8199L48.6359 131.538C49.1259 131.44 49.5739 131.09 49.8539 130.558C50.0639 130.138 50.1759 129.522 50.1759 128.682C50.1759 127.786 50.0919 127.24 49.8119 126.708ZM48.1879 129.872C48.0479 130.18 47.6979 130.348 47.2079 130.362H44.4639V127.128H47.0679C47.6979 127.128 48.0899 127.352 48.2439 127.772C48.3139 127.954 48.3419 128.444 48.3419 128.85C48.3419 129.186 48.2859 129.634 48.1879 129.872ZM60.5081 134.884H55.4541V131.846H60.2281V130.152H55.4541V127.156H60.4521V125.476H53.6341V136.564H60.5081V134.884ZM69.1703 133.876L69.9403 136.564H71.8443L68.5683 125.476H66.2163L62.7163 136.564H64.5923L65.4043 133.876H69.1703ZM65.9083 132.28C65.9083 132.28 67.1263 128.262 67.1403 128.192C67.1683 128.08 67.3503 127.198 67.3503 127.198C67.3503 127.198 67.5323 128.08 67.5603 128.192C67.5883 128.276 68.6943 132.28 68.6943 132.28H65.9083ZM78.4008 130.264L82.3908 125.476H80.3188L76.3148 130.194V125.476H74.4668V136.564H76.3148V132.602L77.1268 131.65L80.2908 136.564H82.4748L78.4008 130.264Z" fill="white"/>
<path d="M122.412 30.5645H123.77V20.5265H122.72C122.538 21.9825 121.362 22.4585 120.102 22.4865V23.3825H122.412V30.5645ZM132.803 33.1965C133.811 33.1965 134.651 32.9725 135.239 32.4825C135.813 31.9925 136.149 31.2505 136.149 30.2565V23.0465H134.861V24.0405H134.833C134.357 23.2845 133.629 22.8645 132.551 22.8645C130.787 22.8645 129.331 24.2365 129.331 26.5465C129.331 28.7305 130.703 30.2285 132.621 30.2285C133.685 30.2285 134.343 29.7665 134.861 29.0245H134.889C134.875 29.2625 134.861 29.6685 134.861 30.1025V30.3125C134.861 31.5865 134.119 32.1885 132.775 32.1885C131.655 32.1885 130.899 31.8665 130.787 31.0825H129.569C129.709 32.4125 130.829 33.1965 132.803 33.1965ZM132.747 29.1645C131.389 29.1645 130.661 28.1565 130.661 26.5605C130.661 24.9785 131.361 23.9425 132.733 23.9425C134.231 23.9425 134.945 24.9085 134.945 26.4905C134.945 28.0165 134.385 29.1645 132.747 29.1645ZM140.191 30.7185C141.465 30.7185 142.235 30.1165 142.711 29.4585H142.725C142.865 30.2565 143.257 30.6345 144.055 30.6345C144.363 30.6345 144.573 30.5785 144.755 30.5225V29.6125H144.699C144.041 29.7525 143.901 29.4305 143.901 28.8285V25.3145C143.901 24.3065 143.523 23.6485 142.893 23.2705C142.417 22.9905 141.787 22.8645 141.073 22.8645C139.043 22.8645 138.077 23.9985 138.021 25.2725H139.281C139.323 24.3765 139.897 23.8165 141.087 23.8165C142.123 23.8165 142.697 24.3205 142.697 25.1325C142.697 25.9025 141.983 26.0845 140.877 26.2105C138.931 26.4485 137.643 26.8265 137.643 28.5765C137.643 30.0185 138.763 30.7185 140.191 30.7185ZM140.513 29.7665C139.757 29.7665 139.015 29.5285 139.015 28.5625C139.015 27.5265 139.827 27.3025 141.059 27.0925C141.675 26.9805 142.333 26.7985 142.711 26.5605V27.7925C142.711 28.6605 142.011 29.7665 140.513 29.7665ZM145.812 30.5645H147.114V25.9305C147.114 24.7825 148.08 23.9565 148.976 23.9565C149.746 23.9565 150.264 24.5025 150.264 25.4265V30.5645H151.552V25.9305C151.552 24.7825 152.378 23.9565 153.33 23.9565C154.086 23.9565 154.688 24.5025 154.688 25.4265V30.5645H155.99V25.3145C155.99 23.7465 155.038 22.8645 153.666 22.8645C152.756 22.8645 151.874 23.3265 151.342 24.2645H151.314C151.006 23.3405 150.278 22.8645 149.368 22.8645C148.402 22.8645 147.604 23.3545 147.142 24.1665H147.1V23.0465H145.812V30.5645ZM160.996 30.7745C162.732 30.7745 163.936 29.8225 164.272 28.4225H162.998C162.76 29.2205 162.046 29.7105 161.01 29.7105C159.554 29.7105 158.756 28.5905 158.658 27.1205H164.426C164.426 25.8465 164.118 24.7685 163.502 24.0265C162.914 23.2985 162.046 22.8645 160.926 22.8645C158.77 22.8645 157.328 24.6285 157.328 26.8125C157.328 29.0105 158.686 30.7745 160.996 30.7745ZM160.926 23.8725C162.228 23.8725 162.97 24.7405 163.04 26.1825H158.686C158.854 24.8525 159.568 23.8725 160.926 23.8725ZM171.157 30.5645H172.473L173.607 26.4205C173.789 25.7065 174.069 24.3205 174.069 24.3205H174.097C174.097 24.3205 174.391 25.6925 174.573 26.4205L175.679 30.5645H176.981L179.431 23.0465H178.087L176.841 27.2185C176.561 28.1425 176.351 29.4305 176.351 29.4305H176.323C176.323 29.4305 176.057 28.0445 175.847 27.2465L174.727 23.0465H173.495L172.361 27.2465C172.109 28.1565 171.857 29.4165 171.857 29.4165H171.829C171.829 29.4165 171.577 28.0725 171.339 27.2185L170.163 23.0465H168.777L171.157 30.5645ZM180.442 21.6605H181.8V20.1485H180.442V21.6605ZM180.47 30.5645H181.772V23.0465H180.47V30.5645ZM184.848 23.0465H183.56V30.5645H184.862V25.9865C184.862 24.7825 185.702 23.9565 186.864 23.9565C187.886 23.9565 188.516 24.5025 188.516 25.4685V30.5645H189.804V25.3145C189.804 23.7465 188.838 22.8645 187.27 22.8645C186.178 22.8645 185.436 23.3545 184.89 24.1105H184.848V23.0465ZM198.161 30.7885C199.925 30.7885 201.185 30.0045 201.185 28.4785C201.185 26.7285 199.897 26.3925 198.399 26.0985C197.125 25.8465 196.397 25.6925 196.397 24.9085C196.397 24.3345 196.831 23.8585 197.853 23.8585C198.931 23.8585 199.463 24.2925 199.575 25.0625H200.877C200.709 23.7605 199.771 22.8785 197.881 22.8785C196.131 22.8785 195.123 23.6905 195.123 24.9785C195.123 26.6305 196.453 26.9385 197.923 27.2465C199.253 27.5125 199.883 27.7225 199.883 28.5485C199.883 29.2205 199.379 29.7385 198.189 29.7385C197.111 29.7385 196.271 29.3745 196.117 28.2825H194.801C194.913 29.8085 196.089 30.7885 198.161 30.7885ZM201.993 24.0545H203.169V29.0945C203.169 30.2005 203.869 30.6065 204.877 30.6205C205.213 30.6205 205.577 30.5785 205.927 30.4945V29.4025H205.885C205.745 29.4445 205.451 29.5005 205.227 29.5005C204.751 29.5005 204.457 29.3465 204.457 28.8005V24.0545H206.011V23.0465H204.457V20.6805H203.169V23.0465H201.993V24.0545ZM208.651 23.0465H207.363V30.5645H208.665V26.4765C208.665 25.0625 209.659 24.1945 210.821 24.1945C211.045 24.1945 211.171 24.2085 211.353 24.2645H211.395V23.0325C211.255 22.9765 211.129 22.9485 210.919 22.9485C209.925 22.9485 209.155 23.5365 208.693 24.4045H208.651V23.0465ZM215.656 30.7745C217.392 30.7745 218.596 29.8225 218.932 28.4225H217.658C217.42 29.2205 216.706 29.7105 215.67 29.7105C214.214 29.7105 213.416 28.5905 213.318 27.1205H219.086C219.086 25.8465 218.778 24.7685 218.162 24.0265C217.574 23.2985 216.706 22.8645 215.586 22.8645C213.43 22.8645 211.988 24.6285 211.988 26.8125C211.988 29.0105 213.346 30.7745 215.656 30.7745ZM215.586 23.8725C216.888 23.8725 217.63 24.7405 217.7 26.1825H213.346C213.514 24.8525 214.228 23.8725 215.586 23.8725ZM222.714 30.7185C223.988 30.7185 224.758 30.1165 225.234 29.4585H225.248C225.388 30.2565 225.78 30.6345 226.578 30.6345C226.886 30.6345 227.096 30.5785 227.278 30.5225V29.6125H227.222C226.564 29.7525 226.424 29.4305 226.424 28.8285V25.3145C226.424 24.3065 226.046 23.6485 225.416 23.2705C224.94 22.9905 224.31 22.8645 223.596 22.8645C221.566 22.8645 220.6 23.9985 220.544 25.2725H221.804C221.846 24.3765 222.42 23.8165 223.61 23.8165C224.646 23.8165 225.22 24.3205 225.22 25.1325C225.22 25.9025 224.506 26.0845 223.4 26.2105C221.454 26.4485 220.166 26.8265 220.166 28.5765C220.166 30.0185 221.286 30.7185 222.714 30.7185ZM223.036 29.7665C222.28 29.7665 221.538 29.5285 221.538 28.5625C221.538 27.5265 222.35 27.3025 223.582 27.0925C224.198 26.9805 224.856 26.7985 225.234 26.5605V27.7925C225.234 28.6605 224.534 29.7665 223.036 29.7665ZM233.277 30.5645H234.803L231.597 25.7485L234.467 23.0465H232.843L229.581 26.2525C229.609 25.8885 229.637 25.3565 229.637 25.0905V20.1485H228.335V30.5645H229.637V27.6105L230.701 26.6025L233.277 30.5645ZM239.642 33.1125H240.944V30.8305C240.944 30.2565 240.93 29.8365 240.916 29.5705H240.958C241.476 30.3685 242.302 30.7885 243.324 30.7885C245.354 30.7885 246.6 29.2345 246.6 26.8265C246.6 24.3485 245.284 22.8645 243.366 22.8645C242.288 22.8645 241.532 23.3685 240.972 24.2225H240.93V23.0465H239.642V33.1125ZM243.184 29.7105C241.518 29.7105 240.874 28.4365 240.874 26.8545C240.874 25.2585 241.602 23.9705 243.198 23.9705C244.584 23.9705 245.27 25.2025 245.27 26.8545C245.27 28.4925 244.57 29.7105 243.184 29.7105ZM249.27 23.0465H247.982V30.5645H249.284V26.4765C249.284 25.0625 250.278 24.1945 251.44 24.1945C251.664 24.1945 251.79 24.2085 251.972 24.2645H252.014V23.0325C251.874 22.9765 251.748 22.9485 251.538 22.9485C250.544 22.9485 249.774 23.5365 249.312 24.4045H249.27V23.0465ZM253.259 21.6605H254.617V20.1485H253.259V21.6605ZM253.287 30.5645H254.589V23.0465H253.287V30.5645ZM256.096 30.5645H262.158V29.4165H259.12C258.574 29.4165 257.622 29.4585 257.622 29.4585V29.4165C257.622 29.4165 258.252 28.7305 258.574 28.3245L261.99 23.8585V23.0465H256.348V24.1525H258.938C259.456 24.1525 260.352 24.1105 260.352 24.1105V24.1525C260.352 24.1525 259.764 24.7825 259.456 25.1745L256.096 29.5565V30.5645ZM266.529 30.7745C268.265 30.7745 269.469 29.8225 269.805 28.4225H268.531C268.293 29.2205 267.579 29.7105 266.543 29.7105C265.087 29.7105 264.289 28.5905 264.191 27.1205H269.959C269.959 25.8465 269.651 24.7685 269.035 24.0265C268.447 23.2985 267.579 22.8645 266.459 22.8645C264.303 22.8645 262.861 24.6285 262.861 26.8125C262.861 29.0105 264.219 30.7745 266.529 30.7745ZM266.459 23.8725C267.761 23.8725 268.503 24.7405 268.573 26.1825H264.219C264.387 24.8525 265.101 23.8725 266.459 23.8725Z" fill="white"/>
<path fill-rule="evenodd" clip-rule="evenodd" d="M301.731 36.4584L312.511 34.5566C313.128 34.4449 313.595 34.2085 313.91 33.8472C314.219 33.4924 314.373 33.0129 314.373 32.4085V18.8402C314.373 18.3738 314.274 17.9797 314.077 17.6578C313.88 17.3359 313.604 17.1093 313.25 16.9779C312.895 16.84 312.478 16.8137 311.998 16.8991L301.534 18.7417C300.575 18.9125 299.852 19.2114 299.366 19.6384C298.873 20.0588 298.627 20.7518 298.627 21.7175V33.6107C298.627 34.3136 298.752 34.8949 299.002 35.3548C299.251 35.8212 299.609 36.1496 300.076 36.3401C300.535 36.5306 301.087 36.57 301.731 36.4584ZM311.831 20.6927V22.7718C311.831 22.9754 311.765 23.1298 311.634 23.2349C311.502 23.34 311.351 23.3958 311.18 23.4024C311.01 23.4024 310.862 23.3564 310.737 23.2645C310.606 23.1659 310.54 23.0181 310.54 22.8211V21.5007C310.54 21.2313 310.386 21.1197 310.077 21.1657L308.776 21.4021C308.566 21.435 308.402 21.3989 308.284 21.2938C308.159 21.1821 308.083 21.0441 308.057 20.8799C308.024 20.7157 308.047 20.5613 308.126 20.4168C308.198 20.2723 308.326 20.1836 308.51 20.1507L310.629 19.7763C311.003 19.7106 311.299 19.7566 311.516 19.9143C311.726 20.0719 311.831 20.3314 311.831 20.6927ZM302.539 23.1265V24.3779C302.539 24.5816 302.477 24.7392 302.352 24.8509C302.22 24.9626 302.069 25.0217 301.898 25.0282C301.728 25.0348 301.577 24.9855 301.445 24.8804C301.314 24.7688 301.248 24.6013 301.248 24.3779V22.7324C301.248 22.2725 301.37 21.9211 301.613 21.678C301.849 21.4284 302.24 21.2543 302.785 21.1558L303.81 20.9784C304.033 20.939 304.214 20.9719 304.352 21.077C304.483 21.1821 304.562 21.32 304.588 21.4908C304.615 21.6551 304.585 21.8094 304.5 21.9539C304.408 22.0985 304.25 22.1904 304.027 22.2298L303.209 22.3776C302.92 22.4302 302.736 22.532 302.657 22.6831C302.578 22.8276 302.539 22.9754 302.539 23.1265ZM310.54 30.2999V29.0485C310.54 28.8448 310.606 28.6872 310.737 28.5755C310.862 28.4638 311.01 28.4047 311.18 28.3982C311.351 28.3916 311.502 28.4441 311.634 28.5558C311.765 28.6609 311.831 28.8251 311.831 29.0485V30.694C311.831 31.1539 311.713 31.5086 311.476 31.7582C311.233 32.0013 310.839 32.1721 310.294 32.2706L309.269 32.448C309.046 32.4874 308.868 32.4545 308.737 32.3494C308.599 32.2378 308.517 32.0998 308.49 31.9356C308.458 31.7714 308.487 31.617 308.579 31.4725C308.671 31.3214 308.829 31.2294 309.052 31.1966L309.87 31.0488C310.159 30.9962 310.343 30.8944 310.422 30.7433C310.501 30.5922 310.54 30.4444 310.54 30.2999ZM301.248 32.7337V30.6546C301.248 30.4444 301.314 30.29 301.445 30.1915C301.577 30.0864 301.728 30.0338 301.898 30.0338C302.069 30.0273 302.22 30.0733 302.352 30.1718C302.477 30.2638 302.539 30.4083 302.539 30.6053V31.9257C302.539 32.1951 302.693 32.3067 303.002 32.2607L304.303 32.0243C304.513 31.9914 304.68 32.0308 304.805 32.1425C304.923 32.2476 304.999 32.3823 305.032 32.5465C305.058 32.7107 305.035 32.8651 304.963 33.0096C304.884 33.1541 304.749 33.2428 304.559 33.2757L302.45 33.6501C302.076 33.7158 301.783 33.6698 301.573 33.5121C301.357 33.3545 301.248 33.095 301.248 32.7337ZM307.708 25.1721L309.193 24.9202C309.317 24.93 309.412 25.0423 309.403 25.1721C309.4 25.2239 309.38 25.2726 309.347 25.3112L308.411 26.9674L308.999 28.6947C309.03 28.8207 308.956 28.9478 308.835 28.979C308.787 28.9915 308.736 28.9872 308.69 28.9663L307.018 28.5747L305.3 29.8139C305.244 29.8495 305.223 29.8495 305.181 29.8495H305.18C305.138 29.8495 305.097 29.8373 305.061 29.8141C305.025 29.7909 304.996 29.7578 304.977 29.7184C304.958 29.679 304.95 29.635 304.954 29.5913L305.244 27.4919L303.784 26.4062C303.738 26.3659 303.709 26.3084 303.703 26.2461C303.698 26.1839 303.716 26.1221 303.755 26.0744C303.787 26.0351 303.83 26.0075 303.879 25.9965L305.715 25.4613L306.389 23.7142C306.436 23.5942 306.568 23.5364 306.683 23.5852C306.73 23.6046 306.768 23.6393 306.794 23.6839L307.708 25.1721Z" fill="white"/>
<rect x="104" y="0.681885" width="230" height="49.7652" stroke="white"/>
<path d="M135.016 69.219H130.12V83.259L125.62 69.219H120.616V97.947H125.512V83.619L130.048 97.947H135.016V69.219ZM150.313 69.219H137.605V97.947H142.861V85.959H149.737V81.135H142.861V74.151H150.313V69.219ZM164.879 93.087H157.283V69.219H152.027V97.947H164.879V93.087ZM181.472 90.999L182.408 97.947H187.736L183.452 69.219H176.072L171.284 97.947H176.54L177.548 90.999H181.472ZM178.052 86.751C178.052 86.751 179.348 78.399 179.348 78.255C179.6 76.707 179.672 73.899 179.672 73.899C179.672 73.899 179.744 76.743 179.924 78.255C179.924 78.399 181.004 86.751 181.004 86.751H178.052ZM193.855 96.471V70.407C193.855 69.759 193.783 69.255 193.747 69.183H188.887C188.995 69.435 188.995 70.299 188.995 70.911V96.579C188.995 97.299 189.067 97.839 189.211 97.947C189.211 97.983 194.035 97.947 194.035 97.947C193.891 97.839 193.855 97.371 193.855 96.471ZM200.719 96.471V70.407C200.719 69.759 200.647 69.255 200.611 69.183H195.751C195.859 69.435 195.859 70.299 195.859 70.911V96.579C195.859 97.299 195.931 97.839 196.075 97.947C196.075 97.983 200.899 97.947 200.899 97.947C200.755 97.839 200.719 97.371 200.719 96.471ZM223.507 82.971C223.507 78.471 223.327 73.467 222.211 71.847C220.951 69.975 219.331 69.219 216.271 69.219H208.855V97.947H216.919C219.871 97.947 221.275 96.831 222.211 95.211C223.327 93.303 223.507 88.911 223.507 82.971ZM216.343 93.807H214.039V73.683H216.127C217.171 73.683 217.819 74.187 218.107 75.375C218.359 76.347 218.467 81.531 218.467 82.971C218.467 84.447 218.395 91.179 218.143 92.331C217.891 93.375 217.279 93.807 216.343 93.807ZM237.731 94.419C237.731 92.943 237.767 90.531 237.767 88.983C237.803 87.147 237.839 84.159 237.767 82.431C237.659 79.659 235.931 77.895 231.791 77.895C227.399 77.895 225.599 79.875 225.599 83.583V85.059H230.063V83.943C230.063 82.575 230.495 81.891 231.719 81.891C232.619 81.891 233.087 82.395 233.123 83.259C233.159 83.871 233.159 85.095 233.159 85.635C232.367 85.635 231.539 85.743 230.639 85.887C227.327 86.499 225.095 88.299 224.915 91.179C224.843 92.223 224.879 93.915 224.915 94.347C225.059 97.227 227.255 98.091 229.235 98.091C230.999 98.091 232.331 97.623 233.231 96.507C233.231 97.011 233.339 97.947 233.411 97.947H237.983C237.803 97.695 237.731 95.859 237.731 94.419ZM233.159 90.387C233.087 91.395 233.159 91.899 232.979 92.943C232.799 93.951 231.935 94.347 231.179 94.347C230.459 94.347 229.883 94.095 229.775 93.411C229.703 92.835 229.703 92.151 229.703 91.611C229.703 90.783 229.739 90.207 230.351 89.667C230.891 89.199 231.503 89.091 232.007 88.983C232.439 88.911 232.799 88.911 233.159 88.911C233.159 89.199 233.195 89.991 233.159 90.387ZM248.239 78.147C248.203 78.759 245.899 90.459 245.827 90.891C245.791 90.495 243.487 78.651 243.415 78.147H238.519L243.235 97.407L241.615 103.815H246.547L253.027 78.147H248.239ZM134.152 115.811C133.324 114.119 131.452 113.219 129.256 113.219H120.616V141.947H125.836V129.995H127.708L130.588 141.947H136.024L132.532 128.555C133.252 128.303 134.044 127.511 134.476 126.395C134.908 125.351 135.16 123.803 135.16 121.535C135.16 118.979 134.764 116.999 134.152 115.811ZM129.58 124.631C129.436 125.135 129.04 125.459 128.356 125.531C128.176 125.567 125.836 125.567 125.836 125.567V118.007H128.212C129.076 118.007 129.544 118.583 129.724 119.375C129.796 119.735 129.868 121.067 129.868 122.039C129.868 122.903 129.796 124.127 129.58 124.631ZM145.136 135.503C145.136 136.007 145.064 136.619 144.92 137.231C144.74 138.023 143.984 138.347 143.264 138.347C142.544 138.347 141.716 137.915 141.608 136.943C141.5 136.043 141.464 134.603 141.464 133.703H149.636C149.816 130.319 149.564 126.863 148.88 125.171C148.052 123.155 146.144 121.895 143.372 121.895C139.952 121.895 138.44 123.443 137.72 125.207C137.18 126.503 136.784 129.167 136.784 132.155C136.784 135.215 137.036 137.483 137.864 139.391C138.728 141.407 140.78 142.199 143.444 142.199C146.108 142.199 147.728 141.119 148.592 139.571C149.348 138.239 149.528 136.079 149.528 135.503H145.136ZM141.392 130.175C141.392 128.807 141.428 127.511 141.68 126.899C141.932 126.215 142.508 125.855 143.3 125.855C144.128 125.855 144.668 126.251 144.848 126.935C144.992 127.403 145.1 128.375 145.1 130.175H141.392ZM167.346 122.147L165.762 136.691L163.674 122.147H158.742L156.906 136.691L155.07 122.147H150.174L153.738 141.947H159.498C159.498 141.947 160.758 134.927 161.154 132.587C161.19 132.371 161.226 130.535 161.226 130.535C161.226 130.535 161.334 132.371 161.37 132.587C161.766 134.855 162.99 141.947 162.99 141.947H168.678L172.134 122.147H167.346ZM185.227 138.419C185.227 136.943 185.263 134.531 185.263 132.983C185.299 131.147 185.335 128.159 185.263 126.431C185.155 123.659 183.427 121.895 179.287 121.895C174.895 121.895 173.095 123.875 173.095 127.583V129.059H177.559V127.943C177.559 126.575 177.991 125.891 179.215 125.891C180.115 125.891 180.583 126.395 180.619 127.259C180.655 127.871 180.655 129.095 180.655 129.635C179.863 129.635 179.035 129.743 178.135 129.887C174.823 130.499 172.591 132.299 172.411 135.179C172.339 136.223 172.375 137.915 172.411 138.347C172.555 141.227 174.751 142.091 176.731 142.091C178.495 142.091 179.827 141.623 180.727 140.507C180.727 141.011 180.835 141.947 180.907 141.947H185.479C185.299 141.695 185.227 139.859 185.227 138.419ZM180.655 134.387C180.583 135.395 180.655 135.899 180.475 136.943C180.295 137.951 179.431 138.347 178.675 138.347C177.955 138.347 177.379 138.095 177.271 137.411C177.199 136.835 177.199 136.151 177.199 135.611C177.199 134.783 177.235 134.207 177.847 133.667C178.387 133.199 178.999 133.091 179.503 132.983C179.935 132.911 180.295 132.911 180.655 132.911C180.655 133.199 180.691 133.991 180.655 134.387ZM195.687 121.895C194.031 121.895 192.375 122.975 192.159 124.487V122.147H187.407V141.947H192.231V130.211C192.231 126.971 193.239 126.251 194.895 126.251C195.867 126.251 196.839 126.431 197.415 126.611V122.075C197.019 121.931 196.443 121.895 195.687 121.895ZM198.886 125.063C198.31 127.223 198.13 129.203 198.13 132.119C198.13 135.287 198.49 137.915 199.138 139.499C199.858 141.299 201.19 142.091 203.17 142.091C204.934 142.091 206.122 141.515 206.77 140.507L207.346 141.947H211.378C211.378 141.947 211.234 140.291 211.234 139.175V113.183H206.518V123.587C205.978 122.543 204.682 121.967 203.17 121.967C201.046 121.967 199.39 123.119 198.886 125.063ZM206.194 127.151C206.41 128.231 206.554 129.311 206.554 132.155C206.554 133.883 206.482 135.683 206.23 136.943C206.086 137.699 205.618 138.275 204.682 138.275C203.71 138.275 203.206 137.807 203.098 137.051C202.918 135.575 202.846 133.811 202.846 132.155C202.846 130.463 202.918 128.771 203.17 127.331C203.314 126.611 203.818 126.071 204.718 126.071C205.618 126.071 206.05 126.467 206.194 127.151Z" fill="white"/>
<rect x="104" y="0.681885" width="230" height="161.765" stroke="white"/>
</g>
<rect x="1" y="0.681885" width="333" height="161.765" rx="11.5" stroke="white"/>
<defs>
<clipPath id="clip0_2388_31323">
<rect x="0.5" y="0.181885" width="334" height="162.765" rx="12" fill="white"/>
</clipPath>
</defs>
</svg>
