<svg width="100%" height="auto" viewBox="0 0 335 164" fill="none" xmlns="http://www.w3.org/2000/svg">
<g clip-path="url(#clip0_2388_31316)">
<path d="M67.38 64.7336C66.82 60.3336 63.54 56.8936 60.1 56.2536C63.38 55.2936 65.7 51.8536 66.1 47.7736C66.34 45.2136 66.5 40.4936 66.18 36.9736C65.7 31.7736 61.7 26.4936 51.46 26.4936C41.06 26.4936 37.62 31.5336 36.98 36.9736C36.74 39.1336 36.9 46.4136 37.06 48.0936C37.46 52.8136 40.02 55.5336 42.66 56.1736C40.26 56.8936 36.74 59.2936 36.02 64.2536C35.38 68.4936 35.38 76.8136 35.7 79.3736C36.66 87.4536 40.5 91.6136 51.46 91.6136C61.46 91.6136 66.98 87.1336 67.46 79.3736C67.7 75.4536 67.78 68.1736 67.38 64.7336ZM51.46 52.0936C49.7 52.0936 48.58 51.6136 48.1 49.2936C47.86 48.0936 47.86 40.0136 48.02 39.0536C48.34 36.9736 49.86 36.0936 51.46 36.0936C53.22 36.0936 54.58 36.8936 54.98 39.0536C55.22 40.0936 55.22 46.7336 54.98 49.3736C54.82 51.4536 53.3 52.0936 51.46 52.0936ZM51.46 82.0936C49.22 82.0936 47.62 80.7336 47.3 78.4936C46.98 76.3336 46.98 67.2136 47.3 65.0536C47.62 62.4936 49.38 61.5336 51.46 61.5336C53.7 61.5336 55.3 62.4936 55.7 64.9736C56.02 67.2136 56.02 75.7736 55.7 78.5736C55.38 80.8136 53.78 82.0936 51.46 82.0936Z" fill="white"/>
<path d="M38.1123 114.118V110.758H33.7023V112.34H36.4043C36.4043 112.34 36.4183 113.936 36.3903 114.076C36.2083 114.902 35.4663 115.532 34.2763 115.532C33.2963 115.532 32.6943 115.28 32.3163 114.734C31.8683 114.076 31.7423 113.11 31.7423 111.472C31.7423 109.862 31.9383 108.812 32.3303 108.21C32.7083 107.65 33.3103 107.412 34.1503 107.412C34.9343 107.412 35.4803 107.65 35.8023 108.126C36.0963 108.574 36.2643 109.232 36.2643 109.61H38.0563C38.0563 109.12 37.9163 108.154 37.5803 107.482C37.0763 106.488 36.0263 105.746 34.1083 105.746C32.2603 105.746 31.2243 106.516 30.6363 107.426C30.0203 108.392 29.8383 109.722 29.8383 111.444C29.8383 113.446 30.1463 114.734 30.6783 115.574C31.3223 116.582 32.4143 117.114 33.8843 117.114C35.3963 117.114 36.2083 116.582 36.5863 116.022L36.6703 116.974H38.1263C38.1263 116.932 38.1123 115.448 38.1123 114.118ZM46.8892 114.286L47.6592 116.974H49.5632L46.2872 105.886H43.9352L40.4352 116.974H42.3112L43.1232 114.286H46.8892ZM43.6272 112.69C43.6272 112.69 44.8452 108.672 44.8592 108.602C44.8872 108.49 45.0692 107.608 45.0692 107.608C45.0692 107.608 45.2512 108.49 45.2792 108.602C45.3072 108.686 46.4132 112.69 46.4132 112.69H43.6272ZM62.0557 105.886H59.6617L57.1697 114.132L54.7197 105.886H52.1857V116.974H53.9077V109.372L56.1897 116.974H57.9957L60.3197 109.344V116.974H62.0557V105.886ZM72.4428 115.294H67.3888V112.256H72.1628V110.562H67.3888V107.566H72.3868V105.886H65.5688V116.974H72.4428V115.294ZM27.3392 130.8C27.0312 130.688 26.3732 130.436 25.9812 130.31C24.6232 129.862 23.9512 129.428 23.9512 128.56C23.9512 127.818 24.4552 127.37 25.8692 127.37C27.0732 127.37 27.6332 127.706 27.8712 128.392C27.9552 128.644 27.9972 128.854 27.9972 129.092H29.8732C29.8732 128.672 29.8032 128.336 29.7052 128C29.3132 126.628 28.1932 125.76 25.9112 125.76C23.2932 125.76 22.0612 126.908 22.0612 128.616C22.0612 130.254 23.1392 131.234 24.8052 131.78C25.2672 131.934 25.9252 132.186 26.2052 132.284C27.6892 132.802 28.1372 133.25 28.1372 134.188C28.1372 135.028 27.5352 135.532 26.1212 135.532C24.9172 135.532 24.2172 135.224 24.0072 134.566C23.9232 134.3 23.8812 133.922 23.8812 133.726H22.0192C22.0192 134.048 22.0472 134.566 22.1452 134.944C22.4812 136.246 23.6012 137.114 26.1632 137.114C28.7532 137.114 30.0272 135.882 30.0272 134.034C30.0272 132.312 29.0752 131.402 27.3392 130.8ZM39.9652 125.886H32.1112V127.552H35.0932V136.974H36.9692V127.552H39.9652V125.886ZM49.8119 127.118C49.4199 126.334 48.6779 125.886 47.4599 125.886H42.6299V136.974H44.4499V132.354H46.8579L48.7899 136.974H50.8199L48.6359 131.948C49.1259 131.85 49.5739 131.5 49.8539 130.968C50.0639 130.548 50.1759 129.932 50.1759 129.092C50.1759 128.196 50.0919 127.65 49.8119 127.118ZM48.1879 130.282C48.0479 130.59 47.6979 130.758 47.2079 130.772H44.4639V127.538H47.0679C47.6979 127.538 48.0899 127.762 48.2439 128.182C48.3139 128.364 48.3419 128.854 48.3419 129.26C48.3419 129.596 48.2859 130.044 48.1879 130.282ZM60.5081 135.294H55.4541V132.256H60.2281V130.562H55.4541V127.566H60.4521V125.886H53.6341V136.974H60.5081V135.294ZM69.1703 134.286L69.9403 136.974H71.8443L68.5683 125.886H66.2163L62.7163 136.974H64.5923L65.4043 134.286H69.1703ZM65.9083 132.69C65.9083 132.69 67.1263 128.672 67.1403 128.602C67.1683 128.49 67.3503 127.608 67.3503 127.608C67.3503 127.608 67.5323 128.49 67.5603 128.602C67.5883 128.686 68.6943 132.69 68.6943 132.69H65.9083ZM78.4008 130.674L82.3908 125.886H80.3188L76.3148 130.604V125.886H74.4668V136.974H76.3148V133.012L77.1268 132.06L80.2908 136.974H82.4748L78.4008 130.674Z" fill="white"/>
<path d="M123.938 31.1976C125.842 31.1976 127.704 30.3436 127.704 28.1176C127.704 26.7736 126.836 25.8496 125.562 25.5276V25.4856C126.626 25.1496 127.228 24.3936 127.228 23.3716C127.228 21.7756 125.786 20.7536 123.896 20.7536C122.02 20.7536 120.578 21.7896 120.578 23.3856C120.578 24.4076 121.18 25.1636 122.258 25.4856V25.5276C120.984 25.8776 120.074 26.7036 120.074 28.1176C120.074 30.3296 122.034 31.1976 123.938 31.1976ZM123.896 25.0236C122.65 25.0236 121.88 24.4216 121.88 23.4276C121.88 22.4336 122.65 21.8456 123.896 21.8456C125.142 21.8456 125.912 22.4336 125.912 23.4276C125.912 24.4216 125.142 25.0236 123.896 25.0236ZM123.938 30.0916C122.384 30.0916 121.46 29.3636 121.46 28.1036C121.46 26.8436 122.37 26.0456 123.896 26.0456C125.436 26.0456 126.36 26.8436 126.36 28.1036C126.36 29.3496 125.436 30.0916 123.938 30.0916ZM136.084 33.6056C137.092 33.6056 137.932 33.3816 138.52 32.8916C139.094 32.4016 139.43 31.6596 139.43 30.6656V23.4556H138.142V24.4496H138.114C137.638 23.6936 136.91 23.2736 135.832 23.2736C134.068 23.2736 132.612 24.6456 132.612 26.9556C132.612 29.1396 133.984 30.6376 135.902 30.6376C136.966 30.6376 137.624 30.1756 138.142 29.4336H138.17C138.156 29.6716 138.142 30.0776 138.142 30.5116V30.7216C138.142 31.9956 137.4 32.5976 136.056 32.5976C134.936 32.5976 134.18 32.2756 134.068 31.4916H132.85C132.99 32.8216 134.11 33.6056 136.084 33.6056ZM136.028 29.5736C134.67 29.5736 133.942 28.5656 133.942 26.9696C133.942 25.3876 134.642 24.3516 136.014 24.3516C137.512 24.3516 138.226 25.3176 138.226 26.8996C138.226 28.4256 137.666 29.5736 136.028 29.5736ZM143.472 31.1276C144.746 31.1276 145.516 30.5256 145.992 29.8676H146.006C146.146 30.6656 146.538 31.0436 147.336 31.0436C147.644 31.0436 147.854 30.9876 148.036 30.9316V30.0216H147.98C147.322 30.1616 147.182 29.8396 147.182 29.2376V25.7236C147.182 24.7156 146.804 24.0576 146.174 23.6796C145.698 23.3996 145.068 23.2736 144.354 23.2736C142.324 23.2736 141.358 24.4076 141.302 25.6816H142.562C142.604 24.7856 143.178 24.2256 144.368 24.2256C145.404 24.2256 145.978 24.7296 145.978 25.5416C145.978 26.3116 145.264 26.4936 144.158 26.6196C142.212 26.8576 140.924 27.2356 140.924 28.9856C140.924 30.4276 142.044 31.1276 143.472 31.1276ZM143.794 30.1756C143.038 30.1756 142.296 29.9376 142.296 28.9716C142.296 27.9356 143.108 27.7116 144.34 27.5016C144.956 27.3896 145.614 27.2076 145.992 26.9696V28.2016C145.992 29.0696 145.292 30.1756 143.794 30.1756ZM149.093 30.9736H150.395V26.3396C150.395 25.1916 151.361 24.3656 152.257 24.3656C153.027 24.3656 153.545 24.9116 153.545 25.8356V30.9736H154.833V26.3396C154.833 25.1916 155.659 24.3656 156.611 24.3656C157.367 24.3656 157.969 24.9116 157.969 25.8356V30.9736H159.271V25.7236C159.271 24.1556 158.319 23.2736 156.947 23.2736C156.037 23.2736 155.155 23.7356 154.623 24.6736H154.595C154.287 23.7496 153.559 23.2736 152.649 23.2736C151.683 23.2736 150.885 23.7636 150.423 24.5756H150.381V23.4556H149.093V30.9736ZM164.277 31.1836C166.013 31.1836 167.217 30.2316 167.553 28.8316H166.279C166.041 29.6296 165.327 30.1196 164.291 30.1196C162.835 30.1196 162.037 28.9996 161.939 27.5296H167.707C167.707 26.2556 167.399 25.1776 166.783 24.4356C166.195 23.7076 165.327 23.2736 164.207 23.2736C162.051 23.2736 160.609 25.0376 160.609 27.2216C160.609 29.4196 161.967 31.1836 164.277 31.1836ZM164.207 24.2816C165.509 24.2816 166.251 25.1496 166.321 26.5916H161.967C162.135 25.2616 162.849 24.2816 164.207 24.2816ZM174.438 30.9736H175.754L176.888 26.8296C177.07 26.1156 177.35 24.7296 177.35 24.7296H177.378C177.378 24.7296 177.672 26.1016 177.854 26.8296L178.96 30.9736H180.262L182.712 23.4556H181.368L180.122 27.6276C179.842 28.5516 179.632 29.8396 179.632 29.8396H179.604C179.604 29.8396 179.338 28.4536 179.128 27.6556L178.008 23.4556H176.776L175.642 27.6556C175.39 28.5656 175.138 29.8256 175.138 29.8256H175.11C175.11 29.8256 174.858 28.4816 174.62 27.6276L173.444 23.4556H172.058L174.438 30.9736ZM183.723 22.0696H185.081V20.5576H183.723V22.0696ZM183.751 30.9736H185.053V23.4556H183.751V30.9736ZM188.129 23.4556H186.841V30.9736H188.143V26.3956C188.143 25.1916 188.983 24.3656 190.145 24.3656C191.167 24.3656 191.797 24.9116 191.797 25.8776V30.9736H193.085V25.7236C193.085 24.1556 192.119 23.2736 190.551 23.2736C189.459 23.2736 188.717 23.7636 188.171 24.5196H188.129V23.4556ZM201.442 31.1976C203.206 31.1976 204.466 30.4136 204.466 28.8876C204.466 27.1376 203.178 26.8016 201.68 26.5076C200.406 26.2556 199.678 26.1016 199.678 25.3176C199.678 24.7436 200.112 24.2676 201.134 24.2676C202.212 24.2676 202.744 24.7016 202.856 25.4716H204.158C203.99 24.1696 203.052 23.2876 201.162 23.2876C199.412 23.2876 198.404 24.0996 198.404 25.3876C198.404 27.0396 199.734 27.3476 201.204 27.6556C202.534 27.9216 203.164 28.1316 203.164 28.9576C203.164 29.6296 202.66 30.1476 201.47 30.1476C200.392 30.1476 199.552 29.7836 199.398 28.6916H198.082C198.194 30.2176 199.37 31.1976 201.442 31.1976ZM205.274 24.4636H206.45V29.5036C206.45 30.6096 207.15 31.0156 208.158 31.0296C208.494 31.0296 208.858 30.9876 209.208 30.9036V29.8116H209.166C209.026 29.8536 208.732 29.9096 208.508 29.9096C208.032 29.9096 207.738 29.7556 207.738 29.2096V24.4636H209.292V23.4556H207.738V21.0896H206.45V23.4556H205.274V24.4636ZM211.932 23.4556H210.644V30.9736H211.946V26.8856C211.946 25.4716 212.94 24.6036 214.102 24.6036C214.326 24.6036 214.452 24.6176 214.634 24.6736H214.676V23.4416C214.536 23.3856 214.41 23.3576 214.2 23.3576C213.206 23.3576 212.436 23.9456 211.974 24.8136H211.932V23.4556ZM218.937 31.1836C220.673 31.1836 221.877 30.2316 222.213 28.8316H220.939C220.701 29.6296 219.987 30.1196 218.951 30.1196C217.495 30.1196 216.697 28.9996 216.599 27.5296H222.367C222.367 26.2556 222.059 25.1776 221.443 24.4356C220.855 23.7076 219.987 23.2736 218.867 23.2736C216.711 23.2736 215.269 25.0376 215.269 27.2216C215.269 29.4196 216.627 31.1836 218.937 31.1836ZM218.867 24.2816C220.169 24.2816 220.911 25.1496 220.981 26.5916H216.627C216.795 25.2616 217.509 24.2816 218.867 24.2816ZM225.995 31.1276C227.269 31.1276 228.039 30.5256 228.515 29.8676H228.529C228.669 30.6656 229.061 31.0436 229.859 31.0436C230.167 31.0436 230.377 30.9876 230.559 30.9316V30.0216H230.503C229.845 30.1616 229.705 29.8396 229.705 29.2376V25.7236C229.705 24.7156 229.327 24.0576 228.697 23.6796C228.221 23.3996 227.591 23.2736 226.877 23.2736C224.847 23.2736 223.881 24.4076 223.825 25.6816H225.085C225.127 24.7856 225.701 24.2256 226.891 24.2256C227.927 24.2256 228.501 24.7296 228.501 25.5416C228.501 26.3116 227.787 26.4936 226.681 26.6196C224.735 26.8576 223.447 27.2356 223.447 28.9856C223.447 30.4276 224.567 31.1276 225.995 31.1276ZM226.317 30.1756C225.561 30.1756 224.819 29.9376 224.819 28.9716C224.819 27.9356 225.631 27.7116 226.863 27.5016C227.479 27.3896 228.137 27.2076 228.515 26.9696V28.2016C228.515 29.0696 227.815 30.1756 226.317 30.1756ZM236.559 30.9736H238.085L234.879 26.1576L237.749 23.4556H236.125L232.863 26.6616C232.891 26.2976 232.919 25.7656 232.919 25.4996V20.5576H231.617V30.9736H232.919V28.0196L233.983 27.0116L236.559 30.9736ZM242.923 33.5216H244.225V31.2396C244.225 30.6656 244.211 30.2456 244.197 29.9796H244.239C244.757 30.7776 245.583 31.1976 246.605 31.1976C248.635 31.1976 249.881 29.6436 249.881 27.2356C249.881 24.7576 248.565 23.2736 246.647 23.2736C245.569 23.2736 244.813 23.7776 244.253 24.6316H244.211V23.4556H242.923V33.5216ZM246.465 30.1196C244.799 30.1196 244.155 28.8456 244.155 27.2636C244.155 25.6676 244.883 24.3796 246.479 24.3796C247.865 24.3796 248.551 25.6116 248.551 27.2636C248.551 28.9016 247.851 30.1196 246.465 30.1196ZM252.551 23.4556H251.263V30.9736H252.565V26.8856C252.565 25.4716 253.559 24.6036 254.721 24.6036C254.945 24.6036 255.071 24.6176 255.253 24.6736H255.295V23.4416C255.155 23.3856 255.029 23.3576 254.819 23.3576C253.825 23.3576 253.055 23.9456 252.593 24.8136H252.551V23.4556ZM256.54 22.0696H257.898V20.5576H256.54V22.0696ZM256.568 30.9736H257.87V23.4556H256.568V30.9736ZM259.378 30.9736H265.44V29.8256H262.402C261.856 29.8256 260.904 29.8676 260.904 29.8676V29.8256C260.904 29.8256 261.534 29.1396 261.856 28.7336L265.272 24.2676V23.4556H259.63V24.5616H262.22C262.738 24.5616 263.634 24.5196 263.634 24.5196V24.5616C263.634 24.5616 263.046 25.1916 262.738 25.5836L259.378 29.9656V30.9736ZM269.81 31.1836C271.546 31.1836 272.75 30.2316 273.086 28.8316H271.812C271.574 29.6296 270.86 30.1196 269.824 30.1196C268.368 30.1196 267.57 28.9996 267.472 27.5296H273.24C273.24 26.2556 272.932 25.1776 272.316 24.4356C271.728 23.7076 270.86 23.2736 269.74 23.2736C267.584 23.2736 266.142 25.0376 266.142 27.2216C266.142 29.4196 267.5 31.1836 269.81 31.1836ZM269.74 24.2816C271.042 24.2816 271.784 25.1496 271.854 26.5916H267.5C267.668 25.2616 268.382 24.2816 269.74 24.2816Z" fill="white"/>
<g clip-path="url(#clip1_2388_31316)">
<path fill-rule="evenodd" clip-rule="evenodd" d="M318.146 30.9229C318.235 30.7768 318.28 30.5926 318.28 30.3703V21.5866C318.28 21.3643 318.235 21.1833 318.146 21.0436C318.058 20.8975 317.918 20.78 317.727 20.6911C317.194 20.4243 316.759 20.1163 316.422 19.767C316.079 19.4113 315.746 18.9128 315.422 18.2713C315.219 17.9093 314.923 17.7283 314.536 17.7283H298.464C298.077 17.7283 297.785 17.9093 297.588 18.2713C297.257 18.9128 296.924 19.4113 296.587 19.767C296.244 20.1163 295.806 20.4243 295.273 20.6911C295.082 20.78 294.942 20.8975 294.853 21.0436C294.765 21.1833 294.72 21.3643 294.72 21.5866V30.3703C294.72 30.5926 294.765 30.7768 294.853 30.9229C294.942 31.0626 295.082 31.1769 295.273 31.2658C295.806 31.5262 296.244 31.8343 296.587 32.1899C296.924 32.5392 297.257 33.0378 297.588 33.6856C297.785 34.0413 298.077 34.2191 298.464 34.2191H314.536C314.923 34.2191 315.219 34.0413 315.422 33.6856C315.746 33.0378 316.079 32.5392 316.422 32.1899C316.759 31.8343 317.194 31.5262 317.727 31.2658C317.918 31.1769 318.058 31.0626 318.146 30.9229ZM310.54 26.3043V27.1185C310.54 27.2589 310.427 27.3728 310.286 27.3728C310.146 27.3728 310.032 27.259 310.032 27.1185V26.3043H308.688V27.1185C308.688 27.2589 308.574 27.3728 308.434 27.3728C308.293 27.3728 308.179 27.259 308.179 27.1185V26.3043H306.836V27.1185C306.836 27.2589 306.722 27.3728 306.582 27.3728C306.441 27.3728 306.327 27.259 306.327 27.1185V26.3043H304.984V27.1185C304.984 27.2589 304.87 27.3728 304.73 27.3728C304.589 27.3728 304.476 27.259 304.476 27.1185V26.3043H303.132V27.1185C303.132 27.2589 303.018 27.3728 302.878 27.3728C302.738 27.3728 302.624 27.259 302.624 27.1185V26.3043H301.614L301.614 29.9521C303.093 30.7518 304.783 31.2105 306.582 31.2105C308.381 31.2105 310.071 30.7516 311.55 29.9521V26.3043H310.54ZM315.651 25.9736C315.652 24.9819 313.824 23.4986 312.568 22.6208V29.3269C313.824 28.449 315.65 27.0659 315.651 25.9736ZM302.624 24.9817V25.7958L301.614 25.7956V21.9952C303.093 21.1957 304.783 20.7368 306.582 20.7368C308.382 20.7368 310.072 21.1956 311.55 21.9951V25.7958H310.54V24.9817C310.54 24.8413 310.426 24.7274 310.286 24.7274C310.145 24.7274 310.031 24.8413 310.031 24.9817V25.7958H308.688V24.9817C308.688 24.8413 308.574 24.7274 308.434 24.7274C308.293 24.7274 308.179 24.8413 308.179 24.9817V25.7958H306.836V24.9817C306.836 24.8413 306.722 24.7274 306.582 24.7274C306.441 24.7274 306.327 24.8413 306.327 24.9817V25.7958H304.984V24.9817C304.984 24.8413 304.87 24.7274 304.73 24.7274C304.589 24.7274 304.476 24.8413 304.476 24.9817V25.7958H303.132V24.9817C303.132 24.8413 303.018 24.7274 302.878 24.7274C302.738 24.7274 302.624 24.8413 302.624 24.9817ZM297.349 25.9736C297.348 24.9819 299.176 23.4986 300.432 22.6208V29.3269C299.176 28.449 297.35 27.0659 297.349 25.9736Z" fill="white"/>
</g>
<rect x="104" y="1.09106" width="230" height="49.7652" stroke="white"/>
<path d="M133.72 69.6282H119.608V74.5602H123.964V98.3562H129.292V74.5602H133.72V69.6282ZM149.302 78.5562L147.718 93.1002L145.63 78.5562H140.698L138.862 93.1002L137.026 78.5562H132.13L135.694 98.3562H141.454C141.454 98.3562 142.714 91.3362 143.11 88.9962C143.146 88.7802 143.182 86.9442 143.182 86.9442C143.182 86.9442 143.29 88.7802 143.326 88.9962C143.722 91.2642 144.946 98.3562 144.946 98.3562H150.634L154.09 78.5562H149.302ZM167.18 82.3362C166.532 80.0682 164.804 78.3042 161.24 78.3042C157.676 78.3042 155.912 80.2482 155.336 82.2282C154.832 83.9202 154.58 86.2962 154.58 88.4202C154.58 90.6162 154.868 93.2802 155.192 94.4682C155.876 96.9522 157.928 98.6082 161.168 98.6082C164.588 98.6082 166.424 96.9882 167.144 94.4682C167.576 93.0282 167.792 90.5802 167.792 88.4202C167.792 86.2962 167.612 83.8122 167.18 82.3362ZM162.896 93.2802C162.788 94.0362 162.104 94.6842 161.204 94.6842C160.34 94.6842 159.692 94.2162 159.548 93.3162C159.368 92.3802 159.332 90.0402 159.332 88.4922C159.332 87.0162 159.368 84.6042 159.548 83.7762C159.764 82.8762 160.268 82.3722 161.204 82.3722C162.176 82.3722 162.68 82.7682 162.896 83.7042C163.04 84.4602 163.112 86.9802 163.112 88.4922C163.112 90.0042 163.148 91.5522 162.896 93.2802ZM190.14 69.6282H185.244V83.6682L180.744 69.6282H175.74V98.3562H180.636V84.0282L185.172 98.3562H190.14V69.6282ZM205.437 69.6282H192.729V98.3562H197.985V86.3682H204.861V81.5442H197.985V74.5602H205.437V69.6282ZM220.003 93.4962H212.407V69.6282H207.151V98.3562H220.003V93.4962ZM227.523 83.0202C227.487 83.6682 227.487 86.5842 227.559 87.4482C227.667 88.9602 228.423 90.0762 229.107 90.5082C227.775 90.9402 226.767 92.1282 226.767 93.5322C226.767 94.9722 227.487 96.1242 229.107 96.3402C227.631 96.9162 226.587 97.6362 226.587 99.4002C226.587 102.244 229.539 103.36 234.111 103.36C238.935 103.36 241.563 101.56 241.563 98.2482C241.563 95.4042 240.159 93.3522 234.651 93.3522C231.339 93.3522 230.619 93.2802 230.619 92.4522C230.619 92.0202 230.907 91.6962 231.447 91.6242C231.987 91.9122 232.779 92.2362 234.075 92.2362C237.387 92.2362 239.475 90.6162 239.907 88.0242C240.051 87.0162 240.051 84.6402 240.051 83.8842C240.051 82.9482 239.799 81.8682 239.547 81.4002C239.619 81.3282 241.563 81.2922 241.671 81.2922V78.4482C240.375 78.4122 239.007 78.7362 238.251 79.6362C237.639 78.9522 236.343 78.2322 233.787 78.2322C229.575 78.2322 227.595 80.6082 227.523 83.0202ZM235.407 83.4522C235.443 84.1722 235.443 86.9802 235.407 87.4482C235.371 88.3122 234.939 88.8882 233.823 88.8882C232.779 88.8882 232.275 88.3122 232.239 87.4482C232.203 86.8722 232.239 84.1722 232.239 83.7042C232.275 82.6602 232.815 82.1922 233.823 82.1922C234.831 82.1922 235.335 82.5882 235.407 83.4522ZM230.655 98.4642C230.655 97.6002 231.015 97.4202 231.771 97.0242C232.203 97.0602 233.139 97.0242 234.003 97.0602C236.451 97.2042 237.315 97.4562 237.315 98.3922C237.315 99.4362 236.271 99.8682 234.003 99.8682C231.627 99.8682 230.655 99.4362 230.655 98.4642ZM254.922 94.8282C254.922 93.3522 254.958 90.9402 254.958 89.3922C254.994 87.5562 255.03 84.5682 254.958 82.8402C254.85 80.0682 253.122 78.3042 248.982 78.3042C244.59 78.3042 242.79 80.2842 242.79 83.9922V85.4682H247.254V84.3522C247.254 82.9842 247.686 82.3002 248.91 82.3002C249.81 82.3002 250.278 82.8042 250.314 83.6682C250.35 84.2802 250.35 85.5042 250.35 86.0442C249.558 86.0442 248.73 86.1522 247.83 86.2962C244.518 86.9082 242.286 88.7082 242.106 91.5882C242.034 92.6322 242.07 94.3242 242.106 94.7562C242.25 97.6362 244.446 98.5002 246.426 98.5002C248.19 98.5002 249.522 98.0322 250.422 96.9162C250.422 97.4202 250.53 98.3562 250.602 98.3562H255.174C254.994 98.1042 254.922 96.2682 254.922 94.8282ZM250.35 90.7962C250.278 91.8042 250.35 92.3082 250.17 93.3522C249.99 94.3602 249.126 94.7562 248.37 94.7562C247.65 94.7562 247.074 94.5042 246.966 93.8202C246.894 93.2442 246.894 92.5602 246.894 92.0202C246.894 91.1922 246.93 90.6162 247.542 90.0762C248.082 89.6082 248.694 89.5002 249.198 89.3922C249.63 89.3202 249.99 89.3202 250.35 89.3202C250.35 89.6082 250.386 90.4002 250.35 90.7962ZM276.65 98.3562C276.686 98.3562 276.614 97.7802 276.614 82.4442C276.614 79.9602 275.534 78.2682 272.798 78.2682C270.962 78.2682 269.558 79.0602 268.946 80.5722C268.442 79.1682 267.398 78.2682 265.598 78.2682C263.51 78.2682 262.214 79.2042 261.746 80.4282V78.5562H257.102V98.3562H261.854V84.3162C261.854 83.3442 262.43 82.4442 263.402 82.4442C264.23 82.4442 264.626 82.9842 264.626 83.8482V98.3562H269.27V84.1722C269.27 83.2722 269.81 82.4442 270.746 82.4442C271.754 82.4442 272.006 83.1282 272.006 83.9202C272.006 97.7802 272.006 98.3562 272.042 98.3562H276.65ZM286.794 91.9122C286.794 92.4162 286.722 93.0282 286.578 93.6402C286.398 94.4322 285.642 94.7562 284.922 94.7562C284.202 94.7562 283.374 94.3242 283.266 93.3522C283.158 92.4522 283.122 91.0122 283.122 90.1122H291.294C291.474 86.7282 291.222 83.2722 290.538 81.5802C289.71 79.5642 287.802 78.3042 285.03 78.3042C281.61 78.3042 280.098 79.8522 279.378 81.6162C278.838 82.9122 278.442 85.5762 278.442 88.5642C278.442 91.6242 278.694 93.8922 279.522 95.8002C280.386 97.8162 282.438 98.6082 285.102 98.6082C287.766 98.6082 289.386 97.5282 290.25 95.9802C291.006 94.6482 291.186 92.4882 291.186 91.9122H286.794ZM283.05 86.5842C283.05 85.2162 283.086 83.9202 283.338 83.3082C283.59 82.6242 284.166 82.2642 284.958 82.2642C285.786 82.2642 286.326 82.6602 286.506 83.3442C286.65 83.8122 286.758 84.7842 286.758 86.5842H283.05ZM128.968 122.556H126.196V118.74L121.516 118.848C121.516 118.848 121.372 122.448 121.336 122.556H119.572V126.768H121.264V138.036C121.264 141.132 122.992 142.5 125.944 142.5C127.204 142.5 127.996 142.428 128.752 142.248V138.396C128.392 138.468 127.924 138.504 127.528 138.504C126.772 138.504 126.16 138.288 126.16 137.172V126.768H128.968V122.556ZM135.68 116.652H130.604V121.512H135.68V116.652ZM135.608 140.916V122.556H130.676V140.988C130.676 141.78 130.676 142.356 130.856 142.356H135.716C135.68 142.32 135.608 141.672 135.608 140.916ZM149.878 125.904C149.23 123.852 147.718 122.304 144.01 122.304C141.202 122.304 139.186 123.564 138.466 125.688C137.746 127.848 137.53 129.576 137.53 132.456C137.53 135.444 137.962 138.432 138.538 139.728C139.33 141.528 141.238 142.608 144.082 142.608C146.998 142.608 148.87 141.312 149.518 139.656C150.202 137.928 150.238 137.1 150.238 134.4H145.774C145.774 135.66 145.774 136.056 145.63 137.1C145.522 137.928 145.018 138.576 144.082 138.576C143.146 138.576 142.678 138.144 142.534 137.136C142.318 135.66 142.246 133.644 142.246 132.492C142.246 131.052 142.318 129.252 142.534 127.848C142.678 126.876 143.182 126.372 144.046 126.372C145.054 126.372 145.414 127.02 145.522 127.812C145.63 128.568 145.738 129.468 145.738 130.62H150.238C150.238 128.208 150.13 126.768 149.878 125.904ZM161.536 129.756L165.28 122.556H160.6L156.748 130.152V113.592H151.996V142.356H156.748V136.416L158.152 134.148L160.636 142.356H165.46L161.536 129.756ZM174.095 135.912C174.095 136.416 174.023 137.028 173.879 137.64C173.699 138.432 172.943 138.756 172.223 138.756C171.503 138.756 170.675 138.324 170.567 137.352C170.459 136.452 170.423 135.012 170.423 134.112H178.595C178.775 130.728 178.523 127.272 177.839 125.58C177.011 123.564 175.103 122.304 172.331 122.304C168.911 122.304 167.399 123.852 166.679 125.616C166.139 126.912 165.743 129.576 165.743 132.564C165.743 135.624 165.995 137.892 166.823 139.8C167.687 141.816 169.739 142.608 172.403 142.608C175.067 142.608 176.687 141.528 177.551 139.98C178.307 138.648 178.487 136.488 178.487 135.912H174.095ZM170.351 130.584C170.351 129.216 170.387 127.92 170.639 127.308C170.891 126.624 171.467 126.264 172.259 126.264C173.087 126.264 173.627 126.66 173.807 127.344C173.951 127.812 174.059 128.784 174.059 130.584H170.351ZM188.881 122.556H186.109V118.74L181.429 118.848C181.429 118.848 181.285 122.448 181.249 122.556H179.485V126.768H181.177V138.036C181.177 141.132 182.905 142.5 185.857 142.5C187.117 142.5 187.909 142.428 188.665 142.248V138.396C188.305 138.468 187.837 138.504 187.441 138.504C186.685 138.504 186.073 138.288 186.073 137.172V126.768H188.881V122.556ZM198.868 131.16C197.968 130.692 197.068 130.296 196.168 129.864C195.016 129.324 194.62 128.712 194.62 127.74C194.62 126.912 194.98 126.228 196.096 126.228C197.104 126.228 197.428 126.804 197.5 127.416C197.536 127.56 197.572 128.676 197.572 128.892H201.928C201.928 128.496 201.82 126.408 201.712 125.832C201.244 123.636 199.408 122.268 195.916 122.268C192.1 122.268 190.156 124.5 190.156 127.632C190.156 130.584 191.02 132.42 193.612 133.644C194.332 133.968 195.304 134.436 195.916 134.688C197.284 135.228 197.752 135.912 197.752 137.136C197.752 138.252 197.068 138.792 196.168 138.792C195.304 138.792 194.62 138.432 194.548 137.604C194.512 136.992 194.476 136.38 194.476 136.128H190.012C190.012 136.74 190.048 138 190.12 138.648C190.444 141.312 192.244 142.644 196.276 142.644C199.84 142.644 202.324 140.736 202.324 136.992C202.324 133.968 201.388 132.42 198.868 131.16Z" fill="white"/>
<rect x="104" y="1.09106" width="230" height="161.765" stroke="white"/>
</g>
<rect x="1" y="1.09106" width="333" height="161.765" rx="11.5" stroke="white"/>
<defs>
<clipPath id="clip0_2388_31316">
<rect x="0.5" y="0.591064" width="334" height="162.765" rx="12" fill="white"/>
</clipPath>
<clipPath id="clip1_2388_31316">
<rect x="294.5" y="13.9736" width="24" height="24" rx="4" fill="white"/>
</clipPath>
</defs>
</svg>
