<svg width="100%" height="auto" viewBox="0 0 335 164" fill="none" xmlns="http://www.w3.org/2000/svg">
<g clip-path="url(#clip0_2388_31312)">
<path d="M44.3 26.993H35.66C34.78 28.913 32.54 32.593 24.3 33.153V42.353L33.1 41.953V90.913H44.3V26.993ZM79.0938 80.593H60.8538C64.0538 74.513 78.2138 60.513 79.0938 46.673C79.1738 45.313 79.2538 39.793 79.1738 38.753C78.6138 31.793 74.8538 26.433 64.2138 26.433C53.8138 26.433 48.7738 32.753 48.5338 39.073C48.4538 40.353 48.4538 46.913 48.4538 48.193H59.6538V40.673C59.7338 37.713 61.3338 36.593 63.4138 36.593C65.7338 36.593 67.1738 37.393 67.1738 41.153V45.713C66.7738 59.553 52.7738 71.313 48.3738 80.993V90.913H79.0938V80.593Z" fill="white"/>
<path d="M38.1123 114.057V110.697H33.7023V112.279H36.4043C36.4043 112.279 36.4183 113.875 36.3903 114.015C36.2083 114.841 35.4663 115.471 34.2763 115.471C33.2963 115.471 32.6943 115.219 32.3163 114.673C31.8683 114.015 31.7423 113.049 31.7423 111.411C31.7423 109.801 31.9383 108.751 32.3303 108.149C32.7083 107.589 33.3103 107.351 34.1503 107.351C34.9343 107.351 35.4803 107.589 35.8023 108.065C36.0963 108.513 36.2643 109.171 36.2643 109.549H38.0563C38.0563 109.059 37.9163 108.093 37.5803 107.421C37.0763 106.427 36.0263 105.685 34.1083 105.685C32.2603 105.685 31.2243 106.455 30.6363 107.365C30.0203 108.331 29.8383 109.661 29.8383 111.383C29.8383 113.385 30.1463 114.673 30.6783 115.513C31.3223 116.521 32.4143 117.053 33.8843 117.053C35.3963 117.053 36.2083 116.521 36.5863 115.961L36.6703 116.913H38.1263C38.1263 116.871 38.1123 115.387 38.1123 114.057ZM46.8892 114.225L47.6592 116.913H49.5632L46.2872 105.825H43.9352L40.4352 116.913H42.3112L43.1232 114.225H46.8892ZM43.6272 112.629C43.6272 112.629 44.8452 108.611 44.8592 108.541C44.8872 108.429 45.0692 107.547 45.0692 107.547C45.0692 107.547 45.2512 108.429 45.2792 108.541C45.3072 108.625 46.4132 112.629 46.4132 112.629H43.6272ZM62.0557 105.825H59.6617L57.1697 114.071L54.7197 105.825H52.1857V116.913H53.9077V109.311L56.1897 116.913H57.9957L60.3197 109.283V116.913H62.0557V105.825ZM72.4428 115.233H67.3888V112.195H72.1628V110.501H67.3888V107.505H72.3868V105.825H65.5688V116.913H72.4428V115.233ZM27.3392 130.739C27.0312 130.627 26.3732 130.375 25.9812 130.249C24.6232 129.801 23.9512 129.367 23.9512 128.499C23.9512 127.757 24.4552 127.309 25.8692 127.309C27.0732 127.309 27.6332 127.645 27.8712 128.331C27.9552 128.583 27.9972 128.793 27.9972 129.031H29.8732C29.8732 128.611 29.8032 128.275 29.7052 127.939C29.3132 126.567 28.1932 125.699 25.9112 125.699C23.2932 125.699 22.0612 126.847 22.0612 128.555C22.0612 130.193 23.1392 131.173 24.8052 131.719C25.2672 131.873 25.9252 132.125 26.2052 132.223C27.6892 132.741 28.1372 133.189 28.1372 134.127C28.1372 134.967 27.5352 135.471 26.1212 135.471C24.9172 135.471 24.2172 135.163 24.0072 134.505C23.9232 134.239 23.8812 133.861 23.8812 133.665H22.0192C22.0192 133.987 22.0472 134.505 22.1452 134.883C22.4812 136.185 23.6012 137.053 26.1632 137.053C28.7532 137.053 30.0272 135.821 30.0272 133.973C30.0272 132.251 29.0752 131.341 27.3392 130.739ZM39.9652 125.825H32.1112V127.491H35.0932V136.913H36.9692V127.491H39.9652V125.825ZM49.8119 127.057C49.4199 126.273 48.6779 125.825 47.4599 125.825H42.6299V136.913H44.4499V132.293H46.8579L48.7899 136.913H50.8199L48.6359 131.887C49.1259 131.789 49.5739 131.439 49.8539 130.907C50.0639 130.487 50.1759 129.871 50.1759 129.031C50.1759 128.135 50.0919 127.589 49.8119 127.057ZM48.1879 130.221C48.0479 130.529 47.6979 130.697 47.2079 130.711H44.4639V127.477H47.0679C47.6979 127.477 48.0899 127.701 48.2439 128.121C48.3139 128.303 48.3419 128.793 48.3419 129.199C48.3419 129.535 48.2859 129.983 48.1879 130.221ZM60.5081 135.233H55.4541V132.195H60.2281V130.501H55.4541V127.505H60.4521V125.825H53.6341V136.913H60.5081V135.233ZM69.1703 134.225L69.9403 136.913H71.8443L68.5683 125.825H66.2163L62.7163 136.913H64.5923L65.4043 134.225H69.1703ZM65.9083 132.629C65.9083 132.629 67.1263 128.611 67.1403 128.541C67.1683 128.429 67.3503 127.547 67.3503 127.547C67.3503 127.547 67.5323 128.429 67.5603 128.541C67.5883 128.625 68.6943 132.629 68.6943 132.629H65.9083ZM78.4008 130.613L82.3908 125.825H80.3188L76.3148 130.543V125.825H74.4668V136.913H76.3148V132.951L77.1268 131.999L80.2908 136.913H82.4748L78.4008 130.613Z" fill="white"/>
<path d="M122.412 30.913H123.77V20.875H122.72C122.538 22.331 121.362 22.807 120.102 22.835V23.731H122.412V30.913ZM125.57 30.913H132.57V29.667H127.222L127.25 29.555C127.642 28.519 129 27.763 130.036 27.133C131.534 26.279 132.752 25.635 132.752 23.787C132.752 22.023 131.436 20.721 129.392 20.721C128.3 20.721 127.348 21.057 126.732 21.715C126.13 22.331 125.808 23.129 125.808 24.249H127.194C127.194 23.409 127.362 22.863 127.754 22.457C128.118 22.051 128.608 21.841 129.28 21.841C130.554 21.841 131.352 22.639 131.352 23.815C131.352 24.963 130.624 25.467 129.378 26.181C128.426 26.755 127.39 27.329 126.634 28.169C126.032 28.855 125.626 29.709 125.57 30.913ZM141.17 33.545C142.178 33.545 143.018 33.321 143.606 32.831C144.18 32.341 144.516 31.599 144.516 30.605V23.395H143.228V24.389H143.2C142.724 23.633 141.996 23.213 140.918 23.213C139.154 23.213 137.698 24.585 137.698 26.895C137.698 29.079 139.07 30.577 140.988 30.577C142.052 30.577 142.71 30.115 143.228 29.373H143.256C143.242 29.611 143.228 30.017 143.228 30.451V30.661C143.228 31.935 142.486 32.537 141.142 32.537C140.022 32.537 139.266 32.215 139.154 31.431H137.936C138.076 32.761 139.196 33.545 141.17 33.545ZM141.114 29.513C139.756 29.513 139.028 28.505 139.028 26.909C139.028 25.327 139.728 24.291 141.1 24.291C142.598 24.291 143.312 25.257 143.312 26.839C143.312 28.365 142.752 29.513 141.114 29.513ZM148.558 31.067C149.832 31.067 150.602 30.465 151.078 29.807H151.092C151.232 30.605 151.624 30.983 152.422 30.983C152.73 30.983 152.94 30.927 153.122 30.871V29.961H153.066C152.408 30.101 152.268 29.779 152.268 29.177V25.663C152.268 24.655 151.89 23.997 151.26 23.619C150.784 23.339 150.154 23.213 149.44 23.213C147.41 23.213 146.444 24.347 146.388 25.621H147.648C147.69 24.725 148.264 24.165 149.454 24.165C150.49 24.165 151.064 24.669 151.064 25.481C151.064 26.251 150.35 26.433 149.244 26.559C147.298 26.797 146.01 27.175 146.01 28.925C146.01 30.367 147.13 31.067 148.558 31.067ZM148.88 30.115C148.124 30.115 147.382 29.877 147.382 28.911C147.382 27.875 148.194 27.651 149.426 27.441C150.042 27.329 150.7 27.147 151.078 26.909V28.141C151.078 29.009 150.378 30.115 148.88 30.115ZM154.179 30.913H155.481V26.279C155.481 25.131 156.447 24.305 157.343 24.305C158.113 24.305 158.631 24.851 158.631 25.775V30.913H159.919V26.279C159.919 25.131 160.745 24.305 161.697 24.305C162.453 24.305 163.055 24.851 163.055 25.775V30.913H164.357V25.663C164.357 24.095 163.405 23.213 162.033 23.213C161.123 23.213 160.241 23.675 159.709 24.613H159.681C159.373 23.689 158.645 23.213 157.735 23.213C156.769 23.213 155.971 23.703 155.509 24.515H155.467V23.395H154.179V30.913ZM169.363 31.123C171.099 31.123 172.303 30.171 172.639 28.771H171.365C171.127 29.569 170.413 30.059 169.377 30.059C167.921 30.059 167.123 28.939 167.025 27.469H172.793C172.793 26.195 172.485 25.117 171.869 24.375C171.281 23.647 170.413 23.213 169.293 23.213C167.137 23.213 165.695 24.977 165.695 27.161C165.695 29.359 167.053 31.123 169.363 31.123ZM169.293 24.221C170.595 24.221 171.337 25.089 171.407 26.531H167.053C167.221 25.201 167.935 24.221 169.293 24.221ZM179.524 30.913H180.84L181.974 26.769C182.156 26.055 182.436 24.669 182.436 24.669H182.464C182.464 24.669 182.758 26.041 182.94 26.769L184.046 30.913H185.348L187.798 23.395H186.454L185.208 27.567C184.928 28.491 184.718 29.779 184.718 29.779H184.69C184.69 29.779 184.424 28.393 184.214 27.595L183.094 23.395H181.862L180.728 27.595C180.476 28.505 180.224 29.765 180.224 29.765H180.196C180.196 29.765 179.944 28.421 179.706 27.567L178.53 23.395H177.144L179.524 30.913ZM188.809 22.009H190.167V20.497H188.809V22.009ZM188.837 30.913H190.139V23.395H188.837V30.913ZM193.215 23.395H191.927V30.913H193.229V26.335C193.229 25.131 194.069 24.305 195.231 24.305C196.253 24.305 196.883 24.851 196.883 25.817V30.913H198.171V25.663C198.171 24.095 197.205 23.213 195.637 23.213C194.545 23.213 193.803 23.703 193.257 24.459H193.215V23.395ZM206.528 31.137C208.292 31.137 209.552 30.353 209.552 28.827C209.552 27.077 208.264 26.741 206.766 26.447C205.492 26.195 204.764 26.041 204.764 25.257C204.764 24.683 205.198 24.207 206.22 24.207C207.298 24.207 207.83 24.641 207.942 25.411H209.244C209.076 24.109 208.138 23.227 206.248 23.227C204.498 23.227 203.49 24.039 203.49 25.327C203.49 26.979 204.82 27.287 206.29 27.595C207.62 27.861 208.25 28.071 208.25 28.897C208.25 29.569 207.746 30.087 206.556 30.087C205.478 30.087 204.638 29.723 204.484 28.631H203.168C203.28 30.157 204.456 31.137 206.528 31.137ZM210.36 24.403H211.536V29.443C211.536 30.549 212.236 30.955 213.244 30.969C213.58 30.969 213.944 30.927 214.294 30.843V29.751H214.252C214.112 29.793 213.818 29.849 213.594 29.849C213.118 29.849 212.824 29.695 212.824 29.149V24.403H214.378V23.395H212.824V21.029H211.536V23.395H210.36V24.403ZM217.018 23.395H215.73V30.913H217.032V26.825C217.032 25.411 218.026 24.543 219.188 24.543C219.412 24.543 219.538 24.557 219.72 24.613H219.762V23.381C219.622 23.325 219.496 23.297 219.286 23.297C218.292 23.297 217.522 23.885 217.06 24.753H217.018V23.395ZM224.023 31.123C225.759 31.123 226.963 30.171 227.299 28.771H226.025C225.787 29.569 225.073 30.059 224.037 30.059C222.581 30.059 221.783 28.939 221.685 27.469H227.453C227.453 26.195 227.145 25.117 226.529 24.375C225.941 23.647 225.073 23.213 223.953 23.213C221.797 23.213 220.355 24.977 220.355 27.161C220.355 29.359 221.713 31.123 224.023 31.123ZM223.953 24.221C225.255 24.221 225.997 25.089 226.067 26.531H221.713C221.881 25.201 222.595 24.221 223.953 24.221ZM231.081 31.067C232.355 31.067 233.125 30.465 233.601 29.807H233.615C233.755 30.605 234.147 30.983 234.945 30.983C235.253 30.983 235.463 30.927 235.645 30.871V29.961H235.589C234.931 30.101 234.791 29.779 234.791 29.177V25.663C234.791 24.655 234.413 23.997 233.783 23.619C233.307 23.339 232.677 23.213 231.963 23.213C229.933 23.213 228.967 24.347 228.911 25.621H230.171C230.213 24.725 230.787 24.165 231.977 24.165C233.013 24.165 233.587 24.669 233.587 25.481C233.587 26.251 232.873 26.433 231.767 26.559C229.821 26.797 228.533 27.175 228.533 28.925C228.533 30.367 229.653 31.067 231.081 31.067ZM231.403 30.115C230.647 30.115 229.905 29.877 229.905 28.911C229.905 27.875 230.717 27.651 231.949 27.441C232.565 27.329 233.223 27.147 233.601 26.909V28.141C233.601 29.009 232.901 30.115 231.403 30.115ZM241.645 30.913H243.171L239.965 26.097L242.835 23.395H241.211L237.949 26.601C237.977 26.237 238.005 25.705 238.005 25.439V20.497H236.703V30.913H238.005V27.959L239.069 26.951L241.645 30.913ZM248.009 33.461H249.311V31.179C249.311 30.605 249.297 30.185 249.283 29.919H249.325C249.843 30.717 250.669 31.137 251.691 31.137C253.721 31.137 254.967 29.583 254.967 27.175C254.967 24.697 253.651 23.213 251.733 23.213C250.655 23.213 249.899 23.717 249.339 24.571H249.297V23.395H248.009V33.461ZM251.551 30.059C249.885 30.059 249.241 28.785 249.241 27.203C249.241 25.607 249.969 24.319 251.565 24.319C252.951 24.319 253.637 25.551 253.637 27.203C253.637 28.841 252.937 30.059 251.551 30.059ZM257.637 23.395H256.349V30.913H257.651V26.825C257.651 25.411 258.645 24.543 259.807 24.543C260.031 24.543 260.157 24.557 260.339 24.613H260.381V23.381C260.241 23.325 260.115 23.297 259.905 23.297C258.911 23.297 258.141 23.885 257.679 24.753H257.637V23.395ZM261.626 22.009H262.984V20.497H261.626V22.009ZM261.654 30.913H262.956V23.395H261.654V30.913ZM264.464 30.913H270.526V29.765H267.488C266.942 29.765 265.99 29.807 265.99 29.807V29.765C265.99 29.765 266.62 29.079 266.942 28.673L270.358 24.207V23.395H264.716V24.501H267.306C267.824 24.501 268.72 24.459 268.72 24.459V24.501C268.72 24.501 268.132 25.131 267.824 25.523L264.464 29.905V30.913ZM274.896 31.123C276.632 31.123 277.836 30.171 278.172 28.771H276.898C276.66 29.569 275.946 30.059 274.91 30.059C273.454 30.059 272.656 28.939 272.558 27.469H278.326C278.326 26.195 278.018 25.117 277.402 24.375C276.814 23.647 275.946 23.213 274.826 23.213C272.67 23.213 271.228 24.977 271.228 27.161C271.228 29.359 272.586 31.123 274.896 31.123ZM274.826 24.221C276.128 24.221 276.87 25.089 276.94 26.531H272.586C272.754 25.201 273.468 24.221 274.826 24.221Z" fill="white"/>
<path d="M302.032 35.888C301.594 35.888 301.221 35.7346 300.915 35.428C300.608 35.1213 300.455 34.749 300.455 34.3109V26.6358C299.543 26.3905 298.746 25.9261 298.063 25.2427C297.379 24.5593 297.038 23.727 297.038 22.7457C297.038 21.817 297.305 20.9934 297.839 20.275C298.374 19.5565 299.062 19.0571 299.903 18.7767C300.306 17.9356 300.906 17.2522 301.703 16.7266C302.5 16.2009 303.398 15.938 304.397 15.938C305.011 15.938 305.584 16.0432 306.119 16.2534C306.653 16.4637 307.14 16.7441 307.578 17.0945C307.753 17.0595 307.919 17.0288 308.077 17.0025C308.235 16.9763 308.41 16.9631 308.603 16.9631C309.759 16.9631 310.749 17.3749 311.573 18.1985C312.397 19.0221 312.808 20.0121 312.808 21.1686C312.808 21.5541 312.729 21.9397 312.572 22.3252C312.414 22.7107 312.213 23.0261 311.967 23.2714H314.385C314.823 23.2714 315.196 23.4247 315.502 23.7314C315.809 24.038 315.962 24.4104 315.962 24.8485V32.2081C315.962 32.6462 315.809 33.0186 315.502 33.3252C315.196 33.6319 314.823 33.7852 314.385 33.7852H311.494V34.3109C311.494 34.749 311.341 35.1213 311.034 35.428C310.727 35.7346 310.355 35.888 309.917 35.888H302.032ZM298.615 22.7457C298.615 23.4116 298.886 23.9723 299.429 24.4279C299.973 24.8835 300.577 25.1113 301.243 25.1113C301.804 25.1113 302.312 24.958 302.768 24.6513C303.223 24.3447 303.688 23.9022 304.161 23.324C304.564 22.8333 305.046 22.3952 305.606 22.0097C306.167 21.6242 306.815 21.4315 307.551 21.4315H311.231C311.231 20.6429 310.999 19.9639 310.535 19.3944C310.07 18.8249 309.426 18.5402 308.603 18.5402C308.287 18.5402 307.976 18.5884 307.67 18.6848L307.21 18.8293L306.71 18.4088C306.395 18.1284 306.036 17.9094 305.633 17.7517C305.23 17.5939 304.818 17.5151 304.397 17.5151C303.784 17.5151 303.197 17.6728 302.636 17.9882C302.075 18.3036 301.664 18.7417 301.401 19.3024L301.033 20.091L300.192 20.3801C299.736 20.5378 299.359 20.8488 299.062 21.3132C298.764 21.7776 298.615 22.2551 298.615 22.7457ZM311.494 32.2081H314.385V24.8485H311.494V32.2081Z" fill="white"/>
<rect x="104" y="1.0304" width="230" height="49.7652" stroke="white"/>
<path d="M131.632 69.5676C131.632 69.5676 128.464 80.0436 127.996 81.5556C127.672 80.0796 124.864 69.5676 124.864 69.5676H119.5L125.368 87.6396V98.2956H130.624V87.5316L136.816 69.5676H131.632ZM142.71 91.8516C142.71 92.3556 142.638 92.9676 142.494 93.5796C142.314 94.3716 141.558 94.6956 140.838 94.6956C140.118 94.6956 139.29 94.2636 139.182 93.2916C139.074 92.3916 139.038 90.9516 139.038 90.0516H147.21C147.39 86.6676 147.138 83.2116 146.454 81.5196C145.626 79.5036 143.718 78.2436 140.946 78.2436C137.526 78.2436 136.014 79.7916 135.294 81.5556C134.754 82.8516 134.358 85.5156 134.358 88.5036C134.358 91.5636 134.61 93.8316 135.438 95.7396C136.302 97.7556 138.354 98.5476 141.018 98.5476C143.682 98.5476 145.302 97.4676 146.166 95.9196C146.922 94.5876 147.102 92.4276 147.102 91.8516H142.71ZM138.966 86.5236C138.966 85.1556 139.002 83.8596 139.254 83.2476C139.506 82.5636 140.082 82.2036 140.874 82.2036C141.702 82.2036 142.242 82.5996 142.422 83.2836C142.566 83.7516 142.674 84.7236 142.674 86.5236H138.966ZM161.313 94.7676C161.313 93.2916 161.349 90.8796 161.349 89.3316C161.385 87.4956 161.421 84.5076 161.349 82.7796C161.241 80.0076 159.513 78.2436 155.373 78.2436C150.981 78.2436 149.181 80.2236 149.181 83.9316V85.4076H153.645V84.2916C153.645 82.9236 154.077 82.2396 155.301 82.2396C156.201 82.2396 156.669 82.7436 156.705 83.6076C156.741 84.2196 156.741 85.4436 156.741 85.9836C155.949 85.9836 155.121 86.0916 154.221 86.2356C150.909 86.8476 148.677 88.6476 148.497 91.5276C148.425 92.5716 148.461 94.2636 148.497 94.6956C148.641 97.5756 150.837 98.4396 152.817 98.4396C154.581 98.4396 155.913 97.9716 156.813 96.8556C156.813 97.3596 156.921 98.2956 156.993 98.2956H161.565C161.385 98.0436 161.313 96.2076 161.313 94.7676ZM156.741 90.7356C156.669 91.7436 156.741 92.2476 156.561 93.2916C156.381 94.2996 155.517 94.6956 154.761 94.6956C154.041 94.6956 153.465 94.4436 153.357 93.7596C153.285 93.1836 153.285 92.4996 153.285 91.9596C153.285 91.1316 153.321 90.5556 153.933 90.0156C154.473 89.5476 155.085 89.4396 155.589 89.3316C156.021 89.2596 156.381 89.2596 156.741 89.2596C156.741 89.5476 156.777 90.3396 156.741 90.7356ZM171.773 78.2436C170.117 78.2436 168.461 79.3236 168.245 80.8356V78.4956H163.493V98.2956H168.317V86.5596C168.317 83.3196 169.325 82.5996 170.981 82.5996C171.953 82.5996 172.925 82.7796 173.501 82.9596V78.4236C173.105 78.2796 172.529 78.2436 171.773 78.2436ZM175.895 75.5796L175.967 75.7236L174.599 78.0996L176.795 79.6476L179.891 75.7956V69.5676H174.851V75.5796H175.895ZM188.032 87.0996C187.132 86.6316 186.232 86.2356 185.332 85.8036C184.18 85.2636 183.784 84.6516 183.784 83.6796C183.784 82.8516 184.144 82.1676 185.26 82.1676C186.268 82.1676 186.592 82.7436 186.664 83.3556C186.7 83.4996 186.736 84.6156 186.736 84.8316H191.092C191.092 84.4356 190.984 82.3476 190.876 81.7716C190.408 79.5756 188.572 78.2076 185.08 78.2076C181.264 78.2076 179.32 80.4396 179.32 83.5716C179.32 86.5236 180.184 88.3596 182.776 89.5836C183.496 89.9076 184.468 90.3756 185.08 90.6276C186.448 91.1676 186.916 91.8516 186.916 93.0756C186.916 94.1916 186.232 94.7316 185.332 94.7316C184.468 94.7316 183.784 94.3716 183.712 93.5436C183.676 92.9316 183.64 92.3196 183.64 92.0676H179.176C179.176 92.6796 179.212 93.9396 179.284 94.5876C179.608 97.2516 181.408 98.5836 185.44 98.5836C189.004 98.5836 191.488 96.6756 191.488 92.9316C191.488 89.9076 190.552 88.3596 188.032 87.0996ZM217.645 69.5676C217.645 69.5676 215.629 87.6756 215.629 90.5196C215.629 87.6756 213.145 69.5676 213.145 69.5676H207.925C207.925 69.5676 205.585 87.6756 205.585 90.5196C205.585 87.6756 203.497 69.5676 203.497 69.5676H198.133L202.165 98.2956H208.249C208.249 98.2956 210.445 83.3916 210.481 80.4036C210.625 83.3916 212.713 98.2956 212.713 98.2956H218.941L222.865 69.5676H217.645ZM235.223 82.2756C234.575 80.0076 232.847 78.2436 229.283 78.2436C225.719 78.2436 223.955 80.1876 223.379 82.1676C222.875 83.8596 222.623 86.2356 222.623 88.3596C222.623 90.5556 222.911 93.2196 223.235 94.4076C223.919 96.8916 225.971 98.5476 229.211 98.5476C232.631 98.5476 234.467 96.9276 235.187 94.4076C235.619 92.9676 235.835 90.5196 235.835 88.3596C235.835 86.2356 235.655 83.7516 235.223 82.2756ZM230.939 93.2196C230.831 93.9756 230.147 94.6236 229.247 94.6236C228.383 94.6236 227.735 94.1556 227.591 93.2556C227.411 92.3196 227.375 89.9796 227.375 88.4316C227.375 86.9556 227.411 84.5436 227.591 83.7156C227.807 82.8156 228.311 82.3116 229.247 82.3116C230.219 82.3116 230.723 82.7076 230.939 83.6436C231.083 84.3996 231.155 86.9196 231.155 88.4316C231.155 89.9436 231.191 91.4916 230.939 93.2196ZM246.038 78.2436C244.382 78.2436 242.726 79.3236 242.51 80.8356V78.4956H237.758V98.2956H242.582V86.5596C242.582 83.3196 243.59 82.5996 245.246 82.5996C246.218 82.5996 247.19 82.7796 247.766 82.9596V78.4236C247.37 78.2796 246.794 78.2436 246.038 78.2436ZM258.111 78.4956H255.339V74.6796L250.659 74.7876C250.659 74.7876 250.515 78.3876 250.479 78.4956H248.715V82.7076H250.407V93.9756C250.407 97.0716 252.135 98.4396 255.087 98.4396C256.347 98.4396 257.139 98.3676 257.895 98.1876V94.3356C257.535 94.4076 257.067 94.4436 256.671 94.4436C255.915 94.4436 255.303 94.2276 255.303 93.1116V82.7076H258.111V78.4956ZM272.311 83.0676C272.311 79.6116 270.619 78.2436 268.171 78.2436C266.191 78.2436 265.075 78.9996 264.535 80.3316V69.5316H259.783V98.2956H264.535V84.5076C264.535 83.1396 265.219 82.4556 266.155 82.4556C267.199 82.4556 267.523 83.0316 267.523 83.9316C267.523 97.7556 267.523 98.2956 267.559 98.2956H272.383C272.347 98.2956 272.311 97.7556 272.311 83.0676ZM292.5 82.2756C291.852 80.0076 290.124 78.2436 286.56 78.2436C282.996 78.2436 281.232 80.1876 280.656 82.1676C280.152 83.8596 279.9 86.2356 279.9 88.3596C279.9 90.5556 280.188 93.2196 280.512 94.4076C281.196 96.8916 283.248 98.5476 286.488 98.5476C289.908 98.5476 291.744 96.9276 292.464 94.4076C292.896 92.9676 293.112 90.5196 293.112 88.3596C293.112 86.2356 292.932 83.7516 292.5 82.2756ZM288.216 93.2196C288.108 93.9756 287.424 94.6236 286.524 94.6236C285.66 94.6236 285.012 94.1556 284.868 93.2556C284.688 92.3196 284.652 89.9796 284.652 88.4316C284.652 86.9556 284.688 84.5436 284.868 83.7156C285.084 82.8156 285.588 82.3116 286.524 82.3116C287.496 82.3116 288 82.7076 288.216 83.6436C288.36 84.3996 288.432 86.9196 288.432 88.4316C288.432 89.9436 288.468 91.4916 288.216 93.2196ZM303.459 78.4956H300.867V74.8236C300.867 74.1036 301.299 73.3116 302.271 73.3116C302.667 73.3116 303.243 73.3476 303.711 73.4196V69.4956C303.171 69.4236 302.127 69.3876 300.867 69.3876C297.303 69.3876 296.043 71.5116 296.043 74.2116V78.4956H294.279V82.7076H296.043V98.2956H300.867V82.7076H303.459V78.4956ZM135.988 134.448C135.988 132.648 135.772 130.56 135.124 129.408C134.476 128.22 133.576 127.644 132.172 127.464C133.36 127.248 134.152 126.744 134.692 125.628C135.376 124.188 135.484 122.352 135.484 120.444C135.484 118.644 135.268 116.916 134.584 115.728C133.72 114.216 132.1 113.568 129.688 113.568H120.616V142.296H129.148C131.812 142.296 133.504 141.936 134.728 140.28C135.7 138.948 135.988 136.644 135.988 134.448ZM129.652 124.908C129.328 125.592 128.932 125.88 128.536 125.88H125.764V117.852H128.176C128.932 117.852 129.364 118.284 129.616 118.896C129.832 119.436 130.048 120.588 130.048 121.74C130.048 123.144 129.868 124.44 129.652 124.908ZM128.32 138.012H125.764V129.912H128.428C129.112 129.912 129.652 130.344 129.976 130.92C130.228 131.388 130.372 132.936 130.372 133.872C130.372 134.772 130.264 136.464 130.012 137.004C129.688 137.724 129.004 138.012 128.32 138.012ZM145.909 135.852C145.909 136.356 145.837 136.968 145.693 137.58C145.513 138.372 144.757 138.696 144.037 138.696C143.317 138.696 142.489 138.264 142.381 137.292C142.273 136.392 142.237 134.952 142.237 134.052H150.409C150.589 130.668 150.337 127.212 149.653 125.52C148.825 123.504 146.917 122.244 144.145 122.244C140.725 122.244 139.213 123.792 138.493 125.556C137.953 126.852 137.557 129.516 137.557 132.504C137.557 135.564 137.809 137.832 138.637 139.74C139.501 141.756 141.553 142.548 144.217 142.548C146.881 142.548 148.501 141.468 149.365 139.92C150.121 138.588 150.301 136.428 150.301 135.852H145.909ZM142.165 130.524C142.165 129.156 142.201 127.86 142.453 127.248C142.705 126.564 143.281 126.204 144.073 126.204C144.901 126.204 145.441 126.6 145.621 127.284C145.765 127.752 145.873 128.724 145.873 130.524H142.165ZM160.156 135.852C160.156 136.356 160.084 136.968 159.94 137.58C159.76 138.372 159.004 138.696 158.284 138.696C157.564 138.696 156.736 138.264 156.628 137.292C156.52 136.392 156.484 134.952 156.484 134.052H164.656C164.836 130.668 164.584 127.212 163.9 125.52C163.072 123.504 161.164 122.244 158.392 122.244C154.972 122.244 153.46 123.792 152.74 125.556C152.2 126.852 151.804 129.516 151.804 132.504C151.804 135.564 152.056 137.832 152.884 139.74C153.748 141.756 155.8 142.548 158.464 142.548C161.128 142.548 162.748 141.468 163.612 139.92C164.368 138.588 164.548 136.428 164.548 135.852H160.156ZM156.412 130.524C156.412 129.156 156.448 127.86 156.7 127.248C156.952 126.564 157.528 126.204 158.32 126.204C159.148 126.204 159.688 126.6 159.868 127.284C160.012 127.752 160.12 128.724 160.12 130.524H156.412ZM174.691 122.244C173.035 122.244 171.379 123.324 171.163 124.836V122.496H166.411V142.296H171.235V130.56C171.235 127.32 172.243 126.6 173.899 126.6C174.871 126.6 175.843 126.78 176.419 126.96V122.424C176.023 122.28 175.447 122.244 174.691 122.244Z" fill="white"/>
<rect x="104" y="1.0304" width="230" height="161.765" stroke="white"/>
</g>
<rect x="1" y="1.0304" width="333" height="161.765" rx="11.5" stroke="white"/>
<defs>
<clipPath id="clip0_2388_31312">
<rect x="0.5" y="0.530396" width="334" height="162.765" rx="12" fill="white"/>
</clipPath>
</defs>
</svg>
