<svg width="100%" height="auto" viewBox="0 0 335 207" fill="none" xmlns="http://www.w3.org/2000/svg">
<g clip-path="url(#clip0_2388_31319)">
<path d="M66.78 79.2239C66.3 72.9839 62.06 69.1439 55.9 69.1439C51.34 69.1439 48.94 70.3439 47.66 72.9039V59.2239H65.18V48.6639H37.34V84.5039H48.14C48.14 81.1439 49.26 79.7039 51.66 79.7039C53.82 79.7039 54.7 80.7439 54.78 83.4639C54.94 86.8239 54.94 97.2239 54.86 99.5439C54.7 102.264 53.9 103.704 51.42 103.704C48.94 103.704 48.14 102.184 47.98 99.4639C47.82 97.2239 47.82 94.2639 47.82 93.6239H36.62C36.7 96.5839 36.62 98.7439 36.78 101.064C37.18 108.504 41.26 113.144 51.42 113.144C62.06 113.144 66.38 107.384 66.78 101.304C67.1 96.1839 67.1 83.3839 66.78 79.2239Z" fill="white"/>
<path d="M38.1123 135.648V132.288H33.7023V133.87H36.4043C36.4043 133.87 36.4183 135.466 36.3903 135.606C36.2083 136.432 35.4663 137.062 34.2763 137.062C33.2963 137.062 32.6943 136.81 32.3163 136.264C31.8683 135.606 31.7423 134.64 31.7423 133.002C31.7423 131.392 31.9383 130.342 32.3303 129.74C32.7083 129.18 33.3103 128.942 34.1503 128.942C34.9343 128.942 35.4803 129.18 35.8023 129.656C36.0963 130.104 36.2643 130.762 36.2643 131.14H38.0563C38.0563 130.65 37.9163 129.684 37.5803 129.012C37.0763 128.018 36.0263 127.276 34.1083 127.276C32.2603 127.276 31.2243 128.046 30.6363 128.956C30.0203 129.922 29.8383 131.252 29.8383 132.974C29.8383 134.976 30.1463 136.264 30.6783 137.104C31.3223 138.112 32.4143 138.644 33.8843 138.644C35.3963 138.644 36.2083 138.112 36.5863 137.552L36.6703 138.504H38.1263C38.1263 138.462 38.1123 136.978 38.1123 135.648ZM46.8892 135.816L47.6592 138.504H49.5632L46.2872 127.416H43.9352L40.4352 138.504H42.3112L43.1232 135.816H46.8892ZM43.6272 134.22C43.6272 134.22 44.8452 130.202 44.8592 130.132C44.8872 130.02 45.0692 129.138 45.0692 129.138C45.0692 129.138 45.2512 130.02 45.2792 130.132C45.3072 130.216 46.4132 134.22 46.4132 134.22H43.6272ZM62.0557 127.416H59.6617L57.1697 135.662L54.7197 127.416H52.1857V138.504H53.9077V130.902L56.1897 138.504H57.9957L60.3197 130.874V138.504H62.0557V127.416ZM72.4428 136.824H67.3888V133.786H72.1628V132.092H67.3888V129.096H72.3868V127.416H65.5688V138.504H72.4428V136.824ZM27.3392 152.33C27.0312 152.218 26.3732 151.966 25.9812 151.84C24.6232 151.392 23.9512 150.958 23.9512 150.09C23.9512 149.348 24.4552 148.9 25.8692 148.9C27.0732 148.9 27.6332 149.236 27.8712 149.922C27.9552 150.174 27.9972 150.384 27.9972 150.622H29.8732C29.8732 150.202 29.8032 149.866 29.7052 149.53C29.3132 148.158 28.1932 147.29 25.9112 147.29C23.2932 147.29 22.0612 148.438 22.0612 150.146C22.0612 151.784 23.1392 152.764 24.8052 153.31C25.2672 153.464 25.9252 153.716 26.2052 153.814C27.6892 154.332 28.1372 154.78 28.1372 155.718C28.1372 156.558 27.5352 157.062 26.1212 157.062C24.9172 157.062 24.2172 156.754 24.0072 156.096C23.9232 155.83 23.8812 155.452 23.8812 155.256H22.0192C22.0192 155.578 22.0472 156.096 22.1452 156.474C22.4812 157.776 23.6012 158.644 26.1632 158.644C28.7532 158.644 30.0272 157.412 30.0272 155.564C30.0272 153.842 29.0752 152.932 27.3392 152.33ZM39.9652 147.416H32.1112V149.082H35.0932V158.504H36.9692V149.082H39.9652V147.416ZM49.8119 148.648C49.4199 147.864 48.6779 147.416 47.4599 147.416H42.6299V158.504H44.4499V153.884H46.8579L48.7899 158.504H50.8199L48.6359 153.478C49.1259 153.38 49.5739 153.03 49.8539 152.498C50.0639 152.078 50.1759 151.462 50.1759 150.622C50.1759 149.726 50.0919 149.18 49.8119 148.648ZM48.1879 151.812C48.0479 152.12 47.6979 152.288 47.2079 152.302H44.4639V149.068H47.0679C47.6979 149.068 48.0899 149.292 48.2439 149.712C48.3139 149.894 48.3419 150.384 48.3419 150.79C48.3419 151.126 48.2859 151.574 48.1879 151.812ZM60.5081 156.824H55.4541V153.786H60.2281V152.092H55.4541V149.096H60.4521V147.416H53.6341V158.504H60.5081V156.824ZM69.1703 155.816L69.9403 158.504H71.8443L68.5683 147.416H66.2163L62.7163 158.504H64.5923L65.4043 155.816H69.1703ZM65.9083 154.22C65.9083 154.22 67.1263 150.202 67.1403 150.132C67.1683 150.02 67.3503 149.138 67.3503 149.138C67.3503 149.138 67.5323 150.02 67.5603 150.132C67.5883 150.216 68.6943 154.22 68.6943 154.22H65.9083ZM78.4008 152.204L82.3908 147.416H80.3188L76.3148 152.134V147.416H74.4668V158.504H76.3148V154.542L77.1268 153.59L80.2908 158.504H82.4748L78.4008 152.204Z" fill="white"/>
<path d="M123.574 30.7139C125.646 30.7139 127.186 29.3839 127.186 27.2419C127.186 25.0439 125.59 23.7839 123.91 23.7839C122.888 23.7839 122.16 24.1059 121.6 24.6799H121.572L122.216 21.7119H126.584V20.5359H121.264L120.186 25.8419H121.474C121.852 25.3659 122.552 24.9179 123.658 24.9179C124.848 24.9179 125.814 25.7719 125.814 27.2139C125.814 28.6279 124.932 29.5519 123.546 29.5519C122.188 29.5519 121.488 28.8379 121.278 27.8299H119.948C120.074 29.4399 121.474 30.7139 123.574 30.7139ZM135.551 33.1359C136.559 33.1359 137.399 32.9119 137.987 32.4219C138.561 31.9319 138.897 31.1899 138.897 30.1959V22.9859H137.609V23.9799H137.581C137.105 23.2239 136.377 22.8039 135.299 22.8039C133.535 22.8039 132.079 24.1759 132.079 26.4859C132.079 28.6699 133.451 30.1679 135.369 30.1679C136.433 30.1679 137.091 29.7059 137.609 28.9639H137.637C137.623 29.2019 137.609 29.6079 137.609 30.0419V30.2519C137.609 31.5259 136.867 32.1279 135.523 32.1279C134.403 32.1279 133.647 31.8059 133.535 31.0219H132.317C132.457 32.3519 133.577 33.1359 135.551 33.1359ZM135.495 29.1039C134.137 29.1039 133.409 28.0959 133.409 26.4999C133.409 24.9179 134.109 23.8819 135.481 23.8819C136.979 23.8819 137.693 24.8479 137.693 26.4299C137.693 27.9559 137.133 29.1039 135.495 29.1039ZM142.939 30.6579C144.213 30.6579 144.983 30.0559 145.459 29.3979H145.473C145.613 30.1959 146.005 30.5739 146.803 30.5739C147.111 30.5739 147.321 30.5179 147.503 30.4619V29.5519H147.447C146.789 29.6919 146.649 29.3699 146.649 28.7679V25.2539C146.649 24.2459 146.271 23.5879 145.641 23.2099C145.165 22.9299 144.535 22.8039 143.821 22.8039C141.791 22.8039 140.825 23.9379 140.769 25.2119H142.029C142.071 24.3159 142.645 23.7559 143.835 23.7559C144.871 23.7559 145.445 24.2599 145.445 25.0719C145.445 25.8419 144.731 26.0239 143.625 26.1499C141.679 26.3879 140.391 26.7659 140.391 28.5159C140.391 29.9579 141.511 30.6579 142.939 30.6579ZM143.261 29.7059C142.505 29.7059 141.763 29.4679 141.763 28.5019C141.763 27.4659 142.575 27.2419 143.807 27.0319C144.423 26.9199 145.081 26.7379 145.459 26.4999V27.7319C145.459 28.5999 144.759 29.7059 143.261 29.7059ZM148.56 30.5039H149.862V25.8699C149.862 24.7219 150.828 23.8959 151.724 23.8959C152.494 23.8959 153.012 24.4419 153.012 25.3659V30.5039H154.3V25.8699C154.3 24.7219 155.126 23.8959 156.078 23.8959C156.834 23.8959 157.436 24.4419 157.436 25.3659V30.5039H158.738V25.2539C158.738 23.6859 157.786 22.8039 156.414 22.8039C155.504 22.8039 154.622 23.2659 154.09 24.2039H154.062C153.754 23.2799 153.026 22.8039 152.116 22.8039C151.15 22.8039 150.352 23.2939 149.89 24.1059H149.848V22.9859H148.56V30.5039ZM163.744 30.7139C165.48 30.7139 166.684 29.7619 167.02 28.3619H165.746C165.508 29.1599 164.794 29.6499 163.758 29.6499C162.302 29.6499 161.504 28.5299 161.406 27.0599H167.174C167.174 25.7859 166.866 24.7079 166.25 23.9659C165.662 23.2379 164.794 22.8039 163.674 22.8039C161.518 22.8039 160.076 24.5679 160.076 26.7519C160.076 28.9499 161.434 30.7139 163.744 30.7139ZM163.674 23.8119C164.976 23.8119 165.718 24.6799 165.788 26.1219H161.434C161.602 24.7919 162.316 23.8119 163.674 23.8119ZM173.905 30.5039H175.221L176.355 26.3599C176.537 25.6459 176.817 24.2599 176.817 24.2599H176.845C176.845 24.2599 177.139 25.6319 177.321 26.3599L178.427 30.5039H179.729L182.179 22.9859H180.835L179.589 27.1579C179.309 28.0819 179.099 29.3699 179.099 29.3699H179.071C179.071 29.3699 178.805 27.9839 178.595 27.1859L177.475 22.9859H176.243L175.109 27.1859C174.857 28.0959 174.605 29.3559 174.605 29.3559H174.577C174.577 29.3559 174.325 28.0119 174.087 27.1579L172.911 22.9859H171.525L173.905 30.5039ZM183.19 21.5999H184.548V20.0879H183.19V21.5999ZM183.218 30.5039H184.52V22.9859H183.218V30.5039ZM187.596 22.9859H186.308V30.5039H187.61V25.9259C187.61 24.7219 188.45 23.8959 189.612 23.8959C190.634 23.8959 191.264 24.4419 191.264 25.4079V30.5039H192.552V25.2539C192.552 23.6859 191.586 22.8039 190.018 22.8039C188.926 22.8039 188.184 23.2939 187.638 24.0499H187.596V22.9859ZM200.909 30.7279C202.673 30.7279 203.933 29.9439 203.933 28.4179C203.933 26.6679 202.645 26.3319 201.147 26.0379C199.873 25.7859 199.145 25.6319 199.145 24.8479C199.145 24.2739 199.579 23.7979 200.601 23.7979C201.679 23.7979 202.211 24.2319 202.323 25.0019H203.625C203.457 23.6999 202.519 22.8179 200.629 22.8179C198.879 22.8179 197.871 23.6299 197.871 24.9179C197.871 26.5699 199.201 26.8779 200.671 27.1859C202.001 27.4519 202.631 27.6619 202.631 28.4879C202.631 29.1599 202.127 29.6779 200.937 29.6779C199.859 29.6779 199.019 29.3139 198.865 28.2219H197.549C197.661 29.7479 198.837 30.7279 200.909 30.7279ZM204.741 23.9939H205.917V29.0339C205.917 30.1399 206.617 30.5459 207.625 30.5599C207.961 30.5599 208.325 30.5179 208.675 30.4339V29.3419H208.633C208.493 29.3839 208.199 29.4399 207.975 29.4399C207.499 29.4399 207.205 29.2859 207.205 28.7399V23.9939H208.759V22.9859H207.205V20.6199H205.917V22.9859H204.741V23.9939ZM211.399 22.9859H210.111V30.5039H211.413V26.4159C211.413 25.0019 212.407 24.1339 213.569 24.1339C213.793 24.1339 213.919 24.1479 214.101 24.2039H214.143V22.9719C214.003 22.9159 213.877 22.8879 213.667 22.8879C212.673 22.8879 211.903 23.4759 211.441 24.3439H211.399V22.9859ZM218.404 30.7139C220.14 30.7139 221.344 29.7619 221.68 28.3619H220.406C220.168 29.1599 219.454 29.6499 218.418 29.6499C216.962 29.6499 216.164 28.5299 216.066 27.0599H221.834C221.834 25.7859 221.526 24.7079 220.91 23.9659C220.322 23.2379 219.454 22.8039 218.334 22.8039C216.178 22.8039 214.736 24.5679 214.736 26.7519C214.736 28.9499 216.094 30.7139 218.404 30.7139ZM218.334 23.8119C219.636 23.8119 220.378 24.6799 220.448 26.1219H216.094C216.262 24.7919 216.976 23.8119 218.334 23.8119ZM225.462 30.6579C226.736 30.6579 227.506 30.0559 227.982 29.3979H227.996C228.136 30.1959 228.528 30.5739 229.326 30.5739C229.634 30.5739 229.844 30.5179 230.026 30.4619V29.5519H229.97C229.312 29.6919 229.172 29.3699 229.172 28.7679V25.2539C229.172 24.2459 228.794 23.5879 228.164 23.2099C227.688 22.9299 227.058 22.8039 226.344 22.8039C224.314 22.8039 223.348 23.9379 223.292 25.2119H224.552C224.594 24.3159 225.168 23.7559 226.358 23.7559C227.394 23.7559 227.968 24.2599 227.968 25.0719C227.968 25.8419 227.254 26.0239 226.148 26.1499C224.202 26.3879 222.914 26.7659 222.914 28.5159C222.914 29.9579 224.034 30.6579 225.462 30.6579ZM225.784 29.7059C225.028 29.7059 224.286 29.4679 224.286 28.5019C224.286 27.4659 225.098 27.2419 226.33 27.0319C226.946 26.9199 227.604 26.7379 227.982 26.4999V27.7319C227.982 28.5999 227.282 29.7059 225.784 29.7059ZM236.026 30.5039H237.552L234.346 25.6879L237.216 22.9859H235.592L232.33 26.1919C232.358 25.8279 232.386 25.2959 232.386 25.0299V20.0879H231.084V30.5039H232.386V27.5499L233.45 26.5419L236.026 30.5039ZM242.39 33.0519H243.692V30.7699C243.692 30.1959 243.678 29.7759 243.664 29.5099H243.706C244.224 30.3079 245.05 30.7279 246.072 30.7279C248.102 30.7279 249.348 29.1739 249.348 26.7659C249.348 24.2879 248.032 22.8039 246.114 22.8039C245.036 22.8039 244.28 23.3079 243.72 24.1619H243.678V22.9859H242.39V33.0519ZM245.932 29.6499C244.266 29.6499 243.622 28.3759 243.622 26.7939C243.622 25.1979 244.35 23.9099 245.946 23.9099C247.332 23.9099 248.018 25.1419 248.018 26.7939C248.018 28.4319 247.318 29.6499 245.932 29.6499ZM252.018 22.9859H250.73V30.5039H252.032V26.4159C252.032 25.0019 253.026 24.1339 254.188 24.1339C254.412 24.1339 254.538 24.1479 254.72 24.2039H254.762V22.9719C254.622 22.9159 254.496 22.8879 254.286 22.8879C253.292 22.8879 252.522 23.4759 252.06 24.3439H252.018V22.9859ZM256.007 21.5999H257.365V20.0879H256.007V21.5999ZM256.035 30.5039H257.337V22.9859H256.035V30.5039ZM258.845 30.5039H264.907V29.3559H261.869C261.323 29.3559 260.371 29.3979 260.371 29.3979V29.3559C260.371 29.3559 261.001 28.6699 261.323 28.2639L264.739 23.7979V22.9859H259.097V24.0919H261.687C262.205 24.0919 263.101 24.0499 263.101 24.0499V24.0919C263.101 24.0919 262.513 24.7219 262.205 25.1139L258.845 29.4959V30.5039ZM269.277 30.7139C271.013 30.7139 272.217 29.7619 272.553 28.3619H271.279C271.041 29.1599 270.327 29.6499 269.291 29.6499C267.835 29.6499 267.037 28.5299 266.939 27.0599H272.707C272.707 25.7859 272.399 24.7079 271.783 23.9659C271.195 23.2379 270.327 22.8039 269.207 22.8039C267.051 22.8039 265.609 24.5679 265.609 26.7519C265.609 28.9499 266.967 30.7139 269.277 30.7139ZM269.207 23.8119C270.509 23.8119 271.251 24.6799 271.321 26.1219H266.967C267.135 24.7919 267.849 23.8119 269.207 23.8119Z" fill="white"/>
<path d="M314.444 26.0283V32.9759C314.444 33.255 314.333 33.5227 314.136 33.7201C313.938 33.9174 313.671 34.0283 313.392 34.0283H298.657C298.378 34.0283 298.111 33.9174 297.913 33.7201C297.716 33.5227 297.605 33.255 297.605 32.9759V26.0283H314.444ZM308.656 14.0319C309.277 14.0317 309.889 14.1888 310.433 14.4886C310.978 14.7884 311.438 15.2211 311.77 15.7465C312.102 16.2719 312.296 16.8728 312.334 17.4932C312.371 18.1137 312.251 18.7336 311.984 19.2952L315.496 19.2941C315.776 19.2941 316.043 19.405 316.241 19.6024C316.438 19.7998 316.549 20.0674 316.549 20.3466V23.5039C316.549 23.783 316.438 24.0507 316.241 24.2481C316.043 24.4455 315.776 24.5563 315.496 24.5563H296.552C296.273 24.5563 296.006 24.4455 295.808 24.2481C295.611 24.0507 295.5 23.783 295.5 23.5039V20.3466C295.5 20.0674 295.611 19.7998 295.808 19.6024C296.006 19.405 296.273 19.2941 296.552 19.2941L300.064 19.2952C299.69 18.5076 299.606 17.6125 299.829 16.7693C300.053 15.9261 300.568 15.1894 301.283 14.6905C301.999 14.1915 302.868 13.9627 303.736 14.0446C304.605 14.1266 305.416 14.514 306.025 15.138C306.368 14.7871 306.777 14.5083 307.228 14.3183C307.68 14.1283 308.165 14.0309 308.656 14.0319ZM303.393 16.1368C302.988 16.137 302.598 16.2932 302.305 16.5729C302.011 16.8527 301.837 17.2347 301.817 17.6396C301.798 18.0446 301.935 18.4415 302.2 18.7481C302.465 19.0548 302.838 19.2476 303.242 19.2868L303.393 19.2941H304.972V17.7155C304.972 17.323 304.826 16.9447 304.562 16.6542C304.298 16.3637 303.935 16.1818 303.545 16.1442L303.393 16.1368ZM308.656 16.1368L308.504 16.1442C308.139 16.1791 307.798 16.3399 307.539 16.5989C307.279 16.858 307.118 17.1991 307.083 17.5639L307.077 17.7155V19.2941H308.656L308.807 19.2868C309.198 19.2489 309.56 19.067 309.824 18.7765C310.087 18.486 310.233 18.1078 310.233 17.7155C310.233 17.3232 310.087 16.9449 309.824 16.6544C309.56 16.3639 309.198 16.182 308.807 16.1442L308.656 16.1368Z" fill="white"/>
<rect x="104" y="0.621338" width="230" height="49.7652" stroke="white"/>
<path d="M130.516 82.8745C129.976 82.3705 128.608 81.1465 127.888 80.4985C126.268 79.0225 125.044 77.6185 125.044 75.6385C125.044 74.1265 125.728 73.4785 127.132 73.4785C128.5 73.4785 129.004 74.1985 129.148 75.3505C129.256 76.2865 129.292 76.9705 129.292 77.6905H134.332C134.332 76.8625 134.188 75.3505 134.116 74.7385C133.684 71.4625 131.74 68.8705 127.168 68.8705C122.632 68.8705 119.896 71.5705 119.896 75.7465C119.896 79.6345 121.264 81.4705 123.856 83.7385C124.612 84.3865 126.088 85.7185 126.448 86.0425C128.572 87.9505 129.292 89.2105 129.292 91.6225C129.292 93.0625 128.536 93.8545 127.132 93.8545C125.836 93.8545 125.188 93.2065 125.044 92.2705C125.008 92.0545 124.972 91.0465 124.972 89.7145H119.968C119.968 91.4425 119.932 91.8025 120.04 93.1345C120.292 96.3385 122.74 98.2105 127.276 98.2105C131.596 98.2105 134.476 95.6185 134.476 91.1545C134.476 87.3025 133.108 85.3225 130.516 82.8745ZM148.863 82.6585C148.863 79.2025 147.171 77.8345 144.723 77.8345C142.743 77.8345 141.627 78.5905 141.087 79.9225V69.1225H136.335V97.8865H141.087V84.0985C141.087 82.7305 141.771 82.0465 142.707 82.0465C143.751 82.0465 144.075 82.6225 144.075 83.5225C144.075 97.3465 144.075 97.8865 144.111 97.8865H148.935C148.899 97.8865 148.863 97.3465 148.863 82.6585ZM163.208 81.8665C162.56 79.5985 160.832 77.8345 157.268 77.8345C153.704 77.8345 151.94 79.7785 151.364 81.7585C150.86 83.4505 150.608 85.8265 150.608 87.9505C150.608 90.1465 150.896 92.8105 151.22 93.9985C151.904 96.4825 153.956 98.1385 157.196 98.1385C160.616 98.1385 162.452 96.5185 163.172 93.9985C163.604 92.5585 163.82 90.1105 163.82 87.9505C163.82 85.8265 163.64 83.3425 163.208 81.8665ZM158.924 92.8105C158.816 93.5665 158.132 94.2145 157.232 94.2145C156.368 94.2145 155.72 93.7465 155.576 92.8465C155.396 91.9105 155.36 89.5705 155.36 88.0225C155.36 86.5465 155.396 84.1345 155.576 83.3065C155.792 82.4065 156.296 81.9025 157.232 81.9025C158.204 81.9025 158.708 82.2985 158.924 83.2345C159.068 83.9905 159.14 86.5105 159.14 88.0225C159.14 89.5345 159.176 91.0825 158.924 92.8105ZM178.091 80.6065C177.407 78.6625 176.111 77.8345 174.059 77.8345C172.223 77.8345 170.891 78.5185 170.351 79.5985L170.315 78.0865H165.743V103.754H170.459V96.7705C171.107 97.4185 172.187 97.9225 173.879 97.9225C176.111 97.9225 177.551 96.8425 178.271 94.6105C178.703 93.2425 178.955 90.5065 178.955 87.6625C178.955 84.6745 178.667 82.1545 178.091 80.6065ZM173.807 92.6665C173.663 93.3865 173.159 94.0705 172.223 94.0705C171.395 94.0705 170.855 93.6385 170.711 92.7025C170.495 91.3705 170.423 90.0745 170.423 87.8065C170.423 85.7545 170.567 84.2785 170.819 83.2345C170.999 82.5145 171.395 81.9385 172.259 81.9385C173.123 81.9385 173.555 82.3705 173.735 83.0185C174.023 84.0985 174.095 85.7185 174.095 87.8065C174.095 90.1465 174.023 91.4425 173.807 92.6665ZM196.35 90.0385C196.35 88.2385 196.134 86.1505 195.486 84.9985C194.838 83.8105 193.938 83.2345 192.534 83.0545C193.722 82.8385 194.514 82.3345 195.054 81.2185C195.738 79.7785 195.846 77.9425 195.846 76.0345C195.846 74.2345 195.63 72.5065 194.946 71.3185C194.082 69.8065 192.462 69.1585 190.05 69.1585H180.978V97.8865H189.51C192.174 97.8865 193.866 97.5265 195.09 95.8705C196.062 94.5385 196.35 92.2345 196.35 90.0385ZM190.014 80.4985C189.69 81.1825 189.294 81.4705 188.898 81.4705H186.126V73.4425H188.538C189.294 73.4425 189.726 73.8745 189.978 74.4865C190.194 75.0265 190.41 76.1785 190.41 77.3305C190.41 78.7345 190.23 80.0305 190.014 80.4985ZM188.682 93.6025H186.126V85.5025H188.79C189.474 85.5025 190.014 85.9345 190.338 86.5105C190.59 86.9785 190.734 88.5265 190.734 89.4625C190.734 90.3625 190.626 92.0545 190.374 92.5945C190.05 93.3145 189.366 93.6025 188.682 93.6025ZM206.271 91.4425C206.271 91.9465 206.199 92.5585 206.055 93.1705C205.875 93.9625 205.119 94.2865 204.399 94.2865C203.679 94.2865 202.851 93.8545 202.743 92.8825C202.635 91.9825 202.599 90.5425 202.599 89.6425H210.771C210.951 86.2585 210.699 82.8025 210.015 81.1105C209.187 79.0945 207.279 77.8345 204.507 77.8345C201.087 77.8345 199.575 79.3825 198.855 81.1465C198.315 82.4425 197.919 85.1065 197.919 88.0945C197.919 91.1545 198.171 93.4225 198.999 95.3305C199.863 97.3465 201.915 98.1385 204.579 98.1385C207.243 98.1385 208.863 97.0585 209.727 95.5105C210.483 94.1785 210.663 92.0185 210.663 91.4425H206.271ZM202.527 86.1145C202.527 84.7465 202.563 83.4505 202.815 82.8385C203.067 82.1545 203.643 81.7945 204.435 81.7945C205.263 81.7945 205.803 82.1905 205.983 82.8745C206.127 83.3425 206.235 84.3145 206.235 86.1145H202.527ZM220.518 91.4425C220.518 91.9465 220.446 92.5585 220.302 93.1705C220.122 93.9625 219.366 94.2865 218.646 94.2865C217.926 94.2865 217.098 93.8545 216.99 92.8825C216.882 91.9825 216.846 90.5425 216.846 89.6425H225.018C225.198 86.2585 224.946 82.8025 224.262 81.1105C223.434 79.0945 221.526 77.8345 218.754 77.8345C215.334 77.8345 213.822 79.3825 213.102 81.1465C212.562 82.4425 212.166 85.1065 212.166 88.0945C212.166 91.1545 212.418 93.4225 213.246 95.3305C214.11 97.3465 216.162 98.1385 218.826 98.1385C221.49 98.1385 223.11 97.0585 223.974 95.5105C224.73 94.1785 224.91 92.0185 224.91 91.4425H220.518ZM216.774 86.1145C216.774 84.7465 216.81 83.4505 217.062 82.8385C217.314 82.1545 217.89 81.7945 218.682 81.7945C219.51 81.7945 220.05 82.1905 220.23 82.8745C220.374 83.3425 220.482 84.3145 220.482 86.1145H216.774ZM235.052 77.8345C233.396 77.8345 231.74 78.9145 231.524 80.4265V78.0865H226.772V97.8865H231.596V86.1505C231.596 82.9105 232.604 82.1905 234.26 82.1905C235.232 82.1905 236.204 82.3705 236.78 82.5505V78.0145C236.384 77.8705 235.808 77.8345 235.052 77.8345ZM252.936 91.1905V81.6505H245.052V86.1865H247.968C247.968 86.1865 248.004 90.8665 247.968 91.4785C247.896 92.9545 247.032 93.7105 245.7 93.7105C244.512 93.7105 243.9 93.0985 243.648 91.8025C243.216 89.5345 243.216 85.7905 243.216 83.5945C243.216 81.2545 243.252 77.7985 243.612 75.3145C243.792 74.0905 244.584 73.5505 245.592 73.5505C246.708 73.5505 247.392 74.1625 247.5 75.3145C247.644 76.7905 247.644 78.7705 247.644 78.9865H252.792C252.792 76.4305 252.684 74.9905 252.468 73.6945C252.036 71.1025 250.128 68.9065 245.484 68.9065C240.948 68.9065 239.04 71.4625 238.428 73.7665C237.78 76.2505 237.708 80.6065 237.708 83.5945C237.708 86.6905 237.816 90.7225 238.428 93.3145C239.184 96.4825 241.452 98.1385 244.476 98.1385C246.672 98.1385 248.148 97.5265 248.868 96.5905L249.12 97.8865H253.008C253.008 97.8505 252.936 94.5025 252.936 91.1905ZM262.871 91.4425C262.871 91.9465 262.799 92.5585 262.655 93.1705C262.475 93.9625 261.719 94.2865 260.999 94.2865C260.279 94.2865 259.451 93.8545 259.343 92.8825C259.235 91.9825 259.199 90.5425 259.199 89.6425H267.371C267.551 86.2585 267.299 82.8025 266.615 81.1105C265.787 79.0945 263.879 77.8345 261.107 77.8345C257.687 77.8345 256.175 79.3825 255.455 81.1465C254.915 82.4425 254.519 85.1065 254.519 88.0945C254.519 91.1545 254.771 93.4225 255.599 95.3305C256.463 97.3465 258.515 98.1385 261.179 98.1385C263.843 98.1385 265.463 97.0585 266.327 95.5105C267.083 94.1785 267.263 92.0185 267.263 91.4425H262.871ZM259.127 86.1145C259.127 84.7465 259.163 83.4505 259.415 82.8385C259.667 82.1545 260.243 81.7945 261.035 81.7945C261.863 81.7945 262.403 82.1905 262.583 82.8745C262.727 83.3425 262.835 84.3145 262.835 86.1145H259.127ZM281.474 94.3585C281.474 92.8825 281.51 90.4705 281.51 88.9225C281.546 87.0865 281.582 84.0985 281.51 82.3705C281.402 79.5985 279.674 77.8345 275.534 77.8345C271.142 77.8345 269.342 79.8145 269.342 83.5225V84.9985H273.806V83.8825C273.806 82.5145 274.238 81.8305 275.462 81.8305C276.362 81.8305 276.83 82.3345 276.866 83.1985C276.902 83.8105 276.902 85.0345 276.902 85.5745C276.11 85.5745 275.282 85.6825 274.382 85.8265C271.07 86.4385 268.838 88.2385 268.658 91.1185C268.586 92.1625 268.622 93.8545 268.658 94.2865C268.802 97.1665 270.998 98.0305 272.978 98.0305C274.742 98.0305 276.074 97.5625 276.974 96.4465C276.974 96.9505 277.082 97.8865 277.154 97.8865H281.726C281.546 97.6345 281.474 95.7985 281.474 94.3585ZM276.902 90.3265C276.83 91.3345 276.902 91.8385 276.722 92.8825C276.542 93.8905 275.678 94.2865 274.922 94.2865C274.202 94.2865 273.626 94.0345 273.518 93.3505C273.446 92.7745 273.446 92.0905 273.446 91.5505C273.446 90.7225 273.482 90.1465 274.094 89.6065C274.634 89.1385 275.246 89.0305 275.75 88.9225C276.182 88.8505 276.542 88.8505 276.902 88.8505C276.902 89.1385 276.938 89.9305 276.902 90.3265ZM291.934 77.8345C290.278 77.8345 288.622 78.9145 288.406 80.4265V78.0865H283.654V97.8865H288.478V86.1505C288.478 82.9105 289.486 82.1905 291.142 82.1905C292.114 82.1905 293.086 82.3705 293.662 82.5505V78.0145C293.266 77.8705 292.69 77.8345 291.934 77.8345ZM135.376 135.19V125.65H127.492V130.186H130.408C130.408 130.186 130.444 134.866 130.408 135.478C130.336 136.954 129.472 137.71 128.14 137.71C126.952 137.71 126.34 137.098 126.088 135.802C125.656 133.534 125.656 129.79 125.656 127.594C125.656 125.254 125.692 121.798 126.052 119.314C126.232 118.09 127.024 117.55 128.032 117.55C129.148 117.55 129.832 118.162 129.94 119.314C130.084 120.79 130.084 122.77 130.084 122.986H135.232C135.232 120.43 135.124 118.99 134.908 117.694C134.476 115.102 132.568 112.906 127.924 112.906C123.388 112.906 121.48 115.462 120.868 117.766C120.22 120.25 120.148 124.606 120.148 127.594C120.148 130.69 120.256 134.722 120.868 137.314C121.624 140.482 123.892 142.138 126.916 142.138C129.112 142.138 130.588 141.526 131.308 140.59L131.56 141.886H135.448C135.448 141.85 135.376 138.502 135.376 135.19ZM142.395 116.182H137.319V121.042H142.395V116.182ZM142.323 140.446V122.086H137.391V140.518C137.391 141.31 137.391 141.886 137.571 141.886H142.431C142.395 141.85 142.323 141.202 142.323 140.446ZM153.029 122.086H150.437V118.414C150.437 117.694 150.869 116.902 151.841 116.902C152.237 116.902 152.813 116.938 153.281 117.01V113.086C152.741 113.014 151.697 112.978 150.437 112.978C146.873 112.978 145.613 115.102 145.613 117.802V122.086H143.849V126.298H145.613V141.886H150.437V126.298H153.029V122.086ZM162.989 122.086H160.217V118.27L155.537 118.378C155.537 118.378 155.393 121.978 155.357 122.086H153.593V126.298H155.285V137.566C155.285 140.662 157.013 142.03 159.965 142.03C161.225 142.03 162.017 141.958 162.773 141.778V137.926C162.413 137.998 161.945 138.034 161.549 138.034C160.793 138.034 160.181 137.818 160.181 136.702V126.298H162.989V122.086ZM180.478 131.518C180.478 132.166 180.442 134.002 180.262 135.478C180.082 136.918 179.218 137.386 178.21 137.386C177.238 137.386 176.374 136.882 176.122 135.586C175.798 133.786 175.726 130.474 175.726 127.342C175.726 123.31 175.798 120.79 176.122 119.458C176.374 118.45 177.022 117.874 178.21 117.874C179.254 117.874 179.938 118.486 180.082 119.386C180.334 120.826 180.442 122.374 180.442 123.706H185.554C185.554 121.942 185.446 120.286 185.266 118.918C184.762 115.102 182.746 112.942 178.318 112.942C174.07 112.942 171.766 114.706 171.046 118.126C170.398 121.186 170.218 123.526 170.218 127.378C170.218 131.158 170.506 135.478 171.226 137.782C172.018 140.446 173.998 142.21 178.03 142.21C182.458 142.21 184.618 140.266 185.266 136.774C185.59 134.938 185.59 132.49 185.59 131.518H180.478ZM199.807 138.358C199.807 136.882 199.843 134.47 199.843 132.922C199.879 131.086 199.915 128.098 199.843 126.37C199.735 123.598 198.007 121.834 193.867 121.834C189.475 121.834 187.675 123.814 187.675 127.522V128.998H192.139V127.882C192.139 126.514 192.571 125.83 193.795 125.83C194.695 125.83 195.163 126.334 195.199 127.198C195.235 127.81 195.235 129.034 195.235 129.574C194.443 129.574 193.615 129.682 192.715 129.826C189.403 130.438 187.171 132.238 186.991 135.118C186.919 136.162 186.955 137.854 186.991 138.286C187.135 141.166 189.331 142.03 191.311 142.03C193.075 142.03 194.407 141.562 195.307 140.446C195.307 140.95 195.415 141.886 195.487 141.886H200.059C199.879 141.634 199.807 139.798 199.807 138.358ZM195.235 134.326C195.163 135.334 195.235 135.838 195.055 136.882C194.875 137.89 194.011 138.286 193.255 138.286C192.535 138.286 191.959 138.034 191.851 137.35C191.779 136.774 191.779 136.09 191.779 135.55C191.779 134.722 191.815 134.146 192.427 133.606C192.967 133.138 193.579 133.03 194.083 132.922C194.515 132.85 194.875 132.85 195.235 132.85C195.235 133.138 195.271 133.93 195.235 134.326ZM210.267 121.834C208.611 121.834 206.955 122.914 206.739 124.426V122.086H201.987V141.886H206.811V130.15C206.811 126.91 207.819 126.19 209.475 126.19C210.447 126.19 211.419 126.37 211.995 126.55V122.014C211.599 121.87 211.023 121.834 210.267 121.834ZM213.466 125.002C212.89 127.162 212.71 129.142 212.71 132.058C212.71 135.226 213.07 137.854 213.718 139.438C214.438 141.238 215.77 142.03 217.75 142.03C219.514 142.03 220.702 141.454 221.35 140.446L221.926 141.886H225.958C225.958 141.886 225.814 140.23 225.814 139.114V113.122H221.098V123.526C220.558 122.482 219.262 121.906 217.75 121.906C215.626 121.906 213.97 123.058 213.466 125.002ZM220.774 127.09C220.99 128.17 221.134 129.25 221.134 132.094C221.134 133.822 221.062 135.622 220.81 136.882C220.666 137.638 220.198 138.214 219.262 138.214C218.29 138.214 217.786 137.746 217.678 136.99C217.498 135.514 217.426 133.75 217.426 132.094C217.426 130.402 217.498 128.71 217.75 127.27C217.894 126.55 218.398 126.01 219.298 126.01C220.198 126.01 220.63 126.406 220.774 127.09ZM245.387 125.65H241.463V121.222H237.215V125.65H233.219V129.862H237.215V134.326H241.427V129.862H245.387V125.65ZM267.586 113.158H262.69V127.198L258.19 113.158H253.186V141.886H258.082V127.558L262.618 141.886H267.586V113.158ZM282.883 113.158H270.175V141.886H275.431V129.898H282.307V125.074H275.431V118.09H282.883V113.158ZM297.449 137.026H289.853V113.158H284.597V141.886H297.449V137.026ZM129.688 178.938L130.624 185.886H135.952L131.668 157.158H124.288L119.5 185.886H124.756L125.764 178.938H129.688ZM126.268 174.69C126.268 174.69 127.564 166.338 127.564 166.194C127.816 164.646 127.888 161.838 127.888 161.838C127.888 161.838 127.96 164.682 128.14 166.194C128.14 166.338 129.22 174.69 129.22 174.69H126.268ZM142.071 184.41V158.346C142.071 157.698 141.999 157.194 141.963 157.122H137.103C137.211 157.374 137.211 158.238 137.211 158.85V184.518C137.211 185.238 137.283 185.778 137.427 185.886C137.427 185.922 142.251 185.886 142.251 185.886C142.107 185.778 142.071 185.31 142.071 184.41ZM148.935 184.41V158.346C148.935 157.698 148.863 157.194 148.827 157.122H143.967C144.075 157.374 144.075 158.238 144.075 158.85V184.518C144.075 185.238 144.147 185.778 144.291 185.886C144.291 185.922 149.115 185.886 149.115 185.886C148.971 185.778 148.935 185.31 148.935 184.41ZM171.724 170.91C171.724 166.41 171.544 161.406 170.428 159.786C169.168 157.914 167.548 157.158 164.488 157.158H157.072V185.886H165.136C168.088 185.886 169.492 184.77 170.428 183.15C171.544 181.242 171.724 176.85 171.724 170.91ZM164.56 181.746H162.256V161.622H164.344C165.388 161.622 166.036 162.126 166.324 163.314C166.576 164.286 166.684 169.47 166.684 170.91C166.684 172.386 166.612 179.118 166.36 180.27C166.108 181.314 165.496 181.746 164.56 181.746ZM185.947 182.358C185.947 180.882 185.983 178.47 185.983 176.922C186.019 175.086 186.055 172.098 185.983 170.37C185.875 167.598 184.147 165.834 180.007 165.834C175.615 165.834 173.815 167.814 173.815 171.522V172.998H178.279V171.882C178.279 170.514 178.711 169.83 179.935 169.83C180.835 169.83 181.303 170.334 181.339 171.198C181.375 171.81 181.375 173.034 181.375 173.574C180.583 173.574 179.755 173.682 178.855 173.826C175.543 174.438 173.311 176.238 173.131 179.118C173.059 180.162 173.095 181.854 173.131 182.286C173.275 185.166 175.471 186.03 177.451 186.03C179.215 186.03 180.547 185.562 181.447 184.446C181.447 184.95 181.555 185.886 181.627 185.886H186.199C186.019 185.634 185.947 183.798 185.947 182.358ZM181.375 178.326C181.303 179.334 181.375 179.838 181.195 180.882C181.015 181.89 180.151 182.286 179.395 182.286C178.675 182.286 178.099 182.034 177.991 181.35C177.919 180.774 177.919 180.09 177.919 179.55C177.919 178.722 177.955 178.146 178.567 177.606C179.107 177.138 179.719 177.03 180.223 176.922C180.655 176.85 181.015 176.85 181.375 176.85C181.375 177.138 181.411 177.93 181.375 178.326ZM196.455 166.086C196.419 166.698 194.115 178.398 194.043 178.83C194.007 178.434 191.703 166.59 191.631 166.086H186.735L191.451 185.346L189.831 191.754H194.763L201.243 166.086H196.455ZM222.145 159.75C221.317 158.058 219.445 157.158 217.249 157.158H208.609V185.886H213.829V173.934H215.701L218.581 185.886H224.017L220.525 172.494C221.245 172.242 222.037 171.45 222.469 170.334C222.901 169.29 223.153 167.742 223.153 165.474C223.153 162.918 222.757 160.938 222.145 159.75ZM217.573 168.57C217.429 169.074 217.033 169.398 216.349 169.47C216.169 169.506 213.829 169.506 213.829 169.506V161.946H216.205C217.069 161.946 217.537 162.522 217.717 163.314C217.789 163.674 217.861 165.006 217.861 165.978C217.861 166.842 217.789 168.066 217.573 168.57ZM233.129 179.442C233.129 179.946 233.057 180.558 232.913 181.17C232.733 181.962 231.977 182.286 231.257 182.286C230.537 182.286 229.709 181.854 229.601 180.882C229.493 179.982 229.457 178.542 229.457 177.642H237.629C237.809 174.258 237.557 170.802 236.873 169.11C236.045 167.094 234.137 165.834 231.365 165.834C227.945 165.834 226.433 167.382 225.713 169.146C225.173 170.442 224.777 173.106 224.777 176.094C224.777 179.154 225.029 181.422 225.857 183.33C226.721 185.346 228.773 186.138 231.437 186.138C234.101 186.138 235.721 185.058 236.585 183.51C237.341 182.178 237.521 180.018 237.521 179.442H233.129ZM229.385 174.114C229.385 172.746 229.421 171.45 229.673 170.838C229.925 170.154 230.501 169.794 231.293 169.794C232.121 169.794 232.661 170.19 232.841 170.874C232.985 171.342 233.093 172.314 233.093 174.114H229.385ZM255.339 166.086L253.755 180.63L251.667 166.086H246.735L244.899 180.63L243.063 166.086H238.167L241.731 185.886H247.491C247.491 185.886 248.751 178.866 249.147 176.526C249.183 176.31 249.219 174.474 249.219 174.474C249.219 174.474 249.327 176.31 249.363 176.526C249.759 178.794 250.983 185.886 250.983 185.886H256.671L260.127 166.086H255.339ZM273.221 182.358C273.221 180.882 273.257 178.47 273.257 176.922C273.293 175.086 273.329 172.098 273.257 170.37C273.149 167.598 271.421 165.834 267.281 165.834C262.889 165.834 261.089 167.814 261.089 171.522V172.998H265.553V171.882C265.553 170.514 265.985 169.83 267.209 169.83C268.109 169.83 268.577 170.334 268.613 171.198C268.649 171.81 268.649 173.034 268.649 173.574C267.857 173.574 267.029 173.682 266.129 173.826C262.817 174.438 260.585 176.238 260.405 179.118C260.333 180.162 260.369 181.854 260.405 182.286C260.549 185.166 262.745 186.03 264.725 186.03C266.489 186.03 267.821 185.562 268.721 184.446C268.721 184.95 268.829 185.886 268.901 185.886H273.473C273.293 185.634 273.221 183.798 273.221 182.358ZM268.649 178.326C268.577 179.334 268.649 179.838 268.469 180.882C268.289 181.89 267.425 182.286 266.669 182.286C265.949 182.286 265.373 182.034 265.265 181.35C265.193 180.774 265.193 180.09 265.193 179.55C265.193 178.722 265.229 178.146 265.841 177.606C266.381 177.138 266.993 177.03 267.497 176.922C267.929 176.85 268.289 176.85 268.649 176.85C268.649 177.138 268.685 177.93 268.649 178.326ZM283.681 165.834C282.025 165.834 280.369 166.914 280.153 168.426V166.086H275.401V185.886H280.225V174.15C280.225 170.91 281.233 170.19 282.889 170.19C283.861 170.19 284.833 170.37 285.409 170.55V166.014C285.013 165.87 284.437 165.834 283.681 165.834ZM286.879 169.002C286.303 171.162 286.123 173.142 286.123 176.058C286.123 179.226 286.483 181.854 287.131 183.438C287.851 185.238 289.183 186.03 291.163 186.03C292.927 186.03 294.115 185.454 294.763 184.446L295.339 185.886H299.371C299.371 185.886 299.227 184.23 299.227 183.114V157.122H294.511V167.526C293.971 166.482 292.675 165.906 291.163 165.906C289.039 165.906 287.383 167.058 286.879 169.002ZM294.187 171.09C294.403 172.17 294.547 173.25 294.547 176.094C294.547 177.822 294.475 179.622 294.223 180.882C294.079 181.638 293.611 182.214 292.675 182.214C291.703 182.214 291.199 181.746 291.091 180.99C290.911 179.514 290.839 177.75 290.839 176.094C290.839 174.402 290.911 172.71 291.163 171.27C291.307 170.55 291.811 170.01 292.711 170.01C293.611 170.01 294.043 170.406 294.187 171.09Z" fill="white"/>
<rect x="104" y="0.621338" width="230" height="205.765" stroke="white"/>
</g>
<rect x="1" y="0.621338" width="333" height="205.765" rx="11.5" stroke="white"/>
<defs>
<clipPath id="clip0_2388_31319">
<rect x="0.5" y="0.121338" width="334" height="206.765" rx="12" fill="white"/>
</clipPath>
</defs>
</svg>
