<svg width="100%" height="auto" viewBox="0 0 335 164" fill="none" xmlns="http://www.w3.org/2000/svg">
<g clip-path="url(#clip0_2388_31320)">
<path d="M68.98 68.389H63.78V27.349H51.54L35.06 67.749V78.229H52.98V91.269H63.78V78.229H68.98V68.389ZM44.74 68.389L52.98 48.229V68.389H44.74Z" fill="white"/>
<path d="M38.1123 114.413V111.053H33.7023V112.635H36.4043C36.4043 112.635 36.4183 114.231 36.3903 114.371C36.2083 115.197 35.4663 115.827 34.2763 115.827C33.2963 115.827 32.6943 115.575 32.3163 115.029C31.8683 114.371 31.7423 113.405 31.7423 111.767C31.7423 110.157 31.9383 109.107 32.3303 108.505C32.7083 107.945 33.3103 107.707 34.1503 107.707C34.9343 107.707 35.4803 107.945 35.8023 108.421C36.0963 108.869 36.2643 109.527 36.2643 109.905H38.0563C38.0563 109.415 37.9163 108.449 37.5803 107.777C37.0763 106.783 36.0263 106.041 34.1083 106.041C32.2603 106.041 31.2243 106.811 30.6363 107.721C30.0203 108.687 29.8383 110.017 29.8383 111.739C29.8383 113.741 30.1463 115.029 30.6783 115.869C31.3223 116.877 32.4143 117.409 33.8843 117.409C35.3963 117.409 36.2083 116.877 36.5863 116.317L36.6703 117.269H38.1263C38.1263 117.227 38.1123 115.743 38.1123 114.413ZM46.8892 114.581L47.6592 117.269H49.5632L46.2872 106.181H43.9352L40.4352 117.269H42.3112L43.1232 114.581H46.8892ZM43.6272 112.985C43.6272 112.985 44.8452 108.967 44.8592 108.897C44.8872 108.785 45.0692 107.903 45.0692 107.903C45.0692 107.903 45.2512 108.785 45.2792 108.897C45.3072 108.981 46.4132 112.985 46.4132 112.985H43.6272ZM62.0557 106.181H59.6617L57.1697 114.427L54.7197 106.181H52.1857V117.269H53.9077V109.667L56.1897 117.269H57.9957L60.3197 109.639V117.269H62.0557V106.181ZM72.4428 115.589H67.3888V112.551H72.1628V110.857H67.3888V107.861H72.3868V106.181H65.5688V117.269H72.4428V115.589ZM27.3392 131.095C27.0312 130.983 26.3732 130.731 25.9812 130.605C24.6232 130.157 23.9512 129.723 23.9512 128.855C23.9512 128.113 24.4552 127.665 25.8692 127.665C27.0732 127.665 27.6332 128.001 27.8712 128.687C27.9552 128.939 27.9972 129.149 27.9972 129.387H29.8732C29.8732 128.967 29.8032 128.631 29.7052 128.295C29.3132 126.923 28.1932 126.055 25.9112 126.055C23.2932 126.055 22.0612 127.203 22.0612 128.911C22.0612 130.549 23.1392 131.529 24.8052 132.075C25.2672 132.229 25.9252 132.481 26.2052 132.579C27.6892 133.097 28.1372 133.545 28.1372 134.483C28.1372 135.323 27.5352 135.827 26.1212 135.827C24.9172 135.827 24.2172 135.519 24.0072 134.861C23.9232 134.595 23.8812 134.217 23.8812 134.021H22.0192C22.0192 134.343 22.0472 134.861 22.1452 135.239C22.4812 136.541 23.6012 137.409 26.1632 137.409C28.7532 137.409 30.0272 136.177 30.0272 134.329C30.0272 132.607 29.0752 131.697 27.3392 131.095ZM39.9652 126.181H32.1112V127.847H35.0932V137.269H36.9692V127.847H39.9652V126.181ZM49.8119 127.413C49.4199 126.629 48.6779 126.181 47.4599 126.181H42.6299V137.269H44.4499V132.649H46.8579L48.7899 137.269H50.8199L48.6359 132.243C49.1259 132.145 49.5739 131.795 49.8539 131.263C50.0639 130.843 50.1759 130.227 50.1759 129.387C50.1759 128.491 50.0919 127.945 49.8119 127.413ZM48.1879 130.577C48.0479 130.885 47.6979 131.053 47.2079 131.067H44.4639V127.833H47.0679C47.6979 127.833 48.0899 128.057 48.2439 128.477C48.3139 128.659 48.3419 129.149 48.3419 129.555C48.3419 129.891 48.2859 130.339 48.1879 130.577ZM60.5081 135.589H55.4541V132.551H60.2281V130.857H55.4541V127.861H60.4521V126.181H53.6341V137.269H60.5081V135.589ZM69.1703 134.581L69.9403 137.269H71.8443L68.5683 126.181H66.2163L62.7163 137.269H64.5923L65.4043 134.581H69.1703ZM65.9083 132.985C65.9083 132.985 67.1263 128.967 67.1403 128.897C67.1683 128.785 67.3503 127.903 67.3503 127.903C67.3503 127.903 67.5323 128.785 67.5603 128.897C67.5883 128.981 68.6943 132.985 68.6943 132.985H65.9083ZM78.4008 130.969L82.3908 126.181H80.3188L76.3148 130.899V126.181H74.4668V137.269H76.3148V133.307L77.1268 132.355L80.2908 137.269H82.4748L78.4008 130.969Z" fill="white"/>
<path d="M124.918 31.269H126.234V28.847H127.858V27.797H126.234V21.189H125.128L120.088 27.643V28.847H124.918V31.269ZM121.18 27.853V27.825C121.18 27.825 121.852 27.083 122.244 26.593L124.092 24.241C124.498 23.723 124.96 22.939 124.96 22.939H124.988C124.988 22.939 124.918 23.877 124.918 24.409V27.797H122.664C122.09 27.797 121.18 27.853 121.18 27.853ZM136.015 33.901C137.023 33.901 137.863 33.677 138.451 33.187C139.025 32.697 139.361 31.955 139.361 30.961V23.751H138.073V24.745H138.045C137.569 23.989 136.841 23.569 135.763 23.569C133.999 23.569 132.543 24.941 132.543 27.251C132.543 29.435 133.915 30.933 135.833 30.933C136.897 30.933 137.555 30.471 138.073 29.729H138.101C138.087 29.967 138.073 30.373 138.073 30.807V31.017C138.073 32.291 137.331 32.893 135.987 32.893C134.867 32.893 134.111 32.571 133.999 31.787H132.781C132.921 33.117 134.041 33.901 136.015 33.901ZM135.959 29.869C134.601 29.869 133.873 28.861 133.873 27.265C133.873 25.683 134.573 24.647 135.945 24.647C137.443 24.647 138.157 25.613 138.157 27.195C138.157 28.721 137.597 29.869 135.959 29.869ZM143.404 31.423C144.678 31.423 145.448 30.821 145.924 30.163H145.938C146.078 30.961 146.47 31.339 147.268 31.339C147.576 31.339 147.786 31.283 147.968 31.227V30.317H147.912C147.254 30.457 147.114 30.135 147.114 29.533V26.019C147.114 25.011 146.736 24.353 146.106 23.975C145.63 23.695 145 23.569 144.286 23.569C142.256 23.569 141.29 24.703 141.234 25.977H142.494C142.536 25.081 143.11 24.521 144.3 24.521C145.336 24.521 145.91 25.025 145.91 25.837C145.91 26.607 145.196 26.789 144.09 26.915C142.144 27.153 140.856 27.531 140.856 29.281C140.856 30.723 141.976 31.423 143.404 31.423ZM143.726 30.471C142.97 30.471 142.228 30.233 142.228 29.267C142.228 28.231 143.04 28.007 144.272 27.797C144.888 27.685 145.546 27.503 145.924 27.265V28.497C145.924 29.365 145.224 30.471 143.726 30.471ZM149.025 31.269H150.327V26.635C150.327 25.487 151.293 24.661 152.189 24.661C152.959 24.661 153.477 25.207 153.477 26.131V31.269H154.765V26.635C154.765 25.487 155.591 24.661 156.543 24.661C157.299 24.661 157.901 25.207 157.901 26.131V31.269H159.203V26.019C159.203 24.451 158.251 23.569 156.879 23.569C155.969 23.569 155.087 24.031 154.555 24.969H154.527C154.219 24.045 153.491 23.569 152.581 23.569C151.615 23.569 150.817 24.059 150.355 24.871H150.313V23.751H149.025V31.269ZM164.209 31.479C165.945 31.479 167.149 30.527 167.485 29.127H166.211C165.973 29.925 165.259 30.415 164.223 30.415C162.767 30.415 161.969 29.295 161.871 27.825H167.639C167.639 26.551 167.331 25.473 166.715 24.731C166.127 24.003 165.259 23.569 164.139 23.569C161.983 23.569 160.541 25.333 160.541 27.517C160.541 29.715 161.899 31.479 164.209 31.479ZM164.139 24.577C165.441 24.577 166.183 25.445 166.253 26.887H161.899C162.067 25.557 162.781 24.577 164.139 24.577ZM174.37 31.269H175.686L176.82 27.125C177.002 26.411 177.282 25.025 177.282 25.025H177.31C177.31 25.025 177.604 26.397 177.786 27.125L178.892 31.269H180.194L182.644 23.751H181.3L180.054 27.923C179.774 28.847 179.564 30.135 179.564 30.135H179.536C179.536 30.135 179.27 28.749 179.06 27.951L177.94 23.751H176.708L175.574 27.951C175.322 28.861 175.07 30.121 175.07 30.121H175.042C175.042 30.121 174.79 28.777 174.552 27.923L173.376 23.751H171.99L174.37 31.269ZM183.655 22.365H185.013V20.853H183.655V22.365ZM183.683 31.269H184.985V23.751H183.683V31.269ZM188.061 23.751H186.773V31.269H188.075V26.691C188.075 25.487 188.915 24.661 190.077 24.661C191.099 24.661 191.729 25.207 191.729 26.173V31.269H193.017V26.019C193.017 24.451 192.051 23.569 190.483 23.569C189.391 23.569 188.649 24.059 188.103 24.815H188.061V23.751ZM201.374 31.493C203.138 31.493 204.398 30.709 204.398 29.183C204.398 27.433 203.11 27.097 201.612 26.803C200.338 26.551 199.61 26.397 199.61 25.613C199.61 25.039 200.044 24.563 201.066 24.563C202.144 24.563 202.676 24.997 202.788 25.767H204.09C203.922 24.465 202.984 23.583 201.094 23.583C199.344 23.583 198.336 24.395 198.336 25.683C198.336 27.335 199.666 27.643 201.136 27.951C202.466 28.217 203.096 28.427 203.096 29.253C203.096 29.925 202.592 30.443 201.402 30.443C200.324 30.443 199.484 30.079 199.33 28.987H198.014C198.126 30.513 199.302 31.493 201.374 31.493ZM205.205 24.759H206.381V29.799C206.381 30.905 207.081 31.311 208.089 31.325C208.425 31.325 208.789 31.283 209.139 31.199V30.107H209.097C208.957 30.149 208.663 30.205 208.439 30.205C207.963 30.205 207.669 30.051 207.669 29.505V24.759H209.223V23.751H207.669V21.385H206.381V23.751H205.205V24.759ZM211.864 23.751H210.576V31.269H211.878V27.181C211.878 25.767 212.872 24.899 214.034 24.899C214.258 24.899 214.384 24.913 214.566 24.969H214.608V23.737C214.468 23.681 214.342 23.653 214.132 23.653C213.138 23.653 212.368 24.241 211.906 25.109H211.864V23.751ZM218.869 31.479C220.605 31.479 221.809 30.527 222.145 29.127H220.871C220.633 29.925 219.919 30.415 218.883 30.415C217.427 30.415 216.629 29.295 216.531 27.825H222.299C222.299 26.551 221.991 25.473 221.375 24.731C220.787 24.003 219.919 23.569 218.799 23.569C216.643 23.569 215.201 25.333 215.201 27.517C215.201 29.715 216.559 31.479 218.869 31.479ZM218.799 24.577C220.101 24.577 220.843 25.445 220.913 26.887H216.559C216.727 25.557 217.441 24.577 218.799 24.577ZM225.927 31.423C227.201 31.423 227.971 30.821 228.447 30.163H228.461C228.601 30.961 228.993 31.339 229.791 31.339C230.099 31.339 230.309 31.283 230.491 31.227V30.317H230.435C229.777 30.457 229.637 30.135 229.637 29.533V26.019C229.637 25.011 229.259 24.353 228.629 23.975C228.153 23.695 227.523 23.569 226.809 23.569C224.779 23.569 223.813 24.703 223.757 25.977H225.017C225.059 25.081 225.633 24.521 226.823 24.521C227.859 24.521 228.433 25.025 228.433 25.837C228.433 26.607 227.719 26.789 226.613 26.915C224.667 27.153 223.379 27.531 223.379 29.281C223.379 30.723 224.499 31.423 225.927 31.423ZM226.249 30.471C225.493 30.471 224.751 30.233 224.751 29.267C224.751 28.231 225.563 28.007 226.795 27.797C227.411 27.685 228.069 27.503 228.447 27.265V28.497C228.447 29.365 227.747 30.471 226.249 30.471ZM236.49 31.269H238.016L234.81 26.453L237.68 23.751H236.056L232.794 26.957C232.822 26.593 232.85 26.061 232.85 25.795V20.853H231.548V31.269H232.85V28.315L233.914 27.307L236.49 31.269ZM242.855 33.817H244.157V31.535C244.157 30.961 244.143 30.541 244.129 30.275H244.171C244.689 31.073 245.515 31.493 246.537 31.493C248.567 31.493 249.813 29.939 249.813 27.531C249.813 25.053 248.497 23.569 246.579 23.569C245.501 23.569 244.745 24.073 244.185 24.927H244.143V23.751H242.855V33.817ZM246.397 30.415C244.731 30.415 244.087 29.141 244.087 27.559C244.087 25.963 244.815 24.675 246.411 24.675C247.797 24.675 248.483 25.907 248.483 27.559C248.483 29.197 247.783 30.415 246.397 30.415ZM252.483 23.751H251.195V31.269H252.497V27.181C252.497 25.767 253.491 24.899 254.653 24.899C254.877 24.899 255.003 24.913 255.185 24.969H255.227V23.737C255.087 23.681 254.961 23.653 254.751 23.653C253.757 23.653 252.987 24.241 252.525 25.109H252.483V23.751ZM256.472 22.365H257.83V20.853H256.472V22.365ZM256.5 31.269H257.802V23.751H256.5V31.269ZM259.309 31.269H265.371V30.121H262.333C261.787 30.121 260.835 30.163 260.835 30.163V30.121C260.835 30.121 261.465 29.435 261.787 29.029L265.203 24.563V23.751H259.561V24.857H262.151C262.669 24.857 263.565 24.815 263.565 24.815V24.857C263.565 24.857 262.977 25.487 262.669 25.879L259.309 30.261V31.269ZM269.742 31.479C271.478 31.479 272.682 30.527 273.018 29.127H271.744C271.506 29.925 270.792 30.415 269.756 30.415C268.3 30.415 267.502 29.295 267.404 27.825H273.172C273.172 26.551 272.864 25.473 272.248 24.731C271.66 24.003 270.792 23.569 269.672 23.569C267.516 23.569 266.074 25.333 266.074 27.517C266.074 29.715 267.432 31.479 269.742 31.479ZM269.672 24.577C270.974 24.577 271.716 25.445 271.786 26.887H267.432C267.6 25.557 268.314 24.577 269.672 24.577Z" fill="white"/>
<g clip-path="url(#clip1_2388_31320)">
<path d="M314.444 26.7935V33.741C314.444 34.0201 314.333 34.2878 314.136 34.4852C313.938 34.6826 313.671 34.7935 313.392 34.7935H298.657C298.378 34.7935 298.111 34.6826 297.913 34.4852C297.716 34.2878 297.605 34.0201 297.605 33.741V26.7935H314.444ZM308.656 14.7971C309.277 14.7968 309.889 14.954 310.433 15.2537C310.978 15.5535 311.438 15.9863 311.77 16.5116C312.102 17.037 312.296 17.6379 312.334 18.2584C312.371 18.8789 312.251 19.4988 311.984 20.0603L315.496 20.0593C315.776 20.0593 316.043 20.1702 316.241 20.3675C316.438 20.5649 316.549 20.8326 316.549 21.1117V24.269C316.549 24.5482 316.438 24.8159 316.241 25.0132C316.043 25.2106 315.776 25.3215 315.496 25.3215H296.552C296.273 25.3215 296.006 25.2106 295.808 25.0132C295.611 24.8159 295.5 24.5482 295.5 24.269V21.1117C295.5 20.8326 295.611 20.5649 295.808 20.3675C296.006 20.1702 296.273 20.0593 296.552 20.0593L300.064 20.0603C299.69 19.2727 299.606 18.3777 299.829 17.5345C300.053 16.6912 300.568 15.9546 301.283 15.4556C301.999 14.9567 302.868 14.7278 303.736 14.8098C304.605 14.8917 305.416 15.2792 306.025 15.9032C306.368 15.5522 306.777 15.2735 307.228 15.0835C307.68 14.8935 308.165 14.7961 308.656 14.7971ZM303.393 16.9019C302.988 16.9021 302.598 17.0583 302.305 17.3381C302.011 17.6179 301.837 17.9998 301.817 18.4047C301.798 18.8097 301.935 19.2066 302.2 19.5133C302.465 19.8199 302.838 20.0128 303.242 20.0519L303.393 20.0593H304.972V18.4806C304.972 18.0882 304.826 17.7098 304.562 17.4193C304.298 17.1288 303.935 16.947 303.545 16.9093L303.393 16.9019ZM308.656 16.9019L308.504 16.9093C308.139 16.9443 307.798 17.105 307.539 17.3641C307.279 17.6231 307.118 17.9643 307.083 18.3291L307.077 18.4806V20.0593H308.656L308.807 20.0519C309.198 20.014 309.56 19.8321 309.824 19.5417C310.087 19.2512 310.233 18.8729 310.233 18.4806C310.233 18.0883 310.087 17.71 309.824 17.4195C309.56 17.1291 309.198 16.9472 308.807 16.9093L308.656 16.9019Z" fill="white"/>
</g>
<rect x="104" y="1.38647" width="230" height="49.7652" stroke="white"/>
<path d="M130.516 83.6396C129.976 83.1356 128.608 81.9116 127.888 81.2636C126.268 79.7876 125.044 78.3836 125.044 76.4036C125.044 74.8916 125.728 74.2436 127.132 74.2436C128.5 74.2436 129.004 74.9636 129.148 76.1156C129.256 77.0516 129.292 77.7356 129.292 78.4556H134.332C134.332 77.6276 134.188 76.1156 134.116 75.5036C133.684 72.2276 131.74 69.6356 127.168 69.6356C122.632 69.6356 119.896 72.3356 119.896 76.5116C119.896 80.3996 121.264 82.2356 123.856 84.5036C124.612 85.1516 126.088 86.4836 126.448 86.8076C128.572 88.7156 129.292 89.9756 129.292 92.3876C129.292 93.8276 128.536 94.6196 127.132 94.6196C125.836 94.6196 125.188 93.9716 125.044 93.0356C125.008 92.8196 124.972 91.8116 124.972 90.4796H119.968C119.968 92.2076 119.932 92.5676 120.04 93.8996C120.292 97.1036 122.74 98.9756 127.276 98.9756C131.596 98.9756 134.476 96.3836 134.476 91.9196C134.476 88.0676 133.108 86.0876 130.516 83.6396ZM148.863 83.4236C148.863 79.9676 147.171 78.5996 144.723 78.5996C142.743 78.5996 141.627 79.3556 141.087 80.6876V69.8876H136.335V98.6516H141.087V84.8636C141.087 83.4956 141.771 82.8116 142.707 82.8116C143.751 82.8116 144.075 83.3876 144.075 84.2876C144.075 98.1116 144.075 98.6516 144.111 98.6516H148.935C148.899 98.6516 148.863 98.1116 148.863 83.4236ZM163.208 82.6316C162.56 80.3636 160.832 78.5996 157.268 78.5996C153.704 78.5996 151.94 80.5436 151.364 82.5236C150.86 84.2156 150.608 86.5916 150.608 88.7156C150.608 90.9116 150.896 93.5756 151.22 94.7636C151.904 97.2476 153.956 98.9036 157.196 98.9036C160.616 98.9036 162.452 97.2836 163.172 94.7636C163.604 93.3236 163.82 90.8756 163.82 88.7156C163.82 86.5916 163.64 84.1076 163.208 82.6316ZM158.924 93.5756C158.816 94.3316 158.132 94.9796 157.232 94.9796C156.368 94.9796 155.72 94.5116 155.576 93.6116C155.396 92.6756 155.36 90.3356 155.36 88.7876C155.36 87.3116 155.396 84.8996 155.576 84.0716C155.792 83.1716 156.296 82.6676 157.232 82.6676C158.204 82.6676 158.708 83.0636 158.924 83.9996C159.068 84.7556 159.14 87.2756 159.14 88.7876C159.14 90.2996 159.176 91.8476 158.924 93.5756ZM178.091 81.3716C177.407 79.4276 176.111 78.5996 174.059 78.5996C172.223 78.5996 170.891 79.2836 170.351 80.3636L170.315 78.8516H165.743V104.52H170.459V97.5356C171.107 98.1836 172.187 98.6876 173.879 98.6876C176.111 98.6876 177.551 97.6076 178.271 95.3756C178.703 94.0076 178.955 91.2716 178.955 88.4276C178.955 85.4396 178.667 82.9196 178.091 81.3716ZM173.807 93.4316C173.663 94.1516 173.159 94.8356 172.223 94.8356C171.395 94.8356 170.855 94.4036 170.711 93.4676C170.495 92.1356 170.423 90.8396 170.423 88.5716C170.423 86.5196 170.567 85.0436 170.819 83.9996C170.999 83.2796 171.395 82.7036 172.259 82.7036C173.123 82.7036 173.555 83.1356 173.735 83.7836C174.023 84.8636 174.095 86.4836 174.095 88.5716C174.095 90.9116 174.023 92.2076 173.807 93.4316ZM196.35 90.8036C196.35 89.0036 196.134 86.9156 195.486 85.7636C194.838 84.5756 193.938 83.9996 192.534 83.8196C193.722 83.6036 194.514 83.0996 195.054 81.9836C195.738 80.5436 195.846 78.7076 195.846 76.7996C195.846 74.9996 195.63 73.2716 194.946 72.0836C194.082 70.5716 192.462 69.9236 190.05 69.9236H180.978V98.6516H189.51C192.174 98.6516 193.866 98.2916 195.09 96.6356C196.062 95.3036 196.35 92.9996 196.35 90.8036ZM190.014 81.2636C189.69 81.9476 189.294 82.2356 188.898 82.2356H186.126V74.2076H188.538C189.294 74.2076 189.726 74.6396 189.978 75.2516C190.194 75.7916 190.41 76.9436 190.41 78.0956C190.41 79.4996 190.23 80.7956 190.014 81.2636ZM188.682 94.3676H186.126V86.2676H188.79C189.474 86.2676 190.014 86.6996 190.338 87.2756C190.59 87.7436 190.734 89.2916 190.734 90.2276C190.734 91.1276 190.626 92.8196 190.374 93.3596C190.05 94.0796 189.366 94.3676 188.682 94.3676ZM206.271 92.2076C206.271 92.7116 206.199 93.3236 206.055 93.9356C205.875 94.7276 205.119 95.0516 204.399 95.0516C203.679 95.0516 202.851 94.6196 202.743 93.6476C202.635 92.7476 202.599 91.3076 202.599 90.4076H210.771C210.951 87.0236 210.699 83.5676 210.015 81.8756C209.187 79.8596 207.279 78.5996 204.507 78.5996C201.087 78.5996 199.575 80.1476 198.855 81.9116C198.315 83.2076 197.919 85.8716 197.919 88.8596C197.919 91.9196 198.171 94.1876 198.999 96.0956C199.863 98.1116 201.915 98.9036 204.579 98.9036C207.243 98.9036 208.863 97.8236 209.727 96.2756C210.483 94.9436 210.663 92.7836 210.663 92.2076H206.271ZM202.527 86.8796C202.527 85.5116 202.563 84.2156 202.815 83.6036C203.067 82.9196 203.643 82.5596 204.435 82.5596C205.263 82.5596 205.803 82.9556 205.983 83.6396C206.127 84.1076 206.235 85.0796 206.235 86.8796H202.527ZM220.518 92.2076C220.518 92.7116 220.446 93.3236 220.302 93.9356C220.122 94.7276 219.366 95.0516 218.646 95.0516C217.926 95.0516 217.098 94.6196 216.99 93.6476C216.882 92.7476 216.846 91.3076 216.846 90.4076H225.018C225.198 87.0236 224.946 83.5676 224.262 81.8756C223.434 79.8596 221.526 78.5996 218.754 78.5996C215.334 78.5996 213.822 80.1476 213.102 81.9116C212.562 83.2076 212.166 85.8716 212.166 88.8596C212.166 91.9196 212.418 94.1876 213.246 96.0956C214.11 98.1116 216.162 98.9036 218.826 98.9036C221.49 98.9036 223.11 97.8236 223.974 96.2756C224.73 94.9436 224.91 92.7836 224.91 92.2076H220.518ZM216.774 86.8796C216.774 85.5116 216.81 84.2156 217.062 83.6036C217.314 82.9196 217.89 82.5596 218.682 82.5596C219.51 82.5596 220.05 82.9556 220.23 83.6396C220.374 84.1076 220.482 85.0796 220.482 86.8796H216.774ZM235.052 78.5996C233.396 78.5996 231.74 79.6796 231.524 81.1916V78.8516H226.772V98.6516H231.596V86.9156C231.596 83.6756 232.604 82.9556 234.26 82.9556C235.232 82.9556 236.204 83.1356 236.78 83.3156V78.7796C236.384 78.6356 235.808 78.5996 235.052 78.5996ZM252.936 91.9556V82.4156H245.052V86.9516H247.968C247.968 86.9516 248.004 91.6316 247.968 92.2436C247.896 93.7196 247.032 94.4756 245.7 94.4756C244.512 94.4756 243.9 93.8636 243.648 92.5676C243.216 90.2996 243.216 86.5556 243.216 84.3596C243.216 82.0196 243.252 78.5636 243.612 76.0796C243.792 74.8556 244.584 74.3156 245.592 74.3156C246.708 74.3156 247.392 74.9276 247.5 76.0796C247.644 77.5556 247.644 79.5356 247.644 79.7516H252.792C252.792 77.1956 252.684 75.7556 252.468 74.4596C252.036 71.8676 250.128 69.6716 245.484 69.6716C240.948 69.6716 239.04 72.2276 238.428 74.5316C237.78 77.0156 237.708 81.3716 237.708 84.3596C237.708 87.4556 237.816 91.4876 238.428 94.0796C239.184 97.2476 241.452 98.9036 244.476 98.9036C246.672 98.9036 248.148 98.2916 248.868 97.3556L249.12 98.6516H253.008C253.008 98.6156 252.936 95.2676 252.936 91.9556ZM262.871 92.2076C262.871 92.7116 262.799 93.3236 262.655 93.9356C262.475 94.7276 261.719 95.0516 260.999 95.0516C260.279 95.0516 259.451 94.6196 259.343 93.6476C259.235 92.7476 259.199 91.3076 259.199 90.4076H267.371C267.551 87.0236 267.299 83.5676 266.615 81.8756C265.787 79.8596 263.879 78.5996 261.107 78.5996C257.687 78.5996 256.175 80.1476 255.455 81.9116C254.915 83.2076 254.519 85.8716 254.519 88.8596C254.519 91.9196 254.771 94.1876 255.599 96.0956C256.463 98.1116 258.515 98.9036 261.179 98.9036C263.843 98.9036 265.463 97.8236 266.327 96.2756C267.083 94.9436 267.263 92.7836 267.263 92.2076H262.871ZM259.127 86.8796C259.127 85.5116 259.163 84.2156 259.415 83.6036C259.667 82.9196 260.243 82.5596 261.035 82.5596C261.863 82.5596 262.403 82.9556 262.583 83.6396C262.727 84.1076 262.835 85.0796 262.835 86.8796H259.127ZM281.474 95.1236C281.474 93.6476 281.51 91.2356 281.51 89.6876C281.546 87.8516 281.582 84.8636 281.51 83.1356C281.402 80.3636 279.674 78.5996 275.534 78.5996C271.142 78.5996 269.342 80.5796 269.342 84.2876V85.7636H273.806V84.6476C273.806 83.2796 274.238 82.5956 275.462 82.5956C276.362 82.5956 276.83 83.0996 276.866 83.9636C276.902 84.5756 276.902 85.7996 276.902 86.3396C276.11 86.3396 275.282 86.4476 274.382 86.5916C271.07 87.2036 268.838 89.0036 268.658 91.8836C268.586 92.9276 268.622 94.6196 268.658 95.0516C268.802 97.9316 270.998 98.7956 272.978 98.7956C274.742 98.7956 276.074 98.3276 276.974 97.2116C276.974 97.7156 277.082 98.6516 277.154 98.6516H281.726C281.546 98.3996 281.474 96.5636 281.474 95.1236ZM276.902 91.0916C276.83 92.0996 276.902 92.6036 276.722 93.6476C276.542 94.6556 275.678 95.0516 274.922 95.0516C274.202 95.0516 273.626 94.7996 273.518 94.1156C273.446 93.5396 273.446 92.8556 273.446 92.3156C273.446 91.4876 273.482 90.9116 274.094 90.3716C274.634 89.9036 275.246 89.7956 275.75 89.6876C276.182 89.6156 276.542 89.6156 276.902 89.6156C276.902 89.9036 276.938 90.6956 276.902 91.0916ZM291.934 78.5996C290.278 78.5996 288.622 79.6796 288.406 81.1916V78.8516H283.654V98.6516H288.478V86.9156C288.478 83.6756 289.486 82.9556 291.142 82.9556C292.114 82.9556 293.086 83.1356 293.662 83.3156V78.7796C293.266 78.6356 292.69 78.5996 291.934 78.5996ZM135.376 135.956V126.416H127.492V130.952H130.408C130.408 130.952 130.444 135.632 130.408 136.244C130.336 137.72 129.472 138.476 128.14 138.476C126.952 138.476 126.34 137.864 126.088 136.568C125.656 134.3 125.656 130.556 125.656 128.36C125.656 126.02 125.692 122.564 126.052 120.08C126.232 118.856 127.024 118.316 128.032 118.316C129.148 118.316 129.832 118.928 129.94 120.08C130.084 121.556 130.084 123.536 130.084 123.752H135.232C135.232 121.196 135.124 119.756 134.908 118.46C134.476 115.868 132.568 113.672 127.924 113.672C123.388 113.672 121.48 116.228 120.868 118.532C120.22 121.016 120.148 125.372 120.148 128.36C120.148 131.456 120.256 135.488 120.868 138.08C121.624 141.248 123.892 142.904 126.916 142.904C129.112 142.904 130.588 142.292 131.308 141.356L131.56 142.652H135.448C135.448 142.616 135.376 139.268 135.376 135.956ZM142.395 116.948H137.319V121.808H142.395V116.948ZM142.323 141.212V122.852H137.391V141.284C137.391 142.076 137.391 142.652 137.571 142.652H142.431C142.395 142.616 142.323 141.968 142.323 141.212ZM153.029 122.852H150.437V119.18C150.437 118.46 150.869 117.668 151.841 117.668C152.237 117.668 152.813 117.704 153.281 117.776V113.852C152.741 113.78 151.697 113.744 150.437 113.744C146.873 113.744 145.613 115.868 145.613 118.568V122.852H143.849V127.064H145.613V142.652H150.437V127.064H153.029V122.852ZM162.989 122.852H160.217V119.036L155.537 119.144C155.537 119.144 155.393 122.744 155.357 122.852H153.593V127.064H155.285V138.332C155.285 141.428 157.013 142.796 159.965 142.796C161.225 142.796 162.017 142.724 162.773 142.544V138.692C162.413 138.764 161.945 138.8 161.549 138.8C160.793 138.8 160.181 138.584 160.181 137.468V127.064H162.989V122.852ZM180.478 132.284C180.478 132.932 180.442 134.768 180.262 136.244C180.082 137.684 179.218 138.152 178.21 138.152C177.238 138.152 176.374 137.648 176.122 136.352C175.798 134.552 175.726 131.24 175.726 128.108C175.726 124.076 175.798 121.556 176.122 120.224C176.374 119.216 177.022 118.64 178.21 118.64C179.254 118.64 179.938 119.252 180.082 120.152C180.334 121.592 180.442 123.14 180.442 124.472H185.554C185.554 122.708 185.446 121.052 185.266 119.684C184.762 115.868 182.746 113.708 178.318 113.708C174.07 113.708 171.766 115.472 171.046 118.892C170.398 121.952 170.218 124.292 170.218 128.144C170.218 131.924 170.506 136.244 171.226 138.548C172.018 141.212 173.998 142.976 178.03 142.976C182.458 142.976 184.618 141.032 185.266 137.54C185.59 135.704 185.59 133.256 185.59 132.284H180.478ZM199.807 139.124C199.807 137.648 199.843 135.236 199.843 133.688C199.879 131.852 199.915 128.864 199.843 127.136C199.735 124.364 198.007 122.6 193.867 122.6C189.475 122.6 187.675 124.58 187.675 128.288V129.764H192.139V128.648C192.139 127.28 192.571 126.596 193.795 126.596C194.695 126.596 195.163 127.1 195.199 127.964C195.235 128.576 195.235 129.8 195.235 130.34C194.443 130.34 193.615 130.448 192.715 130.592C189.403 131.204 187.171 133.004 186.991 135.884C186.919 136.928 186.955 138.62 186.991 139.052C187.135 141.932 189.331 142.796 191.311 142.796C193.075 142.796 194.407 142.328 195.307 141.212C195.307 141.716 195.415 142.652 195.487 142.652H200.059C199.879 142.4 199.807 140.564 199.807 139.124ZM195.235 135.092C195.163 136.1 195.235 136.604 195.055 137.648C194.875 138.656 194.011 139.052 193.255 139.052C192.535 139.052 191.959 138.8 191.851 138.116C191.779 137.54 191.779 136.856 191.779 136.316C191.779 135.488 191.815 134.912 192.427 134.372C192.967 133.904 193.579 133.796 194.083 133.688C194.515 133.616 194.875 133.616 195.235 133.616C195.235 133.904 195.271 134.696 195.235 135.092ZM210.267 122.6C208.611 122.6 206.955 123.68 206.739 125.192V122.852H201.987V142.652H206.811V130.916C206.811 127.676 207.819 126.956 209.475 126.956C210.447 126.956 211.419 127.136 211.995 127.316V122.78C211.599 122.636 211.023 122.6 210.267 122.6ZM213.466 125.768C212.89 127.928 212.71 129.908 212.71 132.824C212.71 135.992 213.07 138.62 213.718 140.204C214.438 142.004 215.77 142.796 217.75 142.796C219.514 142.796 220.702 142.22 221.35 141.212L221.926 142.652H225.958C225.958 142.652 225.814 140.996 225.814 139.88V113.888H221.098V124.292C220.558 123.248 219.262 122.672 217.75 122.672C215.626 122.672 213.97 123.824 213.466 125.768ZM220.774 127.856C220.99 128.936 221.134 130.016 221.134 132.86C221.134 134.588 221.062 136.388 220.81 137.648C220.666 138.404 220.198 138.98 219.262 138.98C218.29 138.98 217.786 138.512 217.678 137.756C217.498 136.28 217.426 134.516 217.426 132.86C217.426 131.168 217.498 129.476 217.75 128.036C217.894 127.316 218.398 126.776 219.298 126.776C220.198 126.776 220.63 127.172 220.774 127.856Z" fill="white"/>
<rect x="104" y="1.38647" width="230" height="161.765" stroke="white"/>
</g>
<rect x="1" y="1.38647" width="333" height="161.765" rx="11.5" stroke="white"/>
<defs>
<clipPath id="clip0_2388_31320">
<rect x="0.5" y="0.886475" width="334" height="162.765" rx="12" fill="white"/>
</clipPath>
<clipPath id="clip1_2388_31320">
<rect x="294.5" y="14.269" width="24" height="24" rx="4" fill="white"/>
</clipPath>
</defs>
</svg>
