<svg width="100%" height="auto" viewBox="0 0 335 164" fill="none" xmlns="http://www.w3.org/2000/svg">
<g clip-path="url(#clip0_2388_31321)">
<path d="M65.64 45.9142C65.8 42.8742 65.8 39.9142 65.72 38.1542C65.24 31.3542 60.76 26.5542 51.48 26.5542C42.68 26.5542 37.88 31.7542 37.24 37.6742C37 39.5142 37 43.2742 37 46.9542H47.48C47.48 44.3142 47.56 41.9142 47.64 40.1542C47.8 37.9942 48.92 36.5542 51.24 36.5542C53.32 36.5542 54.44 37.4342 54.68 39.8342C54.84 41.0342 54.76 46.1542 54.52 48.1542C54.12 51.2742 53 52.7142 49.48 53.0342H43.32V63.0342C43.32 63.0342 48.84 63.1142 49.16 63.1142C53.24 63.3542 54.84 64.7942 55.16 68.3142C55.32 70.4742 55.4 74.3942 55.16 78.2342C55 80.9542 53.64 82.3142 51 82.3142C48.84 82.3142 47.48 81.3542 47.24 79.3542C46.84 75.9942 47 75.1942 47 70.7142H35.8C35.8 75.5142 35.88 76.1542 36.28 80.7942C36.92 87.6742 41.96 91.6742 51.24 91.6742C60.68 91.6742 66.28 86.8742 67 79.3542C67.32 75.9142 67.32 69.9142 67 66.7142C66.44 61.0342 62.52 57.3542 55.88 56.8742C62.6 56.1542 65.32 51.2742 65.64 45.9142Z" fill="white"/>
<path d="M38.1123 114.178V110.818H33.7023V112.4H36.4043C36.4043 112.4 36.4183 113.996 36.3903 114.136C36.2083 114.962 35.4663 115.592 34.2763 115.592C33.2963 115.592 32.6943 115.34 32.3163 114.794C31.8683 114.136 31.7423 113.17 31.7423 111.532C31.7423 109.922 31.9383 108.872 32.3303 108.27C32.7083 107.71 33.3103 107.472 34.1503 107.472C34.9343 107.472 35.4803 107.71 35.8023 108.186C36.0963 108.634 36.2643 109.292 36.2643 109.67H38.0563C38.0563 109.18 37.9163 108.214 37.5803 107.542C37.0763 106.548 36.0263 105.806 34.1083 105.806C32.2603 105.806 31.2243 106.576 30.6363 107.486C30.0203 108.452 29.8383 109.782 29.8383 111.504C29.8383 113.506 30.1463 114.794 30.6783 115.634C31.3223 116.642 32.4143 117.174 33.8843 117.174C35.3963 117.174 36.2083 116.642 36.5863 116.082L36.6703 117.034H38.1263C38.1263 116.992 38.1123 115.508 38.1123 114.178ZM46.8892 114.346L47.6592 117.034H49.5632L46.2872 105.946H43.9352L40.4352 117.034H42.3112L43.1232 114.346H46.8892ZM43.6272 112.75C43.6272 112.75 44.8452 108.732 44.8592 108.662C44.8872 108.55 45.0692 107.668 45.0692 107.668C45.0692 107.668 45.2512 108.55 45.2792 108.662C45.3072 108.746 46.4132 112.75 46.4132 112.75H43.6272ZM62.0557 105.946H59.6617L57.1697 114.192L54.7197 105.946H52.1857V117.034H53.9077V109.432L56.1897 117.034H57.9957L60.3197 109.404V117.034H62.0557V105.946ZM72.4428 115.354H67.3888V112.316H72.1628V110.622H67.3888V107.626H72.3868V105.946H65.5688V117.034H72.4428V115.354ZM27.3392 130.86C27.0312 130.748 26.3732 130.496 25.9812 130.37C24.6232 129.922 23.9512 129.488 23.9512 128.62C23.9512 127.878 24.4552 127.43 25.8692 127.43C27.0732 127.43 27.6332 127.766 27.8712 128.452C27.9552 128.704 27.9972 128.914 27.9972 129.152H29.8732C29.8732 128.732 29.8032 128.396 29.7052 128.06C29.3132 126.688 28.1932 125.82 25.9112 125.82C23.2932 125.82 22.0612 126.968 22.0612 128.676C22.0612 130.314 23.1392 131.294 24.8052 131.84C25.2672 131.994 25.9252 132.246 26.2052 132.344C27.6892 132.862 28.1372 133.31 28.1372 134.248C28.1372 135.088 27.5352 135.592 26.1212 135.592C24.9172 135.592 24.2172 135.284 24.0072 134.626C23.9232 134.36 23.8812 133.982 23.8812 133.786H22.0192C22.0192 134.108 22.0472 134.626 22.1452 135.004C22.4812 136.306 23.6012 137.174 26.1632 137.174C28.7532 137.174 30.0272 135.942 30.0272 134.094C30.0272 132.372 29.0752 131.462 27.3392 130.86ZM39.9652 125.946H32.1112V127.612H35.0932V137.034H36.9692V127.612H39.9652V125.946ZM49.8119 127.178C49.4199 126.394 48.6779 125.946 47.4599 125.946H42.6299V137.034H44.4499V132.414H46.8579L48.7899 137.034H50.8199L48.6359 132.008C49.1259 131.91 49.5739 131.56 49.8539 131.028C50.0639 130.608 50.1759 129.992 50.1759 129.152C50.1759 128.256 50.0919 127.71 49.8119 127.178ZM48.1879 130.342C48.0479 130.65 47.6979 130.818 47.2079 130.832H44.4639V127.598H47.0679C47.6979 127.598 48.0899 127.822 48.2439 128.242C48.3139 128.424 48.3419 128.914 48.3419 129.32C48.3419 129.656 48.2859 130.104 48.1879 130.342ZM60.5081 135.354H55.4541V132.316H60.2281V130.622H55.4541V127.626H60.4521V125.946H53.6341V137.034H60.5081V135.354ZM69.1703 134.346L69.9403 137.034H71.8443L68.5683 125.946H66.2163L62.7163 137.034H64.5923L65.4043 134.346H69.1703ZM65.9083 132.75C65.9083 132.75 67.1263 128.732 67.1403 128.662C67.1683 128.55 67.3503 127.668 67.3503 127.668C67.3503 127.668 67.5323 128.55 67.5603 128.662C67.5883 128.746 68.6943 132.75 68.6943 132.75H65.9083ZM78.4008 130.734L82.3908 125.946H80.3188L76.3148 130.664V125.946H74.4668V137.034H76.3148V133.072L77.1268 132.12L80.2908 137.034H82.4748L78.4008 130.734Z" fill="white"/>
<path d="M123.882 31.2582C125.912 31.2582 127.494 30.1802 127.494 28.2342C127.494 26.9462 126.878 26.0642 125.492 25.7002V25.6582C126.472 25.3362 127.144 24.6922 127.144 23.5722C127.144 21.8502 125.66 20.8282 123.784 20.8282C121.558 20.8282 120.228 22.1582 120.214 24.0342H121.516C121.53 22.7882 122.342 21.8782 123.742 21.8782C124.904 21.8782 125.828 22.5082 125.828 23.5582C125.828 24.5942 125.058 25.2242 123.574 25.2242H122.958V26.2602H123.588C125.198 26.2602 126.108 26.9042 126.108 28.1222C126.108 29.4802 125.17 30.1522 123.84 30.1522C122.23 30.1522 121.25 29.2702 121.208 27.8002H119.892C119.906 28.9062 120.34 29.7742 121.068 30.3622C121.782 30.9502 122.762 31.2582 123.882 31.2582ZM135.879 33.6662C136.887 33.6662 137.727 33.4422 138.315 32.9522C138.889 32.4622 139.225 31.7202 139.225 30.7262V23.5162H137.937V24.5102H137.909C137.433 23.7542 136.705 23.3342 135.627 23.3342C133.863 23.3342 132.407 24.7062 132.407 27.0162C132.407 29.2002 133.779 30.6982 135.697 30.6982C136.761 30.6982 137.419 30.2362 137.937 29.4942H137.965C137.951 29.7322 137.937 30.1382 137.937 30.5722V30.7822C137.937 32.0562 137.195 32.6582 135.851 32.6582C134.731 32.6582 133.975 32.3362 133.863 31.5522H132.645C132.785 32.8822 133.905 33.6662 135.879 33.6662ZM135.823 29.6342C134.465 29.6342 133.737 28.6262 133.737 27.0302C133.737 25.4482 134.437 24.4122 135.809 24.4122C137.307 24.4122 138.021 25.3782 138.021 26.9602C138.021 28.4862 137.461 29.6342 135.823 29.6342ZM143.267 31.1882C144.541 31.1882 145.311 30.5862 145.787 29.9282H145.801C145.941 30.7262 146.333 31.1042 147.131 31.1042C147.439 31.1042 147.649 31.0482 147.831 30.9922V30.0822H147.775C147.117 30.2222 146.977 29.9002 146.977 29.2982V25.7842C146.977 24.7762 146.599 24.1182 145.969 23.7402C145.493 23.4602 144.863 23.3342 144.149 23.3342C142.119 23.3342 141.153 24.4682 141.097 25.7422H142.357C142.399 24.8462 142.973 24.2862 144.163 24.2862C145.199 24.2862 145.773 24.7902 145.773 25.6022C145.773 26.3722 145.059 26.5542 143.953 26.6802C142.007 26.9182 140.719 27.2962 140.719 29.0462C140.719 30.4882 141.839 31.1882 143.267 31.1882ZM143.589 30.2362C142.833 30.2362 142.091 29.9982 142.091 29.0322C142.091 27.9962 142.903 27.7722 144.135 27.5622C144.751 27.4502 145.409 27.2682 145.787 27.0302V28.2622C145.787 29.1302 145.087 30.2362 143.589 30.2362ZM148.888 31.0342H150.19V26.4002C150.19 25.2522 151.156 24.4262 152.052 24.4262C152.822 24.4262 153.34 24.9722 153.34 25.8962V31.0342H154.628V26.4002C154.628 25.2522 155.454 24.4262 156.406 24.4262C157.162 24.4262 157.764 24.9722 157.764 25.8962V31.0342H159.066V25.7842C159.066 24.2162 158.114 23.3342 156.742 23.3342C155.832 23.3342 154.95 23.7962 154.418 24.7342H154.39C154.082 23.8102 153.354 23.3342 152.444 23.3342C151.478 23.3342 150.68 23.8242 150.218 24.6362H150.176V23.5162H148.888V31.0342ZM164.072 31.2442C165.808 31.2442 167.012 30.2922 167.348 28.8922H166.074C165.836 29.6902 165.122 30.1802 164.086 30.1802C162.63 30.1802 161.832 29.0602 161.734 27.5902H167.502C167.502 26.3162 167.194 25.2382 166.578 24.4962C165.99 23.7682 165.122 23.3342 164.002 23.3342C161.846 23.3342 160.404 25.0982 160.404 27.2822C160.404 29.4802 161.762 31.2442 164.072 31.2442ZM164.002 24.3422C165.304 24.3422 166.046 25.2102 166.116 26.6522H161.762C161.93 25.3222 162.644 24.3422 164.002 24.3422ZM174.233 31.0342H175.549L176.683 26.8902C176.865 26.1762 177.145 24.7902 177.145 24.7902H177.173C177.173 24.7902 177.467 26.1622 177.649 26.8902L178.755 31.0342H180.057L182.507 23.5162H181.163L179.917 27.6882C179.637 28.6122 179.427 29.9002 179.427 29.9002H179.399C179.399 29.9002 179.133 28.5142 178.923 27.7162L177.803 23.5162H176.571L175.437 27.7162C175.185 28.6262 174.933 29.8862 174.933 29.8862H174.905C174.905 29.8862 174.653 28.5422 174.415 27.6882L173.239 23.5162H171.853L174.233 31.0342ZM183.518 22.1302H184.876V20.6182H183.518V22.1302ZM183.546 31.0342H184.848V23.5162H183.546V31.0342ZM187.924 23.5162H186.636V31.0342H187.938V26.4562C187.938 25.2522 188.778 24.4262 189.94 24.4262C190.962 24.4262 191.592 24.9722 191.592 25.9382V31.0342H192.88V25.7842C192.88 24.2162 191.914 23.3342 190.346 23.3342C189.254 23.3342 188.512 23.8242 187.966 24.5802H187.924V23.5162ZM201.237 31.2582C203.001 31.2582 204.261 30.4742 204.261 28.9482C204.261 27.1982 202.973 26.8622 201.475 26.5682C200.201 26.3162 199.473 26.1622 199.473 25.3782C199.473 24.8042 199.907 24.3282 200.929 24.3282C202.007 24.3282 202.539 24.7622 202.651 25.5322H203.953C203.785 24.2302 202.847 23.3482 200.957 23.3482C199.207 23.3482 198.199 24.1602 198.199 25.4482C198.199 27.1002 199.529 27.4082 200.999 27.7162C202.329 27.9822 202.959 28.1922 202.959 29.0182C202.959 29.6902 202.455 30.2082 201.265 30.2082C200.187 30.2082 199.347 29.8442 199.193 28.7522H197.877C197.989 30.2782 199.165 31.2582 201.237 31.2582ZM205.069 24.5242H206.245V29.5642C206.245 30.6702 206.945 31.0762 207.953 31.0902C208.289 31.0902 208.653 31.0482 209.003 30.9642V29.8722H208.961C208.821 29.9142 208.527 29.9702 208.303 29.9702C207.827 29.9702 207.533 29.8162 207.533 29.2702V24.5242H209.087V23.5162H207.533V21.1502H206.245V23.5162H205.069V24.5242ZM211.727 23.5162H210.439V31.0342H211.741V26.9462C211.741 25.5322 212.735 24.6642 213.897 24.6642C214.121 24.6642 214.247 24.6782 214.429 24.7342H214.471V23.5022C214.331 23.4462 214.205 23.4182 213.995 23.4182C213.001 23.4182 212.231 24.0062 211.769 24.8742H211.727V23.5162ZM218.732 31.2442C220.468 31.2442 221.672 30.2922 222.008 28.8922H220.734C220.496 29.6902 219.782 30.1802 218.746 30.1802C217.29 30.1802 216.492 29.0602 216.394 27.5902H222.162C222.162 26.3162 221.854 25.2382 221.238 24.4962C220.65 23.7682 219.782 23.3342 218.662 23.3342C216.506 23.3342 215.064 25.0982 215.064 27.2822C215.064 29.4802 216.422 31.2442 218.732 31.2442ZM218.662 24.3422C219.964 24.3422 220.706 25.2102 220.776 26.6522H216.422C216.59 25.3222 217.304 24.3422 218.662 24.3422ZM225.79 31.1882C227.064 31.1882 227.834 30.5862 228.31 29.9282H228.324C228.464 30.7262 228.856 31.1042 229.654 31.1042C229.962 31.1042 230.172 31.0482 230.354 30.9922V30.0822H230.298C229.64 30.2222 229.5 29.9002 229.5 29.2982V25.7842C229.5 24.7762 229.122 24.1182 228.492 23.7402C228.016 23.4602 227.386 23.3342 226.672 23.3342C224.642 23.3342 223.676 24.4682 223.62 25.7422H224.88C224.922 24.8462 225.496 24.2862 226.686 24.2862C227.722 24.2862 228.296 24.7902 228.296 25.6022C228.296 26.3722 227.582 26.5542 226.476 26.6802C224.53 26.9182 223.242 27.2962 223.242 29.0462C223.242 30.4882 224.362 31.1882 225.79 31.1882ZM226.112 30.2362C225.356 30.2362 224.614 29.9982 224.614 29.0322C224.614 27.9962 225.426 27.7722 226.658 27.5622C227.274 27.4502 227.932 27.2682 228.31 27.0302V28.2622C228.31 29.1302 227.61 30.2362 226.112 30.2362ZM236.354 31.0342H237.88L234.674 26.2182L237.544 23.5162H235.92L232.658 26.7222C232.686 26.3582 232.714 25.8262 232.714 25.5602V20.6182H231.412V31.0342H232.714V28.0802L233.778 27.0722L236.354 31.0342ZM242.718 33.5822H244.02V31.3002C244.02 30.7262 244.006 30.3062 243.992 30.0402H244.034C244.552 30.8382 245.378 31.2582 246.4 31.2582C248.43 31.2582 249.676 29.7042 249.676 27.2962C249.676 24.8182 248.36 23.3342 246.442 23.3342C245.364 23.3342 244.608 23.8382 244.048 24.6922H244.006V23.5162H242.718V33.5822ZM246.26 30.1802C244.594 30.1802 243.95 28.9062 243.95 27.3242C243.95 25.7282 244.678 24.4402 246.274 24.4402C247.66 24.4402 248.346 25.6722 248.346 27.3242C248.346 28.9622 247.646 30.1802 246.26 30.1802ZM252.346 23.5162H251.058V31.0342H252.36V26.9462C252.36 25.5322 253.354 24.6642 254.516 24.6642C254.74 24.6642 254.866 24.6782 255.048 24.7342H255.09V23.5022C254.95 23.4462 254.824 23.4182 254.614 23.4182C253.62 23.4182 252.85 24.0062 252.388 24.8742H252.346V23.5162ZM256.335 22.1302H257.693V20.6182H256.335V22.1302ZM256.363 31.0342H257.665V23.5162H256.363V31.0342ZM259.173 31.0342H265.235V29.8862H262.197C261.651 29.8862 260.699 29.9282 260.699 29.9282V29.8862C260.699 29.8862 261.329 29.2002 261.651 28.7942L265.067 24.3282V23.5162H259.425V24.6222H262.015C262.533 24.6222 263.429 24.5802 263.429 24.5802V24.6222C263.429 24.6222 262.841 25.2522 262.533 25.6442L259.173 30.0262V31.0342ZM269.605 31.2442C271.341 31.2442 272.545 30.2922 272.881 28.8922H271.607C271.369 29.6902 270.655 30.1802 269.619 30.1802C268.163 30.1802 267.365 29.0602 267.267 27.5902H273.035C273.035 26.3162 272.727 25.2382 272.111 24.4962C271.523 23.7682 270.655 23.3342 269.535 23.3342C267.379 23.3342 265.937 25.0982 265.937 27.2822C265.937 29.4802 267.295 31.2442 269.605 31.2442ZM269.535 24.3422C270.837 24.3422 271.579 25.2102 271.649 26.6522H267.295C267.463 25.3222 268.177 24.3422 269.535 24.3422Z" fill="white"/>
<path fill-rule="evenodd" clip-rule="evenodd" d="M301.731 36.9281L312.511 35.0263C313.128 34.9147 313.595 34.6782 313.91 34.3169C314.219 33.9622 314.373 33.4826 314.373 32.8783V19.3099C314.373 18.8435 314.274 18.4494 314.077 18.1275C313.88 17.8056 313.604 17.579 313.25 17.4476C312.895 17.3097 312.478 17.2834 311.998 17.3688L301.534 19.2114C300.575 19.3822 299.852 19.6811 299.366 20.1081C298.873 20.5285 298.627 21.2215 298.627 22.1872V34.0804C298.627 34.7833 298.752 35.3646 299.002 35.8245C299.251 36.2909 299.609 36.6193 300.076 36.8098C300.535 37.0003 301.087 37.0398 301.731 36.9281ZM311.831 21.1624V23.2415C311.831 23.4452 311.765 23.5995 311.634 23.7046C311.502 23.8097 311.351 23.8656 311.18 23.8721C311.01 23.8721 310.862 23.8262 310.737 23.7342C310.606 23.6357 310.54 23.4878 310.54 23.2908V21.9704C310.54 21.7011 310.386 21.5894 310.077 21.6354L308.776 21.8719C308.566 21.9047 308.402 21.8686 308.284 21.7635C308.159 21.6518 308.083 21.5139 308.057 21.3496C308.024 21.1854 308.047 21.031 308.126 20.8865C308.198 20.742 308.326 20.6533 308.51 20.6205L310.629 20.246C311.003 20.1803 311.299 20.2263 311.516 20.384C311.726 20.5416 311.831 20.8011 311.831 21.1624ZM302.539 23.5962V24.8476C302.539 25.0513 302.477 25.2089 302.352 25.3206C302.22 25.4323 302.069 25.4914 301.898 25.498C301.728 25.5045 301.577 25.4553 301.445 25.3502C301.314 25.2385 301.248 25.071 301.248 24.8476V23.2021C301.248 22.7423 301.37 22.3908 301.613 22.1478C301.849 21.8981 302.24 21.7241 302.785 21.6255L303.81 21.4482C304.033 21.4088 304.214 21.4416 304.352 21.5467C304.483 21.6518 304.562 21.7898 304.588 21.9606C304.615 22.1248 304.585 22.2791 304.5 22.4237C304.408 22.5682 304.25 22.6602 304.027 22.6996L303.209 22.8474C302.92 22.8999 302.736 23.0017 302.657 23.1528C302.578 23.2973 302.539 23.4452 302.539 23.5962ZM310.54 30.7696V29.5182C310.54 29.3146 310.606 29.1569 310.737 29.0452C310.862 28.9336 311.01 28.8745 311.18 28.8679C311.351 28.8613 311.502 28.9139 311.634 29.0255C311.765 29.1306 311.831 29.2949 311.831 29.5182V31.1638C311.831 31.6236 311.713 31.9783 311.476 32.2279C311.233 32.471 310.839 32.6418 310.294 32.7403L309.269 32.9177C309.046 32.9571 308.868 32.9243 308.737 32.8192C308.599 32.7075 308.517 32.5695 308.49 32.4053C308.458 32.2411 308.487 32.0867 308.579 31.9422C308.671 31.7911 308.829 31.6991 309.052 31.6663L309.87 31.5185C310.159 31.4659 310.343 31.3641 310.422 31.213C310.501 31.0619 310.54 30.9141 310.54 30.7696ZM301.248 33.2034V31.1243C301.248 30.9141 301.314 30.7598 301.445 30.6612C301.577 30.5561 301.728 30.5036 301.898 30.5036C302.069 30.497 302.22 30.543 302.352 30.6415C302.477 30.7335 302.539 30.878 302.539 31.0751V32.3954C302.539 32.6648 302.693 32.7765 303.002 32.7305L304.303 32.494C304.513 32.4611 304.68 32.5006 304.805 32.6122C304.923 32.7173 304.999 32.852 305.032 33.0162C305.058 33.1804 305.035 33.3348 304.963 33.4793C304.884 33.6239 304.749 33.7125 304.559 33.7454L302.45 34.1198C302.076 34.1855 301.783 34.1395 301.573 33.9819C301.357 33.8242 301.248 33.5647 301.248 33.2034ZM307.708 25.6418L309.193 25.3899C309.317 25.3997 309.412 25.5121 309.403 25.6418C309.4 25.6937 309.38 25.7423 309.347 25.7809L308.411 27.4372L308.999 29.1644C309.03 29.2904 308.956 29.4176 308.835 29.4488C308.787 29.4612 308.736 29.4569 308.69 29.436L307.018 29.0444L305.3 30.2836C305.244 30.3192 305.223 30.3192 305.181 30.3192H305.18C305.138 30.3193 305.097 30.307 305.061 30.2838C305.025 30.2606 304.996 30.2275 304.977 30.1881C304.958 30.1487 304.95 30.1047 304.954 30.061L305.244 27.9617L303.784 26.8759C303.738 26.8357 303.709 26.7781 303.703 26.7159C303.698 26.6536 303.716 26.5918 303.755 26.5441C303.787 26.5048 303.83 26.4773 303.879 26.4662L305.715 25.9311L306.389 24.1839C306.436 24.0639 306.568 24.0061 306.683 24.0549C306.73 24.0743 306.768 24.1091 306.794 24.1536L307.708 25.6418Z" fill="white"/>
<rect x="104" y="1.15161" width="230" height="49.7652" stroke="white"/>
<path d="M135.016 69.6887H130.12V83.7287L125.62 69.6887H120.616V98.4167H125.512V84.0887L130.048 98.4167H135.016V69.6887ZM150.313 69.6887H137.605V98.4167H142.861V86.4287H149.737V81.6047H142.861V74.6207H150.313V69.6887ZM164.879 93.5567H157.283V69.6887H152.027V98.4167H164.879V93.5567ZM181.472 91.4687L182.408 98.4167H187.736L183.452 69.6887H176.072L171.284 98.4167H176.54L177.548 91.4687H181.472ZM178.052 87.2207C178.052 87.2207 179.348 78.8687 179.348 78.7247C179.6 77.1767 179.672 74.3687 179.672 74.3687C179.672 74.3687 179.744 77.2127 179.924 78.7247C179.924 78.8687 181.004 87.2207 181.004 87.2207H178.052ZM193.855 96.9407V70.8767C193.855 70.2287 193.783 69.7247 193.747 69.6527H188.887C188.995 69.9047 188.995 70.7687 188.995 71.3807V97.0487C188.995 97.7687 189.067 98.3087 189.211 98.4167C189.211 98.4527 194.035 98.4167 194.035 98.4167C193.891 98.3087 193.855 97.8407 193.855 96.9407ZM200.719 96.9407V70.8767C200.719 70.2287 200.647 69.7247 200.611 69.6527H195.751C195.859 69.9047 195.859 70.7687 195.859 71.3807V97.0487C195.859 97.7687 195.931 98.3087 196.075 98.4167C196.075 98.4527 200.899 98.4167 200.899 98.4167C200.755 98.3087 200.719 97.8407 200.719 96.9407ZM223.507 83.4407C223.507 78.9407 223.327 73.9367 222.211 72.3167C220.951 70.4447 219.331 69.6887 216.271 69.6887H208.855V98.4167H216.919C219.871 98.4167 221.275 97.3007 222.211 95.6807C223.327 93.7727 223.507 89.3807 223.507 83.4407ZM216.343 94.2767H214.039V74.1527H216.127C217.171 74.1527 217.819 74.6567 218.107 75.8447C218.359 76.8167 218.467 82.0007 218.467 83.4407C218.467 84.9167 218.395 91.6487 218.143 92.8007C217.891 93.8447 217.279 94.2767 216.343 94.2767ZM237.731 94.8887C237.731 93.4127 237.767 91.0007 237.767 89.4527C237.803 87.6167 237.839 84.6287 237.767 82.9007C237.659 80.1287 235.931 78.3647 231.791 78.3647C227.399 78.3647 225.599 80.3447 225.599 84.0527V85.5287H230.063V84.4127C230.063 83.0447 230.495 82.3607 231.719 82.3607C232.619 82.3607 233.087 82.8647 233.123 83.7287C233.159 84.3407 233.159 85.5647 233.159 86.1047C232.367 86.1047 231.539 86.2127 230.639 86.3567C227.327 86.9687 225.095 88.7687 224.915 91.6487C224.843 92.6927 224.879 94.3847 224.915 94.8167C225.059 97.6967 227.255 98.5607 229.235 98.5607C230.999 98.5607 232.331 98.0927 233.231 96.9767C233.231 97.4807 233.339 98.4167 233.411 98.4167H237.983C237.803 98.1647 237.731 96.3287 237.731 94.8887ZM233.159 90.8567C233.087 91.8647 233.159 92.3687 232.979 93.4127C232.799 94.4207 231.935 94.8167 231.179 94.8167C230.459 94.8167 229.883 94.5647 229.775 93.8807C229.703 93.3047 229.703 92.6207 229.703 92.0807C229.703 91.2527 229.739 90.6767 230.351 90.1367C230.891 89.6687 231.503 89.5607 232.007 89.4527C232.439 89.3807 232.799 89.3807 233.159 89.3807C233.159 89.6687 233.195 90.4607 233.159 90.8567ZM248.239 78.6167C248.203 79.2287 245.899 90.9287 245.827 91.3607C245.791 90.9647 243.487 79.1207 243.415 78.6167H238.519L243.235 97.8767L241.615 104.285H246.547L253.027 78.6167H248.239ZM134.152 116.281C133.324 114.589 131.452 113.689 129.256 113.689H120.616V142.417H125.836V130.465H127.708L130.588 142.417H136.024L132.532 129.025C133.252 128.773 134.044 127.981 134.476 126.865C134.908 125.821 135.16 124.273 135.16 122.005C135.16 119.449 134.764 117.469 134.152 116.281ZM129.58 125.101C129.436 125.605 129.04 125.929 128.356 126.001C128.176 126.037 125.836 126.037 125.836 126.037V118.477H128.212C129.076 118.477 129.544 119.053 129.724 119.845C129.796 120.205 129.868 121.537 129.868 122.509C129.868 123.373 129.796 124.597 129.58 125.101ZM145.136 135.973C145.136 136.477 145.064 137.089 144.92 137.701C144.74 138.493 143.984 138.817 143.264 138.817C142.544 138.817 141.716 138.385 141.608 137.413C141.5 136.513 141.464 135.073 141.464 134.173H149.636C149.816 130.789 149.564 127.333 148.88 125.641C148.052 123.625 146.144 122.365 143.372 122.365C139.952 122.365 138.44 123.913 137.72 125.677C137.18 126.973 136.784 129.637 136.784 132.625C136.784 135.685 137.036 137.953 137.864 139.861C138.728 141.877 140.78 142.669 143.444 142.669C146.108 142.669 147.728 141.589 148.592 140.041C149.348 138.709 149.528 136.549 149.528 135.973H145.136ZM141.392 130.645C141.392 129.277 141.428 127.981 141.68 127.369C141.932 126.685 142.508 126.325 143.3 126.325C144.128 126.325 144.668 126.721 144.848 127.405C144.992 127.873 145.1 128.845 145.1 130.645H141.392ZM167.346 122.617L165.762 137.161L163.674 122.617H158.742L156.906 137.161L155.07 122.617H150.174L153.738 142.417H159.498C159.498 142.417 160.758 135.397 161.154 133.057C161.19 132.841 161.226 131.005 161.226 131.005C161.226 131.005 161.334 132.841 161.37 133.057C161.766 135.325 162.99 142.417 162.99 142.417H168.678L172.134 122.617H167.346ZM185.227 138.889C185.227 137.413 185.263 135.001 185.263 133.453C185.299 131.617 185.335 128.629 185.263 126.901C185.155 124.129 183.427 122.365 179.287 122.365C174.895 122.365 173.095 124.345 173.095 128.053V129.529H177.559V128.413C177.559 127.045 177.991 126.361 179.215 126.361C180.115 126.361 180.583 126.865 180.619 127.729C180.655 128.341 180.655 129.565 180.655 130.105C179.863 130.105 179.035 130.213 178.135 130.357C174.823 130.969 172.591 132.769 172.411 135.649C172.339 136.693 172.375 138.385 172.411 138.817C172.555 141.697 174.751 142.561 176.731 142.561C178.495 142.561 179.827 142.093 180.727 140.977C180.727 141.481 180.835 142.417 180.907 142.417H185.479C185.299 142.165 185.227 140.329 185.227 138.889ZM180.655 134.857C180.583 135.865 180.655 136.369 180.475 137.413C180.295 138.421 179.431 138.817 178.675 138.817C177.955 138.817 177.379 138.565 177.271 137.881C177.199 137.305 177.199 136.621 177.199 136.081C177.199 135.253 177.235 134.677 177.847 134.137C178.387 133.669 178.999 133.561 179.503 133.453C179.935 133.381 180.295 133.381 180.655 133.381C180.655 133.669 180.691 134.461 180.655 134.857ZM195.687 122.365C194.031 122.365 192.375 123.445 192.159 124.957V122.617H187.407V142.417H192.231V130.681C192.231 127.441 193.239 126.721 194.895 126.721C195.867 126.721 196.839 126.901 197.415 127.081V122.545C197.019 122.401 196.443 122.365 195.687 122.365ZM198.886 125.533C198.31 127.693 198.13 129.673 198.13 132.589C198.13 135.757 198.49 138.385 199.138 139.969C199.858 141.769 201.19 142.561 203.17 142.561C204.934 142.561 206.122 141.985 206.77 140.977L207.346 142.417H211.378C211.378 142.417 211.234 140.761 211.234 139.645V113.653H206.518V124.057C205.978 123.013 204.682 122.437 203.17 122.437C201.046 122.437 199.39 123.589 198.886 125.533ZM206.194 127.621C206.41 128.701 206.554 129.781 206.554 132.625C206.554 134.353 206.482 136.153 206.23 137.413C206.086 138.169 205.618 138.745 204.682 138.745C203.71 138.745 203.206 138.277 203.098 137.521C202.918 136.045 202.846 134.281 202.846 132.625C202.846 130.933 202.918 129.241 203.17 127.801C203.314 127.081 203.818 126.541 204.718 126.541C205.618 126.541 206.05 126.937 206.194 127.621Z" fill="white"/>
<rect x="104" y="1.15161" width="230" height="161.765" stroke="white"/>
</g>
<rect x="1" y="1.15161" width="333" height="161.765" rx="11.5" stroke="white"/>
<defs>
<clipPath id="clip0_2388_31321">
<rect x="0.5" y="0.651611" width="334" height="162.765" rx="12" fill="white"/>
</clipPath>
</defs>
</svg>
