<svg width="100%" height="auto" viewBox="0 0 334 168" fill="none" xmlns="http://www.w3.org/2000/svg">
<g clip-path="url(#clip0_4719_146421)">
<path d="M58.64 43.864H51.728C51.024 45.4 49.232 48.344 42.64 48.792V56.152L49.68 55.832V95H58.64V43.864Z" fill="white"/>
<path d="M47.9572 111.912C47.9572 111.912 46.0672 120.13 46.0672 120.466C46.0672 120.13 44.3312 111.912 44.3312 111.912H42.2872C42.2872 111.912 40.5652 120.13 40.5652 120.466C40.5652 120.13 38.6752 111.912 38.6752 111.912H36.7292L39.3892 123H41.4752C41.4752 123 43.2812 114.796 43.2812 114.432C43.2952 114.796 45.0312 123 45.0312 123H47.1312L49.7632 111.912H47.9572ZM54.2525 111.912H52.3625V123H54.2525V111.912ZM65.3909 111.912H63.6409V119.472L59.8609 111.912H57.7749V123H59.5249V115.244L63.4169 123H65.3909V111.912Z" fill="white"/>
<path d="M121.496 22H122.66V13.396H121.76C121.604 14.644 120.596 15.052 119.516 15.076V15.844H121.496V22ZM130.402 24.256C131.266 24.256 131.986 24.064 132.49 23.644C132.982 23.224 133.27 22.588 133.27 21.736V15.556H132.166V16.408H132.142C131.734 15.76 131.11 15.4 130.186 15.4C128.674 15.4 127.426 16.576 127.426 18.556C127.426 20.428 128.602 21.712 130.246 21.712C131.158 21.712 131.722 21.316 132.166 20.68H132.19C132.178 20.884 132.166 21.232 132.166 21.604V21.784C132.166 22.876 131.53 23.392 130.378 23.392C129.418 23.392 128.77 23.116 128.674 22.444H127.63C127.75 23.584 128.71 24.256 130.402 24.256ZM130.354 20.8C129.19 20.8 128.566 19.936 128.566 18.568C128.566 17.212 129.166 16.324 130.342 16.324C131.626 16.324 132.238 17.152 132.238 18.508C132.238 19.816 131.758 20.8 130.354 20.8ZM136.735 22.132C137.827 22.132 138.487 21.616 138.895 21.052H138.907C139.027 21.736 139.363 22.06 140.047 22.06C140.311 22.06 140.491 22.012 140.647 21.964V21.184H140.599C140.035 21.304 139.915 21.028 139.915 20.512V17.5C139.915 16.636 139.591 16.072 139.051 15.748C138.643 15.508 138.103 15.4 137.491 15.4C135.751 15.4 134.923 16.372 134.875 17.464H135.955C135.991 16.696 136.483 16.216 137.503 16.216C138.391 16.216 138.883 16.648 138.883 17.344C138.883 18.004 138.271 18.16 137.323 18.268C135.655 18.472 134.551 18.796 134.551 20.296C134.551 21.532 135.511 22.132 136.735 22.132ZM137.011 21.316C136.363 21.316 135.727 21.112 135.727 20.284C135.727 19.396 136.423 19.204 137.479 19.024C138.007 18.928 138.571 18.772 138.895 18.568V19.624C138.895 20.368 138.295 21.316 137.011 21.316ZM141.553 22H142.669V18.028C142.669 17.044 143.497 16.336 144.265 16.336C144.925 16.336 145.369 16.804 145.369 17.596V22H146.473V18.028C146.473 17.044 147.181 16.336 147.997 16.336C148.645 16.336 149.161 16.804 149.161 17.596V22H150.277V17.5C150.277 16.156 149.461 15.4 148.285 15.4C147.505 15.4 146.749 15.796 146.293 16.6H146.269C146.005 15.808 145.381 15.4 144.601 15.4C143.773 15.4 143.089 15.82 142.693 16.516H142.657V15.556H141.553V22ZM154.568 22.18C156.056 22.18 157.088 21.364 157.376 20.164H156.284C156.08 20.848 155.468 21.268 154.58 21.268C153.332 21.268 152.648 20.308 152.564 19.048H157.508C157.508 17.956 157.244 17.032 156.716 16.396C156.212 15.772 155.468 15.4 154.508 15.4C152.66 15.4 151.424 16.912 151.424 18.784C151.424 20.668 152.588 22.18 154.568 22.18ZM154.508 16.264C155.624 16.264 156.26 17.008 156.32 18.244H152.588C152.732 17.104 153.344 16.264 154.508 16.264ZM163.277 22H164.405L165.377 18.448C165.533 17.836 165.773 16.648 165.773 16.648H165.797C165.797 16.648 166.049 17.824 166.205 18.448L167.153 22H168.269L170.369 15.556H169.217L168.149 19.132C167.909 19.924 167.729 21.028 167.729 21.028H167.705C167.705 21.028 167.477 19.84 167.297 19.156L166.337 15.556H165.281L164.309 19.156C164.093 19.936 163.877 21.016 163.877 21.016H163.853C163.853 21.016 163.637 19.864 163.433 19.132L162.425 15.556H161.237L163.277 22ZM171.236 14.368H172.4V13.072H171.236V14.368ZM171.26 22H172.376V15.556H171.26V22ZM175.013 15.556H173.909V22H175.025V18.076C175.025 17.044 175.745 16.336 176.741 16.336C177.617 16.336 178.157 16.804 178.157 17.632V22H179.261V17.5C179.261 16.156 178.433 15.4 177.089 15.4C176.153 15.4 175.517 15.82 175.049 16.468H175.013V15.556ZM186.424 22.192C187.936 22.192 189.016 21.52 189.016 20.212C189.016 18.712 187.912 18.424 186.628 18.172C185.536 17.956 184.912 17.824 184.912 17.152C184.912 16.66 185.284 16.252 186.16 16.252C187.084 16.252 187.54 16.624 187.636 17.284H188.752C188.608 16.168 187.804 15.412 186.184 15.412C184.684 15.412 183.82 16.108 183.82 17.212C183.82 18.628 184.96 18.892 186.22 19.156C187.36 19.384 187.9 19.564 187.9 20.272C187.9 20.848 187.468 21.292 186.448 21.292C185.524 21.292 184.804 20.98 184.672 20.044H183.544C183.64 21.352 184.648 22.192 186.424 22.192ZM189.708 16.42H190.716V20.74C190.716 21.688 191.316 22.036 192.18 22.048C192.468 22.048 192.78 22.012 193.08 21.94V21.004H193.044C192.924 21.04 192.672 21.088 192.48 21.088C192.072 21.088 191.82 20.956 191.82 20.488V16.42H193.152V15.556H191.82V13.528H190.716V15.556H189.708V16.42ZM195.415 15.556H194.311V22H195.427V18.496C195.427 17.284 196.279 16.54 197.275 16.54C197.467 16.54 197.575 16.552 197.731 16.6H197.767V15.544C197.647 15.496 197.539 15.472 197.359 15.472C196.507 15.472 195.847 15.976 195.451 16.72H195.415V15.556ZM201.419 22.18C202.907 22.18 203.939 21.364 204.227 20.164H203.135C202.931 20.848 202.319 21.268 201.431 21.268C200.183 21.268 199.499 20.308 199.415 19.048H204.359C204.359 17.956 204.095 17.032 203.567 16.396C203.063 15.772 202.319 15.4 201.359 15.4C199.511 15.4 198.275 16.912 198.275 18.784C198.275 20.668 199.439 22.18 201.419 22.18ZM201.359 16.264C202.475 16.264 203.111 17.008 203.171 18.244H199.439C199.583 17.104 200.195 16.264 201.359 16.264ZM207.469 22.132C208.561 22.132 209.221 21.616 209.629 21.052H209.641C209.761 21.736 210.097 22.06 210.781 22.06C211.045 22.06 211.225 22.012 211.381 21.964V21.184H211.333C210.769 21.304 210.649 21.028 210.649 20.512V17.5C210.649 16.636 210.325 16.072 209.785 15.748C209.377 15.508 208.837 15.4 208.225 15.4C206.485 15.4 205.657 16.372 205.609 17.464H206.689C206.725 16.696 207.217 16.216 208.237 16.216C209.125 16.216 209.617 16.648 209.617 17.344C209.617 18.004 209.005 18.16 208.057 18.268C206.389 18.472 205.285 18.796 205.285 20.296C205.285 21.532 206.245 22.132 207.469 22.132ZM207.745 21.316C207.097 21.316 206.461 21.112 206.461 20.284C206.461 19.396 207.157 19.204 208.213 19.024C208.741 18.928 209.305 18.772 209.629 18.568V19.624C209.629 20.368 209.029 21.316 207.745 21.316ZM216.524 22H217.832L215.084 17.872L217.544 15.556H216.152L213.356 18.304C213.38 17.992 213.404 17.536 213.404 17.308V13.072H212.288V22H213.404V19.468L214.316 18.604L216.524 22ZM221.979 24.184H223.095V22.228C223.095 21.736 223.083 21.376 223.071 21.148H223.107C223.551 21.832 224.259 22.192 225.135 22.192C226.875 22.192 227.943 20.86 227.943 18.796C227.943 16.672 226.815 15.4 225.171 15.4C224.247 15.4 223.599 15.832 223.119 16.564H223.083V15.556H221.979V24.184ZM225.015 21.268C223.587 21.268 223.035 20.176 223.035 18.82C223.035 17.452 223.659 16.348 225.027 16.348C226.215 16.348 226.803 17.404 226.803 18.82C226.803 20.224 226.203 21.268 225.015 21.268ZM230.231 15.556H229.127V22H230.243V18.496C230.243 17.284 231.095 16.54 232.091 16.54C232.283 16.54 232.391 16.552 232.547 16.6H232.583V15.544C232.463 15.496 232.355 15.472 232.175 15.472C231.323 15.472 230.663 15.976 230.267 16.72H230.231V15.556ZM233.65 14.368H234.814V13.072H233.65V14.368ZM233.674 22H234.79V15.556H233.674V22ZM236.083 22H241.279V21.016H238.675C238.207 21.016 237.391 21.052 237.391 21.052V21.016C237.391 21.016 237.931 20.428 238.207 20.08L241.135 16.252V15.556H236.299V16.504H238.519C238.963 16.504 239.731 16.468 239.731 16.468V16.504C239.731 16.504 239.227 17.044 238.963 17.38L236.083 21.136V22ZM245.025 22.18C246.513 22.18 247.545 21.364 247.833 20.164H246.741C246.537 20.848 245.925 21.268 245.037 21.268C243.789 21.268 243.105 20.308 243.021 19.048H247.965C247.965 17.956 247.701 17.032 247.173 16.396C246.669 15.772 245.925 15.4 244.965 15.4C243.117 15.4 241.881 16.912 241.881 18.784C241.881 20.668 243.045 22.18 245.025 22.18ZM244.965 16.264C246.081 16.264 246.717 17.008 246.777 18.244H243.045C243.189 17.104 243.801 16.264 244.965 16.264Z" fill="white"/>
<path fill-rule="evenodd" clip-rule="evenodd" d="M304.026 27.0782L313.009 25.4935C313.523 25.4004 313.912 25.2033 314.175 24.9023C314.432 24.6067 314.561 24.207 314.561 23.7034V12.3965C314.561 12.0078 314.479 11.6794 314.315 11.4111C314.15 11.1429 313.92 10.954 313.625 10.8445C313.329 10.7296 312.982 10.7077 312.582 10.7789L303.862 12.3144C303.062 12.4567 302.46 12.7058 302.055 13.0616C301.644 13.4119 301.439 13.9895 301.439 14.7942V24.7052C301.439 25.2909 301.543 25.7754 301.751 26.1586C301.959 26.5473 302.258 26.821 302.646 26.9797C303.029 27.1385 303.489 27.1713 304.026 27.0782ZM312.442 13.9402V15.6728C312.442 15.8425 312.388 15.9711 312.278 16.0587C312.169 16.1463 312.043 16.1928 311.9 16.1983C311.758 16.1983 311.635 16.16 311.531 16.0833C311.421 16.0012 311.367 15.8781 311.367 15.7138V14.6135C311.367 14.3891 311.238 14.296 310.981 14.3343L309.897 14.5314C309.722 14.5588 309.585 14.5287 309.486 14.4411C309.382 14.348 309.319 14.2331 309.297 14.0962C309.27 13.9594 309.289 13.8307 309.355 13.7103C309.415 13.5898 309.522 13.5159 309.675 13.4886L311.441 13.1765C311.753 13.1218 311.999 13.1601 312.18 13.2915C312.355 13.4229 312.442 13.6391 312.442 13.9402ZM304.699 15.9684V17.0112C304.699 17.1809 304.647 17.3123 304.543 17.4054C304.434 17.4984 304.308 17.5477 304.165 17.5532C304.023 17.5586 303.897 17.5176 303.788 17.43C303.678 17.3369 303.623 17.1973 303.623 17.0112V15.6399C303.623 15.2567 303.725 14.9639 303.927 14.7613C304.124 14.5533 304.45 14.4082 304.904 14.3261L305.758 14.1783C305.944 14.1455 306.095 14.1728 306.21 14.2604C306.319 14.348 306.385 14.463 306.407 14.6053C306.429 14.7422 306.404 14.8708 306.333 14.9912C306.256 15.1117 306.125 15.1883 305.939 15.2212L305.257 15.3443C305.017 15.3881 304.863 15.473 304.798 15.5989C304.732 15.7193 304.699 15.8425 304.699 15.9684ZM311.367 21.9462V20.9034C311.367 20.7337 311.421 20.6023 311.531 20.5092C311.635 20.4162 311.758 20.3669 311.9 20.3614C312.043 20.3559 312.169 20.3997 312.278 20.4928C312.388 20.5804 312.442 20.7172 312.442 20.9034V22.2746C312.442 22.6578 312.344 22.9534 312.147 23.1615C311.944 23.364 311.616 23.5063 311.161 23.5885L310.307 23.7363C310.121 23.7691 309.973 23.7417 309.864 23.6541C309.749 23.5611 309.681 23.4461 309.659 23.3093C309.631 23.1724 309.656 23.0438 309.733 22.9233C309.809 22.7974 309.941 22.7208 310.127 22.6934L310.808 22.5703C311.049 22.5265 311.202 22.4416 311.268 22.3157C311.334 22.1898 311.367 22.0666 311.367 21.9462ZM303.623 23.9744V22.2418C303.623 22.0666 303.678 21.938 303.788 21.8559C303.897 21.7683 304.023 21.7245 304.165 21.7245C304.308 21.719 304.434 21.7573 304.543 21.8394C304.647 21.9161 304.699 22.0365 304.699 22.2007V23.3011C304.699 23.5255 304.828 23.6186 305.085 23.5802L306.169 23.3832C306.344 23.3558 306.484 23.3886 306.588 23.4817C306.686 23.5693 306.749 23.6815 306.777 23.8184C306.798 23.9552 306.779 24.0839 306.719 24.2043C306.653 24.3247 306.541 24.3986 306.382 24.426L304.625 24.738C304.313 24.7928 304.07 24.7545 303.894 24.6231C303.714 24.4917 303.623 24.2755 303.623 23.9744ZM309.007 17.673L310.244 17.4631C310.348 17.4713 310.427 17.5649 310.419 17.673C310.416 17.7162 310.4 17.7568 310.373 17.7889L309.592 19.1691L310.082 20.6085C310.108 20.7135 310.047 20.8195 309.946 20.8455C309.906 20.8558 309.863 20.8523 309.825 20.8349L308.432 20.5085L307 21.5412C306.953 21.5708 306.936 21.5708 306.9 21.5709H306.9C306.865 21.5709 306.831 21.5607 306.801 21.5414C306.771 21.522 306.746 21.4944 306.731 21.4616C306.715 21.4288 306.708 21.3921 306.712 21.3557L306.953 19.6062L305.737 18.7015C305.698 18.6679 305.674 18.6199 305.669 18.5681C305.665 18.5162 305.68 18.4647 305.712 18.4249C305.739 18.3922 305.775 18.3692 305.816 18.36L307.346 17.9141L307.907 16.4581C307.947 16.3581 308.056 16.3099 308.153 16.3506C308.191 16.3668 308.224 16.3957 308.245 16.4329L309.007 17.673Z" fill="white"/>
<rect x="103.5" y="0.5" width="230" height="35" stroke="white"/>
<path d="M131.93 71.06H127.85V82.76L124.1 71.06H119.93V95H124.01V83.06L127.79 95H131.93V71.06ZM144.827 71.06H134.237V95H138.617V85.01H144.347V80.99H138.617V75.17H144.827V71.06ZM157.116 90.95H150.786V71.06H146.406V95H157.116V90.95ZM171.243 89.21L172.023 95H176.463L172.893 71.06H166.743L162.753 95H167.133L167.973 89.21H171.243ZM168.393 85.67C168.393 85.67 169.473 78.71 169.473 78.59C169.683 77.3 169.743 74.96 169.743 74.96C169.743 74.96 169.803 77.33 169.953 78.59C169.953 78.71 170.853 85.67 170.853 85.67H168.393ZM188.554 90.95H182.224V71.06H177.844V95H188.554V90.95ZM200.752 90.95H194.422V71.06H190.042V95H200.752V90.95ZM219.529 82.52C219.529 78.77 219.379 74.6 218.449 73.25C217.399 71.69 216.049 71.06 213.499 71.06H207.319V95H214.039C216.499 95 217.669 94.07 218.449 92.72C219.379 91.13 219.529 87.47 219.529 82.52ZM213.559 91.55H211.639V74.78H213.379C214.249 74.78 214.789 75.2 215.029 76.19C215.239 77 215.329 81.32 215.329 82.52C215.329 83.75 215.269 89.36 215.059 90.32C214.849 91.19 214.339 91.55 213.559 91.55ZM228.747 89.21L229.527 95H233.967L230.397 71.06H224.247L220.257 95H224.637L225.477 89.21H228.747ZM225.897 85.67C225.897 85.67 226.977 78.71 226.977 78.59C227.187 77.3 227.247 74.96 227.247 74.96C227.247 74.96 227.307 77.33 227.457 78.59C227.457 78.71 228.357 85.67 228.357 85.67H225.897ZM242.975 71.06C242.975 71.06 240.335 79.79 239.945 81.05C239.675 79.82 237.335 71.06 237.335 71.06H232.865L237.755 86.12V95H242.135V86.03L247.295 71.06H242.975ZM131.03 108.77C130.16 107.63 128.9 107.06 127.04 107.06H119.93V131H124.34V121.94C124.34 121.94 126.38 121.97 126.98 121.91C128.78 121.79 130.1 121.31 130.97 120.23C131.87 119.15 132.23 117.35 132.23 114.5C132.23 111.68 131.81 109.76 131.03 108.77ZM127.64 117.08C127.52 117.86 127.01 118.19 126.02 118.19H124.34V111.11H126.14C126.83 111.11 127.34 111.5 127.52 112.01C127.67 112.43 127.82 113.42 127.82 114.68C127.82 115.97 127.79 116.27 127.64 117.08ZM137.872 129.77V108.05C137.872 107.51 137.812 107.09 137.782 107.03H133.732C133.822 107.24 133.822 107.96 133.822 108.47V129.86C133.822 130.46 133.882 130.91 134.002 131C134.002 131.03 138.022 131 138.022 131C137.902 130.91 137.872 130.52 137.872 129.77ZM150.072 128.06C150.072 126.83 150.102 124.82 150.102 123.53C150.132 122 150.162 119.51 150.102 118.07C150.012 115.76 148.572 114.29 145.122 114.29C141.462 114.29 139.962 115.94 139.962 119.03V120.26H143.682V119.33C143.682 118.19 144.042 117.62 145.062 117.62C145.812 117.62 146.202 118.04 146.232 118.76C146.262 119.27 146.262 120.29 146.262 120.74C145.602 120.74 144.912 120.83 144.162 120.95C141.402 121.46 139.542 122.96 139.392 125.36C139.332 126.23 139.362 127.64 139.392 128C139.512 130.4 141.342 131.12 142.992 131.12C144.462 131.12 145.572 130.73 146.322 129.8C146.322 130.22 146.412 131 146.472 131H150.282C150.132 130.79 150.072 129.26 150.072 128.06ZM146.262 124.7C146.202 125.54 146.262 125.96 146.112 126.83C145.962 127.67 145.242 128 144.612 128C144.012 128 143.532 127.79 143.442 127.22C143.382 126.74 143.382 126.17 143.382 125.72C143.382 125.03 143.412 124.55 143.922 124.1C144.372 123.71 144.882 123.62 145.302 123.53C145.662 123.47 145.962 123.47 146.262 123.47C146.262 123.71 146.292 124.37 146.262 124.7ZM158.978 114.5C158.948 115.01 157.028 124.76 156.968 125.12C156.938 124.79 155.018 114.92 154.958 114.5H150.878L154.808 130.55L153.458 135.89H157.568L162.968 114.5H158.978ZM168.136 115.85V107.03H164.236V131H167.536L167.986 129.89C168.706 130.73 169.636 131.06 171.046 131.06C172.996 131.06 174.436 129.65 174.796 127.7C175.126 125.84 175.246 124.58 175.246 122.48C175.246 120.23 175.156 118.28 174.796 117.02C174.256 115.13 172.996 114.29 171.196 114.29C169.666 114.29 168.526 114.92 168.136 115.85ZM171.046 118.97C171.196 119.87 171.196 121.31 171.196 122.69C171.196 124.1 171.166 125.69 171.016 126.83C170.926 127.58 170.476 128.09 169.696 128.09C168.856 128.09 168.406 127.7 168.286 126.83C168.136 125.78 168.106 125.06 168.106 122.69C168.106 121.31 168.166 120.44 168.256 119.21C168.316 118.4 168.886 117.71 169.726 117.71C170.506 117.71 170.926 118.13 171.046 118.97ZM187.102 117.65C186.562 115.76 185.122 114.29 182.152 114.29C179.182 114.29 177.712 115.91 177.232 117.56C176.812 118.97 176.602 120.95 176.602 122.72C176.602 124.55 176.842 126.77 177.112 127.76C177.682 129.83 179.392 131.21 182.092 131.21C184.942 131.21 186.472 129.86 187.072 127.76C187.432 126.56 187.612 124.52 187.612 122.72C187.612 120.95 187.462 118.88 187.102 117.65ZM183.532 126.77C183.442 127.4 182.872 127.94 182.122 127.94C181.402 127.94 180.862 127.55 180.742 126.8C180.592 126.02 180.562 124.07 180.562 122.78C180.562 121.55 180.592 119.54 180.742 118.85C180.922 118.1 181.342 117.68 182.122 117.68C182.932 117.68 183.352 118.01 183.532 118.79C183.652 119.42 183.712 121.52 183.712 122.78C183.712 124.04 183.742 125.33 183.532 126.77ZM199.535 117.65C198.995 115.76 197.555 114.29 194.585 114.29C191.615 114.29 190.145 115.91 189.665 117.56C189.245 118.97 189.035 120.95 189.035 122.72C189.035 124.55 189.275 126.77 189.545 127.76C190.115 129.83 191.825 131.21 194.525 131.21C197.375 131.21 198.905 129.86 199.505 127.76C199.865 126.56 200.045 124.52 200.045 122.72C200.045 120.95 199.895 118.88 199.535 117.65ZM195.965 126.77C195.875 127.4 195.305 127.94 194.555 127.94C193.835 127.94 193.295 127.55 193.175 126.8C193.025 126.02 192.995 124.07 192.995 122.78C192.995 121.55 193.025 119.54 193.175 118.85C193.355 118.1 193.775 117.68 194.555 117.68C195.365 117.68 195.785 118.01 195.965 118.79C196.085 119.42 196.145 121.52 196.145 122.78C196.145 124.04 196.175 125.33 195.965 126.77ZM209.747 120.5L212.867 114.5H208.967L205.757 120.83V107.03H201.797V131H205.757V126.05L206.927 124.16L208.997 131H213.017L209.747 120.5ZM226.96 125.21L227.74 131H232.18L228.61 107.06H222.46L218.47 131H222.85L223.69 125.21H226.96ZM224.11 121.67C224.11 121.67 225.19 114.71 225.19 114.59C225.4 113.3 225.46 110.96 225.46 110.96C225.46 110.96 225.52 113.33 225.67 114.59C225.67 114.71 226.57 121.67 226.57 121.67H224.11ZM243.342 117.29C242.802 115.58 241.542 114.29 238.452 114.29C236.112 114.29 234.432 115.34 233.832 117.11C233.232 118.91 233.052 120.35 233.052 122.75C233.052 125.24 233.412 127.73 233.892 128.81C234.552 130.31 236.142 131.21 238.512 131.21C240.942 131.21 242.502 130.13 243.042 128.75C243.612 127.31 243.642 126.62 243.642 124.37H239.922C239.922 125.42 239.922 125.75 239.802 126.62C239.712 127.31 239.292 127.85 238.512 127.85C237.732 127.85 237.342 127.49 237.222 126.65C237.042 125.42 236.982 123.74 236.982 122.78C236.982 121.58 237.042 120.08 237.222 118.91C237.342 118.1 237.762 117.68 238.482 117.68C239.322 117.68 239.622 118.22 239.712 118.88C239.802 119.51 239.892 120.26 239.892 121.22H243.642C243.642 119.21 243.552 118.01 243.342 117.29ZM255.247 117.29C254.707 115.58 253.447 114.29 250.357 114.29C248.017 114.29 246.337 115.34 245.737 117.11C245.137 118.91 244.957 120.35 244.957 122.75C244.957 125.24 245.317 127.73 245.797 128.81C246.457 130.31 248.047 131.21 250.417 131.21C252.847 131.21 254.407 130.13 254.947 128.75C255.517 127.31 255.547 126.62 255.547 124.37H251.827C251.827 125.42 251.827 125.75 251.707 126.62C251.617 127.31 251.197 127.85 250.417 127.85C249.637 127.85 249.247 127.49 249.127 126.65C248.947 125.42 248.887 123.74 248.887 122.78C248.887 121.58 248.947 120.08 249.127 118.91C249.247 118.1 249.667 117.68 250.387 117.68C251.227 117.68 251.527 118.22 251.617 118.88C251.707 119.51 251.797 120.26 251.797 121.22H255.547C255.547 119.21 255.457 118.01 255.247 117.29ZM267.332 117.65C266.792 115.76 265.352 114.29 262.382 114.29C259.412 114.29 257.942 115.91 257.462 117.56C257.042 118.97 256.832 120.95 256.832 122.72C256.832 124.55 257.072 126.77 257.342 127.76C257.912 129.83 259.622 131.21 262.322 131.21C265.172 131.21 266.702 129.86 267.302 127.76C267.662 126.56 267.842 124.52 267.842 122.72C267.842 120.95 267.692 118.88 267.332 117.65ZM263.762 126.77C263.672 127.4 263.102 127.94 262.352 127.94C261.632 127.94 261.092 127.55 260.972 126.8C260.822 126.02 260.792 124.07 260.792 122.78C260.792 121.55 260.822 119.54 260.972 118.85C261.152 118.1 261.572 117.68 262.352 117.68C263.162 117.68 263.582 118.01 263.762 118.79C263.882 119.42 263.942 121.52 263.942 122.78C263.942 124.04 263.972 125.33 263.762 126.77ZM273.555 129.77V108.05C273.555 107.51 273.495 107.09 273.465 107.03H269.415C269.505 107.24 269.505 107.96 269.505 108.47V129.86C269.505 130.46 269.565 130.91 269.685 131C269.685 131.03 273.705 131 273.705 131C273.585 130.91 273.555 130.52 273.555 129.77ZM285.755 128.06C285.755 126.83 285.785 124.82 285.785 123.53C285.815 122 285.845 119.51 285.785 118.07C285.695 115.76 284.255 114.29 280.805 114.29C277.145 114.29 275.645 115.94 275.645 119.03V120.26H279.365V119.33C279.365 118.19 279.725 117.62 280.745 117.62C281.495 117.62 281.885 118.04 281.915 118.76C281.945 119.27 281.945 120.29 281.945 120.74C281.285 120.74 280.595 120.83 279.845 120.95C277.085 121.46 275.225 122.96 275.075 125.36C275.015 126.23 275.045 127.64 275.075 128C275.195 130.4 277.025 131.12 278.675 131.12C280.145 131.12 281.255 130.73 282.005 129.8C282.005 130.22 282.095 131 282.155 131H285.965C285.815 130.79 285.755 129.26 285.755 128.06ZM281.945 124.7C281.885 125.54 281.945 125.96 281.795 126.83C281.645 127.67 280.925 128 280.295 128C279.695 128 279.215 127.79 279.125 127.22C279.065 126.74 279.065 126.17 279.065 125.72C279.065 125.03 279.095 124.55 279.605 124.1C280.055 123.71 280.565 123.62 280.985 123.53C281.345 123.47 281.645 123.47 281.945 123.47C281.945 123.71 281.975 124.37 281.945 124.7ZM288.051 116.93C287.571 118.73 287.421 120.38 287.421 122.81C287.421 125.45 287.721 127.64 288.261 128.96C288.861 130.46 289.971 131.12 291.621 131.12C293.091 131.12 294.081 130.64 294.621 129.8L295.101 131H298.461C298.461 131 298.341 129.62 298.341 128.69V107.03H294.411V115.7C293.961 114.83 292.881 114.35 291.621 114.35C289.851 114.35 288.471 115.31 288.051 116.93ZM294.141 118.67C294.321 119.57 294.441 120.47 294.441 122.84C294.441 124.28 294.381 125.78 294.171 126.83C294.051 127.46 293.661 127.94 292.881 127.94C292.071 127.94 291.651 127.55 291.561 126.92C291.411 125.69 291.351 124.22 291.351 122.84C291.351 121.43 291.411 120.02 291.621 118.82C291.741 118.22 292.161 117.77 292.911 117.77C293.661 117.77 294.021 118.1 294.141 118.67ZM306.872 125.63C306.872 126.05 306.812 126.56 306.692 127.07C306.542 127.73 305.912 128 305.312 128C304.712 128 304.022 127.64 303.932 126.83C303.842 126.08 303.812 124.88 303.812 124.13H310.622C310.772 121.31 310.562 118.43 309.992 117.02C309.302 115.34 307.712 114.29 305.402 114.29C302.552 114.29 301.292 115.58 300.692 117.05C300.242 118.13 299.912 120.35 299.912 122.84C299.912 125.39 300.122 127.28 300.812 128.87C301.532 130.55 303.242 131.21 305.462 131.21C307.682 131.21 309.032 130.31 309.752 129.02C310.382 127.91 310.532 126.11 310.532 125.63H306.872ZM303.752 121.19C303.752 120.05 303.782 118.97 303.992 118.46C304.202 117.89 304.682 117.59 305.342 117.59C306.032 117.59 306.482 117.92 306.632 118.49C306.752 118.88 306.842 119.69 306.842 121.19H303.752Z" fill="white"/>
<rect x="103.5" y="0.5" width="230" height="167" stroke="white"/>
</g>
<rect x="0.5" y="0.5" width="333" height="167" rx="7.5" stroke="white"/>
<defs>
<clipPath id="clip0_4719_146421">
<rect width="334" height="168" rx="8" fill="white"/>
</clipPath>
</defs>
</svg>
