<svg width="100%" height="auto" viewBox="0 0 334 180" fill="none" xmlns="http://www.w3.org/2000/svg">
<g clip-path="url(#clip0_4719_146416)">
<path d="M62.716 74.76C61.82 71.304 58.94 69.128 54.524 69.128C51.708 69.128 49.02 69.96 47.612 71.752C47.612 70.6 47.74 64.072 47.804 62.088C47.932 58.952 48.956 57.544 51.068 57.544C53.244 57.544 53.948 58.76 54.204 61.32C54.268 61.832 54.268 63.624 54.268 64.392H62.716C62.716 63.304 62.78 59.72 62.524 58.184C61.756 53.256 58.684 49.416 51.196 49.416C43.836 49.416 40.252 53.832 39.356 59.848C38.908 63.112 38.652 70.664 38.652 75.4C38.652 80.2 38.844 90.056 40.124 93.96C41.788 99.016 45.564 101.512 51.452 101.512C58.172 101.512 61.18 98.184 62.524 94.024C63.612 90.696 63.676 78.536 62.716 74.76ZM51.196 93.896C49.404 93.896 48.124 93 47.932 90.568C47.804 89.224 47.612 82.44 47.612 79.944C47.932 78.408 49.276 76.616 51.388 76.616C53.308 76.616 54.076 77.64 54.204 79.624C54.332 81.16 54.332 89.288 54.204 90.888C54.012 93.064 52.924 93.896 51.196 93.896Z" fill="white"/>
<path d="M42.6396 117.912C42.6396 117.912 40.7496 126.13 40.7496 126.466C40.7496 126.13 39.0136 117.912 39.0136 117.912H36.9696C36.9696 117.912 35.2476 126.13 35.2476 126.466C35.2476 126.13 33.3576 117.912 33.3576 117.912H31.4116L34.0716 129H36.1576C36.1576 129 37.9636 120.796 37.9636 120.432C37.9776 120.796 39.7136 129 39.7136 129H41.8136L44.4456 117.912H42.6396ZM48.9349 117.912H47.0449V129H48.9349V117.912ZM60.0734 117.912H58.3234V125.472L54.5434 117.912H52.4574V129H54.2074V121.244L58.0994 129H60.0734V117.912ZM68.4293 122.826C68.1213 122.714 67.4633 122.462 67.0713 122.336C65.7133 121.888 65.0413 121.454 65.0413 120.586C65.0413 119.844 65.5453 119.396 66.9593 119.396C68.1633 119.396 68.7233 119.732 68.9613 120.418C69.0453 120.67 69.0873 120.88 69.0873 121.118H70.9633C70.9633 120.698 70.8933 120.362 70.7953 120.026C70.4033 118.654 69.2833 117.786 67.0013 117.786C64.3833 117.786 63.1513 118.934 63.1513 120.642C63.1513 122.28 64.2293 123.26 65.8953 123.806C66.3573 123.96 67.0153 124.212 67.2953 124.31C68.7793 124.828 69.2273 125.276 69.2273 126.214C69.2273 127.054 68.6253 127.558 67.2113 127.558C66.0073 127.558 65.3073 127.25 65.0973 126.592C65.0133 126.326 64.9713 125.948 64.9713 125.752H63.1093C63.1093 126.074 63.1373 126.592 63.2353 126.97C63.5713 128.272 64.6913 129.14 67.2533 129.14C69.8433 129.14 71.1173 127.908 71.1173 126.06C71.1173 124.338 70.1653 123.428 68.4293 122.826Z" fill="white"/>
<path d="M123.008 22.192C124.652 22.192 125.96 20.872 125.948 19.252C125.936 17.656 124.676 16.372 123.104 16.372C122.072 16.372 121.316 16.78 120.752 17.716H120.728C120.788 15.496 121.4 14.2 123.008 14.2C123.968 14.2 124.484 14.86 124.568 15.448H125.708C125.552 14.392 124.7 13.252 122.984 13.252C121.88 13.252 121.052 13.684 120.488 14.452C119.924 15.232 119.636 16.348 119.636 17.68C119.636 19.396 119.936 20.56 120.824 21.376C121.34 21.88 122.048 22.192 123.008 22.192ZM122.984 21.268C121.832 21.268 120.944 20.452 120.944 19.276C120.944 18.088 121.76 17.308 122.948 17.308C124.04 17.308 124.868 18.112 124.868 19.288C124.868 20.464 124.064 21.268 122.984 21.268ZM133.191 24.256C134.055 24.256 134.775 24.064 135.279 23.644C135.771 23.224 136.059 22.588 136.059 21.736V15.556H134.955V16.408H134.931C134.523 15.76 133.899 15.4 132.975 15.4C131.463 15.4 130.215 16.576 130.215 18.556C130.215 20.428 131.391 21.712 133.035 21.712C133.947 21.712 134.511 21.316 134.955 20.68H134.979C134.967 20.884 134.955 21.232 134.955 21.604V21.784C134.955 22.876 134.319 23.392 133.167 23.392C132.207 23.392 131.559 23.116 131.463 22.444H130.419C130.539 23.584 131.499 24.256 133.191 24.256ZM133.143 20.8C131.979 20.8 131.355 19.936 131.355 18.568C131.355 17.212 131.955 16.324 133.131 16.324C134.415 16.324 135.027 17.152 135.027 18.508C135.027 19.816 134.547 20.8 133.143 20.8ZM139.524 22.132C140.616 22.132 141.276 21.616 141.684 21.052H141.696C141.816 21.736 142.152 22.06 142.836 22.06C143.1 22.06 143.28 22.012 143.436 21.964V21.184H143.388C142.824 21.304 142.704 21.028 142.704 20.512V17.5C142.704 16.636 142.38 16.072 141.84 15.748C141.432 15.508 140.892 15.4 140.28 15.4C138.54 15.4 137.712 16.372 137.664 17.464H138.744C138.78 16.696 139.272 16.216 140.292 16.216C141.18 16.216 141.672 16.648 141.672 17.344C141.672 18.004 141.06 18.16 140.112 18.268C138.444 18.472 137.34 18.796 137.34 20.296C137.34 21.532 138.3 22.132 139.524 22.132ZM139.8 21.316C139.152 21.316 138.516 21.112 138.516 20.284C138.516 19.396 139.212 19.204 140.268 19.024C140.796 18.928 141.36 18.772 141.684 18.568V19.624C141.684 20.368 141.084 21.316 139.8 21.316ZM144.342 22H145.458V18.028C145.458 17.044 146.286 16.336 147.054 16.336C147.714 16.336 148.158 16.804 148.158 17.596V22H149.262V18.028C149.262 17.044 149.97 16.336 150.786 16.336C151.434 16.336 151.95 16.804 151.95 17.596V22H153.066V17.5C153.066 16.156 152.25 15.4 151.074 15.4C150.294 15.4 149.538 15.796 149.082 16.6H149.058C148.794 15.808 148.17 15.4 147.39 15.4C146.562 15.4 145.878 15.82 145.482 16.516H145.446V15.556H144.342V22ZM157.357 22.18C158.845 22.18 159.877 21.364 160.165 20.164H159.073C158.869 20.848 158.257 21.268 157.369 21.268C156.121 21.268 155.437 20.308 155.353 19.048H160.297C160.297 17.956 160.033 17.032 159.505 16.396C159.001 15.772 158.257 15.4 157.297 15.4C155.449 15.4 154.213 16.912 154.213 18.784C154.213 20.668 155.377 22.18 157.357 22.18ZM157.297 16.264C158.413 16.264 159.049 17.008 159.109 18.244H155.377C155.521 17.104 156.133 16.264 157.297 16.264ZM166.066 22H167.194L168.166 18.448C168.322 17.836 168.562 16.648 168.562 16.648H168.586C168.586 16.648 168.838 17.824 168.994 18.448L169.942 22H171.058L173.158 15.556H172.006L170.938 19.132C170.698 19.924 170.518 21.028 170.518 21.028H170.494C170.494 21.028 170.266 19.84 170.086 19.156L169.126 15.556H168.07L167.098 19.156C166.882 19.936 166.666 21.016 166.666 21.016H166.642C166.642 21.016 166.426 19.864 166.222 19.132L165.214 15.556H164.026L166.066 22ZM174.025 14.368H175.189V13.072H174.025V14.368ZM174.049 22H175.165V15.556H174.049V22ZM177.802 15.556H176.698V22H177.814V18.076C177.814 17.044 178.534 16.336 179.53 16.336C180.406 16.336 180.946 16.804 180.946 17.632V22H182.05V17.5C182.05 16.156 181.222 15.4 179.878 15.4C178.942 15.4 178.306 15.82 177.838 16.468H177.802V15.556ZM189.213 22.192C190.725 22.192 191.805 21.52 191.805 20.212C191.805 18.712 190.701 18.424 189.417 18.172C188.325 17.956 187.701 17.824 187.701 17.152C187.701 16.66 188.073 16.252 188.949 16.252C189.873 16.252 190.329 16.624 190.425 17.284H191.541C191.397 16.168 190.593 15.412 188.973 15.412C187.473 15.412 186.609 16.108 186.609 17.212C186.609 18.628 187.749 18.892 189.009 19.156C190.149 19.384 190.689 19.564 190.689 20.272C190.689 20.848 190.257 21.292 189.237 21.292C188.313 21.292 187.593 20.98 187.461 20.044H186.333C186.429 21.352 187.437 22.192 189.213 22.192ZM192.497 16.42H193.505V20.74C193.505 21.688 194.105 22.036 194.969 22.048C195.257 22.048 195.569 22.012 195.869 21.94V21.004H195.833C195.713 21.04 195.461 21.088 195.269 21.088C194.861 21.088 194.609 20.956 194.609 20.488V16.42H195.941V15.556H194.609V13.528H193.505V15.556H192.497V16.42ZM198.204 15.556H197.1V22H198.216V18.496C198.216 17.284 199.068 16.54 200.064 16.54C200.256 16.54 200.364 16.552 200.52 16.6H200.556V15.544C200.436 15.496 200.328 15.472 200.148 15.472C199.296 15.472 198.636 15.976 198.24 16.72H198.204V15.556ZM204.209 22.18C205.697 22.18 206.729 21.364 207.017 20.164H205.925C205.721 20.848 205.109 21.268 204.221 21.268C202.973 21.268 202.289 20.308 202.205 19.048H207.149C207.149 17.956 206.885 17.032 206.357 16.396C205.853 15.772 205.109 15.4 204.149 15.4C202.301 15.4 201.065 16.912 201.065 18.784C201.065 20.668 202.229 22.18 204.209 22.18ZM204.149 16.264C205.265 16.264 205.901 17.008 205.961 18.244H202.229C202.373 17.104 202.985 16.264 204.149 16.264ZM210.258 22.132C211.35 22.132 212.01 21.616 212.418 21.052H212.43C212.55 21.736 212.886 22.06 213.57 22.06C213.834 22.06 214.014 22.012 214.17 21.964V21.184H214.122C213.558 21.304 213.438 21.028 213.438 20.512V17.5C213.438 16.636 213.114 16.072 212.574 15.748C212.166 15.508 211.626 15.4 211.014 15.4C209.274 15.4 208.446 16.372 208.398 17.464H209.478C209.514 16.696 210.006 16.216 211.026 16.216C211.914 16.216 212.406 16.648 212.406 17.344C212.406 18.004 211.794 18.16 210.846 18.268C209.178 18.472 208.074 18.796 208.074 20.296C208.074 21.532 209.034 22.132 210.258 22.132ZM210.534 21.316C209.886 21.316 209.25 21.112 209.25 20.284C209.25 19.396 209.946 19.204 211.002 19.024C211.53 18.928 212.094 18.772 212.418 18.568V19.624C212.418 20.368 211.818 21.316 210.534 21.316ZM219.313 22H220.621L217.873 17.872L220.333 15.556H218.941L216.145 18.304C216.169 17.992 216.193 17.536 216.193 17.308V13.072H215.077V22H216.193V19.468L217.105 18.604L219.313 22ZM224.768 24.184H225.884V22.228C225.884 21.736 225.872 21.376 225.86 21.148H225.896C226.34 21.832 227.048 22.192 227.924 22.192C229.664 22.192 230.732 20.86 230.732 18.796C230.732 16.672 229.604 15.4 227.96 15.4C227.036 15.4 226.388 15.832 225.908 16.564H225.872V15.556H224.768V24.184ZM227.804 21.268C226.376 21.268 225.824 20.176 225.824 18.82C225.824 17.452 226.448 16.348 227.816 16.348C229.004 16.348 229.592 17.404 229.592 18.82C229.592 20.224 228.992 21.268 227.804 21.268ZM233.02 15.556H231.916V22H233.032V18.496C233.032 17.284 233.884 16.54 234.88 16.54C235.072 16.54 235.18 16.552 235.336 16.6H235.372V15.544C235.252 15.496 235.144 15.472 234.964 15.472C234.112 15.472 233.452 15.976 233.056 16.72H233.02V15.556ZM236.439 14.368H237.603V13.072H236.439V14.368ZM236.463 22H237.579V15.556H236.463V22ZM238.872 22H244.068V21.016H241.464C240.996 21.016 240.18 21.052 240.18 21.052V21.016C240.18 21.016 240.72 20.428 240.996 20.08L243.924 16.252V15.556H239.088V16.504H241.308C241.752 16.504 242.52 16.468 242.52 16.468V16.504C242.52 16.504 242.016 17.044 241.752 17.38L238.872 21.136V22ZM247.814 22.18C249.302 22.18 250.334 21.364 250.622 20.164H249.53C249.326 20.848 248.714 21.268 247.826 21.268C246.578 21.268 245.894 20.308 245.81 19.048H250.754C250.754 17.956 250.49 17.032 249.962 16.396C249.458 15.772 248.714 15.4 247.754 15.4C245.906 15.4 244.67 16.912 244.67 18.784C244.67 20.668 245.834 22.18 247.814 22.18ZM247.754 16.264C248.87 16.264 249.506 17.008 249.566 18.244H245.834C245.978 17.104 246.59 16.264 247.754 16.264Z" fill="white"/>
<path fill-rule="evenodd" clip-rule="evenodd" d="M316.089 10.7441C315.933 10.5878 315.721 10.5 315.5 10.5H310.5C310.5 11.163 310.237 11.7989 309.768 12.2678C309.299 12.7366 308.663 13 308 13C307.337 13 306.701 12.7366 306.232 12.2678C305.763 11.7989 305.5 11.163 305.5 10.5H300.5C300.279 10.5 300.067 10.5878 299.911 10.7441C299.755 10.9004 299.667 11.1123 299.667 11.3333V17.1667C299.667 17.3877 299.755 17.5996 299.911 17.7559C300.067 17.9122 300.279 18 300.5 18L302.166 17.9992L302.167 24.6667C302.167 24.8877 302.255 25.0996 302.411 25.2559C302.567 25.4122 302.779 25.5 303 25.5H313C313.221 25.5 313.433 25.4122 313.589 25.2559C313.746 25.0996 313.833 24.8877 313.833 24.6667L313.833 18H315.5C315.721 18 315.933 17.9122 316.089 17.7559C316.246 17.5996 316.333 17.3877 316.333 17.1667V11.3333C316.333 11.1123 316.246 10.9004 316.089 10.7441ZM309.043 18.5611C309.466 18.6397 309.868 19.0623 309.937 19.6027C309.986 20.0253 309.977 20.9195 309.947 21.401C309.888 22.3542 309.21 22.9044 307.982 22.9044C306.636 22.9044 306.164 22.3935 306.046 21.401C306.007 21.0865 306.007 20.0646 306.085 19.5438C306.174 18.9345 306.606 18.6397 306.901 18.5513C306.577 18.4727 306.262 18.1386 306.213 17.5588C306.193 17.3524 306.174 16.4582 306.203 16.1929C306.282 15.5247 306.704 14.9056 307.982 14.9056C309.24 14.9056 309.731 15.5542 309.79 16.1929C309.829 16.6253 309.809 17.205 309.78 17.5195C309.731 18.0206 309.446 18.4432 309.043 18.5611ZM307.569 17.7062C307.628 17.9912 307.766 18.0501 307.982 18.0501C308.208 18.0501 308.394 17.9715 308.414 17.716C308.444 17.3917 308.444 16.5761 308.414 16.4484C308.365 16.1831 308.198 16.0848 307.982 16.0848C307.785 16.0848 307.599 16.1929 307.559 16.4484C307.54 16.5663 307.54 17.5588 307.569 17.7062ZM307.471 21.2929C307.51 21.568 307.707 21.7351 307.982 21.7351C308.267 21.7351 308.463 21.5779 308.503 21.3027C308.542 20.9588 308.542 19.9073 308.503 19.6322C308.453 19.3276 308.257 19.2097 307.982 19.2097C307.726 19.2097 307.51 19.3276 307.471 19.642C307.431 19.9073 307.431 21.0276 307.471 21.2929Z" fill="white"/>
<rect x="103.5" y="0.5" width="230" height="35" stroke="white"/>
<path d="M131.93 95.06H127.85V106.76L124.1 95.06H119.93V119H124.01V107.06L127.79 119H131.93V95.06ZM144.827 95.06H134.237V119H138.617V109.01H144.347V104.99H138.617V99.17H144.827V95.06ZM157.116 114.95H150.786V95.06H146.406V119H157.116V114.95ZM170.853 95.06H166.503V113.42C166.503 114.38 166.083 115.22 164.853 115.28C164.163 115.31 163.533 115.28 162.993 115.22V118.97C163.773 119.09 164.163 119.15 165.393 119.15C169.083 119.15 170.853 117.74 170.853 114.05V95.06ZM179.579 113.63C179.579 114.05 179.519 114.56 179.399 115.07C179.249 115.73 178.619 116 178.019 116C177.419 116 176.729 115.64 176.639 114.83C176.549 114.08 176.519 112.88 176.519 112.13H183.329C183.479 109.31 183.269 106.43 182.699 105.02C182.009 103.34 180.419 102.29 178.109 102.29C175.259 102.29 173.999 103.58 173.399 105.05C172.949 106.13 172.619 108.35 172.619 110.84C172.619 113.39 172.829 115.28 173.519 116.87C174.239 118.55 175.949 119.21 178.169 119.21C180.389 119.21 181.739 118.31 182.459 117.02C183.089 115.91 183.239 114.11 183.239 113.63H179.579ZM176.459 109.19C176.459 108.05 176.489 106.97 176.699 106.46C176.909 105.89 177.389 105.59 178.049 105.59C178.739 105.59 179.189 105.92 179.339 106.49C179.459 106.88 179.549 107.69 179.549 109.19H176.459ZM191.841 102.29C190.461 102.29 189.081 103.19 188.901 104.45V102.5H184.941V119H188.961V109.22C188.961 106.52 189.801 105.92 191.181 105.92C191.991 105.92 192.801 106.07 193.281 106.22V102.44C192.951 102.32 192.471 102.29 191.841 102.29ZM201.344 109.67C200.594 109.28 199.844 108.95 199.094 108.59C198.134 108.14 197.804 107.63 197.804 106.82C197.804 106.13 198.104 105.56 199.034 105.56C199.874 105.56 200.144 106.04 200.204 106.55C200.234 106.67 200.264 107.6 200.264 107.78H203.894C203.894 107.45 203.804 105.71 203.714 105.23C203.324 103.4 201.794 102.26 198.884 102.26C195.704 102.26 194.084 104.12 194.084 106.73C194.084 109.19 194.804 110.72 196.964 111.74C197.564 112.01 198.374 112.4 198.884 112.61C200.024 113.06 200.414 113.63 200.414 114.65C200.414 115.58 199.844 116.03 199.094 116.03C198.374 116.03 197.804 115.73 197.744 115.04C197.714 114.53 197.684 114.02 197.684 113.81H193.964C193.964 114.32 193.994 115.37 194.054 115.91C194.324 118.13 195.824 119.24 199.184 119.24C202.154 119.24 204.224 117.65 204.224 114.53C204.224 112.01 203.444 110.72 201.344 109.67ZM212.481 113.63C212.481 114.05 212.421 114.56 212.301 115.07C212.151 115.73 211.521 116 210.921 116C210.321 116 209.631 115.64 209.541 114.83C209.451 114.08 209.421 112.88 209.421 112.13H216.231C216.381 109.31 216.171 106.43 215.601 105.02C214.911 103.34 213.321 102.29 211.011 102.29C208.161 102.29 206.901 103.58 206.301 105.05C205.851 106.13 205.521 108.35 205.521 110.84C205.521 113.39 205.731 115.28 206.421 116.87C207.141 118.55 208.851 119.21 211.071 119.21C213.291 119.21 214.641 118.31 215.361 117.02C215.991 115.91 216.141 114.11 216.141 113.63H212.481ZM209.361 109.19C209.361 108.05 209.391 106.97 209.601 106.46C209.811 105.89 210.291 105.59 210.951 105.59C211.641 105.59 212.091 105.92 212.241 106.49C212.361 106.88 212.451 107.69 212.451 109.19H209.361ZM224.754 102.5C224.724 103.01 222.804 112.76 222.744 113.12C222.714 112.79 220.794 102.92 220.734 102.5H216.654L220.584 118.55L219.234 123.89H223.344L228.744 102.5H224.754Z" fill="white"/>
<rect x="103.5" y="0.5" width="230" height="179" stroke="white"/>
</g>
<rect x="0.5" y="0.5" width="333" height="179" rx="7.5" stroke="white"/>
<defs>
<clipPath id="clip0_4719_146416">
<rect width="334" height="180" rx="8" fill="white"/>
</clipPath>
</defs>
</svg>
