<svg width="100%" height="auto" viewBox="0 0 334 180" fill="none" xmlns="http://www.w3.org/2000/svg">
<g clip-path="url(#clip0_4719_146409)">
<path d="M45.14 49.864H38.228C37.524 51.4 35.732 54.344 29.14 54.792V62.152L36.18 61.832V101H45.14V49.864ZM71.887 64.904C72.015 62.472 72.015 60.104 71.951 58.696C71.567 53.256 67.983 49.416 60.559 49.416C53.519 49.416 49.679 53.576 49.167 58.312C48.975 59.784 48.975 62.792 48.975 65.736H57.359C57.359 63.624 57.423 61.704 57.487 60.296C57.615 58.568 58.511 57.416 60.367 57.416C62.031 57.416 62.927 58.12 63.119 60.04C63.247 61 63.183 65.096 62.991 66.696C62.671 69.192 61.775 70.344 58.959 70.6H54.031V78.6C54.031 78.6 58.447 78.664 58.703 78.664C61.967 78.856 63.247 80.008 63.503 82.824C63.631 84.552 63.695 87.688 63.503 90.76C63.375 92.936 62.287 94.024 60.175 94.024C58.447 94.024 57.359 93.256 57.167 91.656C56.847 88.968 56.975 88.328 56.975 84.744H48.015C48.015 88.584 48.079 89.096 48.399 92.808C48.911 98.312 52.943 101.512 60.367 101.512C67.919 101.512 72.399 97.672 72.975 91.656C73.231 88.904 73.231 84.104 72.975 81.544C72.527 77 69.391 74.056 64.079 73.672C69.455 73.096 71.631 69.192 71.887 64.904Z" fill="white"/>
<path d="M42.6396 117.912C42.6396 117.912 40.7496 126.13 40.7496 126.466C40.7496 126.13 39.0136 117.912 39.0136 117.912H36.9696C36.9696 117.912 35.2476 126.13 35.2476 126.466C35.2476 126.13 33.3576 117.912 33.3576 117.912H31.4116L34.0716 129H36.1576C36.1576 129 37.9636 120.796 37.9636 120.432C37.9776 120.796 39.7136 129 39.7136 129H41.8136L44.4456 117.912H42.6396ZM48.9349 117.912H47.0449V129H48.9349V117.912ZM60.0734 117.912H58.3234V125.472L54.5434 117.912H52.4574V129H54.2074V121.244L58.0994 129H60.0734V117.912ZM68.4293 122.826C68.1213 122.714 67.4633 122.462 67.0713 122.336C65.7133 121.888 65.0413 121.454 65.0413 120.586C65.0413 119.844 65.5453 119.396 66.9593 119.396C68.1633 119.396 68.7233 119.732 68.9613 120.418C69.0453 120.67 69.0873 120.88 69.0873 121.118H70.9633C70.9633 120.698 70.8933 120.362 70.7953 120.026C70.4033 118.654 69.2833 117.786 67.0013 117.786C64.3833 117.786 63.1513 118.934 63.1513 120.642C63.1513 122.28 64.2293 123.26 65.8953 123.806C66.3573 123.96 67.0153 124.212 67.2953 124.31C68.7793 124.828 69.2273 125.276 69.2273 126.214C69.2273 127.054 68.6253 127.558 67.2113 127.558C66.0073 127.558 65.3073 127.25 65.0973 126.592C65.0133 126.326 64.9713 125.948 64.9713 125.752H63.1093C63.1093 126.074 63.1373 126.592 63.2353 126.97C63.5713 128.272 64.6913 129.14 67.2533 129.14C69.8433 129.14 71.1173 127.908 71.1173 126.06C71.1173 124.338 70.1653 123.428 68.4293 122.826Z" fill="white"/>
<path d="M121.496 22H122.66V13.396H121.76C121.604 14.644 120.596 15.052 119.516 15.076V15.844H121.496V22ZM127.479 22.192C129.219 22.192 130.575 21.268 130.575 19.6C130.575 18.496 130.047 17.74 128.859 17.428V17.392C129.699 17.116 130.275 16.564 130.275 15.604C130.275 14.128 129.003 13.252 127.395 13.252C125.487 13.252 124.347 14.392 124.335 16H125.451C125.463 14.932 126.159 14.152 127.359 14.152C128.355 14.152 129.147 14.692 129.147 15.592C129.147 16.48 128.487 17.02 127.215 17.02H126.687V17.908H127.227C128.607 17.908 129.387 18.46 129.387 19.504C129.387 20.668 128.583 21.244 127.443 21.244C126.063 21.244 125.223 20.488 125.187 19.228H124.059C124.071 20.176 124.443 20.92 125.067 21.424C125.679 21.928 126.519 22.192 127.479 22.192ZM137.762 24.256C138.626 24.256 139.346 24.064 139.85 23.644C140.342 23.224 140.63 22.588 140.63 21.736V15.556H139.526V16.408H139.502C139.094 15.76 138.47 15.4 137.546 15.4C136.034 15.4 134.786 16.576 134.786 18.556C134.786 20.428 135.962 21.712 137.606 21.712C138.518 21.712 139.082 21.316 139.526 20.68H139.55C139.538 20.884 139.526 21.232 139.526 21.604V21.784C139.526 22.876 138.89 23.392 137.738 23.392C136.778 23.392 136.13 23.116 136.034 22.444H134.99C135.11 23.584 136.07 24.256 137.762 24.256ZM137.714 20.8C136.55 20.8 135.926 19.936 135.926 18.568C135.926 17.212 136.526 16.324 137.702 16.324C138.986 16.324 139.598 17.152 139.598 18.508C139.598 19.816 139.118 20.8 137.714 20.8ZM144.094 22.132C145.186 22.132 145.846 21.616 146.254 21.052H146.266C146.386 21.736 146.722 22.06 147.406 22.06C147.67 22.06 147.85 22.012 148.006 21.964V21.184H147.958C147.394 21.304 147.274 21.028 147.274 20.512V17.5C147.274 16.636 146.95 16.072 146.41 15.748C146.002 15.508 145.462 15.4 144.85 15.4C143.11 15.4 142.282 16.372 142.234 17.464H143.314C143.35 16.696 143.842 16.216 144.862 16.216C145.75 16.216 146.242 16.648 146.242 17.344C146.242 18.004 145.63 18.16 144.682 18.268C143.014 18.472 141.91 18.796 141.91 20.296C141.91 21.532 142.87 22.132 144.094 22.132ZM144.37 21.316C143.722 21.316 143.086 21.112 143.086 20.284C143.086 19.396 143.782 19.204 144.838 19.024C145.366 18.928 145.93 18.772 146.254 18.568V19.624C146.254 20.368 145.654 21.316 144.37 21.316ZM148.913 22H150.029V18.028C150.029 17.044 150.857 16.336 151.625 16.336C152.285 16.336 152.729 16.804 152.729 17.596V22H153.833V18.028C153.833 17.044 154.541 16.336 155.357 16.336C156.005 16.336 156.521 16.804 156.521 17.596V22H157.637V17.5C157.637 16.156 156.821 15.4 155.645 15.4C154.865 15.4 154.109 15.796 153.653 16.6H153.629C153.365 15.808 152.741 15.4 151.961 15.4C151.133 15.4 150.449 15.82 150.053 16.516H150.017V15.556H148.913V22ZM161.927 22.18C163.415 22.18 164.447 21.364 164.735 20.164H163.643C163.439 20.848 162.827 21.268 161.939 21.268C160.691 21.268 160.007 20.308 159.923 19.048H164.867C164.867 17.956 164.603 17.032 164.075 16.396C163.571 15.772 162.827 15.4 161.867 15.4C160.019 15.4 158.783 16.912 158.783 18.784C158.783 20.668 159.947 22.18 161.927 22.18ZM161.867 16.264C162.983 16.264 163.619 17.008 163.679 18.244H159.947C160.091 17.104 160.703 16.264 161.867 16.264ZM170.637 22H171.765L172.737 18.448C172.893 17.836 173.133 16.648 173.133 16.648H173.157C173.157 16.648 173.409 17.824 173.565 18.448L174.513 22H175.629L177.729 15.556H176.577L175.509 19.132C175.269 19.924 175.089 21.028 175.089 21.028H175.065C175.065 21.028 174.837 19.84 174.657 19.156L173.697 15.556H172.641L171.669 19.156C171.453 19.936 171.237 21.016 171.237 21.016H171.213C171.213 21.016 170.997 19.864 170.793 19.132L169.785 15.556H168.597L170.637 22ZM178.596 14.368H179.76V13.072H178.596V14.368ZM178.62 22H179.736V15.556H178.62V22ZM182.372 15.556H181.268V22H182.384V18.076C182.384 17.044 183.104 16.336 184.1 16.336C184.976 16.336 185.516 16.804 185.516 17.632V22H186.62V17.5C186.62 16.156 185.792 15.4 184.448 15.4C183.512 15.4 182.876 15.82 182.408 16.468H182.372V15.556ZM193.783 22.192C195.295 22.192 196.375 21.52 196.375 20.212C196.375 18.712 195.271 18.424 193.987 18.172C192.895 17.956 192.271 17.824 192.271 17.152C192.271 16.66 192.643 16.252 193.519 16.252C194.443 16.252 194.899 16.624 194.995 17.284H196.111C195.967 16.168 195.163 15.412 193.543 15.412C192.043 15.412 191.179 16.108 191.179 17.212C191.179 18.628 192.319 18.892 193.579 19.156C194.719 19.384 195.259 19.564 195.259 20.272C195.259 20.848 194.827 21.292 193.807 21.292C192.883 21.292 192.163 20.98 192.031 20.044H190.903C190.999 21.352 192.007 22.192 193.783 22.192ZM197.067 16.42H198.075V20.74C198.075 21.688 198.675 22.036 199.539 22.048C199.827 22.048 200.139 22.012 200.439 21.94V21.004H200.403C200.283 21.04 200.031 21.088 199.839 21.088C199.431 21.088 199.179 20.956 199.179 20.488V16.42H200.511V15.556H199.179V13.528H198.075V15.556H197.067V16.42ZM202.774 15.556H201.67V22H202.786V18.496C202.786 17.284 203.638 16.54 204.634 16.54C204.826 16.54 204.934 16.552 205.09 16.6H205.126V15.544C205.006 15.496 204.898 15.472 204.718 15.472C203.866 15.472 203.206 15.976 202.81 16.72H202.774V15.556ZM208.779 22.18C210.267 22.18 211.299 21.364 211.587 20.164H210.495C210.291 20.848 209.679 21.268 208.791 21.268C207.543 21.268 206.859 20.308 206.775 19.048H211.719C211.719 17.956 211.455 17.032 210.927 16.396C210.423 15.772 209.679 15.4 208.719 15.4C206.871 15.4 205.635 16.912 205.635 18.784C205.635 20.668 206.799 22.18 208.779 22.18ZM208.719 16.264C209.835 16.264 210.471 17.008 210.531 18.244H206.799C206.943 17.104 207.555 16.264 208.719 16.264ZM214.829 22.132C215.921 22.132 216.581 21.616 216.989 21.052H217.001C217.121 21.736 217.457 22.06 218.141 22.06C218.405 22.06 218.585 22.012 218.741 21.964V21.184H218.693C218.129 21.304 218.009 21.028 218.009 20.512V17.5C218.009 16.636 217.685 16.072 217.145 15.748C216.737 15.508 216.197 15.4 215.585 15.4C213.845 15.4 213.017 16.372 212.969 17.464H214.049C214.085 16.696 214.577 16.216 215.597 16.216C216.485 16.216 216.977 16.648 216.977 17.344C216.977 18.004 216.365 18.16 215.417 18.268C213.749 18.472 212.645 18.796 212.645 20.296C212.645 21.532 213.605 22.132 214.829 22.132ZM215.105 21.316C214.457 21.316 213.821 21.112 213.821 20.284C213.821 19.396 214.517 19.204 215.573 19.024C216.101 18.928 216.665 18.772 216.989 18.568V19.624C216.989 20.368 216.389 21.316 215.105 21.316ZM223.883 22H225.191L222.443 17.872L224.903 15.556H223.511L220.715 18.304C220.739 17.992 220.763 17.536 220.763 17.308V13.072H219.647V22H220.763V19.468L221.675 18.604L223.883 22ZM229.338 24.184H230.454V22.228C230.454 21.736 230.442 21.376 230.43 21.148H230.466C230.91 21.832 231.618 22.192 232.494 22.192C234.234 22.192 235.302 20.86 235.302 18.796C235.302 16.672 234.174 15.4 232.53 15.4C231.606 15.4 230.958 15.832 230.478 16.564H230.442V15.556H229.338V24.184ZM232.374 21.268C230.946 21.268 230.394 20.176 230.394 18.82C230.394 17.452 231.018 16.348 232.386 16.348C233.574 16.348 234.162 17.404 234.162 18.82C234.162 20.224 233.562 21.268 232.374 21.268ZM237.591 15.556H236.487V22H237.603V18.496C237.603 17.284 238.455 16.54 239.451 16.54C239.643 16.54 239.751 16.552 239.907 16.6H239.943V15.544C239.823 15.496 239.715 15.472 239.535 15.472C238.683 15.472 238.023 15.976 237.627 16.72H237.591V15.556ZM241.01 14.368H242.174V13.072H241.01V14.368ZM241.034 22H242.15V15.556H241.034V22ZM243.442 22H248.638V21.016H246.034C245.566 21.016 244.75 21.052 244.75 21.052V21.016C244.75 21.016 245.29 20.428 245.566 20.08L248.494 16.252V15.556H243.658V16.504H245.878C246.322 16.504 247.09 16.468 247.09 16.468V16.504C247.09 16.504 246.586 17.044 246.322 17.38L243.442 21.136V22ZM252.384 22.18C253.872 22.18 254.904 21.364 255.192 20.164H254.1C253.896 20.848 253.284 21.268 252.396 21.268C251.148 21.268 250.464 20.308 250.38 19.048H255.324C255.324 17.956 255.06 17.032 254.532 16.396C254.028 15.772 253.284 15.4 252.324 15.4C250.476 15.4 249.24 16.912 249.24 18.784C249.24 20.668 250.404 22.18 252.384 22.18ZM252.324 16.264C253.44 16.264 254.076 17.008 254.136 18.244H250.404C250.548 17.104 251.16 16.264 252.324 16.264Z" fill="white"/>
<path fill-rule="evenodd" clip-rule="evenodd" d="M317.705 22.1244C317.779 22.0026 317.816 21.8491 317.816 21.6639V14.3442C317.816 14.1589 317.779 14.0081 317.705 13.8916C317.631 13.7699 317.515 13.672 317.356 13.5979C316.911 13.3756 316.549 13.1189 316.268 12.8278C315.983 12.5314 315.705 12.116 315.435 11.5814C315.265 11.2797 315.019 11.1289 314.696 11.1289H301.303C300.981 11.1289 300.737 11.2797 300.573 11.5814C300.298 12.116 300.02 12.5314 299.739 12.8278C299.454 13.1189 299.088 13.3756 298.644 13.5979C298.485 13.672 298.369 13.7699 298.294 13.8916C298.22 14.0081 298.183 14.1589 298.183 14.3442V21.6639C298.183 21.8491 298.22 22.0026 298.294 22.1244C298.369 22.2408 298.485 22.3361 298.644 22.4102C299.088 22.6272 299.454 22.8839 299.739 23.1802C300.02 23.4713 300.298 23.8868 300.573 24.4267C300.737 24.7231 300.981 24.8713 301.303 24.8713H314.696C315.019 24.8713 315.265 24.7231 315.435 24.4267C315.705 23.8868 315.983 23.4713 316.268 23.1802C316.549 22.8839 316.911 22.6272 317.356 22.4102C317.515 22.3361 317.631 22.2408 317.705 22.1244ZM311.367 18.2755V18.954C311.367 19.0711 311.272 19.166 311.155 19.166C311.038 19.166 310.943 19.0712 310.943 18.954V18.2755H309.824V18.954C309.824 19.0711 309.729 19.166 309.612 19.166C309.494 19.166 309.399 19.0712 309.399 18.954V18.2755H308.28V18.954C308.28 19.0711 308.185 19.166 308.068 19.166C307.951 19.166 307.856 19.0712 307.856 18.954V18.2755H306.737V18.954C306.737 19.0711 306.642 19.166 306.525 19.166C306.408 19.166 306.313 19.0712 306.313 18.954V18.2755H305.194V18.954C305.194 19.0711 305.099 19.166 304.982 19.166C304.865 19.166 304.77 19.0712 304.77 18.954V18.2755H303.928L303.928 21.3154C305.161 21.9818 306.569 22.3641 308.068 22.3641C309.568 22.3641 310.976 21.9816 312.208 21.3154V18.2755H311.367ZM315.626 17.9999C315.627 17.1736 314.103 15.9375 313.056 15.206V20.7944C314.103 20.0628 315.625 18.9102 315.626 17.9999ZM304.77 17.1734V17.8518L303.929 17.8516V14.6847C305.161 14.0184 306.569 13.636 308.069 13.636C309.568 13.636 310.976 14.0183 312.209 14.6846V17.8518H311.367V17.1734C311.367 17.0564 311.272 16.9615 311.155 16.9615C311.038 16.9615 310.943 17.0564 310.943 17.1734V17.8518H309.824V17.1734C309.824 17.0564 309.729 16.9615 309.611 16.9615C309.494 16.9615 309.399 17.0564 309.399 17.1734V17.8518H308.28V17.1734C308.28 17.0564 308.185 16.9615 308.068 16.9615C307.951 16.9615 307.856 17.0564 307.856 17.1734V17.8518H306.737V17.1734C306.737 17.0564 306.642 16.9615 306.525 16.9615C306.408 16.9615 306.313 17.0564 306.313 17.1734V17.8518H305.194V17.1734C305.194 17.0564 305.099 16.9615 304.982 16.9615C304.865 16.9615 304.77 17.0564 304.77 17.1734ZM300.374 17.9999C300.373 17.1736 301.897 15.9375 302.944 15.206V20.7944C301.897 20.0628 300.375 18.9102 300.374 17.9999Z" fill="white"/>
<rect x="103.5" y="0.5" width="230" height="35" stroke="white"/>
<path d="M130.85 77.06H119.09V81.17H122.72V101H127.16V81.17H130.85V77.06ZM143.985 84.5L142.665 96.62L140.925 84.5H136.815L135.285 96.62L133.755 84.5H129.675L132.645 101H137.445C137.445 101 138.495 95.15 138.825 93.2C138.855 93.02 138.885 91.49 138.885 91.49C138.885 91.49 138.975 93.02 139.005 93.2C139.335 95.09 140.355 101 140.355 101H145.095L147.975 84.5H143.985ZM159.034 87.65C158.494 85.76 157.054 84.29 154.084 84.29C151.114 84.29 149.644 85.91 149.164 87.56C148.744 88.97 148.534 90.95 148.534 92.72C148.534 94.55 148.774 96.77 149.044 97.76C149.614 99.83 151.324 101.21 154.024 101.21C156.874 101.21 158.404 99.86 159.004 97.76C159.364 96.56 159.544 94.52 159.544 92.72C159.544 90.95 159.394 88.88 159.034 87.65ZM155.464 96.77C155.374 97.4 154.804 97.94 154.054 97.94C153.334 97.94 152.794 97.55 152.674 96.8C152.524 96.02 152.494 94.07 152.494 92.78C152.494 91.55 152.524 89.54 152.674 88.85C152.854 88.1 153.274 87.68 154.054 87.68C154.864 87.68 155.284 88.01 155.464 88.79C155.584 89.42 155.644 91.52 155.644 92.78C155.644 94.04 155.674 95.33 155.464 96.77ZM178.466 77.06H174.386V88.76L170.636 77.06H166.466V101H170.546V89.06L174.326 101H178.466V77.06ZM191.364 77.06H180.774V101H185.154V91.01H190.884V86.99H185.154V81.17H191.364V77.06ZM203.652 96.95H197.322V77.06H192.942V101H203.652V96.95ZM221.319 78.77C220.449 77.63 219.189 77.06 217.329 77.06H210.219V101H214.629V91.94C214.629 91.94 216.669 91.97 217.269 91.91C219.069 91.79 220.389 91.31 221.259 90.23C222.159 89.15 222.519 87.35 222.519 84.5C222.519 81.68 222.099 79.76 221.319 78.77ZM217.929 87.08C217.809 87.86 217.299 88.19 216.309 88.19H214.629V81.11H216.429C217.119 81.11 217.629 81.5 217.809 82.01C217.959 82.43 218.109 83.42 218.109 84.68C218.109 85.97 218.079 86.27 217.929 87.08ZM228.161 99.77V78.05C228.161 77.51 228.101 77.09 228.071 77.03H224.021C224.111 77.24 224.111 77.96 224.111 78.47V99.86C224.111 100.46 224.171 100.91 224.291 101C224.291 101.03 228.311 101 228.311 101C228.191 100.91 228.161 100.52 228.161 99.77ZM240.361 98.06C240.361 96.83 240.391 94.82 240.391 93.53C240.421 92 240.451 89.51 240.391 88.07C240.301 85.76 238.861 84.29 235.411 84.29C231.751 84.29 230.251 85.94 230.251 89.03V90.26H233.971V89.33C233.971 88.19 234.331 87.62 235.351 87.62C236.101 87.62 236.491 88.04 236.521 88.76C236.551 89.27 236.551 90.29 236.551 90.74C235.891 90.74 235.201 90.83 234.451 90.95C231.691 91.46 229.831 92.96 229.681 95.36C229.621 96.23 229.651 97.64 229.681 98C229.801 100.4 231.631 101.12 233.281 101.12C234.751 101.12 235.861 100.73 236.611 99.8C236.611 100.22 236.701 101 236.761 101H240.571C240.421 100.79 240.361 99.26 240.361 98.06ZM236.551 94.7C236.491 95.54 236.551 95.96 236.401 96.83C236.251 97.67 235.531 98 234.901 98C234.301 98 233.821 97.79 233.731 97.22C233.671 96.74 233.671 96.17 233.671 95.72C233.671 95.03 233.701 94.55 234.211 94.1C234.661 93.71 235.171 93.62 235.591 93.53C235.951 93.47 236.251 93.47 236.551 93.47C236.551 93.71 236.581 94.37 236.551 94.7ZM249.267 84.5C249.237 85.01 247.317 94.76 247.257 95.12C247.227 94.79 245.307 84.92 245.247 84.5H241.167L245.097 100.55L243.747 105.89H247.857L253.257 84.5H249.267ZM264.051 87.65C263.511 85.76 262.071 84.29 259.101 84.29C256.131 84.29 254.661 85.91 254.181 87.56C253.761 88.97 253.551 90.95 253.551 92.72C253.551 94.55 253.791 96.77 254.061 97.76C254.631 99.83 256.341 101.21 259.041 101.21C261.891 101.21 263.421 99.86 264.021 97.76C264.381 96.56 264.561 94.52 264.561 92.72C264.561 90.95 264.411 88.88 264.051 87.65ZM260.481 96.77C260.391 97.4 259.821 97.94 259.071 97.94C258.351 97.94 257.811 97.55 257.691 96.8C257.541 96.02 257.511 94.07 257.511 92.78C257.511 91.55 257.541 89.54 257.691 88.85C257.871 88.1 258.291 87.68 259.071 87.68C259.881 87.68 260.301 88.01 260.481 88.79C260.601 89.42 260.661 91.52 260.661 92.78C260.661 94.04 260.691 95.33 260.481 96.77ZM273.754 88.01V101H277.714V88.01H279.544V84.5H277.714V81.26C277.714 80.66 277.984 80.21 278.674 80.21C279.004 80.21 279.364 80.27 279.604 80.27V77.03C279.154 76.97 278.764 76.94 277.744 76.94C274.774 76.94 273.754 78.8 273.754 81.11V84.5H271.024V81.47C271.024 80.84 271.264 80.21 272.074 80.21C272.254 80.21 272.854 80.27 272.974 80.27V77.03C272.524 76.97 272.104 76.94 271.054 76.94C268.084 76.94 267.064 78.68 267.064 80.96V84.5H265.684V88.01H267.064V101H271.054V88.01H273.754ZM130.85 113.06H119.09V117.17H122.72V137H127.16V117.17H130.85V113.06ZM135.768 115.58H131.538V119.63H135.768V115.58ZM135.708 135.8V120.5H131.598V135.86C131.598 136.52 131.598 137 131.748 137H135.798C135.768 136.97 135.708 136.43 135.708 135.8ZM147.75 123.29C147.21 121.58 145.95 120.29 142.86 120.29C140.52 120.29 138.84 121.34 138.24 123.11C137.64 124.91 137.46 126.35 137.46 128.75C137.46 131.24 137.82 133.73 138.3 134.81C138.96 136.31 140.55 137.21 142.92 137.21C145.35 137.21 146.91 136.13 147.45 134.75C148.02 133.31 148.05 132.62 148.05 130.37H144.33C144.33 131.42 144.33 131.75 144.21 132.62C144.12 133.31 143.7 133.85 142.92 133.85C142.14 133.85 141.75 133.49 141.63 132.65C141.45 131.42 141.39 129.74 141.39 128.78C141.39 127.58 141.45 126.08 141.63 124.91C141.75 124.1 142.17 123.68 142.89 123.68C143.73 123.68 144.03 124.22 144.12 124.88C144.21 125.51 144.3 126.26 144.3 127.22H148.05C148.05 125.21 147.96 124.01 147.75 123.29ZM157.615 126.5L160.735 120.5H156.835L153.625 126.83V113.03H149.665V137H153.625V132.05L154.795 130.16L156.865 137H160.885L157.615 126.5ZM168.23 131.63C168.23 132.05 168.17 132.56 168.05 133.07C167.9 133.73 167.27 134 166.67 134C166.07 134 165.38 133.64 165.29 132.83C165.2 132.08 165.17 130.88 165.17 130.13H171.98C172.13 127.31 171.92 124.43 171.35 123.02C170.66 121.34 169.07 120.29 166.76 120.29C163.91 120.29 162.65 121.58 162.05 123.05C161.6 124.13 161.27 126.35 161.27 128.84C161.27 131.39 161.48 133.28 162.17 134.87C162.89 136.55 164.6 137.21 166.82 137.21C169.04 137.21 170.39 136.31 171.11 135.02C171.74 133.91 171.89 132.11 171.89 131.63H168.23ZM165.11 127.19C165.11 126.05 165.14 124.97 165.35 124.46C165.56 123.89 166.04 123.59 166.7 123.59C167.39 123.59 167.84 123.92 167.99 124.49C168.11 124.88 168.2 125.69 168.2 127.19H165.11ZM180.703 120.5H178.393V117.32L174.493 117.41C174.493 117.41 174.373 120.41 174.343 120.5H172.873V124.01H174.283V133.4C174.283 135.98 175.723 137.12 178.183 137.12C179.233 137.12 179.893 137.06 180.522 136.91V133.7C180.223 133.76 179.833 133.79 179.503 133.79C178.873 133.79 178.363 133.61 178.363 132.68V124.01H180.703V120.5ZM189.175 127.67C188.425 127.28 187.675 126.95 186.925 126.59C185.965 126.14 185.635 125.63 185.635 124.82C185.635 124.13 185.935 123.56 186.865 123.56C187.705 123.56 187.975 124.04 188.035 124.55C188.065 124.67 188.095 125.6 188.095 125.78H191.725C191.725 125.45 191.635 123.71 191.545 123.23C191.155 121.4 189.625 120.26 186.715 120.26C183.535 120.26 181.915 122.12 181.915 124.73C181.915 127.19 182.635 128.72 184.795 129.74C185.395 130.01 186.205 130.4 186.715 130.61C187.855 131.06 188.245 131.63 188.245 132.65C188.245 133.58 187.675 134.03 186.925 134.03C186.205 134.03 185.635 133.73 185.575 133.04C185.545 132.53 185.515 132.02 185.515 131.81H181.795C181.795 132.32 181.825 133.37 181.885 133.91C182.155 136.13 183.655 137.24 187.015 137.24C189.985 137.24 192.055 135.65 192.055 132.53C192.055 130.01 191.275 128.72 189.175 127.67Z" fill="white"/>
<rect x="103.5" y="0.5" width="230" height="179" stroke="white"/>
</g>
<rect x="0.5" y="0.5" width="333" height="179" rx="7.5" stroke="white"/>
<defs>
<clipPath id="clip0_4719_146409">
<rect width="334" height="180" rx="8" fill="white"/>
</clipPath>
</defs>
</svg>
