<svg width="100%" height="auto" viewBox="0 0 335 208" fill="none" xmlns="http://www.w3.org/2000/svg">
<g clip-path="url(#clip0_2388_31317)">
<path d="M66.22 48.8988H37.74V59.4588H54.46L40.94 112.739H53.1L66.22 58.2588V48.8988Z" fill="white"/>
<path d="M38.1123 135.883V132.523H33.7023V134.105H36.4043C36.4043 134.105 36.4183 135.701 36.3903 135.841C36.2083 136.667 35.4663 137.297 34.2763 137.297C33.2963 137.297 32.6943 137.045 32.3163 136.499C31.8683 135.841 31.7423 134.875 31.7423 133.237C31.7423 131.627 31.9383 130.577 32.3303 129.975C32.7083 129.415 33.3103 129.177 34.1503 129.177C34.9343 129.177 35.4803 129.415 35.8023 129.891C36.0963 130.339 36.2643 130.997 36.2643 131.375H38.0563C38.0563 130.885 37.9163 129.919 37.5803 129.247C37.0763 128.253 36.0263 127.511 34.1083 127.511C32.2603 127.511 31.2243 128.281 30.6363 129.191C30.0203 130.157 29.8383 131.487 29.8383 133.209C29.8383 135.211 30.1463 136.499 30.6783 137.339C31.3223 138.347 32.4143 138.879 33.8843 138.879C35.3963 138.879 36.2083 138.347 36.5863 137.787L36.6703 138.739H38.1263C38.1263 138.697 38.1123 137.213 38.1123 135.883ZM46.8892 136.051L47.6592 138.739H49.5632L46.2872 127.651H43.9352L40.4352 138.739H42.3112L43.1232 136.051H46.8892ZM43.6272 134.455C43.6272 134.455 44.8452 130.437 44.8592 130.367C44.8872 130.255 45.0692 129.373 45.0692 129.373C45.0692 129.373 45.2512 130.255 45.2792 130.367C45.3072 130.451 46.4132 134.455 46.4132 134.455H43.6272ZM62.0557 127.651H59.6617L57.1697 135.897L54.7197 127.651H52.1857V138.739H53.9077V131.137L56.1897 138.739H57.9957L60.3197 131.109V138.739H62.0557V127.651ZM72.4428 137.059H67.3888V134.021H72.1628V132.327H67.3888V129.331H72.3868V127.651H65.5688V138.739H72.4428V137.059ZM27.3392 152.565C27.0312 152.453 26.3732 152.201 25.9812 152.075C24.6232 151.627 23.9512 151.193 23.9512 150.325C23.9512 149.583 24.4552 149.135 25.8692 149.135C27.0732 149.135 27.6332 149.471 27.8712 150.157C27.9552 150.409 27.9972 150.619 27.9972 150.857H29.8732C29.8732 150.437 29.8032 150.101 29.7052 149.765C29.3132 148.393 28.1932 147.525 25.9112 147.525C23.2932 147.525 22.0612 148.673 22.0612 150.381C22.0612 152.019 23.1392 152.999 24.8052 153.545C25.2672 153.699 25.9252 153.951 26.2052 154.049C27.6892 154.567 28.1372 155.015 28.1372 155.953C28.1372 156.793 27.5352 157.297 26.1212 157.297C24.9172 157.297 24.2172 156.989 24.0072 156.331C23.9232 156.065 23.8812 155.687 23.8812 155.491H22.0192C22.0192 155.813 22.0472 156.331 22.1452 156.709C22.4812 158.011 23.6012 158.879 26.1632 158.879C28.7532 158.879 30.0272 157.647 30.0272 155.799C30.0272 154.077 29.0752 153.167 27.3392 152.565ZM39.9652 147.651H32.1112V149.317H35.0932V158.739H36.9692V149.317H39.9652V147.651ZM49.8119 148.883C49.4199 148.099 48.6779 147.651 47.4599 147.651H42.6299V158.739H44.4499V154.119H46.8579L48.7899 158.739H50.8199L48.6359 153.713C49.1259 153.615 49.5739 153.265 49.8539 152.733C50.0639 152.313 50.1759 151.697 50.1759 150.857C50.1759 149.961 50.0919 149.415 49.8119 148.883ZM48.1879 152.047C48.0479 152.355 47.6979 152.523 47.2079 152.537H44.4639V149.303H47.0679C47.6979 149.303 48.0899 149.527 48.2439 149.947C48.3139 150.129 48.3419 150.619 48.3419 151.025C48.3419 151.361 48.2859 151.809 48.1879 152.047ZM60.5081 157.059H55.4541V154.021H60.2281V152.327H55.4541V149.331H60.4521V147.651H53.6341V158.739H60.5081V157.059ZM69.1703 156.051L69.9403 158.739H71.8443L68.5683 147.651H66.2163L62.7163 158.739H64.5923L65.4043 156.051H69.1703ZM65.9083 154.455C65.9083 154.455 67.1263 150.437 67.1403 150.367C67.1683 150.255 67.3503 149.373 67.3503 149.373C67.3503 149.373 67.5323 150.255 67.5603 150.367C67.5883 150.451 68.6943 154.455 68.6943 154.455H65.9083ZM78.4008 152.439L82.3908 147.651H80.3188L76.3148 152.369V147.651H74.4668V158.739H76.3148V154.777L77.1268 153.825L80.2908 158.739H82.4748L78.4008 152.439Z" fill="white"/>
<path d="M121.362 30.7388H122.79C122.986 26.8328 124.946 23.6408 126.962 21.8488V20.7708H119.948V21.9608H123.826C124.876 21.9608 125.66 21.9048 125.66 21.9048V21.9328C123.406 23.7528 121.572 27.2388 121.362 30.7388ZM135.058 33.3708C136.066 33.3708 136.906 33.1468 137.494 32.6568C138.068 32.1668 138.404 31.4248 138.404 30.4308V23.2208H137.116V24.2148H137.088C136.612 23.4588 135.884 23.0388 134.806 23.0388C133.042 23.0388 131.586 24.4108 131.586 26.7208C131.586 28.9048 132.958 30.4028 134.876 30.4028C135.94 30.4028 136.598 29.9408 137.116 29.1988H137.144C137.13 29.4368 137.116 29.8428 137.116 30.2768V30.4868C137.116 31.7608 136.374 32.3628 135.03 32.3628C133.91 32.3628 133.154 32.0408 133.042 31.2568H131.824C131.964 32.5868 133.084 33.3708 135.058 33.3708ZM135.002 29.3388C133.644 29.3388 132.916 28.3308 132.916 26.7348C132.916 25.1528 133.616 24.1168 134.988 24.1168C136.486 24.1168 137.2 25.0828 137.2 26.6648C137.2 28.1908 136.64 29.3388 135.002 29.3388ZM142.447 30.8928C143.721 30.8928 144.491 30.2908 144.967 29.6328H144.981C145.121 30.4308 145.513 30.8088 146.311 30.8088C146.619 30.8088 146.829 30.7528 147.011 30.6968V29.7868H146.955C146.297 29.9268 146.157 29.6048 146.157 29.0028V25.4888C146.157 24.4808 145.779 23.8228 145.149 23.4448C144.673 23.1648 144.043 23.0388 143.329 23.0388C141.299 23.0388 140.333 24.1728 140.277 25.4468H141.537C141.579 24.5508 142.153 23.9908 143.343 23.9908C144.379 23.9908 144.953 24.4948 144.953 25.3068C144.953 26.0768 144.239 26.2588 143.133 26.3848C141.187 26.6228 139.899 27.0008 139.899 28.7508C139.899 30.1928 141.019 30.8928 142.447 30.8928ZM142.769 29.9408C142.013 29.9408 141.271 29.7028 141.271 28.7368C141.271 27.7008 142.083 27.4768 143.315 27.2668C143.931 27.1548 144.589 26.9728 144.967 26.7348V27.9668C144.967 28.8348 144.267 29.9408 142.769 29.9408ZM148.068 30.7388H149.37V26.1048C149.37 24.9568 150.336 24.1308 151.232 24.1308C152.002 24.1308 152.52 24.6768 152.52 25.6008V30.7388H153.808V26.1048C153.808 24.9568 154.634 24.1308 155.586 24.1308C156.342 24.1308 156.944 24.6768 156.944 25.6008V30.7388H158.246V25.4888C158.246 23.9208 157.294 23.0388 155.922 23.0388C155.012 23.0388 154.13 23.5008 153.598 24.4388H153.57C153.262 23.5148 152.534 23.0388 151.624 23.0388C150.658 23.0388 149.86 23.5288 149.398 24.3408H149.356V23.2208H148.068V30.7388ZM163.252 30.9488C164.988 30.9488 166.192 29.9968 166.528 28.5968H165.254C165.016 29.3948 164.302 29.8848 163.266 29.8848C161.81 29.8848 161.012 28.7648 160.914 27.2948H166.682C166.682 26.0208 166.374 24.9428 165.758 24.2008C165.17 23.4728 164.302 23.0388 163.182 23.0388C161.026 23.0388 159.584 24.8028 159.584 26.9868C159.584 29.1848 160.942 30.9488 163.252 30.9488ZM163.182 24.0468C164.484 24.0468 165.226 24.9148 165.296 26.3568H160.942C161.11 25.0268 161.824 24.0468 163.182 24.0468ZM173.413 30.7388H174.729L175.863 26.5948C176.045 25.8808 176.325 24.4948 176.325 24.4948H176.353C176.353 24.4948 176.647 25.8668 176.829 26.5948L177.935 30.7388H179.237L181.687 23.2208H180.343L179.097 27.3928C178.817 28.3168 178.607 29.6048 178.607 29.6048H178.579C178.579 29.6048 178.313 28.2188 178.103 27.4208L176.983 23.2208H175.751L174.617 27.4208C174.365 28.3308 174.113 29.5908 174.113 29.5908H174.085C174.085 29.5908 173.833 28.2468 173.595 27.3928L172.419 23.2208H171.033L173.413 30.7388ZM182.698 21.8348H184.056V20.3228H182.698V21.8348ZM182.726 30.7388H184.028V23.2208H182.726V30.7388ZM187.104 23.2208H185.816V30.7388H187.118V26.1608C187.118 24.9568 187.958 24.1308 189.12 24.1308C190.142 24.1308 190.772 24.6768 190.772 25.6428V30.7388H192.06V25.4888C192.06 23.9208 191.094 23.0388 189.526 23.0388C188.434 23.0388 187.692 23.5288 187.146 24.2848H187.104V23.2208ZM200.417 30.9628C202.181 30.9628 203.441 30.1788 203.441 28.6528C203.441 26.9028 202.153 26.5668 200.655 26.2728C199.381 26.0208 198.653 25.8668 198.653 25.0828C198.653 24.5088 199.087 24.0328 200.109 24.0328C201.187 24.0328 201.719 24.4668 201.831 25.2368H203.133C202.965 23.9348 202.027 23.0528 200.137 23.0528C198.387 23.0528 197.379 23.8648 197.379 25.1528C197.379 26.8048 198.709 27.1128 200.179 27.4208C201.509 27.6868 202.139 27.8968 202.139 28.7228C202.139 29.3948 201.635 29.9128 200.445 29.9128C199.367 29.9128 198.527 29.5488 198.373 28.4568H197.057C197.169 29.9828 198.345 30.9628 200.417 30.9628ZM204.248 24.2288H205.424V29.2688C205.424 30.3748 206.124 30.7808 207.132 30.7948C207.468 30.7948 207.832 30.7528 208.182 30.6688V29.5768H208.14C208 29.6188 207.706 29.6748 207.482 29.6748C207.006 29.6748 206.712 29.5208 206.712 28.9748V24.2288H208.266V23.2208H206.712V20.8548H205.424V23.2208H204.248V24.2288ZM210.907 23.2208H209.619V30.7388H210.921V26.6508C210.921 25.2368 211.915 24.3688 213.077 24.3688C213.301 24.3688 213.427 24.3828 213.609 24.4388H213.651V23.2068C213.511 23.1508 213.385 23.1228 213.175 23.1228C212.181 23.1228 211.411 23.7108 210.949 24.5788H210.907V23.2208ZM217.912 30.9488C219.648 30.9488 220.852 29.9968 221.188 28.5968H219.914C219.676 29.3948 218.962 29.8848 217.926 29.8848C216.47 29.8848 215.672 28.7648 215.574 27.2948H221.342C221.342 26.0208 221.034 24.9428 220.418 24.2008C219.83 23.4728 218.962 23.0388 217.842 23.0388C215.686 23.0388 214.244 24.8028 214.244 26.9868C214.244 29.1848 215.602 30.9488 217.912 30.9488ZM217.842 24.0468C219.144 24.0468 219.886 24.9148 219.956 26.3568H215.602C215.77 25.0268 216.484 24.0468 217.842 24.0468ZM224.97 30.8928C226.244 30.8928 227.014 30.2908 227.49 29.6328H227.504C227.644 30.4308 228.036 30.8088 228.834 30.8088C229.142 30.8088 229.352 30.7528 229.534 30.6968V29.7868H229.478C228.82 29.9268 228.68 29.6048 228.68 29.0028V25.4888C228.68 24.4808 228.302 23.8228 227.672 23.4448C227.196 23.1648 226.566 23.0388 225.852 23.0388C223.822 23.0388 222.856 24.1728 222.8 25.4468H224.06C224.102 24.5508 224.676 23.9908 225.866 23.9908C226.902 23.9908 227.476 24.4948 227.476 25.3068C227.476 26.0768 226.762 26.2588 225.656 26.3848C223.71 26.6228 222.422 27.0008 222.422 28.7508C222.422 30.1928 223.542 30.8928 224.97 30.8928ZM225.292 29.9408C224.536 29.9408 223.794 29.7028 223.794 28.7368C223.794 27.7008 224.606 27.4768 225.838 27.2668C226.454 27.1548 227.112 26.9728 227.49 26.7348V27.9668C227.49 28.8348 226.79 29.9408 225.292 29.9408ZM235.533 30.7388H237.059L233.853 25.9228L236.723 23.2208H235.099L231.837 26.4268C231.865 26.0628 231.893 25.5308 231.893 25.2648V20.3228H230.591V30.7388H231.893V27.7848L232.957 26.7768L235.533 30.7388ZM241.898 33.2868H243.2V31.0048C243.2 30.4308 243.186 30.0108 243.172 29.7448H243.214C243.732 30.5428 244.558 30.9628 245.58 30.9628C247.61 30.9628 248.856 29.4088 248.856 27.0008C248.856 24.5228 247.54 23.0388 245.622 23.0388C244.544 23.0388 243.788 23.5428 243.228 24.3968H243.186V23.2208H241.898V33.2868ZM245.44 29.8848C243.774 29.8848 243.13 28.6108 243.13 27.0288C243.13 25.4328 243.858 24.1448 245.454 24.1448C246.84 24.1448 247.526 25.3768 247.526 27.0288C247.526 28.6668 246.826 29.8848 245.44 29.8848ZM251.526 23.2208H250.238V30.7388H251.54V26.6508C251.54 25.2368 252.534 24.3688 253.696 24.3688C253.92 24.3688 254.046 24.3828 254.228 24.4388H254.27V23.2068C254.13 23.1508 254.004 23.1228 253.794 23.1228C252.8 23.1228 252.03 23.7108 251.568 24.5788H251.526V23.2208ZM255.514 21.8348H256.872V20.3228H255.514V21.8348ZM255.542 30.7388H256.844V23.2208H255.542V30.7388ZM258.352 30.7388H264.414V29.5908H261.376C260.83 29.5908 259.878 29.6328 259.878 29.6328V29.5908C259.878 29.5908 260.508 28.9048 260.83 28.4988L264.246 24.0328V23.2208H258.604V24.3268H261.194C261.712 24.3268 262.608 24.2848 262.608 24.2848V24.3268C262.608 24.3268 262.02 24.9568 261.712 25.3488L258.352 29.7308V30.7388ZM268.785 30.9488C270.521 30.9488 271.725 29.9968 272.061 28.5968H270.787C270.549 29.3948 269.835 29.8848 268.799 29.8848C267.343 29.8848 266.545 28.7648 266.447 27.2948H272.215C272.215 26.0208 271.907 24.9428 271.291 24.2008C270.703 23.4728 269.835 23.0388 268.715 23.0388C266.559 23.0388 265.117 24.8028 265.117 26.9868C265.117 29.1848 266.475 30.9488 268.785 30.9488ZM268.715 24.0468C270.017 24.0468 270.759 24.9148 270.829 26.3568H266.475C266.643 25.0268 267.357 24.0468 268.715 24.0468Z" fill="white"/>
<path d="M314.444 26.2632V33.2107C314.444 33.4899 314.333 33.7576 314.136 33.9549C313.938 34.1523 313.671 34.2632 313.392 34.2632H298.657C298.378 34.2632 298.111 34.1523 297.913 33.9549C297.716 33.7576 297.605 33.4899 297.605 33.2107V26.2632H314.444ZM308.656 14.2668C309.277 14.2666 309.889 14.4237 310.433 14.7235C310.978 15.0233 311.438 15.456 311.77 15.9814C312.102 16.5067 312.296 17.1076 312.334 17.7281C312.371 18.3486 312.251 18.9685 311.984 19.53L315.496 19.529C315.776 19.529 316.043 19.6399 316.241 19.8372C316.438 20.0346 316.549 20.3023 316.549 20.5814V23.7388C316.549 24.0179 316.438 24.2856 316.241 24.483C316.043 24.6803 315.776 24.7912 315.496 24.7912H296.552C296.273 24.7912 296.006 24.6803 295.808 24.483C295.611 24.2856 295.5 24.0179 295.5 23.7388V20.5814C295.5 20.3023 295.611 20.0346 295.808 19.8372C296.006 19.6399 296.273 19.529 296.552 19.529L300.064 19.53C299.69 18.7425 299.606 17.8474 299.829 17.0042C300.053 16.161 300.568 15.4243 301.283 14.9254C301.999 14.4264 302.868 14.1975 303.736 14.2795C304.605 14.3614 305.416 14.7489 306.025 15.3729C306.368 15.0219 306.777 14.7432 307.228 14.5532C307.68 14.3632 308.165 14.2658 308.656 14.2668ZM303.393 16.3717C302.988 16.3719 302.598 16.528 302.305 16.8078C302.011 17.0876 301.837 17.4695 301.817 17.8745C301.798 18.2794 301.935 18.6763 302.2 18.983C302.465 19.2896 302.838 19.4825 303.242 19.5216L303.393 19.529H304.972V17.9503C304.972 17.5579 304.826 17.1795 304.562 16.889C304.298 16.5985 303.935 16.4167 303.545 16.379L303.393 16.3717ZM308.656 16.3717L308.504 16.379C308.139 16.414 307.798 16.5748 307.539 16.8338C307.279 17.0928 307.118 17.434 307.083 17.7988L307.077 17.9503V19.529H308.656L308.807 19.5216C309.198 19.4838 309.56 19.3019 309.824 19.0114C310.087 18.7209 310.233 18.3426 310.233 17.9503C310.233 17.558 310.087 17.1798 309.824 16.8893C309.56 16.5988 309.198 16.4169 308.807 16.379L308.656 16.3717Z" fill="white"/>
<rect x="104" y="0.856201" width="230" height="49.7652" stroke="white"/>
<path d="M135.016 69.3933H130.12V83.4333L125.62 69.3933H120.616V98.1213H125.512V83.7933L130.048 98.1213H135.016V69.3933ZM150.313 69.3933H137.605V98.1213H142.861V86.1333H149.737V81.3093H142.861V74.3253H150.313V69.3933ZM164.879 93.2613H157.283V69.3933H152.027V98.1213H164.879V93.2613ZM181.004 69.3933H175.784V91.4253C175.784 92.5773 175.28 93.5853 173.804 93.6573C172.976 93.6933 172.22 93.6573 171.572 93.5853V98.0853C172.508 98.2293 172.976 98.3013 174.452 98.3013C178.88 98.3013 181.004 96.6093 181.004 92.1813V69.3933ZM191.294 91.6773C191.294 92.1813 191.222 92.7933 191.078 93.4053C190.898 94.1973 190.142 94.5213 189.422 94.5213C188.702 94.5213 187.874 94.0893 187.766 93.1173C187.658 92.2173 187.622 90.7773 187.622 89.8773H195.794C195.974 86.4933 195.722 83.0373 195.038 81.3453C194.21 79.3293 192.302 78.0693 189.53 78.0693C186.11 78.0693 184.598 79.6173 183.878 81.3813C183.338 82.6773 182.942 85.3413 182.942 88.3293C182.942 91.3893 183.194 93.6573 184.022 95.5653C184.886 97.5813 186.938 98.3733 189.602 98.3733C192.266 98.3733 193.886 97.2933 194.75 95.7453C195.506 94.4133 195.686 92.2533 195.686 91.6773H191.294ZM187.55 86.3493C187.55 84.9813 187.586 83.6853 187.838 83.0733C188.09 82.3893 188.666 82.0293 189.458 82.0293C190.286 82.0293 190.826 82.4253 191.006 83.1093C191.15 83.5773 191.258 84.5493 191.258 86.3493H187.55ZM205.829 78.0693C204.173 78.0693 202.517 79.1493 202.301 80.6613V78.3213H197.549V98.1213H202.373V86.3853C202.373 83.1453 203.381 82.4253 205.037 82.4253C206.009 82.4253 206.981 82.6053 207.557 82.7853V78.2493C207.161 78.1053 206.585 78.0693 205.829 78.0693ZM217.052 86.9253C216.152 86.4573 215.252 86.0613 214.352 85.6293C213.2 85.0893 212.804 84.4773 212.804 83.5053C212.804 82.6773 213.164 81.9933 214.28 81.9933C215.288 81.9933 215.612 82.5693 215.684 83.1813C215.72 83.3253 215.756 84.4413 215.756 84.6573H220.112C220.112 84.2613 220.004 82.1733 219.896 81.5973C219.428 79.4013 217.592 78.0333 214.1 78.0333C210.284 78.0333 208.34 80.2653 208.34 83.3973C208.34 86.3493 209.204 88.1853 211.796 89.4093C212.516 89.7333 213.488 90.2013 214.1 90.4533C215.468 90.9933 215.936 91.6773 215.936 92.9013C215.936 94.0173 215.252 94.5573 214.352 94.5573C213.488 94.5573 212.804 94.1973 212.732 93.3693C212.696 92.7573 212.66 92.1453 212.66 91.8933H208.196C208.196 92.5053 208.232 93.7653 208.304 94.4133C208.628 97.0773 210.428 98.4093 214.46 98.4093C218.024 98.4093 220.508 96.5013 220.508 92.7573C220.508 89.7333 219.572 88.1853 217.052 86.9253ZM230.238 91.6773C230.238 92.1813 230.166 92.7933 230.022 93.4053C229.842 94.1973 229.086 94.5213 228.366 94.5213C227.646 94.5213 226.818 94.0893 226.71 93.1173C226.602 92.2173 226.566 90.7773 226.566 89.8773H234.738C234.918 86.4933 234.666 83.0373 233.982 81.3453C233.154 79.3293 231.246 78.0693 228.474 78.0693C225.054 78.0693 223.542 79.6173 222.822 81.3813C222.282 82.6773 221.886 85.3413 221.886 88.3293C221.886 91.3893 222.138 93.6573 222.966 95.5653C223.83 97.5813 225.882 98.3733 228.546 98.3733C231.21 98.3733 232.83 97.2933 233.694 95.7453C234.45 94.4133 234.63 92.2533 234.63 91.6773H230.238ZM226.494 86.3493C226.494 84.9813 226.53 83.6853 226.782 83.0733C227.034 82.3893 227.61 82.0293 228.402 82.0293C229.23 82.0293 229.77 82.4253 229.95 83.1093C230.094 83.5773 230.202 84.5493 230.202 86.3493H226.494ZM244.785 78.3213C244.749 78.9333 242.445 90.6333 242.373 91.0653C242.337 90.6693 240.033 78.8253 239.961 78.3213H235.065L239.781 97.5813L238.161 103.989H243.093L249.573 78.3213H244.785ZM268.423 81.8853H264.499V77.4573H260.251V81.8853H256.255V86.0973H260.251V90.5613H264.463V86.0973H268.423V81.8853ZM130.516 127.109C129.976 126.605 128.608 125.381 127.888 124.733C126.268 123.257 125.044 121.853 125.044 119.873C125.044 118.361 125.728 117.713 127.132 117.713C128.5 117.713 129.004 118.433 129.148 119.585C129.256 120.521 129.292 121.205 129.292 121.925H134.332C134.332 121.097 134.188 119.585 134.116 118.973C133.684 115.697 131.74 113.105 127.168 113.105C122.632 113.105 119.896 115.805 119.896 119.981C119.896 123.869 121.264 125.705 123.856 127.973C124.612 128.621 126.088 129.953 126.448 130.277C128.572 132.185 129.292 133.445 129.292 135.857C129.292 137.297 128.536 138.089 127.132 138.089C125.836 138.089 125.188 137.441 125.044 136.505C125.008 136.289 124.972 135.281 124.972 133.949H119.968C119.968 135.677 119.932 136.037 120.04 137.369C120.292 140.573 122.74 142.445 127.276 142.445C131.596 142.445 134.476 139.853 134.476 135.389C134.476 131.537 133.108 129.557 130.516 127.109ZM148.863 126.893C148.863 123.437 147.171 122.069 144.723 122.069C142.743 122.069 141.627 122.825 141.087 124.157V113.357H136.335V142.121H141.087V128.333C141.087 126.965 141.771 126.281 142.707 126.281C143.751 126.281 144.075 126.857 144.075 127.757C144.075 141.581 144.075 142.121 144.111 142.121H148.935C148.899 142.121 148.863 141.581 148.863 126.893ZM163.208 126.101C162.56 123.833 160.832 122.069 157.268 122.069C153.704 122.069 151.94 124.013 151.364 125.993C150.86 127.685 150.608 130.061 150.608 132.185C150.608 134.381 150.896 137.045 151.22 138.233C151.904 140.717 153.956 142.373 157.196 142.373C160.616 142.373 162.452 140.753 163.172 138.233C163.604 136.793 163.82 134.345 163.82 132.185C163.82 130.061 163.64 127.577 163.208 126.101ZM158.924 137.045C158.816 137.801 158.132 138.449 157.232 138.449C156.368 138.449 155.72 137.981 155.576 137.081C155.396 136.145 155.36 133.805 155.36 132.257C155.36 130.781 155.396 128.369 155.576 127.541C155.792 126.641 156.296 126.137 157.232 126.137C158.204 126.137 158.708 126.533 158.924 127.469C159.068 128.225 159.14 130.745 159.14 132.257C159.14 133.769 159.176 135.317 158.924 137.045ZM178.091 124.841C177.407 122.897 176.111 122.069 174.059 122.069C172.223 122.069 170.891 122.753 170.351 123.833L170.315 122.321H165.743V147.989H170.459V141.005C171.107 141.653 172.187 142.157 173.879 142.157C176.111 142.157 177.551 141.077 178.271 138.845C178.703 137.477 178.955 134.741 178.955 131.897C178.955 128.909 178.667 126.389 178.091 124.841ZM173.807 136.901C173.663 137.621 173.159 138.305 172.223 138.305C171.395 138.305 170.855 137.873 170.711 136.937C170.495 135.605 170.423 134.309 170.423 132.041C170.423 129.989 170.567 128.513 170.819 127.469C170.999 126.749 171.395 126.173 172.259 126.173C173.123 126.173 173.555 126.605 173.735 127.253C174.023 128.333 174.095 129.953 174.095 132.041C174.095 134.381 174.023 135.677 173.807 136.901ZM196.35 134.273C196.35 132.473 196.134 130.385 195.486 129.233C194.838 128.045 193.938 127.469 192.534 127.289C193.722 127.073 194.514 126.569 195.054 125.453C195.738 124.013 195.846 122.177 195.846 120.269C195.846 118.469 195.63 116.741 194.946 115.553C194.082 114.041 192.462 113.393 190.05 113.393H180.978V142.121H189.51C192.174 142.121 193.866 141.761 195.09 140.105C196.062 138.773 196.35 136.469 196.35 134.273ZM190.014 124.733C189.69 125.417 189.294 125.705 188.898 125.705H186.126V117.677H188.538C189.294 117.677 189.726 118.109 189.978 118.721C190.194 119.261 190.41 120.413 190.41 121.565C190.41 122.969 190.23 124.265 190.014 124.733ZM188.682 137.837H186.126V129.737H188.79C189.474 129.737 190.014 130.169 190.338 130.745C190.59 131.213 190.734 132.761 190.734 133.697C190.734 134.597 190.626 136.289 190.374 136.829C190.05 137.549 189.366 137.837 188.682 137.837ZM206.271 135.677C206.271 136.181 206.199 136.793 206.055 137.405C205.875 138.197 205.119 138.521 204.399 138.521C203.679 138.521 202.851 138.089 202.743 137.117C202.635 136.217 202.599 134.777 202.599 133.877H210.771C210.951 130.493 210.699 127.037 210.015 125.345C209.187 123.329 207.279 122.069 204.507 122.069C201.087 122.069 199.575 123.617 198.855 125.381C198.315 126.677 197.919 129.341 197.919 132.329C197.919 135.389 198.171 137.657 198.999 139.565C199.863 141.581 201.915 142.373 204.579 142.373C207.243 142.373 208.863 141.293 209.727 139.745C210.483 138.413 210.663 136.253 210.663 135.677H206.271ZM202.527 130.349C202.527 128.981 202.563 127.685 202.815 127.073C203.067 126.389 203.643 126.029 204.435 126.029C205.263 126.029 205.803 126.425 205.983 127.109C206.127 127.577 206.235 128.549 206.235 130.349H202.527ZM220.518 135.677C220.518 136.181 220.446 136.793 220.302 137.405C220.122 138.197 219.366 138.521 218.646 138.521C217.926 138.521 217.098 138.089 216.99 137.117C216.882 136.217 216.846 134.777 216.846 133.877H225.018C225.198 130.493 224.946 127.037 224.262 125.345C223.434 123.329 221.526 122.069 218.754 122.069C215.334 122.069 213.822 123.617 213.102 125.381C212.562 126.677 212.166 129.341 212.166 132.329C212.166 135.389 212.418 137.657 213.246 139.565C214.11 141.581 216.162 142.373 218.826 142.373C221.49 142.373 223.11 141.293 223.974 139.745C224.73 138.413 224.91 136.253 224.91 135.677H220.518ZM216.774 130.349C216.774 128.981 216.81 127.685 217.062 127.073C217.314 126.389 217.89 126.029 218.682 126.029C219.51 126.029 220.05 126.425 220.23 127.109C220.374 127.577 220.482 128.549 220.482 130.349H216.774ZM235.052 122.069C233.396 122.069 231.74 123.149 231.524 124.661V122.321H226.772V142.121H231.596V130.385C231.596 127.145 232.604 126.425 234.26 126.425C235.232 126.425 236.204 126.605 236.78 126.785V122.249C236.384 122.105 235.808 122.069 235.052 122.069ZM252.936 135.425V125.885H245.052V130.421H247.968C247.968 130.421 248.004 135.101 247.968 135.713C247.896 137.189 247.032 137.945 245.7 137.945C244.512 137.945 243.9 137.333 243.648 136.037C243.216 133.769 243.216 130.025 243.216 127.829C243.216 125.489 243.252 122.033 243.612 119.549C243.792 118.325 244.584 117.785 245.592 117.785C246.708 117.785 247.392 118.397 247.5 119.549C247.644 121.025 247.644 123.005 247.644 123.221H252.792C252.792 120.665 252.684 119.225 252.468 117.929C252.036 115.337 250.128 113.141 245.484 113.141C240.948 113.141 239.04 115.697 238.428 118.001C237.78 120.485 237.708 124.841 237.708 127.829C237.708 130.925 237.816 134.957 238.428 137.549C239.184 140.717 241.452 142.373 244.476 142.373C246.672 142.373 248.148 141.761 248.868 140.825L249.12 142.121H253.008C253.008 142.085 252.936 138.737 252.936 135.425ZM262.871 135.677C262.871 136.181 262.799 136.793 262.655 137.405C262.475 138.197 261.719 138.521 260.999 138.521C260.279 138.521 259.451 138.089 259.343 137.117C259.235 136.217 259.199 134.777 259.199 133.877H267.371C267.551 130.493 267.299 127.037 266.615 125.345C265.787 123.329 263.879 122.069 261.107 122.069C257.687 122.069 256.175 123.617 255.455 125.381C254.915 126.677 254.519 129.341 254.519 132.329C254.519 135.389 254.771 137.657 255.599 139.565C256.463 141.581 258.515 142.373 261.179 142.373C263.843 142.373 265.463 141.293 266.327 139.745C267.083 138.413 267.263 136.253 267.263 135.677H262.871ZM259.127 130.349C259.127 128.981 259.163 127.685 259.415 127.073C259.667 126.389 260.243 126.029 261.035 126.029C261.863 126.029 262.403 126.425 262.583 127.109C262.727 127.577 262.835 128.549 262.835 130.349H259.127ZM281.474 138.593C281.474 137.117 281.51 134.705 281.51 133.157C281.546 131.321 281.582 128.333 281.51 126.605C281.402 123.833 279.674 122.069 275.534 122.069C271.142 122.069 269.342 124.049 269.342 127.757V129.233H273.806V128.117C273.806 126.749 274.238 126.065 275.462 126.065C276.362 126.065 276.83 126.569 276.866 127.433C276.902 128.045 276.902 129.269 276.902 129.809C276.11 129.809 275.282 129.917 274.382 130.061C271.07 130.673 268.838 132.473 268.658 135.353C268.586 136.397 268.622 138.089 268.658 138.521C268.802 141.401 270.998 142.265 272.978 142.265C274.742 142.265 276.074 141.797 276.974 140.681C276.974 141.185 277.082 142.121 277.154 142.121H281.726C281.546 141.869 281.474 140.033 281.474 138.593ZM276.902 134.561C276.83 135.569 276.902 136.073 276.722 137.117C276.542 138.125 275.678 138.521 274.922 138.521C274.202 138.521 273.626 138.269 273.518 137.585C273.446 137.009 273.446 136.325 273.446 135.785C273.446 134.957 273.482 134.381 274.094 133.841C274.634 133.373 275.246 133.265 275.75 133.157C276.182 133.085 276.542 133.085 276.902 133.085C276.902 133.373 276.938 134.165 276.902 134.561ZM291.934 122.069C290.278 122.069 288.622 123.149 288.406 124.661V122.321H283.654V142.121H288.478V130.385C288.478 127.145 289.486 126.425 291.142 126.425C292.114 126.425 293.086 126.605 293.662 126.785V122.249C293.266 122.105 292.69 122.069 291.934 122.069ZM135.376 179.425V169.885H127.492V174.421H130.408C130.408 174.421 130.444 179.101 130.408 179.713C130.336 181.189 129.472 181.945 128.14 181.945C126.952 181.945 126.34 181.333 126.088 180.037C125.656 177.769 125.656 174.025 125.656 171.829C125.656 169.489 125.692 166.033 126.052 163.549C126.232 162.325 127.024 161.785 128.032 161.785C129.148 161.785 129.832 162.397 129.94 163.549C130.084 165.025 130.084 167.005 130.084 167.221H135.232C135.232 164.665 135.124 163.225 134.908 161.929C134.476 159.337 132.568 157.141 127.924 157.141C123.388 157.141 121.48 159.697 120.868 162.001C120.22 164.485 120.148 168.841 120.148 171.829C120.148 174.925 120.256 178.957 120.868 181.549C121.624 184.717 123.892 186.373 126.916 186.373C129.112 186.373 130.588 185.761 131.308 184.825L131.56 186.121H135.448C135.448 186.085 135.376 182.737 135.376 179.425ZM142.395 160.417H137.319V165.277H142.395V160.417ZM142.323 184.681V166.321H137.391V184.753C137.391 185.545 137.391 186.121 137.571 186.121H142.431C142.395 186.085 142.323 185.437 142.323 184.681ZM153.029 166.321H150.437V162.649C150.437 161.929 150.869 161.137 151.841 161.137C152.237 161.137 152.813 161.173 153.281 161.245V157.321C152.741 157.249 151.697 157.213 150.437 157.213C146.873 157.213 145.613 159.337 145.613 162.037V166.321H143.849V170.533H145.613V186.121H150.437V170.533H153.029V166.321ZM162.989 166.321H160.217V162.505L155.537 162.613C155.537 162.613 155.393 166.213 155.357 166.321H153.593V170.533H155.285V181.801C155.285 184.897 157.013 186.265 159.965 186.265C161.225 186.265 162.017 186.193 162.773 186.013V182.161C162.413 182.233 161.945 182.269 161.549 182.269C160.793 182.269 160.181 182.053 160.181 180.937V170.533H162.989V166.321ZM180.478 175.753C180.478 176.401 180.442 178.237 180.262 179.713C180.082 181.153 179.218 181.621 178.21 181.621C177.238 181.621 176.374 181.117 176.122 179.821C175.798 178.021 175.726 174.709 175.726 171.577C175.726 167.545 175.798 165.025 176.122 163.693C176.374 162.685 177.022 162.109 178.21 162.109C179.254 162.109 179.938 162.721 180.082 163.621C180.334 165.061 180.442 166.609 180.442 167.941H185.554C185.554 166.177 185.446 164.521 185.266 163.153C184.762 159.337 182.746 157.177 178.318 157.177C174.07 157.177 171.766 158.941 171.046 162.361C170.398 165.421 170.218 167.761 170.218 171.613C170.218 175.393 170.506 179.713 171.226 182.017C172.018 184.681 173.998 186.445 178.03 186.445C182.458 186.445 184.618 184.501 185.266 181.009C185.59 179.173 185.59 176.725 185.59 175.753H180.478ZM199.807 182.593C199.807 181.117 199.843 178.705 199.843 177.157C199.879 175.321 199.915 172.333 199.843 170.605C199.735 167.833 198.007 166.069 193.867 166.069C189.475 166.069 187.675 168.049 187.675 171.757V173.233H192.139V172.117C192.139 170.749 192.571 170.065 193.795 170.065C194.695 170.065 195.163 170.569 195.199 171.433C195.235 172.045 195.235 173.269 195.235 173.809C194.443 173.809 193.615 173.917 192.715 174.061C189.403 174.673 187.171 176.473 186.991 179.353C186.919 180.397 186.955 182.089 186.991 182.521C187.135 185.401 189.331 186.265 191.311 186.265C193.075 186.265 194.407 185.797 195.307 184.681C195.307 185.185 195.415 186.121 195.487 186.121H200.059C199.879 185.869 199.807 184.033 199.807 182.593ZM195.235 178.561C195.163 179.569 195.235 180.073 195.055 181.117C194.875 182.125 194.011 182.521 193.255 182.521C192.535 182.521 191.959 182.269 191.851 181.585C191.779 181.009 191.779 180.325 191.779 179.785C191.779 178.957 191.815 178.381 192.427 177.841C192.967 177.373 193.579 177.265 194.083 177.157C194.515 177.085 194.875 177.085 195.235 177.085C195.235 177.373 195.271 178.165 195.235 178.561ZM210.267 166.069C208.611 166.069 206.955 167.149 206.739 168.661V166.321H201.987V186.121H206.811V174.385C206.811 171.145 207.819 170.425 209.475 170.425C210.447 170.425 211.419 170.605 211.995 170.785V166.249C211.599 166.105 211.023 166.069 210.267 166.069ZM213.466 169.237C212.89 171.397 212.71 173.377 212.71 176.293C212.71 179.461 213.07 182.089 213.718 183.673C214.438 185.473 215.77 186.265 217.75 186.265C219.514 186.265 220.702 185.689 221.35 184.681L221.926 186.121H225.958C225.958 186.121 225.814 184.465 225.814 183.349V157.357H221.098V167.761C220.558 166.717 219.262 166.141 217.75 166.141C215.626 166.141 213.97 167.293 213.466 169.237ZM220.774 171.325C220.99 172.405 221.134 173.485 221.134 176.329C221.134 178.057 221.062 179.857 220.81 181.117C220.666 181.873 220.198 182.449 219.262 182.449C218.29 182.449 217.786 181.981 217.678 181.225C217.498 179.749 217.426 177.985 217.426 176.329C217.426 174.637 217.498 172.945 217.75 171.505C217.894 170.785 218.398 170.245 219.298 170.245C220.198 170.245 220.63 170.641 220.774 171.325Z" fill="white"/>
<rect x="104" y="0.856201" width="230" height="205.765" stroke="white"/>
</g>
<rect x="1" y="0.856201" width="333" height="205.765" rx="11.5" stroke="white"/>
<defs>
<clipPath id="clip0_2388_31317">
<rect x="0.5" y="0.356201" width="334" height="206.765" rx="12" fill="white"/>
</clipPath>
</defs>
</svg>
