<svg width="100%" height="auto" viewBox="0 0 334 168" fill="none" xmlns="http://www.w3.org/2000/svg">
<g clip-path="url(#clip0_4719_146419)">
<path d="M62.512 58.904C62.64 56.472 62.64 54.104 62.576 52.696C62.192 47.256 58.608 43.416 51.184 43.416C44.144 43.416 40.304 47.576 39.792 52.312C39.6 53.784 39.6 56.792 39.6 59.736H47.984C47.984 57.624 48.048 55.704 48.112 54.296C48.24 52.568 49.136 51.416 50.992 51.416C52.656 51.416 53.552 52.12 53.744 54.04C53.872 55 53.808 59.096 53.616 60.696C53.296 63.192 52.4 64.344 49.584 64.6H44.656V72.6C44.656 72.6 49.072 72.664 49.328 72.664C52.592 72.856 53.872 74.008 54.128 76.824C54.256 78.552 54.32 81.688 54.128 84.76C54 86.936 52.912 88.024 50.8 88.024C49.072 88.024 47.984 87.256 47.792 85.656C47.472 82.968 47.6 82.328 47.6 78.744H38.64C38.64 82.584 38.704 83.096 39.024 86.808C39.536 92.312 43.568 95.512 50.992 95.512C58.544 95.512 63.024 91.672 63.6 85.656C63.856 82.904 63.856 78.104 63.6 75.544C63.152 71 60.016 68.056 54.704 67.672C60.08 67.096 62.256 63.192 62.512 58.904Z" fill="white"/>
<path d="M42.6396 111.912C42.6396 111.912 40.7496 120.13 40.7496 120.466C40.7496 120.13 39.0136 111.912 39.0136 111.912H36.9696C36.9696 111.912 35.2476 120.13 35.2476 120.466C35.2476 120.13 33.3576 111.912 33.3576 111.912H31.4116L34.0716 123H36.1576C36.1576 123 37.9636 114.796 37.9636 114.432C37.9776 114.796 39.7136 123 39.7136 123H41.8136L44.4456 111.912H42.6396ZM48.9349 111.912H47.0449V123H48.9349V111.912ZM60.0734 111.912H58.3234V119.472L54.5434 111.912H52.4574V123H54.2074V115.244L58.0994 123H60.0734V111.912ZM68.4293 116.826C68.1213 116.714 67.4633 116.462 67.0713 116.336C65.7133 115.888 65.0413 115.454 65.0413 114.586C65.0413 113.844 65.5453 113.396 66.9593 113.396C68.1633 113.396 68.7233 113.732 68.9613 114.418C69.0453 114.67 69.0873 114.88 69.0873 115.118H70.9633C70.9633 114.698 70.8933 114.362 70.7953 114.026C70.4033 112.654 69.2833 111.786 67.0013 111.786C64.3833 111.786 63.1513 112.934 63.1513 114.642C63.1513 116.28 64.2293 117.26 65.8953 117.806C66.3573 117.96 67.0153 118.212 67.2953 118.31C68.7793 118.828 69.2273 119.276 69.2273 120.214C69.2273 121.054 68.6253 121.558 67.2113 121.558C66.0073 121.558 65.3073 121.25 65.0973 120.592C65.0133 120.326 64.9713 119.948 64.9713 119.752H63.1093C63.1093 120.074 63.1373 120.592 63.2353 120.97C63.5713 122.272 64.6913 123.14 67.2533 123.14C69.8433 123.14 71.1173 121.908 71.1173 120.06C71.1173 118.338 70.1653 117.428 68.4293 116.826Z" fill="white"/>
<path d="M122.756 22.192C122.276 22.192 121.828 22.128 121.412 22C121.004 21.872 120.648 21.68 120.344 21.424C120.032 21.168 119.788 20.86 119.612 20.5C119.436 20.132 119.344 19.708 119.336 19.228H120.464C120.48 19.86 120.684 20.356 121.076 20.716C121.476 21.068 122.024 21.244 122.72 21.244C123.288 21.244 123.752 21.1 124.112 20.812C124.48 20.524 124.664 20.088 124.664 19.504C124.664 18.976 124.476 18.58 124.1 18.316C123.732 18.044 123.2 17.908 122.504 17.908H121.964V17.02H122.492C123.132 17.02 123.612 16.896 123.932 16.648C124.26 16.392 124.424 16.04 124.424 15.592C124.424 15.368 124.376 15.168 124.28 14.992C124.192 14.808 124.064 14.656 123.896 14.536C123.736 14.408 123.548 14.312 123.332 14.248C123.116 14.184 122.884 14.152 122.636 14.152C122.332 14.152 122.064 14.2 121.832 14.296C121.6 14.384 121.4 14.512 121.232 14.68C121.072 14.84 120.948 15.036 120.86 15.268C120.772 15.492 120.728 15.736 120.728 16H119.612C119.612 15.6 119.68 15.232 119.816 14.896C119.96 14.56 120.164 14.272 120.428 14.032C120.692 13.784 121.012 13.592 121.388 13.456C121.764 13.32 122.192 13.252 122.672 13.252C123.072 13.252 123.448 13.308 123.8 13.42C124.152 13.524 124.456 13.676 124.712 13.876C124.976 14.076 125.18 14.324 125.324 14.62C125.476 14.908 125.552 15.236 125.552 15.604C125.552 16.084 125.42 16.468 125.156 16.756C124.9 17.044 124.56 17.256 124.136 17.392V17.428C124.736 17.588 125.172 17.852 125.444 18.22C125.716 18.588 125.852 19.048 125.852 19.6C125.852 20.016 125.772 20.388 125.612 20.716C125.452 21.036 125.232 21.308 124.952 21.532C124.68 21.748 124.352 21.912 123.968 22.024C123.592 22.136 123.188 22.192 122.756 22.192ZM133.039 24.256C132.191 24.256 131.531 24.096 131.059 23.776C130.595 23.464 130.331 23.02 130.267 22.444H131.311C131.359 22.78 131.535 23.02 131.839 23.164C132.143 23.316 132.535 23.392 133.015 23.392C133.591 23.392 134.031 23.26 134.335 22.996C134.647 22.74 134.803 22.336 134.803 21.784V21.604C134.803 21.42 134.803 21.248 134.803 21.088C134.811 20.92 134.819 20.784 134.827 20.68H134.803C134.579 21 134.315 21.252 134.011 21.436C133.715 21.62 133.339 21.712 132.883 21.712C132.475 21.712 132.095 21.636 131.743 21.484C131.399 21.332 131.103 21.116 130.855 20.836C130.607 20.556 130.411 20.224 130.267 19.84C130.131 19.456 130.063 19.028 130.063 18.556C130.063 18.06 130.135 17.616 130.279 17.224C130.423 16.832 130.619 16.504 130.867 16.24C131.123 15.968 131.419 15.76 131.755 15.616C132.091 15.472 132.447 15.4 132.823 15.4C133.287 15.4 133.675 15.488 133.987 15.664C134.307 15.832 134.571 16.08 134.779 16.408H134.803V15.556H135.907V21.736C135.907 22.168 135.839 22.54 135.703 22.852C135.567 23.172 135.375 23.436 135.127 23.644C134.871 23.852 134.567 24.004 134.215 24.1C133.863 24.204 133.471 24.256 133.039 24.256ZM132.991 20.8C133.343 20.8 133.639 20.744 133.879 20.632C134.119 20.512 134.311 20.352 134.455 20.152C134.607 19.944 134.715 19.7 134.779 19.42C134.843 19.14 134.875 18.836 134.875 18.508C134.875 17.828 134.719 17.296 134.407 16.912C134.103 16.52 133.627 16.324 132.979 16.324C132.387 16.324 131.943 16.528 131.647 16.936C131.351 17.344 131.203 17.888 131.203 18.568C131.203 19.256 131.355 19.8 131.659 20.2C131.963 20.6 132.407 20.8 132.991 20.8ZM139.372 22.132C139.068 22.132 138.78 22.092 138.508 22.012C138.244 21.94 138.012 21.828 137.812 21.676C137.62 21.524 137.468 21.336 137.356 21.112C137.244 20.88 137.188 20.608 137.188 20.296C137.188 19.92 137.252 19.612 137.38 19.372C137.516 19.132 137.704 18.94 137.944 18.796C138.192 18.652 138.484 18.54 138.82 18.46C139.164 18.38 139.544 18.316 139.96 18.268C140.2 18.244 140.416 18.212 140.608 18.172C140.8 18.132 140.964 18.08 141.1 18.016C141.236 17.944 141.34 17.856 141.412 17.752C141.484 17.648 141.52 17.512 141.52 17.344C141.52 16.992 141.4 16.716 141.16 16.516C140.928 16.316 140.588 16.216 140.14 16.216C139.628 16.216 139.244 16.328 138.988 16.552C138.74 16.776 138.608 17.08 138.592 17.464H137.512C137.52 17.192 137.58 16.932 137.692 16.684C137.804 16.436 137.968 16.216 138.184 16.024C138.4 15.832 138.668 15.68 138.988 15.568C139.316 15.456 139.696 15.4 140.128 15.4C140.432 15.4 140.716 15.428 140.98 15.484C141.244 15.54 141.48 15.628 141.688 15.748C141.96 15.908 142.172 16.132 142.324 16.42C142.476 16.708 142.552 17.068 142.552 17.5V20.512C142.552 20.768 142.596 20.96 142.684 21.088C142.772 21.216 142.956 21.248 143.236 21.184H143.284V21.964C143.204 21.988 143.116 22.008 143.02 22.024C142.932 22.048 142.82 22.06 142.684 22.06C142.34 22.06 142.08 21.98 141.904 21.82C141.728 21.652 141.608 21.396 141.544 21.052H141.532C141.428 21.196 141.308 21.332 141.172 21.46C141.036 21.588 140.88 21.704 140.704 21.808C140.528 21.904 140.328 21.98 140.104 22.036C139.888 22.1 139.644 22.132 139.372 22.132ZM139.648 21.316C139.968 21.316 140.244 21.264 140.476 21.16C140.716 21.048 140.912 20.912 141.064 20.752C141.224 20.584 141.34 20.4 141.412 20.2C141.492 20 141.532 19.808 141.532 19.624V18.568C141.372 18.672 141.16 18.764 140.896 18.844C140.64 18.916 140.38 18.976 140.116 19.024C139.852 19.072 139.612 19.124 139.396 19.18C139.18 19.228 138.996 19.3 138.844 19.396C138.692 19.484 138.572 19.6 138.484 19.744C138.404 19.88 138.364 20.06 138.364 20.284C138.364 20.492 138.4 20.664 138.472 20.8C138.544 20.928 138.64 21.032 138.76 21.112C138.88 21.192 139.016 21.248 139.168 21.28C139.328 21.304 139.488 21.316 139.648 21.316ZM144.19 15.556H145.294V16.516H145.33C145.53 16.164 145.794 15.892 146.122 15.7C146.45 15.5 146.822 15.4 147.238 15.4C147.63 15.4 147.97 15.5 148.258 15.7C148.554 15.9 148.77 16.2 148.906 16.6H148.93C149.162 16.192 149.454 15.892 149.806 15.7C150.158 15.5 150.53 15.4 150.922 15.4C151.514 15.4 151.994 15.58 152.362 15.94C152.73 16.3 152.914 16.82 152.914 17.5V22H151.798V17.596C151.798 17.196 151.686 16.888 151.462 16.672C151.238 16.448 150.962 16.336 150.634 16.336C150.426 16.336 150.23 16.38 150.046 16.468C149.862 16.548 149.702 16.664 149.566 16.816C149.43 16.968 149.318 17.148 149.23 17.356C149.15 17.556 149.11 17.78 149.11 18.028V22H148.006V17.596C148.006 17.196 147.906 16.888 147.706 16.672C147.506 16.448 147.238 16.336 146.902 16.336C146.71 16.336 146.518 16.38 146.326 16.468C146.134 16.548 145.962 16.664 145.81 16.816C145.666 16.968 145.546 17.148 145.45 17.356C145.354 17.556 145.306 17.78 145.306 18.028V22H144.19V15.556ZM157.205 22.18C156.709 22.18 156.265 22.092 155.873 21.916C155.489 21.74 155.161 21.5 154.889 21.196C154.617 20.884 154.409 20.524 154.265 20.116C154.129 19.7 154.061 19.256 154.061 18.784C154.061 18.32 154.133 17.884 154.277 17.476C154.429 17.06 154.637 16.7 154.901 16.396C155.173 16.084 155.497 15.84 155.873 15.664C156.257 15.488 156.681 15.4 157.145 15.4C157.625 15.4 158.049 15.488 158.417 15.664C158.785 15.84 159.097 16.084 159.353 16.396C159.617 16.716 159.813 17.1 159.941 17.548C160.077 17.996 160.145 18.496 160.145 19.048H155.201C155.225 19.36 155.285 19.652 155.381 19.924C155.477 20.196 155.609 20.432 155.777 20.632C155.945 20.832 156.149 20.988 156.389 21.1C156.629 21.212 156.905 21.268 157.217 21.268C157.665 21.268 158.033 21.172 158.321 20.98C158.617 20.78 158.817 20.508 158.921 20.164H160.013C159.869 20.764 159.549 21.252 159.053 21.628C158.565 21.996 157.949 22.18 157.205 22.18ZM157.145 16.264C156.857 16.264 156.601 16.316 156.377 16.42C156.153 16.516 155.961 16.652 155.801 16.828C155.641 17.004 155.513 17.212 155.417 17.452C155.321 17.692 155.257 17.956 155.225 18.244H158.957C158.925 17.62 158.753 17.136 158.441 16.792C158.137 16.44 157.705 16.264 157.145 16.264ZM163.874 15.556H165.062L166.07 19.132C166.118 19.316 166.166 19.516 166.214 19.732C166.27 19.948 166.318 20.152 166.358 20.344C166.406 20.568 166.45 20.792 166.49 21.016H166.514C166.554 20.808 166.598 20.596 166.646 20.38C166.686 20.196 166.73 19.996 166.778 19.78C166.834 19.564 166.89 19.356 166.946 19.156L167.918 15.556H168.974L169.934 19.156C169.974 19.332 170.018 19.528 170.066 19.744C170.122 19.952 170.17 20.152 170.21 20.344C170.258 20.568 170.302 20.796 170.342 21.028H170.366C170.406 20.812 170.446 20.596 170.486 20.38C170.526 20.196 170.57 19.992 170.618 19.768C170.666 19.544 170.722 19.332 170.786 19.132L171.854 15.556H173.006L170.906 22H169.79L168.842 18.448C168.802 18.288 168.758 18.108 168.71 17.908C168.662 17.7 168.618 17.504 168.578 17.32C168.53 17.104 168.482 16.88 168.434 16.648H168.41C168.362 16.88 168.314 17.104 168.266 17.32C168.226 17.504 168.182 17.7 168.134 17.908C168.094 18.116 168.054 18.296 168.014 18.448L167.042 22H165.914L163.874 15.556ZM173.873 13.072H175.037V14.368H173.873V13.072ZM173.897 15.556H175.013V22H173.897V15.556ZM177.649 16.468H177.685C177.917 16.14 178.197 15.88 178.525 15.688C178.853 15.496 179.253 15.4 179.725 15.4C180.405 15.4 180.937 15.58 181.321 15.94C181.705 16.3 181.897 16.82 181.897 17.5V22H180.793V17.632C180.793 17.216 180.665 16.896 180.409 16.672C180.161 16.448 179.817 16.336 179.377 16.336C179.129 16.336 178.897 16.38 178.681 16.468C178.473 16.548 178.293 16.664 178.141 16.816C177.989 16.968 177.869 17.152 177.781 17.368C177.701 17.584 177.661 17.82 177.661 18.076V22H176.545V15.556H177.649V16.468ZM189.06 22.192C188.164 22.192 187.472 22 186.984 21.616C186.496 21.224 186.228 20.7 186.18 20.044H187.308C187.34 20.276 187.408 20.472 187.512 20.632C187.616 20.792 187.744 20.92 187.896 21.016C188.056 21.112 188.236 21.184 188.436 21.232C188.636 21.272 188.852 21.292 189.084 21.292C189.596 21.292 189.964 21.196 190.188 21.004C190.42 20.804 190.536 20.56 190.536 20.272C190.536 19.92 190.396 19.676 190.116 19.54C189.844 19.396 189.424 19.268 188.856 19.156C188.544 19.092 188.24 19.02 187.944 18.94C187.656 18.86 187.4 18.752 187.176 18.616C186.96 18.48 186.784 18.3 186.648 18.076C186.52 17.852 186.456 17.564 186.456 17.212C186.456 16.66 186.66 16.224 187.068 15.904C187.484 15.576 188.068 15.412 188.82 15.412C189.628 15.412 190.24 15.584 190.656 15.928C191.072 16.272 191.316 16.724 191.388 17.284H190.272C190.224 16.948 190.08 16.692 189.84 16.516C189.608 16.34 189.26 16.252 188.796 16.252C188.356 16.252 188.036 16.34 187.836 16.516C187.644 16.692 187.548 16.904 187.548 17.152C187.548 17.32 187.584 17.46 187.656 17.572C187.736 17.676 187.848 17.764 187.992 17.836C188.144 17.908 188.324 17.968 188.532 18.016C188.748 18.064 188.992 18.116 189.264 18.172C189.584 18.236 189.888 18.308 190.176 18.388C190.464 18.468 190.716 18.58 190.932 18.724C191.156 18.868 191.332 19.06 191.46 19.3C191.588 19.532 191.652 19.836 191.652 20.212C191.652 20.54 191.588 20.828 191.46 21.076C191.332 21.324 191.152 21.532 190.92 21.7C190.696 21.86 190.424 21.98 190.104 22.06C189.784 22.148 189.436 22.192 189.06 22.192ZM192.345 15.556H193.353V13.528H194.457V15.556H195.789V16.42H194.457V20.488C194.457 20.72 194.513 20.88 194.625 20.968C194.745 21.048 194.909 21.088 195.117 21.088C195.213 21.088 195.313 21.08 195.417 21.064C195.529 21.04 195.617 21.02 195.681 21.004H195.717V21.94C195.413 22.012 195.113 22.048 194.817 22.048C194.385 22.04 194.033 21.94 193.761 21.748C193.489 21.548 193.353 21.212 193.353 20.74V16.42H192.345V15.556ZM198.052 16.72H198.088C198.288 16.344 198.548 16.044 198.868 15.82C199.188 15.588 199.564 15.472 199.996 15.472C200.084 15.472 200.156 15.48 200.212 15.496C200.276 15.504 200.34 15.52 200.404 15.544V16.6H200.368C200.288 16.576 200.216 16.56 200.152 16.552C200.088 16.544 200.008 16.54 199.912 16.54C199.664 16.54 199.428 16.588 199.204 16.684C198.98 16.772 198.784 16.9 198.616 17.068C198.448 17.236 198.312 17.44 198.208 17.68C198.112 17.92 198.064 18.192 198.064 18.496V22H196.948V15.556H198.052V16.72ZM204.056 22.18C203.56 22.18 203.116 22.092 202.724 21.916C202.34 21.74 202.012 21.5 201.74 21.196C201.468 20.884 201.26 20.524 201.116 20.116C200.98 19.7 200.912 19.256 200.912 18.784C200.912 18.32 200.984 17.884 201.128 17.476C201.28 17.06 201.488 16.7 201.752 16.396C202.024 16.084 202.348 15.84 202.724 15.664C203.108 15.488 203.532 15.4 203.996 15.4C204.476 15.4 204.9 15.488 205.268 15.664C205.636 15.84 205.948 16.084 206.204 16.396C206.468 16.716 206.664 17.1 206.792 17.548C206.928 17.996 206.996 18.496 206.996 19.048H202.052C202.076 19.36 202.136 19.652 202.232 19.924C202.328 20.196 202.46 20.432 202.628 20.632C202.796 20.832 203 20.988 203.24 21.1C203.48 21.212 203.756 21.268 204.068 21.268C204.516 21.268 204.884 21.172 205.172 20.98C205.468 20.78 205.668 20.508 205.772 20.164H206.864C206.72 20.764 206.4 21.252 205.904 21.628C205.416 21.996 204.8 22.18 204.056 22.18ZM203.996 16.264C203.708 16.264 203.452 16.316 203.228 16.42C203.004 16.516 202.812 16.652 202.652 16.828C202.492 17.004 202.364 17.212 202.268 17.452C202.172 17.692 202.108 17.956 202.076 18.244H205.808C205.776 17.62 205.604 17.136 205.292 16.792C204.988 16.44 204.556 16.264 203.996 16.264ZM210.106 22.132C209.802 22.132 209.514 22.092 209.242 22.012C208.978 21.94 208.746 21.828 208.546 21.676C208.354 21.524 208.202 21.336 208.09 21.112C207.978 20.88 207.922 20.608 207.922 20.296C207.922 19.92 207.986 19.612 208.114 19.372C208.25 19.132 208.438 18.94 208.678 18.796C208.926 18.652 209.218 18.54 209.554 18.46C209.898 18.38 210.278 18.316 210.694 18.268C210.934 18.244 211.15 18.212 211.342 18.172C211.534 18.132 211.698 18.08 211.834 18.016C211.97 17.944 212.074 17.856 212.146 17.752C212.218 17.648 212.254 17.512 212.254 17.344C212.254 16.992 212.134 16.716 211.894 16.516C211.662 16.316 211.322 16.216 210.874 16.216C210.362 16.216 209.978 16.328 209.722 16.552C209.474 16.776 209.342 17.08 209.326 17.464H208.246C208.254 17.192 208.314 16.932 208.426 16.684C208.538 16.436 208.702 16.216 208.918 16.024C209.134 15.832 209.402 15.68 209.722 15.568C210.05 15.456 210.43 15.4 210.862 15.4C211.166 15.4 211.45 15.428 211.714 15.484C211.978 15.54 212.214 15.628 212.422 15.748C212.694 15.908 212.906 16.132 213.058 16.42C213.21 16.708 213.286 17.068 213.286 17.5V20.512C213.286 20.768 213.33 20.96 213.418 21.088C213.506 21.216 213.69 21.248 213.97 21.184H214.018V21.964C213.938 21.988 213.85 22.008 213.754 22.024C213.666 22.048 213.554 22.06 213.418 22.06C213.074 22.06 212.814 21.98 212.638 21.82C212.462 21.652 212.342 21.396 212.278 21.052H212.266C212.162 21.196 212.042 21.332 211.906 21.46C211.77 21.588 211.614 21.704 211.438 21.808C211.262 21.904 211.062 21.98 210.838 22.036C210.622 22.1 210.378 22.132 210.106 22.132ZM210.382 21.316C210.702 21.316 210.978 21.264 211.21 21.16C211.45 21.048 211.646 20.912 211.798 20.752C211.958 20.584 212.074 20.4 212.146 20.2C212.226 20 212.266 19.808 212.266 19.624V18.568C212.106 18.672 211.894 18.764 211.63 18.844C211.374 18.916 211.114 18.976 210.85 19.024C210.586 19.072 210.346 19.124 210.13 19.18C209.914 19.228 209.73 19.3 209.578 19.396C209.426 19.484 209.306 19.6 209.218 19.744C209.138 19.88 209.098 20.06 209.098 20.284C209.098 20.492 209.134 20.664 209.206 20.8C209.278 20.928 209.374 21.032 209.494 21.112C209.614 21.192 209.75 21.248 209.902 21.28C210.062 21.304 210.222 21.316 210.382 21.316ZM216.952 18.604L216.04 19.468V22H214.924V13.072H216.04V17.308C216.04 17.42 216.036 17.576 216.028 17.776C216.02 17.968 216.008 18.144 215.992 18.304L218.788 15.556H220.18L217.72 17.872L220.468 22H219.16L216.952 18.604ZM224.616 15.556H225.72V16.564H225.756C225.996 16.196 226.28 15.912 226.608 15.712C226.944 15.504 227.344 15.4 227.808 15.4C228.216 15.4 228.588 15.48 228.924 15.64C229.268 15.792 229.56 16.016 229.8 16.312C230.048 16.6 230.24 16.956 230.376 17.38C230.512 17.796 230.58 18.268 230.58 18.796C230.58 19.316 230.516 19.784 230.388 20.2C230.26 20.616 230.072 20.972 229.824 21.268C229.584 21.564 229.288 21.792 228.936 21.952C228.592 22.112 228.204 22.192 227.772 22.192C227.332 22.192 226.94 22.104 226.596 21.928C226.252 21.752 225.968 21.492 225.744 21.148H225.708C225.716 21.26 225.72 21.408 225.72 21.592C225.728 21.768 225.732 21.98 225.732 22.228V24.184H224.616V15.556ZM227.652 21.268C227.948 21.268 228.208 21.208 228.432 21.088C228.656 20.96 228.84 20.788 228.984 20.572C229.136 20.356 229.248 20.1 229.32 19.804C229.4 19.5 229.44 19.172 229.44 18.82C229.44 18.468 229.404 18.14 229.332 17.836C229.26 17.532 229.148 17.272 228.996 17.056C228.852 16.832 228.668 16.66 228.444 16.54C228.22 16.412 227.96 16.348 227.664 16.348C227.32 16.348 227.024 16.412 226.776 16.54C226.528 16.668 226.32 16.844 226.152 17.068C225.992 17.292 225.872 17.556 225.792 17.86C225.712 18.156 225.672 18.476 225.672 18.82C225.672 19.156 225.708 19.476 225.78 19.78C225.852 20.076 225.968 20.336 226.128 20.56C226.288 20.776 226.492 20.948 226.74 21.076C226.988 21.204 227.292 21.268 227.652 21.268ZM232.868 16.72H232.904C233.104 16.344 233.364 16.044 233.684 15.82C234.004 15.588 234.38 15.472 234.812 15.472C234.9 15.472 234.972 15.48 235.028 15.496C235.092 15.504 235.156 15.52 235.22 15.544V16.6H235.184C235.104 16.576 235.032 16.56 234.968 16.552C234.904 16.544 234.824 16.54 234.728 16.54C234.48 16.54 234.244 16.588 234.02 16.684C233.796 16.772 233.6 16.9 233.432 17.068C233.264 17.236 233.128 17.44 233.024 17.68C232.928 17.92 232.88 18.192 232.88 18.496V22H231.764V15.556H232.868V16.72ZM236.287 13.072H237.451V14.368H236.287V13.072ZM236.311 15.556H237.427V22H236.311V15.556ZM238.719 21.136L241.599 17.38C241.663 17.292 241.739 17.2 241.827 17.104C241.915 17 241.999 16.904 242.079 16.816C242.167 16.712 242.263 16.608 242.367 16.504V16.468C242.215 16.476 242.067 16.484 241.923 16.492C241.795 16.5 241.663 16.504 241.527 16.504C241.391 16.504 241.267 16.504 241.155 16.504H238.935V15.556H243.771V16.252L240.843 20.08C240.771 20.168 240.687 20.268 240.591 20.38C240.503 20.484 240.415 20.584 240.327 20.68C240.231 20.792 240.131 20.904 240.027 21.016V21.052C240.187 21.052 240.343 21.048 240.495 21.04C240.631 21.032 240.771 21.028 240.915 21.028C241.059 21.02 241.191 21.016 241.311 21.016H243.915V22H238.719V21.136ZM247.662 22.18C247.166 22.18 246.722 22.092 246.33 21.916C245.946 21.74 245.618 21.5 245.346 21.196C245.074 20.884 244.866 20.524 244.722 20.116C244.586 19.7 244.518 19.256 244.518 18.784C244.518 18.32 244.59 17.884 244.734 17.476C244.886 17.06 245.094 16.7 245.358 16.396C245.63 16.084 245.954 15.84 246.33 15.664C246.714 15.488 247.138 15.4 247.602 15.4C248.082 15.4 248.506 15.488 248.874 15.664C249.242 15.84 249.554 16.084 249.81 16.396C250.074 16.716 250.27 17.1 250.398 17.548C250.534 17.996 250.602 18.496 250.602 19.048H245.658C245.682 19.36 245.742 19.652 245.838 19.924C245.934 20.196 246.066 20.432 246.234 20.632C246.402 20.832 246.606 20.988 246.846 21.1C247.086 21.212 247.362 21.268 247.674 21.268C248.122 21.268 248.49 21.172 248.778 20.98C249.074 20.78 249.274 20.508 249.378 20.164H250.47C250.326 20.764 250.006 21.252 249.51 21.628C249.022 21.996 248.406 22.18 247.662 22.18ZM247.602 16.264C247.314 16.264 247.058 16.316 246.834 16.42C246.61 16.516 246.418 16.652 246.258 16.828C246.098 17.004 245.97 17.212 245.874 17.452C245.778 17.692 245.714 17.956 245.682 18.244H249.414C249.382 17.62 249.21 17.136 248.898 16.792C248.594 16.44 248.162 16.264 247.602 16.264Z" fill="white"/>
<path d="M304.276 26.3125C303.911 26.3125 303.601 26.1847 303.346 25.9291C303.09 25.6736 302.962 25.3633 302.962 24.9982V18.6023C302.203 18.3979 301.538 18.0109 300.969 17.4414C300.399 16.8719 300.115 16.1783 300.115 15.3606C300.115 14.5866 300.337 13.9003 300.783 13.3016C301.228 12.7029 301.801 12.2867 302.502 12.0531C302.838 11.3522 303.338 10.7827 304.003 10.3446C304.667 9.90654 305.415 9.6875 306.248 9.6875C306.759 9.6875 307.237 9.77512 307.682 9.95035C308.128 10.1256 308.533 10.3592 308.898 10.6513C309.044 10.6221 309.183 10.5965 309.314 10.5746C309.446 10.5527 309.592 10.5417 309.752 10.5417C310.716 10.5417 311.541 10.8849 312.228 11.5712C312.914 12.2575 313.257 13.0826 313.257 14.0463C313.257 14.3676 313.191 14.6889 313.06 15.0101C312.928 15.3314 312.761 15.5942 312.556 15.7987H314.571C314.936 15.7987 315.247 15.9264 315.502 16.182C315.758 16.4375 315.885 16.7478 315.885 17.1129V23.2459C315.885 23.611 315.758 23.9213 315.502 24.1768C315.247 24.4324 314.936 24.5602 314.571 24.5602H312.162V24.9982C312.162 25.3633 312.034 25.6736 311.779 25.9291C311.523 26.1847 311.213 26.3125 310.848 26.3125H304.276ZM301.429 15.3606C301.429 15.9155 301.655 16.3828 302.108 16.7624C302.561 17.1421 303.064 17.3319 303.619 17.3319C304.087 17.3319 304.51 17.2041 304.89 16.9486C305.269 16.6931 305.656 16.3243 306.051 15.8425C306.387 15.4336 306.788 15.0685 307.255 14.7473C307.723 14.426 308.263 14.2654 308.876 14.2654H311.943C311.943 13.6083 311.749 13.0424 311.362 12.5678C310.975 12.0933 310.439 11.856 309.752 11.856C309.49 11.856 309.23 11.8961 308.975 11.9764L308.592 12.0969L308.175 11.7465C307.912 11.5128 307.613 11.3303 307.277 11.1989C306.941 11.0674 306.598 11.0017 306.248 11.0017C305.737 11.0017 305.248 11.1331 304.78 11.396C304.313 11.6588 303.97 12.0239 303.751 12.4912L303.444 13.1483L302.743 13.3892C302.364 13.5207 302.05 13.7799 301.801 14.1668C301.553 14.5538 301.429 14.9517 301.429 15.3606ZM312.162 23.2459H314.571V17.1129H312.162V23.2459Z" fill="white"/>
<rect x="103.5" y="0.5" width="230" height="35" stroke="white"/>
<path d="M119.39 76.64C119.39 80.09 120.2 81.38 123.2 84.02C126.65 86.45 126.92 87.23 126.92 89.51C126.92 90.83 126.41 91.49 125.3 91.49C124.19 91.49 123.56 90.95 123.47 90.05C123.41 89.42 123.41 88.52 123.41 88.16H119.33C119.33 88.67 119.33 90.2 119.36 90.56C119.51 93.11 121.16 94.61 124.16 94.88V96.47H126.41V94.85C129.47 94.46 131.12 92.45 131.12 89.21C131.12 85.43 130.22 84.02 127.16 81.62C124.19 79.31 123.5 78.38 123.5 76.67C123.5 75.5 124.04 74.81 125.21 74.81C126.38 74.81 126.77 75.53 126.86 76.4C126.92 76.91 126.95 77.72 126.95 78.35H131C131 77.78 131 76.7 130.91 76.01C130.64 73.55 129.47 71.63 126.41 71.24V70.58H124.16V71.21C120.95 71.57 119.39 73.73 119.39 76.64ZM142.73 71.06H132.05V75.02H138.32L133.25 95H137.81L142.73 74.57V71.06ZM154.98 82.52C154.8 80.18 153.21 78.74 150.9 78.74C149.19 78.74 148.29 79.19 147.81 80.15V75.02H154.38V71.06H143.94V84.5H147.99C147.99 83.24 148.41 82.7 149.31 82.7C150.12 82.7 150.45 83.09 150.48 84.11C150.54 85.37 150.54 89.27 150.51 90.14C150.45 91.16 150.15 91.7 149.22 91.7C148.29 91.7 147.99 91.13 147.93 90.11C147.87 89.27 147.87 88.16 147.87 87.92H143.67C143.7 89.03 143.67 89.84 143.73 90.71C143.88 93.5 145.41 95.24 149.22 95.24C153.21 95.24 154.83 93.08 154.98 90.8C155.1 88.88 155.1 84.08 154.98 82.52ZM170.205 82.49C169.755 82.07 168.615 81.05 168.015 80.51C166.665 79.28 165.645 78.11 165.645 76.46C165.645 75.2 166.215 74.66 167.385 74.66C168.525 74.66 168.945 75.26 169.065 76.22C169.155 77 169.185 77.57 169.185 78.17H173.385C173.385 77.48 173.265 76.22 173.205 75.71C172.845 72.98 171.225 70.82 167.415 70.82C163.635 70.82 161.355 73.07 161.355 76.55C161.355 79.79 162.495 81.32 164.655 83.21C165.285 83.75 166.515 84.86 166.815 85.13C168.585 86.72 169.185 87.77 169.185 89.78C169.185 90.98 168.555 91.64 167.385 91.64C166.305 91.64 165.765 91.1 165.645 90.32C165.615 90.14 165.585 89.3 165.585 88.19H161.415C161.415 89.63 161.385 89.93 161.475 91.04C161.685 93.71 163.725 95.27 167.505 95.27C171.105 95.27 173.505 93.11 173.505 89.39C173.505 86.18 172.365 84.53 170.205 82.49ZM185.644 82.31C185.644 79.43 184.234 78.29 182.194 78.29C180.544 78.29 179.614 78.92 179.164 80.03V71.03H175.204V95H179.164V83.51C179.164 82.37 179.734 81.8 180.514 81.8C181.384 81.8 181.654 82.28 181.654 83.03C181.654 94.55 181.654 95 181.684 95H185.704C185.674 95 185.644 94.55 185.644 82.31ZM197.748 81.65C197.208 79.76 195.768 78.29 192.798 78.29C189.828 78.29 188.358 79.91 187.878 81.56C187.458 82.97 187.248 84.95 187.248 86.72C187.248 88.55 187.488 90.77 187.758 91.76C188.328 93.83 190.038 95.21 192.738 95.21C195.588 95.21 197.118 93.86 197.718 91.76C198.078 90.56 198.258 88.52 198.258 86.72C198.258 84.95 198.108 82.88 197.748 81.65ZM194.178 90.77C194.088 91.4 193.518 91.94 192.768 91.94C192.048 91.94 191.508 91.55 191.388 90.8C191.238 90.02 191.208 88.07 191.208 86.78C191.208 85.55 191.238 83.54 191.388 82.85C191.568 82.1 191.988 81.68 192.768 81.68C193.578 81.68 193.998 82.01 194.178 82.79C194.298 83.42 194.358 85.52 194.358 86.78C194.358 88.04 194.388 89.33 194.178 90.77ZM210.3 80.6C209.73 78.98 208.65 78.29 206.94 78.29C205.41 78.29 204.3 78.86 203.85 79.76L203.82 78.5H200.01V99.89H203.94V94.07C204.48 94.61 205.38 95.03 206.79 95.03C208.65 95.03 209.85 94.13 210.45 92.27C210.81 91.13 211.02 88.85 211.02 86.48C211.02 83.99 210.78 81.89 210.3 80.6ZM206.73 90.65C206.61 91.25 206.19 91.82 205.41 91.82C204.72 91.82 204.27 91.46 204.15 90.68C203.97 89.57 203.91 88.49 203.91 86.6C203.91 84.89 204.03 83.66 204.24 82.79C204.39 82.19 204.72 81.71 205.44 81.71C206.16 81.71 206.52 82.07 206.67 82.61C206.91 83.51 206.97 84.86 206.97 86.6C206.97 88.55 206.91 89.63 206.73 90.65ZM225.666 88.46C225.666 86.96 225.486 85.22 224.946 84.26C224.406 83.27 223.656 82.79 222.486 82.64C223.476 82.46 224.136 82.04 224.586 81.11C225.156 79.91 225.246 78.38 225.246 76.79C225.246 75.29 225.066 73.85 224.496 72.86C223.776 71.6 222.426 71.06 220.416 71.06H212.856V95H219.966C222.186 95 223.596 94.7 224.616 93.32C225.426 92.21 225.666 90.29 225.666 88.46ZM220.386 80.51C220.116 81.08 219.786 81.32 219.456 81.32H217.146V74.63H219.156C219.786 74.63 220.146 74.99 220.356 75.5C220.536 75.95 220.716 76.91 220.716 77.87C220.716 79.04 220.566 80.12 220.386 80.51ZM219.276 91.43H217.146V84.68H219.366C219.936 84.68 220.386 85.04 220.656 85.52C220.866 85.91 220.986 87.2 220.986 87.98C220.986 88.73 220.896 90.14 220.686 90.59C220.416 91.19 219.846 91.43 219.276 91.43ZM234.084 89.63C234.084 90.05 234.024 90.56 233.904 91.07C233.754 91.73 233.124 92 232.524 92C231.924 92 231.234 91.64 231.144 90.83C231.054 90.08 231.024 88.88 231.024 88.13H237.834C237.984 85.31 237.774 82.43 237.204 81.02C236.514 79.34 234.924 78.29 232.614 78.29C229.764 78.29 228.504 79.58 227.904 81.05C227.454 82.13 227.124 84.35 227.124 86.84C227.124 89.39 227.334 91.28 228.024 92.87C228.744 94.55 230.454 95.21 232.674 95.21C234.894 95.21 236.244 94.31 236.964 93.02C237.594 91.91 237.744 90.11 237.744 89.63H234.084ZM230.964 85.19C230.964 84.05 230.994 82.97 231.204 82.46C231.414 81.89 231.894 81.59 232.554 81.59C233.244 81.59 233.694 81.92 233.844 82.49C233.964 82.88 234.054 83.69 234.054 85.19H230.964ZM246.106 89.63C246.106 90.05 246.046 90.56 245.926 91.07C245.776 91.73 245.146 92 244.546 92C243.946 92 243.256 91.64 243.166 90.83C243.076 90.08 243.046 88.88 243.046 88.13H249.856C250.006 85.31 249.796 82.43 249.226 81.02C248.536 79.34 246.946 78.29 244.636 78.29C241.786 78.29 240.526 79.58 239.926 81.05C239.476 82.13 239.146 84.35 239.146 86.84C239.146 89.39 239.356 91.28 240.046 92.87C240.766 94.55 242.476 95.21 244.696 95.21C246.916 95.21 248.266 94.31 248.986 93.02C249.616 91.91 249.766 90.11 249.766 89.63H246.106ZM242.986 85.19C242.986 84.05 243.016 82.97 243.226 82.46C243.436 81.89 243.916 81.59 244.576 81.59C245.266 81.59 245.716 81.92 245.866 82.49C245.986 82.88 246.076 83.69 246.076 85.19H242.986ZM258.368 78.29C256.988 78.29 255.608 79.19 255.428 80.45V78.5H251.468V95H255.488V85.22C255.488 82.52 256.328 81.92 257.708 81.92C258.518 81.92 259.328 82.07 259.808 82.22V78.44C259.478 78.32 258.998 78.29 258.368 78.29ZM273.421 89.42V81.47H266.851V85.25H269.281C269.281 85.25 269.311 89.15 269.281 89.66C269.221 90.89 268.501 91.52 267.391 91.52C266.401 91.52 265.891 91.01 265.681 89.93C265.321 88.04 265.321 84.92 265.321 83.09C265.321 81.14 265.351 78.26 265.651 76.19C265.801 75.17 266.461 74.72 267.301 74.72C268.231 74.72 268.801 75.23 268.891 76.19C269.011 77.42 269.011 79.07 269.011 79.25H273.301C273.301 77.12 273.211 75.92 273.031 74.84C272.671 72.68 271.081 70.85 267.211 70.85C263.431 70.85 261.841 72.98 261.331 74.9C260.791 76.97 260.731 80.6 260.731 83.09C260.731 85.67 260.821 89.03 261.331 91.19C261.961 93.83 263.851 95.21 266.371 95.21C268.201 95.21 269.431 94.7 270.031 93.92L270.241 95H273.481C273.481 94.97 273.421 92.18 273.421 89.42ZM281.851 89.63C281.851 90.05 281.791 90.56 281.671 91.07C281.521 91.73 280.891 92 280.291 92C279.691 92 279.001 91.64 278.911 90.83C278.821 90.08 278.791 88.88 278.791 88.13H285.601C285.751 85.31 285.541 82.43 284.971 81.02C284.281 79.34 282.691 78.29 280.381 78.29C277.531 78.29 276.271 79.58 275.671 81.05C275.221 82.13 274.891 84.35 274.891 86.84C274.891 89.39 275.101 91.28 275.791 92.87C276.511 94.55 278.221 95.21 280.441 95.21C282.661 95.21 284.011 94.31 284.731 93.02C285.361 91.91 285.511 90.11 285.511 89.63H281.851ZM278.731 85.19C278.731 84.05 278.761 82.97 278.971 82.46C279.181 81.89 279.661 81.59 280.321 81.59C281.011 81.59 281.461 81.92 281.611 82.49C281.731 82.88 281.821 83.69 281.821 85.19H278.731ZM297.503 92.06C297.503 90.83 297.533 88.82 297.533 87.53C297.563 86 297.593 83.51 297.533 82.07C297.443 79.76 296.003 78.29 292.553 78.29C288.893 78.29 287.393 79.94 287.393 83.03V84.26H291.113V83.33C291.113 82.19 291.473 81.62 292.493 81.62C293.243 81.62 293.633 82.04 293.663 82.76C293.693 83.27 293.693 84.29 293.693 84.74C293.033 84.74 292.343 84.83 291.593 84.95C288.833 85.46 286.973 86.96 286.823 89.36C286.763 90.23 286.793 91.64 286.823 92C286.943 94.4 288.773 95.12 290.423 95.12C291.893 95.12 293.003 94.73 293.753 93.8C293.753 94.22 293.843 95 293.903 95H297.713C297.563 94.79 297.503 93.26 297.503 92.06ZM293.693 88.7C293.633 89.54 293.693 89.96 293.543 90.83C293.393 91.67 292.673 92 292.043 92C291.443 92 290.963 91.79 290.873 91.22C290.813 90.74 290.813 90.17 290.813 89.72C290.813 89.03 290.843 88.55 291.353 88.1C291.803 87.71 292.313 87.62 292.733 87.53C293.093 87.47 293.393 87.47 293.693 87.47C293.693 87.71 293.723 88.37 293.693 88.7ZM306.369 78.29C304.989 78.29 303.609 79.19 303.429 80.45V78.5H299.469V95H303.489V85.22C303.489 82.52 304.329 81.92 305.709 81.92C306.519 81.92 307.329 82.07 307.809 82.22V78.44C307.479 78.32 306.999 78.29 306.369 78.29ZM132.23 125.42V117.47H125.66V121.25H128.09C128.09 121.25 128.12 125.15 128.09 125.66C128.03 126.89 127.31 127.52 126.2 127.52C125.21 127.52 124.7 127.01 124.49 125.93C124.13 124.04 124.13 120.92 124.13 119.09C124.13 117.14 124.16 114.26 124.46 112.19C124.61 111.17 125.27 110.72 126.11 110.72C127.04 110.72 127.61 111.23 127.7 112.19C127.82 113.42 127.82 115.07 127.82 115.25H132.11C132.11 113.12 132.02 111.92 131.84 110.84C131.48 108.68 129.89 106.85 126.02 106.85C122.24 106.85 120.65 108.98 120.14 110.9C119.6 112.97 119.54 116.6 119.54 119.09C119.54 121.67 119.63 125.03 120.14 127.19C120.77 129.83 122.66 131.21 125.18 131.21C127.01 131.21 128.24 130.7 128.84 129.92L129.05 131H132.29C132.29 130.97 132.23 128.18 132.23 125.42ZM138.229 109.58H133.999V113.63H138.229V109.58ZM138.169 129.8V114.5H134.059V129.86C134.059 130.52 134.059 131 134.209 131H138.259C138.229 130.97 138.169 130.43 138.169 129.8ZM147.241 114.5H145.081V111.44C145.081 110.84 145.441 110.18 146.251 110.18C146.581 110.18 147.061 110.21 147.451 110.27V107C147.001 106.94 146.131 106.91 145.081 106.91C142.111 106.91 141.061 108.68 141.061 110.93V114.5H139.591V118.01H141.061V131H145.081V118.01H147.241V114.5ZM155.691 114.5H153.381V111.32L149.481 111.41C149.481 111.41 149.361 114.41 149.331 114.5H147.861V118.01H149.271V127.4C149.271 129.98 150.711 131.12 153.171 131.12C154.221 131.12 154.881 131.06 155.511 130.91V127.7C155.211 127.76 154.821 127.79 154.491 127.79C153.861 127.79 153.351 127.61 153.351 126.68V118.01H155.691V114.5ZM170.565 122.36C170.565 122.9 170.535 124.43 170.385 125.66C170.235 126.86 169.515 127.25 168.675 127.25C167.865 127.25 167.145 126.83 166.935 125.75C166.665 124.25 166.605 121.49 166.605 118.88C166.605 115.52 166.665 113.42 166.935 112.31C167.145 111.47 167.685 110.99 168.675 110.99C169.545 110.99 170.115 111.5 170.235 112.25C170.445 113.45 170.535 114.74 170.535 115.85H174.795C174.795 114.38 174.705 113 174.555 111.86C174.135 108.68 172.455 106.88 168.765 106.88C165.225 106.88 163.305 108.35 162.705 111.2C162.165 113.75 162.015 115.7 162.015 118.91C162.015 122.06 162.255 125.66 162.855 127.58C163.515 129.8 165.165 131.27 168.525 131.27C172.215 131.27 174.015 129.65 174.555 126.74C174.825 125.21 174.825 123.17 174.825 122.36H170.565ZM186.823 128.06C186.823 126.83 186.853 124.82 186.853 123.53C186.883 122 186.913 119.51 186.853 118.07C186.763 115.76 185.323 114.29 181.873 114.29C178.213 114.29 176.713 115.94 176.713 119.03V120.26H180.433V119.33C180.433 118.19 180.793 117.62 181.813 117.62C182.563 117.62 182.953 118.04 182.983 118.76C183.013 119.27 183.013 120.29 183.013 120.74C182.353 120.74 181.663 120.83 180.913 120.95C178.153 121.46 176.293 122.96 176.143 125.36C176.083 126.23 176.113 127.64 176.143 128C176.263 130.4 178.093 131.12 179.743 131.12C181.213 131.12 182.323 130.73 183.073 129.8C183.073 130.22 183.163 131 183.223 131H187.033C186.883 130.79 186.823 129.26 186.823 128.06ZM183.013 124.7C182.953 125.54 183.013 125.96 182.863 126.83C182.713 127.67 181.993 128 181.363 128C180.763 128 180.283 127.79 180.193 127.22C180.133 126.74 180.133 126.17 180.133 125.72C180.133 125.03 180.163 124.55 180.673 124.1C181.123 123.71 181.633 123.62 182.053 123.53C182.413 123.47 182.713 123.47 183.013 123.47C183.013 123.71 183.043 124.37 183.013 124.7ZM195.689 114.29C194.309 114.29 192.929 115.19 192.749 116.45V114.5H188.789V131H192.809V121.22C192.809 118.52 193.649 117.92 195.029 117.92C195.839 117.92 196.649 118.07 197.129 118.22V114.44C196.799 114.32 196.319 114.29 195.689 114.29ZM198.505 116.93C198.025 118.73 197.875 120.38 197.875 122.81C197.875 125.45 198.175 127.64 198.715 128.96C199.315 130.46 200.425 131.12 202.075 131.12C203.545 131.12 204.535 130.64 205.075 129.8L205.555 131H208.915C208.915 131 208.795 129.62 208.795 128.69V107.03H204.865V115.7C204.415 114.83 203.335 114.35 202.075 114.35C200.305 114.35 198.925 115.31 198.505 116.93ZM204.595 118.67C204.775 119.57 204.895 120.47 204.895 122.84C204.895 124.28 204.835 125.78 204.625 126.83C204.505 127.46 204.115 127.94 203.335 127.94C202.525 127.94 202.105 127.55 202.015 126.92C201.865 125.69 201.805 124.22 201.805 122.84C201.805 121.43 201.865 120.02 202.075 118.82C202.195 118.22 202.615 117.77 203.365 117.77C204.115 117.77 204.475 118.1 204.595 118.67Z" fill="white"/>
<rect x="103.5" y="0.5" width="230" height="167" stroke="white"/>
</g>
<rect x="0.5" y="0.5" width="333" height="167" rx="7.5" stroke="white"/>
<defs>
<clipPath id="clip0_4719_146419">
<rect width="334" height="168" rx="8" fill="white"/>
</clipPath>
</defs>
</svg>
