<svg width="100%" height="auto" viewBox="0 0 334 180" fill="none" xmlns="http://www.w3.org/2000/svg">
<g clip-path="url(#clip0_4719_146413)">
<path d="M63.792 74.76C63.792 70.024 63.536 60.36 62.256 56.456C60.656 51.656 57.072 49.416 51.44 49.416C45.232 49.416 41.328 52.424 40.048 56.84C38.96 60.68 38.896 73.096 39.92 76.68C40.944 80.392 44.016 82.184 48.176 82.184C50.928 82.184 53.232 81.416 54.704 79.752C54.704 80.84 54.64 87.816 54.576 90.12C54.448 92.488 53.232 93.704 51.376 93.704C49.456 93.704 48.432 93 48.24 90.504C48.176 89.928 48.176 88.328 48.176 86.984H39.664C39.664 88.072 39.728 91.144 39.984 92.936C40.816 98.44 44.656 101.512 51.12 101.512C58.48 101.512 62.064 97.608 63.024 91.592C63.536 88.392 63.792 79.496 63.792 74.76ZM51.44 74.888C49.584 74.888 48.432 73.736 48.24 72.008C48.048 70.408 48.112 61.96 48.24 60.36C48.432 58.504 49.648 57.416 51.312 57.416C53.232 57.416 54.32 58.504 54.512 60.616C54.64 62.024 54.832 71.304 54.704 72.584C54.384 73.544 53.424 74.888 51.44 74.888Z" fill="white"/>
<path d="M42.6396 117.912C42.6396 117.912 40.7496 126.13 40.7496 126.466C40.7496 126.13 39.0136 117.912 39.0136 117.912H36.9696C36.9696 117.912 35.2476 126.13 35.2476 126.466C35.2476 126.13 33.3576 117.912 33.3576 117.912H31.4116L34.0716 129H36.1576C36.1576 129 37.9636 120.796 37.9636 120.432C37.9776 120.796 39.7136 129 39.7136 129H41.8136L44.4456 117.912H42.6396ZM48.9349 117.912H47.0449V129H48.9349V117.912ZM60.0734 117.912H58.3234V125.472L54.5434 117.912H52.4574V129H54.2074V121.244L58.0994 129H60.0734V117.912ZM68.4293 122.826C68.1213 122.714 67.4633 122.462 67.0713 122.336C65.7133 121.888 65.0413 121.454 65.0413 120.586C65.0413 119.844 65.5453 119.396 66.9593 119.396C68.1633 119.396 68.7233 119.732 68.9613 120.418C69.0453 120.67 69.0873 120.88 69.0873 121.118H70.9633C70.9633 120.698 70.8933 120.362 70.7953 120.026C70.4033 118.654 69.2833 117.786 67.0013 117.786C64.3833 117.786 63.1513 118.934 63.1513 120.642C63.1513 122.28 64.2293 123.26 65.8953 123.806C66.3573 123.96 67.0153 124.212 67.2953 124.31C68.7793 124.828 69.2273 125.276 69.2273 126.214C69.2273 127.054 68.6253 127.558 67.2113 127.558C66.0073 127.558 65.3073 127.25 65.0973 126.592C65.0133 126.326 64.9713 125.948 64.9713 125.752H63.1093C63.1093 126.074 63.1373 126.592 63.2353 126.97C63.5713 128.272 64.6913 129.14 67.2533 129.14C69.8433 129.14 71.1173 127.908 71.1173 126.06C71.1173 124.338 70.1653 123.428 68.4293 122.826Z" fill="white"/>
<path d="M122.804 22.192C124.436 22.192 126.032 21.46 126.032 19.552C126.032 18.4 125.288 17.608 124.196 17.332V17.296C125.108 17.008 125.624 16.36 125.624 15.484C125.624 14.116 124.388 13.24 122.768 13.24C121.16 13.24 119.924 14.128 119.924 15.496C119.924 16.372 120.44 17.02 121.364 17.296V17.332C120.272 17.632 119.492 18.34 119.492 19.552C119.492 21.448 121.172 22.192 122.804 22.192ZM122.768 16.9C121.7 16.9 121.04 16.384 121.04 15.532C121.04 14.68 121.7 14.176 122.768 14.176C123.836 14.176 124.496 14.68 124.496 15.532C124.496 16.384 123.836 16.9 122.768 16.9ZM122.804 21.244C121.472 21.244 120.68 20.62 120.68 19.54C120.68 18.46 121.46 17.776 122.768 17.776C124.088 17.776 124.88 18.46 124.88 19.54C124.88 20.608 124.088 21.244 122.804 21.244ZM133.215 24.256C134.079 24.256 134.799 24.064 135.303 23.644C135.795 23.224 136.083 22.588 136.083 21.736V15.556H134.979V16.408H134.955C134.547 15.76 133.923 15.4 132.999 15.4C131.487 15.4 130.239 16.576 130.239 18.556C130.239 20.428 131.415 21.712 133.059 21.712C133.971 21.712 134.535 21.316 134.979 20.68H135.003C134.991 20.884 134.979 21.232 134.979 21.604V21.784C134.979 22.876 134.343 23.392 133.191 23.392C132.231 23.392 131.583 23.116 131.487 22.444H130.443C130.563 23.584 131.523 24.256 133.215 24.256ZM133.167 20.8C132.003 20.8 131.379 19.936 131.379 18.568C131.379 17.212 131.979 16.324 133.155 16.324C134.439 16.324 135.051 17.152 135.051 18.508C135.051 19.816 134.571 20.8 133.167 20.8ZM139.547 22.132C140.639 22.132 141.299 21.616 141.707 21.052H141.719C141.839 21.736 142.175 22.06 142.859 22.06C143.123 22.06 143.303 22.012 143.459 21.964V21.184H143.411C142.847 21.304 142.727 21.028 142.727 20.512V17.5C142.727 16.636 142.403 16.072 141.863 15.748C141.455 15.508 140.915 15.4 140.303 15.4C138.563 15.4 137.735 16.372 137.687 17.464H138.767C138.803 16.696 139.295 16.216 140.315 16.216C141.203 16.216 141.695 16.648 141.695 17.344C141.695 18.004 141.083 18.16 140.135 18.268C138.467 18.472 137.363 18.796 137.363 20.296C137.363 21.532 138.323 22.132 139.547 22.132ZM139.823 21.316C139.175 21.316 138.539 21.112 138.539 20.284C138.539 19.396 139.235 19.204 140.291 19.024C140.819 18.928 141.383 18.772 141.707 18.568V19.624C141.707 20.368 141.107 21.316 139.823 21.316ZM144.366 22H145.482V18.028C145.482 17.044 146.31 16.336 147.078 16.336C147.738 16.336 148.182 16.804 148.182 17.596V22H149.286V18.028C149.286 17.044 149.994 16.336 150.81 16.336C151.458 16.336 151.974 16.804 151.974 17.596V22H153.09V17.5C153.09 16.156 152.274 15.4 151.098 15.4C150.318 15.4 149.562 15.796 149.106 16.6H149.082C148.818 15.808 148.194 15.4 147.414 15.4C146.586 15.4 145.902 15.82 145.506 16.516H145.47V15.556H144.366V22ZM157.38 22.18C158.868 22.18 159.9 21.364 160.188 20.164H159.096C158.892 20.848 158.28 21.268 157.392 21.268C156.144 21.268 155.46 20.308 155.376 19.048H160.32C160.32 17.956 160.056 17.032 159.528 16.396C159.024 15.772 158.28 15.4 157.32 15.4C155.472 15.4 154.236 16.912 154.236 18.784C154.236 20.668 155.4 22.18 157.38 22.18ZM157.32 16.264C158.436 16.264 159.072 17.008 159.132 18.244H155.4C155.544 17.104 156.156 16.264 157.32 16.264ZM166.09 22H167.218L168.19 18.448C168.346 17.836 168.586 16.648 168.586 16.648H168.61C168.61 16.648 168.862 17.824 169.018 18.448L169.966 22H171.082L173.182 15.556H172.03L170.962 19.132C170.722 19.924 170.542 21.028 170.542 21.028H170.518C170.518 21.028 170.29 19.84 170.11 19.156L169.15 15.556H168.094L167.122 19.156C166.906 19.936 166.69 21.016 166.69 21.016H166.666C166.666 21.016 166.45 19.864 166.246 19.132L165.238 15.556H164.05L166.09 22ZM174.049 14.368H175.213V13.072H174.049V14.368ZM174.073 22H175.189V15.556H174.073V22ZM177.825 15.556H176.721V22H177.837V18.076C177.837 17.044 178.557 16.336 179.553 16.336C180.429 16.336 180.969 16.804 180.969 17.632V22H182.073V17.5C182.073 16.156 181.245 15.4 179.901 15.4C178.965 15.4 178.329 15.82 177.861 16.468H177.825V15.556ZM189.236 22.192C190.748 22.192 191.828 21.52 191.828 20.212C191.828 18.712 190.724 18.424 189.44 18.172C188.348 17.956 187.724 17.824 187.724 17.152C187.724 16.66 188.096 16.252 188.972 16.252C189.896 16.252 190.352 16.624 190.448 17.284H191.564C191.42 16.168 190.616 15.412 188.996 15.412C187.496 15.412 186.632 16.108 186.632 17.212C186.632 18.628 187.772 18.892 189.032 19.156C190.172 19.384 190.712 19.564 190.712 20.272C190.712 20.848 190.28 21.292 189.26 21.292C188.336 21.292 187.616 20.98 187.484 20.044H186.356C186.452 21.352 187.46 22.192 189.236 22.192ZM192.52 16.42H193.528V20.74C193.528 21.688 194.128 22.036 194.992 22.048C195.28 22.048 195.592 22.012 195.892 21.94V21.004H195.856C195.736 21.04 195.484 21.088 195.292 21.088C194.884 21.088 194.632 20.956 194.632 20.488V16.42H195.964V15.556H194.632V13.528H193.528V15.556H192.52V16.42ZM198.227 15.556H197.123V22H198.239V18.496C198.239 17.284 199.091 16.54 200.087 16.54C200.279 16.54 200.387 16.552 200.543 16.6H200.579V15.544C200.459 15.496 200.351 15.472 200.171 15.472C199.319 15.472 198.659 15.976 198.263 16.72H198.227V15.556ZM204.232 22.18C205.72 22.18 206.752 21.364 207.04 20.164H205.948C205.744 20.848 205.132 21.268 204.244 21.268C202.996 21.268 202.312 20.308 202.228 19.048H207.172C207.172 17.956 206.908 17.032 206.38 16.396C205.876 15.772 205.132 15.4 204.172 15.4C202.324 15.4 201.088 16.912 201.088 18.784C201.088 20.668 202.252 22.18 204.232 22.18ZM204.172 16.264C205.288 16.264 205.924 17.008 205.984 18.244H202.252C202.396 17.104 203.008 16.264 204.172 16.264ZM210.282 22.132C211.374 22.132 212.034 21.616 212.442 21.052H212.454C212.574 21.736 212.91 22.06 213.594 22.06C213.858 22.06 214.038 22.012 214.194 21.964V21.184H214.146C213.582 21.304 213.462 21.028 213.462 20.512V17.5C213.462 16.636 213.138 16.072 212.598 15.748C212.19 15.508 211.65 15.4 211.038 15.4C209.298 15.4 208.47 16.372 208.422 17.464H209.502C209.538 16.696 210.03 16.216 211.05 16.216C211.938 16.216 212.43 16.648 212.43 17.344C212.43 18.004 211.818 18.16 210.87 18.268C209.202 18.472 208.098 18.796 208.098 20.296C208.098 21.532 209.058 22.132 210.282 22.132ZM210.558 21.316C209.91 21.316 209.274 21.112 209.274 20.284C209.274 19.396 209.97 19.204 211.026 19.024C211.554 18.928 212.118 18.772 212.442 18.568V19.624C212.442 20.368 211.842 21.316 210.558 21.316ZM219.336 22H220.644L217.896 17.872L220.356 15.556H218.964L216.168 18.304C216.192 17.992 216.216 17.536 216.216 17.308V13.072H215.1V22H216.216V19.468L217.128 18.604L219.336 22ZM224.791 24.184H225.907V22.228C225.907 21.736 225.895 21.376 225.883 21.148H225.919C226.363 21.832 227.071 22.192 227.947 22.192C229.687 22.192 230.755 20.86 230.755 18.796C230.755 16.672 229.627 15.4 227.983 15.4C227.059 15.4 226.411 15.832 225.931 16.564H225.895V15.556H224.791V24.184ZM227.827 21.268C226.399 21.268 225.847 20.176 225.847 18.82C225.847 17.452 226.471 16.348 227.839 16.348C229.027 16.348 229.615 17.404 229.615 18.82C229.615 20.224 229.015 21.268 227.827 21.268ZM233.044 15.556H231.94V22H233.056V18.496C233.056 17.284 233.908 16.54 234.904 16.54C235.096 16.54 235.204 16.552 235.36 16.6H235.396V15.544C235.276 15.496 235.168 15.472 234.988 15.472C234.136 15.472 233.476 15.976 233.08 16.72H233.044V15.556ZM236.463 14.368H237.627V13.072H236.463V14.368ZM236.487 22H237.603V15.556H236.487V22ZM238.895 22H244.091V21.016H241.487C241.019 21.016 240.203 21.052 240.203 21.052V21.016C240.203 21.016 240.743 20.428 241.019 20.08L243.947 16.252V15.556H239.111V16.504H241.331C241.775 16.504 242.543 16.468 242.543 16.468V16.504C242.543 16.504 242.039 17.044 241.775 17.38L238.895 21.136V22ZM247.837 22.18C249.325 22.18 250.357 21.364 250.645 20.164H249.553C249.349 20.848 248.737 21.268 247.849 21.268C246.601 21.268 245.917 20.308 245.833 19.048H250.777C250.777 17.956 250.513 17.032 249.985 16.396C249.481 15.772 248.737 15.4 247.777 15.4C245.929 15.4 244.693 16.912 244.693 18.784C244.693 20.668 245.857 22.18 247.837 22.18ZM247.777 16.264C248.893 16.264 249.529 17.008 249.589 18.244H245.857C246.001 17.104 246.613 16.264 247.777 16.264Z" fill="white"/>
<path fill-rule="evenodd" clip-rule="evenodd" d="M317.705 22.1244C317.779 22.0027 317.816 21.8492 317.816 21.6639V14.3442C317.816 14.159 317.779 14.0081 317.705 13.8917C317.631 13.7699 317.515 13.672 317.356 13.5979C316.911 13.3756 316.549 13.1189 316.268 12.8278C315.983 12.5315 315.705 12.116 315.435 11.5814C315.265 11.2797 315.019 11.1289 314.696 11.1289H301.303C300.981 11.1289 300.737 11.2797 300.573 11.5814C300.298 12.116 300.02 12.5315 299.739 12.8278C299.454 13.1189 299.088 13.3756 298.644 13.5979C298.485 13.672 298.369 13.7699 298.294 13.8917C298.22 14.0081 298.183 14.159 298.183 14.3442V21.6639C298.183 21.8492 298.22 22.0027 298.294 22.1244C298.369 22.2408 298.485 22.3361 298.644 22.4102C299.088 22.6272 299.454 22.8839 299.739 23.1803C300.02 23.4714 300.298 23.8868 300.573 24.4267C300.737 24.7231 300.981 24.8713 301.303 24.8713H314.696C315.019 24.8713 315.265 24.7231 315.435 24.4267C315.705 23.8868 315.983 23.4714 316.268 23.1803C316.549 22.8839 316.911 22.6272 317.356 22.4102C317.515 22.3361 317.631 22.2408 317.705 22.1244ZM311.367 18.2756V18.9541C311.367 19.0711 311.272 19.166 311.155 19.166C311.038 19.166 310.943 19.0712 310.943 18.9541V18.2756H309.824V18.9541C309.824 19.0711 309.729 19.166 309.612 19.166C309.494 19.166 309.399 19.0712 309.399 18.9541V18.2756H308.28V18.9541C308.28 19.0711 308.185 19.166 308.068 19.166C307.951 19.166 307.856 19.0712 307.856 18.9541V18.2756H306.737V18.9541C306.737 19.0711 306.642 19.166 306.525 19.166C306.408 19.166 306.313 19.0712 306.313 18.9541V18.2756H305.194V18.9541C305.194 19.0711 305.099 19.166 304.982 19.166C304.865 19.166 304.77 19.0712 304.77 18.9541V18.2756H303.928L303.928 21.3154C305.161 21.9819 306.569 22.3641 308.068 22.3641C309.568 22.3641 310.976 21.9817 312.208 21.3154V18.2756H311.367ZM315.626 18C315.627 17.1736 314.103 15.9375 313.056 15.206V20.7944C314.103 20.0628 315.625 18.9103 315.626 18ZM304.77 17.1734V17.8518L303.929 17.8517V14.6847C305.161 14.0184 306.569 13.636 308.069 13.636C309.568 13.636 310.976 14.0183 312.209 14.6846V17.8518H311.367V17.1734C311.367 17.0564 311.272 16.9615 311.155 16.9615C311.038 16.9615 310.943 17.0564 310.943 17.1734V17.8518H309.824V17.1734C309.824 17.0564 309.729 16.9615 309.611 16.9615C309.494 16.9615 309.399 17.0564 309.399 17.1734V17.8518H308.28V17.1734C308.28 17.0564 308.185 16.9615 308.068 16.9615C307.951 16.9615 307.856 17.0564 307.856 17.1734V17.8518H306.737V17.1734C306.737 17.0564 306.642 16.9615 306.525 16.9615C306.408 16.9615 306.313 17.0564 306.313 17.1734V17.8518H305.194V17.1734C305.194 17.0564 305.099 16.9615 304.982 16.9615C304.865 16.9615 304.77 17.0564 304.77 17.1734ZM300.374 18C300.373 17.1736 301.897 15.9375 302.944 15.206V20.7944C301.897 20.0628 300.375 18.9103 300.374 18Z" fill="white"/>
<rect x="103.5" y="0.5" width="230" height="35" stroke="white"/>
<path d="M130.85 59.06H119.09V63.17H122.72V83H127.16V63.17H130.85V59.06ZM143.985 66.5L142.665 78.62L140.925 66.5H136.815L135.285 78.62L133.755 66.5H129.675L132.645 83H137.445C137.445 83 138.495 77.15 138.825 75.2C138.855 75.02 138.885 73.49 138.885 73.49C138.885 73.49 138.975 75.02 139.005 75.2C139.335 77.09 140.355 83 140.355 83H145.095L147.975 66.5H143.985ZM159.034 69.65C158.494 67.76 157.054 66.29 154.084 66.29C151.114 66.29 149.644 67.91 149.164 69.56C148.744 70.97 148.534 72.95 148.534 74.72C148.534 76.55 148.774 78.77 149.044 79.76C149.614 81.83 151.324 83.21 154.024 83.21C156.874 83.21 158.404 81.86 159.004 79.76C159.364 78.56 159.544 76.52 159.544 74.72C159.544 72.95 159.394 70.88 159.034 69.65ZM155.464 78.77C155.374 79.4 154.804 79.94 154.054 79.94C153.334 79.94 152.794 79.55 152.674 78.8C152.524 78.02 152.494 76.07 152.494 74.78C152.494 73.55 152.524 71.54 152.674 70.85C152.854 70.1 153.274 69.68 154.054 69.68C154.864 69.68 155.284 70.01 155.464 70.79C155.584 71.42 155.644 73.52 155.644 74.78C155.644 76.04 155.674 77.33 155.464 78.77ZM178.466 59.06H174.386V70.76L170.636 59.06H166.466V83H170.546V71.06L174.326 83H178.466V59.06ZM191.364 59.06H180.774V83H185.154V73.01H190.884V68.99H185.154V63.17H191.364V59.06ZM203.652 78.95H197.322V59.06H192.942V83H203.652V78.95ZM222.519 77.42V69.47H215.949V73.25H218.379C218.379 73.25 218.409 77.15 218.379 77.66C218.319 78.89 217.599 79.52 216.489 79.52C215.499 79.52 214.989 79.01 214.779 77.93C214.419 76.04 214.419 72.92 214.419 71.09C214.419 69.14 214.449 66.26 214.749 64.19C214.899 63.17 215.559 62.72 216.399 62.72C217.329 62.72 217.899 63.23 217.989 64.19C218.109 65.42 218.109 67.07 218.109 67.25H222.399C222.399 65.12 222.309 63.92 222.129 62.84C221.769 60.68 220.179 58.85 216.309 58.85C212.529 58.85 210.939 60.98 210.429 62.9C209.889 64.97 209.829 68.6 209.829 71.09C209.829 73.67 209.919 77.03 210.429 79.19C211.059 81.83 212.949 83.21 215.469 83.21C217.299 83.21 218.529 82.7 219.129 81.92L219.339 83H222.579C222.579 82.97 222.519 80.18 222.519 77.42ZM234.579 80.06C234.579 78.83 234.609 76.82 234.609 75.53C234.639 74 234.669 71.51 234.609 70.07C234.519 67.76 233.079 66.29 229.629 66.29C225.969 66.29 224.469 67.94 224.469 71.03V72.26H228.189V71.33C228.189 70.19 228.549 69.62 229.569 69.62C230.319 69.62 230.709 70.04 230.739 70.76C230.769 71.27 230.769 72.29 230.769 72.74C230.109 72.74 229.419 72.83 228.669 72.95C225.909 73.46 224.049 74.96 223.899 77.36C223.839 78.23 223.869 79.64 223.899 80C224.019 82.4 225.849 83.12 227.499 83.12C228.969 83.12 230.079 82.73 230.829 81.8C230.829 82.22 230.919 83 230.979 83H234.789C234.639 82.79 234.579 81.26 234.579 80.06ZM230.769 76.7C230.709 77.54 230.769 77.96 230.619 78.83C230.469 79.67 229.749 80 229.119 80C228.519 80 228.039 79.79 227.949 79.22C227.889 78.74 227.889 78.17 227.889 77.72C227.889 77.03 227.919 76.55 228.429 76.1C228.879 75.71 229.389 75.62 229.809 75.53C230.169 75.47 230.469 75.47 230.769 75.47C230.769 75.71 230.799 76.37 230.769 76.7ZM252.836 83C252.866 83 252.806 82.52 252.806 69.74C252.806 67.67 251.906 66.26 249.626 66.26C248.096 66.26 246.926 66.92 246.416 68.18C245.996 67.01 245.126 66.26 243.626 66.26C241.886 66.26 240.806 67.04 240.416 68.06V66.5H236.546V83H240.506V71.3C240.506 70.49 240.986 69.74 241.796 69.74C242.486 69.74 242.816 70.19 242.816 70.91V83H246.686V71.18C246.686 70.43 247.136 69.74 247.916 69.74C248.756 69.74 248.966 70.31 248.966 70.97C248.966 82.52 248.966 83 248.996 83H252.836ZM261.439 77.63C261.439 78.05 261.379 78.56 261.259 79.07C261.109 79.73 260.479 80 259.879 80C259.279 80 258.589 79.64 258.499 78.83C258.409 78.08 258.379 76.88 258.379 76.13H265.189C265.339 73.31 265.129 70.43 264.559 69.02C263.869 67.34 262.279 66.29 259.969 66.29C257.119 66.29 255.859 67.58 255.259 69.05C254.809 70.13 254.479 72.35 254.479 74.84C254.479 77.39 254.689 79.28 255.379 80.87C256.099 82.55 257.809 83.21 260.029 83.21C262.249 83.21 263.599 82.31 264.319 81.02C264.949 79.91 265.099 78.11 265.099 77.63H261.439ZM258.319 73.19C258.319 72.05 258.349 70.97 258.559 70.46C258.769 69.89 259.249 69.59 259.909 69.59C260.599 69.59 261.049 69.92 261.199 70.49C261.319 70.88 261.409 71.69 261.409 73.19H258.319ZM130.85 95.06H119.09V99.17H122.72V119H127.16V99.17H130.85V95.06ZM135.768 97.58H131.538V101.63H135.768V97.58ZM135.708 117.8V102.5H131.598V117.86C131.598 118.52 131.598 119 131.748 119H135.798C135.768 118.97 135.708 118.43 135.708 117.8ZM147.75 105.29C147.21 103.58 145.95 102.29 142.86 102.29C140.52 102.29 138.84 103.34 138.24 105.11C137.64 106.91 137.46 108.35 137.46 110.75C137.46 113.24 137.82 115.73 138.3 116.81C138.96 118.31 140.55 119.21 142.92 119.21C145.35 119.21 146.91 118.13 147.45 116.75C148.02 115.31 148.05 114.62 148.05 112.37H144.33C144.33 113.42 144.33 113.75 144.21 114.62C144.12 115.31 143.7 115.85 142.92 115.85C142.14 115.85 141.75 115.49 141.63 114.65C141.45 113.42 141.39 111.74 141.39 110.78C141.39 109.58 141.45 108.08 141.63 106.91C141.75 106.1 142.17 105.68 142.89 105.68C143.73 105.68 144.03 106.22 144.12 106.88C144.21 107.51 144.3 108.26 144.3 109.22H148.05C148.05 107.21 147.96 106.01 147.75 105.29ZM157.615 108.5L160.735 102.5H156.835L153.625 108.83V95.03H149.665V119H153.625V114.05L154.795 112.16L156.865 119H160.885L157.615 108.5ZM168.23 113.63C168.23 114.05 168.17 114.56 168.05 115.07C167.9 115.73 167.27 116 166.67 116C166.07 116 165.38 115.64 165.29 114.83C165.2 114.08 165.17 112.88 165.17 112.13H171.98C172.13 109.31 171.92 106.43 171.35 105.02C170.66 103.34 169.07 102.29 166.76 102.29C163.91 102.29 162.65 103.58 162.05 105.05C161.6 106.13 161.27 108.35 161.27 110.84C161.27 113.39 161.48 115.28 162.17 116.87C162.89 118.55 164.6 119.21 166.82 119.21C169.04 119.21 170.39 118.31 171.11 117.02C171.74 115.91 171.89 114.11 171.89 113.63H168.23ZM165.11 109.19C165.11 108.05 165.14 106.97 165.35 106.46C165.56 105.89 166.04 105.59 166.7 105.59C167.39 105.59 167.84 105.92 167.99 106.49C168.11 106.88 168.2 107.69 168.2 109.19H165.11ZM180.703 102.5H178.393V99.32L174.493 99.41C174.493 99.41 174.373 102.41 174.343 102.5H172.873V106.01H174.283V115.4C174.283 117.98 175.723 119.12 178.183 119.12C179.233 119.12 179.893 119.06 180.522 118.91V115.7C180.223 115.76 179.833 115.79 179.503 115.79C178.873 115.79 178.363 115.61 178.363 114.68V106.01H180.703V102.5ZM189.175 109.67C188.425 109.28 187.675 108.95 186.925 108.59C185.965 108.14 185.635 107.63 185.635 106.82C185.635 106.13 185.935 105.56 186.865 105.56C187.705 105.56 187.975 106.04 188.035 106.55C188.065 106.67 188.095 107.6 188.095 107.78H191.725C191.725 107.45 191.635 105.71 191.545 105.23C191.155 103.4 189.625 102.26 186.715 102.26C183.535 102.26 181.915 104.12 181.915 106.73C181.915 109.19 182.635 110.72 184.795 111.74C185.395 112.01 186.205 112.4 186.715 112.61C187.855 113.06 188.245 113.63 188.245 114.65C188.245 115.58 187.675 116.03 186.925 116.03C186.205 116.03 185.635 115.73 185.575 115.04C185.545 114.53 185.515 114.02 185.515 113.81H181.795C181.795 114.32 181.825 115.37 181.885 115.91C182.155 118.13 183.655 119.24 187.015 119.24C189.985 119.24 192.055 117.65 192.055 114.53C192.055 112.01 191.275 110.72 189.175 109.67ZM208.393 105.47H205.123V101.78H201.583V105.47H198.253V108.98H201.583V112.7H205.093V108.98H208.393V105.47ZM227.192 95.06H223.112V106.76L219.362 95.06H215.192V119H219.272V107.06L223.052 119H227.192V95.06ZM240.089 95.06H229.499V119H233.879V109.01H239.609V104.99H233.879V99.17H240.089V95.06ZM252.378 114.95H246.048V95.06H241.668V119H252.378V114.95ZM127.1 131.06H122.75V149.42C122.75 150.38 122.33 151.22 121.1 151.28C120.41 151.31 119.78 151.28 119.24 151.22V154.97C120.02 155.09 120.41 155.15 121.64 155.15C125.33 155.15 127.1 153.74 127.1 150.05V131.06ZM135.826 149.63C135.826 150.05 135.766 150.56 135.646 151.07C135.496 151.73 134.866 152 134.266 152C133.666 152 132.976 151.64 132.886 150.83C132.796 150.08 132.766 148.88 132.766 148.13H139.576C139.726 145.31 139.516 142.43 138.946 141.02C138.256 139.34 136.666 138.29 134.356 138.29C131.506 138.29 130.246 139.58 129.646 141.05C129.196 142.13 128.866 144.35 128.866 146.84C128.866 149.39 129.076 151.28 129.766 152.87C130.486 154.55 132.196 155.21 134.416 155.21C136.636 155.21 137.986 154.31 138.706 153.02C139.336 151.91 139.486 150.11 139.486 149.63H135.826ZM132.706 145.19C132.706 144.05 132.736 142.97 132.946 142.46C133.156 141.89 133.636 141.59 134.296 141.59C134.986 141.59 135.436 141.92 135.586 142.49C135.706 142.88 135.796 143.69 135.796 145.19H132.706ZM148.088 138.29C146.708 138.29 145.328 139.19 145.148 140.45V138.5H141.188V155H145.208V145.22C145.208 142.52 146.048 141.92 147.428 141.92C148.238 141.92 149.048 142.07 149.528 142.22V138.44C149.198 138.32 148.718 138.29 148.088 138.29ZM157.591 145.67C156.841 145.28 156.091 144.95 155.341 144.59C154.381 144.14 154.051 143.63 154.051 142.82C154.051 142.13 154.351 141.56 155.281 141.56C156.121 141.56 156.391 142.04 156.451 142.55C156.481 142.67 156.511 143.6 156.511 143.78H160.141C160.141 143.45 160.051 141.71 159.961 141.23C159.571 139.4 158.041 138.26 155.131 138.26C151.951 138.26 150.331 140.12 150.331 142.73C150.331 145.19 151.051 146.72 153.211 147.74C153.811 148.01 154.621 148.4 155.131 148.61C156.271 149.06 156.661 149.63 156.661 150.65C156.661 151.58 156.091 152.03 155.341 152.03C154.621 152.03 154.051 151.73 153.991 151.04C153.961 150.53 153.931 150.02 153.931 149.81H150.211C150.211 150.32 150.241 151.37 150.301 151.91C150.571 154.13 152.071 155.24 155.431 155.24C158.401 155.24 160.471 153.65 160.471 150.53C160.471 148.01 159.691 146.72 157.591 145.67ZM168.728 149.63C168.728 150.05 168.668 150.56 168.548 151.07C168.398 151.73 167.768 152 167.168 152C166.568 152 165.878 151.64 165.788 150.83C165.698 150.08 165.668 148.88 165.668 148.13H172.478C172.628 145.31 172.418 142.43 171.848 141.02C171.158 139.34 169.568 138.29 167.258 138.29C164.408 138.29 163.148 139.58 162.548 141.05C162.098 142.13 161.768 144.35 161.768 146.84C161.768 149.39 161.978 151.28 162.668 152.87C163.388 154.55 165.098 155.21 167.318 155.21C169.538 155.21 170.888 154.31 171.608 153.02C172.238 151.91 172.388 150.11 172.388 149.63H168.728ZM165.608 145.19C165.608 144.05 165.638 142.97 165.848 142.46C166.058 141.89 166.538 141.59 167.198 141.59C167.888 141.59 168.338 141.92 168.488 142.49C168.608 142.88 168.698 143.69 168.698 145.19H165.608ZM181.001 138.5C180.971 139.01 179.051 148.76 178.991 149.12C178.961 148.79 177.041 138.92 176.981 138.5H172.901L176.831 154.55L175.481 159.89H179.591L184.991 138.5H181.001Z" fill="white"/>
<rect x="103.5" y="0.5" width="230" height="179" stroke="white"/>
</g>
<rect x="0.5" y="0.5" width="333" height="179" rx="7.5" stroke="white"/>
<defs>
<clipPath id="clip0_4719_146413">
<rect width="334" height="180" rx="8" fill="white"/>
</clipPath>
</defs>
</svg>
