<svg width="100%" height="auto" viewBox="0 0 335 252" fill="none" xmlns="http://www.w3.org/2000/svg">
<g clip-path="url(#clip0_2388_31313)">
<path d="M49.3 70.7582H40.66C39.78 72.6782 37.54 76.3582 29.3 76.9182V86.1182L38.1 85.7182V134.678H49.3V70.7582ZM72.3469 70.7582H63.7069C62.8269 72.6782 60.5869 76.3582 52.3469 76.9182V86.1182L61.1469 85.7182V134.678H72.3469V70.7582Z" fill="white"/>
<path d="M38.1123 157.822V154.462H33.7023V156.044H36.4043C36.4043 156.044 36.4183 157.64 36.3903 157.78C36.2083 158.606 35.4663 159.236 34.2763 159.236C33.2963 159.236 32.6943 158.984 32.3163 158.438C31.8683 157.78 31.7423 156.814 31.7423 155.176C31.7423 153.566 31.9383 152.516 32.3303 151.914C32.7083 151.354 33.3103 151.116 34.1503 151.116C34.9343 151.116 35.4803 151.354 35.8023 151.83C36.0963 152.278 36.2643 152.936 36.2643 153.314H38.0563C38.0563 152.824 37.9163 151.858 37.5803 151.186C37.0763 150.192 36.0263 149.45 34.1083 149.45C32.2603 149.45 31.2243 150.22 30.6363 151.13C30.0203 152.096 29.8383 153.426 29.8383 155.148C29.8383 157.15 30.1463 158.438 30.6783 159.278C31.3223 160.286 32.4143 160.818 33.8843 160.818C35.3963 160.818 36.2083 160.286 36.5863 159.726L36.6703 160.678H38.1263C38.1263 160.636 38.1123 159.152 38.1123 157.822ZM46.8892 157.99L47.6592 160.678H49.5632L46.2872 149.59H43.9352L40.4352 160.678H42.3112L43.1232 157.99H46.8892ZM43.6272 156.394C43.6272 156.394 44.8452 152.376 44.8592 152.306C44.8872 152.194 45.0692 151.312 45.0692 151.312C45.0692 151.312 45.2512 152.194 45.2792 152.306C45.3072 152.39 46.4132 156.394 46.4132 156.394H43.6272ZM62.0557 149.59H59.6617L57.1697 157.836L54.7197 149.59H52.1857V160.678H53.9077V153.076L56.1897 160.678H57.9957L60.3197 153.048V160.678H62.0557V149.59ZM72.4428 158.998H67.3888V155.96H72.1628V154.266H67.3888V151.27H72.3868V149.59H65.5688V160.678H72.4428V158.998ZM27.3392 174.504C27.0312 174.392 26.3732 174.14 25.9812 174.014C24.6232 173.566 23.9512 173.132 23.9512 172.264C23.9512 171.522 24.4552 171.074 25.8692 171.074C27.0732 171.074 27.6332 171.41 27.8712 172.096C27.9552 172.348 27.9972 172.558 27.9972 172.796H29.8732C29.8732 172.376 29.8032 172.04 29.7052 171.704C29.3132 170.332 28.1932 169.464 25.9112 169.464C23.2932 169.464 22.0612 170.612 22.0612 172.32C22.0612 173.958 23.1392 174.938 24.8052 175.484C25.2672 175.638 25.9252 175.89 26.2052 175.988C27.6892 176.506 28.1372 176.954 28.1372 177.892C28.1372 178.732 27.5352 179.236 26.1212 179.236C24.9172 179.236 24.2172 178.928 24.0072 178.27C23.9232 178.004 23.8812 177.626 23.8812 177.43H22.0192C22.0192 177.752 22.0472 178.27 22.1452 178.648C22.4812 179.95 23.6012 180.818 26.1632 180.818C28.7532 180.818 30.0272 179.586 30.0272 177.738C30.0272 176.016 29.0752 175.106 27.3392 174.504ZM39.9652 169.59H32.1112V171.256H35.0932V180.678H36.9692V171.256H39.9652V169.59ZM49.8119 170.822C49.4199 170.038 48.6779 169.59 47.4599 169.59H42.6299V180.678H44.4499V176.058H46.8579L48.7899 180.678H50.8199L48.6359 175.652C49.1259 175.554 49.5739 175.204 49.8539 174.672C50.0639 174.252 50.1759 173.636 50.1759 172.796C50.1759 171.9 50.0919 171.354 49.8119 170.822ZM48.1879 173.986C48.0479 174.294 47.6979 174.462 47.2079 174.476H44.4639V171.242H47.0679C47.6979 171.242 48.0899 171.466 48.2439 171.886C48.3139 172.068 48.3419 172.558 48.3419 172.964C48.3419 173.3 48.2859 173.748 48.1879 173.986ZM60.5081 178.998H55.4541V175.96H60.2281V174.266H55.4541V171.27H60.4521V169.59H53.6341V180.678H60.5081V178.998ZM69.1703 177.99L69.9403 180.678H71.8443L68.5683 169.59H66.2163L62.7163 180.678H64.5923L65.4043 177.99H69.1703ZM65.9083 176.394C65.9083 176.394 67.1263 172.376 67.1403 172.306C67.1683 172.194 67.3503 171.312 67.3503 171.312C67.3503 171.312 67.5323 172.194 67.5603 172.306C67.5883 172.39 68.6943 176.394 68.6943 176.394H65.9083ZM78.4008 174.378L82.3908 169.59H80.3188L76.3148 174.308V169.59H74.4668V180.678H76.3148V176.716L77.1268 175.764L80.2908 180.678H82.4748L78.4008 174.378Z" fill="white"/>
<path d="M122.412 30.6782H123.77V20.6402H122.72C122.538 22.0962 121.362 22.5722 120.102 22.6002V23.4962H122.412V30.6782ZM127.922 30.6782H129.28V20.6402H128.23C128.048 22.0962 126.872 22.5722 125.612 22.6002V23.4962H127.922V30.6782ZM138.312 33.3102C139.32 33.3102 140.16 33.0862 140.748 32.5962C141.322 32.1062 141.658 31.3642 141.658 30.3702V23.1602H140.37V24.1542H140.342C139.866 23.3982 139.138 22.9782 138.06 22.9782C136.296 22.9782 134.84 24.3502 134.84 26.6602C134.84 28.8442 136.212 30.3422 138.13 30.3422C139.194 30.3422 139.852 29.8802 140.37 29.1382H140.398C140.384 29.3762 140.37 29.7822 140.37 30.2162V30.4262C140.37 31.7002 139.628 32.3022 138.284 32.3022C137.164 32.3022 136.408 31.9802 136.296 31.1962H135.078C135.218 32.5262 136.338 33.3102 138.312 33.3102ZM138.256 29.2782C136.898 29.2782 136.17 28.2702 136.17 26.6742C136.17 25.0922 136.87 24.0562 138.242 24.0562C139.74 24.0562 140.454 25.0222 140.454 26.6042C140.454 28.1302 139.894 29.2782 138.256 29.2782ZM145.7 30.8322C146.974 30.8322 147.744 30.2302 148.22 29.5722H148.234C148.374 30.3702 148.766 30.7482 149.564 30.7482C149.872 30.7482 150.082 30.6922 150.264 30.6362V29.7262H150.208C149.55 29.8662 149.41 29.5442 149.41 28.9422V25.4282C149.41 24.4202 149.032 23.7622 148.402 23.3842C147.926 23.1042 147.296 22.9782 146.582 22.9782C144.552 22.9782 143.586 24.1122 143.53 25.3862H144.79C144.832 24.4902 145.406 23.9302 146.596 23.9302C147.632 23.9302 148.206 24.4342 148.206 25.2462C148.206 26.0162 147.492 26.1982 146.386 26.3242C144.44 26.5622 143.152 26.9402 143.152 28.6902C143.152 30.1322 144.272 30.8322 145.7 30.8322ZM146.022 29.8802C145.266 29.8802 144.524 29.6422 144.524 28.6762C144.524 27.6402 145.336 27.4162 146.568 27.2062C147.184 27.0942 147.842 26.9122 148.22 26.6742V27.9062C148.22 28.7742 147.52 29.8802 146.022 29.8802ZM151.322 30.6782H152.624V26.0442C152.624 24.8962 153.59 24.0702 154.486 24.0702C155.256 24.0702 155.774 24.6162 155.774 25.5402V30.6782H157.062V26.0442C157.062 24.8962 157.888 24.0702 158.84 24.0702C159.596 24.0702 160.198 24.6162 160.198 25.5402V30.6782H161.5V25.4282C161.5 23.8602 160.548 22.9782 159.176 22.9782C158.266 22.9782 157.384 23.4402 156.852 24.3782H156.824C156.516 23.4542 155.788 22.9782 154.878 22.9782C153.912 22.9782 153.114 23.4682 152.652 24.2802H152.61V23.1602H151.322V30.6782ZM166.506 30.8882C168.242 30.8882 169.446 29.9362 169.782 28.5362H168.508C168.27 29.3342 167.556 29.8242 166.52 29.8242C165.064 29.8242 164.266 28.7042 164.168 27.2342H169.936C169.936 25.9602 169.628 24.8822 169.012 24.1402C168.424 23.4122 167.556 22.9782 166.436 22.9782C164.28 22.9782 162.838 24.7422 162.838 26.9262C162.838 29.1242 164.196 30.8882 166.506 30.8882ZM166.436 23.9862C167.738 23.9862 168.48 24.8542 168.55 26.2962H164.196C164.364 24.9662 165.078 23.9862 166.436 23.9862ZM176.666 30.6782H177.982L179.116 26.5342C179.298 25.8202 179.578 24.4342 179.578 24.4342H179.606C179.606 24.4342 179.9 25.8062 180.082 26.5342L181.188 30.6782H182.49L184.94 23.1602H183.596L182.35 27.3322C182.07 28.2562 181.86 29.5442 181.86 29.5442H181.832C181.832 29.5442 181.566 28.1582 181.356 27.3602L180.236 23.1602H179.004L177.87 27.3602C177.618 28.2702 177.366 29.5302 177.366 29.5302H177.338C177.338 29.5302 177.086 28.1862 176.848 27.3322L175.672 23.1602H174.286L176.666 30.6782ZM185.952 21.7742H187.31V20.2622H185.952V21.7742ZM185.98 30.6782H187.282V23.1602H185.98V30.6782ZM190.358 23.1602H189.07V30.6782H190.372V26.1002C190.372 24.8962 191.212 24.0702 192.374 24.0702C193.396 24.0702 194.026 24.6162 194.026 25.5822V30.6782H195.314V25.4282C195.314 23.8602 194.348 22.9782 192.78 22.9782C191.688 22.9782 190.946 23.4682 190.4 24.2242H190.358V23.1602ZM203.671 30.9022C205.435 30.9022 206.695 30.1182 206.695 28.5922C206.695 26.8422 205.407 26.5062 203.909 26.2122C202.635 25.9602 201.907 25.8062 201.907 25.0222C201.907 24.4482 202.341 23.9722 203.363 23.9722C204.441 23.9722 204.973 24.4062 205.085 25.1762H206.387C206.219 23.8742 205.281 22.9922 203.391 22.9922C201.641 22.9922 200.633 23.8042 200.633 25.0922C200.633 26.7442 201.963 27.0522 203.433 27.3602C204.763 27.6262 205.393 27.8362 205.393 28.6622C205.393 29.3342 204.889 29.8522 203.699 29.8522C202.621 29.8522 201.781 29.4882 201.627 28.3962H200.311C200.423 29.9222 201.599 30.9022 203.671 30.9022ZM207.502 24.1682H208.678V29.2082C208.678 30.3142 209.378 30.7202 210.386 30.7342C210.722 30.7342 211.086 30.6922 211.436 30.6082V29.5162H211.394C211.254 29.5582 210.96 29.6142 210.736 29.6142C210.26 29.6142 209.966 29.4602 209.966 28.9142V24.1682H211.52V23.1602H209.966V20.7942H208.678V23.1602H207.502V24.1682ZM214.161 23.1602H212.873V30.6782H214.175V26.5902C214.175 25.1762 215.169 24.3082 216.331 24.3082C216.555 24.3082 216.681 24.3222 216.863 24.3782H216.905V23.1462C216.765 23.0902 216.639 23.0622 216.429 23.0622C215.435 23.0622 214.665 23.6502 214.203 24.5182H214.161V23.1602ZM221.166 30.8882C222.902 30.8882 224.106 29.9362 224.442 28.5362H223.168C222.93 29.3342 222.216 29.8242 221.18 29.8242C219.724 29.8242 218.926 28.7042 218.828 27.2342H224.596C224.596 25.9602 224.288 24.8822 223.672 24.1402C223.084 23.4122 222.216 22.9782 221.096 22.9782C218.94 22.9782 217.498 24.7422 217.498 26.9262C217.498 29.1242 218.856 30.8882 221.166 30.8882ZM221.096 23.9862C222.398 23.9862 223.14 24.8542 223.21 26.2962H218.856C219.024 24.9662 219.738 23.9862 221.096 23.9862ZM228.224 30.8322C229.498 30.8322 230.268 30.2302 230.744 29.5722H230.758C230.898 30.3702 231.29 30.7482 232.088 30.7482C232.396 30.7482 232.606 30.6922 232.788 30.6362V29.7262H232.732C232.074 29.8662 231.934 29.5442 231.934 28.9422V25.4282C231.934 24.4202 231.556 23.7622 230.926 23.3842C230.45 23.1042 229.82 22.9782 229.106 22.9782C227.076 22.9782 226.11 24.1122 226.054 25.3862H227.314C227.356 24.4902 227.93 23.9302 229.12 23.9302C230.156 23.9302 230.73 24.4342 230.73 25.2462C230.73 26.0162 230.016 26.1982 228.91 26.3242C226.964 26.5622 225.676 26.9402 225.676 28.6902C225.676 30.1322 226.796 30.8322 228.224 30.8322ZM228.546 29.8802C227.79 29.8802 227.048 29.6422 227.048 28.6762C227.048 27.6402 227.86 27.4162 229.092 27.2062C229.708 27.0942 230.366 26.9122 230.744 26.6742V27.9062C230.744 28.7742 230.044 29.8802 228.546 29.8802ZM238.787 30.6782H240.313L237.107 25.8622L239.977 23.1602H238.353L235.091 26.3662C235.119 26.0022 235.147 25.4702 235.147 25.2042V20.2622H233.845V30.6782H235.147V27.7242L236.211 26.7162L238.787 30.6782ZM245.152 33.2262H246.454V30.9442C246.454 30.3702 246.44 29.9502 246.426 29.6842H246.468C246.986 30.4822 247.812 30.9022 248.834 30.9022C250.864 30.9022 252.11 29.3482 252.11 26.9402C252.11 24.4622 250.794 22.9782 248.876 22.9782C247.798 22.9782 247.042 23.4822 246.482 24.3362H246.44V23.1602H245.152V33.2262ZM248.694 29.8242C247.028 29.8242 246.384 28.5502 246.384 26.9682C246.384 25.3722 247.112 24.0842 248.708 24.0842C250.094 24.0842 250.78 25.3162 250.78 26.9682C250.78 28.6062 250.08 29.8242 248.694 29.8242ZM254.78 23.1602H253.492V30.6782H254.794V26.5902C254.794 25.1762 255.788 24.3082 256.95 24.3082C257.174 24.3082 257.3 24.3222 257.482 24.3782H257.524V23.1462C257.384 23.0902 257.258 23.0622 257.048 23.0622C256.054 23.0622 255.284 23.6502 254.822 24.5182H254.78V23.1602ZM258.768 21.7742H260.126V20.2622H258.768V21.7742ZM258.796 30.6782H260.098V23.1602H258.796V30.6782ZM261.606 30.6782H267.668V29.5302H264.63C264.084 29.5302 263.132 29.5722 263.132 29.5722V29.5302C263.132 29.5302 263.762 28.8442 264.084 28.4382L267.5 23.9722V23.1602H261.858V24.2662H264.448C264.966 24.2662 265.862 24.2242 265.862 24.2242V24.2662C265.862 24.2662 265.274 24.8962 264.966 25.2882L261.606 29.6702V30.6782ZM272.039 30.8882C273.775 30.8882 274.979 29.9362 275.315 28.5362H274.041C273.803 29.3342 273.089 29.8242 272.053 29.8242C270.597 29.8242 269.799 28.7042 269.701 27.2342H275.469C275.469 25.9602 275.161 24.8822 274.545 24.1402C273.957 23.4122 273.089 22.9782 271.969 22.9782C269.813 22.9782 268.371 24.7422 268.371 26.9262C268.371 29.1242 269.729 30.8882 272.039 30.8882ZM271.969 23.9862C273.271 23.9862 274.013 24.8542 274.083 26.2962H269.729C269.897 24.9662 270.611 23.9862 271.969 23.9862Z" fill="white"/>
<g clip-path="url(#clip1_2388_31313)">
<path fill-rule="evenodd" clip-rule="evenodd" d="M318.146 30.6274C318.235 30.4813 318.28 30.2971 318.28 30.0748V21.2911C318.28 21.0689 318.235 20.8878 318.146 20.7481C318.058 20.602 317.918 20.4845 317.727 20.3956C317.194 20.1289 316.759 19.8208 316.422 19.4715C316.079 19.1159 315.746 18.6173 315.422 17.9758C315.219 17.6138 314.923 17.4328 314.536 17.4328H298.464C298.077 17.4328 297.785 17.6138 297.588 17.9758C297.257 18.6173 296.924 19.1159 296.587 19.4715C296.244 19.8208 295.806 20.1289 295.273 20.3956C295.082 20.4845 294.942 20.602 294.853 20.7481C294.765 20.8878 294.72 21.0689 294.72 21.2911V30.0748C294.72 30.2971 294.765 30.4813 294.853 30.6274C294.942 30.7671 295.082 30.8814 295.273 30.9703C295.806 31.2307 296.244 31.5388 296.587 31.8944C296.924 32.2438 297.257 32.7423 297.588 33.3902C297.785 33.7458 298.077 33.9236 298.464 33.9236H314.536C314.923 33.9236 315.219 33.7458 315.422 33.3902C315.746 32.7423 316.079 32.2438 316.422 31.8944C316.759 31.5388 317.194 31.2307 317.727 30.9703C317.918 30.8814 318.058 30.7671 318.146 30.6274ZM310.54 26.0088V26.823C310.54 26.9634 310.427 27.0773 310.286 27.0773C310.146 27.0773 310.032 26.9636 310.032 26.823V26.0088H308.688V26.823C308.688 26.9634 308.574 27.0773 308.434 27.0773C308.293 27.0773 308.179 26.9636 308.179 26.823V26.0088H306.836V26.823C306.836 26.9634 306.722 27.0773 306.582 27.0773C306.441 27.0773 306.327 26.9636 306.327 26.823V26.0088H304.984V26.823C304.984 26.9634 304.87 27.0773 304.73 27.0773C304.589 27.0773 304.476 26.9636 304.476 26.823V26.0088H303.132V26.823C303.132 26.9634 303.018 27.0773 302.878 27.0773C302.738 27.0773 302.624 26.9636 302.624 26.823V26.0088H301.614L301.614 29.6566C303.093 30.4563 304.783 30.915 306.582 30.915C308.381 30.915 310.071 30.4561 311.55 29.6566V26.0088H310.54ZM315.651 25.6781C315.652 24.6865 313.824 23.2031 312.568 22.3254V29.0314C313.824 28.1535 315.65 26.7704 315.651 25.6781ZM302.624 24.6862V25.5003L301.614 25.5001V21.6998C303.093 20.9002 304.783 20.4413 306.582 20.4413C308.382 20.4413 310.072 20.9001 311.55 21.6996V25.5003H310.54V24.6862C310.54 24.5458 310.426 24.4319 310.286 24.4319C310.145 24.4319 310.031 24.5458 310.031 24.6862V25.5003H308.688V24.6862C308.688 24.5458 308.574 24.4319 308.434 24.4319C308.293 24.4319 308.179 24.5458 308.179 24.6862V25.5003H306.836V24.6862C306.836 24.5458 306.722 24.4319 306.582 24.4319C306.441 24.4319 306.327 24.5458 306.327 24.6862V25.5003H304.984V24.6862C304.984 24.5458 304.87 24.4319 304.73 24.4319C304.589 24.4319 304.476 24.5458 304.476 24.6862V25.5003H303.132V24.6862C303.132 24.5458 303.018 24.4319 302.878 24.4319C302.738 24.4319 302.624 24.5458 302.624 24.6862ZM297.349 25.6781C297.348 24.6865 299.176 23.2031 300.432 22.3254V29.0314C299.176 28.1535 297.35 26.7704 297.349 25.6781Z" fill="white"/>
</g>
<rect x="104" y="0.795593" width="230" height="49.7652" stroke="white"/>
<path d="M135.016 69.3328H130.12V83.3728L125.62 69.3328H120.616V98.0608H125.512V83.7328L130.048 98.0608H135.016V69.3328ZM150.313 69.3328H137.605V98.0608H142.861V86.0728H149.737V81.2488H142.861V74.2648H150.313V69.3328ZM164.879 93.2008H157.283V69.3328H152.027V98.0608H164.879V93.2008ZM181.472 91.1128L182.408 98.0608H187.736L183.452 69.3328H176.072L171.284 98.0608H176.54L177.548 91.1128H181.472ZM178.052 86.8648C178.052 86.8648 179.348 78.5128 179.348 78.3688C179.6 76.8208 179.672 74.0128 179.672 74.0128C179.672 74.0128 179.744 76.8568 179.924 78.3688C179.924 78.5128 181.004 86.8648 181.004 86.8648H178.052ZM193.855 96.5848V70.5208C193.855 69.8728 193.783 69.3688 193.747 69.2968H188.887C188.995 69.5488 188.995 70.4128 188.995 71.0248V96.6928C188.995 97.4128 189.067 97.9528 189.211 98.0608C189.211 98.0968 194.035 98.0608 194.035 98.0608C193.891 97.9528 193.855 97.4848 193.855 96.5848ZM200.719 96.5848V70.5208C200.719 69.8728 200.647 69.3688 200.611 69.2968H195.751C195.859 69.5488 195.859 70.4128 195.859 71.0248V96.6928C195.859 97.4128 195.931 97.9528 196.075 98.0608C196.075 98.0968 200.899 98.0608 200.899 98.0608C200.755 97.9528 200.719 97.4848 200.719 96.5848ZM223.507 83.0848C223.507 78.5848 223.327 73.5808 222.211 71.9608C220.951 70.0888 219.331 69.3328 216.271 69.3328H208.855V98.0608H216.919C219.871 98.0608 221.275 96.9448 222.211 95.3248C223.327 93.4168 223.507 89.0248 223.507 83.0848ZM216.343 93.9208H214.039V73.7968H216.127C217.171 73.7968 217.819 74.3008 218.107 75.4888C218.359 76.4608 218.467 81.6448 218.467 83.0848C218.467 84.5608 218.395 91.2928 218.143 92.4448C217.891 93.4888 217.279 93.9208 216.343 93.9208ZM237.731 94.5328C237.731 93.0568 237.767 90.6448 237.767 89.0968C237.803 87.2608 237.839 84.2728 237.767 82.5448C237.659 79.7728 235.931 78.0088 231.791 78.0088C227.399 78.0088 225.599 79.9888 225.599 83.6968V85.1728H230.063V84.0568C230.063 82.6888 230.495 82.0048 231.719 82.0048C232.619 82.0048 233.087 82.5088 233.123 83.3728C233.159 83.9848 233.159 85.2088 233.159 85.7488C232.367 85.7488 231.539 85.8568 230.639 86.0008C227.327 86.6128 225.095 88.4128 224.915 91.2928C224.843 92.3368 224.879 94.0288 224.915 94.4608C225.059 97.3408 227.255 98.2048 229.235 98.2048C230.999 98.2048 232.331 97.7368 233.231 96.6208C233.231 97.1248 233.339 98.0608 233.411 98.0608H237.983C237.803 97.8088 237.731 95.9728 237.731 94.5328ZM233.159 90.5008C233.087 91.5088 233.159 92.0128 232.979 93.0568C232.799 94.0648 231.935 94.4608 231.179 94.4608C230.459 94.4608 229.883 94.2088 229.775 93.5248C229.703 92.9488 229.703 92.2648 229.703 91.7248C229.703 90.8968 229.739 90.3208 230.351 89.7808C230.891 89.3128 231.503 89.2048 232.007 89.0968C232.439 89.0248 232.799 89.0248 233.159 89.0248C233.159 89.3128 233.195 90.1048 233.159 90.5008ZM248.239 78.2608C248.203 78.8728 245.899 90.5728 245.827 91.0048C245.791 90.6088 243.487 78.7648 243.415 78.2608H238.519L243.235 97.5208L241.615 103.929H246.547L253.027 78.2608H248.239ZM134.152 115.925C133.324 114.233 131.452 113.333 129.256 113.333H120.616V142.061H125.836V130.109H127.708L130.588 142.061H136.024L132.532 128.669C133.252 128.417 134.044 127.625 134.476 126.509C134.908 125.465 135.16 123.917 135.16 121.649C135.16 119.093 134.764 117.113 134.152 115.925ZM129.58 124.745C129.436 125.249 129.04 125.573 128.356 125.645C128.176 125.681 125.836 125.681 125.836 125.681V118.121H128.212C129.076 118.121 129.544 118.697 129.724 119.489C129.796 119.849 129.868 121.181 129.868 122.153C129.868 123.017 129.796 124.241 129.58 124.745ZM145.136 135.617C145.136 136.121 145.064 136.733 144.92 137.345C144.74 138.137 143.984 138.461 143.264 138.461C142.544 138.461 141.716 138.029 141.608 137.057C141.5 136.157 141.464 134.717 141.464 133.817H149.636C149.816 130.433 149.564 126.977 148.88 125.285C148.052 123.269 146.144 122.009 143.372 122.009C139.952 122.009 138.44 123.557 137.72 125.321C137.18 126.617 136.784 129.281 136.784 132.269C136.784 135.329 137.036 137.597 137.864 139.505C138.728 141.521 140.78 142.313 143.444 142.313C146.108 142.313 147.728 141.233 148.592 139.685C149.348 138.353 149.528 136.193 149.528 135.617H145.136ZM141.392 130.289C141.392 128.921 141.428 127.625 141.68 127.013C141.932 126.329 142.508 125.969 143.3 125.969C144.128 125.969 144.668 126.365 144.848 127.049C144.992 127.517 145.1 128.489 145.1 130.289H141.392ZM167.346 122.261L165.762 136.805L163.674 122.261H158.742L156.906 136.805L155.07 122.261H150.174L153.738 142.061H159.498C159.498 142.061 160.758 135.041 161.154 132.701C161.19 132.485 161.226 130.649 161.226 130.649C161.226 130.649 161.334 132.485 161.37 132.701C161.766 134.969 162.99 142.061 162.99 142.061H168.678L172.134 122.261H167.346ZM185.227 138.533C185.227 137.057 185.263 134.645 185.263 133.097C185.299 131.261 185.335 128.273 185.263 126.545C185.155 123.773 183.427 122.009 179.287 122.009C174.895 122.009 173.095 123.989 173.095 127.697V129.173H177.559V128.057C177.559 126.689 177.991 126.005 179.215 126.005C180.115 126.005 180.583 126.509 180.619 127.373C180.655 127.985 180.655 129.209 180.655 129.749C179.863 129.749 179.035 129.857 178.135 130.001C174.823 130.613 172.591 132.413 172.411 135.293C172.339 136.337 172.375 138.029 172.411 138.461C172.555 141.341 174.751 142.205 176.731 142.205C178.495 142.205 179.827 141.737 180.727 140.621C180.727 141.125 180.835 142.061 180.907 142.061H185.479C185.299 141.809 185.227 139.973 185.227 138.533ZM180.655 134.501C180.583 135.509 180.655 136.013 180.475 137.057C180.295 138.065 179.431 138.461 178.675 138.461C177.955 138.461 177.379 138.209 177.271 137.525C177.199 136.949 177.199 136.265 177.199 135.725C177.199 134.897 177.235 134.321 177.847 133.781C178.387 133.313 178.999 133.205 179.503 133.097C179.935 133.025 180.295 133.025 180.655 133.025C180.655 133.313 180.691 134.105 180.655 134.501ZM195.687 122.009C194.031 122.009 192.375 123.089 192.159 124.601V122.261H187.407V142.061H192.231V130.325C192.231 127.085 193.239 126.365 194.895 126.365C195.867 126.365 196.839 126.545 197.415 126.725V122.189C197.019 122.045 196.443 122.009 195.687 122.009ZM198.886 125.177C198.31 127.337 198.13 129.317 198.13 132.233C198.13 135.401 198.49 138.029 199.138 139.613C199.858 141.413 201.19 142.205 203.17 142.205C204.934 142.205 206.122 141.629 206.77 140.621L207.346 142.061H211.378C211.378 142.061 211.234 140.405 211.234 139.289V113.297H206.518V123.701C205.978 122.657 204.682 122.081 203.17 122.081C201.046 122.081 199.39 123.233 198.886 125.177ZM206.194 127.265C206.41 128.345 206.554 129.425 206.554 132.269C206.554 133.997 206.482 135.797 206.23 137.057C206.086 137.813 205.618 138.389 204.682 138.389C203.71 138.389 203.206 137.921 203.098 137.165C202.918 135.689 202.846 133.925 202.846 132.269C202.846 130.577 202.918 128.885 203.17 127.445C203.314 126.725 203.818 126.185 204.718 126.185C205.618 126.185 206.05 126.581 206.194 127.265ZM230.807 125.825H226.883V121.397H222.635V125.825H218.639V130.037H222.635V134.501H226.847V130.037H230.807V125.825ZM251.71 113.333H237.598V118.265H241.954V142.061H247.282V118.265H251.71V113.333ZM267.292 122.261L265.708 136.805L263.62 122.261H258.688L256.852 136.805L255.016 122.261H250.12L253.684 142.061H259.444C259.444 142.061 260.704 135.041 261.1 132.701C261.136 132.485 261.172 130.649 261.172 130.649C261.172 130.649 261.28 132.485 261.316 132.701C261.712 134.969 262.936 142.061 262.936 142.061H268.624L272.08 122.261H267.292ZM285.17 126.041C284.522 123.773 282.794 122.009 279.23 122.009C275.666 122.009 273.902 123.953 273.326 125.933C272.822 127.625 272.57 130.001 272.57 132.125C272.57 134.321 272.858 136.985 273.182 138.173C273.866 140.657 275.918 142.313 279.158 142.313C282.578 142.313 284.414 140.693 285.134 138.173C285.566 136.733 285.782 134.285 285.782 132.125C285.782 130.001 285.602 127.517 285.17 126.041ZM280.886 136.985C280.778 137.741 280.094 138.389 279.194 138.389C278.33 138.389 277.682 137.921 277.538 137.021C277.358 136.085 277.322 133.745 277.322 132.197C277.322 130.721 277.358 128.309 277.538 127.481C277.754 126.581 278.258 126.077 279.194 126.077C280.166 126.077 280.67 126.473 280.886 127.409C281.03 128.165 281.102 130.685 281.102 132.197C281.102 133.709 281.138 135.257 280.886 136.985ZM135.016 157.333H130.12V171.373L125.62 157.333H120.616V186.061H125.512V171.733L130.048 186.061H135.016V157.333ZM150.313 157.333H137.605V186.061H142.861V174.073H149.737V169.249H142.861V162.265H150.313V157.333ZM164.879 181.201H157.283V157.333H152.027V186.061H164.879V181.201ZM172.4 170.725C172.364 171.373 172.364 174.289 172.436 175.153C172.544 176.665 173.3 177.781 173.984 178.213C172.652 178.645 171.644 179.833 171.644 181.237C171.644 182.677 172.364 183.829 173.984 184.045C172.508 184.621 171.464 185.341 171.464 187.105C171.464 189.949 174.416 191.065 178.988 191.065C183.812 191.065 186.44 189.265 186.44 185.953C186.44 183.109 185.036 181.057 179.528 181.057C176.216 181.057 175.496 180.985 175.496 180.157C175.496 179.725 175.784 179.401 176.324 179.329C176.864 179.617 177.656 179.941 178.952 179.941C182.264 179.941 184.352 178.321 184.784 175.729C184.928 174.721 184.928 172.345 184.928 171.589C184.928 170.653 184.676 169.573 184.424 169.105C184.496 169.033 186.44 168.997 186.548 168.997V166.153C185.252 166.117 183.884 166.441 183.128 167.341C182.516 166.657 181.22 165.937 178.664 165.937C174.452 165.937 172.472 168.313 172.4 170.725ZM180.284 171.157C180.32 171.877 180.32 174.685 180.284 175.153C180.248 176.017 179.816 176.593 178.7 176.593C177.656 176.593 177.152 176.017 177.116 175.153C177.08 174.577 177.116 171.877 177.116 171.409C177.152 170.365 177.692 169.897 178.7 169.897C179.708 169.897 180.212 170.293 180.284 171.157ZM175.532 186.169C175.532 185.305 175.892 185.125 176.648 184.729C177.08 184.765 178.016 184.729 178.88 184.765C181.328 184.909 182.192 185.161 182.192 186.097C182.192 187.141 181.148 187.573 178.88 187.573C176.504 187.573 175.532 187.141 175.532 186.169ZM199.799 182.533C199.799 181.057 199.835 178.645 199.835 177.097C199.871 175.261 199.907 172.273 199.835 170.545C199.727 167.773 197.999 166.009 193.859 166.009C189.467 166.009 187.667 167.989 187.667 171.697V173.173H192.131V172.057C192.131 170.689 192.563 170.005 193.787 170.005C194.687 170.005 195.155 170.509 195.191 171.373C195.227 171.985 195.227 173.209 195.227 173.749C194.435 173.749 193.607 173.857 192.707 174.001C189.395 174.613 187.163 176.413 186.983 179.293C186.911 180.337 186.947 182.029 186.983 182.461C187.127 185.341 189.323 186.205 191.303 186.205C193.067 186.205 194.399 185.737 195.299 184.621C195.299 185.125 195.407 186.061 195.479 186.061H200.051C199.871 185.809 199.799 183.973 199.799 182.533ZM195.227 178.501C195.155 179.509 195.227 180.013 195.047 181.057C194.867 182.065 194.003 182.461 193.247 182.461C192.527 182.461 191.951 182.209 191.843 181.525C191.771 180.949 191.771 180.265 191.771 179.725C191.771 178.897 191.807 178.321 192.419 177.781C192.959 177.313 193.571 177.205 194.075 177.097C194.507 177.025 194.867 177.025 195.227 177.025C195.227 177.313 195.263 178.105 195.227 178.501ZM221.527 186.061C221.563 186.061 221.491 185.485 221.491 170.149C221.491 167.665 220.411 165.973 217.675 165.973C215.839 165.973 214.435 166.765 213.823 168.277C213.319 166.873 212.275 165.973 210.475 165.973C208.387 165.973 207.091 166.909 206.623 168.133V166.261H201.979V186.061H206.731V172.021C206.731 171.049 207.307 170.149 208.279 170.149C209.107 170.149 209.503 170.689 209.503 171.553V186.061H214.147V171.877C214.147 170.977 214.687 170.149 215.623 170.149C216.631 170.149 216.883 170.833 216.883 171.625C216.883 185.485 216.883 186.061 216.919 186.061H221.527ZM231.671 179.617C231.671 180.121 231.599 180.733 231.455 181.345C231.275 182.137 230.519 182.461 229.799 182.461C229.079 182.461 228.251 182.029 228.143 181.057C228.035 180.157 227.999 178.717 227.999 177.817H236.171C236.351 174.433 236.099 170.977 235.415 169.285C234.587 167.269 232.679 166.009 229.907 166.009C226.487 166.009 224.975 167.557 224.255 169.321C223.715 170.617 223.319 173.281 223.319 176.269C223.319 179.329 223.571 181.597 224.399 183.505C225.263 185.521 227.315 186.313 229.979 186.313C232.643 186.313 234.263 185.233 235.127 183.685C235.883 182.353 236.063 180.193 236.063 179.617H231.671ZM227.927 174.289C227.927 172.921 227.963 171.625 228.215 171.013C228.467 170.329 229.043 169.969 229.835 169.969C230.663 169.969 231.203 170.365 231.383 171.049C231.527 171.517 231.635 172.489 231.635 174.289H227.927ZM128.968 210.261H126.196V206.445L121.516 206.553C121.516 206.553 121.372 210.153 121.336 210.261H119.572V214.473H121.264V225.741C121.264 228.837 122.992 230.205 125.944 230.205C127.204 230.205 127.996 230.133 128.752 229.953V226.101C128.392 226.173 127.924 226.209 127.528 226.209C126.772 226.209 126.16 225.993 126.16 224.877V214.473H128.968V210.261ZM135.68 204.357H130.604V209.217H135.68V204.357ZM135.608 228.621V210.261H130.676V228.693C130.676 229.485 130.676 230.061 130.856 230.061H135.716C135.68 230.025 135.608 229.377 135.608 228.621ZM149.878 213.609C149.23 211.557 147.718 210.009 144.01 210.009C141.202 210.009 139.186 211.269 138.466 213.393C137.746 215.553 137.53 217.281 137.53 220.161C137.53 223.149 137.962 226.137 138.538 227.433C139.33 229.233 141.238 230.313 144.082 230.313C146.998 230.313 148.87 229.017 149.518 227.361C150.202 225.633 150.238 224.805 150.238 222.105H145.774C145.774 223.365 145.774 223.761 145.63 224.805C145.522 225.633 145.018 226.281 144.082 226.281C143.146 226.281 142.678 225.849 142.534 224.841C142.318 223.365 142.246 221.349 142.246 220.197C142.246 218.757 142.318 216.957 142.534 215.553C142.678 214.581 143.182 214.077 144.046 214.077C145.054 214.077 145.414 214.725 145.522 215.517C145.63 216.273 145.738 217.173 145.738 218.325H150.238C150.238 215.913 150.13 214.473 149.878 213.609ZM161.536 217.461L165.28 210.261H160.6L156.748 217.857V201.297H151.996V230.061H156.748V224.121L158.152 221.853L160.636 230.061H165.46L161.536 217.461ZM174.095 223.617C174.095 224.121 174.023 224.733 173.879 225.345C173.699 226.137 172.943 226.461 172.223 226.461C171.503 226.461 170.675 226.029 170.567 225.057C170.459 224.157 170.423 222.717 170.423 221.817H178.595C178.775 218.433 178.523 214.977 177.839 213.285C177.011 211.269 175.103 210.009 172.331 210.009C168.911 210.009 167.399 211.557 166.679 213.321C166.139 214.617 165.743 217.281 165.743 220.269C165.743 223.329 165.995 225.597 166.823 227.505C167.687 229.521 169.739 230.313 172.403 230.313C175.067 230.313 176.687 229.233 177.551 227.685C178.307 226.353 178.487 224.193 178.487 223.617H174.095ZM170.351 218.289C170.351 216.921 170.387 215.625 170.639 215.013C170.891 214.329 171.467 213.969 172.259 213.969C173.087 213.969 173.627 214.365 173.807 215.049C173.951 215.517 174.059 216.489 174.059 218.289H170.351ZM188.881 210.261H186.109V206.445L181.429 206.553C181.429 206.553 181.285 210.153 181.249 210.261H179.485V214.473H181.177V225.741C181.177 228.837 182.905 230.205 185.857 230.205C187.117 230.205 187.909 230.133 188.665 229.953V226.101C188.305 226.173 187.837 226.209 187.441 226.209C186.685 226.209 186.073 225.993 186.073 224.877V214.473H188.881V210.261ZM198.868 218.865C197.968 218.397 197.068 218.001 196.168 217.569C195.016 217.029 194.62 216.417 194.62 215.445C194.62 214.617 194.98 213.933 196.096 213.933C197.104 213.933 197.428 214.509 197.5 215.121C197.536 215.265 197.572 216.381 197.572 216.597H201.928C201.928 216.201 201.82 214.113 201.712 213.537C201.244 211.341 199.408 209.973 195.916 209.973C192.1 209.973 190.156 212.205 190.156 215.337C190.156 218.289 191.02 220.125 193.612 221.349C194.332 221.673 195.304 222.141 195.916 222.393C197.284 222.933 197.752 223.617 197.752 224.841C197.752 225.957 197.068 226.497 196.168 226.497C195.304 226.497 194.62 226.137 194.548 225.309C194.512 224.697 194.476 224.085 194.476 223.833H190.012C190.012 224.445 190.048 225.705 190.12 226.353C190.444 229.017 192.244 230.349 196.276 230.349C199.84 230.349 202.324 228.441 202.324 224.697C202.324 221.673 201.388 220.125 198.868 218.865Z" fill="white"/>
<rect x="104" y="0.795593" width="230" height="249.765" stroke="white"/>
</g>
<rect x="1" y="0.795593" width="333" height="249.765" rx="11.5" stroke="white"/>
<defs>
<clipPath id="clip0_2388_31313">
<rect x="0.5" y="0.295593" width="334" height="250.765" rx="12" fill="white"/>
</clipPath>
<clipPath id="clip1_2388_31313">
<rect x="294.5" y="13.6782" width="24" height="24" rx="4" fill="white"/>
</clipPath>
</defs>
</svg>
