<svg width="100%" height="auto" viewBox="0 0 334 168" fill="none" xmlns="http://www.w3.org/2000/svg">
<g clip-path="url(#clip0_4719_146418)">
<path d="M65.084 76.696H60.924V43.864H51.132L37.948 76.184V84.568H52.284V95H60.924V84.568H65.084V76.696ZM45.692 76.696L52.284 60.568V76.696H45.692Z" fill="white"/>
<path d="M42.6396 111.912C42.6396 111.912 40.7496 120.13 40.7496 120.466C40.7496 120.13 39.0136 111.912 39.0136 111.912H36.9696C36.9696 111.912 35.2476 120.13 35.2476 120.466C35.2476 120.13 33.3576 111.912 33.3576 111.912H31.4116L34.0716 123H36.1576C36.1576 123 37.9636 114.796 37.9636 114.432C37.9776 114.796 39.7136 123 39.7136 123H41.8136L44.4456 111.912H42.6396ZM48.9349 111.912H47.0449V123H48.9349V111.912ZM60.0734 111.912H58.3234V119.472L54.5434 111.912H52.4574V123H54.2074V115.244L58.0994 123H60.0734V111.912ZM68.4293 116.826C68.1213 116.714 67.4633 116.462 67.0713 116.336C65.7133 115.888 65.0413 115.454 65.0413 114.586C65.0413 113.844 65.5453 113.396 66.9593 113.396C68.1633 113.396 68.7233 113.732 68.9613 114.418C69.0453 114.67 69.0873 114.88 69.0873 115.118H70.9633C70.9633 114.698 70.8933 114.362 70.7953 114.026C70.4033 112.654 69.2833 111.786 67.0013 111.786C64.3833 111.786 63.1513 112.934 63.1513 114.642C63.1513 116.28 64.2293 117.26 65.8953 117.806C66.3573 117.96 67.0153 118.212 67.2953 118.31C68.7793 118.828 69.2273 119.276 69.2273 120.214C69.2273 121.054 68.6253 121.558 67.2113 121.558C66.0073 121.558 65.3073 121.25 65.0973 120.592C65.0133 120.326 64.9713 119.948 64.9713 119.752H63.1093C63.1093 120.074 63.1373 120.592 63.2353 120.97C63.5713 122.272 64.6913 123.14 67.2533 123.14C69.8433 123.14 71.1173 121.908 71.1173 120.06C71.1173 118.338 70.1653 117.428 68.4293 116.826Z" fill="white"/>
<path d="M123.644 19.924H119.504V18.892L123.824 13.36H124.772V19.024H126.164V19.924H124.772V22H123.644V19.924ZM120.44 19.072C120.6 19.064 120.752 19.056 120.896 19.048C121.024 19.04 121.16 19.036 121.304 19.036C121.448 19.028 121.584 19.024 121.712 19.024H123.644V16.12C123.644 16.008 123.644 15.88 123.644 15.736C123.652 15.592 123.66 15.452 123.668 15.316C123.676 15.172 123.688 15.02 123.704 14.86H123.68C123.608 14.988 123.528 15.12 123.44 15.256C123.368 15.368 123.288 15.488 123.2 15.616C123.112 15.744 123.024 15.864 122.936 15.976L121.352 17.992C121.264 18.104 121.164 18.22 121.052 18.34C120.948 18.452 120.852 18.564 120.764 18.676C120.652 18.804 120.544 18.928 120.44 19.048V19.072ZM133.156 24.256C132.308 24.256 131.648 24.096 131.176 23.776C130.712 23.464 130.448 23.02 130.384 22.444H131.428C131.476 22.78 131.652 23.02 131.956 23.164C132.26 23.316 132.652 23.392 133.132 23.392C133.708 23.392 134.148 23.26 134.452 22.996C134.764 22.74 134.92 22.336 134.92 21.784V21.604C134.92 21.42 134.92 21.248 134.92 21.088C134.928 20.92 134.936 20.784 134.944 20.68H134.92C134.696 21 134.432 21.252 134.128 21.436C133.832 21.62 133.456 21.712 133 21.712C132.592 21.712 132.212 21.636 131.86 21.484C131.516 21.332 131.22 21.116 130.972 20.836C130.724 20.556 130.528 20.224 130.384 19.84C130.248 19.456 130.18 19.028 130.18 18.556C130.18 18.06 130.252 17.616 130.396 17.224C130.54 16.832 130.736 16.504 130.984 16.24C131.24 15.968 131.536 15.76 131.872 15.616C132.208 15.472 132.564 15.4 132.94 15.4C133.404 15.4 133.792 15.488 134.104 15.664C134.424 15.832 134.688 16.08 134.896 16.408H134.92V15.556H136.024V21.736C136.024 22.168 135.956 22.54 135.82 22.852C135.684 23.172 135.492 23.436 135.244 23.644C134.988 23.852 134.684 24.004 134.332 24.1C133.98 24.204 133.588 24.256 133.156 24.256ZM133.108 20.8C133.46 20.8 133.756 20.744 133.996 20.632C134.236 20.512 134.428 20.352 134.572 20.152C134.724 19.944 134.832 19.7 134.896 19.42C134.96 19.14 134.992 18.836 134.992 18.508C134.992 17.828 134.836 17.296 134.524 16.912C134.22 16.52 133.744 16.324 133.096 16.324C132.504 16.324 132.06 16.528 131.764 16.936C131.468 17.344 131.32 17.888 131.32 18.568C131.32 19.256 131.472 19.8 131.776 20.2C132.08 20.6 132.524 20.8 133.108 20.8ZM139.489 22.132C139.185 22.132 138.897 22.092 138.625 22.012C138.361 21.94 138.129 21.828 137.929 21.676C137.737 21.524 137.585 21.336 137.473 21.112C137.361 20.88 137.305 20.608 137.305 20.296C137.305 19.92 137.369 19.612 137.497 19.372C137.633 19.132 137.821 18.94 138.061 18.796C138.309 18.652 138.601 18.54 138.937 18.46C139.281 18.38 139.661 18.316 140.077 18.268C140.317 18.244 140.533 18.212 140.725 18.172C140.917 18.132 141.081 18.08 141.217 18.016C141.353 17.944 141.457 17.856 141.529 17.752C141.601 17.648 141.637 17.512 141.637 17.344C141.637 16.992 141.517 16.716 141.277 16.516C141.045 16.316 140.705 16.216 140.257 16.216C139.745 16.216 139.361 16.328 139.105 16.552C138.857 16.776 138.725 17.08 138.709 17.464H137.629C137.637 17.192 137.697 16.932 137.809 16.684C137.921 16.436 138.085 16.216 138.301 16.024C138.517 15.832 138.785 15.68 139.105 15.568C139.433 15.456 139.813 15.4 140.245 15.4C140.549 15.4 140.833 15.428 141.097 15.484C141.361 15.54 141.597 15.628 141.805 15.748C142.077 15.908 142.289 16.132 142.441 16.42C142.593 16.708 142.669 17.068 142.669 17.5V20.512C142.669 20.768 142.713 20.96 142.801 21.088C142.889 21.216 143.073 21.248 143.353 21.184H143.401V21.964C143.321 21.988 143.233 22.008 143.137 22.024C143.049 22.048 142.937 22.06 142.801 22.06C142.457 22.06 142.197 21.98 142.021 21.82C141.845 21.652 141.725 21.396 141.661 21.052H141.649C141.545 21.196 141.425 21.332 141.289 21.46C141.153 21.588 140.997 21.704 140.821 21.808C140.645 21.904 140.445 21.98 140.221 22.036C140.005 22.1 139.761 22.132 139.489 22.132ZM139.765 21.316C140.085 21.316 140.361 21.264 140.593 21.16C140.833 21.048 141.029 20.912 141.181 20.752C141.341 20.584 141.457 20.4 141.529 20.2C141.609 20 141.649 19.808 141.649 19.624V18.568C141.489 18.672 141.277 18.764 141.013 18.844C140.757 18.916 140.497 18.976 140.233 19.024C139.969 19.072 139.729 19.124 139.513 19.18C139.297 19.228 139.113 19.3 138.961 19.396C138.809 19.484 138.689 19.6 138.601 19.744C138.521 19.88 138.481 20.06 138.481 20.284C138.481 20.492 138.517 20.664 138.589 20.8C138.661 20.928 138.757 21.032 138.877 21.112C138.997 21.192 139.133 21.248 139.285 21.28C139.445 21.304 139.605 21.316 139.765 21.316ZM144.307 15.556H145.411V16.516H145.447C145.647 16.164 145.911 15.892 146.239 15.7C146.567 15.5 146.939 15.4 147.355 15.4C147.747 15.4 148.087 15.5 148.375 15.7C148.671 15.9 148.887 16.2 149.023 16.6H149.047C149.279 16.192 149.571 15.892 149.923 15.7C150.275 15.5 150.647 15.4 151.039 15.4C151.631 15.4 152.111 15.58 152.479 15.94C152.847 16.3 153.031 16.82 153.031 17.5V22H151.915V17.596C151.915 17.196 151.803 16.888 151.579 16.672C151.355 16.448 151.079 16.336 150.751 16.336C150.543 16.336 150.347 16.38 150.163 16.468C149.979 16.548 149.819 16.664 149.683 16.816C149.547 16.968 149.435 17.148 149.347 17.356C149.267 17.556 149.227 17.78 149.227 18.028V22H148.123V17.596C148.123 17.196 148.023 16.888 147.823 16.672C147.623 16.448 147.355 16.336 147.019 16.336C146.827 16.336 146.635 16.38 146.443 16.468C146.251 16.548 146.079 16.664 145.927 16.816C145.783 16.968 145.663 17.148 145.567 17.356C145.471 17.556 145.423 17.78 145.423 18.028V22H144.307V15.556ZM157.322 22.18C156.826 22.18 156.382 22.092 155.99 21.916C155.606 21.74 155.278 21.5 155.006 21.196C154.734 20.884 154.526 20.524 154.382 20.116C154.246 19.7 154.178 19.256 154.178 18.784C154.178 18.32 154.25 17.884 154.394 17.476C154.546 17.06 154.754 16.7 155.018 16.396C155.29 16.084 155.614 15.84 155.99 15.664C156.374 15.488 156.798 15.4 157.262 15.4C157.742 15.4 158.166 15.488 158.534 15.664C158.902 15.84 159.214 16.084 159.47 16.396C159.734 16.716 159.93 17.1 160.058 17.548C160.194 17.996 160.262 18.496 160.262 19.048H155.318C155.342 19.36 155.402 19.652 155.498 19.924C155.594 20.196 155.726 20.432 155.894 20.632C156.062 20.832 156.266 20.988 156.506 21.1C156.746 21.212 157.022 21.268 157.334 21.268C157.782 21.268 158.15 21.172 158.438 20.98C158.734 20.78 158.934 20.508 159.038 20.164H160.13C159.986 20.764 159.666 21.252 159.17 21.628C158.682 21.996 158.066 22.18 157.322 22.18ZM157.262 16.264C156.974 16.264 156.718 16.316 156.494 16.42C156.27 16.516 156.078 16.652 155.918 16.828C155.758 17.004 155.63 17.212 155.534 17.452C155.438 17.692 155.374 17.956 155.342 18.244H159.074C159.042 17.62 158.87 17.136 158.558 16.792C158.254 16.44 157.822 16.264 157.262 16.264ZM163.991 15.556H165.179L166.187 19.132C166.235 19.316 166.283 19.516 166.331 19.732C166.387 19.948 166.435 20.152 166.475 20.344C166.523 20.568 166.567 20.792 166.607 21.016H166.631C166.671 20.808 166.715 20.596 166.763 20.38C166.803 20.196 166.847 19.996 166.895 19.78C166.951 19.564 167.007 19.356 167.063 19.156L168.035 15.556H169.091L170.051 19.156C170.091 19.332 170.135 19.528 170.183 19.744C170.239 19.952 170.287 20.152 170.327 20.344C170.375 20.568 170.419 20.796 170.459 21.028H170.483C170.523 20.812 170.563 20.596 170.603 20.38C170.643 20.196 170.687 19.992 170.735 19.768C170.783 19.544 170.839 19.332 170.903 19.132L171.971 15.556H173.123L171.023 22H169.907L168.959 18.448C168.919 18.288 168.875 18.108 168.827 17.908C168.779 17.7 168.735 17.504 168.695 17.32C168.647 17.104 168.599 16.88 168.551 16.648H168.527C168.479 16.88 168.431 17.104 168.383 17.32C168.343 17.504 168.299 17.7 168.251 17.908C168.211 18.116 168.171 18.296 168.131 18.448L167.159 22H166.031L163.991 15.556ZM173.99 13.072H175.154V14.368H173.99V13.072ZM174.014 15.556H175.13V22H174.014V15.556ZM177.767 16.468H177.803C178.035 16.14 178.315 15.88 178.643 15.688C178.971 15.496 179.371 15.4 179.843 15.4C180.523 15.4 181.055 15.58 181.439 15.94C181.823 16.3 182.015 16.82 182.015 17.5V22H180.911V17.632C180.911 17.216 180.783 16.896 180.527 16.672C180.279 16.448 179.935 16.336 179.495 16.336C179.247 16.336 179.015 16.38 178.799 16.468C178.591 16.548 178.411 16.664 178.259 16.816C178.107 16.968 177.987 17.152 177.899 17.368C177.819 17.584 177.779 17.82 177.779 18.076V22H176.663V15.556H177.767V16.468ZM189.178 22.192C188.282 22.192 187.59 22 187.102 21.616C186.614 21.224 186.346 20.7 186.298 20.044H187.426C187.458 20.276 187.526 20.472 187.63 20.632C187.734 20.792 187.862 20.92 188.014 21.016C188.174 21.112 188.354 21.184 188.554 21.232C188.754 21.272 188.97 21.292 189.202 21.292C189.714 21.292 190.082 21.196 190.306 21.004C190.538 20.804 190.654 20.56 190.654 20.272C190.654 19.92 190.514 19.676 190.234 19.54C189.962 19.396 189.542 19.268 188.974 19.156C188.662 19.092 188.358 19.02 188.062 18.94C187.774 18.86 187.518 18.752 187.294 18.616C187.078 18.48 186.902 18.3 186.766 18.076C186.638 17.852 186.574 17.564 186.574 17.212C186.574 16.66 186.778 16.224 187.186 15.904C187.602 15.576 188.186 15.412 188.938 15.412C189.746 15.412 190.358 15.584 190.774 15.928C191.19 16.272 191.434 16.724 191.506 17.284H190.39C190.342 16.948 190.198 16.692 189.958 16.516C189.726 16.34 189.378 16.252 188.914 16.252C188.474 16.252 188.154 16.34 187.954 16.516C187.762 16.692 187.666 16.904 187.666 17.152C187.666 17.32 187.702 17.46 187.774 17.572C187.854 17.676 187.966 17.764 188.11 17.836C188.262 17.908 188.442 17.968 188.65 18.016C188.866 18.064 189.11 18.116 189.382 18.172C189.702 18.236 190.006 18.308 190.294 18.388C190.582 18.468 190.834 18.58 191.05 18.724C191.274 18.868 191.45 19.06 191.578 19.3C191.706 19.532 191.77 19.836 191.77 20.212C191.77 20.54 191.706 20.828 191.578 21.076C191.45 21.324 191.27 21.532 191.038 21.7C190.814 21.86 190.542 21.98 190.222 22.06C189.902 22.148 189.554 22.192 189.178 22.192ZM192.462 15.556H193.47V13.528H194.574V15.556H195.906V16.42H194.574V20.488C194.574 20.72 194.63 20.88 194.742 20.968C194.862 21.048 195.026 21.088 195.234 21.088C195.33 21.088 195.43 21.08 195.534 21.064C195.646 21.04 195.734 21.02 195.798 21.004H195.834V21.94C195.53 22.012 195.23 22.048 194.934 22.048C194.502 22.04 194.15 21.94 193.878 21.748C193.606 21.548 193.47 21.212 193.47 20.74V16.42H192.462V15.556ZM198.169 16.72H198.205C198.405 16.344 198.665 16.044 198.985 15.82C199.305 15.588 199.681 15.472 200.113 15.472C200.201 15.472 200.273 15.48 200.329 15.496C200.393 15.504 200.457 15.52 200.521 15.544V16.6H200.485C200.405 16.576 200.333 16.56 200.269 16.552C200.205 16.544 200.125 16.54 200.029 16.54C199.781 16.54 199.545 16.588 199.321 16.684C199.097 16.772 198.901 16.9 198.733 17.068C198.565 17.236 198.429 17.44 198.325 17.68C198.229 17.92 198.181 18.192 198.181 18.496V22H197.065V15.556H198.169V16.72ZM204.173 22.18C203.677 22.18 203.233 22.092 202.841 21.916C202.457 21.74 202.129 21.5 201.857 21.196C201.585 20.884 201.377 20.524 201.233 20.116C201.097 19.7 201.029 19.256 201.029 18.784C201.029 18.32 201.101 17.884 201.245 17.476C201.397 17.06 201.605 16.7 201.869 16.396C202.141 16.084 202.465 15.84 202.841 15.664C203.225 15.488 203.649 15.4 204.113 15.4C204.593 15.4 205.017 15.488 205.385 15.664C205.753 15.84 206.065 16.084 206.321 16.396C206.585 16.716 206.781 17.1 206.909 17.548C207.045 17.996 207.113 18.496 207.113 19.048H202.169C202.193 19.36 202.253 19.652 202.349 19.924C202.445 20.196 202.577 20.432 202.745 20.632C202.913 20.832 203.117 20.988 203.357 21.1C203.597 21.212 203.873 21.268 204.185 21.268C204.633 21.268 205.001 21.172 205.289 20.98C205.585 20.78 205.785 20.508 205.889 20.164H206.981C206.837 20.764 206.517 21.252 206.021 21.628C205.533 21.996 204.917 22.18 204.173 22.18ZM204.113 16.264C203.825 16.264 203.569 16.316 203.345 16.42C203.121 16.516 202.929 16.652 202.769 16.828C202.609 17.004 202.481 17.212 202.385 17.452C202.289 17.692 202.225 17.956 202.193 18.244H205.925C205.893 17.62 205.721 17.136 205.409 16.792C205.105 16.44 204.673 16.264 204.113 16.264ZM210.223 22.132C209.919 22.132 209.631 22.092 209.359 22.012C209.095 21.94 208.863 21.828 208.663 21.676C208.471 21.524 208.319 21.336 208.207 21.112C208.095 20.88 208.039 20.608 208.039 20.296C208.039 19.92 208.103 19.612 208.231 19.372C208.367 19.132 208.555 18.94 208.795 18.796C209.043 18.652 209.335 18.54 209.671 18.46C210.015 18.38 210.395 18.316 210.811 18.268C211.051 18.244 211.267 18.212 211.459 18.172C211.651 18.132 211.815 18.08 211.951 18.016C212.087 17.944 212.191 17.856 212.263 17.752C212.335 17.648 212.371 17.512 212.371 17.344C212.371 16.992 212.251 16.716 212.011 16.516C211.779 16.316 211.439 16.216 210.991 16.216C210.479 16.216 210.095 16.328 209.839 16.552C209.591 16.776 209.459 17.08 209.443 17.464H208.363C208.371 17.192 208.431 16.932 208.543 16.684C208.655 16.436 208.819 16.216 209.035 16.024C209.251 15.832 209.519 15.68 209.839 15.568C210.167 15.456 210.547 15.4 210.979 15.4C211.283 15.4 211.567 15.428 211.831 15.484C212.095 15.54 212.331 15.628 212.539 15.748C212.811 15.908 213.023 16.132 213.175 16.42C213.327 16.708 213.403 17.068 213.403 17.5V20.512C213.403 20.768 213.447 20.96 213.535 21.088C213.623 21.216 213.807 21.248 214.087 21.184H214.135V21.964C214.055 21.988 213.967 22.008 213.871 22.024C213.783 22.048 213.671 22.06 213.535 22.06C213.191 22.06 212.931 21.98 212.755 21.82C212.579 21.652 212.459 21.396 212.395 21.052H212.383C212.279 21.196 212.159 21.332 212.023 21.46C211.887 21.588 211.731 21.704 211.555 21.808C211.379 21.904 211.179 21.98 210.955 22.036C210.739 22.1 210.495 22.132 210.223 22.132ZM210.499 21.316C210.819 21.316 211.095 21.264 211.327 21.16C211.567 21.048 211.763 20.912 211.915 20.752C212.075 20.584 212.191 20.4 212.263 20.2C212.343 20 212.383 19.808 212.383 19.624V18.568C212.223 18.672 212.011 18.764 211.747 18.844C211.491 18.916 211.231 18.976 210.967 19.024C210.703 19.072 210.463 19.124 210.247 19.18C210.031 19.228 209.847 19.3 209.695 19.396C209.543 19.484 209.423 19.6 209.335 19.744C209.255 19.88 209.215 20.06 209.215 20.284C209.215 20.492 209.251 20.664 209.323 20.8C209.395 20.928 209.491 21.032 209.611 21.112C209.731 21.192 209.867 21.248 210.019 21.28C210.179 21.304 210.339 21.316 210.499 21.316ZM217.069 18.604L216.157 19.468V22H215.041V13.072H216.157V17.308C216.157 17.42 216.153 17.576 216.145 17.776C216.137 17.968 216.125 18.144 216.109 18.304L218.905 15.556H220.297L217.837 17.872L220.585 22H219.277L217.069 18.604ZM224.733 15.556H225.837V16.564H225.873C226.113 16.196 226.397 15.912 226.725 15.712C227.061 15.504 227.461 15.4 227.925 15.4C228.333 15.4 228.705 15.48 229.041 15.64C229.385 15.792 229.677 16.016 229.917 16.312C230.165 16.6 230.357 16.956 230.493 17.38C230.629 17.796 230.697 18.268 230.697 18.796C230.697 19.316 230.633 19.784 230.505 20.2C230.377 20.616 230.189 20.972 229.941 21.268C229.701 21.564 229.405 21.792 229.053 21.952C228.709 22.112 228.321 22.192 227.889 22.192C227.449 22.192 227.057 22.104 226.713 21.928C226.369 21.752 226.085 21.492 225.861 21.148H225.825C225.833 21.26 225.837 21.408 225.837 21.592C225.845 21.768 225.849 21.98 225.849 22.228V24.184H224.733V15.556ZM227.769 21.268C228.065 21.268 228.325 21.208 228.549 21.088C228.773 20.96 228.957 20.788 229.101 20.572C229.253 20.356 229.365 20.1 229.437 19.804C229.517 19.5 229.557 19.172 229.557 18.82C229.557 18.468 229.521 18.14 229.449 17.836C229.377 17.532 229.265 17.272 229.113 17.056C228.969 16.832 228.785 16.66 228.561 16.54C228.337 16.412 228.077 16.348 227.781 16.348C227.437 16.348 227.141 16.412 226.893 16.54C226.645 16.668 226.437 16.844 226.269 17.068C226.109 17.292 225.989 17.556 225.909 17.86C225.829 18.156 225.789 18.476 225.789 18.82C225.789 19.156 225.825 19.476 225.897 19.78C225.969 20.076 226.085 20.336 226.245 20.56C226.405 20.776 226.609 20.948 226.857 21.076C227.105 21.204 227.409 21.268 227.769 21.268ZM232.985 16.72H233.021C233.221 16.344 233.481 16.044 233.801 15.82C234.121 15.588 234.497 15.472 234.929 15.472C235.017 15.472 235.089 15.48 235.145 15.496C235.209 15.504 235.273 15.52 235.337 15.544V16.6H235.301C235.221 16.576 235.149 16.56 235.085 16.552C235.021 16.544 234.941 16.54 234.845 16.54C234.597 16.54 234.361 16.588 234.137 16.684C233.913 16.772 233.717 16.9 233.549 17.068C233.381 17.236 233.245 17.44 233.141 17.68C233.045 17.92 232.997 18.192 232.997 18.496V22H231.881V15.556H232.985V16.72ZM236.404 13.072H237.568V14.368H236.404V13.072ZM236.428 15.556H237.544V22H236.428V15.556ZM238.837 21.136L241.717 17.38C241.781 17.292 241.857 17.2 241.945 17.104C242.033 17 242.117 16.904 242.197 16.816C242.285 16.712 242.381 16.608 242.485 16.504V16.468C242.333 16.476 242.185 16.484 242.041 16.492C241.913 16.5 241.781 16.504 241.645 16.504C241.509 16.504 241.385 16.504 241.273 16.504H239.053V15.556H243.889V16.252L240.961 20.08C240.889 20.168 240.805 20.268 240.709 20.38C240.621 20.484 240.533 20.584 240.445 20.68C240.349 20.792 240.249 20.904 240.145 21.016V21.052C240.305 21.052 240.461 21.048 240.613 21.04C240.749 21.032 240.889 21.028 241.033 21.028C241.177 21.02 241.309 21.016 241.429 21.016H244.033V22H238.837V21.136ZM247.779 22.18C247.283 22.18 246.839 22.092 246.447 21.916C246.063 21.74 245.735 21.5 245.463 21.196C245.191 20.884 244.983 20.524 244.839 20.116C244.703 19.7 244.635 19.256 244.635 18.784C244.635 18.32 244.707 17.884 244.851 17.476C245.003 17.06 245.211 16.7 245.475 16.396C245.747 16.084 246.071 15.84 246.447 15.664C246.831 15.488 247.255 15.4 247.719 15.4C248.199 15.4 248.623 15.488 248.991 15.664C249.359 15.84 249.671 16.084 249.927 16.396C250.191 16.716 250.387 17.1 250.515 17.548C250.651 17.996 250.719 18.496 250.719 19.048H245.775C245.799 19.36 245.859 19.652 245.955 19.924C246.051 20.196 246.183 20.432 246.351 20.632C246.519 20.832 246.723 20.988 246.963 21.1C247.203 21.212 247.479 21.268 247.791 21.268C248.239 21.268 248.607 21.172 248.895 20.98C249.191 20.78 249.391 20.508 249.495 20.164H250.587C250.443 20.764 250.123 21.252 249.627 21.628C249.139 21.996 248.523 22.18 247.779 22.18ZM247.719 16.264C247.431 16.264 247.175 16.316 246.951 16.42C246.727 16.516 246.535 16.652 246.375 16.828C246.215 17.004 246.087 17.212 245.991 17.452C245.895 17.692 245.831 17.956 245.799 18.244H249.531C249.499 17.62 249.327 17.136 249.015 16.792C248.711 16.44 248.279 16.264 247.719 16.264Z" fill="white"/>
<path d="M304.276 26.3125C303.911 26.3125 303.601 26.1847 303.346 25.9291C303.09 25.6736 302.962 25.3633 302.962 24.9982V18.6023C302.203 18.3979 301.538 18.0109 300.969 17.4414C300.399 16.8719 300.115 16.1783 300.115 15.3606C300.115 14.5866 300.337 13.9003 300.783 13.3016C301.228 12.7029 301.801 12.2867 302.502 12.0531C302.838 11.3522 303.338 10.7827 304.003 10.3446C304.667 9.90654 305.415 9.6875 306.248 9.6875C306.759 9.6875 307.237 9.77512 307.682 9.95035C308.128 10.1256 308.533 10.3592 308.898 10.6513C309.044 10.6221 309.183 10.5965 309.314 10.5746C309.446 10.5527 309.592 10.5417 309.752 10.5417C310.716 10.5417 311.541 10.8849 312.228 11.5712C312.914 12.2575 313.257 13.0826 313.257 14.0463C313.257 14.3676 313.191 14.6889 313.06 15.0101C312.928 15.3314 312.761 15.5942 312.556 15.7987H314.571C314.936 15.7987 315.247 15.9264 315.502 16.182C315.758 16.4375 315.885 16.7478 315.885 17.1129V23.2459C315.885 23.611 315.758 23.9213 315.502 24.1768C315.247 24.4324 314.936 24.5602 314.571 24.5602H312.162V24.9982C312.162 25.3633 312.034 25.6736 311.779 25.9291C311.523 26.1847 311.213 26.3125 310.848 26.3125H304.276ZM301.429 15.3606C301.429 15.9155 301.655 16.3828 302.108 16.7624C302.561 17.1421 303.064 17.3319 303.619 17.3319C304.087 17.3319 304.51 17.2041 304.89 16.9486C305.269 16.6931 305.656 16.3243 306.051 15.8425C306.387 15.4336 306.788 15.0685 307.255 14.7473C307.723 14.426 308.263 14.2654 308.876 14.2654H311.943C311.943 13.6083 311.749 13.0424 311.362 12.5678C310.975 12.0933 310.439 11.856 309.752 11.856C309.49 11.856 309.23 11.8961 308.975 11.9764L308.592 12.0969L308.175 11.7465C307.912 11.5128 307.613 11.3303 307.277 11.1989C306.941 11.0674 306.598 11.0017 306.248 11.0017C305.737 11.0017 305.248 11.1331 304.78 11.396C304.313 11.6588 303.97 12.0239 303.751 12.4912L303.444 13.1483L302.743 13.3892C302.364 13.5207 302.05 13.7799 301.801 14.1668C301.553 14.5538 301.429 14.9517 301.429 15.3606ZM312.162 23.2459H314.571V17.1129H312.162V23.2459Z" fill="white"/>
<rect x="103.5" y="0.5" width="230" height="35" stroke="white"/>
<path d="M119.39 58.64C119.39 62.09 120.2 63.38 123.2 66.02C126.65 68.45 126.92 69.23 126.92 71.51C126.92 72.83 126.41 73.49 125.3 73.49C124.19 73.49 123.56 72.95 123.47 72.05C123.41 71.42 123.41 70.52 123.41 70.16H119.33C119.33 70.67 119.33 72.2 119.36 72.56C119.51 75.11 121.16 76.61 124.16 76.88V78.47H126.41V76.85C129.47 76.46 131.12 74.45 131.12 71.21C131.12 67.43 130.22 66.02 127.16 63.62C124.19 61.31 123.5 60.38 123.5 58.67C123.5 57.5 124.04 56.81 125.21 56.81C126.38 56.81 126.77 57.53 126.86 58.4C126.92 58.91 126.95 59.72 126.95 60.35H131C131 59.78 131 58.7 130.91 58.01C130.64 55.55 129.47 53.63 126.41 53.24V52.58H124.16V53.21C120.95 53.57 119.39 55.73 119.39 58.64ZM142.73 53.06H132.05V57.02H138.32L133.25 77H137.81L142.73 56.57V53.06ZM154.98 64.52C154.8 62.18 153.21 60.74 150.9 60.74C149.19 60.74 148.29 61.19 147.81 62.15V57.02H154.38V53.06H143.94V66.5H147.99C147.99 65.24 148.41 64.7 149.31 64.7C150.12 64.7 150.45 65.09 150.48 66.11C150.54 67.37 150.54 71.27 150.51 72.14C150.45 73.16 150.15 73.7 149.22 73.7C148.29 73.7 147.99 73.13 147.93 72.11C147.87 71.27 147.87 70.16 147.87 69.92H143.67C143.7 71.03 143.67 71.84 143.73 72.71C143.88 75.5 145.41 77.24 149.22 77.24C153.21 77.24 154.83 75.08 154.98 72.8C155.1 70.88 155.1 66.08 154.98 64.52ZM170.205 64.49C169.755 64.07 168.615 63.05 168.015 62.51C166.665 61.28 165.645 60.11 165.645 58.46C165.645 57.2 166.215 56.66 167.385 56.66C168.525 56.66 168.945 57.26 169.065 58.22C169.155 59 169.185 59.57 169.185 60.17H173.385C173.385 59.48 173.265 58.22 173.205 57.71C172.845 54.98 171.225 52.82 167.415 52.82C163.635 52.82 161.355 55.07 161.355 58.55C161.355 61.79 162.495 63.32 164.655 65.21C165.285 65.75 166.515 66.86 166.815 67.13C168.585 68.72 169.185 69.77 169.185 71.78C169.185 72.98 168.555 73.64 167.385 73.64C166.305 73.64 165.765 73.1 165.645 72.32C165.615 72.14 165.585 71.3 165.585 70.19H161.415C161.415 71.63 161.385 71.93 161.475 73.04C161.685 75.71 163.725 77.27 167.505 77.27C171.105 77.27 173.505 75.11 173.505 71.39C173.505 68.18 172.365 66.53 170.205 64.49ZM185.644 64.31C185.644 61.43 184.234 60.29 182.194 60.29C180.544 60.29 179.614 60.92 179.164 62.03V53.03H175.204V77H179.164V65.51C179.164 64.37 179.734 63.8 180.514 63.8C181.384 63.8 181.654 64.28 181.654 65.03C181.654 76.55 181.654 77 181.684 77H185.704C185.674 77 185.644 76.55 185.644 64.31ZM197.748 63.65C197.208 61.76 195.768 60.29 192.798 60.29C189.828 60.29 188.358 61.91 187.878 63.56C187.458 64.97 187.248 66.95 187.248 68.72C187.248 70.55 187.488 72.77 187.758 73.76C188.328 75.83 190.038 77.21 192.738 77.21C195.588 77.21 197.118 75.86 197.718 73.76C198.078 72.56 198.258 70.52 198.258 68.72C198.258 66.95 198.108 64.88 197.748 63.65ZM194.178 72.77C194.088 73.4 193.518 73.94 192.768 73.94C192.048 73.94 191.508 73.55 191.388 72.8C191.238 72.02 191.208 70.07 191.208 68.78C191.208 67.55 191.238 65.54 191.388 64.85C191.568 64.1 191.988 63.68 192.768 63.68C193.578 63.68 193.998 64.01 194.178 64.79C194.298 65.42 194.358 67.52 194.358 68.78C194.358 70.04 194.388 71.33 194.178 72.77ZM210.3 62.6C209.73 60.98 208.65 60.29 206.94 60.29C205.41 60.29 204.3 60.86 203.85 61.76L203.82 60.5H200.01V81.89H203.94V76.07C204.48 76.61 205.38 77.03 206.79 77.03C208.65 77.03 209.85 76.13 210.45 74.27C210.81 73.13 211.02 70.85 211.02 68.48C211.02 65.99 210.78 63.89 210.3 62.6ZM206.73 72.65C206.61 73.25 206.19 73.82 205.41 73.82C204.72 73.82 204.27 73.46 204.15 72.68C203.97 71.57 203.91 70.49 203.91 68.6C203.91 66.89 204.03 65.66 204.24 64.79C204.39 64.19 204.72 63.71 205.44 63.71C206.16 63.71 206.52 64.07 206.67 64.61C206.91 65.51 206.97 66.86 206.97 68.6C206.97 70.55 206.91 71.63 206.73 72.65ZM225.666 70.46C225.666 68.96 225.486 67.22 224.946 66.26C224.406 65.27 223.656 64.79 222.486 64.64C223.476 64.46 224.136 64.04 224.586 63.11C225.156 61.91 225.246 60.38 225.246 58.79C225.246 57.29 225.066 55.85 224.496 54.86C223.776 53.6 222.426 53.06 220.416 53.06H212.856V77H219.966C222.186 77 223.596 76.7 224.616 75.32C225.426 74.21 225.666 72.29 225.666 70.46ZM220.386 62.51C220.116 63.08 219.786 63.32 219.456 63.32H217.146V56.63H219.156C219.786 56.63 220.146 56.99 220.356 57.5C220.536 57.95 220.716 58.91 220.716 59.87C220.716 61.04 220.566 62.12 220.386 62.51ZM219.276 73.43H217.146V66.68H219.366C219.936 66.68 220.386 67.04 220.656 67.52C220.866 67.91 220.986 69.2 220.986 69.98C220.986 70.73 220.896 72.14 220.686 72.59C220.416 73.19 219.846 73.43 219.276 73.43ZM234.084 71.63C234.084 72.05 234.024 72.56 233.904 73.07C233.754 73.73 233.124 74 232.524 74C231.924 74 231.234 73.64 231.144 72.83C231.054 72.08 231.024 70.88 231.024 70.13H237.834C237.984 67.31 237.774 64.43 237.204 63.02C236.514 61.34 234.924 60.29 232.614 60.29C229.764 60.29 228.504 61.58 227.904 63.05C227.454 64.13 227.124 66.35 227.124 68.84C227.124 71.39 227.334 73.28 228.024 74.87C228.744 76.55 230.454 77.21 232.674 77.21C234.894 77.21 236.244 76.31 236.964 75.02C237.594 73.91 237.744 72.11 237.744 71.63H234.084ZM230.964 67.19C230.964 66.05 230.994 64.97 231.204 64.46C231.414 63.89 231.894 63.59 232.554 63.59C233.244 63.59 233.694 63.92 233.844 64.49C233.964 64.88 234.054 65.69 234.054 67.19H230.964ZM246.106 71.63C246.106 72.05 246.046 72.56 245.926 73.07C245.776 73.73 245.146 74 244.546 74C243.946 74 243.256 73.64 243.166 72.83C243.076 72.08 243.046 70.88 243.046 70.13H249.856C250.006 67.31 249.796 64.43 249.226 63.02C248.536 61.34 246.946 60.29 244.636 60.29C241.786 60.29 240.526 61.58 239.926 63.05C239.476 64.13 239.146 66.35 239.146 68.84C239.146 71.39 239.356 73.28 240.046 74.87C240.766 76.55 242.476 77.21 244.696 77.21C246.916 77.21 248.266 76.31 248.986 75.02C249.616 73.91 249.766 72.11 249.766 71.63H246.106ZM242.986 67.19C242.986 66.05 243.016 64.97 243.226 64.46C243.436 63.89 243.916 63.59 244.576 63.59C245.266 63.59 245.716 63.92 245.866 64.49C245.986 64.88 246.076 65.69 246.076 67.19H242.986ZM258.368 60.29C256.988 60.29 255.608 61.19 255.428 62.45V60.5H251.468V77H255.488V67.22C255.488 64.52 256.328 63.92 257.708 63.92C258.518 63.92 259.328 64.07 259.808 64.22V60.44C259.478 60.32 258.998 60.29 258.368 60.29ZM273.421 71.42V63.47H266.851V67.25H269.281C269.281 67.25 269.311 71.15 269.281 71.66C269.221 72.89 268.501 73.52 267.391 73.52C266.401 73.52 265.891 73.01 265.681 71.93C265.321 70.04 265.321 66.92 265.321 65.09C265.321 63.14 265.351 60.26 265.651 58.19C265.801 57.17 266.461 56.72 267.301 56.72C268.231 56.72 268.801 57.23 268.891 58.19C269.011 59.42 269.011 61.07 269.011 61.25H273.301C273.301 59.12 273.211 57.92 273.031 56.84C272.671 54.68 271.081 52.85 267.211 52.85C263.431 52.85 261.841 54.98 261.331 56.9C260.791 58.97 260.731 62.6 260.731 65.09C260.731 67.67 260.821 71.03 261.331 73.19C261.961 75.83 263.851 77.21 266.371 77.21C268.201 77.21 269.431 76.7 270.031 75.92L270.241 77H273.481C273.481 76.97 273.421 74.18 273.421 71.42ZM281.851 71.63C281.851 72.05 281.791 72.56 281.671 73.07C281.521 73.73 280.891 74 280.291 74C279.691 74 279.001 73.64 278.911 72.83C278.821 72.08 278.791 70.88 278.791 70.13H285.601C285.751 67.31 285.541 64.43 284.971 63.02C284.281 61.34 282.691 60.29 280.381 60.29C277.531 60.29 276.271 61.58 275.671 63.05C275.221 64.13 274.891 66.35 274.891 68.84C274.891 71.39 275.101 73.28 275.791 74.87C276.511 76.55 278.221 77.21 280.441 77.21C282.661 77.21 284.011 76.31 284.731 75.02C285.361 73.91 285.511 72.11 285.511 71.63H281.851ZM278.731 67.19C278.731 66.05 278.761 64.97 278.971 64.46C279.181 63.89 279.661 63.59 280.321 63.59C281.011 63.59 281.461 63.92 281.611 64.49C281.731 64.88 281.821 65.69 281.821 67.19H278.731ZM297.503 74.06C297.503 72.83 297.533 70.82 297.533 69.53C297.563 68 297.593 65.51 297.533 64.07C297.443 61.76 296.003 60.29 292.553 60.29C288.893 60.29 287.393 61.94 287.393 65.03V66.26H291.113V65.33C291.113 64.19 291.473 63.62 292.493 63.62C293.243 63.62 293.633 64.04 293.663 64.76C293.693 65.27 293.693 66.29 293.693 66.74C293.033 66.74 292.343 66.83 291.593 66.95C288.833 67.46 286.973 68.96 286.823 71.36C286.763 72.23 286.793 73.64 286.823 74C286.943 76.4 288.773 77.12 290.423 77.12C291.893 77.12 293.003 76.73 293.753 75.8C293.753 76.22 293.843 77 293.903 77H297.713C297.563 76.79 297.503 75.26 297.503 74.06ZM293.693 70.7C293.633 71.54 293.693 71.96 293.543 72.83C293.393 73.67 292.673 74 292.043 74C291.443 74 290.963 73.79 290.873 73.22C290.813 72.74 290.813 72.17 290.813 71.72C290.813 71.03 290.843 70.55 291.353 70.1C291.803 69.71 292.313 69.62 292.733 69.53C293.093 69.47 293.393 69.47 293.693 69.47C293.693 69.71 293.723 70.37 293.693 70.7ZM306.369 60.29C304.989 60.29 303.609 61.19 303.429 62.45V60.5H299.469V77H303.489V67.22C303.489 64.52 304.329 63.92 305.709 63.92C306.519 63.92 307.329 64.07 307.809 64.22V60.44C307.479 60.32 306.999 60.29 306.369 60.29ZM132.23 107.42V99.47H125.66V103.25H128.09C128.09 103.25 128.12 107.15 128.09 107.66C128.03 108.89 127.31 109.52 126.2 109.52C125.21 109.52 124.7 109.01 124.49 107.93C124.13 106.04 124.13 102.92 124.13 101.09C124.13 99.14 124.16 96.26 124.46 94.19C124.61 93.17 125.27 92.72 126.11 92.72C127.04 92.72 127.61 93.23 127.7 94.19C127.82 95.42 127.82 97.07 127.82 97.25H132.11C132.11 95.12 132.02 93.92 131.84 92.84C131.48 90.68 129.89 88.85 126.02 88.85C122.24 88.85 120.65 90.98 120.14 92.9C119.6 94.97 119.54 98.6 119.54 101.09C119.54 103.67 119.63 107.03 120.14 109.19C120.77 111.83 122.66 113.21 125.18 113.21C127.01 113.21 128.24 112.7 128.84 111.92L129.05 113H132.29C132.29 112.97 132.23 110.18 132.23 107.42ZM138.229 91.58H133.999V95.63H138.229V91.58ZM138.169 111.8V96.5H134.059V111.86C134.059 112.52 134.059 113 134.209 113H138.259C138.229 112.97 138.169 112.43 138.169 111.8ZM147.241 96.5H145.081V93.44C145.081 92.84 145.441 92.18 146.251 92.18C146.581 92.18 147.061 92.21 147.451 92.27V89C147.001 88.94 146.131 88.91 145.081 88.91C142.111 88.91 141.061 90.68 141.061 92.93V96.5H139.591V100.01H141.061V113H145.081V100.01H147.241V96.5ZM155.691 96.5H153.381V93.32L149.481 93.41C149.481 93.41 149.361 96.41 149.331 96.5H147.861V100.01H149.271V109.4C149.271 111.98 150.711 113.12 153.171 113.12C154.221 113.12 154.881 113.06 155.511 112.91V109.7C155.211 109.76 154.821 109.79 154.491 109.79C153.861 109.79 153.351 109.61 153.351 108.68V100.01H155.691V96.5ZM170.565 104.36C170.565 104.9 170.535 106.43 170.385 107.66C170.235 108.86 169.515 109.25 168.675 109.25C167.865 109.25 167.145 108.83 166.935 107.75C166.665 106.25 166.605 103.49 166.605 100.88C166.605 97.52 166.665 95.42 166.935 94.31C167.145 93.47 167.685 92.99 168.675 92.99C169.545 92.99 170.115 93.5 170.235 94.25C170.445 95.45 170.535 96.74 170.535 97.85H174.795C174.795 96.38 174.705 95 174.555 93.86C174.135 90.68 172.455 88.88 168.765 88.88C165.225 88.88 163.305 90.35 162.705 93.2C162.165 95.75 162.015 97.7 162.015 100.91C162.015 104.06 162.255 107.66 162.855 109.58C163.515 111.8 165.165 113.27 168.525 113.27C172.215 113.27 174.015 111.65 174.555 108.74C174.825 107.21 174.825 105.17 174.825 104.36H170.565ZM186.823 110.06C186.823 108.83 186.853 106.82 186.853 105.53C186.883 104 186.913 101.51 186.853 100.07C186.763 97.76 185.323 96.29 181.873 96.29C178.213 96.29 176.713 97.94 176.713 101.03V102.26H180.433V101.33C180.433 100.19 180.793 99.62 181.813 99.62C182.563 99.62 182.953 100.04 182.983 100.76C183.013 101.27 183.013 102.29 183.013 102.74C182.353 102.74 181.663 102.83 180.913 102.95C178.153 103.46 176.293 104.96 176.143 107.36C176.083 108.23 176.113 109.64 176.143 110C176.263 112.4 178.093 113.12 179.743 113.12C181.213 113.12 182.323 112.73 183.073 111.8C183.073 112.22 183.163 113 183.223 113H187.033C186.883 112.79 186.823 111.26 186.823 110.06ZM183.013 106.7C182.953 107.54 183.013 107.96 182.863 108.83C182.713 109.67 181.993 110 181.363 110C180.763 110 180.283 109.79 180.193 109.22C180.133 108.74 180.133 108.17 180.133 107.72C180.133 107.03 180.163 106.55 180.673 106.1C181.123 105.71 181.633 105.62 182.053 105.53C182.413 105.47 182.713 105.47 183.013 105.47C183.013 105.71 183.043 106.37 183.013 106.7ZM195.689 96.29C194.309 96.29 192.929 97.19 192.749 98.45V96.5H188.789V113H192.809V103.22C192.809 100.52 193.649 99.92 195.029 99.92C195.839 99.92 196.649 100.07 197.129 100.22V96.44C196.799 96.32 196.319 96.29 195.689 96.29ZM198.505 98.93C198.025 100.73 197.875 102.38 197.875 104.81C197.875 107.45 198.175 109.64 198.715 110.96C199.315 112.46 200.425 113.12 202.075 113.12C203.545 113.12 204.535 112.64 205.075 111.8L205.555 113H208.915C208.915 113 208.795 111.62 208.795 110.69V89.03H204.865V97.7C204.415 96.83 203.335 96.35 202.075 96.35C200.305 96.35 198.925 97.31 198.505 98.93ZM204.595 100.67C204.775 101.57 204.895 102.47 204.895 104.84C204.895 106.28 204.835 107.78 204.625 108.83C204.505 109.46 204.115 109.94 203.335 109.94C202.525 109.94 202.105 109.55 202.015 108.92C201.865 107.69 201.805 106.22 201.805 104.84C201.805 103.43 201.865 102.02 202.075 100.82C202.195 100.22 202.615 99.77 203.365 99.77C204.115 99.77 204.475 100.1 204.595 100.67ZM225.406 99.47H222.136V95.78H218.596V99.47H215.266V102.98H218.596V106.7H222.106V102.98H225.406V99.47ZM244.205 89.06H240.125V100.76L236.375 89.06H232.205V113H236.285V101.06L240.065 113H244.205V89.06ZM257.102 89.06H246.512V113H250.892V103.01H256.622V98.99H250.892V93.17H257.102V89.06ZM269.391 108.95H263.061V89.06H258.681V113H269.391V108.95ZM283.518 107.21L284.298 113H288.738L285.168 89.06H279.018L275.028 113H279.408L280.248 107.21H283.518ZM280.668 103.67C280.668 103.67 281.748 96.71 281.748 96.59C281.958 95.3 282.018 92.96 282.018 92.96C282.018 92.96 282.078 95.33 282.228 96.59C282.228 96.71 283.128 103.67 283.128 103.67H280.668ZM300.829 108.95H294.499V89.06H290.119V113H300.829V108.95ZM313.027 108.95H306.697V89.06H302.317V113H313.027V108.95ZM132.14 136.52C132.14 132.77 131.99 128.6 131.06 127.25C130.01 125.69 128.66 125.06 126.11 125.06H119.93V149H126.65C129.11 149 130.28 148.07 131.06 146.72C131.99 145.13 132.14 141.47 132.14 136.52ZM126.17 145.55H124.25V128.78H125.99C126.86 128.78 127.4 129.2 127.64 130.19C127.85 131 127.94 135.32 127.94 136.52C127.94 137.75 127.88 143.36 127.67 144.32C127.46 145.19 126.95 145.55 126.17 145.55ZM141.358 143.21L142.138 149H146.578L143.008 125.06H136.858L132.868 149H137.248L138.088 143.21H141.358ZM138.508 139.67C138.508 139.67 139.588 132.71 139.588 132.59C139.798 131.3 139.858 128.96 139.858 128.96C139.858 128.96 139.918 131.33 140.068 132.59C140.068 132.71 140.968 139.67 140.968 139.67H138.508ZM155.586 125.06C155.586 125.06 152.946 133.79 152.556 135.05C152.286 133.82 149.946 125.06 149.946 125.06H145.476L150.366 140.12V149H154.746V140.03L159.906 125.06H155.586ZM177.6 127.22C176.91 125.81 175.35 125.06 173.52 125.06H166.32V149H170.67V139.04H172.23L174.63 149H179.16L176.25 137.84C176.85 137.63 177.51 136.97 177.87 136.04C178.23 135.17 178.44 133.88 178.44 131.99C178.44 129.86 178.11 128.21 177.6 127.22ZM173.79 134.57C173.67 134.99 173.34 135.26 172.77 135.32C172.62 135.35 170.67 135.35 170.67 135.35V129.05H172.65C173.37 129.05 173.76 129.53 173.91 130.19C173.97 130.49 174.03 131.6 174.03 132.41C174.03 133.13 173.97 134.15 173.79 134.57ZM186.903 143.63C186.903 144.05 186.843 144.56 186.723 145.07C186.573 145.73 185.943 146 185.343 146C184.743 146 184.053 145.64 183.963 144.83C183.873 144.08 183.843 142.88 183.843 142.13H190.653C190.803 139.31 190.593 136.43 190.023 135.02C189.333 133.34 187.743 132.29 185.433 132.29C182.583 132.29 181.323 133.58 180.723 135.05C180.273 136.13 179.943 138.35 179.943 140.84C179.943 143.39 180.153 145.28 180.843 146.87C181.563 148.55 183.273 149.21 185.493 149.21C187.713 149.21 189.063 148.31 189.783 147.02C190.413 145.91 190.563 144.11 190.563 143.63H186.903ZM183.783 139.19C183.783 138.05 183.813 136.97 184.023 136.46C184.233 135.89 184.713 135.59 185.373 135.59C186.063 135.59 186.513 135.92 186.663 136.49C186.783 136.88 186.873 137.69 186.873 139.19H183.783ZM205.561 132.5L204.241 144.62L202.501 132.5H198.391L196.861 144.62L195.331 132.5H191.251L194.221 149H199.021C199.021 149 200.071 143.15 200.401 141.2C200.431 141.02 200.461 139.49 200.461 139.49C200.461 139.49 200.551 141.02 200.581 141.2C200.911 143.09 201.931 149 201.931 149H206.671L209.551 132.5H205.561ZM220.613 146.06C220.613 144.83 220.643 142.82 220.643 141.53C220.673 140 220.703 137.51 220.643 136.07C220.553 133.76 219.113 132.29 215.663 132.29C212.003 132.29 210.503 133.94 210.503 137.03V138.26H214.223V137.33C214.223 136.19 214.583 135.62 215.603 135.62C216.353 135.62 216.743 136.04 216.773 136.76C216.803 137.27 216.803 138.29 216.803 138.74C216.143 138.74 215.453 138.83 214.703 138.95C211.943 139.46 210.083 140.96 209.933 143.36C209.873 144.23 209.903 145.64 209.933 146C210.053 148.4 211.883 149.12 213.533 149.12C215.003 149.12 216.113 148.73 216.863 147.8C216.863 148.22 216.953 149 217.013 149H220.823C220.673 148.79 220.613 147.26 220.613 146.06ZM216.803 142.7C216.743 143.54 216.803 143.96 216.653 144.83C216.503 145.67 215.783 146 215.153 146C214.553 146 214.073 145.79 213.983 145.22C213.923 144.74 213.923 144.17 213.923 143.72C213.923 143.03 213.953 142.55 214.463 142.1C214.913 141.71 215.423 141.62 215.843 141.53C216.203 141.47 216.503 141.47 216.803 141.47C216.803 141.71 216.833 142.37 216.803 142.7ZM229.479 132.29C228.099 132.29 226.719 133.19 226.539 134.45V132.5H222.579V149H226.599V139.22C226.599 136.52 227.439 135.92 228.819 135.92C229.629 135.92 230.439 136.07 230.919 136.22V132.44C230.589 132.32 230.109 132.29 229.479 132.29ZM232.295 134.93C231.815 136.73 231.665 138.38 231.665 140.81C231.665 143.45 231.965 145.64 232.505 146.96C233.105 148.46 234.215 149.12 235.865 149.12C237.335 149.12 238.325 148.64 238.865 147.8L239.345 149H242.705C242.705 149 242.585 147.62 242.585 146.69V125.03H238.655V133.7C238.205 132.83 237.125 132.35 235.865 132.35C234.095 132.35 232.715 133.31 232.295 134.93ZM238.385 136.67C238.565 137.57 238.685 138.47 238.685 140.84C238.685 142.28 238.625 143.78 238.415 144.83C238.295 145.46 237.905 145.94 237.125 145.94C236.315 145.94 235.895 145.55 235.805 144.92C235.655 143.69 235.595 142.22 235.595 140.84C235.595 139.43 235.655 138.02 235.865 136.82C235.985 136.22 236.405 135.77 237.155 135.77C237.905 135.77 238.265 136.1 238.385 136.67ZM260.726 126.77C259.856 125.63 258.596 125.06 256.736 125.06H249.626V149H254.036V139.94C254.036 139.94 256.076 139.97 256.676 139.91C258.476 139.79 259.796 139.31 260.666 138.23C261.566 137.15 261.926 135.35 261.926 132.5C261.926 129.68 261.506 127.76 260.726 126.77ZM257.336 135.08C257.216 135.86 256.706 136.19 255.716 136.19H254.036V129.11H255.836C256.526 129.11 257.036 129.5 257.216 130.01C257.366 130.43 257.516 131.42 257.516 132.68C257.516 133.97 257.486 134.27 257.336 135.08ZM272.902 146.06C272.902 144.83 272.932 142.82 272.932 141.53C272.962 140 272.992 137.51 272.932 136.07C272.842 133.76 271.402 132.29 267.952 132.29C264.292 132.29 262.792 133.94 262.792 137.03V138.26H266.512V137.33C266.512 136.19 266.872 135.62 267.892 135.62C268.642 135.62 269.032 136.04 269.062 136.76C269.092 137.27 269.092 138.29 269.092 138.74C268.432 138.74 267.742 138.83 266.992 138.95C264.232 139.46 262.372 140.96 262.222 143.36C262.162 144.23 262.192 145.64 262.222 146C262.342 148.4 264.172 149.12 265.822 149.12C267.292 149.12 268.402 148.73 269.152 147.8C269.152 148.22 269.242 149 269.302 149H273.112C272.962 148.79 272.902 147.26 272.902 146.06ZM269.092 142.7C269.032 143.54 269.092 143.96 268.942 144.83C268.792 145.67 268.072 146 267.442 146C266.842 146 266.362 145.79 266.272 145.22C266.212 144.74 266.212 144.17 266.212 143.72C266.212 143.03 266.242 142.55 266.752 142.1C267.202 141.71 267.712 141.62 268.132 141.53C268.492 141.47 268.792 141.47 269.092 141.47C269.092 141.71 269.122 142.37 269.092 142.7ZM284.858 135.29C284.318 133.58 283.058 132.29 279.968 132.29C277.628 132.29 275.948 133.34 275.348 135.11C274.748 136.91 274.568 138.35 274.568 140.75C274.568 143.24 274.928 145.73 275.408 146.81C276.068 148.31 277.658 149.21 280.028 149.21C282.458 149.21 284.018 148.13 284.558 146.75C285.128 145.31 285.158 144.62 285.158 142.37H281.438C281.438 143.42 281.438 143.75 281.318 144.62C281.228 145.31 280.808 145.85 280.028 145.85C279.248 145.85 278.858 145.49 278.738 144.65C278.558 143.42 278.498 141.74 278.498 140.78C278.498 139.58 278.558 138.08 278.738 136.91C278.858 136.1 279.278 135.68 279.998 135.68C280.838 135.68 281.138 136.22 281.228 136.88C281.318 137.51 281.408 138.26 281.408 139.22H285.158C285.158 137.21 285.068 136.01 284.858 135.29ZM294.723 138.5L297.843 132.5H293.943L290.733 138.83V125.03H286.773V149H290.733V144.05L291.903 142.16L293.973 149H297.993L294.723 138.5Z" fill="white"/>
<rect x="103.5" y="0.5" width="230" height="167" stroke="white"/>
</g>
<rect x="0.5" y="0.5" width="333" height="167" rx="7.5" stroke="white"/>
<defs>
<clipPath id="clip0_4719_146418">
<rect width="334" height="168" rx="8" fill="white"/>
</clipPath>
</defs>
</svg>
