<svg width="100%" height="auto" viewBox="0 0 335 208" fill="none" xmlns="http://www.w3.org/2000/svg">
<g clip-path="url(#clip0_2388_31311)">
<path d="M44.3 49.2278H35.66C34.78 51.1478 32.54 54.8278 24.3 55.3878V64.5878L33.1 64.1878V113.148H44.3V49.2278ZM77.7338 68.0278C77.8938 64.9878 77.8938 62.0278 77.8138 60.2678C77.3338 53.4678 72.8538 48.6678 63.5738 48.6678C54.7738 48.6678 49.9738 53.8678 49.3338 59.7878C49.0938 61.6278 49.0938 65.3878 49.0938 69.0678H59.5738C59.5738 66.4278 59.6538 64.0278 59.7338 62.2678C59.8938 60.1078 61.0138 58.6678 63.3338 58.6678C65.4138 58.6678 66.5338 59.5478 66.7738 61.9478C66.9338 63.1478 66.8538 68.2678 66.6138 70.2678C66.2138 73.3878 65.0938 74.8278 61.5738 75.1478H55.4138V85.1478C55.4138 85.1478 60.9338 85.2278 61.2538 85.2278C65.3338 85.4678 66.9338 86.9078 67.2538 90.4278C67.4138 92.5878 67.4938 96.5078 67.2538 100.348C67.0938 103.068 65.7338 104.428 63.0938 104.428C60.9338 104.428 59.5738 103.468 59.3338 101.468C58.9338 98.1078 59.0938 97.3078 59.0938 92.8278H47.8938C47.8938 97.6278 47.9738 98.2678 48.3738 102.908C49.0138 109.788 54.0538 113.788 63.3338 113.788C72.7738 113.788 78.3738 108.988 79.0938 101.468C79.4138 98.0278 79.4138 92.0278 79.0938 88.8278C78.5338 83.1478 74.6138 79.4678 67.9738 78.9878C74.6938 78.2678 77.4138 73.3878 77.7338 68.0278Z" fill="white"/>
<path d="M38.1123 136.292V132.932H33.7023V134.514H36.4043C36.4043 134.514 36.4183 136.11 36.3903 136.25C36.2083 137.076 35.4663 137.706 34.2763 137.706C33.2963 137.706 32.6943 137.454 32.3163 136.908C31.8683 136.25 31.7423 135.284 31.7423 133.646C31.7423 132.036 31.9383 130.986 32.3303 130.384C32.7083 129.824 33.3103 129.586 34.1503 129.586C34.9343 129.586 35.4803 129.824 35.8023 130.3C36.0963 130.748 36.2643 131.406 36.2643 131.784H38.0563C38.0563 131.294 37.9163 130.328 37.5803 129.656C37.0763 128.662 36.0263 127.92 34.1083 127.92C32.2603 127.92 31.2243 128.69 30.6363 129.6C30.0203 130.566 29.8383 131.896 29.8383 133.618C29.8383 135.62 30.1463 136.908 30.6783 137.748C31.3223 138.756 32.4143 139.288 33.8843 139.288C35.3963 139.288 36.2083 138.756 36.5863 138.196L36.6703 139.148H38.1263C38.1263 139.106 38.1123 137.622 38.1123 136.292ZM46.8892 136.46L47.6592 139.148H49.5632L46.2872 128.06H43.9352L40.4352 139.148H42.3112L43.1232 136.46H46.8892ZM43.6272 134.864C43.6272 134.864 44.8452 130.846 44.8592 130.776C44.8872 130.664 45.0692 129.782 45.0692 129.782C45.0692 129.782 45.2512 130.664 45.2792 130.776C45.3072 130.86 46.4132 134.864 46.4132 134.864H43.6272ZM62.0557 128.06H59.6617L57.1697 136.306L54.7197 128.06H52.1857V139.148H53.9077V131.546L56.1897 139.148H57.9957L60.3197 131.518V139.148H62.0557V128.06ZM72.4428 137.468H67.3888V134.43H72.1628V132.736H67.3888V129.74H72.3868V128.06H65.5688V139.148H72.4428V137.468ZM27.3392 152.974C27.0312 152.862 26.3732 152.61 25.9812 152.484C24.6232 152.036 23.9512 151.602 23.9512 150.734C23.9512 149.992 24.4552 149.544 25.8692 149.544C27.0732 149.544 27.6332 149.88 27.8712 150.566C27.9552 150.818 27.9972 151.028 27.9972 151.266H29.8732C29.8732 150.846 29.8032 150.51 29.7052 150.174C29.3132 148.802 28.1932 147.934 25.9112 147.934C23.2932 147.934 22.0612 149.082 22.0612 150.79C22.0612 152.428 23.1392 153.408 24.8052 153.954C25.2672 154.108 25.9252 154.36 26.2052 154.458C27.6892 154.976 28.1372 155.424 28.1372 156.362C28.1372 157.202 27.5352 157.706 26.1212 157.706C24.9172 157.706 24.2172 157.398 24.0072 156.74C23.9232 156.474 23.8812 156.096 23.8812 155.9H22.0192C22.0192 156.222 22.0472 156.74 22.1452 157.118C22.4812 158.42 23.6012 159.288 26.1632 159.288C28.7532 159.288 30.0272 158.056 30.0272 156.208C30.0272 154.486 29.0752 153.576 27.3392 152.974ZM39.9652 148.06H32.1112V149.726H35.0932V159.148H36.9692V149.726H39.9652V148.06ZM49.8119 149.292C49.4199 148.508 48.6779 148.06 47.4599 148.06H42.6299V159.148H44.4499V154.528H46.8579L48.7899 159.148H50.8199L48.6359 154.122C49.1259 154.024 49.5739 153.674 49.8539 153.142C50.0639 152.722 50.1759 152.106 50.1759 151.266C50.1759 150.37 50.0919 149.824 49.8119 149.292ZM48.1879 152.456C48.0479 152.764 47.6979 152.932 47.2079 152.946H44.4639V149.712H47.0679C47.6979 149.712 48.0899 149.936 48.2439 150.356C48.3139 150.538 48.3419 151.028 48.3419 151.434C48.3419 151.77 48.2859 152.218 48.1879 152.456ZM60.5081 157.468H55.4541V154.43H60.2281V152.736H55.4541V149.74H60.4521V148.06H53.6341V159.148H60.5081V157.468ZM69.1703 156.46L69.9403 159.148H71.8443L68.5683 148.06H66.2163L62.7163 159.148H64.5923L65.4043 156.46H69.1703ZM65.9083 154.864C65.9083 154.864 67.1263 150.846 67.1403 150.776C67.1683 150.664 67.3503 149.782 67.3503 149.782C67.3503 149.782 67.5323 150.664 67.5603 150.776C67.5883 150.86 68.6943 154.864 68.6943 154.864H65.9083ZM78.4008 152.848L82.3908 148.06H80.3188L76.3148 152.778V148.06H74.4668V159.148H76.3148V155.186L77.1268 154.234L80.2908 159.148H82.4748L78.4008 152.848Z" fill="white"/>
<path d="M122.412 31.1478H123.77V21.1098H122.72C122.538 22.5658 121.362 23.0418 120.102 23.0698V23.9658H122.412V31.1478ZM129.392 31.3718C131.422 31.3718 133.004 30.2938 133.004 28.3478C133.004 27.0598 132.388 26.1778 131.002 25.8138V25.7718C131.982 25.4498 132.654 24.8058 132.654 23.6858C132.654 21.9638 131.17 20.9418 129.294 20.9418C127.068 20.9418 125.738 22.2718 125.724 24.1478H127.026C127.04 22.9018 127.852 21.9918 129.252 21.9918C130.414 21.9918 131.338 22.6218 131.338 23.6718C131.338 24.7078 130.568 25.3378 129.084 25.3378H128.468V26.3738H129.098C130.708 26.3738 131.618 27.0178 131.618 28.2358C131.618 29.5938 130.68 30.2658 129.35 30.2658C127.74 30.2658 126.76 29.3838 126.718 27.9138H125.402C125.416 29.0198 125.85 29.8878 126.578 30.4758C127.292 31.0638 128.272 31.3718 129.392 31.3718ZM141.388 33.7798C142.396 33.7798 143.236 33.5558 143.824 33.0658C144.398 32.5758 144.734 31.8338 144.734 30.8398V23.6298H143.446V24.6238H143.418C142.942 23.8678 142.214 23.4478 141.136 23.4478C139.372 23.4478 137.916 24.8198 137.916 27.1298C137.916 29.3138 139.288 30.8118 141.206 30.8118C142.27 30.8118 142.928 30.3498 143.446 29.6078H143.474C143.46 29.8458 143.446 30.2518 143.446 30.6858V30.8958C143.446 32.1698 142.704 32.7718 141.36 32.7718C140.24 32.7718 139.484 32.4498 139.372 31.6658H138.154C138.294 32.9958 139.414 33.7798 141.388 33.7798ZM141.332 29.7478C139.974 29.7478 139.246 28.7398 139.246 27.1438C139.246 25.5618 139.946 24.5258 141.318 24.5258C142.816 24.5258 143.53 25.4918 143.53 27.0738C143.53 28.5998 142.97 29.7478 141.332 29.7478ZM148.777 31.3018C150.051 31.3018 150.821 30.6998 151.297 30.0418H151.311C151.451 30.8398 151.843 31.2178 152.641 31.2178C152.949 31.2178 153.159 31.1618 153.341 31.1058V30.1958H153.285C152.627 30.3358 152.487 30.0138 152.487 29.4118V25.8978C152.487 24.8898 152.109 24.2318 151.479 23.8538C151.003 23.5738 150.373 23.4478 149.659 23.4478C147.629 23.4478 146.663 24.5818 146.607 25.8558H147.867C147.909 24.9598 148.483 24.3998 149.673 24.3998C150.709 24.3998 151.283 24.9038 151.283 25.7158C151.283 26.4858 150.569 26.6678 149.463 26.7938C147.517 27.0318 146.229 27.4098 146.229 29.1598C146.229 30.6018 147.349 31.3018 148.777 31.3018ZM149.099 30.3498C148.343 30.3498 147.601 30.1118 147.601 29.1458C147.601 28.1098 148.413 27.8858 149.645 27.6758C150.261 27.5638 150.919 27.3818 151.297 27.1438V28.3758C151.297 29.2438 150.597 30.3498 149.099 30.3498ZM154.398 31.1478H155.7V26.5138C155.7 25.3658 156.666 24.5398 157.562 24.5398C158.332 24.5398 158.85 25.0858 158.85 26.0098V31.1478H160.138V26.5138C160.138 25.3658 160.964 24.5398 161.916 24.5398C162.672 24.5398 163.274 25.0858 163.274 26.0098V31.1478H164.576V25.8978C164.576 24.3298 163.624 23.4478 162.252 23.4478C161.342 23.4478 160.46 23.9098 159.928 24.8478H159.9C159.592 23.9238 158.864 23.4478 157.954 23.4478C156.988 23.4478 156.19 23.9378 155.728 24.7498H155.686V23.6298H154.398V31.1478ZM169.582 31.3578C171.318 31.3578 172.522 30.4058 172.858 29.0058H171.584C171.346 29.8038 170.632 30.2938 169.596 30.2938C168.14 30.2938 167.342 29.1738 167.244 27.7038H173.012C173.012 26.4298 172.704 25.3518 172.088 24.6098C171.5 23.8818 170.632 23.4478 169.512 23.4478C167.356 23.4478 165.914 25.2118 165.914 27.3958C165.914 29.5938 167.272 31.3578 169.582 31.3578ZM169.512 24.4558C170.814 24.4558 171.556 25.3238 171.626 26.7658H167.272C167.44 25.4358 168.154 24.4558 169.512 24.4558ZM179.743 31.1478H181.059L182.193 27.0038C182.375 26.2898 182.655 24.9038 182.655 24.9038H182.683C182.683 24.9038 182.977 26.2758 183.159 27.0038L184.265 31.1478H185.567L188.017 23.6298H186.673L185.427 27.8018C185.147 28.7258 184.937 30.0138 184.937 30.0138H184.909C184.909 30.0138 184.643 28.6278 184.433 27.8298L183.313 23.6298H182.081L180.947 27.8298C180.695 28.7398 180.443 29.9998 180.443 29.9998H180.415C180.415 29.9998 180.163 28.6558 179.925 27.8018L178.749 23.6298H177.363L179.743 31.1478ZM189.028 22.2438H190.386V20.7318H189.028V22.2438ZM189.056 31.1478H190.358V23.6298H189.056V31.1478ZM193.434 23.6298H192.146V31.1478H193.448V26.5698C193.448 25.3658 194.288 24.5398 195.45 24.5398C196.472 24.5398 197.102 25.0858 197.102 26.0518V31.1478H198.39V25.8978C198.39 24.3298 197.424 23.4478 195.856 23.4478C194.764 23.4478 194.022 23.9378 193.476 24.6938H193.434V23.6298ZM206.747 31.3718C208.511 31.3718 209.771 30.5878 209.771 29.0618C209.771 27.3118 208.483 26.9758 206.985 26.6818C205.711 26.4298 204.983 26.2758 204.983 25.4918C204.983 24.9178 205.417 24.4418 206.439 24.4418C207.517 24.4418 208.049 24.8758 208.161 25.6458H209.463C209.295 24.3438 208.357 23.4618 206.467 23.4618C204.717 23.4618 203.709 24.2738 203.709 25.5618C203.709 27.2138 205.039 27.5218 206.509 27.8298C207.839 28.0958 208.469 28.3058 208.469 29.1318C208.469 29.8038 207.965 30.3218 206.775 30.3218C205.697 30.3218 204.857 29.9578 204.703 28.8658H203.387C203.499 30.3918 204.675 31.3718 206.747 31.3718ZM210.579 24.6378H211.755V29.6778C211.755 30.7838 212.455 31.1898 213.463 31.2038C213.799 31.2038 214.163 31.1618 214.513 31.0778V29.9858H214.471C214.331 30.0278 214.037 30.0838 213.813 30.0838C213.337 30.0838 213.043 29.9298 213.043 29.3838V24.6378H214.597V23.6298H213.043V21.2638H211.755V23.6298H210.579V24.6378ZM217.237 23.6298H215.949V31.1478H217.251V27.0598C217.251 25.6458 218.245 24.7778 219.407 24.7778C219.631 24.7778 219.757 24.7918 219.939 24.8478H219.981V23.6158C219.841 23.5598 219.715 23.5318 219.505 23.5318C218.511 23.5318 217.741 24.1198 217.279 24.9878H217.237V23.6298ZM224.242 31.3578C225.978 31.3578 227.182 30.4058 227.518 29.0058H226.244C226.006 29.8038 225.292 30.2938 224.256 30.2938C222.8 30.2938 222.002 29.1738 221.904 27.7038H227.672C227.672 26.4298 227.364 25.3518 226.748 24.6098C226.16 23.8818 225.292 23.4478 224.172 23.4478C222.016 23.4478 220.574 25.2118 220.574 27.3958C220.574 29.5938 221.932 31.3578 224.242 31.3578ZM224.172 24.4558C225.474 24.4558 226.216 25.3238 226.286 26.7658H221.932C222.1 25.4358 222.814 24.4558 224.172 24.4558ZM231.3 31.3018C232.574 31.3018 233.344 30.6998 233.82 30.0418H233.834C233.974 30.8398 234.366 31.2178 235.164 31.2178C235.472 31.2178 235.682 31.1618 235.864 31.1058V30.1958H235.808C235.15 30.3358 235.01 30.0138 235.01 29.4118V25.8978C235.01 24.8898 234.632 24.2318 234.002 23.8538C233.526 23.5738 232.896 23.4478 232.182 23.4478C230.152 23.4478 229.186 24.5818 229.13 25.8558H230.39C230.432 24.9598 231.006 24.3998 232.196 24.3998C233.232 24.3998 233.806 24.9038 233.806 25.7158C233.806 26.4858 233.092 26.6678 231.986 26.7938C230.04 27.0318 228.752 27.4098 228.752 29.1598C228.752 30.6018 229.872 31.3018 231.3 31.3018ZM231.622 30.3498C230.866 30.3498 230.124 30.1118 230.124 29.1458C230.124 28.1098 230.936 27.8858 232.168 27.6758C232.784 27.5638 233.442 27.3818 233.82 27.1438V28.3758C233.82 29.2438 233.12 30.3498 231.622 30.3498ZM241.863 31.1478H243.389L240.183 26.3318L243.053 23.6298H241.429L238.167 26.8358C238.195 26.4718 238.223 25.9398 238.223 25.6738V20.7318H236.921V31.1478H238.223V28.1938L239.287 27.1858L241.863 31.1478ZM248.228 33.6958H249.53V31.4138C249.53 30.8398 249.516 30.4198 249.502 30.1538H249.544C250.062 30.9518 250.888 31.3718 251.91 31.3718C253.94 31.3718 255.186 29.8178 255.186 27.4098C255.186 24.9318 253.87 23.4478 251.952 23.4478C250.874 23.4478 250.118 23.9518 249.558 24.8058H249.516V23.6298H248.228V33.6958ZM251.77 30.2938C250.104 30.2938 249.46 29.0198 249.46 27.4378C249.46 25.8418 250.188 24.5538 251.784 24.5538C253.17 24.5538 253.856 25.7858 253.856 27.4378C253.856 29.0758 253.156 30.2938 251.77 30.2938ZM257.856 23.6298H256.568V31.1478H257.87V27.0598C257.87 25.6458 258.864 24.7778 260.026 24.7778C260.25 24.7778 260.376 24.7918 260.558 24.8478H260.6V23.6158C260.46 23.5598 260.334 23.5318 260.124 23.5318C259.13 23.5318 258.36 24.1198 257.898 24.9878H257.856V23.6298ZM261.845 22.2438H263.203V20.7318H261.845V22.2438ZM261.873 31.1478H263.175V23.6298H261.873V31.1478ZM264.682 31.1478H270.744V29.9998H267.706C267.16 29.9998 266.208 30.0418 266.208 30.0418V29.9998C266.208 29.9998 266.838 29.3138 267.16 28.9078L270.576 24.4418V23.6298H264.934V24.7358H267.524C268.042 24.7358 268.938 24.6938 268.938 24.6938V24.7358C268.938 24.7358 268.35 25.3658 268.042 25.7578L264.682 30.1398V31.1478ZM275.115 31.3578C276.851 31.3578 278.055 30.4058 278.391 29.0058H277.117C276.879 29.8038 276.165 30.2938 275.129 30.2938C273.673 30.2938 272.875 29.1738 272.777 27.7038H278.545C278.545 26.4298 278.237 25.3518 277.621 24.6098C277.033 23.8818 276.165 23.4478 275.045 23.4478C272.889 23.4478 271.447 25.2118 271.447 27.3958C271.447 29.5938 272.805 31.3578 275.115 31.3578ZM275.045 24.4558C276.347 24.4558 277.089 25.3238 277.159 26.7658H272.805C272.973 25.4358 273.687 24.4558 275.045 24.4558Z" fill="white"/>
<g clip-path="url(#clip1_2388_31311)">
<path fill-rule="evenodd" clip-rule="evenodd" d="M318.146 31.097C318.235 30.9509 318.28 30.7668 318.28 30.5445V21.7608C318.28 21.5385 318.235 21.3575 318.146 21.2178C318.058 21.0717 317.918 20.9542 317.727 20.8653C317.194 20.5985 316.759 20.2905 316.422 19.9412C316.079 19.5855 315.746 19.0869 315.422 18.4455C315.219 18.0834 314.923 17.9024 314.536 17.9024H298.464C298.077 17.9024 297.785 18.0834 297.588 18.4455C297.257 19.0869 296.924 19.5855 296.587 19.9412C296.244 20.2905 295.806 20.5985 295.273 20.8653C295.082 20.9542 294.942 21.0717 294.853 21.2178C294.765 21.3575 294.72 21.5385 294.72 21.7608V30.5445C294.72 30.7668 294.765 30.9509 294.853 31.097C294.942 31.2367 295.082 31.3511 295.273 31.44C295.806 31.7004 296.244 32.0084 296.587 32.3641C296.924 32.7134 297.257 33.212 297.588 33.8598C297.785 34.2155 298.077 34.3933 298.464 34.3933H314.536C314.923 34.3933 315.219 34.2155 315.422 33.8598C315.746 33.212 316.079 32.7134 316.422 32.3641C316.759 32.0084 317.194 31.7004 317.727 31.44C317.918 31.3511 318.058 31.2367 318.146 31.097ZM310.54 26.4784V27.2926C310.54 27.4331 310.427 27.5469 310.286 27.5469C310.146 27.5469 310.032 27.4332 310.032 27.2926V26.4784H308.688V27.2926C308.688 27.4331 308.574 27.5469 308.434 27.5469C308.293 27.5469 308.179 27.4332 308.179 27.2926V26.4784H306.836V27.2926C306.836 27.4331 306.722 27.5469 306.582 27.5469C306.441 27.5469 306.327 27.4332 306.327 27.2926V26.4784H304.984V27.2926C304.984 27.4331 304.87 27.5469 304.73 27.5469C304.589 27.5469 304.476 27.4332 304.476 27.2926V26.4784H303.132V27.2926C303.132 27.4331 303.018 27.5469 302.878 27.5469C302.738 27.5469 302.624 27.4332 302.624 27.2926V26.4784H301.614L301.614 30.1262C303.093 30.926 304.783 31.3846 306.582 31.3846C308.381 31.3846 310.071 30.9257 311.55 30.1262V26.4784H310.54ZM315.651 26.1477C315.652 25.1561 313.824 23.6728 312.568 22.795V29.5011C313.824 28.6231 315.65 27.2401 315.651 26.1477ZM302.624 25.1559V25.9699L301.614 25.9697V22.1694C303.093 21.3699 304.783 20.911 306.582 20.911C308.382 20.911 310.072 21.3697 311.55 22.1693V25.9699H310.54V25.1559C310.54 25.0154 310.426 24.9015 310.286 24.9015C310.145 24.9015 310.031 25.0154 310.031 25.1559V25.9699H308.688V25.1559C308.688 25.0154 308.574 24.9015 308.434 24.9015C308.293 24.9015 308.179 25.0154 308.179 25.1559V25.9699H306.836V25.1559C306.836 25.0154 306.722 24.9015 306.582 24.9015C306.441 24.9015 306.327 25.0154 306.327 25.1559V25.9699H304.984V25.1559C304.984 25.0154 304.87 24.9015 304.73 24.9015C304.589 24.9015 304.476 25.0154 304.476 25.1559V25.9699H303.132V25.1559C303.132 25.0154 303.018 24.9015 302.878 24.9015C302.738 24.9015 302.624 25.0154 302.624 25.1559ZM297.349 26.1477C297.348 25.1561 299.176 23.6728 300.432 22.795V29.5011C299.176 28.6231 297.35 27.2401 297.349 26.1477Z" fill="white"/>
</g>
<rect x="104" y="1.2652" width="230" height="49.7652" stroke="white"/>
<path d="M131.632 69.8024C131.632 69.8024 128.464 80.2784 127.996 81.7904C127.672 80.3144 124.864 69.8024 124.864 69.8024H119.5L125.368 87.8744V98.5304H130.624V87.7664L136.816 69.8024H131.632ZM142.71 92.0864C142.71 92.5904 142.638 93.2024 142.494 93.8144C142.314 94.6064 141.558 94.9304 140.838 94.9304C140.118 94.9304 139.29 94.4984 139.182 93.5264C139.074 92.6264 139.038 91.1864 139.038 90.2864H147.21C147.39 86.9024 147.138 83.4464 146.454 81.7544C145.626 79.7384 143.718 78.4784 140.946 78.4784C137.526 78.4784 136.014 80.0264 135.294 81.7904C134.754 83.0864 134.358 85.7504 134.358 88.7384C134.358 91.7984 134.61 94.0664 135.438 95.9744C136.302 97.9904 138.354 98.7824 141.018 98.7824C143.682 98.7824 145.302 97.7024 146.166 96.1544C146.922 94.8224 147.102 92.6624 147.102 92.0864H142.71ZM138.966 86.7584C138.966 85.3904 139.002 84.0944 139.254 83.4824C139.506 82.7984 140.082 82.4384 140.874 82.4384C141.702 82.4384 142.242 82.8344 142.422 83.5184C142.566 83.9864 142.674 84.9584 142.674 86.7584H138.966ZM161.313 95.0024C161.313 93.5264 161.349 91.1144 161.349 89.5664C161.385 87.7304 161.421 84.7424 161.349 83.0144C161.241 80.2424 159.513 78.4784 155.373 78.4784C150.981 78.4784 149.181 80.4584 149.181 84.1664V85.6424H153.645V84.5264C153.645 83.1584 154.077 82.4744 155.301 82.4744C156.201 82.4744 156.669 82.9784 156.705 83.8424C156.741 84.4544 156.741 85.6784 156.741 86.2184C155.949 86.2184 155.121 86.3264 154.221 86.4704C150.909 87.0824 148.677 88.8824 148.497 91.7624C148.425 92.8064 148.461 94.4984 148.497 94.9304C148.641 97.8104 150.837 98.6744 152.817 98.6744C154.581 98.6744 155.913 98.2064 156.813 97.0904C156.813 97.5944 156.921 98.5304 156.993 98.5304H161.565C161.385 98.2784 161.313 96.4424 161.313 95.0024ZM156.741 90.9704C156.669 91.9784 156.741 92.4824 156.561 93.5264C156.381 94.5344 155.517 94.9304 154.761 94.9304C154.041 94.9304 153.465 94.6784 153.357 93.9944C153.285 93.4184 153.285 92.7344 153.285 92.1944C153.285 91.3664 153.321 90.7904 153.933 90.2504C154.473 89.7824 155.085 89.6744 155.589 89.5664C156.021 89.4944 156.381 89.4944 156.741 89.4944C156.741 89.7824 156.777 90.5744 156.741 90.9704ZM171.773 78.4784C170.117 78.4784 168.461 79.5584 168.245 81.0704V78.7304H163.493V98.5304H168.317V86.7944C168.317 83.5544 169.325 82.8344 170.981 82.8344C171.953 82.8344 172.925 83.0144 173.501 83.1944V78.6584C173.105 78.5144 172.529 78.4784 171.773 78.4784ZM175.895 75.8144L175.967 75.9584L174.599 78.3344L176.795 79.8824L179.891 76.0304V69.8024H174.851V75.8144H175.895ZM188.032 87.3344C187.132 86.8664 186.232 86.4704 185.332 86.0384C184.18 85.4984 183.784 84.8864 183.784 83.9144C183.784 83.0864 184.144 82.4024 185.26 82.4024C186.268 82.4024 186.592 82.9784 186.664 83.5904C186.7 83.7344 186.736 84.8504 186.736 85.0664H191.092C191.092 84.6704 190.984 82.5824 190.876 82.0064C190.408 79.8104 188.572 78.4424 185.08 78.4424C181.264 78.4424 179.32 80.6744 179.32 83.8064C179.32 86.7584 180.184 88.5944 182.776 89.8184C183.496 90.1424 184.468 90.6104 185.08 90.8624C186.448 91.4024 186.916 92.0864 186.916 93.3104C186.916 94.4264 186.232 94.9664 185.332 94.9664C184.468 94.9664 183.784 94.6064 183.712 93.7784C183.676 93.1664 183.64 92.5544 183.64 92.3024H179.176C179.176 92.9144 179.212 94.1744 179.284 94.8224C179.608 97.4864 181.408 98.8184 185.44 98.8184C189.004 98.8184 191.488 96.9104 191.488 93.1664C191.488 90.1424 190.552 88.5944 188.032 87.3344ZM217.645 69.8024C217.645 69.8024 215.629 87.9104 215.629 90.7544C215.629 87.9104 213.145 69.8024 213.145 69.8024H207.925C207.925 69.8024 205.585 87.9104 205.585 90.7544C205.585 87.9104 203.497 69.8024 203.497 69.8024H198.133L202.165 98.5304H208.249C208.249 98.5304 210.445 83.6264 210.481 80.6384C210.625 83.6264 212.713 98.5304 212.713 98.5304H218.941L222.865 69.8024H217.645ZM235.223 82.5104C234.575 80.2424 232.847 78.4784 229.283 78.4784C225.719 78.4784 223.955 80.4224 223.379 82.4024C222.875 84.0944 222.623 86.4704 222.623 88.5944C222.623 90.7904 222.911 93.4544 223.235 94.6424C223.919 97.1264 225.971 98.7824 229.211 98.7824C232.631 98.7824 234.467 97.1624 235.187 94.6424C235.619 93.2024 235.835 90.7544 235.835 88.5944C235.835 86.4704 235.655 83.9864 235.223 82.5104ZM230.939 93.4544C230.831 94.2104 230.147 94.8584 229.247 94.8584C228.383 94.8584 227.735 94.3904 227.591 93.4904C227.411 92.5544 227.375 90.2144 227.375 88.6664C227.375 87.1904 227.411 84.7784 227.591 83.9504C227.807 83.0504 228.311 82.5464 229.247 82.5464C230.219 82.5464 230.723 82.9424 230.939 83.8784C231.083 84.6344 231.155 87.1544 231.155 88.6664C231.155 90.1784 231.191 91.7264 230.939 93.4544ZM246.038 78.4784C244.382 78.4784 242.726 79.5584 242.51 81.0704V78.7304H237.758V98.5304H242.582V86.7944C242.582 83.5544 243.59 82.8344 245.246 82.8344C246.218 82.8344 247.19 83.0144 247.766 83.1944V78.6584C247.37 78.5144 246.794 78.4784 246.038 78.4784ZM258.111 78.7304H255.339V74.9144L250.659 75.0224C250.659 75.0224 250.515 78.6224 250.479 78.7304H248.715V82.9424H250.407V94.2104C250.407 97.3064 252.135 98.6744 255.087 98.6744C256.347 98.6744 257.139 98.6024 257.895 98.4224V94.5704C257.535 94.6424 257.067 94.6784 256.671 94.6784C255.915 94.6784 255.303 94.4624 255.303 93.3464V82.9424H258.111V78.7304ZM272.311 83.3024C272.311 79.8464 270.619 78.4784 268.171 78.4784C266.191 78.4784 265.075 79.2344 264.535 80.5664V69.7664H259.783V98.5304H264.535V84.7424C264.535 83.3744 265.219 82.6904 266.155 82.6904C267.199 82.6904 267.523 83.2664 267.523 84.1664C267.523 97.9904 267.523 98.5304 267.559 98.5304H272.383C272.347 98.5304 272.311 97.9904 272.311 83.3024ZM292.5 82.5104C291.852 80.2424 290.124 78.4784 286.56 78.4784C282.996 78.4784 281.232 80.4224 280.656 82.4024C280.152 84.0944 279.9 86.4704 279.9 88.5944C279.9 90.7904 280.188 93.4544 280.512 94.6424C281.196 97.1264 283.248 98.7824 286.488 98.7824C289.908 98.7824 291.744 97.1624 292.464 94.6424C292.896 93.2024 293.112 90.7544 293.112 88.5944C293.112 86.4704 292.932 83.9864 292.5 82.5104ZM288.216 93.4544C288.108 94.2104 287.424 94.8584 286.524 94.8584C285.66 94.8584 285.012 94.3904 284.868 93.4904C284.688 92.5544 284.652 90.2144 284.652 88.6664C284.652 87.1904 284.688 84.7784 284.868 83.9504C285.084 83.0504 285.588 82.5464 286.524 82.5464C287.496 82.5464 288 82.9424 288.216 83.8784C288.36 84.6344 288.432 87.1544 288.432 88.6664C288.432 90.1784 288.468 91.7264 288.216 93.4544ZM303.459 78.7304H300.867V75.0584C300.867 74.3384 301.299 73.5464 302.271 73.5464C302.667 73.5464 303.243 73.5824 303.711 73.6544V69.7304C303.171 69.6584 302.127 69.6224 300.867 69.6224C297.303 69.6224 296.043 71.7464 296.043 74.4464V78.7304H294.279V82.9424H296.043V98.5304H300.867V82.9424H303.459V78.7304ZM135.988 134.682C135.988 132.882 135.772 130.794 135.124 129.642C134.476 128.454 133.576 127.878 132.172 127.698C133.36 127.482 134.152 126.978 134.692 125.862C135.376 124.422 135.484 122.586 135.484 120.678C135.484 118.878 135.268 117.15 134.584 115.962C133.72 114.45 132.1 113.802 129.688 113.802H120.616V142.53H129.148C131.812 142.53 133.504 142.17 134.728 140.514C135.7 139.182 135.988 136.878 135.988 134.682ZM129.652 125.142C129.328 125.826 128.932 126.114 128.536 126.114H125.764V118.086H128.176C128.932 118.086 129.364 118.518 129.616 119.13C129.832 119.67 130.048 120.822 130.048 121.974C130.048 123.378 129.868 124.674 129.652 125.142ZM128.32 138.246H125.764V130.146H128.428C129.112 130.146 129.652 130.578 129.976 131.154C130.228 131.622 130.372 133.17 130.372 134.106C130.372 135.006 130.264 136.698 130.012 137.238C129.688 137.958 129.004 138.246 128.32 138.246ZM145.909 136.086C145.909 136.59 145.837 137.202 145.693 137.814C145.513 138.606 144.757 138.93 144.037 138.93C143.317 138.93 142.489 138.498 142.381 137.526C142.273 136.626 142.237 135.186 142.237 134.286H150.409C150.589 130.902 150.337 127.446 149.653 125.754C148.825 123.738 146.917 122.478 144.145 122.478C140.725 122.478 139.213 124.026 138.493 125.79C137.953 127.086 137.557 129.75 137.557 132.738C137.557 135.798 137.809 138.066 138.637 139.974C139.501 141.99 141.553 142.782 144.217 142.782C146.881 142.782 148.501 141.702 149.365 140.154C150.121 138.822 150.301 136.662 150.301 136.086H145.909ZM142.165 130.758C142.165 129.39 142.201 128.094 142.453 127.482C142.705 126.798 143.281 126.438 144.073 126.438C144.901 126.438 145.441 126.834 145.621 127.518C145.765 127.986 145.873 128.958 145.873 130.758H142.165ZM160.156 136.086C160.156 136.59 160.084 137.202 159.94 137.814C159.76 138.606 159.004 138.93 158.284 138.93C157.564 138.93 156.736 138.498 156.628 137.526C156.52 136.626 156.484 135.186 156.484 134.286H164.656C164.836 130.902 164.584 127.446 163.9 125.754C163.072 123.738 161.164 122.478 158.392 122.478C154.972 122.478 153.46 124.026 152.74 125.79C152.2 127.086 151.804 129.75 151.804 132.738C151.804 135.798 152.056 138.066 152.884 139.974C153.748 141.99 155.8 142.782 158.464 142.782C161.128 142.782 162.748 141.702 163.612 140.154C164.368 138.822 164.548 136.662 164.548 136.086H160.156ZM156.412 130.758C156.412 129.39 156.448 128.094 156.7 127.482C156.952 126.798 157.528 126.438 158.32 126.438C159.148 126.438 159.688 126.834 159.868 127.518C160.012 127.986 160.12 128.958 160.12 130.758H156.412ZM174.691 122.478C173.035 122.478 171.379 123.558 171.163 125.07V122.73H166.411V142.53H171.235V130.794C171.235 127.554 172.243 126.834 173.899 126.834C174.871 126.834 175.843 127.014 176.419 127.194V122.658C176.023 122.514 175.447 122.478 174.691 122.478ZM195.142 126.294H191.218V121.866H186.97V126.294H182.974V130.506H186.97V134.97H191.182V130.506H195.142V126.294ZM216.045 113.802H201.933V118.734H206.289V142.53H211.617V118.734H216.045V113.802ZM231.627 122.73L230.043 137.274L227.955 122.73H223.023L221.187 137.274L219.351 122.73H214.455L218.019 142.53H223.779C223.779 142.53 225.039 135.51 225.435 133.17C225.471 132.954 225.507 131.118 225.507 131.118C225.507 131.118 225.615 132.954 225.651 133.17C226.047 135.438 227.271 142.53 227.271 142.53H232.959L236.415 122.73H231.627ZM249.505 126.51C248.857 124.242 247.129 122.478 243.565 122.478C240.001 122.478 238.237 124.422 237.661 126.402C237.157 128.094 236.905 130.47 236.905 132.594C236.905 134.79 237.193 137.454 237.517 138.642C238.201 141.126 240.253 142.782 243.493 142.782C246.913 142.782 248.749 141.162 249.469 138.642C249.901 137.202 250.117 134.754 250.117 132.594C250.117 130.47 249.937 127.986 249.505 126.51ZM245.221 137.454C245.113 138.21 244.429 138.858 243.529 138.858C242.665 138.858 242.017 138.39 241.873 137.49C241.693 136.554 241.657 134.214 241.657 132.666C241.657 131.19 241.693 128.778 241.873 127.95C242.089 127.05 242.593 126.546 243.529 126.546C244.501 126.546 245.005 126.942 245.221 127.878C245.365 128.634 245.437 131.154 245.437 132.666C245.437 134.178 245.473 135.726 245.221 137.454ZM272.464 113.802H267.568V127.842L263.068 113.802H258.064V142.53H262.96V128.202L267.496 142.53H272.464V113.802ZM287.761 113.802H275.053V142.53H280.309V130.542H287.185V125.718H280.309V118.734H287.761V113.802ZM302.328 137.67H294.732V113.802H289.476V142.53H302.328V137.67ZM120.616 171.194C120.58 171.842 120.58 174.758 120.652 175.622C120.76 177.134 121.516 178.25 122.2 178.682C120.868 179.114 119.86 180.302 119.86 181.706C119.86 183.146 120.58 184.298 122.2 184.514C120.724 185.09 119.68 185.81 119.68 187.574C119.68 190.418 122.632 191.534 127.204 191.534C132.028 191.534 134.656 189.734 134.656 186.422C134.656 183.578 133.252 181.526 127.744 181.526C124.432 181.526 123.712 181.454 123.712 180.626C123.712 180.194 124 179.87 124.54 179.798C125.08 180.086 125.872 180.41 127.168 180.41C130.48 180.41 132.568 178.79 133 176.198C133.144 175.19 133.144 172.814 133.144 172.058C133.144 171.122 132.892 170.042 132.64 169.574C132.712 169.502 134.656 169.466 134.764 169.466V166.622C133.468 166.586 132.1 166.91 131.344 167.81C130.732 167.126 129.436 166.406 126.88 166.406C122.668 166.406 120.688 168.782 120.616 171.194ZM128.5 171.626C128.536 172.346 128.536 175.154 128.5 175.622C128.464 176.486 128.032 177.062 126.916 177.062C125.872 177.062 125.368 176.486 125.332 175.622C125.296 175.046 125.332 172.346 125.332 171.878C125.368 170.834 125.908 170.366 126.916 170.366C127.924 170.366 128.428 170.762 128.5 171.626ZM123.748 186.638C123.748 185.774 124.108 185.594 124.864 185.198C125.296 185.234 126.232 185.198 127.096 185.234C129.544 185.378 130.408 185.63 130.408 186.566C130.408 187.61 129.364 188.042 127.096 188.042C124.72 188.042 123.748 187.61 123.748 186.638ZM148.015 183.002C148.015 181.526 148.051 179.114 148.051 177.566C148.087 175.73 148.123 172.742 148.051 171.014C147.943 168.242 146.215 166.478 142.075 166.478C137.683 166.478 135.883 168.458 135.883 172.166V173.642H140.347V172.526C140.347 171.158 140.779 170.474 142.003 170.474C142.903 170.474 143.371 170.978 143.407 171.842C143.443 172.454 143.443 173.678 143.443 174.218C142.651 174.218 141.823 174.326 140.923 174.47C137.611 175.082 135.379 176.882 135.199 179.762C135.127 180.806 135.163 182.498 135.199 182.93C135.343 185.81 137.539 186.674 139.519 186.674C141.283 186.674 142.615 186.206 143.515 185.09C143.515 185.594 143.623 186.53 143.695 186.53H148.267C148.087 186.278 148.015 184.442 148.015 183.002ZM143.443 178.97C143.371 179.978 143.443 180.482 143.263 181.526C143.083 182.534 142.219 182.93 141.463 182.93C140.743 182.93 140.167 182.678 140.059 181.994C139.987 181.418 139.987 180.734 139.987 180.194C139.987 179.366 140.023 178.79 140.635 178.25C141.175 177.782 141.787 177.674 142.291 177.566C142.723 177.494 143.083 177.494 143.443 177.494C143.443 177.782 143.479 178.574 143.443 178.97ZM169.743 186.53C169.779 186.53 169.707 185.954 169.707 170.618C169.707 168.134 168.627 166.442 165.891 166.442C164.055 166.442 162.651 167.234 162.039 168.746C161.535 167.342 160.491 166.442 158.691 166.442C156.603 166.442 155.307 167.378 154.839 168.602V166.73H150.195V186.53H154.947V172.49C154.947 171.518 155.523 170.618 156.495 170.618C157.323 170.618 157.719 171.158 157.719 172.022V186.53H162.363V172.346C162.363 171.446 162.903 170.618 163.839 170.618C164.847 170.618 165.099 171.302 165.099 172.094C165.099 185.954 165.099 186.53 165.135 186.53H169.743ZM179.887 180.086C179.887 180.59 179.815 181.202 179.671 181.814C179.491 182.606 178.735 182.93 178.015 182.93C177.295 182.93 176.467 182.498 176.359 181.526C176.251 180.626 176.215 179.186 176.215 178.286H184.387C184.567 174.902 184.315 171.446 183.631 169.754C182.803 167.738 180.895 166.478 178.123 166.478C174.703 166.478 173.191 168.026 172.471 169.79C171.931 171.086 171.535 173.75 171.535 176.738C171.535 179.798 171.787 182.066 172.615 183.974C173.479 185.99 175.531 186.782 178.195 186.782C180.859 186.782 182.479 185.702 183.343 184.154C184.099 182.822 184.279 180.662 184.279 180.086H179.887ZM176.143 174.758C176.143 173.39 176.179 172.094 176.431 171.482C176.683 170.798 177.259 170.438 178.051 170.438C178.879 170.438 179.419 170.834 179.599 171.518C179.743 171.986 179.851 172.958 179.851 174.758H176.143ZM200.518 166.73H197.746V162.914L193.066 163.022C193.066 163.022 192.922 166.622 192.886 166.73H191.122V170.942H192.814V182.21C192.814 185.306 194.542 186.674 197.494 186.674C198.754 186.674 199.546 186.602 200.302 186.422V182.57C199.942 182.642 199.474 182.678 199.078 182.678C198.322 182.678 197.71 182.462 197.71 181.346V170.942H200.518V166.73ZM207.23 160.826H202.154V165.686H207.23V160.826ZM207.158 185.09V166.73H202.226V185.162C202.226 185.954 202.226 186.53 202.406 186.53H207.266C207.23 186.494 207.158 185.846 207.158 185.09ZM221.428 170.078C220.78 168.026 219.268 166.478 215.56 166.478C212.752 166.478 210.736 167.738 210.016 169.862C209.296 172.022 209.08 173.75 209.08 176.63C209.08 179.618 209.512 182.606 210.088 183.902C210.88 185.702 212.788 186.782 215.632 186.782C218.548 186.782 220.42 185.486 221.068 183.83C221.752 182.102 221.788 181.274 221.788 178.574H217.324C217.324 179.834 217.324 180.23 217.18 181.274C217.072 182.102 216.568 182.75 215.632 182.75C214.696 182.75 214.228 182.318 214.084 181.31C213.868 179.834 213.796 177.818 213.796 176.666C213.796 175.226 213.868 173.426 214.084 172.022C214.228 171.05 214.732 170.546 215.596 170.546C216.604 170.546 216.964 171.194 217.072 171.986C217.18 172.742 217.288 173.642 217.288 174.794H221.788C221.788 172.382 221.68 170.942 221.428 170.078ZM233.086 173.93L236.83 166.73H232.15L228.298 174.326V157.766H223.546V186.53H228.298V180.59L229.702 178.322L232.186 186.53H237.01L233.086 173.93ZM245.645 180.086C245.645 180.59 245.573 181.202 245.429 181.814C245.249 182.606 244.493 182.93 243.773 182.93C243.053 182.93 242.225 182.498 242.117 181.526C242.009 180.626 241.973 179.186 241.973 178.286H250.145C250.325 174.902 250.073 171.446 249.389 169.754C248.561 167.738 246.653 166.478 243.881 166.478C240.461 166.478 238.949 168.026 238.229 169.79C237.689 171.086 237.293 173.75 237.293 176.738C237.293 179.798 237.545 182.066 238.373 183.974C239.237 185.99 241.289 186.782 243.953 186.782C246.617 186.782 248.237 185.702 249.101 184.154C249.857 182.822 250.037 180.662 250.037 180.086H245.645ZM241.901 174.758C241.901 173.39 241.937 172.094 242.189 171.482C242.441 170.798 243.017 170.438 243.809 170.438C244.637 170.438 245.177 170.834 245.357 171.518C245.501 171.986 245.609 172.958 245.609 174.758H241.901ZM260.431 166.73H257.659V162.914L252.979 163.022C252.979 163.022 252.835 166.622 252.799 166.73H251.035V170.942H252.727V182.21C252.727 185.306 254.455 186.674 257.407 186.674C258.667 186.674 259.459 186.602 260.215 186.422V182.57C259.855 182.642 259.387 182.678 258.991 182.678C258.235 182.678 257.623 182.462 257.623 181.346V170.942H260.431V166.73ZM270.418 175.334C269.518 174.866 268.618 174.47 267.718 174.038C266.566 173.498 266.17 172.886 266.17 171.914C266.17 171.086 266.53 170.402 267.646 170.402C268.654 170.402 268.978 170.978 269.05 171.59C269.086 171.734 269.122 172.85 269.122 173.066H273.478C273.478 172.67 273.37 170.582 273.262 170.006C272.794 167.81 270.958 166.442 267.466 166.442C263.65 166.442 261.706 168.674 261.706 171.806C261.706 174.758 262.57 176.594 265.162 177.818C265.882 178.142 266.854 178.61 267.466 178.862C268.834 179.402 269.302 180.086 269.302 181.31C269.302 182.426 268.618 182.966 267.718 182.966C266.854 182.966 266.17 182.606 266.098 181.778C266.062 181.166 266.026 180.554 266.026 180.302H261.562C261.562 180.914 261.598 182.174 261.67 182.822C261.994 185.486 263.794 186.818 267.826 186.818C271.39 186.818 273.874 184.91 273.874 181.166C273.874 178.142 272.938 176.594 270.418 175.334Z" fill="white"/>
<rect x="104" y="1.2652" width="230" height="205.765" stroke="white"/>
</g>
<rect x="1" y="1.2652" width="333" height="205.765" rx="11.5" stroke="white"/>
<defs>
<clipPath id="clip0_2388_31311">
<rect x="0.5" y="0.765198" width="334" height="206.765" rx="12" fill="white"/>
</clipPath>
<clipPath id="clip1_2388_31311">
<rect x="294.5" y="14.1478" width="24" height="24" rx="4" fill="white"/>
</clipPath>
</defs>
</svg>
