<svg width="100%" height="auto" viewBox="0 0 334 204" fill="none" xmlns="http://www.w3.org/2000/svg">
<g clip-path="url(#clip0_4719_146414)">
<path d="M63.804 92.008C63.356 88.488 60.732 85.736 57.98 85.224C60.604 84.456 62.46 81.704 62.78 78.44C62.972 76.392 63.1 72.616 62.844 69.8C62.46 65.64 59.26 61.416 51.068 61.416C42.748 61.416 39.996 65.448 39.484 69.8C39.292 71.528 39.42 77.352 39.548 78.696C39.868 82.472 41.916 84.648 44.028 85.16C42.108 85.736 39.292 87.656 38.716 91.624C38.204 95.016 38.204 101.672 38.46 103.72C39.228 110.184 42.3 113.512 51.068 113.512C59.068 113.512 63.484 109.928 63.868 103.72C64.06 100.584 64.124 94.76 63.804 92.008ZM51.068 81.896C49.66 81.896 48.764 81.512 48.38 79.656C48.188 78.696 48.188 72.232 48.316 71.464C48.572 69.8 49.788 69.096 51.068 69.096C52.476 69.096 53.564 69.736 53.884 71.464C54.076 72.296 54.076 77.608 53.884 79.72C53.756 81.384 52.54 81.896 51.068 81.896ZM51.068 105.896C49.276 105.896 47.996 104.808 47.74 103.016C47.484 101.288 47.484 93.992 47.74 92.264C47.996 90.216 49.404 89.448 51.068 89.448C52.86 89.448 54.14 90.216 54.46 92.2C54.716 93.992 54.716 100.84 54.46 103.08C54.204 104.872 52.924 105.896 51.068 105.896Z" fill="white"/>
<path d="M42.6396 129.912C42.6396 129.912 40.7496 138.13 40.7496 138.466C40.7496 138.13 39.0136 129.912 39.0136 129.912H36.9696C36.9696 129.912 35.2476 138.13 35.2476 138.466C35.2476 138.13 33.3576 129.912 33.3576 129.912H31.4116L34.0716 141H36.1576C36.1576 141 37.9636 132.796 37.9636 132.432C37.9776 132.796 39.7136 141 39.7136 141H41.8136L44.4456 129.912H42.6396ZM48.9349 129.912H47.0449V141H48.9349V129.912ZM60.0734 129.912H58.3234V137.472L54.5434 129.912H52.4574V141H54.2074V133.244L58.0994 141H60.0734V129.912ZM68.4293 134.826C68.1213 134.714 67.4633 134.462 67.0713 134.336C65.7133 133.888 65.0413 133.454 65.0413 132.586C65.0413 131.844 65.5453 131.396 66.9593 131.396C68.1633 131.396 68.7233 131.732 68.9613 132.418C69.0453 132.67 69.0873 132.88 69.0873 133.118H70.9633C70.9633 132.698 70.8933 132.362 70.7953 132.026C70.4033 130.654 69.2833 129.786 67.0013 129.786C64.3833 129.786 63.1513 130.934 63.1513 132.642C63.1513 134.28 64.2293 135.26 65.8953 135.806C66.3573 135.96 67.0153 136.212 67.2953 136.31C68.7793 136.828 69.2273 137.276 69.2273 138.214C69.2273 139.054 68.6253 139.558 67.2113 139.558C66.0073 139.558 65.3073 139.25 65.0973 138.592C65.0133 138.326 64.9713 137.948 64.9713 137.752H63.1093C63.1093 138.074 63.1373 138.592 63.2353 138.97C63.5713 140.272 64.6913 141.14 67.2533 141.14C69.8433 141.14 71.1173 139.908 71.1173 138.06C71.1173 136.338 70.1653 135.428 68.4293 134.826Z" fill="white"/>
<path d="M122.804 22.192C122.396 22.192 121.992 22.144 121.592 22.048C121.2 21.952 120.848 21.8 120.536 21.592C120.224 21.376 119.972 21.1 119.78 20.764C119.588 20.428 119.492 20.024 119.492 19.552C119.492 19.248 119.536 18.976 119.624 18.736C119.72 18.496 119.852 18.284 120.02 18.1C120.188 17.916 120.384 17.76 120.608 17.632C120.84 17.504 121.092 17.404 121.364 17.332V17.296C120.9 17.16 120.544 16.936 120.296 16.624C120.048 16.312 119.924 15.936 119.924 15.496C119.924 15.152 119.996 14.844 120.14 14.572C120.284 14.292 120.484 14.056 120.74 13.864C120.996 13.664 121.296 13.512 121.64 13.408C121.992 13.296 122.368 13.24 122.768 13.24C123.176 13.24 123.552 13.292 123.896 13.396C124.248 13.5 124.552 13.652 124.808 13.852C125.064 14.044 125.264 14.28 125.408 14.56C125.552 14.832 125.624 15.14 125.624 15.484C125.624 15.924 125.5 16.3 125.252 16.612C125.004 16.924 124.652 17.152 124.196 17.296V17.332C124.748 17.468 125.192 17.728 125.528 18.112C125.864 18.496 126.032 18.976 126.032 19.552C126.032 20.032 125.94 20.44 125.756 20.776C125.572 21.104 125.328 21.376 125.024 21.592C124.728 21.8 124.384 21.952 123.992 22.048C123.608 22.144 123.212 22.192 122.804 22.192ZM122.768 16.9C123.304 16.9 123.724 16.78 124.028 16.54C124.34 16.3 124.496 15.964 124.496 15.532C124.496 15.1 124.34 14.768 124.028 14.536C123.724 14.296 123.304 14.176 122.768 14.176C122.232 14.176 121.808 14.296 121.496 14.536C121.192 14.768 121.04 15.1 121.04 15.532C121.04 15.964 121.192 16.3 121.496 16.54C121.808 16.78 122.232 16.9 122.768 16.9ZM122.804 21.244C123.452 21.244 123.96 21.096 124.328 20.8C124.696 20.496 124.88 20.076 124.88 19.54C124.88 18.996 124.692 18.568 124.316 18.256C123.948 17.936 123.432 17.776 122.768 17.776C122.112 17.776 121.6 17.936 121.232 18.256C120.864 18.568 120.68 18.996 120.68 19.54C120.68 20.084 120.864 20.504 121.232 20.8C121.608 21.096 122.132 21.244 122.804 21.244ZM133.215 24.256C132.367 24.256 131.707 24.096 131.235 23.776C130.771 23.464 130.507 23.02 130.443 22.444H131.487C131.535 22.78 131.711 23.02 132.015 23.164C132.319 23.316 132.711 23.392 133.191 23.392C133.767 23.392 134.207 23.26 134.511 22.996C134.823 22.74 134.979 22.336 134.979 21.784V21.604C134.979 21.42 134.979 21.248 134.979 21.088C134.987 20.92 134.995 20.784 135.003 20.68H134.979C134.755 21 134.491 21.252 134.187 21.436C133.891 21.62 133.515 21.712 133.059 21.712C132.651 21.712 132.271 21.636 131.919 21.484C131.575 21.332 131.279 21.116 131.031 20.836C130.783 20.556 130.587 20.224 130.443 19.84C130.307 19.456 130.239 19.028 130.239 18.556C130.239 18.06 130.311 17.616 130.455 17.224C130.599 16.832 130.795 16.504 131.043 16.24C131.299 15.968 131.595 15.76 131.931 15.616C132.267 15.472 132.623 15.4 132.999 15.4C133.463 15.4 133.851 15.488 134.163 15.664C134.483 15.832 134.747 16.08 134.955 16.408H134.979V15.556H136.083V21.736C136.083 22.168 136.015 22.54 135.879 22.852C135.743 23.172 135.551 23.436 135.303 23.644C135.047 23.852 134.743 24.004 134.391 24.1C134.039 24.204 133.647 24.256 133.215 24.256ZM133.167 20.8C133.519 20.8 133.815 20.744 134.055 20.632C134.295 20.512 134.487 20.352 134.631 20.152C134.783 19.944 134.891 19.7 134.955 19.42C135.019 19.14 135.051 18.836 135.051 18.508C135.051 17.828 134.895 17.296 134.583 16.912C134.279 16.52 133.803 16.324 133.155 16.324C132.563 16.324 132.119 16.528 131.823 16.936C131.527 17.344 131.379 17.888 131.379 18.568C131.379 19.256 131.531 19.8 131.835 20.2C132.139 20.6 132.583 20.8 133.167 20.8ZM139.547 22.132C139.243 22.132 138.955 22.092 138.683 22.012C138.419 21.94 138.187 21.828 137.987 21.676C137.795 21.524 137.643 21.336 137.531 21.112C137.419 20.88 137.363 20.608 137.363 20.296C137.363 19.92 137.427 19.612 137.555 19.372C137.691 19.132 137.879 18.94 138.119 18.796C138.367 18.652 138.659 18.54 138.995 18.46C139.339 18.38 139.719 18.316 140.135 18.268C140.375 18.244 140.591 18.212 140.783 18.172C140.975 18.132 141.139 18.08 141.275 18.016C141.411 17.944 141.515 17.856 141.587 17.752C141.659 17.648 141.695 17.512 141.695 17.344C141.695 16.992 141.575 16.716 141.335 16.516C141.103 16.316 140.763 16.216 140.315 16.216C139.803 16.216 139.419 16.328 139.163 16.552C138.915 16.776 138.783 17.08 138.767 17.464H137.687C137.695 17.192 137.755 16.932 137.867 16.684C137.979 16.436 138.143 16.216 138.359 16.024C138.575 15.832 138.843 15.68 139.163 15.568C139.491 15.456 139.871 15.4 140.303 15.4C140.607 15.4 140.891 15.428 141.155 15.484C141.419 15.54 141.655 15.628 141.863 15.748C142.135 15.908 142.347 16.132 142.499 16.42C142.651 16.708 142.727 17.068 142.727 17.5V20.512C142.727 20.768 142.771 20.96 142.859 21.088C142.947 21.216 143.131 21.248 143.411 21.184H143.459V21.964C143.379 21.988 143.291 22.008 143.195 22.024C143.107 22.048 142.995 22.06 142.859 22.06C142.515 22.06 142.255 21.98 142.079 21.82C141.903 21.652 141.783 21.396 141.719 21.052H141.707C141.603 21.196 141.483 21.332 141.347 21.46C141.211 21.588 141.055 21.704 140.879 21.808C140.703 21.904 140.503 21.98 140.279 22.036C140.063 22.1 139.819 22.132 139.547 22.132ZM139.823 21.316C140.143 21.316 140.419 21.264 140.651 21.16C140.891 21.048 141.087 20.912 141.239 20.752C141.399 20.584 141.515 20.4 141.587 20.2C141.667 20 141.707 19.808 141.707 19.624V18.568C141.547 18.672 141.335 18.764 141.071 18.844C140.815 18.916 140.555 18.976 140.291 19.024C140.027 19.072 139.787 19.124 139.571 19.18C139.355 19.228 139.171 19.3 139.019 19.396C138.867 19.484 138.747 19.6 138.659 19.744C138.579 19.88 138.539 20.06 138.539 20.284C138.539 20.492 138.575 20.664 138.647 20.8C138.719 20.928 138.815 21.032 138.935 21.112C139.055 21.192 139.191 21.248 139.343 21.28C139.503 21.304 139.663 21.316 139.823 21.316ZM144.366 15.556H145.47V16.516H145.506C145.706 16.164 145.97 15.892 146.298 15.7C146.626 15.5 146.998 15.4 147.414 15.4C147.806 15.4 148.146 15.5 148.434 15.7C148.73 15.9 148.946 16.2 149.082 16.6H149.106C149.338 16.192 149.63 15.892 149.982 15.7C150.334 15.5 150.706 15.4 151.098 15.4C151.69 15.4 152.17 15.58 152.538 15.94C152.906 16.3 153.09 16.82 153.09 17.5V22H151.974V17.596C151.974 17.196 151.862 16.888 151.638 16.672C151.414 16.448 151.138 16.336 150.81 16.336C150.602 16.336 150.406 16.38 150.222 16.468C150.038 16.548 149.878 16.664 149.742 16.816C149.606 16.968 149.494 17.148 149.406 17.356C149.326 17.556 149.286 17.78 149.286 18.028V22H148.182V17.596C148.182 17.196 148.082 16.888 147.882 16.672C147.682 16.448 147.414 16.336 147.078 16.336C146.886 16.336 146.694 16.38 146.502 16.468C146.31 16.548 146.138 16.664 145.986 16.816C145.842 16.968 145.722 17.148 145.626 17.356C145.53 17.556 145.482 17.78 145.482 18.028V22H144.366V15.556ZM157.38 22.18C156.884 22.18 156.44 22.092 156.048 21.916C155.664 21.74 155.336 21.5 155.064 21.196C154.792 20.884 154.584 20.524 154.44 20.116C154.304 19.7 154.236 19.256 154.236 18.784C154.236 18.32 154.308 17.884 154.452 17.476C154.604 17.06 154.812 16.7 155.076 16.396C155.348 16.084 155.672 15.84 156.048 15.664C156.432 15.488 156.856 15.4 157.32 15.4C157.8 15.4 158.224 15.488 158.592 15.664C158.96 15.84 159.272 16.084 159.528 16.396C159.792 16.716 159.988 17.1 160.116 17.548C160.252 17.996 160.32 18.496 160.32 19.048H155.376C155.4 19.36 155.46 19.652 155.556 19.924C155.652 20.196 155.784 20.432 155.952 20.632C156.12 20.832 156.324 20.988 156.564 21.1C156.804 21.212 157.08 21.268 157.392 21.268C157.84 21.268 158.208 21.172 158.496 20.98C158.792 20.78 158.992 20.508 159.096 20.164H160.188C160.044 20.764 159.724 21.252 159.228 21.628C158.74 21.996 158.124 22.18 157.38 22.18ZM157.32 16.264C157.032 16.264 156.776 16.316 156.552 16.42C156.328 16.516 156.136 16.652 155.976 16.828C155.816 17.004 155.688 17.212 155.592 17.452C155.496 17.692 155.432 17.956 155.4 18.244H159.132C159.1 17.62 158.928 17.136 158.616 16.792C158.312 16.44 157.88 16.264 157.32 16.264ZM164.05 15.556H165.238L166.246 19.132C166.294 19.316 166.342 19.516 166.39 19.732C166.446 19.948 166.494 20.152 166.534 20.344C166.582 20.568 166.626 20.792 166.666 21.016H166.69C166.73 20.808 166.774 20.596 166.822 20.38C166.862 20.196 166.906 19.996 166.954 19.78C167.01 19.564 167.066 19.356 167.122 19.156L168.094 15.556H169.15L170.11 19.156C170.15 19.332 170.194 19.528 170.242 19.744C170.298 19.952 170.346 20.152 170.386 20.344C170.434 20.568 170.478 20.796 170.518 21.028H170.542C170.582 20.812 170.622 20.596 170.662 20.38C170.702 20.196 170.746 19.992 170.794 19.768C170.842 19.544 170.898 19.332 170.962 19.132L172.03 15.556H173.182L171.082 22H169.966L169.018 18.448C168.978 18.288 168.934 18.108 168.886 17.908C168.838 17.7 168.794 17.504 168.754 17.32C168.706 17.104 168.658 16.88 168.61 16.648H168.586C168.538 16.88 168.49 17.104 168.442 17.32C168.402 17.504 168.358 17.7 168.31 17.908C168.27 18.116 168.23 18.296 168.19 18.448L167.218 22H166.09L164.05 15.556ZM174.049 13.072H175.213V14.368H174.049V13.072ZM174.073 15.556H175.189V22H174.073V15.556ZM177.825 16.468H177.861C178.093 16.14 178.373 15.88 178.701 15.688C179.029 15.496 179.429 15.4 179.901 15.4C180.581 15.4 181.113 15.58 181.497 15.94C181.881 16.3 182.073 16.82 182.073 17.5V22H180.969V17.632C180.969 17.216 180.841 16.896 180.585 16.672C180.337 16.448 179.993 16.336 179.553 16.336C179.305 16.336 179.073 16.38 178.857 16.468C178.649 16.548 178.469 16.664 178.317 16.816C178.165 16.968 178.045 17.152 177.957 17.368C177.877 17.584 177.837 17.82 177.837 18.076V22H176.721V15.556H177.825V16.468ZM189.236 22.192C188.34 22.192 187.648 22 187.16 21.616C186.672 21.224 186.404 20.7 186.356 20.044H187.484C187.516 20.276 187.584 20.472 187.688 20.632C187.792 20.792 187.92 20.92 188.072 21.016C188.232 21.112 188.412 21.184 188.612 21.232C188.812 21.272 189.028 21.292 189.26 21.292C189.772 21.292 190.14 21.196 190.364 21.004C190.596 20.804 190.712 20.56 190.712 20.272C190.712 19.92 190.572 19.676 190.292 19.54C190.02 19.396 189.6 19.268 189.032 19.156C188.72 19.092 188.416 19.02 188.12 18.94C187.832 18.86 187.576 18.752 187.352 18.616C187.136 18.48 186.96 18.3 186.824 18.076C186.696 17.852 186.632 17.564 186.632 17.212C186.632 16.66 186.836 16.224 187.244 15.904C187.66 15.576 188.244 15.412 188.996 15.412C189.804 15.412 190.416 15.584 190.832 15.928C191.248 16.272 191.492 16.724 191.564 17.284H190.448C190.4 16.948 190.256 16.692 190.016 16.516C189.784 16.34 189.436 16.252 188.972 16.252C188.532 16.252 188.212 16.34 188.012 16.516C187.82 16.692 187.724 16.904 187.724 17.152C187.724 17.32 187.76 17.46 187.832 17.572C187.912 17.676 188.024 17.764 188.168 17.836C188.32 17.908 188.5 17.968 188.708 18.016C188.924 18.064 189.168 18.116 189.44 18.172C189.76 18.236 190.064 18.308 190.352 18.388C190.64 18.468 190.892 18.58 191.108 18.724C191.332 18.868 191.508 19.06 191.636 19.3C191.764 19.532 191.828 19.836 191.828 20.212C191.828 20.54 191.764 20.828 191.636 21.076C191.508 21.324 191.328 21.532 191.096 21.7C190.872 21.86 190.6 21.98 190.28 22.06C189.96 22.148 189.612 22.192 189.236 22.192ZM192.52 15.556H193.528V13.528H194.632V15.556H195.964V16.42H194.632V20.488C194.632 20.72 194.688 20.88 194.8 20.968C194.92 21.048 195.084 21.088 195.292 21.088C195.388 21.088 195.488 21.08 195.592 21.064C195.704 21.04 195.792 21.02 195.856 21.004H195.892V21.94C195.588 22.012 195.288 22.048 194.992 22.048C194.56 22.04 194.208 21.94 193.936 21.748C193.664 21.548 193.528 21.212 193.528 20.74V16.42H192.52V15.556ZM198.227 16.72H198.263C198.463 16.344 198.723 16.044 199.043 15.82C199.363 15.588 199.739 15.472 200.171 15.472C200.259 15.472 200.331 15.48 200.387 15.496C200.451 15.504 200.515 15.52 200.579 15.544V16.6H200.543C200.463 16.576 200.391 16.56 200.327 16.552C200.263 16.544 200.183 16.54 200.087 16.54C199.839 16.54 199.603 16.588 199.379 16.684C199.155 16.772 198.959 16.9 198.791 17.068C198.623 17.236 198.487 17.44 198.383 17.68C198.287 17.92 198.239 18.192 198.239 18.496V22H197.123V15.556H198.227V16.72ZM204.232 22.18C203.736 22.18 203.292 22.092 202.9 21.916C202.516 21.74 202.188 21.5 201.916 21.196C201.644 20.884 201.436 20.524 201.292 20.116C201.156 19.7 201.088 19.256 201.088 18.784C201.088 18.32 201.16 17.884 201.304 17.476C201.456 17.06 201.664 16.7 201.928 16.396C202.2 16.084 202.524 15.84 202.9 15.664C203.284 15.488 203.708 15.4 204.172 15.4C204.652 15.4 205.076 15.488 205.444 15.664C205.812 15.84 206.124 16.084 206.38 16.396C206.644 16.716 206.84 17.1 206.968 17.548C207.104 17.996 207.172 18.496 207.172 19.048H202.228C202.252 19.36 202.312 19.652 202.408 19.924C202.504 20.196 202.636 20.432 202.804 20.632C202.972 20.832 203.176 20.988 203.416 21.1C203.656 21.212 203.932 21.268 204.244 21.268C204.692 21.268 205.06 21.172 205.348 20.98C205.644 20.78 205.844 20.508 205.948 20.164H207.04C206.896 20.764 206.576 21.252 206.08 21.628C205.592 21.996 204.976 22.18 204.232 22.18ZM204.172 16.264C203.884 16.264 203.628 16.316 203.404 16.42C203.18 16.516 202.988 16.652 202.828 16.828C202.668 17.004 202.54 17.212 202.444 17.452C202.348 17.692 202.284 17.956 202.252 18.244H205.984C205.952 17.62 205.78 17.136 205.468 16.792C205.164 16.44 204.732 16.264 204.172 16.264ZM210.282 22.132C209.978 22.132 209.69 22.092 209.418 22.012C209.154 21.94 208.922 21.828 208.722 21.676C208.53 21.524 208.378 21.336 208.266 21.112C208.154 20.88 208.098 20.608 208.098 20.296C208.098 19.92 208.162 19.612 208.29 19.372C208.426 19.132 208.614 18.94 208.854 18.796C209.102 18.652 209.394 18.54 209.73 18.46C210.074 18.38 210.454 18.316 210.87 18.268C211.11 18.244 211.326 18.212 211.518 18.172C211.71 18.132 211.874 18.08 212.01 18.016C212.146 17.944 212.25 17.856 212.322 17.752C212.394 17.648 212.43 17.512 212.43 17.344C212.43 16.992 212.31 16.716 212.07 16.516C211.838 16.316 211.498 16.216 211.05 16.216C210.538 16.216 210.154 16.328 209.898 16.552C209.65 16.776 209.518 17.08 209.502 17.464H208.422C208.43 17.192 208.49 16.932 208.602 16.684C208.714 16.436 208.878 16.216 209.094 16.024C209.31 15.832 209.578 15.68 209.898 15.568C210.226 15.456 210.606 15.4 211.038 15.4C211.342 15.4 211.626 15.428 211.89 15.484C212.154 15.54 212.39 15.628 212.598 15.748C212.87 15.908 213.082 16.132 213.234 16.42C213.386 16.708 213.462 17.068 213.462 17.5V20.512C213.462 20.768 213.506 20.96 213.594 21.088C213.682 21.216 213.866 21.248 214.146 21.184H214.194V21.964C214.114 21.988 214.026 22.008 213.93 22.024C213.842 22.048 213.73 22.06 213.594 22.06C213.25 22.06 212.99 21.98 212.814 21.82C212.638 21.652 212.518 21.396 212.454 21.052H212.442C212.338 21.196 212.218 21.332 212.082 21.46C211.946 21.588 211.79 21.704 211.614 21.808C211.438 21.904 211.238 21.98 211.014 22.036C210.798 22.1 210.554 22.132 210.282 22.132ZM210.558 21.316C210.878 21.316 211.154 21.264 211.386 21.16C211.626 21.048 211.822 20.912 211.974 20.752C212.134 20.584 212.25 20.4 212.322 20.2C212.402 20 212.442 19.808 212.442 19.624V18.568C212.282 18.672 212.07 18.764 211.806 18.844C211.55 18.916 211.29 18.976 211.026 19.024C210.762 19.072 210.522 19.124 210.306 19.18C210.09 19.228 209.906 19.3 209.754 19.396C209.602 19.484 209.482 19.6 209.394 19.744C209.314 19.88 209.274 20.06 209.274 20.284C209.274 20.492 209.31 20.664 209.382 20.8C209.454 20.928 209.55 21.032 209.67 21.112C209.79 21.192 209.926 21.248 210.078 21.28C210.238 21.304 210.398 21.316 210.558 21.316ZM217.128 18.604L216.216 19.468V22H215.1V13.072H216.216V17.308C216.216 17.42 216.212 17.576 216.204 17.776C216.196 17.968 216.184 18.144 216.168 18.304L218.964 15.556H220.356L217.896 17.872L220.644 22H219.336L217.128 18.604ZM224.791 15.556H225.895V16.564H225.931C226.171 16.196 226.455 15.912 226.783 15.712C227.119 15.504 227.519 15.4 227.983 15.4C228.391 15.4 228.763 15.48 229.099 15.64C229.443 15.792 229.735 16.016 229.975 16.312C230.223 16.6 230.415 16.956 230.551 17.38C230.687 17.796 230.755 18.268 230.755 18.796C230.755 19.316 230.691 19.784 230.563 20.2C230.435 20.616 230.247 20.972 229.999 21.268C229.759 21.564 229.463 21.792 229.111 21.952C228.767 22.112 228.379 22.192 227.947 22.192C227.507 22.192 227.115 22.104 226.771 21.928C226.427 21.752 226.143 21.492 225.919 21.148H225.883C225.891 21.26 225.895 21.408 225.895 21.592C225.903 21.768 225.907 21.98 225.907 22.228V24.184H224.791V15.556ZM227.827 21.268C228.123 21.268 228.383 21.208 228.607 21.088C228.831 20.96 229.015 20.788 229.159 20.572C229.311 20.356 229.423 20.1 229.495 19.804C229.575 19.5 229.615 19.172 229.615 18.82C229.615 18.468 229.579 18.14 229.507 17.836C229.435 17.532 229.323 17.272 229.171 17.056C229.027 16.832 228.843 16.66 228.619 16.54C228.395 16.412 228.135 16.348 227.839 16.348C227.495 16.348 227.199 16.412 226.951 16.54C226.703 16.668 226.495 16.844 226.327 17.068C226.167 17.292 226.047 17.556 225.967 17.86C225.887 18.156 225.847 18.476 225.847 18.82C225.847 19.156 225.883 19.476 225.955 19.78C226.027 20.076 226.143 20.336 226.303 20.56C226.463 20.776 226.667 20.948 226.915 21.076C227.163 21.204 227.467 21.268 227.827 21.268ZM233.044 16.72H233.08C233.28 16.344 233.54 16.044 233.86 15.82C234.18 15.588 234.556 15.472 234.988 15.472C235.076 15.472 235.148 15.48 235.204 15.496C235.268 15.504 235.332 15.52 235.396 15.544V16.6H235.36C235.28 16.576 235.208 16.56 235.144 16.552C235.08 16.544 235 16.54 234.904 16.54C234.656 16.54 234.42 16.588 234.196 16.684C233.972 16.772 233.776 16.9 233.608 17.068C233.44 17.236 233.304 17.44 233.2 17.68C233.104 17.92 233.056 18.192 233.056 18.496V22H231.94V15.556H233.044V16.72ZM236.463 13.072H237.627V14.368H236.463V13.072ZM236.487 15.556H237.603V22H236.487V15.556ZM238.895 21.136L241.775 17.38C241.839 17.292 241.915 17.2 242.003 17.104C242.091 17 242.175 16.904 242.255 16.816C242.343 16.712 242.439 16.608 242.543 16.504V16.468C242.391 16.476 242.243 16.484 242.099 16.492C241.971 16.5 241.839 16.504 241.703 16.504C241.567 16.504 241.443 16.504 241.331 16.504H239.111V15.556H243.947V16.252L241.019 20.08C240.947 20.168 240.863 20.268 240.767 20.38C240.679 20.484 240.591 20.584 240.503 20.68C240.407 20.792 240.307 20.904 240.203 21.016V21.052C240.363 21.052 240.519 21.048 240.671 21.04C240.807 21.032 240.947 21.028 241.091 21.028C241.235 21.02 241.367 21.016 241.487 21.016H244.091V22H238.895V21.136ZM247.837 22.18C247.341 22.18 246.897 22.092 246.505 21.916C246.121 21.74 245.793 21.5 245.521 21.196C245.249 20.884 245.041 20.524 244.897 20.116C244.761 19.7 244.693 19.256 244.693 18.784C244.693 18.32 244.765 17.884 244.909 17.476C245.061 17.06 245.269 16.7 245.533 16.396C245.805 16.084 246.129 15.84 246.505 15.664C246.889 15.488 247.313 15.4 247.777 15.4C248.257 15.4 248.681 15.488 249.049 15.664C249.417 15.84 249.729 16.084 249.985 16.396C250.249 16.716 250.445 17.1 250.573 17.548C250.709 17.996 250.777 18.496 250.777 19.048H245.833C245.857 19.36 245.917 19.652 246.013 19.924C246.109 20.196 246.241 20.432 246.409 20.632C246.577 20.832 246.781 20.988 247.021 21.1C247.261 21.212 247.537 21.268 247.849 21.268C248.297 21.268 248.665 21.172 248.953 20.98C249.249 20.78 249.449 20.508 249.553 20.164H250.645C250.501 20.764 250.181 21.252 249.685 21.628C249.197 21.996 248.581 22.18 247.837 22.18ZM247.777 16.264C247.489 16.264 247.233 16.316 247.009 16.42C246.785 16.516 246.593 16.652 246.433 16.828C246.273 17.004 246.145 17.212 246.049 17.452C245.953 17.692 245.889 17.956 245.857 18.244H249.589C249.557 17.62 249.385 17.136 249.073 16.792C248.769 16.44 248.337 16.264 247.777 16.264Z" fill="white"/>
<path fill-rule="evenodd" clip-rule="evenodd" d="M317.705 22.1244C317.779 22.0027 317.816 21.8492 317.816 21.6639V14.3442C317.816 14.159 317.779 14.0081 317.705 13.8917C317.631 13.7699 317.515 13.672 317.356 13.5979C316.911 13.3756 316.549 13.1189 316.268 12.8278C315.983 12.5315 315.705 12.116 315.435 11.5814C315.265 11.2797 315.019 11.1289 314.696 11.1289H301.303C300.981 11.1289 300.737 11.2797 300.573 11.5814C300.298 12.116 300.02 12.5315 299.739 12.8278C299.454 13.1189 299.088 13.3756 298.644 13.5979C298.485 13.672 298.369 13.7699 298.294 13.8917C298.22 14.0081 298.183 14.159 298.183 14.3442V21.6639C298.183 21.8492 298.22 22.0027 298.294 22.1244C298.369 22.2408 298.485 22.3361 298.644 22.4102C299.088 22.6272 299.454 22.8839 299.739 23.1803C300.02 23.4714 300.298 23.8868 300.573 24.4267C300.737 24.7231 300.981 24.8713 301.303 24.8713H314.696C315.019 24.8713 315.265 24.7231 315.435 24.4267C315.705 23.8868 315.983 23.4714 316.268 23.1803C316.549 22.8839 316.911 22.6272 317.356 22.4102C317.515 22.3361 317.631 22.2408 317.705 22.1244ZM311.367 18.2756V18.9541C311.367 19.0711 311.272 19.166 311.155 19.166C311.038 19.166 310.943 19.0712 310.943 18.9541V18.2756H309.824V18.9541C309.824 19.0711 309.729 19.166 309.612 19.166C309.494 19.166 309.399 19.0712 309.399 18.9541V18.2756H308.28V18.9541C308.28 19.0711 308.185 19.166 308.068 19.166C307.951 19.166 307.856 19.0712 307.856 18.9541V18.2756H306.737V18.9541C306.737 19.0711 306.642 19.166 306.525 19.166C306.408 19.166 306.313 19.0712 306.313 18.9541V18.2756H305.194V18.9541C305.194 19.0711 305.099 19.166 304.982 19.166C304.865 19.166 304.77 19.0712 304.77 18.9541V18.2756H303.928L303.928 21.3154C305.161 21.9819 306.569 22.3641 308.068 22.3641C309.568 22.3641 310.976 21.9817 312.208 21.3154V18.2756H311.367ZM315.626 18C315.627 17.1736 314.103 15.9375 313.056 15.206V20.7944C314.103 20.0628 315.625 18.9103 315.626 18ZM304.77 17.1734V17.8518L303.929 17.8517V14.6847C305.161 14.0184 306.569 13.636 308.069 13.636C309.568 13.636 310.976 14.0183 312.209 14.6846V17.8518H311.367V17.1734C311.367 17.0564 311.272 16.9615 311.155 16.9615C311.038 16.9615 310.943 17.0564 310.943 17.1734V17.8518H309.824V17.1734C309.824 17.0564 309.729 16.9615 309.611 16.9615C309.494 16.9615 309.399 17.0564 309.399 17.1734V17.8518H308.28V17.1734C308.28 17.0564 308.185 16.9615 308.068 16.9615C307.951 16.9615 307.856 17.0564 307.856 17.1734V17.8518H306.737V17.1734C306.737 17.0564 306.642 16.9615 306.525 16.9615C306.408 16.9615 306.313 17.0564 306.313 17.1734V17.8518H305.194V17.1734C305.194 17.0564 305.099 16.9615 304.982 16.9615C304.865 16.9615 304.77 17.0564 304.77 17.1734ZM300.374 18C300.373 17.1736 301.897 15.9375 302.944 15.206V20.7944C301.897 20.0628 300.375 18.9103 300.374 18Z" fill="white"/>
<rect x="103.5" y="0.5" width="230" height="35" stroke="white"/>
<path d="M130.85 53.06H119.09V57.17H122.72V77H127.16V57.17H130.85V53.06ZM143.985 60.5L142.665 72.62L140.925 60.5H136.815L135.285 72.62L133.755 60.5H129.675L132.645 77H137.445C137.445 77 138.495 71.15 138.825 69.2C138.855 69.02 138.885 67.49 138.885 67.49C138.885 67.49 138.975 69.02 139.005 69.2C139.335 71.09 140.355 77 140.355 77H145.095L147.975 60.5H143.985ZM159.034 63.65C158.494 61.76 157.054 60.29 154.084 60.29C151.114 60.29 149.644 61.91 149.164 63.56C148.744 64.97 148.534 66.95 148.534 68.72C148.534 70.55 148.774 72.77 149.044 73.76C149.614 75.83 151.324 77.21 154.024 77.21C156.874 77.21 158.404 75.86 159.004 73.76C159.364 72.56 159.544 70.52 159.544 68.72C159.544 66.95 159.394 64.88 159.034 63.65ZM155.464 72.77C155.374 73.4 154.804 73.94 154.054 73.94C153.334 73.94 152.794 73.55 152.674 72.8C152.524 72.02 152.494 70.07 152.494 68.78C152.494 67.55 152.524 65.54 152.674 64.85C152.854 64.1 153.274 63.68 154.054 63.68C154.864 63.68 155.284 64.01 155.464 64.79C155.584 65.42 155.644 67.52 155.644 68.78C155.644 70.04 155.674 71.33 155.464 72.77ZM178.466 53.06H174.386V64.76L170.636 53.06H166.466V77H170.546V65.06L174.326 77H178.466V53.06ZM191.364 53.06H180.774V77H185.154V67.01H190.884V62.99H185.154V57.17H191.364V53.06ZM203.652 72.95H197.322V53.06H192.942V77H203.652V72.95ZM222.519 71.42V63.47H215.949V67.25H218.379C218.379 67.25 218.409 71.15 218.379 71.66C218.319 72.89 217.599 73.52 216.489 73.52C215.499 73.52 214.989 73.01 214.779 71.93C214.419 70.04 214.419 66.92 214.419 65.09C214.419 63.14 214.449 60.26 214.749 58.19C214.899 57.17 215.559 56.72 216.399 56.72C217.329 56.72 217.899 57.23 217.989 58.19C218.109 59.42 218.109 61.07 218.109 61.25H222.399C222.399 59.12 222.309 57.92 222.129 56.84C221.769 54.68 220.179 52.85 216.309 52.85C212.529 52.85 210.939 54.98 210.429 56.9C209.889 58.97 209.829 62.6 209.829 65.09C209.829 67.67 209.919 71.03 210.429 73.19C211.059 75.83 212.949 77.21 215.469 77.21C217.299 77.21 218.529 76.7 219.129 75.92L219.339 77H222.579C222.579 76.97 222.519 74.18 222.519 71.42ZM234.579 74.06C234.579 72.83 234.609 70.82 234.609 69.53C234.639 68 234.669 65.51 234.609 64.07C234.519 61.76 233.079 60.29 229.629 60.29C225.969 60.29 224.469 61.94 224.469 65.03V66.26H228.189V65.33C228.189 64.19 228.549 63.62 229.569 63.62C230.319 63.62 230.709 64.04 230.739 64.76C230.769 65.27 230.769 66.29 230.769 66.74C230.109 66.74 229.419 66.83 228.669 66.95C225.909 67.46 224.049 68.96 223.899 71.36C223.839 72.23 223.869 73.64 223.899 74C224.019 76.4 225.849 77.12 227.499 77.12C228.969 77.12 230.079 76.73 230.829 75.8C230.829 76.22 230.919 77 230.979 77H234.789C234.639 76.79 234.579 75.26 234.579 74.06ZM230.769 70.7C230.709 71.54 230.769 71.96 230.619 72.83C230.469 73.67 229.749 74 229.119 74C228.519 74 228.039 73.79 227.949 73.22C227.889 72.74 227.889 72.17 227.889 71.72C227.889 71.03 227.919 70.55 228.429 70.1C228.879 69.71 229.389 69.62 229.809 69.53C230.169 69.47 230.469 69.47 230.769 69.47C230.769 69.71 230.799 70.37 230.769 70.7ZM252.836 77C252.866 77 252.806 76.52 252.806 63.74C252.806 61.67 251.906 60.26 249.626 60.26C248.096 60.26 246.926 60.92 246.416 62.18C245.996 61.01 245.126 60.26 243.626 60.26C241.886 60.26 240.806 61.04 240.416 62.06V60.5H236.546V77H240.506V65.3C240.506 64.49 240.986 63.74 241.796 63.74C242.486 63.74 242.816 64.19 242.816 64.91V77H246.686V65.18C246.686 64.43 247.136 63.74 247.916 63.74C248.756 63.74 248.966 64.31 248.966 64.97C248.966 76.52 248.966 77 248.996 77H252.836ZM261.439 71.63C261.439 72.05 261.379 72.56 261.259 73.07C261.109 73.73 260.479 74 259.879 74C259.279 74 258.589 73.64 258.499 72.83C258.409 72.08 258.379 70.88 258.379 70.13H265.189C265.339 67.31 265.129 64.43 264.559 63.02C263.869 61.34 262.279 60.29 259.969 60.29C257.119 60.29 255.859 61.58 255.259 63.05C254.809 64.13 254.479 66.35 254.479 68.84C254.479 71.39 254.689 73.28 255.379 74.87C256.099 76.55 257.809 77.21 260.029 77.21C262.249 77.21 263.599 76.31 264.319 75.02C264.949 73.91 265.099 72.11 265.099 71.63H261.439ZM258.319 67.19C258.319 66.05 258.349 64.97 258.559 64.46C258.769 63.89 259.249 63.59 259.909 63.59C260.599 63.59 261.049 63.92 261.199 64.49C261.319 64.88 261.409 65.69 261.409 67.19H258.319ZM130.85 89.06H119.09V93.17H122.72V113H127.16V93.17H130.85V89.06ZM135.768 91.58H131.538V95.63H135.768V91.58ZM135.708 111.8V96.5H131.598V111.86C131.598 112.52 131.598 113 131.748 113H135.798C135.768 112.97 135.708 112.43 135.708 111.8ZM147.75 99.29C147.21 97.58 145.95 96.29 142.86 96.29C140.52 96.29 138.84 97.34 138.24 99.11C137.64 100.91 137.46 102.35 137.46 104.75C137.46 107.24 137.82 109.73 138.3 110.81C138.96 112.31 140.55 113.21 142.92 113.21C145.35 113.21 146.91 112.13 147.45 110.75C148.02 109.31 148.05 108.62 148.05 106.37H144.33C144.33 107.42 144.33 107.75 144.21 108.62C144.12 109.31 143.7 109.85 142.92 109.85C142.14 109.85 141.75 109.49 141.63 108.65C141.45 107.42 141.39 105.74 141.39 104.78C141.39 103.58 141.45 102.08 141.63 100.91C141.75 100.1 142.17 99.68 142.89 99.68C143.73 99.68 144.03 100.22 144.12 100.88C144.21 101.51 144.3 102.26 144.3 103.22H148.05C148.05 101.21 147.96 100.01 147.75 99.29ZM157.615 102.5L160.735 96.5H156.835L153.625 102.83V89.03H149.665V113H153.625V108.05L154.795 106.16L156.865 113H160.885L157.615 102.5ZM168.23 107.63C168.23 108.05 168.17 108.56 168.05 109.07C167.9 109.73 167.27 110 166.67 110C166.07 110 165.38 109.64 165.29 108.83C165.2 108.08 165.17 106.88 165.17 106.13H171.98C172.13 103.31 171.92 100.43 171.35 99.02C170.66 97.34 169.07 96.29 166.76 96.29C163.91 96.29 162.65 97.58 162.05 99.05C161.6 100.13 161.27 102.35 161.27 104.84C161.27 107.39 161.48 109.28 162.17 110.87C162.89 112.55 164.6 113.21 166.82 113.21C169.04 113.21 170.39 112.31 171.11 111.02C171.74 109.91 171.89 108.11 171.89 107.63H168.23ZM165.11 103.19C165.11 102.05 165.14 100.97 165.35 100.46C165.56 99.89 166.04 99.59 166.7 99.59C167.39 99.59 167.84 99.92 167.99 100.49C168.11 100.88 168.2 101.69 168.2 103.19H165.11ZM180.703 96.5H178.393V93.32L174.493 93.41C174.493 93.41 174.373 96.41 174.343 96.5H172.873V100.01H174.283V109.4C174.283 111.98 175.723 113.12 178.183 113.12C179.233 113.12 179.893 113.06 180.522 112.91V109.7C180.223 109.76 179.833 109.79 179.503 109.79C178.873 109.79 178.363 109.61 178.363 108.68V100.01H180.703V96.5ZM189.175 103.67C188.425 103.28 187.675 102.95 186.925 102.59C185.965 102.14 185.635 101.63 185.635 100.82C185.635 100.13 185.935 99.56 186.865 99.56C187.705 99.56 187.975 100.04 188.035 100.55C188.065 100.67 188.095 101.6 188.095 101.78H191.725C191.725 101.45 191.635 99.71 191.545 99.23C191.155 97.4 189.625 96.26 186.715 96.26C183.535 96.26 181.915 98.12 181.915 100.73C181.915 103.19 182.635 104.72 184.795 105.74C185.395 106.01 186.205 106.4 186.715 106.61C187.855 107.06 188.245 107.63 188.245 108.65C188.245 109.58 187.675 110.03 186.925 110.03C186.205 110.03 185.635 109.73 185.575 109.04C185.545 108.53 185.515 108.02 185.515 107.81H181.795C181.795 108.32 181.825 109.37 181.885 109.91C182.155 112.13 183.655 113.24 187.015 113.24C189.985 113.24 192.055 111.65 192.055 108.53C192.055 106.01 191.275 104.72 189.175 103.67ZM208.393 99.47H205.123V95.78H201.583V99.47H198.253V102.98H201.583V106.7H205.093V102.98H208.393V99.47ZM214.652 94.64C214.652 98.09 215.462 99.38 218.462 102.02C221.912 104.45 222.182 105.23 222.182 107.51C222.182 108.83 221.672 109.49 220.562 109.49C219.452 109.49 218.822 108.95 218.732 108.05C218.672 107.42 218.672 106.52 218.672 106.16H214.592C214.592 106.67 214.592 108.2 214.622 108.56C214.772 111.11 216.422 112.61 219.422 112.88V114.47H221.672V112.85C224.732 112.46 226.382 110.45 226.382 107.21C226.382 103.43 225.482 102.02 222.422 99.62C219.452 97.31 218.762 96.38 218.762 94.67C218.762 93.5 219.302 92.81 220.472 92.81C221.642 92.81 222.032 93.53 222.122 94.4C222.182 94.91 222.212 95.72 222.212 96.35H226.262C226.262 95.78 226.262 94.7 226.172 94.01C225.902 91.55 224.732 89.63 221.672 89.24V88.58H219.422V89.21C216.212 89.57 214.652 91.73 214.652 94.64ZM234.992 89.03H231.752C231.422 89.75 230.582 91.13 227.492 91.34V94.79L230.792 94.64V113H234.992V89.03ZM237.3 93.44C237.03 95.27 237 98.33 237 101C237 102.95 237.15 106.7 237.39 108.32C237.87 111.5 239.43 113.24 242.91 113.24C246.27 113.24 247.98 111.47 248.4 108.32C248.67 106.46 248.79 102.83 248.79 101C248.79 98.54 248.67 95.45 248.49 93.41C248.28 90.98 246.48 88.82 242.91 88.82C239.04 88.82 237.69 90.95 237.3 93.44ZM244.38 107.87C244.32 108.98 243.87 109.61 242.91 109.61C241.95 109.61 241.5 109.01 241.41 107.87C241.35 106.82 241.26 103.34 241.26 101.03C241.26 99.44 241.35 96.68 241.35 94.46C241.35 93.32 241.86 92.63 242.88 92.63C243.87 92.63 244.35 93.26 244.41 94.43C244.44 95.48 244.47 98.57 244.47 100.94C244.47 102.86 244.44 106.91 244.38 107.87ZM250.553 93.44C250.283 95.27 250.253 98.33 250.253 101C250.253 102.95 250.403 106.7 250.643 108.32C251.123 111.5 252.683 113.24 256.163 113.24C259.523 113.24 261.233 111.47 261.653 108.32C261.923 106.46 262.043 102.83 262.043 101C262.043 98.54 261.923 95.45 261.743 93.41C261.533 90.98 259.733 88.82 256.163 88.82C252.293 88.82 250.943 90.95 250.553 93.44ZM257.633 107.87C257.573 108.98 257.123 109.61 256.163 109.61C255.203 109.61 254.753 109.01 254.663 107.87C254.603 106.82 254.513 103.34 254.513 101.03C254.513 99.44 254.603 96.68 254.603 94.46C254.603 93.32 255.113 92.63 256.133 92.63C257.123 92.63 257.603 93.26 257.663 94.43C257.693 95.48 257.723 98.57 257.723 100.94C257.723 102.86 257.693 106.91 257.633 107.87ZM128.18 136.49C127.73 136.07 126.59 135.05 125.99 134.51C124.64 133.28 123.62 132.11 123.62 130.46C123.62 129.2 124.19 128.66 125.36 128.66C126.5 128.66 126.92 129.26 127.04 130.22C127.13 131 127.16 131.57 127.16 132.17H131.36C131.36 131.48 131.24 130.22 131.18 129.71C130.82 126.98 129.2 124.82 125.39 124.82C121.61 124.82 119.33 127.07 119.33 130.55C119.33 133.79 120.47 135.32 122.63 137.21C123.26 137.75 124.49 138.86 124.79 139.13C126.56 140.72 127.16 141.77 127.16 143.78C127.16 144.98 126.53 145.64 125.36 145.64C124.28 145.64 123.74 145.1 123.62 144.32C123.59 144.14 123.56 143.3 123.56 142.19H119.39C119.39 143.63 119.36 143.93 119.45 145.04C119.66 147.71 121.7 149.27 125.48 149.27C129.08 149.27 131.48 147.11 131.48 143.39C131.48 140.18 130.34 138.53 128.18 136.49ZM143.619 136.31C143.619 133.43 142.209 132.29 140.169 132.29C138.519 132.29 137.589 132.92 137.139 134.03V125.03H133.179V149H137.139V137.51C137.139 136.37 137.709 135.8 138.489 135.8C139.359 135.8 139.629 136.28 139.629 137.03C139.629 148.55 139.629 149 139.659 149H143.679C143.649 149 143.619 148.55 143.619 136.31ZM155.723 135.65C155.183 133.76 153.743 132.29 150.773 132.29C147.803 132.29 146.333 133.91 145.853 135.56C145.433 136.97 145.223 138.95 145.223 140.72C145.223 142.55 145.463 144.77 145.733 145.76C146.303 147.83 148.013 149.21 150.713 149.21C153.563 149.21 155.093 147.86 155.693 145.76C156.053 144.56 156.233 142.52 156.233 140.72C156.233 138.95 156.083 136.88 155.723 135.65ZM152.153 144.77C152.063 145.4 151.493 145.94 150.743 145.94C150.023 145.94 149.483 145.55 149.363 144.8C149.213 144.02 149.183 142.07 149.183 140.78C149.183 139.55 149.213 137.54 149.363 136.85C149.543 136.1 149.963 135.68 150.743 135.68C151.553 135.68 151.973 136.01 152.153 136.79C152.273 137.42 152.333 139.52 152.333 140.78C152.333 142.04 152.363 143.33 152.153 144.77ZM168.275 134.6C167.705 132.98 166.625 132.29 164.915 132.29C163.385 132.29 162.275 132.86 161.825 133.76L161.795 132.5H157.985V153.89H161.915V148.07C162.455 148.61 163.355 149.03 164.765 149.03C166.625 149.03 167.825 148.13 168.425 146.27C168.785 145.13 168.995 142.85 168.995 140.48C168.995 137.99 168.755 135.89 168.275 134.6ZM164.705 144.65C164.585 145.25 164.165 145.82 163.385 145.82C162.695 145.82 162.245 145.46 162.125 144.68C161.945 143.57 161.885 142.49 161.885 140.6C161.885 138.89 162.005 137.66 162.215 136.79C162.365 136.19 162.695 135.71 163.415 135.71C164.135 135.71 164.495 136.07 164.645 136.61C164.885 137.51 164.945 138.86 164.945 140.6C164.945 142.55 164.885 143.63 164.705 144.65ZM183.642 142.46C183.642 140.96 183.462 139.22 182.922 138.26C182.382 137.27 181.632 136.79 180.462 136.64C181.452 136.46 182.112 136.04 182.562 135.11C183.132 133.91 183.222 132.38 183.222 130.79C183.222 129.29 183.042 127.85 182.472 126.86C181.752 125.6 180.402 125.06 178.392 125.06H170.832V149H177.942C180.162 149 181.572 148.7 182.592 147.32C183.402 146.21 183.642 144.29 183.642 142.46ZM178.362 134.51C178.092 135.08 177.762 135.32 177.432 135.32H175.122V128.63H177.132C177.762 128.63 178.122 128.99 178.332 129.5C178.512 129.95 178.692 130.91 178.692 131.87C178.692 133.04 178.542 134.12 178.362 134.51ZM177.252 145.43H175.122V138.68H177.342C177.912 138.68 178.362 139.04 178.632 139.52C178.842 139.91 178.962 141.2 178.962 141.98C178.962 142.73 178.872 144.14 178.662 144.59C178.392 145.19 177.822 145.43 177.252 145.43ZM192.059 143.63C192.059 144.05 191.999 144.56 191.879 145.07C191.729 145.73 191.099 146 190.499 146C189.899 146 189.209 145.64 189.119 144.83C189.029 144.08 188.999 142.88 188.999 142.13H195.809C195.959 139.31 195.749 136.43 195.179 135.02C194.489 133.34 192.899 132.29 190.589 132.29C187.739 132.29 186.479 133.58 185.879 135.05C185.429 136.13 185.099 138.35 185.099 140.84C185.099 143.39 185.309 145.28 185.999 146.87C186.719 148.55 188.429 149.21 190.649 149.21C192.869 149.21 194.219 148.31 194.939 147.02C195.569 145.91 195.719 144.11 195.719 143.63H192.059ZM188.939 139.19C188.939 138.05 188.969 136.97 189.179 136.46C189.389 135.89 189.869 135.59 190.529 135.59C191.219 135.59 191.669 135.92 191.819 136.49C191.939 136.88 192.029 137.69 192.029 139.19H188.939ZM204.081 143.63C204.081 144.05 204.021 144.56 203.901 145.07C203.751 145.73 203.121 146 202.521 146C201.921 146 201.231 145.64 201.141 144.83C201.051 144.08 201.021 142.88 201.021 142.13H207.831C207.981 139.31 207.771 136.43 207.201 135.02C206.511 133.34 204.921 132.29 202.611 132.29C199.761 132.29 198.501 133.58 197.901 135.05C197.451 136.13 197.121 138.35 197.121 140.84C197.121 143.39 197.331 145.28 198.021 146.87C198.741 148.55 200.451 149.21 202.671 149.21C204.891 149.21 206.241 148.31 206.961 147.02C207.591 145.91 207.741 144.11 207.741 143.63H204.081ZM200.961 139.19C200.961 138.05 200.991 136.97 201.201 136.46C201.411 135.89 201.891 135.59 202.551 135.59C203.241 135.59 203.691 135.92 203.841 136.49C203.961 136.88 204.051 137.69 204.051 139.19H200.961ZM216.344 132.29C214.964 132.29 213.584 133.19 213.404 134.45V132.5H209.444V149H213.464V139.22C213.464 136.52 214.304 135.92 215.684 135.92C216.494 135.92 217.304 136.07 217.784 136.22V132.44C217.454 132.32 216.974 132.29 216.344 132.29ZM231.396 143.42V135.47H224.826V139.25H227.256C227.256 139.25 227.286 143.15 227.256 143.66C227.196 144.89 226.476 145.52 225.366 145.52C224.376 145.52 223.866 145.01 223.656 143.93C223.296 142.04 223.296 138.92 223.296 137.09C223.296 135.14 223.326 132.26 223.626 130.19C223.776 129.17 224.436 128.72 225.276 128.72C226.206 128.72 226.776 129.23 226.866 130.19C226.986 131.42 226.986 133.07 226.986 133.25H231.276C231.276 131.12 231.186 129.92 231.006 128.84C230.646 126.68 229.056 124.85 225.186 124.85C221.406 124.85 219.816 126.98 219.306 128.9C218.766 130.97 218.706 134.6 218.706 137.09C218.706 139.67 218.796 143.03 219.306 145.19C219.936 147.83 221.826 149.21 224.346 149.21C226.176 149.21 227.406 148.7 228.006 147.92L228.216 149H231.456C231.456 148.97 231.396 146.18 231.396 143.42ZM239.826 143.63C239.826 144.05 239.766 144.56 239.646 145.07C239.496 145.73 238.866 146 238.266 146C237.666 146 236.976 145.64 236.886 144.83C236.796 144.08 236.766 142.88 236.766 142.13H243.576C243.726 139.31 243.516 136.43 242.946 135.02C242.256 133.34 240.666 132.29 238.356 132.29C235.506 132.29 234.246 133.58 233.646 135.05C233.196 136.13 232.866 138.35 232.866 140.84C232.866 143.39 233.076 145.28 233.766 146.87C234.486 148.55 236.196 149.21 238.416 149.21C240.636 149.21 241.986 148.31 242.706 147.02C243.336 145.91 243.486 144.11 243.486 143.63H239.826ZM236.706 139.19C236.706 138.05 236.736 136.97 236.946 136.46C237.156 135.89 237.636 135.59 238.296 135.59C238.986 135.59 239.436 135.92 239.586 136.49C239.706 136.88 239.796 137.69 239.796 139.19H236.706ZM255.478 146.06C255.478 144.83 255.508 142.82 255.508 141.53C255.538 140 255.568 137.51 255.508 136.07C255.418 133.76 253.978 132.29 250.528 132.29C246.868 132.29 245.368 133.94 245.368 137.03V138.26H249.088V137.33C249.088 136.19 249.448 135.62 250.468 135.62C251.218 135.62 251.608 136.04 251.638 136.76C251.668 137.27 251.668 138.29 251.668 138.74C251.008 138.74 250.318 138.83 249.568 138.95C246.808 139.46 244.948 140.96 244.798 143.36C244.738 144.23 244.768 145.64 244.798 146C244.918 148.4 246.748 149.12 248.398 149.12C249.868 149.12 250.978 148.73 251.728 147.8C251.728 148.22 251.818 149 251.878 149H255.688C255.538 148.79 255.478 147.26 255.478 146.06ZM251.668 142.7C251.608 143.54 251.668 143.96 251.518 144.83C251.368 145.67 250.648 146 250.018 146C249.418 146 248.938 145.79 248.848 145.22C248.788 144.74 248.788 144.17 248.788 143.72C248.788 143.03 248.818 142.55 249.328 142.1C249.778 141.71 250.288 141.62 250.708 141.53C251.068 141.47 251.368 141.47 251.668 141.47C251.668 141.71 251.698 142.37 251.668 142.7ZM264.345 132.29C262.965 132.29 261.585 133.19 261.405 134.45V132.5H257.445V149H261.465V139.22C261.465 136.52 262.305 135.92 263.685 135.92C264.495 135.92 265.305 136.07 265.785 136.22V132.44C265.455 132.32 264.975 132.29 264.345 132.29ZM284.418 143.42V135.47H277.848V139.25H280.278C280.278 139.25 280.308 143.15 280.278 143.66C280.218 144.89 279.498 145.52 278.388 145.52C277.398 145.52 276.888 145.01 276.678 143.93C276.318 142.04 276.318 138.92 276.318 137.09C276.318 135.14 276.348 132.26 276.648 130.19C276.798 129.17 277.458 128.72 278.298 128.72C279.228 128.72 279.798 129.23 279.888 130.19C280.008 131.42 280.008 133.07 280.008 133.25H284.298C284.298 131.12 284.208 129.92 284.028 128.84C283.668 126.68 282.078 124.85 278.208 124.85C274.428 124.85 272.838 126.98 272.328 128.9C271.788 130.97 271.728 134.6 271.728 137.09C271.728 139.67 271.818 143.03 272.328 145.19C272.958 147.83 274.848 149.21 277.368 149.21C279.198 149.21 280.428 148.7 281.028 147.92L281.238 149H284.478C284.478 148.97 284.418 146.18 284.418 143.42ZM290.417 127.58H286.187V131.63H290.417V127.58ZM290.357 147.8V132.5H286.247V147.86C286.247 148.52 286.247 149 286.397 149H290.447C290.417 148.97 290.357 148.43 290.357 147.8ZM299.429 132.5H297.269V129.44C297.269 128.84 297.629 128.18 298.439 128.18C298.769 128.18 299.249 128.21 299.639 128.27V125C299.189 124.94 298.319 124.91 297.269 124.91C294.299 124.91 293.249 126.68 293.249 128.93V132.5H291.779V136.01H293.249V149H297.269V136.01H299.429V132.5ZM307.879 132.5H305.569V129.32L301.669 129.41C301.669 129.41 301.549 132.41 301.519 132.5H300.049V136.01H301.459V145.4C301.459 147.98 302.899 149.12 305.359 149.12C306.409 149.12 307.069 149.06 307.699 148.91V145.7C307.399 145.76 307.009 145.79 306.679 145.79C306.049 145.79 305.539 145.61 305.539 144.68V136.01H307.879V132.5ZM128.09 176.36C128.09 176.9 128.06 178.43 127.91 179.66C127.76 180.86 127.04 181.25 126.2 181.25C125.39 181.25 124.67 180.83 124.46 179.75C124.19 178.25 124.13 175.49 124.13 172.88C124.13 169.52 124.19 167.42 124.46 166.31C124.67 165.47 125.21 164.99 126.2 164.99C127.07 164.99 127.64 165.5 127.76 166.25C127.97 167.45 128.06 168.74 128.06 169.85H132.32C132.32 168.38 132.23 167 132.08 165.86C131.66 162.68 129.98 160.88 126.29 160.88C122.75 160.88 120.83 162.35 120.23 165.2C119.69 167.75 119.54 169.7 119.54 172.91C119.54 176.06 119.78 179.66 120.38 181.58C121.04 183.8 122.69 185.27 126.05 185.27C129.74 185.27 131.54 183.65 132.08 180.74C132.35 179.21 132.35 177.17 132.35 176.36H128.09ZM144.348 182.06C144.348 180.83 144.378 178.82 144.378 177.53C144.408 176 144.438 173.51 144.378 172.07C144.288 169.76 142.848 168.29 139.398 168.29C135.738 168.29 134.238 169.94 134.238 173.03V174.26H137.958V173.33C137.958 172.19 138.318 171.62 139.338 171.62C140.088 171.62 140.478 172.04 140.508 172.76C140.538 173.27 140.538 174.29 140.538 174.74C139.878 174.74 139.188 174.83 138.438 174.95C135.678 175.46 133.818 176.96 133.668 179.36C133.608 180.23 133.638 181.64 133.668 182C133.788 184.4 135.618 185.12 137.268 185.12C138.738 185.12 139.848 184.73 140.598 183.8C140.598 184.22 140.688 185 140.748 185H144.558C144.408 184.79 144.348 183.26 144.348 182.06ZM140.538 178.7C140.478 179.54 140.538 179.96 140.388 180.83C140.238 181.67 139.518 182 138.888 182C138.288 182 137.808 181.79 137.718 181.22C137.658 180.74 137.658 180.17 137.658 179.72C137.658 179.03 137.688 178.55 138.198 178.1C138.648 177.71 139.158 177.62 139.578 177.53C139.938 177.47 140.238 177.47 140.538 177.47C140.538 177.71 140.568 178.37 140.538 178.7ZM153.215 168.29C151.835 168.29 150.455 169.19 150.275 170.45V168.5H146.315V185H150.335V175.22C150.335 172.52 151.175 171.92 152.555 171.92C153.365 171.92 154.175 172.07 154.655 172.22V168.44C154.325 168.32 153.845 168.29 153.215 168.29ZM156.03 170.93C155.55 172.73 155.4 174.38 155.4 176.81C155.4 179.45 155.7 181.64 156.24 182.96C156.84 184.46 157.95 185.12 159.6 185.12C161.07 185.12 162.06 184.64 162.6 183.8L163.08 185H166.44C166.44 185 166.32 183.62 166.32 182.69V161.03H162.39V169.7C161.94 168.83 160.86 168.35 159.6 168.35C157.83 168.35 156.45 169.31 156.03 170.93ZM162.12 172.67C162.3 173.57 162.42 174.47 162.42 176.84C162.42 178.28 162.36 179.78 162.15 180.83C162.03 181.46 161.64 181.94 160.86 181.94C160.05 181.94 159.63 181.55 159.54 180.92C159.39 179.69 159.33 178.22 159.33 176.84C159.33 175.43 159.39 174.02 159.6 172.82C159.72 172.22 160.14 171.77 160.89 171.77C161.64 171.77 162 172.1 162.12 172.67Z" fill="white"/>
<rect x="103.5" y="0.5" width="230" height="203" stroke="white"/>
</g>
<rect x="0.5" y="0.5" width="333" height="203" rx="7.5" stroke="white"/>
<defs>
<clipPath id="clip0_4719_146414">
<rect width="334" height="204" rx="8" fill="white"/>
</clipPath>
</defs>
</svg>
