<svg width="100%" height="auto" viewBox="0 0 335 145" fill="none" xmlns="http://www.w3.org/2000/svg">
<g clip-path="url(#clip0_2388_31318)">
<path d="M66.52 48.3213C65.4 44.0013 61.8 41.2813 56.28 41.2813C52.76 41.2813 49.4 42.3213 47.64 44.5613C47.64 43.1213 47.8 34.9613 47.88 32.4813C48.04 28.5613 49.32 26.8013 51.96 26.8013C54.68 26.8013 55.56 28.3213 55.88 31.5213C55.96 32.1613 55.96 34.4013 55.96 35.3613H66.52C66.52 34.0013 66.6 29.5213 66.28 27.6013C65.32 21.4413 61.48 16.6413 52.12 16.6413C42.92 16.6413 38.44 22.1613 37.32 29.6813C36.76 33.7613 36.44 43.2013 36.44 49.1213C36.44 55.1213 36.68 67.4413 38.28 72.3213C40.36 78.6413 45.08 81.7613 52.44 81.7613C60.84 81.7613 64.6 77.6013 66.28 72.4013C67.64 68.2413 67.72 53.0413 66.52 48.3213ZM52.12 72.2413C49.88 72.2413 48.28 71.1213 48.04 68.0813C47.88 66.4013 47.64 57.9213 47.64 54.8013C48.04 52.8813 49.72 50.6413 52.36 50.6413C54.76 50.6413 55.72 51.9213 55.88 54.4013C56.04 56.3213 56.04 66.4813 55.88 68.4813C55.64 71.2013 54.28 72.2413 52.12 72.2413Z" fill="white"/>
<path d="M38.1123 104.265V100.905H33.7023V102.487H36.4043C36.4043 102.487 36.4183 104.083 36.3903 104.223C36.2083 105.049 35.4663 105.679 34.2763 105.679C33.2963 105.679 32.6943 105.427 32.3163 104.881C31.8683 104.223 31.7423 103.257 31.7423 101.619C31.7423 100.009 31.9383 98.9593 32.3303 98.3573C32.7083 97.7973 33.3103 97.5593 34.1503 97.5593C34.9343 97.5593 35.4803 97.7973 35.8023 98.2733C36.0963 98.7213 36.2643 99.3793 36.2643 99.7573H38.0563C38.0563 99.2673 37.9163 98.3013 37.5803 97.6293C37.0763 96.6353 36.0263 95.8933 34.1083 95.8933C32.2603 95.8933 31.2243 96.6633 30.6363 97.5733C30.0203 98.5393 29.8383 99.8693 29.8383 101.591C29.8383 103.593 30.1463 104.881 30.6783 105.721C31.3223 106.729 32.4143 107.261 33.8843 107.261C35.3963 107.261 36.2083 106.729 36.5863 106.169L36.6703 107.121H38.1263C38.1263 107.079 38.1123 105.595 38.1123 104.265ZM46.8892 104.433L47.6592 107.121H49.5632L46.2872 96.0333H43.9352L40.4352 107.121H42.3112L43.1232 104.433H46.8892ZM43.6272 102.837C43.6272 102.837 44.8452 98.8193 44.8592 98.7493C44.8872 98.6373 45.0692 97.7553 45.0692 97.7553C45.0692 97.7553 45.2512 98.6373 45.2792 98.7493C45.3072 98.8333 46.4132 102.837 46.4132 102.837H43.6272ZM62.0557 96.0333H59.6617L57.1697 104.279L54.7197 96.0333H52.1857V107.121H53.9077V99.5193L56.1897 107.121H57.9957L60.3197 99.4913V107.121H62.0557V96.0333ZM72.4428 105.441H67.3888V102.403H72.1628V100.709H67.3888V97.7133H72.3868V96.0333H65.5688V107.121H72.4428V105.441ZM27.3392 120.947C27.0312 120.835 26.3732 120.583 25.9812 120.457C24.6232 120.009 23.9512 119.575 23.9512 118.707C23.9512 117.965 24.4552 117.517 25.8692 117.517C27.0732 117.517 27.6332 117.853 27.8712 118.539C27.9552 118.791 27.9972 119.001 27.9972 119.239H29.8732C29.8732 118.819 29.8032 118.483 29.7052 118.147C29.3132 116.775 28.1932 115.907 25.9112 115.907C23.2932 115.907 22.0612 117.055 22.0612 118.763C22.0612 120.401 23.1392 121.381 24.8052 121.927C25.2672 122.081 25.9252 122.333 26.2052 122.431C27.6892 122.949 28.1372 123.397 28.1372 124.335C28.1372 125.175 27.5352 125.679 26.1212 125.679C24.9172 125.679 24.2172 125.371 24.0072 124.713C23.9232 124.447 23.8812 124.069 23.8812 123.873H22.0192C22.0192 124.195 22.0472 124.713 22.1452 125.091C22.4812 126.393 23.6012 127.261 26.1632 127.261C28.7532 127.261 30.0272 126.029 30.0272 124.181C30.0272 122.459 29.0752 121.549 27.3392 120.947ZM39.9652 116.033H32.1112V117.699H35.0932V127.121H36.9692V117.699H39.9652V116.033ZM49.8119 117.265C49.4199 116.481 48.6779 116.033 47.4599 116.033H42.6299V127.121H44.4499V122.501H46.8579L48.7899 127.121H50.8199L48.6359 122.095C49.1259 121.997 49.5739 121.647 49.8539 121.115C50.0639 120.695 50.1759 120.079 50.1759 119.239C50.1759 118.343 50.0919 117.797 49.8119 117.265ZM48.1879 120.429C48.0479 120.737 47.6979 120.905 47.2079 120.919H44.4639V117.685H47.0679C47.6979 117.685 48.0899 117.909 48.2439 118.329C48.3139 118.511 48.3419 119.001 48.3419 119.407C48.3419 119.743 48.2859 120.191 48.1879 120.429ZM60.5081 125.441H55.4541V122.403H60.2281V120.709H55.4541V117.713H60.4521V116.033H53.6341V127.121H60.5081V125.441ZM69.1703 124.433L69.9403 127.121H71.8443L68.5683 116.033H66.2163L62.7163 127.121H64.5923L65.4043 124.433H69.1703ZM65.9083 122.837C65.9083 122.837 67.1263 118.819 67.1403 118.749C67.1683 118.637 67.3503 117.755 67.3503 117.755C67.3503 117.755 67.5323 118.637 67.5603 118.749C67.5883 118.833 68.6943 122.837 68.6943 122.837H65.9083ZM78.4008 120.821L82.3908 116.033H80.3188L76.3148 120.751V116.033H74.4668V127.121H76.3148V123.159L77.1268 122.207L80.2908 127.121H82.4748L78.4008 120.821Z" fill="white"/>
<path d="M124.176 30.7279C126.094 30.7279 127.62 29.1879 127.606 27.2979C127.592 25.4359 126.122 23.9379 124.288 23.9379C123.084 23.9379 122.202 24.4139 121.544 25.5059H121.516C121.586 22.9159 122.3 21.4039 124.176 21.4039C125.296 21.4039 125.898 22.1739 125.996 22.8599H127.326C127.144 21.6279 126.15 20.2979 124.148 20.2979C122.86 20.2979 121.894 20.8019 121.236 21.6979C120.578 22.6079 120.242 23.9099 120.242 25.4639C120.242 27.4659 120.592 28.8239 121.628 29.7759C122.23 30.3639 123.056 30.7279 124.176 30.7279ZM124.148 29.6499C122.804 29.6499 121.768 28.6979 121.768 27.3259C121.768 25.9399 122.72 25.0299 124.106 25.0299C125.38 25.0299 126.346 25.9679 126.346 27.3399C126.346 28.7119 125.408 29.6499 124.148 29.6499ZM136.056 33.1359C137.064 33.1359 137.904 32.9119 138.492 32.4219C139.066 31.9319 139.402 31.1899 139.402 30.1959V22.9859H138.114V23.9799H138.086C137.61 23.2239 136.882 22.8039 135.804 22.8039C134.04 22.8039 132.584 24.1759 132.584 26.4859C132.584 28.6699 133.956 30.1679 135.874 30.1679C136.938 30.1679 137.596 29.7059 138.114 28.9639H138.142C138.128 29.2019 138.114 29.6079 138.114 30.0419V30.2519C138.114 31.5259 137.372 32.1279 136.028 32.1279C134.908 32.1279 134.152 31.8059 134.04 31.0219H132.822C132.962 32.3519 134.082 33.1359 136.056 33.1359ZM136 29.1039C134.642 29.1039 133.914 28.0959 133.914 26.4999C133.914 24.9179 134.614 23.8819 135.986 23.8819C137.484 23.8819 138.198 24.8479 138.198 26.4299C138.198 27.9559 137.638 29.1039 136 29.1039ZM143.445 30.6579C144.719 30.6579 145.489 30.0559 145.965 29.3979H145.979C146.119 30.1959 146.511 30.5739 147.309 30.5739C147.617 30.5739 147.827 30.5179 148.009 30.4619V29.5519H147.953C147.295 29.6919 147.155 29.3699 147.155 28.7679V25.2539C147.155 24.2459 146.777 23.5879 146.147 23.2099C145.671 22.9299 145.041 22.8039 144.327 22.8039C142.297 22.8039 141.331 23.9379 141.275 25.2119H142.535C142.577 24.3159 143.151 23.7559 144.341 23.7559C145.377 23.7559 145.951 24.2599 145.951 25.0719C145.951 25.8419 145.237 26.0239 144.131 26.1499C142.185 26.3879 140.897 26.7659 140.897 28.5159C140.897 29.9579 142.017 30.6579 143.445 30.6579ZM143.767 29.7059C143.011 29.7059 142.269 29.4679 142.269 28.5019C142.269 27.4659 143.081 27.2419 144.313 27.0319C144.929 26.9199 145.587 26.7379 145.965 26.4999V27.7319C145.965 28.5999 145.265 29.7059 143.767 29.7059ZM149.066 30.5039H150.368V25.8699C150.368 24.7219 151.334 23.8959 152.23 23.8959C153 23.8959 153.518 24.4419 153.518 25.3659V30.5039H154.806V25.8699C154.806 24.7219 155.632 23.8959 156.584 23.8959C157.34 23.8959 157.942 24.4419 157.942 25.3659V30.5039H159.244V25.2539C159.244 23.6859 158.292 22.8039 156.92 22.8039C156.01 22.8039 155.128 23.2659 154.596 24.2039H154.568C154.26 23.2799 153.532 22.8039 152.622 22.8039C151.656 22.8039 150.858 23.2939 150.396 24.1059H150.354V22.9859H149.066V30.5039ZM164.25 30.7139C165.986 30.7139 167.19 29.7619 167.526 28.3619H166.252C166.014 29.1599 165.3 29.6499 164.264 29.6499C162.808 29.6499 162.01 28.5299 161.912 27.0599H167.68C167.68 25.7859 167.372 24.7079 166.756 23.9659C166.168 23.2379 165.3 22.8039 164.18 22.8039C162.024 22.8039 160.582 24.5679 160.582 26.7519C160.582 28.9499 161.94 30.7139 164.25 30.7139ZM164.18 23.8119C165.482 23.8119 166.224 24.6799 166.294 26.1219H161.94C162.108 24.7919 162.822 23.8119 164.18 23.8119ZM174.411 30.5039H175.727L176.861 26.3599C177.043 25.6459 177.323 24.2599 177.323 24.2599H177.351C177.351 24.2599 177.645 25.6319 177.827 26.3599L178.933 30.5039H180.235L182.685 22.9859H181.341L180.095 27.1579C179.815 28.0819 179.605 29.3699 179.605 29.3699H179.577C179.577 29.3699 179.311 27.9839 179.101 27.1859L177.981 22.9859H176.749L175.615 27.1859C175.363 28.0959 175.111 29.3559 175.111 29.3559H175.083C175.083 29.3559 174.831 28.0119 174.593 27.1579L173.417 22.9859H172.031L174.411 30.5039ZM183.696 21.5999H185.054V20.0879H183.696V21.5999ZM183.724 30.5039H185.026V22.9859H183.724V30.5039ZM188.102 22.9859H186.814V30.5039H188.116V25.9259C188.116 24.7219 188.956 23.8959 190.118 23.8959C191.14 23.8959 191.77 24.4419 191.77 25.4079V30.5039H193.058V25.2539C193.058 23.6859 192.092 22.8039 190.524 22.8039C189.432 22.8039 188.69 23.2939 188.144 24.0499H188.102V22.9859ZM201.415 30.7279C203.179 30.7279 204.439 29.9439 204.439 28.4179C204.439 26.6679 203.151 26.3319 201.653 26.0379C200.379 25.7859 199.651 25.6319 199.651 24.8479C199.651 24.2739 200.085 23.7979 201.107 23.7979C202.185 23.7979 202.717 24.2319 202.829 25.0019H204.131C203.963 23.6999 203.025 22.8179 201.135 22.8179C199.385 22.8179 198.377 23.6299 198.377 24.9179C198.377 26.5699 199.707 26.8779 201.177 27.1859C202.507 27.4519 203.137 27.6619 203.137 28.4879C203.137 29.1599 202.633 29.6779 201.443 29.6779C200.365 29.6779 199.525 29.3139 199.371 28.2219H198.055C198.167 29.7479 199.343 30.7279 201.415 30.7279ZM205.247 23.9939H206.423V29.0339C206.423 30.1399 207.123 30.5459 208.131 30.5599C208.467 30.5599 208.831 30.5179 209.181 30.4339V29.3419H209.139C208.999 29.3839 208.705 29.4399 208.481 29.4399C208.005 29.4399 207.711 29.2859 207.711 28.7399V23.9939H209.265V22.9859H207.711V20.6199H206.423V22.9859H205.247V23.9939ZM211.905 22.9859H210.617V30.5039H211.919V26.4159C211.919 25.0019 212.913 24.1339 214.075 24.1339C214.299 24.1339 214.425 24.1479 214.607 24.2039H214.649V22.9719C214.509 22.9159 214.383 22.8879 214.173 22.8879C213.179 22.8879 212.409 23.4759 211.947 24.3439H211.905V22.9859ZM218.91 30.7139C220.646 30.7139 221.85 29.7619 222.186 28.3619H220.912C220.674 29.1599 219.96 29.6499 218.924 29.6499C217.468 29.6499 216.67 28.5299 216.572 27.0599H222.34C222.34 25.7859 222.032 24.7079 221.416 23.9659C220.828 23.2379 219.96 22.8039 218.84 22.8039C216.684 22.8039 215.242 24.5679 215.242 26.7519C215.242 28.9499 216.6 30.7139 218.91 30.7139ZM218.84 23.8119C220.142 23.8119 220.884 24.6799 220.954 26.1219H216.6C216.768 24.7919 217.482 23.8119 218.84 23.8119ZM225.968 30.6579C227.242 30.6579 228.012 30.0559 228.488 29.3979H228.502C228.642 30.1959 229.034 30.5739 229.832 30.5739C230.14 30.5739 230.35 30.5179 230.532 30.4619V29.5519H230.476C229.818 29.6919 229.678 29.3699 229.678 28.7679V25.2539C229.678 24.2459 229.3 23.5879 228.67 23.2099C228.194 22.9299 227.564 22.8039 226.85 22.8039C224.82 22.8039 223.854 23.9379 223.798 25.2119H225.058C225.1 24.3159 225.674 23.7559 226.864 23.7559C227.9 23.7559 228.474 24.2599 228.474 25.0719C228.474 25.8419 227.76 26.0239 226.654 26.1499C224.708 26.3879 223.42 26.7659 223.42 28.5159C223.42 29.9579 224.54 30.6579 225.968 30.6579ZM226.29 29.7059C225.534 29.7059 224.792 29.4679 224.792 28.5019C224.792 27.4659 225.604 27.2419 226.836 27.0319C227.452 26.9199 228.11 26.7379 228.488 26.4999V27.7319C228.488 28.5999 227.788 29.7059 226.29 29.7059ZM236.531 30.5039H238.057L234.851 25.6879L237.721 22.9859H236.097L232.835 26.1919C232.863 25.8279 232.891 25.2959 232.891 25.0299V20.0879H231.589V30.5039H232.891V27.5499L233.955 26.5419L236.531 30.5039ZM242.896 33.0519H244.198V30.7699C244.198 30.1959 244.184 29.7759 244.17 29.5099H244.212C244.73 30.3079 245.556 30.7279 246.578 30.7279C248.608 30.7279 249.854 29.1739 249.854 26.7659C249.854 24.2879 248.538 22.8039 246.62 22.8039C245.542 22.8039 244.786 23.3079 244.226 24.1619H244.184V22.9859H242.896V33.0519ZM246.438 29.6499C244.772 29.6499 244.128 28.3759 244.128 26.7939C244.128 25.1979 244.856 23.9099 246.452 23.9099C247.838 23.9099 248.524 25.1419 248.524 26.7939C248.524 28.4319 247.824 29.6499 246.438 29.6499ZM252.524 22.9859H251.236V30.5039H252.538V26.4159C252.538 25.0019 253.532 24.1339 254.694 24.1339C254.918 24.1339 255.044 24.1479 255.226 24.2039H255.268V22.9719C255.128 22.9159 255.002 22.8879 254.792 22.8879C253.798 22.8879 253.028 23.4759 252.566 24.3439H252.524V22.9859ZM256.513 21.5999H257.871V20.0879H256.513V21.5999ZM256.541 30.5039H257.843V22.9859H256.541V30.5039ZM259.35 30.5039H265.412V29.3559H262.374C261.828 29.3559 260.876 29.3979 260.876 29.3979V29.3559C260.876 29.3559 261.506 28.6699 261.828 28.2639L265.244 23.7979V22.9859H259.602V24.0919H262.192C262.71 24.0919 263.606 24.0499 263.606 24.0499V24.0919C263.606 24.0919 263.018 24.7219 262.71 25.1139L259.35 29.4959V30.5039ZM269.783 30.7139C271.519 30.7139 272.723 29.7619 273.059 28.3619H271.785C271.547 29.1599 270.833 29.6499 269.797 29.6499C268.341 29.6499 267.543 28.5299 267.445 27.0599H273.213C273.213 25.7859 272.905 24.7079 272.289 23.9659C271.701 23.2379 270.833 22.8039 269.713 22.8039C267.557 22.8039 266.115 24.5679 266.115 26.7519C266.115 28.9499 267.473 30.7139 269.783 30.7139ZM269.713 23.8119C271.015 23.8119 271.757 24.6799 271.827 26.1219H267.473C267.641 24.7919 268.355 23.8119 269.713 23.8119Z" fill="white"/>
<path fill-rule="evenodd" clip-rule="evenodd" d="M316.207 16.7968C316.02 16.6093 315.765 16.5039 315.5 16.5039H309.5C309.5 17.2996 309.184 18.0626 308.621 18.6252C308.059 19.1878 307.296 19.5039 306.5 19.5039C305.704 19.5039 304.941 19.1878 304.379 18.6252C303.816 18.0626 303.5 17.2996 303.5 16.5039H297.5C297.235 16.5039 296.98 16.6093 296.793 16.7968C296.605 16.9843 296.5 17.2387 296.5 17.5039V24.5039C296.5 24.7691 296.605 25.0235 296.793 25.211C296.98 25.3985 297.235 25.5039 297.5 25.5039L299.499 25.5029L299.5 33.5039C299.5 33.7691 299.605 34.0235 299.793 34.211C299.98 34.3986 300.235 34.5039 300.5 34.5039H312.5C312.765 34.5039 313.02 34.3986 313.207 34.211C313.395 34.0235 313.5 33.7691 313.5 33.5039L313.499 25.5039H315.5C315.765 25.5039 316.02 25.3985 316.207 25.211C316.395 25.0235 316.5 24.7691 316.5 24.5039V17.5039C316.5 17.2387 316.395 16.9843 316.207 16.7968ZM307.752 26.1772C308.259 26.2716 308.742 26.7786 308.825 27.4272C308.884 27.9342 308.872 29.0073 308.836 29.5851C308.766 30.7289 307.952 31.3892 306.478 31.3892C304.863 31.3892 304.297 30.7761 304.155 29.5851C304.108 29.2077 304.108 27.9814 304.202 27.3564C304.308 26.6253 304.827 26.2716 305.181 26.1654C304.792 26.0711 304.414 25.6702 304.355 24.9745C304.332 24.7268 304.308 23.6538 304.344 23.3354C304.438 22.5335 304.945 21.7906 306.478 21.7906C307.987 21.7906 308.577 22.5689 308.648 23.3354C308.695 23.8542 308.671 24.5499 308.636 24.9273C308.577 25.5287 308.235 26.0357 307.752 26.1772ZM305.983 25.1513C306.053 25.4933 306.219 25.5641 306.478 25.5641C306.749 25.5641 306.973 25.4697 306.997 25.1631C307.032 24.774 307.032 23.7953 306.997 23.642C306.938 23.3236 306.737 23.2057 306.478 23.2057C306.242 23.2057 306.018 23.3354 305.971 23.642C305.947 23.7835 305.947 24.9745 305.983 25.1513ZM305.865 29.4554C305.912 29.7855 306.148 29.986 306.478 29.986C306.82 29.986 307.056 29.7973 307.103 29.4672C307.15 29.0544 307.15 27.7927 307.103 27.4625C307.044 27.097 306.808 26.9555 306.478 26.9555C306.171 26.9555 305.912 27.097 305.865 27.4743C305.818 27.7927 305.818 29.137 305.865 29.4554Z" fill="white"/>
<rect x="104" y="0.621338" width="230" height="49.7652" stroke="white"/>
<path d="M135.016 69.1585H130.12V83.1985L125.62 69.1585H120.616V97.8865H125.512V83.5585L130.048 97.8865H135.016V69.1585ZM150.313 69.1585H137.605V97.8865H142.861V85.8985H149.737V81.0745H142.861V74.0905H150.313V69.1585ZM164.879 93.0265H157.283V69.1585H152.027V97.8865H164.879V93.0265ZM181.004 69.1585H175.784V91.1905C175.784 92.3425 175.28 93.3505 173.804 93.4225C172.976 93.4585 172.22 93.4225 171.572 93.3505V97.8505C172.508 97.9945 172.976 98.0665 174.452 98.0665C178.88 98.0665 181.004 96.3745 181.004 91.9465V69.1585ZM191.294 91.4425C191.294 91.9465 191.222 92.5585 191.078 93.1705C190.898 93.9625 190.142 94.2865 189.422 94.2865C188.702 94.2865 187.874 93.8545 187.766 92.8825C187.658 91.9825 187.622 90.5425 187.622 89.6425H195.794C195.974 86.2585 195.722 82.8025 195.038 81.1105C194.21 79.0945 192.302 77.8345 189.53 77.8345C186.11 77.8345 184.598 79.3825 183.878 81.1465C183.338 82.4425 182.942 85.1065 182.942 88.0945C182.942 91.1545 183.194 93.4225 184.022 95.3305C184.886 97.3465 186.938 98.1385 189.602 98.1385C192.266 98.1385 193.886 97.0585 194.75 95.5105C195.506 94.1785 195.686 92.0185 195.686 91.4425H191.294ZM187.55 86.1145C187.55 84.7465 187.586 83.4505 187.838 82.8385C188.09 82.1545 188.666 81.7945 189.458 81.7945C190.286 81.7945 190.826 82.1905 191.006 82.8745C191.15 83.3425 191.258 84.3145 191.258 86.1145H187.55ZM205.829 77.8345C204.173 77.8345 202.517 78.9145 202.301 80.4265V78.0865H197.549V97.8865H202.373V86.1505C202.373 82.9105 203.381 82.1905 205.037 82.1905C206.009 82.1905 206.981 82.3705 207.557 82.5505V78.0145C207.161 77.8705 206.585 77.8345 205.829 77.8345ZM217.052 86.6905C216.152 86.2225 215.252 85.8265 214.352 85.3945C213.2 84.8545 212.804 84.2425 212.804 83.2705C212.804 82.4425 213.164 81.7585 214.28 81.7585C215.288 81.7585 215.612 82.3345 215.684 82.9465C215.72 83.0905 215.756 84.2065 215.756 84.4225H220.112C220.112 84.0265 220.004 81.9385 219.896 81.3625C219.428 79.1665 217.592 77.7985 214.1 77.7985C210.284 77.7985 208.34 80.0305 208.34 83.1625C208.34 86.1145 209.204 87.9505 211.796 89.1745C212.516 89.4985 213.488 89.9665 214.1 90.2185C215.468 90.7585 215.936 91.4425 215.936 92.6665C215.936 93.7825 215.252 94.3225 214.352 94.3225C213.488 94.3225 212.804 93.9625 212.732 93.1345C212.696 92.5225 212.66 91.9105 212.66 91.6585H208.196C208.196 92.2705 208.232 93.5305 208.304 94.1785C208.628 96.8425 210.428 98.1745 214.46 98.1745C218.024 98.1745 220.508 96.2665 220.508 92.5225C220.508 89.4985 219.572 87.9505 217.052 86.6905ZM230.238 91.4425C230.238 91.9465 230.166 92.5585 230.022 93.1705C229.842 93.9625 229.086 94.2865 228.366 94.2865C227.646 94.2865 226.818 93.8545 226.71 92.8825C226.602 91.9825 226.566 90.5425 226.566 89.6425H234.738C234.918 86.2585 234.666 82.8025 233.982 81.1105C233.154 79.0945 231.246 77.8345 228.474 77.8345C225.054 77.8345 223.542 79.3825 222.822 81.1465C222.282 82.4425 221.886 85.1065 221.886 88.0945C221.886 91.1545 222.138 93.4225 222.966 95.3305C223.83 97.3465 225.882 98.1385 228.546 98.1385C231.21 98.1385 232.83 97.0585 233.694 95.5105C234.45 94.1785 234.63 92.0185 234.63 91.4425H230.238ZM226.494 86.1145C226.494 84.7465 226.53 83.4505 226.782 82.8385C227.034 82.1545 227.61 81.7945 228.402 81.7945C229.23 81.7945 229.77 82.1905 229.95 82.8745C230.094 83.3425 230.202 84.3145 230.202 86.1145H226.494ZM244.785 78.0865C244.749 78.6985 242.445 90.3985 242.373 90.8305C242.337 90.4345 240.033 78.5905 239.961 78.0865H235.065L239.781 97.3465L238.161 103.754H243.093L249.573 78.0865H244.785Z" fill="white"/>
<rect x="104" y="0.621338" width="230" height="143" stroke="white"/>
</g>
<rect x="1" y="0.621338" width="333" height="143" rx="11.5" stroke="white"/>
<defs>
<clipPath id="clip0_2388_31318">
<rect x="0.5" y="0.121338" width="334" height="144" rx="12" fill="white"/>
</clipPath>
</defs>
</svg>
