<svg width="48" height="48" viewBox="0 0 48 48" fill="none" xmlns="http://www.w3.org/2000/svg">
<path fill-rule="evenodd" clip-rule="evenodd" d="M30.1811 24.5174V25.763C30.1811 25.9778 30.0069 26.152 29.7919 26.152C29.577 26.152 29.4026 25.978 29.4026 25.763V24.5174H27.3477V25.763C27.3477 25.9778 27.1735 26.152 26.9585 26.152C26.7434 26.152 26.5692 25.978 26.5692 25.763V24.5174H24.5143V25.763C24.5143 25.9778 24.3401 26.152 24.1251 26.152C23.91 26.152 23.736 25.978 23.736 25.763V24.5174H21.6811V25.763C21.6811 25.9778 21.5069 26.152 21.2919 26.152C21.077 26.152 20.9028 25.978 20.9028 25.763V24.5174H18.8479V25.763C18.8479 25.9778 18.6737 26.152 18.4589 26.152C18.244 26.152 18.0698 25.978 18.0698 25.763V24.5174H16.5254L16.5252 30.0979C18.7875 31.3214 21.373 32.0231 24.1255 32.0231C26.8782 32.0231 29.4637 31.3211 31.7258 30.0979V24.5174H30.1811ZM38 24.0114C38.0012 22.4944 35.2042 20.2252 33.2827 18.8823V29.1416C35.2042 27.7985 37.9986 25.6826 38 24.0114ZM18.0698 22.494V23.7394L16.5257 23.7391V17.9252C18.7882 16.7021 21.3735 16 24.126 16C26.8785 16 29.4639 16.7019 31.7263 17.925V23.7394H30.181V22.494C30.181 22.2792 30.0068 22.105 29.7918 22.105C29.5767 22.105 29.4025 22.2792 29.4025 22.494V23.7394H27.3477V22.494C27.3477 22.2792 27.1734 22.105 26.9584 22.105C26.7433 22.105 26.5691 22.2792 26.5691 22.494V23.7394H24.5143V22.494C24.5143 22.2792 24.3401 22.105 24.125 22.105C23.91 22.105 23.7359 22.2792 23.7359 22.494V23.7394H21.6811V22.494C21.6811 22.2792 21.5069 22.105 21.2918 22.105C21.077 22.105 20.9028 22.2792 20.9028 22.494V23.7394H18.8479V22.494C18.8479 22.2792 18.6737 22.105 18.4588 22.105C18.244 22.105 18.0698 22.2792 18.0698 22.494ZM10 24.0114C9.99877 22.4944 12.7958 20.2252 14.7173 18.8823V29.1416C12.7958 27.7985 10.0014 25.6826 10 24.0114Z" fill="#383E55"/>
<rect x="0.5" y="0.5" width="47" height="47" rx="23.5" stroke="#383E55"/>
</svg>
