<svg width="30" height="30" viewBox="0 0 30 30" fill="none" xmlns="http://www.w3.org/2000/svg">
<path d="M14.9999 0.333374C6.90392 0.333374 0.333252 6.90404 0.333252 15C0.333252 23.096 6.90392 29.6667 14.9999 29.6667C23.0959 29.6667 29.6666 23.096 29.6666 15C29.6666 6.90404 23.0959 0.333374 14.9999 0.333374ZM16.2906 23.448V25.2667H13.7239V23.3747C12.6386 23.1107 10.2186 22.2454 9.29458 19.0334L11.7146 18.0507C11.8026 18.3734 12.5653 21.116 15.2346 21.116C16.5986 21.116 18.1386 20.412 18.1386 18.7547C18.1386 17.3467 17.1119 16.6134 14.7946 15.7774C13.1813 15.2054 9.88125 14.2667 9.88125 10.9227C9.88125 10.776 9.89592 7.40271 13.7239 6.58137V4.73337H16.2906V6.55204C18.9893 7.02137 19.9719 9.17737 20.1919 9.82271L17.8746 10.8054C17.7133 10.292 17.0093 8.84004 15.0879 8.84004C14.0613 8.84004 12.4333 9.38271 12.4333 10.8787C12.4333 12.272 13.6946 12.8 16.3053 13.6654C19.8253 14.8827 20.7199 16.672 20.7199 18.7254C20.7199 22.5827 17.0533 23.316 16.2906 23.448Z" fill="white" fill-opacity="0.75"/>
</svg>
