<svg width="30" height="30" viewBox="0 0 30 30" fill="none" xmlns="http://www.w3.org/2000/svg">
<path d="M26.4073 3.59257H23.1481V0.333313H6.85177V3.59257H3.59251C1.79992 3.59257 0.333252 5.05924 0.333252 6.85183V8.48146C0.333252 12.637 3.46214 16.0266 7.48733 16.5318C8.51399 18.9763 10.714 20.8178 13.3703 21.3555V26.4074H6.85177V29.6666H23.1481V26.4074H16.6295V21.3555C19.2858 20.8178 21.4858 18.9763 22.5125 16.5318C26.5377 16.0266 29.6666 12.637 29.6666 8.48146V6.85183C29.6666 5.05924 28.1999 3.59257 26.4073 3.59257ZM3.59251 8.48146V6.85183H6.85177V13.077C4.9614 12.3926 3.59251 10.6 3.59251 8.48146ZM26.4073 8.48146C26.4073 10.6 25.0384 12.3926 23.1481 13.077V6.85183H26.4073V8.48146Z" fill="white" fill-opacity="0.75"/>
</svg>
