<svg width="32" height="32" viewBox="0 0 32 32" fill="none" xmlns="http://www.w3.org/2000/svg">
<g clip-path="url(#clip0_1410_7758)">
<path d="M24.4436 29.2012C20.6792 31.3746 15.9693 31.0301 12.5521 28.338L8.26606 24.9543L6.11745 23.2785C5.62262 22.8925 5.33333 22.3 5.33333 21.6725L5.33333 21.6261C5.33333 20.681 6.00113 19.8677 6.92809 19.6837V19.6837C7.49576 19.571 8.0843 19.7123 8.53894 20.0704L11.4868 22.3924C11.6784 22.5433 11.9426 22.5623 12.1538 22.4404V22.4404C12.4389 22.2757 12.5366 21.9111 12.372 21.626L4.83672 8.57454C4.37672 7.7778 4.65002 6.75783 5.44676 6.29783C6.2435 5.83783 7.26347 6.11113 7.72347 6.90787L13.2235 16.4342C13.4076 16.753 13.8153 16.8623 14.1342 16.6782V16.6782C14.453 16.4941 14.5623 16.0863 14.3782 15.7675L12.4681 12.4591C12.0081 11.6624 12.2814 10.6424 13.0781 10.1824C13.8749 9.72243 14.8948 9.99573 15.3548 10.7925L17.2649 14.1008C17.449 14.4197 17.8567 14.5289 18.1756 14.3448V14.3448C18.4945 14.1607 18.6037 13.753 18.4196 13.4342L17.3429 11.5692C16.8829 10.7724 17.1562 9.75247 17.9529 9.29247C18.7497 8.83247 19.7696 9.10577 20.2296 9.90251L21.3063 11.7674C21.4904 12.0863 21.8982 12.1956 22.2172 12.0114V12.0114C22.536 11.8274 22.6453 11.4197 22.4613 11.1008L22.3846 10.9678C21.9246 10.171 22.1979 9.15105 22.9946 8.69105C23.7914 8.23105 24.8113 8.50435 25.2713 9.30109L28.3478 14.6303C31.2945 19.7341 29.5473 26.2546 24.4436 29.2012Z" fill="white" fill-opacity="0.75"/>
</g>
<defs>
<clipPath id="clip0_1410_7758">
<rect width="32" height="32" fill="white"/>
</clipPath>
</defs>
</svg>
