<svg width="108" height="62" viewBox="0 0 108 62" fill="none" xmlns="http://www.w3.org/2000/svg">
<path opacity="0.4" fill-rule="evenodd" clip-rule="evenodd" d="M77.5316 32.9256V37.6676C77.5316 38.4855 76.8684 39.1488 76.0497 39.1488C75.2317 39.1488 74.5678 38.4863 74.5678 37.6676V32.9256H66.7449V37.6676C66.7449 38.4855 66.0817 39.1488 65.263 39.1488C64.4443 39.1488 63.7811 38.4863 63.7811 37.6676V32.9256H55.9582V37.6676C55.9582 38.4855 55.295 39.1488 54.4763 39.1488C53.6576 39.1488 52.9951 38.4863 52.9951 37.6676V32.9256H45.1722V37.6676C45.1722 38.4855 44.509 39.1488 43.6903 39.1488C42.8724 39.1488 42.2092 38.4863 42.2092 37.6676V32.9256H34.3863V37.6676C34.3863 38.4855 33.7231 39.1488 32.9051 39.1488C32.0872 39.1488 31.4239 38.4863 31.4239 37.6676V32.9256H25.5443L25.5435 54.1708C34.1563 58.8286 43.999 61.5 54.4778 61.5C64.9572 61.5 74.8005 58.8273 83.4121 54.1708V32.9256H77.5316ZM107.298 30.9995C107.303 25.2241 96.6544 16.5852 89.3393 11.4729V50.5299C96.6544 45.4167 107.293 37.3615 107.298 30.9995ZM31.4237 25.2228V29.964L25.5454 29.9629V7.82922C34.1589 3.17272 44.0009 0.5 54.4797 0.5C64.9585 0.5 74.8013 3.17196 83.414 7.82846V29.964H77.5313V25.2228C77.5313 24.4049 76.8681 23.7417 76.0494 23.7417C75.2307 23.7417 74.5675 24.4049 74.5675 25.2228V29.964H66.7446V25.2228C66.7446 24.4049 66.0814 23.7417 65.2627 23.7417C64.444 23.7417 63.7808 24.4049 63.7808 25.2228V29.964H55.9579V25.2228C55.9579 24.4049 55.2947 23.7417 54.476 23.7417C53.6573 23.7417 52.9949 24.4049 52.9949 25.2228V29.964H45.172V25.2228C45.172 24.4049 44.5087 23.7417 43.6901 23.7417C42.8721 23.7417 42.2089 24.4049 42.2089 25.2228V29.964H34.386V25.2228C34.386 24.4049 33.7228 23.7417 32.9048 23.7417C32.0869 23.7417 31.4237 24.4049 31.4237 25.2228ZM0.70215 30.9995C0.697467 25.2241 11.3459 16.5852 18.6609 11.4729V50.5299C11.3459 45.4167 0.707308 37.3615 0.70215 30.9995Z" fill="white"/>
</svg>
