<svg width="48" height="48" viewBox="0 0 48 48" fill="none" xmlns="http://www.w3.org/2000/svg">
<path d="M40.0235 15.79C39.6935 15.87 38.8735 15.9 38.5235 15.9C38.1735 15.9 37.6835 15.85 36.9235 16.18C36.3835 16.42 36.0135 16.89 35.8535 17.14C35.9035 17.07 35.9535 17.01 35.9935 16.98C35.9935 16.98 36.5435 16.34 37.6735 16.43C37.6335 16.49 37.6035 16.57 37.6435 16.65C37.6435 16.66 37.6535 16.67 37.6635 16.68C37.6635 16.68 38.0635 16.55 38.3535 16.46C38.9735 16.31 39.3535 16.2 39.7735 16.03C40.3435 15.8 40.5235 15.69 40.5135 15.65C40.4935 15.61 40.3535 15.71 40.0235 15.79V15.79Z" fill="#636466"/>
<path d="M35.9938 16.98C35.9938 16.98 35.9038 17.07 35.8538 17.14C35.6538 17.43 35.4038 17.94 35.4038 17.94C35.7838 17.38 36.9638 16.91 37.6638 16.67C37.6638 16.66 37.6538 16.65 37.6438 16.64C37.6038 16.56 37.6438 16.48 37.6738 16.42C36.5438 16.34 35.9938 16.97 35.9938 16.97V16.98Z" fill="white"/>
<path d="M37.1235 30.13C36.8835 30.62 37.5035 32.12 38.0735 32.57C37.6535 32.45 35.4835 31.83 35.1335 32.63C34.7535 33.52 36.8735 36.77 37.1235 37.37C36.1435 36.4 33.4535 34.21 33.0735 34.46C32.6935 34.71 32.7835 35.93 32.8835 36.54C32.5135 36.09 31.8835 35.37 31.3335 35.59C30.7835 35.81 30.8535 37.89 30.8135 38.78C30.3635 37.73 29.6235 35.63 28.9435 35.7C28.2635 35.78 27.4935 37.21 27.3535 37.76C27.2535 37.21 26.8035 36 26.1235 36C25.4435 36 23.8735 39.19 23.4035 40.23C23.4035 39.43 23.5935 35.51 23.1635 35.32C22.7335 35.13 21.3035 36.02 20.9935 36.42C21.1035 35.91 21.2035 34.17 20.8235 33.96C20.4435 33.75 19.3435 33.68 17.3735 35.51C17.7035 34.81 18.2435 34.05 18.3735 33.31C19.1935 33.27 20.0035 33.18 20.8135 33.02C22.5935 34.31 24.7835 35.07 27.1535 35.07C33.1335 35.07 37.9835 30.22 37.9835 24.24C37.9835 23.77 37.9535 23.31 37.8935 22.86C38.2935 22.48 38.6835 22.12 39.0335 21.78C38.9535 21.98 38.9035 22.21 38.9135 22.5C38.9335 23.41 41.3035 23.61 42.5635 23.71C41.1635 23.9 38.7035 24.92 39.1735 25.46C39.6435 26 40.9935 26.75 41.1935 26.85C40.5435 26.85 38.4135 27.07 38.1835 27.67C37.9435 28.27 41.2635 30.3 42.4835 30.77C40.9735 30.34 37.3635 29.63 37.1235 30.12V30.13Z" fill="#939598"/>
<path d="M35.2936 14.5601C34.5836 14.7001 33.8536 14.9001 33.1036 15.1801C31.3936 14.0601 29.3636 13.4101 27.1636 13.4101C21.1836 13.4101 16.3336 18.2601 16.3336 24.2401C16.3336 25.6801 16.6136 27.0501 17.1236 28.3101C16.5036 28.7701 15.9136 29.1301 15.3136 29.4101C15.7536 28.8801 16.1436 27.8701 15.6436 27.6001C15.3036 27.4201 13.7136 27.3401 13.7136 27.3401C13.7136 27.3401 15.5036 26.1401 15.4536 25.2701C15.4136 24.4001 12.5636 23.9601 11.4336 23.7101C12.4236 23.5001 15.6436 22.7701 15.7836 22.1301C15.9236 21.4801 14.7736 21.0201 14.2936 20.8001C14.8336 20.8001 16.2036 21.0401 16.3836 20.3701C16.5936 19.6101 13.2336 17.6101 12.4636 17.3401C12.6336 17.3801 15.8436 18.1301 17.0136 17.8701C17.8836 17.6801 16.8736 16.5101 16.7036 16.3701C16.9636 16.5001 18.4336 16.8001 18.8536 16.1001C19.2736 15.4001 17.8436 12.6201 17.0436 11.4501C17.7536 12.1601 20.9936 14.4601 21.4736 14.0701C21.9536 13.6801 21.5836 12.4101 21.3236 11.9901C21.8436 12.4801 22.3636 13.1301 23.0236 13.1201C23.3536 13.1201 23.7736 12.0101 23.8436 9.53006C24.2936 10.9201 25.3636 12.8101 26.1536 12.7001C26.9436 12.5901 27.2136 11.4101 27.3236 10.9201C27.4136 11.4601 27.8336 12.8301 28.3536 12.8801C29.0036 12.9801 30.2336 10.1101 30.6836 8.81006C30.7536 9.45006 30.2836 12.7501 30.9736 13.0201C31.6736 13.2901 32.8236 11.9101 33.4736 11.1301C33.0736 11.8801 32.3036 13.7001 32.7636 14.1301C33.2236 14.5701 34.8136 14.1101 35.4436 13.6001C35.2736 13.9801 35.2336 14.2901 35.2836 14.5701L35.2936 14.5601Z" fill="#939598"/>
<path d="M43.7936 14.51C42.9636 14.59 41.3136 15.19 41.3136 15.19C38.2936 14.41 34.7036 14.32 30.3036 16.99C29.4836 17.49 28.7336 18.01 28.0336 18.53C27.3436 19.06 26.7036 19.59 26.1036 20.13C25.8436 20.36 25.5136 20.66 25.2336 20.95C23.8036 21.43 23.1736 20.98 21.2136 21.24C19.6636 21.44 19.0536 21.97 18.7136 22.39C18.6736 22.51 18.6736 22.62 18.7536 22.68C18.9436 22.83 19.2236 22.75 19.7736 22.71C20.3136 22.67 21.1436 22.68 21.6836 23.02C22.0336 23.24 22.1936 23.76 22.2536 24.05C21.8436 24.48 21.4436 24.9 21.0436 25.3C18.5636 27.75 16.8936 29.21 15.0336 29.94C10.9836 31.53 8.70357 29.66 7.78357 29.11C6.67357 28.4 5.20357 28.16 4.41357 28.02C3.62357 27.87 3.19357 27.49 3.02357 27.35C2.85357 27.21 2.72357 26.97 2.53357 27.02C2.48357 27.03 2.44357 27.05 2.41357 27.08C2.44357 27.05 2.48357 27.04 2.53357 27.02C2.56357 27.36 3.71357 30.22 7.36357 30.74C8.40357 30.89 8.73357 30.84 8.93357 30.83C8.32357 30.29 7.81357 29.54 7.77357 29.49C7.91357 29.61 8.05357 29.73 8.19357 29.84C9.28357 31 10.5236 31.48 11.5636 31.66C11.6336 31.68 12.6536 31.73 12.6536 31.73C13.8536 31.7 15.4536 31.35 16.9536 30.92C21.3336 29.65 25.5536 25.85 25.5536 25.85C25.5536 25.85 25.3236 26.87 25.2236 27.23C25.1636 27.52 24.9536 28.47 24.5436 29.48C24.5436 29.48 24.4236 29.78 24.2436 30.15C23.9836 30.7 23.6236 31.39 23.6236 31.67C23.6236 31.68 23.6236 31.7 23.6236 31.71C23.6236 31.71 23.6236 31.74 23.6436 31.78C23.9736 31.61 24.4236 31.3 24.9336 30.87C25.7336 30.21 26.7436 29.19 27.9136 27.75C30.5436 24.51 30.9536 22.29 32.8036 20.56C33.5836 19.83 35.6436 18.7 36.6936 18.33C36.7036 18.33 36.7136 18.32 36.7136 18.32C38.4936 17.3 40.2336 16.52 40.5136 16.4C41.5536 15.98 45.2136 14.77 45.6036 15.37C45.4436 14.67 44.6036 14.4 43.7936 14.48V14.51ZM39.7836 16.04C39.3636 16.21 38.9836 16.32 38.3636 16.47C38.0736 16.56 37.6736 16.69 37.6736 16.69C36.9736 16.93 35.7936 17.4 35.4136 17.95C35.4336 17.92 35.6736 17.43 35.8636 17.15C36.0236 16.9 36.3936 16.42 36.9336 16.19C37.6936 15.86 38.1836 15.91 38.5336 15.91C38.8836 15.91 39.7036 15.88 40.0336 15.8C40.3636 15.72 40.5036 15.62 40.5236 15.66C40.5436 15.7 40.3636 15.81 39.7836 16.04V16.04Z" fill="#808285"/>
<path d="M25.2337 27.24C25.1737 27.53 24.9637 28.48 24.5537 29.49C23.1237 30.25 20.8337 31.22 18.7637 31.71C14.6937 32.67 12.0837 31.84 11.6337 31.69L11.5737 31.67C11.6737 31.69 12.6637 31.73 12.6637 31.73C12.8737 31.73 15.6637 31.84 18.7137 30.7C21.2137 29.79 23.6637 28.3 25.2337 27.24V27.24Z" fill="white"/>
<path d="M25.5538 25.86C25.5538 25.86 25.3238 26.88 25.2238 27.24C23.6538 28.3 21.1938 29.79 18.7038 30.7C15.6538 31.85 12.8638 31.74 12.6538 31.73C13.8538 31.7 15.4538 31.35 16.9538 30.92C21.3338 29.65 25.5538 25.85 25.5538 25.85V25.86Z" fill="#636466"/>
<path d="M35.9435 24.0699C35.6335 25.0299 35.1535 26.3399 34.5735 27.4499C33.8835 28.7699 32.9635 29.6799 32.4835 30.0299C32.4035 29.9799 32.3735 29.8799 32.3735 29.7699C32.3735 29.5799 32.7835 28.6099 32.9435 26.5699C33.4635 26.1799 33.9335 25.8099 34.3435 25.4599C34.8735 25.0199 35.4135 24.5499 35.9535 24.0699H35.9435Z" fill="#808285"/>
<path d="M11.8639 28.64C11.8639 28.77 11.8439 28.9 11.8139 29.04C11.7539 29.27 11.6339 29.55 11.4339 29.83C11.3139 30 11.1239 30.23 11.1139 30.23C11.0839 30.23 10.9339 30.23 10.8039 30.23C10.6739 30.22 10.5439 30.19 10.4839 30.18C10.4839 30.18 12.1239 28.99 11.6739 28.44C11.7039 28.44 11.8539 28.4 11.8639 28.64V28.64Z" fill="#636466"/>
<path d="M45.3836 16.13C45.3836 16.13 45.3136 16.23 45.0936 16.43C44.8636 16.63 44.4836 16.92 43.8536 17.31C43.2536 17.68 41.5636 18.82 40.2736 20.02C40.2236 20.06 36.7736 23.33 36.6836 23.41C36.6836 23.44 36.2236 25.11 35.1536 27.28C34.4036 28.8 33.2836 29.75 32.8836 29.97C32.8536 29.98 32.6236 30.13 32.4736 30.03C32.9536 29.68 33.8736 28.77 34.5636 27.45C35.1436 26.34 35.6236 25.03 35.9336 24.07C35.3936 24.55 34.8536 25.03 34.3236 25.46C33.9136 25.8 33.4436 26.18 32.9236 26.57C32.9236 26.57 31.8036 27.39 31.1736 27.81C30.8236 28.05 29.1936 29.06 28.2136 29.59C27.3736 30.05 25.6236 30.88 25.6236 30.88C24.7136 31.65 23.9936 32.01 23.8036 31.96C23.6836 31.93 23.6436 31.79 23.6436 31.79C23.9736 31.62 24.4236 31.31 24.9336 30.88C25.7336 30.22 26.7436 29.2 27.9136 27.76C30.5436 24.52 30.9536 22.3 32.8036 20.57C33.5836 19.84 35.6436 18.71 36.6936 18.34C36.7036 18.34 36.7136 18.33 36.7136 18.33C35.5136 19.02 34.2836 19.81 33.4936 20.57C31.9536 22.01 31.4236 23.7 29.8936 26L29.8536 26.06C35.0036 22.15 38.9836 17.63 43.0936 16.19C43.2236 16.14 43.3536 16.1 43.4636 16.06H43.4736C44.8736 15.59 45.4436 15.51 45.4836 15.78C45.5036 15.89 45.4136 16.07 45.3736 16.13H45.3836Z" fill="#636466"/>
<path d="M10.4938 30.1701C9.45377 29.9701 8.24377 29.2601 7.86377 29.0501C7.99377 28.9201 8.31377 28.7001 8.91377 28.7301C9.74377 28.7801 10.6538 28.8501 11.0838 28.7201C11.4538 28.6101 11.5238 28.4501 11.6838 28.4301C12.1338 28.9801 10.4638 30.1201 10.4938 30.1701V30.1701Z" fill="#808285"/>
<path d="M21.2239 21.24C23.1839 20.98 23.8239 21.43 25.2439 20.95C25.5239 20.66 25.8539 20.37 26.1139 20.13C25.7139 20.26 25.3939 20.34 25.1039 20.39C24.4339 20.52 23.9539 20.49 22.5639 20.67C20.3839 20.96 19.3639 21.64 19.0839 21.9C18.9939 21.98 18.9339 22.05 18.8439 22.17C18.7839 22.26 18.7339 22.36 18.7339 22.38C19.0739 21.96 19.6739 21.43 21.2339 21.23L21.2239 21.24Z" fill="#636466"/>
<path d="M24.2535 30.16C23.9935 30.71 23.6335 31.4 23.6335 31.68C23.6335 31.69 23.6335 31.71 23.6335 31.72C20.3135 33.02 17.6035 32.96 17.5935 32.96C13.0235 33.18 9.43352 31.32 9.43352 31.32C9.43352 31.32 9.40352 31.32 9.36352 31.32C8.93352 31.32 6.81352 31.29 5.42352 30.64C3.90352 29.93 3.02352 28.83 2.64352 27.99C2.36352 27.37 2.34352 27.17 2.43352 27.09C2.43352 27.09 2.45352 27.08 2.46352 27.07C2.49352 27.05 2.52352 27.04 2.56352 27.03C2.59352 27.37 3.74352 30.23 7.39352 30.75C8.43352 30.9 8.76352 30.85 8.96352 30.84C8.35352 30.3 7.84352 29.55 7.80352 29.5C7.94352 29.62 8.08352 29.74 8.22352 29.85C9.31352 31.01 10.5535 31.49 11.5935 31.67L11.6535 31.69C12.1035 31.84 14.7135 32.66 18.7835 31.71C20.8535 31.23 23.1435 30.25 24.5735 29.49C24.5735 29.49 24.4535 29.79 24.2735 30.16H24.2535Z" fill="#636466"/>
<path d="M45.9936 15.51C45.9936 15.35 45.9536 15.25 45.9536 15.25C45.7536 14.55 45.0436 14.12 44.0736 14.12C43.9736 14.12 43.8636 14.12 43.7636 14.14C43.0236 14.21 41.6936 14.66 41.3036 14.8C40.0736 14.49 38.9136 14.34 37.7736 14.34C37.1836 14.34 36.5936 14.38 36.0136 14.46L35.7736 14.49C35.7736 14.49 35.6836 14.18 35.9236 13.47C36.0536 13.1 36.2236 12.76 36.2236 12.76C36.2236 12.76 33.5336 14.16 33.2036 13.71C32.8736 13.26 34.3736 9.72 34.3736 9.72C34.3736 9.72 31.7836 12.6 31.2736 12.47C31.0736 12.42 31.0536 11.38 31.0436 10.26C31.0336 8.74 31.0836 7 31.0836 7C31.0836 7 28.9536 12.3 28.4336 12.27C27.9836 12.25 27.3236 9.42 27.3236 9.42C27.3236 9.42 26.9136 11.86 26.1736 12.16C25.4336 12.46 23.5336 7.9 23.5336 7.9C23.5336 7.9 23.4436 12.46 22.9136 12.57C22.3836 12.67 20.6936 10.97 20.6936 10.97C20.6936 10.97 21.4836 13.24 21.2136 13.54C21.0536 13.72 19.4336 12.72 17.7436 11.51C16.7736 10.81 15.9536 10.23 15.9536 10.23C15.9536 10.23 16.9036 11.81 17.6636 13.46C18.1836 14.6 18.5036 15.69 18.3636 15.9C18.0336 16.42 15.5236 15.68 15.5236 15.68C15.5236 15.68 16.9436 17.05 16.8536 17.4C16.8136 17.57 15.3936 17.45 13.9536 17.25C12.4236 17.04 10.8736 16.75 10.8736 16.75C10.8736 16.75 15.9536 19.7 15.7936 20.24C15.6636 20.66 12.5036 20.32 12.5036 20.32C12.5036 20.32 15.2536 21.58 15.2436 21.99C15.2336 22.41 9.86359 23.76 9.86359 23.76C9.86359 23.76 14.7236 24.78 14.8236 25.32C14.9136 25.86 12.9036 27.6 12.9036 27.6C12.9036 27.6 15.2436 27.81 15.3636 28.12C15.4836 28.43 14.7936 29.64 14.2036 29.83C13.4636 30.07 12.8036 30.22 11.9836 30.22C11.8636 30.22 11.7536 30.22 11.6436 30.22C11.6836 30.17 11.7236 30.11 11.7536 30.06C11.9536 29.77 12.1036 29.45 12.1836 29.15C12.2236 28.99 12.2436 28.82 12.2436 28.66V28.65C12.2436 28.47 12.1836 28.32 12.0736 28.21C11.8736 28.04 11.6936 28.06 11.5536 28.12L11.0936 28.35C11.0936 28.35 11.0236 28.38 10.9736 28.39C10.8836 28.42 10.7036 28.45 10.3136 28.45C9.94359 28.45 9.51359 28.42 9.09359 28.4C9.09359 28.4 8.83359 28.39 8.78359 28.39C8.28359 28.39 7.94359 28.55 7.74359 28.7L7.63359 28.64C6.60359 28.09 5.40359 27.87 4.66359 27.73C4.60359 27.72 4.55359 27.71 4.49359 27.7C3.66359 27.54 3.21359 27.05 3.18359 27.01C3.11359 26.93 3.02359 26.84 2.90359 26.77C2.90359 26.77 2.69359 26.64 2.37359 26.73C2.16359 26.8 2.07359 26.97 2.07359 26.97C1.89359 27.27 2.07359 27.7 2.29359 28.19C2.54359 28.75 3.34359 30.14 5.26359 31.02C5.89359 31.31 6.71359 31.52 7.71359 31.64C8.46359 31.73 9.10359 31.74 9.35359 31.74C9.59359 31.86 10.3436 32.2 11.4636 32.55C12.6836 32.93 14.5936 33.39 16.7936 33.4C16.7936 33.4 17.5736 33.4 17.9936 33.38C18.0336 33.55 17.7336 34.18 17.3636 34.91C16.9336 35.78 16.3736 36.81 16.3736 36.81C16.3736 36.81 17.3736 35.92 18.3136 35.27C19.2536 34.61 20.3036 34.08 20.5536 34.38C21.0236 34.96 20.5236 37.34 20.5236 37.34C20.5236 37.34 22.4236 35.66 22.8636 35.89C23.0636 35.99 23.0836 37.25 23.0836 38.57C23.0836 40.14 23.0436 41.8 23.0436 41.8C23.0436 41.8 25.6636 36.51 26.2036 36.66C26.7436 36.81 27.3436 39.22 27.3436 39.22C27.3436 39.22 28.3336 36.28 28.9436 36.35C29.1836 36.32 29.7036 37.27 30.1736 38.25C30.6836 39.32 31.1136 40.36 31.1136 40.36C31.1136 40.36 31.1236 39.27 31.2036 38.15C31.2736 37.14 31.4036 36.16 31.6236 36.1C32.0936 35.99 33.4436 37.8 33.4436 37.8C33.4436 37.8 32.9636 35.27 33.3436 35.06C33.7236 34.85 38.2236 38.74 38.2236 38.74C38.2236 38.74 35.2636 33.26 35.6236 32.84C35.9836 32.42 39.1436 33.28 39.1436 33.28C39.1436 33.28 38.6736 32.72 38.2736 32.1C37.8536 31.44 37.5036 30.71 37.6636 30.53C37.8136 30.37 39.4636 30.53 41.1636 30.87C43.1236 31.25 44.4036 31.52 44.4036 31.52C44.4036 31.52 43.2436 30.89 41.5436 29.87C40.0636 28.98 38.7736 27.98 38.8236 27.82C38.9436 27.47 42.4636 27.14 42.4636 27.14C42.4636 27.14 41.8736 26.79 41.2336 26.4C40.5436 25.98 39.8036 25.45 39.8036 25.26C39.8036 25.09 40.6836 24.68 41.8536 24.32C43.2536 23.89 44.5436 23.6 44.5436 23.6C44.5436 23.6 39.7436 23.21 39.4436 22.53C39.2436 22.06 39.6136 21.45 39.8936 21.06C40.1736 20.67 40.5636 20.31 40.5636 20.31C41.8736 19.1 43.5436 17.98 44.0836 17.65C44.1236 17.63 44.1536 17.6 44.1936 17.58C44.1936 17.58 45.4236 16.67 45.5536 16.56C45.6636 16.47 45.9436 16.17 46.0136 15.8C46.0136 15.8 46.0336 15.7 46.0236 15.53L45.9936 15.51ZM15.6436 27.6C15.3036 27.42 13.7136 27.34 13.7136 27.34C13.7136 27.34 15.5036 26.14 15.4536 25.27C15.4136 24.4 12.5636 23.96 11.4336 23.71C12.4236 23.5 15.6436 22.77 15.7836 22.13C15.9236 21.48 14.7736 21.02 14.2936 20.8C14.8336 20.8 16.2036 21.04 16.3836 20.37C16.5936 19.61 13.2336 17.61 12.4636 17.34C12.6336 17.38 15.8436 18.13 17.0136 17.87C17.8836 17.68 16.8736 16.51 16.7036 16.37C16.9636 16.5 18.4336 16.8 18.8536 16.1C19.2736 15.4 17.8436 12.62 17.0436 11.45C17.7536 12.16 20.9936 14.46 21.4736 14.07C21.9536 13.68 21.5836 12.41 21.3236 11.99C21.8436 12.48 22.3636 13.13 23.0236 13.12C23.3536 13.12 23.7736 12.01 23.8436 9.53C24.2936 10.92 25.3636 12.81 26.1536 12.7C26.9436 12.59 27.2136 11.41 27.3236 10.92C27.4136 11.46 27.8336 12.83 28.3536 12.88C29.0036 12.98 30.2336 10.11 30.6836 8.81C30.7536 9.45 30.2836 12.75 30.9736 13.02C31.6736 13.29 32.8236 11.91 33.4736 11.13C33.0736 11.88 32.3036 13.7 32.7636 14.13C33.2236 14.57 34.8136 14.11 35.4436 13.6C35.2736 13.98 35.2336 14.29 35.2836 14.57C34.5736 14.71 33.8436 14.91 33.0936 15.19C31.3836 14.07 29.3536 13.42 27.1536 13.42C21.1736 13.42 16.3236 18.27 16.3236 24.25C16.3236 25.69 16.6036 27.06 17.1136 28.32C16.4936 28.78 15.9036 29.14 15.3036 29.42C15.7436 28.89 16.1336 27.88 15.6336 27.61L15.6436 27.6ZM8.91359 28.73C9.74359 28.78 10.6536 28.85 11.0836 28.72C11.4536 28.61 11.5236 28.45 11.6836 28.43C11.6836 28.43 11.8636 28.39 11.8736 28.63C11.8736 28.76 11.8536 28.89 11.8236 29.03C11.7636 29.26 11.6436 29.54 11.4436 29.82C11.3236 29.99 11.1336 30.22 11.1236 30.22C11.0936 30.22 10.9436 30.22 10.8136 30.22C10.6836 30.21 10.5536 30.18 10.4936 30.17C9.45359 29.97 8.24359 29.26 7.86359 29.05C7.99359 28.92 8.31359 28.7 8.91359 28.73V28.73ZM42.5736 23.7C41.1736 23.89 38.7136 24.91 39.1836 25.45C39.6536 25.99 41.0036 26.74 41.2036 26.84C40.5536 26.84 38.4236 27.06 38.1936 27.66C37.9536 28.26 41.2736 30.29 42.4936 30.76C40.9836 30.33 37.3736 29.62 37.1336 30.11C36.8936 30.6 37.5136 32.1 38.0836 32.55C37.6636 32.43 35.4936 31.81 35.1436 32.61C34.7636 33.5 36.8836 36.75 37.1336 37.35C36.1536 36.38 33.4636 34.19 33.0836 34.44C32.7036 34.69 32.7936 35.91 32.8936 36.52C32.5236 36.07 31.8936 35.35 31.3436 35.57C30.7936 35.79 30.8636 37.87 30.8236 38.76C30.3736 37.71 29.6336 35.61 28.9536 35.68C28.2736 35.76 27.5036 37.19 27.3636 37.74C27.2636 37.19 26.8136 35.98 26.1336 35.98C25.4536 35.98 23.8836 39.17 23.4136 40.21C23.4136 39.41 23.6036 35.49 23.1736 35.3C22.7436 35.11 21.3136 36 21.0036 36.4C21.1136 35.89 21.2136 34.15 20.8336 33.94C20.4536 33.73 19.3536 33.66 17.3836 35.49C17.7136 34.79 18.2536 34.03 18.3836 33.29C19.2036 33.25 20.0136 33.16 20.8236 33C22.6036 34.29 24.7936 35.05 27.1636 35.05C33.1436 35.05 37.9936 30.2 37.9936 24.22C37.9936 23.75 37.9636 23.29 37.9036 22.84C38.3036 22.46 38.6936 22.1 39.0436 21.76C38.9636 21.96 38.9136 22.19 38.9236 22.48C38.9436 23.39 41.3136 23.59 42.5736 23.69V23.7ZM45.6036 15.39C45.2136 14.79 41.5636 16 40.5136 16.42C40.2336 16.53 38.4936 17.32 36.7136 18.34C35.5136 19.03 34.2836 19.82 33.4936 20.58C31.9536 22.02 31.4236 23.71 29.8936 26.01L29.8536 26.07C35.0036 22.16 38.9836 17.64 43.0936 16.2C43.2236 16.15 43.3536 16.11 43.4636 16.07H43.4736C44.8736 15.6 45.4436 15.52 45.4836 15.79C45.5036 15.9 45.4136 16.08 45.3736 16.14C45.3736 16.14 45.3036 16.24 45.0836 16.44C44.8536 16.64 44.4736 16.93 43.8436 17.32C43.2436 17.69 41.5536 18.83 40.2636 20.03C40.2136 20.07 36.7636 23.34 36.6736 23.42C36.6736 23.45 36.2136 25.12 35.1436 27.29C34.3936 28.81 33.2736 29.76 32.8736 29.98C32.8436 29.99 32.6136 30.14 32.4636 30.04C32.3836 29.99 32.3536 29.89 32.3536 29.78C32.3536 29.59 32.7636 28.62 32.9236 26.58C32.9236 26.58 31.8036 27.4 31.1736 27.83C30.8236 28.07 29.1936 29.08 28.2136 29.61C27.3736 30.07 25.6236 30.9 25.6236 30.9C24.7136 31.67 23.9936 32.03 23.8036 31.98C23.6836 31.95 23.6436 31.81 23.6436 31.81C23.6336 31.77 23.6236 31.74 23.6236 31.74C20.3036 33.04 17.5936 32.98 17.5836 32.98C13.0136 33.2 9.42359 31.34 9.42359 31.34C9.42359 31.34 9.39359 31.34 9.35359 31.34C8.92359 31.34 6.80359 31.31 5.41359 30.66C3.89359 29.95 3.01359 28.85 2.63359 28.01C2.35359 27.39 2.33359 27.19 2.42359 27.11C2.45359 27.08 2.49359 27.07 2.54359 27.05C2.73359 27 2.86359 27.24 3.03359 27.38C3.20359 27.52 3.63359 27.9 4.42359 28.05C5.21359 28.2 6.68359 28.43 7.79359 29.14C8.70359 29.69 10.9936 31.55 15.0436 29.97C16.9136 29.24 18.5736 27.78 21.0536 25.33C21.4536 24.93 21.8536 24.51 22.2636 24.08C22.2036 23.79 22.0436 23.26 21.6936 23.05C21.1536 22.71 20.3236 22.7 19.7836 22.74C19.2436 22.78 18.9536 22.85 18.7636 22.71C18.6936 22.66 18.6836 22.57 18.7036 22.49C18.7236 22.41 18.7536 22.33 18.8036 22.26C18.8136 22.24 18.8236 22.22 18.8436 22.21C18.9336 22.08 19.0036 22.01 19.0836 21.94C19.3736 21.68 20.3836 20.99 22.5636 20.71C23.9536 20.53 24.4336 20.56 25.1036 20.43C25.3936 20.38 25.7136 20.3 26.1136 20.17C26.7036 19.63 27.3436 19.09 28.0436 18.57C28.7336 18.04 29.4836 17.53 30.3136 17.03C34.7136 14.35 38.2936 14.44 41.3236 15.23C41.3236 15.23 42.9736 14.63 43.8036 14.55C44.6136 14.47 45.4536 14.75 45.6136 15.44L45.6036 15.39Z" fill="white"/>
</svg>
