<svg width="48" height="48" viewBox="0 0 48 48" fill="none" xmlns="http://www.w3.org/2000/svg">
<path d="M40.0005 15.7848C39.6707 15.8647 38.8512 15.8947 38.5014 15.8947C38.1516 15.8947 37.6619 15.8447 36.9024 16.1745C36.3627 16.4144 35.9929 16.8841 35.833 17.134C35.883 17.064 35.9329 17.004 35.9729 16.974C35.9729 16.974 36.5226 16.3344 37.6519 16.4244C37.6119 16.4843 37.582 16.5643 37.6219 16.6442C37.6219 16.6542 37.6319 16.6642 37.6419 16.6742C37.6419 16.6742 38.0417 16.5443 38.3315 16.4544C38.9511 16.3044 39.3309 16.1945 39.7507 16.0246C40.3203 15.7948 40.5002 15.6848 40.4902 15.6448C40.4702 15.6049 40.3303 15.7048 40.0005 15.7848V15.7848Z" fill="#005778"/>
<path d="M35.9734 16.974C35.9734 16.974 35.8835 17.064 35.8335 17.1339C35.6336 17.4238 35.3838 17.9335 35.3838 17.9335C35.7636 17.3738 36.9429 16.9041 37.6424 16.6642C37.6424 16.6542 37.6324 16.6442 37.6224 16.6342C37.5825 16.5543 37.6224 16.4743 37.6524 16.4144C36.5231 16.3344 35.9734 16.964 35.9734 16.964V16.974Z" fill="white"/>
<path d="M37.1024 30.1161C36.8626 30.6058 37.4822 32.1049 38.0519 32.5547C37.6321 32.4347 35.4634 31.8151 35.1136 32.6146C34.7338 33.5041 36.8526 36.7521 37.1024 37.3518C36.123 36.3824 33.4346 34.1937 33.0548 34.4435C32.6751 34.6934 32.765 35.9126 32.865 36.5223C32.4952 36.0725 31.8656 35.353 31.3159 35.5728C30.7662 35.7927 30.8362 37.8715 30.7962 38.7609C30.3465 37.7116 29.6069 35.6128 28.9273 35.6828C28.2477 35.7627 27.4782 37.1919 27.3383 37.7415C27.2383 37.1919 26.7886 35.9826 26.109 35.9826C25.4294 35.9826 23.8604 39.1707 23.3906 40.2101C23.3906 39.4105 23.5805 35.4929 23.1508 35.303C22.721 35.1131 21.2919 36.0026 20.9821 36.4023C21.092 35.8927 21.192 34.1537 20.8122 33.9438C20.4324 33.7339 19.3331 33.664 17.3643 35.4929C17.6941 34.7933 18.2337 34.0338 18.3637 33.2942C19.1832 33.2542 19.9927 33.1643 20.8022 33.0044C22.5811 34.2936 24.7698 35.0532 27.1384 35.0532C33.1148 35.0532 37.9619 30.2061 37.9619 24.2296C37.9619 23.7599 37.9319 23.3002 37.872 22.8505C38.2717 22.4707 38.6615 22.1109 39.0113 21.7711C38.9313 21.971 38.8814 22.2009 38.8913 22.4907C38.9113 23.4001 41.2799 23.6 42.5392 23.7C41.14 23.8898 38.6815 24.9092 39.1512 25.4489C39.6209 25.9886 40.9701 26.7381 41.17 26.8381C40.5204 26.8381 38.3916 27.0579 38.1618 27.6576C37.9219 28.2572 41.2399 30.286 42.4592 30.7557C40.9501 30.326 37.3423 29.6164 37.1024 30.1061V30.1161Z" fill="#FC4C02"/>
<path d="M35.2734 14.5555C34.5639 14.6954 33.8343 14.8953 33.0848 15.1751C31.3758 14.0558 29.347 13.4062 27.1483 13.4062C21.1719 13.4062 16.3248 18.2533 16.3248 24.2297C16.3248 25.6688 16.6046 27.038 17.1143 28.2973C16.4947 28.757 15.905 29.1168 15.3054 29.3966C15.7451 28.8669 16.1349 27.8575 15.6352 27.5877C15.2954 27.4078 13.7064 27.3279 13.7064 27.3279C13.7064 27.3279 15.4953 26.1286 15.4453 25.2591C15.4053 24.3896 12.5571 23.9499 11.4277 23.7C12.4171 23.4902 15.6352 22.7606 15.7751 22.121C15.915 21.4714 14.7657 21.0116 14.286 20.7918C14.8257 20.7918 16.1949 21.0316 16.3748 20.362C16.5846 19.6025 13.2267 17.6037 12.4571 17.3338C12.627 17.3738 15.8351 18.1234 17.0044 17.8635C17.8739 17.6736 16.8645 16.5043 16.6946 16.3644C16.9544 16.4944 18.4235 16.7942 18.8433 16.0946C19.263 15.395 17.8339 12.6167 17.0344 11.4474C17.7439 12.157 20.982 14.4556 21.4617 14.0658C21.9414 13.676 21.5717 12.4068 21.3118 11.9871C21.8315 12.4768 22.3512 13.1264 23.0108 13.1164C23.3406 13.1164 23.7603 12.007 23.8303 9.52853C24.28 10.9177 25.3494 12.8066 26.1389 12.6966C26.9284 12.5867 27.1983 11.4074 27.3082 10.9177C27.3982 11.4574 27.8179 12.8266 28.3376 12.8765C28.9872 12.9765 30.2165 10.1082 30.6662 8.80896C30.7362 9.44858 30.2664 12.7466 30.956 13.0164C31.6556 13.2863 32.8049 11.9071 33.4545 11.1276C33.0548 11.8771 32.2852 13.696 32.745 14.1258C33.2047 14.5655 34.7937 14.1058 35.4233 13.5961C35.2535 13.9759 35.2135 14.2857 35.2634 14.5655L35.2734 14.5555Z" fill="#FC4C02"/>
<path d="M43.7683 14.5055C42.9388 14.5854 41.2898 15.1851 41.2898 15.1851C38.2716 14.4055 34.6837 14.3156 30.2864 16.984C29.4669 17.4837 28.7173 18.0034 28.0177 18.5231C27.3281 19.0528 26.6885 19.5824 26.0889 20.1221C25.829 20.352 25.4992 20.6518 25.2194 20.9416C23.7903 21.4213 23.1606 20.9716 21.2018 21.2315C19.6527 21.4313 19.0431 21.961 18.7033 22.3808C18.6633 22.5007 18.6633 22.6106 18.7433 22.6706C18.9332 22.8205 19.213 22.7405 19.7627 22.7006C20.3024 22.6606 21.1319 22.6706 21.6715 23.0104C22.0213 23.2303 22.1812 23.7499 22.2412 24.0398C21.8314 24.4695 21.4317 24.8893 21.0319 25.289C18.5534 27.7375 16.8844 29.1967 15.0255 29.9262C10.9779 31.5153 8.69932 29.6464 7.77987 29.0967C6.67053 28.3872 5.20141 28.1473 4.41189 28.0074C3.62236 27.8575 3.19262 27.4777 3.02272 27.3378C2.85282 27.1979 2.7229 26.958 2.53301 27.008C2.48304 27.018 2.44307 27.038 2.41309 27.068C2.44307 27.038 2.48304 27.028 2.53301 27.008C2.563 27.3478 3.71231 30.2061 7.36012 30.7258C8.3995 30.8757 8.7293 30.8257 8.92918 30.8157C8.31954 30.276 7.80985 29.5265 7.76987 29.4765C7.90979 29.5964 8.04971 29.7164 8.18962 29.8263C9.27897 30.9856 10.5182 31.4653 11.5576 31.6452C11.6276 31.6652 12.6469 31.7152 12.6469 31.7152C13.8462 31.6852 15.4453 31.3354 16.9444 30.9057C21.3217 29.6364 25.5392 25.8387 25.5392 25.8387C25.5392 25.8387 25.3094 26.8581 25.2094 27.2179C25.1494 27.5077 24.9396 28.4571 24.5298 29.4665C24.5298 29.4665 24.4099 29.7663 24.23 30.1361C23.9702 30.6858 23.6104 31.3754 23.6104 31.6552C23.6104 31.6652 23.6104 31.6852 23.6104 31.6952C23.6104 31.6952 23.6104 31.7252 23.6304 31.7651C23.9602 31.5952 24.4099 31.2854 24.9196 30.8557C25.7191 30.1961 26.7285 29.1767 27.8978 27.7375C30.5262 24.4995 30.936 22.2808 32.7849 20.5519C33.5644 19.8223 35.6232 18.693 36.6725 18.3232C36.6825 18.3232 36.6925 18.3132 36.6925 18.3132C38.4715 17.2938 40.2104 16.5143 40.4903 16.3944C41.5296 15.9746 45.1874 14.7653 45.5772 15.365C45.4173 14.6654 44.5778 14.3956 43.7683 14.4755V14.5055ZM39.7607 16.0346C39.3409 16.2045 38.9612 16.3144 38.3415 16.4643C38.0517 16.5543 37.652 16.6842 37.652 16.6842C36.9524 16.924 35.7731 17.3938 35.3933 17.9434C35.4133 17.9134 35.6532 17.4237 35.843 17.1439C36.0029 16.8941 36.3727 16.4143 36.9124 16.1845C37.6719 15.8547 38.1616 15.9046 38.5114 15.9046C38.8612 15.9046 39.6807 15.8747 40.0105 15.7947C40.3403 15.7148 40.4803 15.6148 40.5002 15.6548C40.5202 15.6948 40.3403 15.8047 39.7607 16.0346V16.0346Z" fill="#008E97"/>
<path d="M25.2197 27.2279C25.1597 27.5177 24.9498 28.4672 24.5401 29.4766C23.1109 30.2361 20.8223 31.2055 18.7536 31.6952C14.686 32.6546 12.0776 31.8251 11.6278 31.6752L11.5679 31.6553C11.6678 31.6752 12.6572 31.7152 12.6572 31.7152C12.8671 31.7152 15.6554 31.8251 18.7036 30.6858C21.2021 29.7764 23.6506 28.2873 25.2197 27.2279V27.2279Z" fill="white"/>
<path d="M25.5397 25.8486C25.5397 25.8486 25.3099 26.868 25.2099 27.2278C23.6409 28.2872 21.1823 29.7763 18.6938 30.6857C15.6457 31.835 12.8573 31.7251 12.6475 31.7151C13.8467 31.6851 15.4458 31.3353 16.9449 30.9056C21.3223 29.6363 25.5397 25.8386 25.5397 25.8386V25.8486Z" fill="#005778"/>
<path d="M35.9233 24.0597C35.6135 25.0191 35.1338 26.3283 34.5542 27.4377C33.8646 28.7569 32.9451 29.6663 32.4654 30.0161C32.3855 29.9662 32.3555 29.8662 32.3555 29.7563C32.3555 29.5664 32.7652 28.597 32.9251 26.5582C33.4448 26.1684 33.9145 25.7986 34.3243 25.4489C34.854 25.0091 35.3936 24.5394 35.9333 24.0597H35.9233Z" fill="#008E97"/>
<path d="M11.8582 28.6271C11.8582 28.757 11.8382 28.8869 11.8082 29.0268C11.7482 29.2567 11.6283 29.5365 11.4284 29.8163C11.3085 29.9862 11.1186 30.2161 11.1086 30.2161C11.0786 30.2161 10.9287 30.2161 10.7988 30.2161C10.6689 30.2061 10.539 30.1761 10.479 30.1661C10.479 30.1661 12.118 28.9769 11.6683 28.4272C11.6983 28.4272 11.8482 28.3872 11.8582 28.6271V28.6271Z" fill="#005778"/>
<path d="M45.3573 16.1245C45.3573 16.1245 45.2874 16.2245 45.0675 16.4244C44.8377 16.6242 44.4579 16.9141 43.8283 17.3038C43.2286 17.6736 41.5396 18.8129 40.2504 20.0122C40.2004 20.0522 36.7525 23.3202 36.6626 23.4002C36.6626 23.4302 36.2028 25.0992 35.1335 27.2679C34.3839 28.7869 33.2646 29.7364 32.8648 29.9562C32.8349 29.9662 32.605 30.1161 32.4551 30.0162C32.9348 29.6664 33.8542 28.757 34.5438 27.4378C35.1235 26.3284 35.6032 25.0192 35.913 24.0598C35.3733 24.5395 34.8337 25.0192 34.304 25.4489C33.8942 25.7887 33.4245 26.1685 32.9048 26.5583C32.9048 26.5583 31.7855 27.3778 31.1559 27.7975C30.8061 28.0374 29.177 29.0468 28.1976 29.5765C27.3581 30.0362 25.6092 30.8657 25.6092 30.8657C24.6997 31.6352 23.9802 31.995 23.7903 31.9451C23.6703 31.9151 23.6304 31.7752 23.6304 31.7752C23.9602 31.6053 24.4099 31.2954 24.9196 30.8657C25.7191 30.2061 26.7285 29.1867 27.8978 27.7476C30.5262 24.5095 30.936 22.2908 32.7849 20.5619C33.5644 19.8323 35.6232 18.703 36.6726 18.3332C36.6825 18.3332 36.6925 18.3232 36.6925 18.3232C35.4933 19.0128 34.264 19.8023 33.4745 20.5619C31.9354 22.001 31.4057 23.69 29.8766 25.9886L29.8367 26.0486C34.9836 22.1409 38.9612 17.6236 43.0687 16.1845C43.1986 16.1345 43.3286 16.0946 43.4385 16.0546H43.4485C44.8476 15.5849 45.4173 15.5049 45.4573 15.7747C45.4773 15.8847 45.3873 16.0646 45.3474 16.1245H45.3573Z" fill="#005778"/>
<path d="M10.4888 30.1562C9.4494 29.9563 8.24012 29.2467 7.86035 29.0369C7.99027 28.9069 8.31008 28.6871 8.90972 28.7171C9.73923 28.767 10.6487 28.837 11.0784 28.7071C11.4482 28.5971 11.5182 28.4372 11.6781 28.4172C12.1278 28.9669 10.4588 30.1062 10.4888 30.1562V30.1562Z" fill="#008E97"/>
<path d="M21.2121 21.2315C23.171 20.9717 23.8106 21.4214 25.2297 20.9417C25.5096 20.6519 25.8394 20.362 26.0992 20.1222C25.6995 20.2521 25.3796 20.3321 25.0898 20.382C24.4202 20.512 23.9405 20.482 22.5513 20.6619C20.3726 20.9517 19.3533 21.6313 19.0734 21.8911C18.9835 21.9711 18.9235 22.041 18.8336 22.161C18.7736 22.2509 18.7236 22.3509 18.7236 22.3708C19.0634 21.9511 19.6631 21.4214 21.2221 21.2215L21.2121 21.2315Z" fill="#005778"/>
<path d="M24.2404 30.1462C23.9806 30.6959 23.6208 31.3854 23.6208 31.6653C23.6208 31.6753 23.6208 31.6953 23.6208 31.7053C20.3028 33.0045 17.5944 32.9445 17.5844 32.9445C13.0171 33.1644 9.4293 31.3055 9.4293 31.3055C9.4293 31.3055 9.39931 31.3055 9.35934 31.3055C8.9296 31.3055 6.81087 31.2755 5.4217 30.6259C3.90261 29.9163 3.02314 28.817 2.64337 27.9775C2.36353 27.3579 2.34355 27.158 2.43349 27.078C2.43349 27.078 2.45348 27.068 2.46347 27.058C2.49346 27.0381 2.52344 27.0281 2.56341 27.0181C2.5934 27.3579 3.74271 30.2161 7.39052 30.7358C8.4299 30.8857 8.7597 30.8358 8.95958 30.8258C8.34994 30.2861 7.84025 29.5366 7.80027 29.4866C7.94019 29.6065 8.0801 29.7264 8.22002 29.8364C9.30937 30.9957 10.5486 31.4754 11.588 31.6553L11.648 31.6753C12.0977 31.8252 14.7061 32.6447 18.7737 31.6953C20.8425 31.2155 23.1311 30.2361 24.5602 29.4766C24.5602 29.4766 24.4403 29.7764 24.2604 30.1462H24.2404Z" fill="#005778"/>
<path d="M45.9672 15.5049C45.9672 15.345 45.9272 15.2451 45.9272 15.2451C45.7274 14.5455 45.0178 14.1157 44.0484 14.1157C43.9484 14.1157 43.8385 14.1157 43.7386 14.1357C42.999 14.2057 41.6698 14.6554 41.28 14.7953C40.0508 14.4855 38.8915 14.3356 37.7521 14.3356C37.1625 14.3356 36.5729 14.3756 35.9932 14.4555L35.7533 14.4855C35.7533 14.4855 35.6634 14.1757 35.9033 13.4661C36.0332 13.0963 36.2031 12.7565 36.2031 12.7565C36.2031 12.7565 33.5147 14.1557 33.1849 13.706C32.8551 13.2562 34.3542 9.71837 34.3542 9.71837C34.3542 9.71837 31.7657 12.5966 31.256 12.4667C31.0562 12.4168 31.0362 11.3774 31.0262 10.258C31.0162 8.73896 31.0662 7 31.0662 7C31.0662 7 28.9374 12.2968 28.4177 12.2668C27.968 12.2469 27.3084 9.41855 27.3084 9.41855C27.3084 9.41855 26.8987 11.8571 26.1591 12.1569C25.4195 12.4567 23.5207 7.89946 23.5207 7.89946C23.5207 7.89946 23.4307 12.4567 22.9011 12.5667C22.3714 12.6666 20.6824 10.9676 20.6824 10.9676C20.6824 10.9676 21.4719 13.2363 21.2021 13.5361C21.0422 13.716 19.4231 12.7166 17.7342 11.5073C16.7647 10.8077 15.9452 10.2281 15.9452 10.2281C15.9452 10.2281 16.8947 11.8071 17.6542 13.4561C18.1739 14.5954 18.4937 15.6848 18.3538 15.8947C18.024 16.4144 15.5155 15.6748 15.5155 15.6748C15.5155 15.6748 16.9346 17.044 16.8447 17.3938C16.8047 17.5637 15.3856 17.4437 13.9464 17.2439C12.4173 17.034 10.8683 16.7442 10.8683 16.7442C10.8683 16.7442 15.9452 19.6924 15.7853 20.2321C15.6554 20.6518 12.4973 20.312 12.4973 20.312C12.4973 20.312 15.2456 21.5713 15.2356 21.981C15.2257 22.4008 9.85887 23.75 9.85887 23.75C9.85887 23.75 14.716 24.7693 14.8159 25.309C14.9058 25.8487 12.8971 27.5877 12.8971 27.5877C12.8971 27.5877 15.2356 27.7975 15.3556 28.1073C15.4755 28.4172 14.7859 29.6264 14.1963 29.8163C13.4567 30.0562 12.7971 30.2061 11.9776 30.2061C11.8577 30.2061 11.7477 30.2061 11.6378 30.2061C11.6778 30.1561 11.7178 30.0962 11.7477 30.0462C11.9476 29.7564 12.0975 29.4365 12.1775 29.1367C12.2175 28.9768 12.2374 28.8069 12.2374 28.647V28.637C12.2374 28.4571 12.1775 28.3072 12.0675 28.1973C11.8677 28.0274 11.6878 28.0474 11.5479 28.1073L11.0881 28.3372C11.0881 28.3372 11.0182 28.3672 10.9682 28.3772C10.8783 28.4072 10.6984 28.4371 10.3086 28.4371C9.93883 28.4371 9.50908 28.4072 9.08934 28.3872C9.08934 28.3872 8.82949 28.3772 8.77952 28.3772C8.27982 28.3772 7.94002 28.5371 7.74014 28.687L7.63021 28.627C6.60083 28.0774 5.40155 27.8575 4.66199 27.7176C4.60203 27.7076 4.55206 27.6976 4.49209 27.6876C3.66259 27.5277 3.21286 27.038 3.18288 26.998C3.11292 26.9181 3.02297 26.8281 2.90304 26.7582C2.90304 26.7582 2.69317 26.6282 2.37336 26.7182C2.16349 26.7881 2.07354 26.958 2.07354 26.958C1.89365 27.2579 2.07354 27.6876 2.29341 28.1773C2.54326 28.737 3.34278 30.1261 5.26163 31.0056C5.89125 31.2954 6.71076 31.5053 7.71016 31.6252C8.45971 31.7152 9.09933 31.7252 9.34918 31.7252C9.58904 31.8451 10.3386 32.1849 11.4579 32.5347C12.6772 32.9145 14.586 33.3742 16.7847 33.3842C16.7847 33.3842 17.5643 33.3842 17.984 33.3642C18.024 33.5341 17.7242 34.1637 17.3544 34.8933C16.9246 35.7628 16.365 36.7921 16.365 36.7921C16.365 36.7921 17.3644 35.9027 18.3038 35.2531C19.2432 34.5935 20.2926 34.0638 20.5425 34.3636C21.0122 34.9432 20.5125 37.3218 20.5125 37.3218C20.5125 37.3218 22.4113 35.6428 22.8511 35.8727C23.051 35.9726 23.0709 37.2319 23.0709 38.5511C23.0709 40.1201 23.031 41.7791 23.031 41.7791C23.031 41.7791 25.6494 36.4923 26.1891 36.6422C26.7288 36.7921 27.3284 39.2007 27.3284 39.2007C27.3284 39.2007 28.3178 36.2625 28.9274 36.3324C29.1673 36.3024 29.687 37.2519 30.1567 38.2313C30.6664 39.3006 31.0961 40.34 31.0961 40.34C31.0961 40.34 31.1061 39.2507 31.1861 38.1313C31.256 37.1219 31.386 36.1425 31.6058 36.0826C32.0755 35.9726 33.4247 37.7815 33.4247 37.7815C33.4247 37.7815 32.945 35.2531 33.3248 35.0432C33.7046 34.8333 38.2019 38.721 38.2019 38.721C38.2019 38.721 35.2437 33.2443 35.6034 32.8245C35.9632 32.4048 39.1213 33.2643 39.1213 33.2643C39.1213 33.2643 38.6516 32.7046 38.2518 32.085C37.8321 31.4254 37.4823 30.6958 37.6422 30.5159C37.7921 30.356 39.4411 30.5159 41.1401 30.8557C43.0989 31.2355 44.3782 31.5053 44.3782 31.5053C44.3782 31.5053 43.2189 30.8757 41.5199 29.8563C40.0408 28.9668 38.7516 27.9674 38.8015 27.8075C38.9214 27.4577 42.4393 27.1279 42.4393 27.1279C42.4393 27.1279 41.8497 26.7781 41.2101 26.3884C40.5205 25.9686 39.7809 25.4389 39.7809 25.2491C39.7809 25.0792 40.6604 24.6694 41.8297 24.3096C43.2289 23.8799 44.5181 23.5901 44.5181 23.5901C44.5181 23.5901 39.721 23.2003 39.4211 22.5207C39.2213 22.051 39.591 21.4413 39.8709 21.0516C40.1507 20.6618 40.5405 20.302 40.5405 20.302C41.8497 19.0927 43.5187 17.9734 44.0584 17.6436C44.0983 17.6236 44.1283 17.5936 44.1683 17.5737C44.1683 17.5737 45.3976 16.6642 45.5275 16.5543C45.6374 16.4643 45.9173 16.1645 45.9872 15.7947C45.9872 15.7947 46.0072 15.6948 45.9972 15.5249L45.9672 15.5049ZM15.6354 27.5877C15.2956 27.4078 13.7066 27.3278 13.7066 27.3278C13.7066 27.3278 15.4955 26.1285 15.4455 25.2591C15.4055 24.3896 12.5573 23.9498 11.4279 23.7C12.4173 23.4901 15.6354 22.7605 15.7753 22.1209C15.9152 21.4713 14.7659 21.0116 14.2862 20.7917C14.8259 20.7917 16.1951 21.0316 16.375 20.362C16.5848 19.6024 13.2269 17.6036 12.4573 17.3338C12.6272 17.3738 15.8353 18.1233 17.0046 17.8635C17.8741 17.6736 16.8647 16.5043 16.6948 16.3644C16.9546 16.4943 18.4237 16.7941 18.8435 16.0945C19.2632 15.395 17.8341 12.6166 17.0346 11.4473C17.7441 12.1569 20.9822 14.4555 21.4619 14.0658C21.9416 13.676 21.5718 12.4068 21.312 11.987C21.8317 12.4767 22.3514 13.1263 23.011 13.1163C23.3408 13.1163 23.7605 12.007 23.8305 9.52848C24.2802 10.9177 25.3496 12.8065 26.1391 12.6966C26.9286 12.5866 27.1985 11.4074 27.3084 10.9177C27.3984 11.4573 27.8181 12.8265 28.3378 12.8765C28.9874 12.9764 30.2167 10.1081 30.6664 8.80892C30.7364 9.44853 30.2666 12.7466 30.9562 13.0164C31.6558 13.2862 32.8051 11.9071 33.4547 11.1275C33.055 11.8771 32.2854 13.696 32.7451 14.1257C33.2049 14.5655 34.7939 14.1057 35.4235 13.596C35.2536 13.9758 35.2137 14.2856 35.2636 14.5655C34.5541 14.7054 33.8245 14.9053 33.075 15.1851C31.366 14.0658 29.3372 13.4162 27.1385 13.4162C21.1621 13.4162 16.315 18.2632 16.315 24.2397C16.315 25.6788 16.5948 27.048 17.1045 28.3072C16.4849 28.7669 15.8953 29.1267 15.2956 29.4066C15.7354 28.8769 16.1251 27.8675 15.6254 27.5976L15.6354 27.5877ZM8.90944 28.717C9.73895 28.7669 10.6484 28.8369 11.0781 28.707C11.4479 28.597 11.5179 28.4371 11.6778 28.4172C11.6778 28.4172 11.8577 28.3772 11.8677 28.617C11.8677 28.747 11.8477 28.8769 11.8177 29.0168C11.7577 29.2467 11.6378 29.5265 11.4379 29.8063C11.318 29.9762 11.1281 30.2061 11.1181 30.2061C11.0881 30.2061 10.9382 30.2061 10.8083 30.2061C10.6784 30.1961 10.5485 30.1661 10.4885 30.1561C9.44912 29.9562 8.23984 29.2467 7.86007 29.0368C7.98999 28.9069 8.3098 28.687 8.90944 28.717V28.717ZM42.5493 23.69C41.1501 23.8799 38.6916 24.8993 39.1613 25.4389C39.631 25.9786 40.9802 26.7282 41.1801 26.8281C40.5305 26.8281 38.4018 27.048 38.1719 27.6476C37.932 28.2473 41.25 30.276 42.4693 30.7458C40.9602 30.316 37.3524 29.6064 37.1125 30.0962C36.8727 30.5859 37.4923 32.085 38.062 32.5347C37.6422 32.4148 35.4735 31.7951 35.1237 32.5947C34.744 33.4841 36.8627 36.7322 37.1125 37.3318C36.1331 36.3624 33.4447 34.1737 33.065 34.4236C32.6852 34.6734 32.7751 35.8927 32.8751 36.5023C32.5053 36.0526 31.8757 35.333 31.326 35.5529C30.7763 35.7727 30.8463 37.8515 30.8063 38.741C30.3566 37.6916 29.617 35.5929 28.9374 35.6628C28.2578 35.7428 27.4883 37.1719 27.3484 37.7216C27.2484 37.1719 26.7987 35.9626 26.1191 35.9626C25.4395 35.9626 23.8705 39.1507 23.4008 40.1901C23.4008 39.3906 23.5906 35.4729 23.1609 35.283C22.7312 35.0932 21.302 35.9826 20.9922 36.3824C21.1021 35.8727 21.2021 34.1337 20.8223 33.9239C20.4425 33.714 19.3432 33.644 17.3744 35.4729C17.7042 34.7733 18.2438 34.0138 18.3738 33.2742C19.1933 33.2343 20.0028 33.1443 20.8123 32.9844C22.5912 34.2736 24.7799 35.0332 27.1485 35.0332C33.1249 35.0332 37.972 30.1861 37.972 24.2097C37.972 23.74 37.942 23.2802 37.8821 22.8305C38.2818 22.4507 38.6716 22.091 39.0214 21.7512C38.9414 21.951 38.8915 22.1809 38.9015 22.4707C38.9214 23.3802 41.29 23.5801 42.5493 23.68V23.69ZM45.5775 15.385C45.1877 14.7853 41.5399 15.9946 40.4905 16.4144C40.2107 16.5243 38.4717 17.3138 36.6928 18.3332C35.4935 19.0228 34.2642 19.8123 33.4747 20.5719C31.9356 22.011 31.406 23.7 29.8769 25.9986L29.8369 26.0586C34.9838 22.1509 38.9614 17.6336 43.069 16.1945C43.1989 16.1445 43.3288 16.1045 43.4387 16.0646H43.4487C44.8479 15.5948 45.4176 15.5149 45.4575 15.7847C45.4775 15.8947 45.3876 16.0746 45.3476 16.1345C45.3476 16.1345 45.2776 16.2345 45.0578 16.4343C44.8279 16.6342 44.4481 16.924 43.8185 17.3138C43.2189 17.6836 41.5299 18.8229 40.2407 20.0222C40.1907 20.0622 36.7428 23.3302 36.6528 23.4102C36.6528 23.4401 36.1931 25.1091 35.1237 27.2778C34.3742 28.7969 33.2548 29.7464 32.8551 29.9662C32.8251 29.9762 32.5952 30.1261 32.4453 30.0262C32.3654 29.9762 32.3354 29.8763 32.3354 29.7663C32.3354 29.5765 32.7451 28.607 32.9051 26.5683C32.9051 26.5683 31.7857 27.3878 31.1561 27.8175C30.8063 28.0574 29.1773 29.0668 28.1979 29.5965C27.3584 30.0562 25.6094 30.8857 25.6094 30.8857C24.7 31.6552 23.9804 32.015 23.7905 31.965C23.6706 31.935 23.6306 31.7951 23.6306 31.7951C23.6206 31.7552 23.6106 31.7252 23.6106 31.7252C20.2926 33.0244 17.5842 32.9644 17.5742 32.9644C13.007 33.1843 9.41914 31.3254 9.41914 31.3254C9.41914 31.3254 9.38916 31.3254 9.34918 31.3254C8.91944 31.3254 6.80071 31.2954 5.41154 30.6458C3.89245 29.9362 3.01298 28.8369 2.63321 27.9974C2.35337 27.3778 2.33339 27.1779 2.42333 27.0979C2.45331 27.068 2.49329 27.058 2.54326 27.038C2.73315 26.988 2.86307 27.2279 3.03297 27.3678C3.20287 27.5077 3.63261 27.8875 4.42213 28.0374C5.21166 28.1873 6.68078 28.4172 7.79011 29.1267C8.69957 29.6764 10.9882 31.5353 15.0358 29.9562C16.9046 29.2267 18.5637 27.7675 21.0422 25.319C21.4419 24.9193 21.8417 24.4995 22.2514 24.0698C22.1915 23.7799 22.0316 23.2503 21.6818 23.0404C21.1421 22.7006 20.3126 22.6906 19.7729 22.7306C19.2333 22.7705 18.9434 22.8405 18.7535 22.7006C18.6836 22.6506 18.6736 22.5607 18.6936 22.4807C18.7136 22.4008 18.7435 22.3208 18.7935 22.2509C18.8035 22.2309 18.8135 22.2109 18.8335 22.2009C18.9234 22.071 18.9934 22.001 19.0733 21.931C19.3632 21.6712 20.3726 20.9816 22.5513 20.7018C23.9404 20.5219 24.4201 20.5519 25.0897 20.422C25.3796 20.372 25.6994 20.292 26.0991 20.1621C26.6888 19.6224 27.3284 19.0828 28.028 18.5631C28.7176 18.0334 29.4671 17.5237 30.2966 17.024C34.694 14.3456 38.2718 14.4355 41.3 15.2251C41.3 15.2251 42.949 14.6254 43.7785 14.5455C44.588 14.4655 45.4275 14.7454 45.5874 15.4349L45.5775 15.385Z" fill="white"/>
</svg>
