<svg width="48" height="48" viewBox="0 0 48 48" fill="none" xmlns="http://www.w3.org/2000/svg">
<path d="M15.8739 11.9133C11.0832 13.8983 8.89775 16.9044 7.91479 19.0803C7.28494 20.4927 6.66462 21.552 5.96796 22.4204C5.25222 23.1648 3.93524 23.9951 3.17178 24.2814L3.02863 24.3386L3 24.8635L3.20041 24.9017C4.19291 25.1021 5.43354 25.8465 5.83436 26.3523C6.34969 26.8676 6.71234 27.2302 7.60941 28.8335C7.61895 28.8526 8.07703 29.5684 8.07703 29.5684C8.37287 30.0646 8.66871 30.5704 9.48943 31.4675C10.1097 32.3454 13.1063 35.1035 16.3606 36.2868C18.651 37.4225 21.6476 37.9855 25.5222 37.9951C31.2004 38.0237 35.5044 36.7831 39.4649 33.9678C41.1063 32.6985 41.6408 32.1832 43.0245 30.5418C43.9502 29.4443 44.9618 27.507 45 25.3788V25.1403H36.9741L36.9264 25.3216C36.2774 27.946 33.6339 29.5779 32.1166 30.3223C28.1561 32.0019 23.1745 32.021 19.4335 30.37C15.9312 28.614 14.0702 26.2473 14.2038 23.6897C14.3374 21.0939 16.5515 18.6031 19.8439 17.3625C26.2093 15.0339 32.3265 17.038 34.636 19.2043L34.7028 19.2711H44.0648L43.9407 18.9467C42.013 14.0605 35.0464 11.312 31.9734 10.749C25.0927 9.17435 19.1568 10.3291 15.893 11.9419L15.8739 11.9133Z" fill="#0B162A"/>
<path d="M7.39933 21.7143C7.88604 20.9413 8.08645 20.5023 8.35366 19.901L8.63996 19.2712C9.49886 17.4389 10.9494 15.7593 12.839 14.4041C14.6809 13.173 16.7136 12.1901 18.4218 11.7034C25.837 9.54658 33.4239 11.398 36.7163 13.1635C38.0142 13.7552 41.5357 15.8452 42.9576 18.5554H35.0367C29.5207 14.261 22.0769 15.3584 18.4027 17.143C16.9235 17.9638 16.0551 18.6318 14.9767 19.777C13.2971 21.8002 12.4 25.2548 15.3489 28.3564C16.685 29.6543 18.0115 30.5323 19.672 31.2098C23.5084 32.8036 28.8908 32.6222 32.7654 30.7804C35.2371 29.492 36.8785 27.7743 37.5466 25.8179H44.2269C43.9883 27.5166 43.492 29.2726 40.9631 31.7252L40.6768 31.9733C39.4457 33.0803 37.7661 34.5977 34.4832 35.8002C28.8813 37.976 20.4927 37.7279 15.7974 35.2467L15.5016 35.094C14.4423 34.5691 13.0012 33.8438 11.1689 32.1451C9.89967 30.9808 9.01215 29.8261 7.89558 27.8888C6.68359 25.6652 5.15666 24.854 4.33594 24.5105C5.05168 24.1478 6.445 23.2985 7.40888 21.7047L7.39933 21.7143Z" fill="white"/>
<path d="M7.68606 22.9453C8.47815 22.0673 9.10801 19.8056 10.3677 18.0878C12.1523 15.5779 14.5095 14.2609 16.2655 13.4211C20.2832 11.4552 26.0569 10.8921 31.7065 12.2473C33.7583 12.734 35.8101 13.4593 37.2702 14.4136C38.7399 15.2821 40.4482 16.5418 41.412 17.7633H35.3807C33.5865 16.3318 31.6206 15.6352 29.8647 15.263C27.8987 14.7572 24.8067 14.49 21.123 15.3679C18.9471 15.9119 17.4393 16.6658 15.9792 17.706C13.0971 19.7579 9.90964 25.1403 15.5593 29.826C17.4011 31.3816 18.9471 31.8874 20.6649 32.4791C23.8428 33.3952 27.8224 33.2234 30.1223 32.5936C33.5961 31.6774 34.894 30.4559 36.0201 29.5015C37.0698 28.4995 37.9478 27.2875 38.1864 26.6577H43.1394C42.7958 28.4995 41.4597 30.0073 40.1619 31.2575C38.6731 32.6604 37.5661 33.3952 35.3807 34.4831C30.2559 36.9453 22.7263 36.8594 18.0787 35.1798C15.6929 34.3114 15.0248 33.9201 13.2307 32.6699C11.7706 31.4866 10.8067 30.7135 9.42294 28.5759C8.79308 27.5261 8.50678 26.9439 7.79103 25.9801C7.28524 25.4361 6.95122 24.9303 6.07324 24.52C6.87488 23.9569 7.31387 23.537 7.70514 22.9262L7.68606 22.9453Z" fill="#E64100"/>
</svg>
