<svg width="48" height="48" viewBox="0 0 48 48" fill="none" xmlns="http://www.w3.org/2000/svg">
<path d="M15.8739 11.9228C11.0736 13.9078 8.89775 16.914 7.91479 19.0898C7.28494 20.5022 6.66462 21.5615 5.96796 22.43C5.25222 23.1744 3.93524 23.9951 3.17178 24.2909L3.02863 24.3482L3 24.8731L3.20041 24.9112C4.19291 25.1116 5.43354 25.856 5.83436 26.3618C6.34969 26.8771 6.71234 27.2398 7.60941 28.8431C7.61895 28.8621 8.07703 29.5779 8.07703 29.5779C8.37287 30.0741 8.66871 30.5799 9.48943 31.477C10.1097 32.355 13.1063 35.113 16.3606 36.2964C18.651 37.432 21.6476 37.9951 25.5222 38.0046C31.2004 38.0332 35.5044 36.7926 39.4649 33.9773C41.1063 32.7081 41.6408 32.1928 43.0245 30.5513C43.9502 29.4538 44.9618 27.5165 45 25.3884V25.1498L36.9646 25.1403L36.9168 25.3216C36.2679 27.946 33.6244 29.5779 32.107 30.3223C28.1466 32.0019 23.165 32.021 19.424 30.37C15.9216 28.614 14.0607 26.2473 14.1943 23.6897C14.3279 21.0939 16.5419 18.6031 19.8344 17.3625C26.1997 15.0339 32.317 17.038 34.6264 19.2043L34.6933 19.2711H44.0552L43.9312 18.9467C42.0034 14.0605 35.0368 11.312 31.9639 10.749C25.0927 9.17435 19.1472 10.3291 15.8834 11.9419L15.8739 11.9228Z" fill="#231F20"/>
<path d="M7.39933 21.7238C7.88604 20.9508 8.08645 20.5118 8.35366 19.9106L8.63996 19.2807C9.49885 17.4484 10.9494 15.7688 12.8295 14.4136C14.6713 13.1826 16.704 12.1996 18.4123 11.7129C25.8274 9.5561 33.4143 11.4075 36.7068 13.173C38.0046 13.7647 41.5261 15.8547 42.9481 18.565H35.0271C29.5111 14.2705 22.0674 15.368 18.3932 17.1526C16.914 17.9733 16.0455 18.6413 14.9672 19.7865C13.2875 21.8097 12.3905 25.2739 15.3393 28.3659C16.6754 29.6638 18.0019 30.5418 19.6625 31.2194C23.4989 32.8131 28.8813 32.6318 32.7558 30.7899C35.2276 29.5016 36.869 27.7838 37.537 25.8274H44.2173C43.9787 27.5261 43.4825 29.2821 40.9535 31.7347L40.6768 31.9828C39.4457 33.0898 37.7661 34.6072 34.4832 35.8097C28.8813 37.9856 20.4927 37.7374 15.7974 35.2562L15.5016 35.1035C14.4423 34.5786 13.0012 33.8533 11.1689 32.1546C9.89967 30.9903 9.01215 29.8356 7.89558 27.8983C6.68359 25.6747 5.15666 24.8635 4.33594 24.52C5.05168 24.1573 6.445 23.308 7.40888 21.7143L7.39933 21.7238Z" fill="white"/>
<path d="M7.6861 22.9549C8.47819 22.077 9.10805 19.8152 10.3678 18.1069C12.1524 15.5971 14.5096 14.2801 16.2655 13.4403C20.2832 11.4744 26.0569 10.9113 31.7066 12.2665C33.7584 12.7532 35.8102 13.4785 37.2703 14.4328C38.7304 15.3012 40.4482 16.5609 41.4121 17.7825H35.3807C33.5866 16.351 31.6207 15.6543 29.8647 15.2821C27.8988 14.7763 24.8068 14.5091 21.123 15.3871C18.9472 15.9311 17.4393 16.685 15.9792 17.7252C13.0971 19.777 9.90969 25.1594 15.5593 29.8452C17.4012 31.4007 18.9472 31.9065 20.665 32.4982C23.8429 33.4144 27.8224 33.2426 30.1224 32.6127C33.5961 31.6966 34.894 30.475 36.0201 29.5207C37.0699 28.5187 37.9479 27.3067 38.1864 26.6768H43.1394C42.7959 28.5187 41.4598 30.0265 40.1619 31.2767C38.6732 32.6795 37.5661 33.4144 35.3712 34.5023C30.2464 36.9645 22.7168 36.8786 18.0692 35.199C15.6834 34.3305 15.0153 33.9393 13.2117 32.6891C11.7515 31.5057 10.7877 30.7327 9.40389 28.595C8.77404 27.5453 8.48774 26.9631 7.77199 25.9992C7.2662 25.4553 6.93218 24.9495 6.0542 24.5391C6.85584 23.9761 7.29483 23.5562 7.6861 22.9454V22.9549Z" fill="#BCBEC0"/>
</svg>
