<svg width="48" height="48" viewBox="0 0 48 48" fill="none" xmlns="http://www.w3.org/2000/svg">
<path d="M39.9182 23.6091C39.7091 23.5 39.7364 23.3091 39.8818 23.2C41.6818 21.8636 42.8909 20.1545 42.8909 17.5182C42.8909 14.3909 40.6545 10 31.9091 10H9.37273L4.27273 18.8818H8.01818C8.43636 18.8818 8.77273 19.2182 8.77273 19.6364V28.5182C8.77273 28.9364 8.43636 29.2727 8.01818 29.2727H4L9.15455 38.1364H32.9818C40.6727 38.1364 44 34.1182 44 29.8182C44 26.9636 41.9727 24.6545 39.9182 23.6091V23.6091Z" fill="white"/>
<path d="M37.1367 23.809C36.864 23.7454 36.9094 23.409 37.1094 23.3363C39.5549 22.409 40.9821 20.7636 40.9821 17.8636C41.0185 13.9727 37.5731 11.2999 31.9821 11.2999H10.7821L7.06396 17.8636H9.6276C10.1367 17.8636 10.5458 18.2727 10.5458 18.7817V29.3817C10.5458 29.8908 10.1367 30.2999 9.6276 30.2999H7.09124L10.8367 36.8363H32.9821C39.3094 36.8363 41.9094 32.6272 41.9094 29.5363C41.9094 26.8181 39.9094 24.4727 37.1276 23.809H37.1367ZM26.564 30.2999H23.5367C23.164 30.2999 22.8549 29.9999 22.8549 29.6181V26.0636H26.5549C28.3276 26.0636 28.9912 26.9363 28.9912 28.1454C28.9912 29.3545 28.3276 30.2999 26.5549 30.2999H26.564ZM26.564 22.0999H22.864V18.5363C22.864 18.1636 23.1731 17.8636 23.5458 17.8636H26.5731C28.3458 17.8636 29.0094 18.7636 29.0094 19.9454C29.0094 21.1999 28.3458 22.0999 26.5731 22.0999H26.564Z" fill="#939598"/>
<path d="M28.9821 11.2909C28.2731 13.1363 27.5367 15.3727 26.9094 17.8727C26.8003 17.8727 26.6821 17.8636 26.5549 17.8636H23.5276C23.1549 17.8636 22.8549 18.1636 22.8458 18.5363V22.1H26.0276C25.8185 23.3818 25.6458 24.7 25.5367 26.0636H22.8458V29.6182C22.8458 29.9909 23.1458 30.3 23.5276 30.3H25.3821C25.4094 32.4363 25.6003 34.6182 26.0003 36.8363H23.2367C21.0549 31.5727 18.0549 22.6636 21.0367 11.3H28.964L28.9821 11.2909ZM36.5276 12.0182C32.0276 18.6909 29.5912 27.1909 30.6821 34.9363C32.0185 28.4182 35.5185 22.4 40.964 18.0454C40.964 17.9818 40.964 17.9182 40.964 17.8545C40.9912 15.1727 39.364 13.0636 36.5185 12.0182H36.5276ZM17.9912 34.9818C14.064 27.5909 13.0276 19.1 14.4912 11.2909H10.7821L7.06396 17.8636H9.6276C10.1367 17.8636 10.5458 18.2727 10.5458 18.7818V26.9182C12.4549 30.0182 15.2185 32.9818 18.0003 34.9818H17.9912Z" fill="#231F20"/>
</svg>
