<svg width="48" height="48" viewBox="0 0 48 48" fill="none" xmlns="http://www.w3.org/2000/svg">
<path d="M44 36.0373V36.0191V36.0009C43.8182 33.5646 43.2727 31.1101 42.3364 28.4737V28.4465L42.3182 28.4192L42.2091 28.1556V28.1828C41.8273 27.1647 41.0091 26.7283 39.8091 26.8738C39.8091 26.8738 39.2455 26.9374 39.2637 26.9374L39.0455 26.9556C38.1182 27.0374 36.7819 27.1556 35.6092 27.0465L34.1456 23.592C34.4456 23.392 34.7001 23.1647 34.8637 22.8738C34.991 22.6374 35.0728 22.392 35.1274 22.1465C35.5728 22.0829 36.0001 21.8829 36.3001 21.5556C36.7455 21.0738 37.0001 20.2011 36.3637 19.2011L36.391 19.2557L34.4365 15.7284L33.2819 16.2193C28.6365 8.73759 19.8093 7.59214 13.2912 10.4103C7.3822 12.9557 1.66408 19.692 4.97314 30.2646C5.32768 31.3828 5.77313 32.4737 6.30949 33.5373C6.27312 33.8646 6.29131 34.1919 6.37312 34.5282V34.5464V34.5646C6.54585 35.2009 6.70039 35.6282 7.0913 36.51C7.07312 37.0918 7.28221 37.6736 7.70038 38.1282C8.35492 38.8282 9.38218 39.1009 10.5367 38.8827H10.4822C12.0094 38.6736 12.9912 38.2282 13.5094 37.9373C15.7912 39.5373 18.773 40.2463 21.4184 39.81C23.1457 39.5191 24.5366 38.7736 25.5002 37.6373C26.2366 37.6827 26.9002 37.61 27.0275 37.5918C27.8456 37.5282 28.582 37.3646 29.2456 37.0827C30.2274 38.2282 31.5456 39.0464 33.1365 39.4645C34.991 39.9554 37.091 39.9191 39.091 39.3827C39.4819 39.4191 39.8546 39.31 40.1273 39.1827C42.2273 38.7009 42.7 38.5009 43.0091 38.2373C43.0091 38.2373 43.0091 38.2373 43.0182 38.2282C43.7636 37.7191 44.0091 36.7555 43.9818 36.0464L44 36.0373ZM38.7364 38.1282C36.9637 38.5827 35.0637 38.61 33.4637 38.1918C32.0092 37.81 30.2911 36.9646 29.3365 34.8555C29.3365 34.8555 29.2183 34.6282 29.1911 34.5191C29.1911 34.5191 29.682 34.5282 30.0001 34.501C31.482 37.6736 35.3001 38.2645 38.5637 37.4282C38.5637 37.4282 38.8637 37.3736 38.9455 37.2827C39.0091 37.1282 39.0091 36.7191 39.0091 36.7191C39.0091 36.6282 38.9273 34.6737 38.5728 33.3737C38.5364 33.2373 38.5001 33.1555 38.4637 33.1191C38.4637 33.1191 38.3637 33.0737 38.291 33.0737C38.1182 33.0737 37.891 33.1191 37.891 33.1191C35.8728 33.601 32.7547 34.001 30.2911 34.2464C30.2911 34.2464 30.1001 34.2737 29.7638 34.2919H29.5002C29.0365 34.301 28.3729 34.2737 27.5365 34.1464C27.5365 34.1464 18.3457 32.6555 18.3912 32.6464L18.8821 31.9737L27.7274 33.4282C29.0729 33.6282 29.7002 33.5373 29.7183 33.5282C32.1001 33.3919 36.5092 32.7464 37.5728 32.4555C37.5728 32.4555 38.1455 32.3192 38.2182 32.2464C38.2637 32.201 38.1455 31.7646 38.1455 31.7646C38.1455 31.7464 37.7092 30.3374 37.491 29.7919C37.491 29.7919 37.391 29.4828 37.291 29.4374H37.2183C37.2183 29.4374 37.091 29.4646 36.9364 29.501C34.8637 29.8828 31.0638 30.4101 28.8365 30.5464C29.0274 30.5374 27.9365 30.5828 27.082 30.5283C25.8729 30.4646 24.5275 30.1555 23.1911 28.7101C23.1729 28.6919 21.7002 27.2828 21.1002 26.6283C20.9548 26.4192 21.0275 26.1829 21.1912 26.0647C21.3002 25.9738 21.5184 25.9374 21.6457 26.0829C21.9093 26.4283 23.4002 27.9828 24.1457 28.6737C24.9638 29.3101 25.5547 29.6465 26.7002 29.7737C27.3184 29.8465 28.0547 29.8374 28.0911 29.8374C29.6002 29.8737 35.1001 29.201 36.7092 28.8828C36.9183 28.8556 37.0364 28.8101 37.0364 28.8101V28.7828V28.7101C37.0364 28.6828 37.1364 28.6101 37.2092 28.5737C37.3546 28.5101 37.5546 28.501 37.7182 28.6374C38.8728 30.7646 40.0091 34.71 39.7455 37.6918C39.7273 37.8464 39.6637 37.9827 39.5455 38.0373C39.5455 38.0373 39.2819 38.1555 39.0182 38.0191C39.0182 38.0191 39.0273 38.0373 38.7455 38.1373L38.7364 38.1282ZM36.2455 33.6919C36.4001 33.6646 37.0183 33.5282 37.0183 33.5282C37.6728 34.5191 38.7273 35.2282 38.7273 35.2282C38.7546 35.4737 38.7728 36.11 38.7728 36.11C37.1183 35.3009 36.2364 33.701 36.2364 33.701L36.2455 33.6919ZM30.4183 34.9191C30.3638 34.8282 30.3092 34.7282 30.2547 34.6282L30.1729 34.4737C30.3001 34.4555 30.3729 34.4464 30.3729 34.4464C30.5092 34.4282 30.6456 34.4191 30.782 34.401C30.6729 34.5828 30.5456 34.7555 30.4092 34.91L30.4183 34.9191ZM17.8275 32.6646C17.6548 32.6555 17.473 32.5373 17.4094 32.401C17.373 32.3192 17.3821 32.2373 17.4366 32.1464L18.5912 30.3919C18.6639 30.5283 19.2457 30.8737 19.2457 30.8737C19.0003 31.2283 18.1366 32.5192 18.1366 32.5192C18.0548 32.6464 17.9275 32.6646 17.8366 32.6555L17.8275 32.6646ZM20.9002 26.7374C21.1184 27.0374 21.473 27.3556 21.473 27.3556L20.5912 28.7556C20.473 28.8465 20.2275 28.7556 20.0639 28.601C20.0275 28.5647 19.8548 28.3919 19.9639 28.2647V28.2465C19.973 28.2283 20.173 27.9101 20.8912 26.7283L20.9002 26.7374ZM22.3093 29.9374C21.9911 29.7283 20.7639 28.901 20.7639 28.901L20.8912 28.7737C21.4457 29.1283 22.182 29.6101 22.4911 29.8465C23.0548 30.2737 22.7548 30.7919 22.7548 30.7919C22.8093 30.4828 22.673 30.1737 22.3093 29.9283V29.9374ZM20.6002 29.001L22.2093 30.0828C22.4548 30.2555 22.6911 30.5555 22.5457 30.9555C22.5275 30.5828 22.0548 30.2828 22.0548 30.2828C22.0548 30.2828 20.3184 29.2646 19.7912 28.9283C19.4912 28.7374 19.5184 28.4737 19.6821 28.3374C19.6548 28.7556 20.3003 29.0919 20.6002 29.0101V29.001ZM19.7003 29.0737C20.2366 29.4101 21.3639 30.0919 21.6911 30.2737C22.0366 30.4646 22.1093 30.5646 22.1093 30.5646C22.5184 30.9464 22.4366 31.3283 22.2366 31.601C22.0093 31.901 21.5821 32.0919 21.2275 31.8555L20.7366 31.5555L20.5639 31.4464L19.0548 30.5192C19.0548 30.5192 18.8003 30.401 18.7366 30.1737C18.6912 30.0192 18.7366 29.8374 18.8821 29.6374C19.2003 29.1919 19.3548 28.9283 19.4275 28.8101C19.5003 28.9646 19.7093 29.0828 19.7093 29.0828L19.7003 29.0737ZM19.4275 30.9828C20.1366 31.4101 21.1457 32.0373 21.1457 32.0373C21.8457 32.4828 22.373 31.8464 22.5457 31.6192C22.673 31.4464 23.082 30.901 23.0639 30.4374C23.0457 29.9828 22.7002 29.7374 22.3911 29.5374L20.9457 28.5919C21.0821 28.3737 21.2911 28.0283 21.6275 27.4919C22.273 28.1374 23.0275 28.8556 23.0275 28.8556C23.4729 29.3374 23.9184 29.6919 24.3729 29.9555C24.482 30.0192 24.582 30.0737 24.6911 30.1283C24.982 31.0101 25.2911 31.7828 25.4275 32.3555C25.3184 31.6828 25.1184 30.9737 24.9275 30.2374C25.7002 30.5646 26.4456 30.6737 27.1365 30.7101C27.1638 30.7101 27.2002 30.7101 27.2365 30.7101L27.282 30.8101C27.0093 31.5373 26.5002 32.3192 25.8456 32.7919C25.8456 32.8282 25.8456 32.8646 25.8456 32.9101C25.6547 32.8828 25.4547 32.8464 25.2457 32.8192C25.0911 32.7919 24.9366 32.7737 24.782 32.7464C24.7093 32.7373 24.6366 32.7192 24.5548 32.7101C22.2275 32.3373 19.3912 31.8919 18.873 31.801L19.4184 30.9919L19.4275 30.9828ZM36.4728 32.4464C36.3455 32.501 35.7455 32.5919 35.7455 32.5919C35.6001 32.3192 34.691 30.0828 34.691 30.0828C34.8001 30.0737 35.4092 29.9646 35.4092 29.9646C35.8728 31.2555 36.4728 32.4373 36.4728 32.4373V32.4464ZM36.6546 32.3919L36.3819 31.7646C37.3001 31.7828 37.9637 31.7646 37.9637 31.7646C38.0728 32.1737 37.691 32.1828 37.691 32.1828L36.6546 32.3919V32.3919ZM31.5092 30.9101C31.5092 30.9101 31.5092 30.9828 31.5092 31.0192L35.1001 31.6373C35.1637 31.8373 35.4274 32.4192 35.4274 32.4192L31.5183 31.7555C31.5183 31.7555 31.5183 31.8373 31.5183 31.8737C31.491 32.3192 31.4274 32.7555 31.3183 33.1646C31.1456 33.1828 30.9729 33.201 30.8001 33.2191C31.0547 32.3737 31.091 31.4373 30.9729 30.5283C31.1365 30.5101 31.3001 30.4919 31.4729 30.4737C31.491 30.6192 31.5092 30.7737 31.5183 30.9192L31.5092 30.9101ZM29.4729 33.3373C29.4729 33.3373 29.1638 33.401 28.6456 33.3555C28.4002 32.8919 28.1274 32.2555 27.4365 30.7374C27.9093 30.7919 28.2638 30.7374 28.2638 30.7374L29.4729 33.3373ZM23.6366 22.5374C23.6366 22.5374 23.6184 22.7193 23.7184 22.9102C23.8002 23.0647 23.9548 23.4556 23.9548 23.4556C23.982 23.4283 23.6002 23.9011 23.3911 24.2283L22.1184 26.3101L21.773 25.9374C21.773 25.9374 21.6275 25.7647 21.4911 25.7647C22.1548 24.6829 22.7639 23.7283 22.9639 23.4192C23.182 23.0647 23.7002 22.4556 23.6275 22.5374H23.6366ZM31.3638 19.9557C31.591 19.9193 31.791 20.0829 31.8092 20.2466C31.8274 20.392 31.7547 20.5647 31.4729 20.6102L31.3365 20.6375C29.5911 20.9829 27.6184 21.3829 25.9729 22.0556C25.4547 22.2465 25.1729 22.4011 24.882 22.6193C24.882 22.6193 24.7184 22.2738 24.6638 22.1738C24.5729 22.0102 24.5638 21.992 24.482 21.9556C24.7184 21.792 25.0275 21.6465 25.4457 21.4647C26.6547 20.9556 29.1729 20.3102 31.3547 19.9557H31.3638ZM30.5729 17.6193C30.4729 17.9466 30.6638 18.4557 30.6638 18.4557L31.1365 19.7647L30.891 19.8102C30.891 19.8102 30.582 18.9648 30.3911 18.3829C30.2456 17.9375 30.3547 17.7193 30.3547 17.7193L30.582 17.6102L30.5729 17.6193ZM30.7638 17.5284L31.0092 17.4011L31.0274 17.392C31.0183 17.4193 31.0183 17.4829 31.0183 17.4829C31.0183 17.5739 31.0183 17.6102 31.1092 17.8648C31.2547 18.2557 32.0092 19.8284 32.1001 20.0556C32.5365 21.192 31.4092 21.4011 31.291 20.9011C32.5001 20.8102 32.0092 19.5466 31.3274 19.7284C31.0638 19.0829 30.8638 18.4375 30.8638 18.4375C30.8638 18.4375 30.6001 17.7375 30.7729 17.5284H30.7638ZM34.9183 20.0011H34.9274C35.0728 20.0193 35.1546 20.2102 35.1455 20.3647C35.1455 20.4466 35.091 20.6375 34.8001 20.6375C34.5456 20.5829 33.8728 20.5193 33.5274 20.4829C33.5274 20.192 33.3547 19.7829 33.3547 19.7829C33.7365 19.8193 34.7092 19.9284 34.9092 20.0011H34.9183ZM32.091 21.1375C32.091 21.1375 32.3365 20.9647 32.3547 20.792C32.3547 20.792 32.9274 20.792 33.2183 20.792C33.2183 20.792 33.0001 21.2011 32.091 21.1375V21.1375ZM24.2729 22.1738C24.3638 22.1738 24.4457 22.2011 24.4457 22.2102L27.782 29.601C27.782 29.601 27.3184 29.6192 26.9547 29.5465C25.5275 26.4374 23.8639 22.7829 23.8639 22.7829C23.7911 22.6556 23.8002 22.5374 23.8639 22.4193C23.9548 22.2647 24.1366 22.1738 24.2638 22.1738H24.2729ZM24.4911 24.6465L24.6275 24.9374C24.0275 26.0556 24.0366 27.3101 24.2729 28.501C24.2548 28.4828 24.2366 28.4737 24.2184 28.4556C24.1457 28.3919 24.0638 28.3101 23.9911 28.2374C23.4548 27.7192 22.7457 27.001 22.2639 26.4829C22.9366 25.392 23.5911 24.3556 23.5911 24.3556C23.7639 24.0829 23.9548 23.792 24.0548 23.6374L24.5093 24.6465H24.4911ZM24.7366 25.192L26.7093 29.5465C25.8002 29.4465 25.2002 29.1737 24.5729 28.7374C24.3457 27.5465 24.2729 26.3374 24.7275 25.192H24.7366ZM41.6 37.4646C41.2091 37.5736 39.9546 37.9009 39.9546 37.9009C40.0273 37.6009 40.0091 37.1191 40.0091 37.1191C42.4364 36.6009 40.1364 36.3828 40.1364 36.3828C40.6728 36.5464 40.6546 36.7373 40.6546 36.7373C40.4182 36.7464 40.0091 36.6282 40.0091 36.6282C40.0182 36.4737 39.9819 35.8646 39.9819 35.8646C40.6091 36.1373 40.7091 36.0646 41.3637 36.21C42.0364 36.3646 41.7091 36.6373 41.7091 36.6373C41.3637 37.0646 40.1091 37.2373 40.1091 37.2373C42.2182 36.9646 42.0273 36.3918 42.0273 36.3918C42.8909 36.9555 42.0364 37.3555 41.6 37.4736V37.4646ZM41.2637 32.401C41.2637 32.401 40.9455 32.5646 39.5 32.8192C39.5 32.8192 39.3819 32.3646 39.3273 32.1373C39.3273 32.1373 40.5546 31.8828 41.0364 31.701C41.0364 31.701 41.0364 31.5373 40.7909 31.5464C40.7909 31.5464 39.5455 31.8646 39.2546 31.8919L39.1819 31.701C39.1819 31.701 40.2455 31.4919 40.6091 31.4101C40.6091 31.4101 41.3637 31.1464 41.5273 31.7283C41.5273 31.7283 41.6909 32.2282 41.2637 32.401V32.401ZM42.5909 36.6737C42.5909 36.51 42.3364 36.2009 41.9 36.11C41.9 36.11 41.9 35.9373 41.9 35.7373C41.7909 34.6191 41.3909 32.5919 41.3909 32.5919C42.0091 32.3919 41.9546 31.1192 40.9 31.1283C40.6455 29.9737 40.2728 29.0556 40.2728 29.0556C40.8455 28.7374 40.5819 28.2101 40.2637 28.1101C40.2637 28.1101 40.8364 27.9828 41.1091 28.9828C42.0727 31.6828 42.8182 35.3828 42.6091 36.6646L42.5909 36.6737ZM40.3273 28.5465C40.3364 28.6101 40.3091 28.8374 40.0546 28.8828L39.9637 28.901C39.7364 28.9737 39.291 29.0737 38.8364 29.1646C38.5546 29.2192 38.3001 29.2646 38.3273 29.2556C38.2728 29.1283 38.2273 28.9919 38.0546 28.6556C38.5455 28.5737 39.1819 28.4465 39.6273 28.3101C39.7637 28.2647 40.0182 28.2374 40.0182 28.2374C40.2182 28.2737 40.3 28.3828 40.3273 28.5465V28.5465ZM37.891 28.4465C37.7637 28.3374 37.6364 28.3283 37.6001 28.3283C37.9637 28.3556 39.0546 28.2465 39.0546 28.2465C38.8455 28.3283 37.891 28.4556 37.891 28.4556V28.4465ZM36.8273 28.601C36.3364 28.7283 35.191 28.8465 35.191 28.8465L34.9546 28.3101C36.1455 28.4737 37.0364 28.3828 37.0364 28.3828C36.8273 28.4101 36.8183 28.601 36.8183 28.601H36.8273ZM34.0819 21.2375C34.1092 21.592 34.0819 22.0374 33.9001 22.3738C33.6819 22.7647 33.391 23.0102 32.8274 23.1102C32.8183 23.1102 32.7819 23.1102 32.7456 23.1102C32.7456 23.1102 32.7092 23.1102 32.691 23.1102C32.6456 23.1102 32.6092 23.1102 32.5729 23.1193C33.1365 24.4647 35.0001 28.8646 35.0001 28.8646C34.6456 28.9283 34.2546 28.9556 34.2546 28.9556L31.9092 23.4465C31.8547 23.5011 31.8092 23.5556 31.791 23.592C31.7638 23.6192 31.7456 23.6465 31.7183 23.6738C31.3547 24.1283 31.1274 24.7192 31.0092 25.3465C31.0001 25.3829 30.982 25.4465 30.9729 25.5374C32.0819 27.2374 33.5728 27.8737 33.5728 27.8737L33.9456 28.7828C32.4638 28.3556 31.2274 27.0101 30.882 26.6101C30.882 26.6465 30.882 26.6829 30.882 26.7192C30.882 27.4647 30.9729 28.1737 31.091 28.6828C31.1638 28.901 31.2274 29.1283 31.282 29.3465C31.1092 29.3646 30.9456 29.3828 30.7729 29.401C30.6547 28.9556 30.5183 28.5374 30.3547 28.1647C29.5183 26.1829 27.2275 27.0919 27.3911 28.2828C26.6911 26.7465 25.982 25.1829 25.4547 24.0102C25.6547 23.792 26.0729 23.3647 26.7365 22.9374C26.2729 23.1465 25.9002 23.4647 25.9002 23.4647C25.7184 23.6011 25.5547 23.7465 25.4002 23.9011C25.3638 23.8102 25.3184 23.7283 25.282 23.6465C25.1457 23.3465 25.0275 23.0829 24.9275 22.8647C25.2729 22.6465 25.6184 22.4193 26.0547 22.2647C27.3275 21.7465 28.7911 21.4011 30.1911 21.1011C30.2729 21.0829 30.3456 21.0647 30.4274 21.0556C30.4729 21.7556 30.1183 22.0193 29.5092 22.1465C29.1092 22.2284 28.7911 22.2465 28.6274 22.3011H29.0093C29.0093 22.3011 29.4456 22.3102 30.0274 22.1102C30.4092 21.9647 30.6911 21.7102 30.5729 21.0284C30.6365 21.0193 30.7001 21.0011 30.7638 20.992C30.8638 21.6465 30.7638 22.2829 29.5002 22.4011C29.7183 22.5465 31.691 22.1829 32.8819 22.4556C32.9092 22.4647 33.4092 22.6374 32.8365 22.892C33.9365 22.6465 34.0001 21.5465 33.791 20.7284H33.8365C34.0456 20.7466 34.2183 20.7738 34.3546 20.8011C34.4637 20.8102 34.591 20.8284 34.7183 20.8465C35.5365 20.9284 35.4637 19.9556 35.0365 19.8284C34.7092 19.7284 34.6274 19.7284 34.5365 19.7193H34.4183L33.391 17.4193L33.9547 17.1557L35.4183 19.8011C36.1001 20.8829 34.9728 21.3284 34.3456 21.0011C34.2001 21.0738 34.1274 21.1465 34.0637 21.2375H34.0819ZM26.9184 36.51C26.9184 36.51 25.8729 36.6464 25.0366 36.4827C22.9366 39.6918 17.2639 39.4736 13.7912 36.7646C13.7276 36.7191 13.664 36.6646 13.5912 36.6191C13.3549 36.8009 12.3276 37.51 10.3731 37.81C8.72764 38.1282 8.04583 37.0555 8.24583 36.3373C7.76402 35.2646 7.62766 34.8919 7.46402 34.2919C7.36402 33.8646 7.42766 33.5464 7.46402 33.3737C6.97312 32.4464 6.46403 31.2828 6.04585 29.9555C0.118644 11.0557 24.7184 3.13765 32.7001 17.4102C32.8547 17.4193 32.9456 17.4648 33.0001 17.5648L33.2183 17.4739L34.1819 19.6466C34.0637 19.6193 33.7365 19.592 33.6547 19.592C33.6547 19.592 33.6547 19.592 33.6547 19.6011C33.6001 19.6011 33.5456 19.592 33.491 19.5829H33.4092C33.2001 18.9375 32.9274 18.1102 32.7365 17.6375C32.6274 17.6102 32.4365 17.6102 32.391 17.6102C32.391 17.6102 32.391 17.6102 32.391 17.6284C32.5365 17.9011 32.9819 19.2738 33.1274 19.6557C33.3365 20.1738 33.3183 20.4647 33.3183 20.4647L32.3638 20.4466C32.3456 20.1647 32.0819 19.6466 32.0819 19.6466L31.7274 18.9284L31.6274 18.7193L31.2547 17.9375C31.2183 17.8557 31.1456 17.6648 31.1274 17.5102C31.0638 17.0102 31.5547 17.0102 31.5729 17.0102C31.8274 17.0102 32.0365 17.1102 32.2456 17.4011C32.291 17.4011 32.3365 17.4011 32.3819 17.4011C32.0819 16.8102 31.9183 16.6284 31.7183 16.2921C28.0184 11.0012 21.8457 9.43758 16.4003 10.7557C23.3002 9.74667 28.5547 12.7103 31.182 17.1466C30.9638 17.2557 30.6001 17.4375 30.4274 17.5284C30.3547 17.5284 30.0729 17.5284 29.9729 17.5284C29.8092 17.5375 29.6547 17.5466 29.7638 17.9375C29.8456 18.2284 29.8729 18.292 29.9456 18.4738C30.0274 18.692 30.2729 19.3284 30.4547 19.8829C30.3911 19.892 30.3274 19.9102 30.2638 19.9193C30.2274 19.8193 30.1911 19.7193 30.1547 19.6102C29.9365 19.0648 29.682 18.3557 29.6092 18.1193C29.5729 17.992 29.5092 17.7557 29.582 17.5557C29.582 17.5557 29.3183 17.7648 29.5547 18.3102L30.1456 19.9466C30.0638 19.9647 29.9911 19.9738 29.9092 19.992C28.1184 20.3466 26.3729 20.8284 25.3911 21.2375C25.3911 21.2375 24.6548 21.5011 24.1366 21.9284C24.1184 21.9465 24.1093 21.9556 24.1093 21.9738C23.9638 22.0193 23.8184 22.1193 23.7184 22.2465C23.6457 22.3011 23.4729 22.4374 23.4002 22.5284C23.1911 22.7647 23.0093 22.9738 22.782 23.292C22.582 23.592 21.8548 24.7374 21.2093 25.7829C21.1548 25.801 21.1002 25.8283 21.0457 25.8738C20.873 26.0101 20.7639 26.2374 20.8093 26.4829C20.2821 27.3283 19.973 27.8283 19.8457 28.0283C19.5548 28.0465 19.4094 28.2737 19.4003 28.3101C19.273 28.5647 18.7275 29.4646 18.6275 29.5646C18.573 29.6192 18.4366 29.8646 18.4912 30.1374L18.4457 30.2374C18.4457 30.2374 17.2366 32.0464 17.2366 32.0373C17.1366 32.1828 17.1185 32.3464 17.1912 32.5101C17.2912 32.7192 17.5366 32.8828 17.8003 32.8919C17.9366 32.8919 18.0639 32.8646 18.1639 32.7919C18.6548 32.8737 22.0457 33.4373 24.5911 33.8646C24.7002 33.8828 24.8002 33.901 24.9093 33.9191C25.082 33.9464 25.2547 33.9737 25.4093 34.001C25.5456 34.0282 25.682 34.0464 25.8184 34.0646C25.7547 34.8009 25.5729 35.4555 25.2911 36.01L25.4002 36.0282C27.1729 36.1737 28.4365 35.8555 29.3183 35.2646C29.3911 35.41 29.4729 35.5464 29.5547 35.6828C28.8729 36.1373 28.0002 36.4282 26.9093 36.5009L26.9184 36.51ZM42.9091 38.3282H42.8909C42.8909 38.3282 42.9273 38.31 42.9364 38.3009L42.9 38.3282H42.9091Z" fill="white"/>
<path d="M23.1001 37.8463C23.7546 37.5008 24.3183 37.0281 24.7455 36.3918C24.9364 36.119 25.0819 35.8281 25.1819 35.5463C24.7546 36.6009 24.0092 37.3554 23.1001 37.8463Z" fill="white"/>
<path d="M22.2368 26.4737C22.7186 26.9828 23.4277 27.7101 23.9641 28.2282C23.8459 27.4555 23.8095 26.6646 23.9732 25.9374C24.0823 25.4374 24.2641 25.0101 24.4822 24.6374L24.0277 23.6283C23.9277 23.7828 23.7368 24.0647 23.5641 24.3465C23.5641 24.3465 22.9186 25.3828 22.2368 26.4737V26.4737Z" fill="#FF3C00"/>
<path d="M23.955 30.2555C24.2641 30.9282 24.5914 31.7827 24.7823 32.7282C24.9368 32.7555 25.0914 32.7736 25.2459 32.8009C25.2004 32.5646 25.1459 32.3464 25.1095 32.1555C25.0277 31.7646 24.6823 30.9464 24.3732 29.9373C23.9186 29.6737 23.4732 29.3191 23.0277 28.8373C23.0277 28.8373 22.2732 28.1191 21.6277 27.4737C21.3005 28.001 21.0823 28.3555 20.9459 28.5737L22.3914 29.5191C22.7005 29.7282 23.0459 29.9646 23.0641 30.4191C23.0732 30.8827 22.6732 31.4282 22.5459 31.6009C22.3732 31.8282 21.8368 32.4646 21.1459 32.0191C21.1459 32.0191 20.1369 31.3918 19.4278 30.9646L18.8823 31.7736C19.4005 31.8555 22.2368 32.31 24.5641 32.6827C24.4368 31.7827 24.1459 30.9646 23.9641 30.2464L23.955 30.2555Z" fill="#FF3C00"/>
<path d="M26.3273 22.8466C27.1546 22.4011 27.6728 22.1557 28.9819 21.9829L29.3091 21.9375C29.5364 21.9011 29.9637 21.8193 30.0819 21.592C30.1546 21.4648 30.1819 21.292 30.1728 21.092C28.7728 21.3829 27.3001 21.7375 26.0364 22.2557C25.6001 22.4102 25.2546 22.6375 24.9092 22.8557C25.0092 23.0738 25.1274 23.3466 25.2637 23.6375C25.6001 23.3102 25.9274 23.0829 26.1728 22.9375C26.2183 22.9011 26.3273 22.8375 26.3273 22.8375V22.8466Z" fill="#FF3C00"/>
<path d="M29.3089 17.5375C29.3453 17.4738 29.3998 17.4284 29.4635 17.392C27.2908 13.7193 22.0817 9.91027 15.3091 11.0648C8.76367 13.1648 3.64555 19.5556 5.91825 28.6555C6.86369 32.11 7.98186 33.9464 9.18185 35.6645C9.18185 35.6645 9.12731 36.5009 10.5637 36.0645C11.8636 35.6736 12.6636 35.6373 14.0182 36.6554C16.3909 38.4191 20.4726 39.2281 23.0999 37.8554C24.009 37.3645 24.7544 36.61 25.1817 35.5555C25.3635 35.0373 25.418 34.5009 25.3999 34.01C25.2362 33.9827 25.0726 33.9555 24.8999 33.9282C24.7908 36.0736 22.6544 38.1463 18.8454 37.91C17.2545 37.8554 15.5636 37.0827 14.5454 36.5282C14.0818 36.2191 12.7636 35.4827 12.1364 35.3373C12.6818 35.3645 14.0545 36.0827 14.6272 36.41C15.8 37.0191 17.4454 37.6009 18.8454 37.6554C21.3908 37.8918 24.2817 36.5918 24.5817 33.8646C22.0272 33.4373 18.6454 32.8737 18.1545 32.7918C18.0545 32.8646 17.9272 32.9009 17.7909 32.8918C17.5363 32.8737 17.2818 32.7191 17.1818 32.51C17.109 32.3555 17.1272 32.1919 17.2272 32.0373L18.4363 30.2373L18.4818 30.1373C18.4272 29.8646 18.5545 29.6192 18.6181 29.5646C18.7181 29.4646 19.2636 28.5646 19.3908 28.3101C19.409 28.2828 19.5545 28.0555 19.8363 28.0283C19.9636 27.8192 20.2726 27.3283 20.7999 26.4828C20.7545 26.2465 20.8726 26.0101 21.0363 25.8737C21.0908 25.8374 21.1454 25.801 21.1999 25.7828C21.8454 24.7374 22.5726 23.5919 22.7726 23.2919C22.9999 22.9738 23.1817 22.7647 23.3908 22.5283C23.4635 22.4465 23.6362 22.3101 23.709 22.2465C23.809 22.1192 23.9453 22.0192 24.0999 21.9738C24.0999 21.9647 24.109 21.9465 24.1271 21.9283C24.6453 21.5011 25.3817 21.2374 25.3817 21.2374C26.3635 20.8283 28.1089 20.3556 29.8998 19.992C29.7725 19.6284 29.3816 18.4829 29.3816 18.4829C29.3635 18.4375 29.0907 17.8738 29.2998 17.5284L29.3089 17.5375ZM21.2726 33.4555C21.6908 33.4555 22.0272 33.8009 22.0272 34.2191C22.0272 34.5282 21.8363 34.7918 21.5726 34.91C21.4817 35.01 21.3545 35.0646 21.2181 35.0646C21.0181 35.0646 20.8545 34.9464 20.7726 34.7736C20.6181 34.6373 20.5181 34.4373 20.5181 34.21C20.5181 33.7918 20.8545 33.4555 21.2726 33.4555V33.4555ZM15.3182 35.8464C15.2091 35.9373 15.0636 35.9736 14.9091 35.9555C14.7363 36.0645 14.4727 36.0009 14.2909 35.8009C14.1182 35.6191 14.0636 35.3736 14.1454 35.21C14.1091 34.9464 14.1909 34.6736 14.3818 34.5464C14.6727 34.3464 15.1 34.4736 15.3545 34.8191C15.6 35.1736 15.5909 35.6191 15.3182 35.8464V35.8464ZM19.0454 33.81C17.7727 35.1555 15.2636 35.1464 13.8273 33.31C16.2454 35.5555 18.4999 34.0737 19.0454 33.81ZM16.7545 32.21C16.6 32.2646 16.4363 32.2828 16.2727 32.2828C15.8091 32.2828 15.3454 32.0737 15 31.71C14.3273 31.001 14.2818 29.9192 14.9 29.2828C15.1818 29.001 15.5545 28.8464 15.9636 28.8464C16.4272 28.8464 16.8909 29.0555 17.2363 29.4192C17.5818 29.7828 17.7636 30.2464 17.7727 30.701L16.7545 32.21V32.21Z" fill="#FF3C00"/>
<path d="M24.5551 32.6919C24.6278 32.701 24.7096 32.7192 24.7823 32.7283C24.6005 31.7919 24.2733 30.9283 23.9551 30.2556C24.1369 30.9737 24.4278 31.7919 24.5551 32.6919Z" fill="#311D00"/>
<path d="M18.8457 37.6463C17.4458 37.5918 15.8094 37.01 14.6276 36.4009C14.0549 36.0736 12.6822 35.3555 12.1367 35.3282C12.764 35.4645 14.0822 36.2009 14.5458 36.5191C15.5549 37.0736 17.2548 37.8463 18.8457 37.9009C22.6548 38.1372 24.7911 36.0645 24.9002 33.9191C24.8002 33.9009 24.6911 33.8827 24.582 33.8646C24.273 36.5827 21.3821 37.8918 18.8457 37.6554V37.6463Z" fill="#311D00"/>
<path d="M15.9548 28.8646C15.5457 28.8646 15.1639 29.0192 14.8912 29.301C14.273 29.9282 14.3185 31.0191 14.9912 31.7282C15.3366 32.0919 15.8003 32.2919 16.2639 32.301C16.4366 32.301 16.6003 32.2737 16.7457 32.2282L17.7639 30.7191C17.7639 30.2646 17.573 29.801 17.2275 29.4373C16.8821 29.0737 16.4184 28.8737 15.9548 28.8646Z" fill="#311D00"/>
<path d="M13.8276 33.3192C15.2549 35.1555 17.773 35.1555 19.0458 33.8191C18.5094 34.0828 16.2458 35.5646 13.8276 33.3192Z" fill="#311D00"/>
<path d="M20.7638 34.7737C20.8456 34.9464 21.0093 35.0646 21.2093 35.0646C21.3456 35.0646 21.4729 35.0009 21.5638 34.91C21.8365 34.7919 22.0184 34.5282 22.0184 34.2191C22.0184 33.801 21.682 33.4646 21.2638 33.4555C20.8456 33.4555 20.5093 33.7919 20.5093 34.21C20.5093 34.4373 20.6093 34.6373 20.7638 34.7737V34.7737ZM21.2093 34.9737C20.982 34.9737 20.8002 34.7919 20.8002 34.5555C20.8002 34.3191 20.982 34.1373 21.2093 34.1373C21.4365 34.1373 21.6184 34.3282 21.6184 34.5555C21.6184 34.7828 21.4365 34.9737 21.2093 34.9737ZM21.5365 34.1373C21.4275 34.0191 21.1638 33.9646 21.0093 34.0646C20.9365 34.11 20.8729 34.0555 20.9547 33.9646C21.1275 33.81 21.4456 33.8191 21.6002 34.0373C21.6729 34.1464 21.6002 34.2191 21.5365 34.1373V34.1373ZM21.2911 33.5919C21.782 33.5919 22.1274 34.2191 21.7184 34.6464C21.9002 34.2646 21.7547 33.7737 21.282 33.7555C20.7911 33.7373 20.6275 34.2282 20.7184 34.4828C20.5547 34.3282 20.6093 33.5919 21.3002 33.5919H21.2911Z" fill="#311D00"/>
<path d="M20.955 33.9646C20.8641 34.0555 20.9368 34.11 21.0096 34.0646C21.1641 33.9646 21.4277 34.0191 21.5368 34.1373C21.5914 34.2282 21.6732 34.1464 21.6005 34.0373C21.455 33.8191 21.1277 33.8101 20.955 33.9646V33.9646Z" fill="white"/>
<path d="M21.2729 33.7556C21.7456 33.7737 21.8911 34.2646 21.7093 34.6465C22.1183 34.2192 21.7729 33.5919 21.282 33.5919C20.5911 33.5919 20.5365 34.3283 20.7002 34.4828C20.6184 34.2283 20.7729 33.7374 21.2638 33.7556H21.2729Z" fill="white"/>
<path d="M21.6185 34.5646C21.6185 34.3373 21.4367 34.1464 21.2094 34.1464C20.9821 34.1464 20.8003 34.3373 20.8003 34.5646C20.8003 34.7919 20.9821 34.9828 21.2094 34.9828C21.4367 34.9828 21.6185 34.801 21.6185 34.5646ZM21.2003 34.8919C21.0185 34.8919 20.873 34.7464 20.873 34.5646C20.873 34.3828 21.0185 34.2373 21.2003 34.2373C21.3821 34.2373 21.5276 34.3828 21.5276 34.5646C21.5276 34.7464 21.3821 34.8919 21.2003 34.8919Z" fill="white"/>
<path d="M21.2003 34.2282C21.0185 34.2282 20.873 34.3737 20.873 34.5555C20.873 34.7373 21.0185 34.8827 21.2003 34.8827C21.3821 34.8827 21.5276 34.7373 21.5276 34.5555C21.5276 34.3737 21.3821 34.2282 21.2003 34.2282ZM20.9549 34.5646C20.9549 34.5646 20.9821 34.5464 20.9912 34.5737C21.0821 34.7191 21.3276 34.7282 21.4094 34.6191C21.4458 34.5646 21.4458 34.6373 21.4458 34.6373C21.2912 34.9464 20.9276 34.7555 20.9549 34.5646V34.5646Z" fill="#311D00"/>
<path d="M21.4096 34.6191C21.3369 34.7282 21.0823 34.7191 20.9914 34.5737C20.9823 34.5373 20.9642 34.5191 20.9551 34.5646C20.9278 34.7555 21.2914 34.9464 21.446 34.6373C21.446 34.6373 21.446 34.5646 21.4096 34.6191V34.6191Z" fill="white"/>
<path d="M14.3732 34.5464C14.1823 34.6828 14.1004 34.9464 14.1368 35.21C14.055 35.3737 14.1004 35.6191 14.2823 35.8009C14.4732 36.0009 14.7368 36.0555 14.9004 35.9555C15.055 35.9646 15.2004 35.9373 15.3095 35.8464C15.5822 35.6191 15.5913 35.1737 15.3459 34.8191C15.1004 34.4646 14.6641 34.3373 14.3732 34.5464V34.5464ZM14.3277 35.7464C14.155 35.5646 14.1186 35.3009 14.2641 35.1737C14.4004 35.0464 14.655 35.0828 14.8368 35.2737C15.0095 35.4646 15.0459 35.7191 14.9004 35.8464C14.7641 35.9828 14.5095 35.9373 14.3277 35.7464ZM15.0095 35.2919C14.9641 35.1828 14.8004 35.0464 14.7095 35.0282C14.6186 35.01 14.655 34.8646 14.7641 34.9009C14.8641 34.9373 15.0277 35.0737 15.0641 35.1373C15.1641 35.3009 15.0641 35.3919 15.0095 35.2919V35.2919ZM15.1368 35.81C15.6459 35.1555 14.655 34.3828 14.2732 34.9919C14.6004 34.001 15.9004 35.2464 15.1368 35.81Z" fill="#311D00"/>
<path d="M14.755 34.9101C14.6459 34.8737 14.6095 35.0192 14.7005 35.0374C14.7914 35.0556 14.955 35.1919 15.0004 35.301C15.0459 35.3919 15.155 35.301 15.055 35.1465C15.0186 35.0828 14.855 34.9465 14.755 34.9101V34.9101Z" fill="white"/>
<path d="M14.2642 35.0009C14.6551 34.3918 15.6369 35.1555 15.1278 35.8191C15.8914 35.2555 14.5823 34.01 14.2642 35.0009Z" fill="white"/>
<path d="M14.8366 35.2736C14.6638 35.0918 14.4002 35.0464 14.2638 35.1736C14.1275 35.31 14.1547 35.5646 14.3275 35.7464C14.5002 35.9373 14.7638 35.9736 14.9002 35.8464C15.0366 35.7191 15.0093 35.4555 14.8366 35.2736ZM14.8366 35.81C14.7184 35.8918 14.5275 35.8282 14.382 35.6918C14.2275 35.5464 14.2184 35.3282 14.3184 35.2282C14.4366 35.11 14.6457 35.1827 14.7729 35.3282C14.8729 35.4464 14.9638 35.7009 14.8275 35.81H14.8366Z" fill="white"/>
<path d="M14.3097 35.2283C14.2006 35.3283 14.2188 35.5464 14.3733 35.6919C14.5188 35.8192 14.7097 35.8919 14.8278 35.8101C14.9642 35.7101 14.8733 35.4464 14.7733 35.3283C14.646 35.1828 14.4369 35.1101 14.3188 35.2283H14.3097ZM14.7278 35.7464C14.4915 35.7646 14.2824 35.4828 14.3642 35.3555C14.3642 35.3555 14.4278 35.2646 14.4369 35.3555C14.4551 35.501 14.6097 35.6464 14.746 35.6828C14.7824 35.6828 14.7915 35.7464 14.7188 35.7555L14.7278 35.7464Z" fill="#311D00"/>
<path d="M14.4459 35.3555C14.4368 35.2736 14.3731 35.3555 14.3731 35.3555C14.2822 35.4827 14.5004 35.7736 14.7368 35.7464C14.8095 35.7373 14.8004 35.6827 14.764 35.6736C14.6186 35.6373 14.4731 35.4918 14.455 35.3464L14.4459 35.3555Z" fill="white"/>
<path d="M13.2549 36.5737C13.3004 36.5373 13.3549 36.5009 13.3913 36.4828C12.7458 36.0737 11.9367 35.801 10.6367 36.2282C10.6186 36.2282 10.6004 36.2373 10.5822 36.2464C10.9004 36.1828 11.3276 36.11 11.6004 36.1282C11.9458 36.1555 12.4549 36.201 12.9367 36.51L12.6913 36.6373C11.5549 37.1919 10.5913 37.3464 10.0458 37.3828C9.50948 37.4191 9.61857 37.11 9.96402 36.9282C10.1549 36.8282 10.3186 36.6464 10.3913 36.301C10.3367 36.3282 10.3367 36.3191 10.2458 36.3373C10.2458 36.3373 10.2458 36.3373 10.2367 36.3373C10.1186 37.1737 8.47313 37.0919 8.65495 35.9464C8.65495 35.9464 8.41859 35.4646 8.28222 35.1828C8.28222 35.1919 8.24586 35.0101 8.26404 35.001C8.26404 35.001 8.66404 35.6555 8.82767 35.8555C8.60949 36.6373 9.74584 36.9646 10.0549 36.3737C9.04585 36.5646 9.00949 36.0464 9.02767 35.8737C9.02767 35.8464 9.00949 35.8191 9.00949 35.7919C8.83676 35.61 8.26404 34.8555 7.61859 33.6737C7.52769 34.3646 8.31859 35.9646 8.38222 36.1282L8.44586 36.2919C8.2095 36.9464 8.89131 37.81 10.1186 37.61C11.3276 37.4918 12.6731 36.9919 13.2549 36.5737V36.5737Z" fill="white"/>
<path d="M30.1636 34.4736L30.2454 34.6282C30.2999 34.7282 30.3545 34.8191 30.409 34.9191C30.5454 34.7554 30.6727 34.5827 30.7817 34.41C30.6454 34.4282 30.4999 34.4372 30.3727 34.4554C30.3727 34.4554 30.2999 34.4645 30.1727 34.4827L30.1636 34.4736Z" fill="#311D00"/>
<path d="M30.782 33.2009C30.9548 33.1827 31.1275 33.1646 31.3002 33.1464C31.4093 32.7373 31.4729 32.31 31.5002 31.8555C31.5002 31.81 31.5002 31.7737 31.5002 31.7373L35.4093 32.4009C35.4093 32.4009 35.1547 31.8191 35.082 31.6191L31.4911 31.001C31.4911 31.001 31.4911 30.9282 31.4911 30.8919C31.482 30.7464 31.4639 30.601 31.4457 30.4464C31.282 30.4646 31.1093 30.4828 30.9457 30.501C31.0639 31.41 31.0366 32.3464 30.7729 33.1918L30.782 33.2009Z" fill="#311D00"/>
<path d="M23.9638 28.2192C24.0456 28.301 24.1274 28.3737 24.1911 28.4373C24.2093 28.4555 24.2274 28.4646 24.2456 28.4828C24.0183 27.2919 24.0093 26.0465 24.6002 24.9192L24.4638 24.6283C24.2456 25.001 24.0638 25.4283 23.9547 25.9283C23.7911 26.6646 23.8274 27.4555 23.9456 28.2192H23.9638Z" fill="#311D00"/>
<path d="M25.2458 32.801C25.4549 32.8373 25.6549 32.8646 25.8458 32.8919C25.8458 32.8555 25.8458 32.8192 25.8458 32.7737C26.5003 32.301 27.0094 31.5192 27.2821 30.7919L27.2367 30.6919C27.2367 30.6919 27.173 30.6919 27.1367 30.6919C26.4458 30.6556 25.6912 30.5556 24.9276 30.2192C25.1185 30.9555 25.3185 31.6737 25.4276 32.3374C25.2912 31.7646 24.9821 30.9828 24.6912 30.1101C24.5821 30.0556 24.4821 30.001 24.373 29.9374C24.6821 30.9465 25.0185 31.7646 25.1094 32.1555C25.1458 32.3374 25.2003 32.5555 25.2458 32.801V32.801Z" fill="#311D00"/>
<path d="M30.5547 27.3375C30.3183 26.2375 30.5728 24.192 31.3728 23.6011C30.2274 23.7375 29.9092 26.6193 30.5547 27.3375Z" fill="white"/>
<path d="M26.7003 29.5283L24.7276 25.1738C24.2731 26.3193 24.3367 27.5283 24.5731 28.7192C25.2004 29.1556 25.7913 29.4283 26.7094 29.5283H26.7003Z" fill="#311D00"/>
<path d="M34.3458 20.992C34.9639 21.3192 36.1003 20.8738 35.4185 19.792L33.9549 17.1465L33.3912 17.4102L34.4185 19.692H34.5367C34.6185 19.7192 34.7003 19.7192 35.0367 19.8192C35.4639 19.9465 35.5458 20.9192 34.7185 20.8374C34.5821 20.8192 34.4549 20.8101 34.3549 20.792C34.2185 20.7647 34.0367 20.7374 33.8367 20.7283H33.7912C34.0003 21.5374 33.9367 22.6374 32.8367 22.8828C33.4094 22.6374 32.9094 22.4647 32.8821 22.4465C31.6913 22.1738 29.7185 22.5374 29.5004 22.3919C30.7731 22.2738 30.864 21.6374 30.764 20.9829C30.7004 20.992 30.6367 21.0101 30.5731 21.0192C30.6913 21.7101 30.4094 21.9647 30.0276 22.101C29.4458 22.301 29.0276 22.301 29.0095 22.301H28.6276C28.7913 22.2283 29.1185 22.2192 29.5095 22.1374C30.1185 22.0101 30.4731 21.7465 30.4276 21.0465C30.3458 21.0647 30.2731 21.0738 30.1913 21.092C30.1913 21.292 30.1731 21.4647 30.1004 21.592C29.9731 21.8101 29.5458 21.901 29.3276 21.9374C29.3276 21.9374 28.9913 21.9829 29.0004 21.9829C27.6822 22.1556 27.1731 22.3919 26.3459 22.8465C26.3459 22.8465 26.2459 22.9101 26.1913 22.9465C25.9459 23.0919 25.6095 23.3192 25.2822 23.6465C25.3186 23.7283 25.355 23.8192 25.4004 23.901C25.555 23.7556 25.7186 23.6101 25.9004 23.4647C25.9004 23.4647 26.2731 23.1374 26.7368 22.9374C26.0731 23.3647 25.655 23.7828 25.455 24.0101C25.9822 25.1737 26.6913 26.7464 27.3913 28.2828C27.2277 27.0919 29.5185 26.1828 30.3549 28.1646C30.5185 28.5373 30.6549 28.9646 30.7731 29.401C30.9367 29.3828 31.1094 29.3646 31.2822 29.3464C31.2276 29.1282 31.164 28.901 31.0913 28.6828C30.9731 28.1737 30.8822 27.4737 30.8822 26.7192C30.8822 26.6828 30.8822 26.6464 30.8822 26.6101C31.2276 27.0101 32.464 28.3555 33.9458 28.7828L33.573 27.8737C33.573 27.8737 32.0822 27.2373 30.9731 25.5374C30.9913 25.4555 31.0003 25.3919 31.0094 25.3465C31.1367 24.7192 31.3549 24.1374 31.7185 23.6737C31.7458 23.6465 31.764 23.6192 31.7912 23.5919C31.8094 23.5647 31.8549 23.5101 31.9094 23.4465L34.2549 28.9555C34.2549 28.9555 34.6458 28.9282 35.0003 28.8646C35.0003 28.8646 33.1367 24.4647 32.5731 23.1192C32.6094 23.1192 32.6549 23.1101 32.6912 23.1101C32.7094 23.1101 32.7276 23.1101 32.7458 23.1101C32.7458 23.1101 32.8094 23.1101 32.8276 23.1101C33.3912 23.0101 33.6821 22.7556 33.9003 22.3738C34.0821 22.0374 34.1094 21.601 34.0821 21.2374C34.1458 21.1465 34.2276 21.0738 34.364 21.0011L34.3458 20.992ZM30.5458 27.3373C29.9004 26.6192 30.2185 23.7465 31.364 23.601C30.564 24.1828 30.3094 26.2283 30.5458 27.3373Z" fill="#311D00"/>
<path d="M20.7457 31.1828C20.7457 31.1828 20.7729 31.2556 20.8184 31.3465C20.8638 31.4283 20.9457 31.5101 21.0275 31.5647C21.6638 31.9465 22.0093 31.4647 22.0184 31.4556C22.0184 31.4556 22.3093 31.0738 21.8911 30.6556C21.882 30.6465 21.6184 30.4192 21.2729 30.4556C21.2366 30.3101 21.0547 29.901 20.5275 29.9192C20.1093 29.9465 20.0093 30.1738 19.9638 30.3101C19.9638 30.3101 19.8548 30.601 20.0184 30.8465C20.0184 30.8465 20.2275 31.2556 20.7638 31.1738L20.7457 31.1828ZM21.3002 30.5738C21.7729 30.5556 22.1456 31.0374 21.9093 31.3828L21.8184 31.401C21.4093 31.4556 21.1729 31.2919 21.1002 30.9192C21.1638 30.8738 21.2729 30.7465 21.2911 30.5738H21.3002ZM20.7457 30.0647C20.982 30.1374 21.1547 30.3465 21.1366 30.5556H21.1638C21.1456 30.7101 20.982 30.9192 20.6547 30.8738C20.6366 30.8101 20.6366 30.7374 20.6275 30.6647C20.682 30.6829 20.7457 30.6919 20.8093 30.6919C20.8093 30.6647 20.8093 30.5919 20.8093 30.5919C20.7457 30.5919 20.682 30.5647 20.6184 30.5374C20.6184 30.3556 20.6638 30.192 20.7366 30.0647H20.7457ZM20.2002 30.1647C20.3093 30.0738 20.3911 30.0374 20.5457 30.0465C20.482 30.1556 20.4547 30.3101 20.4457 30.4647C20.4093 30.4374 20.3911 30.4374 20.3547 30.401V30.5192C20.3547 30.5192 20.4093 30.5647 20.4457 30.5919C20.4457 30.6919 20.4457 30.7647 20.4729 30.8374C20.4547 30.8374 20.4366 30.8101 20.4184 30.801C20.0911 30.6192 20.2002 30.1647 20.2002 30.1647V30.1647ZM20.082 30.3101C20.0275 30.9919 20.6547 31.0919 21.0002 30.9647C21.0729 31.5192 21.5547 31.5374 21.7911 31.501C21.5002 31.6828 20.9366 31.5647 20.8275 31.0374C20.382 31.1738 19.882 30.8192 20.0729 30.3101H20.082Z" fill="white"/>
<path d="M31.8911 18.1738C31.7547 18.0829 31.5365 17.7829 31.5729 17.5284C31.9001 17.5284 31.9911 18.0102 31.8911 18.1738Z" fill="#311D00"/>
<path d="M32.2363 19.0557C32.0727 18.892 31.9908 18.7102 31.9727 18.4557C32.2363 18.5102 32.3908 18.8284 32.2363 19.0557Z" fill="#311D00"/>
<path d="M30.8368 18.4193C30.8368 18.4193 31.0459 19.0647 31.3004 19.7102C31.9823 19.5284 32.4732 20.792 31.2641 20.8829C31.3823 21.3829 32.5186 21.1738 32.0732 20.0374C31.9823 19.8102 31.2277 18.2375 31.0823 17.8466C30.9914 17.592 30.9914 17.5557 30.9914 17.4647C30.9914 17.4647 30.9914 17.4011 31.0005 17.3738L30.9823 17.3829L30.7368 17.5102C30.555 17.7193 30.8277 18.4193 30.8277 18.4193H30.8368Z" fill="#311D00"/>
<path d="M30.3733 18.3647C30.5642 18.9465 30.8733 19.792 30.8733 19.792L31.1187 19.7465L30.646 18.4374C30.646 18.4374 30.4551 17.9283 30.5551 17.6011L30.3278 17.7102C30.3278 17.7102 30.2188 17.9283 30.3642 18.3738L30.3733 18.3647Z" fill="#311D00"/>
<path d="M32.0728 21.1193C32.9818 21.1829 33.2 20.7738 33.2 20.7738C32.9091 20.7738 32.3364 20.7738 32.3364 20.7738C32.3273 20.9556 32.0728 21.1193 32.0728 21.1193Z" fill="#311D00"/>
<path d="M21.4819 25.7556C21.6183 25.7556 21.7638 25.9284 21.7638 25.9284L22.1092 26.3011L23.3819 24.2193C23.591 23.892 23.9728 23.4193 23.9455 23.4466C23.9455 23.4466 23.791 23.0557 23.7092 22.9011C23.6092 22.7102 23.6274 22.5284 23.6274 22.5284C23.691 22.4466 23.1819 23.0557 22.9637 23.4102C22.7546 23.7193 22.1547 24.6738 21.491 25.7556H21.4819Z" fill="#311D00"/>
<path d="M37.582 28.3192C37.582 28.3192 37.7457 28.3374 37.8729 28.4374C37.8729 28.4374 38.8366 28.3192 39.0366 28.2283C39.0366 28.2283 37.9457 28.3374 37.582 28.3101V28.3192Z" fill="#311D00"/>
<path d="M37.9456 31.7556C37.9456 31.7556 37.2819 31.7646 36.3638 31.7556L36.6365 32.3828L37.6728 32.1737C37.6728 32.1737 38.0547 32.1556 37.9456 31.7556V31.7556Z" fill="#311D00"/>
<path d="M35.4003 29.9556C35.4003 29.9556 34.7912 30.0556 34.6821 30.0737C34.6821 30.0737 35.5912 32.301 35.7367 32.5828C35.7367 32.5828 36.3367 32.4919 36.4639 32.4374C36.4639 32.4374 35.873 31.2556 35.4003 29.9647V29.9556Z" fill="#311D00"/>
<path d="M37.009 33.5191C37.009 33.5191 36.3909 33.6555 36.2363 33.6827C36.2363 33.6827 37.109 35.2827 38.7727 36.0918C38.7727 36.0918 38.7545 35.4645 38.7272 35.21C38.7272 35.21 37.6727 34.5009 37.0181 33.51L37.009 33.5191Z" fill="#311D00"/>
<path d="M42.018 36.3737C42.018 36.3737 42.2089 36.9464 40.0999 37.2191C40.0999 37.2191 41.3635 37.0373 41.6998 36.6192C41.6998 36.6192 42.0271 36.3464 41.3544 36.1919C40.6998 36.0464 40.5998 36.1283 39.9726 35.8464C39.9726 35.8464 40.0089 36.4646 39.9999 36.6101C39.9999 36.6101 40.4089 36.7373 40.6453 36.7192C40.6453 36.7192 40.6635 36.5282 40.1271 36.3646C40.1271 36.3646 42.4271 36.5828 39.9999 37.101C39.9999 37.101 40.0089 37.5828 39.9453 37.8828C39.9453 37.8828 41.1998 37.5555 41.5907 37.4464C42.0271 37.3191 42.8816 36.9282 42.018 36.3646V36.3737Z" fill="#311D00"/>
<path d="M27.418 30.7192C28.1089 32.2464 28.3816 32.8737 28.627 33.3373C29.1452 33.3828 29.4543 33.3192 29.4543 33.3192L28.2452 30.7192C28.2452 30.7192 27.8907 30.7646 27.418 30.7192Z" fill="#311D00"/>
<path d="M23.8641 22.401C23.7914 22.5192 23.7914 22.6465 23.8641 22.7647C23.8641 22.7647 25.5368 26.4192 26.955 29.5282C27.3186 29.601 27.7823 29.5828 27.7823 29.5828L24.4459 22.1919C24.4459 22.1919 24.3641 22.1556 24.2732 22.1556C24.1459 22.1556 23.9641 22.2465 23.8732 22.401H23.8641Z" fill="#311D00"/>
<path d="M39.5362 38.0191C39.6543 37.9554 39.718 37.8282 39.7362 37.6736C39.9998 34.6918 38.8634 30.7464 37.7089 28.6192C37.5453 28.4828 37.3453 28.4828 37.1998 28.5555C37.118 28.5919 37.0271 28.6646 37.0271 28.6919V28.7646V28.7919C37.0271 28.7919 36.8998 28.8374 36.6998 28.8646C35.0817 29.1828 29.5908 29.8555 28.0817 29.8192C28.0454 29.8192 27.3181 29.8192 26.6908 29.7555C25.5454 29.6283 24.9545 29.2919 24.1363 28.6555C23.4 27.9646 21.9 26.4192 21.6363 26.0647C21.5182 25.9192 21.2909 25.9647 21.1818 26.0465C21.0273 26.1737 20.9454 26.401 21.0909 26.6101C21.6909 27.2646 23.1636 28.6737 23.1818 28.6919C24.5181 30.1464 25.8636 30.4464 27.0727 30.5101C27.9272 30.5646 29.0181 30.5101 28.8272 30.5282C31.0544 30.3919 34.8544 29.8646 36.9271 29.4828C37.0816 29.4464 37.2089 29.4192 37.2089 29.4192H37.2816C37.3816 29.4646 37.4725 29.7646 37.4816 29.7919C37.6998 30.3282 38.1271 31.7373 38.1362 31.7555C38.1362 31.7555 38.2544 32.1919 38.2089 32.2373C38.1362 32.31 37.5635 32.4464 37.5635 32.4464C36.4998 32.7282 32.0908 33.3828 29.709 33.5191C29.6908 33.5191 29.0635 33.6191 27.7181 33.4191L18.8727 31.9646L18.3818 32.6373L27.5272 34.1373C28.3635 34.2737 29.0272 34.3009 29.4908 34.2918H29.7544C30.0908 34.2737 30.2726 34.2373 30.2817 34.2373C32.7453 33.9918 35.8635 33.5918 37.8816 33.11C37.8816 33.11 38.1089 33.0646 38.2816 33.0646C38.3544 33.0646 38.4544 33.11 38.4544 33.11C38.4907 33.1464 38.5362 33.2282 38.5634 33.3646C38.9271 34.6646 38.9998 36.6191 38.9998 36.71C38.9998 36.71 38.9998 37.1191 38.9362 37.2736C38.8543 37.3645 38.5544 37.4191 38.5544 37.4191C35.2817 38.2554 31.4635 37.6645 29.9908 34.4918C29.6726 34.5191 29.1817 34.51 29.1817 34.51C29.209 34.6191 29.3272 34.8464 29.3272 34.8464C30.2817 36.9554 31.9999 37.8009 33.4544 38.1827C35.0544 38.61 36.9544 38.5827 38.7271 38.1191C39.018 38.0191 38.9998 38.0009 38.9998 38.0009C39.2634 38.1373 39.5271 38.0191 39.5271 38.0191H39.5362Z" fill="#311D00"/>
<path d="M19.4097 28.7919C19.337 28.9101 19.1825 29.1647 18.8643 29.6192C18.7279 29.8192 18.6734 29.9919 18.7188 30.1556C18.7825 30.3919 19.0279 30.501 19.037 30.501L20.5461 31.4283L20.7188 31.5374L21.2097 31.8374C21.5643 32.0737 22.0006 31.8828 22.2188 31.5828C22.4188 31.3192 22.4915 30.9374 22.0915 30.5465C22.0915 30.5465 22.0188 30.4555 21.6734 30.2555C21.3461 30.0737 20.2188 29.3919 19.6825 29.0556C19.6825 29.0556 19.4734 28.9283 19.4007 28.7828L19.4097 28.7919ZM19.9552 30.3192C20.0006 30.1919 20.1006 29.9646 20.5188 29.9283C21.0461 29.9101 21.2279 30.3192 21.2643 30.4646C21.6188 30.4192 21.8734 30.6465 21.8824 30.6646C22.3006 31.0828 22.0188 31.4555 22.0097 31.4646C22.0097 31.4646 21.6552 31.9464 21.0188 31.5737C20.937 31.5192 20.8552 31.4464 20.8097 31.3555C20.7552 31.2555 20.737 31.1919 20.737 31.1919C20.2006 31.2737 19.9916 30.8737 19.9916 30.8646C19.8279 30.6192 19.937 30.3283 19.937 30.3283L19.9552 30.3192Z" fill="#311D00"/>
<path d="M22.4821 29.8465C22.164 29.6101 21.4367 29.1283 20.8822 28.7737L20.7549 28.901C20.7549 28.901 21.9912 29.7192 22.3003 29.9374C22.664 30.1828 22.8003 30.4919 22.7458 30.801C22.7458 30.801 23.0549 30.2828 22.4821 29.8555V29.8465Z" fill="#311D00"/>
<path d="M19.7913 28.9192C20.3186 29.2556 22.0549 30.2737 22.0549 30.2737C22.0549 30.2737 22.5185 30.5737 22.5458 30.9465C22.6913 30.5465 22.4458 30.2465 22.2095 30.0737L20.6004 28.9919C20.3004 29.0738 19.664 28.7374 19.6822 28.3192C19.5186 28.4556 19.4913 28.7192 19.7913 28.9101V28.9192Z" fill="#311D00"/>
<path d="M21.1094 30.9192C21.1821 31.2919 21.4094 31.4555 21.8276 31.401L21.9185 31.3828C22.1548 31.0374 21.7821 30.5646 21.3094 30.5737C21.2821 30.7465 21.1821 30.8737 21.1185 30.9192H21.1094Z" fill="#311D00"/>
<path d="M20.8366 31.0373C20.9366 31.5555 21.5002 31.6828 21.8002 31.501C21.5638 31.5373 21.082 31.5282 21.0093 30.9646C20.6547 31.0919 20.0366 30.9919 20.0911 30.3101C19.9002 30.8191 20.4002 31.1737 20.8456 31.0373H20.8366Z" fill="#311D00"/>
<path d="M39.6093 28.3011C39.173 28.4283 38.5366 28.5556 38.0366 28.6465C38.2093 28.9829 38.2457 29.1101 38.3093 29.2465C38.2821 29.2556 38.5457 29.2101 38.8184 29.1556C39.273 29.0738 39.7184 28.9647 39.9457 28.892L40.0366 28.8738C40.2821 28.8283 40.3184 28.6011 40.3093 28.5374C40.2821 28.3829 40.2002 28.2647 40.0002 28.2283C40.0002 28.2283 39.7457 28.2647 39.6093 28.3011V28.3011Z" fill="#311D00"/>
<path d="M40.6001 31.3919C40.2456 31.4737 39.1729 31.6828 39.1729 31.6828L39.2456 31.8737C39.5365 31.8464 40.7819 31.5282 40.7819 31.5282C41.0183 31.5282 41.0274 31.6828 41.0274 31.6828C40.5456 31.8646 39.3183 32.1191 39.3183 32.1191C39.3728 32.3555 39.491 32.801 39.491 32.801C40.9456 32.5373 41.2546 32.3828 41.2546 32.3828C41.6819 32.201 41.5183 31.7101 41.5183 31.7101C41.3546 31.1373 40.6001 31.3919 40.6001 31.3919V31.3919Z" fill="#311D00"/>
<path d="M41.0818 28.9829C40.8181 27.9829 40.2363 28.1102 40.2363 28.1102C40.5545 28.2102 40.8181 28.7374 40.2454 29.0556C40.2454 29.0556 40.6181 29.9738 40.8727 31.1283C41.9272 31.1283 41.9909 32.3919 41.3636 32.5919C41.3636 32.5919 41.7636 34.6192 41.8727 35.7374C41.8818 35.9464 41.8727 36.1101 41.8727 36.1101C42.309 36.201 42.5636 36.5101 42.5636 36.6737C42.7818 35.3919 42.0272 31.6919 41.0636 28.992L41.0818 28.9829Z" fill="#311D00"/>
<path d="M34.9365 28.301L35.1729 28.8374C35.1729 28.8374 36.3092 28.7101 36.8092 28.5919C36.8092 28.5919 36.8274 28.401 37.0274 28.3738C37.0274 28.3738 36.1365 28.4738 34.9456 28.301H34.9365Z" fill="#311D00"/>
<path d="M19.2185 30.8737C19.2185 30.8737 18.6367 30.5283 18.564 30.3919L17.4094 32.1464C17.3549 32.2282 17.3458 32.3101 17.3822 32.401C17.4458 32.5373 17.6276 32.6464 17.8003 32.6646C17.8913 32.6646 18.0185 32.6555 18.1003 32.5282C18.1003 32.5282 18.964 31.2374 19.2094 30.8828L19.2185 30.8737Z" fill="#311D00"/>
<path d="M24.4731 21.9375C24.5459 21.9829 24.5641 22.0011 24.655 22.1557C24.7095 22.2557 24.8731 22.6011 24.8731 22.6011C25.164 22.3829 25.4368 22.2193 25.964 22.0375C27.6186 21.3648 29.5913 20.9738 31.3276 20.6193L31.464 20.592C31.7458 20.5466 31.8276 20.3739 31.8003 20.2284C31.7731 20.0648 31.5822 19.9011 31.3549 19.9375C29.1822 20.292 26.664 20.9375 25.4459 21.4466C25.0277 21.6193 24.7186 21.7738 24.4822 21.9375H24.4731Z" fill="#311D00"/>
<path d="M19.9548 28.2556C19.8548 28.3829 20.0184 28.5647 20.0548 28.5919C20.2093 28.7465 20.4639 28.8374 20.582 28.7465L21.4638 27.3465C21.4638 27.3465 21.1093 27.0283 20.8911 26.7283C20.1639 27.901 19.973 28.2192 19.9639 28.2465L19.9548 28.2556Z" fill="#311D00"/>
<path d="M33.3452 19.7738C33.3452 19.7738 33.5179 20.1829 33.5179 20.4738C33.8634 20.5102 34.5361 20.5738 34.7907 20.6283C35.0725 20.6283 35.127 20.4374 35.1361 20.3556C35.1543 20.2011 35.0634 20.0193 34.9179 19.992H34.9088C34.7088 19.9283 33.7361 19.8102 33.3543 19.7738H33.3452Z" fill="#311D00"/>
<path d="M20.818 30.692C20.7544 30.692 20.6908 30.692 20.6362 30.6647C20.6362 30.7374 20.6362 30.801 20.6635 30.8738C20.9908 30.9283 21.1544 30.7192 21.1726 30.5556H21.1453C21.1544 30.3374 20.9817 30.1374 20.7544 30.0556C20.6817 30.192 20.6453 30.3556 20.6362 30.5283C20.6999 30.5556 20.7544 30.5738 20.8271 30.5829C20.8271 30.5829 20.8271 30.6465 20.8271 30.6829L20.818 30.692Z" fill="#311D00"/>
<path d="M20.4186 30.801C20.4186 30.801 20.4549 30.8283 20.4731 30.8373C20.4549 30.7737 20.4458 30.6919 20.4458 30.5919C20.4004 30.5646 20.3731 30.5555 20.3458 30.5192V30.401C20.3458 30.401 20.4004 30.4374 20.4367 30.4646C20.4458 30.301 20.4731 30.1464 20.5367 30.0464C20.3822 30.0464 20.2913 30.0828 20.1913 30.1646C20.1913 30.1646 20.0822 30.6192 20.4095 30.801H20.4186Z" fill="#311D00"/>
<path d="M34.182 19.6557L33.2184 17.483L33.0002 17.5739C32.9457 17.4739 32.8548 17.4375 32.7002 17.4193C24.7185 3.14676 0.118742 11.0558 6.03686 29.9374C6.45504 31.2646 6.96412 32.4283 7.45503 33.3555C7.40957 33.5192 7.35503 33.8464 7.45503 34.2737C7.61866 34.8828 7.74593 35.2464 8.23684 36.3191C8.03684 37.0464 8.71865 38.11 10.3641 37.8009C12.3186 37.5009 13.3459 36.7919 13.5822 36.61C13.6459 36.6555 13.7095 36.701 13.7822 36.7555C17.2549 39.4646 22.9276 39.6827 25.0276 36.4737C25.8639 36.6464 26.9094 36.501 26.9094 36.501C28.0003 36.4282 28.873 36.1373 29.5548 35.6828C29.473 35.5464 29.3912 35.4101 29.3184 35.2646C28.4366 35.8555 27.1821 36.1737 25.4003 36.0282L25.2912 36.01C25.573 35.4464 25.7548 34.801 25.8185 34.0646C25.6912 34.0464 25.5548 34.0192 25.4094 34.001C25.4276 34.501 25.373 35.0282 25.1912 35.5464C25.0912 35.8282 24.9458 36.1191 24.7548 36.3919C24.3276 37.0282 23.7639 37.5009 23.1094 37.8464C20.4822 39.2191 16.4004 38.4191 14.0277 36.6464C12.6641 35.6282 11.8732 35.6646 10.5732 36.0555C9.13683 36.4919 9.19137 35.6555 9.19137 35.6555C7.9823 33.9373 6.87322 32.101 5.92777 28.6465C3.64598 19.5557 8.7641 13.1648 15.3095 11.0649C22.0731 9.91032 27.2912 13.7194 29.4639 17.3921C29.4003 17.4284 29.3457 17.4739 29.3003 17.5375C29.0821 17.8739 29.3548 18.4375 29.3821 18.4921C29.3821 18.4921 29.7821 19.6375 29.9002 19.992C29.9821 19.9739 30.0639 19.9648 30.1366 19.9466L29.5457 18.3102C29.3093 17.7557 29.573 17.5557 29.573 17.5557C29.5002 17.7648 29.5639 17.9921 29.6002 18.1193C29.673 18.3648 29.9366 19.0648 30.1457 19.6102C30.1912 19.7193 30.2275 19.8193 30.2548 19.9193C30.3184 19.9102 30.3821 19.892 30.4457 19.8829C30.2639 19.3375 30.0093 18.692 29.9366 18.4739C29.873 18.2921 29.8366 18.2284 29.7548 17.9375C29.6457 17.5466 29.8002 17.5375 29.9639 17.5284C30.0548 17.5284 30.3366 17.5284 30.4093 17.5284C30.5821 17.4375 30.9457 17.2557 31.1639 17.1466C28.5548 12.7103 23.3003 9.74669 16.4004 10.7558C21.8367 9.4376 28.0184 11.0012 31.7366 16.3012C31.9366 16.6284 32.1002 16.8103 32.4002 17.4012H32.2639C32.0548 17.1102 31.8457 17.0193 31.5911 17.0102C31.582 17.0102 31.0821 17.0102 31.1457 17.5102C31.1639 17.6648 31.2275 17.8557 31.273 17.9375L31.6457 18.7102L31.7457 18.9193L32.1002 19.6375C32.1002 19.6375 32.3639 20.1648 32.382 20.4466L33.3366 20.4648C33.3366 20.4648 33.3548 20.1739 33.1457 19.6466C33.0002 19.2739 32.5548 17.8921 32.4093 17.6193C32.4093 17.6193 32.4093 17.6193 32.4093 17.6102C32.4548 17.6102 32.6457 17.6102 32.7548 17.6375C32.9457 18.1193 33.2184 18.9375 33.4275 19.5829H33.5093C33.5638 19.5829 33.6184 19.592 33.6729 19.6011C33.6729 19.6011 33.6729 19.6011 33.6729 19.592C33.7548 19.592 34.082 19.6284 34.2002 19.6466L34.182 19.6557ZM7.62775 33.6737C8.2732 34.8646 8.84592 35.6191 9.01865 35.801C9.01865 35.8282 9.02774 35.8555 9.03683 35.8828C9.02774 36.0555 9.0641 36.5737 10.0641 36.3828C9.755 36.9737 8.61865 36.6464 8.83683 35.8646C8.6732 35.6555 8.2732 35.0101 8.2732 35.0101C8.25502 35.0101 8.29138 35.201 8.29138 35.1919C8.42775 35.4737 8.66411 35.9646 8.66411 35.9646C8.48229 37.11 10.1277 37.1919 10.2459 36.3555C10.3277 36.3373 10.3368 36.3555 10.3914 36.3191C10.3186 36.6646 10.155 36.8464 9.96409 36.9464C9.60955 37.1191 9.50955 37.4373 10.0459 37.4009C10.5914 37.3646 11.555 37.21 12.6913 36.6555L12.9277 36.5282C12.4459 36.2282 11.9368 36.1737 11.5913 36.1464C11.3186 36.1282 10.8823 36.201 10.5732 36.2646C10.5914 36.2646 10.6095 36.2555 10.6277 36.2464C11.9368 35.8101 12.7368 36.0828 13.3913 36.501C13.355 36.5282 13.3004 36.5646 13.255 36.5919C12.6732 37.01 11.3186 37.51 10.1186 37.6282C8.89138 37.8282 8.20957 36.9646 8.44593 36.31L8.38229 36.1464C8.31866 35.9828 7.53685 34.3919 7.61866 33.6919L7.62775 33.6737ZM32.5457 18.8375C32.6366 19.2193 32.3548 19.4193 32.082 19.1102C31.973 18.983 31.9184 18.8557 31.8639 18.7011V18.6739C31.8093 18.4739 31.8275 18.3102 31.8275 18.3102C31.6548 18.1557 31.5911 18.0193 31.5275 17.9102C31.3639 17.4284 31.5275 17.3193 31.6002 17.3012C31.8639 17.2375 32.2366 17.6284 32.2093 18.2193C32.3548 18.3648 32.4639 18.5011 32.5366 18.8375H32.5457Z" fill="#311D00"/>
<path d="M32.5457 18.8375C32.473 18.5011 32.3639 18.3648 32.2184 18.2193C32.2457 17.6284 31.873 17.2375 31.6093 17.3011C31.5366 17.3284 31.373 17.4375 31.5366 17.9102C31.5911 18.0193 31.6639 18.1557 31.8366 18.3102C31.8366 18.3102 31.8184 18.4739 31.8639 18.6739V18.7011C31.9184 18.8557 31.973 18.9739 32.0911 19.1102C32.3639 19.4284 32.6366 19.2193 32.5548 18.8375H32.5457ZM31.8911 18.1739C31.7548 18.083 31.5366 17.783 31.573 17.5284C31.9002 17.5284 31.9911 18.0102 31.8911 18.1739ZM32.2275 19.0648C32.0639 18.9011 31.982 18.7193 31.9639 18.4648C32.2275 18.5193 32.382 18.8375 32.2275 19.0648Z" fill="white"/>
</svg>
