<svg width="48" height="48" viewBox="0 0 48 48" fill="none" xmlns="http://www.w3.org/2000/svg">
<path d="M33.5085 12.2183C42.072 18.7364 35.5539 19.7091 28.8723 20.6545C28.8723 20.6545 26.0541 19.8727 21.1633 17.4455C10.0817 11.9456 13.5726 9.35474 22.2815 7.78204C8.33631 1.70943 -3.28164 12.2819 9.53628 22.5727L6.01817 25.0908C8.90902 26.8635 14.8998 30.5816 14.0271 36.2724L11.0544 38.3996L20.127 42.5086L27.2905 39.2632C27.345 36.1087 32.9722 34.4724 35.3994 28.0635C48.7446 24.9999 45.3447 13.2637 33.5085 12.2274V12.2183Z" fill="white"/>
<path d="M27.4177 21.2635C10.6634 14.7909 9.55437 9.48189 20.0087 7.65466C6.93624 4.10018 -0.690876 13.5727 12.2452 22.6089L8.77257 25.0907C12.4543 27.5543 16.3633 31.1996 15.0361 36.9359L13.2907 38.1813L20.0087 41.2267C26.2631 34.3814 29.5267 27.727 27.4086 21.2544L27.4177 21.2635ZM23.1996 31.6814L20.6269 28.7542L17.6724 29.1906L19.036 26.9452L16.4633 24.018L19.8814 25.5543L21.245 23.3089L21.9905 26.5088L25.4086 28.0452L22.4541 28.4906L23.1996 31.6905V31.6814Z" fill="#00143F"/>
<path d="M35.9176 13.2364C41.6629 17.7363 37.6721 20.609 30.6631 21.3908C32.4358 28.8633 26.9995 35.7087 21.2451 41.0086L26.5177 38.6177C26.9086 35.5814 32.2631 33.9996 34.7994 27.2634C46.7173 24.6089 44.7719 16.0545 35.9085 13.2364H35.9176Z" fill="#C41230"/>
</svg>
