<svg width="48" height="48" viewBox="0 0 48 48" fill="none" xmlns="http://www.w3.org/2000/svg">
<path d="M10.5378 23.7114C10.7709 23.7114 10.9574 23.5249 10.9574 23.2918C10.9574 23.0587 10.7709 22.8722 10.5378 22.8722C10.3047 22.8722 10.1182 23.0587 10.1182 23.2918C10.1182 23.5249 10.3047 23.7114 10.5378 23.7114Z" fill="white"/>
<path d="M32.7961 11.5681C32.563 11.5681 32.3765 11.7546 32.3765 11.9877C32.3765 12.2208 32.563 12.4073 32.7961 12.4073C33.0292 12.4073 33.2157 12.2208 33.2157 11.9877C33.2157 11.7546 33.0292 11.5681 32.7961 11.5681Z" fill="white"/>
<path d="M15.4167 12.3995C15.6498 12.3995 15.8363 12.213 15.8363 11.9799C15.8363 11.7468 15.6498 11.5603 15.4167 11.5603C15.1836 11.5603 14.9971 11.7468 14.9971 11.9799C14.9971 12.213 15.1836 12.3995 15.4167 12.3995Z" fill="white"/>
<path d="M37.6681 23.7114C37.9012 23.7114 38.0877 23.5249 38.0877 23.2918C38.0877 23.0587 37.9012 22.8722 37.6681 22.8722C37.435 22.8722 37.2485 23.0587 37.2485 23.2918C37.2485 23.5249 37.435 23.7114 37.6681 23.7114Z" fill="white"/>
<path d="M41.0471 22.8023C40.7441 20.355 40.1925 19.1353 39.7885 17.9388C39.4777 17.092 38.4833 15.0487 37.8928 14.1086C37.3878 13.3783 36.4711 12.0265 36.0981 11.5448C35.9971 11.3971 36.1292 11.4671 36.1836 11.4671C36.3234 11.4981 36.3934 11.5059 36.4944 11.4981C36.5721 11.4981 36.7352 11.4748 36.8207 11.4438C37.3179 11.335 38.0249 10.7912 37.9317 9.83554C37.9472 9.62577 37.7219 7.80001 37.5432 7.24063C37.3101 6.44817 36.8362 6.07525 35.9894 6.00533C35.5621 6.00533 33.7829 5.96648 32.9672 6.09856C31.3434 6.26171 30.1547 6.73563 29.4477 8.16516C28.8806 9.416 29.0748 11.3816 29.8517 12.8811C30.1159 13.3938 30.6442 14.3494 31.1103 14.9632C31.5376 15.5847 31.7085 15.9033 32.0815 16.587C32.4544 17.3095 33.6897 20.0132 34.117 21.7846C34.925 25.0865 34.4666 26.9821 32.9128 29.5615C31.7629 31.2785 30.4189 32.5138 29.3778 33.081C27.6608 34.1609 25.3223 34.4561 24.1025 34.4561C22.8827 34.4561 20.5442 34.1531 18.8272 33.081C17.7861 32.5138 16.4421 31.2785 15.2922 29.5615C13.7384 26.9821 13.2878 25.0865 14.088 21.7846C14.5153 20.021 15.7506 17.3095 16.1235 16.587C16.4965 15.8955 16.6752 15.577 17.0947 14.9632C17.5531 14.3417 18.0814 13.3938 18.3533 12.8811C19.1302 11.3816 19.3244 9.416 18.7573 8.16516C18.0503 6.73563 16.8616 6.26171 15.2379 6.09856C14.4221 5.97425 12.6429 6.00533 12.2156 6.00533C11.3688 6.07525 10.8871 6.44817 10.6618 7.24063C10.4831 7.80778 10.2578 9.62577 10.2733 9.83554C10.1879 10.7912 10.8949 11.335 11.3843 11.4438C11.4698 11.4671 11.6329 11.4981 11.7106 11.4981C11.8194 11.5059 11.8893 11.4981 12.0214 11.4671C12.0758 11.4671 12.2079 11.3971 12.1069 11.5448C11.7339 12.0187 10.8094 13.3705 10.3122 14.1086C9.72173 15.0487 8.7195 17.0842 8.40873 17.9388C8.0125 19.1353 7.45312 20.355 7.15012 22.8023C6.88597 24.496 7.02582 26.3917 7.15012 27.1764C7.17343 27.3706 7.20451 27.5881 7.25112 27.829C7.25112 27.829 7.25112 27.8445 7.25112 27.8523C7.31328 28.2252 7.39874 28.6525 7.52305 29.1264C8.72727 33.889 11.9359 37.8512 16.1935 40.0732C16.3566 40.1665 16.5275 40.2597 16.6907 40.3529C17.9571 41.0211 20.5908 42 24.0248 42C24.0403 42 24.0559 42 24.0714 42C24.0714 42 24.0792 42 24.087 42C24.3123 42 24.5376 42 24.7629 41.9845C24.8717 41.9845 24.9804 41.9767 25.0814 41.9689C25.229 41.9612 25.3844 41.9534 25.5243 41.9378C25.5864 41.9378 25.6486 41.9301 25.703 41.9223C28.3756 41.6815 30.4111 40.9201 31.4755 40.3529C31.8251 40.1665 32.1669 39.9722 32.501 39.7702C36.4866 37.5094 39.4777 33.6947 40.6431 29.1498C40.7674 28.6681 40.8607 28.233 40.9228 27.8445C40.9228 27.8445 40.9228 27.8368 40.9228 27.829C40.9617 27.5881 40.9927 27.3706 41.0238 27.1764C41.1403 26.3917 41.2802 24.496 41.0238 22.8023H41.0471ZM24.087 41.1765C16.1002 41.1765 9.48865 35.4195 8.12127 27.8212C7.81827 26.2052 7.73281 24.2396 8.13681 21.8623C9.30219 16.4005 11.6485 13.6424 12.9926 11.7545C13.6296 10.8378 12.977 10.3017 12.4643 10.4959C12.0369 10.6591 11.7417 10.6668 11.7417 10.6668C10.9803 10.5658 11.0891 10.0686 11.2289 8.77893L11.4076 7.72232C11.563 6.78225 11.9903 6.80556 13.1013 6.82109C14.8727 6.85994 15.1835 6.86771 16.1391 7.0464C17.4132 7.32609 19.0758 8.60024 17.7628 12.1041C16.9471 13.9765 16.1002 14.6136 15.1835 16.5559C14.1968 18.708 11.7883 23.5559 13.4199 27.6891C15.6496 33.2363 19.9615 35.2175 24.0637 35.2874C28.1658 35.233 32.8972 32.809 34.7929 27.6891C36.4167 23.5559 34.016 18.708 33.0215 16.5559C32.1048 14.6136 31.2579 13.9765 30.4422 12.1041C29.1369 8.60801 30.7995 7.33386 32.0659 7.0464C33.0215 6.86771 33.3401 6.85217 35.1037 6.82109C36.2147 6.79779 36.642 6.78225 36.7974 7.72232L36.9761 8.77893C37.1159 10.0686 37.2247 10.5658 36.4633 10.6668C36.4633 10.6668 36.1681 10.6591 35.7408 10.4959C35.228 10.3017 34.5754 10.83 35.2124 11.7545C36.5565 13.6424 38.9028 16.4005 40.0682 21.8623C40.4722 24.2396 40.3867 26.2052 40.0837 27.8212C38.7086 35.4117 32.0659 41.1765 24.0714 41.1765H24.087Z" fill="white"/>
<path d="M40.0837 27.829C40.3867 26.213 40.4722 24.2474 40.0682 21.8701C38.9028 16.4083 36.5565 13.6503 35.2125 11.7623C34.5754 10.8456 35.228 10.3095 35.7408 10.5037C36.1681 10.6669 36.4633 10.6747 36.4633 10.6747C37.2247 10.5737 37.1159 10.0764 36.9761 8.78675L36.7974 7.73014C36.642 6.79006 36.2147 6.81337 35.1037 6.82891C33.3323 6.86776 33.0138 6.87552 32.0659 7.05422C30.7918 7.33391 29.1292 8.60805 30.4422 12.112C31.2579 13.9843 32.1048 14.6214 33.0215 16.5637C34.0082 18.7158 36.4167 23.5637 34.7929 27.697C32.8972 32.8246 28.158 35.2408 24.0637 35.2952C19.9615 35.2253 15.6496 33.2442 13.4199 27.697C11.7961 23.5637 14.1968 18.7158 15.1835 16.5637C16.1002 14.6214 16.9471 13.9843 17.7628 12.112C19.0681 8.61582 17.4055 7.34168 16.1391 7.05422C15.1835 6.87552 14.8649 6.85999 13.1013 6.82891C11.9903 6.8056 11.563 6.79006 11.4076 7.73014L11.229 8.78675C11.0891 10.0764 10.9803 10.5737 11.7417 10.6747C11.7417 10.6747 12.037 10.6669 12.4643 10.5037C12.977 10.3095 13.6296 10.8378 12.9926 11.7623C11.6485 13.6503 9.3022 16.4083 8.13682 21.8701C7.73282 24.2474 7.81828 26.213 8.12128 27.829C9.49643 35.4195 16.1002 41.1843 24.087 41.1843C32.0737 41.1843 38.7241 35.4273 40.0993 27.829H40.0837ZM32.7885 12.3994C32.5554 12.3994 32.3689 12.213 32.3689 11.9799C32.3689 11.7468 32.5554 11.5603 32.7885 11.5603C33.0215 11.5603 33.208 11.7468 33.208 11.9799C33.208 12.213 33.0215 12.3994 32.7885 12.3994ZM15.4088 11.5681C15.6419 11.5681 15.8283 11.7546 15.8283 11.9877C15.8283 12.2207 15.6419 12.4072 15.4088 12.4072C15.1757 12.4072 14.9892 12.2207 14.9892 11.9877C14.9892 11.7546 15.1757 11.5681 15.4088 11.5681ZM37.6675 22.8801C37.9006 22.8801 38.0871 23.0665 38.0871 23.2996C38.0871 23.5327 37.9006 23.7191 37.6675 23.7191C37.4344 23.7191 37.248 23.5327 37.248 23.2996C37.248 23.0665 37.4344 22.8801 37.6675 22.8801ZM35.1969 33.3296C34.9638 33.3296 34.7774 33.1432 34.7774 32.9101C34.7774 32.677 34.9638 32.4906 35.1969 32.4906C35.43 32.4906 35.6165 32.677 35.6165 32.9101C35.6165 33.1432 35.43 33.3296 35.1969 33.3296ZM13.0081 32.4983C13.2412 32.4983 13.4276 32.6848 13.4276 32.9179C13.4276 33.1509 13.2412 33.3374 13.0081 33.3374C12.775 33.3374 12.5886 33.1509 12.5886 32.9179C12.5886 32.6848 12.775 32.4983 13.0081 32.4983V32.4983ZM10.5375 22.8801C10.7706 22.8801 10.957 23.0665 10.957 23.2996C10.957 23.5327 10.7706 23.7191 10.5375 23.7191C10.3044 23.7191 10.118 23.5327 10.118 23.2996C10.118 23.0665 10.3044 22.8801 10.5375 22.8801ZM24.087 38.5971C23.8539 38.5971 23.6674 38.4107 23.6674 38.1776C23.6674 37.9445 23.8539 37.7581 24.087 37.7581C24.32 37.7581 24.5065 37.9445 24.5065 38.1776C24.5065 38.4107 24.32 38.5971 24.087 38.5971Z" fill="#013369"/>
<path d="M13.008 33.322C13.2411 33.322 13.4276 33.1355 13.4276 32.9024C13.4276 32.6693 13.2411 32.4828 13.008 32.4828C12.7749 32.4828 12.5884 32.6693 12.5884 32.9024C12.5884 33.1355 12.7749 33.322 13.008 33.322Z" fill="white"/>
<path d="M24.0871 37.7579C23.854 37.7579 23.6675 37.9444 23.6675 38.1775C23.6675 38.4106 23.854 38.5971 24.0871 38.5971C24.3202 38.5971 24.5067 38.4106 24.5067 38.1775C24.5067 37.9444 24.3202 37.7579 24.0871 37.7579Z" fill="white"/>
<path d="M35.1969 32.4905C34.9638 32.4905 34.7773 32.677 34.7773 32.9101C34.7773 33.1432 34.9638 33.3297 35.1969 33.3297C35.4301 33.3297 35.6165 33.1432 35.6165 32.9101C35.6165 32.677 35.4301 32.4905 35.1969 32.4905Z" fill="white"/>
</svg>
