<svg width="48" height="48" viewBox="0 0 48 48" fill="none" xmlns="http://www.w3.org/2000/svg">
<path d="M45.91 33.7C43.47 30.41 39.21 26.4 34.14 24.15L35.18 26.54C30.87 24.37 26.07 22.81 20.64 22.83L21.8 24.08C11.75 24.48 5.86 29.46 2 33.7C2.09 27.95 6.21 22.76 11.64 19.59L10.52 18.55C14.56 15.76 20.22 14.97 25 15.53L24.32 14.3C40.16 15.48 46.87 27.3 45.91 33.7Z" fill="white"/>
<path d="M20.5601 23.6001L19.3401 22.2801C23.9501 22.1301 28.6101 22.8201 34.0401 25.3701L33.0401 23.0701C37.1201 24.6501 41.6501 27.6001 45.4401 32.1801C45.1101 25.2401 38.1001 16.2601 25.3601 14.9701L26.0701 16.2501C20.9201 15.3801 15.1401 16.2901 11.4501 18.6301L12.6001 19.7001C7.06014 22.6801 3.42014 27.4101 2.64014 32.1801C7.21014 27.4001 13.1601 24.1001 20.5501 23.5901L20.5601 23.6001Z" fill="#0080C6"/>
<path d="M43.4499 28.4601C41.2899 22.6501 34.7999 17.6401 27.5099 16.4401L28.3699 17.9701C23.9799 16.6101 17.5999 16.6901 13.4099 18.8801L14.6099 20.0001C10.7699 21.6501 6.70986 25.1701 5.10986 28.4201C7.73986 26.0501 13.4699 23.3001 18.1699 22.7101L16.9999 21.4501C21.5199 20.5501 27.5299 21.4501 31.8199 23.1801L30.9899 21.2601C34.1499 21.9101 40.0199 24.7301 43.4499 28.4701V28.4601Z" fill="#FFC20E"/>
</svg>
