<svg width="48" height="48" viewBox="0 0 48 48" fill="none" xmlns="http://www.w3.org/2000/svg">
<path d="M24.115 37.0941C31.6133 37.0941 39.0016 34.5546 42.9407 30.6155C44.9402 28.616 46 26.3065 46 23.9371C46 21.5676 44.9602 19.2981 42.9907 17.3286C39.0716 13.4195 31.6633 10.9 24.115 10.9C18.8262 10.9 13.4274 12.1497 9.30834 14.3192C4.58941 16.7987 2 20.2179 2 23.9371C2 26.2765 3.04976 28.556 5.02931 30.5356C7.00886 32.5151 9.87821 34.1747 13.3474 35.3445C16.7267 36.4842 20.4458 37.0941 24.115 37.0941V37.0941Z" fill="white"/>
<path d="M9.62862 14.9392C5.15964 17.2887 2.7002 20.488 2.7002 23.9372C2.7002 26.0867 3.67997 28.1962 5.51955 30.0358C7.41912 31.9354 10.1985 33.545 13.5577 34.6847C16.867 35.8045 20.5161 36.3943 24.1053 36.3943C31.4237 36.3943 38.622 33.9349 42.4312 30.1158C44.2907 28.2562 45.2805 26.1167 45.2805 23.9372C45.2805 21.7577 44.3107 19.6581 42.4712 17.8186C38.702 14.0394 31.4937 11.6 24.1153 11.6C18.9365 11.6 13.6577 12.8197 9.62862 14.9392V14.9392Z" fill="black"/>
<path d="M24.095 35.1445C30.5636 35.1445 36.6822 33.035 40.0814 29.6357C41.791 27.9261 42.7008 25.9666 42.7008 23.977C42.7008 21.9875 41.791 20.0379 40.0814 18.3183C36.6822 14.9191 30.5636 12.8096 24.095 12.8096C19.3461 12.8096 14.6272 13.9793 11.128 16.0288C7.4888 18.1584 5.48926 20.9777 5.48926 23.977C5.48926 25.9666 6.39905 27.9161 8.10866 29.6357C11.5079 33.035 17.6265 35.1445 24.095 35.1445Z" fill="#AF925D"/>
<path d="M24.1351 34.7545C33.613 34.7545 41.2912 29.8456 41.2912 23.9269C41.2912 18.0083 33.603 13.2194 24.1351 13.2194C14.6673 13.2194 6.979 18.0183 6.979 23.9269C6.979 29.8356 14.6573 34.7545 24.1351 34.7545Z" fill="#AA0000"/>
<path d="M37.5519 22.5873H37.5019V22.1974H30.6934C30.5434 21.4276 30.1035 20.7178 29.4737 20.1679C28.8538 19.4581 27.954 18.9182 26.9343 18.7182L26.5144 18.6282C25.5346 18.4183 24.7548 18.2583 21.6355 18.2783C21.6355 18.2783 21.0356 18.2583 20.4557 18.1783C20.3058 18.1384 20.1758 18.0984 20.0658 18.0484C20.1058 17.7884 20.5857 17.4285 21.1156 17.3585C21.1756 17.3485 24.5448 16.7287 28.024 18.9782L28.114 19.0382H30.4035V15.5389H30.0136V15.149H26.8743C26.8743 15.149 26.5044 15.429 26.3444 15.5489C25.4446 15.319 21.0156 14.3592 17.1965 16.0288C15.5868 16.6887 14.5971 17.9484 14.6671 19.2181C14.707 19.858 15.007 20.4178 15.5369 20.8477C15.9268 21.3376 16.5366 21.7175 17.3364 21.9475C18.4662 22.2774 19.426 22.4074 20.3558 22.4574V24.047H20.7457V24.4369H21.9354C22.4253 24.4369 22.5553 24.7069 22.5853 24.8168C21.0656 24.7169 18.7461 24.287 17.0465 22.7073L16.9865 22.6373H16.9765C16.8866 22.5474 16.7866 22.4574 16.6966 22.3574L16.5966 22.2474H14.877V27.2263H15.2669V27.6162H16.6666C16.8766 27.6262 17.5164 27.5562 17.9663 26.2465C18.6961 26.4965 20.4857 27.0363 22.6952 27.0963V30.1956C22.6153 31.2354 20.3258 31.5653 19.526 31.5953H19.196V33.1449H19.5859V33.5349H29.6437V32.0652L29.3837 31.9952C29.3837 31.9952 29.2937 31.9752 29.2537 31.9552V31.6153L28.9438 31.5853C28.3739 31.5353 27.944 31.4353 27.6041 31.3154C26.9743 30.9654 26.8643 30.6755 26.8543 30.6255V28.9759H29.8036C30.1135 29.0259 30.3835 29.1559 30.6034 29.3358C31.0233 29.8557 31.2233 30.4556 31.2233 30.4656L31.3033 30.7055H31.5532C31.5932 30.7955 31.6032 30.8455 31.6032 30.8555L31.6832 31.0954H31.9331H33.2628V25.1068H32.8729V24.7169H31.2933L31.2333 24.9868C30.8234 26.9764 28.5139 26.9464 26.4744 26.6464C26.8743 26.5365 27.2742 26.4065 27.6841 26.2465C28.7838 25.8066 29.6037 25.2168 30.1135 24.5269H34.5325C34.8425 24.5369 35.1024 24.6169 35.3224 24.7569C35.7823 25.4367 35.7423 26.4365 35.7423 26.4465L35.7223 26.8064H36.1322V26.8364L36.1122 27.1963H36.4721H37.8718V22.5574H37.5319L37.5519 22.5873Z" fill="black"/>
<path d="M30.5037 23.8071H34.1628C36.2523 23.877 36.1024 26.4865 36.1024 26.4865H37.1521V22.5374H30.8336C30.8336 22.5374 30.8236 23.4172 30.4937 23.8071H30.5037Z" fill="white"/>
<path d="M23.0554 27.1863V30.2156C22.9454 31.8053 19.5562 31.9352 19.5562 31.9352V32.805H28.924V31.9352C26.1347 31.6953 26.1247 30.2756 26.1247 30.2756V28.2461H29.4539C30.9736 28.466 31.5634 30.3756 31.5634 30.3756H32.5532V25.0768H31.6034C30.9436 28.2761 26.0447 26.8364 25.6848 26.9164C25.6848 26.9164 24.475 27.2163 23.0554 27.1863V27.1863Z" fill="white"/>
<path d="M25.9746 21.9675C27.2443 22.3374 27.3643 23.3072 26.6244 24.217C25.6747 25.1168 24.215 25.1567 24.215 25.1567C24.215 25.1567 19.3161 25.6866 16.4568 22.5873H15.237V26.8764H16.3068C16.3068 26.8764 16.9566 26.9763 17.3765 25.4067C17.3765 25.4067 22.4054 27.4562 27.1943 25.5567C31.8333 23.7171 30.0637 19.678 26.8744 19.0481C25.6447 18.8082 25.1548 18.5982 21.6356 18.6182C21.6356 18.6182 20.9957 18.5982 20.3759 18.5183C18.4363 18.0284 19.5361 16.7787 20.6758 16.6287C20.6758 16.6287 24.175 15.9388 27.8142 18.2983H29.6538V15.4889H26.9744L26.4045 15.9288C26.4045 15.9288 21.4456 14.5392 17.3166 16.3487C14.5472 17.4985 14.0073 20.3578 17.0266 21.2276C19.696 21.9975 21.3856 21.6775 24.085 21.7775C24.8349 21.8075 25.4947 21.8375 25.9446 21.9775L25.9746 21.9675Z" fill="white"/>
<path d="M21.9753 23.7071H20.7056V22.5674C21.6953 22.5674 23.7049 22.5674 25.1246 22.5674C26.5542 22.5674 26.7442 23.3972 26.1443 23.9571C25.5745 24.4869 24.3847 24.8569 22.9751 24.6069C22.9751 24.6069 22.8551 23.7171 21.9753 23.7171V23.7071Z" fill="white"/>
</svg>
