<svg width="48" height="48" viewBox="0 0 48 48" fill="none" xmlns="http://www.w3.org/2000/svg">
<path d="M40.6576 13.5624C37.196 10.1108 32.5939 8.19995 27.6917 8.19995C24.2601 8.19995 20.9086 9.16039 17.9973 10.9712C16.0464 12.2518 14.2956 13.9726 12.905 15.9435C12.905 15.9435 12.905 15.9535 12.895 15.9635H9.11323L2 32.0808H11.2442C12.5648 34.5519 14.6157 36.6429 17.0769 37.9935C19.2178 39.174 21.6489 39.7943 24.1 39.7943C26.9413 39.7943 29.6926 38.9739 32.0537 37.4232C32.5839 37.0731 32.814 36.4428 32.6339 35.8325C32.4538 35.2222 31.9136 34.8221 31.2933 34.8221C31.1533 34.8221 31.0132 34.8421 30.8731 34.8821C29.9527 35.1622 29.0023 35.3023 28.0318 35.3023C25.2206 35.3023 22.5794 34.1017 20.7785 32.0708H29.4025L30.8831 30.0099H36.6357C36.6357 30.0099 36.4557 30.4601 36.3656 30.6702L35.7453 32.0708H45.1596L45.3597 31.3305C45.7899 29.7598 46 28.139 46 26.5083C46 21.616 44.0891 17.014 40.6376 13.5524L40.6576 13.5624ZM44.4193 31.0804H37.296C37.5862 30.4201 37.8363 29.7297 38.0264 29.0194H30.3829L28.9122 31.0804H22.0591L32.3038 16.7338C31.0132 16.1936 29.5725 15.9135 28.0518 15.9135C27.8618 15.9135 27.6817 15.9135 27.5016 15.9235C21.9391 16.2036 17.507 20.6656 17.507 26.1081C17.507 26.4683 17.5271 26.8184 17.5671 27.1686H23.6198L21.819 29.6997C21.2487 30.4601 20.4984 31.0804 19.3479 31.0804H18.8577C20.6685 34.1918 24.11 36.3027 28.0618 36.3027C29.1523 36.3027 30.2028 36.1427 31.1933 35.8425C31.2333 35.8325 31.2833 35.8225 31.3233 35.8225C31.7035 35.8225 31.8936 36.3527 31.5334 36.5929C29.4025 37.9835 26.8613 38.7939 24.1201 38.7939C21.749 38.7939 19.518 38.1836 17.5771 37.1131C15.106 35.7525 13.095 33.6315 11.8745 31.0703H3.5307L9.77353 16.9639H13.3752C15.8063 13.8325 19.568 11.7716 23.7999 11.6815C23.9 11.6815 24 11.6815 24.09 11.6815C29.8627 11.6815 34.6949 15.1331 36.6558 20.2154L33.1041 25.1877H38.5066C38.4766 17.214 31.9936 10.7511 24.01 10.7511C22.0691 10.7511 20.2083 11.1313 18.5175 11.8316C21.1787 10.1708 24.3101 9.21041 27.6817 9.21041C37.246 9.21041 45.0096 16.9639 45.0096 26.5383C45.0096 28.119 44.7995 29.6397 44.3993 31.0904L44.4193 31.0804ZM24.3402 26.1681H18.5075C18.5075 26.1681 18.5075 26.1281 18.5075 26.1081C18.5075 21.2159 22.4793 17.174 27.5516 16.9239C27.7217 16.9239 27.8918 16.9139 28.0518 16.9139C28.9723 16.9139 29.8627 17.034 30.7131 17.2541L24.3502 26.1681H24.3402ZM36.9959 21.496C37.246 22.3564 37.4161 23.2568 37.4861 24.1872H35.075L36.9959 21.496V21.496Z" fill="#003594"/>
<path d="M18.5373 11.8216C20.2281 11.1313 22.089 10.7411 24.0298 10.7411C32.0335 10.7411 38.5264 17.2341 38.5264 25.2377C38.5264 27.3187 38.0862 29.2896 37.2959 31.0804H44.4191C44.8193 29.6297 45.0294 28.099 45.0294 26.5283C45.0194 16.954 37.2659 9.20044 27.6915 9.20044C24.33 9.20044 21.1886 10.1609 18.5273 11.8216" fill="url(#paint0_linear_2282_27447)"/>
<path d="M32.2939 16.7339L29.9429 20.0354C30.0629 20.0354 30.173 20.0354 30.293 20.0354C32.2539 20.0354 34.0247 20.8458 35.2953 22.1463L36.6659 20.2255C35.5654 18.6748 34.0647 17.4742 32.2939 16.7439V16.7339Z" fill="#D7D2CB"/>
<path d="M38.0266 29.0195C38.3467 27.8189 38.5268 26.5484 38.5268 25.2478C38.5268 25.2278 38.5268 25.2078 38.5268 25.1877H37.0461C37.2062 25.768 37.2862 26.3883 37.2862 27.0186C37.2862 27.7189 37.1862 28.3892 36.9961 29.0195H38.0266V29.0195Z" fill="#D7D2CB"/>
<path d="M37.0359 25.1777H33.1141L35.2851 22.1263C34.0145 20.8257 32.2437 20.0154 30.2828 20.0154C30.1628 20.0154 30.0527 20.0154 29.9327 20.0154L22.0391 31.0704H28.8922L30.3628 29.0095H36.9759C37.1659 28.3792 37.266 27.6989 37.266 27.0086C37.266 26.3783 37.1759 25.758 37.0259 25.1777H37.0359Z" fill="white"/>
<path d="M31.5033 36.5929C29.3723 37.9835 26.8312 38.7939 24.0899 38.7939C21.7188 38.7939 19.4878 38.1836 17.5469 37.1131C16.4765 35.7625 15.6661 34.2018 15.1959 32.501C16.7166 32.431 18.9076 32.561 20.5283 33.2613C22.4392 35.1422 25.1004 36.3027 28.0317 36.3027C29.1222 36.3027 30.1727 36.1426 31.1631 35.8425C31.2032 35.8325 31.2532 35.8225 31.2932 35.8225C31.6734 35.8225 31.8635 36.3527 31.5033 36.5929ZM17.5469 27.1586C17.5069 26.8084 17.4869 26.4582 17.4869 26.0981C17.4869 20.6556 21.9189 16.1936 27.4815 15.9135C21.0385 16.1736 15.7661 20.9758 14.8657 27.1586H17.5569H17.5469Z" fill="#FFD100"/>
<path d="M18.8378 31.0804H14.896C14.976 31.5607 15.0761 32.0409 15.2061 32.5111C16.7268 32.4411 18.9178 32.5711 20.5386 33.2714C19.8783 32.6211 19.308 31.8908 18.8378 31.0904V31.0804Z" fill="#FFA300"/>
<path d="M11.8542 31.0804C12.3445 32.1109 12.9748 33.0713 13.6951 33.9417C14.0753 33.3615 14.5955 32.8512 15.1958 32.5011C15.0657 32.0309 14.9657 31.5607 14.8856 31.0704H11.8442L11.8542 31.0804Z" fill="#FF8200"/>
<path d="M32.2942 16.7338C31.0036 16.1936 29.5629 15.9134 28.0422 15.9134C27.8522 15.9134 27.6721 15.9134 27.492 15.9234C21.0491 16.1836 15.7767 20.9857 14.8763 27.1686H11.2046L15.7266 16.9639H13.3856C15.8167 13.8325 19.5784 11.7716 23.8103 11.6815C23.9104 11.6815 24.0104 11.6815 24.1005 11.6815C29.8731 11.6815 34.7053 15.1331 36.6662 20.2154C35.5657 18.6647 34.065 17.4641 32.2942 16.7338V16.7338ZM15.2064 32.511C14.5961 32.8611 14.0859 33.3714 13.7057 33.9516C14.7762 35.2322 16.0868 36.3127 17.5575 37.1231C16.487 35.7725 15.6766 34.2118 15.2064 32.511V32.511Z" fill="url(#paint1_linear_2282_27447)"/>
<path d="M15.7158 16.964L11.1938 27.1686H23.5994L21.7986 29.6998C21.2283 30.4601 20.478 31.0804 19.3275 31.0804H3.53027L9.77311 16.964H15.7158Z" fill="white"/>
<defs>
<linearGradient id="paint0_linear_2282_27447" x1="31.7734" y1="9.20044" x2="31.7734" y2="31.0804" gradientUnits="userSpaceOnUse">
<stop offset="0.22" stop-color="#FFD100"/>
<stop offset="0.3" stop-color="#FFD723"/>
<stop offset="0.47" stop-color="#FFE77F"/>
<stop offset="0.71" stop-color="white"/>
</linearGradient>
<linearGradient id="paint1_linear_2282_27447" x1="11.1946" y1="24.3973" x2="36.6662" y2="24.3973" gradientUnits="userSpaceOnUse">
<stop stop-color="#FFA300"/>
<stop offset="0.13" stop-color="#FFA700"/>
<stop offset="0.29" stop-color="#FFB500"/>
<stop offset="0.45" stop-color="#FFCC00"/>
<stop offset="0.48" stop-color="#FFD100"/>
</linearGradient>
</defs>
</svg>
