<svg width="48" height="48" viewBox="0 0 48 48" fill="none" xmlns="http://www.w3.org/2000/svg">
<path d="M32.05 12L33.45 16.31L32.41 19.52L29.96 12H19.01L17.05 18.02L15.09 12H2L6.11 18.68L11.74 35.99H22.34L24.47 29.45L26.59 35.99H38.18L46 12H32.05ZM7.58 18L4.87 13.6H13.93L16.21 20.61L12.32 32.56L7.58 18ZM21.18 34.41H13.4L19.75 14.89L23.64 26.85L21.18 34.4V34.41ZM21.02 13.6H28.81L31.57 22.11L27.67 34.08L21.01 13.6H21.02ZM37.03 34.41H29.25L35.14 16.33L34.26 13.61H43.81L37.04 34.42L37.03 34.41Z" fill="#BCBEC0"/>
<path d="M31.5601 22.11L27.6601 34.08L21.0101 13.6H28.8001L31.5601 22.11V22.11ZM34.2401 13.6L35.1201 16.32L29.2301 34.4H37.0101L43.8001 13.6H34.2501H34.2401ZM13.9301 13.6H4.87012L7.58012 18L12.3201 32.56L16.2101 20.61L13.9301 13.6ZM13.4001 34.41H21.1801L23.6401 26.86L19.7501 14.9L13.4001 34.41Z" fill="#414042"/>
</svg>
