<svg width="48" height="48" viewBox="0 0 48 48" fill="none" xmlns="http://www.w3.org/2000/svg">
<path d="M43.9246 35.482C40.9528 34.8549 35.0454 35.4638 31.6737 42.589C31.6737 42.589 25.9117 35.7183 17.9141 34.5095C18.2322 30.6834 13.1609 29.6655 12.1885 23.0856C12.1885 23.0856 8.2533 19.8593 6.28115 14.788L7.3263 15.1243C7.3263 15.1243 5.79947 13.4339 4.618 10.5075L5.72677 10.871C5.72677 10.871 4.60891 9.35327 4 5C17.5778 14.3427 24.7394 11.08 33.0006 15.7514C38.608 18.9232 39.944 22.613 40.4166 26.2937C40.4166 26.2937 44.5699 30.0563 43.9337 35.482H43.9246Z" fill="white"/>
<path d="M43.3522 34.6913C43.4431 30.0744 39.8169 26.7936 39.8169 26.7936C39.4261 23.8763 38.3627 19.6502 32.7099 16.533C24.1215 11.798 19.3774 15.6696 5.83594 7.37201C6.11767 8.9261 7.00832 11.0709 8.14435 12.3978L6.74476 11.9434C7.76264 14.0882 9.38944 16.0331 10.2437 16.6602L8.67147 16.1694C10.3346 20.25 13.5791 22.6584 13.5791 22.6584C14.3153 28.9021 18.8957 29.9654 19.2684 33.8006C25.2302 34.7276 31.5375 41.1166 31.5375 41.1166C34.8365 35.4456 39.4442 34.3368 43.3431 34.6913H43.3522Z" fill="black"/>
<path d="M35.7178 26.6482C34.4181 28.7385 32.2279 28.1568 31.4463 25.5485L33.0276 25.6485C31.6371 24.8215 30.383 23.5945 29.4105 22.3949C29.1288 28.1478 34.5363 30.7288 36.3267 26.6936C36.1267 26.6936 35.9177 26.6755 35.7178 26.6482Z" fill="white"/>
<path d="M31.9917 17.3055C25.7753 13.8974 18.1685 16.1058 8.45312 10.0894C9.41648 12.9613 15.4238 16.333 15.4238 16.333L10.1072 14.6063C11.4613 16.9601 17.0052 19.9047 17.0052 19.9047L12.043 18.3052C14.0969 21.7224 18.7592 24.0217 18.7592 24.0217L15.8964 23.8127C16.269 27.0208 20.7041 29.7836 20.9404 32.2647C22.9489 33.0281 25.5299 34.3641 27.5475 36.1C31.4009 34.2096 30.3376 27.8024 22.9943 18.7142C33.0913 19.3231 32.8187 26.8118 38.6079 25.7394C38.1808 23.7309 37.9081 20.5591 31.9917 17.3146V17.3055Z" fill="#870027"/>
<path d="M42.6251 33.4916C42.2979 31.1196 40.1713 28.3477 38.6354 27.3752C37.9174 28.8475 36.1634 29.7836 34.6274 30.2108C38.2355 30.647 41.2073 32.083 42.6251 33.4916Z" fill="#EEAD1E"/>
<path d="M35.7178 26.6482C34.4181 28.7385 32.2279 28.1568 31.4463 25.5485L33.0276 25.6485C31.6371 24.8215 30.383 23.5945 29.4105 22.3949C29.1288 28.1478 34.5363 30.7288 36.3267 26.6936C36.1267 26.6936 35.9177 26.6755 35.7178 26.6482Z" fill="white"/>
<path d="M34.9001 35.4547C37.2449 34.1369 40.2713 33.5007 42.4888 33.946C41.071 32.7464 37.5812 31.2832 34.4185 31.5922C34.4185 31.5922 35.5 33.428 34.9092 35.4547H34.9001Z" fill="#EEAD1E"/>
</svg>
