<svg width="48" height="48" viewBox="0 0 48 48" fill="none" xmlns="http://www.w3.org/2000/svg">
<path d="M43.9319 35.4875C40.9595 34.8603 35.0511 35.4693 31.6787 42.5958C31.6787 42.5958 25.9157 35.7238 17.9166 34.5149C18.2348 30.688 13.1626 29.67 12.19 23.0889C12.19 23.0889 8.25407 19.862 6.28156 14.7898L7.3269 15.1261C7.3269 15.1261 5.79071 13.4354 4.61811 10.5085L5.72708 10.8721C5.72708 10.8721 4.60902 9.35406 4 5C17.5803 14.3444 24.7431 11.0811 33.0058 15.7533C38.6143 18.9257 39.9505 22.6162 40.4232 26.2976C40.4232 26.2976 44.5773 30.0608 43.9319 35.4875Z" fill="white"/>
<path d="M43.3593 34.6967C43.4502 30.079 39.8143 26.7975 39.8143 26.7975C39.4234 23.8797 38.3599 19.6529 32.706 16.535C24.116 11.7992 19.3711 15.6715 5.82715 7.37244C6.10894 8.92681 6.99974 11.072 8.13598 12.3991L6.73614 11.9447C7.75421 14.0899 9.3813 16.0351 10.2357 16.6623L8.67228 16.1715C10.3357 20.2528 13.5808 22.6616 13.5808 22.6616C14.3171 28.9064 18.8984 29.9699 19.2711 33.8058C25.2341 34.733 31.5425 41.1232 31.5425 41.1232C34.8421 35.4511 39.4507 34.3421 43.3502 34.6967H43.3593Z" fill="#231F20"/>
<path d="M35.7245 26.6526C34.4245 28.7435 32.2336 28.1617 31.4518 25.5526L33.0336 25.6526C31.6427 24.8253 30.3881 23.5981 29.4154 22.3981C29.1336 28.1526 34.5427 30.7344 36.3336 26.6981C36.1336 26.6981 35.9245 26.6799 35.7245 26.6526Z" fill="white"/>
<path d="M31.9969 17.3077C25.7794 13.899 18.1712 16.1078 8.4541 10.0903C9.41763 12.9627 15.426 16.3351 15.426 16.3351L10.1085 14.608C11.4629 16.9623 17.0077 19.9074 17.0077 19.9074L12.0446 18.3076C14.0989 21.7254 18.762 24.0251 18.762 24.0251L15.8987 23.8161C16.2714 27.0248 20.7073 29.7881 20.9436 32.2697C22.9525 33.0332 25.534 34.3694 27.552 36.1056C31.397 34.2149 30.3426 27.8065 22.9979 18.7166C33.0968 19.3257 32.8241 26.8157 38.6144 25.7431C38.1871 23.7343 37.9144 20.5619 31.9969 17.3168V17.3077Z" fill="#808285"/>
<path d="M42.6421 33.4975C42.3148 31.1247 40.1875 28.352 38.6512 27.3793C37.933 28.852 36.1785 29.7884 34.6421 30.2156C38.2603 30.652 41.2239 32.0884 42.6421 33.4975V33.4975Z" fill="#D1D3D4"/>
<path d="M35.7245 26.6526C34.4245 28.7435 32.2336 28.1617 31.4518 25.5526L33.0336 25.6526C31.6427 24.8253 30.3881 23.5981 29.4154 22.3981C29.1336 28.1526 34.5427 30.7344 36.3336 26.6981C36.1336 26.6981 35.9245 26.6799 35.7245 26.6526Z" fill="white"/>
<path d="M34.9056 35.4607C37.2602 34.1425 40.2784 33.5061 42.4966 33.9516C41.0784 32.7516 37.5875 31.288 34.4238 31.5971C34.4238 31.5971 35.5056 33.4334 34.9147 35.4607H34.9056Z" fill="#D1D3D4"/>
</svg>
