<svg width="48" height="48" viewBox="0 0 48 48" fill="none" xmlns="http://www.w3.org/2000/svg">
<path d="M41.5099 13.1437C36.1202 9.7444 23.7865 7.13589 14.5795 5L4 16.3702L13.0798 16.1793C8.55354 23.4868 9.48061 40.6648 20.9144 42.9552C20.3237 41.8282 19.3057 39.7559 20.6327 37.1838C21.5779 35.3569 26.8222 25.3228 26.8222 25.3228C27.6675 25.3228 26.7041 25.3228 28.0765 25.3228C29.7761 25.3228 30.3396 25.959 29.5852 26.8679C34.1206 26.8134 36.9018 25.0956 38.1561 23.2596C37.2017 21.5236 34.1842 19.4695 32.9572 18.6424H39.3013C41.1191 18.6424 41.5281 19.4059 41.1009 20.233C44.0729 19.6513 45.5908 15.7158 41.519 13.1437H41.5099Z" fill="#BCBEC0"/>
<path d="M40.7826 13.4891C33.4478 9.3718 15.2791 6.62695 15.2791 6.62695L7.49902 14.9615H15.57C9.61674 22.8325 10.9346 38.7199 19.6963 42.0282C19.0783 40.5467 18.7602 38.838 19.8781 36.6567C21.1415 34.1936 23.1501 30.0581 26.0404 24.5412H28.3944C30.3485 24.5412 30.9666 25.3683 30.703 26.0045C32.3117 26.0045 35.2383 25.85 37.3742 23.2596C35.6019 20.7784 29.7305 17.8881 29.7305 17.8881H39.7919C41.2734 17.8881 42.0096 18.4153 41.8005 19.306C44.3727 18.0517 43.7001 15.1251 40.7826 13.4891Z" fill="white"/>
<path d="M28.8761 18.1608L29.0579 18.7061C28.6216 19.5605 27.0492 22.6689 26.5039 23.7595H30.5757C30.6303 24.4775 31.3483 25.0956 32.0936 25.2501C31.6573 24.6593 31.83 24.0776 32.1572 23.7595H34.084C34.6203 23.7595 34.4567 24.4048 33.5842 25.0683C34.9384 24.7593 35.9564 24.1413 36.6198 23.2596C35.3565 21.3328 28.8761 18.1608 28.8761 18.1608V18.1608Z" fill="#231F20"/>
<path d="M40.4829 14.0434C34.3116 10.6532 14.7705 7.79022 14.7705 7.79022L15.4794 8.69002L10.9531 13.5708L26.886 14.7887C26.8587 14.8432 26.8314 14.9068 26.7951 14.9614H16.0884L16.9154 15.743C16.2338 16.6973 15.6612 17.7244 15.1795 18.7969L24.132 16.97C24.0866 17.0427 24.032 17.1154 23.9866 17.1881L13.3253 20.7419L14.2615 21.2691C13.8252 22.7324 13.5344 24.2502 13.398 25.7681L22.4597 20.2693C22.4324 20.3511 22.4051 20.4329 22.3779 20.5147L12.3892 28.3948L13.3071 28.622C13.3617 30.3307 13.598 31.994 14.0161 33.5391L22.1506 23.9503C22.1597 24.023 22.1779 24.1048 22.1961 24.1775L14.1433 35.9931L14.8977 36.0476C15.8339 38.1471 17.1608 39.874 18.8423 40.9374C18.1879 39.4832 18.3969 37.7472 19.1513 36.193C19.8057 34.8479 28.3493 17.8516 28.3493 17.8516L26.9223 17.0882H40.1921C41.5554 17.0882 42.3007 17.6608 42.2916 18.4242C43.1278 17.7153 43.3187 15.5703 40.4829 14.007V14.0434Z" fill="#231F20"/>
<path d="M37.783 13.7709C38.4646 13.9981 39.9916 14.8525 40.5642 15.5159H39.4644C39.0281 14.807 37.783 13.7709 37.783 13.7709ZM41.1822 15.2615L41.3549 16.0158C40.1915 16.234 38.1374 16.4067 37.5557 16.4521C37.5285 16.5066 37.5012 16.5703 37.4648 16.6248H40.5187C41.7366 16.6248 42.2456 17.1974 42.3456 17.5337C42.5092 17.0792 42.3547 15.8704 41.1731 15.2615H41.1822Z" fill="white"/>
<path d="M36.2387 14.616L15.0979 11.6894L16.3885 10.2897C23.5142 11.3894 32.0305 13.1345 36.3568 14.3888C36.3205 14.4615 36.2841 14.5342 36.2387 14.616ZM33.0485 22.8778L28.4313 22.187L27.9587 23.0959H32.9394C32.9757 23.0232 33.0121 22.9505 33.0485 22.8778V22.8778ZM14.7343 30.3852L20.6148 23.823C20.6148 23.7322 20.6148 23.6322 20.6058 23.5413L14.5435 28.6947C14.5889 29.2673 14.6525 29.8308 14.7343 30.3852ZM21.8055 27.8494C21.76 27.7767 21.7237 27.6949 21.6782 27.6222L16.3885 35.6023C16.6703 36.1294 16.9702 36.6202 17.3065 37.0747L21.8055 27.8585V27.8494ZM17.7609 16.1247C17.4701 16.5156 17.2065 16.9246 16.9611 17.3517L23.3324 16.2156C23.387 16.1429 23.4415 16.0702 23.5051 15.9975L17.7609 16.1247ZM14.8434 23.1868L21.3601 19.624C21.3965 19.5331 21.4328 19.4513 21.4692 19.3604L15.1979 21.6144C15.0615 22.1325 14.9434 22.6597 14.8434 23.1868V23.1868Z" fill="#808285"/>
</svg>
