<svg width="48" height="48" viewBox="0 0 48 48" fill="none" xmlns="http://www.w3.org/2000/svg">
<path d="M6.63977 29.839C9.69961 27.8891 10.6596 25.6892 10.6596 25.6892L2 26.9291L5.67982 20.3894L13.0794 19.7695C13.0794 19.7695 15.9593 17.1996 20.4091 15.3597C20.4091 15.3597 20.8691 14.5497 23.4189 13.0898C23.4189 13.0898 25.7488 11.7199 28.4087 10.8399C28.4087 10.8399 30.2086 10.2199 30.7386 10.1899L30.5786 9.61997L33.9784 9.32998L34.0684 9C34.0684 9 35.8383 9.11999 36.8583 9.56997L37.0582 9.29998C37.0582 9.29998 39.4281 10.3899 41.198 13.0698C41.198 13.0698 42.908 12.9698 44.4479 13.7098C44.4479 13.7098 46.0678 14.3597 45.9978 16.2396C45.9978 16.2396 45.9878 18.6495 45.2678 21.0294C45.2678 21.0294 45.1578 21.3994 45.0578 21.6294C45.0578 21.6294 44.9078 21.9294 44.6179 22.3193C44.6179 22.3193 43.8179 23.1493 43.4979 23.8793C43.4979 23.8793 43.3279 24.3692 42.9979 25.2492C42.9979 25.2492 42.738 26.4591 40.978 26.5291C40.978 26.5291 39.2681 28.699 38.5482 29.319L38.4882 28.789C38.4882 28.789 37.2882 29.899 36.2583 30.5489L36.6083 27.4791C36.6083 27.4791 36.6983 26.9291 36.3483 26.8891L35.4483 26.8691C35.4483 26.8691 35.7383 28.719 35.3883 29.569C35.3883 29.569 35.1583 30.9089 33.0784 31.5489C33.0784 31.5489 31.4685 32.0588 29.6286 32.2088L29.2286 32.1488L26.3288 33.3388L27.1787 30.2989C27.1787 30.2989 26.0888 30.4089 25.9988 30.2689L22.769 31.6489L24.0389 28.019L24.9089 27.5391L24.6289 27.1591L22.849 27.1791L22.189 27.6891C20.6791 27.2991 19.1991 27.3991 19.1991 27.3991L11.6995 33.4788L9.81961 37.6286L7.57972 34.6287L8.27969 33.7088L8.0097 33.5088L6.98975 34.3087L5.47983 38.3585L3.25994 35.2287L3.82991 33.9587L3.69991 33.1788C4.35988 32.7388 4.78986 32.4488 5.11984 32.0788C5.29983 31.8489 5.39983 31.7589 5.60982 31.3689C5.80981 30.8889 5.81981 30.3689 6.0398 30.1989C6.31978 30.0089 6.52977 29.879 6.60977 29.839H6.63977Z" fill="white"/>
<path d="M6.09984 21.0394L3.22998 26.0891L40.2081 20.5794C40.2081 20.5794 38.9182 19.5994 40.7881 18.0595L6.09984 21.0394Z" fill="#D50A0A"/>
<path d="M43.6378 17.3596C43.6378 17.3596 40.748 19.3295 41.7479 21.0394C41.7479 21.0394 40.698 21.6194 41.8579 22.4393C41.8579 22.4393 40.068 23.2493 40.538 21.0294L11.4595 25.4292C11.4595 25.4292 10.8395 28.0591 6.70969 30.5589C6.70969 30.5589 6.40971 30.7389 6.37971 31.0689C6.37971 31.0689 6.40971 31.4789 6.02973 31.9789C6.02973 31.9789 5.56975 32.7888 4.4898 33.4788L4.5698 34.0188L4.06982 35.1787L5.30976 36.9486L6.42971 33.9288L8.63959 32.2288C8.63959 32.2288 10.8095 28.839 14.3693 27.5091C14.3693 27.5091 17.5092 26.1692 22.0989 26.9291L22.5189 26.5291L27.8286 26.4091C27.8286 26.4091 28.0286 26.4591 27.8986 26.5591C27.8986 26.5591 26.8487 27.3591 25.7087 27.4691L25.8187 27.7991C25.8187 27.7991 25.8487 27.9091 25.7687 27.9391L24.6588 28.379L23.9188 30.4189L26.0087 29.509L26.1287 29.599C26.1287 29.599 27.9486 29.709 30.6785 29.159C30.6785 29.159 32.5784 28.779 33.0984 26.3291L36.7082 26.1691C36.7082 26.1691 37.4581 26.3291 37.3682 27.0291L37.1082 29.079L38.7581 27.6091L38.8681 27.9991C38.8681 27.9991 40.118 26.6491 40.438 25.8692C40.438 25.8692 41.8079 25.8992 42.1479 25.3392C42.1479 25.3392 42.3079 25.1792 42.7379 23.9793C42.7379 23.9793 42.9479 23.1293 43.7878 22.2993C43.7878 22.2993 44.4478 21.6894 44.8078 20.0695C44.8078 20.0695 45.2478 17.7296 45.2478 17.2796C45.2478 17.2796 45.7177 14.9697 44.1378 14.2797C44.1378 14.2797 42.9579 13.6298 40.748 13.8098C40.748 13.8098 40.308 12.2698 37.2682 10.17L37.0482 10.4999C37.0482 10.4999 36.0082 9.77997 34.5383 9.79997L34.4683 9.99996C34.4683 9.99996 33.5783 9.99996 31.6284 10.1999L31.8084 10.7399C31.8084 10.7399 27.7886 10.9299 22.0789 14.7497L21.9789 15.0597L21.249 15.3997L21.6389 15.6097C21.6389 15.6097 17.2792 17.1796 14.1093 19.7795L43.6478 17.3496L43.6378 17.3596Z" fill="#0C2E82"/>
<path d="M33.4486 26.7891H34.6986C34.6986 26.7891 34.9486 28.4191 34.7986 29.1591C34.7986 29.1591 34.5486 30.2491 33.4386 30.6791C33.4386 30.6791 31.7986 31.3791 29.3386 31.5291L29.2186 31.4291L27.3486 32.2191L27.9586 30.0491C27.9586 30.0491 30.4586 29.8591 31.2186 29.6291C31.2186 29.6291 33.1586 29.2491 33.4486 26.7991V26.7891Z" fill="#0C2E82"/>
<path d="M18.0796 27.4291C18.0796 27.4291 13.6496 27.3791 10.6196 30.9491C10.6196 30.9491 10.6196 32.2491 9.03961 33.1191L9.09961 33.5291L8.34961 34.5591L9.66961 36.3391L11.1596 33.0291L18.0696 27.4291H18.0796Z" fill="#0C2E82"/>
</svg>
