<svg width="48" height="48" viewBox="0 0 48 48" fill="none" xmlns="http://www.w3.org/2000/svg">
<path d="M6.6397 29.8386C9.6995 27.8888 10.6594 25.6889 10.6594 25.6889L2 26.9288L5.67976 20.3893L13.0793 19.7693C13.0793 19.7693 15.9591 17.1995 20.4088 15.3596C20.4088 15.3596 20.8688 14.5496 23.4186 13.0897C23.4186 13.0897 25.7485 11.7198 28.4083 10.8399C28.4083 10.8399 30.2082 10.2199 30.7381 10.1899L30.5781 9.61996L33.9779 9.32998L34.0679 9C34.0679 9 35.8378 9.11999 36.8577 9.56996L37.0577 9.29998C37.0577 9.29998 39.4276 10.3899 41.1975 13.0697C41.1975 13.0697 42.9074 12.9697 44.4473 13.7097C44.4473 13.7097 46.0771 14.3597 45.9972 16.2395C45.9972 16.2395 45.9872 18.6494 45.2672 21.0292C45.2672 21.0292 45.1572 21.3992 45.0572 21.6292C45.0572 21.6292 44.9072 21.9292 44.6172 22.3191C44.6172 22.3191 43.8173 23.1491 43.4973 23.879C43.4973 23.879 43.3273 24.369 42.9973 25.2489C42.9973 25.2489 42.7374 26.4589 40.9775 26.5289C40.9775 26.5289 39.2676 28.6987 38.5476 29.3187L38.4876 28.7887C38.4876 28.7887 37.2877 29.8986 36.2578 30.5486L36.6078 27.4788C36.6078 27.4788 36.6978 26.9288 36.3478 26.8888L35.4478 26.8688C35.4478 26.8688 35.7378 28.7187 35.3878 29.5687C35.3878 29.5687 35.1579 30.9086 33.078 31.5485C33.078 31.5485 31.4681 32.0585 29.6282 32.2085L29.2282 32.1485L26.3284 33.3384L27.1784 30.2986C27.1784 30.2986 26.0884 30.4086 25.9984 30.2686L22.7687 31.6485L24.0386 28.0188L24.9085 27.5388L24.6285 27.1588L22.8487 27.1788L22.1887 27.6888C20.6788 27.2988 19.1989 27.3988 19.1989 27.3988L11.6994 33.4784L9.81949 37.6281L7.57964 34.6283L8.27959 33.7084L8.00961 33.5084L6.98968 34.3084L5.47977 38.3581L3.25992 35.2283L3.82988 33.9584L3.69989 33.1784C4.35985 32.7385 4.78982 32.4485 5.1198 32.0785C5.29979 31.8485 5.39978 31.7585 5.60977 31.3685C5.80975 30.8886 5.81975 30.3686 6.03974 30.1986C6.31972 30.0086 6.52971 29.8786 6.6097 29.8386H6.6397Z" fill="white"/>
<path d="M6.09979 21.0391L3.22998 26.0888L40.2076 20.5792C40.2076 20.5792 38.9177 19.5992 40.7875 18.0593L6.09979 21.0391Z" fill="#9D9FA2"/>
<path d="M43.6373 17.3595C43.6373 17.3595 40.7475 19.3294 41.7474 21.0393C41.7474 21.0393 40.6975 21.6192 41.8574 22.4392C41.8574 22.4392 40.0675 23.2491 40.5375 21.0393L11.4593 25.439C11.4593 25.439 10.8394 28.0688 6.70965 30.5686C6.70965 30.5686 6.40967 30.7486 6.37967 31.0786C6.37967 31.0786 6.40967 31.4886 6.0297 31.9885C6.0297 31.9885 5.56973 32.7985 4.4898 33.4884L4.56979 34.0284L4.06982 35.1883L5.30974 36.9582L6.42967 33.9384L8.63953 32.2385C8.63953 32.2385 10.8094 28.8487 14.3692 27.5188C14.3692 27.5188 17.509 26.1789 22.0987 26.9389L22.5186 26.5389L27.8283 26.4189C27.8283 26.4189 28.0283 26.4689 27.8983 26.5689C27.8983 26.5689 26.8483 27.3688 25.7084 27.4788L25.8184 27.8088C25.8184 27.8088 25.8484 27.9188 25.7684 27.9488L24.6585 28.3888L23.9185 30.4286L26.0084 29.5187L26.1284 29.6087C26.1284 29.6087 27.9483 29.7187 30.6781 29.1687C30.6781 29.1687 32.578 28.7987 33.0979 26.3389L36.7077 26.1789C36.7077 26.1789 37.4577 26.3389 37.3677 27.0389L37.1077 29.0887L38.7576 27.6188L38.8676 28.0088C38.8676 28.0088 40.1175 26.6589 40.4375 25.8789C40.4375 25.8789 41.8074 25.9089 42.1474 25.349C42.1474 25.349 42.3074 25.189 42.7373 23.9891C42.7373 23.9891 42.9473 23.1391 43.7973 22.3092C43.7973 22.3092 44.4572 21.6992 44.8172 20.0793C44.8172 20.0793 45.2572 17.7395 45.2572 17.2895C45.2572 17.2895 45.7271 14.9796 44.1472 14.2897C44.1472 14.2897 42.9673 13.6397 40.7574 13.8197C40.7574 13.8197 40.3175 12.2798 37.2777 10.18L37.0577 10.5099C37.0577 10.5099 36.0178 9.78998 34.5479 9.80998L34.4679 10.01C34.4679 10.01 33.5779 10.01 31.628 10.21L31.808 10.7499C31.808 10.7499 27.7883 10.9399 22.0787 14.7597L21.9787 15.0696L21.2487 15.4096L21.6387 15.6196C21.6387 15.6196 17.279 17.1895 14.1092 19.7893L43.6473 17.3595H43.6373Z" fill="#58595B"/>
<path d="M33.4484 26.7889H34.6984C34.6984 26.7889 34.9484 28.4189 34.7984 29.1589C34.7984 29.1589 34.5484 30.2489 33.4384 30.6789C33.4384 30.6789 31.7984 31.3789 29.3284 31.5289L29.2084 31.4289L27.3384 32.2189L27.9484 30.0489C27.9484 30.0489 30.4484 29.8589 31.2084 29.6289C31.2084 29.6289 33.1484 29.2489 33.4384 26.7989L33.4484 26.7889Z" fill="#58595B"/>
<path d="M18.0796 27.4287C18.0796 27.4287 13.6496 27.3787 10.6196 30.9487C10.6196 30.9487 10.6196 32.2487 9.03961 33.1187L9.09961 33.5287L8.34961 34.5587L9.66961 36.3387L11.1596 33.0287L18.0696 27.4287H18.0796Z" fill="#58595B"/>
</svg>
