<svg width="48" height="48" viewBox="0 0 48 48" fill="none" xmlns="http://www.w3.org/2000/svg">
<path d="M42.2818 14.4438C42.2818 14.4438 42.3018 14.3938 42.3018 14.3738C42.3018 14.3538 42.3118 14.3338 42.3118 14.3238C42.2518 14.1439 42.1219 14.1239 41.852 14.1539C41.4622 14.2239 41.1023 14.2738 40.8025 14.3038C40.8025 14.3038 40.7725 14.3038 40.7525 14.3038C40.7425 14.3038 40.7325 14.3038 40.7125 14.3038C40.6625 14.3038 40.6225 14.3038 40.5826 14.3138C40.5826 14.3138 40.5726 14.3138 40.5626 14.3138C40.1727 14.3438 39.9229 14.3438 39.9229 14.3438C40.9224 15.0935 41.0323 16.2629 41.0323 16.2629L41.0823 16.223C41.852 15.6632 42.2618 14.4338 42.2618 14.4338L42.2818 14.4438Z" fill="black"/>
<path d="M31.916 20.651C32.4058 22.1103 31.5762 24.0594 31.5762 24.0594C32.6657 23.1199 33.5253 21.2007 33.5253 21.2007C35.3245 20.8409 36.314 21.2007 36.314 21.2007C36.5439 22.6101 36.0242 23.7496 36.0242 23.7496C37.0637 22.92 37.5335 20.701 37.5335 20.701C37.5335 20.701 37.1137 20.3112 35.2645 20.1812C33.4153 20.0513 31.906 20.651 31.906 20.651H31.916Z" fill="#BFC0BF"/>
<path d="M33.2558 26.2184C33.2558 26.2184 32.716 27.7278 32.1562 28.2875C32.1562 28.2875 32.8759 28.6773 34.1354 28.5674C35.3948 28.4474 35.6946 27.9876 35.8046 27.5179C35.9245 27.0481 35.8046 26.3984 35.5947 25.9186C35.5947 25.9186 35.6846 27.148 34.825 27.7777C34.825 27.7777 33.8955 27.9676 33.2957 27.7777C33.2957 27.7777 33.5356 27.278 33.2558 26.2084V26.2184Z" fill="#BFC0BF"/>
<path d="M30.2972 14.4838C30.2972 14.4838 30.3272 14.4838 30.3372 14.4838C30.3272 14.4838 30.3072 14.4838 30.2972 14.4838C29.5376 14.3439 29.2177 14.9136 29.2177 14.9136C28.9778 15.2734 29.0678 15.4434 29.0678 15.4434C31.4067 15.4034 32.6562 15.7832 32.6562 15.7832C32.6562 15.7832 31.7866 14.8336 30.3872 14.5138L30.2872 14.4938L30.2972 14.4838Z" fill="#BFC0BF"/>
<path d="M39.6327 15.6833C39.3229 15.3934 38.6732 15.0236 37.9535 15.1735C37.2338 15.3134 37.1938 16.0931 37.1938 16.0931C37.9735 15.3734 39.6327 15.6833 39.6327 15.6833V15.6833Z" fill="#BFC0BF"/>
<path d="M22.2505 17.2126C22.2505 17.2126 26.0987 16.4729 30.4967 17.5124C30.6567 17.3725 30.8366 17.2226 31.0465 17.0826C31.0465 17.0826 27.0083 15.9631 22.2505 17.2126Z" fill="#0085CA"/>
<path d="M22.2705 18.7118C22.2705 18.7118 25.639 17.8722 29.7571 18.4419C29.8371 18.282 29.937 18.1221 30.077 17.9522C28.5976 17.7822 25.579 17.6523 22.2705 18.7118V18.7118Z" fill="#0085CA"/>
<path d="M22.3608 20.1712C22.3608 20.1712 25.5494 19.1917 29.5676 19.4615C29.5476 19.3216 29.5476 19.1417 29.5876 18.9518C27.9783 18.9118 25.2695 19.0517 22.3708 20.1712H22.3608Z" fill="#0085CA"/>
<path d="M12.9653 30.2067C12.9653 30.2067 12.9653 30.2067 12.9853 30.2067C13.0553 30.2067 13.2752 30.2367 13.2952 30.2367C13.3252 30.2367 13.715 30.2766 13.715 30.2766C14.2647 30.3366 14.8145 30.4166 15.3742 30.5065C16.6337 25.8886 20.1821 23.4297 20.1821 23.4297C15.3842 25.7487 13.3652 29.527 12.9653 30.2067V30.2067Z" fill="#0085CA"/>
<path d="M35.5847 23.8095C35.2848 22.4201 36.0745 21.4606 36.0745 21.4606C34.2753 23.0399 35.3648 24.6191 35.9046 25.8486C36.4543 27.078 36.2344 27.9776 35.6847 28.6073C35.1349 29.237 33.6356 29.287 32.6261 29.0971C31.6165 28.9072 31.0968 27.8377 30.8269 26.5882C30.557 25.3288 31.0468 23.1198 31.0468 23.1198C30.3071 24.2393 30.3071 26.5283 30.8868 28.3874C31.4566 30.2466 32.9559 30.7064 34.0554 30.7064C35.1549 30.7064 37.114 29.7768 36.8042 27.5678C36.5043 25.3588 35.8746 25.1889 35.5747 23.7995L35.5847 23.8095Z" fill="#0085CA"/>
<path d="M23.8502 24.939C21.971 23.0299 21.911 20.8809 21.911 20.8809C21.911 20.8809 21.2613 23.3997 22.8006 25.2789C24.3299 27.158 28.0682 27.3679 28.0682 27.3679C28.0682 27.3679 25.7293 26.8481 23.8502 24.949V24.939Z" fill="#0085CA"/>
<path d="M33.3657 16.6927C35.5747 17.5523 35.5547 18.8817 35.5547 18.8817C35.8946 17.6023 37.4539 16.9326 37.4539 16.9326C37.4539 16.9326 36.6442 16.5428 35.5247 16.4628C34.4053 16.3829 33.3657 16.6927 33.3657 16.6927V16.6927Z" fill="#0085CA"/>
<path d="M30.2969 14.4838C28.9676 14.2139 27.6881 14.7537 27.6182 14.7836C28.8476 14.8036 29.2174 14.9136 29.2174 14.9136C29.2174 14.9136 29.5373 14.3438 30.2969 14.4838V14.4838Z" fill="#0085CA"/>
<path d="M34.6349 31.796C34.6349 31.796 33.8353 32.0758 32.8657 31.9059C32.8657 31.9059 34.1451 33.1453 35.4446 35.8541H35.4945C35.3646 34.6147 34.8448 32.5456 34.7149 32.1658L34.6249 31.796H34.6349Z" fill="#0085CA"/>
<path d="M40.3127 18.8018C40.2828 18.6519 40.2428 18.5319 40.1928 18.422C40.1928 18.422 40.1528 18.322 40.0229 18.1521C39.9129 18.0122 39.793 17.9122 39.683 17.8023C39.4431 17.5724 39.0133 17.4424 39.0133 17.4424C39.3132 17.6723 39.5431 18.0022 39.5631 18.472C39.633 19.9213 38.1337 20.511 38.1337 20.511C38.4836 20.2811 39.1133 19.4815 38.9534 18.452C38.7934 17.4224 37.454 16.9327 37.454 16.9327C37.454 16.9327 35.8947 17.6124 35.5549 18.8818C35.5549 18.8818 35.5849 17.5524 33.3659 16.6928C33.3659 16.6928 34.4054 16.3829 35.5249 16.4629C36.6444 16.5428 37.454 16.9327 37.454 16.9327C37.454 16.9327 37.6639 16.3829 38.7634 16.203C39.8629 16.0131 41.0524 16.283 41.0524 16.283C40.8325 15.8831 40.5826 15.2934 39.4731 14.8436C38.3736 14.3938 37.3741 14.8036 37.3741 14.8036C37.3741 14.8036 37.3041 14.2739 36.4945 13.7541C35.1951 12.9145 31.7366 12.4047 31.0769 12.3747C30.4072 12.3348 31.5767 12.7646 32.0365 13.0344C32.5663 13.3343 33.156 13.8441 33.206 14.3338C33.216 14.4638 33.186 14.5837 33.126 14.6737C33.076 14.5338 32.9861 14.3638 32.8061 14.1439C31.8566 12.9345 29.4677 12.4047 27.6685 12.5247C25.8693 12.6446 24.44 13.3243 24.44 13.3243C24.4599 13.4942 23.7803 14.074 21.8911 14.2739C20.0919 14.4738 18.8225 14.1439 18.3727 14.074C18.3627 14.074 18.3527 14.074 18.3427 14.074C18.1528 14.054 18.0229 14.064 17.9629 14.1939C17.9629 14.1939 17.9629 14.2039 17.9629 14.2139V14.2339C17.9629 14.3238 18.0129 14.4538 18.0129 14.4538C18.0029 14.4338 17.9929 14.4138 17.9829 14.4038C18.1128 14.6537 18.8725 16.0631 19.882 16.7827C19.882 16.7827 20.4818 16.6528 21.2014 16.5828C21.2014 16.5828 10.1564 21.9604 5.68848 30.3466C7.63759 30.1167 10.2064 29.9667 12.9852 30.2166H12.9652C13.365 29.5369 15.3841 25.7686 20.1819 23.4397C20.1819 23.4397 16.6335 25.9086 15.3741 30.5165C16.9733 30.7864 18.6126 31.2062 20.2219 31.8359C25.3795 33.845 29.7275 35.944 34.6253 35.904L35.4549 35.8641C34.1555 33.1553 32.8761 31.9159 32.8761 31.9159C33.8457 32.0858 34.6253 31.8159 34.6453 31.8059C34.7153 31.7759 34.7852 31.7559 34.8352 31.7259C36.4345 30.8663 36.7044 29.397 36.8343 28.3475C36.9842 27.138 36.7743 26.3584 36.7743 26.3584C36.7743 26.3584 39.5431 22.72 40.2528 19.8513C40.2528 19.8513 40.4127 19.3316 40.3227 18.8018H40.3127ZM37.9538 15.1635C38.6735 15.0235 39.3232 15.3934 39.633 15.6732C39.633 15.6732 37.9738 15.3634 37.1942 16.083C37.1942 16.083 37.2341 15.3034 37.9538 15.1635V15.1635ZM27.6285 14.7736C27.6985 14.7437 29.0379 14.1839 30.3972 14.4938C31.7966 14.8136 32.6662 15.7632 32.6662 15.7632C32.6662 15.7632 31.4068 15.3834 29.0778 15.4233C29.0778 15.4233 28.9879 15.2534 29.2278 14.8936C29.2278 14.8936 28.8579 14.7836 27.6285 14.7636V14.7736ZM31.0569 17.0726C30.847 17.2225 30.6671 17.3625 30.5072 17.5024C26.1092 16.4629 22.2609 17.2025 22.2609 17.2025C27.0288 15.9531 31.0569 17.0726 31.0569 17.0726ZM22.8007 25.2689C21.2714 23.3897 21.9111 20.8709 21.9111 20.8709C21.9111 20.8709 21.9711 23.0299 23.8502 24.929C25.7294 26.8382 28.0683 27.3479 28.0683 27.3479C28.0683 27.3479 24.33 27.138 22.8007 25.2589V25.2689ZM29.5676 19.4615C25.5494 19.1816 22.3609 20.1712 22.3609 20.1712C25.2596 19.0617 27.9683 18.9118 29.5776 18.9517C29.5376 19.1417 29.5376 19.3216 29.5576 19.4615H29.5676ZM29.7575 18.442C25.6494 17.8722 22.2709 18.7119 22.2709 18.7119C25.5794 17.6423 28.5981 17.7823 30.0774 17.9522C29.9375 18.1221 29.8375 18.282 29.7575 18.442V18.442ZM36.8043 27.5778C37.1042 29.7868 35.1451 30.7164 34.0556 30.7164C32.9661 30.7164 31.4668 30.2566 30.887 28.3975C30.3173 26.5383 30.3173 24.2493 31.0469 23.1298C31.0469 23.1298 30.5572 25.3388 30.827 26.5983C31.0969 27.8577 31.6167 28.9172 32.6262 29.1071C33.6358 29.297 35.1351 29.2471 35.6848 28.6174C36.2346 27.9876 36.4445 27.088 35.9047 25.8586C35.355 24.6292 34.2655 23.0499 36.0747 21.4706C36.0747 21.4706 35.285 22.4202 35.5849 23.8195C35.8847 25.2089 36.5045 25.3788 36.8143 27.5878L36.8043 27.5778ZM34.8252 27.7777C35.6848 27.148 35.5949 25.9186 35.5949 25.9186C35.8048 26.4084 35.9247 27.0581 35.8048 27.5179C35.6848 27.9876 35.385 28.4474 34.1355 28.5674C32.8761 28.6873 32.1564 28.2875 32.1564 28.2875C32.7162 27.7278 33.2559 26.2184 33.2559 26.2184C33.5358 27.288 33.2959 27.7877 33.2959 27.7877C33.8957 27.9776 34.8252 27.7877 34.8252 27.7877V27.7777ZM36.0147 23.7396C36.0147 23.7396 36.5345 22.5901 36.3046 21.1907C36.3046 21.1907 35.315 20.8309 33.5158 21.1907C33.5158 21.1907 32.6562 23.1199 31.5667 24.0494C31.5667 24.0494 32.3963 22.1003 31.9066 20.641C31.9066 20.641 33.4159 20.0412 35.265 20.1712C37.1142 20.3011 37.534 20.691 37.534 20.691C37.534 20.691 37.0642 22.8999 36.0247 23.7396H36.0147Z" fill="black"/>
<path d="M45.8601 20.641C44.2408 19.7614 42.4016 19.4815 40.9923 19.4215C41.0423 19.2416 41.1122 19.0117 41.1722 18.7718C41.2022 18.7718 41.2222 18.7718 41.2222 18.7718C44.0509 18.6819 45.5402 19.4315 45.5402 19.4315L45.4003 19.3216C44.0209 18.6819 42.5716 18.452 41.3021 18.412H41.2522C41.2921 18.2121 41.3521 17.8223 41.3621 17.8223H41.3921C43.5711 17.8423 44.7506 18.362 44.7506 18.362L44.6106 18.2521C43.5311 17.7923 42.4316 17.5824 41.3921 17.5124C41.3921 17.1126 41.3321 16.7827 41.1822 16.4929C41.9818 15.8032 42.2717 14.7437 42.3117 14.3339C42.3117 14.3339 42.3217 14.2839 42.3217 14.2739V14.2539C42.3217 14.2439 42.3217 14.2239 42.3217 14.2139C42.3217 14.2139 42.3217 14.2039 42.3217 14.1939C42.3217 14.1839 42.3217 14.1739 42.3217 14.1539C42.3217 14.1539 42.3217 14.1439 42.3217 14.134C42.3217 14.124 42.3217 14.114 42.3217 14.104C42.3217 14.104 42.3217 14.094 42.3217 14.084C42.3217 14.084 42.3217 14.064 42.3117 14.054C42.3117 14.054 42.3117 14.054 42.3117 14.044C42.3117 14.044 42.3017 14.024 42.2917 14.024C42.2917 14.024 42.2917 14.024 42.2917 14.014C42.2917 14.014 42.2817 14.004 42.2717 13.994C42.2717 13.994 42.2717 13.994 42.2617 13.994C42.2617 13.994 42.2517 13.984 42.2417 13.974C42.2417 13.974 42.2417 13.974 42.2317 13.974C42.2317 13.974 42.2117 13.974 42.2117 13.964C42.2117 13.964 42.2117 13.964 42.2017 13.964C42.2017 13.964 42.1817 13.964 42.1817 13.954C42.1817 13.954 42.1717 13.954 42.1617 13.954C42.1617 13.954 42.1517 13.954 42.1418 13.954C42.1418 13.954 42.1318 13.954 42.1218 13.954C42.1218 13.954 42.1118 13.954 42.1018 13.954C42.0918 13.954 42.0818 13.954 42.0818 13.954C40.7024 13.974 39.5729 13.5042 39.5729 13.5042C39.5429 13.4942 39.5129 13.4842 39.483 13.4743C36.3544 12.2748 33.1758 11.9549 30.3471 12.0049C29.0877 12.0049 28.1581 12.1149 28.1581 12.1149C24.09 12.4547 21.1813 13.4343 21.1813 13.4343C21.1813 13.4343 20.0718 13.7441 18.6025 13.6742C18.6025 13.6742 18.0527 13.6742 17.9428 14.014C17.8528 14.2339 17.8328 14.5038 18.0427 15.0735C18.2826 15.7432 19.2422 16.9927 19.2522 17.0026C16.3535 18.1921 8.78691 22.4302 2 30.9663C2 30.9663 3.42935 30.5965 5.68832 30.3266C10.1663 21.9304 21.2013 16.5529 21.2013 16.5529C20.4916 16.6328 19.8819 16.7528 19.8819 16.7528C18.8723 16.0331 18.1127 14.6237 17.9827 14.3738C17.9827 14.3838 18.0027 14.4038 18.0127 14.4238C18.0127 14.4238 17.9527 14.2939 17.9627 14.2039V14.1839C17.9627 14.1839 17.9627 14.1739 17.9627 14.1639C18.0227 14.034 18.1627 14.024 18.3426 14.044C18.3526 14.044 18.3626 14.044 18.3726 14.044C18.8323 14.114 20.1018 14.4438 21.891 14.2439C23.7801 14.034 24.4598 13.4543 24.4398 13.2943C24.4398 13.2943 25.8692 12.6146 27.6683 12.4947C29.4675 12.3747 31.8664 12.8945 32.806 14.114C32.9759 14.3339 33.0759 14.5138 33.1259 14.6437C33.1858 14.5538 33.2158 14.4338 33.2058 14.3039C33.1558 13.8141 32.5661 13.3043 32.0363 13.0045C31.5666 12.7346 30.4071 12.3148 31.0768 12.3448C31.7465 12.3847 35.1949 12.8845 36.4943 13.7241C37.294 14.2439 37.3739 14.7737 37.3739 14.7737C37.3739 14.7737 38.3635 14.3638 39.473 14.8136C40.5725 15.2634 40.8323 15.8532 41.0522 16.253C41.0522 16.253 40.9323 15.0835 39.9428 14.3339C39.9428 14.3339 40.1926 14.3339 40.5825 14.3039C40.5825 14.3039 40.5925 14.3039 40.6025 14.3039C40.6424 14.3039 40.6924 14.3039 40.7324 14.2939C40.7424 14.2939 40.7524 14.2939 40.7724 14.2939C40.7924 14.2939 40.8024 14.2939 40.8224 14.2939C41.1222 14.2639 41.4821 14.2139 41.8719 14.1439C42.1418 14.124 42.2617 14.1439 42.3317 14.3139C42.3317 14.3339 42.3317 14.3439 42.3217 14.3638C42.3217 14.3838 42.3117 14.4038 42.3017 14.4338C42.3017 14.4338 41.8919 15.6633 41.1222 16.223L41.0722 16.263C41.0722 16.263 39.8828 15.9931 38.7833 16.183C37.6838 16.3729 37.4739 16.9127 37.4739 16.9127C37.4739 16.9127 38.8133 17.4025 38.9732 18.432C39.1331 19.4615 38.5034 20.2612 38.1536 20.4911C38.1536 20.4911 39.6529 19.9013 39.5829 18.452C39.5629 17.9822 39.333 17.6524 39.0332 17.4225C39.0332 17.4225 39.463 17.5524 39.7029 17.7823C39.8128 17.8822 39.9328 17.9922 40.0427 18.1321C40.1726 18.2921 40.2126 18.402 40.2126 18.402C40.2626 18.512 40.3026 18.6419 40.3326 18.7818C40.4225 19.3116 40.2626 19.8314 40.2626 19.8314C39.5529 22.7001 36.7842 26.3384 36.7842 26.3384C38.8832 24.5492 40.2826 21.3807 40.8923 19.7914C44.2008 19.8314 46 20.7509 46 20.7509L45.8801 20.631L45.8601 20.641Z" fill="#0085CA"/>
</svg>
