<svg width="48" height="48" viewBox="0 0 48 48" fill="none" xmlns="http://www.w3.org/2000/svg">
<path d="M23.88 10C12.02 10 2 16.65 2 24.52C2 32.39 11.41 38.89 23.88 38.89C31.16 38.89 38.06 36.33 42.35 32.05C44.71 29.69 46 27.02 46 24.53C46 20.65 43.71 17.01 39.57 14.27C35.42 11.51 29.85 10 23.88 10Z" fill="#EEAD1E"/>
<path d="M8.58018 34.1401C4.77018 31.6001 2.68018 28.1801 2.68018 24.5201C2.68018 17.1501 12.5902 10.6801 23.8802 10.6801C35.6902 10.6801 45.3102 16.8901 45.3202 24.5201C45.3202 26.8301 44.1002 29.3301 41.8702 31.5601C37.7102 35.7201 30.9902 38.2101 23.8802 38.2101C17.9402 38.2101 12.5102 36.7601 8.58018 34.1401V34.1401Z" fill="#1C2D25"/>
<path d="M33.3798 20.72C31.6798 18.18 27.9498 16.42 23.5498 16.42C17.5198 16.42 12.6298 19.74 12.6298 23.83C12.6298 27.92 16.0798 31.51 23.5498 31.51C28.0298 31.51 31.6398 29.57 33.3198 27.03L20.5798 27.05L20.5398 23.74H42.6498C42.6798 24 42.7098 24.26 42.7098 24.52C42.7098 30.89 34.2798 36.05 23.8798 36.05C13.4798 36.05 5.0498 30.89 5.0498 24.52C5.0498 18.15 13.9798 12.79 23.8798 12.75C32.1198 12.72 39.1198 16.12 41.6798 20.71H33.3698L33.3798 20.72Z" fill="white"/>
</svg>
