<svg width="48" height="48" viewBox="0 0 48 48" fill="none" xmlns="http://www.w3.org/2000/svg">
<path d="M38.2807 19.436C35.0414 17.5565 31.8621 17.9864 29.4427 19.0661C29.3327 18.2763 29.1327 17.3965 28.7828 16.3767C28.2729 14.8571 27.7131 13.4074 27.2132 12.1277C26.5633 10.4481 26.0634 9.00841 25.7935 8.03863L24.0339 2L22.2043 8.03863C21.9244 8.99841 21.4445 10.4481 20.7946 12.1277C20.3048 13.4074 19.7449 14.8571 19.235 16.3767C18.8951 17.3965 18.6851 18.2663 18.5851 19.0661C16.1657 17.9964 12.9764 17.5665 9.74715 19.456C7.10775 21.0157 5.68808 23.6951 6.05799 26.4744C6.38792 29.0039 8.11752 30.9834 10.567 31.6633L12.3866 32.1631L12.8365 30.3236C12.8964 30.0736 13.5563 27.7741 15.6258 27.8141C17.0655 27.8441 18.2552 29.1138 18.8551 29.9337C18.6651 30.5135 18.5552 31.2134 18.6551 31.9632L17.8453 30.8834L16.3756 31.9732C15.0559 32.953 13.1364 35.3924 14.3161 38.2618C14.836 39.5115 15.9457 40.3613 17.4454 40.6612C18.3652 40.8412 19.405 40.8012 20.3747 40.5912C20.7547 41.811 21.4445 43.2906 22.7142 44.6103L24.0439 46L25.3736 44.6103C26.6333 43.2906 27.3232 41.811 27.7031 40.5912C28.6729 40.8012 29.7126 40.8412 30.6324 40.6512C32.1321 40.3513 33.2418 39.4915 33.7517 38.2418C34.9314 35.3724 33.0019 32.943 31.6822 31.9632L30.2125 30.8734L29.4027 31.9532C29.5027 31.2034 29.4027 30.5035 29.2027 29.9237C29.7926 29.1038 30.9823 27.8241 32.422 27.7941C34.4915 27.7442 35.1514 30.0436 35.2214 30.3136L35.6713 32.1531L37.4909 31.6333C39.9403 30.9534 41.6599 28.9639 41.9898 26.4344C42.3497 23.6551 40.9301 20.9757 38.2807 19.436V19.436Z" fill="#231F20"/>
<path d="M23.4238 8.30851C23.2039 9.35827 22.624 10.8579 21.9641 12.5875C21.4743 13.8572 20.9244 15.2969 20.4245 16.7866C19.9446 18.2163 19.7447 19.286 19.7447 20.2858C19.7447 20.6057 19.7846 20.9156 19.8146 21.2256C17.9751 19.9559 14.3359 18.2263 10.3768 20.5457C8.17728 21.8354 6.99755 24.0449 7.28748 26.3144C7.55742 28.334 8.93711 29.9236 10.8867 30.4635L11.4665 30.6234L11.6065 30.0336C11.6465 29.8936 12.5163 26.5044 15.6356 26.5744C18.145 26.6243 19.7946 29.0738 20.2345 29.8236C20.0246 30.2135 19.8446 30.7534 19.8446 31.3733C19.8446 32.0331 20.0746 32.7929 20.6444 33.5428C20.4145 33.8527 20.0346 34.2326 19.6047 34.2726C18.9748 34.3226 18.345 33.6627 17.9251 33.1029L17.5751 32.633L17.1053 32.9829C16.1455 33.7027 14.5658 35.6223 15.4556 37.7918C15.8155 38.6616 16.5854 39.2315 17.6751 39.4514C18.8049 39.6814 20.2345 39.4714 21.2443 39.0115C21.4443 40.1513 21.9941 42.0908 23.5938 43.7604L24.0237 44.2103L24.4436 43.7604C26.0332 42.0908 26.5831 40.1513 26.7831 39.0015C27.8028 39.4614 29.2325 39.6614 30.3622 39.4314C31.452 39.2115 32.2218 38.6416 32.5717 37.7718C33.4615 35.6023 31.8719 33.6827 30.9121 32.9629L30.4422 32.613L30.0923 33.0829C29.6724 33.6427 29.0425 34.3026 28.4127 34.2526C27.9728 34.2126 27.5929 33.8327 27.3629 33.5228C27.9328 32.7729 28.1627 32.0131 28.1627 31.3533C28.1627 30.7334 27.9828 30.1935 27.7728 29.8036C28.2127 29.0538 29.8524 26.6043 32.3718 26.5444C35.4911 26.4744 36.3809 29.8536 36.4109 29.9936L36.5608 30.5734L37.1407 30.4135C39.1003 29.8736 40.4699 28.284 40.7299 26.2544C41.0198 23.9849 39.8301 21.7754 37.6306 20.4957C33.6615 18.1863 30.0223 19.9259 28.1827 21.2056C28.2127 20.9056 28.2527 20.5957 28.2527 20.2858C28.2527 19.276 28.0528 18.1963 27.5729 16.7666C27.073 15.2769 26.5131 13.8472 26.0232 12.5775C25.3534 10.8479 24.7735 9.34827 24.5436 8.29851L23.9637 5.59912L23.3938 8.29851L23.4238 8.30851Z" fill="white"/>
<path d="M24.0438 43.3406C26.2933 40.9811 26.3233 38.0018 26.3233 38.0018C27.3231 38.9915 31.1822 39.6614 32.052 37.5419C33.0018 35.2224 30.5923 33.4328 30.5923 33.4328C28.2529 36.5721 26.6832 33.5028 26.6832 33.5028C28.4628 31.5732 27.1231 29.8436 27.1231 29.8436C27.2431 29.4937 29.2126 26.0445 32.3819 25.9745C36.0311 25.8945 37.0009 29.8736 37.0009 29.8736C40.83 28.8139 41.5698 23.4751 37.3508 21.0356C32.012 17.9263 27.3531 22.6653 27.3531 22.6653C27.783 20.8957 27.9129 19.566 27.0331 16.9865C25.8534 13.4773 24.3937 10.3481 23.9938 8.44849C23.5939 10.3481 22.1443 13.4773 20.9745 16.9865C20.1047 19.576 20.2347 20.8957 20.6746 22.6653C20.6746 22.6653 16.0056 17.9463 10.6769 21.0656C6.46781 23.5251 7.22764 28.8538 11.0468 29.9036C11.0468 29.9036 12.0166 25.9245 15.6657 25.9945C18.835 26.0545 20.8146 29.5037 20.9345 29.8536C20.9345 29.8536 19.6048 31.5932 21.3844 33.5128C21.3844 33.5128 19.8248 36.5921 17.4753 33.4528C17.4753 33.4528 15.0659 35.2524 16.0156 37.5719C16.8854 39.6814 20.7546 39.0115 21.7443 38.0118C21.7443 38.0118 21.7743 40.9911 24.0338 43.3506" fill="#231F20"/>
<path d="M33.6117 20.8557C29.2627 20.8557 25.7035 25.7946 25.7035 25.7946C25.8634 24.9848 27.713 21.3556 26.0334 17.0066C24.3538 12.6576 24.0038 10.908 24.0038 10.908V10.9579V10.908C24.0038 10.908 23.6639 12.6576 21.9943 17.0066C20.3247 21.3556 22.1943 24.9848 22.3442 25.7946C22.3442 25.7946 18.765 20.8657 14.416 20.8757C10.067 20.8757 6.44784 25.8246 10.4669 28.7539C10.4669 28.7539 11.6467 25.1047 15.6957 25.0947C18.6751 25.0947 21.6644 28.284 21.7844 29.8736C21.7844 29.8736 20.4247 31.8032 22.3142 33.4128C22.3142 33.4128 20.2647 37.7219 17.4253 34.6226C17.4253 34.6226 15.2358 37.352 18.0952 38.0218C20.3647 38.5417 22.5942 36.2422 22.5942 36.2422C22.5942 36.2422 22.3542 39.8714 24.0338 41.8609C25.7135 39.8714 25.4635 36.2422 25.4635 36.2422C25.4635 36.2422 27.703 38.5417 29.9725 38.0018C32.8318 37.332 30.6323 34.6026 30.6323 34.6026C27.803 37.7119 25.7435 33.4028 25.7435 33.4028C27.633 31.7832 26.2633 29.8637 26.2633 29.8637C26.3833 28.284 29.3626 25.0747 32.342 25.0747C36.391 25.0747 37.5808 28.7239 37.5808 28.7239C41.5899 25.7946 37.9607 20.8557 33.6117 20.8557V20.8557Z" fill="#A7A9AC"/>
</svg>
