<svg width="48" height="48" viewBox="0 0 48 48" fill="none" xmlns="http://www.w3.org/2000/svg">
<path d="M45.4346 15.9534C39.8994 17.259 39.656 14.0529 31.3281 13.4658C20.1224 12.6778 10.7013 17.5603 3.17671 18.186C1.54279 18.3212 1.75524 19.6809 2.9295 19.9127C5.76472 20.5732 8.69265 20.4921 11.3734 20.1328C11.2845 20.3491 11.1918 20.6813 11.4931 20.9363C12.5553 21.8363 16.8198 21.9174 18.6932 21.8092C19.3305 21.7745 20.6863 21.6431 20.6863 21.6431C20.3001 21.6779 19.6936 22.8599 20.9722 23.1921C28.8752 25.4054 32.595 28.9784 36.8633 34.6064C38.5977 34.3862 40.2316 32.2965 39.5363 30.705L39.8839 29.8514L41.1625 29.2604L40.7955 26.4058L42.7423 25.4904C42.7423 25.4904 45.7746 17.3362 45.9522 16.7452C46.1299 16.1504 45.763 15.8877 45.4346 15.965V15.9534Z" fill="white"/>
<path d="M23.5021 17.0775C18.021 17.402 11.4466 20.4998 3.07617 19.117C10.4964 18.1166 16.1514 15.6599 23.0502 14.6826L23.5021 17.0775Z" fill="#C8102E"/>
<path d="M24.4178 20.2448C26.6388 20.0053 28.5972 20.0826 30.7333 21.3843C26.2796 20.9015 24.0971 22.1453 21.3237 22.4234C31.1311 24.996 34.7234 30.4964 37.1531 33.5441C38.8527 32.8218 38.9454 31.3462 38.5127 30.817L38.9492 29.8784L38.9685 29.2758L40.1389 28.7273L39.7681 25.8071L41.9621 24.9071L44.8707 16.95C39.9458 17.9736 38.3505 14.7868 31.3397 14.3504C28.4852 14.1727 25.9126 14.304 23.4984 14.6207L23.8924 17.0581C25.507 17.004 27.0251 17.2088 28.4659 17.8616C26.8822 17.765 25.4568 17.8963 24.0662 18.1513L24.4139 20.241L24.4178 20.2448Z" fill="#0C2340"/>
<path d="M24.0931 20.2797C21.0609 20.6351 17.5458 21.4848 12.4741 20.5269C16.8467 20.4072 20.1184 18.9432 23.7223 18.2247L24.0931 20.2797V20.2797Z" fill="#C8102E"/>
<path d="M31.981 26.9621C34.6308 28.82 35.9943 30.875 37.3733 32.675C38.0763 32.3815 38.2965 31.5664 38.0647 31.2806L37.3965 30.4578L38.1574 30.5042L38.5051 29.8977L37.5587 29.8437L36.4926 30.0368L37.5741 29.2952L38.3969 29.3415L38.4278 28.8741L37.5857 28.4724L37.8754 28.1557L39.4321 28.2522L38.984 24.7912C38.3699 24.7179 37.8523 25.0385 37.6282 25.9269L34.8741 25.7646C35.2604 24.884 35.8668 24.49 37.0141 24.6367C36.3728 23.7367 33.2363 23.6518 32.796 25.0655L35.2295 27.0587L35.5424 28.8818L34.5419 27.4295C33.6419 26.6531 32.6994 26.1046 31.981 26.9659V26.9621Z" fill="#B0B7BC"/>
<path d="M40.1387 18.0315L40.3318 19.7697L42.2902 20.5036L40.4554 20.9633L40.637 23.3079L39.0494 21.3264L36.6738 21.8865L38.1417 20.1792L36.9288 18.5761L38.9567 19.2714L40.1387 18.0315Z" fill="white"/>
</svg>
