<svg width="48" height="48" viewBox="0 0 48 48" fill="none" xmlns="http://www.w3.org/2000/svg">
<path d="M45.4385 15.9536C39.9027 17.2593 39.6593 14.053 31.3306 13.4658C20.124 12.6778 10.702 17.5606 3.17682 18.1864C1.54275 18.3217 1.75522 19.6853 2.92958 19.9132C5.76505 20.5738 8.69324 20.4927 11.3742 20.1334C11.2853 20.3497 11.1926 20.682 11.4939 20.9369C12.5563 21.8409 16.8211 21.9181 18.6946 21.81C19.332 21.7713 20.688 21.6439 20.688 21.6439C20.3017 21.6825 19.6952 22.8607 20.9738 23.1929C28.8776 25.4065 32.5977 28.9798 36.8664 34.6082C38.6009 34.388 40.2349 32.2981 39.5396 30.7066L39.8873 29.8528L41.1659 29.2618L40.7989 26.407L42.7459 25.4876C42.7459 25.4876 45.7784 17.3327 45.9561 16.7417C46.1338 16.1468 45.7668 15.8841 45.4385 15.9613V15.9536Z" fill="white"/>
<path d="M23.5039 17.0778C18.0223 17.4023 11.4474 20.5005 3.07617 19.1175C10.4971 18.117 16.1526 15.6601 23.0519 14.6827L23.5001 17.0778H23.5039Z" fill="#808285"/>
<path d="M24.4195 20.2455C26.6407 20.006 28.5993 20.0832 30.7356 21.3851C26.2815 20.9022 24.0989 22.1461 21.3252 22.4242C31.1334 24.997 34.7261 30.498 37.1559 33.5459C38.8557 32.8235 38.9484 31.3479 38.5157 30.8186L38.9522 29.8799L38.9716 29.2773L40.1421 28.7287L39.7712 25.8083L41.9654 24.9082L44.8743 16.9503C39.9489 17.974 38.3535 14.787 31.3421 14.3505C28.4873 14.1728 25.9145 14.3041 23.5001 14.6209L23.8941 17.0585C25.5089 17.0044 27.027 17.2091 28.468 17.862C26.8841 17.7654 25.4586 17.8968 24.068 18.1517L24.4156 20.2416L24.4195 20.2455Z" fill="#231F20"/>
<path d="M24.0951 20.2802C21.0626 20.6356 17.5473 21.4855 12.4751 20.5275C16.8481 20.4077 20.12 18.9436 23.7243 18.2251L24.0951 20.2802V20.2802Z" fill="#808285"/>
<path d="M31.9834 26.9633C34.6334 28.8214 35.9971 30.8766 37.3762 32.6768C38.0792 32.3832 38.2994 31.5681 38.0676 31.2822L37.3993 30.4594L38.1604 30.5057L38.508 29.8992L37.5616 29.8451L36.4954 30.0383L37.577 29.2966L38.3999 29.343L38.4308 28.8755L37.5886 28.4738L37.8783 28.157L39.4313 28.2536L38.9832 24.7923C38.369 24.715 37.8513 25.0395 37.6273 25.928L34.8729 25.7658C35.2592 24.885 35.8657 24.491 37.013 24.6378C36.3718 23.7377 33.235 23.6527 32.7946 25.0666L35.2283 27.0599L35.5412 28.8833L34.5407 27.4308C33.6406 26.6543 32.698 26.1057 31.9795 26.9672L31.9834 26.9633Z" fill="#BCBEC0"/>
<path d="M40.1424 18.032L40.3355 19.7703L42.2941 20.5043L40.4592 20.964L40.6407 23.3089L39.0492 21.3272L36.6772 21.8873L38.1452 20.1798L36.9322 18.5767L38.9603 19.272L40.1424 18.032Z" fill="white"/>
</svg>
