<svg width="48" height="48" viewBox="0 0 48 48" fill="none" xmlns="http://www.w3.org/2000/svg">
<path d="M24.9499 28.6499C24.8699 28.6499 24.7899 28.6499 24.7099 28.6499C24.6899 28.6699 24.6699 28.6999 24.6499 28.7199C24.6799 29.1599 24.6799 29.5999 24.6499 30.0399C24.6699 30.0599 24.6899 30.0899 24.7099 30.1099C24.7899 30.1099 24.8699 30.1099 24.9499 30.1099C24.9799 30.0899 24.9999 30.0599 25.0299 30.0399C25.0799 29.5999 25.0799 29.1699 25.0299 28.7299C24.9999 28.7099 24.9799 28.6799 24.9499 28.6599V28.6499Z" fill="#4D4D4D"/>
<path d="M23.3897 28.64C23.3097 28.64 23.2297 28.64 23.1497 28.64C23.1197 28.66 23.0997 28.69 23.0697 28.71C23.0197 29.15 23.0197 29.58 23.0697 30.02C23.0997 30.04 23.1197 30.07 23.1497 30.09C23.2297 30.09 23.3097 30.09 23.3897 30.09C23.4097 30.07 23.4297 30.04 23.4497 30.02C23.4197 29.58 23.4197 29.14 23.4497 28.7C23.4297 28.68 23.4097 28.65 23.3897 28.63V28.64Z" fill="#4D4D4D"/>
<path d="M24.17 28.64C24.09 28.64 24.01 28.64 23.93 28.64C23.91 28.66 23.88 28.69 23.86 28.71C23.85 29.15 23.85 29.6 23.86 30.04C23.88 30.06 23.91 30.09 23.93 30.11C24.01 30.11 24.09 30.11 24.17 30.11C24.19 30.09 24.22 30.06 24.24 30.04C24.25 29.6 24.25 29.15 24.24 28.71C24.22 28.69 24.19 28.66 24.17 28.64Z" fill="#4D4D4D"/>
<path d="M27.69 19.49C27.77 19.49 27.84 19.47 27.89 19.42C27.94 19.38 27.99 19.31 28.04 19.22L28.33 18.69C28.37 18.61 28.39 18.55 28.39 18.49C28.39 18.4 28.33 18.35 28.22 18.35C28.14 18.35 28.08 18.37 28.02 18.41C27.97 18.45 27.92 18.52 27.87 18.62L27.58 19.15C27.54 19.23 27.52 19.29 27.52 19.35C27.52 19.44 27.58 19.49 27.69 19.49Z" fill="#4D4D4D"/>
<path d="M44.72 23.0199C43.97 20.5399 40.74 17.5899 36.05 15.1299C31.91 12.9499 27.02 12.1799 24.07 12.1799C24.05 12.1799 24.04 12.1799 24.02 12.1799H23.98C23.98 12.1799 23.95 12.1799 23.93 12.1799C20.98 12.1799 16.09 12.9499 11.95 15.1299C7.26001 17.5999 4.03001 20.5499 3.28001 23.0199C3.22001 23.3799 3.18001 23.7399 3.19001 24.1099V24.1199C3.19001 24.4899 3.22001 24.8599 3.28001 25.2099C4.03001 27.6899 7.26001 30.6399 11.95 33.0999C16.12 35.2899 21.04 36.0599 23.98 36.0499H24.02C24.02 36.0499 24.05 36.0499 24.07 36.0499C27.02 36.0499 31.91 35.2799 36.05 33.0999C40.73 30.6399 43.97 27.6899 44.72 25.2099C44.78 24.8499 44.81 24.4899 44.81 24.1199C44.81 23.7399 44.78 23.3699 44.72 23.0199V23.0199ZM35.01 17.8699L34.5 18.8199L35.54 17.8699H36.71L35.55 18.8899L35.68 19.9599H34.44L34.38 19.0299L33.89 19.9599H32.6L33.71 17.8699H35H35.01ZM32.29 17.8699C32.55 17.8699 32.73 17.9199 32.83 18.0199C32.9 18.0899 32.94 18.1999 32.94 18.3299C32.94 18.5299 32.87 18.7099 32.72 18.8499C32.64 18.9299 32.56 18.9799 32.48 19.0199C32.41 19.0499 32.3 19.0799 32.16 19.0999C32.36 19.1599 32.46 19.2599 32.46 19.3899C32.46 19.4599 32.43 19.5499 32.38 19.6399L32.21 19.9599H30.95L31.17 19.5499C31.2 19.4999 31.21 19.4499 31.21 19.4099C31.21 19.3199 31.15 19.2799 31.04 19.2799H30.86L30.5 19.9599H29.24L30.35 17.8699H32.29V17.8699ZM29.32 17.9699C29.52 18.0699 29.63 18.2199 29.63 18.4099C29.63 18.5599 29.58 18.7299 29.48 18.9299C29.33 19.2299 29.18 19.4499 29.04 19.5999C28.77 19.8699 28.3 19.9999 27.63 19.9999C27.15 19.9999 26.81 19.9499 26.59 19.8399C26.38 19.7399 26.28 19.5899 26.28 19.3999C26.28 19.2499 26.33 19.0799 26.43 18.8799C26.58 18.5799 26.73 18.3599 26.87 18.2099C27.14 17.9399 27.61 17.8099 28.28 17.8099C28.76 17.8099 29.1 17.8599 29.32 17.9699V17.9699ZM23.86 17.8699H25.13L25.11 18.5199L25.75 17.8699H26.92L25.25 19.3099L24.9 19.9599H23.58L23.95 19.2699L23.86 17.8599V17.8699ZM19.73 17.8699L19.48 18.8399L20.2 17.8699H21.39L21.11 18.8499L21.86 17.8699H23L21.13 19.9599H19.87L20.06 19.1499L19.37 19.9599H18.11L18.5 17.8699H19.71H19.73ZM18.3 17.8699L18.02 18.3999H16.75L16.61 18.6499H17.8L17.53 19.1599H16.35L16.2 19.4199H17.52L17.24 19.9499H14.71L15.82 17.8599H18.31L18.3 17.8699ZM12.5 17.8699H13.65L13.85 18.7699L14.31 17.8699H15.33L14.22 19.9599H13.13L12.92 18.9899L12.42 19.9599H11.4L12.51 17.8699H12.5ZM11.43 27.5699C9.12001 27.5699 8.16001 27.0199 8.16001 25.9799C8.16001 25.4499 8.29001 25.0799 8.60001 24.4999L8.96001 23.8099H11.95L11.21 25.2299C11.12 25.4099 11.04 25.6099 11.04 25.7499C11.04 25.9499 11.14 26.0999 11.4 26.0999C11.79 26.0999 11.98 25.8399 12.24 25.3599L14.14 21.7299H17.65L16.06 24.7699C15.61 25.6199 15.32 26.0999 14.87 26.5499C14.2 27.2199 13.08 27.5699 11.42 27.5699H11.43ZM18.24 21.7399H25.01L24.24 23.1799H20.78L20.39 23.8699H23.89L23.15 25.2599H19.66L19.26 25.9799H22.84L22.82 26.0099C22.24 26.1099 21.51 26.3099 20.8 26.6799C20.36 26.9099 19.97 27.1599 19.64 27.4099H15.21L18.24 21.7199V21.7399ZM25.43 30.0199C25.43 30.0199 25.47 30.0599 25.49 30.0899C25.57 30.0899 25.65 30.0899 25.73 30.0899C25.76 30.0699 25.79 30.0399 25.81 30.0199C25.84 29.8899 25.86 29.7499 25.87 29.6199C26.12 29.6199 26.38 29.6199 26.63 29.5999C27.45 29.5799 28.28 29.5499 29.1 29.4899L29.24 29.6599C29.05 30.2899 28.27 31.0499 27.03 31.6899C25.91 32.2799 24.65 32.4299 24.02 32.4299C24.02 32.4299 24.01 32.4299 24 32.4299C23.36 32.4299 22.1 32.2799 20.98 31.6799C19.75 31.0299 18.97 30.2799 18.78 29.6499L18.92 29.4799C19.74 29.5399 20.56 29.5699 21.39 29.5899C21.67 29.5899 21.96 29.5999 22.24 29.6099C22.25 29.7399 22.27 29.8799 22.3 30.0099C22.33 30.0299 22.36 30.0599 22.38 30.0799C22.46 30.0799 22.54 30.0799 22.62 30.0799C22.64 30.0599 22.66 30.0399 22.68 30.0099C22.61 29.5799 22.61 29.1499 22.68 28.7199C22.66 28.6999 22.64 28.6799 22.62 28.6499C22.54 28.6499 22.46 28.6499 22.38 28.6499C22.35 28.6699 22.32 28.6999 22.3 28.7199C22.27 28.8499 22.25 28.9899 22.24 29.1199C21.96 29.1199 21.67 29.1199 21.39 29.1399C20.57 29.1599 19.75 29.1899 18.92 29.2499L18.77 29.0699C18.77 29.0699 18.77 29.0399 18.77 29.0199C18.96 28.3899 19.74 27.6299 20.98 26.9799C22.1 26.3899 23.37 26.2299 24 26.2299C24 26.2299 24.01 26.2299 24.02 26.2299C24.66 26.2299 25.92 26.3799 27.03 26.9699C28.27 27.6199 29.05 28.3699 29.24 28.9999C29.24 29.0199 29.24 29.0399 29.24 29.0599L29.09 29.2399C28.27 29.1799 27.44 29.1499 26.62 29.1299C26.37 29.1299 26.11 29.1199 25.86 29.1099C25.85 28.9799 25.83 28.8399 25.8 28.7099C25.77 28.6899 25.74 28.6599 25.72 28.6399C25.64 28.6399 25.56 28.6399 25.48 28.6399C25.46 28.6599 25.44 28.6799 25.42 28.7099C25.49 29.1399 25.49 29.5699 25.42 29.9999L25.43 30.0199ZM28.17 27.2799C27.88 27.0799 27.56 26.8799 27.2 26.6899C26.51 26.3299 25.81 26.1399 25.24 26.0299L26.75 23.1899H24.82L25.6 21.7399H32.87L32.09 23.1899H30.35L28.17 27.2799V27.2799ZM39.69 23.6499H36.89C36.96 23.5099 37.01 23.3899 37.01 23.2299C37.01 23.0299 36.78 22.8799 36.37 22.8799C35.86 22.8799 35.6 23.0899 35.6 23.3199C35.6 23.5199 35.83 23.5999 37.04 23.8799C38.25 24.1699 38.68 24.4299 38.68 25.0899C38.68 25.6299 38.44 26.1699 37.98 26.6299C37.4 27.2099 36.53 27.5699 34.38 27.5699C31.83 27.5699 31.09 27.1499 31.09 26.2799C31.09 26.0199 31.15 25.7499 31.29 25.4599H34.14C34.06 25.6299 34.02 25.7599 34.02 25.9299C34.02 26.1499 34.23 26.2899 34.67 26.2899C35.16 26.2899 35.45 26.1099 35.45 25.8099C35.45 25.5299 35.2 25.4699 33.92 25.1499C32.72 24.8499 32.38 24.6099 32.38 23.9699C32.38 23.5399 32.62 22.9999 33.06 22.5599C33.69 21.9299 34.56 21.5999 36.66 21.5999C38.99 21.5999 39.84 21.9699 39.84 22.8599C39.84 23.1599 39.79 23.3999 39.67 23.6599L39.69 23.6499Z" fill="#4D4D4D"/>
<path d="M31.5403 18.7199L31.5903 18.6199C31.5903 18.6199 31.6203 18.5399 31.6203 18.4999C31.6203 18.4299 31.5803 18.3999 31.4903 18.3999H31.3003L31.0303 18.8899H31.2703C31.3803 18.8899 31.4603 18.8299 31.5303 18.7099L31.5403 18.7199Z" fill="#4D4D4D"/>
<path d="M30.49 19.97L30.85 19.29H31.03C31.15 19.29 31.2 19.33 31.2 19.42C31.2 19.46 31.19 19.51 31.16 19.56L30.94 19.97H32.2L32.37 19.65C32.42 19.55 32.45 19.47 32.45 19.4C32.45 19.27 32.35 19.17 32.15 19.11C32.29 19.09 32.39 19.06 32.47 19.03C32.55 18.99 32.63 18.93 32.71 18.86C32.85 18.72 32.93 18.54 32.93 18.34C32.93 18.21 32.89 18.1 32.82 18.03C32.72 17.93 32.54 17.88 32.28 17.88H30.34L29.23 19.97H30.49V19.97ZM31.31 18.41H31.5C31.59 18.41 31.63 18.44 31.63 18.51C31.63 18.54 31.62 18.58 31.6 18.63L31.55 18.73C31.49 18.85 31.4 18.91 31.29 18.91H31.05L31.32 18.42L31.31 18.41ZM19.39 19.97L20.08 19.16L19.89 19.97H21.15L23.02 17.88H21.88L21.13 18.86L21.41 17.88H20.22L19.5 18.85L19.75 17.88H18.54L18.15 19.97H19.41H19.39ZM26.43 18.9C26.33 19.1 26.28 19.28 26.28 19.42C26.28 19.62 26.38 19.77 26.59 19.86C26.81 19.96 27.15 20.02 27.63 20.02C28.3 20.02 28.77 19.89 29.04 19.62C29.19 19.47 29.34 19.25 29.48 18.95C29.58 18.75 29.63 18.57 29.63 18.43C29.63 18.23 29.53 18.08 29.32 17.99C29.1 17.89 28.75 17.83 28.28 17.83C27.61 17.83 27.14 17.96 26.87 18.23C26.72 18.38 26.57 18.6 26.43 18.9V18.9ZM27.58 19.16L27.87 18.63C27.92 18.54 27.97 18.47 28.02 18.42C28.07 18.38 28.14 18.36 28.22 18.36C28.33 18.36 28.39 18.41 28.39 18.5C28.39 18.55 28.37 18.62 28.33 18.7L28.04 19.23C27.99 19.32 27.94 19.39 27.89 19.43C27.84 19.47 27.77 19.5 27.69 19.5C27.58 19.5 27.52 19.45 27.52 19.36C27.52 19.31 27.54 19.24 27.58 19.16ZM24.91 19.97L25.26 19.32L26.93 17.88H25.76L25.12 18.53L25.14 17.88H23.87L23.96 19.29L23.59 19.98H24.91V19.97ZM17.22 19.97L17.5 19.44H16.18L16.33 19.18H17.51L17.78 18.67H16.59L16.73 18.42H18L18.28 17.89H15.79L14.68 19.98H17.21L17.22 19.97ZM33.89 19.97L34.38 19.04L34.44 19.97H35.68L35.55 18.9L36.71 17.88H35.54L34.5 18.83L35.01 17.88H33.72L32.61 19.97H33.9H33.89ZM32.86 21.74H25.59L24.81 23.19H26.74L25.23 26.03C25.8 26.13 26.51 26.33 27.19 26.69C27.55 26.88 27.87 27.08 28.16 27.28L30.34 23.19H32.08L32.86 21.74V21.74ZM12.9 19L13.11 19.97H14.2L15.31 17.88H14.29L13.83 18.78L13.63 17.88H12.48L11.37 19.97H12.39L12.89 19H12.9ZM45.88 22.78V22.72C45.03 19.89 41.66 16.74 36.6 14.09C32.27 11.81 27.16 11 24.07 11C24.05 11 24.03 11 24.02 11H23.98C23.98 11 23.95 11 23.93 11C20.84 11 15.73 11.81 11.39 14.09C6.34 16.74 2.96 19.89 2.13 22.72V22.78C2.04 23.22 2 23.67 2 24.12C2 24.57 2.03 25.03 2.12 25.47V25.53C2.97 28.36 6.34 31.51 11.4 34.16C15.74 36.44 20.85 37.25 23.93 37.25C23.95 37.25 23.97 37.25 23.98 37.25H24.02C24.02 37.25 24.05 37.25 24.07 37.25C27.16 37.25 32.27 36.44 36.61 34.16C41.66 31.5 45.04 28.36 45.87 25.53V25.47C45.97 25.03 46.01 24.58 46 24.12C46 23.67 45.96 23.21 45.88 22.77V22.78ZM44.81 24.13C44.81 24.5 44.78 24.87 44.72 25.22C43.97 27.7 40.74 30.65 36.05 33.11C31.91 35.29 27.02 36.06 24.07 36.06C24.05 36.06 24.04 36.06 24.02 36.06H23.98C21.03 36.06 16.12 35.3 11.95 33.11C7.27 30.65 4.03 27.7 3.28 25.22C3.22 24.86 3.18 24.5 3.19 24.13V24.12C3.19 23.75 3.22 23.38 3.28 23.03C4.03 20.55 7.26 17.6 11.95 15.14C16.09 12.96 20.98 12.19 23.93 12.19C23.95 12.19 23.96 12.19 23.98 12.19H24.02C24.02 12.19 24.05 12.19 24.07 12.19C27.02 12.19 31.91 12.96 36.05 15.14C40.73 17.6 43.97 20.55 44.72 23.03C44.78 23.39 44.81 23.75 44.81 24.12V24.13ZM25.72 28.68C25.72 28.68 25.78 28.73 25.8 28.75C25.83 28.88 25.85 29.02 25.86 29.15C26.11 29.15 26.37 29.15 26.62 29.17C27.44 29.19 28.27 29.22 29.09 29.28L29.24 29.1C29.24 29.1 29.24 29.06 29.24 29.04C29.05 28.41 28.27 27.65 27.03 27.01C25.91 26.42 24.65 26.27 24.02 26.27C24.02 26.27 24.01 26.27 24 26.27C23.36 26.27 22.1 26.42 20.98 27.02C19.74 27.67 18.96 28.43 18.77 29.06C18.77 29.08 18.77 29.09 18.77 29.11L18.92 29.29C19.74 29.23 20.56 29.2 21.39 29.18C21.67 29.18 21.96 29.17 22.24 29.16C22.25 29.03 22.27 28.89 22.3 28.76C22.33 28.74 22.36 28.71 22.38 28.69C22.46 28.69 22.54 28.69 22.62 28.69C22.64 28.71 22.66 28.73 22.68 28.76C22.61 29.19 22.61 29.62 22.68 30.05C22.66 30.07 22.64 30.09 22.62 30.12C22.54 30.12 22.46 30.12 22.38 30.12C22.35 30.1 22.32 30.07 22.3 30.05C22.27 29.92 22.25 29.78 22.24 29.65C21.96 29.65 21.67 29.65 21.39 29.63C20.57 29.61 19.75 29.58 18.92 29.52L18.78 29.69C18.97 30.32 19.75 31.07 20.98 31.72C22.1 32.31 23.37 32.47 24 32.47C24 32.47 24.01 32.47 24.02 32.47C24.66 32.47 25.92 32.32 27.03 31.73C28.27 31.08 29.05 30.33 29.24 29.7L29.1 29.53C28.28 29.59 27.45 29.62 26.63 29.64C26.38 29.64 26.12 29.65 25.87 29.66C25.86 29.79 25.84 29.93 25.81 30.06C25.78 30.08 25.75 30.11 25.73 30.13C25.65 30.13 25.57 30.13 25.49 30.13C25.47 30.11 25.45 30.09 25.43 30.06C25.5 29.63 25.5 29.2 25.43 28.77C25.45 28.75 25.47 28.73 25.49 28.7C25.57 28.7 25.65 28.7 25.73 28.7L25.72 28.68ZM23.44 30.05C23.44 30.05 23.4 30.1 23.38 30.12C23.3 30.12 23.22 30.12 23.14 30.12C23.11 30.1 23.09 30.07 23.06 30.05C23.01 29.61 23.01 29.18 23.06 28.74C23.09 28.72 23.11 28.69 23.14 28.67C23.22 28.67 23.3 28.67 23.38 28.67C23.4 28.69 23.42 28.72 23.44 28.74C23.41 29.18 23.41 29.62 23.44 30.06V30.05ZM24.23 30.05C24.23 30.05 24.18 30.1 24.16 30.12C24.08 30.12 24 30.12 23.92 30.12C23.9 30.1 23.87 30.07 23.85 30.05C23.84 29.61 23.84 29.16 23.85 28.72C23.87 28.7 23.9 28.67 23.92 28.65C24 28.65 24.08 28.65 24.16 28.65C24.18 28.67 24.21 28.7 24.23 28.72C24.24 29.16 24.24 29.61 24.23 30.05V30.05ZM25.02 30.05C25.02 30.05 24.97 30.1 24.94 30.12C24.86 30.12 24.78 30.12 24.7 30.12C24.68 30.1 24.66 30.07 24.64 30.05C24.67 29.61 24.67 29.17 24.64 28.73C24.66 28.71 24.68 28.68 24.7 28.66C24.78 28.66 24.86 28.66 24.94 28.66C24.97 28.68 24.99 28.71 25.02 28.73C25.07 29.17 25.07 29.6 25.02 30.04V30.05ZM36.67 21.61C34.57 21.61 33.7 21.94 33.07 22.57C32.63 23.01 32.39 23.55 32.39 23.98C32.39 24.63 32.73 24.86 33.93 25.16C35.21 25.48 35.46 25.55 35.46 25.82C35.46 26.12 35.17 26.3 34.68 26.3C34.24 26.3 34.03 26.16 34.03 25.94C34.03 25.77 34.07 25.64 34.15 25.47H31.3C31.15 25.77 31.1 26.03 31.1 26.29C31.1 27.17 31.84 27.58 34.39 27.58C36.54 27.58 37.41 27.22 37.99 26.64C38.45 26.18 38.69 25.63 38.69 25.1C38.69 24.44 38.26 24.18 37.05 23.89C35.84 23.6 35.61 23.53 35.61 23.33C35.61 23.1 35.87 22.89 36.38 22.89C36.79 22.89 37.02 23.04 37.02 23.24C37.02 23.41 36.97 23.53 36.9 23.66H39.7C39.82 23.39 39.87 23.16 39.87 22.86C39.87 21.97 39.02 21.6 36.69 21.6L36.67 21.61ZM17.66 21.76H14.15L12.25 25.39C11.99 25.87 11.8 26.13 11.41 26.13C11.15 26.13 11.05 25.98 11.05 25.78C11.05 25.64 11.12 25.44 11.22 25.26L11.96 23.84H8.97L8.61 24.53C8.3 25.1 8.17 25.48 8.17 26.01C8.17 27.04 9.13 27.6 11.44 27.6C13.1 27.6 14.22 27.26 14.89 26.58C15.34 26.13 15.63 25.65 16.08 24.8L17.67 21.76H17.66ZM20.8 26.72C21.51 26.34 22.24 26.15 22.82 26.05L22.84 26.02H19.26L19.66 25.3H23.15L23.89 23.91H20.39L20.78 23.22H24.24L25.01 21.78H18.24L15.21 27.47H19.64C19.97 27.21 20.36 26.97 20.8 26.74V26.72Z" fill="white"/>
</svg>
