<svg width="48" height="48" viewBox="0 0 48 48" fill="none" xmlns="http://www.w3.org/2000/svg">
<path d="M43.0002 32.1707L42.9812 9.23767H36.6257V22.5852C36.6257 22.7467 36.6257 22.9082 36.6162 23.0602C36.6162 23.1267 36.6162 23.1837 36.6067 23.2407C36.5497 23.7252 36.2552 24.1432 35.8372 24.3807C35.5902 24.5232 35.3147 24.5992 35.0107 24.5992C34.1367 24.5992 33.3957 23.9342 33.3957 23.0982V9.23767H24.6082V14.4342H26.2327C26.6697 14.4342 27.0212 14.7857 27.0212 15.2227V18.1107V21.9012V25.3877C27.1257 27.0597 28.1232 28.5892 29.3867 29.3112C30.6597 30.3182 33.7472 30.7742 35.4097 30.1947C35.4097 30.1947 36.1792 29.9477 36.6162 29.6627V30.9547C36.6162 31.2587 36.5972 31.4582 36.5117 31.6957C36.3027 32.1517 35.8372 32.3892 35.0962 32.4082H7.90723V38.4502H37.3572C38.2502 38.4027 39.0957 38.2982 39.8082 38.0987C40.7772 37.8042 43.0002 36.7592 43.0002 33.4722C43.0002 33.4247 43.0002 32.2182 43.0002 32.1707V32.1707Z" fill="#565656"/>
<path d="M29.8048 28.5512L29.8618 28.5892L29.9092 28.6272C30.9637 29.4537 33.7283 29.8527 35.0963 29.3682H35.1247C35.3812 29.2827 35.8658 29.0927 36.1033 28.9312L37.4713 28.0192V30.9547C37.4713 31.3157 37.4428 31.6102 37.3193 31.9807V32.0187L37.2908 32.0567C37.0438 32.5982 36.4547 33.2442 35.0772 33.2822H8.78125V37.5762C10.4247 37.5762 37.2717 37.5762 37.3287 37.5762C38.1552 37.5382 38.9247 37.4432 39.5517 37.2722C40.5112 36.9777 42.1167 36.0942 42.1167 33.4817C42.1167 33.4817 42.0977 11.7457 42.0977 10.1212H37.4903V23.1077L37.4617 23.3357V23.3642C37.3667 24.1052 36.9108 24.7702 36.2553 25.1597C35.8753 25.3782 35.4287 25.5017 34.9917 25.5017C34.3172 25.5017 33.6523 25.2357 33.1868 24.7607C32.7498 24.3142 32.5028 23.7442 32.5028 23.1362C32.5028 23.1362 32.5028 11.6697 32.5028 10.1307H25.4727V13.5792H26.2138C27.1353 13.5792 27.8763 14.3297 27.8763 15.2417V18.1297V21.9202V25.3687C27.9618 26.6797 28.7313 27.9622 29.7953 28.5702L29.8048 28.5512Z" fill="white"/>
<path d="M24.2945 24.9887C23.8575 24.9887 23.506 24.6372 23.506 24.2002V24.0957C23.506 24.0957 23.506 24.0767 23.506 24.0672C23.506 23.8867 23.506 23.6967 23.506 23.5067V19.7162C23.506 19.2602 23.506 18.9752 23.506 18.9752V17.7782V13.2752C23.506 13.1422 23.4775 12.9427 23.4205 12.7052C23.335 12.2967 23.1545 11.7647 22.7935 11.2422C22.043 10.1497 21.093 9.5512 19.8105 9.2187C17.787 8.7057 15.602 9.1142 14.12 10.2447V9.2377H5V14.4437H7.1185C7.5555 14.4437 7.907 14.7952 7.907 15.2322V30.0237H14.12V16.0587C14.12 15.2322 14.823 14.5577 15.6875 14.5577C16.552 14.5577 17.236 15.2132 17.255 16.0207V27.2972C17.255 27.6297 17.312 27.9432 17.426 28.2282C17.806 29.2542 18.7845 29.9762 19.9435 29.9762H25.767V24.9792H25.6435H24.2945V24.9887Z" fill="#565656"/>
<path d="M22.6225 24.2002V24.1147V24.0767V23.4972V19.7067C22.6225 19.7067 22.6225 18.9657 22.6225 18.9562V17.7687C22.6225 17.7687 22.6225 13.3987 22.6225 13.3037C22.6225 13.2657 22.556 12.8762 22.556 12.8762C22.461 12.4487 22.2995 12.0592 22.062 11.7172C21.4635 10.8432 20.7225 10.3397 19.592 10.0452C17.825 9.59867 15.9345 9.93117 14.652 10.9192L13.246 12.0022V10.1117H5.87402C5.87402 11.0807 5.87402 12.6007 5.87402 13.5697H7.11852C8.04002 13.5697 8.78102 14.3202 8.78102 15.2322V29.1497H13.2365V16.2012V16.0587C13.2365 14.7477 14.329 13.6837 15.678 13.6837C17.027 13.6837 18.091 14.7287 18.1195 16.0302V27.3067C18.1195 27.5157 18.1575 27.7342 18.2335 27.9337C18.4995 28.6367 19.174 29.1117 19.9245 29.1117H24.874V25.8627H24.2755C23.354 25.8627 22.613 25.1122 22.613 24.2002H22.6225Z" fill="white"/>
</svg>
