<svg width="48" height="48" viewBox="0 0 48 48" fill="none" xmlns="http://www.w3.org/2000/svg">
<path d="M24.0476 4.00856C18.931 8.63743 12.2572 8.50053 5.40377 7.63636C3.93211 24.4321 9.68184 41.0053 23.9364 44C38.3278 41.1166 44.0177 24.5775 42.623 7.77326C36.2401 8.41497 29.6348 8.68021 24.0391 4L24.0476 4.00856Z" fill="white"/>
<path d="M24.0223 5.64282C19.7614 9.10806 13.0448 9.97223 6.62768 9.03106C5.66939 24.3466 10.6662 39.3027 23.894 42.7594C37.1389 39.3797 42.2726 24.4835 41.3999 9.16796C34.8544 9.90379 28.2662 9.13373 24.0223 5.65138V5.64282Z" fill="black"/>
<path d="M29.1128 32.0386C28.9588 32.5092 28.7192 32.9798 28.5737 33.1851C28.5737 33.1851 28.7705 33.5445 28.839 33.8953C29.8657 34.691 31.0037 35.4268 33.8871 34.7252C33.3737 34.5712 30.1481 32.9626 29.3181 32.1755L29.1042 32.03L29.1128 32.0386Z" fill="white"/>
<path d="M18.4778 32.4834C18.4778 32.4834 18.9569 33.2449 19.1281 33.3476C19.1281 33.3476 19.3334 33.5358 19.2564 34.1775C18.0928 35.0502 15.2607 35.401 13.8232 34.8363C13.8232 34.8363 17.297 33.4674 18.2553 32.6032L18.4778 32.4834Z" fill="white"/>
<path d="M27.4698 32.2011C27.4014 32.2695 27.3415 32.3466 27.273 32.415C27.2474 32.4407 27.2217 32.4834 27.1875 32.5091C27.1105 32.569 27.0335 32.6289 26.9479 32.6802C26.8624 32.7401 26.7939 32.8941 26.8709 32.9626C26.9394 33.0225 27.0591 33.0824 27.1447 32.9626C27.1875 32.8941 27.2816 32.8856 27.3329 32.8342C27.4784 32.6974 27.5896 32.5262 27.6324 32.3209C27.6495 32.2524 27.5811 32.2182 27.5383 32.1669C27.5468 32.2268 27.4698 32.2096 27.4698 32.2524C27.4698 32.2353 27.4698 32.2268 27.4698 32.2097V32.2011Z" fill="white"/>
<path d="M20.1035 32.4149C20.189 32.6459 20.3773 32.74 20.4372 32.8342C20.5313 32.9796 20.5741 33.1336 20.6596 33.2791C20.5056 33.3646 20.3944 33.6128 20.2404 33.5358C20.1634 33.5015 20.1462 33.339 20.0949 33.2278C19.9837 32.9454 20.1377 32.7058 20.0949 32.4149H20.1035Z" fill="white"/>
<path d="M22.8752 16.1241C21.1383 16.1241 19.3415 16.5605 18.7939 18.2204C18.7939 18.2204 17.8784 21.5744 17.9383 22.0963C17.4506 22.2418 16.4666 22.7124 16.7661 25.3905C16.7661 25.3905 17.8185 30.1905 18.2976 31.1316L18.6057 31.1487C18.6057 31.1487 18.8795 30.8578 18.8281 31.8161C18.8281 31.8161 18.6656 32.3723 19.1704 32.706C19.1704 32.706 19.3672 31.9017 19.4955 33.1167C19.5212 34.2974 19.8891 35.5295 21.6089 36.753C21.6089 36.753 22.4217 36.2311 22.5073 36.1883C22.5073 36.1883 21.3094 35.7348 20.6934 35.0503C20.6934 35.0503 20.8645 35.8889 20.18 34.9391C20.18 34.9391 19.8463 34.614 19.6581 32.4322C19.6752 32.1327 19.6324 32.0814 19.3843 31.7648C18.4345 29.8311 17.6816 25.3648 19.4613 23.7135C21.3436 23.5937 25.8271 23.491 27.5041 23.799C28.1886 23.9616 28.5308 24.184 28.6848 25.3733C29.0185 26.8707 28.796 29.8653 28.0174 32.261C28.0174 32.261 27.9062 32.7744 27.6324 33.0225C27.4099 33.1423 26.5971 33.707 26.2035 34.5626C26.0581 34.8621 25.7329 35.1445 25.2025 35.384C24.6634 35.7006 22.6784 36.2054 23.457 37.0782C23.457 37.0782 23.2345 37.1808 22.8324 37.2921C22.8324 37.2921 22.9351 37.7798 23.1575 37.7028C23.1575 37.7028 23.5597 37.5487 23.7051 37.2921C24.8773 37.4375 26.3661 37.1723 27.2816 36.3509C27.641 36.1113 28.3169 35.7947 28.3939 35.1616C28.3939 35.1616 28.7789 34.4429 28.1458 33.2364C28.3853 32.8086 28.7789 32.0044 28.719 31.3969C28.7447 31.3626 30.764 29.0439 31.0121 25.861C31.0121 25.861 30.7297 23.9872 30.8067 25.7755C30.8067 25.7755 30.7811 26.0921 30.6014 26.9905C30.6014 26.9905 30.2249 28.3766 30.4303 27.0503C30.4303 27.0503 30.5073 24.937 30.2591 23.0461C30.2591 23.0461 30.1992 22.3445 30.5757 23.3626C30.6271 23.5509 30.5158 23.1316 30.5158 23.1316C30.5158 23.1316 30.6955 24.4236 30.7468 23.5081C30.5158 22.4386 30.4559 22.1733 30.1394 22.0621C29.9426 20.4878 29.3522 18.9562 29.3522 18.9562L29.2067 19.1274C29.7458 20.6161 30.088 25.5616 29.9597 26.9819C29.9597 26.9819 29.6174 29.7798 29.318 29.5915C29.318 29.5915 29.7971 24.8685 29.5832 23.1145C29.4805 20.8899 29.164 20.3509 29.0356 19.4696C29.0356 19.4696 28.334 17.63 29.0613 18.6311L29.1468 18.5712C28.5222 16.9712 27.5811 16.1926 24.7404 16.1327L25.1255 23.0803H22.5672L22.8495 16.1327L22.8752 16.1241Z" fill="#ABABAB"/>
<path d="M19.6411 25.1936C19.6411 25.1936 20.2143 25.0995 20.2058 25.0995C20.8389 25.0995 22.3192 25.0995 22.6357 25.2193C22.7983 25.2877 23.0892 25.1337 23.2347 25.0738C23.7651 24.8599 23.8336 24.8171 24.3983 24.4834C24.4924 24.4321 25.1512 24.03 25.0315 24.0129C23.4913 23.8417 20.3598 23.8674 19.7352 24.0471C19.7352 24.0471 19.47 24.0899 19.4015 24.1754C19.1106 24.5006 19.1705 24.5262 18.9651 24.9797C19.0935 24.6888 18.8967 25.3476 18.8796 25.4075C18.8282 25.5786 19.1192 25.5701 19.179 25.4845C19.2903 25.3391 19.3074 25.1679 19.6411 25.185V25.1936Z" fill="white"/>
<path d="M28.2141 29.9507C28.1457 30.2844 28.1029 30.6267 27.9916 30.9433C27.889 31.2342 27.8376 31.4395 27.4697 31.7475C27.3927 31.1144 27.213 30.7978 27.2473 30.5582C26.9991 30.6523 27.0334 31.0203 27.0077 31.354C26.9649 31.8844 27.1104 32.278 27.0761 32.1154C27.0933 32.1925 26.8879 32.3379 26.8195 32.4491C26.5884 32.8085 26.3403 33.1422 26.0323 33.4331C25.9895 33.4759 25.9724 33.5614 25.9296 33.5871C25.7585 33.6641 25.7157 33.7668 25.613 33.8866C25.5275 33.9807 25.3136 34.0577 25.2023 34.1176C25.1339 34.1604 24.92 34.2117 24.8601 34.2288C24.7318 34.2545 24.612 34.2545 24.4152 34.2374C24.2269 34.2288 23.9703 33.9978 23.7649 33.9465C23.1745 33.801 23.0376 34.34 22.1136 34.1433C21.7371 34.0577 21.6601 33.8096 21.4205 33.5443C21.3777 33.493 21.1467 33.2192 21.1125 33.1764C21.2066 33.2791 20.4793 32.5946 20.3424 32.0727C20.1884 31.4823 20.2654 31.4395 20.3424 30.9433C20.3681 30.755 20.3339 30.293 20.1628 30.2588C20.0002 30.4213 20.12 30.5411 20.0687 30.7807C20.0259 31.0117 20.2398 31.0203 20.0687 31.5422C20.0259 31.6876 19.9403 31.6534 19.8975 31.5507C19.7264 31.1828 19.812 30.3786 19.4269 30.062C19.3414 29.9935 19.3328 29.7711 19.4098 29.7197C19.5296 29.6342 19.6494 29.7711 19.8034 29.7368C19.8291 29.7368 19.812 29.54 19.7949 29.5229C19.6665 29.3689 19.3842 29.4374 19.3842 29.4117C19.4184 29.1122 19.4184 28.8384 19.3157 28.693C19.1703 28.4876 18.9649 28.4534 18.8793 28.2566C18.6997 27.8374 18.7596 27.5978 18.7425 27.4866C18.7168 27.3411 18.6826 27.1015 18.7253 26.939C18.6826 26.9475 18.6997 26.5882 18.6997 26.5711C18.7253 26.3058 18.7767 26.3229 18.8109 26.0748C18.8109 25.9208 19.1959 25.8352 19.1959 26.186C19.1018 26.6481 19.2387 27.0074 19.2558 27.4695C19.2558 27.5294 19.3499 27.5807 19.4098 27.5978C20.4195 27.8887 21.181 27.7775 22.182 27.7604C22.4473 27.7604 22.6098 27.4181 22.6697 27.1529C22.7638 26.7165 22.7638 26.5711 22.7724 26.0919C22.8237 25.9636 22.9435 25.9978 23.0291 26.109C23.2002 26.3058 23.0719 26.3828 23.1146 26.6395C23.1489 26.8363 22.8922 27.1272 22.8922 27.1272C22.9179 27.1272 22.8066 27.7946 22.8323 27.8031C22.8836 27.8031 22.7895 28.4021 22.781 28.385C22.7382 28.7101 22.9692 28.5903 22.935 28.8299C22.935 28.9411 22.8751 29.0866 22.8751 29.1122C22.9093 29.3347 22.413 29.2834 22.4986 29.2919C22.3874 29.2919 22.3018 29.2406 22.3104 29.155C22.3104 29.0352 22.2847 28.9411 22.2847 28.8299C22.0451 28.8128 22.1478 29.0096 22.1307 29.2577C22.1307 29.3689 22.1991 29.4545 22.3788 29.4887C22.5756 29.5229 22.5927 29.54 22.6868 29.4887C22.7382 29.4545 22.8922 29.4203 22.9093 29.3518C23.0034 29.7026 23.1061 29.754 23.3713 29.7454C23.4826 29.7454 23.7392 29.7882 23.8419 29.5315C23.8676 29.463 24.0387 29.4802 24.0644 29.4117C24.5179 29.4973 24.2441 29.6855 24.7916 29.5058C24.9542 29.4545 25.0911 29.2149 24.9457 29.0267C24.9285 29.001 24.843 29.0096 24.8344 29.0181C24.7745 29.4887 24.5863 29.3518 24.4152 29.3433C23.8334 29.309 24.1499 29.0695 23.6537 29.3433C23.5938 29.3775 23.4227 29.6171 23.1916 29.4288C22.8836 29.155 23.2173 28.9497 23.2515 28.6502C23.2858 28.3764 23.2687 27.5122 23.2515 27.2556C23.2173 26.6652 23.3713 27.0245 23.474 26.7679C23.3884 26.785 23.4312 26.0406 23.4227 26.0064C23.3713 25.7411 23.0633 25.8438 22.9777 25.7411C22.9777 25.7411 22.9435 25.5358 22.9863 25.5272C23.3371 25.4588 23.782 25.262 24.1072 25.108C24.8515 24.74 25.2622 24.5176 25.6216 24.2951C25.7243 24.2267 25.7756 24.0898 25.8269 24.0898C26.5029 24.0898 27.1531 23.9443 27.7521 24.278C28.1713 24.509 28.274 24.74 28.3852 25.1422C28.3339 25.1422 28.428 25.57 28.428 25.6042C28.428 25.8695 28.428 26.34 28.428 26.4769C28.4451 27.3411 28.4965 27.632 28.3767 28.2138C28.3767 28.2138 28.2826 28.4277 28.2569 28.4277C28.1884 28.5304 28.0601 28.693 27.9146 28.8128C27.8719 28.847 27.889 28.9753 27.9146 28.9582C28.0088 28.8983 28.1799 28.8641 28.3168 28.8042C28.3168 29.1721 28.274 29.6085 28.1884 30.0192L28.2141 29.9507Z" fill="white"/>
<path d="M27.0426 25.8182C27.0426 25.8182 26.8116 25.63 26.5977 25.5102C26.5036 25.4589 26.0929 25.7327 25.9987 25.7412C25.5795 25.784 25.3399 25.8097 24.9036 25.8182C24.7923 25.8182 24.6383 25.8182 24.5784 25.7241C24.5356 25.6642 24.5442 25.5444 24.587 25.4845C24.7239 25.3134 24.9806 25.6043 25.1431 25.1765C25.1431 25.1765 25.6394 25.1594 25.7934 25.1509C26.3153 25.1252 27.0768 25.1337 27.0084 25.1936C27.0683 25.1337 27.1709 25.4161 27.2736 25.4931C27.4704 25.63 27.4105 25.4503 27.5046 25.7241C27.4447 25.6642 27.556 25.8867 27.5046 25.8353C27.5046 25.861 27.4704 25.9894 27.4533 26.0065C27.4362 26.0236 27.2479 25.9551 27.2137 25.9466C27.2308 25.9466 27.034 25.8268 27.0426 25.8268V25.8182Z" fill="black"/>
<path d="M24.5438 26.169C24.8432 25.9893 24.3127 25.9379 24.4069 26.4599C24.4069 26.4085 24.5095 26.4428 24.5181 26.4171C24.5352 26.3829 24.5352 26.2545 24.5438 26.1604V26.169Z" fill="black"/>
<path d="M24.2362 27.3497C24.3046 27.7005 24.2362 27.6577 24.202 27.9829C24.1677 28.2738 24.4159 28.3422 24.4159 28.0171C24.4159 26.7765 24.3303 27.1187 24.2362 27.3583V27.3497Z" fill="black"/>
<path d="M27.692 29.1294C27.6663 29.1978 27.6149 29.1978 27.5636 29.2406C27.5208 29.2663 27.4695 29.3347 27.4952 29.3775C27.5037 29.4032 27.5551 29.4289 27.5893 29.4203C27.6235 29.4203 27.6577 29.3775 27.6748 29.3433C27.7005 29.2748 27.692 29.1978 27.692 29.1294V29.1294Z" fill="black"/>
<path d="M24.5692 28.676C24.5692 28.676 24.6462 28.6417 24.6462 28.6075C24.6462 28.5647 24.612 28.5305 24.5692 28.5305C24.5264 28.5305 24.4922 28.5647 24.4922 28.6075C24.4922 28.6503 24.5264 28.6845 24.5692 28.6845V28.676Z" fill="black"/>
<path d="M27.3161 26.6053C27.2049 26.6652 27.1022 26.6481 26.9996 26.708C27.1707 26.6138 26.0926 26.554 26.5033 26.5967C26.2124 26.5711 25.9814 26.5112 25.6819 26.5112C25.6819 26.4941 25.622 26.554 25.622 26.5368C25.4766 26.5711 25.391 26.4598 25.2798 26.3828C25.2028 26.3315 25.1343 26.3828 25.0573 26.3828C25.0744 26.3572 25.0317 26.34 25.0402 26.3229C25.0573 26.2973 25.1087 26.2802 25.1258 26.2716C25.2541 26.2545 25.4081 26.2716 25.5279 26.2203C25.9643 26.0663 26.298 26.2802 26.7429 26.263C26.8798 26.263 27.0766 26.2288 27.2049 26.3229C27.2306 26.34 27.2306 26.3914 27.2477 26.3999C27.3076 26.4427 27.4103 26.4171 27.4445 26.4513C27.5129 26.5283 27.376 26.5625 27.299 26.6053H27.3161Z" fill="black"/>
<path d="M26.888 27.2386C26.888 27.2386 26.8452 27.1958 26.8281 27.1958C26.5714 27.1958 26.349 27.1273 26.1179 27.0332C26.0409 26.999 25.9639 27.0589 25.8784 27.076C25.7671 27.0931 25.6559 27.0418 25.5618 27.076C25.4933 27.1017 25.4335 27.2043 25.4933 27.2386C25.5789 27.2899 25.7244 27.2813 25.8442 27.2043C25.981 27.1102 26.1522 27.1444 26.3147 27.1787C26.3575 27.1872 26.4003 27.2214 26.4431 27.2129C26.5971 27.2129 26.7425 27.2471 26.8966 27.2386H26.888Z" fill="black"/>
<path d="M25.2797 26.8278C25.2797 26.8278 25.2198 26.8022 25.2369 26.7594C25.1343 26.7252 25.0316 26.8278 24.9289 26.7851C24.869 26.7594 24.8348 26.6995 24.7835 26.6738C24.7835 26.7594 24.7492 26.8706 24.8177 26.9048C24.9631 26.9647 25.1171 26.7851 25.2712 26.8792C25.2712 26.8621 25.2712 26.8535 25.2712 26.8364L25.2797 26.8278Z" fill="black"/>
<path d="M16.6726 20.4363L15.7314 21.3689C15.7314 21.3689 16.5528 22.6523 16.6641 22.7037C16.8352 22.3871 17.1175 21.9422 17.4855 21.9165L17.5539 21.4373L16.6726 20.4363V20.4363Z" fill="white"/>
<path d="M13.1895 16.7315H13.6943C14.3531 17.4673 15.9874 19.5978 15.9874 19.5978L15.7392 20.1967C16.3809 19.6662 16.7403 19.3154 16.9799 18.9732C17.4419 18.4769 17.8526 18.8705 17.4932 19.1956C17.2537 19.6662 16.09 20.5988 15.3371 21.2577C13.1895 23.1913 9.12533 20.1026 12.5307 17.125L13.2066 16.7229L13.1895 16.7315Z" fill="white"/>
<path d="M12.5393 17.8695C12.9157 17.4074 13.2494 17.6641 12.95 17.9379C12.7275 18.1433 13.1468 18.5967 13.4206 18.4855C13.643 18.4 13.8997 18.7508 13.8398 18.8791C13.6687 19.2213 13.9938 19.5893 14.2419 19.4695C14.3788 19.401 14.6698 19.632 14.5671 19.8374C14.4216 20.1454 14.7211 20.4962 15.0633 20.3251C15.4312 20.1368 15.2173 20.6417 15.2173 20.6417C13.3692 22.1989 10.674 19.2299 12.5307 17.8866L12.5393 17.8695Z" fill="black"/>
<path d="M12.7362 17.1937C13.0613 17.2108 13.3437 16.9627 13.3608 16.6375C13.3779 16.3124 13.1298 16.03 12.8046 16.0129C12.4795 15.9958 12.1971 16.2439 12.18 16.5691C12.1629 16.8942 12.411 17.1766 12.7362 17.1937Z" fill="white"/>
<path d="M12.933 16.2354C13.2924 16.4321 12.9844 16.9541 12.7448 16.9027C12.4881 16.8428 12.6849 16.7915 12.6849 16.7915C12.9245 16.8257 13.1384 16.4493 12.8389 16.3209C12.7277 16.2696 12.933 16.2354 12.933 16.2354V16.2354Z" fill="black"/>
<path d="M34.3059 16.7487L33.8097 16.7658C33.1765 17.5187 31.6107 19.7005 31.6107 19.7005L31.876 20.2909C31.2257 19.7775 30.8407 19.4353 30.6011 19.1102C30.122 18.6225 29.7198 19.0331 30.0963 19.3497C30.353 19.8118 31.5423 20.7102 32.3123 21.3433C34.5198 23.2085 38.4899 19.8032 34.999 16.9369L34.3059 16.7487V16.7487Z" fill="white"/>
<path d="M35.0677 17.63C34.7597 17.3048 34.5116 17.4931 34.5971 17.7583C34.6998 18.0578 34.3233 18.631 34.1351 18.5113C33.887 18.3573 33.6388 18.7679 33.733 18.9134C33.887 19.1615 33.5875 19.6492 33.3479 19.5123C33.211 19.4353 32.9372 19.7091 33.0314 19.8888C33.1854 20.1883 32.8517 20.4621 32.5522 20.3851C32.1586 20.2824 32.4068 20.7016 32.4068 20.7016C34.2977 22.199 36.9757 18.9048 35.0763 17.6214L35.0677 17.63Z" fill="black"/>
<path d="M34.7854 17.0054C34.4603 17.0311 34.1694 16.9797 34.1351 16.6546C34.1095 16.3295 34.3576 15.8503 34.6827 15.8246C35.0079 15.799 35.2902 16.0385 35.3244 16.3637C35.3501 16.6888 35.1105 16.9712 34.7854 17.0054Z" fill="white"/>
<path d="M34.5545 16.0555C34.0924 16.3208 34.4261 16.8085 34.7598 16.7144C35.0165 16.6459 34.8197 16.6031 34.8197 16.6031C34.486 16.663 34.2464 16.3208 34.6486 16.1411C34.7598 16.0898 34.5545 16.0641 34.5545 16.0641V16.0555Z" fill="black"/>
<path d="M31.0294 20.599C31.1578 20.6674 31.9278 21.3691 32.1161 21.4803C32.0048 21.9509 31.2519 23.414 31.0893 23.6707C31.0722 22.7979 30.9439 21.814 30.4647 21.8054L30.3706 21.4546L31.0294 20.599Z" fill="white"/>
<path d="M27.9319 34.4685C27.9661 34.2032 27.7437 33.9551 27.5811 34.169C27.4956 34.2802 27.487 34.4941 27.3758 34.5968C27.0849 34.8877 26.9052 34.9391 26.7341 35.1187C26.5544 35.3155 26.4945 35.4353 26.6656 35.7006C26.6827 35.7262 26.7084 35.9829 26.8966 36.1284C27.1276 36.2995 27.4613 36.1198 27.8121 35.6834C27.8891 35.5893 27.872 35.4439 27.8977 35.3326C27.9405 35.0503 27.8977 34.7594 27.9319 34.4685V34.4685Z" fill="black"/>
<path d="M26.4433 36.1198C26.4176 36.8386 25.3652 37.1295 24.9459 36.8899C24.8775 36.8471 24.655 36.6503 24.6978 36.5134C24.7406 36.3765 24.9032 36.291 25.0144 36.2482C25.1427 36.1968 25.254 36.2482 25.3823 36.1284C25.5534 35.9744 25.6732 35.9487 25.8786 35.7605C25.9898 35.6493 26.2122 35.6664 26.3235 35.7519C26.4347 35.8375 26.4946 35.9059 26.4433 36.1113C26.4604 36.0856 26.4433 36.1113 26.4518 36.1284L26.4433 36.1198Z" fill="black"/>
<path d="M27.6236 35.0332C27.1701 35.3327 26.631 35.5894 27.1444 35.8632C27.2642 35.9231 27.5893 35.692 27.6749 35.4182C27.6749 35.4354 27.6492 35.0161 27.6236 35.0247V35.0332Z" fill="white"/>
<path d="M26.0834 36.445C26.0064 36.5135 25.7155 36.6589 25.7583 36.6332C25.5701 36.7359 25.3476 36.7958 25.1252 36.7616C24.9284 36.7274 25.0139 36.5562 25.0567 36.5477C25.6043 36.4707 25.7155 36.1627 26.0663 36.0258C26.169 36.0514 26.1861 36.2054 26.1776 36.2482C26.169 36.2824 26.1433 36.368 26.092 36.4365L26.0834 36.445Z" fill="white"/>
<path d="M21.9514 29.908C21.8145 30.0791 21.9514 30.1134 21.6177 30.4385C21.5236 30.5326 21.3439 30.6011 21.2583 30.7208C21.2412 30.738 21.2498 30.8235 21.2412 30.8749C21.4551 30.9433 21.8401 30.7722 22.2508 30.7722C22.499 30.7722 22.7385 30.8492 22.9867 30.9005C23.423 30.9861 23.8337 30.9005 24.3556 30.8663C24.9888 30.8321 25.1086 30.9861 25.3054 30.9604C25.699 30.9176 25.9385 30.7208 25.7674 30.7722C25.8102 30.7636 25.4423 30.8064 25.4679 30.7551C25.3567 30.738 25.2883 30.7978 25.2027 30.8064C24.9888 30.8321 24.7749 30.815 24.5439 30.738C24.2102 30.6267 23.8508 30.7893 23.5 30.7893C22.9353 30.7893 22.3107 30.5839 21.6177 30.6609C21.5492 30.6609 22.1909 30.1476 22.1396 30.2075C22.3278 29.9765 22.3621 29.6599 22.4048 29.7626C22.3963 29.7283 22.2166 29.5572 21.9428 29.9166L21.9514 29.908Z" fill="black"/>
<path d="M22.7038 31.7133C23.1829 31.6705 24.0899 31.9187 24.5091 31.7646C24.5091 31.8074 24.8599 31.6534 24.8514 31.8245C24.8428 32.0641 24.2524 32.0128 24.107 31.9786C23.6877 31.8844 23.5337 32.0128 22.6696 31.9871C22.6353 31.9871 22.2332 32.047 22.1134 31.739C22.0792 31.6534 22.3359 31.6449 22.7038 31.7048" fill="black"/>
<path d="M25.553 30.2075C25.5102 30.3187 25.6215 30.3872 25.6814 30.3358C25.7327 30.2931 25.7241 30.1647 25.6215 30.1305C25.63 30.1904 25.5701 30.1818 25.553 30.2161V30.2075Z" fill="black"/>
<path d="M25.3651 29.9764C25.3224 29.9507 25.271 29.9079 25.2368 29.8994C25.0914 29.8651 24.963 29.7796 24.8176 29.7539C24.7833 29.7539 24.7662 29.6855 24.8176 29.6512C24.9117 29.5999 25.0143 29.6512 25.117 29.6855C25.2454 29.7282 25.2625 29.8823 25.3737 29.9507C25.4079 29.9678 25.4849 29.9849 25.4678 30.0277C25.4422 30.0705 25.3566 30.0534 25.348 29.9849C25.348 29.9849 25.3651 29.9849 25.3737 29.9849L25.3651 29.9764Z" fill="black"/>
<path d="M25.8182 30.6183C25.8513 30.6183 25.8781 30.58 25.8781 30.5327C25.8781 30.4855 25.8513 30.4471 25.8182 30.4471C25.7851 30.4471 25.7583 30.4855 25.7583 30.5327C25.7583 30.58 25.7851 30.6183 25.8182 30.6183Z" fill="white"/>
<path d="M35.3755 12.8042C35.7178 13.0352 35.9916 13.1721 36.2568 13.1721C36.4365 13.1721 36.5392 13.1036 36.5392 12.9924C36.5392 12.8298 36.3595 12.8127 36.0686 12.7443C35.4697 12.6159 35.1616 12.2823 35.1616 11.7774C35.1616 11.0416 35.7349 10.494 36.6333 10.494C37.0354 10.494 37.4119 10.5967 37.8226 10.8106L37.4376 11.7347C37.1894 11.555 36.9328 11.4609 36.7103 11.4609C36.5306 11.4609 36.4365 11.5208 36.4365 11.632C36.4365 11.8031 36.6761 11.8288 37.0953 11.9229C37.5659 12.0256 37.8739 12.3764 37.8739 12.8641C37.8739 13.617 37.275 14.1903 36.3509 14.1903C35.8889 14.1903 35.4183 14.0534 34.9648 13.7967L35.367 12.8127L35.3755 12.8042Z" fill="white"/>
<path d="M10.3232 10.571H11.9147C12.8559 10.571 13.335 11.0074 13.335 11.7604C13.335 12.2652 13.0612 12.616 12.6591 12.6587L13.6002 14.0876H12.1799L11.5639 12.924V14.0876H10.3232V10.571V10.571ZM11.5639 12.1625H11.7607C12.0002 12.1625 12.1371 12.0427 12.1371 11.8202C12.1371 11.5978 12.0088 11.4694 11.7607 11.4694H11.5639V12.1625Z" fill="white"/>
<path d="M15.7739 10.5369H17.1856L18.4177 14.0534H17.0573L16.9461 13.6085H15.9878L15.8765 14.0534H14.5161L15.7739 10.5369V10.5369ZM16.7236 12.7786L16.6124 12.3764C16.561 12.1882 16.4926 11.9401 16.4669 11.6064H16.4412C16.4241 11.9486 16.3471 12.1882 16.2958 12.3764L16.1846 12.7786H16.715H16.7236Z" fill="white"/>
<path d="M19.5464 10.571H20.8298V14.0876H19.5464V10.571Z" fill="white"/>
<path d="M22.3101 10.571H23.3368C23.9443 10.571 24.4063 10.6309 24.7314 10.7935C25.3389 11.1015 25.6726 11.6662 25.6726 12.3336C25.6726 12.9154 25.4074 13.4202 24.9454 13.7454C24.4833 14.062 23.9443 14.0962 23.2427 14.0962H22.3101V10.571ZM24.2181 12.3336C24.2181 11.8716 23.9614 11.6577 23.448 11.6577H23.3967V13.0181C23.9614 13.0095 24.2181 12.8128 24.2181 12.3336V12.3336Z" fill="white"/>
<path d="M26.8706 10.571H29.2235V11.5293H28.1112V11.8716H29.1209V12.77H28.1112V13.1379H29.2492V14.0962H26.8706V10.571Z" fill="white"/>
<path d="M30.6787 10.571H32.2702C33.2113 10.571 33.6905 11.0074 33.6905 11.7604C33.6905 12.2652 33.4167 12.616 33.0145 12.6587L33.9557 14.0876H32.5354L31.9194 12.924V14.0876H30.6787V10.571V10.571ZM31.9194 12.1625H32.1161C32.3557 12.1625 32.4926 12.0427 32.4926 11.8202C32.4926 11.5978 32.3643 11.4694 32.1161 11.4694H31.9194V12.1625Z" fill="white"/>
</svg>
