<svg width="48" height="48" viewBox="0 0 48 48" fill="none" xmlns="http://www.w3.org/2000/svg">
<path d="M16.5632 26.3658C16.6032 26.8559 16.7833 27.8362 17.3434 28.9364C18.0436 30.2867 19.5139 32.0872 22.5446 33.1174C23.0247 33.8676 23.5949 34.5777 24.235 35.2179C26.5356 37.5184 29.5963 38.7787 32.8471 38.7687C36.0978 38.7687 39.1586 37.4884 41.4491 35.1879C43.7496 32.8873 45.0099 29.8266 44.9999 26.5759C44.9999 23.3251 43.7196 20.2644 41.4191 17.9738C39.5987 16.1534 37.3081 14.9831 34.7875 14.573C31.3767 11.4823 27.3958 12.5925 27.2257 12.6426C27.1657 12.6626 27.0857 12.6826 26.9757 12.7126C25.7554 13.1227 25.1152 12.6526 24.7051 12.3325C24.255 11.9724 23.7549 11.6123 23.2748 11.3422C21.6444 10.432 19.3339 10.392 17.3934 11.1822C16.1131 11.6223 15.4629 11.0522 15.0829 10.7921C12.5623 9.0317 9.43152 8.6116 6.12074 9.34178C3.89021 9.83189 3 10.292 3 10.292C3 10.292 4.53036 10.5121 6.12074 11.1822C7.43105 11.7323 8.4713 12.4325 9.26148 13.6928C9.26148 13.6928 9.7616 14.423 9.43152 14.633C9.07144 14.8731 8.69135 14.2829 8.69135 14.2829C8.68134 14.703 8.68134 15.1331 8.71135 15.4532C8.89139 18.824 9.58156 20.8445 11.2019 22.3849C11.9421 23.085 13.1924 23.7752 15.1129 24.5254C15.9931 24.8755 16.4632 25.3256 16.5532 26.3558L16.5632 26.3658Z" fill="white"/>
<path d="M40.879 18.5141C39.1086 16.7537 36.8681 15.6434 34.4475 15.3033C31.2867 12.2726 27.4558 13.3829 27.4558 13.3829C28.266 13.5029 28.8062 13.983 28.5961 14.5231C28.4561 14.8732 27.8659 14.8932 27.6059 14.9032C26.7457 14.9032 26.0155 14.3931 25.4254 13.913C24.8152 13.4129 23.815 12.5327 22.9148 12.0225C21.2444 11.0823 18.6037 11.2023 16.6833 12.4226C17.8336 12.5026 19.2039 12.8327 20.0341 13.5129C20.4942 13.893 21.0743 14.6532 20.6042 15.0132C20.1841 15.3233 19.1539 15.1633 18.6237 14.8632C17.7835 14.3831 17.0334 13.6429 16.5833 13.1128C13.5425 9.53194 9.24152 9.3319 5.70068 10.2121C8.03124 10.8623 9.5816 12.1926 10.5318 14.4731C11.4921 16.7537 12.2322 17.7239 13.8126 18.344C14.8028 18.7341 15.0729 18.8041 14.9929 19.2442C14.8829 19.8844 13.7126 19.5743 12.8124 19.2342C11.7221 18.8141 10.2918 17.6339 9.43157 15.4333C9.5916 18.284 10.1317 20.3045 11.7321 21.8249C12.4123 22.475 13.6626 23.1452 15.623 23.8953C16.8733 24.3755 17.8636 24.6655 18.7938 25.5057C19.884 26.476 19.4139 27.1261 18.6938 26.9961C17.8736 26.856 17.2934 26.0258 17.2934 26.0258C17.2934 26.0258 17.2934 30.6669 23.0348 32.4474C23.5149 33.2376 24.085 33.9777 24.7652 34.6479C26.9157 36.7984 29.7864 37.9787 32.8271 37.9787C35.8678 37.9787 38.7285 36.7884 40.879 34.6279C43.0295 32.4674 44.2098 29.6067 44.2098 26.566C44.2098 23.5253 43.0195 20.6646 40.859 18.5141H40.879Z" fill="#231F20"/>
<path d="M40.2788 19.0942C38.5683 17.3837 36.3678 16.3335 33.9973 16.0734C31.9568 14.043 29.9263 14.133 29.9263 14.133C30.8165 14.6931 30.3564 15.9434 28.3759 16.2135C26.4055 16.4835 23.9049 15.8234 22.6946 14.403C21.4443 12.9427 20.4941 12.8727 20.4941 12.8727C21.5843 13.5528 21.6543 14.363 22.3245 15.6133C22.9847 16.8536 24.345 17.3037 25.5253 17.3837C26.7756 17.4638 26.8056 18.0339 25.7953 18.624C24.6951 19.2742 23.7248 18.6641 23.0247 17.9639C21.9144 16.8636 20.8041 16.6536 19.2638 16.6736C17.7334 16.6936 15.7029 16.8936 13.9925 16.2535C12.2821 15.6133 11.1519 13.3628 11.1519 13.3628C12.0021 16.3535 13.8825 17.7738 15.6229 18.1139C17.9335 18.564 19.5238 19.1142 20.4941 19.9043C21.4443 20.6745 21.9544 21.4447 22.3145 22.515C22.5946 23.3352 22.6446 24.4254 22.3645 24.4854C22.0444 24.5654 21.9844 24.1253 21.6043 23.3552C21.1942 22.515 20.6941 21.8448 19.7039 21.3147C18.3536 20.5945 17.0332 20.6345 15.6829 20.6545C14.6127 20.6645 13.9925 20.5445 13.9925 20.5445C13.9925 20.5445 14.0325 20.6845 15.773 21.0746C17.7134 21.5047 19.5839 22.605 20.8341 25.2656C21.8944 27.5261 21.3443 29.1265 18.9937 28.4064C18.9937 28.4064 20.094 30.8469 23.6848 31.7171C24.1449 32.5273 24.7251 33.2875 25.4052 33.9677C27.3957 35.9581 30.0363 37.0484 32.847 37.0484C35.6577 37.0484 38.2983 35.9581 40.2888 33.9677C42.2792 31.9772 43.3695 29.3366 43.3695 26.5259C43.3695 23.7152 42.2792 21.0746 40.2888 19.0842L40.2788 19.0942Z" fill="#939598"/>
<path d="M32.8371 16.5236C35.5077 16.5236 38.0283 17.5638 39.9188 19.4543C41.8092 21.3447 42.8494 23.8553 42.8494 26.5359C42.8494 32.0572 38.3584 36.5483 32.8371 36.5483C30.1664 36.5483 27.6458 35.5081 25.7554 33.6176C23.865 31.7272 22.8247 29.2166 22.8247 26.5359C22.8247 23.8553 23.865 21.3447 25.7554 19.4543C27.6458 17.5638 30.1564 16.5236 32.8371 16.5236V16.5236Z" fill="white"/>
<path d="M32.8472 35.678C27.796 35.678 23.6951 31.597 23.6851 26.5458C23.6851 21.4946 27.766 17.3937 32.8172 17.3837C37.8684 17.3837 41.9694 21.4646 41.9794 26.5158C41.9794 31.567 37.8984 35.668 32.8472 35.678V35.678Z" fill="#231F20"/>
<path d="M30.5965 24.6854H27.8859L26.9957 26.2758L25.7954 22.865H39.8587L38.6585 26.2758L37.7682 24.6854H35.0976L32.8371 34.5578L30.5865 24.6854H30.5965Z" fill="white"/>
<path d="M39.8485 22.865H25.7852L26.0152 23.5151H32.7268L30.5963 24.6854L32.8368 34.5578V23.5151H39.6184L39.8485 22.865Z" fill="#D1D3D4"/>
<path d="M25.9357 14.9631C23.8952 14.9031 23.065 14.0929 21.7947 13.0827C20.2443 11.8424 18.5239 12.1825 18.5239 12.1825C19.5542 11.5923 21.5746 11.5723 23.035 12.8526C24.3353 13.9929 24.9755 14.613 25.9257 14.9731L25.9357 14.9631Z" fill="white"/>
<path d="M8.53149 10.4722C8.53149 10.4722 10.4419 10.4221 12.1023 13.4128C13.5027 15.9234 16.1733 16.4336 18.1338 15.8734C18.1338 15.8734 15.5531 15.8034 14.1428 13.3028C12.7025 10.7522 10.792 10.0421 8.52148 10.4622L8.53149 10.4722Z" fill="white"/>
<path d="M19.3239 24.9654C19.3239 24.9654 19.0538 22.1848 15.0929 21.3746C11.1019 20.5644 10.5918 18.4839 10.5918 18.4839C10.5918 18.4839 10.6218 21.4746 14.0526 22.3948C16.4532 23.035 18.2036 23.4051 19.3239 24.9554V24.9654Z" fill="white"/>
<path d="M34.2073 21.9848L33.6672 20.3844L35.0275 19.3942H33.3371L32.807 17.7938L32.2968 19.3942L30.6064 19.4142L31.9868 20.3944L31.4767 22.0148L32.837 21.0046L34.2073 21.9848Z" fill="white"/>
<path d="M28.176 27.6561L27.0558 28.9264L25.5054 28.2463L26.3656 29.7066L25.2354 30.9669L26.8857 30.5968L27.7459 32.0572L27.906 30.3768L29.5564 30.0167L28.006 29.3465L28.176 27.6561Z" fill="white"/>
<path d="M36.0977 30.0467L37.758 30.3868L37.9481 32.0672L38.7783 30.5968L40.4287 30.9369L39.2884 29.6866L40.1286 28.2263L38.5882 28.9264L37.448 27.6761L37.638 29.3565L36.0977 30.0467Z" fill="white"/>
</svg>
