<svg width="48" height="48" viewBox="0 0 48 48" fill="none" xmlns="http://www.w3.org/2000/svg">
<path d="M24.2894 36.5296C24.2903 36.5465 24.2708 36.659 24.2268 36.7081C24.1819 36.7581 24.1159 36.7758 24.0525 36.7902C23.9484 36.8131 23.846 36.7902 23.7639 36.7284C23.6962 36.6768 23.6539 36.6057 23.6488 36.5355C23.6488 36.5355 23.6488 36.5338 23.6488 36.5321L22.8788 34.0239C22.4472 32.7385 21.7948 31.3583 20.5297 30.1372C19.0005 28.6623 16.7471 27.6426 13.6406 27.0206C10.9327 26.4782 9.1497 26.0119 7.86007 25.5084C6.62289 25.0261 5.89261 24.5234 5.17755 23.9175C3.3531 22.3732 2.08208 20.404 2 17.9255C2 17.9255 3.81345 20.4887 5.80714 19.2642C6.74898 18.6854 7.4268 18.7683 7.4268 18.7683C6.81414 18.0913 6.36141 17.2079 6.2404 16.2474C6.14393 15.479 6.20655 14.626 6.42742 13.7121C6.80229 12.1576 7.89476 11.0178 7.90576 11C7.90576 11 7.47588 14.7352 9.26225 16.0604C10.3632 16.6798 11.4937 16.4302 11.4937 16.4302C11.4937 16.4302 10.0103 15.7431 9.80298 13.5395C9.71159 12.5706 9.85545 11.8081 9.89268 11.6135C9.89268 11.6135 11.85 14.3773 13.8115 13.2425C14.2499 12.9886 16.5651 11.7921 17.5637 11.5263C19.0285 11.1379 20.4789 11.11 21.8735 11.4451C23.0311 11.7235 24.1616 12.2533 25.2329 13.0191C27.1437 14.3849 28.38 16.1586 28.8234 16.8584C28.8234 16.8584 32.6687 16.6891 34.7724 19.3784L34.7758 19.3826L39.6424 21.5312L39.0906 21.8841L39.0669 21.9001L39.0915 21.9162C40.6663 22.9173 43.4216 24.691 44.1722 25.3307L44.1739 25.3324L44.1764 25.3341L45.5701 25.9967L45.3154 26.6711C45.2985 26.7168 44.9202 27.7983 45.6344 28.3339L45.9932 28.603C45.9932 28.603 45.9975 28.6056 46.0008 28.609L45.9975 28.6174L44.9016 31.5208L44.624 31.1476C43.0949 29.0405 41.6504 28.6513 40.9244 28.6369C40.1027 28.62 40.0452 29.0575 40.1467 29.2462C40.4776 29.8571 42.3189 30.1736 43.001 30.243C43.001 30.243 43.4529 30.3014 43.4656 30.3031L41.6911 31.8931L38.4746 31.6909H38.461L38.4619 31.6765L38.516 31.0452V31.041C38.5 30.9208 38.2825 29.8428 35.6516 28.7604L35.644 28.7579L35.6364 28.7613C35.1887 28.9678 34.2714 29.324 33.1468 29.3841C31.7911 29.4569 30.5328 29.0913 29.4065 28.2976L29.3989 28.2925L29.3896 28.295C28.9377 28.449 28.0475 28.7968 27.1572 29.4078C25.5046 30.5434 24.6034 32.0294 24.4781 33.8234C24.4781 33.8234 24.3334 35.3026 24.2886 36.5304" fill="#0A2343"/>
<path d="M13.8023 16.7543C11.4964 17.4617 9.8623 17.4541 8.80453 16.7298C7.90331 16.1129 7.36003 15.0162 7.31011 13.1486C6.61621 15.314 6.94877 17.0302 7.95577 18.1819C8.7546 19.0958 10.1153 19.7 11.5962 19.8007C14.5529 18.445 17.5942 17.5819 20.6355 17.2341C19.8079 15.826 17.3835 15.6542 13.8015 16.7543H13.8023Z" fill="#FC4C02"/>
<path d="M24.9358 13.8238C23.933 13.0732 22.8769 12.5511 21.798 12.2719C20.4948 11.9342 19.1383 11.9427 17.7717 12.3108C16.8857 12.5486 14.8844 13.5319 14.1346 13.9211C12.1638 14.9434 10.8885 13.6207 10.4087 13.1232L10.3867 13.1012C10.4324 13.3728 10.5221 13.8653 10.7413 14.3679C11.0138 14.9958 11.409 15.4579 11.9141 15.7405C12.8196 16.2465 14.0788 16.1746 15.657 15.5273C17.4146 14.8071 18.8895 14.5863 20.0395 14.8723C21.0762 15.1295 22.0298 15.9554 22.5926 17.0826C24.4974 17.0056 26.4073 17.1418 28.269 17.4854C27.3145 16.0079 26.1628 14.7428 24.9349 13.8247L24.9358 13.8238Z" fill="#FC4C02"/>
<path d="M44.3965 27.3388C44.4016 26.8632 44.5285 26.4757 44.5548 26.4012L43.7255 26.0136H43.7221L43.7204 26.0103C43.2084 25.456 37.6598 21.967 37.6039 21.9315L37.5828 21.9179L37.6031 21.9044L38.0126 21.6311L34.2529 20.0385L34.2487 20.0368L34.2461 20.0326C32.7195 17.7503 29.7121 17.6589 29.1341 17.6631C30.2799 18.0169 30.6302 18.3655 30.7182 18.5982C30.7766 18.7531 30.7182 18.8504 30.7157 18.8546L30.7098 18.8648L30.6988 18.8614C17.7245 15.325 7.1121 23.4614 6.66699 23.8092C7.17642 24.3229 8.32135 25.0159 12.4374 25.9299C13.3555 25.2123 17.7338 22.0999 24.3411 22.2827L23.269 20.663C23.269 20.663 27.3621 21.7267 29.6985 23.0248C29.5183 24.7545 30.5896 26.4215 32.3176 26.9318C33.5564 27.2974 34.8334 26.9817 35.7482 26.2032L38.6837 28.0767L35.8666 26.9843C34.6692 27.8508 33.0876 28.152 31.5746 27.6604C29.7019 27.0519 28.4597 25.3993 28.2837 23.5562C21.9429 21.9636 17.2684 25.973 16.3342 26.8556C17.0899 27.0951 17.7863 27.3659 18.4184 27.6688C19.1885 28.0378 19.8815 28.4617 20.49 28.9348C20.9596 28.3619 22.8315 26.3944 26.422 26.364C26.422 26.364 22.8966 27.2762 21.7728 30.1483C22.7714 31.3042 23.285 32.527 23.6802 33.6931C23.7699 32.5837 24.1245 31.5657 24.738 30.667C25.2398 29.9325 25.9142 29.275 26.7418 28.7131C28.1508 27.7568 29.5352 27.4048 29.5488 27.4014L29.5564 27.3997L29.5623 27.4048C32.4191 29.7074 35.5637 27.8948 35.595 27.8753L35.6018 27.8719L35.6094 27.8745C36.4886 28.2104 37.2316 28.587 37.8155 28.994C38.2843 29.3198 38.6532 29.6659 38.9122 30.023C39.315 30.5765 39.326 30.975 39.3234 31.0579L41.4542 31.1976L42.0787 30.6645C40.1426 30.414 39.5561 29.8123 39.436 29.2961C39.2278 28.053 40.4971 27.8999 41.0751 27.9752C42.424 28.1512 44.0631 29.3596 44.6808 30.1999L45.1378 28.9729C44.5158 28.4998 44.3897 27.8245 44.394 27.3397L44.3965 27.3388Z" fill="white"/>
<path d="M3.18994 19.9082C3.18994 19.9082 4.02262 24.2061 10.2 20.6562C8.48981 20.1163 8.14032 18.9579 6.09332 20.0063C4.27226 20.9397 3.18994 19.9082 3.18994 19.9082V19.9082Z" fill="#FC4C02"/>
<path d="M36.8847 22.3461C36.8162 22.308 36.7493 22.2708 36.6816 22.2352C36.564 22.1709 36.4489 22.1108 36.3381 22.0541C36.2492 22.0076 36.162 21.9644 36.0774 21.923C34.6532 21.224 33.9077 21.1174 33.9077 21.1174C35.6332 22.2623 36.3694 23.2177 36.3694 23.2177L36.8356 22.8995L41.197 25.3341C39.4623 23.9184 38.0186 22.9748 36.8847 22.3461V22.3461Z" fill="#0A2343"/>
<path d="M43.7828 26.5027C42.7555 26.9131 44.0789 28.0911 44.0789 28.0911C41.201 25.819 43.7828 26.5027 43.7828 26.5027Z" fill="#0A2343"/>
<path d="M31.2632 19.0831C33.124 19.1212 31.2776 18.3317 31.2776 18.3317C31.2776 18.3317 32.6171 18.5373 33.3965 19.7795C32.6611 19.4961 31.8572 19.2295 31.264 19.0831H31.2632Z" fill="#0A2343"/>
<path d="M36.6823 22.2352L36.2067 22.5847L36.3387 22.0541C36.2498 22.0076 36.1618 21.9644 36.0772 21.923C35.9926 22.0025 35.9359 22.1134 35.9257 22.2378C35.9054 22.5035 36.1043 22.7362 36.37 22.7557C36.6247 22.7751 36.8473 22.594 36.8845 22.3461C36.816 22.308 36.7483 22.2708 36.6814 22.2352H36.6823Z" fill="#FC4C02"/>
</svg>
