<svg width="48" height="48" viewBox="0 0 48 48" fill="none" xmlns="http://www.w3.org/2000/svg">
<path d="M41.03 17.6C41.03 17.6 41.58 17.13 42.16 17.14C42.74 17.14 43.14 17.34 43.35 17.57C43.35 17.57 43.81 17.51 44.31 17.64C44.81 17.78 45.51 18.19 45.78 18.67C46.05 19.15 46.09 19.7 45.8 20.22C45.8 20.22 45.89 20.57 45.66 21.01C45.43 21.45 45.04 21.68 45.04 21.68C45.04 21.68 44.78 22.33 44.1 22.63C43.42 22.93 42.52 22.59 42.52 22.59C42.52 22.59 42.01 22.69 41.63 22.69C41.24 22.69 40.7 22.52 40.54 22.45C40.54 22.45 40.08 23.12 39.95 23.28C39.95 23.28 40.58 23.82 41.26 24.04C41.94 24.25 42.48 24.35 42.79 24.58C43.1 24.81 43.22 25.03 43.22 25.03C43.22 25.03 43.7 24.96 44.16 25.06C44.62 25.17 45.16 25.53 45.51 26.01C45.86 26.49 46.08 27.1 45.93 27.69C45.78 28.28 45.45 28.49 45.45 28.49C45.45 28.49 45.29 29.03 44.95 29.36C44.62 29.69 44.15 29.72 44.15 29.72C44.15 29.72 43.89 30.07 43.22 30.18C42.55 30.29 42.06 29.92 42.06 29.92C42.06 29.92 41.53 29.98 40.8 29.76C40.08 29.54 39.58 28.8 39.58 28.8C39.58 28.8 39.11 28.57 38.24 28.53C37.37 28.49 35.43 28.1 34.56 27.6C34.56 27.6 34.05 27.85 32.51 27.93C32.51 27.93 32.28 27.23 31.83 26.89C31.83 26.89 30.51 27.62 30.09 27.82C29.67 28.02 28.89 28.35 28.21 28.4C28.21 28.4 28.03 29.5 27.71 30.1C27.39 30.7 26.77 31.14 26.24 31.31C26.24 31.31 27 31.58 27.41 32.18C27.81 32.78 27.95 33.43 27.67 33.96C27.4 34.49 27.09 34.63 27.09 34.63C27.09 34.63 26.93 35.16 26.32 35.44C25.7 35.72 24.93 35.57 24.93 35.57C24.93 35.57 24.5 35.8 23.91 35.79C23.32 35.79 22.58 35.28 22.58 35.28C22.58 35.28 20.65 35.46 20.07 35.41C19.5 35.36 18.81 35.13 18.49 34.28C18.49 34.28 18.14 34.57 17.61 34.83C17.08 35.08 16.08 35.57 15.37 36.08L15.39 36.46C15.39 36.46 16.44 36.86 16.51 37.93C16.58 39 15.99 39.4 15.83 39.52C15.83 39.52 15.61 40 15.13 40.25C14.65 40.49 14.12 40.38 14.12 40.38C14.12 40.38 12.94 40.9 12.04 40.04C11.14 39.18 11.39 38.25 11.41 38.03C11.41 37.81 11.48 35.84 11.47 35.75C11.47 35.75 11.02 35.15 11.12 34.48C11.22 33.81 11.74 33.39 11.98 33.18C12.23 32.97 12.52 32.63 12.66 32.12C12.81 31.6 12.82 30.55 12.87 30.16C12.92 29.77 12.94 29.11 12.94 29.11C12.94 29.11 11.17 28.62 10.25 27.6C9.33 26.57 9.08 25.83 8.84 24.82C8.61 23.8 8.44 22.78 7.51 22.2C7.51 22.2 6.9 22.37 6.2 22.09C5.5 21.81 5.07 21.24 4.62 20.68C4.17 20.12 2.57 19.87 2 19.84C2 19.84 3.2 18.51 4.82 17.94C6.44 17.37 7.21 17.6 7.75 17.9C8.29 18.2 8.71 18.71 8.91 19.41C8.91 19.41 9.97 19.87 10.69 20.72C11.41 21.57 11.75 22.32 11.99 23.25C12.22 24.18 12.52 25.3 14.38 25.71C14.38 25.71 15.48 24.61 15.9 24.33C16.32 24.06 16.85 23.9 17 23.86C17.15 23.82 17.86 23.58 17.86 23.58C17.86 23.58 18.98 22.67 19.16 22.49C19.16 22.49 19.58 21.75 19.84 21.32C20.1 20.89 20.52 20.46 20.52 20.46C20.52 20.46 19.98 19.45 20.01 18.35C20.01 18.35 20.28 18.47 20.52 18.51C20.52 18.51 20.5 17.69 21.03 16.94C21.56 16.19 22.09 15.71 22.09 15.71C22.09 15.71 22.05 14.72 22.65 13.78C22.65 13.78 22.19 13.05 22.15 12.58C22.15 12.58 22.91 12.51 23.49 12.35C24.07 12.18 24.35 12.07 24.64 11.71C24.93 11.36 25.64 10.5 26.52 10.08C27.41 9.66 28.4 9.51 29.1 9.56C29.1 9.56 28.67 9.19 28.19 9.03C28.19 9.03 29.01 8.43 30.62 8.25C30.62 8.25 30.63 7.43 30.81 7C30.81 7 32.95 8.47 34.02 8.89C35.09 9.31 35.88 9.45 36.43 9.72C36.98 9.99 37.38 10.5 37.47 10.81C37.47 10.81 38.07 11.04 38.53 11.36C38.99 11.68 39.25 12.46 39.25 12.46C39.25 12.46 40.12 12.81 41.02 13.35C41.92 13.9 43.02 15.05 43.02 15.05C43.02 15.05 42.33 15.36 41.73 16.21C41.73 16.21 41.46 17.16 41.01 17.62" fill="#B0B7BC"/>
<path d="M39.7698 18C39.7698 18 40.1698 18 40.5298 18.09C40.8898 18.19 41.1098 18.31 41.1098 18.31C41.1098 18.31 41.3698 18.14 41.4998 18.03C41.6298 17.91 42.0298 17.71 42.3798 17.77C42.7398 17.83 42.9898 18.08 43.0498 18.19C43.0498 18.19 43.3498 18.21 43.6298 18.19C43.9098 18.17 44.4298 18.27 44.8398 18.6C45.2498 18.93 45.6298 19.42 45.1298 20.07C45.1298 20.07 45.2398 20.48 45.0898 20.78C44.9398 21.08 44.5598 21.24 44.5598 21.24C44.5598 21.24 44.3198 21.94 43.7698 22.13C43.2198 22.31 42.5198 21.97 42.5198 21.97C42.5198 21.97 41.8698 22.13 41.3998 22.1C40.9298 22.07 40.4098 21.67 40.4098 21.67C40.4098 21.67 40.2998 21.74 40.1898 21.89C40.0798 22.05 39.2698 23.18 39.0798 23.38C39.0798 23.38 39.8698 24.15 40.6598 24.47C41.4498 24.79 41.8398 24.84 42.0498 24.9C42.2598 24.96 42.7098 25.21 42.8798 25.71C42.8798 25.71 43.3798 25.58 43.7098 25.61C44.0398 25.63 44.3598 25.7 44.9398 26.29C45.5198 26.88 45.3898 27.42 45.2998 27.67C45.2098 27.92 44.8698 28.13 44.8698 28.13C44.8698 28.13 44.8398 28.63 44.5398 28.89C44.2398 29.15 43.8398 29.11 43.8398 29.11C43.8398 29.11 43.6798 29.41 43.2698 29.54C42.8598 29.66 42.4098 29.45 42.1998 29.28C42.1998 29.28 41.3498 29.35 40.7998 29.08C40.2498 28.81 39.9898 28.27 39.9898 28.27C39.9898 28.27 39.0498 27.89 38.0798 27.88C37.1098 27.88 35.2198 27.34 34.5998 26.89C34.5998 26.89 33.6598 27.32 32.8998 27.33C32.8998 27.33 32.6698 26.62 31.8498 26.13C31.8498 26.13 30.0998 27.1 29.4698 27.39C28.8398 27.68 27.7398 27.78 27.5798 27.8C27.5798 27.8 27.6498 28.07 27.5698 28.5C27.4798 28.93 27.2198 29.77 26.9998 30.05C26.7798 30.33 26.1598 30.68 25.7898 30.81C25.4298 30.94 24.9698 31.06 24.5898 31.25C24.2098 31.44 23.7498 31.83 23.5498 32.01C23.5498 32.01 24.1298 32.16 24.3098 32.15C24.4898 32.15 24.7998 31.97 25.0298 31.88C25.2598 31.79 25.9098 31.66 26.4298 32.05C26.9498 32.44 27.2198 32.94 27.1998 33.32C27.1898 33.7 26.9398 33.98 26.5798 34.16C26.5798 34.16 26.4698 34.7 26.0198 34.86C25.5598 35.02 24.8098 34.88 24.8098 34.88C24.8098 34.88 24.4498 35.11 24.0198 35.14C23.5898 35.17 23.0098 34.79 22.9198 34.74C22.8298 34.69 22.7398 34.64 22.5798 34.64C22.4198 34.64 20.7198 34.78 20.1898 34.78C19.6598 34.78 19.2998 34.52 19.0698 34.11C18.8498 33.7 19.1598 33.04 19.3598 32.77C19.5598 32.5 19.8698 32.14 19.9098 32.07C19.9498 32 19.9598 31.87 19.8498 31.8C19.7398 31.73 19.3998 31.56 19.3998 31.56C19.3998 31.56 18.8798 32.61 18.6798 32.96C18.4798 33.32 18.2198 33.71 17.7298 34.02C17.2298 34.33 16.1798 34.79 15.6298 35.13C15.0798 35.47 14.7498 35.78 14.7498 35.78C14.7498 35.78 14.7498 36.78 14.7898 36.9C14.7898 36.9 15.2898 37 15.4898 37.17C15.6898 37.34 15.8898 37.63 15.8798 38.01C15.8798 38.4 15.8198 38.85 15.3398 39.04C15.3398 39.04 15.1998 39.54 14.8298 39.69C14.4498 39.84 14.0598 39.71 14.0598 39.71C14.0598 39.71 13.5398 39.97 12.9998 39.86C12.4598 39.74 11.9998 39.18 11.9898 38.61C11.9898 38.04 12.0798 35.98 12.0798 35.84C12.0798 35.7 12.0798 35.57 11.9798 35.39C11.8798 35.21 11.6498 34.75 11.7098 34.46C11.7698 34.17 12.0598 33.83 12.3398 33.6C12.6098 33.37 12.9398 33.14 13.1098 32.68C13.2698 32.22 13.4198 31.58 13.4298 31.09C13.4498 30.6 13.5098 29.02 13.6098 28.59C13.6098 28.59 11.5598 28.14 10.6298 27.08C9.7098 26.02 9.54981 25.18 9.27981 24.05C9.01981 22.92 8.6798 22.05 7.5998 21.49C7.5998 21.49 7.0198 21.77 6.2798 21.45C5.5398 21.13 5.1298 20.28 4.7398 19.99C4.3398 19.69 3.2598 19.52 3.0498 19.53C3.0498 19.53 4.3398 18.64 5.2198 18.37C6.0998 18.11 7.0598 18.02 7.6698 18.5C8.2698 18.98 8.35981 19.8 8.35981 19.8C8.35981 19.8 9.5998 20.31 10.3198 21.2C11.0398 22.08 11.2498 22.91 11.3898 23.46C11.5298 24.01 11.9698 25.12 12.6698 25.61C13.3698 26.1 14.1898 26.3 14.6198 26.33C14.6198 26.33 15.8298 25.07 16.2398 24.8C16.6498 24.53 17.1098 24.42 17.3098 24.36C17.5098 24.3 18.1998 24.08 18.1998 24.08C18.1998 24.08 19.4198 23.03 19.6498 22.85C19.6498 22.85 20.3598 21.63 20.5498 21.34C20.7498 21.05 21.2798 20.37 21.2798 20.37C21.2798 20.37 20.7898 19.81 20.7998 19.09C20.7998 19.09 21.0898 19.15 21.2698 19.13C21.2698 19.13 21.0298 18.73 21.1498 18.16C21.2698 17.59 21.8798 16.66 22.7098 15.95C22.7098 15.95 22.6798 15.35 22.8498 14.78C23.0198 14.21 23.3798 13.75 23.3798 13.75C23.3798 13.75 22.9998 13.28 22.9398 12.92C22.9398 12.92 23.6498 12.85 24.1498 12.69C24.6498 12.52 25.0398 12.17 25.0398 12.17C25.0398 12.17 25.9898 10.86 27.1498 10.45C28.3098 10.04 29.4898 10.16 29.4898 10.16C29.4898 10.16 30.0798 9.78003 30.3198 9.70003C30.3198 9.70003 29.8598 9.18003 29.4798 9.02003C29.4798 9.02003 30.3698 8.75003 31.1898 8.81003C31.1898 8.81003 31.2098 8.24003 31.2998 7.91003C31.2998 7.91003 32.7298 8.94003 33.3898 9.23003C34.0398 9.52003 35.2898 9.93003 35.7098 10.07C36.1298 10.2 36.8498 10.48 36.9998 11.24C36.9998 11.24 37.6898 11.53 37.9698 11.68C38.2398 11.83 38.5198 12.18 38.5798 12.33C38.6398 12.48 38.6898 12.66 38.7598 12.78C38.8298 12.9 38.9498 12.98 39.0698 13.02C39.1898 13.06 40.3298 13.57 40.8598 13.97C41.3898 14.37 42.1098 15.05 42.1098 15.05C42.1098 15.05 41.3898 15.62 41.2198 15.89C41.2198 15.89 41.0098 16.61 40.6598 17.12C40.3098 17.63 39.7898 17.83 39.7898 17.83V18H39.7698Z" fill="white"/>
<path d="M38.24 23.4C38.92 22.79 39.6 21.54 39.93 21.25C40.26 20.96 40.68 21.03 40.68 21.03C40.68 21.03 40.99 21.45 41.54 21.47C42.09 21.49 42.57 21.32 42.57 21.32C42.57 21.32 43.38 21.65 43.67 21.49C43.96 21.34 44.11 20.74 44.11 20.74C44.11 20.74 44.57 20.65 44.59 20.43C44.61 20.21 44.44 19.86 44.44 19.86C44.44 19.86 44.75 19.66 44.79 19.53C44.84 19.4 44.68 19.22 44.55 19.11C44.42 19 43.94 18.74 43.7 18.78C43.46 18.82 42.71 18.76 42.71 18.76C42.71 18.76 42.6 18.45 42.4 18.39C42.2 18.32 41.98 18.41 41.85 18.54C41.72 18.67 41.33 18.93 41.13 18.93C40.93 18.93 40.78 18.73 40.16 18.62C39.54 18.51 39.17 18.8 39.17 18.8C39.17 18.8 39.23 18.35 39.2 18.03C39.2 18 39.07 18.03 39.07 18.01C39.05 17.71 39.07 17.27 39.07 17.27C39 17.45 38.42 18.24 37.92 17.97C37.42 17.71 37.56 16.76 37.56 16.76C38.35 16.28 39.47 16.34 39.47 16.34C39.69 16.82 39.4 17.3 39.4 17.3C40.34 16.99 40.56 15.83 40.67 15.59C40.78 15.35 41.28 15.06 41.28 15.06C41.28 15.06 40.78 14.6 40.25 14.27C39.72 13.94 38.76 13.52 38.58 13.46C38.41 13.39 38.19 13.02 38.14 12.89C38.1 12.76 37.97 12.36 37.64 12.19C37.31 12.02 36.37 11.62 36.37 11.62C36.37 11.62 36.5 11.42 36.28 11.07C36.06 10.72 35.27 10.57 33.98 10.13C32.69 9.69002 31.81 8.90002 31.81 8.90002C31.76 9.27002 32.05 9.60002 32.05 9.60002C31.63 9.40002 30.49 9.36002 30.49 9.36002C31.02 9.56002 31.39 10 31.39 10C30.95 10 30.25 10.42 30.25 10.42C30.82 10.42 31.06 10.73 31.06 10.73C30.53 10.97 29.39 10.62 28.1 10.82C26.81 11.02 25.97 12.03 25.97 12.03C26.52 11.83 26.87 12.01 26.87 12.01C26.43 12.03 25.29 12.76 24.85 13C24.41 13.24 23.77 13.22 23.77 13.22C23.92 13.55 24.34 13.64 24.34 13.64C23.77 14.03 23.46 14.96 23.46 14.96C23.79 14.59 24.27 14.61 24.38 14.83C24.49 15.05 24.34 15.46 23.9 15.77C23.54 16.03 22.67 16.76 22.21 17.42C21.75 18.08 21.68 18.6 21.68 18.6C22.23 18.37 22.42 18.57 22.38 18.84C22.31 19.3 21.49 19.66 21.49 19.66C21.69 19.99 22.43 20.01 22.43 20.01C22.43 20.01 21.55 20.97 21.2 21.5C20.85 22.03 20.26 23.08 20.15 23.23C20.04 23.38 18.75 24.42 18.59 24.57C18.44 24.72 17.12 25.05 16.79 25.21C16.46 25.36 15.34 26.42 14.97 26.9C14.95 26.93 14.93 26.96 14.9 26.99C14.37 26.95 13.13 26.79 12.29 26.1C11.2 25.19 10.94 24.12 10.75 23.38C10.56 22.65 10.25 22.09 9.82996 21.54C9.39996 20.99 8.08996 20.34 7.85996 20.2C7.85996 20.2 7.69996 19.27 7.24996 18.97C6.75996 18.64 6.11996 18.71 5.84996 18.78C5.76996 18.8 5.65996 18.84 5.53996 18.89C5.78996 18.91 6.02996 18.97 6.20996 19.02C6.82996 19.18 6.86996 19.62 6.86996 19.62C6.86996 19.62 6.06996 18.75 4.45996 19.38C4.58996 19.4 5.05996 19.49 5.29996 19.81C5.56996 20.17 5.64996 20.43 6.41996 20.85C7.10996 21.23 7.62996 20.81 7.62996 20.81C7.62996 20.81 8.79996 21.42 9.18996 22.09C9.55996 22.74 9.91996 23.76 10.09 24.67C10.26 25.57 10.62 26.28 11.42 26.98C12.13 27.6 13.66 28.02 14.37 28.16C14.35 28.23 14.33 28.29 14.31 28.37C14.13 28.94 14.13 29.97 14.07 31.09C14.01 32.21 13.76 32.84 13.5 33.33C13.24 33.81 12.43 34.27 12.36 34.56C12.29 34.85 12.67 35.15 12.71 35.59C12.75 36.03 12.65 37.87 12.65 38.14C12.65 38.41 12.58 38.73 12.74 38.97C12.89 39.21 13.14 39.34 13.46 39.3C13.79 39.26 13.92 39.06 13.92 39.06C13.92 39.06 14.4 39.26 14.62 39.12C14.84 38.99 14.82 38.55 14.82 38.55C14.82 38.55 15.15 38.55 15.24 38.44C15.33 38.33 15.35 37.94 15.2 37.74C15.05 37.54 14.28 37.48 14.28 37.48C14.24 37.39 14.1 35.9 14.21 35.57C14.32 35.24 15.2 34.74 15.88 34.34C16.56 33.95 17.48 33.62 17.81 33.27C18.08 32.98 18.78 31.57 19.04 31.05C19.06 31.02 19.9 28.94 21.92 28.01H21.94C20.46 29.32 20.33 29.81 20.33 29.81C20.33 29.81 21.32 28.87 23.03 28.15C24.17 27.67 25.04 27.46 25.61 27.4C24.2 27.85 22.99 28.53 21.78 29.26C20.54 30.01 19.75 30.98 19.7 31.04C20.8 31.48 20.71 31.94 20.62 32.21C20.51 32.52 19.83 33.2 19.72 33.5C19.61 33.81 19.65 34.14 20.2 34.18C20.75 34.22 22.26 34.03 22.75 34.05C23.23 34.07 23.54 34.56 24 34.56C24.46 34.56 24.68 34.25 24.68 34.25C25.01 34.36 25.6 34.43 25.84 34.32C26.08 34.21 26.04 33.75 26.04 33.75C26.44 33.68 26.68 33.49 26.61 33.27C26.54 33.05 26.39 32.77 26.06 32.57C25.73 32.37 25.42 32.44 25.18 32.55C24.94 32.66 24.61 32.86 24.26 32.81C23.91 32.77 22.59 32.48 22.59 32.48C22.94 31.51 24.06 30.81 24.57 30.64C25.07 30.46 26.04 30.16 26.41 29.85C26.78 29.54 27 28.44 27.02 28.23C27.04 28.01 26.84 27.31 26.84 27.31C27.24 27.24 28.27 27.27 29.06 26.96C29.53 26.78 30.4 26.31 31.05 25.95C29.64 25.14 26.83 25.34 26.83 25.34C29.79 24.72 31.83 25.51 31.83 25.51C32.8 25.8 33.28 26.72 33.28 26.72C33.89 26.63 34.68 26.26 34.68 26.26C36.38 25.35 38.26 23.45 38.26 23.45M36.98 13.45C37.18 13.45 37.58 13.71 37.87 13.73C37.87 13.73 37.62 14.07 37.59 14.16C37.56 14.25 37.7 14.43 37.7 14.43C37.7 14.43 37.13 14 36.96 13.88C36.78 13.76 36.11 13.61 36.11 13.61C36.11 13.61 36.8 13.45 37 13.45M30.4 15.52C32.35 15.88 33.22 17.34 33.22 17.34C33.22 17.34 31.75 16.16 30.19 15.99C28.62 15.83 27.16 16.41 27.16 16.41C27.16 16.41 28.46 15.16 30.41 15.51M25.68 19.5C24.31 19.82 23.23 19.33 23.23 19.33C25.12 19.26 26.01 18.73 27.89 17.74C29.76 16.75 31.74 17.58 31.74 17.58C30.35 17.37 29.29 17.73 28.5 18.12C27.81 18.46 26.99 19.2 25.69 19.51M33.7 19.76C33.07 19.09 30.96 18.67 28.94 19.43C30.96 18.34 32.82 18.66 33.78 19.15C34.7 19.62 34.61 20.37 34.6 20.47C34.6 20.47 34.6 20.47 34.6 20.48C34.6 20.48 35.27 20.35 35.74 20.06C35.78 19.43 36.14 18.79 36.72 18.83C37.37 18.87 38.28 19.35 38.28 19.35C37.03 20.36 34.74 21.2 33.93 21.37C33.93 21.37 34.49 20.61 33.71 19.77" fill="#0076B6"/>
<path d="M44.7702 27.2099C44.7102 26.9199 44.3802 26.5099 44.0302 26.3099C43.6802 26.1099 43.2802 26.2899 42.9802 26.3099C42.6702 26.3299 42.4102 26.0899 42.3402 25.9399C42.2802 25.7899 42.0802 25.4999 41.8102 25.4599C41.5502 25.4199 40.9502 25.2599 40.1402 24.8899C39.6602 24.6699 39.0702 24.1799 38.6802 23.8199C38.3302 24.1799 37.7902 24.7199 37.1802 25.2099C36.5502 25.7299 35.7602 26.2299 35.2202 26.5499C36.5302 27.1699 38.0702 27.2499 38.7802 27.3299C39.6102 27.4199 40.4702 27.8099 40.4702 27.8099C40.4702 27.8099 40.5802 28.2899 41.1102 28.5299C41.6302 28.7699 42.4002 28.6399 42.4002 28.6399C42.4002 28.6399 42.8002 29.0299 43.1202 28.9299C43.4502 28.8199 43.4702 28.3799 43.4702 28.3799C43.4702 28.3799 43.8902 28.5999 44.1102 28.4499C44.3302 28.2999 44.2602 27.6799 44.2602 27.6799C44.5202 27.6799 44.8302 27.4999 44.7602 27.2199" fill="#0076B6"/>
</svg>
