<svg width="48" height="48" viewBox="0 0 48 48" fill="none" xmlns="http://www.w3.org/2000/svg">
<path d="M3.69137 33.0854C3.42115 32.9653 3.07086 32.8752 2.77062 32.3848C2.42034 31.8344 2.54044 31.434 2.66053 30.6834C2.78063 29.8828 2.76061 29.5625 2.54044 28.6618C2.35028 27.9312 2.2502 27.681 2.14011 26.8303C2.06005 26.3099 2 25.8696 2 25.5693C2 25.129 2.03002 24.7186 2.07006 24.1081C2.10008 23.7679 2.18015 23.2875 2.47038 22.3967C2.57046 22.1065 2.83067 21.426 2.9908 21.0957C3.26102 20.5553 3.55125 20.285 3.41114 19.3243C3.3611 18.954 3.22099 18.7538 3.16094 18.2634C3.09088 17.703 3.13091 17.4427 3.241 17.0925C3.34108 16.7522 3.47119 16.532 3.68136 16.2618C3.80145 16.1117 4.04165 15.8114 4.58208 15.7113C4.58208 15.7113 4.93237 15.6113 5.23261 15.6913C5.9632 15.7514 5.85311 16.4019 6.94399 15.7214C7.46441 15.4311 8.36514 15.1909 9.27588 15.8314C9.66619 16.0616 9.98645 16.8323 9.56611 15.5612C9.37596 14.8006 9.17579 14.4303 8.90558 13.2394C8.59533 12.1184 8.84553 10.9675 9.76627 10.347C10.4268 9.76655 11.7779 10.0268 13.3291 10.317C14.7003 10.5772 15.0205 10.1469 15.9513 10.1869C16.4717 10.2069 16.922 10.2069 17.3524 10.317C17.9429 10.4571 18.2831 10.6272 18.6134 10.8074C19.5442 11.3178 19.4941 10.8074 20.7952 10.9875C21.2155 11.0376 21.3756 10.9875 21.796 11.1076C22.2864 11.2477 22.5866 11.4079 23.017 11.6581C24.2279 12.3586 24.2279 12.5188 26.2396 12.4287C26.6099 12.4087 27.2804 12.6989 27.6307 12.9391C28.031 13.1993 29.0018 13.7698 29.8625 13.8198C30.9534 13.8899 31.8941 13.7498 33.2352 14.7105C34.216 15.5812 35.437 15.5412 36.5379 16.1417C36.8882 16.3318 37.7289 16.9724 38.1392 17.6329C38.2293 17.773 38.5895 18.0032 39.4803 18.1533C40.2909 18.2834 41.1316 19.2442 41.582 19.9147C42.1624 20.4452 41.8222 20.0849 42.6128 20.6453C42.9931 20.9155 43.1933 21.0457 43.5636 21.3259C44.054 21.6962 43.7437 21.426 44.3242 21.8863C44.4343 21.9664 44.5744 22.1265 44.9647 22.4768C45.4751 22.8671 45.6953 23.2174 45.8654 23.5577C46.1557 24.1281 45.9255 24.5285 45.6552 25.0089C45.4551 25.3591 45.1448 25.9196 44.6444 26.39C44.084 26.9104 44.134 26.9304 43.6236 27.2306C42.4727 27.9212 41.612 27.691 41.1216 28.5117C40.401 29.7227 39.8205 30.113 39.2801 30.3732C38.1792 30.8836 37.4486 30.8736 36.7481 31.414C36.1776 31.8544 35.2869 32.4349 34.6764 32.7051C33.5054 33.2255 33.3653 32.9152 32.5647 33.4156C32.2945 33.5858 32.4646 33.4857 31.784 34.0462C31.3937 34.3664 30.7632 34.6466 30.453 34.6867C30.0426 34.7467 29.5923 34.7868 29.212 34.8868C28.2512 35.147 28.1511 35.4773 27.0903 35.6775C25.8593 35.9177 25.3489 35.7976 24.1779 36.358C23.8677 36.5081 23.5374 36.6483 23.087 36.8985C22.7167 37.0986 21.5858 37.3788 20.7051 37.4189C20.3248 37.4389 19.9645 37.1887 19.0438 37.629C17.8528 38.1995 17.8328 38.1395 16.882 38.3296C16.5417 38.3997 16.1514 38.3596 15.7911 38.3596C15.1006 38.3596 14.39 38.1194 13.6494 38.1395C12.8988 38.1595 13.0689 38.1194 12.4384 38.1895L11.9981 38.2596L11.3375 38.4097C11.3375 38.4097 11.0973 38.4497 11.0973 38.4697C10.4969 38.5998 10.1366 38.5498 9.78629 38.4697C9.19581 38.3496 8.53528 37.9993 8.30509 37.6791C7.91478 37.2087 7.86474 36.7684 7.90477 36.1478C8.12495 35.077 8.57531 33.5658 8.78548 33.0253C8.78548 33.0253 9.13576 32.2347 8.29508 32.675C7.4444 32.9853 6.78386 32.4449 6.26344 32.615C5.75303 32.8752 5.44278 33.1054 4.80226 33.1955C4.14173 33.2955 3.63132 33.0854 3.63132 33.0854H3.69137Z" fill="white"/>
<path d="M13.1592 37.2487C13.9198 37.1586 14.0999 37.2187 14.7905 37.3088C15.421 37.3888 16.0315 37.5189 16.662 37.4389C16.9722 37.3988 17.2925 37.3388 17.5927 37.2487C18.4735 36.9685 18.8838 36.5882 19.9446 36.4381C20.8254 36.318 20.8254 36.4681 21.596 36.4381C22.4066 36.398 22.857 36.0577 23.1973 35.8676C23.6076 35.6474 23.7177 35.6274 23.9979 35.4773C24.9987 34.9469 26.1697 35.0069 27.2906 34.7367C28.0812 34.5465 28.3915 34.1762 29.2722 33.936C29.6225 33.846 30.0028 33.846 30.3831 33.7959C30.6733 33.7559 31.1737 33.5057 31.4639 33.2355C31.9543 32.7851 31.8943 32.7651 32.2746 32.5549C32.9051 32.1946 33.6157 32.2046 34.2562 31.9144C34.8467 31.6442 35.4572 31.404 35.9175 30.9336C36.5981 30.2431 37.669 30.0529 38.5597 29.7326C39.0801 29.5425 39.7606 29.2122 40.3411 28.2214C40.9016 27.2506 41.402 27.1105 42.4028 26.8103C43.0633 26.6101 43.3536 26.47 43.864 25.9896C44.3243 25.5593 44.4945 25.279 44.6946 24.9688C44.9348 24.6185 45.3952 24.0481 44.9048 23.6077C44.6846 23.4175 44.4644 23.0573 44.0041 22.697C43.6438 22.3767 43.3435 22.1966 43.2535 22.1165C42.713 21.6962 43.1734 22.0264 42.653 21.6962C42.2927 21.466 42.1826 21.2758 41.8123 21.0656C41.1418 20.6853 41.0717 20.5752 40.5313 19.9247C40.0609 19.064 39.3303 18.9439 38.5997 18.7838C37.8891 18.6237 37.3887 18.0632 37.2686 17.8631C36.8883 17.2526 36.2778 16.9523 35.9576 16.7722C34.9568 16.2317 33.7958 16.3118 32.8851 15.5112C31.524 14.5404 31.1637 14.7205 29.7225 14.6805C28.9319 14.6605 27.8911 14.1501 27.5508 13.8698C27.2706 13.6296 26.9403 13.4795 26.6501 13.3894C25.6392 13.0792 24.9487 13.6096 23.5275 12.9291C23.1172 12.7289 22.7369 12.4487 22.3366 12.2185C22.0864 12.0684 21.8862 11.9983 21.4959 11.9183C20.7453 11.7581 20.0948 11.8582 19.194 11.9383C18.7637 11.9783 18.5135 11.7481 18.1232 11.5379C17.7629 11.3478 17.3826 11.1977 16.9022 11.1176C16.2917 11.0075 15.5911 11.0876 14.8806 11.2277C13.4694 11.5079 12.1684 10.7974 10.8073 10.9275C10.5771 10.9475 10.1167 11.2377 9.96659 11.568C9.75642 12.0083 9.75642 12.2585 9.78644 12.6889C9.82647 13.2693 9.89653 13.3194 10.0066 13.6997C10.2568 14.5204 10.3769 14.9707 10.5771 15.5312C10.8073 16.1817 10.7973 16.9623 10.2568 17.2125C9.99661 17.3326 9.55626 17.3326 9.30605 17.1525C8.92575 16.8622 8.71558 16.4519 8.27522 16.3618C7.69475 16.2518 7.0042 16.8422 6.3937 17.0024C5.78321 17.1625 5.70314 16.8322 5.2728 16.6321C4.99257 16.502 4.71234 16.6921 4.55222 16.7822C4.26198 16.9423 4.19192 17.2726 4.13188 17.6229C4.08184 17.9031 4.05181 18.1633 4.13188 18.4736C4.23196 18.9239 4.38208 19.1941 4.39209 19.5044C4.42211 20.285 4.29201 20.8655 3.97175 21.2758C3.76158 21.536 3.50137 22.2666 3.41129 22.5368C3.13107 23.4376 3.16109 23.2774 3.02098 24.1081C2.95092 24.5284 2.96093 25.0088 2.9209 25.4092C2.9209 25.4792 2.97094 26.3899 3.01097 26.6602C3.12106 27.3307 3.24116 27.761 3.38127 28.3215C3.58143 29.1322 3.6715 29.6426 3.65149 30.2731C3.63147 30.9136 3.22114 31.5241 3.61146 31.9845C3.85165 32.2647 4.48216 32.5249 4.98256 32.2947C5.50298 32.0645 5.87328 31.7943 6.28361 31.7443C7.03422 31.6442 7.51461 31.9644 7.83487 31.9244C8.1251 31.8944 8.6255 31.6042 8.8657 31.5841C9.05585 31.5641 9.46618 31.5541 9.6063 31.6542C9.83648 31.8243 9.9766 32.0145 9.93656 32.605L9.79645 33.2355C9.55626 34.0161 9.30605 34.7267 9.18596 35.2671C9.05585 35.8276 8.44536 37.0285 9.68636 37.5189C10.2068 37.7291 10.7572 37.6891 11.4378 37.5189C11.7881 37.4289 11.9282 37.4188 12.2484 37.3588C12.2484 37.3388 12.7288 37.3388 12.7288 37.3188L13.1592 37.2988V37.2487Z" fill="#231F20"/>
<path d="M36.5878 18.5836C36.9181 18.8038 37.3084 19.3643 37.6286 19.8346C38.029 20.1949 38.059 20.4051 39.0398 20.5752C38.8496 20.5452 39.9205 20.9155 40.0806 20.9956C40.501 21.2258 40.611 21.3759 40.9813 21.7962C41.3717 22.2366 41.5218 22.3567 42.3024 22.8771C42.6027 23.0773 42.6627 23.1473 43.2332 23.5577C43.4734 23.7278 43.7736 23.998 43.8737 24.2282C44.1439 24.7987 43.7636 24.9988 43.1731 25.3191C42.2023 25.8395 41.3917 25.6894 40.521 26.5801C39.7904 27.3307 38.9897 28.2314 38.4493 28.4016C38.2091 28.4716 37.5886 28.6718 37.1683 28.932C36.7479 29.1922 36.6278 29.1822 36.2475 29.5225C35.7972 29.9228 35.547 30.213 34.7163 30.4933C34.2059 30.6734 33.6054 30.7535 33.075 30.9136C32.6746 31.0337 32.3644 31.1938 32.0141 31.394C31.4737 31.6942 30.8331 32.4048 29.9424 32.5749C28.181 32.9052 28.6514 32.8652 27.4004 33.4356C27.0901 33.5757 26.4496 33.7259 25.9992 33.7259C25.2486 33.7259 24.6582 33.846 23.9976 34.2063C23.5172 34.4665 23.0268 34.9368 22.0761 35.0569C20.9051 35.2171 20.8451 35.0569 19.3839 35.3772C18.9435 35.4673 18.3831 35.7975 17.9628 35.9477C17.4924 36.1178 16.3815 36.1378 15.5908 36.0678C14.8202 35.9977 14.2598 35.9977 13.1489 36.1979C12.2882 36.358 11.8278 36.368 10.9871 36.348C10.797 36.348 10.6569 36.2079 10.5368 36.0177C10.3966 35.7775 10.3766 35.5774 10.4067 35.3171C10.4767 34.7767 10.4667 34.7467 10.5868 34.2363C10.6268 34.0862 10.817 33.0853 10.857 32.9252C11.0672 31.9644 11.1372 30.9937 10.3766 30.5533C10.1364 30.4132 9.54596 30.3331 9.12562 30.4032C7.84458 30.6334 8.1148 30.8435 7.29414 30.5533C7.15403 30.5033 6.80374 30.4432 6.60358 30.4532C6.19325 30.4732 5.61278 30.7535 5.09236 30.8435C4.73207 30.9036 4.63199 30.4933 4.642 30.203C4.66202 29.7527 4.70205 29.3223 4.68203 28.8219C4.63199 27.5108 4.40181 27.4408 4.24168 26.6501C4.10156 25.9296 4.14159 24.7086 4.10156 24.7486C4.14159 23.7478 4.59196 22.6569 4.85217 22.2866C5.12239 21.8963 5.18244 21.7362 5.39261 21.2558C5.61278 20.7454 5.58276 20.295 5.47267 19.7246C5.47267 19.7145 5.34256 19.2942 5.3826 19.2942C5.34256 19.024 5.41262 18.7338 5.49269 18.5436C5.6328 18.2434 5.74289 18.1032 5.96307 18.0132C6.10318 17.9531 6.24329 17.8831 6.39341 17.8731C6.8738 17.843 6.96387 18.1433 7.85459 17.773C8.31496 17.5828 8.77534 17.843 9.00552 17.9231C9.62602 18.1433 9.51593 18.1433 9.90625 18.1633C10.2765 18.1733 10.6368 18.0832 10.9871 17.8731C11.1873 17.753 11.3374 17.6829 11.4575 17.5128C11.5576 17.3626 11.6977 16.9523 11.7277 16.7421C11.7678 16.4819 11.8478 16.3218 11.7678 15.7113C11.5676 14.9607 11.4975 14.8006 11.3674 14.3202C11.2573 13.9299 11.1272 13.5596 11.0672 13.1993L11.0472 12.7689C10.9971 12.4086 11.2373 12.1584 11.5476 12.1584C12.6485 12.1584 13.6893 12.4687 14.8602 12.4587C15.821 12.4587 16.2314 12.2585 17.3723 12.6689C17.7626 12.809 18.0028 13.1392 18.6233 13.3094C19.7942 13.6396 20.735 12.849 21.7358 13.3194C22.5765 13.7097 22.3963 13.4795 23.187 13.9799C23.5573 14.2101 24.2378 14.6104 25.2086 14.7505C25.8892 14.8506 26.96 14.5704 28.0709 15.371C28.6914 15.8214 29.2619 16.0016 30.0625 16.0916C31.0033 16.1917 31.0934 16.0516 31.834 16.592C32.3744 16.9823 32.2243 16.9023 32.7747 17.3026C33.0249 17.4827 33.2151 17.6729 33.5754 17.833C33.7755 17.9231 34.5662 18.0332 34.5461 18.0332C35.2467 18.0732 35.4469 18.0132 35.9973 18.2133C35.9873 18.2033 36.7179 18.6837 36.5878 18.5936V18.5836Z" fill="white"/>
<path d="M12.3781 25.2391V26.7303H17.9726L18.5331 26.2098V24.4284H17.7024V23.978L20.7849 22.2066L21.0451 22.4768C20.3545 22.9572 19.8241 23.4176 19.4038 24.1282C18.8033 25.139 18.5731 26.5301 18.9334 27.651C19.1636 28.4016 19.4538 28.852 19.9542 29.3824C20.4346 29.8828 20.8549 30.173 21.6456 30.5433C22.2961 30.8636 23.8173 31.334 24.9983 31.4541C26.1492 31.5441 27.5804 31.5241 28.5311 31.404C29.572 31.2939 30.6529 30.9236 31.2934 30.6534C31.8138 30.4032 32.3842 30.173 32.8346 29.8228C33.9455 29.0221 35.1265 27.8111 35.1365 26.3099H33.0648C32.4143 28.6218 26.1292 29.6826 23.6172 27.8912C21.7857 26.45 22.3061 25.179 23.0767 24.5885L23.3069 24.8387L22.9166 25.2491L22.9466 26.7403H28.2409L28.9215 26.0897V24.4784H28.5111L26.6796 22.5069C30.2025 21.7562 31.9439 23.2975 32.9647 24.9889H34.3458L35.0464 24.3083V20.3951H33.5752L32.6945 20.9356C29.572 19.5545 27.2501 19.7146 24.8281 20.5152L24.4378 20.1149L26.6796 18.7838H28.0307L28.6913 18.1433V16.8123H23.2969L22.7265 17.3927V18.3035L17.6624 21.1958V18.964L18.483 18.1333V16.7922H13.1787L12.4482 17.6429V18.7038H13.3189V24.4384H13.0486C13.0486 24.4384 12.3381 25.2391 12.3781 25.2591V25.2391Z" fill="#231F20"/>
<path d="M13.3193 17.1024H18.1632V17.9731L17.3426 17.9831V21.7462L23.9479 17.9731H23.3674V17.1024H28.3615V17.9731L27.2506 17.9831L23.8679 19.9747L28.4215 24.8987H28.5817V25.9095H23.5476V24.8887L24.2482 24.8987L21.1356 21.576L17.3726 23.7278V24.8987H18.1632V25.8995H13.3193V24.8987H14.14V17.9731H13.3193V17.1024Z" fill="#6D6E71"/>
<path d="M34.7666 26.6201H33.4355C32.9051 27.5008 32.1645 28.2014 30.4731 28.7018C27.2005 29.6725 24.068 29.1821 22.6869 27.4608C21.5359 26.1297 22.0764 24.9687 22.807 24.3282L21.3558 22.767C20.2049 23.5576 19.8045 24.2882 19.5643 25.0088C19.3642 25.5993 19.094 26.8002 19.6544 27.9311C20.335 29.1021 21.4358 29.7826 22.1664 30.0529C23.3674 30.5533 25.329 31.0236 27.5308 30.9336C29.112 30.8935 30.4932 30.6133 31.8242 29.9428C32.5949 29.5324 32.755 29.4424 33.5256 28.7218C34.1061 28.0612 34.5665 27.6409 34.7666 26.6201V26.6201Z" fill="#6D6E71"/>
<path d="M25.0986 20.7654C26.0894 20.4552 28.8717 19.5044 32.7848 21.2358L33.6155 20.6953H34.7764V24.1682L33.4754 24.1782C32.1643 22.2066 29.1819 21.516 26.3997 22.1765L25.1086 20.7554L25.0986 20.7654Z" fill="#6D6E71"/>
</svg>
