<svg width="48" height="48" viewBox="0 0 48 48" fill="none" xmlns="http://www.w3.org/2000/svg">
<path d="M3.69098 33.0801C3.42082 32.9601 3.07062 32.87 2.77045 32.3797C2.42024 31.8294 2.55032 31.4292 2.66038 30.6787C2.78045 29.8783 2.76044 29.5581 2.54031 28.6576C2.36021 27.9271 2.25015 27.677 2.14008 26.8265C2.06003 26.3062 2 25.8659 2 25.5658C2 25.1255 2.03002 24.7153 2.07004 24.1049C2.10006 23.7647 2.1801 23.2844 2.47027 22.3939C2.57033 22.1038 2.83048 21.4234 2.99057 21.0932C3.26073 20.5529 3.5509 20.2827 3.41082 19.3221C3.36079 18.9519 3.22071 18.7518 3.16067 18.2615C3.09063 17.7012 3.13066 17.4411 3.24072 17.0909C3.34078 16.7507 3.47085 16.5305 3.68098 16.2604C3.80104 16.1103 4.04118 15.8101 4.5815 15.71C4.5815 15.71 4.94171 15.61 5.23188 15.69C5.9623 15.7501 5.85223 16.4005 6.95287 15.7201C7.47318 15.4299 8.3737 15.1897 9.28423 15.8301C9.67445 16.0603 9.99464 16.8307 9.57439 15.56C9.38428 14.7995 9.18417 14.4293 8.91401 13.2386C8.60383 12.118 8.85398 10.9673 9.77451 10.3469C10.4349 9.7666 11.7857 10.0268 13.3366 10.3169C14.7074 10.5771 15.0276 10.1468 15.9581 10.1868C16.4784 10.2069 16.9287 10.2069 17.3589 10.3169C17.9493 10.457 18.2895 10.6271 18.6196 10.8072C19.5502 11.3175 19.5002 10.8072 20.8009 10.9873C21.2212 11.0373 21.3812 10.9873 21.8015 11.1074C22.2918 11.2475 22.5919 11.4076 23.0222 11.6577C24.2329 12.3581 24.2329 12.5182 26.2441 12.4281C26.6143 12.4081 27.2847 12.6983 27.6349 12.9384C28.0351 13.1986 29.0057 13.7689 29.8662 13.819C30.9568 13.889 31.8973 13.7489 33.2381 14.7095C34.2187 15.58 35.4394 15.54 36.54 16.1403C36.8902 16.3304 37.7307 16.9708 38.141 17.6312C38.231 17.7712 38.5912 18.0014 39.4817 18.1515C40.2922 18.2815 41.1327 19.2421 41.583 19.9125C42.1633 20.4428 41.8231 20.0826 42.6136 20.6429C42.9938 20.9131 43.1939 21.0431 43.5641 21.3233C44.0544 21.6935 43.7442 21.4234 44.3246 21.8836C44.4346 21.9637 44.5747 22.1238 44.9649 22.474C45.4752 22.8642 45.6954 23.2144 45.8655 23.5546C46.1556 24.1249 45.9255 24.5252 45.6553 25.0054C45.4552 25.3556 45.145 25.916 44.6447 26.3862C44.0844 26.9065 44.1344 26.9266 43.6241 27.2267C42.4735 27.9171 41.613 27.687 41.1227 28.5075C40.4023 29.7182 39.8219 30.1084 39.2816 30.3686C38.181 30.8789 37.4506 30.8688 36.7502 31.4092C36.1798 31.8494 35.2893 32.4298 34.679 32.6999C33.5083 33.2202 33.3682 32.91 32.5677 33.4103C32.2976 33.5804 32.4677 33.4804 31.7873 34.0407C31.3971 34.3609 30.7667 34.641 30.4565 34.6811C30.0463 34.7411 29.596 34.7811 29.2158 34.8812C28.2552 35.1413 28.1552 35.4715 27.0946 35.6716C25.8638 35.9118 25.3536 35.7917 24.1829 36.352C23.8727 36.5021 23.5425 36.6422 23.0922 36.8923C22.722 37.0925 21.5914 37.3726 20.7109 37.4126C20.3306 37.4327 19.9704 37.1825 19.0499 37.6228C17.8592 38.1931 17.8392 38.1331 16.8886 38.3232C16.5484 38.3932 16.1582 38.3532 15.798 38.3532C15.1076 38.3532 14.3972 38.1131 13.6568 38.1331C12.9063 38.1531 13.0764 38.1131 12.4461 38.1831L12.0058 38.2531L11.3454 38.4032C11.3454 38.4032 11.1053 38.4432 11.1053 38.4633C10.5049 38.5933 10.1447 38.5433 9.79452 38.4633C9.20418 38.3432 8.5438 37.993 8.31366 37.6728C7.92344 37.2025 7.87341 36.7623 7.91343 36.1419C8.13356 35.0713 8.58382 33.5604 8.79394 33.0201C8.79394 33.0201 9.14415 32.2296 8.30366 32.6699C7.45316 32.9801 6.79278 32.4398 6.27248 32.6099C5.76218 32.87 5.452 33.1001 4.81163 33.1902C4.15125 33.2903 3.64095 33.0801 3.64095 33.0801H3.69098Z" fill="white"/>
<path d="M13.1563 37.2425C13.9168 37.1525 14.0969 37.2125 14.7873 37.3026C15.4177 37.3826 16.028 37.5127 16.6584 37.4326C16.9686 37.3926 17.2887 37.3326 17.5889 37.2425C18.4694 36.9624 18.8797 36.5822 19.9403 36.4321C20.8208 36.312 20.8208 36.4621 21.5912 36.4321C22.4017 36.392 22.852 36.0518 23.1922 35.8617C23.6024 35.6416 23.7125 35.6216 23.9926 35.4715C24.9932 34.9412 26.1639 35.0012 27.2845 34.7311C28.075 34.541 28.3852 34.1708 29.2657 33.9306C29.6159 33.8406 29.9961 33.8406 30.3763 33.7905C30.6665 33.7505 31.1668 33.5004 31.457 33.2302C31.9473 32.7799 31.8872 32.7599 32.2674 32.5498C32.8978 32.1896 33.6082 32.1996 34.2486 31.9094C34.8389 31.6393 35.4493 31.3991 35.9096 30.9289C36.59 30.2385 37.6606 30.0484 38.5511 29.7282C39.0714 29.5381 39.7518 29.2079 40.3321 28.2173C40.8924 27.2467 41.3927 27.1067 42.3933 26.8065C43.0537 26.6064 43.3439 26.4663 43.8542 25.986C44.3144 25.5558 44.4845 25.2756 44.6846 24.9654C44.9248 24.6152 45.3851 24.0449 44.8948 23.6046C44.6746 23.4145 44.4545 23.0543 43.9942 22.6941C43.634 22.3739 43.3339 22.1938 43.2438 22.1138C42.7035 21.6935 43.1638 22.0237 42.6435 21.6935C42.2833 21.4634 42.1732 21.2733 41.803 21.0632C41.1326 20.6829 41.0625 20.5729 40.5222 19.9225C40.052 19.062 39.3215 18.9419 38.5911 18.7818C37.8807 18.6217 37.3804 18.0614 37.2603 17.8613C36.8801 17.2509 36.2698 16.9508 35.9496 16.7707C34.949 16.2303 33.7883 16.3104 32.8778 15.5099C31.517 14.5394 31.1568 14.7195 29.716 14.6794C28.9255 14.6594 27.8849 14.1491 27.5447 13.869C27.2645 13.6288 26.9343 13.4788 26.6442 13.3887C25.6336 13.0785 24.9432 13.6088 23.5224 12.9284C23.1121 12.7283 22.7319 12.4482 22.3317 12.218C22.0815 12.0679 21.8814 11.9979 21.4912 11.9178C20.7408 11.7578 20.0904 11.8578 19.1899 11.9379C18.7696 11.9779 18.5095 11.7477 18.1192 11.5376C17.759 11.3475 17.3788 11.1974 16.8985 11.1174C16.2882 11.0073 15.5878 11.0874 14.8773 11.2274C13.4665 11.5076 12.1658 10.7972 10.805 10.9273C10.5749 10.9473 10.1146 11.2375 9.9645 11.5676C9.75438 12.0079 9.75438 12.258 9.78439 12.6883C9.82442 13.2686 9.89446 13.3187 10.0045 13.6989C10.2547 14.5194 10.3747 14.9696 10.5749 15.5299C10.805 16.1803 10.795 16.9608 10.2547 17.2109C9.99452 17.331 9.55426 17.331 9.30411 17.1509C8.92389 16.8607 8.71377 16.4505 8.27352 16.3604C7.69318 16.2504 7.00278 16.8407 6.39242 17.0008C5.78207 17.1609 5.70202 16.8307 5.27177 16.6306C4.99161 16.5005 4.71145 16.6906 4.55136 16.7807C4.26119 16.9408 4.19115 17.271 4.13111 17.6212C4.08108 17.9013 4.05107 18.1615 4.13111 18.4716C4.23117 18.9219 4.38126 19.1921 4.39126 19.5022C4.42128 20.2827 4.29121 20.863 3.97102 21.2733C3.7609 21.5334 3.50075 22.2638 3.41069 22.534C3.13053 23.4345 3.16055 23.2744 3.02047 24.1049C2.95043 24.5252 2.96043 25.0054 2.92041 25.4057C2.92041 25.4757 2.97044 26.3862 3.01046 26.6564C3.12053 27.3268 3.2406 27.757 3.38068 28.3174C3.58079 29.1278 3.67085 29.6381 3.65083 30.2685C3.63082 30.9089 3.22058 31.5192 3.61081 31.9795C3.85095 32.2596 4.48132 32.5198 4.99161 32.2897C5.51191 32.0595 5.88213 31.7894 6.29237 31.7393C7.0428 31.6393 7.52308 31.9595 7.84327 31.9195C8.13344 31.8894 8.63373 31.5993 8.87386 31.5793C9.06398 31.5592 9.47421 31.5492 9.61429 31.6493C9.84443 31.8194 9.98451 32.0095 9.94449 32.5998L9.80441 33.2302C9.56427 34.0107 9.31412 34.7211 9.19405 35.2614C9.06398 35.8217 8.45362 37.0224 9.69434 37.5127C10.2146 37.7228 10.765 37.6828 11.4454 37.5127C11.7956 37.4226 11.9356 37.4126 12.2558 37.3526C12.2558 37.3326 12.7361 37.3326 12.7361 37.3126L13.1664 37.2926L13.1563 37.2425Z" fill="black"/>
<path d="M36.5799 18.5817C36.9101 18.8019 37.3003 19.3622 37.6205 19.8325C38.0107 20.1927 38.0508 20.4028 39.0313 20.5729C38.8412 20.5429 39.9119 20.9131 40.0719 20.9931C40.4922 21.2233 40.6023 21.3734 40.9725 21.7936C41.3627 22.2339 41.5128 22.3539 42.2932 22.8742C42.5934 23.0744 42.6534 23.1444 43.2238 23.5546C43.4639 23.7247 43.7641 23.9949 43.8641 24.225C44.1343 24.7954 43.7541 24.9955 43.1637 25.3157C42.1932 25.836 41.3827 25.6859 40.5122 26.5764C39.7818 27.3268 38.9813 28.2273 38.441 28.3974C38.2009 28.4675 37.5805 28.6676 37.1603 28.9278C36.74 29.1879 36.6199 29.1779 36.2397 29.5181C35.7895 29.9183 35.5393 30.2085 34.7088 30.4887C34.1985 30.6688 33.5982 30.7488 33.0679 30.9089C32.6777 31.029 32.3575 31.1891 32.0073 31.3892C31.467 31.6894 30.8266 32.3998 29.9361 32.5699C28.175 32.9001 28.6453 32.86 27.3946 33.4304C27.0844 33.5704 26.444 33.7205 25.9938 33.7205C25.2433 33.7205 24.653 33.8406 23.9926 34.2008C23.5123 34.461 23.0221 34.9312 22.0715 35.0513C20.9008 35.2114 20.8308 35.0513 19.3799 35.3715C18.9397 35.4615 18.3794 35.7917 17.9591 35.9418C17.4888 36.1119 16.3782 36.1319 15.5877 36.0619C14.8173 35.9919 14.257 35.9919 13.1463 36.192C12.2858 36.3521 11.8256 36.3621 10.9851 36.3421C10.795 36.3421 10.6549 36.202 10.5348 36.0119C10.3947 35.7717 10.3747 35.5716 10.4047 35.3115C10.4748 34.7711 10.4648 34.7411 10.5848 34.2308C10.6249 34.0807 10.815 33.0802 10.855 32.9201C11.0651 31.9595 11.1352 30.9889 10.3747 30.5487C10.1346 30.4086 9.54423 30.3286 9.12399 30.3986C7.84325 30.6287 8.1134 30.8389 7.29293 30.5487C7.15284 30.4987 6.80264 30.4386 6.60253 30.4486C6.19229 30.4686 5.60195 30.7488 5.09165 30.8389C4.73144 30.8989 4.63138 30.4887 4.64139 30.1985C4.6614 29.7482 4.70142 29.318 4.68141 28.8177C4.63138 27.5069 4.40125 27.4369 4.24116 26.6464C4.10107 25.926 4.1411 24.7053 4.10107 24.7453C4.1411 23.7447 4.59136 22.6541 4.85151 22.2839C5.12167 21.8937 5.1817 21.7336 5.39182 21.2533C5.61195 20.743 5.58193 20.2927 5.47187 19.7224C5.47187 19.7124 5.34179 19.2922 5.38182 19.2922C5.34179 19.022 5.41183 18.7318 5.49188 18.5417C5.63196 18.2416 5.74203 18.1015 5.96215 18.0114C6.10224 17.9514 6.24232 17.8813 6.3924 17.8713C6.87268 17.8413 6.96273 18.1415 7.85325 17.7713C8.31352 17.5812 8.77379 17.8413 9.00392 17.9214C9.62428 18.1415 9.51422 18.1415 9.90444 18.1615C10.2747 18.1715 10.6349 18.0815 10.9851 17.8713C11.1852 17.7513 11.3353 17.6812 11.4553 17.5111C11.5554 17.361 11.6955 16.9508 11.7255 16.7407C11.7655 16.4805 11.8456 16.3204 11.7655 15.7101C11.5654 14.9596 11.4954 14.7996 11.3653 14.3193C11.2552 13.929 11.1252 13.5588 11.0651 13.1986L11.0451 12.7684C10.9951 12.4082 11.2352 12.158 11.5454 12.158C12.646 12.158 13.6866 12.4682 14.8573 12.4582C15.8179 12.4582 16.2281 12.2581 17.3688 12.6683C17.759 12.8084 17.9991 13.1386 18.6195 13.3087C19.7902 13.6389 20.7307 12.8484 21.7313 13.3187C22.5718 13.7089 22.3917 13.4788 23.1821 13.9791C23.5524 14.2092 24.2328 14.6094 25.2033 14.7495C25.8837 14.8496 26.9543 14.5694 28.065 15.3699C28.6853 15.8201 29.2557 16.0002 30.0561 16.0903C30.9967 16.1904 31.0867 16.0503 31.8272 16.5906C32.3675 16.9808 32.2174 16.9008 32.7677 17.301C33.0179 17.4811 33.208 17.6712 33.5682 17.8313C33.7783 17.9214 34.5587 18.0314 34.5387 18.0314C35.2391 18.0715 35.4393 18.0114 35.9896 18.2115C35.9796 18.2015 36.71 18.6818 36.5799 18.5918V18.5817Z" fill="white"/>
<path d="M12.376 25.2356V26.7265H17.9692L18.5295 26.2062V24.4251H17.6991V23.9749L20.7809 22.2039L21.041 22.474C20.3506 22.9543 19.8203 23.4146 19.4001 24.125C18.7997 25.1356 18.5696 26.5264 18.9298 27.647C19.1599 28.3974 19.4501 28.8477 19.9504 29.378C20.4307 29.8783 20.8509 30.1685 21.6414 30.5387C22.2917 30.8589 23.8126 31.3291 24.9933 31.4492C26.144 31.5393 27.5748 31.5193 28.5253 31.3992C29.5659 31.2891 30.6466 30.9189 31.287 30.6488C31.8073 30.3986 32.3776 30.1685 32.8278 29.8183C33.9385 29.0178 35.1192 27.8071 35.1292 26.3062H33.058C32.4076 28.6176 26.124 29.6782 23.6125 27.8871C21.7814 26.4463 22.3017 25.1756 23.0722 24.5852L23.3023 24.8354L22.9121 25.2456L22.9421 26.7365H28.2352L28.9156 26.0861V24.4752H28.5053L26.6743 22.504C30.1963 21.7536 31.9373 23.2945 32.9579 24.9855H34.3387L35.0391 24.3051V20.3928H33.5683L32.6878 20.9331C29.5659 19.5523 27.2446 19.7124 24.8232 20.5129L24.433 20.1126L26.6743 18.7819H28.0251L28.6854 18.1415V16.8107H23.2923L22.722 17.3911V18.3016L17.659 21.1933V18.962L18.4795 18.1315V16.7907H13.1764L12.456 17.6412V18.7018H13.3265V24.4351H13.0564C13.0564 24.4351 12.346 25.2356 12.386 25.2556L12.376 25.2356Z" fill="black"/>
<path d="M13.3164 17.1008H18.1592V17.9713L17.3387 17.9813V21.7435L23.9426 17.9713H23.3622V17.1008H28.3551V17.9713L27.2445 17.9813L23.8625 19.9725L28.4152 24.8954H28.5753V25.9059H23.5423V24.8853L24.2427 24.8954L21.1309 21.5734L17.3688 23.7247V24.8954H18.1592V25.8959H13.3164V24.8954H14.1369V17.9713H13.3164V17.1008Z" fill="#E31837"/>
<path d="M34.7592 26.6163H33.4284C32.8981 27.4968 32.1577 28.1973 30.4667 28.6975C27.2048 29.6681 24.063 29.1778 22.6822 27.4568C21.5315 26.1261 22.0718 24.9654 22.8023 24.325L21.3514 22.7641C20.2007 23.5546 19.8005 24.285 19.5604 25.0054C19.3603 25.5957 19.0901 26.7964 19.6504 27.9271C20.3308 29.0978 21.4315 29.7782 22.1619 30.0483C23.3626 30.5486 25.3237 31.0189 27.525 30.9288C29.1059 30.8888 30.4867 30.6087 31.8175 29.9383C32.5879 29.528 32.748 29.438 33.5185 28.7176C34.0988 28.0572 34.5591 27.6369 34.7592 26.6163V26.6163Z" fill="#E31837"/>
<path d="M25.0933 20.7629C26.0838 20.4527 28.8655 19.5022 32.7777 21.2332L33.6082 20.6929H34.7689V24.1649L33.4681 24.1749C32.1574 22.2037 29.1756 21.5133 26.394 22.1737L25.1033 20.7529L25.0933 20.7629Z" fill="#E31837"/>
</svg>
