<svg width="48" height="48" viewBox="0 0 48 48" fill="none" xmlns="http://www.w3.org/2000/svg">
<path d="M24.2139 32.359C24.5007 31.2286 25.2802 30.3117 25.4648 30.1653C25.4648 30.1653 24.255 31.7793 24.6044 34.3162C24.6044 34.3162 24.9369 32.2369 26.5052 30.1973C28.0718 28.1577 29.5775 27.2028 30.8254 25.6788C31.518 24.8321 31.9115 24.019 32.1449 23.2883C32.3356 22.7422 32.4226 22.2083 32.4607 21.8147C32.1236 21.8452 31.8017 21.8864 31.4783 21.9184C31.4752 21.9306 31.4737 21.9428 31.4707 21.952C31.1457 23.0397 30.5157 23.8223 29.5165 24.2799C28.2107 25.6117 26.2626 26.5376 25.1749 27.2348C23.2574 28.4644 22.9416 30.8899 22.9416 30.8899C23.1521 27.1677 25.4343 26.6871 27.9285 24.8581C27.9803 24.8199 28.1054 24.7482 28.1558 24.7101L28.078 24.7421C27.7667 24.7421 27.1291 24.6842 26.8362 24.614C26.5631 24.8016 26.2977 24.9664 26.0521 25.1006C24.7478 25.813 23.8416 26.9739 23.8416 26.9739C24.194 25.7963 25.0193 25.2989 26.2565 24.4279C25.7943 24.2372 25.2771 23.9153 24.9202 23.5629C24.191 23.9397 22.58 24.9176 21.5076 25.932C20.6503 26.7436 19.0577 27.8938 17.1767 28.7801C18.6549 27.8023 21.1491 25.604 22.0232 24.7711C22.0232 24.7711 18.7449 26.6643 17.8068 27.3004C17.8068 27.3004 19.0272 25.9534 20.5359 25.1235C20.5359 25.1235 17.1996 26.4904 15.279 27.8008C14.2859 28.4796 12.765 29.8617 11.8848 30.8014C12.2463 30.7236 13.6162 30.446 13.9823 30.4094C16.4491 30.1561 19.1461 30.3483 21.5091 27.5033C21.5473 27.4575 21.5869 27.4102 21.622 27.369C21.4161 28.0723 21.3276 29.0578 21.3673 30.1577C21.4527 32.5329 23.2986 33.471 24.0125 33.9699C23.9942 33.6785 23.9499 33.3871 24.2123 32.3605L24.2139 32.359Z" fill="#FFC62F"/>
<path d="M18.707 30.2263L18.6597 30.2309C18.6597 30.2309 19.3599 30.597 19.9396 30.597C20.5193 30.597 20.9952 30.4093 20.9952 30.4093C20.9952 30.4093 20.8991 29.0486 21.0272 28.6031C21.0272 28.6031 19.9258 29.9212 18.707 30.2263V30.2263Z" fill="#FFC62F"/>
<path d="M24.458 20.033V20.0299C24.458 20.0299 25.6448 20.3777 26.3618 20.93C26.3618 20.93 25.5838 20.7713 24.789 20.6722C25.3595 21.5219 26.3282 22.0832 27.4296 22.0832C28.2641 22.0832 29.0207 21.7598 29.5882 21.2351C29.4524 21.3296 29.3243 21.4029 29.2236 21.4517C28.9521 21.5829 28.6836 21.6286 28.4822 21.6424C28.0276 21.7873 27.5715 21.7247 27.454 21.7034C27.4632 21.7019 27.4723 21.6973 27.483 21.6958C28.8514 21.4593 30.1267 20.4143 29.9833 18.8187C29.9208 18.1383 29.7133 17.4106 29.2846 16.9515C29.8201 17.4076 30.1862 18.0605 30.2533 18.8126C30.2869 19.1833 30.2442 19.5433 30.1404 19.8789C30.3144 19.5051 30.415 19.0902 30.4211 18.6524C30.5218 19.1207 30.4852 19.5219 30.3754 19.8652C30.5111 19.5265 30.5889 19.1589 30.595 18.7729C30.6042 18.8171 30.6088 18.8599 30.6164 18.9041C30.6164 18.901 30.6164 18.898 30.6164 18.8949C30.6164 18.6646 30.592 18.4403 30.5447 18.2237V18.1917C30.3616 17.0018 29.4906 15.8684 28.3785 15.3695C28.0459 15.1971 27.033 14.8234 25.9377 14.7242C25.4419 14.6678 24.9095 14.6739 24.2581 14.7425C23.9667 14.773 23.6845 14.8097 23.4069 14.8447C21.9195 15.0354 20.5161 15.2154 19.0119 14.3718C17.1478 13.4321 15.7687 11.3346 15.5063 9.03258L15.4773 8.7824C15.4392 8.4651 15.4255 8.12949 15.4072 7.80456C15.3812 7.51776 15.3278 7.36064 15.3217 7.39725C15.3187 7.41861 15.3248 7.44454 15.3248 7.4659C15.3263 7.7115 15.2668 7.95558 15.2287 8.19509C15.1844 8.48035 15.1249 9.02343 15.1219 9.00513C15.1173 8.98224 15.1097 8.95936 15.1066 8.938C15.0944 8.85868 15.0914 8.77935 15.0899 8.70003C15.0883 8.53985 15.0853 8.37814 15.0761 8.21797C15.0563 7.81524 14.9877 6.63907 14.9556 6.48958C14.948 6.45144 14.9312 6.31719 14.8915 6.29431C14.8961 6.43313 14.89 6.57195 14.8824 6.70925C14.8671 7.06927 14.7863 7.49641 14.7497 7.8549C14.7146 8.21492 14.6536 8.56883 14.5986 8.92733C14.5834 9.02648 14.562 9.22327 14.559 9.19124C14.559 9.18513 14.559 9.17751 14.5575 9.16988C14.5376 8.95021 14.4827 8.2439 14.4873 7.44149V7.27673C14.4797 7.30724 14.4751 7.33928 14.4705 7.37131C14.3393 8.14322 14.1837 9.21717 14.1685 10.375C14.1685 10.4086 14.1715 10.5047 14.17 10.5566C14.1624 10.9166 14.1776 12.4146 14.8214 14.0683C15.8007 16.5823 17.7 18.2512 20.4657 19.0261C21.8356 19.4151 23.3779 19.705 24.4519 20.0299L24.458 20.033Z" fill="white"/>
<path d="M26.6345 36.2887C26.3035 36.037 25.347 35.3246 24.7627 34.9997C24.0458 34.6015 23.2616 34.1637 22.9565 33.8937C22.9565 33.8937 22.9504 35.1537 23.5667 36.1148C24.0259 36.8318 25.2814 37.4862 26.0991 37.9759C26.1692 37.709 26.3599 37.0255 26.6345 36.2872V36.2887Z" fill="#FFC62F"/>
<path d="M25.103 34.7067C25.6964 35.0759 26.415 35.5243 26.8101 35.8386C26.9062 35.6083 27.0084 35.3779 27.1182 35.1628C27.7528 33.9119 28.3752 33.4649 28.6224 32.1606C28.8695 30.8563 28.2486 29.8556 27.7772 29.3644C27.7772 29.3644 26.357 30.9173 25.8002 32.1835C25.3044 33.3124 25.1305 34.2231 25.103 34.7052V34.7067Z" fill="#FFC62F"/>
<path d="M22.3604 19.9887C22.2505 19.9613 22.1392 19.9323 22.0263 19.9048C21.802 19.8484 21.5747 19.795 21.3474 19.7431C21.0957 19.6852 20.844 19.6272 20.5969 19.5662C20.5832 19.6287 20.571 19.6897 20.5603 19.7507C20.5237 19.9719 20.4947 20.1962 20.4688 20.4204C21.0347 20.274 21.7029 20.1169 22.3466 20.0025C22.3619 19.9994 22.3772 19.9979 22.3909 19.9948C22.3802 19.9918 22.3695 19.9887 22.3588 19.9872L22.3604 19.9887Z" fill="#FFC62F"/>
<path d="M23.9742 11.7632C21.8766 10.4681 21.3549 9.23697 21.0376 7.47502C20.9872 7.19128 20.9186 6.92126 20.8423 6.66498C20.9018 7.33315 20.8484 7.95708 20.8484 7.95708C20.7676 7.31179 20.3648 6.1814 20.3648 6.1814C20.5265 6.90753 20.5662 8.07759 20.5662 8.07759C20.5189 7.66571 20.3389 7.02195 20.2031 6.57345C20.2519 6.89838 20.2916 7.20348 20.3221 7.45366C20.4289 8.3232 20.223 9.87616 20.8377 11.5039C21.2359 12.5565 22.1024 13.3299 22.621 13.7189C23.0512 13.1133 23.6019 12.3337 23.9742 11.7617V11.7632Z" fill="white"/>
<path d="M38.9671 22.9741C38.3249 23.2274 36.8268 22.7743 35.8917 22.7072C34.955 22.6401 34.3006 23.0809 34.3006 23.0809C34.0458 22.4387 34.3402 21.5707 34.3402 21.5707C34.145 21.5737 33.4417 21.6607 33.2434 21.6714C33.2404 21.682 33.1687 21.6942 33.0588 21.7064C33.0588 21.7278 33.0588 21.7492 33.0588 21.7705C33.0588 21.7705 32.7629 24.0405 31.6874 25.5202C31.9696 25.6758 32.679 25.8894 32.9307 26.1182C33.396 26.5423 33.4204 27.154 33.399 27.3966C33.3777 27.6391 33.341 28.0724 33.1183 28.9297C33.1183 28.9297 33.0634 27.6956 32.9536 27.3325C32.8437 26.9694 32.4303 26.6338 32.0337 26.5133C31.8537 26.4584 31.5242 26.3699 31.1565 26.2875C30.4472 27.0991 29.7332 27.659 29.062 28.2569C29.1337 28.3668 29.2329 28.4598 29.3747 28.498C29.779 28.6032 30.2885 28.3622 30.2885 28.3622C30.2885 28.3622 29.9651 29.8633 30.8255 31.1417C31.4677 32.0951 32.7095 31.851 32.7095 31.851C32.7095 31.851 32.9764 29.9655 34.1526 28.4553C35.2372 27.0625 36.5598 26.3409 37.4828 26.0694C37.4492 25.8985 37.3928 25.5446 37.4584 25.3722C37.5468 25.1419 37.8001 24.9314 38.1082 24.9314C38.4164 24.9314 38.7688 25.0961 38.7688 25.0961C38.604 25.0625 38.1738 25.0412 37.9542 25.2715C37.7848 25.45 37.8626 25.8085 37.9084 25.9656C38.7581 25.81 39.5391 25.9153 39.6886 25.9519C39.8488 25.9916 39.9953 25.9656 40.0502 25.7643C40.1036 25.5644 40.1036 25.3234 39.9968 25.2426C39.89 25.1617 39.7161 25.1358 39.5422 25.0015C39.3683 24.8673 39.2218 24.5469 39.2356 24.0786C39.2493 23.6103 38.9686 22.9696 38.9686 22.9696L38.9671 22.9741ZM36.7826 23.3372C36.8939 23.4699 37.0907 23.7552 37.1014 23.8544C37.1014 23.8666 37.1014 23.894 37.0999 23.9306C37.0999 23.9306 37.0999 23.9413 37.0968 23.9566C37.0968 23.9581 37.0968 23.9596 37.0968 23.9611C37.0831 24.1137 37.0099 24.8215 36.8466 25.0198C36.8222 25.0595 36.7948 25.0976 36.7612 25.1312C36.5736 25.3066 36.2456 25.4729 35.6262 25.9031C34.9428 26.3775 34.4043 27.3462 34.4043 27.3462C34.4043 27.3462 34.5981 26.4309 35.0206 25.9077C35.5439 25.2593 36.2258 24.8307 36.6453 24.608L36.8344 23.7628C36.6895 23.6667 36.508 23.5676 36.331 23.5355C35.9649 23.4715 35.3486 23.4791 34.9718 23.357C34.9733 23.354 34.9764 23.3494 34.9764 23.3494C35.4279 23.2945 35.6918 23.1618 36.3631 23.0519C37.0343 22.9421 37.5529 23.1404 37.5529 23.1404C37.1014 23.1633 36.7826 23.3387 36.7826 23.3387V23.3372Z" fill="#E9BF9B"/>
<path d="M34.9928 21.5966C34.6633 21.8162 34.7396 22.4783 34.7396 22.4783C34.7396 22.4783 35.0035 22.2037 35.6533 22.0374C36.3032 21.8727 37.1621 21.9932 37.1621 21.9932C36.6663 22.0923 36.3917 22.2571 36.3917 22.2571C37.3161 22.3776 37.4824 22.6751 38.715 22.5881C39.9492 22.4996 40.1032 21.3326 40.1032 21.3326C40.1032 21.3326 39.8164 21.4654 39.1788 21.6072C38.5396 21.7506 37.2521 21.5523 36.8661 21.5081C36.4802 21.4638 35.3238 21.3754 34.9943 21.5966H34.9928Z" fill="#FFC62F"/>
<path d="M22.7446 14.4344C22.9414 14.4115 23.1413 14.3856 23.3457 14.3596C23.6264 14.323 23.9132 14.2864 24.2076 14.2559C24.8941 14.1827 25.4615 14.1766 25.9878 14.2376C27.0313 14.3322 28.0305 14.6632 28.5049 14.8844C29.826 15.4427 30.8664 16.7882 31.051 18.1947H31.0495C31.0571 18.2344 31.0647 18.2725 31.0708 18.3122C31.0739 18.3275 31.0754 18.3412 31.0769 18.3564C31.0845 18.4068 31.0906 18.4571 31.0967 18.5075C31.4247 18.4693 33.147 18.2741 34.584 18.2832C35.8655 18.2924 37.002 18.4251 37.5496 18.5151C36.9882 17.2627 36.1187 15.7936 34.8068 14.5503C31.8381 11.7388 28.1708 10.3949 25.1076 10.2545C25.1076 10.2545 25.0603 10.8037 24.7293 11.5054C24.6118 11.7541 24.4593 12.0226 24.2579 12.2926C23.9696 12.6801 23.393 13.4764 22.8621 14.2788C22.8438 14.3062 22.7446 14.4329 22.7446 14.4329V14.4344Z" fill="#FFC62F"/>
<path d="M26.624 40.5418C26.624 40.5418 26.9352 39.9941 27.2815 39.3824C27.0649 39.1978 26.772 38.9766 26.4105 38.7524C26.0825 38.5495 25.5211 38.2688 25.0314 37.9866C25.0284 38.2535 25.0619 38.9293 25.4433 39.4785C25.9284 40.1802 26.624 40.5403 26.624 40.5403V40.5418Z" fill="#FFC62F"/>
<path d="M24.6181 23.1404C24.5693 23.0733 24.5205 23.0047 24.4747 22.9345L24.374 22.8475C24.0338 22.9162 19.4802 23.5142 13.9716 27.2166C12.1471 28.4431 9.90921 30.62 8.80322 31.8343C9.27613 31.6268 10.2967 31.1996 11.1037 30.951C11.9274 30.1043 13.2821 28.7329 14.5223 27.8634C17.3964 25.8512 22.3115 23.7689 24.6181 23.1404V23.1404Z" fill="#FFC62F"/>
<path d="M37.9923 29.1005C39.4126 28.1654 40.6421 27.8527 40.6421 27.8527C40.6421 27.8527 40.5933 27.0838 39.8168 26.3546C39.8168 26.3546 38.6391 26.0236 37.164 26.6963C35.6873 27.3676 34.2823 28.7085 33.6752 30.0967C33.0695 31.4849 33.0222 32.9524 32.9566 34.0325C32.8911 35.1125 33.0711 36.725 32.647 38.1773C32.647 38.1773 33.3426 37.1475 33.5958 34.2415C33.8247 31.6054 34.4776 29.7916 35.6888 28.9434C35.6888 28.9434 34.7201 30.2874 34.3891 32.4902C34.0581 34.693 34.1252 35.5519 33.7179 37.3809L33.6172 37.7242C33.6172 37.7242 34.5874 36.426 35.1122 33.0424C35.5714 30.0845 36.4378 28.7573 37.6277 28.0632C37.6277 28.0632 36.0351 29.7931 35.6705 32.2705C35.6705 32.2705 36.5736 30.0387 37.9939 29.1021L37.9923 29.1005Z" fill="#FFC62F"/>
<path d="M30.0974 31.2377C29.6535 30.5848 29.3468 29.2805 29.3468 29.2805C29.3468 29.2805 28.7916 29.2683 28.4636 28.8213C28.4087 28.8777 28.3537 28.9326 28.2988 28.9906C28.2988 28.9906 28.7992 29.6847 29.1043 30.9905C29.3362 31.9836 28.7153 33.6007 28.7153 33.6007C28.7153 33.6007 29.0372 34.4122 29.1806 35.3992C29.2004 35.387 29.2202 35.3748 29.2401 35.3642C29.2401 35.3642 30.973 34.4458 31.9036 34.0568C32.05 33.9958 32.2361 33.9287 32.4436 33.8585C32.4634 33.4695 32.5016 32.9356 32.5809 32.4382C32.4024 32.4428 32.2377 32.4459 32.0988 32.4459C31.1408 32.4459 30.5444 31.8906 30.0989 31.2377H30.0974Z" fill="#E9BF9B"/>
<path d="M39.6062 32.4245C39.1333 32.4108 37.2798 32.3513 36.128 32.3513C36.1235 32.3513 36.1189 32.3513 36.1143 32.3513C35.9984 32.5329 35.9068 32.7251 35.8062 32.9951C36.128 32.9325 36.4377 32.8761 36.7215 32.8334C38.2912 32.5969 39.5818 32.5557 39.7908 32.5283C39.9998 32.5008 40.3735 32.5145 40.5123 32.4032C40.5123 32.4032 40.0776 32.4383 39.6062 32.4245V32.4245Z" fill="#E9BF9B"/>
<path d="M25.588 41.2221C25.678 41.5226 25.9008 41.6782 26.122 41.7941C26.2638 41.3426 26.4484 40.8422 26.4484 40.8422C26.1113 40.6714 25.7848 40.3831 25.7848 40.3831C25.6597 40.5448 25.4416 40.7309 25.5865 41.2221H25.588Z" fill="#FFC62F"/>
<path d="M40.1584 30.5162C39.8273 30.3835 39.266 30.417 39.266 30.417C39.266 30.417 39.6962 29.3705 39.6519 28.7985C39.6519 28.7985 37.1592 29.8724 36.4453 31.851C36.4453 31.851 37.9403 31.8891 38.7778 31.9883C39.6153 32.0874 40.1599 32.0905 40.346 32.1027C40.5337 32.1134 40.9181 32.1347 40.7976 31.4528C40.6771 30.7694 40.4894 30.6489 40.1584 30.5162V30.5162Z" fill="#E9BF9B"/>
<path d="M25.3944 44.0626C25.1976 44.3067 25.1091 44.7964 25.2327 44.9428C25.3562 45.0893 25.5301 45.071 25.6385 44.9489C25.7468 44.8269 25.7788 44.6347 25.6278 44.4318C25.5073 44.267 25.3944 44.0626 25.3944 44.0626Z" fill="#FFC62F"/>
<path d="M28.3142 34.2872C28.2089 34.4566 28.0411 34.7174 27.9435 34.8501C27.6323 35.2697 26.8665 36.9386 26.54 38.2459C26.6377 38.3069 26.7262 38.3634 26.8009 38.4152C27.1609 38.6669 27.373 38.8683 27.4935 39.0026C27.6506 38.7249 27.9572 38.4412 28.0793 38.22C28.5293 37.4038 28.8741 36.4397 28.7612 35.561C28.6849 34.9585 28.4134 34.4779 28.3127 34.2872H28.3142Z" fill="#FFC62F"/>
<path d="M25.9087 43.2983C25.6479 43.1214 25.4801 42.9246 25.4801 42.9246C25.1322 43.5226 25.3 43.6629 25.7806 44.0183C26.1086 44.2609 26.046 44.5782 26.046 44.5782C26.046 44.5782 26.496 44.3494 26.4671 44.0611C26.4472 43.8688 26.1711 43.4753 25.9102 43.2983H25.9087Z" fill="#FFC62F"/>
<path d="M27.0802 40.4365C26.8025 40.9368 26.5523 41.5943 26.4272 41.9467C26.4532 41.962 26.4791 41.9772 26.502 41.9925C26.7629 42.1679 27.0969 42.6378 27.0969 42.6378C27.0969 42.6378 27.8124 41.8414 28.1038 40.9384C28.3951 40.0353 28.0473 38.9552 28.0473 38.9552C28.0473 38.9552 27.4783 39.721 27.0802 40.438V40.4365Z" fill="#FFC62F"/>
<path d="M26.1496 42.2061C25.7927 42.0352 25.605 41.7972 25.605 41.7972C25.605 41.7972 25.3915 42.0856 25.4708 42.4273C25.5501 42.769 25.8674 42.917 26.2046 43.0878C26.5417 43.2587 26.6698 43.6019 26.6698 43.6019C26.9093 43.4341 27.0283 43.1763 26.8956 42.8956C26.7629 42.6149 26.5081 42.3769 26.1512 42.2061H26.1496Z" fill="#FFC62F"/>
<path d="M37.797 19.0078C37.4019 18.9346 36.1449 18.7439 34.5828 18.7333C33.1641 18.7241 31.4525 18.9011 31.1154 18.9392C31.1154 18.9407 31.1154 18.9422 31.1154 18.9453C31.1138 21.0566 29.297 22.5623 27.6052 22.5882C25.05 22.6263 24.1087 20.5669 24.0904 20.4449C23.9089 20.3915 23.7136 20.3381 23.5123 20.2847C23.1736 20.3259 22.8105 20.3777 22.4292 20.4449C21.7244 20.5684 20.9982 20.7423 20.4063 20.8964C20.3789 21.2091 20.3331 21.711 20.3316 21.7553C20.2477 23.5325 20.359 23.4089 20.359 23.4089C20.8747 23.2075 22.7754 22.7194 22.7754 22.7194C23.3322 22.5897 23.9928 22.4509 24.7662 22.3075C25.3108 23.4043 26.4397 24.1579 27.747 24.1579C29.3793 24.1579 30.7355 22.9833 31.0192 21.4334C34.5859 21.0459 36.2731 21.0352 38.4759 21.3281C38.2455 20.1001 37.7986 19.0078 37.7986 19.0078H37.797Z" fill="#4F2683"/>
<path d="M37.5542 23.1403C37.5542 23.1403 37.037 22.942 36.3658 23.0519C35.6931 23.1617 35.4292 23.2944 34.9776 23.3493C34.9776 23.3493 34.9746 23.3539 34.973 23.357C35.3498 23.4805 35.9661 23.4714 36.3323 23.5354C36.5092 23.5675 36.6907 23.6666 36.8357 23.7627L36.6465 24.6079C36.2255 24.8321 35.5436 25.2593 35.0218 25.9076C34.9822 25.9564 34.944 26.0098 34.909 26.0662C34.8922 26.0891 34.8769 26.1135 34.8632 26.1395C34.8434 26.1715 34.8251 26.2035 34.8083 26.2356C34.7869 26.2737 34.7671 26.3134 34.7473 26.3546C34.7274 26.3942 34.7091 26.4339 34.6923 26.4736C34.6176 26.6414 34.5581 26.8092 34.5139 26.951C34.5078 26.9678 34.5032 26.9846 34.4986 26.9999C34.465 27.1112 34.4406 27.2027 34.4254 27.2653C34.4223 27.2744 34.4208 27.2821 34.4193 27.2897C34.4193 27.2958 34.4162 27.3019 34.4147 27.308C34.4116 27.3202 34.4101 27.3309 34.4086 27.337C34.4086 27.34 34.4086 27.3431 34.4086 27.3446C34.4177 27.3294 34.465 27.2439 34.5444 27.1204C34.5627 27.0929 34.581 27.0639 34.6023 27.0319C34.7549 26.8031 34.9868 26.4858 35.2629 26.2142C35.301 26.1761 35.3407 26.1379 35.3803 26.1029C35.4612 26.0312 35.5436 25.964 35.629 25.9045C36.2483 25.4744 36.5763 25.3081 36.764 25.1326C36.7975 25.0976 36.825 25.0594 36.8494 25.0213C37.0126 24.823 37.0858 24.1136 37.0996 23.9626V23.958C37.0996 23.9428 37.1026 23.9321 37.1026 23.9321C37.1026 23.9061 37.1026 23.8848 37.1026 23.8711V23.8558C37.092 23.7566 36.8936 23.4698 36.7838 23.3387C36.7838 23.3387 37.1026 23.1617 37.5542 23.1403V23.1403ZM37.5542 23.1403C37.5542 23.1403 37.037 22.942 36.3658 23.0519C35.6931 23.1617 35.4292 23.2944 34.9776 23.3493C34.9776 23.3493 34.9746 23.3539 34.973 23.357C35.3498 23.4805 35.9661 23.4714 36.3323 23.5354C36.5092 23.5675 36.6907 23.6666 36.8357 23.7627L36.6465 24.6079C36.2255 24.8321 35.5436 25.2593 35.0218 25.9076C34.9822 25.9564 34.944 26.0098 34.909 26.0662C34.8922 26.0891 34.8769 26.1135 34.8632 26.1395C34.8434 26.1715 34.8251 26.2035 34.8083 26.2356C34.7869 26.2737 34.7671 26.3134 34.7473 26.3546C34.7274 26.3942 34.7091 26.4339 34.6923 26.4736C34.6176 26.6414 34.5581 26.8092 34.5139 26.951C34.5078 26.9678 34.5032 26.9846 34.4986 26.9999C34.465 27.1112 34.4406 27.2027 34.4254 27.2653C34.4223 27.2744 34.4208 27.2821 34.4193 27.2897C34.4193 27.2958 34.4162 27.3019 34.4147 27.308C34.4116 27.3202 34.4101 27.3309 34.4086 27.337C34.4086 27.34 34.4086 27.3431 34.4086 27.3446C34.4177 27.3294 34.465 27.2439 34.5444 27.1204C34.5627 27.0929 34.581 27.0639 34.6023 27.0319C34.7549 26.8031 34.9868 26.4858 35.2629 26.2142C35.301 26.1761 35.3407 26.1379 35.3803 26.1029C35.4612 26.0312 35.5436 25.964 35.629 25.9045C36.2483 25.4744 36.5763 25.3081 36.764 25.1326C36.7975 25.0976 36.825 25.0594 36.8494 25.0213C37.0126 24.823 37.0858 24.1136 37.0996 23.9626V23.958C37.0996 23.9428 37.1026 23.9321 37.1026 23.9321C37.1026 23.9061 37.1026 23.8848 37.1026 23.8711V23.8558C37.092 23.7566 36.8936 23.4698 36.7838 23.3387C36.7838 23.3387 37.1026 23.1617 37.5542 23.1403V23.1403ZM37.5542 23.1403C37.5542 23.1403 37.037 22.942 36.3658 23.0519C35.6931 23.1617 35.4292 23.2944 34.9776 23.3493C34.9776 23.3493 34.9746 23.3539 34.973 23.357C35.3498 23.4805 35.9661 23.4714 36.3323 23.5354C36.5092 23.5675 36.6907 23.6666 36.8357 23.7627L36.6465 24.6079C36.2255 24.8321 35.5436 25.2593 35.0218 25.9076C34.9822 25.9564 34.944 26.0098 34.909 26.0662C34.8922 26.0891 34.8769 26.1135 34.8632 26.1395C34.8434 26.1715 34.8251 26.2035 34.8083 26.2356C34.7869 26.2737 34.7671 26.3134 34.7473 26.3546C34.7274 26.3942 34.7091 26.4339 34.6923 26.4736C34.6176 26.6414 34.5581 26.8092 34.5139 26.951C34.5078 26.9678 34.5032 26.9846 34.4986 26.9999C34.465 27.1112 34.4406 27.2027 34.4254 27.2653C34.4223 27.2744 34.4208 27.2821 34.4193 27.2897C34.4193 27.2958 34.4162 27.3019 34.4147 27.308C34.4116 27.3202 34.4101 27.3309 34.4086 27.337C34.4086 27.34 34.4086 27.3431 34.4086 27.3446C34.4177 27.3294 34.465 27.2439 34.5444 27.1204C34.5627 27.0929 34.581 27.0639 34.6023 27.0319C34.7549 26.8031 34.9868 26.4858 35.2629 26.2142C35.301 26.1761 35.3407 26.1379 35.3803 26.1029C35.4612 26.0312 35.5436 25.964 35.629 25.9045C36.2483 25.4744 36.5763 25.3081 36.764 25.1326C36.7975 25.0976 36.825 25.0594 36.8494 25.0213C37.0126 24.823 37.0858 24.1136 37.0996 23.9626V23.958C37.0996 23.9428 37.1026 23.9321 37.1026 23.9321C37.1026 23.9061 37.1026 23.8848 37.1026 23.8711V23.8558C37.092 23.7566 36.8936 23.4698 36.7838 23.3387C36.7838 23.3387 37.1026 23.1617 37.5542 23.1403V23.1403ZM37.5542 23.1403C37.5542 23.1403 37.037 22.942 36.3658 23.0519C35.6931 23.1617 35.4292 23.2944 34.9776 23.3493C34.9776 23.3493 34.9746 23.3539 34.973 23.357C35.3498 23.4805 35.9661 23.4714 36.3323 23.5354C36.5092 23.5675 36.6907 23.6666 36.8357 23.7627L36.6465 24.6079C36.2255 24.8321 35.5436 25.2593 35.0218 25.9076C34.9822 25.9564 34.944 26.0098 34.909 26.0662C34.8922 26.0891 34.8769 26.1135 34.8632 26.1395C34.8434 26.1715 34.8251 26.2035 34.8083 26.2356C34.7869 26.2737 34.7671 26.3134 34.7473 26.3546C34.7274 26.3942 34.7091 26.4339 34.6923 26.4736C34.6176 26.6414 34.5581 26.8092 34.5139 26.951C34.5078 26.9678 34.5032 26.9846 34.4986 26.9999C34.465 27.1112 34.4406 27.2027 34.4254 27.2653C34.4223 27.2744 34.4208 27.2821 34.4193 27.2897C34.4193 27.2958 34.4162 27.3019 34.4147 27.308C34.4116 27.3202 34.4101 27.3309 34.4086 27.337C34.4086 27.34 34.4086 27.3431 34.4086 27.3446C34.4177 27.3294 34.465 27.2439 34.5444 27.1204C34.5627 27.0929 34.581 27.0639 34.6023 27.0319C34.7549 26.8031 34.9868 26.4858 35.2629 26.2142C35.301 26.1761 35.3407 26.1379 35.3803 26.1029C35.4612 26.0312 35.5436 25.964 35.629 25.9045C36.2483 25.4744 36.5763 25.3081 36.764 25.1326C36.7975 25.0976 36.825 25.0594 36.8494 25.0213C37.0126 24.823 37.0858 24.1136 37.0996 23.9626V23.958C37.0996 23.9428 37.1026 23.9321 37.1026 23.9321C37.1026 23.9061 37.1026 23.8848 37.1026 23.8711V23.8558C37.092 23.7566 36.8936 23.4698 36.7838 23.3387C36.7838 23.3387 37.1026 23.1617 37.5542 23.1403V23.1403ZM37.5542 23.1403C37.5542 23.1403 37.037 22.942 36.3658 23.0519C35.6931 23.1617 35.4292 23.2944 34.9776 23.3493C34.9776 23.3493 34.9746 23.3539 34.973 23.357C35.3498 23.4805 35.9661 23.4714 36.3323 23.5354C36.5092 23.5675 36.6907 23.6666 36.8357 23.7627L36.6465 24.6079C36.2255 24.8321 35.5436 25.2593 35.0218 25.9076C34.9822 25.9564 34.944 26.0098 34.909 26.0662C34.8922 26.0891 34.8769 26.1135 34.8632 26.1395C34.8434 26.1715 34.8251 26.2035 34.8083 26.2356C34.7869 26.2737 34.7671 26.3134 34.7473 26.3546C34.7274 26.3942 34.7091 26.4339 34.6923 26.4736C34.6176 26.6414 34.5581 26.8092 34.5139 26.951C34.5078 26.9678 34.5032 26.9846 34.4986 26.9999C34.465 27.1112 34.4406 27.2027 34.4254 27.2653C34.4223 27.2744 34.4208 27.2821 34.4193 27.2897C34.4193 27.2958 34.4162 27.3019 34.4147 27.308C34.4116 27.3202 34.4101 27.3309 34.4086 27.337C34.4086 27.34 34.4086 27.3431 34.4086 27.3446C34.4177 27.3294 34.465 27.2439 34.5444 27.1204C34.5627 27.0929 34.581 27.0639 34.6023 27.0319C34.7549 26.8031 34.9868 26.4858 35.2629 26.2142C35.301 26.1761 35.3407 26.1379 35.3803 26.1029C35.4612 26.0312 35.5436 25.964 35.629 25.9045C36.2483 25.4744 36.5763 25.3081 36.764 25.1326C36.7975 25.0976 36.825 25.0594 36.8494 25.0213C37.0126 24.823 37.0858 24.1136 37.0996 23.9626V23.958C37.0996 23.9428 37.1026 23.9321 37.1026 23.9321C37.1026 23.9061 37.1026 23.8848 37.1026 23.8711V23.8558C37.092 23.7566 36.8936 23.4698 36.7838 23.3387C36.7838 23.3387 37.1026 23.1617 37.5542 23.1403V23.1403ZM37.5542 23.1403C37.5542 23.1403 37.037 22.942 36.3658 23.0519C35.6931 23.1617 35.4292 23.2944 34.9776 23.3493C34.9776 23.3493 34.9746 23.3539 34.973 23.357C35.3498 23.4805 35.9661 23.4714 36.3323 23.5354C36.5092 23.5675 36.6907 23.6666 36.8357 23.7627L36.6465 24.6079C36.2255 24.8321 35.5436 25.2593 35.0218 25.9076C34.9822 25.9564 34.944 26.0098 34.909 26.0662C34.8922 26.0891 34.8769 26.1135 34.8632 26.1395C34.8434 26.1715 34.8251 26.2035 34.8083 26.2356C34.7869 26.2737 34.7671 26.3134 34.7473 26.3546C34.7274 26.3942 34.7091 26.4339 34.6923 26.4736C34.6176 26.6414 34.5581 26.8092 34.5139 26.951C34.5078 26.9678 34.5032 26.9846 34.4986 26.9999C34.465 27.1112 34.4406 27.2027 34.4254 27.2653C34.4223 27.2744 34.4208 27.2821 34.4193 27.2897C34.4193 27.2958 34.4162 27.3019 34.4147 27.308C34.4116 27.3202 34.4101 27.3309 34.4086 27.337C34.4086 27.34 34.4086 27.3431 34.4086 27.3446C34.4177 27.3294 34.465 27.2439 34.5444 27.1204C34.5627 27.0929 34.581 27.0639 34.6023 27.0319C34.7549 26.8031 34.9868 26.4858 35.2629 26.2142C35.301 26.1761 35.3407 26.1379 35.3803 26.1029C35.4612 26.0312 35.5436 25.964 35.629 25.9045C36.2483 25.4744 36.5763 25.3081 36.764 25.1326C36.7975 25.0976 36.825 25.0594 36.8494 25.0213C37.0126 24.823 37.0858 24.1136 37.0996 23.9626V23.958C37.0996 23.9428 37.1026 23.9321 37.1026 23.9321C37.1026 23.9061 37.1026 23.8848 37.1026 23.8711V23.8558C37.092 23.7566 36.8936 23.4698 36.7838 23.3387C36.7838 23.3387 37.1026 23.1617 37.5542 23.1403V23.1403ZM41.1864 31.0256C41.1254 30.6519 40.7501 30.3178 40.5625 30.2766C40.3748 30.2354 39.8958 30.1103 39.8958 30.1103C40.2497 29.1111 40.2497 28.4857 40.2497 28.4857C40.5625 28.3194 41.1864 28.0692 41.1864 28.0692C40.9789 26.9648 40.2284 26.1105 40.2284 26.1105C40.2909 25.8817 40.4374 25.4866 40.4374 25.3401C40.4374 25.1937 40.1658 24.945 39.8745 24.7574C39.5831 24.5697 39.5419 24.2372 39.5419 23.8405C39.5419 23.4439 39.3756 22.9451 39.3131 22.9237C39.2505 22.9039 40.056 22.6491 40.3062 21.9398C40.5564 21.2319 40.5625 20.6568 40.5625 20.6568C40.2299 21.1419 38.9271 21.3418 38.9271 21.3418C38.8234 20.2373 37.9371 16.6753 34.3552 13.4473C30.7733 10.2194 24.6698 9.63508 24.6698 9.63508C24.679 9.81509 24.6561 10.0287 24.6027 10.2636C24.5523 10.5672 24.4639 10.9257 24.3098 11.2155C24.3006 11.2323 24.2884 11.2536 24.2762 11.2735C23.4341 10.8173 22.5494 10.2041 22.1436 9.48711C21.3579 8.09891 21.4556 6.90444 21.0391 5.92507C20.3572 4.32177 19.3733 3.45071 19.0804 3.19595C18.9126 3.0495 18.8561 3.00068 18.7692 3.07086C18.6837 3.1395 18.7402 3.23866 18.8104 3.3424C18.876 3.44003 19.4892 4.62229 19.718 6.22712C19.9469 7.83042 19.6433 10.3612 20.3938 11.9859C20.8606 12.9973 21.6325 13.7982 22.1497 14.2589C22.168 14.2741 22.1863 14.2909 22.2031 14.3062L22.3709 14.4724C21.3 14.5731 20.3038 14.535 19.2451 13.94C17.5427 13.0827 16.2368 11.0889 15.9973 8.97912L15.9683 8.72589C15.9012 8.14772 15.9287 7.56956 15.9028 6.98987C15.8799 6.46357 15.8219 5.9388 15.7304 5.42013C15.6907 5.1913 15.6434 4.96553 15.5885 4.73975C15.587 4.7367 15.587 4.73518 15.587 4.73213C15.5641 4.59483 15.5244 4.45906 15.4848 4.32482C15.4588 4.23634 15.4298 4.14786 15.4009 4.05786C15.3337 3.86107 15.2468 3.6719 15.1354 3.4919C15.0012 3.27527 14.8532 3.06476 14.6808 2.87712C14.5786 2.76576 14.4688 2.6605 14.3452 2.57354C14.3452 2.57354 14.2308 2.50185 14.153 2.54303C14.153 2.54303 14.0508 2.61473 14.1591 2.83746C14.1591 2.83746 14.1866 2.8817 14.2186 2.95797C14.2369 3.00068 14.2567 3.05408 14.275 3.1151C14.2918 3.17001 14.3056 3.22951 14.3162 3.29358C14.4017 3.75123 14.4627 4.7367 14.1011 6.61765L14.0981 6.62375C14.0661 6.89681 14.031 7.16988 13.9837 7.44142C13.8342 8.32163 13.6893 9.32083 13.6648 10.3582C13.6648 10.4039 13.6709 10.5382 13.6694 10.5656C13.6587 11.4886 13.8357 17.5387 20.0918 19.444C20.0628 19.5737 20.0353 19.6988 20.0155 19.8193C19.5929 22.4874 19.7485 23.6117 19.7485 23.6117C19.7485 23.6117 19.7485 23.6224 19.7516 23.6392C18.4717 24.1212 17.024 24.7711 15.4985 25.6437C13.7915 26.5788 11.9395 27.8511 10.1272 29.5871C9.78702 29.9151 9.46819 30.237 9.16614 30.5573C9.09292 30.6336 9.0197 30.7114 8.94647 30.7892C8.94342 30.7953 8.93732 30.7999 8.93274 30.8045C7.97625 31.8342 7.25469 32.783 6.73145 33.5549C9.5582 31.5138 13.9745 30.9021 15.3246 30.8228C16.7403 30.7404 18.1742 30.4978 18.1742 30.4978C18.1742 30.4978 18.7341 30.7968 19.4023 30.9433C20.1604 31.1111 20.9537 30.87 20.9537 30.87C21.239 32.3376 22.2702 33.2803 22.5402 33.4924C22.47 33.9333 22.5417 35.3886 23.0375 36.1971C23.5714 37.0682 24.4532 37.6555 24.4532 37.6555C24.4532 37.6555 24.3922 38.4442 24.5996 39.0086C24.8071 39.573 25.2892 40.0871 25.2892 40.0871C25.2892 40.0871 25.0695 40.4563 25.0405 40.92C25.0115 41.3838 25.2892 41.6416 25.2892 41.6416C25.2892 41.6416 25.0374 41.965 24.9947 42.2167C24.9535 42.4699 25.1091 42.8498 25.1091 42.8498C25.1091 42.8498 24.9566 43.1274 24.9124 43.341C24.8666 43.5561 24.9947 43.82 24.9947 43.82C24.8925 44.0199 24.589 44.958 25.0359 45.3348C25.4814 45.7116 26.0367 45.0084 26.0367 45.0084C26.2075 44.958 26.5294 44.746 26.6819 44.508C26.8696 44.2166 26.8696 43.9451 26.8696 43.9451C26.8696 43.9451 27.1091 43.7895 27.3165 43.3929C27.4874 43.071 27.463 42.859 27.463 42.859C27.463 42.859 28.4317 41.8414 28.6331 40.5707C28.8054 39.4876 28.5507 38.4884 28.5507 38.4884C28.5507 38.4884 29.2783 37.3809 29.2448 36.1147C29.7406 35.7684 30.9366 34.9919 32.4254 34.4123C32.4682 35.2665 32.6024 36.0064 32.3354 37.3794C32.0014 39.0879 30.4804 40.3373 30.4804 40.3373C32.6055 40.1085 34.0226 38.2336 34.584 36.879C35.0432 35.7745 35.4612 34.2124 35.6549 33.5046C37.7281 33.1019 39.6212 32.9951 40.2497 32.9005C41.0827 32.7754 41.2917 32.5893 41.3115 32.2766C41.3328 31.9638 41.2489 31.4009 41.1864 31.0256V31.0256ZM39.5434 25.006C39.7173 25.1403 39.8912 25.1677 39.998 25.2471C40.1048 25.3279 40.1048 25.5689 40.0514 25.7688C39.998 25.9686 39.8501 25.9961 39.6899 25.9564C39.5404 25.9183 38.7593 25.813 37.9096 25.9686C37.8639 25.8115 37.7861 25.453 37.9554 25.2745C38.1751 25.0457 38.5976 25.0655 38.7654 25.0976C38.7258 25.0792 38.3993 24.9328 38.1095 24.9328C37.8013 24.9328 37.5481 25.1433 37.4596 25.3737C37.394 25.5461 37.4504 25.9 37.484 26.0708C36.5611 26.3424 35.2385 27.0639 34.1538 28.4567C32.9777 29.9669 32.7122 31.8525 32.7122 31.8525C32.7122 31.8525 31.4705 32.0965 30.8282 31.1431C29.9663 29.8632 30.2913 28.3621 30.2913 28.3621C30.2913 28.3621 29.7802 28.6032 29.3775 28.4979C29.2356 28.4613 29.1349 28.3682 29.0632 28.2569C29.736 27.6604 30.4499 27.1005 31.1593 26.289C31.5254 26.3698 31.8549 26.4583 32.0349 26.5147C32.4315 26.6353 32.845 26.9709 32.9563 27.3339C33.0662 27.697 33.1211 28.9311 33.1211 28.9311C33.3438 28.0723 33.3789 27.6406 33.4002 27.3965C33.4231 27.1555 33.3972 26.5422 32.9334 26.1181C32.6817 25.8893 31.9724 25.6772 31.6902 25.5216C32.7656 24.0404 33.0616 21.7704 33.0616 21.7704C33.0616 21.7491 33.0616 21.7277 33.0616 21.7064C33.1714 21.6942 33.2431 21.6835 33.2462 21.6713C33.4445 21.6606 34.1477 21.5736 34.343 21.5706C34.343 21.5706 34.0486 22.4386 34.3033 23.0808C34.3033 23.0808 34.9578 22.64 35.8944 22.7071C36.8296 22.7742 38.3276 23.2288 38.9698 22.9741C38.9698 22.9741 39.2505 23.6163 39.2368 24.0846C39.2246 24.5514 39.371 24.8733 39.545 25.006H39.5434ZM39.1788 21.6072C39.8165 21.4638 40.1033 21.3326 40.1033 21.3326C40.1033 21.3326 39.9492 22.4996 38.7151 22.5866C37.4825 22.6751 37.3177 22.3776 36.3917 22.2571C36.3917 22.2571 36.6679 22.0908 37.1636 21.9932C37.1636 21.9932 36.3033 21.8711 35.6534 22.0359C35.0051 22.2022 34.7396 22.4767 34.7396 22.4767C34.7396 22.4767 34.6634 21.8162 34.9929 21.5965C35.3239 21.3753 36.4802 21.4638 36.8647 21.5081C37.2506 21.5523 38.5397 21.7506 39.1788 21.6072ZM38.4756 21.328C36.2728 21.0351 34.5871 21.0458 31.0189 21.4333C30.7352 22.9832 29.379 24.1594 27.7467 24.1594C26.4394 24.1594 25.3105 23.4042 24.7659 22.3074C23.9925 22.4508 23.3304 22.5896 22.7736 22.7193C22.7736 22.7193 20.8728 23.2075 20.3587 23.4088C20.3587 23.4088 20.2459 23.5324 20.3298 21.7552C20.3328 21.7125 20.377 21.2091 20.406 20.8979C20.9979 20.7438 21.7256 20.5699 22.4288 20.4448C22.8102 20.3777 23.1733 20.3258 23.5119 20.2846C23.7133 20.338 23.9086 20.3914 24.0901 20.4448C24.1099 20.5668 25.0512 22.6262 27.6064 22.5881C29.2982 22.5622 31.115 21.0565 31.1166 18.9452V18.9391C31.4537 18.9025 33.1653 18.724 34.584 18.7347C36.1461 18.7454 37.4032 18.9345 37.7983 19.0078C37.7983 19.0078 38.2452 20.1015 38.4756 21.328V21.328ZM20.4716 20.4204C20.496 20.1961 20.5265 19.9719 20.5616 19.7507C20.5738 19.6897 20.586 19.6271 20.5998 19.5661C20.8469 19.6256 21.0986 19.6836 21.3503 19.7415C21.5761 19.7949 21.8034 19.8483 22.0276 19.9048C22.1405 19.9322 22.2519 19.9597 22.3617 19.9887C22.3724 19.9902 22.3831 19.9932 22.3938 19.9963C22.3785 19.9993 22.3632 20.0009 22.348 20.0039C21.7042 20.1168 21.0361 20.2739 20.4716 20.4204ZM24.7293 11.5069C25.0603 10.8051 25.1076 10.2544 25.1076 10.2544C28.1693 10.3963 31.8381 11.7387 34.8052 14.5518C36.1187 15.7951 36.9882 17.2641 37.5496 18.5165C37.0019 18.4281 35.8654 18.2938 34.584 18.2847C33.147 18.2755 31.4247 18.4693 31.0967 18.5089C31.0906 18.4571 31.0845 18.4067 31.0769 18.3564C31.0769 18.3411 31.0723 18.3274 31.0708 18.3121C31.0647 18.2725 31.0571 18.2343 31.0494 18.1947C30.8664 16.7882 29.8245 15.4427 28.5049 14.8843C28.0305 14.6631 27.0313 14.3306 25.9878 14.2375C25.46 14.1765 24.8941 14.1826 24.2076 14.2558C23.9116 14.2863 23.6264 14.3245 23.3457 14.3596C23.1413 14.3855 22.9414 14.4114 22.7431 14.4343C22.7431 14.4343 22.8438 14.3077 22.8606 14.2802C23.3914 13.4778 23.9681 12.6815 24.2564 12.294C24.4562 12.024 24.6103 11.7555 24.7278 11.5069H24.7293ZM20.8393 11.5069C20.223 9.87916 20.4304 8.32621 20.3237 7.45667C20.2916 7.20649 20.252 6.90139 20.2031 6.57493C20.3404 7.02495 20.5189 7.66871 20.5662 8.0806C20.5662 8.0806 20.5265 6.91359 20.3664 6.18745C20.3892 6.25458 20.7706 7.33311 20.8484 7.95856C20.8484 7.95856 20.9018 7.3331 20.8423 6.66646C20.9186 6.92274 20.9872 7.19276 21.0376 7.4765C21.3549 9.23845 21.8766 10.4695 23.9757 11.7647C23.602 12.3367 23.0512 13.1163 22.6226 13.7219C22.1039 13.3329 21.2374 12.561 20.8393 11.5069V11.5069ZM14.8273 14.0728C14.1835 12.4191 14.1698 10.9211 14.1759 10.5611C14.1774 10.5092 14.1759 10.4116 14.1759 10.3795C14.1911 9.22015 14.3467 8.1462 14.4779 7.37429C14.484 7.34378 14.4886 7.31175 14.4932 7.28124L14.4962 7.44599C14.4917 8.24841 14.5466 8.95471 14.5664 9.17438C14.5664 9.18201 14.5664 9.18811 14.5664 9.19574C14.5695 9.22778 14.5908 9.03099 14.6061 8.93183C14.6595 8.57486 14.7205 8.21942 14.7556 7.8594C14.7922 7.50091 14.873 7.07377 14.8883 6.71375C14.8944 6.57493 14.9005 6.43611 14.8959 6.29882C14.9371 6.3217 14.9524 6.45594 14.9615 6.49408C14.992 6.64358 15.0607 7.81974 15.0805 8.22247C15.0897 8.38265 15.0927 8.54283 15.0942 8.70453C15.0958 8.78386 15.0973 8.86318 15.111 8.94251C15.1125 8.96386 15.1202 8.98675 15.1247 9.00963C15.1308 9.00963 15.1873 8.48028 15.2315 8.19959C15.2697 7.95856 15.3292 7.71448 15.3276 7.4704C15.3276 7.44904 15.3215 7.42158 15.3246 7.40175C15.3307 7.36514 15.3841 7.52074 15.41 7.80754C15.4283 8.13247 15.4421 8.46808 15.4802 8.78538L15.5092 9.03709C15.7716 11.3391 17.1506 13.4366 19.0148 14.3763C20.5189 15.2199 21.9224 15.0399 23.4097 14.8492C23.6859 14.8142 23.9696 14.7775 24.2594 14.747C24.9108 14.6784 25.4432 14.6723 25.939 14.7272C27.0343 14.8264 28.0473 15.2001 28.3798 15.3725C29.4919 15.8713 30.363 17.0048 30.546 18.1947V18.2267C30.5933 18.4433 30.6177 18.6676 30.6177 18.8979V18.9055C30.6101 18.8613 30.6055 18.8201 30.5964 18.7744C30.5903 19.1603 30.5125 19.528 30.3767 19.8666C30.4865 19.5234 30.5231 19.1222 30.4225 18.6538C30.4179 19.0932 30.3157 19.5066 30.1418 19.8803C30.2455 19.5447 30.2882 19.1847 30.2547 18.814C30.186 18.0635 29.8214 17.4106 29.286 16.9529C29.7146 17.4121 29.9236 18.1397 29.9846 18.8216C30.128 20.4158 28.8527 21.4608 27.4859 21.6972C27.4752 21.6987 27.466 21.7018 27.4569 21.7048C27.5744 21.7247 28.0305 21.7887 28.4851 21.6438C28.6864 21.6286 28.9549 21.5843 29.2265 21.4516C29.3272 21.4043 29.4538 21.3311 29.5911 21.235C29.0236 21.7598 28.2654 22.0832 27.431 22.0832C26.3295 22.0832 25.3609 21.5233 24.7903 20.6736C25.5851 20.7728 26.3631 20.9299 26.3631 20.9299C25.6461 20.3777 24.4593 20.0298 24.4593 20.0298V20.0344C23.3853 19.7095 21.8431 19.4196 20.4732 19.0306C17.7074 18.2557 15.8082 16.5868 14.8273 14.0728V14.0728ZM11.1051 30.9524C10.2981 31.2011 9.27751 31.6297 8.8046 31.8357C9.90906 30.6214 12.147 28.4445 13.9715 27.218C19.4801 23.5156 24.0352 22.9176 24.3754 22.849L24.4745 22.9359C24.5203 23.0076 24.5691 23.0747 24.6179 23.1419C22.3114 23.7719 17.3962 25.8527 14.5222 27.8648C13.2819 28.7343 11.9288 30.1058 11.1051 30.9524ZM20.9964 30.4109C20.9964 30.4109 20.5204 30.5985 19.9408 30.5985C19.3611 30.5985 18.6609 30.2324 18.6609 30.2324L18.7081 30.2278C19.927 29.9227 21.0284 28.6047 21.0284 28.6047C20.9003 29.0501 20.9964 30.4109 20.9964 30.4109V30.4109ZM21.3717 30.1576C21.3305 29.0593 21.419 28.0738 21.6249 27.369C21.5913 27.4102 21.5517 27.4575 21.5135 27.5033C19.149 30.3483 16.4535 30.1561 13.9852 30.4109C13.6206 30.4475 12.2492 30.7251 11.8876 30.8029C12.7678 29.8617 14.2888 28.4796 15.2819 27.8023C17.1415 26.533 20.3298 25.2089 20.5281 25.1281C19.0239 25.961 17.8096 27.3019 17.8096 27.3019C18.7188 26.6856 21.8247 24.8901 22.017 24.7787C21.1352 25.6193 18.6532 27.8053 17.1796 28.7816C19.0605 27.8938 20.6532 26.7436 21.5105 25.932C22.5829 24.9191 24.1938 23.9412 24.923 23.5644C25.28 23.9168 25.7987 24.2387 26.2609 24.4294C25.0237 25.3004 24.1984 25.7978 23.8445 26.9754C23.8445 26.9754 24.7507 25.813 26.055 25.1006C26.3006 24.9679 26.566 24.8031 26.8391 24.6155C27.132 24.6841 27.7696 24.7436 28.0808 24.7436L28.1571 24.7101C28.1068 24.7482 27.9817 24.8199 27.9298 24.858C25.4402 26.6856 23.1611 27.1661 22.9445 30.8746C22.9765 30.6656 23.3487 28.4064 25.1778 27.2348C26.264 26.5392 28.212 25.6132 29.5178 24.2814C30.517 23.8238 31.1471 23.0412 31.472 21.9535C31.4751 21.9443 31.4781 21.9306 31.4796 21.9199C31.803 21.8879 32.1249 21.8467 32.4621 21.8162C32.4239 22.2098 32.337 22.7437 32.1463 23.2883C31.9129 24.019 31.5193 24.8321 30.8267 25.6803C29.5789 27.2043 28.0732 28.1577 26.5065 30.1988C24.9383 32.2384 24.6057 34.3177 24.6057 34.3177C24.2655 31.8494 25.4005 30.2553 25.4631 30.1698C25.2739 30.3209 24.5005 31.2362 24.2152 32.3605C23.9543 33.3871 23.9986 33.6785 24.0154 33.9699C23.3014 33.471 21.4571 32.5344 21.3717 30.1576V30.1576ZM28.6239 32.1621C28.3783 33.4664 27.7544 33.9119 27.1198 35.1628C27.0114 35.3794 26.9077 35.6083 26.8116 35.8386C26.4165 35.5243 25.698 35.0774 25.1046 34.7082C25.1305 34.2246 25.3044 33.3154 25.8017 32.185C26.3585 30.9204 27.7788 29.3659 27.7788 29.3659C28.2517 29.8556 28.871 30.8578 28.6239 32.1621V32.1621ZM23.5669 36.1162C22.9506 35.1552 22.9567 33.8951 22.9567 33.8951C23.2618 34.1651 24.0459 34.6029 24.7629 35.0011C25.3487 35.326 26.3036 36.0384 26.6346 36.2901C26.3601 37.0285 26.1709 37.7119 26.0992 37.9774C25.2831 37.4877 24.0276 36.8332 23.5669 36.1162V36.1162ZM25.0313 37.988C25.521 38.2702 26.0839 38.5494 26.4119 38.7538C26.7719 38.9766 27.0648 39.1978 27.2815 39.3823C26.9367 39.9956 26.624 40.5432 26.624 40.5432C26.624 40.5432 25.9299 40.1817 25.4432 39.48C25.0619 38.9308 25.0283 38.255 25.0313 37.988V37.988ZM26.4501 40.8422C26.4501 40.8422 26.267 41.3426 26.1236 41.7942C25.9024 41.6797 25.6797 41.5241 25.5897 41.2236C25.4432 40.7324 25.6629 40.5448 25.788 40.3831C25.788 40.3831 26.1129 40.6714 26.4501 40.8422V40.8422ZM25.64 44.9504C25.5317 45.0725 25.3593 45.0908 25.2342 44.9443C25.1107 44.7979 25.1992 44.3066 25.3959 44.0641C25.3959 44.0641 25.5088 44.2685 25.6293 44.4317C25.7804 44.6346 25.7483 44.8284 25.64 44.9504ZM26.0473 44.5812C26.0473 44.5812 26.1099 44.2639 25.7804 44.0214C25.3014 43.6644 25.132 43.5256 25.4814 42.9276C25.4814 42.9276 25.6492 43.1244 25.91 43.2998C26.1709 43.4768 26.447 43.8719 26.4668 44.0626C26.4974 44.3524 26.0473 44.5812 26.0473 44.5812V44.5812ZM26.6697 43.6034C26.6697 43.6034 26.5431 43.2617 26.2045 43.0893C25.8673 42.9184 25.55 42.7705 25.4707 42.4288C25.3914 42.087 25.6049 41.7987 25.6049 41.7987C25.6049 41.7987 25.7941 42.0382 26.1511 42.2076C26.508 42.3784 26.7628 42.6164 26.8955 42.8971C27.0282 43.1778 26.9092 43.4356 26.6697 43.6034ZM28.1037 40.9383C27.8139 41.8414 27.0984 42.6393 27.0984 42.6393C27.0984 42.6393 26.7643 42.171 26.5035 41.994C26.4806 41.9787 26.4546 41.9635 26.4287 41.9482C26.5523 41.5958 26.8025 40.9383 27.0801 40.438C27.4782 39.721 28.0473 38.9552 28.0473 38.9552C28.0473 38.9552 28.3951 40.0353 28.1037 40.9383V40.9383ZM28.0808 38.2199C27.9588 38.4426 27.6506 38.7248 27.495 39.0025C27.3745 38.8682 27.1609 38.6669 26.8025 38.4152C26.7277 38.3633 26.6377 38.3069 26.5401 38.2458C26.868 36.9385 27.6338 35.2711 27.9435 34.8501C28.0427 34.7174 28.2105 34.4565 28.3157 34.2887C28.4164 34.4779 28.6864 34.9584 28.7627 35.561C28.8756 36.4396 28.5308 37.4038 28.0808 38.2199ZM32.4438 33.86C32.2348 33.9287 32.0502 33.9958 31.9037 34.0583C30.9732 34.4473 29.2402 35.3657 29.2402 35.3657C29.2219 35.3764 29.2005 35.3886 29.1807 35.4008C29.0388 34.4123 28.717 33.6022 28.717 33.6022C28.717 33.6022 29.3378 31.9852 29.106 30.9921C28.8009 29.6863 28.3005 28.9922 28.3005 28.9922C28.3554 28.9327 28.4103 28.8777 28.4652 28.8228C28.7932 29.2683 29.347 29.282 29.347 29.282C29.347 29.282 29.6536 30.5863 30.0975 31.2392C30.543 31.8921 31.1394 32.4474 32.0975 32.4474C32.2363 32.4474 32.401 32.4444 32.5795 32.4398C32.5017 32.9371 32.4621 33.471 32.4438 33.86V33.86ZM35.1103 33.0408C34.584 36.4244 33.6153 37.7226 33.6153 37.7226L33.716 37.3794C34.1233 35.5518 34.0577 34.6929 34.3872 32.4901C34.7183 30.2873 35.687 28.9433 35.687 28.9433C34.4757 29.7915 33.8228 31.6053 33.594 34.2414C33.3499 37.056 32.6894 38.1116 32.6482 38.1741C33.0692 36.7234 32.8892 35.1109 32.9563 34.0324C33.0219 32.9524 33.0692 31.4848 33.6748 30.0966C34.2805 28.7084 35.687 27.369 37.1636 26.6963C38.6388 26.0251 39.8165 26.3561 39.8165 26.3561C40.593 27.0853 40.6418 27.8526 40.6418 27.8526C40.6418 27.8526 39.4138 28.1653 37.992 29.102C36.5718 30.0371 35.6687 32.2705 35.6687 32.2705C36.0333 29.793 37.6259 28.0616 37.6259 28.0616C36.436 28.7557 35.5695 30.0829 35.1103 33.0408V33.0408ZM39.7906 32.5298C39.5816 32.5588 38.291 32.6 36.7213 32.8364C36.4375 32.8791 36.1278 32.934 35.806 32.9966C35.9051 32.7281 35.9982 32.5344 36.1141 32.3544C36.1172 32.3544 36.1233 32.3528 36.1278 32.3528C37.2796 32.3528 39.1331 32.4123 39.606 32.4261C40.0774 32.4398 40.5121 32.4047 40.5121 32.4047C40.3733 32.5161 39.9996 32.5023 39.7906 32.5298V32.5298ZM40.3458 32.1042C40.1582 32.0935 39.6151 32.0904 38.7776 31.9898C37.9401 31.8921 36.4451 31.8525 36.4451 31.8525C37.1591 29.8754 39.6517 28.7999 39.6517 28.7999C39.696 29.372 39.2673 30.4185 39.2673 30.4185C39.2673 30.4185 39.8287 30.3865 40.1582 30.5177C40.4892 30.6504 40.6769 30.7709 40.7974 31.4543C40.9179 32.1377 40.5335 32.1149 40.3458 32.1042V32.1042ZM36.3658 23.0534C35.6931 23.1632 35.4292 23.2959 34.9776 23.3509C34.9776 23.3509 34.9746 23.3554 34.973 23.3585C35.3498 23.482 35.9661 23.4729 36.3323 23.537C36.5092 23.569 36.6907 23.6682 36.8357 23.7643L36.6465 24.6094C36.2255 24.8336 35.5436 25.2608 35.0218 25.9091C34.9822 25.9579 34.944 26.0113 34.909 26.0678C34.8922 26.0907 34.8769 26.1151 34.8632 26.141C34.8434 26.173 34.8251 26.2051 34.8083 26.2371C34.7869 26.2752 34.7671 26.3149 34.7473 26.3561C34.7274 26.3958 34.7091 26.4354 34.6923 26.4751C34.6176 26.6429 34.5581 26.8107 34.5139 26.9526C34.5078 26.9693 34.5032 26.9861 34.4986 27.0014C34.465 27.1127 34.4406 27.2043 34.4254 27.2668C34.4223 27.276 34.4208 27.2836 34.4193 27.2912C34.4193 27.2973 34.4162 27.3034 34.4147 27.3095C34.4116 27.3217 34.4101 27.3324 34.4086 27.3385C34.4086 27.3416 34.4086 27.3446 34.4086 27.3461C34.4177 27.3309 34.465 27.2455 34.5444 27.1219C34.5627 27.0944 34.581 27.0654 34.6023 27.0334C34.7549 26.8046 34.9868 26.4873 35.2629 26.2157C35.301 26.1776 35.3407 26.1395 35.3803 26.1044C35.4612 26.0327 35.5436 25.9656 35.629 25.9061C36.2483 25.4759 36.5763 25.3096 36.764 25.1342C36.7975 25.0991 36.825 25.0609 36.8494 25.0228C37.0126 24.8245 37.0858 24.1151 37.0996 23.9641V23.9595C37.0996 23.9443 37.1026 23.9336 37.1026 23.9336C37.1026 23.9077 37.1026 23.8863 37.1026 23.8726V23.8573C37.092 23.7582 36.8936 23.4714 36.7838 23.3402C36.7838 23.3402 37.1026 23.1632 37.5542 23.1419C37.5542 23.1419 37.037 22.9435 36.3658 23.0534V23.0534ZM37.5542 23.1419C37.5542 23.1419 37.037 22.9435 36.3658 23.0534C35.6931 23.1632 35.4292 23.2959 34.9776 23.3509C34.9776 23.3509 34.9746 23.3554 34.973 23.3585C35.3498 23.482 35.9661 23.4729 36.3323 23.537C36.5092 23.569 36.6907 23.6682 36.8357 23.7643L36.6465 24.6094C36.2255 24.8336 35.5436 25.2608 35.0218 25.9091C34.9822 25.9579 34.944 26.0113 34.909 26.0678C34.8922 26.0907 34.8769 26.1151 34.8632 26.141C34.8434 26.173 34.8251 26.2051 34.8083 26.2371C34.7869 26.2752 34.7671 26.3149 34.7473 26.3561C34.7274 26.3958 34.7091 26.4354 34.6923 26.4751C34.6176 26.6429 34.5581 26.8107 34.5139 26.9526C34.5078 26.9693 34.5032 26.9861 34.4986 27.0014C34.465 27.1127 34.4406 27.2043 34.4254 27.2668C34.4223 27.276 34.4208 27.2836 34.4193 27.2912C34.4193 27.2973 34.4162 27.3034 34.4147 27.3095C34.4116 27.3217 34.4101 27.3324 34.4086 27.3385C34.4086 27.3416 34.4086 27.3446 34.4086 27.3461C34.4177 27.3309 34.465 27.2455 34.5444 27.1219C34.5627 27.0944 34.581 27.0654 34.6023 27.0334C34.7549 26.8046 34.9868 26.4873 35.2629 26.2157C35.301 26.1776 35.3407 26.1395 35.3803 26.1044C35.4612 26.0327 35.5436 25.9656 35.629 25.9061C36.2483 25.4759 36.5763 25.3096 36.764 25.1342C36.7975 25.0991 36.825 25.0609 36.8494 25.0228C37.0126 24.8245 37.0858 24.1151 37.0996 23.9641V23.9595C37.0996 23.9443 37.1026 23.9336 37.1026 23.9336C37.1026 23.9077 37.1026 23.8863 37.1026 23.8726V23.8573C37.092 23.7582 36.8936 23.4714 36.7838 23.3402C36.7838 23.3402 37.1026 23.1632 37.5542 23.1419V23.1419ZM37.5542 23.1419C37.5542 23.1419 37.037 22.9435 36.3658 23.0534C35.6931 23.1632 35.4292 23.2959 34.9776 23.3509C34.9776 23.3509 34.9746 23.3554 34.973 23.3585C35.3498 23.482 35.9661 23.4729 36.3323 23.537C36.5092 23.569 36.6907 23.6682 36.8357 23.7643L36.6465 24.6094C36.2255 24.8336 35.5436 25.2608 35.0218 25.9091C34.9822 25.9579 34.944 26.0113 34.909 26.0678C34.8922 26.0907 34.8769 26.1151 34.8632 26.141C34.8434 26.173 34.8251 26.2051 34.8083 26.2371C34.7869 26.2752 34.7671 26.3149 34.7473 26.3561C34.7274 26.3958 34.7091 26.4354 34.6923 26.4751C34.6176 26.6429 34.5581 26.8107 34.5139 26.9526C34.5078 26.9693 34.5032 26.9861 34.4986 27.0014C34.465 27.1127 34.4406 27.2043 34.4254 27.2668C34.4223 27.276 34.4208 27.2836 34.4193 27.2912C34.4193 27.2973 34.4162 27.3034 34.4147 27.3095C34.4116 27.3217 34.4101 27.3324 34.4086 27.3385C34.4086 27.3416 34.4086 27.3446 34.4086 27.3461C34.4177 27.3309 34.465 27.2455 34.5444 27.1219C34.5627 27.0944 34.581 27.0654 34.6023 27.0334C34.7549 26.8046 34.9868 26.4873 35.2629 26.2157C35.301 26.1776 35.3407 26.1395 35.3803 26.1044C35.4612 26.0327 35.5436 25.9656 35.629 25.9061C36.2483 25.4759 36.5763 25.3096 36.764 25.1342C36.7975 25.0991 36.825 25.0609 36.8494 25.0228C37.0126 24.8245 37.0858 24.1151 37.0996 23.9641V23.9595C37.0996 23.9443 37.1026 23.9336 37.1026 23.9336C37.1026 23.9077 37.1026 23.8863 37.1026 23.8726V23.8573C37.092 23.7582 36.8936 23.4714 36.7838 23.3402C36.7838 23.3402 37.1026 23.1632 37.5542 23.1419V23.1419ZM37.5542 23.1419C37.5542 23.1419 37.037 22.9435 36.3658 23.0534C35.6931 23.1632 35.4292 23.2959 34.9776 23.3509C34.9776 23.3509 34.9746 23.3554 34.973 23.3585C35.3498 23.482 35.9661 23.4729 36.3323 23.537C36.5092 23.569 36.6907 23.6682 36.8357 23.7643L36.6465 24.6094C36.2255 24.8336 35.5436 25.2608 35.0218 25.9091C34.9822 25.9579 34.944 26.0113 34.909 26.0678C34.8922 26.0907 34.8769 26.1151 34.8632 26.141C34.8434 26.173 34.8251 26.2051 34.8083 26.2371C34.7869 26.2752 34.7671 26.3149 34.7473 26.3561C34.7274 26.3958 34.7091 26.4354 34.6923 26.4751C34.6176 26.6429 34.5581 26.8107 34.5139 26.9526C34.5078 26.9693 34.5032 26.9861 34.4986 27.0014C34.465 27.1127 34.4406 27.2043 34.4254 27.2668C34.4223 27.276 34.4208 27.2836 34.4193 27.2912C34.4193 27.2973 34.4162 27.3034 34.4147 27.3095C34.4116 27.3217 34.4101 27.3324 34.4086 27.3385C34.4086 27.3416 34.4086 27.3446 34.4086 27.3461C34.4177 27.3309 34.465 27.2455 34.5444 27.1219C34.5627 27.0944 34.581 27.0654 34.6023 27.0334C34.7549 26.8046 34.9868 26.4873 35.2629 26.2157C35.301 26.1776 35.3407 26.1395 35.3803 26.1044C35.4612 26.0327 35.5436 25.9656 35.629 25.9061C36.2483 25.4759 36.5763 25.3096 36.764 25.1342C36.7975 25.0991 36.825 25.0609 36.8494 25.0228C37.0126 24.8245 37.0858 24.1151 37.0996 23.9641V23.9595C37.0996 23.9443 37.1026 23.9336 37.1026 23.9336C37.1026 23.9077 37.1026 23.8863 37.1026 23.8726V23.8573C37.092 23.7582 36.8936 23.4714 36.7838 23.3402C36.7838 23.3402 37.1026 23.1632 37.5542 23.1419V23.1419ZM37.5542 23.1419C37.5542 23.1419 37.037 22.9435 36.3658 23.0534C35.6931 23.1632 35.4292 23.2959 34.9776 23.3509C34.9776 23.3509 34.9746 23.3554 34.973 23.3585C35.3498 23.482 35.9661 23.4729 36.3323 23.537C36.5092 23.569 36.6907 23.6682 36.8357 23.7643L36.6465 24.6094C36.2255 24.8336 35.5436 25.2608 35.0218 25.9091C34.9822 25.9579 34.944 26.0113 34.909 26.0678C34.8922 26.0907 34.8769 26.1151 34.8632 26.141C34.8434 26.173 34.8251 26.2051 34.8083 26.2371C34.7869 26.2752 34.7671 26.3149 34.7473 26.3561C34.7274 26.3958 34.7091 26.4354 34.6923 26.4751C34.6176 26.6429 34.5581 26.8107 34.5139 26.9526C34.5078 26.9693 34.5032 26.9861 34.4986 27.0014C34.465 27.1127 34.4406 27.2043 34.4254 27.2668C34.4223 27.276 34.4208 27.2836 34.4193 27.2912C34.4193 27.2973 34.4162 27.3034 34.4147 27.3095C34.4116 27.3217 34.4101 27.3324 34.4086 27.3385C34.4086 27.3416 34.4086 27.3446 34.4086 27.3461C34.4177 27.3309 34.465 27.2455 34.5444 27.1219C34.5627 27.0944 34.581 27.0654 34.6023 27.0334C34.7549 26.8046 34.9868 26.4873 35.2629 26.2157C35.301 26.1776 35.3407 26.1395 35.3803 26.1044C35.4612 26.0327 35.5436 25.9656 35.629 25.9061C36.2483 25.4759 36.5763 25.3096 36.764 25.1342C36.7975 25.0991 36.825 25.0609 36.8494 25.0228C37.0126 24.8245 37.0858 24.1151 37.0996 23.9641V23.9595C37.0996 23.9443 37.1026 23.9336 37.1026 23.9336C37.1026 23.9077 37.1026 23.8863 37.1026 23.8726V23.8573C37.092 23.7582 36.8936 23.4714 36.7838 23.3402C36.7838 23.3402 37.1026 23.1632 37.5542 23.1419V23.1419Z" fill="black"/>
<path d="M41.7113 30.9525C41.6152 30.3713 41.0889 29.8633 40.6785 29.7717C40.6495 29.7656 40.6114 29.758 40.5702 29.7473C40.677 29.3629 40.7289 29.0563 40.7548 28.8412C40.9913 28.7329 41.2674 28.62 41.3864 28.5727L41.7906 28.4095L41.7098 27.9823C41.5435 27.1006 41.0813 26.3714 40.8173 26.0114C40.9119 25.7108 40.9684 25.5156 40.9684 25.3493C40.9684 25.0106 40.6968 24.6644 40.1629 24.3211C40.1202 24.2937 40.0714 24.2159 40.0714 23.8482C40.0714 23.8421 40.0653 23.4973 39.9753 23.1465C40.2651 22.9497 40.6282 22.6263 40.8067 22.1229C40.9851 21.6164 41.0523 21.1679 41.0782 20.907C41.0919 20.7652 41.0721 20.425 41.0721 20.425L41.0172 19.769C41.0172 19.769 40.6877 20.0314 40.5046 20.1718C40.4558 20.2084 40.4192 20.2358 40.3994 20.248C40.3734 20.2679 40.3444 20.2862 40.317 20.303C40.1827 20.3838 40.0332 20.4479 39.9692 20.4814C39.8258 20.5592 39.6076 20.6416 39.3681 20.7087C39.0234 18.9254 37.7602 15.8058 34.7062 13.0538C31.0328 9.74344 24.9659 9.13019 24.7096 9.10425L24.1406 9.05086C24.1406 9.05086 24.1284 9.90362 24.075 10.1462L24.0689 10.1736C24.049 10.2911 24.0262 10.4025 23.9987 10.5062C23.3077 10.0745 22.8256 9.63665 22.5922 9.22324C22.1605 8.46049 22.0201 7.76029 21.8859 7.08449C21.7913 6.60549 21.6998 6.15089 21.5137 5.71154C21.0225 4.55826 20.3161 3.57432 19.4146 2.78868C19.2513 2.64834 19.0851 2.50189 18.8288 2.50189C18.7266 2.50189 18.574 2.52782 18.4199 2.65139C18.3101 2.74139 17.9806 3.07395 18.3483 3.61856C18.3544 3.62771 18.9539 4.72454 19.1781 6.29581C19.2529 6.81295 19.2681 7.45061 19.2849 8.12488C19.3185 9.49021 19.3581 11.0355 19.8982 12.2071C20.1361 12.7212 20.4428 13.1834 20.7631 13.5846C20.7952 13.6243 20.9172 13.7525 20.9386 13.7784C20.9935 13.8425 21.0499 13.9065 21.1048 13.9675C20.5145 13.9172 20.008 13.7616 19.5046 13.4794L19.4832 13.4672C17.9333 12.6861 16.7434 10.8586 16.5238 8.91814L16.4948 8.66491C16.4536 8.32167 16.4505 7.97386 16.446 7.60621C16.446 7.39722 16.4414 7.18212 16.4322 6.9655C16.4078 6.42242 16.3483 5.87172 16.2522 5.32864C16.2126 5.09982 16.1637 4.86947 16.1103 4.64369L16.1058 4.62691C16.0768 4.46063 16.031 4.30351 15.9929 4.17689C15.9654 4.08078 15.9349 3.9862 15.9029 3.89162C15.8235 3.65364 15.7183 3.42634 15.5871 3.2143C15.4132 2.93208 15.2484 2.71088 15.07 2.51714C14.9296 2.36459 14.7923 2.24103 14.652 2.14187L14.6306 2.12814C14.5711 2.08848 14.4094 2 14.208 2C14.1013 2 13.999 2.02441 13.906 2.07322L13.8465 2.10984C13.6131 2.27459 13.4728 2.63613 13.6833 3.06938L13.7031 3.10599C13.7031 3.10599 13.7184 3.13497 13.7321 3.16548C13.7443 3.19447 13.7565 3.22955 13.7687 3.26769C13.7794 3.30125 13.787 3.33939 13.7962 3.39126C13.8663 3.76805 13.9319 4.66657 13.5902 6.46972L13.5719 6.56277C13.5338 6.88313 13.5002 7.12568 13.4621 7.35145C13.3156 8.21489 13.1616 9.2446 13.1356 10.346C13.1356 10.3796 13.1356 10.4497 13.1387 10.5077V10.5596C13.1326 11.2888 13.2439 17.6089 19.4817 19.8011H19.4863L19.4664 19.8102C19.1827 21.6271 19.1629 22.7468 19.1812 23.2929C17.8281 23.8238 16.4963 24.4615 15.2256 25.1891C13.2363 26.2783 11.3904 27.6345 9.73833 29.218C9.40424 29.5399 9.08389 29.8617 8.76048 30.2034C8.68421 30.2828 8.60946 30.3621 8.54386 30.4338L8.5225 30.4567C7.70484 31.3369 6.96649 32.2552 6.32731 33.1858C6.30748 33.2148 6.24951 33.3078 6.22663 33.3628C6.1534 33.5306 6.0756 33.8524 6.22663 34.0218C6.31816 34.124 6.49816 34.2109 6.83835 34.066C6.85513 34.0614 6.92073 34.0355 6.94514 34.0218C7.01073 33.9852 7.10836 33.9241 7.1404 33.8997C9.20593 32.3193 13.9502 31.4467 15.3354 31.3659C16.4963 31.2972 17.648 31.1279 18.0752 31.0608C18.3071 31.1706 18.7601 31.3613 19.2712 31.4742C19.4878 31.5215 19.7212 31.5459 19.9668 31.5459C20.1804 31.5459 20.3802 31.5276 20.5511 31.5032C20.905 32.6214 21.6098 33.3887 21.9759 33.7319C21.953 34.4062 22.0674 35.6708 22.5724 36.4916C22.9842 37.1643 23.5731 37.6784 23.9011 37.9347C23.9011 38.2566 23.9285 38.7737 24.0902 39.2115C24.2336 39.6036 24.4762 39.959 24.6562 40.1924C24.586 40.3801 24.5158 40.6287 24.4991 40.9079C24.4792 41.2221 24.5525 41.4754 24.644 41.6645C24.5647 41.8079 24.4899 41.9803 24.4609 42.1527C24.4213 42.3891 24.4701 42.647 24.525 42.8361C24.4701 42.9566 24.4121 43.1107 24.3801 43.2572C24.3374 43.4677 24.3725 43.6782 24.4167 43.8353C24.2535 44.3097 24.075 45.254 24.6806 45.7651C24.8637 45.9192 25.0833 46 25.3152 46C25.7805 46 26.1588 45.669 26.3403 45.4768C26.6104 45.3501 26.9338 45.103 27.1168 44.8193C27.2556 44.6042 27.3228 44.3967 27.3563 44.2396C27.4784 44.1175 27.634 43.9314 27.7743 43.6645C27.8933 43.4387 27.9467 43.2449 27.9696 43.0985C28.2335 42.7827 28.8178 42.0078 29.071 41.0421L29.1305 40.7752C29.1366 40.7431 29.1427 40.7096 29.1473 40.6745C29.2861 39.7988 29.1732 38.9812 29.1015 38.5998C29.3074 38.2306 29.7117 37.3901 29.7605 36.4153C30.2075 36.1178 30.987 35.6373 31.9389 35.2056C31.9755 35.7883 31.9862 36.3878 31.8093 37.297C31.5911 38.4076 30.7811 39.3259 30.3738 39.7287C30.2319 39.8675 29.8826 40.2641 29.8826 40.2641C29.8826 40.2641 29.7483 40.377 29.7742 40.6074C29.7742 40.6211 29.7865 40.6607 29.7971 40.6897C29.8017 40.7004 29.8261 40.7355 29.8368 40.7447C30.0305 40.9323 30.5629 40.8636 30.5629 40.8636C32.8558 40.618 34.4087 38.6913 35.0693 37.1002C35.4811 36.1087 35.8534 34.786 36.0746 33.9791C37.4033 33.738 38.6328 33.6175 39.4673 33.5351C39.8395 33.4985 40.1339 33.4695 40.3277 33.439C40.8356 33.3643 41.7815 33.2224 41.841 32.3254C41.8608 32.0401 41.8181 31.6039 41.7098 30.9525H41.7113ZM41.3116 32.2766C41.2918 32.5893 41.0828 32.7754 40.2499 32.9005C39.6214 32.9951 37.7282 33.1019 35.655 33.5046C35.4613 34.2125 35.0433 35.7746 34.5842 36.879C34.0228 38.2337 32.6056 40.1085 30.4806 40.3373C30.4806 40.3373 32.0015 39.088 32.3356 37.3794C32.6025 36.0064 32.4683 35.2666 32.4256 34.4123C30.9367 34.992 29.7407 35.7685 29.2449 36.1148C29.2785 37.3809 28.5508 38.4884 28.5508 38.4884C28.5508 38.4884 28.8056 39.4876 28.6332 40.5707C28.4318 41.8415 27.4631 42.859 27.4631 42.859C27.4631 42.859 27.4875 43.071 27.3167 43.3929C27.1092 43.7895 26.8697 43.9451 26.8697 43.9451C26.8697 43.9451 26.8697 44.2167 26.6821 44.5081C26.5295 44.746 26.2076 44.9581 26.0368 45.0084C26.0368 45.0084 25.4815 45.7117 25.036 45.3349C24.5891 44.9581 24.8926 44.0199 24.9949 43.8201C24.9949 43.8201 24.8667 43.5561 24.9125 43.3411C24.9567 43.1275 25.1093 42.8498 25.1093 42.8498C25.1093 42.8498 24.9537 42.47 24.9949 42.2168C25.0376 41.9651 25.2893 41.6416 25.2893 41.6416C25.2893 41.6416 25.0116 41.3838 25.0406 40.9201C25.0696 40.4563 25.2893 40.0872 25.2893 40.0872C25.2893 40.0872 24.8072 39.5731 24.5998 39.0086C24.3923 38.4442 24.4533 37.6555 24.4533 37.6555C24.4533 37.6555 23.5716 37.0682 23.0376 36.1971C22.5419 35.3886 22.4702 33.9333 22.5403 33.4924C22.2703 33.2804 21.2391 32.3376 20.9538 30.8701C20.9538 30.8701 20.1605 31.1111 19.4024 30.9433C18.7342 30.7969 18.1743 30.4979 18.1743 30.4979C18.1743 30.4979 16.7404 30.7404 15.3247 30.8228C13.9746 30.9021 9.55832 31.5139 6.73157 33.555C7.25481 32.7831 7.97637 31.8342 8.93286 30.8045C8.93744 30.7999 8.94354 30.7953 8.94659 30.7892C9.01982 30.7114 9.09304 30.6336 9.16626 30.5574C9.46831 30.237 9.78714 29.9151 10.1273 29.5871C11.9396 27.8511 13.7916 26.5789 15.4986 25.6437C17.0241 24.7711 18.4718 24.1213 19.7517 23.6392C19.7502 23.6224 19.7487 23.6118 19.7487 23.6118C19.7487 23.6118 19.5931 22.4875 20.0156 19.8194C20.0355 19.6989 20.0629 19.5738 20.0919 19.4441C13.8358 17.5387 13.6589 11.4886 13.6695 10.5657C13.6695 10.5382 13.665 10.404 13.665 10.3582C13.6894 9.32088 13.8343 8.32167 13.9838 7.44146C14.0311 7.16992 14.0662 6.89686 14.0982 6.62379L14.1013 6.61769C14.4628 4.73675 14.4018 3.75127 14.3164 3.29362C14.3057 3.22955 14.2919 3.17006 14.2752 3.11514C14.2569 3.05412 14.237 3.00073 14.2187 2.95801C14.1867 2.88174 14.1592 2.8375 14.1592 2.8375C14.0509 2.61478 14.1531 2.54308 14.1531 2.54308C14.2309 2.50189 14.3453 2.57359 14.3453 2.57359C14.4689 2.66054 14.5787 2.7658 14.6809 2.87716C14.8533 3.0648 15.0013 3.27532 15.1355 3.49194C15.2469 3.67195 15.3339 3.86111 15.401 4.0579C15.43 4.1479 15.459 4.23638 15.4849 4.32486C15.5245 4.45911 15.5642 4.59488 15.5871 4.73217C15.5871 4.73522 15.5871 4.73675 15.5886 4.7398C15.6435 4.96557 15.6908 5.19135 15.7305 5.42017C15.822 5.93884 15.88 6.46361 15.9029 6.98991C15.9288 7.5696 15.9013 8.14777 15.9685 8.72593L15.9975 8.97916C16.237 11.0889 17.5428 13.0828 19.2452 13.9401C20.3039 14.535 21.3001 14.5732 22.371 14.4725L22.2032 14.3062C22.1864 14.291 22.1681 14.2742 22.1498 14.2589C21.6327 13.7982 20.8608 12.9973 20.3939 11.9859C19.6434 10.3613 19.947 7.83046 19.7182 6.22716C19.4893 4.62233 18.8761 3.44007 18.8105 3.34244C18.7403 3.23871 18.6839 3.13955 18.7693 3.0709C18.8562 3.00073 18.9127 3.04954 19.0805 3.19599C19.3734 3.45075 20.3573 4.32181 21.0392 5.92511C21.4557 6.90448 21.3581 8.09895 22.1437 9.48715C22.5495 10.2041 23.4343 10.8174 24.2763 11.2735C24.2885 11.2537 24.3008 11.2323 24.3099 11.2155C24.464 10.9257 24.5525 10.5672 24.6028 10.2636C24.6562 10.0287 24.6791 9.81514 24.6699 9.63513C24.6699 9.63513 30.7735 10.2194 34.3553 13.4474C37.9372 16.6753 38.8235 20.2374 38.9272 21.3418C38.9272 21.3418 40.23 21.142 40.5626 20.6569C40.5626 20.6569 40.5565 21.232 40.3063 21.9398C40.0561 22.6492 39.2507 22.9039 39.3132 22.9238C39.3757 22.9451 39.542 23.4455 39.542 23.8406C39.542 24.2357 39.5832 24.5698 39.8746 24.7574C40.166 24.945 40.4375 25.1937 40.4375 25.3402C40.4375 25.4866 40.291 25.8817 40.2285 26.1105C40.2285 26.1105 40.979 26.9648 41.1865 28.0693C41.1865 28.0693 40.5626 28.3195 40.2499 28.4857C40.2499 28.4857 40.2499 29.1112 39.8959 30.1104C39.8959 30.1104 40.3749 30.2355 40.5626 30.2767C40.7502 30.3179 41.1255 30.6519 41.1865 31.0257C41.2491 31.401 41.333 31.9639 41.3116 32.2766V32.2766Z" fill="white"/>
</svg>
