<svg width="48" height="48" viewBox="0 0 48 48" fill="none" xmlns="http://www.w3.org/2000/svg">
<path d="M27.6258 11.2405L25.4853 13.491C28.9961 12.0307 36.6579 9.52012 36.6579 9.52012L34.2073 11.9207C40.9088 9.94021 46 9 46 9C46 9 44.5197 12.4308 42.3192 15.8716C42.7493 15.8215 45.5299 15.5015 45.5299 15.5015C45.5299 15.5015 43.0193 19.6524 40.1287 22.6431L41.749 23.0432C41.749 23.0432 39.2285 26.684 35.8977 29.6547C31.1066 33.9257 28.6461 33.2655 28.6461 33.2655C25.0852 35.8461 22.2346 34.5358 22.2346 34.5358C22.2346 34.5358 23.4649 31.4251 22.1946 31.095C21.0443 30.795 19.3039 31.6952 19.0839 32.0552C18.8538 32.8354 17.9036 34.8359 16.9234 36.0361C15.033 38.3467 12.9425 39.2869 12.9425 39.2869C12.9425 39.2869 11.2921 37.8766 11.2821 35.486C11.2821 35.486 10.1519 36.6863 8.30143 37.0764C7.01114 37.3464 5.25074 37.1264 3.44033 35.616C2.23005 34.6058 2 31.205 2 31.205C2 31.205 3.14026 29.0245 5.34076 27.1241C4.85065 26.704 4.56058 26.1839 4.46056 25.8538C10.3019 23.3032 10.3019 20.8727 14.9429 17.912C19.514 15.0014 22.3946 13.6611 27.6358 11.2205L27.6258 11.2405Z" fill="white"/>
<path d="M24.7854 13.3008L22.955 15.2213C26.5758 13.6209 34.2276 11.0103 34.2276 11.0103L32.0071 13.1808C39.8488 10.7502 44.83 9.93005 44.83 9.93005C44.83 9.93005 43.1996 13.5509 41.0391 16.6316C42.0894 16.5316 44.2699 16.2815 44.2699 16.2815C44.2699 16.2815 42.0794 19.9423 38.8586 23.043C39.2187 23.093 40.679 23.4331 40.679 23.4331C40.679 23.4331 38.7286 26.3238 35.3478 29.2845C31.0268 33.0653 29.1064 32.6152 29.1064 32.6152C29.1064 32.6152 29.1464 32.4652 29.1464 32.2351C29.1464 32.1051 29.1164 31.9951 29.1164 31.9851C25.7856 35.1158 23.015 34.0555 23.015 34.0555C23.015 34.0555 24.2453 31.0749 22.3549 30.4747C20.8945 30.0046 18.654 31.2049 18.474 31.845C18.2839 32.5452 17.3537 34.4756 16.4335 35.6059C14.8332 37.5763 13.0728 38.4665 13.0728 38.4665C13.0728 38.4665 11.4624 37.2263 12.0225 33.6054C12.1425 32.8153 11.9925 32.5052 11.9025 32.3752C11.6424 31.9751 9.58197 32.4152 9.08185 33.5554C8.73177 34.3656 10.7722 35.0458 10.7722 35.0458C10.7722 35.0458 9.83202 36.086 8.18165 36.4261C7.14141 36.6361 5.54105 36.5661 3.85066 35.1158C2.85044 34.2556 2.65039 31.3349 2.65039 31.3349C2.65039 31.3349 3.88067 29.0744 6.28122 27.134C5.81111 26.8239 5.45103 26.3038 5.36101 26.0937C10.1921 24.0133 10.8623 21.0626 16.3135 17.7718C18.8541 16.2415 21.5347 14.7311 24.7954 13.2708L24.7854 13.3008Z" fill="#004851"/>
<path d="M37.6285 23.4632C37.8185 23.5033 38.6187 23.6433 39.0588 23.8333C37.3984 26.5239 32.4373 31.8151 29.6567 32.0352C29.6267 31.5751 29.4466 31.175 29.2266 30.9049C28.1863 32.8054 25.0056 33.9756 23.6853 33.6656C25.2857 27.7942 18.4841 30.0347 17.964 31.6451C16.6137 35.8261 13.1729 37.7965 13.1729 37.7965C13.1729 37.7965 12.0727 36.5462 12.5428 33.7256C12.8929 31.6451 11.5726 31.7151 11.5726 31.7151C11.0525 31.6951 9.062 31.9352 8.43186 33.3155C7.92174 34.4357 9.69214 35.2159 9.69214 35.2159C9.69214 35.2159 7.13156 37.2564 4.18089 34.7258C3.45073 34.1057 3.18066 31.4851 3.18066 31.4851C4.60099 29.1245 6.48141 27.6242 7.25159 27.0741C6.4314 26.754 6.17134 26.3339 6.17134 26.3339C10.1422 24.5135 11.7026 21.4828 15.0834 19.2323C18.8142 16.7517 21.6649 15.5314 21.6649 15.5314L20.5846 16.8817C20.5846 16.8817 21.4848 16.4917 21.8749 16.3016C25.4257 14.5612 31.4371 12.6608 31.4371 12.6608L29.5667 14.4812C29.5667 14.4812 32.6774 13.421 36.5883 12.5808C38.6787 12.1307 43.0297 11.2205 43.0297 11.2205C43.0297 11.2205 42.0095 14.2311 39.829 17.2818C41.1393 17.1918 42.5596 17.1118 42.5596 17.1118C42.5596 17.1118 41.0393 20.1725 37.5985 23.4532L37.6285 23.4632Z" fill="black"/>
<path d="M21.4845 19.3823C21.4845 19.3823 21.3945 19.4123 21.3545 19.4323C21.3945 19.4223 21.4345 19.4023 21.4745 19.3923C21.4745 19.3923 21.4745 19.3923 21.4845 19.3923V19.3823Z" fill="black"/>
<path d="M26.0057 26.4739C26.0057 26.4739 24.1053 25.5537 21.1146 26.5339C21.1146 26.5339 25.2455 24.0833 30.4767 25.1236C27.086 23.9833 24.0253 24.5234 22.2249 25.1236C21.1646 25.5337 20.5345 25.8737 20.5345 25.8737C20.5345 25.8737 20.7945 25.6837 21.2946 25.3836C22.5149 24.4834 24.2053 23.5032 25.8657 22.823C27.0159 22.3429 29.3165 21.7328 30.2567 21.6828C30.2567 21.6828 27.8461 21.2727 25.6556 21.8328C25.6556 21.8328 29.1364 20.4725 32.5072 20.4025C33.6375 20.3725 36.218 20.5125 36.218 20.5125C32.4872 19.4023 28.6263 19.1922 25.9857 19.5923C24.4854 19.9624 23.3051 20.3325 23.3051 20.3325C23.3051 20.3325 23.5152 20.2325 23.9052 20.0624C24.8555 19.5023 28.7563 17.4018 36.018 16.2716C36.018 16.2716 35.0878 16.1615 33.9575 16.1615C32.7973 16.1615 30.5167 16.5516 30.5167 16.5516C32.1671 15.8015 35.2878 15.0613 39.1387 14.6912C39.1387 14.6912 33.2574 13.991 26.1357 16.2215C26.0757 16.2516 26.0457 16.2616 26.0457 16.2616C26.0457 16.2616 26.7959 15.7214 27.6461 15.1513C28.2762 14.7412 29.1764 14.0911 29.1764 14.0911C29.1764 14.0911 25.5256 14.9613 20.5745 17.3118C19.1842 17.9719 18.444 18.372 18.444 18.372C18.654 18.122 19.6543 17.2518 19.8943 16.9417C16.2235 18.7421 14.8832 19.9324 12.7027 22.2429C10.7523 24.3034 10.8423 24.6635 7.8916 26.2638C7.8916 26.2638 10.0721 27.154 12.2726 25.7237C12.6527 25.4737 13.0128 25.1236 13.3528 24.7635C14.133 23.8633 13.873 22.9331 14.9132 22.2629C14.7632 22.603 14.5231 23.0431 14.5031 23.4932C15.0032 22.813 15.9834 21.9028 17.0737 21.2527C19.8543 19.5923 21.7047 19.3123 21.7047 19.3123C21.6347 19.3323 21.5647 19.3623 21.4947 19.3923C17.6938 20.9726 17.0737 23.0331 17.0537 23.2531C17.0137 23.7233 18.424 22.673 19.5843 22.533C18.364 22.9631 17.3237 23.9933 16.8136 25.1936C16.6036 25.7037 16.5336 26.2738 15.9334 26.7239C15.7634 26.874 15.5433 27.034 15.2433 27.164C14.4431 27.5241 13.893 27.3441 13.7029 27.214C13.5929 27.144 13.5229 27.014 13.5229 27.014C13.913 27.124 14.4331 27.024 14.9132 26.7239C15.2633 26.5039 15.5333 26.2038 15.6734 25.9037C15.7534 25.7437 15.8934 25.4336 15.6734 25.0336C15.5633 24.8335 15.3433 24.7235 15.0832 24.6835C15.1032 24.6435 15.2333 24.3034 15.6534 23.8033C15.0832 24.2134 14.7232 24.7035 14.5331 24.9235C14.8032 24.9535 15.0332 25.0836 15.1633 25.2936C15.4233 25.7237 15.1833 26.3338 14.6331 26.6539C14.083 26.984 13.4329 26.904 13.1728 26.4739C13.1428 26.4239 13.1128 26.3639 13.1028 26.3038C13.0728 26.3238 13.0428 26.3338 13.0128 26.3539C12.8427 26.4439 12.4926 26.5939 12.4926 26.5939C12.6527 26.6339 12.8727 26.6539 13.0128 26.6239C13.0628 27.2241 13.4329 28.1943 15.5533 27.6441C14.9432 28.2443 13.4929 28.2043 12.6027 27.7342C12.7227 27.8242 12.8627 27.9242 13.0228 28.0242C15.6834 29.6746 18.7441 28.1243 19.4942 27.6942C19.6743 27.5741 19.8643 27.4741 20.0444 27.3841C20.0444 27.3841 19.2642 28.0642 18.7441 29.1245C19.6743 27.9342 22.3849 26.0238 26.0157 26.4639L26.0057 26.4739Z" fill="white"/>
<path d="M16.2835 23.8534C16.3835 24.2434 17.0636 23.8434 17.0636 23.8434C17.0636 23.8434 16.1434 24.6235 15.7733 25.4637C15.7733 25.5137 15.7733 25.6838 15.6533 25.9138C15.7433 25.9338 15.8334 25.9438 15.9134 25.9438C16.1534 25.9138 16.4335 25.7538 16.4335 25.7538C16.4335 25.7538 16.4335 26.2539 15.9034 26.734C16.5035 26.2839 16.5735 25.7038 16.7836 25.2037C17.2937 24.0034 18.3339 22.9732 19.5542 22.5431C18.3939 22.6831 16.9836 23.7233 17.0236 23.2632C17.0436 23.0432 17.6638 20.9827 21.4646 19.4023C21.4246 19.4123 21.3346 19.4524 21.3246 19.4524C17.8438 20.7527 16.0134 22.8131 16.2835 23.8634V23.8534Z" fill="#A2AAAD"/>
<path d="M14.8328 25.4437C15.0128 25.7437 14.8328 26.1837 14.4328 26.4237C14.0328 26.6637 13.5528 26.6137 13.3728 26.3137C13.3428 26.2637 13.3328 26.2137 13.3128 26.1637C13.2328 26.2137 13.1528 26.2637 13.0728 26.3137C13.0928 26.3737 13.1128 26.4337 13.1428 26.4837C13.4028 26.9137 14.0528 26.9937 14.6028 26.6637C15.1528 26.3337 15.3928 25.7237 15.1328 25.3037C15.0028 25.0837 14.7728 24.9637 14.5028 24.9337C14.4428 25.0137 14.3728 25.0937 14.2928 25.1937C14.5128 25.1937 14.7128 25.2837 14.8128 25.4537L14.8328 25.4437Z" fill="#004851"/>
<path d="M14.4325 26.4336C14.8325 26.1936 15.0125 25.7536 14.8325 25.4536C14.7325 25.2836 14.5325 25.1936 14.3125 25.1936C14.1525 25.3836 13.9725 25.6036 13.7625 25.8036C13.7525 25.9736 13.7925 26.1936 14.0025 26.3436C14.0025 26.3436 13.7625 26.3636 13.6125 26.2536C13.5225 26.1836 13.4825 26.1136 13.4725 26.0636C13.4225 26.1036 13.3825 26.1336 13.3325 26.1736C13.3425 26.2236 13.3625 26.2736 13.3925 26.3236C13.5725 26.6236 14.0425 26.6736 14.4525 26.4336H14.4325Z" fill="black"/>
<path d="M13.6026 26.2438C13.7626 26.3538 13.9926 26.3338 13.9926 26.3338C13.7826 26.1738 13.7426 25.9638 13.7526 25.7938C13.6626 25.8838 13.5626 25.9738 13.4526 26.0538C13.4726 26.0938 13.5026 26.1738 13.5926 26.2438H13.6026Z" fill="white"/>
<path d="M36.2178 20.5127C36.2178 20.5127 33.6372 20.3726 32.507 20.4026C29.1362 20.4727 25.6554 21.833 25.6554 21.833C27.8459 21.2828 30.2565 21.6829 30.2565 21.6829C29.3163 21.7329 27.0157 22.3531 25.8655 22.8232C24.2051 23.5033 22.5247 24.4836 21.2944 25.3838C23.2549 24.2235 28.8361 21.4829 35.9078 22.9932C35.9078 22.9932 36.3679 22.6332 37.5981 21.2828C38.9084 19.8525 39.1785 18.9623 39.1785 18.9623C39.1785 18.9623 33.1671 18.3122 28.8161 18.9823C27.8759 19.1224 26.8657 19.3524 25.9755 19.5725C28.6161 19.1624 32.477 19.3824 36.2078 20.4927L36.2178 20.5127Z" fill="#A2AAAD"/>
<path d="M22.355 27.6442C27.2662 26.4239 30.6769 27.9043 31.087 29.4546C31.087 29.4546 31.107 29.4546 31.137 29.4246C31.3371 29.3146 32.0973 28.9945 33.2475 27.8643C34.4578 26.674 35.208 25.7238 35.508 25.0836C30.4869 22.563 24.9356 24.0834 22.225 25.1336C24.0254 24.5235 27.0861 23.9834 30.4769 25.1336C25.2457 24.0934 21.1148 26.544 21.1148 26.544C24.1054 25.5637 26.0059 26.4839 26.0059 26.4839C22.3751 26.0438 19.6644 27.9543 18.7342 29.1445C18.6642 29.2946 18.5942 29.4446 18.5342 29.6047C19.3744 28.8145 20.2746 28.1743 22.345 27.6542L22.355 27.6442Z" fill="#A2AAAD"/>
<path d="M39.1387 14.6912C35.2879 15.0613 32.1772 15.7915 30.5168 16.5517C30.5168 16.5517 32.7973 16.1616 33.9576 16.1616C35.0878 16.1616 36.018 16.2716 36.018 16.2716C28.7564 17.4019 24.8555 19.5023 23.9053 20.0625C24.8655 19.6524 26.956 18.8622 29.9466 18.2721C32.7673 17.7119 36.048 17.5719 37.3583 17.4419C39.2388 15.6215 39.9789 13.3309 39.9789 13.3309C39.9789 13.3309 36.6982 13.591 32.9873 14.2811C29.1165 15.0013 26.6259 16.0115 26.1258 16.2216C33.2474 13.9911 39.1287 14.6912 39.1287 14.6912H39.1387Z" fill="#A2AAAD"/>
<path d="M19.584 29.6147C19.584 29.6147 20.8243 28.6845 22.9247 29.0246C26.0355 29.5247 25.9454 31.4851 25.9454 31.4851C25.9454 31.4851 27.3457 30.885 28.0559 29.6547C28.0559 29.6547 27.1757 28.8145 25.5954 28.5345C21.4544 27.8043 19.594 29.6247 19.594 29.6247L19.584 29.6147Z" fill="#A2AAAD"/>
<path d="M11.0923 27.3541C10.2921 27.5942 9.2819 27.5242 8.72177 27.3741C8.08163 27.8142 5.7611 28.8144 4.28076 31.305C4.36078 32.1552 4.4408 33.2355 4.79088 33.8256C6.2112 36.0661 8.68176 35.2359 8.68176 35.2359C8.68176 35.2359 4.92091 33.5655 8.94182 31.135C10.2221 30.3548 13.7829 29.7747 15.9034 30.4548C16.0834 30.5248 16.3035 30.6849 16.2935 30.7249C16.0734 31.8051 15.1832 34.8258 13.7129 35.686C12.8927 34.4957 15.0532 31.7651 12.8527 31.6551C12.8527 31.6551 13.4028 32.5053 13.1628 33.6355C13.0628 34.1357 12.7227 35.466 13.3228 36.8463C13.3228 36.8463 16.6636 34.8458 17.6538 30.2448C17.7838 29.7947 17.8739 29.4046 18.0639 29.0545C13.7729 30.7449 11.0823 27.3441 11.0823 27.3441L11.0923 27.3541ZM9.80202 28.8245C9.49195 28.9145 8.8318 29.0145 9.14187 28.5344C9.14187 28.5344 9.54196 28.3143 10.0721 28.0443C10.3021 28.2343 10.5422 28.3643 11.1623 28.4244C11.1623 28.4244 10.0421 28.7544 9.79201 28.8245H9.80202Z" fill="#A2AAAD"/>
<path d="M9.15188 28.5343C8.83188 29.0043 9.50188 28.9143 9.81188 28.8243C10.0619 28.7543 11.1819 28.4243 11.1819 28.4243C10.5619 28.3643 10.3219 28.2343 10.0919 28.0443C9.56188 28.3243 9.16188 28.5343 9.16188 28.5343H9.15188Z" fill="black"/>
</svg>
