<svg width="48" height="48" viewBox="0 0 48 48" fill="none" xmlns="http://www.w3.org/2000/svg">
<path d="M5 24C5 34.4759 13.5241 43 24 43C34.4759 43 43 34.4759 43 24C43 13.5241 34.4759 5 24 5C13.5241 5 5 13.5241 5 24Z" fill="#231F20"/>
<path d="M24.0005 42.5856C34.265 42.5856 42.5859 34.2646 42.5859 24.0001C42.5859 13.7357 34.265 5.41467 24.0005 5.41467C13.736 5.41467 5.41504 13.7357 5.41504 24.0001C5.41504 34.2646 13.736 42.5856 24.0005 42.5856Z" fill="#BCBEC0"/>
<path d="M24.3555 39.5373C32.915 39.3431 39.6963 32.2468 39.5021 23.6873C39.3078 15.1279 32.2116 8.34651 23.6521 8.54075C15.0926 8.73499 8.31127 15.8313 8.50551 24.3907C8.69976 32.9502 15.796 39.7316 24.3555 39.5373Z" fill="white"/>
<path d="M24.0778 24.0692C24.2591 17.7215 30.2528 16.2274 31.7641 16.3656C28.0505 16.167 24.3801 14.5951 24.1037 8.72241C23.6546 14.1892 21.461 15.7351 16.4087 16.3829C20.0187 16.5642 23.6719 17.9892 24.0778 24.0692" fill="#A7A9AC"/>
<path d="M31.7896 31.9282C31.9709 25.5805 37.8609 24.0087 39.3723 24.1468C35.6414 24.0087 32.0573 22.2382 31.7723 16.3655C31.3232 21.8323 29.1382 23.4214 24.0859 24.0691C27.6959 24.2505 31.3837 25.8568 31.7896 31.9282" fill="#8A8C8E"/>
<path d="M24.1726 39.4849C24.3539 33.1372 30.2785 31.7899 31.7812 31.9281C28.0676 31.7294 24.3626 29.9417 24.0776 24.069C23.6285 29.5358 21.5039 31.1767 16.4517 31.8244C20.0617 32.0058 23.758 33.4135 24.1726 39.4849" fill="#58595B"/>
<path d="M19.7598 22.7132V25.0364H20.3729V23.6891C20.3729 23.5509 20.347 23.3696 20.8652 23.4041V22.6959H20.7184C20.5111 22.7391 20.4593 22.8341 20.3643 22.9982V22.7046H19.7598V22.7132Z" fill="#231F20"/>
<path d="M22.4883 23.4646C22.4883 23.2573 22.4451 23.0328 22.3242 22.9205C22.1169 22.7046 21.7196 22.601 21.4087 22.7564C21.3137 22.7996 21.2446 22.791 21.0892 22.9896C21.0114 23.0846 20.9942 23.2228 20.9855 23.3437C20.9683 23.5941 21.0546 23.931 21.4001 24.0173C21.5901 24.0691 21.8146 24.0864 21.9096 24.2419C21.9701 24.3282 21.9528 24.3628 21.9269 24.4232C21.8924 24.5182 21.6851 24.5096 21.6074 24.4837C21.5296 24.4491 21.4778 24.3541 21.4864 24.2764H20.9683C20.9769 24.4837 20.9769 24.6046 21.0546 24.7514C21.1324 24.8982 21.2792 25.0019 21.4174 25.0451C21.6937 25.1314 22.0046 25.1141 22.2378 24.976C22.281 24.9501 22.4019 24.8464 22.4451 24.7601C22.5228 24.6132 22.566 24.4319 22.4969 24.1901C22.4624 24.0778 22.4624 24.0605 22.4364 24.0173C22.3155 23.7841 22.1514 23.7323 21.9874 23.6805C21.9874 23.6805 21.8319 23.646 21.8405 23.646C21.5469 23.6114 21.5296 23.4473 21.5728 23.3351C21.6074 23.2401 21.6764 23.2141 21.7714 23.2141C21.8492 23.2141 21.9355 23.2746 21.9442 23.3351C21.9528 23.3782 21.9528 23.4301 21.9528 23.4819H22.4969L22.4883 23.4646Z" fill="#231F20"/>
<path d="M12.4704 22.7218C12.479 22.4282 12.4186 22.2641 12.3495 22.1518C12.1077 21.7287 11.5636 21.6164 11.1145 21.815C10.9504 21.8928 10.8295 22.0223 10.7518 22.1691C10.6654 22.3159 10.6222 22.4368 10.6136 22.6009C10.5963 22.955 10.769 23.335 11.1059 23.5423C11.339 23.6891 11.5118 23.7064 11.7104 23.8964C11.814 24 11.8054 24.2591 11.7709 24.3196C11.6759 24.4923 11.4254 24.4318 11.3563 24.3628C11.2959 24.2937 11.27 24.0605 11.2786 23.9655H10.6136C10.5877 24.2591 10.6136 24.4405 10.7 24.6391C10.7863 24.8378 10.9159 24.9155 11.08 24.9932C11.434 25.1659 11.9177 25.1487 12.2631 24.8291C12.3495 24.7514 12.3754 24.6564 12.3754 24.6564C12.4531 24.4578 12.5481 24.2418 12.4877 23.8791C12.4618 23.715 12.384 23.5768 12.3495 23.525C12.2286 23.3523 12.1336 23.2746 11.8054 23.1105C11.8054 23.1105 11.7018 23.0673 11.7104 23.0673C11.365 22.955 11.2181 22.7391 11.3304 22.5146C11.3909 22.385 11.6154 22.3418 11.719 22.4282C11.7881 22.4887 11.8054 22.6268 11.8054 22.7218H12.0386H12.4704V22.7218Z" fill="#231F20"/>
<path d="M12.8076 22.7131H12.5571V23.2572H12.7903V24.4836C12.7903 25.1399 13.3517 25.0363 13.6539 25.0449V24.3454C13.4035 24.3454 13.4294 24.3022 13.4294 24.1726V23.2572H13.6712V22.7131H13.438V22.1517L12.8162 22.4972V22.7131H12.8076Z" fill="#231F20"/>
<path d="M17.8424 21.7804H17.2119V25.0536H17.8424V21.7804Z" fill="#231F20"/>
<path d="M18.5416 24.38C18.5416 24.5873 18.9993 24.6304 19.008 24.3713V24.3023H19.5175V24.57C19.5175 24.7513 19.4484 24.95 19.1375 25.0536C18.8093 25.1572 18.6107 25.0968 18.412 25.0536C18.1616 24.9586 18.0407 24.76 18.0234 24.4836V23.3522C18.0148 23.1363 18.127 22.955 18.3343 22.8168C18.6884 22.6613 18.8784 22.7045 19.1375 22.7995C19.388 22.9377 19.5002 23.1104 19.5002 23.3436V24.0604H18.5157V24.38H18.5416ZM18.5675 23.5768H19.0339C19.1289 23.1709 18.4898 23.1191 18.5675 23.5768V23.5768Z" fill="#231F20"/>
<path d="M16.0465 24.38C16.0465 24.5873 16.5042 24.6304 16.5128 24.3713V24.3023H17.0224V24.57C17.0224 24.7513 16.9533 24.95 16.6424 25.0536C16.3142 25.1572 16.1156 25.0968 15.9169 25.0536C15.6665 24.9586 15.5456 24.76 15.5283 24.4836V23.3522C15.5197 23.1363 15.6319 22.955 15.8392 22.8168C16.1933 22.6613 16.3833 22.7045 16.6424 22.7995C16.8928 22.9377 17.0051 23.1104 17.0138 23.3436V24.0604H16.0292V24.38H16.0465ZM16.0724 23.5768H16.5388C16.6338 23.1709 15.9947 23.1191 16.0724 23.5768V23.5768Z" fill="#231F20"/>
<path d="M14.3438 24.38C14.3438 24.5873 14.8016 24.6304 14.8102 24.3713V24.3023H15.3197V24.57C15.3197 24.7513 15.2507 24.95 14.9398 25.0536C14.6116 25.1572 14.4129 25.0968 14.2143 25.0536C13.9638 24.9586 13.8429 24.76 13.8257 24.4836V23.3522C13.817 23.1363 13.9293 22.955 14.1366 22.8168C14.4907 22.6613 14.6807 22.7045 14.9398 22.7995C15.1902 22.9377 15.3025 23.1104 15.3025 23.3436V24.0604H14.3179V24.38H14.3438ZM14.3698 23.5768H14.8361C14.9311 23.1709 14.292 23.1191 14.3698 23.5768V23.5768Z" fill="#231F20"/>
</svg>
