<svg width="48" height="48" viewBox="0 0 48 48" fill="none" xmlns="http://www.w3.org/2000/svg">
<path d="M38.8742 29.97C36.8642 29.57 34.2342 29.46 33.1242 29.46H6.66416C5.01416 29.46 3.31416 29.46 2.44416 28.12C1.55416 26.75 2.04416 25.41 3.53416 22.72C3.64416 22.52 8.17416 14 8.17416 14C8.17416 14 8.63416 14.58 9.10416 14.94C9.56416 15.3 10.0342 15.49 11.3042 15.49C13.5442 15.49 28.0142 15.46 28.1642 15.46C31.1042 15.46 34.0642 15.76 35.9842 17.87C36.9842 17.98 40.2042 18.4 42.8542 19.67C44.4042 20.41 45.4342 21.52 45.8242 22.87C45.9442 23.28 46.0042 23.71 46.0042 24.16C46.0042 25.45 45.5242 26.87 44.5842 28.35C42.5942 31.48 40.7542 32.57 40.6742 32.63C39.5442 33.43 38.4442 33.46 38.4442 33.46C38.4442 33.46 39.4342 32.34 39.7642 31.21C40.0942 30.09 38.8842 29.95 38.8842 29.95L38.8742 29.97Z" fill="white"/>
<path d="M42.5245 20.37C39.4945 18.92 35.6145 18.61 35.6145 18.61C33.9145 16.54 31.0545 16.23 28.1545 16.23C28.1545 16.23 13.5645 16.26 11.2945 16.26C8.65449 16.26 8.38449 15.21 8.38449 15.21L4.85449 21.85H14.0445C16.9345 21.85 17.0845 21.56 19.0045 20.15C21.0445 18.65 22.6745 18.11 24.5945 18.11C26.5145 18.11 27.7945 18.54 29.9345 19.49C32.0745 20.44 33.2145 20.9 34.4945 20.36C34.4945 20.36 33.4945 21.72 30.4545 20.44C27.4145 19.17 26.6045 18.89 24.7545 18.89C22.9045 18.89 20.8445 19.76 18.2345 22.37L21.3445 24.87C21.3445 24.87 20.6245 25.98 20.1545 26.69C19.6845 27.4 19.7245 27.87 19.9745 28.22C20.2245 28.57 20.5445 28.72 21.6945 28.72C22.8445 28.72 32.0745 28.7 33.1045 28.7C34.0045 28.7 36.8145 28.78 39.0045 29.22C41.9145 29.8 40.0345 32.26 40.0345 32.26C40.0345 32.26 41.9845 30.98 43.9145 27.95C46.0645 24.58 45.5345 21.81 42.5145 20.36L42.5245 20.37Z" fill="#001532"/>
<path d="M37.1844 20.9199C35.8044 20.5899 36.9844 19.7899 36.9844 19.7899C35.0044 20.1899 34.2644 21.8099 34.0944 22.2599C34.0644 22.3199 34.0344 22.3799 33.9944 22.4499C32.8944 24.6499 31.9144 24.5399 30.0444 24.5399H26.8444C24.2444 24.5399 23.0444 25.8299 21.7944 28.0199H23.2644C24.6044 26.0299 25.6144 25.4899 28.2644 25.3399C34.3144 25.3399 39.1444 27.0799 41.6944 28.4099C45.3244 22.3199 39.9344 21.3099 37.1844 20.9299V20.9199Z" fill="white"/>
<path d="M25.9142 27.99C26.5942 26.97 27.9642 26.62 30.1842 26.75C35.6642 27.07 38.8142 28.13 41.2542 29.05C38.2342 27.28 32.8642 26.01 29.1242 26.02C27.2942 26.02 25.7042 26.34 24.7642 28H25.9042L25.9142 27.99Z" fill="white"/>
<path d="M31.7945 21.94C31.0845 22.94 30.1445 23.28 27.4745 23.09C24.3745 22.88 25.1745 21.57 25.5345 20.93C25.5345 20.93 25.5345 20.93 25.5245 20.93C25.6245 20.75 25.7945 20.44 25.9645 20.13C23.5845 19.98 21.8545 21.81 21.8545 21.81C23.6245 23.56 24.8045 23.75 26.4145 23.75H29.4145C32.2045 23.75 32.8745 22.5 33.1345 21.94C32.6545 22 32.2245 22 31.8145 21.94H31.7945Z" fill="white"/>
<path d="M30.4345 21.65C30.3745 21.63 30.3145 21.6 30.2645 21.58C29.9945 21.87 29.5245 22.03 29.0645 21.98C28.4645 21.9 28.1145 21.47 28.2845 21.01C28.3045 20.94 28.3445 20.88 28.3845 20.82C28.0745 20.7 27.7645 20.58 27.4645 20.48C26.8445 21.48 26.4845 22.14 28.6245 22.32C29.9545 22.43 30.3245 22.21 30.6045 21.73C30.5445 21.71 30.4945 21.69 30.4345 21.67V21.65Z" fill="#69BE28"/>
<path d="M19.6743 25.44C18.5643 27.36 18.1343 27.8 18.9043 28.71H6.66429C4.85429 28.71 3.68429 28.64 3.08429 27.71C2.49429 26.81 2.61429 25.94 4.20429 23.1H14.6043C16.3943 23.1 16.8543 23.2 17.8343 23.96C18.8043 24.72 19.6743 25.45 19.6743 25.45V25.44Z" fill="#A5ACAF"/>
</svg>
