<svg width="48" height="48" viewBox="0 0 48 48" fill="none" xmlns="http://www.w3.org/2000/svg">
<path d="M38.8523 29.9649C36.8529 29.565 34.2138 29.455 33.1042 29.455H6.66266C5.01319 29.455 3.31374 29.455 2.44402 28.1155C1.55431 26.7459 2.04415 25.4063 3.53367 22.7172C3.64363 22.5173 8.17218 14 8.17218 14C8.17218 14 8.63203 14.5798 9.10188 14.9397C9.56173 15.2996 10.0316 15.4895 11.3012 15.4895C13.5404 15.4895 28.0058 15.4595 28.1557 15.4595C31.0948 15.4595 34.0538 15.7594 35.9832 17.8688C36.9829 17.9787 40.2019 18.3986 42.851 19.6682C44.4005 20.4079 45.4302 21.5176 45.8201 22.8671C45.94 23.277 46 23.7069 46 24.1567C46 25.4463 45.5202 26.8659 44.5805 28.3454C42.5911 31.4744 40.7517 32.564 40.6717 32.624C39.5421 33.4237 38.4424 33.4537 38.4424 33.4537C38.4424 33.4537 39.4321 32.3341 39.762 31.2045C40.0919 30.0848 38.8823 29.9449 38.8823 29.9449L38.8523 29.9649Z" fill="white"/>
<path d="M42.5119 20.3679C39.4829 18.9184 35.6041 18.6085 35.6041 18.6085C33.9047 16.5392 31.0456 16.2293 28.1465 16.2293C28.1465 16.2293 13.5612 16.2593 11.2919 16.2593C8.65278 16.2593 8.38287 15.2096 8.38287 15.2096L4.854 21.8475H14.041C16.9301 21.8475 17.0801 21.5576 18.9995 20.148C21.0388 18.6485 22.6683 18.1087 24.5877 18.1087C26.507 18.1087 27.7866 18.5385 29.9259 19.4882C32.0652 20.4379 33.2049 20.8978 34.4845 20.3579C34.4845 20.3579 33.4848 21.7175 30.4458 20.4379C27.4067 19.1683 26.597 18.8884 24.7476 18.8884C22.8982 18.8884 20.8389 19.7581 18.2297 22.3673L21.3387 24.8665C21.3387 24.8665 20.6189 25.9761 20.1491 26.6859C19.6792 27.3957 19.7192 27.8655 19.9691 28.2154C20.2191 28.5653 20.539 28.7152 21.6886 28.7152C22.8382 28.7152 32.0652 28.6953 33.0949 28.6953C33.9946 28.6953 36.8037 28.7752 38.993 29.2151C41.9021 29.7949 40.0227 32.2541 40.0227 32.2541C40.0227 32.2541 41.9721 30.9745 43.9014 27.9455C46.0507 24.5766 45.5209 21.8075 42.5019 20.3579L42.5119 20.3679Z" fill="#231F20"/>
<path d="M37.1736 20.9177C35.7941 20.5878 36.9737 19.7881 36.9737 19.7881C34.9943 20.188 34.2546 21.8074 34.0846 22.2573C34.0546 22.3173 34.0246 22.3773 33.9846 22.4472C32.885 24.6465 31.9053 24.5366 30.0359 24.5366H26.837C24.2378 24.5366 23.0382 25.8261 21.7886 28.0154H23.2581C24.5977 26.0261 25.6073 25.4863 28.2565 25.3363C34.3045 25.3363 39.133 27.0757 41.6822 28.4053C45.311 22.3173 39.9227 21.3076 37.1736 20.9277V20.9177Z" fill="white"/>
<path d="M25.907 27.9855C26.5867 26.9659 27.9563 26.616 30.1756 26.7459C35.6538 27.0658 38.8028 28.1255 41.242 29.0452C38.223 27.2758 32.8547 26.0062 29.1159 26.0162C27.2865 26.0162 25.697 26.3361 24.7573 27.9955H25.897L25.907 27.9855Z" fill="white"/>
<path d="M31.7854 21.9374C31.0757 22.9371 30.136 23.277 27.4668 23.087C24.3678 22.8771 25.1676 21.5675 25.5274 20.9277C25.5274 20.9277 25.5274 20.9277 25.5175 20.9277C25.6174 20.7478 25.7874 20.4379 25.9573 20.128C23.5781 19.9781 21.8486 21.8075 21.8486 21.8075C23.6181 23.5569 24.7977 23.7468 26.4072 23.7468H29.4062C32.1953 23.7468 32.8651 22.4972 33.125 21.9374C32.6452 21.9974 32.2153 21.9974 31.8054 21.9374H31.7854Z" fill="white"/>
<path d="M30.4261 21.6475C30.3661 21.6275 30.3061 21.5975 30.2561 21.5776C29.9862 21.8675 29.5164 22.0274 29.0565 21.9774C28.4567 21.8974 28.1068 21.4676 28.2768 21.0077C28.2967 20.9378 28.3367 20.8778 28.3767 20.8178C28.0668 20.6978 27.7569 20.5779 27.457 20.4779C26.8372 21.4776 26.4773 22.1374 28.6166 22.3173C29.9462 22.4273 30.3161 22.2073 30.596 21.7275C30.536 21.7075 30.486 21.6875 30.4261 21.6675V21.6475Z" fill="#C7C8CA"/>
<path d="M19.6688 25.4363C18.5592 27.3557 18.1293 27.7955 18.8991 28.7052H6.66303C4.85362 28.7052 3.68399 28.6353 3.08419 27.7056C2.49438 26.8059 2.61434 25.9361 4.20383 23.097H14.6005C16.3899 23.097 16.8498 23.197 17.8294 23.9568C18.7991 24.7165 19.6688 25.4463 19.6688 25.4463V25.4363Z" fill="#BCBEC0"/>
</svg>
