<svg width="48" height="48" viewBox="0 0 48 48" fill="none" xmlns="http://www.w3.org/2000/svg">
<path d="M35.1401 29.67C34.7401 30.27 31.6301 34.72 31.4201 35.01C31.4001 35 30.8701 34.54 30.8501 34.52C31.6401 33.42 33.8801 30.07 33.9301 30C34.3301 29.9 34.7201 29.8 35.1101 29.68C35.1201 29.68 35.1301 29.68 35.1401 29.67Z" fill="white"/>
<path d="M36.6201 29.14C36.0601 30.03 32.9801 34.67 32.2501 35.72C32.2501 35.72 32.2401 35.72 32.2301 35.71C32.1201 35.61 31.9901 35.5 31.8301 35.37C32.0801 35.02 34.9201 30.79 35.7501 29.48C36.0401 29.38 36.3301 29.26 36.6101 29.15L36.6201 29.14Z" fill="#C7C8CA"/>
<path d="M28.6199 37.42C28.5199 37.68 28.4199 38.12 28.4599 38.44C28.4599 38.51 28.4799 38.57 28.4999 38.64C28.2599 39.76 27.7899 39.78 27.6599 39.76C27.6399 39.76 27.6299 39.76 27.6299 39.76C28.0899 39.35 28.0799 38.6 28.5499 37.57C28.5699 37.52 28.5999 37.47 28.6199 37.43V37.42Z" fill="white"/>
<path d="M31.3702 38.21C31.3802 38.42 31.1402 38.73 30.9202 38.81C30.7602 38.87 30.5502 38.91 30.3502 38.91C30.2902 38.91 30.2202 38.91 30.1602 38.91C30.2202 38.81 30.2902 38.7 30.3602 38.57C30.5302 38.29 30.7502 37.96 30.9302 37.71C31.0602 37.77 31.2402 37.9 31.3302 38.08C31.3502 38.13 31.3602 38.17 31.3602 38.22L31.3702 38.21Z" fill="#C7C8CA"/>
<path d="M30.0999 36.72C29.9399 36.57 29.8399 36.42 29.7799 36.27C29.7799 36.27 29.1799 37.05 28.6499 38.23C28.6599 38.29 28.6799 38.34 28.7099 38.39C28.8699 38.74 29.0199 38.84 29.3099 38.82C29.3099 38.82 29.9899 37.66 30.4699 37.04C30.3699 36.96 30.2499 36.85 30.1099 36.72H30.0999Z" fill="#C7C8CA"/>
<path d="M29.78 36.2701C29.67 35.9501 29.69 35.6201 29.7 35.5601C29.7 35.5701 29.68 35.5901 29.67 35.6001C29.49 35.8801 29.31 36.1701 29.14 36.4601C28.98 36.7401 28.65 37.3601 28.64 37.3901C28.64 37.4001 28.56 37.8701 28.64 38.2301C28.64 38.2301 28.64 38.2101 28.64 38.2301C29.17 37.0601 29.77 36.2701 29.77 36.2701H29.78Z" fill="white"/>
<path d="M32.7699 37.61C32.6299 36.98 31.8199 36.36 31.6399 36.23C31.2399 35.88 30.2199 35.08 30.1199 34.91C30.0199 34.72 29.5399 34.08 28.8899 33.95C28.8899 33.95 28.7799 33.93 28.7699 34.02C28.7699 34.07 28.7799 34.12 28.8599 34.14C28.9399 34.16 29.1799 34.18 29.4399 34.44C29.7099 34.69 29.7999 35.02 29.7999 35.3C29.7999 35.58 29.8899 35.98 30.2299 36.23C30.5699 36.49 30.9699 36.92 31.3299 37.01C31.3499 37.01 31.3699 37.01 31.3899 37.02C31.6199 37.04 31.8499 36.83 31.8099 36.71C31.8899 36.97 31.8099 37.15 31.6999 37.29C32.0899 37.68 32.2799 38.12 32.1599 38.51C31.9999 39.02 31.4299 39.71 30.3899 39.69C29.6499 39.69 29.2099 39.47 29.0199 39.36C29.0199 39.36 29.0799 39.22 29.0899 39.21C28.6599 39.31 28.4999 38.67 28.4899 38.64C28.2499 39.76 27.7799 39.77 27.6499 39.76C27.6299 39.76 27.6199 39.76 27.6199 39.76C27.6199 39.76 27.7099 40.13 28.0799 40.3C27.9099 40.25 27.7299 40.31 27.6299 40.46C27.5099 40.65 27.5599 40.89 27.7399 41.02C27.9299 41.14 28.1699 41.09 28.2999 40.91C28.4199 40.72 28.3699 40.48 28.1899 40.35C28.1899 40.35 28.1699 40.35 28.1599 40.34C28.2099 40.36 28.2599 40.37 28.3199 40.38C28.7999 40.46 28.9599 40.23 28.9599 40.23C28.9599 40.23 28.9299 40.16 28.8999 40.07C28.8999 40.07 28.4199 40.41 27.8899 39.87C27.9099 39.87 28.0799 39.94 28.3799 39.89C28.8299 39.82 28.8899 39.68 28.9199 39.66C28.9199 39.66 28.9199 39.66 28.9199 39.65C29.3099 39.86 29.7399 39.96 30.3499 39.97C31.0299 39.98 31.6899 39.77 32.0799 39.43C32.4599 39.09 32.9199 38.38 32.7499 37.63L32.7699 37.61Z" fill="#C7C8CA"/>
<path d="M43.33 5C43.33 5 43.43 6.79 43.09 8.43C42.76 10.01 42.58 10.62 42.58 10.62C41.89 11.03 40.77 11.52 39.13 11.8C36.08 12.31 33.3 11.49 30.28 10.3C27.25 9.11 23.2 7.83 19.45 8.26C15.81 8.68 13.2 10.15 11.81 11.12C10.42 12.08 10.17 12.34 8.98 12.68C8.98 12.68 9.91 13.05 10.39 13.05C10.39 13.05 10.16 13.98 10.25 14.3C10.25 14.3 12.23 13.39 12.46 13.82C12.69 14.24 11.75 14.53 11.1 14.7C10.45 14.87 8.75 14.84 8.75 14.84C8.75 14.84 9.55 15.46 9.83 15.88C9.83 15.88 8.33 16.53 6.66 16.31C6.66 16.31 6.6 16.93 7.98 17.94C7.69 18.04 7.32 18.21 7.09 18.46C7.09 18.46 8.53 18.16 9.43 19.17C9.67 19.47 9.75 19.74 9.72 20.07C9.67 20.68 9.44 20.91 8.86 21.3C8.53 21.43 8.18 21.6 7.84 21.81C6.25 22.79 5.09 24.27 4.27 25.97C3.92 26.71 3.63 27.56 3.43 28.34C3.23 29.12 3.16 29.81 3.11 30.24C3.06 30.67 3 32.03 3 32.03C3 32.03 3.71 31.03 4.05 30.55C4.38 30.07 6.49 27.42 9.57 26.65C10.55 26.4 11.53 26.3 12.47 26.3C14.72 26.3 16.73 26.91 17.92 27.49C19.65 28.33 22.48 30.3 26.2 30.91C27.08 31.05 28.02 31.13 29 31.13C29.98 31.13 30.91 31.06 31.88 30.93C31.33 31.75 30.81 32.51 30.31 33.22C29.8 32.74 29.12 32.69 29.12 32.69C28.29 32.61 27.87 33.12 27.87 33.12C27.7 33.3 27.58 33.54 27.53 33.82C27.47 34.08 27.54 34.38 27.59 34.53C27.75 35.03 28.18 35.26 28.35 35.34C27.13 36.96 26.78 38.83 26.78 38.83L26.22 39.32L26.42 40.13C26.11 41.13 26.6 41.87 27.23 42.18C27.87 42.49 28.47 42.31 28.47 42.31C28.85 42.2 29.19 41.97 29.42 41.62C29.46 41.57 29.49 41.51 29.51 41.46C29.64 41.39 29.75 41.31 29.85 41.23C30.03 41.25 30.48 41.26 30.48 41.26C31.4 41.26 32.3 40.99 32.99 40.41C33.53 39.93 34.13 39.1 34.15 37.97C34.15 37.76 34.19 36.9 33.48 36.16C37.93 29.62 40.82 25.42 42.67 21.13C47.51 9.77 43.34 5.04 43.33 5ZM35.39 32.35C34.44 33.79 33.53 35.12 32.79 36.19C33.64 36.9 33.59 37.78 33.59 37.95C33.57 38.9 33.07 39.6 32.61 40.01C32.04 40.5 31.25 40.74 30.43 40.74C30.41 40.74 29.81 40.72 29.61 40.68C29.52 40.81 29.35 40.96 29.08 41.08C29.05 41.17 29.01 41.25 28.95 41.33C28.72 41.67 28.35 41.86 27.97 41.86C27.97 41.86 27.58 41.85 27.32 41.66C26.98 41.43 26.79 41.06 26.79 40.68C26.79 40.49 26.83 40.3 26.92 40.13C26.88 40.04 26.74 39.47 26.74 39.47L27.1 39.15C27.1 39.15 27.22 39 27.32 38.65C27.43 38.31 27.56 37.81 27.82 37.22C28.16 36.48 28.64 35.71 28.98 35.17C28.95 35 28.77 34.92 28.64 34.89C28.5 34.85 28.32 34.77 28.18 34.6C28.03 34.43 27.92 34.18 27.98 33.87C28.04 33.56 28.24 33.34 28.47 33.23C28.73 33.1 29.05 33.16 29.05 33.16C29.81 33.23 30.37 33.93 30.37 33.93C31.12 32.88 32.88 30.26 32.92 30.21C30.62 30.65 28.24 30.71 26.27 30.38C22.68 29.78 19.92 27.87 18.13 27C16.35 26.13 12.95 25.24 9.44 26.13C5.93 27.02 3.62 30.25 3.62 30.25C4.67 22.87 9.24 21.63 9.67 21.51C10.34 20.89 11.21 18.98 9.14 17.7C8.43 17.26 7.84 16.71 7.84 16.71C8.27 16.76 9.29 16.63 9.85 16.4C10.53 16.13 11.15 16.04 11.15 16.04C10.62 15.53 9.8 15.28 9.8 15.28C10.62 15.23 11.89 14.95 12.68 14.59C13.47 14.23 13.9 13.6 13.77 13.32C13.64 13.04 12.93 13.19 12.93 13.19C13.19 12.81 13.8 12.65 13.8 12.65C12.04 12.55 10.76 13.51 10.76 13.51C10.96 13.09 11.6 12.34 11.6 12.34C11.36 12.42 10.68 12.63 10.64 12.64C13.39 10.51 16.46 8.65 20.77 8.62C25.07 8.59 29.27 10.52 32.06 11.41C34.86 12.3 36.34 12.76 39.36 12.31C40.8 12.1 42.07 11.5 43 10.95C43 10.95 43.65 9.3 43.7 6.93C43.7 6.93 44.48 8.32 44.48 10.49C44.48 17.94 40.88 23.38 39.73 25.36C38.63 27.31 37.18 29.64 35.41 32.33L35.39 32.35Z" fill="#C7C8CA"/>
<path d="M43.6899 6.94995C43.6399 9.31995 42.9899 10.97 42.9899 10.97C42.0599 11.53 40.7999 12.12 39.3499 12.33C36.3299 12.78 34.8499 12.33 32.0499 11.43C29.2599 10.54 25.0599 8.60995 20.7599 8.63995C16.4599 8.66995 13.3799 10.54 10.6299 12.66C10.6699 12.65 11.3499 12.44 11.5899 12.36C11.5899 12.36 10.9499 13.11 10.7499 13.53C10.7499 13.53 12.0299 12.57 13.7899 12.67C13.7899 12.67 13.1799 12.82 12.9199 13.21C12.9199 13.21 13.6299 13.06 13.7599 13.34C13.8899 13.62 13.4499 14.26 12.6699 14.61C11.8799 14.97 10.6099 15.25 9.78986 15.3C9.78986 15.3 10.6099 15.56 11.1399 16.06C11.1399 16.06 10.5199 16.15 9.83986 16.42C9.27986 16.64 8.25986 16.78 7.82986 16.73C7.82986 16.73 8.41986 17.29 9.12986 17.72C11.1999 19 10.3199 20.91 9.65986 21.53C9.21986 21.65 4.64986 22.9 3.60986 30.27C3.60986 30.27 5.92986 27.04 9.42986 26.15C12.9399 25.26 16.3399 26.15 18.1199 27.02C19.8999 27.89 22.6699 29.8 26.2599 30.4C28.2299 30.73 30.6099 30.6699 32.9099 30.2299C32.8699 30.2899 31.1199 32.9 30.3599 33.95C30.3599 33.95 29.7999 33.25 29.0399 33.18C29.0399 33.18 28.7199 33.12 28.4599 33.25C28.2299 33.36 28.0399 33.5799 27.9699 33.8899C27.9099 34.1999 28.0199 34.45 28.1699 34.62C28.3099 34.79 28.4899 34.87 28.6299 34.91C28.7599 34.94 28.9399 35.02 28.9699 35.19C28.6199 35.72 28.1499 36.49 27.8099 37.24C27.5399 37.83 27.4099 38.3299 27.3099 38.6699C27.2099 39.0199 27.1199 39.1499 27.0899 39.1699L26.7299 39.49C26.7299 39.49 26.8699 40.05 26.9099 40.15C26.8199 40.32 26.7799 40.4999 26.7799 40.6899C26.7799 41.0799 26.9699 41.46 27.3099 41.68C27.5799 41.86 27.9599 41.88 27.9599 41.88C28.3399 41.88 28.7199 41.6899 28.9399 41.3499C28.9899 41.2699 29.0399 41.1799 29.0699 41.0999C29.3399 40.9899 29.5099 40.83 29.5999 40.7C29.7999 40.75 30.3899 40.7599 30.4199 40.7599C31.2499 40.7599 32.0299 40.5199 32.5999 40.0299C33.0599 39.6199 33.5599 38.91 33.5799 37.97C33.5799 37.8 33.6299 36.9099 32.7799 36.2099C33.5199 35.1399 34.4199 33.81 35.3799 32.37C37.1499 29.69 38.5999 27.35 39.6999 25.4C40.8499 23.42 44.4599 17.98 44.4499 10.53C44.4499 8.35995 43.6699 6.96995 43.6699 6.96995L43.6899 6.94995ZM33.9299 30.01C34.3299 29.91 34.7199 29.81 35.1099 29.69C35.1199 29.69 35.1299 29.69 35.1399 29.68C34.7399 30.28 31.6299 34.73 31.4199 35.02C31.3999 35.01 30.8699 34.55 30.8499 34.53C31.6399 33.43 33.8799 30.08 33.9299 30.01ZM29.1399 36.4599C29.3099 36.1699 29.4899 35.88 29.6699 35.6C29.6699 35.59 29.6899 35.5699 29.6999 35.5599C29.6999 35.6199 29.6699 35.94 29.7799 36.27C29.8399 36.42 29.9399 36.5799 30.0999 36.7199C30.2399 36.8499 30.3599 36.96 30.4599 37.04C29.9799 37.66 29.2999 38.82 29.2999 38.82C29.0099 38.84 28.8599 38.7399 28.6999 38.3899C28.6799 38.3399 28.6599 38.2799 28.6399 38.2299C28.5499 37.8699 28.6399 37.3999 28.6399 37.3899C28.6499 37.3699 28.9699 36.7399 29.1399 36.4599V36.4599ZM30.9499 37.7C31.0799 37.76 31.2599 37.89 31.3499 38.07C31.3699 38.12 31.3799 38.1599 31.3799 38.2099C31.3899 38.4199 31.1499 38.73 30.9299 38.81C30.7699 38.87 30.5599 38.91 30.3599 38.91C30.2999 38.91 30.2299 38.91 30.1699 38.91C30.2299 38.81 30.2999 38.7 30.3699 38.57C30.5399 38.29 30.7599 37.9599 30.9399 37.7099L30.9499 37.7ZM32.1099 39.41C31.7199 39.75 31.0699 39.96 30.3799 39.95C29.7699 39.94 29.3399 39.84 28.9499 39.63C28.9499 39.63 28.9499 39.6299 28.9499 39.6399C28.9199 39.6699 28.8599 39.8099 28.4099 39.8699C28.1099 39.9199 27.9299 39.8599 27.9199 39.8499C28.4499 40.3899 28.9299 40.0499 28.9299 40.0499C28.9499 40.1399 28.9899 40.2099 28.9899 40.2099C28.9899 40.2099 28.8299 40.44 28.3499 40.36C28.2899 40.36 28.2399 40.33 28.1899 40.32C28.1899 40.32 28.2099 40.32 28.2199 40.33C28.4099 40.45 28.4599 40.6999 28.3299 40.8899C28.2099 41.0799 27.9599 41.13 27.7699 41C27.5799 40.88 27.5299 40.6299 27.6599 40.4399C27.7599 40.2899 27.9399 40.2299 28.1099 40.2799C27.7499 40.1099 27.6499 39.74 27.6499 39.74C28.1099 39.33 28.0999 38.5799 28.5699 37.5499C28.5899 37.4999 28.6199 37.45 28.6399 37.41C28.5399 37.67 28.4399 38.11 28.4799 38.43C28.4799 38.5 28.4999 38.56 28.5199 38.63C28.5199 38.63 28.6899 39.3 29.1199 39.2L29.0499 39.3499C29.2399 39.4699 29.6799 39.68 30.4199 39.68C31.4599 39.69 32.0299 39.01 32.1899 38.5C32.3099 38.1 32.1199 37.6599 31.7299 37.2799C31.8499 37.1499 31.9199 36.96 31.8399 36.7C31.8799 36.82 31.6499 37.0299 31.4199 37.0099C31.3999 37.0099 31.3799 37.01 31.3599 37C31.0099 36.9 30.5999 36.4699 30.2599 36.2199C29.9199 35.9699 29.8199 35.57 29.8299 35.29C29.8299 35.01 29.7399 34.68 29.4699 34.43C29.1999 34.18 28.9599 34.1499 28.8899 34.1299C28.8099 34.1099 28.7899 34.06 28.7999 34.01C28.8199 33.93 28.9199 33.94 28.9199 33.94C29.5699 34.07 30.0399 34.71 30.1499 34.9C30.2499 35.07 31.2699 35.8699 31.6699 36.2199C31.8599 36.3499 32.6599 36.9699 32.7999 37.5999C32.9699 38.3499 32.5099 39.06 32.1299 39.4L32.1099 39.41ZM32.2599 35.7099C32.2599 35.7099 32.2499 35.71 32.2399 35.7C32.1299 35.6 31.9999 35.49 31.8399 35.36C32.0899 35.01 34.9299 30.7799 35.7599 29.4699C36.0499 29.3699 36.3299 29.2499 36.6199 29.1399C36.0599 30.0299 32.9799 34.6699 32.2499 35.7199L32.2599 35.7099ZM37.5499 27.9799C35.5899 28.8899 31.0699 30.41 26.5699 29.57C24.9999 29.28 22.9399 28.7899 20.2099 27.1399C18.4199 26.0599 16.4899 25.02 11.9899 25.04C8.25986 25.06 5.85986 26.7499 5.09986 27.3799C7.11986 20.7799 13.1099 21.74 13.1099 21.74C12.0199 21.22 10.7099 21.42 10.7099 21.42C12.5799 18.47 9.55986 17.09 9.55986 17.09C9.80986 17.09 10.9599 16.76 11.5499 16.55C12.1399 16.35 13.2099 16.21 13.2099 16.21C12.8299 15.87 11.6799 15.59 11.6799 15.59C12.7799 15.59 13.7699 15.06 14.4599 14.34C14.6999 14.09 15.3599 12.84 14.6099 12.35C13.9199 11.9 12.5599 12.4 12.5599 12.4C12.5599 12.4 16.6399 8.00995 25.0499 9.87995C29.0399 10.77 33.5399 13.11 37.6899 13.13C39.0899 13.13 42.1599 12.69 43.9999 10.84C43.8999 14.35 43.2499 19.28 37.5599 27.99L37.5499 27.9799Z" fill="#231F20"/>
<path d="M37.6701 13.13C33.5201 13.1 29.0201 10.77 25.0301 9.88003C16.6201 8.00003 12.5501 12.39 12.5401 12.4C12.5401 12.4 13.9001 11.9 14.5901 12.35C15.3401 12.84 14.6801 14.09 14.4401 14.34C13.7501 15.06 12.7601 15.59 11.6601 15.59C11.6601 15.59 12.8201 15.87 13.1901 16.21C13.1901 16.21 12.1101 16.35 11.5301 16.55C10.9401 16.75 9.80008 17.09 9.54008 17.09C9.54008 17.09 12.5601 18.47 10.6901 21.42C10.6901 21.42 12.0001 21.22 13.0901 21.74C13.0901 21.74 7.11008 20.77 5.08008 27.38C5.84008 26.75 8.24008 25.06 11.9701 25.04C16.4701 25.02 18.4001 26.06 20.1901 27.14C22.9201 28.79 24.9801 29.28 26.5501 29.57C31.0501 30.41 35.5701 28.9 37.5301 27.98C43.2201 19.27 43.8701 14.35 43.9701 10.83C42.1301 12.68 39.0501 13.13 37.6601 13.12L37.6701 13.13ZM34.5801 23.19C32.5701 24.61 29.4201 25.05 29.4201 25.05C29.3801 25.19 29.1801 25.33 29.1801 25.33C29.1801 25.33 29.5001 25.45 30.2901 26.05C31.0801 26.65 30.8701 26.62 31.1201 26.79C31.3701 26.96 31.5201 26.91 31.5201 26.91C31.6001 27.06 31.6101 27.29 31.6101 27.29C31.7201 27.39 32.2301 27.88 31.7501 28.39C31.2701 28.9 30.7101 28.43 30.7101 28.43C30.5101 28.47 30.3201 28.41 30.3201 28.41C30.3201 28.41 29.2901 29.06 28.2701 28.35C27.4401 27.78 27.4901 27.1 27.5401 26.86C27.2601 27.02 26.9601 27.15 26.6501 27.24C25.8201 27.5 24.7501 27.61 23.7001 27.26C23.0101 27.03 22.4301 26.62 21.9801 26.17C21.5301 25.72 21.1901 25.22 20.9701 24.78C20.9401 24.71 20.9101 24.64 20.8801 24.58C20.8101 24.75 20.4601 25.41 19.3801 25.36C18.1401 25.31 17.7101 24.17 17.7101 24.17C17.7101 24.17 17.5201 24.11 17.3901 23.96C17.3901 23.96 16.6601 24 16.5901 23.31C16.5101 22.61 17.2201 22.53 17.3701 22.52C17.3701 22.52 17.5101 22.34 17.6701 22.27C17.6701 22.27 17.7601 22.4 18.0601 22.41C18.3601 22.43 18.1801 22.32 19.1701 22.32C20.1601 22.32 20.4901 22.42 20.4901 22.42C20.4901 22.42 20.4101 22.18 20.4601 22.05C20.4601 22.05 18.2101 19.8 17.4601 17.45C16.7101 15.1 16.9401 14.23 17.8501 11.75C17.8501 11.75 18.5201 15.97 20.5801 18.62C21.7601 20.13 23.0801 21.31 24.0001 22.05C24.0201 22.05 24.0401 22.05 24.0601 22.05C23.8601 21.83 23.7101 21.57 23.6401 21.28C23.4601 20.55 23.1501 19.88 23.0201 19.34C22.8801 18.8 23.1901 17.72 23.1901 17.72C22.7801 17.06 22.9801 15.97 22.9801 15.97C22.9801 15.97 23.2001 15.86 23.3701 15.66C23.5401 15.45 23.4801 14.84 23.6201 13.94C23.7601 13.04 24.3401 12.11 25.6401 11.58C26.9301 11.05 28.8701 11.74 28.8901 11.75C28.9101 11.75 30.8701 12.37 31.5901 13.57C32.3101 14.78 32.2101 15.87 31.7801 16.68C31.3501 17.48 30.9301 17.93 30.9401 18.2C30.9501 18.47 31.0701 18.69 31.0701 18.69C31.0701 18.69 30.5701 19.68 29.8401 19.96C29.8401 19.96 29.4401 21 29.0001 21.35C28.5701 21.7 27.9201 22.05 27.3301 22.52C27.1001 22.71 26.8301 22.82 26.5501 22.88C26.5701 22.89 26.5901 22.91 26.6101 22.92C27.7901 22.89 29.5501 22.75 31.3901 22.25C34.6301 21.38 37.7201 18.41 37.7201 18.41C36.9501 20.93 36.6001 21.77 34.5901 23.19H34.5801Z" fill="#6D6E71"/>
<path d="M27.1802 18.6199L27.2302 18.4799C27.2802 18.3299 27.1702 18.2699 27.1602 18.0299C27.1602 17.9099 27.1402 17.7899 27.1902 17.6499C27.2302 17.5399 27.1602 17.4099 27.0502 17.3599H27.0302C27.0302 17.3599 27.0202 17.3599 27.0102 17.3599C26.8802 17.3299 26.7502 17.3899 26.7202 17.5099C26.6702 17.6499 26.5902 17.7399 26.5102 17.8299C26.3602 18.0199 26.2402 17.9999 26.1902 18.1499L26.1402 18.2899C26.1102 18.3699 26.1402 18.4599 26.2002 18.5199C26.2302 18.5499 26.2602 18.5799 26.3102 18.5899C26.4402 18.6399 26.5902 18.5699 26.6302 18.4499C26.6302 18.4299 26.6602 18.4199 26.6802 18.4299C26.7002 18.4299 26.7102 18.4599 26.7102 18.4799C26.6702 18.5999 26.7402 18.7399 26.8802 18.7799C26.9202 18.7899 26.9702 18.7899 27.0102 18.7799C27.1002 18.7699 27.1702 18.7199 27.2002 18.6299L27.1802 18.6199Z" fill="#231F20"/>
<path d="M27.7798 17.18C27.7798 17.34 27.8398 17.96 28.1098 18.12C28.3798 18.31 28.9398 18.39 29.2098 18.36C29.2498 18.36 29.3098 18.34 29.3098 18.34C29.4298 18.27 29.5298 18.22 29.6298 18.12C29.7598 17.99 29.8598 17.82 29.9298 17.65C29.9598 17.57 29.9898 17.5 30.0098 17.42C30.0098 17.42 30.0698 17.16 30.1798 17.12C30.1898 17.12 30.1998 17.12 30.2098 17.12C30.2098 17.12 29.8698 17.03 29.4698 17.08C29.4298 17.08 29.3998 17.08 29.3598 17.1C28.9198 17.18 28.5198 17.25 28.2398 17.15C28.1498 17.12 28.0698 17.07 27.9998 17.01C27.9798 16.99 27.9598 16.98 27.9498 16.96C27.8598 16.87 27.7998 16.79 27.7798 16.77C27.7798 16.77 27.7598 17.04 27.7598 17.2L27.7798 17.18Z" fill="#231F20"/>
<path d="M24.6298 15.25C24.6898 15.35 24.5798 15.59 24.5798 15.59C24.5498 15.66 24.5298 15.73 24.5098 15.81C24.4498 16.06 24.4198 16.37 24.5198 16.62C24.5198 16.62 24.5898 16.74 24.5898 16.75C24.5898 16.75 24.5798 16.76 24.5698 16.76C24.5698 16.76 24.5798 16.76 24.5898 16.75C24.5898 16.75 24.6298 16.81 24.6598 16.83C24.8498 17.02 25.3598 17.29 25.6798 17.3C25.9898 17.33 26.4098 16.87 26.5098 16.75C26.6098 16.62 26.7598 16.4 26.7598 16.4C26.7598 16.4 26.6498 16.44 26.4998 16.46C26.4998 16.46 26.4498 16.46 26.4298 16.46C26.3398 16.46 26.2498 16.46 26.1598 16.43C25.8798 16.34 25.5998 16.04 25.2998 15.71C25.2698 15.68 25.2498 15.66 25.2198 15.63C24.9398 15.37 24.6298 15.23 24.6098 15.22C24.6098 15.22 24.6298 15.24 24.6298 15.25V15.25Z" fill="#231F20"/>
<path d="M25.38 22.2399C25.55 22.2999 25.71 22.3399 25.88 22.3599C26.05 22.3799 26.23 22.3699 26.43 22.3399C26.84 22.2699 27.32 21.8399 27.5 21.7199C27.68 21.5899 28.35 21.1499 28.51 21.0399C28.66 20.9299 28.79 20.8399 28.95 20.5799C29.11 20.3099 29.37 19.6999 29.37 19.6999C29.37 19.6999 29.11 19.6499 29.03 19.6399C28.99 19.7099 28.69 20.2399 28.58 20.3599C28.65 20.3999 28.84 20.5199 28.87 20.6599C28.87 20.6599 28.55 20.9599 28.15 21.1299C27.75 21.3099 27.15 21.6899 26.91 21.8499C26.82 21.9099 26.7 21.9599 26.54 21.9899C26.44 21.8199 26.11 21.5999 25.68 21.4599C25.23 21.3099 24.82 21.2799 24.65 21.3699C24.53 21.2399 24.45 21.1199 24.41 21.0099C24.32 20.7399 24.06 20.0699 23.85 19.6899C23.64 19.3099 23.56 18.8799 23.56 18.8799C23.7 18.7699 24 18.8199 24 18.8199C24 18.7999 24 18.7699 24 18.7399C24 18.5099 24.07 18.0499 24.07 17.9799C24 17.9399 23.76 17.8199 23.76 17.8199C23.74 17.8899 23.6 18.4899 23.57 18.7699C23.53 19.0799 23.58 19.2299 23.64 19.3999C23.7 19.5799 23.97 20.3399 24.03 20.5499C24.03 20.5799 24.05 20.6099 24.06 20.6499C24.13 20.9099 24.26 21.4299 24.51 21.6899C24.79 21.9999 25.07 22.1299 25.41 22.2499L25.38 22.2399Z" fill="#C7C8CA"/>
<path d="M26.2999 15.46C26.5999 15.81 27.0799 16.25 27.3699 16.34C27.6599 16.44 28.2999 16.38 28.7499 16.28C29.2099 16.21 29.8799 16.28 29.8799 16.28C29.5999 15.93 28.6499 16.03 28.1099 16.06C27.6499 16.1 27.5099 16.03 27.4699 16.02C27.4399 16.02 27.2899 15.98 26.9399 15.67C26.5299 15.33 25.8299 14.67 25.3999 14.78C25.3999 14.79 25.9799 15.14 26.2999 15.47V15.46Z" fill="#C7C8CA"/>
<path d="M24.5202 17.1C24.5202 17.1 24.3702 16.88 24.5502 16.78C24.5502 16.78 24.5602 16.78 24.5702 16.77C24.5702 16.77 24.5802 16.77 24.5902 16.76C24.5902 16.76 24.5302 16.64 24.5202 16.63C24.4202 16.38 24.4402 16.07 24.5102 15.82C24.5302 15.75 24.5502 15.67 24.5802 15.6C24.5802 15.6 24.6902 15.36 24.6302 15.26C24.6302 15.26 24.6102 15.24 24.6102 15.23C24.6102 15.23 24.2602 15.88 24.2302 16.21C24.2002 16.55 24.1802 16.86 24.5402 17.11L24.5202 17.1Z" fill="#C7C8CA"/>
<path d="M25.6902 17.31C25.6902 17.31 25.6902 17.41 25.4702 17.56C25.4702 17.56 25.8302 17.68 26.1002 17.53C26.3702 17.38 26.7302 16.7 27.1902 16.85C27.6402 17.01 27.5202 17.77 27.6502 18.05C27.7702 18.32 28.1102 18.45 28.1302 18.46C28.0402 18.21 28.1102 18.13 28.1102 18.13C27.8402 17.97 27.7802 17.35 27.7802 17.19C27.7802 17.03 27.8002 16.76 27.8002 16.76C27.6002 16.86 26.8502 16.62 26.7602 16.41C26.7602 16.41 26.6102 16.64 26.5102 16.76C26.4102 16.89 26.0002 17.35 25.6802 17.31H25.6902Z" fill="#C7C8CA"/>
<path d="M30.1999 17.12C30.0899 17.16 30.0299 17.42 30.0299 17.42C30.0099 17.5 29.9799 17.58 29.9499 17.65C29.8799 17.82 29.7699 17.98 29.6499 18.12C29.5499 18.22 29.4499 18.27 29.3299 18.34C29.3299 18.36 29.3299 18.37 29.3399 18.38C29.4199 18.58 29.1699 18.66 29.1699 18.66C29.6099 18.68 29.7799 18.42 29.9599 18.13C30.1399 17.84 30.2499 17.11 30.2499 17.11C30.2499 17.11 30.2299 17.11 30.2199 17.11L30.1999 17.12Z" fill="#C7C8CA"/>
<path d="M24.0902 17.7C24.2602 17.78 24.4402 17.86 24.6002 17.95C24.8502 18.09 25.1102 18.26 25.2202 18.54C25.2502 18.61 25.2502 18.7 25.2302 18.77C25.2302 18.77 25.2302 18.75 25.2202 18.74C25.2002 18.7 25.1602 18.66 25.1302 18.62C25.0702 18.56 25.0102 18.5 24.9402 18.45C24.9402 18.45 24.8902 18.64 24.8002 18.78C24.7502 18.86 24.7002 18.95 24.6502 19.07C24.5502 19.34 24.6702 19.63 24.7002 19.63C24.7302 19.63 24.8102 19.6 24.9402 19.22C24.9402 19.22 24.9502 19.19 24.9502 19.17C24.9502 19.15 24.9502 19.12 24.9402 19.09C24.9602 19.03 25.0402 19.03 25.0902 19.04C25.1102 19.04 25.1202 19.04 25.1402 19.04C25.1702 18.96 25.2102 18.86 25.2302 18.77C25.2902 18.56 25.2802 18.26 25.0302 17.98C24.7802 17.7 24.1502 17.49 23.9102 17.37C23.6702 17.25 23.4602 16.68 23.4902 16.28C23.4902 16.28 23.4702 16.5 23.4702 16.72C23.4702 16.81 23.4702 16.9 23.4802 16.97C23.4802 17.01 23.4902 17.04 23.5002 17.07C23.5702 17.31 23.5802 17.45 24.0902 17.68V17.7Z" fill="#C7C8CA"/>
<path d="M27.6098 19.9499C27.6098 19.9499 27.6598 19.9699 27.6698 19.9899C27.6998 20.0299 27.6998 20.0399 27.6998 20.0399C27.6698 20.0399 27.6498 20.0399 27.6198 20.0499C27.6098 20.0499 27.5398 20.0699 27.5398 20.0899C27.4198 20.4799 27.4598 20.5499 27.4798 20.5599C27.4998 20.5799 27.7698 20.4199 27.8498 20.1399C27.8498 20.1399 27.8998 19.8999 27.8998 19.8099C27.9198 19.6599 27.9798 19.4899 27.9898 19.4699C27.7198 19.4599 27.5598 19.5599 27.5598 19.5599C27.5598 19.5599 27.4798 19.6999 27.4598 19.8799C27.4598 19.8799 27.5698 19.9299 27.5898 19.9399L27.6098 19.9499Z" fill="#C7C8CA"/>
<path d="M29.4899 19.25C29.2299 19.2 28.5999 18.99 28.2299 19.06C27.9299 19.12 27.7499 19.29 27.6499 19.46C27.8499 19.23 28.2199 19.24 28.4999 19.27C28.7199 19.3 28.9299 19.34 29.1499 19.39C29.6899 19.52 29.7899 19.4 29.9799 19.26C30.1499 19.13 30.2899 18.94 30.3899 18.76C30.1399 19.05 29.7199 19.3 29.4799 19.26L29.4899 19.25Z" fill="#C7C8CA"/>
<path d="M27.27 18.13C27.27 18.01 27.25 17.92 27.29 17.81C27.35 17.63 27.24 17.44 27.04 17.36C27.16 17.41 27.22 17.54 27.18 17.65C27.13 17.79 27.14 17.91 27.15 18.03C27.15 18.27 27.26 18.33 27.22 18.48L27.17 18.62C27.14 18.7 27.07 18.75 26.98 18.77C26.93 18.91 26.79 18.94 26.79 18.94C27 19.01 27.22 18.92 27.28 18.74L27.33 18.6C27.37 18.5 27.33 18.4 27.31 18.34C27.29 18.27 27.27 18.22 27.26 18.13H27.27Z" fill="#C7C8CA"/>
<path d="M26.1298 18.27L26.1798 18.13C26.2298 17.98 26.3498 18 26.4998 17.81C26.5798 17.72 26.6598 17.63 26.7098 17.49C26.7498 17.38 26.8798 17.31 26.9998 17.34C26.7898 17.28 26.5898 17.37 26.5298 17.55C26.4898 17.66 26.4298 17.73 26.3498 17.82C26.2898 17.89 26.2398 17.92 26.1798 17.96C26.1198 17.99 26.0398 18.06 26.0098 18.16L25.9598 18.3C25.8998 18.48 26.0198 18.69 26.2298 18.76C26.2298 18.76 26.1398 18.65 26.1798 18.51C26.1198 18.45 26.0898 18.36 26.1198 18.28L26.1298 18.27Z" fill="#C7C8CA"/>
<path d="M23.54 18.8701C23.54 18.8701 23.62 19.3001 23.83 19.6801C24.04 20.0601 24.29 20.7301 24.39 21.0001C24.43 21.1101 24.5 21.2401 24.63 21.3601C24.8 21.2701 25.21 21.3001 25.66 21.4501C26.09 21.5901 26.43 21.8101 26.52 21.9801C26.68 21.9501 26.8 21.9001 26.89 21.8401C27.13 21.6801 27.73 21.3001 28.13 21.1201C28.53 20.9401 28.85 20.6501 28.85 20.6501C28.82 20.5101 28.62 20.3901 28.56 20.3501C28.52 20.3501 28.36 20.3901 28.28 20.4501C28.19 20.5201 27.86 21.0101 27.43 21.1901C27.47 20.9501 27.31 20.8201 27.27 20.8301C27.23 20.8301 27.2 20.9301 27.19 20.9501C27.19 20.9701 27.1 21.1401 27.07 21.2101C27.04 21.2901 27.05 21.2901 27.05 21.2901C26.98 21.2901 26.91 21.2901 26.84 21.2801C26.91 21.1601 26.96 21.0301 27.02 20.9101C27.06 20.8101 26.95 20.7801 26.95 20.7801C26.89 20.7701 26.83 20.7601 26.77 20.7501C26.69 20.7401 26.65 20.7801 26.64 20.8101C26.64 20.8301 26.63 20.8501 26.62 20.8701C26.59 20.9401 26.56 21.0101 26.53 21.0701C26.53 21.0701 26.53 21.0701 26.53 21.0801C26.5 21.1701 26.53 21.2401 26.53 21.2401C26.51 21.2401 26.45 21.2401 26.35 21.2201C26.3 21.2201 26.24 21.1801 26.24 21.1801C26.27 21.1501 26.29 21.1001 26.29 21.1001C26.35 20.9501 26.45 20.7201 26.45 20.7201C26.45 20.7201 26.49 20.6201 26.42 20.6001C26.33 20.5801 26.24 20.5501 26.16 20.5301C26.09 20.5201 26.07 20.5701 26.06 20.5901C26.05 20.6301 26.02 20.6801 26.01 20.7001C25.98 20.8001 25.94 20.8901 25.91 20.9901C25.89 21.0501 25.91 21.1101 25.91 21.1101C25.91 21.1101 25.83 21.0901 25.78 21.0801C25.74 21.0701 25.67 21.0201 25.67 21.0201C25.68 21.0101 25.69 20.9801 25.7 20.9601C25.74 20.8201 25.78 20.6401 25.81 20.4901C25.81 20.4701 25.81 20.4101 25.75 20.3801C25.68 20.3501 25.6 20.3201 25.53 20.2901C25.47 20.2701 25.44 20.3201 25.43 20.3501C25.4 20.4801 25.37 20.6401 25.34 20.7601C25.34 20.8401 25.37 20.9001 25.37 20.9001C25.34 20.9001 25.27 20.8601 25.21 20.8401C25.17 20.8201 25.09 20.7701 25.09 20.7701C25.13 20.7701 25.16 20.6801 25.16 20.6801C25.21 20.5801 25.24 20.5001 25.27 20.4101C25.27 20.4101 25.27 20.4101 25.27 20.4001C25.31 20.3001 25.24 20.2501 25.23 20.2401C25.13 20.1901 25.02 20.1401 25.02 20.1401C24.96 20.1101 24.93 20.1401 24.92 20.1901C24.88 20.3001 24.82 20.4001 24.8 20.5201C24.8 20.5901 24.8 20.6301 24.8 20.6301C24.67 20.5701 24.62 20.4701 24.62 20.4701C24.65 20.4301 24.69 20.3001 24.69 20.1801C24.69 20.0601 24.69 19.9401 24.64 19.9001C24.58 19.8601 24.48 19.9601 24.44 20.0401C24.39 20.1101 24.38 20.1601 24.38 20.1601C24.15 19.7601 24.18 19.1701 24.15 19.0701C24.12 18.9601 23.98 18.8201 23.98 18.8201C23.98 18.8201 23.68 18.7701 23.54 18.8801V18.8701Z" fill="white"/>
<path d="M33.39 22.59H33.37C33.37 22.59 31.15 23.92 27.79 24.16C27.9 24.32 27.99 24.48 28.07 24.63C29.12 24.57 30.18 24.43 31.18 24.15C31.82 23.97 32.45 23.75 33.05 23.46C33.66 23.17 34.25 22.83 34.77 22.41C35.11 22.14 35.43 21.84 35.72 21.51C36.12 21.06 36.49 20.53 36.69 19.96L36.71 19.91C36.69 19.95 36.05 21.42 33.39 22.58V22.59Z" fill="#C7C8CA"/>
<path d="M27.21 23.4501C27.34 23.5901 27.47 23.7301 27.58 23.8801C27.58 23.8801 27.94 23.8501 27.99 23.8501C28.61 23.8001 29.22 23.7201 29.84 23.6101C31.35 23.3401 32.49 22.9501 33.03 22.7501C33.16 22.7001 33.28 22.6501 33.4 22.6001C36.07 21.4401 36.71 19.9701 36.72 19.9301C36.72 19.9301 36.61 20.0201 36.44 20.1601C36.37 20.2201 36.29 20.2901 36.19 20.3601C35.19 21.1501 33.1 22.5701 29.7 23.1901C28.88 23.3401 28.04 23.4201 27.22 23.4601L27.21 23.4501Z" fill="white"/>
<path d="M27.7098 26C27.0198 26.43 25.4798 26.84 23.9998 26.34C22.5498 25.85 21.5798 24.61 21.2698 23.85C21.2298 23.77 21.2198 23.56 21.4398 23.46C21.4398 23.46 21.3098 23.48 21.1898 23.58C21.1898 23.58 21.1798 23.6 21.1698 23.63C21.0098 24.12 21.9898 26.18 23.8498 26.8C25.7098 27.42 27.7198 26.43 27.8998 25.89C27.9098 25.85 27.9198 25.82 27.9198 25.82C27.8798 25.69 27.7998 25.61 27.7998 25.61C27.8998 25.81 27.7998 25.95 27.7198 26.01L27.7098 26Z" fill="#6D6E71"/>
<path d="M25.2199 22.72C23.5099 22.15 21.6499 22.99 21.2399 23.51C21.2199 23.53 21.2099 23.55 21.1899 23.58C21.3099 23.48 21.4399 23.46 21.4399 23.46C21.2299 23.56 21.2399 23.77 21.2699 23.85C21.5799 24.61 22.5399 25.85 23.9999 26.34C25.4799 26.84 27.0199 26.43 27.7099 26C27.7899 25.94 27.8999 25.8 27.7899 25.6C27.7899 25.6 27.8699 25.68 27.9099 25.81C27.9299 25.68 27.8999 25.5 27.8299 25.29C27.5499 24.47 26.6299 23.19 25.2199 22.71V22.72ZM26.2999 24.68C26.2999 24.68 26.2999 24.73 26.2999 24.75C26.2399 24.72 26.1799 24.69 26.1099 24.66C26.0899 24.8 26.0499 24.94 26.0099 25.08C25.9199 25.03 25.8199 24.97 25.7299 24.92C25.7699 24.79 25.8099 24.66 25.8299 24.52C25.7299 24.47 25.6199 24.43 25.5199 24.38C25.4899 24.51 25.4599 24.63 25.4199 24.76C25.3199 24.71 25.2199 24.67 25.1199 24.63C25.1599 24.51 25.1899 24.39 25.2299 24.26C25.1299 24.22 25.0199 24.18 24.9099 24.14C24.8699 24.26 24.8399 24.38 24.7999 24.5C24.6999 24.46 24.5999 24.43 24.4899 24.4C24.5299 24.28 24.5699 24.16 24.6099 24.05C24.4999 24.02 24.3899 23.98 24.2799 23.95C24.2299 24.07 24.1899 24.18 24.1399 24.31C24.0399 24.28 23.9299 24.26 23.8299 24.23C23.8699 24.11 23.9199 23.99 23.9799 23.87C23.8699 23.84 23.7599 23.82 23.6499 23.79C23.5899 23.91 23.5399 24.04 23.4899 24.16C23.3799 24.14 23.2799 24.13 23.1699 24.11C23.2099 23.97 23.2699 23.84 23.3399 23.72C23.2699 23.71 23.1999 23.69 23.1299 23.68C23.1399 23.66 23.1599 23.64 23.1699 23.61C22.5399 23.5 21.9699 23.45 21.4999 23.45C21.8799 23.36 22.5399 23.32 23.3099 23.42C23.3099 23.42 23.3199 23.4 23.3299 23.4C23.3899 23.4 23.4499 23.41 23.5099 23.42C23.5599 23.34 23.6199 23.27 23.6799 23.2C23.7799 23.21 23.8799 23.23 23.9699 23.24C23.9199 23.31 23.8599 23.39 23.8099 23.47C23.9199 23.49 24.0199 23.51 24.1299 23.54C24.1699 23.46 24.2199 23.38 24.2699 23.3C24.3599 23.32 24.4499 23.34 24.5399 23.36C24.4999 23.44 24.4599 23.52 24.4199 23.61C24.5199 23.64 24.6199 23.67 24.7199 23.7C24.7499 23.61 24.7799 23.53 24.8199 23.45C24.9099 23.48 24.9899 23.51 25.0799 23.54C25.0599 23.63 25.0299 23.71 24.9999 23.8C25.0999 23.84 25.1999 23.87 25.2999 23.91C25.3199 23.82 25.3399 23.73 25.3499 23.64C25.4299 23.68 25.5199 23.71 25.5999 23.75C25.5999 23.84 25.5799 23.93 25.5699 24.02C25.6699 24.07 25.7699 24.11 25.8699 24.16C25.8699 24.07 25.8799 23.98 25.8799 23.89C25.9699 23.93 26.0499 23.98 26.1399 24.03C26.1399 24.12 26.1399 24.21 26.1399 24.3C26.1899 24.33 26.2399 24.36 26.2999 24.39C26.2999 24.4 26.2999 24.42 26.2999 24.43C26.9499 24.81 27.4399 25.22 27.6899 25.52C27.3299 25.25 26.8499 24.95 26.2999 24.67V24.68Z" fill="#C7C8CA"/>
<path d="M21.5 23.46C21.96 23.46 22.54 23.51 23.17 23.62C23.22 23.55 23.27 23.49 23.32 23.42C22.55 23.33 21.89 23.37 21.51 23.45L21.5 23.46Z" fill="#231F20"/>
<path d="M26.2998 24.4301C26.2998 24.5101 26.2998 24.5901 26.2998 24.6701C26.8498 24.9501 27.3298 25.2501 27.6898 25.5201C27.4398 25.2201 26.9598 24.8101 26.2998 24.4301Z" fill="#231F20"/>
<path d="M26.3001 24.43C26.3001 24.43 26.3001 24.3999 26.3001 24.3899C26.2501 24.3599 26.2001 24.3299 26.1401 24.2999C26.1401 24.2099 26.1401 24.12 26.1401 24.03C26.0501 23.98 25.9701 23.9299 25.8801 23.8899C25.8801 23.9799 25.8801 24.07 25.8701 24.16C25.7701 24.11 25.6801 24.07 25.5701 24.02C25.5801 23.93 25.5901 23.84 25.6001 23.75C25.5201 23.71 25.4301 23.6699 25.3501 23.6399C25.3301 23.7299 25.3201 23.82 25.3001 23.91C25.2001 23.87 25.1001 23.8299 25.0001 23.7999C25.0301 23.7099 25.0501 23.63 25.0801 23.54C25.0001 23.51 24.9101 23.48 24.8201 23.45C24.7901 23.53 24.7601 23.62 24.7201 23.7C24.6201 23.67 24.5201 23.64 24.4201 23.61C24.4601 23.53 24.5001 23.44 24.5401 23.36C24.4501 23.34 24.3601 23.3199 24.2701 23.2999C24.2201 23.3799 24.1801 23.46 24.1301 23.54C24.0201 23.52 23.9101 23.4899 23.8101 23.4699C23.8601 23.3899 23.9101 23.31 23.9701 23.24C23.8701 23.22 23.7801 23.21 23.6801 23.2C23.6201 23.27 23.5601 23.35 23.5101 23.42C23.4501 23.42 23.3901 23.4 23.3301 23.4C23.3301 23.4 23.3201 23.41 23.3101 23.42C23.2601 23.48 23.2101 23.55 23.1601 23.62C23.1401 23.64 23.1301 23.66 23.1201 23.69C23.1901 23.7 23.2601 23.7099 23.3301 23.7299C23.2601 23.8599 23.2101 23.99 23.1601 24.12C23.2701 24.13 23.3701 24.15 23.4801 24.17C23.5201 24.04 23.5801 23.9199 23.6401 23.7999C23.7501 23.8199 23.8601 23.8499 23.9701 23.8799C23.9201 23.9999 23.8701 24.12 23.8201 24.24C23.9301 24.26 24.0301 24.29 24.1301 24.32C24.1701 24.2 24.2201 24.0799 24.2701 23.9599C24.3801 23.9899 24.4901 24.0199 24.6001 24.0599C24.5601 24.1799 24.5201 24.29 24.4801 24.41C24.5801 24.44 24.6801 24.48 24.7901 24.51C24.8301 24.39 24.8701 24.27 24.9001 24.15C25.0101 24.19 25.1101 24.23 25.2201 24.27C25.1901 24.39 25.1501 24.5099 25.1101 24.6399C25.2101 24.6799 25.3101 24.72 25.4101 24.77C25.4501 24.64 25.4801 24.5199 25.5101 24.3899C25.6201 24.4299 25.7201 24.48 25.8201 24.53C25.7901 24.66 25.7601 24.8 25.7201 24.93C25.8201 24.98 25.9101 25.03 26.0001 25.09C26.0501 24.95 26.0801 24.81 26.1001 24.67C26.1601 24.7 26.2201 24.73 26.2901 24.76C26.2901 24.74 26.2901 24.71 26.2901 24.69C26.2901 24.61 26.2901 24.53 26.2901 24.45L26.3001 24.43Z" fill="white"/>
<path d="M18.8001 17.7301L18.9001 17.9001C18.9601 18.0001 19.0401 18.1401 19.1401 18.3001C19.6201 19.0701 20.2701 19.9101 21.1301 20.7801C21.1301 20.7801 22.2001 21.8401 22.6601 22.2401C22.8401 22.1901 23.0201 22.1501 23.2101 22.1201C22.5701 21.5901 21.9501 21.0201 21.3701 20.4001C18.4701 17.2601 17.9201 14.3501 17.7401 13.5601C17.7401 13.5601 17.4601 15.2801 18.8001 17.7301V17.7301Z" fill="white"/>
<path d="M21.4902 22.2801C21.4902 22.2801 21.7702 22.5601 21.8002 22.5501C21.9602 22.4801 22.1302 22.4101 22.3102 22.3401C19.7602 20.1101 18.7902 17.7101 18.7902 17.7101C17.4502 15.2801 17.7302 13.5601 17.7302 13.5601L17.7102 13.6101C17.6002 13.9401 17.5602 14.3001 17.5402 14.6401C17.5102 15.2301 17.5602 15.8101 17.6902 16.3901C17.8202 17.0001 18.0302 17.5801 18.2902 18.1501C18.5502 18.7301 18.8802 19.2801 19.2402 19.8001C19.6902 20.4401 20.2002 21.0401 20.7502 21.5901C20.9902 21.8301 21.2302 22.0601 21.4802 22.2801H21.4902Z" fill="#C7C8CA"/>
<path d="M18.89 17.9L18.79 17.73C18.82 17.79 18.85 17.84 18.89 17.9Z" fill="#C7C8CA"/>
<path d="M18.52 23.24C18.52 23.24 18.48 23.33 18.48 23.36C18.48 23.41 18.5 23.45 18.53 23.49C18.53 23.49 19.32 23.53 19.82 23.67C19.84 23.6 19.87 23.51 19.9 23.41C19.92 23.34 19.95 23.29 19.98 23.24C19.77 23.2 18.96 23.19 18.52 23.24V23.24Z" fill="#C7C8CA"/>
<path d="M18.52 23.2399C18.95 23.1899 19.77 23.1999 19.98 23.2399C20.1 23.0499 20.28 22.9699 20.4 22.9199C20.19 22.8899 19.94 22.8599 19.72 22.8399C19.61 22.8399 19.51 22.8199 19.4 22.8199C19.33 22.8199 19.26 22.8199 19.2 22.8199C19.06 22.8499 18.9 22.8999 18.78 22.9699C18.65 23.0599 18.56 23.1599 18.52 23.2499V23.2399Z" fill="white"/>
<path d="M18.3402 23.2601C18.3402 23.2601 18.3602 23.2201 18.3702 23.2101C18.4202 23.1201 18.5202 23.0301 18.6102 22.9701C18.7702 22.8701 19.0202 22.8201 19.1802 22.8101C19.1802 22.8101 19.1202 22.8101 19.0902 22.8101C18.8902 22.8101 18.7002 22.8301 18.5002 22.8601C18.3302 22.8801 18.1602 22.9101 18.0002 22.9101C17.9502 22.9101 17.9002 22.9101 17.8502 22.9001C17.8102 22.9001 17.7602 22.8801 17.7202 22.8601C17.7202 22.8601 17.8102 23.2601 18.3402 23.2601V23.2601Z" fill="white"/>
<path d="M20.9802 22.06C20.9802 22.06 20.9302 22.09 20.9402 22.14C20.9402 22.18 20.9902 22.31 20.9302 22.51C20.8602 22.71 20.7102 22.84 20.5702 22.9C20.4202 22.96 20.2402 23.11 20.1902 23.35C20.1402 23.59 20.0102 23.9 20.0502 24.11C20.0602 24.19 20.1402 24.3 20.3202 24.29C20.2002 24.39 20.0802 24.38 19.9902 24.34C19.8402 24.62 19.6202 24.73 19.2102 24.65C18.7902 24.57 18.2602 24.17 18.1502 23.49C18.1502 23.48 18.3502 23.48 18.3702 23.48C18.3702 23.48 18.3202 23.4 18.3202 23.35C18.3202 23.32 18.3302 23.29 18.3502 23.25C17.8302 23.25 17.7402 22.86 17.7302 22.85C17.7302 22.85 17.5602 22.98 17.5602 23.21C17.5402 23.12 17.4702 23.04 17.3702 23.03C17.2402 23.01 17.1302 23.1 17.1102 23.22C17.0902 23.35 17.1802 23.46 17.3002 23.48C17.4302 23.5 17.5402 23.41 17.5602 23.29C17.5602 23.32 17.5602 23.34 17.5802 23.37C17.6002 23.45 17.6302 23.51 17.6602 23.55C17.7302 23.65 17.8102 23.67 17.8102 23.67C17.8102 23.67 17.8202 23.66 17.8202 23.65C17.8202 23.65 17.8702 23.59 17.8802 23.6C17.8302 23.57 17.6002 23.4 17.7402 23.02C17.7402 23.02 17.7402 23.36 18.0102 23.53C18.0402 23.67 18.2602 24.5 19.0702 24.76C19.9602 25.04 20.3002 24.62 20.3802 24.46C20.4202 24.39 20.5102 24.16 20.5102 24.16C20.5902 23.94 20.7802 23.08 20.8602 22.98C20.9302 22.88 21.1502 22.48 21.0602 22.11C21.0602 22.11 21.0402 22.05 20.9902 22.06H20.9802Z" fill="#C7C8CA"/>
<path d="M28.9399 25.78C29.0199 25.89 29.1099 26.07 29.0899 26.29C29.2799 26.39 29.9299 26.87 30.2499 27.17C30.2699 27.07 30.2699 26.93 30.2099 26.79C30.1599 26.66 30.0699 26.52 29.9699 26.42C29.9599 26.42 29.9499 26.4 29.9299 26.39C29.8299 26.32 29.7299 26.25 29.6299 26.19C29.4899 26.1 29.3399 26.01 29.1899 25.92C29.1199 25.88 29.0499 25.84 28.9799 25.8C28.9699 25.8 28.9499 25.78 28.9399 25.78Z" fill="white"/>
<path d="M30.34 26.9099C30.38 26.9999 30.4 27.1199 30.39 27.2199C30.39 27.2499 30.39 27.2699 30.38 27.2999C30.4 27.3099 30.42 27.3299 30.43 27.3399C30.46 27.3599 30.49 27.3799 30.52 27.3899C30.57 27.4199 30.62 27.4299 30.67 27.4499C30.71 27.4499 30.75 27.4699 30.79 27.4699C30.9 27.4699 31.01 27.4299 31.1 27.3599C31.06 27.3499 31.01 27.3299 30.97 27.3099C30.93 27.2899 30.88 27.2599 30.84 27.2299C30.79 27.1899 30.62 27.0399 30.58 26.9999C30.53 26.9499 30.47 26.8899 30.42 26.8399C30.35 26.7799 30.21 26.6399 30.15 26.5899C30.14 26.5799 29.96 26.4399 29.96 26.4399C29.96 26.4399 30.26 26.7499 30.32 26.9199L30.34 26.9099Z" fill="white"/>
<path d="M30.68 27.4499C30.63 27.4399 30.58 27.4199 30.53 27.3899C30.5 27.3699 30.47 27.3599 30.44 27.3399C30.42 27.3299 30.4 27.3199 30.39 27.2999C30.39 27.3399 30.37 27.3799 30.35 27.3999C30.32 27.4399 30.27 27.4599 30.23 27.4699C30.29 27.5199 30.35 27.5599 30.4 27.6099C29.9 28.0799 29.24 28.0799 28.85 27.8999C28.48 27.7199 28.36 27.4899 28.41 27.1799C28.31 27.1599 28.21 27.0999 28.17 26.9399C28.17 26.9399 28.17 26.9399 28.18 26.9399C28.27 27.0099 28.41 27.0399 28.49 26.9499C28.57 26.8799 28.63 26.7499 28.68 26.6199C28.73 26.4999 28.77 26.3699 28.83 26.2599C28.85 26.2099 28.87 26.1599 28.88 26.1099C28.9 25.9599 28.88 25.7999 28.8 25.6699C28.72 25.5299 28.68 25.3399 28.75 25.1299C28.82 24.9299 28.93 24.8499 28.97 24.8199C29 24.7899 29 24.7599 28.98 24.7399C28.95 24.6999 28.9 24.7399 28.9 24.7399C28.61 24.9799 28.54 25.4299 28.54 25.5599C28.54 25.6799 28.18 26.4899 28.1 26.7099C28.1 26.7099 28.04 26.9099 28.02 27.0299C28 27.2099 28 27.7499 28.88 28.0599C29.68 28.3399 30.36 27.8099 30.46 27.7199C30.69 27.7399 30.85 27.6199 30.93 27.5399C30.97 27.4999 30.99 27.4799 30.99 27.4799C30.9 27.7699 30.72 27.8399 30.61 27.8499C30.57 27.8499 30.55 27.8499 30.53 27.8499C30.53 27.8499 30.53 27.8599 30.53 27.8699C30.54 27.9199 30.54 27.9499 30.54 27.9499C30.54 27.9499 30.57 27.9599 30.61 27.9699C30.67 27.9699 30.78 27.9599 30.91 27.8599C30.93 27.8399 30.95 27.8199 30.97 27.8099C30.92 27.9199 30.96 28.0499 31.07 28.1099C31.18 28.1699 31.32 28.1299 31.38 28.0199C31.44 27.9099 31.4 27.7699 31.29 27.7099C31.21 27.6699 31.11 27.6799 31.04 27.7299C31.11 27.6199 31.11 27.5099 31.11 27.4399C31.11 27.4299 31.11 27.3699 31.11 27.3699C31.02 27.4399 30.91 27.4799 30.8 27.4799C30.76 27.4799 30.72 27.4799 30.68 27.4599V27.4499Z" fill="#C7C8CA"/>
<path d="M29.0502 26.4801C29.0102 26.5801 28.9802 26.6701 28.9502 26.7401C29.3902 26.9401 29.8102 27.1901 30.0902 27.3801C30.1302 27.3701 30.1702 27.3501 30.2102 27.3101C30.2302 27.2801 30.2402 27.2401 30.2502 27.1901C29.9402 26.8901 29.2802 26.4001 29.0902 26.3101C29.0902 26.3101 29.0702 26.4201 29.0502 26.4901V26.4801Z" fill="#C7C8CA"/>
<path d="M27.7899 12.0399C25.3299 11.6199 24.8499 13.4699 24.8499 13.9199C24.8499 14.2499 24.8699 14.4699 24.8499 14.5999C24.4899 14.7499 24.1099 14.7999 24.1099 14.7999C24.1299 14.5899 24.1299 14.1299 24.2199 13.7699C24.2999 13.4299 24.8699 11.9499 26.8599 11.9399C27.0699 11.9399 27.2899 11.9499 27.5299 11.9899C27.6199 11.9999 27.6999 12.0199 27.7799 12.0399C27.7799 12.0399 27.7799 12.0399 27.7899 12.0399V12.0399Z" fill="#C7C8CA"/>
<path d="M31.38 22.25C29.54 22.75 27.78 22.89 26.6 22.92C26.58 22.91 26.56 22.89 26.54 22.88C26.82 22.82 27.09 22.71 27.32 22.52C27.91 22.05 28.55 21.7 28.99 21.35C29.43 21 29.83 19.96 29.83 19.96C30.56 19.68 31.06 18.69 31.06 18.69C31.06 18.69 30.94 18.47 30.93 18.2C30.92 17.93 31.34 17.48 31.77 16.68C32.2 15.88 32.3 14.78 31.58 13.57C30.87 12.37 28.9 11.75 28.88 11.75C28.86 11.75 26.92 11.05 25.63 11.58C24.33 12.11 23.75 13.04 23.61 13.94C23.47 14.84 23.53 15.45 23.36 15.66C23.19 15.87 22.97 15.97 22.97 15.97C22.97 15.97 22.77 17.06 23.18 17.72C23.18 17.72 22.87 18.8 23.01 19.34C23.15 19.88 23.45 20.55 23.63 21.28C23.7 21.57 23.85 21.83 24.05 22.05C24.03 22.05 24.01 22.05 23.99 22.05C23.07 21.32 21.75 20.13 20.57 18.62C18.51 15.97 17.84 11.75 17.84 11.75C16.93 14.23 16.71 15.1 17.45 17.45C18.2 19.8 20.45 22.05 20.45 22.05C20.4 22.18 20.48 22.42 20.48 22.42C20.48 22.42 20.15 22.32 19.16 22.32C18.17 22.32 18.36 22.42 18.05 22.41C17.75 22.39 17.66 22.27 17.66 22.27C17.51 22.35 17.36 22.52 17.36 22.52C17.22 22.54 16.51 22.62 16.58 23.31C16.66 24.01 17.38 23.96 17.38 23.96C17.51 24.11 17.7 24.17 17.7 24.17C17.7 24.17 18.13 25.31 19.37 25.36C20.45 25.41 20.79 24.75 20.87 24.58C20.9 24.65 20.93 24.71 20.96 24.78C21.18 25.23 21.51 25.72 21.97 26.17C22.42 26.62 23 27.02 23.69 27.26C24.75 27.61 25.81 27.5 26.64 27.24C26.95 27.14 27.25 27.02 27.53 26.86C27.48 27.09 27.43 27.77 28.26 28.35C29.28 29.05 30.31 28.41 30.31 28.41C30.31 28.41 30.5 28.47 30.7 28.43C30.7 28.43 31.26 28.9 31.74 28.39C32.22 27.88 31.7 27.39 31.6 27.29C31.6 27.29 31.6 27.06 31.51 26.91C31.51 26.91 31.37 26.96 31.11 26.79C30.86 26.62 31.07 26.65 30.28 26.05C29.49 25.45 29.17 25.33 29.17 25.33C29.17 25.33 29.38 25.19 29.41 25.05C29.41 25.05 32.56 24.62 34.57 23.19C36.58 21.77 36.93 20.93 37.7 18.41C37.7 18.41 34.62 21.37 31.37 22.25H31.38ZM23.49 17C23.49 16.92 23.48 16.83 23.48 16.75C23.48 16.53 23.5 16.31 23.5 16.31C23.5 16.31 23.8 16.12 23.95 15.84C24.1 15.56 24.23 15.01 24.23 15.01C24.8 14.95 25.34 14.33 25.38 14.29C25.24 14.43 25.05 14.53 24.86 14.61C24.5 14.76 24.12 14.81 24.12 14.81C24.14 14.6 24.14 14.14 24.23 13.78C24.31 13.44 24.88 11.96 26.87 11.95C27.08 11.95 27.3 11.96 27.54 12C27.63 12.01 27.71 12.03 27.79 12.05C27.79 12.05 27.79 12.05 27.8 12.05C28.25 12.14 28.62 12.25 28.71 12.28C28.71 12.28 28.73 12.28 28.74 12.28C28.79 12.29 28.85 12.32 28.93 12.34C28.95 12.34 28.97 12.36 29 12.37C29.03 12.38 29.07 12.4 29.1 12.41C29.15 12.43 29.2 12.45 29.25 12.47C29.3 12.49 29.35 12.52 29.41 12.54L29.51 12.58C32.09 13.82 31.52 15.78 31.37 16.15C31.24 16.49 30.97 16.82 30.85 17.01C30.71 16.86 30.53 16.64 30.39 16.39C30.3 16.23 30.23 16.05 30.2 15.88C30.2 15.88 30.25 16.73 30.68 17.14C30.68 17.14 30.45 17.66 30.4 17.98C30.35 18.3 30.48 18.63 30.48 18.63C30.48 18.63 30.45 18.68 30.4 18.75C30.3 18.93 30.16 19.13 29.99 19.25C29.79 19.4 29.7 19.51 29.16 19.38C28.95 19.33 28.73 19.28 28.51 19.26C28.23 19.22 27.86 19.22 27.66 19.45C27.63 19.48 27.61 19.52 27.59 19.56C27.59 19.56 27.74 19.45 28.02 19.46C28.02 19.46 27.95 19.65 27.93 19.8C27.93 19.89 27.88 20.13 27.88 20.13C27.8 20.41 27.53 20.56 27.51 20.55C27.48 20.53 27.44 20.46 27.57 20.08C27.57 20.06 27.63 20.04 27.65 20.04C27.68 20.04 27.7 20.04 27.73 20.03C27.73 20.03 27.73 20.02 27.7 19.98C27.69 19.96 27.66 19.95 27.64 19.94C27.62 19.93 27.51 19.88 27.51 19.88C27.46 19.86 27.41 19.84 27.41 19.84C27.41 19.84 27.41 19.86 27.41 19.88C27.41 19.91 27.39 19.95 27.39 19.96V19.98C27.39 20 27.38 20.03 27.37 20.05C27.35 20.14 27.32 20.21 27.3 20.3C27.27 20.38 27.19 20.36 27.19 20.36C27.13 20.33 27.06 20.3 26.99 20.26C26.99 20.26 26.91 20.22 26.92 20.14V20.12C26.94 20.04 26.99 19.88 26.99 19.84C26.99 19.79 27.03 19.71 27.05 19.68C27.04 19.67 27 19.63 26.98 19.62C26.96 19.61 26.93 19.6 26.89 19.61C26.88 19.62 26.86 19.65 26.85 19.67C26.85 19.68 26.82 19.77 26.79 19.86C26.76 19.96 26.72 20.06 26.71 20.11C26.69 20.16 26.66 20.17 26.63 20.17C26.6 20.17 26.58 20.17 26.58 20.17C26.52 20.15 26.44 20.12 26.37 20.09C26.37 20.09 26.37 20.09 26.36 20.09C26.28 20.06 26.29 19.99 26.29 19.97C26.32 19.87 26.37 19.74 26.4 19.64C26.4 19.62 26.42 19.59 26.42 19.57C26.42 19.56 26.45 19.49 26.5 19.46C26.47 19.44 26.41 19.41 26.37 19.4C26.32 19.38 26.22 19.37 26.22 19.37C26.24 19.4 26.24 19.46 26.23 19.49C26.22 19.53 26.11 19.89 26.11 19.91C26.11 19.92 26.09 19.97 26.06 19.98C26.03 19.99 25.95 19.97 25.95 19.97C25.95 19.97 25.95 19.97 25.94 19.97C25.87 19.95 25.78 19.94 25.72 19.92C25.72 19.92 25.62 19.89 25.65 19.8C25.65 19.8 25.72 19.56 25.75 19.44C25.75 19.44 25.75 19.44 25.75 19.43C25.75 19.43 25.77 19.37 25.77 19.3C25.77 19.23 25.73 19.21 25.69 19.21C25.65 19.21 25.62 19.27 25.61 19.31C25.61 19.35 25.58 19.41 25.58 19.41V19.43C25.54 19.52 25.52 19.6 25.48 19.7C25.45 19.79 25.35 19.77 25.35 19.77C25.28 19.75 25.2 19.74 25.14 19.73C25.14 19.73 25.06 19.7 25.08 19.62C25.11 19.53 25.13 19.47 25.17 19.38C25.17 19.36 25.21 19.28 25.23 19.24C25.25 19.21 25.28 19.19 25.28 19.19C25.28 19.17 25.25 19.14 25.2 19.12C25.2 19.12 25.19 19.12 25.18 19.12C25.16 19.12 25.15 19.12 25.13 19.12C25.08 19.12 25 19.11 24.98 19.17C24.98 19.2 24.99 19.23 24.99 19.25C24.99 19.27 24.98 19.29 24.98 19.3C24.84 19.68 24.77 19.71 24.74 19.71C24.71 19.71 24.59 19.42 24.69 19.15C24.74 19.03 24.79 18.94 24.84 18.86C24.92 18.72 24.98 18.53 24.98 18.53C25.05 18.58 25.11 18.64 25.16 18.7C25.19 18.74 25.22 18.77 25.25 18.82C25.25 18.83 25.26 18.85 25.26 18.85C25.28 18.78 25.28 18.69 25.25 18.62C25.15 18.34 24.88 18.17 24.63 18.03C24.46 17.94 24.29 17.86 24.12 17.78C23.61 17.56 23.6 17.41 23.53 17.17C23.53 17.14 23.52 17.11 23.51 17.07L23.49 17ZM24.04 20.65C24.04 20.65 24.02 20.58 24.01 20.55C23.94 20.34 23.68 19.58 23.62 19.4C23.57 19.24 23.53 19.11 23.54 18.87C23.54 18.84 23.54 18.8 23.54 18.76C23.57 18.47 23.72 17.88 23.73 17.81C23.73 17.81 23.97 17.92 24.04 17.97C24.04 18.04 23.97 18.5 23.97 18.73C23.97 18.76 23.97 18.79 23.97 18.81C23.97 18.81 24.11 18.95 24.14 19.06C24.17 19.17 24.14 19.76 24.37 20.16C24.37 20.16 24.38 20.11 24.43 20.03C24.48 19.96 24.58 19.85 24.63 19.89C24.69 19.93 24.68 20.05 24.68 20.17C24.68 20.29 24.64 20.43 24.61 20.46C24.61 20.46 24.66 20.56 24.79 20.62C24.79 20.62 24.79 20.57 24.79 20.51C24.81 20.39 24.87 20.29 24.91 20.18C24.92 20.14 24.96 20.1 25.01 20.13C25.01 20.13 25.12 20.19 25.22 20.24C25.23 20.24 25.3 20.3 25.26 20.39C25.26 20.39 25.26 20.39 25.26 20.4C25.22 20.49 25.19 20.57 25.15 20.67C25.15 20.67 25.13 20.76 25.09 20.76C25.09 20.76 25.17 20.81 25.21 20.83C25.27 20.85 25.33 20.88 25.37 20.89C25.37 20.89 25.33 20.83 25.34 20.75C25.36 20.63 25.4 20.47 25.43 20.34C25.44 20.31 25.47 20.26 25.53 20.28C25.6 20.31 25.68 20.34 25.75 20.37C25.81 20.4 25.81 20.46 25.81 20.48C25.78 20.63 25.74 20.81 25.7 20.95C25.7 20.97 25.68 21 25.67 21.01C25.67 21.01 25.74 21.06 25.78 21.07C25.82 21.08 25.91 21.1 25.91 21.1C25.91 21.1 25.89 21.04 25.91 20.98C25.94 20.89 25.98 20.79 26.01 20.69C26.01 20.67 26.04 20.61 26.06 20.58C26.06 20.56 26.1 20.51 26.16 20.52C26.25 20.55 26.33 20.57 26.42 20.59C26.48 20.61 26.45 20.71 26.45 20.71C26.45 20.71 26.36 20.94 26.29 21.09C26.29 21.09 26.27 21.14 26.24 21.17C26.24 21.17 26.3 21.2 26.35 21.21C26.45 21.23 26.5 21.23 26.53 21.23C26.53 21.23 26.5 21.16 26.53 21.07C26.53 21.07 26.53 21.07 26.53 21.06C26.56 20.99 26.59 20.92 26.62 20.86C26.62 20.84 26.64 20.82 26.64 20.8C26.64 20.77 26.7 20.72 26.77 20.74C26.83 20.75 26.89 20.76 26.95 20.77C26.95 20.77 27.06 20.79 27.02 20.9C26.96 21.02 26.91 21.15 26.84 21.27C26.91 21.27 26.98 21.27 27.05 21.28C27.05 21.28 27.05 21.28 27.07 21.2C27.1 21.12 27.18 20.96 27.19 20.94C27.19 20.92 27.23 20.82 27.27 20.82C27.31 20.82 27.47 20.94 27.43 21.18C27.86 21 28.19 20.51 28.28 20.44C28.36 20.38 28.52 20.35 28.56 20.34C28.67 20.23 28.98 19.69 29.01 19.62C29.09 19.63 29.35 19.68 29.35 19.68C29.35 19.68 29.08 20.3 28.93 20.56C28.77 20.83 28.64 20.92 28.49 21.02C28.34 21.13 27.66 21.57 27.48 21.7C27.3 21.83 26.83 22.25 26.41 22.32C26.21 22.36 26.03 22.36 25.86 22.34C25.69 22.32 25.53 22.28 25.36 22.22C25.02 22.11 24.75 21.97 24.46 21.66C24.21 21.39 24.09 20.88 24.01 20.61L24.04 20.65ZM19.25 19.81C18.89 19.29 18.56 18.74 18.3 18.16C18.04 17.59 17.83 17.01 17.7 16.4C17.58 15.83 17.52 15.24 17.55 14.65C17.57 14.3 17.61 13.94 17.72 13.62L17.74 13.57C17.93 14.35 18.48 17.27 21.37 20.41C21.94 21.03 22.57 21.61 23.21 22.13C23.02 22.16 22.83 22.2 22.66 22.25C22.2 21.85 21.13 20.79 21.13 20.79C20.27 19.92 19.63 19.09 19.14 18.31C19.04 18.14 18.96 18.01 18.9 17.91C18.87 17.85 18.84 17.8 18.8 17.74C18.83 17.8 19.81 20.16 22.32 22.36C22.14 22.42 21.97 22.49 21.81 22.57C21.78 22.58 21.53 22.33 21.5 22.3C21.25 22.08 21 21.85 20.77 21.61C20.22 21.06 19.71 20.46 19.26 19.82L19.25 19.81ZM19.4 22.83C19.51 22.83 19.62 22.84 19.72 22.85C19.94 22.87 20.19 22.9 20.4 22.93C20.27 22.97 20.09 23.06 19.98 23.24C19.95 23.29 19.92 23.35 19.9 23.41C19.87 23.52 19.84 23.6 19.82 23.67C19.32 23.53 18.53 23.49 18.53 23.49C18.51 23.46 18.48 23.41 18.48 23.36C18.48 23.33 18.49 23.28 18.52 23.24C18.56 23.15 18.65 23.04 18.78 22.96C18.89 22.88 19.06 22.83 19.2 22.81C19.27 22.81 19.34 22.81 19.4 22.81V22.83ZM20.84 23C20.77 23.1 20.57 23.96 20.49 24.18C20.49 24.18 20.4 24.41 20.36 24.48C20.28 24.64 19.94 25.06 19.05 24.78C18.24 24.52 18.02 23.69 17.99 23.55C17.71 23.37 17.72 23.04 17.72 23.04C17.59 23.41 17.81 23.58 17.86 23.61C17.86 23.61 17.81 23.65 17.8 23.66L17.79 23.68C17.79 23.68 17.71 23.66 17.64 23.56C17.61 23.52 17.58 23.46 17.56 23.38C17.56 23.35 17.55 23.32 17.54 23.3C17.52 23.43 17.4 23.51 17.28 23.49C17.15 23.47 17.07 23.35 17.09 23.23C17.11 23.1 17.23 23.02 17.35 23.04C17.45 23.05 17.52 23.13 17.54 23.22C17.54 22.99 17.71 22.86 17.71 22.86C17.75 22.88 17.8 22.89 17.84 22.9C17.89 22.9 17.94 22.91 17.99 22.91C18.15 22.91 18.32 22.88 18.49 22.86C18.69 22.83 18.88 22.81 19.08 22.81C19.11 22.81 19.17 22.81 19.17 22.81C19.01 22.81 18.76 22.88 18.6 22.97C18.51 23.02 18.41 23.11 18.36 23.21C18.36 23.21 18.34 23.25 18.33 23.26C18.31 23.3 18.3 23.34 18.3 23.36C18.3 23.41 18.33 23.46 18.35 23.49C18.35 23.49 18.13 23.49 18.13 23.5C18.24 24.18 18.77 24.58 19.19 24.66C19.6 24.74 19.82 24.63 19.97 24.35C20.07 24.39 20.18 24.4 20.3 24.3C20.12 24.3 20.04 24.2 20.03 24.12C19.99 23.91 20.12 23.6 20.17 23.36C20.22 23.12 20.4 22.97 20.55 22.91C20.7 22.85 20.85 22.72 20.91 22.51C20.98 22.31 20.93 22.18 20.92 22.14C20.92 22.1 20.93 22.07 20.96 22.06C21.01 22.05 21.03 22.11 21.03 22.11C21.12 22.48 20.9 22.88 20.83 22.98L20.84 23ZM27.91 25.84C27.91 25.84 27.91 25.87 27.89 25.91C27.71 26.45 25.7 27.45 23.84 26.82C21.98 26.2 21 24.13 21.16 23.65C21.17 23.62 21.18 23.6 21.18 23.6C21.19 23.58 21.21 23.56 21.23 23.53C21.64 23.01 23.5 22.16 25.21 22.74C26.63 23.22 27.55 24.5 27.83 25.32C27.9 25.53 27.93 25.72 27.91 25.84V25.84ZM30.17 26.6C30.24 26.65 30.38 26.78 30.44 26.85C30.49 26.9 30.55 26.96 30.6 27.01C30.64 27.05 30.8 27.2 30.86 27.24C30.9 27.27 30.94 27.3 30.99 27.32C31.03 27.34 31.07 27.35 31.12 27.37C31.12 27.37 31.12 27.43 31.12 27.44C31.12 27.51 31.12 27.62 31.05 27.73C31.12 27.68 31.21 27.67 31.3 27.71C31.41 27.77 31.45 27.91 31.39 28.02C31.33 28.13 31.19 28.17 31.08 28.11C30.97 28.05 30.93 27.92 30.98 27.81C30.96 27.83 30.95 27.85 30.92 27.86C30.79 27.96 30.69 27.98 30.62 27.97C30.57 27.97 30.55 27.95 30.55 27.95C30.55 27.95 30.55 27.92 30.54 27.87C30.54 27.87 30.54 27.86 30.54 27.85C30.56 27.85 30.58 27.85 30.62 27.85C30.73 27.83 30.91 27.76 31 27.48C31 27.48 30.98 27.51 30.94 27.54C30.86 27.62 30.7 27.74 30.47 27.72C30.36 27.81 29.69 28.35 28.89 28.06C28.01 27.75 28.01 27.21 28.03 27.03C28.04 26.92 28.11 26.72 28.11 26.72C28.18 26.5 28.54 25.7 28.54 25.57C28.54 25.45 28.61 24.99 28.9 24.75C28.9 24.75 28.95 24.71 28.98 24.75C29 24.77 29 24.8 28.97 24.83C28.94 24.86 28.82 24.94 28.75 25.14C28.68 25.34 28.72 25.53 28.8 25.68C28.87 25.81 28.9 25.97 28.88 26.12C28.88 26.17 28.86 26.22 28.83 26.27C28.77 26.39 28.73 26.51 28.68 26.63C28.62 26.76 28.56 26.89 28.48 26.96C28.39 27.04 28.25 27.02 28.17 26.95C28.17 26.95 28.17 26.95 28.16 26.95C28.2 27.11 28.29 27.17 28.4 27.19C28.35 27.5 28.46 27.73 28.84 27.91C29.22 28.1 29.89 28.1 30.39 27.62C30.34 27.56 30.28 27.52 30.22 27.48C30.26 27.47 30.31 27.45 30.34 27.41C30.36 27.39 30.37 27.35 30.38 27.31C30.38 27.29 30.38 27.26 30.39 27.23C30.39 27.13 30.37 27.01 30.34 26.92C30.28 26.76 30.02 26.49 29.99 26.45C30.02 26.47 30.16 26.59 30.17 26.6V26.6ZM29.19 25.94C29.34 26.02 29.48 26.11 29.63 26.2C29.73 26.27 29.83 26.33 29.93 26.4C29.94 26.4 29.96 26.42 29.97 26.43C30.07 26.54 30.17 26.68 30.21 26.8C30.26 26.95 30.27 27.08 30.25 27.18C30.25 27.23 30.23 27.27 30.21 27.3C30.18 27.34 30.13 27.36 30.09 27.37C29.81 27.18 29.4 26.93 28.95 26.73C28.98 26.66 29.01 26.58 29.05 26.47C29.07 26.4 29.09 26.29 29.09 26.29C29.11 26.07 29.02 25.89 28.94 25.78C28.95 25.78 28.97 25.79 28.98 25.8C29.05 25.84 29.12 25.88 29.19 25.92V25.94ZM36.69 19.99C36.49 20.56 36.12 21.09 35.72 21.54C35.43 21.87 35.11 22.16 34.77 22.44C34.25 22.86 33.65 23.2 33.05 23.49C32.45 23.77 31.82 24 31.18 24.18C30.18 24.46 29.12 24.6 28.07 24.66C27.99 24.5 27.89 24.35 27.79 24.19C31.16 23.95 33.37 22.63 33.37 22.63H33.39C33.27 22.67 33.15 22.72 33.02 22.77C32.48 22.97 31.34 23.36 29.83 23.63C29.22 23.74 28.6 23.82 27.98 23.87C27.93 23.87 27.57 23.9 27.57 23.9C27.46 23.76 27.33 23.61 27.2 23.47C28.02 23.43 28.86 23.35 29.68 23.2C33.08 22.59 35.17 21.17 36.17 20.37C36.26 20.3 36.34 20.23 36.42 20.17C36.59 20.03 36.7 19.94 36.7 19.94L36.69 19.99V19.99Z" fill="#231F20"/>
<path d="M31.3601 16.1601C31.2301 16.5001 30.9601 16.8301 30.8401 17.0201C30.7001 16.8701 30.5201 16.6501 30.3801 16.4001C30.4601 16.2901 30.6001 16.1301 30.7701 15.9001C30.8901 15.7401 31.1001 15.2901 31.1001 14.7501C31.1001 14.1301 30.8301 13.3901 29.8201 12.7801C29.8201 12.7801 29.8201 12.7801 29.8101 12.7801C29.8001 12.7801 29.7801 12.7601 29.7701 12.7601C29.6401 12.6801 29.5101 12.6101 29.3901 12.5601L29.4901 12.6001C32.0701 13.8401 31.5001 15.8001 31.3501 16.1701L31.3601 16.1601Z" fill="#C7C8CA"/>
<path d="M30.7698 15.9C30.8898 15.74 31.0998 15.29 31.0998 14.75C31.0998 14.13 30.8298 13.39 29.8198 12.78C29.8198 12.78 29.8198 12.78 29.8098 12.78C29.7998 12.78 29.7798 12.76 29.7698 12.76C29.6398 12.68 29.5098 12.61 29.3898 12.56C29.3298 12.53 29.2798 12.51 29.2298 12.49C29.1798 12.47 29.1298 12.45 29.0798 12.43C29.0398 12.42 29.0098 12.4 28.9798 12.39C28.9598 12.39 28.9298 12.37 28.9098 12.36C28.8298 12.33 28.7698 12.31 28.7198 12.3C28.7198 12.3 28.6998 12.3 28.6898 12.3C28.5898 12.27 28.2298 12.16 27.7798 12.07C25.3198 11.65 24.8398 13.5 24.8398 13.95C24.8398 14.28 24.8598 14.5 24.8398 14.63C25.0298 14.55 25.2198 14.45 25.3598 14.31C25.3298 14.35 24.7898 14.96 24.2098 15.03C24.2098 15.03 24.0798 15.58 23.9298 15.86C23.7798 16.14 23.4798 16.33 23.4798 16.33C23.4498 16.73 23.6698 17.3 23.8998 17.42C24.1398 17.54 24.7698 17.75 25.0198 18.03C25.2698 18.31 25.2698 18.61 25.2198 18.82C25.1998 18.91 25.1598 19.01 25.1298 19.09C25.1298 19.09 25.1398 19.09 25.1498 19.09C25.1998 19.11 25.2298 19.14 25.2298 19.16C25.2298 19.16 25.1998 19.18 25.1798 19.21C25.1598 19.24 25.1298 19.32 25.1198 19.35C25.0898 19.44 25.0598 19.5 25.0298 19.59C24.9998 19.67 25.0898 19.7 25.0898 19.7C25.1598 19.71 25.2298 19.73 25.2998 19.74C25.2998 19.74 25.3998 19.76 25.4298 19.67C25.4598 19.58 25.4898 19.5 25.5298 19.4C25.5298 19.4 25.5298 19.39 25.5298 19.38C25.5298 19.38 25.5498 19.32 25.5598 19.28C25.5598 19.24 25.6098 19.18 25.6398 19.18C25.6798 19.18 25.7298 19.2 25.7198 19.27C25.7198 19.34 25.6998 19.39 25.6998 19.4C25.6998 19.4 25.6998 19.4 25.6998 19.41C25.6698 19.53 25.5998 19.77 25.5998 19.77C25.5698 19.86 25.6698 19.89 25.6698 19.89C25.7298 19.91 25.8298 19.92 25.8898 19.94C25.8898 19.94 25.8898 19.94 25.8998 19.94C25.8998 19.94 25.9798 19.97 26.0098 19.95C26.0398 19.94 26.0598 19.9 26.0598 19.88C26.0598 19.87 26.1698 19.5 26.1798 19.46C26.1798 19.43 26.1798 19.37 26.1698 19.34C26.1698 19.34 26.2698 19.36 26.3198 19.37C26.3598 19.39 26.4198 19.41 26.4498 19.43C26.4098 19.45 26.3798 19.53 26.3698 19.54C26.3698 19.56 26.3498 19.59 26.3498 19.61C26.3198 19.71 26.2698 19.84 26.2398 19.94C26.2398 19.97 26.2298 20.03 26.3098 20.06C26.3098 20.06 26.3098 20.06 26.3198 20.06C26.3798 20.08 26.4698 20.11 26.5298 20.14C26.5298 20.14 26.5498 20.14 26.5798 20.14C26.6098 20.14 26.6498 20.13 26.6598 20.08C26.6798 20.03 26.7098 19.93 26.7398 19.83C26.7698 19.73 26.7998 19.65 26.7998 19.64C26.7998 19.62 26.8198 19.59 26.8398 19.58C26.8798 19.58 26.8998 19.58 26.9298 19.59C26.9598 19.6 26.9898 19.64 26.9998 19.65C26.9798 19.68 26.9498 19.77 26.9398 19.81C26.9398 19.85 26.8898 20.02 26.8698 20.09C26.8698 20.09 26.8698 20.1 26.8698 20.11C26.8598 20.19 26.9398 20.23 26.9398 20.23C27.0098 20.26 27.0798 20.29 27.1398 20.33C27.1398 20.33 27.2198 20.36 27.2498 20.27C27.2798 20.18 27.2998 20.11 27.3198 20.02C27.3198 20 27.3298 19.97 27.3398 19.95C27.3398 19.95 27.3398 19.95 27.3398 19.93C27.3398 19.93 27.3498 19.88 27.3598 19.85C27.3598 19.84 27.3598 19.82 27.3598 19.81C27.3598 19.81 27.4098 19.83 27.4598 19.85C27.4798 19.67 27.5598 19.53 27.5598 19.53C27.5798 19.49 27.5998 19.45 27.6298 19.42C27.7298 19.25 27.9098 19.08 28.2098 19.02C28.5798 18.94 29.2098 19.16 29.4698 19.21C29.6998 19.25 30.1298 19 30.3798 18.71C30.4198 18.64 30.4598 18.59 30.4598 18.59C30.4598 18.59 30.3398 18.26 30.3798 17.94C30.4298 17.62 30.6598 17.1 30.6598 17.1C30.2298 16.69 30.1798 15.84 30.1798 15.84C30.2098 16.01 30.2798 16.19 30.3698 16.35C30.4498 16.24 30.5898 16.08 30.7598 15.85L30.7698 15.9ZM26.9398 15.66C27.2898 15.97 27.4398 16 27.4698 16.01C27.4998 16.02 27.6398 16.09 28.1098 16.05C28.6498 16.02 29.5998 15.93 29.8798 16.27C29.8798 16.27 29.1998 16.2 28.7498 16.27C28.2998 16.37 27.6498 16.43 27.3698 16.33C27.0798 16.24 26.6098 15.8 26.2998 15.45C25.9798 15.12 25.3998 14.77 25.3998 14.76C25.8298 14.65 26.5298 15.3 26.9398 15.65V15.66ZM27.3398 18.61L27.2898 18.75C27.2298 18.93 27.0098 19.02 26.7998 18.95C26.7998 18.95 26.9398 18.91 26.9898 18.78C26.9498 18.78 26.9098 18.78 26.8598 18.78C26.7298 18.74 26.6498 18.6 26.6898 18.48C26.6898 18.46 26.6898 18.44 26.6598 18.43C26.6398 18.43 26.6198 18.43 26.6098 18.45C26.5698 18.57 26.4298 18.64 26.2898 18.59C26.2498 18.58 26.2098 18.55 26.1798 18.52C26.1298 18.66 26.2298 18.77 26.2298 18.77C26.0198 18.7 25.8998 18.49 25.9598 18.31L26.0098 18.17C26.0398 18.07 26.1198 18.01 26.1798 17.97C26.2398 17.93 26.2898 17.9 26.3498 17.83C26.4298 17.74 26.4898 17.67 26.5298 17.56C26.5898 17.39 26.7898 17.29 26.9998 17.35H27.0198C27.0198 17.35 27.0398 17.35 27.0498 17.35C27.2498 17.43 27.3498 17.62 27.2898 17.8C27.2498 17.91 27.2598 18 27.2698 18.12C27.2698 18.22 27.2998 18.27 27.3198 18.34C27.3398 18.4 27.3698 18.5 27.3398 18.6V18.61ZM30.2398 17.12C30.2398 17.12 30.1298 17.85 29.9498 18.14C29.7698 18.43 29.5998 18.69 29.1598 18.67C29.1598 18.67 29.4198 18.6 29.3298 18.39C29.3298 18.38 29.3198 18.36 29.3198 18.35C29.3198 18.35 29.2498 18.37 29.2198 18.37C28.9498 18.4 28.3898 18.32 28.1198 18.13C28.1198 18.13 28.0498 18.21 28.1398 18.46C28.1198 18.46 27.7798 18.33 27.6598 18.05C27.5298 17.77 27.6598 17.01 27.1998 16.85C26.7398 16.7 26.3798 17.38 26.1098 17.53C25.8398 17.68 25.4798 17.56 25.4798 17.56C25.6998 17.41 25.6998 17.31 25.6998 17.31C25.3698 17.29 24.8698 17.02 24.6798 16.84C24.6498 16.81 24.6098 16.76 24.6098 16.76C24.6098 16.76 24.5998 16.76 24.5898 16.77C24.5898 16.77 24.5798 16.77 24.5698 16.78C24.3898 16.89 24.5298 17.09 24.5398 17.1C24.1698 16.85 24.1998 16.54 24.2298 16.2C24.2598 15.86 24.6098 15.22 24.6098 15.22C24.6298 15.22 24.9398 15.37 25.2198 15.63C25.2498 15.66 25.2698 15.68 25.2998 15.71C25.5998 16.04 25.8898 16.34 26.1598 16.43C26.2498 16.46 26.3498 16.47 26.4298 16.46C26.4498 16.46 26.4798 16.46 26.4998 16.46C26.6398 16.44 26.7598 16.4 26.7598 16.4C26.8498 16.6 27.5998 16.85 27.7998 16.75C27.8098 16.77 27.8698 16.85 27.9698 16.94C27.9698 16.94 27.9998 16.97 28.0198 16.99C28.0898 17.05 28.1698 17.1 28.2598 17.13C28.5398 17.22 28.9498 17.16 29.3798 17.08C29.4198 17.08 29.4598 17.07 29.4898 17.06C29.8798 17.02 30.2298 17.1 30.2298 17.1L30.2398 17.12Z" fill="white"/>
</svg>
