<svg width="48" height="48" viewBox="0 0 48 48" fill="none" xmlns="http://www.w3.org/2000/svg">
<path d="M35.1333 29.6647C34.7334 30.2645 31.6241 34.7136 31.4141 35.0035C31.3941 34.9935 30.8642 34.5336 30.8442 34.5136C31.6341 33.4139 33.8736 30.0646 33.9236 29.9946C34.3235 29.8946 34.7134 29.7946 35.1033 29.6747C35.1133 29.6747 35.1233 29.6747 35.1333 29.6647Z" fill="white"/>
<path d="M36.6127 29.1348C36.0528 30.0246 32.9735 34.6636 32.2436 35.7133C32.2436 35.7133 32.2336 35.7133 32.2236 35.7033C32.1137 35.6033 31.9837 35.4934 31.8237 35.3634C32.0737 35.0135 34.9131 30.7844 35.7429 29.4747C36.0328 29.3747 36.3227 29.2547 36.6027 29.1448L36.6127 29.1348Z" fill="#B1BABF"/>
<path d="M28.6145 37.413C28.5145 37.673 28.4145 38.113 28.4545 38.433C28.4545 38.503 28.4745 38.563 28.4945 38.633C28.2545 39.753 27.7845 39.773 27.6545 39.753C27.6345 39.753 27.6245 39.753 27.6245 39.753C28.0845 39.343 28.0745 38.593 28.5445 37.563C28.5645 37.513 28.5945 37.463 28.6145 37.423V37.413Z" fill="white"/>
<path d="M31.3643 38.2028C31.3743 38.4128 31.1343 38.7228 30.9143 38.8028C30.7543 38.8628 30.5443 38.9028 30.3443 38.9028C30.2843 38.9028 30.2143 38.9028 30.1543 38.9028C30.2143 38.8028 30.2843 38.6928 30.3543 38.5628C30.5243 38.2828 30.7443 37.9528 30.9243 37.7028C31.0543 37.7628 31.2343 37.8928 31.3243 38.0728C31.3443 38.1228 31.3543 38.1628 31.3543 38.2128L31.3643 38.2028Z" fill="#B1BABF"/>
<path d="M30.094 36.7132C29.934 36.5632 29.834 36.4132 29.774 36.2632C29.774 36.2632 29.174 37.0432 28.644 38.2232C28.654 38.2832 28.674 38.3332 28.704 38.3832C28.864 38.7332 29.014 38.8332 29.304 38.8132C29.304 38.8132 29.984 37.6532 30.464 37.0332C30.364 36.9532 30.244 36.8432 30.104 36.7132H30.094Z" fill="#B1BABF"/>
<path d="M29.7747 36.2633C29.6647 35.9433 29.6847 35.6133 29.6947 35.5533C29.6947 35.5633 29.6747 35.5833 29.6647 35.5933C29.4847 35.8733 29.3047 36.1633 29.1347 36.4533C28.9747 36.7333 28.6447 37.3533 28.6347 37.3833C28.6347 37.3933 28.5547 37.8633 28.6347 38.2233C28.6347 38.2233 28.6347 38.2033 28.6347 38.2233C29.1647 37.0533 29.7647 36.2633 29.7647 36.2633H29.7747Z" fill="white"/>
<path d="M32.7634 37.6029C32.6234 36.973 31.8136 36.3531 31.6336 36.2232C31.2337 35.8732 30.2139 35.0734 30.1139 34.9035C30.014 34.7135 29.5341 34.0736 28.8842 33.9437C28.8842 33.9437 28.7742 33.9237 28.7642 34.0136C28.7642 34.0636 28.7742 34.1136 28.8542 34.1336C28.9342 34.1536 29.1741 34.1736 29.4341 34.4336C29.704 34.6835 29.794 35.0134 29.794 35.2934C29.794 35.5733 29.884 35.9732 30.2239 36.2232C30.5638 36.4831 30.9637 36.913 31.3237 37.003C31.3437 37.003 31.3637 37.003 31.3837 37.013C31.6136 37.033 31.8436 36.823 31.8036 36.7031C31.8835 36.963 31.8036 37.143 31.6936 37.2829C32.0835 37.6728 32.2735 38.1127 32.1535 38.5027C31.9935 39.0126 31.4236 39.7024 30.3839 39.6824C29.644 39.6824 29.2041 39.4625 29.0142 39.3525C29.0142 39.3525 29.0742 39.2125 29.0842 39.2025C28.6543 39.3025 28.4943 38.6626 28.4843 38.6326C28.2443 39.7524 27.7744 39.7624 27.6445 39.7524C27.6245 39.7524 27.6145 39.7524 27.6145 39.7524C27.6145 39.7524 27.7045 40.1223 28.0744 40.2923C27.9044 40.2423 27.7245 40.3023 27.6245 40.4522C27.5045 40.6422 27.5545 40.8821 27.7345 41.0121C27.9244 41.1321 28.1644 41.0821 28.2943 40.9021C28.4143 40.7122 28.3643 40.4722 28.1844 40.3423C28.1844 40.3423 28.1644 40.3423 28.1544 40.3323C28.2043 40.3523 28.2543 40.3623 28.3143 40.3723C28.7942 40.4522 28.9542 40.2223 28.9542 40.2223C28.9542 40.2223 28.9242 40.1523 28.8942 40.0623C28.8942 40.0623 28.4143 40.4022 27.8844 39.8624C27.9044 39.8624 28.0744 39.9324 28.3743 39.8824C28.8242 39.8124 28.8842 39.6724 28.9142 39.6524C28.9142 39.6524 28.9142 39.6524 28.9142 39.6424C29.3041 39.8524 29.734 39.9523 30.3439 39.9623C31.0237 39.9723 31.6836 39.7624 32.0735 39.4225C32.4534 39.0825 32.9133 38.3727 32.7434 37.6229L32.7634 37.6029Z" fill="#B1BABF"/>
<path d="M43.3212 5C43.3212 5 43.4211 6.78961 43.0812 8.42925C42.7513 10.0089 42.5713 10.6188 42.5713 10.6188C41.8815 11.0287 40.7617 11.5186 39.1221 11.7985C36.0728 12.3084 33.2934 11.4886 30.274 10.2988C27.2447 9.1091 23.1956 7.82938 19.4464 8.25929C15.8072 8.67919 13.1978 10.1489 11.8081 11.1187C10.4184 12.0784 10.1684 12.3384 8.97869 12.6783C8.97869 12.6783 9.90849 13.0482 10.3884 13.0482C10.3884 13.0482 10.1584 13.978 10.2484 14.298C10.2484 14.298 12.228 13.3882 12.4579 13.8181C12.6879 14.238 11.7481 14.5279 11.0982 14.6979C10.4484 14.8678 8.74874 14.8378 8.74874 14.8378C8.74874 14.8378 9.54857 15.4577 9.8285 15.8776C9.8285 15.8776 8.32883 16.5275 6.6592 16.3075C6.6592 16.3075 6.59921 16.9274 7.97891 17.9372C7.68897 18.0371 7.31905 18.2071 7.0891 18.4571C7.0891 18.4571 8.52879 18.1571 9.42859 19.1669C9.66854 19.4668 9.74852 19.7368 9.71853 20.0667C9.66854 20.6766 9.43859 20.9065 8.85872 21.2964C8.52879 21.4264 8.17887 21.5964 7.83894 21.8063C6.24929 22.7861 5.08954 24.2658 4.26972 25.9654C3.9198 26.7052 3.62986 27.5551 3.42991 28.3349C3.22995 29.1147 3.15996 29.8046 3.10998 30.2345C3.05999 30.6644 3 32.0241 3 32.0241C3 32.0241 3.70984 31.0243 4.04977 30.5444C4.3797 30.0645 6.48924 27.4151 9.56856 26.6453C10.5483 26.3953 11.5281 26.2953 12.4679 26.2953C14.7174 26.2953 16.727 26.9052 17.9167 27.4851C19.6464 28.3249 22.4757 30.2945 26.1949 30.9043C27.0747 31.0443 28.0145 31.1243 28.9943 31.1243C29.9741 31.1243 30.9039 31.0543 31.8737 30.9243C31.3238 31.7441 30.8039 32.504 30.304 33.2138C29.7941 32.7339 29.1143 32.6839 29.1143 32.6839C28.2845 32.604 27.8646 33.1138 27.8646 33.1138C27.6946 33.2938 27.5746 33.5337 27.5246 33.8137C27.4646 34.0736 27.5346 34.3736 27.5846 34.5235C27.7446 35.0234 28.1745 35.2534 28.3444 35.3334C27.1247 36.953 26.7748 38.8226 26.7748 38.8226L26.2149 39.3125L26.4149 40.1223C26.1049 41.1221 26.5948 41.8619 27.2247 42.1719C27.8646 42.4818 28.4644 42.3018 28.4644 42.3018C28.8443 42.1919 29.1843 41.9619 29.4142 41.612C29.4542 41.562 29.4842 41.502 29.5042 41.452C29.6342 41.382 29.7441 41.302 29.8441 41.2221C30.0241 41.2421 30.474 41.2521 30.474 41.2521C31.3938 41.2521 32.2936 40.9821 32.9834 40.4022C33.5233 39.9224 34.1232 39.0925 34.1432 37.9628C34.1432 37.7528 34.1832 36.893 33.4733 36.1532C37.9223 29.6146 40.8117 25.4155 42.6613 21.1265C47.5002 9.76895 43.3312 5.03999 43.3212 5ZM35.3829 32.344C34.4331 33.7837 33.5233 35.1134 32.7835 36.1832C33.6333 36.893 33.5833 37.7728 33.5833 37.9428C33.5633 38.8926 33.0634 39.5924 32.6035 40.0023C32.0336 40.4922 31.2438 40.7322 30.424 40.7322C30.404 40.7322 29.8041 40.7122 29.6042 40.6722C29.5142 40.8022 29.3442 40.9521 29.0743 41.0721C29.0443 41.1621 29.0043 41.2421 28.9443 41.322C28.7144 41.662 28.3444 41.8519 27.9645 41.8519C27.9645 41.8519 27.5746 41.8419 27.3147 41.652C26.9747 41.422 26.7848 41.0521 26.7848 40.6722C26.7848 40.4822 26.8248 40.2923 26.9148 40.1223C26.8748 40.0323 26.7348 39.4625 26.7348 39.4625L27.0947 39.1425C27.0947 39.1425 27.2147 38.9926 27.3147 38.6426C27.4246 38.3027 27.5546 37.8028 27.8146 37.2129C28.1545 36.4731 28.6344 35.7033 28.9743 35.1634C28.9443 34.9934 28.7644 34.9134 28.6344 34.8835C28.4944 34.8435 28.3145 34.7635 28.1745 34.5935C28.0245 34.4236 27.9145 34.1736 27.9745 33.8637C28.0345 33.5537 28.2345 33.3338 28.4644 33.2238C28.7244 33.0938 29.0443 33.1538 29.0443 33.1538C29.8041 33.2238 30.364 33.9237 30.364 33.9237C31.1138 32.8739 32.8735 30.2545 32.9134 30.2045C30.614 30.6444 28.2345 30.7044 26.2649 30.3744C22.6757 29.7746 19.9163 27.865 18.1267 26.9952C16.3471 26.1254 12.9478 25.2356 9.43859 26.1254C5.92936 27.0152 3.61986 30.2445 3.61986 30.2445C4.66963 22.8661 9.23863 21.6264 9.66854 21.5064C10.3384 20.8865 11.2082 18.9769 9.13865 17.6972C8.42881 17.2573 7.83894 16.7074 7.83894 16.7074C8.26885 16.7574 9.28862 16.6275 9.8485 16.3975C10.5284 16.1276 11.1482 16.0376 11.1482 16.0376C10.6183 15.5277 9.79851 15.2777 9.79851 15.2777C10.6183 15.2278 11.8881 14.9478 12.6779 14.5879C13.4677 14.228 13.8976 13.5981 13.7676 13.3182C13.6377 13.0382 12.9278 13.1882 12.9278 13.1882C13.1878 12.8083 13.7976 12.6483 13.7976 12.6483C12.038 12.5483 10.7583 13.5081 10.7583 13.5081C10.9583 13.0882 11.5981 12.3384 11.5981 12.3384C11.3582 12.4184 10.6783 12.6283 10.6383 12.6383C13.3877 10.5088 16.4571 8.6492 20.7661 8.61921C25.0652 8.58921 29.2642 10.5188 32.0536 11.4086C34.853 12.2984 36.3327 12.7583 39.352 12.3084C40.7917 12.0984 42.0614 11.4986 42.9912 10.9487C42.9912 10.9487 43.6411 9.29906 43.6911 6.92958C43.6911 6.92958 44.4709 8.31927 44.4709 10.4888C44.4709 17.9372 40.8717 23.376 39.722 25.3555C38.6222 27.3051 37.1725 29.6346 35.4029 32.324L35.3829 32.344Z" fill="#B1BABF"/>
<path d="M43.6811 6.94946C43.6311 9.31894 42.9812 10.9686 42.9812 10.9686C42.0514 11.5285 40.7917 12.1183 39.342 12.3283C36.3227 12.7782 34.843 12.3283 32.0436 11.4285C29.2542 10.5387 25.0552 8.6091 20.7561 8.63909C16.457 8.66909 13.3777 10.5387 10.6283 12.6582C10.6683 12.6482 11.3482 12.4383 11.5881 12.3583C11.5881 12.3583 10.9483 13.1081 10.7483 13.528C10.7483 13.528 12.028 12.5682 13.7876 12.6682C13.7876 12.6682 13.1778 12.8182 12.9178 13.2081C12.9178 13.2081 13.6277 13.0581 13.7576 13.3381C13.8876 13.618 13.4477 14.2579 12.6679 14.6078C11.8781 14.9677 10.6083 15.2476 9.78851 15.2976C9.78851 15.2976 10.6083 15.5576 11.1382 16.0575C11.1382 16.0575 10.5183 16.1474 9.8385 16.4174C9.27862 16.6373 8.25884 16.7773 7.82894 16.7273C7.82894 16.7273 8.41881 17.2872 9.12865 17.7171C11.1982 18.9968 10.3184 20.9064 9.65854 21.5263C9.21863 21.6462 4.64964 22.896 3.60986 30.2644C3.60986 30.2644 5.92935 27.0351 9.42859 26.1453C12.9378 25.2555 16.3371 26.1453 18.1167 27.0151C19.8963 27.8849 22.6657 29.7945 26.2549 30.3943C28.2245 30.7243 30.6039 30.6643 32.9034 30.2244C32.8635 30.2843 31.1138 32.8938 30.354 33.9435C30.354 33.9435 29.7941 33.2437 29.0343 33.1737C29.0343 33.1737 28.7144 33.1137 28.4544 33.2437C28.2245 33.3537 28.0345 33.5736 27.9645 33.8836C27.9045 34.1935 28.0145 34.4434 28.1645 34.6134C28.3045 34.7834 28.4844 34.8633 28.6244 34.9033C28.7544 34.9333 28.9343 35.0133 28.9643 35.1833C28.6144 35.7132 28.1445 36.483 27.8046 37.2328C27.5346 37.8227 27.4046 38.3226 27.3047 38.6625C27.2047 39.0124 27.1147 39.1424 27.0847 39.1624L26.7248 39.4823C26.7248 39.4823 26.8648 40.0422 26.9048 40.1422C26.8148 40.3122 26.7748 40.4921 26.7748 40.6821C26.7748 41.072 26.9647 41.4519 27.3047 41.6719C27.5746 41.8518 27.9545 41.8718 27.9545 41.8718C28.3344 41.8718 28.7144 41.6819 28.9343 41.3419C28.9843 41.2619 29.0343 41.172 29.0643 41.092C29.3342 40.982 29.5042 40.822 29.5942 40.6921C29.7941 40.7421 30.384 40.7521 30.414 40.7521C31.2438 40.7521 32.0236 40.5121 32.5935 40.0222C33.0534 39.6123 33.5533 38.9025 33.5733 37.9627C33.5733 37.7927 33.6233 36.9029 32.7735 36.2031C33.5133 35.1333 34.4131 33.8036 35.3729 32.3639C37.1425 29.6845 38.5922 27.345 39.692 25.3954C40.8417 23.4159 44.4509 17.977 44.4409 10.5287C44.4409 8.35915 43.6611 6.96946 43.6611 6.96946L43.6811 6.94946ZM33.9232 30.0044C34.3231 29.9044 34.713 29.8045 35.103 29.6845C35.113 29.6845 35.123 29.6845 35.133 29.6745C34.733 30.2744 31.6237 34.7234 31.4138 35.0133C31.3938 35.0033 30.8639 34.5434 30.8439 34.5234C31.6337 33.4237 33.8732 30.0744 33.9232 30.0044ZM29.1343 36.453C29.3042 36.1631 29.4842 35.8731 29.6642 35.5932C29.6642 35.5832 29.6842 35.5632 29.6941 35.5532C29.6941 35.6132 29.6642 35.9331 29.7741 36.263C29.8341 36.413 29.9341 36.573 30.0941 36.7129C30.234 36.8429 30.354 36.9529 30.454 37.0329C29.9741 37.6527 29.2942 38.8125 29.2942 38.8125C29.0043 38.8325 28.8543 38.7325 28.6944 38.3826C28.6744 38.3326 28.6544 38.2726 28.6344 38.2226C28.5444 37.8627 28.6344 37.3928 28.6344 37.3828C28.6444 37.3628 28.9643 36.7329 29.1343 36.453V36.453ZM30.9439 37.6927C31.0738 37.7527 31.2538 37.8827 31.3438 38.0626C31.3638 38.1126 31.3738 38.1526 31.3738 38.2026C31.3838 38.4126 31.1438 38.7225 30.9239 38.8025C30.7639 38.8625 30.554 38.9025 30.354 38.9025C30.294 38.9025 30.224 38.9025 30.164 38.9025C30.224 38.8025 30.294 38.6925 30.364 38.5625C30.534 38.2826 30.7539 37.9527 30.9339 37.7027L30.9439 37.6927ZM32.1036 39.4024C31.7137 39.7423 31.0638 39.9522 30.374 39.9422C29.7641 39.9322 29.3342 39.8323 28.9443 39.6223C28.9443 39.6223 28.9443 39.6223 28.9443 39.6323C28.9143 39.6623 28.8543 39.8023 28.4044 39.8623C28.1045 39.9122 27.9245 39.8523 27.9145 39.8423C28.4444 40.3821 28.9243 40.0422 28.9243 40.0422C28.9443 40.1322 28.9843 40.2022 28.9843 40.2022C28.9843 40.2022 28.8243 40.4321 28.3444 40.3521C28.2845 40.3521 28.2345 40.3222 28.1845 40.3122C28.1845 40.3122 28.2045 40.3122 28.2145 40.3222C28.4044 40.4421 28.4544 40.6921 28.3244 40.882C28.2045 41.072 27.9545 41.122 27.7646 40.992C27.5746 40.872 27.5246 40.6221 27.6546 40.4321C27.7546 40.2822 27.9345 40.2222 28.1045 40.2722C27.7446 40.1022 27.6446 39.7323 27.6446 39.7323C28.1045 39.3224 28.0945 38.5725 28.5644 37.5428C28.5844 37.4928 28.6144 37.4428 28.6344 37.4028C28.5344 37.6627 28.4344 38.1026 28.4744 38.4226C28.4744 38.4926 28.4944 38.5525 28.5144 38.6225C28.5144 38.6225 28.6844 39.2924 29.1143 39.1924L29.0443 39.3424C29.2342 39.4623 29.6742 39.6723 30.414 39.6723C31.4538 39.6823 32.0236 39.0024 32.1836 38.4926C32.3036 38.0926 32.1136 37.6527 31.7237 37.2728C31.8437 37.1428 31.9137 36.9529 31.8337 36.6929C31.8737 36.8129 31.6437 37.0229 31.4138 37.0029C31.3938 37.0029 31.3738 37.0029 31.3538 36.9929C31.0039 36.8929 30.594 36.463 30.254 36.213C29.9141 35.9631 29.8141 35.5632 29.8241 35.2833C29.8241 35.0033 29.7341 34.6734 29.4642 34.4234C29.1943 34.1735 28.9543 34.1435 28.8843 34.1235C28.8043 34.1035 28.7843 34.0535 28.7943 34.0035C28.8143 33.9236 28.9143 33.9336 28.9143 33.9336C29.5642 34.0635 30.0341 34.7034 30.144 34.8933C30.244 35.0633 31.2638 35.8631 31.6637 36.213C31.8537 36.343 32.6535 36.9629 32.7935 37.5927C32.9634 38.3426 32.5035 39.0524 32.1236 39.3924L32.1036 39.4024ZM32.2536 35.7032C32.2536 35.7032 32.2436 35.7032 32.2336 35.6932C32.1236 35.5932 31.9936 35.4832 31.8337 35.3532C32.0836 35.0033 34.923 30.7742 35.7528 29.4645C36.0428 29.3646 36.3227 29.2446 36.6126 29.1346C36.0528 30.0244 32.9734 34.6634 32.2436 35.7132L32.2536 35.7032ZM37.5424 27.9749C35.5829 28.8847 31.0638 30.4043 26.5648 29.5645C24.9952 29.2746 22.9356 28.7847 20.2062 27.135C18.4166 26.0553 16.487 25.0155 11.988 25.0355C8.25884 25.0555 5.85937 26.7451 5.09954 27.375C7.11909 20.7764 13.1078 21.7362 13.1078 21.7362C12.018 21.2163 10.7083 21.4163 10.7083 21.4163C12.5779 18.4669 9.55856 17.0872 9.55856 17.0872C9.8085 17.0872 10.9583 16.7573 11.5481 16.5474C12.138 16.3474 13.2078 16.2074 13.2078 16.2074C12.8278 15.8675 11.6781 15.5876 11.6781 15.5876C12.7779 15.5876 13.7676 15.0577 14.4575 14.3378C14.6974 14.0879 15.3573 12.8382 14.6075 12.3483C13.9176 11.8984 12.5579 12.3983 12.5579 12.3983C12.5579 12.3983 16.637 8.00923 25.0452 9.87882C29.0343 10.7686 33.5333 13.1081 37.6824 13.1281C39.0821 13.1281 42.1514 12.6882 43.991 10.8386C43.891 14.3478 43.2412 19.2768 37.5524 27.9849L37.5424 27.9749Z" fill="black"/>
<path d="M37.6624 13.1282C33.5134 13.0982 29.0143 10.7688 25.0252 9.87895C16.6171 7.99936 12.548 12.3884 12.538 12.3984C12.538 12.3984 13.8977 11.8985 14.5875 12.3484C15.3373 12.8383 14.6775 14.088 14.4375 14.338C13.7477 15.0578 12.7579 15.5877 11.6581 15.5877C11.6581 15.5877 12.8179 15.8676 13.1878 16.2076C13.1878 16.2076 12.108 16.3475 11.5282 16.5475C10.9383 16.7474 9.79856 17.0874 9.53861 17.0874C9.53861 17.0874 12.558 18.4671 10.6884 21.4164C10.6884 21.4164 11.9981 21.2165 13.0878 21.7364C13.0878 21.7364 7.10915 20.7666 5.07959 27.3751C5.83942 26.7453 8.2389 25.0556 11.9681 25.0356C16.4671 25.0156 18.3967 26.0554 20.1863 27.1352C22.9157 28.7848 24.9752 29.2747 26.5449 29.5646C31.0439 30.4045 35.5629 28.8948 37.5225 27.975C43.2112 19.2669 43.8611 14.348 43.9611 10.8287C42.1215 12.6783 39.0422 13.1282 37.6525 13.1182L37.6624 13.1282ZM34.5731 23.186C32.5636 24.6057 29.4143 25.0456 29.4143 25.0456C29.3743 25.1856 29.1743 25.3256 29.1743 25.3256C29.1743 25.3256 29.4942 25.4455 30.2841 26.0454C31.0739 26.6453 30.8639 26.6153 31.1139 26.7852C31.3638 26.9552 31.5138 26.9052 31.5138 26.9052C31.5938 27.0552 31.6038 27.2851 31.6038 27.2851C31.7138 27.3851 32.2236 27.875 31.7437 28.3849C31.2639 28.8948 30.704 28.4249 30.704 28.4249C30.504 28.4649 30.3141 28.4049 30.3141 28.4049C30.3141 28.4049 29.2843 29.0548 28.2645 28.3449C27.4347 27.775 27.4847 27.0952 27.5347 26.8552C27.2547 27.0152 26.9548 27.1452 26.6449 27.2351C25.815 27.4951 24.7453 27.6051 23.6955 27.2551C23.0057 27.0252 22.4258 26.6153 21.9759 26.1654C21.526 25.7155 21.1861 25.2156 20.9661 24.7757C20.9361 24.7057 20.9061 24.6357 20.8761 24.5757C20.8061 24.7457 20.4562 25.4056 19.3765 25.3556C18.1367 25.3056 17.7068 24.1658 17.7068 24.1658C17.7068 24.1658 17.5169 24.1058 17.3869 23.9559C17.3869 23.9559 16.6571 23.9959 16.5871 23.306C16.5071 22.6062 17.2169 22.5262 17.3669 22.5162C17.3669 22.5162 17.5069 22.3362 17.6668 22.2662C17.6668 22.2662 17.7568 22.3962 18.0567 22.4062C18.3567 22.4262 18.1767 22.3162 19.1665 22.3162C20.1563 22.3162 20.4862 22.4162 20.4862 22.4162C20.4862 22.4162 20.4062 22.1763 20.4562 22.0463C20.4562 22.0463 18.2067 19.7968 17.4569 17.4473C16.707 15.0978 16.937 14.228 17.8468 11.7485C17.8468 11.7485 18.5166 15.9676 20.5762 18.617C21.7559 20.1267 23.0756 21.3064 23.9954 22.0463C24.0154 22.0463 24.0354 22.0463 24.0554 22.0463C23.8555 21.8263 23.7055 21.5664 23.6355 21.2765C23.4556 20.5466 23.1456 19.8768 23.0157 19.3369C22.8757 18.797 23.1856 17.7172 23.1856 17.7172C22.7757 17.0574 22.9757 15.9676 22.9757 15.9676C22.9757 15.9676 23.1956 15.8576 23.3656 15.6577C23.5355 15.4477 23.4756 14.8379 23.6155 13.9381C23.7555 13.0383 24.3354 12.1085 25.6351 11.5786C26.9248 11.0487 28.8644 11.7385 28.8844 11.7485C28.9044 11.7485 30.8639 12.3684 31.5838 13.5681C32.3036 14.7779 32.2036 15.8676 31.7737 16.6775C31.3438 17.4773 30.9239 17.9272 30.9339 18.1971C30.9439 18.4671 31.0639 18.687 31.0639 18.687C31.0639 18.687 30.564 19.6768 29.8342 19.9567C29.8342 19.9567 29.4343 20.9965 28.9944 21.3464C28.5644 21.6964 27.9146 22.0463 27.3247 22.5162C27.0948 22.7061 26.8248 22.8161 26.5449 22.8761C26.5649 22.8861 26.5849 22.9061 26.6049 22.9161C27.7846 22.8861 29.5442 22.7461 31.3838 22.2462C34.6231 21.3764 37.7124 18.4071 37.7124 18.4071C36.9426 20.9265 36.5927 21.7663 34.5831 23.186H34.5731Z" fill="#A30D2D"/>
<path d="M27.1753 18.6173L27.2253 18.4773C27.2753 18.3273 27.1653 18.2673 27.1553 18.0273C27.1553 17.9073 27.1353 17.7873 27.1853 17.6473C27.2253 17.5373 27.1553 17.4073 27.0453 17.3573H27.0253C27.0253 17.3573 27.0153 17.3573 27.0053 17.3573C26.8753 17.3273 26.7453 17.3873 26.7153 17.5073C26.6653 17.6473 26.5853 17.7373 26.5053 17.8273C26.3553 18.0173 26.2353 17.9973 26.1853 18.1473L26.1353 18.2873C26.1053 18.3673 26.1353 18.4573 26.1953 18.5173C26.2253 18.5473 26.2553 18.5773 26.3053 18.5873C26.4353 18.6373 26.5853 18.5673 26.6253 18.4473C26.6253 18.4273 26.6553 18.4173 26.6753 18.4273C26.6953 18.4273 26.7053 18.4573 26.7053 18.4773C26.6653 18.5973 26.7353 18.7373 26.8753 18.7773C26.9153 18.7873 26.9653 18.7873 27.0053 18.7773C27.0953 18.7673 27.1653 18.7173 27.1953 18.6273L27.1753 18.6173Z" fill="black"/>
<path d="M27.7744 17.1775C27.7744 17.3375 27.8344 17.9575 28.1044 18.1175C28.3744 18.3075 28.9344 18.3875 29.2044 18.3575C29.2444 18.3575 29.3044 18.3375 29.3044 18.3375C29.4244 18.2675 29.5244 18.2175 29.6244 18.1175C29.7544 17.9875 29.8544 17.8175 29.9244 17.6475C29.9544 17.5675 29.9844 17.4975 30.0044 17.4175C30.0044 17.4175 30.0644 17.1575 30.1744 17.1175C30.1844 17.1175 30.1944 17.1175 30.2044 17.1175C30.2044 17.1175 29.8644 17.0275 29.4644 17.0775C29.4244 17.0775 29.3944 17.0775 29.3544 17.0975C28.9144 17.1775 28.5144 17.2475 28.2344 17.1475C28.1444 17.1175 28.0644 17.0675 27.9944 17.0075C27.9744 16.9875 27.9544 16.9775 27.9444 16.9575C27.8544 16.8675 27.7944 16.7875 27.7744 16.7675C27.7744 16.7675 27.7544 17.0375 27.7544 17.1975L27.7744 17.1775Z" fill="black"/>
<path d="M24.6249 15.2478C24.6849 15.3478 24.5749 15.5878 24.5749 15.5878C24.5449 15.6578 24.5249 15.7278 24.5049 15.8078C24.4449 16.0578 24.4149 16.3678 24.5149 16.6178C24.5149 16.6178 24.5849 16.7378 24.5849 16.7478C24.5849 16.7478 24.5749 16.7578 24.5649 16.7578C24.5649 16.7578 24.5749 16.7578 24.5849 16.7478C24.5849 16.7478 24.6249 16.8078 24.6549 16.8278C24.8449 17.0178 25.3549 17.2878 25.6749 17.2978C25.9849 17.3278 26.4049 16.8678 26.5049 16.7478C26.6049 16.6178 26.7549 16.3978 26.7549 16.3978C26.7549 16.3978 26.6449 16.4378 26.4949 16.4578C26.4949 16.4578 26.4449 16.4578 26.4249 16.4578C26.3349 16.4578 26.2449 16.4578 26.1549 16.4278C25.8749 16.3378 25.5949 16.0378 25.2949 15.7078C25.2649 15.6778 25.2449 15.6578 25.2149 15.6278C24.9349 15.3678 24.6249 15.2278 24.6049 15.2178C24.6049 15.2178 24.6249 15.2378 24.6249 15.2478V15.2478Z" fill="black"/>
<path d="M25.3752 22.2362C25.5452 22.2962 25.7052 22.3361 25.8751 22.3561C26.0451 22.3761 26.2251 22.3661 26.425 22.3361C26.8349 22.2662 27.3148 21.8363 27.4948 21.7163C27.6747 21.5863 28.3446 21.1464 28.5046 21.0364C28.6545 20.9265 28.7845 20.8365 28.9445 20.5765C29.1044 20.3066 29.3644 19.6967 29.3644 19.6967C29.3644 19.6967 29.1044 19.6467 29.0244 19.6367C28.9845 19.7067 28.6845 20.2366 28.5745 20.3566C28.6445 20.3966 28.8345 20.5165 28.8645 20.6565C28.8645 20.6565 28.5446 20.9565 28.1446 21.1264C27.7447 21.3064 27.1449 21.6863 26.9049 21.8463C26.8149 21.9062 26.695 21.9562 26.535 21.9862C26.435 21.8163 26.1051 21.5963 25.6752 21.4563C25.2253 21.3064 24.8154 21.2764 24.6454 21.3664C24.5254 21.2364 24.4454 21.1164 24.4055 21.0064C24.3155 20.7365 24.0555 20.0666 23.8456 19.6867C23.6356 19.3068 23.5556 18.8769 23.5556 18.8769C23.6956 18.7669 23.9955 18.8169 23.9955 18.8169C23.9955 18.7969 23.9955 18.7669 23.9955 18.7369C23.9955 18.507 24.0655 18.0471 24.0655 17.9771C23.9955 17.9371 23.7556 17.8171 23.7556 17.8171C23.7356 17.8871 23.5956 18.487 23.5656 18.7669C23.5257 19.0769 23.5756 19.2268 23.6356 19.3968C23.6956 19.5768 23.9656 20.3366 24.0255 20.5465C24.0255 20.5765 24.0455 20.6065 24.0555 20.6465C24.1255 20.9065 24.2555 21.4263 24.5054 21.6863C24.7854 21.9962 25.0653 22.1262 25.4052 22.2462L25.3752 22.2362Z" fill="#B1BABF"/>
<path d="M26.295 15.4578C26.595 15.8078 27.075 16.2478 27.365 16.3378C27.655 16.4378 28.295 16.3778 28.745 16.2778C29.205 16.2078 29.875 16.2778 29.875 16.2778C29.595 15.9278 28.645 16.0278 28.105 16.0578C27.645 16.0978 27.505 16.0278 27.465 16.0178C27.435 16.0178 27.285 15.9778 26.935 15.6678C26.525 15.3278 25.825 14.6678 25.395 14.7778C25.395 14.7878 25.975 15.1378 26.295 15.4678V15.4578Z" fill="#B1BABF"/>
<path d="M24.5153 17.0978C24.5153 17.0978 24.3653 16.8778 24.5453 16.7778C24.5453 16.7778 24.5553 16.7778 24.5653 16.7678C24.5653 16.7678 24.5753 16.7678 24.5853 16.7578C24.5853 16.7578 24.5253 16.6378 24.5153 16.6278C24.4153 16.3778 24.4353 16.0678 24.5053 15.8178C24.5253 15.7478 24.5453 15.6678 24.5753 15.5978C24.5753 15.5978 24.6853 15.3578 24.6253 15.2578C24.6253 15.2578 24.6053 15.2378 24.6053 15.2278C24.6053 15.2278 24.2553 15.8778 24.2253 16.2078C24.1953 16.5478 24.1753 16.8578 24.5353 17.1078L24.5153 17.0978Z" fill="#B1BABF"/>
<path d="M25.6853 17.3076C25.6853 17.3076 25.6853 17.4076 25.4653 17.5576C25.4653 17.5576 25.8253 17.6776 26.0953 17.5276C26.3653 17.3776 26.7253 16.6976 27.1853 16.8476C27.6353 17.0076 27.5153 17.7676 27.6453 18.0476C27.7653 18.3176 28.1053 18.4476 28.1253 18.4576C28.0353 18.2076 28.1053 18.1276 28.1053 18.1276C27.8353 17.9676 27.7753 17.3476 27.7753 17.1876C27.7753 17.0276 27.7953 16.7576 27.7953 16.7576C27.5953 16.8576 26.8453 16.6176 26.7553 16.4076C26.7553 16.4076 26.6053 16.6376 26.5053 16.7576C26.4053 16.8876 25.9953 17.3476 25.6753 17.3076H25.6853Z" fill="#B1BABF"/>
<path d="M30.1941 17.1173C30.0841 17.1573 30.0241 17.4173 30.0241 17.4173C30.0041 17.4973 29.9741 17.5773 29.9441 17.6473C29.8741 17.8173 29.7641 17.9773 29.6441 18.1173C29.5441 18.2173 29.4441 18.2673 29.3241 18.3373C29.3241 18.3573 29.3241 18.3673 29.3341 18.3773C29.4141 18.5773 29.1641 18.6573 29.1641 18.6573C29.6041 18.6773 29.7741 18.4173 29.9541 18.1273C30.1341 17.8373 30.2441 17.1073 30.2441 17.1073C30.2441 17.1073 30.2241 17.1073 30.2141 17.1073L30.1941 17.1173Z" fill="#B1BABF"/>
<path d="M24.0858 17.6976C24.2558 17.7776 24.4358 17.8576 24.5958 17.9476C24.8458 18.0876 25.1058 18.2576 25.2158 18.5376C25.2458 18.6076 25.2458 18.6976 25.2258 18.7676C25.2258 18.7676 25.2258 18.7476 25.2158 18.7376C25.1958 18.6976 25.1558 18.6576 25.1258 18.6176C25.0658 18.5576 25.0058 18.4976 24.9358 18.4476C24.9358 18.4476 24.8858 18.6376 24.7958 18.7776C24.7458 18.8576 24.6958 18.9476 24.6458 19.0676C24.5458 19.3376 24.6658 19.6276 24.6958 19.6276C24.7258 19.6276 24.8058 19.5976 24.9358 19.2176C24.9358 19.2176 24.9458 19.1876 24.9458 19.1676C24.9458 19.1476 24.9458 19.1176 24.9358 19.0876C24.9558 19.0276 25.0358 19.0276 25.0858 19.0376C25.1058 19.0376 25.1158 19.0376 25.1358 19.0376C25.1658 18.9576 25.2058 18.8576 25.2258 18.7676C25.2858 18.5576 25.2758 18.2576 25.0258 17.9776C24.7758 17.6976 24.1458 17.4876 23.9058 17.3676C23.6658 17.2476 23.4558 16.6776 23.4858 16.2776C23.4858 16.2776 23.4658 16.4976 23.4658 16.7176C23.4658 16.8076 23.4658 16.8976 23.4758 16.9676C23.4758 17.0076 23.4858 17.0376 23.4958 17.0676C23.5658 17.3076 23.5758 17.4476 24.0858 17.6776V17.6976Z" fill="#B1BABF"/>
<path d="M27.6044 19.9468C27.6044 19.9468 27.6544 19.9668 27.6644 19.9868C27.6944 20.0268 27.6944 20.0368 27.6944 20.0368C27.6644 20.0368 27.6444 20.0368 27.6144 20.0468C27.6044 20.0468 27.5344 20.0668 27.5344 20.0868C27.4144 20.4768 27.4544 20.5468 27.4744 20.5568C27.4944 20.5768 27.7644 20.4168 27.8444 20.1368C27.8444 20.1368 27.8944 19.8968 27.8944 19.8068C27.9144 19.6568 27.9744 19.4868 27.9844 19.4668C27.7144 19.4568 27.5544 19.5568 27.5544 19.5568C27.5544 19.5568 27.4744 19.6968 27.4544 19.8768C27.4544 19.8768 27.5644 19.9268 27.5844 19.9368L27.6044 19.9468Z" fill="#B1BABF"/>
<path d="M29.4845 19.247C29.2245 19.197 28.5945 18.987 28.2245 19.057C27.9245 19.117 27.7445 19.287 27.6445 19.457C27.8445 19.227 28.2145 19.237 28.4945 19.267C28.7145 19.297 28.9245 19.337 29.1445 19.387C29.6845 19.517 29.7845 19.397 29.9745 19.257C30.1445 19.127 30.2845 18.937 30.3845 18.757C30.1345 19.047 29.7145 19.297 29.4745 19.257L29.4845 19.247Z" fill="#B1BABF"/>
<path d="M27.2647 18.1273C27.2647 18.0073 27.2447 17.9173 27.2847 17.8073C27.3447 17.6273 27.2347 17.4373 27.0347 17.3573C27.1547 17.4073 27.2147 17.5373 27.1747 17.6473C27.1247 17.7873 27.1347 17.9073 27.1447 18.0273C27.1447 18.2673 27.2547 18.3273 27.2147 18.4773L27.1647 18.6173C27.1347 18.6973 27.0647 18.7473 26.9747 18.7673C26.9247 18.9073 26.7847 18.9373 26.7847 18.9373C26.9947 19.0073 27.2147 18.9173 27.2747 18.7373L27.3247 18.5973C27.3647 18.4973 27.3247 18.3973 27.3047 18.3373C27.2847 18.2673 27.2647 18.2173 27.2547 18.1273H27.2647Z" fill="#B1BABF"/>
<path d="M26.1249 18.2674L26.1749 18.1274C26.2249 17.9774 26.3449 17.9974 26.4949 17.8074C26.5749 17.7174 26.6549 17.6274 26.7049 17.4874C26.7449 17.3774 26.8749 17.3074 26.9949 17.3374C26.7849 17.2774 26.5849 17.3674 26.5249 17.5474C26.4849 17.6574 26.4249 17.7274 26.3449 17.8174C26.2849 17.8874 26.2349 17.9174 26.1749 17.9574C26.1149 17.9874 26.0349 18.0574 26.0049 18.1574L25.9549 18.2974C25.8949 18.4774 26.0149 18.6874 26.2249 18.7574C26.2249 18.7574 26.1349 18.6474 26.1749 18.5074C26.1149 18.4474 26.0849 18.3574 26.1149 18.2774L26.1249 18.2674Z" fill="#B1BABF"/>
<path d="M23.5356 18.867C23.5356 18.867 23.6156 19.2969 23.8256 19.6768C24.0355 20.0567 24.2855 20.7266 24.3855 20.9965C24.4254 21.1065 24.4954 21.2365 24.6254 21.3564C24.7954 21.2665 25.2053 21.2965 25.6552 21.4464C26.0851 21.5864 26.425 21.8063 26.515 21.9763C26.675 21.9463 26.7949 21.8963 26.8849 21.8363C27.1249 21.6764 27.7247 21.2965 28.1246 21.1165C28.5245 20.9365 28.8445 20.6466 28.8445 20.6466C28.8145 20.5066 28.6145 20.3867 28.5545 20.3467C28.5146 20.3467 28.3546 20.3867 28.2746 20.4466C28.1846 20.5166 27.8547 21.0065 27.4248 21.1865C27.4648 20.9465 27.3048 20.8166 27.2648 20.8266C27.2248 20.8266 27.1948 20.9265 27.1848 20.9465C27.1848 20.9665 27.0949 21.1365 27.0649 21.2065C27.0349 21.2865 27.0449 21.2865 27.0449 21.2865C26.9749 21.2865 26.9049 21.2865 26.8349 21.2765C26.9049 21.1565 26.9549 21.0265 27.0149 20.9065C27.0549 20.8066 26.9449 20.7766 26.9449 20.7766C26.8849 20.7666 26.8249 20.7566 26.7649 20.7466C26.685 20.7366 26.645 20.7766 26.635 20.8066C26.635 20.8266 26.625 20.8466 26.615 20.8666C26.585 20.9365 26.555 21.0065 26.525 21.0665C26.525 21.0665 26.525 21.0665 26.525 21.0765C26.495 21.1665 26.525 21.2365 26.525 21.2365C26.505 21.2365 26.445 21.2365 26.345 21.2165C26.295 21.2165 26.2351 21.1765 26.2351 21.1765C26.265 21.1465 26.285 21.0965 26.285 21.0965C26.345 20.9465 26.445 20.7166 26.445 20.7166C26.445 20.7166 26.485 20.6166 26.415 20.5966C26.325 20.5766 26.2351 20.5466 26.1551 20.5266C26.0851 20.5166 26.0651 20.5666 26.0551 20.5866C26.0451 20.6266 26.0151 20.6766 26.0051 20.6966C25.9751 20.7966 25.9351 20.8865 25.9051 20.9865C25.8851 21.0465 25.9051 21.1065 25.9051 21.1065C25.9051 21.1065 25.8251 21.0865 25.7752 21.0765C25.7352 21.0665 25.6652 21.0165 25.6652 21.0165C25.6752 21.0065 25.6852 20.9765 25.6952 20.9565C25.7352 20.8166 25.7752 20.6366 25.8051 20.4866C25.8051 20.4666 25.8051 20.4067 25.7452 20.3767C25.6752 20.3467 25.5952 20.3167 25.5252 20.2867C25.4652 20.2667 25.4352 20.3167 25.4252 20.3467C25.3952 20.4766 25.3652 20.6366 25.3352 20.7566C25.3352 20.8366 25.3652 20.8965 25.3652 20.8965C25.3353 20.8965 25.2653 20.8566 25.2053 20.8366C25.1653 20.8166 25.0853 20.7666 25.0853 20.7666C25.1253 20.7666 25.1553 20.6766 25.1553 20.6766C25.2053 20.5766 25.2353 20.4966 25.2653 20.4067C25.2653 20.4067 25.2653 20.4067 25.2653 20.3967C25.3053 20.2967 25.2353 20.2467 25.2253 20.2367C25.1253 20.1867 25.0153 20.1367 25.0153 20.1367C24.9553 20.1067 24.9253 20.1367 24.9153 20.1867C24.8754 20.2967 24.8154 20.3967 24.7954 20.5166C24.7954 20.5866 24.7954 20.6266 24.7954 20.6266C24.6654 20.5666 24.6154 20.4666 24.6154 20.4666C24.6454 20.4266 24.6854 20.2967 24.6854 20.1767C24.6854 20.0567 24.6854 19.9368 24.6354 19.8968C24.5754 19.8568 24.4754 19.9567 24.4354 20.0367C24.3855 20.1067 24.3755 20.1567 24.3755 20.1567C24.1455 19.7568 24.1755 19.1669 24.1455 19.0669C24.1155 18.957 23.9755 18.817 23.9755 18.817C23.9755 18.817 23.6756 18.767 23.5356 18.877V18.867Z" fill="white"/>
<path d="M33.3834 22.5862H33.3634C33.3634 22.5862 31.1439 23.9159 27.7847 24.1558C27.8946 24.3158 27.9846 24.4757 28.0646 24.6257C29.1144 24.5657 30.1741 24.4257 31.1739 24.1458C31.8138 23.9658 32.4436 23.7459 33.0435 23.456C33.6534 23.166 34.2433 22.8261 34.7631 22.4062C35.1031 22.1362 35.423 21.8363 35.7129 21.5064C36.1128 21.0565 36.4828 20.5266 36.6827 19.9567L36.7027 19.9067C36.6827 19.9467 36.0429 21.4164 33.3834 22.5762V22.5862Z" fill="#B1BABF"/>
<path d="M27.2046 23.446C27.3346 23.586 27.4645 23.7259 27.5745 23.8759C27.5745 23.8759 27.9344 23.8459 27.9844 23.8459C28.6043 23.7959 29.2142 23.7159 29.834 23.606C31.3437 23.336 32.4834 22.9461 33.0233 22.7461C33.1533 22.6962 33.2733 22.6462 33.3932 22.5962C36.0627 21.4364 36.7025 19.9667 36.7125 19.9268C36.7125 19.9268 36.6025 20.0167 36.4326 20.1567C36.3626 20.2167 36.2826 20.2867 36.1826 20.3567C35.1828 21.1465 33.0933 22.5662 29.694 23.186C28.8742 23.336 28.0344 23.416 27.2146 23.456L27.2046 23.446Z" fill="white"/>
<path d="M27.7044 25.9954C27.0146 26.4253 25.4749 26.8352 23.9952 26.3353C22.5456 25.8454 21.5758 24.6057 21.2658 23.8458C21.2258 23.7659 21.2158 23.5559 21.4358 23.4559C21.4358 23.4559 21.3058 23.4759 21.1859 23.5759C21.1859 23.5759 21.1759 23.5959 21.1659 23.6259C21.0059 24.1158 21.9857 26.1753 23.8453 26.7952C25.7049 27.4151 27.7144 26.4253 27.8944 25.8854C27.9044 25.8454 27.9144 25.8154 27.9144 25.8154C27.8744 25.6854 27.7944 25.6055 27.7944 25.6055C27.8944 25.8054 27.7944 25.9454 27.7144 26.0054L27.7044 25.9954Z" fill="#A30D2D"/>
<path d="M25.2152 22.7162C23.5055 22.1463 21.6459 22.9861 21.236 23.506C21.216 23.526 21.206 23.546 21.186 23.576C21.306 23.476 21.436 23.456 21.436 23.456C21.226 23.556 21.236 23.7659 21.266 23.8459C21.5759 24.6058 22.5357 25.8455 23.9954 26.3354C25.4751 26.8353 27.0148 26.4254 27.7046 25.9955C27.7846 25.9355 27.8946 25.7955 27.7846 25.5955C27.7846 25.5955 27.8646 25.6755 27.9046 25.8055C27.9246 25.6755 27.8946 25.4956 27.8246 25.2856C27.5446 24.4658 26.6248 23.1861 25.2152 22.7062V22.7162ZM26.2949 24.6757C26.2949 24.6757 26.2949 24.7257 26.2949 24.7457C26.2349 24.7157 26.1749 24.6857 26.105 24.6558C26.085 24.7957 26.045 24.9357 26.005 25.0757C25.915 25.0257 25.815 24.9657 25.725 24.9157C25.765 24.7857 25.805 24.6558 25.825 24.5158C25.725 24.4658 25.6151 24.4258 25.5151 24.3758C25.4851 24.5058 25.4551 24.6258 25.4151 24.7557C25.3151 24.7057 25.2152 24.6657 25.1152 24.6258C25.1552 24.5058 25.1852 24.3858 25.2251 24.2558C25.1252 24.2158 25.0152 24.1759 24.9052 24.1359C24.8652 24.2558 24.8352 24.3758 24.7952 24.4958C24.6953 24.4558 24.5953 24.4258 24.4853 24.3958C24.5253 24.2758 24.5653 24.1559 24.6053 24.0459C24.4953 24.0159 24.3853 23.9759 24.2754 23.9459C24.2254 24.0659 24.1854 24.1759 24.1354 24.3058C24.0354 24.2758 23.9254 24.2558 23.8255 24.2258C23.8654 24.1059 23.9154 23.9859 23.9754 23.8659C23.8654 23.8359 23.7555 23.8159 23.6455 23.7859C23.5855 23.9059 23.5355 24.0359 23.4855 24.1559C23.3756 24.1359 23.2756 24.1259 23.1656 24.1059C23.2056 23.9659 23.2656 23.8359 23.3356 23.716C23.2656 23.706 23.1956 23.686 23.1256 23.676C23.1356 23.656 23.1556 23.636 23.1656 23.606C22.5357 23.496 21.9659 23.446 21.496 23.446C21.8759 23.356 22.5357 23.316 23.3056 23.416C23.3056 23.416 23.3156 23.396 23.3256 23.396C23.3856 23.396 23.4455 23.406 23.5055 23.416C23.5555 23.336 23.6155 23.2661 23.6755 23.1961C23.7755 23.2061 23.8754 23.2261 23.9654 23.2361C23.9154 23.306 23.8554 23.386 23.8055 23.466C23.9154 23.486 24.0154 23.506 24.1254 23.536C24.1654 23.456 24.2154 23.376 24.2654 23.296C24.3553 23.316 24.4453 23.336 24.5353 23.356C24.4953 23.436 24.4553 23.516 24.4153 23.606C24.5153 23.636 24.6153 23.666 24.7153 23.696C24.7453 23.606 24.7752 23.526 24.8152 23.446C24.9052 23.476 24.9852 23.506 25.0752 23.536C25.0552 23.626 25.0252 23.706 24.9952 23.7959C25.0952 23.8359 25.1952 23.8659 25.2951 23.9059C25.3151 23.8159 25.3351 23.726 25.3451 23.636C25.4251 23.676 25.5151 23.706 25.5951 23.746C25.5951 23.8359 25.5751 23.9259 25.5651 24.0159C25.6651 24.0659 25.765 24.1059 25.865 24.1559C25.865 24.0659 25.875 23.9759 25.875 23.8859C25.965 23.9259 26.045 23.9759 26.135 24.0259C26.135 24.1159 26.135 24.2059 26.135 24.2958C26.1849 24.3258 26.2349 24.3558 26.2949 24.3858C26.2949 24.3958 26.2949 24.4158 26.2949 24.4258C26.9448 24.8057 27.4347 25.2156 27.6846 25.5156C27.3247 25.2456 26.8448 24.9457 26.2949 24.6658V24.6757Z" fill="#DC4405"/>
<path d="M21.4961 23.456C21.9561 23.456 22.5361 23.506 23.1661 23.616C23.2161 23.546 23.2661 23.486 23.3161 23.416C22.5461 23.326 21.8861 23.366 21.5061 23.446L21.4961 23.456Z" fill="black"/>
<path d="M26.2949 24.4258C26.2949 24.5058 26.2949 24.5858 26.2949 24.6658C26.8449 24.9458 27.3249 25.2458 27.6849 25.5158C27.4349 25.2158 26.9549 24.8058 26.2949 24.4258Z" fill="black"/>
<path d="M26.2957 24.4259C26.2957 24.4259 26.2957 24.3959 26.2957 24.3859C26.2457 24.3559 26.1957 24.3259 26.1357 24.2959C26.1357 24.2059 26.1357 24.1159 26.1357 24.0259C26.0457 23.9759 25.9657 23.9259 25.8757 23.8859C25.8757 23.9759 25.8757 24.0659 25.8657 24.1559C25.7657 24.1059 25.6757 24.0659 25.5657 24.0159C25.5757 23.9259 25.5857 23.8359 25.5957 23.7459C25.5157 23.7059 25.4257 23.6659 25.3457 23.6359C25.3257 23.7259 25.3157 23.8159 25.2957 23.9059C25.1957 23.8659 25.0957 23.8259 24.9957 23.7959C25.0257 23.7059 25.0457 23.6259 25.0757 23.5359C24.9957 23.5059 24.9057 23.4759 24.8157 23.4459C24.7857 23.5259 24.7557 23.6159 24.7157 23.6959C24.6157 23.6659 24.5157 23.6359 24.4157 23.6059C24.4557 23.5259 24.4957 23.4359 24.5357 23.3559C24.4457 23.3359 24.3557 23.3159 24.2657 23.2959C24.2157 23.3759 24.1757 23.4559 24.1257 23.5359C24.0157 23.5159 23.9057 23.4859 23.8057 23.4659C23.8557 23.3859 23.9057 23.3059 23.9657 23.2359C23.8657 23.2159 23.7757 23.2059 23.6757 23.1959C23.6157 23.2659 23.5557 23.3459 23.5057 23.4159C23.4457 23.4159 23.3857 23.3959 23.3257 23.3959C23.3257 23.3959 23.3157 23.4059 23.3057 23.4159C23.2557 23.4759 23.2057 23.5459 23.1557 23.6159C23.1357 23.6359 23.1257 23.6559 23.1157 23.6859C23.1857 23.6959 23.2557 23.7059 23.3257 23.7259C23.2557 23.8559 23.2057 23.9859 23.1557 24.1159C23.2657 24.1259 23.3657 24.1459 23.4757 24.1659C23.5157 24.0359 23.5757 23.9159 23.6357 23.7959C23.7457 23.8159 23.8557 23.8459 23.9657 23.8759C23.9157 23.9959 23.8657 24.1159 23.8157 24.2359C23.9257 24.2559 24.0257 24.2859 24.1257 24.3159C24.1657 24.1959 24.2157 24.0759 24.2657 23.9559C24.3757 23.9859 24.4857 24.0159 24.5957 24.0559C24.5557 24.1759 24.5157 24.2859 24.4757 24.4059C24.5757 24.4359 24.6757 24.4759 24.7857 24.5059C24.8257 24.3859 24.8657 24.2659 24.8957 24.1459C25.0057 24.1859 25.1057 24.2259 25.2157 24.2659C25.1857 24.3859 25.1457 24.5059 25.1057 24.6359C25.2057 24.6759 25.3057 24.7159 25.4057 24.7659C25.4457 24.6359 25.4757 24.5159 25.5057 24.3859C25.6157 24.4259 25.7157 24.4759 25.8157 24.5259C25.7857 24.6559 25.7557 24.7959 25.7157 24.9259C25.8157 24.9759 25.9057 25.0259 25.9957 25.0859C26.0457 24.9459 26.0757 24.8059 26.0957 24.6659C26.1557 24.6959 26.2157 24.7259 26.2857 24.7559C26.2857 24.7359 26.2857 24.7059 26.2857 24.6859C26.2857 24.6059 26.2857 24.5259 26.2857 24.4459L26.2957 24.4259Z" fill="white"/>
<path d="M18.7965 17.7273L18.8965 17.8973C18.9565 17.9973 19.0364 18.1372 19.1364 18.2972C19.6163 19.067 20.2662 19.9068 21.126 20.7766C21.126 20.7766 22.1957 21.8364 22.6556 22.2363C22.8356 22.1863 23.0156 22.1463 23.2055 22.1164C22.5657 21.5865 21.9458 21.0166 21.3659 20.3967C18.4666 17.2574 17.9167 14.3481 17.7367 13.5582C17.7367 13.5582 17.4568 15.2778 18.7965 17.7273V17.7273Z" fill="white"/>
<path d="M21.4859 22.2763C21.4859 22.2763 21.7658 22.5563 21.7958 22.5463C21.9558 22.4763 22.1258 22.4063 22.3057 22.3363C19.7563 20.1068 18.7865 17.7073 18.7865 17.7073C17.4468 15.2779 17.7267 13.5582 17.7267 13.5582L17.7067 13.6082C17.5967 13.9381 17.5568 14.2981 17.5368 14.638C17.5068 15.2279 17.5568 15.8077 17.6867 16.3876C17.8167 16.9975 18.0266 17.5773 18.2866 18.1472C18.5465 18.7271 18.8765 19.277 19.2364 19.7969C19.6863 20.4367 20.1962 21.0366 20.7461 21.5865C20.986 21.8264 21.2259 22.0564 21.4759 22.2763H21.4859Z" fill="#B1BABF"/>
<path d="M18.8866 17.8972L18.7866 17.7272C18.8166 17.7872 18.8466 17.8372 18.8866 17.8972Z" fill="#B1BABF"/>
<path d="M18.5166 23.236C18.5166 23.236 18.4766 23.326 18.4766 23.356C18.4766 23.406 18.4966 23.446 18.5266 23.486C18.5266 23.486 19.3166 23.526 19.8166 23.666C19.8366 23.596 19.8666 23.506 19.8966 23.406C19.9166 23.336 19.9466 23.286 19.9766 23.236C19.7666 23.196 18.9566 23.186 18.5166 23.236V23.236Z" fill="#B1BABF"/>
<path d="M18.5166 23.236C18.9466 23.186 19.7666 23.196 19.9766 23.236C20.0966 23.046 20.2766 22.966 20.3966 22.916C20.1866 22.886 19.9366 22.856 19.7166 22.836C19.6066 22.836 19.5066 22.816 19.3966 22.816C19.3266 22.816 19.2566 22.816 19.1966 22.816C19.0566 22.846 18.8966 22.896 18.7766 22.966C18.6466 23.056 18.5566 23.156 18.5166 23.246V23.236Z" fill="white"/>
<path d="M18.3368 23.2562C18.3368 23.2562 18.3568 23.2162 18.3668 23.2062C18.4168 23.1162 18.5168 23.0262 18.6068 22.9662C18.7668 22.8662 19.0168 22.8162 19.1768 22.8062C19.1768 22.8062 19.1168 22.8062 19.0868 22.8062C18.8868 22.8062 18.6968 22.8262 18.4968 22.8562C18.3268 22.8762 18.1568 22.9062 17.9968 22.9062C17.9468 22.9062 17.8968 22.9062 17.8468 22.8962C17.8068 22.8962 17.7568 22.8762 17.7168 22.8562C17.7168 22.8562 17.8068 23.2562 18.3368 23.2562V23.2562Z" fill="white"/>
<path d="M20.9773 22.0562C20.9773 22.0562 20.9273 22.0862 20.9373 22.1362C20.9373 22.1762 20.9873 22.3062 20.9273 22.5062C20.8573 22.7062 20.7073 22.8362 20.5673 22.8962C20.4173 22.9562 20.2373 23.1062 20.1873 23.3462C20.1373 23.5862 20.0073 23.8962 20.0473 24.1062C20.0573 24.1862 20.1373 24.2962 20.3173 24.2862C20.1973 24.3862 20.0773 24.3762 19.9873 24.3362C19.8373 24.6162 19.6173 24.7262 19.2073 24.6462C18.7873 24.5662 18.2573 24.1662 18.1473 23.4862C18.1473 23.4762 18.3473 23.4762 18.3673 23.4762C18.3673 23.4762 18.3173 23.3962 18.3173 23.3462C18.3173 23.3162 18.3273 23.2862 18.3473 23.2462C17.8273 23.2462 17.7373 22.8562 17.7273 22.8462C17.7273 22.8462 17.5573 22.9762 17.5573 23.2062C17.5373 23.1162 17.4673 23.0362 17.3673 23.0262C17.2373 23.0062 17.1273 23.0962 17.1073 23.2162C17.0873 23.3462 17.1773 23.4562 17.2973 23.4762C17.4273 23.4962 17.5373 23.4062 17.5573 23.2862C17.5573 23.3162 17.5573 23.3362 17.5773 23.3662C17.5973 23.4462 17.6273 23.5062 17.6573 23.5462C17.7273 23.6462 17.8073 23.6662 17.8073 23.6662C17.8073 23.6662 17.8173 23.6562 17.8173 23.6462C17.8173 23.6462 17.8673 23.5862 17.8773 23.5962C17.8273 23.5662 17.5973 23.3962 17.7373 23.0162C17.7373 23.0162 17.7373 23.3562 18.0073 23.5262C18.0373 23.6662 18.2573 24.4962 19.0673 24.7562C19.9573 25.0362 20.2973 24.6162 20.3773 24.4562C20.4173 24.3862 20.5073 24.1562 20.5073 24.1562C20.5873 23.9362 20.7773 23.0762 20.8573 22.9762C20.9273 22.8762 21.1473 22.4762 21.0573 22.1062C21.0573 22.1062 21.0373 22.0462 20.9873 22.0562H20.9773Z" fill="#B1BABF"/>
<path d="M28.9341 25.7755C29.0141 25.8855 29.1041 26.0655 29.0841 26.2855C29.2741 26.3855 29.9241 26.8655 30.2441 27.1655C30.2641 27.0655 30.2641 26.9255 30.2041 26.7855C30.1541 26.6555 30.0641 26.5155 29.9641 26.4155C29.9541 26.4155 29.9441 26.3955 29.9241 26.3855C29.8241 26.3155 29.7241 26.2455 29.6241 26.1855C29.4841 26.0955 29.3341 26.0055 29.1841 25.9155C29.1141 25.8755 29.0441 25.8355 28.9741 25.7955C28.9641 25.7955 28.9441 25.7755 28.9341 25.7755Z" fill="white"/>
<path d="M30.3341 26.9053C30.3741 26.9953 30.3941 27.1153 30.3841 27.2153C30.3841 27.2453 30.3841 27.2653 30.3741 27.2953C30.3941 27.3053 30.4141 27.3253 30.4241 27.3353C30.4541 27.3553 30.4841 27.3753 30.5141 27.3853C30.5641 27.4153 30.6141 27.4253 30.6641 27.4453C30.7041 27.4453 30.7441 27.4653 30.7841 27.4653C30.8941 27.4653 31.0041 27.4253 31.0941 27.3553C31.0541 27.3453 31.0041 27.3253 30.9641 27.3053C30.9241 27.2853 30.8741 27.2553 30.8341 27.2253C30.7841 27.1853 30.6141 27.0353 30.5741 26.9953C30.5241 26.9453 30.4641 26.8853 30.4141 26.8353C30.3441 26.7753 30.2041 26.6353 30.1441 26.5853C30.1341 26.5753 29.9541 26.4353 29.9541 26.4353C29.9541 26.4353 30.2541 26.7453 30.3141 26.9153L30.3341 26.9053Z" fill="white"/>
<path d="M30.6747 27.4457C30.6247 27.4357 30.5747 27.4157 30.5247 27.3857C30.4947 27.3657 30.4647 27.3557 30.4347 27.3357C30.4147 27.3257 30.3947 27.3157 30.3847 27.2957C30.3847 27.3357 30.3647 27.3757 30.3447 27.3957C30.3147 27.4357 30.2647 27.4557 30.2247 27.4657C30.2847 27.5157 30.3447 27.5557 30.3947 27.6057C29.8947 28.0757 29.2347 28.0757 28.8447 27.8957C28.4747 27.7157 28.3547 27.4857 28.4047 27.1757C28.3047 27.1557 28.2047 27.0957 28.1647 26.9357C28.1647 26.9357 28.1647 26.9357 28.1747 26.9357C28.2647 27.0057 28.4047 27.0357 28.4847 26.9457C28.5647 26.8757 28.6247 26.7457 28.6747 26.6157C28.7247 26.4957 28.7647 26.3657 28.8247 26.2557C28.8447 26.2057 28.8647 26.1557 28.8747 26.1057C28.8947 25.9557 28.8747 25.7957 28.7947 25.6657C28.7147 25.5257 28.6747 25.3357 28.7447 25.1257C28.8147 24.9257 28.9247 24.8457 28.9647 24.8157C28.9947 24.7857 28.9947 24.7557 28.9747 24.7357C28.9447 24.6957 28.8947 24.7357 28.8947 24.7357C28.6047 24.9757 28.5347 25.4257 28.5347 25.5557C28.5347 25.6757 28.1747 26.4857 28.0947 26.7057C28.0947 26.7057 28.0347 26.9057 28.0147 27.0257C27.9947 27.2057 27.9947 27.7457 28.8747 28.0557C29.6747 28.3357 30.3547 27.8057 30.4547 27.7157C30.6847 27.7357 30.8447 27.6157 30.9247 27.5357C30.9647 27.4957 30.9847 27.4757 30.9847 27.4757C30.8947 27.7657 30.7147 27.8357 30.6047 27.8457C30.5647 27.8457 30.5447 27.8457 30.5247 27.8457C30.5247 27.8457 30.5247 27.8557 30.5247 27.8657C30.5347 27.9157 30.5347 27.9457 30.5347 27.9457C30.5347 27.9457 30.5647 27.9557 30.6047 27.9657C30.6647 27.9657 30.7747 27.9557 30.9047 27.8557C30.9247 27.8357 30.9447 27.8157 30.9647 27.8057C30.9147 27.9157 30.9547 28.0457 31.0647 28.1057C31.1747 28.1657 31.3147 28.1257 31.3747 28.0157C31.4347 27.9057 31.3947 27.7657 31.2847 27.7057C31.2047 27.6657 31.1047 27.6757 31.0347 27.7257C31.1047 27.6157 31.1047 27.5057 31.1047 27.4357C31.1047 27.4257 31.1047 27.3657 31.1047 27.3657C31.0147 27.4357 30.9047 27.4757 30.7947 27.4757C30.7547 27.4757 30.7147 27.4757 30.6747 27.4557V27.4457Z" fill="#B1BABF"/>
<path d="M29.0443 26.4754C29.0043 26.5754 28.9743 26.6654 28.9443 26.7354C29.3843 26.9354 29.8043 27.1854 30.0843 27.3754C30.1243 27.3654 30.1643 27.3454 30.2043 27.3054C30.2243 27.2754 30.2343 27.2354 30.2443 27.1854C29.9343 26.8854 29.2743 26.3954 29.0843 26.3054C29.0843 26.3054 29.0643 26.4154 29.0443 26.4854V26.4754Z" fill="#B1BABF"/>
<path d="M27.7855 12.0385C25.3255 11.6185 24.8455 13.4685 24.8455 13.9185C24.8455 14.2485 24.8655 14.4685 24.8455 14.5985C24.4855 14.7485 24.1055 14.7985 24.1055 14.7985C24.1255 14.5885 24.1255 14.1285 24.2155 13.7685C24.2955 13.4285 24.8655 11.9485 26.8555 11.9385C27.0655 11.9385 27.2855 11.9485 27.5255 11.9885C27.6155 11.9985 27.6955 12.0185 27.7755 12.0385C27.7755 12.0385 27.7755 12.0385 27.7855 12.0385V12.0385Z" fill="#B1BABF"/>
<path d="M31.3739 22.2463C29.5343 22.7462 27.7747 22.8862 26.5949 22.9162C26.5749 22.9062 26.5549 22.8862 26.5349 22.8762C26.8149 22.8162 27.0848 22.7062 27.3148 22.5163C27.9046 22.0464 28.5445 21.6964 28.9844 21.3465C29.4243 20.9966 29.8242 19.9568 29.8242 19.9568C30.554 19.6769 31.0539 18.6871 31.0539 18.6871C31.0539 18.6871 30.934 18.4672 30.924 18.1972C30.914 17.9273 31.3339 17.4774 31.7638 16.6775C32.1937 15.8777 32.2937 14.778 31.5738 13.5682C30.864 12.3685 28.8944 11.7486 28.8744 11.7486C28.8544 11.7486 26.9148 11.0488 25.6251 11.5787C24.3254 12.1085 23.7455 13.0383 23.6056 13.9381C23.4656 14.8379 23.5256 15.4478 23.3556 15.6578C23.1857 15.8677 22.9657 15.9677 22.9657 15.9677C22.9657 15.9677 22.7658 17.0575 23.1757 17.7173C23.1757 17.7173 22.8657 18.7971 23.0057 19.337C23.1457 19.8768 23.4456 20.5467 23.6256 21.2765C23.6955 21.5665 23.8455 21.8264 24.0455 22.0464C24.0255 22.0464 24.0055 22.0464 23.9855 22.0464C23.0657 21.3165 21.746 20.1268 20.5662 18.6171C18.5067 15.9677 17.8368 11.7486 17.8368 11.7486C16.927 14.2281 16.7071 15.0979 17.4469 17.4474C18.1968 19.7969 20.4463 22.0464 20.4463 22.0464C20.3963 22.1763 20.4763 22.4163 20.4763 22.4163C20.4763 22.4163 20.1463 22.3163 19.1565 22.3163C18.1668 22.3163 18.3567 22.4163 18.0468 22.4063C17.7468 22.3863 17.6569 22.2663 17.6569 22.2663C17.5069 22.3463 17.3569 22.5163 17.3569 22.5163C17.217 22.5363 16.5071 22.6162 16.5771 23.3061C16.6571 24.0059 17.3769 23.9559 17.3769 23.9559C17.5069 24.1059 17.6969 24.1659 17.6969 24.1659C17.6969 24.1659 18.1268 25.3057 19.3665 25.3556C20.4463 25.4056 20.7862 24.7458 20.8662 24.5758C20.8962 24.6458 20.9262 24.7058 20.9561 24.7758C21.1761 25.2257 21.506 25.7156 21.9659 26.1655C22.4158 26.6154 22.9957 27.0153 23.6855 27.2552C24.7453 27.6051 25.8051 27.4952 26.6349 27.2352C26.9448 27.1353 27.2448 27.0153 27.5247 26.8553C27.4747 27.0853 27.4247 27.7651 28.2545 28.345C29.2743 29.0448 30.3041 28.405 30.3041 28.405C30.3041 28.405 30.4941 28.465 30.694 28.425C30.694 28.425 31.2539 28.8949 31.7338 28.385C32.2137 27.8751 31.6938 27.3852 31.5938 27.2852C31.5938 27.2852 31.5938 27.0553 31.5038 26.9053C31.5038 26.9053 31.3639 26.9553 31.1039 26.7853C30.854 26.6154 31.0639 26.6454 30.2741 26.0455C29.4843 25.4456 29.1643 25.3256 29.1643 25.3256C29.1643 25.3256 29.3743 25.1857 29.4043 25.0457C29.4043 25.0457 32.5536 24.6158 34.5632 23.1861C36.5727 21.7664 36.9226 20.9266 37.6925 18.4072C37.6925 18.4072 34.6132 21.3665 31.3639 22.2463H31.3739ZM23.4856 16.9975C23.4856 16.9175 23.4756 16.8275 23.4756 16.7475C23.4756 16.5276 23.4956 16.3076 23.4956 16.3076C23.4956 16.3076 23.7955 16.1177 23.9455 15.8377C24.0955 15.5578 24.2254 15.0079 24.2254 15.0079C24.7953 14.9479 25.3352 14.3281 25.3752 14.2881C25.2352 14.428 25.0453 14.528 24.8553 14.608C24.4954 14.758 24.1155 14.808 24.1155 14.808C24.1355 14.598 24.1354 14.1381 24.2254 13.7782C24.3054 13.4383 24.8753 11.9586 26.8649 11.9486C27.0748 11.9486 27.2948 11.9586 27.5347 11.9986C27.6247 12.0086 27.7047 12.0286 27.7847 12.0486C27.7847 12.0486 27.7846 12.0486 27.7946 12.0486C28.2445 12.1385 28.6145 12.2485 28.7044 12.2785C28.7044 12.2785 28.7244 12.2785 28.7344 12.2785C28.7844 12.2885 28.8444 12.3185 28.9244 12.3385C28.9444 12.3385 28.9644 12.3585 28.9944 12.3685C29.0244 12.3785 29.0644 12.3985 29.0944 12.4085C29.1444 12.4285 29.1943 12.4485 29.2443 12.4685C29.2943 12.4885 29.3443 12.5185 29.4043 12.5384L29.5043 12.5784C32.0837 13.8182 31.5138 15.7777 31.3639 16.1477C31.2339 16.4876 30.964 16.8175 30.844 17.0075C30.704 16.8575 30.524 16.6376 30.3841 16.3876C30.2941 16.2276 30.2241 16.0477 30.1941 15.8777C30.1941 15.8777 30.2441 16.7275 30.674 17.1374C30.674 17.1374 30.4441 17.6573 30.3941 17.9773C30.3441 18.2972 30.4741 18.6271 30.4741 18.6271C30.4741 18.6271 30.4441 18.6771 30.3941 18.7471C30.2941 18.9271 30.1541 19.127 29.9842 19.247C29.7842 19.3969 29.6942 19.5069 29.1543 19.377C28.9444 19.327 28.7244 19.277 28.5045 19.257C28.2246 19.217 27.8546 19.217 27.6547 19.4469C27.6247 19.4769 27.6047 19.5169 27.5847 19.5569C27.5847 19.5569 27.7347 19.4469 28.0146 19.4569C28.0146 19.4569 27.9446 19.6469 27.9246 19.7969C27.9246 19.8868 27.8746 20.1268 27.8746 20.1268C27.7946 20.4067 27.5247 20.5567 27.5047 20.5467C27.4747 20.5267 27.4347 20.4567 27.5647 20.0768C27.5647 20.0568 27.6247 20.0368 27.6447 20.0368C27.6747 20.0368 27.6947 20.0368 27.7247 20.0268C27.7247 20.0268 27.7247 20.0168 27.6947 19.9768C27.6847 19.9568 27.6547 19.9468 27.6347 19.9368C27.6147 19.9268 27.5047 19.8768 27.5047 19.8768C27.4547 19.8568 27.4047 19.8369 27.4047 19.8369C27.4047 19.8369 27.4047 19.8568 27.4047 19.8768C27.4047 19.9068 27.3847 19.9468 27.3847 19.9568V19.9768C27.3847 19.9968 27.3747 20.0268 27.3647 20.0468C27.3447 20.1368 27.3148 20.2068 27.2948 20.2968C27.2648 20.3767 27.1848 20.3567 27.1848 20.3567C27.1248 20.3267 27.0548 20.2968 26.9848 20.2568C26.9848 20.2568 26.9048 20.2168 26.9148 20.1368V20.1168C26.9348 20.0368 26.9848 19.8768 26.9848 19.8369C26.9848 19.7869 27.0248 19.7069 27.0448 19.6769C27.0348 19.6669 26.9948 19.6269 26.9748 19.6169C26.9548 19.6069 26.9248 19.5969 26.8848 19.6069C26.8748 19.6169 26.8549 19.6469 26.8449 19.6669C26.8449 19.6769 26.8149 19.7669 26.7849 19.8568C26.7549 19.9568 26.7149 20.0568 26.7049 20.1068C26.6849 20.1568 26.6549 20.1668 26.6249 20.1668C26.5949 20.1668 26.5749 20.1668 26.5749 20.1668C26.5149 20.1468 26.4349 20.1168 26.365 20.0868C26.365 20.0868 26.365 20.0868 26.355 20.0868C26.275 20.0568 26.285 19.9868 26.285 19.9668C26.315 19.8668 26.365 19.7369 26.395 19.6369C26.395 19.6169 26.415 19.5869 26.415 19.5669C26.415 19.5569 26.4449 19.4869 26.4949 19.4569C26.4649 19.4369 26.405 19.4069 26.365 19.3969C26.315 19.377 26.215 19.367 26.215 19.367C26.235 19.3969 26.235 19.4569 26.225 19.4869C26.215 19.5269 26.105 19.8868 26.105 19.9068C26.105 19.9168 26.085 19.9668 26.055 19.9768C26.025 19.9868 25.9451 19.9668 25.9451 19.9668C25.9451 19.9668 25.9451 19.9668 25.9351 19.9668C25.8651 19.9468 25.7751 19.9368 25.7151 19.9168C25.7151 19.9168 25.6151 19.8868 25.6451 19.7969C25.6451 19.7969 25.7151 19.5569 25.7451 19.4369C25.7451 19.4369 25.7451 19.4369 25.7451 19.4269C25.7451 19.4269 25.7651 19.367 25.7651 19.297C25.7651 19.227 25.7251 19.207 25.6851 19.207C25.6451 19.207 25.6151 19.267 25.6051 19.307C25.6051 19.347 25.5751 19.4069 25.5751 19.4069V19.4269C25.5351 19.5169 25.5151 19.5969 25.4752 19.6969C25.4452 19.7869 25.3452 19.7669 25.3452 19.7669C25.2752 19.7469 25.1952 19.7369 25.1352 19.7269C25.1352 19.7269 25.0552 19.6969 25.0752 19.6169C25.1052 19.5269 25.1252 19.4669 25.1652 19.377C25.1652 19.357 25.2052 19.277 25.2252 19.237C25.2452 19.207 25.2752 19.187 25.2752 19.187C25.2752 19.167 25.2452 19.137 25.1952 19.117C25.1952 19.117 25.1852 19.117 25.1752 19.117C25.1552 19.117 25.1452 19.117 25.1252 19.117C25.0752 19.117 24.9953 19.107 24.9753 19.167C24.9753 19.197 24.9853 19.227 24.9853 19.247C24.9853 19.267 24.9753 19.287 24.9753 19.297C24.8353 19.6769 24.7653 19.7069 24.7353 19.7069C24.7053 19.7069 24.5854 19.4169 24.6853 19.147C24.7353 19.027 24.7853 18.937 24.8353 18.8571C24.9153 18.7171 24.9753 18.5271 24.9753 18.5271C25.0452 18.5771 25.1052 18.6371 25.1552 18.6971C25.1852 18.7371 25.2152 18.7671 25.2452 18.8171C25.2452 18.8271 25.2552 18.8471 25.2552 18.8471C25.2752 18.7771 25.2752 18.6871 25.2452 18.6171C25.1452 18.3372 24.8753 18.1672 24.6253 18.0272C24.4554 17.9373 24.2854 17.8573 24.1155 17.7773C23.6056 17.5573 23.5956 17.4074 23.5256 17.1674C23.5256 17.1374 23.5156 17.1074 23.5056 17.0675L23.4856 16.9975ZM24.0355 20.6467C24.0355 20.6467 24.0155 20.5767 24.0055 20.5467C23.9355 20.3367 23.6756 19.5769 23.6156 19.3969C23.5656 19.237 23.5256 19.107 23.5356 18.8671C23.5356 18.8371 23.5356 18.7971 23.5356 18.7571C23.5656 18.4672 23.7155 17.8773 23.7255 17.8073C23.7255 17.8073 23.9655 17.9173 24.0355 17.9673C24.0355 18.0372 23.9655 18.4971 23.9655 18.7271C23.9655 18.7571 23.9655 18.7871 23.9655 18.8071C23.9655 18.8071 24.1055 18.947 24.1354 19.057C24.1654 19.167 24.1355 19.7569 24.3654 20.1568C24.3654 20.1568 24.3754 20.1068 24.4254 20.0268C24.4754 19.9568 24.5754 19.8468 24.6253 19.8868C24.6853 19.9268 24.6753 20.0468 24.6753 20.1668C24.6753 20.2868 24.6353 20.4267 24.6053 20.4567C24.6053 20.4567 24.6553 20.5567 24.7853 20.6167C24.7853 20.6167 24.7853 20.5667 24.7853 20.5067C24.8053 20.3867 24.8653 20.2868 24.9053 20.1768C24.9153 20.1368 24.9553 20.0968 25.0053 20.1268C25.0053 20.1268 25.1152 20.1868 25.2152 20.2368C25.2252 20.2368 25.2952 20.2968 25.2552 20.3867C25.2552 20.3867 25.2552 20.3867 25.2552 20.3967C25.2152 20.4867 25.1852 20.5667 25.1452 20.6667C25.1452 20.6667 25.1252 20.7566 25.0852 20.7566C25.0852 20.7566 25.1652 20.8066 25.2052 20.8266C25.2652 20.8466 25.3252 20.8766 25.3652 20.8866C25.3652 20.8866 25.3252 20.8266 25.3352 20.7467C25.3552 20.6267 25.3952 20.4667 25.4252 20.3367C25.4352 20.3067 25.4652 20.2568 25.5251 20.2768C25.5951 20.3067 25.6751 20.3367 25.7451 20.3667C25.8051 20.3967 25.8051 20.4567 25.8051 20.4767C25.7751 20.6267 25.7351 20.8066 25.6951 20.9466C25.6951 20.9666 25.6751 20.9966 25.6651 21.0066C25.6651 21.0066 25.7351 21.0566 25.7751 21.0666C25.8151 21.0766 25.9051 21.0966 25.9051 21.0966C25.9051 21.0966 25.8851 21.0366 25.9051 20.9766C25.9351 20.8866 25.975 20.7866 26.005 20.6867C26.005 20.6667 26.035 20.6067 26.055 20.5767C26.055 20.5567 26.095 20.5067 26.155 20.5167C26.245 20.5467 26.325 20.5667 26.415 20.5867C26.4749 20.6067 26.4449 20.7067 26.4449 20.7067C26.4449 20.7067 26.355 20.9366 26.285 21.0866C26.285 21.0866 26.265 21.1366 26.235 21.1666C26.235 21.1666 26.295 21.1966 26.345 21.2065C26.4449 21.2265 26.4949 21.2265 26.5249 21.2265C26.5249 21.2265 26.4949 21.1566 26.5249 21.0666C26.5249 21.0666 26.5249 21.0666 26.5249 21.0566C26.5549 20.9866 26.5849 20.9166 26.6149 20.8566C26.6149 20.8366 26.6349 20.8166 26.6349 20.7966C26.6349 20.7666 26.6949 20.7167 26.7649 20.7367C26.8249 20.7467 26.8848 20.7566 26.9448 20.7666C26.9448 20.7666 27.0548 20.7866 27.0148 20.8966C26.9548 21.0166 26.9048 21.1466 26.8349 21.2665C26.9048 21.2665 26.9748 21.2665 27.0448 21.2765C27.0448 21.2765 27.0448 21.2765 27.0648 21.1966C27.0948 21.1166 27.1748 20.9566 27.1848 20.9366C27.1848 20.9166 27.2248 20.8166 27.2648 20.8166C27.3048 20.8166 27.4647 20.9366 27.4247 21.1766C27.8546 20.9966 28.1846 20.5067 28.2745 20.4367C28.3545 20.3767 28.5145 20.3467 28.5545 20.3367C28.6645 20.2268 28.9744 19.6869 29.0044 19.6169C29.0844 19.6269 29.3443 19.6769 29.3443 19.6769C29.3443 19.6769 29.0744 20.2968 28.9244 20.5567C28.7644 20.8266 28.6345 20.9166 28.4845 21.0166C28.3345 21.1266 27.6547 21.5665 27.4747 21.6964C27.2948 21.8264 26.8249 22.2463 26.405 22.3163C26.205 22.3563 26.025 22.3563 25.8551 22.3363C25.6851 22.3163 25.5251 22.2763 25.3552 22.2163C25.0153 22.1064 24.7453 21.9664 24.4554 21.6565C24.2054 21.3865 24.0855 20.8766 24.0055 20.6067L24.0355 20.6467ZM19.2465 19.8069C18.8866 19.287 18.5567 18.7371 18.2967 18.1572C18.0368 17.5873 17.8268 17.0075 17.6969 16.3976C17.5769 15.8277 17.5169 15.2379 17.5469 14.648C17.5669 14.2981 17.6069 13.9381 17.7169 13.6182L17.7369 13.5682C17.9268 14.3481 18.4767 17.2674 21.3661 20.4067C21.9359 21.0266 22.5658 21.6065 23.2057 22.1263C23.0157 22.1563 22.8257 22.1963 22.6558 22.2463C22.1959 21.8464 21.1261 20.7866 21.1261 20.7866C20.2663 19.9168 19.6264 19.087 19.1365 18.3072C19.0366 18.1372 18.9566 18.0073 18.8966 17.9073C18.8666 17.8473 18.8366 17.7973 18.7966 17.7373C18.8266 17.7973 19.8064 20.1568 22.3158 22.3563C22.1359 22.4163 21.9659 22.4863 21.806 22.5663C21.776 22.5763 21.526 22.3263 21.496 22.2963C21.2461 22.0764 20.9961 21.8464 20.7662 21.6065C20.2163 21.0566 19.7064 20.4567 19.2565 19.8169L19.2465 19.8069ZM19.3965 22.8262C19.5065 22.8262 19.6164 22.8362 19.7164 22.8462C19.9364 22.8662 20.1863 22.8962 20.3963 22.9262C20.2663 22.9662 20.0863 23.0561 19.9764 23.2361C19.9464 23.2861 19.9164 23.3461 19.8964 23.4061C19.8664 23.516 19.8364 23.596 19.8164 23.666C19.3165 23.526 18.5267 23.4861 18.5267 23.4861C18.5067 23.4561 18.4767 23.4061 18.4767 23.3561C18.4767 23.3261 18.4867 23.2761 18.5167 23.2361C18.5567 23.1461 18.6467 23.0361 18.7766 22.9562C18.8866 22.8762 19.0566 22.8262 19.1965 22.8062C19.2665 22.8062 19.3365 22.8062 19.3965 22.8062V22.8262ZM20.8362 22.9962C20.7662 23.0961 20.5662 23.9559 20.4862 24.1759C20.4862 24.1759 20.3963 24.4058 20.3563 24.4758C20.2763 24.6358 19.9364 25.0557 19.0466 24.7758C18.2367 24.5158 18.0168 23.686 17.9868 23.546C17.7069 23.3661 17.7169 23.0362 17.7169 23.0362C17.5869 23.4061 17.8068 23.576 17.8568 23.606C17.8568 23.606 17.8068 23.646 17.7968 23.656L17.7868 23.676C17.7868 23.676 17.7069 23.656 17.6369 23.556C17.6069 23.516 17.5769 23.4561 17.5569 23.3761C17.5569 23.3461 17.5469 23.3161 17.5369 23.2961C17.5169 23.4261 17.3969 23.506 17.277 23.4861C17.147 23.4661 17.067 23.3461 17.087 23.2261C17.107 23.0961 17.227 23.0162 17.3469 23.0362C17.4469 23.0461 17.5169 23.1261 17.5369 23.2161C17.5369 22.9862 17.7069 22.8562 17.7069 22.8562C17.7468 22.8762 17.7968 22.8862 17.8368 22.8962C17.8868 22.8962 17.9368 22.9062 17.9868 22.9062C18.1468 22.9062 18.3167 22.8762 18.4867 22.8562C18.6866 22.8262 18.8766 22.8062 19.0766 22.8062C19.1066 22.8062 19.1665 22.8062 19.1665 22.8062C19.0066 22.8062 18.7566 22.8762 18.5967 22.9662C18.5067 23.0162 18.4067 23.1061 18.3567 23.2061C18.3567 23.2061 18.3367 23.2461 18.3267 23.2561C18.3067 23.2961 18.2967 23.3361 18.2967 23.3561C18.2967 23.4061 18.3267 23.4561 18.3467 23.4861C18.3467 23.4861 18.1268 23.4861 18.1268 23.496C18.2367 24.1759 18.7666 24.5758 19.1865 24.6558C19.5964 24.7358 19.8164 24.6258 19.9664 24.3459C20.0663 24.3859 20.1763 24.3959 20.2963 24.2959C20.1163 24.2959 20.0363 24.1959 20.0264 24.1159C19.9864 23.906 20.1163 23.596 20.1663 23.3561C20.2163 23.1161 20.3963 22.9662 20.5462 22.9062C20.6962 22.8462 20.8462 22.7162 20.9062 22.5063C20.9761 22.3063 20.9262 22.1763 20.9162 22.1363C20.9162 22.0964 20.9262 22.0664 20.9561 22.0564C21.0061 22.0464 21.0261 22.1064 21.0261 22.1064C21.1161 22.4763 20.8962 22.8762 20.8262 22.9762L20.8362 22.9962ZM27.9046 25.8355C27.9046 25.8355 27.9046 25.8655 27.8846 25.9055C27.7047 26.4454 25.6951 27.4452 23.8355 26.8153C21.9759 26.1955 20.9961 24.1259 21.1561 23.646C21.1661 23.616 21.1761 23.596 21.1761 23.596C21.1861 23.576 21.2061 23.556 21.2261 23.526C21.636 23.0062 23.4956 22.1563 25.2052 22.7362C26.6249 23.2161 27.5447 24.4958 27.8246 25.3157C27.8946 25.5256 27.9246 25.7156 27.9046 25.8355V25.8355ZM30.1641 26.5954C30.2341 26.6454 30.3741 26.7753 30.4341 26.8453C30.4841 26.8953 30.544 26.9553 30.594 27.0053C30.634 27.0453 30.794 27.1952 30.854 27.2352C30.894 27.2652 30.934 27.2952 30.9839 27.3152C31.0239 27.3352 31.0639 27.3452 31.1139 27.3652C31.1139 27.3652 31.1139 27.4252 31.1139 27.4352C31.1139 27.5052 31.1139 27.6151 31.0439 27.7251C31.1139 27.6751 31.2039 27.6651 31.2939 27.7051C31.4039 27.7651 31.4438 27.9051 31.3839 28.0151C31.3239 28.125 31.1839 28.165 31.0739 28.105C30.964 28.0451 30.924 27.9151 30.974 27.8051C30.954 27.8251 30.944 27.8451 30.914 27.8551C30.784 27.9551 30.684 27.9751 30.614 27.9651C30.564 27.9651 30.544 27.9451 30.544 27.9451C30.544 27.9451 30.544 27.9151 30.534 27.8651C30.534 27.8651 30.534 27.8551 30.534 27.8451C30.554 27.8451 30.574 27.8451 30.614 27.8451C30.724 27.8251 30.904 27.7551 30.9939 27.4752C30.9939 27.4752 30.974 27.5052 30.934 27.5352C30.854 27.6151 30.694 27.7351 30.4641 27.7151C30.3541 27.8051 29.6842 28.345 28.8844 28.0551C28.0046 27.7451 28.0046 27.2052 28.0246 27.0253C28.0346 26.9153 28.1046 26.7153 28.1046 26.7153C28.1746 26.4954 28.5345 25.6956 28.5345 25.5656C28.5345 25.4456 28.6045 24.9857 28.8944 24.7458C28.8944 24.7458 28.9444 24.7058 28.9744 24.7458C28.9944 24.7658 28.9944 24.7958 28.9644 24.8258C28.9344 24.8558 28.8144 24.9357 28.7444 25.1357C28.6745 25.3356 28.7144 25.5256 28.7944 25.6756C28.8644 25.8055 28.8944 25.9655 28.8744 26.1155C28.8744 26.1655 28.8544 26.2155 28.8244 26.2654C28.7644 26.3854 28.7244 26.5054 28.6745 26.6254C28.6145 26.7553 28.5545 26.8853 28.4745 26.9553C28.3845 27.0353 28.2445 27.0153 28.1646 26.9453C28.1646 26.9453 28.1646 26.9453 28.1546 26.9453C28.1946 27.1053 28.2845 27.1652 28.3945 27.1852C28.3445 27.4952 28.4545 27.7251 28.8344 27.9051C29.2143 28.095 29.8842 28.095 30.3841 27.6151C30.3341 27.5552 30.2741 27.5152 30.2141 27.4752C30.2541 27.4652 30.3041 27.4452 30.3341 27.4052C30.3541 27.3852 30.3641 27.3452 30.3741 27.3052C30.3741 27.2852 30.3741 27.2552 30.3841 27.2252C30.3841 27.1253 30.3641 27.0053 30.3341 26.9153C30.2741 26.7553 30.0142 26.4854 29.9842 26.4454C30.0142 26.4654 30.1541 26.5854 30.1641 26.5954V26.5954ZM29.1843 25.9355C29.3343 26.0155 29.4743 26.1055 29.6242 26.1955C29.7242 26.2654 29.8242 26.3254 29.9242 26.3954C29.9342 26.3954 29.9542 26.4154 29.9642 26.4254C30.0641 26.5354 30.1641 26.6754 30.2041 26.7953C30.2541 26.9453 30.2641 27.0753 30.2441 27.1752C30.2441 27.2252 30.2241 27.2652 30.2041 27.2952C30.1741 27.3352 30.1241 27.3552 30.0841 27.3652C29.8042 27.1752 29.3943 26.9253 28.9444 26.7253C28.9744 26.6554 29.0044 26.5754 29.0444 26.4654C29.0644 26.3954 29.0844 26.2854 29.0844 26.2854C29.1044 26.0655 29.0144 25.8855 28.9344 25.7756C28.9444 25.7756 28.9644 25.7855 28.9744 25.7955C29.0444 25.8355 29.1144 25.8755 29.1843 25.9155V25.9355ZM36.6827 19.9868C36.4827 20.5567 36.1128 21.0866 35.7129 21.5365C35.423 21.8664 35.103 22.1563 34.7631 22.4363C34.2432 22.8562 33.6434 23.1961 33.0435 23.4861C32.4436 23.766 31.8138 23.9959 31.1739 24.1759C30.1741 24.4558 29.1144 24.5958 28.0646 24.6558C27.9846 24.4958 27.8846 24.3459 27.7847 24.1859C31.1539 23.946 33.3634 22.6262 33.3634 22.6262H33.3834C33.2634 22.6662 33.1435 22.7162 33.0135 22.7662C32.4736 22.9662 31.3339 23.3561 29.8242 23.626C29.2143 23.736 28.5945 23.816 27.9746 23.866C27.9246 23.866 27.5647 23.896 27.5647 23.896C27.4547 23.756 27.3248 23.606 27.1948 23.4661C28.0146 23.4261 28.8544 23.3461 29.6742 23.1961C33.0735 22.5862 35.163 21.1666 36.1628 20.3667C36.2528 20.2967 36.3328 20.2268 36.4128 20.1668C36.5827 20.0268 36.6927 19.9368 36.6927 19.9368L36.6827 19.9868V19.9868Z" fill="black"/>
<path d="M31.3543 16.1583C31.2243 16.4983 30.9543 16.8284 30.8343 17.0184C30.6943 16.8684 30.5143 16.6483 30.3743 16.3983C30.4543 16.2883 30.5943 16.1283 30.7643 15.8983C30.8843 15.7383 31.0943 15.2883 31.0943 14.7483C31.0943 14.1283 30.8243 13.3883 29.8143 12.7783C29.8143 12.7783 29.8143 12.7783 29.8043 12.7783C29.7943 12.7783 29.7743 12.7583 29.7643 12.7583C29.6343 12.6783 29.5043 12.6083 29.3843 12.5583L29.4843 12.5983C32.0643 13.8383 31.4943 15.7983 31.3443 16.1683L31.3543 16.1583Z" fill="#B1BABF"/>
<path d="M30.7638 15.8976C30.8838 15.7376 31.0937 15.2877 31.0937 14.7478C31.0937 14.1279 30.8238 13.3881 29.814 12.7782C29.814 12.7782 29.814 12.7782 29.804 12.7782C29.794 12.7782 29.774 12.7582 29.764 12.7582C29.6341 12.6783 29.5041 12.6083 29.3841 12.5583C29.3241 12.5283 29.2741 12.5083 29.2242 12.4883C29.1742 12.4683 29.1242 12.4483 29.0742 12.4283C29.0342 12.4183 29.0042 12.3983 28.9742 12.3883C28.9542 12.3883 28.9242 12.3683 28.9042 12.3583C28.8242 12.3283 28.7643 12.3083 28.7143 12.2983C28.7143 12.2983 28.6943 12.2983 28.6843 12.2983C28.5843 12.2684 28.2244 12.1584 27.7745 12.0684C25.315 11.6485 24.8351 13.4981 24.8351 13.948C24.8351 14.2779 24.8551 14.4979 24.8351 14.6278C25.0251 14.5479 25.215 14.4479 25.355 14.3079C25.325 14.3479 24.7851 14.9578 24.2052 15.0277C24.2052 15.0277 24.0753 15.5776 23.9253 15.8576C23.7753 16.1375 23.4754 16.3275 23.4754 16.3275C23.4454 16.7274 23.6654 17.2973 23.8953 17.4172C24.1353 17.5372 24.7651 17.7472 25.0151 18.0271C25.265 18.307 25.265 18.607 25.215 18.8169C25.195 18.9069 25.155 19.0069 25.125 19.0869C25.125 19.0869 25.135 19.0869 25.145 19.0869C25.195 19.1069 25.225 19.1368 25.225 19.1568C25.225 19.1568 25.195 19.1768 25.175 19.2068C25.155 19.2368 25.125 19.3168 25.1151 19.3468C25.0851 19.4368 25.0551 19.4968 25.0251 19.5867C24.9951 19.6667 25.0851 19.6967 25.0851 19.6967C25.155 19.7067 25.225 19.7267 25.295 19.7367C25.295 19.7367 25.395 19.7567 25.425 19.6667C25.455 19.5768 25.485 19.4968 25.525 19.3968C25.525 19.3968 25.525 19.3868 25.525 19.3768C25.525 19.3768 25.545 19.3168 25.555 19.2768C25.555 19.2368 25.6049 19.1768 25.6349 19.1768C25.6749 19.1768 25.7249 19.1968 25.7149 19.2668C25.7149 19.3368 25.6949 19.3868 25.6949 19.3968C25.6949 19.3968 25.6949 19.3968 25.6949 19.4068C25.6649 19.5268 25.5949 19.7667 25.5949 19.7667C25.565 19.8567 25.6649 19.8867 25.6649 19.8867C25.7249 19.9067 25.8249 19.9167 25.8849 19.9367C25.8849 19.9367 25.8849 19.9367 25.8949 19.9367C25.8949 19.9367 25.9749 19.9667 26.0049 19.9467C26.0348 19.9367 26.0548 19.8967 26.0548 19.8767C26.0548 19.8667 26.1648 19.4968 26.1748 19.4568C26.1748 19.4268 26.1748 19.3668 26.1648 19.3368C26.1648 19.3368 26.2648 19.3568 26.3148 19.3668C26.3548 19.3868 26.4148 19.4068 26.4448 19.4268C26.4048 19.4468 26.3748 19.5268 26.3648 19.5368C26.3648 19.5568 26.3448 19.5867 26.3448 19.6067C26.3148 19.7067 26.2648 19.8367 26.2348 19.9367C26.2348 19.9667 26.2248 20.0267 26.3048 20.0566C26.3048 20.0566 26.3048 20.0566 26.3148 20.0566C26.3748 20.0766 26.4648 20.1066 26.5247 20.1366C26.5247 20.1366 26.5447 20.1366 26.5747 20.1366C26.6047 20.1366 26.6447 20.1266 26.6547 20.0766C26.6747 20.0267 26.7047 19.9267 26.7347 19.8267C26.7647 19.7267 26.7947 19.6467 26.7947 19.6367C26.7947 19.6167 26.8147 19.5867 26.8347 19.5768C26.8747 19.5768 26.8947 19.5768 26.9247 19.5867C26.9546 19.5967 26.9846 19.6367 26.9946 19.6467C26.9746 19.6767 26.9447 19.7667 26.9347 19.8067C26.9347 19.8467 26.8847 20.0167 26.8647 20.0866C26.8647 20.0866 26.8647 20.0966 26.8647 20.1066C26.8547 20.1866 26.9347 20.2266 26.9347 20.2266C27.0046 20.2566 27.0746 20.2866 27.1346 20.3266C27.1346 20.3266 27.2146 20.3566 27.2446 20.2666C27.2746 20.1766 27.2946 20.1066 27.3146 20.0167C27.3146 19.9967 27.3246 19.9667 27.3346 19.9467C27.3346 19.9467 27.3346 19.9467 27.3346 19.9267C27.3346 19.9267 27.3446 19.8767 27.3546 19.8467C27.3546 19.8367 27.3546 19.8167 27.3546 19.8067C27.3546 19.8067 27.4045 19.8267 27.4545 19.8467C27.4745 19.6667 27.5545 19.5268 27.5545 19.5268C27.5745 19.4868 27.5945 19.4468 27.6245 19.4168C27.7245 19.2468 27.9044 19.0769 28.2044 19.0169C28.5743 18.9369 29.2042 19.1568 29.4641 19.2068C29.694 19.2468 30.124 18.9969 30.3739 18.7069C30.4139 18.637 30.4539 18.587 30.4539 18.587C30.4539 18.587 30.3339 18.257 30.3739 17.9371C30.4239 17.6172 30.6538 17.0973 30.6538 17.0973C30.2239 16.6874 30.1739 15.8376 30.1739 15.8376C30.2039 16.0075 30.2739 16.1875 30.3639 16.3475C30.4439 16.2375 30.5839 16.0775 30.7538 15.8476L30.7638 15.8976ZM26.9347 15.6576C27.2846 15.9675 27.4345 15.9975 27.4645 16.0075C27.4945 16.0175 27.6345 16.0875 28.1044 16.0475C28.6443 16.0175 29.5941 15.9276 29.874 16.2675C29.874 16.2675 29.1942 16.1975 28.7443 16.2675C28.2944 16.3675 27.6445 16.4274 27.3646 16.3275C27.0746 16.2375 26.6047 15.7976 26.2948 15.4477C25.9749 15.1177 25.395 14.7678 25.395 14.7578C25.8249 14.6478 26.5247 15.2977 26.9347 15.6476V15.6576ZM27.3346 18.607L27.2846 18.7469C27.2246 18.9269 27.0046 19.0169 26.7947 18.9469C26.7947 18.9469 26.9347 18.9069 26.9846 18.7769C26.9447 18.7769 26.9047 18.7769 26.8547 18.7769C26.7247 18.7369 26.6447 18.597 26.6847 18.477C26.6847 18.457 26.6847 18.437 26.6547 18.427C26.6347 18.427 26.6147 18.427 26.6047 18.447C26.5647 18.567 26.4248 18.637 26.2848 18.587C26.2448 18.577 26.2048 18.547 26.1748 18.517C26.1248 18.657 26.2248 18.7669 26.2248 18.7669C26.0149 18.6969 25.8949 18.487 25.9549 18.307L26.0049 18.1671C26.0348 18.0671 26.1148 18.0071 26.1748 17.9671C26.2348 17.9271 26.2848 17.8971 26.3448 17.8271C26.4248 17.7372 26.4848 17.6672 26.5247 17.5572C26.5847 17.3872 26.7847 17.2873 26.9946 17.3472H27.0146C27.0146 17.3472 27.0346 17.3472 27.0446 17.3472C27.2446 17.4272 27.3446 17.6172 27.2846 17.7971C27.2446 17.9071 27.2546 17.9971 27.2646 18.1171C27.2646 18.217 27.2946 18.267 27.3146 18.337C27.3346 18.397 27.3646 18.497 27.3346 18.597V18.607ZM30.2339 17.1173C30.2339 17.1173 30.124 17.8471 29.944 18.1371C29.764 18.427 29.5941 18.6869 29.1542 18.667C29.1542 18.667 29.4141 18.597 29.3241 18.387C29.3241 18.377 29.3141 18.357 29.3141 18.347C29.3141 18.347 29.2441 18.367 29.2142 18.367C28.9442 18.397 28.3843 18.317 28.1144 18.1271C28.1144 18.1271 28.0444 18.2071 28.1344 18.457C28.1144 18.457 27.7745 18.327 27.6545 18.0471C27.5245 17.7671 27.6545 17.0073 27.1946 16.8473C26.7347 16.6974 26.3748 17.3772 26.1048 17.5272C25.8349 17.6772 25.475 17.5572 25.475 17.5572C25.6949 17.4072 25.6949 17.3072 25.6949 17.3072C25.365 17.2873 24.8651 17.0173 24.6751 16.8374C24.6452 16.8074 24.6052 16.7574 24.6052 16.7574C24.6052 16.7574 24.5952 16.7574 24.5852 16.7674C24.5852 16.7674 24.5752 16.7674 24.5652 16.7774C24.3852 16.8873 24.5252 17.0873 24.5352 17.0973C24.1653 16.8473 24.1953 16.5374 24.2252 16.1975C24.2552 15.8576 24.6052 15.2177 24.6052 15.2177C24.6252 15.2177 24.9351 15.3677 25.215 15.6276C25.245 15.6576 25.265 15.6776 25.295 15.7076C25.5949 16.0375 25.8849 16.3375 26.1548 16.4274C26.2448 16.4574 26.3448 16.4674 26.4248 16.4574C26.4448 16.4574 26.4748 16.4574 26.4947 16.4574C26.6347 16.4374 26.7547 16.3974 26.7547 16.3974C26.8447 16.5974 27.5945 16.8473 27.7945 16.7474C27.8045 16.7674 27.8644 16.8473 27.9644 16.9373C27.9644 16.9373 27.9944 16.9673 28.0144 16.9873C28.0844 17.0473 28.1644 17.0973 28.2544 17.1273C28.5343 17.2173 28.9442 17.1573 29.3741 17.0773C29.4141 17.0773 29.4541 17.0673 29.4841 17.0573C29.874 17.0173 30.2239 17.0973 30.2239 17.0973L30.2339 17.1173Z" fill="white"/>
</svg>
