<svg width="48" height="48" viewBox="0 0 48 48" fill="none" xmlns="http://www.w3.org/2000/svg">
<path d="M45.95 26.073C45.77 24.993 45.06 23.393 42.66 21.963C42.5 21.863 42.33 21.773 42.15 21.683C42.6 21.533 43.06 21.373 43.06 21.373L40.4 20.333C40.17 20.243 39.93 20.163 39.69 20.083C39.87 19.903 40.05 19.713 40.05 19.713L38.01 19.423C37.13 19.303 36.44 19.273 35.9 19.283C35.9 19.193 35.89 19.123 35.88 19.043L35.54 16.493C35.54 16.493 34.75 17.573 34.67 17.673C34.5 17.393 34.31 17.133 34.09 16.883L31.89 14.403C31.89 14.403 31.98 15.133 32.05 15.713C31.34 15.213 30.55 14.773 29.69 14.403C26.18 12.903 21.71 12.583 17.45 13.553C13.88 14.363 8.74 16.473 4.47 21.913L2 25.063L5.71 23.583C5.71 23.583 8.6 22.453 10.92 22.133C11.78 22.013 12.44 22.003 11.91 23.183C11.49 24.113 10.53 25.473 10.52 25.483L8.66 28.183L11.76 27.103C13.25 26.583 14.59 26.333 15.27 26.303C15.51 26.303 15.56 26.463 15.48 26.643C15.46 26.703 15.44 26.733 15.28 26.993L13.34 29.773L16.53 28.633C18.84 27.803 21.89 27.253 22.98 27.673C23.07 27.703 23.36 27.863 23.07 28.273L21.82 30.263C21.82 30.263 23.67 29.983 23.93 29.943C24.08 31.763 24.99 32.753 25.1 32.873L26.44 34.253L26.91 32.383C27.25 31.043 27.89 30.313 28.46 29.913L28.57 30.683L29.81 30.233C30.86 29.853 31.69 29.403 32.28 28.883C33.07 28.823 35 28.703 36.85 28.883C40.04 29.203 42.18 28.773 42.76 28.633C43.54 28.453 44.19 28.783 44.2 28.783L45.15 29.303L45.66 28.343C45.72 28.223 46.01 27.623 46.01 26.733C46.01 26.513 45.99 26.293 45.96 26.073H45.95Z" fill="white"/>
<path d="M45.5001 26.2531C45.3401 25.2931 44.6901 23.8731 42.4901 22.5531C41.9001 22.2031 41.2601 21.9031 40.6101 21.6431L41.3901 21.3831L40.3201 20.9631C39.7901 20.7531 39.2301 20.5831 38.6601 20.4431C38.7701 20.3331 38.8901 20.2131 38.8901 20.2131L38.0701 20.0931C36.8001 19.9131 35.9301 19.9331 35.4201 19.9831C35.4201 19.8731 35.4201 19.7531 35.4201 19.6331C35.4201 19.4631 35.4201 19.3031 35.4001 19.1731L35.2601 18.1431C35.2601 18.1431 34.7601 18.8231 34.6901 18.9231C34.5201 18.4631 34.2501 17.8931 33.7601 17.3331L32.8701 16.3331L32.9701 17.1731C32.1701 16.4331 31.0701 15.6531 29.5501 15.0031C26.1201 13.5331 21.7601 13.2231 17.6001 14.1731C14.1201 14.9631 9.0801 17.0231 4.9001 22.3531L3.8501 23.6931L5.4401 23.0631C5.4401 23.0631 8.4201 21.8831 10.8201 21.5631C11.7601 21.4331 12.4101 21.5531 12.6501 21.8731C12.8701 22.1831 12.8001 22.7931 12.4601 23.5031C11.9901 24.4831 11.0201 25.8831 11.0101 25.9031L10.2101 27.0631L11.5401 26.6031C13.2901 25.9931 15.4901 25.5431 16.0001 25.8831C16.1201 25.9631 16.1801 26.0531 16.2101 26.1831C16.2901 26.6031 15.9301 27.2531 15.7901 27.4431L14.9601 28.6331L16.3201 28.1431C18.5001 27.3631 22.4101 26.4631 23.6101 27.3931C24.1701 27.8231 23.6501 28.6731 23.6201 28.7031L23.0801 29.5531L24.0701 29.4031C24.0701 29.4031 24.3201 29.3631 24.5601 29.3231C24.5601 29.4031 24.5601 29.4831 24.5601 29.5531C24.5601 31.4831 25.5301 32.5031 25.5801 32.5531L26.1501 33.1431L26.3501 32.3431C26.9201 30.1031 28.2501 29.3231 29.0001 29.0631C29.0201 29.2131 29.1201 29.9431 29.1201 29.9431L29.6501 29.7531C30.9601 29.2831 31.6901 28.7631 32.0901 28.3731C32.6901 28.3231 34.8901 28.1531 37.0001 28.3631C40.1101 28.6731 42.1801 28.2631 42.7401 28.1331C43.7701 27.8931 44.6101 28.3331 44.6201 28.3431L45.0301 28.5631L45.2501 28.1531C45.2501 28.1531 45.5301 27.6131 45.5301 26.8331C45.5301 26.6531 45.5201 26.4731 45.4801 26.2731L45.5001 26.2531Z" fill="#9A7611"/>
<path d="M42.2102 23.023C41.2902 22.373 40.0502 21.903 38.8502 21.563C39.3502 21.403 39.8502 21.413 39.8502 21.413C39.0802 21.123 38.2702 20.933 37.5302 20.823L37.8102 20.573C36.4402 20.343 35.4802 20.353 34.9102 20.413C34.9802 20.133 35.0402 19.703 34.9702 19.133C34.9702 19.133 34.8002 19.623 34.4002 19.933C34.3502 19.293 34.1402 18.363 33.4502 17.733L33.5802 18.863C32.9702 17.943 31.8002 16.763 29.6002 15.733C23.6002 12.923 13.0302 13.983 7.24023 21.473C7.24023 21.473 9.49023 20.343 12.6202 20.273C14.2602 20.233 14.6502 21.153 14.0602 22.693C13.4602 24.243 12.4102 25.603 12.4102 25.603C12.4102 25.603 19.4802 23.103 17.2502 26.573C17.2502 26.573 22.5902 24.973 24.1902 26.853C24.9302 27.723 24.0702 28.943 24.0702 28.943L25.5802 28.613C25.0902 30.533 25.9502 31.763 25.9502 31.763C26.5702 29.253 28.7502 28.583 29.5202 28.453L29.6902 29.133C30.9802 28.663 31.5902 28.173 31.9402 27.763C34.6802 27.333 36.5402 27.703 38.6402 27.813C41.7102 27.983 43.3002 27.443 43.8102 27.453C44.1802 27.453 44.6202 27.783 44.6202 27.783C44.6202 27.783 45.9002 25.623 42.2202 23.023H42.2102Z" fill="black"/>
<path d="M39.6898 27.1131C41.2198 27.1131 42.3698 26.9631 43.2698 26.7531C39.9398 25.3231 33.4298 24.7231 32.4298 24.8031C32.4298 24.8031 31.8798 24.9631 32.5098 25.5631C31.6198 25.2131 30.7398 24.5431 30.6798 24.2131C30.6198 23.8531 31.2598 23.7531 32.7998 23.9331C38.5498 24.6131 43.5198 25.5731 44.1898 26.9831C44.1898 26.9831 44.5398 25.2231 41.6798 23.5431C39.2298 21.9131 35.4598 21.6431 35.4598 21.6431L36.4098 22.4131L34.6398 22.2631L36.0398 23.2731C34.5398 22.7831 30.4898 21.4531 27.1298 22.2931C27.1298 22.2931 30.8098 22.2531 32.4898 23.2531C26.2698 22.2331 23.0298 24.4031 23.0298 24.4031C26.5298 23.4031 29.3198 23.6831 30.2398 23.8131C28.7698 24.1631 30.4998 25.2431 31.5598 25.8031C31.6798 26.1031 31.9698 26.7031 31.6898 27.2131C31.6898 27.2131 32.0098 26.8031 32.2398 26.2131L33.0998 26.9031C35.6698 26.5831 37.5698 27.1231 39.6898 27.1131V27.1131Z" fill="white"/>
<path d="M27.9298 15.9631C21.1298 13.9331 14.0298 15.8931 10.0898 19.6731C10.0898 19.6731 14.0598 18.4231 15.2498 19.6531C16.6298 21.0831 14.5398 24.4331 14.5398 24.4331L15.9098 24.2231C15.8098 24.2331 15.7498 24.2431 15.7498 24.2431C16.8198 20.4931 17.7898 19.1831 18.4398 18.5431C18.8198 18.0731 19.5098 17.7531 20.0498 17.5731C16.3798 17.7431 12.8198 18.5031 12.8198 18.5031C15.1298 16.7131 20.4698 15.4631 23.5498 15.7831C26.6298 16.0931 26.4198 17.3431 26.0998 18.0631C25.8398 18.6431 24.5898 19.4231 23.3998 19.6731C24.6298 19.8331 25.3198 20.7831 24.8798 21.7231C24.8398 21.8031 24.7998 21.8831 24.7498 21.9531C23.4398 22.2631 22.2798 22.7531 21.3298 23.2931C21.2998 23.3131 21.2598 23.3331 21.2298 23.3531C21.1898 23.3831 21.1398 23.4031 21.0998 23.4331C21.0698 23.4531 21.0298 23.4731 20.9998 23.4931C20.9598 23.5131 20.9198 23.5431 20.8798 23.5731C20.8498 23.5931 20.8098 23.6131 20.7798 23.6331C20.7398 23.6531 20.6998 23.6831 20.6598 23.7031C20.6298 23.7231 20.5898 23.7431 20.5598 23.7631C20.5198 23.7931 20.4898 23.8131 20.4498 23.8331C19.6698 24.3731 19.0998 24.9131 18.7998 25.3231C18.7998 25.3231 26.8098 23.7031 25.4198 27.7331L27.4898 27.1631C27.3398 27.4131 27.1098 27.7131 26.7998 28.0631C25.8198 29.1531 25.8898 30.1831 25.8898 30.1831C25.8898 30.1831 26.1798 29.0531 28.0298 28.2731C29.7198 27.5631 30.1098 26.3631 30.1098 26.3631C30.1098 26.3631 30.6698 27.1931 30.2098 28.3531C30.2098 28.3531 30.9898 28.1631 31.6798 27.2031C31.9598 26.6931 31.6798 26.0931 31.5498 25.7931C30.4898 25.2331 28.7598 24.1531 30.2298 23.8031C29.3098 23.6631 26.5198 23.3931 23.0198 24.3931C23.0198 24.3931 26.2498 22.2331 32.4798 23.2431C30.7998 22.2431 27.1198 22.2831 27.1198 22.2831C28.3998 21.9631 29.7798 21.9631 31.0898 22.1031C30.5698 21.9531 29.8498 21.7831 29.0198 21.6631C27.7398 21.5131 26.5198 21.5831 25.3898 21.7831C26.6598 20.4731 28.9598 20.6431 28.9598 20.6431C27.4198 19.6031 25.4198 19.9431 25.4198 19.9431C27.6698 18.7831 30.1698 19.1731 30.1698 19.1731C29.3798 18.1331 27.5298 17.9031 27.5298 17.9031C31.2098 17.7531 32.4998 19.6831 32.4998 19.6831C31.5798 19.2831 30.9298 19.3431 30.9298 19.3431C30.9298 19.3431 31.8098 19.4831 32.4098 20.6031C33.0398 21.7931 33.5798 21.7531 33.5798 21.7531C33.5798 21.7531 34.5898 17.9331 27.9298 15.9431V15.9631Z" fill="#24135F"/>
<path d="M20.6598 23.6731C20.6598 23.6731 20.8398 23.5531 20.8798 23.5331C20.9198 23.5031 20.9598 23.4831 20.9998 23.4531C21.0298 23.4331 21.0698 23.4131 21.0998 23.3931C21.1398 23.3631 21.1898 23.3431 21.2298 23.3131C21.2598 23.2931 21.2998 23.2731 21.3298 23.2531C22.2798 22.7131 23.4398 22.2231 24.7498 21.9131C24.7998 21.8331 24.8398 21.7631 24.8798 21.6831C25.3198 20.7431 24.6298 19.7931 23.3998 19.6331C24.5798 19.3831 25.8398 18.6031 26.0998 18.0231C26.4198 17.3131 26.6298 16.0631 23.5498 15.7431C20.4698 15.4331 15.1298 16.6831 12.8198 18.4631C12.8198 18.4631 16.3798 17.7131 20.0498 17.5331C19.4998 17.7231 18.8198 18.0331 18.4398 18.5031C17.7898 19.1431 16.8298 20.4631 15.7498 24.2031C15.7498 24.2031 15.8098 24.2031 15.9098 24.1831C16.3698 24.1231 17.7498 23.9631 18.5698 23.9131L19.9498 23.8331C20.0998 23.8331 20.2498 23.8331 20.4098 23.8231C20.4298 23.8131 20.4498 23.8031 20.4598 23.7831C20.4998 23.7631 20.5298 23.7331 20.5698 23.7131C20.5998 23.6931 20.6398 23.6731 20.6698 23.6531L20.6598 23.6731Z" fill="white"/>
<path d="M22.4601 19.013C22.4101 19.113 22.3601 19.203 22.3101 19.283C22.7501 19.153 23.0901 18.903 23.2601 18.613C23.6301 17.973 23.3501 17.503 22.7501 17.443H22.1301C22.1301 17.443 22.0201 17.533 21.8301 17.833C22.5501 17.833 22.8401 18.203 22.4601 19.013V19.013Z" fill="black"/>
<path d="M21.4002 22.0931C21.2802 22.3431 21.1302 22.5331 20.9502 22.6831C21.4202 22.5631 21.9202 22.2931 22.2002 21.6931C22.6602 20.7131 22.2502 20.2931 21.5202 20.2931H20.6102C20.5402 20.4231 20.4802 20.5631 20.4102 20.6931H20.7202C21.4502 20.6931 21.8602 21.1031 21.4002 22.0931Z" fill="black"/>
<path d="M20.9498 22.683C21.1298 22.533 21.2798 22.343 21.3998 22.093C21.8598 21.113 21.4498 20.693 20.7198 20.693H20.4098C19.8998 21.773 19.5898 22.753 19.5898 22.753H20.3798C20.5498 22.753 20.7498 22.733 20.9598 22.683H20.9498Z" fill="#24135F"/>
<path d="M22.3098 19.283C22.3598 19.203 22.4098 19.123 22.4598 19.013C22.8398 18.193 22.5498 17.833 21.8298 17.833C21.6398 18.123 21.3698 18.603 21.0298 19.383H21.5798C21.8398 19.383 22.0898 19.343 22.3098 19.283Z" fill="#24135F"/>
<path d="M25.8099 17.043C25.5199 16.573 24.8199 16.293 23.5699 16.223C23.5699 16.223 22.3099 16.053 20.7099 16.263C20.0799 16.343 16.9999 16.663 14.3799 17.943C16.6699 17.383 19.3799 17.183 21.0899 17.123C21.8099 17.093 22.5999 17.123 22.5999 17.123C23.1099 17.123 23.5899 17.273 23.7699 17.573C23.9599 17.883 24.0099 18.253 23.6599 18.703C23.4599 18.953 23.2399 19.213 22.5699 19.483L23.3399 19.323C24.4899 19.073 25.5299 18.433 25.7699 17.933C25.9399 17.563 25.9499 17.273 25.8099 17.043V17.043Z" fill="#9A7611"/>
<path d="M20.9201 23.5131C21.8301 22.9531 22.9801 22.4131 24.2801 22.0531C24.3601 21.9431 24.4301 21.8231 24.4901 21.7031C24.6201 21.4231 24.6401 21.0731 24.5401 20.7931C24.4001 20.3731 24.1201 20.0931 23.2301 19.8831C22.0701 19.6131 20.3701 19.7331 20.3701 19.7331C20.7601 18.7831 21.0501 18.2331 21.3501 17.7431C21.1001 17.7231 19.8301 17.8631 18.8601 18.7931C18.0101 19.5431 17.1001 21.4931 16.3701 23.8031C17.6201 23.6731 18.7601 23.6131 18.7601 23.6131L19.9501 23.5631C20.2601 23.5631 20.5901 23.5431 20.9201 23.5131V23.5131ZM20.2601 19.9731H21.5201C22.1701 19.9731 22.4701 20.2431 22.6101 20.4631C22.8301 20.8131 22.7901 21.2931 22.5201 21.8831C22.0101 23.0331 20.7601 23.1331 20.3801 23.1331L18.9401 23.1831C19.5601 21.2131 20.2501 19.9531 20.2501 19.9531L20.2601 19.9731Z" fill="#9A7611"/>
<path d="M31.52 20.343C31.71 20.793 31.45 21.293 30.93 21.463C30.41 21.633 29.84 21.403 29.65 20.943C29.46 20.493 29.72 19.993 30.24 19.823C30.75 19.653 31.33 19.883 31.52 20.343V20.343Z" fill="#C8102E"/>
<path d="M30.2001 21.0131C30.0601 20.6731 30.2601 20.2931 30.6601 20.1631C30.8101 20.1131 30.9701 20.1031 31.1201 20.1431C30.9201 20.0131 30.6501 19.9831 30.4001 20.0631C30.0001 20.1931 29.7901 20.5731 29.9401 20.9131C30.0301 21.1231 30.2301 21.2631 30.4601 21.3231C30.3401 21.2531 30.2501 21.1531 30.2001 21.0231V21.0131Z" fill="white"/>
<path d="M31.4802 20.623C31.5802 20.893 31.4402 21.193 31.1502 21.303C30.8602 21.403 30.5502 21.273 30.4402 21.003C30.3402 20.733 30.4902 20.433 30.7702 20.323C31.0602 20.223 31.3702 20.353 31.4802 20.623Z" fill="black"/>
</svg>
