<svg width="48" height="48" viewBox="0 0 48 48" fill="none" xmlns="http://www.w3.org/2000/svg">
<path d="M45.94 26.0701C45.7601 24.9903 45.0502 23.3907 42.6508 21.961C42.4908 21.861 42.3208 21.771 42.1409 21.6811C42.5908 21.5311 43.0507 21.3711 43.0507 21.3711L40.3913 20.3314C40.1613 20.2414 39.9214 20.1614 39.6814 20.0814C39.8614 19.9015 40.0414 19.7115 40.0414 19.7115L38.0018 19.4216C37.122 19.3016 36.4322 19.2716 35.8923 19.2816C35.8923 19.1916 35.8823 19.1216 35.8723 19.0417L35.5324 16.4922C35.5324 16.4922 34.7426 17.572 34.6626 17.672C34.4926 17.392 34.3027 17.1321 34.0827 16.8821L31.8832 14.4027C31.8832 14.4027 31.9732 15.1325 32.0432 15.7124C31.3333 15.2125 30.5435 14.7726 29.6837 14.4027C26.1745 12.903 21.7055 12.5831 17.4465 13.5529C13.8773 14.3627 8.73847 16.4722 4.46944 21.911L2 25.0603L5.70916 23.5806C5.70916 23.5806 8.5985 22.4509 10.918 22.131C11.7778 22.011 12.4376 22.001 11.9077 23.1807C11.4878 24.1105 10.5281 25.4702 10.5181 25.4802L8.65849 28.1796L11.7578 27.0998C13.2474 26.5799 14.5871 26.33 15.267 26.3C15.5069 26.3 15.5569 26.46 15.4769 26.6399C15.4569 26.6999 15.4369 26.7299 15.277 26.9898L13.3374 29.7692L16.5267 28.6295C18.8362 27.7997 21.8855 27.2498 22.9752 27.6697C23.0652 27.6997 23.3551 27.8597 23.0652 28.2696L21.8155 30.2591C21.8155 30.2591 23.6651 29.9792 23.925 29.9392C24.075 31.7588 24.9848 32.7485 25.0948 32.8685L26.4344 34.2482L26.9043 32.3786C27.2443 31.0389 27.8841 30.3091 28.454 29.9092L28.564 30.679L29.8037 30.2291C30.8534 29.8492 31.6833 29.3993 32.2731 28.8794C33.0629 28.8194 34.9925 28.6995 36.8421 28.8794C40.0314 29.1993 42.1709 28.7694 42.7507 28.6295C43.5306 28.4495 44.1804 28.7794 44.1904 28.7794L45.1402 29.2993L45.6501 28.3395C45.7101 28.2196 46 27.6197 46 26.7299C46 26.51 45.98 26.29 45.95 26.0701H45.94Z" fill="white"/>
<path d="M45.4901 26.2501C45.3302 25.2903 44.6803 23.8706 42.4808 22.5509C41.891 22.201 41.2511 21.9011 40.6013 21.6411L41.3811 21.3812L40.3113 20.9613C39.7814 20.7513 39.2216 20.5814 38.6517 20.4414C38.7617 20.3314 38.8817 20.2114 38.8817 20.2114L38.0618 20.0915C36.7921 19.9115 35.9223 19.9315 35.4124 19.9815C35.4124 19.8715 35.4124 19.7515 35.4124 19.6316C35.4124 19.4616 35.4124 19.3016 35.3924 19.1717L35.2525 18.1419C35.2525 18.1419 34.7526 18.8218 34.6826 18.9217C34.5126 18.4618 34.2427 17.892 33.7528 17.3321L32.863 16.3323L32.963 17.1721C32.1632 16.4323 31.0634 15.6525 29.5438 15.0026C26.1145 13.533 21.7555 13.223 17.5965 14.1728C14.1173 14.9626 9.07842 17.0222 4.89937 22.351L3.84961 23.6906L5.43925 23.0608C5.43925 23.0608 8.41857 21.8811 10.818 21.5611C11.7578 21.4312 12.4077 21.5511 12.6476 21.8711C12.8676 22.181 12.7976 22.7909 12.4577 23.5007C11.9878 24.4805 11.018 25.8801 11.008 25.9001L10.2082 27.0599L11.5379 26.6C13.2875 25.9901 15.487 25.5402 15.9968 25.8801C16.1168 25.9601 16.1768 26.0501 16.2068 26.1801C16.2868 26.6 15.9269 27.2498 15.7869 27.4398L14.9571 28.6295L16.3168 28.1396C18.4963 27.3598 22.4054 26.46 23.6051 27.3898C24.165 27.8197 23.6451 28.6695 23.6151 28.6995L23.0752 29.5493L24.065 29.3993C24.065 29.3993 24.315 29.3594 24.5549 29.3194C24.5549 29.3993 24.5549 29.4793 24.5549 29.5493C24.5549 31.4789 25.5247 32.4986 25.5747 32.5486L26.1445 33.1385L26.3445 32.3387C26.9144 30.0992 28.2441 29.3194 28.9939 29.0594C29.0139 29.2094 29.1139 29.9392 29.1139 29.9392L29.6437 29.7493C30.9535 29.2794 31.6833 28.7595 32.0832 28.3696C32.6831 28.3196 34.8826 28.1496 36.9921 28.3596C40.1014 28.6695 42.1709 28.2596 42.7308 28.1296C43.7605 27.8897 44.6004 28.3296 44.6103 28.3396L45.0203 28.5595L45.2402 28.1496C45.2402 28.1496 45.5201 27.6098 45.5201 26.8299C45.5201 26.65 45.5101 26.47 45.4702 26.2701L45.4901 26.2501Z" fill="#BCBEC0"/>
<path d="M42.2013 23.0208C41.2815 22.371 40.0418 21.9011 38.8421 21.5611C39.342 21.4012 39.8418 21.4112 39.8418 21.4112C39.072 21.1212 38.2622 20.9313 37.5224 20.8213L37.8023 20.5714C36.4326 20.3414 35.4728 20.3514 34.903 20.4114C34.973 20.1315 35.0329 19.7016 34.963 19.1317C34.963 19.1317 34.793 19.6216 34.3931 19.9315C34.3431 19.2917 34.1331 18.3619 33.4433 17.732L33.5733 18.8618C32.9634 17.942 31.7937 16.7622 29.5942 15.7325C23.5955 12.9231 13.0279 13.9829 7.23926 21.4712C7.23926 21.4712 9.48875 20.3414 12.618 20.2714C14.2577 20.2314 14.6476 21.1512 14.0577 22.6909C13.4578 24.2405 12.4081 25.6002 12.4081 25.6002C12.4081 25.6002 19.4765 23.1008 17.247 26.57C17.247 26.57 22.5858 24.9704 24.1854 26.8499C24.9252 27.7197 24.0654 28.9395 24.0654 28.9395L25.5751 28.6095C25.0852 30.5291 25.945 31.7588 25.945 31.7588C26.5649 29.2494 28.7444 28.5795 29.5142 28.4496L29.6842 29.1294C30.9739 28.6595 31.5837 28.1696 31.9336 27.7597C34.673 27.3298 36.5326 27.6997 38.6321 27.8097C41.7014 27.9797 43.2911 27.4398 43.8009 27.4498C44.1709 27.4498 44.6108 27.7797 44.6108 27.7797C44.6108 27.7797 45.8905 25.6202 42.2113 23.0208H42.2013Z" fill="#231F20"/>
<path d="M39.6811 27.1099C41.2108 27.1099 42.3605 26.9599 43.2603 26.75C39.9311 25.3203 33.4225 24.7204 32.4228 24.8004C32.4228 24.8004 31.8729 24.9604 32.5027 25.5602C31.613 25.2103 30.7332 24.5405 30.6732 24.2105C30.6132 23.8506 31.253 23.7506 32.7927 23.9306C38.5414 24.6104 43.5102 25.5702 44.1801 26.9799C44.1801 26.9799 44.53 25.2203 41.6707 23.5407C39.2212 21.9111 35.4521 21.6411 35.4521 21.6411L36.4019 22.4109L34.6323 22.261L36.0319 23.2707C34.5323 22.7809 30.4832 21.4512 27.124 22.291C27.124 22.291 30.8031 22.251 32.4828 23.2507C26.2642 22.231 23.0249 24.4005 23.0249 24.4005C26.5241 23.4007 29.3135 23.6806 30.2333 23.8106C28.7636 24.1605 30.4932 25.2403 31.553 25.8002C31.6729 26.1001 31.9629 26.7 31.6829 27.2098C31.6829 27.2098 32.0029 26.7999 32.2328 26.2101L33.0926 26.8999C35.662 26.58 37.5616 27.1199 39.6811 27.1099V27.1099Z" fill="white"/>
<path d="M27.9238 15.9624C21.1254 13.9329 14.027 15.8924 10.0879 19.6716C10.0879 19.6716 14.057 18.4219 15.2467 19.6516C16.6264 21.0812 14.5369 24.4305 14.5369 24.4305L15.9066 24.2205C15.8066 24.2305 15.7466 24.2405 15.7466 24.2405C16.8164 20.4914 17.7861 19.1817 18.436 18.5418C18.8159 18.0719 19.5057 17.752 20.0456 17.572C16.3765 17.742 12.8173 18.5018 12.8173 18.5018C15.1267 16.7122 20.4655 15.4625 23.5448 15.7825C26.6241 16.0924 26.4142 17.3421 26.0943 18.0619C25.8343 18.6418 24.5846 19.4216 23.3949 19.6716C24.6246 19.8315 25.3144 20.7813 24.8745 21.7211C24.8345 21.8011 24.7945 21.8811 24.7446 21.9511C23.4349 22.261 22.2751 22.7509 21.3253 23.2907C21.2953 23.3107 21.2554 23.3307 21.2254 23.3507C21.1854 23.3807 21.1354 23.4007 21.0954 23.4307C21.0654 23.4507 21.0254 23.4707 20.9954 23.4907C20.9554 23.5107 20.9154 23.5407 20.8754 23.5707C20.8454 23.5907 20.8055 23.6107 20.7755 23.6307C20.7355 23.6507 20.6955 23.6807 20.6555 23.7007C20.6255 23.7206 20.5855 23.7406 20.5555 23.7606C20.5155 23.7906 20.4855 23.8106 20.4455 23.8306C19.6657 24.3705 19.0958 24.9104 18.7959 25.3203C18.7959 25.3203 26.8041 23.7007 25.4144 27.7297L27.4839 27.1599C27.334 27.4098 27.104 27.7097 26.7941 28.0597C25.8143 29.1494 25.8843 30.1792 25.8843 30.1792C25.8843 30.1792 26.1742 29.0494 28.0238 28.2696C29.7134 27.5598 30.1033 26.36 30.1033 26.36C30.1033 26.36 30.6632 27.1899 30.2033 28.3496C30.2033 28.3496 30.9831 28.1596 31.673 27.1999C31.9529 26.69 31.673 26.0901 31.543 25.7902C30.4833 25.2303 28.7536 24.1506 30.2233 23.8006C29.3035 23.6607 26.5142 23.3907 23.015 24.3905C23.015 24.3905 26.2442 22.231 32.4728 23.2408C30.7932 22.241 27.114 22.281 27.114 22.281C28.3937 21.961 29.7734 21.961 31.0831 22.101C30.5632 21.9511 29.8434 21.7811 29.0136 21.6611C27.7339 21.5112 26.5142 21.5811 25.3844 21.7811C26.6541 20.4714 28.9536 20.6413 28.9536 20.6413C27.414 19.6016 25.4144 19.9415 25.4144 19.9415C27.6639 18.7818 30.1633 19.1717 30.1633 19.1717C29.3735 18.1319 27.5239 17.902 27.5239 17.902C31.2031 17.752 32.4928 19.6816 32.4928 19.6816C31.573 19.2817 30.9232 19.3416 30.9232 19.3416C30.9232 19.3416 31.803 19.4816 32.4028 20.6014C33.0327 21.7911 33.5726 21.7511 33.5726 21.7511C33.5726 21.7511 34.5823 17.932 27.9238 15.9424V15.9624Z" fill="#808285"/>
<path d="M20.6556 23.6706C20.6556 23.6706 20.8356 23.5507 20.8756 23.5307C20.9155 23.5007 20.9555 23.4807 20.9955 23.4507C21.0255 23.4307 21.0655 23.4107 21.0955 23.3907C21.1355 23.3607 21.1855 23.3407 21.2255 23.3107C21.2555 23.2907 21.2955 23.2707 21.3254 23.2507C22.2752 22.7109 23.435 22.221 24.7447 21.911C24.7947 21.8311 24.8347 21.7611 24.8746 21.6811C25.3145 20.7413 24.6247 19.7915 23.395 19.6316C24.5747 19.3816 25.8344 18.6018 26.0944 18.0219C26.4143 17.3121 26.6242 16.0624 23.5449 15.7424C20.4656 15.4325 15.1269 16.6822 12.8174 18.4618C12.8174 18.4618 16.3766 17.712 20.0457 17.532C19.4959 17.722 18.816 18.0319 18.4361 18.5018C17.7863 19.1417 16.8265 20.4614 15.7467 24.2005C15.7467 24.2005 15.8067 24.2005 15.9067 24.1805C16.3666 24.1205 17.7463 23.9606 18.5661 23.9106L19.9458 23.8306C20.0957 23.8306 20.2457 23.8306 20.4057 23.8206C20.4257 23.8106 20.4456 23.8006 20.4556 23.7806C20.4956 23.7606 20.5256 23.7306 20.5656 23.7106C20.5956 23.6906 20.6356 23.6706 20.6656 23.6506L20.6556 23.6706Z" fill="white"/>
<path d="M22.4557 19.012C22.4057 19.112 22.3557 19.202 22.3057 19.282C22.7457 19.152 23.0857 18.902 23.2557 18.612C23.6257 17.972 23.3457 17.502 22.7457 17.442H22.1257C22.1257 17.442 22.0157 17.532 21.8257 17.832C22.5457 17.832 22.8357 18.202 22.4557 19.012V19.012Z" fill="#231F20"/>
<path d="M21.3958 22.0914C21.2758 22.3414 21.1258 22.5314 20.9458 22.6814C21.4158 22.5614 21.9158 22.2914 22.1958 21.6914C22.6558 20.7114 22.2458 20.2914 21.5158 20.2914H20.6058C20.5358 20.4214 20.4758 20.5614 20.4058 20.6914H20.7158C21.4458 20.6914 21.8558 21.1014 21.3958 22.0914Z" fill="#231F20"/>
<path d="M20.9459 22.6813C21.1259 22.5313 21.2759 22.3413 21.3959 22.0913C21.8559 21.1113 21.4459 20.6913 20.7159 20.6913H20.4059C19.8959 21.7713 19.5859 22.7513 19.5859 22.7513H20.3759C20.5459 22.7513 20.7459 22.7313 20.9559 22.6813H20.9459Z" fill="#808285"/>
<path d="M22.3054 19.2819C22.3554 19.2019 22.4054 19.1219 22.4554 19.0119C22.8354 18.1919 22.5454 17.8319 21.8254 17.8319C21.6354 18.1219 21.3654 18.6019 21.0254 19.3819H21.5754C21.8354 19.3819 22.0854 19.3419 22.3054 19.2819Z" fill="#808285"/>
<path d="M25.8044 17.0421C25.5144 16.5722 24.8146 16.2923 23.5649 16.2223C23.5649 16.2223 22.3052 16.0523 20.7055 16.2623C20.0757 16.3423 16.9964 16.6622 14.377 17.9419C16.6664 17.382 19.3758 17.1821 21.0854 17.1221C21.8053 17.0921 22.5951 17.1221 22.5951 17.1221C23.105 17.1221 23.5849 17.2721 23.7648 17.572C23.9548 17.8819 24.0048 18.2518 23.6548 18.7017C23.4549 18.9517 23.2349 19.2116 22.5651 19.4816L23.3349 19.3216C24.4847 19.0717 25.5244 18.4318 25.7644 17.9319C25.9343 17.562 25.9443 17.2721 25.8044 17.0421V17.0421Z" fill="#BCBEC0"/>
<path d="M20.9157 23.5107C21.8255 22.9508 22.9752 22.4109 24.2749 22.051C24.3549 21.941 24.4249 21.8211 24.4849 21.7011C24.6148 21.4211 24.6348 21.0712 24.5348 20.7913C24.3949 20.3714 24.1149 20.0914 23.2251 19.8815C22.0654 19.6116 20.3658 19.7315 20.3658 19.7315C20.7557 18.7817 21.0456 18.2319 21.3456 17.742C21.0956 17.722 19.8259 17.862 18.8561 18.7917C18.0063 19.5416 17.0965 21.4911 16.3667 23.8006C17.6164 23.6706 18.7562 23.6106 18.7562 23.6106L19.9459 23.5607C20.2558 23.5607 20.5857 23.5407 20.9157 23.5107V23.5107ZM20.2558 19.9715H21.5155C22.1654 19.9715 22.4653 20.2414 22.6053 20.4614C22.8252 20.8113 22.7852 21.2912 22.5153 21.881C22.0054 23.0308 20.7557 23.1308 20.3758 23.1308L18.9361 23.1807C19.556 21.2112 20.2458 19.9515 20.2458 19.9515L20.2558 19.9715Z" fill="#BCBEC0"/>
<path d="M31.5136 20.3414C31.7036 20.7914 31.4436 21.2914 30.9236 21.4614C30.4036 21.6314 29.8336 21.4014 29.6436 20.9414C29.4536 20.4914 29.7136 19.9914 30.2336 19.8214C30.7436 19.6514 31.3236 19.8814 31.5136 20.3414V20.3414Z" fill="#808285"/>
<path d="M30.1938 21.0115C30.0538 20.6715 30.2538 20.2915 30.6538 20.1615C30.8038 20.1115 30.9638 20.1015 31.1138 20.1415C30.9138 20.0115 30.6438 19.9815 30.3938 20.0615C29.9938 20.1915 29.7838 20.5715 29.9338 20.9115C30.0238 21.1215 30.2238 21.2615 30.4538 21.3215C30.3338 21.2515 30.2438 21.1515 30.1938 21.0215V21.0115Z" fill="white"/>
<path d="M31.4739 20.6213C31.5739 20.8913 31.4339 21.1913 31.1439 21.3013C30.8539 21.4013 30.5439 21.2713 30.4339 21.0013C30.3339 20.7313 30.4839 20.4313 30.7639 20.3213C31.0539 20.2213 31.3639 20.3513 31.4739 20.6213Z" fill="#231F20"/>
</svg>
