<svg width="48" height="48" viewBox="0 0 48 48" fill="none" xmlns="http://www.w3.org/2000/svg">
<path d="M46 18.9H29.32L24 3L18.68 18.9H2L15.67 28.69L10.42 44.59L24 34.89L37.58 44.57L32.33 28.69L46 18.9Z" fill="white"/>
<path d="M24.0001 4.89001L19.1101 19.49H3.8501L16.3701 28.46L11.5501 43.06L24.0001 34.16L36.4501 43.06L31.6301 28.46L44.1501 19.49H28.8901L24.0001 4.89001Z" fill="#231F20"/>
<path d="M24.0002 8.92004L20.0702 20.74H7.7002L17.8502 28L13.9502 39.83L24.0302 32.63L34.0502 39.83L30.1502 28L40.3002 20.74H27.9302L24.0002 8.92004Z" fill="white"/>
<path d="M24.0001 12.39L20.9101 21.73H11.1401L19.1601 27.47L16.0701 36.81L24.0401 31.12L31.9301 36.81L28.8401 27.47L36.8601 21.73H27.0901L24.0001 12.39Z" fill="#231F20"/>
</svg>
