<svg width="25" height="25" viewBox="0 0 25 25" fill="none" xmlns="http://www.w3.org/2000/svg">
<path fill-rule="evenodd" clip-rule="evenodd" d="M7.69749 23.2764L18.4773 21.3746C19.0948 21.263 19.5612 21.0265 19.8765 20.6652C20.1852 20.3105 20.3396 19.8309 20.3396 19.2266V5.65825C20.3396 5.19185 20.241 4.7977 20.044 4.47582C19.8469 4.15394 19.571 3.92731 19.2163 3.79593C18.8616 3.65798 18.4444 3.6317 17.9649 3.7171L7.50042 5.55971C6.54134 5.73051 5.81875 6.0294 5.33264 6.45638C4.83997 6.8768 4.59363 7.56983 4.59363 8.53548V20.4287C4.59363 21.1316 4.71844 21.7129 4.96806 22.1728C5.21769 22.6392 5.5757 22.9676 6.0421 23.1581C6.50193 23.3486 7.05373 23.388 7.69749 23.2764ZM17.7974 7.51071V9.58981C17.7974 9.79345 17.7317 9.94782 17.6003 10.0529C17.4689 10.158 17.3178 10.2139 17.147 10.2204C16.9762 10.2204 16.8284 10.1745 16.7036 10.0825C16.5722 9.98395 16.5066 9.83615 16.5066 9.63908V8.3187C16.5066 8.04937 16.3522 7.9377 16.0434 7.98368L14.7428 8.22017C14.5326 8.25301 14.3683 8.21688 14.2501 8.11178C14.1253 8.0001 14.0497 7.86215 14.0235 7.69793C13.9906 7.5337 14.0136 7.37933 14.0924 7.23481C14.1647 7.09029 14.2928 7.00161 14.4767 6.96877L16.5952 6.59433C16.9697 6.52864 17.2653 6.57463 17.4821 6.73228C17.6923 6.88994 17.7974 7.14942 17.7974 7.51071ZM8.50548 9.94454V11.1959C8.50548 11.3996 8.44308 11.5572 8.31827 11.6689C8.18689 11.7806 8.0358 11.8397 7.865 11.8463C7.69421 11.8528 7.54312 11.8036 7.41174 11.6985C7.28036 11.5868 7.21467 11.4193 7.21467 11.1959V9.55039C7.21467 9.09056 7.3362 8.73912 7.57925 8.49607C7.81574 8.24644 8.20659 8.07236 8.75182 7.97383L9.77659 7.79646C9.99994 7.75705 10.1806 7.7899 10.3185 7.895C10.4499 8.0001 10.5287 8.13805 10.555 8.30885C10.5813 8.47307 10.5517 8.62745 10.4663 8.77196C10.3744 8.91648 10.2167 9.00845 9.99337 9.04786L9.17552 9.19567C8.88649 9.24822 8.70255 9.35004 8.62373 9.50113C8.5449 9.64565 8.50548 9.79345 8.50548 9.94454ZM16.5066 17.1179V15.8665C16.5066 15.6629 16.5722 15.5052 16.7036 15.3935C16.8284 15.2819 16.9762 15.2227 17.147 15.2162C17.3178 15.2096 17.4689 15.2622 17.6003 15.3738C17.7317 15.4789 17.7974 15.6432 17.7974 15.8665V17.5121C17.7974 17.9719 17.6791 18.3266 17.4426 18.5762C17.1996 18.8193 16.8054 18.9901 16.2602 19.0886L15.2355 19.266C15.0121 19.3054 14.8347 19.2726 14.7034 19.1674C14.5654 19.0558 14.4833 18.9178 14.457 18.7536C14.4242 18.5894 14.4537 18.435 14.5457 18.2905C14.6377 18.1394 14.7953 18.0474 15.0187 18.0146L15.8365 17.8668C16.1256 17.8142 16.3095 17.7124 16.3883 17.5613C16.4671 17.4102 16.5066 17.2624 16.5066 17.1179ZM7.21467 19.5517V17.4726C7.21467 17.2624 7.28036 17.1081 7.41174 17.0095C7.54312 16.9044 7.69421 16.8519 7.865 16.8519C8.0358 16.8453 8.18689 16.8913 8.31827 16.9898C8.44308 17.0818 8.50548 17.2263 8.50548 17.4234V18.7437C8.50548 19.0131 8.65986 19.1248 8.9686 19.0788L10.2693 18.8423C10.4795 18.8094 10.647 18.8489 10.7718 18.9605C10.89 19.0656 10.9656 19.2003 10.9984 19.3645C11.0247 19.5287 11.0017 19.6831 10.9295 19.8276C10.8506 19.9722 10.716 20.0608 10.5255 20.0937L8.4168 20.4681C8.04237 20.5338 7.75005 20.4878 7.53984 20.3302C7.32306 20.1725 7.21467 19.913 7.21467 19.5517ZM13.6749 11.9901L15.1592 11.7382C15.284 11.748 15.3789 11.8604 15.3695 11.9901C15.3663 12.042 15.3465 12.0906 15.314 12.1292L14.3774 13.7855L14.9656 15.5127C14.9963 15.6387 14.9228 15.7659 14.8018 15.797C14.7538 15.8095 14.7025 15.8052 14.6569 15.7843L12.9844 15.3927L11.2662 16.6319C11.2105 16.6675 11.1892 16.6675 11.1471 16.6675H11.1469C11.1047 16.6676 11.0633 16.6553 11.0273 16.6321C10.9913 16.6089 10.9622 16.5758 10.9433 16.5364C10.9245 16.497 10.9166 16.453 10.9205 16.4093L11.2104 14.31L9.75048 13.2242C9.70433 13.184 9.67535 13.1264 9.66989 13.0642C9.66444 13.0019 9.68295 12.9401 9.72138 12.8924C9.75318 12.8531 9.79649 12.8255 9.8453 12.8145L11.6815 12.2794L12.3555 10.5322C12.4025 10.4122 12.5343 10.3544 12.65 10.4032C12.6961 10.4226 12.7348 10.4574 12.7602 10.5019L13.6749 11.9901Z" fill="white"/>
</svg>
