<svg width="32" height="32" viewBox="0 0 32 32" fill="none" xmlns="http://www.w3.org/2000/svg">
<rect width="32" height="32" rx="16" fill="white"/>
<path d="M23.6361 9.33998C22.1907 8.70497 20.6648 8.25448 19.0973 8C18.8828 8.36793 18.6888 8.74649 18.5159 9.13408C16.8463 8.89266 15.1484 8.89266 13.4788 9.13408C13.3059 8.74653 13.1118 8.36798 12.8974 8C11.329 8.25662 9.80205 8.70819 8.35518 9.3433C5.48276 13.4213 4.70409 17.3981 5.09342 21.3184C6.77558 22.511 8.6584 23.418 10.66 24C11.1107 23.4183 11.5096 22.8012 11.8523 22.1553C11.2014 21.922 10.5731 21.6342 9.9748 21.2951C10.1323 21.1856 10.2863 21.0726 10.4351 20.9631C12.176 21.7487 14.0761 22.156 16 22.156C17.9238 22.156 19.8239 21.7487 21.5648 20.9631C21.7154 21.0809 21.8694 21.1939 22.0251 21.2951C21.4257 21.6347 20.7963 21.9231 20.1442 22.1569C20.4865 22.8026 20.8853 23.4192 21.3364 24C23.3398 23.4204 25.224 22.5138 26.9065 21.32V21.32C27.3633 16.7738 26.1261 12.8335 23.6361 9.33998ZM12.3454 18.9074C11.2605 18.9074 10.3641 17.9626 10.3641 16.8003C10.3641 15.638 11.2293 14.6849 12.342 14.6849C13.4546 14.6849 14.344 15.638 14.325 16.8003C14.3059 17.9626 13.4511 18.9074 12.3454 18.9074ZM19.6545 18.9074C18.5678 18.9074 17.675 17.9626 17.675 16.8003C17.675 15.638 18.5401 14.6849 19.6545 14.6849C20.7689 14.6849 21.6514 15.638 21.6323 16.8003C21.6133 17.9626 20.7602 18.9074 19.6545 18.9074Z" fill="black"/>
</svg>
