<svg width="28" height="30" viewBox="0 0 28 30" fill="none" xmlns="http://www.w3.org/2000/svg">
<path d="M20.4086 28.8705C26.9107 26.5019 29.1245 21.0835 26.6011 14.1325L25.5483 11.2375C24.5885 8.62121 22.7153 7.41368 21.2291 7.95552C20.8576 8.09485 20.7337 8.37351 20.8576 8.7141L21.322 9.96807C21.5232 10.5254 21.353 10.8969 21.0124 11.0208C20.6563 11.1601 20.2848 10.9743 20.0835 10.417L19.7894 9.59652C19.2166 8.03293 17.8233 7.35176 16.4454 7.84715C15.7952 8.07937 15.594 8.48188 15.7952 9.0392L16.4145 10.7421C16.6157 11.2994 16.4454 11.671 16.1203 11.7948C15.7643 11.9342 15.3927 11.7484 15.176 11.1911L14.6032 9.612C13.9685 7.86263 12.6371 7.36724 11.2902 7.86263C10.671 8.07937 10.4388 8.49736 10.64 9.0392L11.863 12.3986C12.0643 12.9559 11.894 13.3275 11.5689 13.4513C11.2128 13.5906 10.8413 13.4049 10.6245 12.8476L6.58396 1.71663C6.16597 0.586505 5.14422 0.0911092 4.15343 0.447175C3.11619 0.834203 2.66724 1.85596 3.08523 3.00156L8.96806 19.1639C9.10739 19.5354 8.95258 19.8141 8.70488 19.9069C8.48814 19.9844 8.25592 19.9224 7.96178 19.6128L4.0141 15.371C3.39485 14.7053 2.72916 14.4886 1.97059 14.7672C0.88691 15.1542 0.437957 16.145 0.778542 17.0739C0.902391 17.43 1.08816 17.7086 1.25846 17.9254L6.36723 24.2726C10.64 29.5826 15.5321 30.6508 20.4086 28.8705Z" fill="white"/>
</svg>
