<svg width="300" height="172" viewBox="0 0 300 172" fill="none" xmlns="http://www.w3.org/2000/svg">
<path d="M63.2366 150.65V135.52H43.8842L43.8943 89.711H20.2744V150.65H63.2366Z" fill="white"/>
<path d="M275.408 142.145C273.014 142.145 271.08 144.095 271.08 146.493C271.08 148.892 273.014 150.867 275.408 150.867C277.801 150.867 279.705 148.912 279.705 146.493C279.705 144.075 277.776 142.145 275.408 142.145ZM275.408 150.046C273.463 150.046 271.896 148.463 271.896 146.493C271.896 144.523 273.468 142.967 275.408 142.967C277.332 142.967 278.894 144.544 278.894 146.493C278.894 148.443 277.332 150.046 275.408 150.046Z" fill="white"/>
<path d="M92.0965 89.711H68.1239V150.65H92.0965V89.711Z" fill="white"/>
<path d="M93.9455 82.3096C104.934 82.3096 114.023 76.7976 114.023 64.0505C114.023 56.2561 108.995 51.4697 103.624 49.3888C109.166 46.8193 112.341 42.4611 112.341 36.7375C112.341 26.7867 105.09 21.3604 93.8599 21.3604H57.1049V82.3046H93.9455V82.3096ZM86.7155 69.5625H79.3897V56.3821H86.7155C89.5974 56.3821 92.429 57.7576 92.429 62.8514C92.429 68.2777 89.7435 69.5625 86.7155 69.5625ZM86.0756 33.8958C89.149 33.8958 91.4465 35.6441 91.4465 39.7857C91.4465 44.6578 89.1893 46.1895 85.9647 46.1895H79.3947V33.8958H86.0756Z" fill="white"/>
<path d="M227.145 104.101H241.509V150.65H265.321V104.101H279.721V89.711H227.145V104.101Z" fill="white"/>
<path d="M133.31 103.551C139.311 103.551 144.027 106.227 147.514 109.406L157.908 97.2786C151.086 91.1973 142.964 88.0332 131.612 88.0332C111.575 88.0332 97.6236 99.7071 97.6236 120.294C97.6236 142.478 110.426 152.575 131.94 152.575C141.301 152.575 149.786 150.837 157.117 147.698V115.916H129.34V128.098H136.54V138.392C135.83 138.563 134.389 138.709 133.058 138.709C124.065 138.709 121.133 131.398 121.133 120.294C121.133 108.549 125.949 103.546 133.305 103.546L133.31 103.551Z" fill="white"/>
<path d="M147.423 83.2266C166.412 83.2266 175.547 76.5205 175.547 60.045V21.3654H153.257V62.4231C153.257 66.8367 150.491 68.6354 147.262 68.6354C144.032 68.6354 141.266 66.9022 141.266 62.4231V21.3654H118.417V60.045C118.417 75.4372 127.295 83.2266 147.428 83.2266H147.423Z" fill="white"/>
<path d="M212.352 82.3096C228.133 82.3096 243.031 73.306 243.031 51.2933C243.031 29.8702 229.73 21.3654 213.547 21.3654H182.409V82.3096H212.352ZM207.642 34.6969C211.99 34.6969 219.487 35.367 219.487 51.2681C219.487 67.1693 212.907 68.7412 207.747 68.7412H205.374V34.702H207.636L207.642 34.6969Z" fill="white"/>
<path d="M199.167 89.711V112.006H186.692L186.697 89.711H163.727V150.65H186.697L186.692 127.106H199.167V150.65H222.142V89.711H199.167Z" fill="white"/>
<path d="M277.589 145.617C277.589 145.128 277.463 144.67 277.035 144.397C276.692 144.176 276.168 144.166 275.77 144.166H273.528V148.887H274.44V146.886H275.352L276.38 148.887H277.448L276.32 146.886C277.146 146.826 277.594 146.478 277.594 145.622L277.589 145.617ZM275.801 146.181H274.44V144.861H275.569C276.017 144.861 276.677 144.861 276.677 145.466C276.677 146.07 276.31 146.191 275.796 146.181H275.801Z" fill="white"/>
<path d="M300 9.41924C300 4.21964 296.675 0.854004 291.53 0.854004H227.145H104.803H8.46951C3.32533 0.854004 0 4.28514 0 9.48978V162.576C0 167.78 3.32533 171.146 8.46951 171.146H291.53C296.675 171.146 300 167.78 300 162.576V9.41924ZM291.465 165.78H8.53501C6.49951 165.78 5.30037 164.571 5.30037 162.505V9.48978C5.30037 7.42405 6.49447 6.21484 8.52997 6.21484H183.281H291.465C293.506 6.21484 294.7 7.42405 294.7 9.48978V162.576C294.7 164.642 293.506 165.78 291.465 165.78Z" fill="#00B5E2"/>
</svg>
