<svg width="164" height="164" viewBox="0 0 164 164" fill="none" xmlns="http://www.w3.org/2000/svg">
<path opacity="0.4" fill-rule="evenodd" clip-rule="evenodd" d="M105.532 83.9256V88.6676C105.532 89.4855 104.868 90.1488 104.05 90.1488C103.232 90.1488 102.568 89.4863 102.568 88.6676V83.9256H94.7449V88.6676C94.7449 89.4855 94.0817 90.1488 93.263 90.1488C92.4443 90.1488 91.7811 89.4863 91.7811 88.6676V83.9256H83.9582V88.6676C83.9582 89.4855 83.295 90.1488 82.4763 90.1488C81.6576 90.1488 80.9951 89.4863 80.9951 88.6676V83.9256H73.1722V88.6676C73.1722 89.4855 72.509 90.1488 71.6903 90.1488C70.8724 90.1488 70.2092 89.4863 70.2092 88.6676V83.9256H62.3863V88.6676C62.3863 89.4855 61.7231 90.1488 60.9051 90.1488C60.0872 90.1488 59.4239 89.4863 59.4239 88.6676V83.9256H53.5443L53.5435 105.171C62.1563 109.829 71.999 112.5 82.4778 112.5C92.9572 112.5 102.801 109.827 111.412 105.171V83.9256H105.532ZM135.298 81.9995C135.303 76.2241 124.654 67.5852 117.339 62.4729V101.53C124.654 96.4167 135.293 88.3615 135.298 81.9995ZM59.4237 76.2228V80.964L53.5454 80.9629V58.8292C62.1589 54.1727 72.0009 51.5 82.4797 51.5C92.9585 51.5 102.801 54.172 111.414 58.8285V80.964H105.531V76.2228C105.531 75.4049 104.868 74.7417 104.049 74.7417C103.231 74.7417 102.568 75.4049 102.568 76.2228V80.964H94.7446V76.2228C94.7446 75.4049 94.0814 74.7417 93.2627 74.7417C92.444 74.7417 91.7808 75.4049 91.7808 76.2228V80.964H83.9579V76.2228C83.9579 75.4049 83.2947 74.7417 82.476 74.7417C81.6573 74.7417 80.9949 75.4049 80.9949 76.2228V80.964H73.172V76.2228C73.172 75.4049 72.5087 74.7417 71.6901 74.7417C70.8721 74.7417 70.2089 75.4049 70.2089 76.2228V80.964H62.386V76.2228C62.386 75.4049 61.7228 74.7417 60.9048 74.7417C60.0869 74.7417 59.4237 75.4049 59.4237 76.2228ZM28.7021 81.9995C28.6975 76.2241 39.3459 67.5852 46.6609 62.4729V101.53C39.3459 96.4167 28.7073 88.3615 28.7021 81.9995Z" fill="white"/>
<rect x="0.5" y="0.5" width="163" height="163" rx="11.5" stroke="white" stroke-dasharray="8 8"/>
</svg>
